G04*
G04 #@! TF.GenerationSoftware,Altium Limited,Altium Designer,23.11.1 (41)*
G04*
G04 Layer_Color=16711935*
%FSLAX44Y44*%
%MOMM*%
G71*
G04*
G04 #@! TF.SameCoordinates,79A2741A-1FD1-431D-8CB4-14BDB42BD488*
G04*
G04*
G04 #@! TF.FilePolarity,Positive*
G04*
G01*
G75*
%ADD87C,0.1000*%
D87*
X613639Y318744D02*
X616593Y318453D01*
X619335Y317317D01*
X621629Y315434D01*
X623278Y312966D01*
X624139Y310126D01*
X624139Y308643D02*
X624139Y310126D01*
X624139Y308643D02*
X624139Y307657D01*
X623755Y305725D02*
X624139Y307657D01*
X623001Y303904D02*
X623755Y305725D01*
X621906Y302265D02*
X623001Y303904D01*
X621209Y301569D02*
X621906Y302265D01*
X621209Y301569D02*
X621209D01*
X560468Y240828D02*
X621209Y301569D01*
X522155Y125890D02*
X560468Y240828D01*
X521661Y124405D02*
X522155Y125890D01*
X520223Y121624D02*
X521661Y124405D01*
X518369Y119101D02*
X520223Y121624D01*
X516145Y116897D02*
X518369Y119101D01*
X513606Y115066D02*
X516145Y116897D01*
X510812Y113652D02*
X513606Y115066D01*
X507833Y112690D02*
X510812Y113652D01*
X504741Y112203D02*
X507833Y112690D01*
X503175Y112203D02*
X504741Y112203D01*
X324254Y112203D02*
X503175D01*
X324254Y87249D02*
Y112203D01*
Y85932D02*
Y87249D01*
X323572Y83388D02*
X324254Y85932D01*
X322255Y81107D02*
X323572Y83388D01*
X320393Y79244D02*
X322255Y81107D01*
X318111Y77927D02*
X320393Y79244D01*
X315567Y77245D02*
X318111Y77927D01*
X312933Y77245D02*
X315567D01*
X310389Y77927D02*
X312933Y77245D01*
X308108Y79244D02*
X310389Y77927D01*
X306245Y81107D02*
X308108Y79244D01*
X304928Y83388D02*
X306245Y81107D01*
X304246Y85932D02*
X304928Y83388D01*
X304246Y85932D02*
Y87249D01*
Y119750D01*
Y120973D01*
X304722Y123372D01*
X305654Y125632D01*
X307009Y127669D01*
X308733Y129403D01*
X310762Y130769D01*
X313017Y131715D01*
X315413Y132204D01*
X316636Y132211D01*
X316636Y132211D01*
X316707Y132211D01*
X503173D01*
X503175Y132217D01*
X542234Y249395D01*
X542417Y249946D01*
X542910Y250997D01*
X543520Y251985D01*
X544240Y252895D01*
X544651Y253305D01*
X544651Y253305D01*
X607062Y315716D01*
X608111Y316766D01*
X610728Y318165D01*
X613639Y318744D01*
X181960Y436646D02*
X183893Y436262D01*
X185714Y435508D01*
X187352Y434413D01*
X188745Y433020D01*
X189840Y431381D01*
X190594Y429561D01*
X190979Y427628D01*
Y426643D02*
Y427628D01*
Y425657D02*
Y426643D01*
X190594Y423725D02*
X190979Y425657D01*
X189840Y421904D02*
X190594Y423725D01*
X188745Y420266D02*
X189840Y421904D01*
X187352Y418872D02*
X188745Y420266D01*
X185714Y417777D02*
X187352Y418872D01*
X183893Y417023D02*
X185714Y417777D01*
X181960Y416639D02*
X183893Y417023D01*
X172966Y416639D02*
X181960D01*
X100004Y343676D02*
X172966Y416639D01*
X100004Y161417D02*
Y343676D01*
Y160100D02*
Y161417D01*
X99322Y157556D02*
X100004Y160100D01*
X98005Y155274D02*
X99322Y157556D01*
X96142Y153412D02*
X98005Y155274D01*
X93861Y152095D02*
X96142Y153412D01*
X91317Y151413D02*
X93861Y152095D01*
X88683Y151413D02*
X91317D01*
X86138Y152095D02*
X88683Y151413D01*
X83857Y153412D02*
X86138Y152095D01*
X81995Y155274D02*
X83857Y153412D01*
X80678Y157556D02*
X81995Y155274D01*
X79996Y160100D02*
X80678Y157556D01*
X79996Y160100D02*
Y161417D01*
Y343678D01*
Y345648D01*
X80765Y349513D01*
X82273Y353153D01*
X84462Y356429D01*
X85855Y357823D01*
X85855Y357823D01*
X158820Y430787D01*
X160213Y432180D01*
X163489Y434370D01*
X167130Y435878D01*
X170994Y436646D01*
X172965D01*
X172965Y436646D01*
X181960D01*
X710000Y0D02*
Y520000D01*
X527925D02*
X710000D01*
X527925D02*
X539388Y508537D01*
X539388Y508537D02*
X539388Y508537D01*
X539388Y508537D02*
X540781Y507144D01*
X542970Y503868D01*
X544478Y500227D01*
X545247Y496362D01*
Y494392D02*
Y496362D01*
Y494392D02*
X545247Y477892D01*
X545247Y477892D02*
X545247Y477892D01*
X545247Y475922D02*
Y477892D01*
X544478Y472057D02*
X545247Y475922D01*
X542970Y468417D02*
X544478Y472057D01*
X540781Y465140D02*
X542970Y468417D01*
X539388Y463747D02*
X540781Y465140D01*
X526533Y450892D02*
X539388Y463747D01*
X526533Y450892D02*
X576243Y401182D01*
X589098Y414037D01*
Y414037D02*
Y414037D01*
Y414037D02*
X590491Y415430D01*
X593767Y417620D01*
X597408Y419128D01*
X601272Y419896D01*
X603243Y419896D01*
X619743Y419896D01*
X619743Y419896D02*
X619743Y419896D01*
X619743Y419896D02*
X621713D01*
X625578Y419128D01*
X629218Y417620D01*
X632495Y415430D01*
X633888Y414037D01*
X660138Y387787D01*
X660138Y387787D02*
X660138Y387787D01*
X660138Y387787D02*
X661531Y386394D01*
X663720Y383118D01*
X665228Y379477D01*
X665997Y375612D01*
Y373642D02*
Y375612D01*
Y373642D02*
X665997Y354642D01*
X665997Y354642D02*
X665997Y354642D01*
X665997Y352672D02*
Y354642D01*
X665228Y348807D02*
X665997Y352672D01*
X663720Y345167D02*
X665228Y348807D01*
X661531Y341890D02*
X663720Y345167D01*
X660138Y340497D02*
X661531Y341890D01*
X649407Y329767D02*
X660138Y340497D01*
X649407Y329767D02*
X649407D01*
X648476Y328835D02*
X649407Y329767D01*
X646195Y327519D02*
X648476Y328835D01*
X643650Y326837D02*
X646195Y327519D01*
X641016Y326837D02*
X643650Y326837D01*
X638472Y327519D02*
X641016Y326837D01*
X636191Y328835D02*
X638472Y327519D01*
X634328Y330698D02*
X636191Y328835D01*
X633011Y332979D02*
X634328Y330698D01*
X632329Y335523D02*
X633011Y332979D01*
X632329Y335523D02*
X632330Y338158D01*
X633011Y340702D01*
X634328Y342983D01*
X635260Y343914D01*
X645989Y354644D01*
Y373641D01*
X619741Y399889D02*
X645989Y373641D01*
X603244Y399889D02*
X619741D01*
X583316Y379961D02*
X603244Y399889D01*
X583316Y379961D02*
X583316D01*
X582620Y379264D02*
X583316Y379961D01*
X580981Y378170D02*
X582620Y379264D01*
X579161Y377416D02*
X580981Y378170D01*
X577228Y377031D02*
X579161Y377416D01*
X575257Y377031D02*
X577228Y377031D01*
X573325Y377416D02*
X575257Y377031D01*
X571504Y378170D02*
X573325Y377416D01*
X569866Y379264D02*
X571504Y378170D01*
X569169Y379961D02*
X569866Y379264D01*
X505311Y443819D02*
X569169Y379961D01*
X504615Y444515D02*
X505311Y443819D01*
X503520Y446154D02*
X504615Y444515D01*
X502766Y447974D02*
X503520Y446154D01*
X502381Y449907D02*
X502766Y447974D01*
X502381Y451878D02*
X502381Y449907D01*
X502381Y451878D02*
X502766Y453810D01*
X503520Y455631D01*
X504615Y457269D01*
X505311Y457966D01*
X525239Y477894D01*
Y494391D01*
X499630Y520000D02*
X525239Y494391D01*
X479355Y520000D02*
X499630D01*
X476748Y517393D02*
X479355Y520000D01*
X476748Y517393D02*
X476748Y517393D01*
X476051Y516696D02*
X476748Y517393D01*
X474413Y515601D02*
X476051Y516696D01*
X472592Y514847D02*
X474413Y515601D01*
X470660Y514463D02*
X472592Y514847D01*
X330480Y514463D02*
X470660D01*
X324640Y508623D02*
X330480Y514463D01*
X324640Y485589D02*
Y508623D01*
X324640Y485588D02*
X324640Y485589D01*
X324640Y485588D02*
X324640Y484603D01*
X324256Y482671D02*
X324640Y484603D01*
X323502Y480850D02*
X324256Y482671D01*
X322407Y479212D02*
X323502Y480850D01*
X321710Y478515D02*
X322407Y479212D01*
X262764Y419569D02*
X321710Y478515D01*
X262764Y419569D02*
X262764Y419569D01*
X262067Y418872D02*
X262764Y419569D01*
X260429Y417777D02*
X262067Y418872D01*
X258608Y417023D02*
X260429Y417777D01*
X256676Y416639D02*
X258608Y417023D01*
X219536Y416639D02*
X256676D01*
X216992Y417321D02*
X219536Y416639D01*
X214711Y418638D02*
X216992Y417321D01*
X212848Y420500D02*
X214711Y418638D01*
X211531Y422781D02*
X212848Y420500D01*
X210849Y425326D02*
X211531Y422781D01*
X210849Y425326D02*
Y427960D01*
X211531Y430504D01*
X212848Y432785D01*
X214711Y434648D01*
X216992Y435965D01*
X219536Y436646D01*
X251547D01*
X304633Y489732D01*
Y508624D01*
Y510594D01*
X305401Y514459D01*
X306909Y518100D01*
X308179Y520000D01*
X0D02*
X308179D01*
X0Y0D02*
Y520000D01*
Y0D02*
X144743D01*
X82673Y107582D02*
X144743Y0D01*
X82018Y108717D02*
X82673Y107582D01*
X81016Y111138D02*
X82018Y108717D01*
X80338Y113670D02*
X81016Y111138D01*
X79996Y116268D02*
X80338Y113670D01*
X79996Y116268D02*
Y117579D01*
Y121539D01*
Y122856D01*
X80678Y125400D01*
X81995Y127682D01*
X83857Y129544D01*
X86138Y130861D01*
X88683Y131543D01*
X91317D01*
X93861Y130861D01*
X96142Y129544D01*
X98005Y127682D01*
X99322Y125400D01*
X100004Y122856D01*
Y121539D02*
Y122856D01*
Y117580D02*
Y121539D01*
Y117580D02*
X167840Y4D01*
X304246D01*
Y47371D01*
Y48688D01*
X304928Y51232D01*
X306245Y53513D01*
X308108Y55376D01*
X310389Y56693D01*
X312933Y57375D01*
X315567D01*
X318112Y56693D01*
X320393Y55376D01*
X322255Y53513D01*
X323572Y51232D01*
X324254Y48688D01*
Y47371D02*
Y48688D01*
Y0D02*
Y47371D01*
Y0D02*
X710000D01*
M02*
