G04*
G04 #@! TF.GenerationSoftware,Altium Limited,Altium Designer,23.11.1 (41)*
G04*
G04 Layer_Physical_Order=2*
G04 Layer_Color=36540*
%FSLAX44Y44*%
%MOMM*%
G71*
G04*
G04 #@! TF.SameCoordinates,79A2741A-1FD1-431D-8CB4-14BDB42BD488*
G04*
G04*
G04 #@! TF.FilePolarity,Positive*
G04*
G01*
G75*
%ADD39C,0.5080*%
%ADD40C,0.2032*%
%ADD42C,0.3048*%
%ADD44C,1.2700*%
%ADD45C,1.3716*%
%ADD50R,1.4986X1.4986*%
%ADD51C,1.5240*%
G04:AMPARAMS|DCode=55|XSize=1mm|YSize=1.6mm|CornerRadius=0mm|HoleSize=0mm|Usage=FLASHONLY|Rotation=315.000|XOffset=0mm|YOffset=0mm|HoleType=Round|Shape=Round|*
%AMOVALD55*
21,1,0.6000,1.0000,0.0000,0.0000,45.0*
1,1,1.0000,-0.2121,-0.2121*
1,1,1.0000,0.2121,0.2121*
%
%ADD55OVALD55*%

G04:AMPARAMS|DCode=57|XSize=1mm|YSize=2.1mm|CornerRadius=0mm|HoleSize=0mm|Usage=FLASHONLY|Rotation=315.000|XOffset=0mm|YOffset=0mm|HoleType=Round|Shape=Round|*
%AMOVALD57*
21,1,1.1000,1.0000,0.0000,0.0000,45.0*
1,1,1.0000,-0.3889,-0.3889*
1,1,1.0000,0.3889,0.3889*
%
%ADD57OVALD57*%

%ADD61C,0.4500*%
G36*
X473127Y511157D02*
X471156Y508443D01*
X469206Y504617D01*
X467878Y500532D01*
X467207Y496290D01*
Y491995D01*
X467878Y487753D01*
X469206Y483668D01*
X471156Y479841D01*
X473680Y476367D01*
X476717Y473330D01*
X480192Y470805D01*
X484019Y468855D01*
X488103Y467528D01*
X492345Y466856D01*
X496640D01*
X500882Y467528D01*
X504967Y468855D01*
X508794Y470805D01*
X512268Y473330D01*
X515305Y476367D01*
X517830Y479841D01*
X519780Y483668D01*
X521107Y487753D01*
X521779Y491995D01*
X523049Y492632D01*
X523204Y492529D01*
Y478737D01*
X496801Y452334D01*
X496359Y451673D01*
X496204Y450892D01*
X496359Y450112D01*
X496801Y449450D01*
X496801Y449450D01*
X574551Y371701D01*
X529493Y326642D01*
X522528D01*
X522445Y327912D01*
X523495Y328051D01*
X525268Y328785D01*
X526790Y329953D01*
X527420Y330583D01*
X527737Y330625D01*
X529838Y331495D01*
X531642Y332879D01*
X561199Y362436D01*
X562583Y364240D01*
X563453Y366341D01*
X563555Y367114D01*
X564259Y368815D01*
X564510Y370717D01*
X564259Y372619D01*
X563525Y374391D01*
X562357Y375913D01*
X560835Y377081D01*
X559063Y377815D01*
X557161Y378065D01*
X555259Y377815D01*
X553559Y377111D01*
X552785Y377009D01*
X550684Y376139D01*
X548880Y374754D01*
X526049Y351923D01*
X524779Y352449D01*
Y354024D01*
X523917Y356105D01*
X522325Y357697D01*
X520244Y358559D01*
X517992D01*
X515911Y357697D01*
X514319Y356105D01*
X513457Y354024D01*
Y351772D01*
X514319Y349691D01*
X515911Y348099D01*
X517992Y347237D01*
X519567D01*
X520093Y345967D01*
X519323Y345197D01*
X517939Y343394D01*
X517069Y341293D01*
X517027Y340976D01*
X516397Y340345D01*
X515229Y338824D01*
X514495Y337051D01*
X514244Y335149D01*
X514495Y333247D01*
X515229Y331475D01*
X516397Y329953D01*
X517919Y328785D01*
X519691Y328051D01*
X520742Y327912D01*
X520659Y326642D01*
X496858D01*
X477570Y345930D01*
Y349240D01*
X477879Y349369D01*
X479155Y350645D01*
X479846Y352312D01*
Y354116D01*
X479155Y355783D01*
X477879Y357059D01*
X476212Y357750D01*
X474408D01*
X472741Y357059D01*
X471917Y356236D01*
X471093Y357059D01*
X469426Y357750D01*
X467622D01*
X466298Y357202D01*
X458642Y364858D01*
X449254Y374246D01*
X448521Y375515D01*
X446677Y377359D01*
X445515Y378030D01*
Y386235D01*
X446677Y386906D01*
X448521Y388750D01*
X449826Y391009D01*
X450501Y393528D01*
Y396137D01*
X449826Y398656D01*
X448521Y400915D01*
X446677Y402759D01*
X444418Y404063D01*
X441899Y404738D01*
X439291D01*
X436771Y404063D01*
X434512Y402759D01*
X433121Y401367D01*
X431851Y401894D01*
Y407461D01*
X431555Y408948D01*
X430713Y410208D01*
X424444Y416477D01*
X425101Y418928D01*
Y421536D01*
X424426Y424056D01*
X423121Y426315D01*
X421277Y428159D01*
X419018Y429463D01*
X417015Y430000D01*
X416499Y430138D01*
X413891D01*
X413374Y430000D01*
X411371Y429463D01*
X409112Y428159D01*
X407268Y426315D01*
X405964Y424056D01*
X405289Y421536D01*
Y420007D01*
X404019Y419481D01*
X398454Y425046D01*
X397721Y426315D01*
X395877Y428159D01*
X394608Y428892D01*
X393500Y430000D01*
X391615D01*
X391099Y430138D01*
X388490D01*
X387974Y430000D01*
X298500D01*
X288500Y440000D01*
Y442426D01*
X326078Y480004D01*
X326521Y480666D01*
X326676Y481446D01*
Y507780D01*
X331323Y512427D01*
X472480D01*
X473127Y511157D01*
D02*
G37*
%LPC*%
G36*
X436225Y504904D02*
X416573D01*
Y485252D01*
X436225D01*
Y504904D01*
D02*
G37*
G36*
X402692D02*
X400105D01*
X397606Y504235D01*
X395365Y502941D01*
X393536Y501112D01*
X392242Y498871D01*
X391573Y496372D01*
Y496277D01*
D01*
Y493785D01*
X392242Y491286D01*
X393536Y489045D01*
X395365Y487216D01*
X397606Y485922D01*
X400105Y485252D01*
X402692D01*
X405191Y485922D01*
X407432Y487216D01*
X409261Y489045D01*
X410555Y491286D01*
X411225Y493785D01*
Y496372D01*
X410555Y498871D01*
X409261Y501112D01*
X407432Y502941D01*
X405191Y504235D01*
X402692Y504904D01*
D02*
G37*
G36*
X377692D02*
X375105D01*
X372606Y504235D01*
X370365Y502941D01*
X368536Y501112D01*
X367242Y498871D01*
X366573Y496372D01*
Y493785D01*
X367242Y491286D01*
X368536Y489045D01*
X370365Y487216D01*
X372606Y485922D01*
X375105Y485252D01*
X377692D01*
X380191Y485922D01*
X382432Y487216D01*
X384261Y489045D01*
X385555Y491286D01*
X386225Y493785D01*
Y496372D01*
X385555Y498871D01*
X384261Y501112D01*
X382432Y502941D01*
X380191Y504235D01*
X377692Y504904D01*
D02*
G37*
G36*
X352692D02*
X350105D01*
X347606Y504235D01*
X345365Y502941D01*
X343536Y501112D01*
X342242Y498871D01*
X341573Y496372D01*
Y493785D01*
X342242Y491286D01*
X343536Y489045D01*
X345365Y487216D01*
X347606Y485922D01*
X350105Y485252D01*
X352692D01*
X355191Y485922D01*
X357432Y487216D01*
X359261Y489045D01*
X360555Y491286D01*
X361225Y493785D01*
Y496372D01*
X360555Y498871D01*
X359261Y501112D01*
X357432Y502941D01*
X355191Y504235D01*
X352692Y504904D01*
D02*
G37*
G36*
X383498Y454776D02*
X381091D01*
X378765Y454153D01*
X376680Y452949D01*
X374978Y451247D01*
X373774Y449162D01*
X373151Y446836D01*
Y444428D01*
X373774Y442103D01*
X374978Y440018D01*
X376680Y438315D01*
X378765Y437112D01*
X381091Y436488D01*
X383498D01*
X385824Y437112D01*
X387085Y437840D01*
D01*
X387909Y438315D01*
X389612Y440018D01*
X390816Y442103D01*
X391439Y444428D01*
Y446836D01*
X390816Y449162D01*
X389612Y451247D01*
X387909Y452949D01*
X385824Y454153D01*
X383498Y454776D01*
D02*
G37*
G36*
X358098D02*
X355691D01*
X353365Y454153D01*
X351280Y452949D01*
X349578Y451247D01*
X348374Y449162D01*
X347751Y446836D01*
Y444428D01*
X348374Y442103D01*
X349578Y440018D01*
X351280Y438315D01*
X353365Y437112D01*
X355691Y436488D01*
X358098D01*
X360424Y437112D01*
X362509Y438315D01*
X364212Y440018D01*
X365415Y442103D01*
X366039Y444428D01*
Y446836D01*
X365415Y449162D01*
X364212Y451247D01*
X362509Y452949D01*
X360424Y454153D01*
X358098Y454776D01*
D02*
G37*
G36*
X485098Y454776D02*
X482691D01*
X480365Y454153D01*
X478280Y452949D01*
X476578Y451247D01*
X475374Y449162D01*
X474751Y446836D01*
Y444428D01*
X475374Y442103D01*
X476578Y440018D01*
X478280Y438315D01*
X480365Y437112D01*
X482691Y436488D01*
X485098D01*
X487424Y437112D01*
X489509Y438315D01*
X491212Y440018D01*
X492416Y442103D01*
X493039Y444428D01*
Y446836D01*
X492416Y449162D01*
X491212Y451247D01*
X489509Y452949D01*
X487424Y454153D01*
X485098Y454776D01*
D02*
G37*
G36*
X459698Y454776D02*
X457291D01*
X454965Y454153D01*
X452880Y452949D01*
X451178Y451247D01*
X449974Y449162D01*
X449351Y446836D01*
Y444428D01*
X449974Y442103D01*
X451178Y440018D01*
X452880Y438315D01*
X454965Y437112D01*
X457291Y436488D01*
X459698D01*
X462024Y437112D01*
X464109Y438315D01*
X465812Y440018D01*
X467015Y442103D01*
X467639Y444428D01*
Y446836D01*
X467015Y449162D01*
X465812Y451247D01*
X464109Y452949D01*
X462024Y454153D01*
X459698Y454776D01*
D02*
G37*
G36*
X434299D02*
X431891D01*
X429565Y454153D01*
X427480Y452949D01*
X425778Y451247D01*
X424574Y449162D01*
X423951Y446836D01*
Y444428D01*
X424574Y442103D01*
X425778Y440018D01*
X427480Y438315D01*
X429565Y437112D01*
X431891Y436488D01*
X434299D01*
X436624Y437112D01*
X438709Y438315D01*
X440412Y440018D01*
X441616Y442103D01*
X442239Y444428D01*
Y446836D01*
X441616Y449162D01*
X440412Y451247D01*
X438709Y452949D01*
X436624Y454153D01*
X434299Y454776D01*
D02*
G37*
G36*
X408899Y454776D02*
X406491D01*
X404165Y454153D01*
X402080Y452949D01*
X400378Y451247D01*
X399174Y449162D01*
X398551Y446836D01*
Y444428D01*
X399174Y442103D01*
X400378Y440018D01*
X402080Y438315D01*
X404165Y437112D01*
X406491Y436488D01*
X408899D01*
X411224Y437112D01*
X413309Y438315D01*
X415012Y440018D01*
X416216Y442103D01*
X416839Y444428D01*
Y446836D01*
X416216Y449162D01*
X415012Y451247D01*
X413309Y452949D01*
X411224Y454153D01*
X408899Y454776D01*
D02*
G37*
G36*
X332699D02*
X330291D01*
X327965Y454153D01*
X325880Y452949D01*
X324178Y451247D01*
X322974Y449162D01*
X322351Y446836D01*
Y444428D01*
X322974Y442103D01*
X324178Y440018D01*
X325880Y438315D01*
X327965Y437112D01*
X330291Y436488D01*
X332699D01*
X335024Y437112D01*
X337109Y438315D01*
X338812Y440018D01*
X340015Y442103D01*
X340639Y444428D01*
Y446836D01*
X340015Y449162D01*
X338812Y451247D01*
X337109Y452949D01*
X335024Y454153D01*
X332699Y454776D01*
D02*
G37*
G36*
X496067Y439159D02*
X494165Y438909D01*
X492393Y438175D01*
X490871Y437007D01*
X486628Y432764D01*
X485460Y431242D01*
X484726Y429470D01*
X484475Y427568D01*
X484726Y425666D01*
X485460Y423893D01*
X486628Y422371D01*
X488150Y421204D01*
X489922Y420469D01*
X491824Y420219D01*
X493726Y420469D01*
X495499Y421204D01*
X497021Y422371D01*
X501263Y426614D01*
X502431Y428136D01*
X503165Y429908D01*
X503416Y431810D01*
X503165Y433713D01*
X502431Y435485D01*
X501263Y437007D01*
X499741Y438175D01*
X497969Y438909D01*
X496067Y439159D01*
D02*
G37*
G36*
X468278Y411370D02*
X466376Y411120D01*
X464603Y410386D01*
X463081Y409218D01*
X455303Y401440D01*
X454135Y399917D01*
X453401Y398145D01*
X453151Y396243D01*
X453401Y394341D01*
X454135Y392569D01*
X455303Y391047D01*
X456825Y389879D01*
X458597Y389145D01*
X460499Y388894D01*
X462402Y389145D01*
X464174Y389879D01*
X465696Y391047D01*
X473474Y398825D01*
X474642Y400347D01*
X475376Y402119D01*
X475626Y404021D01*
X475376Y405923D01*
X474642Y407696D01*
X473474Y409218D01*
X471952Y410386D01*
X470180Y411120D01*
X468278Y411370D01*
D02*
G37*
G36*
X479375Y399429D02*
X477122D01*
X475042Y398567D01*
X473449Y396974D01*
X472588Y394894D01*
Y392642D01*
X473449Y390561D01*
X475042Y388969D01*
X477122Y388107D01*
X479375D01*
X481455Y388969D01*
X483048Y390561D01*
X483909Y392642D01*
Y394894D01*
X483048Y396974D01*
X481455Y398567D01*
X479375Y399429D01*
D02*
G37*
G36*
X492114Y388330D02*
X490310D01*
X488643Y387639D01*
X487367Y386363D01*
X486676Y384696D01*
Y382892D01*
X487367Y381225D01*
X488643Y379949D01*
X490310Y379258D01*
X492114D01*
X493781Y379949D01*
X495057Y381225D01*
X495748Y382892D01*
Y384696D01*
X495057Y386363D01*
X493781Y387639D01*
X492114Y388330D01*
D02*
G37*
G36*
X509132Y370296D02*
X507328D01*
X505661Y369605D01*
X504385Y368329D01*
X503694Y366662D01*
Y364858D01*
X504385Y363191D01*
X505661Y361915D01*
X507328Y361224D01*
X509132D01*
X510799Y361915D01*
X512075Y363191D01*
X512766Y364858D01*
Y366662D01*
X512075Y368329D01*
X510799Y369605D01*
X509132Y370296D01*
D02*
G37*
%LPD*%
D39*
X440595Y369432D02*
Y394832D01*
Y344032D02*
Y369432D01*
D40*
X290197Y127000D02*
X290501Y127304D01*
X263628Y127000D02*
X290197D01*
X205136Y254975D02*
X205382Y254729D01*
X212010D01*
X207449Y261355D02*
X207670Y261576D01*
X161803Y242065D02*
X167346D01*
X168117Y241293D02*
X183117D01*
X167346Y242065D02*
X168117Y241293D01*
X179954Y217912D02*
X185312D01*
X132613Y276208D02*
X194561D01*
X130532Y277622D02*
X131200D01*
X132613Y276208D01*
X194561D02*
X196050Y274720D01*
X215845D02*
X226113Y284988D01*
X198350Y280271D02*
Y280670D01*
X196050Y274720D02*
X215845D01*
X198350Y280670D02*
X219784Y302104D01*
X185312Y217912D02*
X186470Y216753D01*
X212215D01*
X182602Y144272D02*
X224258D01*
X250928Y117602D01*
X225042Y135636D02*
X249172Y111506D01*
X158218Y135636D02*
X225042D01*
X187428Y152146D02*
X238482D01*
X212215Y216753D02*
X212306Y216844D01*
X268272D01*
X274296Y210820D01*
X157147Y215193D02*
X168704D01*
X142724Y229616D02*
X157147Y215193D01*
X178157Y205740D02*
X225543D01*
X168704Y215193D02*
X178157Y205740D01*
X232662Y201422D02*
X238468Y195616D01*
X228333Y197104D02*
X242422Y183015D01*
X225543Y205740D02*
X230623Y210820D01*
X173346Y198338D02*
X174580Y197104D01*
X164060Y192786D02*
X226544D01*
X174580Y197104D02*
X228333D01*
X176369Y201422D02*
X232662D01*
X168149Y209641D02*
X176369Y201422D01*
X226544Y192786D02*
X240634Y178696D01*
X107418Y239522D02*
X120626D01*
X161810Y198338D01*
X173346D01*
X221936Y232700D02*
X304236D01*
X304376Y232840D01*
X306121D02*
X306593Y233312D01*
X304376Y232840D02*
X306121D01*
X228308Y243804D02*
X281780D01*
X286628Y240751D01*
X215611Y239025D02*
X221936Y232700D01*
X212010Y254729D02*
X223513Y266231D01*
X207670Y261576D02*
X212392D01*
X218941Y268125D01*
X104250Y213801D02*
Y214469D01*
X214234Y178696D02*
X222226D01*
X230623Y210820D02*
X244324D01*
X158853Y209641D02*
X168149D01*
X257302Y301026D02*
X259094Y302818D01*
X249126Y301026D02*
X257302D01*
X257982Y307812D02*
X399817D01*
X218335D02*
X248446D01*
X250914Y305344D02*
X255514D01*
X248446Y307812D02*
X250914Y305344D01*
X259094Y302818D02*
X398704D01*
X247334D02*
X249126Y301026D01*
X221193Y302818D02*
X247334D01*
X255514Y305344D02*
X257982Y307812D01*
X245205Y178696D02*
X248388Y175514D01*
X240634Y178696D02*
X245205D01*
X263001D02*
X290774D01*
X234806Y166116D02*
X250409D01*
X222226Y178696D02*
X234806Y166116D01*
X222988Y171450D02*
X233402Y161036D01*
X251436D01*
X214606Y171450D02*
X222988D01*
X251933Y167640D02*
X251944D01*
X250409Y166116D02*
X251933Y167640D01*
X251944D02*
X263001Y178696D01*
X251436Y161036D02*
X253722Y163322D01*
X253733D01*
X261861Y171450D01*
X284456D01*
X242422Y183015D02*
X292562D01*
X238468Y195616D02*
X243068D01*
X292562Y183015D02*
X293577Y182000D01*
X243068Y195616D02*
X243286Y195834D01*
X249658D01*
X105386Y264668D02*
X117832Y277114D01*
Y323342D01*
X130278Y335788D01*
X149074D01*
X164210Y350924D01*
X240500D01*
X106148Y250698D02*
X110212Y254762D01*
X180062D01*
X190247Y244577D01*
X224236Y238252D02*
X230608D01*
X215876Y250129D02*
X221983D01*
X217911Y244577D02*
X224236Y238252D01*
X221983Y250129D02*
X228308Y243804D01*
X190247Y244577D02*
X217911D01*
X225337Y274711D02*
Y276360D01*
X230427Y271684D02*
X230899Y272157D01*
X225337Y276360D02*
X225810Y276832D01*
X228777Y271684D02*
X230427D01*
X219784Y302104D02*
X220479D01*
X226113Y284988D02*
X357100D01*
X399817Y307812D02*
X402067Y305562D01*
X220479Y302104D02*
X221193Y302818D01*
X398704D02*
X400278Y301244D01*
X218179Y307656D02*
X218335Y307812D01*
X445424Y305562D02*
X458495Y318632D01*
X402067Y305562D02*
X445424D01*
X223513Y266231D02*
Y266420D01*
X218941Y268125D02*
Y268314D01*
X225337Y274711D01*
X223513Y266420D02*
X228777Y271684D01*
X197901Y226509D02*
X231719D01*
X183117Y241293D02*
X197901Y226509D01*
X357100Y284988D02*
X370104Y297992D01*
X284456Y171450D02*
X301220Y154686D01*
X304268D01*
X314682Y165100D01*
X293577Y182000D02*
X302626D01*
X290774Y178696D02*
X300814Y168656D01*
X139168Y154686D02*
X158218Y135636D01*
X249172Y111506D02*
X266747D01*
X274771Y119530D01*
X238482Y152146D02*
X263628Y127000D01*
X274296Y210820D02*
X286119D01*
X286448Y240464D02*
X286628Y240644D01*
Y240751D01*
X370104Y297992D02*
X395987D01*
X422378Y263398D02*
Y271601D01*
X395987Y297992D02*
X422378Y271601D01*
X447213Y301244D02*
X448737Y302768D01*
X458700D01*
X400278Y301244D02*
X447213D01*
X285722Y222500D02*
X291056D01*
X294362Y225806D01*
X439106D01*
X456414Y243114D01*
X284456Y188722D02*
X290298Y194564D01*
X315107Y245447D02*
X396896D01*
X285726Y274828D02*
X315107Y245447D01*
X561811Y282809D02*
X561917Y282702D01*
X393214Y254337D02*
X396722Y257846D01*
X473481Y262420D02*
Y322587D01*
X396896Y245447D02*
X400115Y248666D01*
X476734D01*
X462441Y257846D02*
X468909Y264314D01*
Y324481D01*
X464335Y253274D02*
X473481Y262420D01*
X398616Y253274D02*
X464335D01*
X395107Y249765D02*
X398616Y253274D01*
X396722Y257846D02*
X462441D01*
X329312Y255821D02*
X330796Y254337D01*
X325225Y253411D02*
X325256D01*
X330796Y254337D02*
X393214D01*
X328902Y249765D02*
X395107D01*
X325256Y253411D02*
X328902Y249765D01*
X323991Y254645D02*
X325225Y253411D01*
X476734Y248666D02*
X510770Y282702D01*
X329312Y255821D02*
Y257586D01*
X473481Y322587D02*
X474203Y323309D01*
X468909Y324481D02*
X469631Y325203D01*
X560279Y282809D02*
X561811D01*
X560172Y282702D02*
X560279Y282809D01*
X510770Y282702D02*
X560172D01*
X561917D02*
X562496Y283281D01*
X469631Y325203D02*
Y351439D01*
X474203Y323309D02*
Y351439D01*
X475310Y352546D02*
Y353214D01*
X474203Y351439D02*
X475310Y352546D01*
X323324Y254645D02*
X323991D01*
X290298Y194564D02*
X480036D01*
X487656Y202184D01*
D42*
X456414Y243114D02*
X478007D01*
X481019Y246126D02*
X505182D01*
X478007Y243114D02*
X481019Y246126D01*
X505182D02*
X507722Y248666D01*
X413360Y392998D02*
X415195Y394832D01*
X401225Y388339D02*
X405883Y392998D01*
X382295Y318632D02*
Y321519D01*
X405883Y392998D02*
X413360D01*
X401225Y335088D02*
Y388339D01*
X385378Y324602D02*
Y325618D01*
X382295Y321519D02*
X385378Y324602D01*
Y325618D02*
X390049Y330289D01*
X396426D01*
X401225Y335088D01*
X427966Y325665D02*
Y407461D01*
X415195Y420232D02*
X427966Y407461D01*
X407695Y318632D02*
X433095D01*
X433095Y318632D01*
Y320536D01*
X427966Y325665D02*
X433095Y320536D01*
D44*
X525482Y339038D02*
X555039Y368595D01*
D45*
X382295Y318632D02*
D03*
X407695D02*
D03*
X433095Y318632D02*
D03*
X458495Y318632D02*
D03*
X306095Y445632D02*
D03*
D50*
X440595Y344032D02*
D03*
D51*
X415195Y394832D02*
D03*
Y420232D02*
D03*
X440595Y394832D02*
D03*
Y369432D02*
D03*
D55*
X555039Y368595D02*
D03*
D57*
X525482Y339038D02*
D03*
D61*
X290501Y127304D02*
D03*
X205136Y254975D02*
D03*
X207449Y261355D02*
D03*
X161803Y242065D02*
D03*
X179954Y217912D02*
D03*
X198350Y280271D02*
D03*
X182602Y144272D02*
D03*
X104250Y213801D02*
D03*
X214234Y178696D02*
D03*
X158853Y209641D02*
D03*
X142724Y229616D02*
D03*
X248388Y175514D02*
D03*
X244324Y210820D02*
D03*
X164060Y192786D02*
D03*
X105386Y264668D02*
D03*
X240500Y350924D02*
D03*
X106148Y250698D02*
D03*
X215876Y250129D02*
D03*
X230608Y238252D02*
D03*
X230899Y272157D02*
D03*
X225810Y276832D02*
D03*
X218179Y307656D02*
D03*
X215611Y239025D02*
D03*
X250928Y117602D02*
D03*
X274771Y119530D02*
D03*
X306593Y233312D02*
D03*
X286119Y210820D02*
D03*
X286448Y240464D02*
D03*
X300814Y168656D02*
D03*
X231719Y226509D02*
D03*
X249658Y195834D02*
D03*
X107418Y239522D02*
D03*
X139168Y154686D02*
D03*
X130532Y277622D02*
D03*
X458700Y302768D02*
D03*
X285722Y222500D02*
D03*
X302626Y182000D02*
D03*
X284456Y188722D02*
D03*
X285726Y274828D02*
D03*
X456414Y243114D02*
D03*
X562496Y283281D02*
D03*
X187428Y152146D02*
D03*
X214606Y171450D02*
D03*
X314682Y165100D02*
D03*
X422378Y263398D02*
D03*
X495500Y331000D02*
D03*
X500516Y329000D02*
D03*
X475310Y353214D02*
D03*
X323324Y254645D02*
D03*
X328122Y259444D02*
D03*
X468524Y353214D02*
D03*
X465868Y363648D02*
D03*
X487656Y202184D02*
D03*
X507722Y248666D02*
D03*
X464852Y369648D02*
D03*
X460852Y365648D02*
D03*
X499500Y335000D02*
D03*
M02*
