M48
;Layer_Color=9474304
;FILE_FORMAT=2:5
INCH
;TYPE=PLATED
T01F00S00C0.00787
T03F00S00C0.03500
T04F00S00C0.03600
T05F00S00C0.03937
T06F00S00C0.05500
T07F00S00C0.05512
T08F00S00C0.12205
T09F00S00C0.12598
%
T01
X0060190Y0026700
X0069193Y0032200
X0084491Y0009600
X0097290Y0020700
X0107134Y0022000
X0215791Y0104800
X0221455Y0111528
X0220822Y0118407
Y0124531
X0217759Y0127593
X0214697Y0124531
X0217759Y0121469
X0223884
X0218590Y0133000
X0225991Y0138600
X0229291Y0139000
X0235991Y0129300
X0197054Y0129528
X0195079Y0130315
X0196653Y0131890
X0200091Y0144000
X0193391Y0151100
X0183012Y0145531
X0183413Y0143169
X0181438Y0143956
X0184458Y0139061
X0187130
X0180591Y0119200
X0179691Y0095714
X0168991Y0094000
X0166291Y0103700
X0174828Y0081299
X0167391Y0072900
X0153691Y0072200
X0138491Y0061900
X0123891Y0065000
X0118431Y0066400
X0119144Y0071653
X0111991Y0074300
X0112645Y0083000
X0112489Y0087598
X0112775Y0094671
X0120706Y0091855
X0117217Y0081900
X0096191Y0083000
X0094791Y0079200
X0098290Y0077100
X0097790Y0069100
X0084344Y0070353
X0084491Y0067500
X0086138Y0065000
X0079542Y0064165
X0075207Y0062331
X0073791Y0059900
X0071890Y0056800
X0067676Y0056900
X0065690Y0050400
X0065891Y0071600
X0068378Y0073505
X0063390Y0073500
X0064591Y0075900
X0060690Y0074764
X0059612Y0070530
X0062541Y0082536
X0060399Y0089591
X0063702Y0095301
X0069774Y0088307
X0070848Y0085792
X0084491Y0083186
X0084891Y0073634
X0084886Y0094104
X0084991Y0098476
X0080762Y0100384
X0081673Y0102895
X0074791Y0106558
X0069605Y0105900
X0078091Y0110343
X0088901Y0108989
X0090905Y0107148
X0091967Y0098172
X0090790Y0093800
X0091228Y0089177
X0092990Y0123800
X0099691Y0122400
X0108691Y0124100
X0112491Y0108200
X0127293Y0100254
X0129182Y0102143
X0146191Y0092520
X0147842Y0133758
X0143515Y0140900
X0134686Y0142896
X0135854Y0136194
X0130091Y0130500
X0122305Y0139800
X0122791Y0151600
X0128491Y0159700
X0128821Y0164370
X0094685Y0138159
X0087191Y0134300
X0083890Y0126100
X0085897Y0121124
X0078091Y0131400
X0098791Y0046300
X0108178Y0047059
X0114371Y0050120
X0181591Y0069882
X0191991Y0079600
X0199891Y0097900
X0056191Y0090400
X0053413Y0082723
X0053635Y0077384
X0054791Y0060900
X0042791Y0068100
X0042291Y0051900
X0050591Y0044800
X0041043Y0084174
X0041266Y0090407
X0042291Y0094300
X0041791Y0098700
X0041491Y0104200
X0043413Y0116779
X0053991Y0120500
X0051862Y0129057
X0053290Y0136300
X0051390Y0109300
T03
X0079488Y0154173
X0089488Y0154173
X0099488Y0154173
X0109488
X0153463Y0155446
Y0145446
X0153463Y0135446
X0163462Y0135446
X0173462
Y0145446
X0163462
Y0155446
Y0165446
X0153463
X0173462Y0155446
T04
X0120510Y0125446
X0120510Y0135446
X0120510Y0145446
X0120510Y0175446
X0130510
X0140510Y0175446
X0150510
X0160510Y0175446
X0170510Y0175446
X0180510
X0190510Y0175446
Y0125446
X0180510Y0125446
X0170510Y0125446
X0160510Y0125446
X0150510
X0140510Y0125446
X0130510Y0125446
T05
X0112697Y0011811
Y0021654
Y0031496
X0084055Y0045177
X0074213
X0148031Y0059941
X0157874
X0178543
X0188386
X0109488Y0144173
X0099488
X0089488
X0079488
X0069488Y0144173
X0059488Y0144173
X0138346Y0194913
X0148188
X0158031
X0167874
T06
X0200197Y0085335
T07
X0206708Y0104245
T08
X0243895Y0144901
X0194682Y0194544
T09
X0105772Y0059240
X0152953Y0109520
M30
