G04*
G04 #@! TF.GenerationSoftware,Altium Limited,Altium Designer,23.11.1 (41)*
G04*
G04 Layer_Color=16711935*
%FSLAX44Y44*%
%MOMM*%
G71*
G04*
G04 #@! TF.SameCoordinates,FB2BF82D-85B4-4A24-BBB8-605E99FAA97A*
G04*
G04*
G04 #@! TF.FilePolarity,Negative*
G04*
G01*
G75*
G04:AMPARAMS|DCode=97|XSize=1.2032mm|YSize=1.1032mm|CornerRadius=0.3266mm|HoleSize=0mm|Usage=FLASHONLY|Rotation=90.000|XOffset=0mm|YOffset=0mm|HoleType=Round|Shape=RoundedRectangle|*
%AMROUNDEDRECTD97*
21,1,1.2032,0.4500,0,0,90.0*
21,1,0.5500,1.1032,0,0,90.0*
1,1,0.6532,0.2250,0.2750*
1,1,0.6532,0.2250,-0.2750*
1,1,0.6532,-0.2250,-0.2750*
1,1,0.6532,-0.2250,0.2750*
%
%ADD97ROUNDEDRECTD97*%
%ADD108R,1.0032X1.1032*%
%ADD109C,3.0000*%
G04:AMPARAMS|DCode=110|XSize=2.0032mm|YSize=1.5032mm|CornerRadius=0.4266mm|HoleSize=0mm|Usage=FLASHONLY|Rotation=270.000|XOffset=0mm|YOffset=0mm|HoleType=Round|Shape=RoundedRectangle|*
%AMROUNDEDRECTD110*
21,1,2.0032,0.6500,0,0,270.0*
21,1,1.1500,1.5032,0,0,270.0*
1,1,0.8532,-0.3250,-0.5750*
1,1,0.8532,-0.3250,0.5750*
1,1,0.8532,0.3250,0.5750*
1,1,0.8532,0.3250,-0.5750*
%
%ADD110ROUNDEDRECTD110*%
G04:AMPARAMS|DCode=111|XSize=1.2032mm|YSize=1.1032mm|CornerRadius=0.3266mm|HoleSize=0mm|Usage=FLASHONLY|Rotation=180.000|XOffset=0mm|YOffset=0mm|HoleType=Round|Shape=RoundedRectangle|*
%AMROUNDEDRECTD111*
21,1,1.2032,0.4500,0,0,180.0*
21,1,0.5500,1.1032,0,0,180.0*
1,1,0.6532,-0.2750,0.2250*
1,1,0.6532,0.2750,0.2250*
1,1,0.6532,0.2750,-0.2250*
1,1,0.6532,-0.2750,-0.2250*
%
%ADD111ROUNDEDRECTD111*%
G04:AMPARAMS|DCode=112|XSize=2.0032mm|YSize=1.5032mm|CornerRadius=0.4266mm|HoleSize=0mm|Usage=FLASHONLY|Rotation=180.000|XOffset=0mm|YOffset=0mm|HoleType=Round|Shape=RoundedRectangle|*
%AMROUNDEDRECTD112*
21,1,2.0032,0.6500,0,0,180.0*
21,1,1.1500,1.5032,0,0,180.0*
1,1,0.8532,-0.5750,0.3250*
1,1,0.8532,0.5750,0.3250*
1,1,0.8532,0.5750,-0.3250*
1,1,0.8532,-0.5750,-0.3250*
%
%ADD112ROUNDEDRECTD112*%
G04:AMPARAMS|DCode=119|XSize=1.2032mm|YSize=1.1032mm|CornerRadius=0.3266mm|HoleSize=0mm|Usage=FLASHONLY|Rotation=225.000|XOffset=0mm|YOffset=0mm|HoleType=Round|Shape=RoundedRectangle|*
%AMROUNDEDRECTD119*
21,1,1.2032,0.4500,0,0,225.0*
21,1,0.5500,1.1032,0,0,225.0*
1,1,0.6532,-0.3536,-0.0354*
1,1,0.6532,0.0354,0.3536*
1,1,0.6532,0.3536,0.0354*
1,1,0.6532,-0.0354,-0.3536*
%
%ADD119ROUNDEDRECTD119*%
G04:AMPARAMS|DCode=121|XSize=1.2032mm|YSize=1.1032mm|CornerRadius=0.3266mm|HoleSize=0mm|Usage=FLASHONLY|Rotation=162.000|XOffset=0mm|YOffset=0mm|HoleType=Round|Shape=RoundedRectangle|*
%AMROUNDEDRECTD121*
21,1,1.2032,0.4500,0,0,162.0*
21,1,0.5500,1.1032,0,0,162.0*
1,1,0.6532,-0.1920,0.2990*
1,1,0.6532,0.3311,0.1290*
1,1,0.6532,0.1920,-0.2990*
1,1,0.6532,-0.3311,-0.1290*
%
%ADD121ROUNDEDRECTD121*%
%ADD122C,0.2032*%
%ADD123C,1.5748*%
%ADD124P,2.6915X4X296.0*%
%ADD125C,1.9032*%
%ADD126C,1.8508*%
%ADD127R,1.8508X1.8508*%
%ADD128R,1.5494X1.5494*%
%ADD129R,1.7112X1.7112*%
%ADD130C,1.7112*%
%ADD131R,1.7112X1.7112*%
G04:AMPARAMS|DCode=132|XSize=1.2032mm|YSize=1.8032mm|CornerRadius=0mm|HoleSize=0mm|Usage=FLASHONLY|Rotation=315.000|XOffset=0mm|YOffset=0mm|HoleType=Round|Shape=Round|*
%AMOVALD132*
21,1,0.6000,1.2032,0.0000,0.0000,45.0*
1,1,1.2032,-0.2121,-0.2121*
1,1,1.2032,0.2121,0.2121*
%
%ADD132OVALD132*%

%ADD133C,0.8782*%
G04:AMPARAMS|DCode=134|XSize=1.2032mm|YSize=2.3032mm|CornerRadius=0mm|HoleSize=0mm|Usage=FLASHONLY|Rotation=315.000|XOffset=0mm|YOffset=0mm|HoleType=Round|Shape=Round|*
%AMOVALD134*
21,1,1.1000,1.2032,0.0000,0.0000,45.0*
1,1,1.2032,-0.3889,-0.3889*
1,1,1.2032,0.3889,0.3889*
%
%ADD134OVALD134*%

%ADD135R,1.5494X1.5494*%
%ADD136C,5.2032*%
%ADD137C,1.7032*%
%ADD138R,2.3532X1.8032*%
G04:AMPARAMS|DCode=139|XSize=1.8032mm|YSize=2.3532mm|CornerRadius=0.5016mm|HoleSize=0mm|Usage=FLASHONLY|Rotation=90.000|XOffset=0mm|YOffset=0mm|HoleType=Round|Shape=RoundedRectangle|*
%AMROUNDEDRECTD139*
21,1,1.8032,1.3500,0,0,90.0*
21,1,0.8000,2.3532,0,0,90.0*
1,1,1.0032,0.6750,0.4000*
1,1,1.0032,0.6750,-0.4000*
1,1,1.0032,-0.6750,-0.4000*
1,1,1.0032,-0.6750,0.4000*
%
%ADD139ROUNDEDRECTD139*%
G04:AMPARAMS|DCode=140|XSize=4.0532mm|YSize=2.3532mm|CornerRadius=0.6391mm|HoleSize=0mm|Usage=FLASHONLY|Rotation=90.000|XOffset=0mm|YOffset=0mm|HoleType=Round|Shape=RoundedRectangle|*
%AMROUNDEDRECTD140*
21,1,4.0532,1.0750,0,0,90.0*
21,1,2.7750,2.3532,0,0,90.0*
1,1,1.2782,0.5375,1.3875*
1,1,1.2782,0.5375,-1.3875*
1,1,1.2782,-0.5375,-1.3875*
1,1,1.2782,-0.5375,1.3875*
%
%ADD140ROUNDEDRECTD140*%
G04:AMPARAMS|DCode=141|XSize=0.5032mm|YSize=1.3532mm|CornerRadius=0.1766mm|HoleSize=0mm|Usage=FLASHONLY|Rotation=170.000|XOffset=0mm|YOffset=0mm|HoleType=Round|Shape=RoundedRectangle|*
%AMROUNDEDRECTD141*
21,1,0.5032,1.0000,0,0,170.0*
21,1,0.1500,1.3532,0,0,170.0*
1,1,0.3532,0.0130,0.5054*
1,1,0.3532,0.1607,0.4794*
1,1,0.3532,-0.0130,-0.5054*
1,1,0.3532,-0.1607,-0.4794*
%
%ADD141ROUNDEDRECTD141*%
G04:AMPARAMS|DCode=142|XSize=2.5032mm|YSize=1.7032mm|CornerRadius=0.4766mm|HoleSize=0mm|Usage=FLASHONLY|Rotation=170.000|XOffset=0mm|YOffset=0mm|HoleType=Round|Shape=RoundedRectangle|*
%AMROUNDEDRECTD142*
21,1,2.5032,0.7500,0,0,170.0*
21,1,1.5500,1.7032,0,0,170.0*
1,1,0.9532,-0.6981,0.5039*
1,1,0.9532,0.8283,0.2347*
1,1,0.9532,0.6981,-0.5039*
1,1,0.9532,-0.8283,-0.2347*
%
%ADD142ROUNDEDRECTD142*%
G04:AMPARAMS|DCode=143|XSize=0.5532mm|YSize=1.8372mm|CornerRadius=0.1891mm|HoleSize=0mm|Usage=FLASHONLY|Rotation=80.000|XOffset=0mm|YOffset=0mm|HoleType=Round|Shape=RoundedRectangle|*
%AMROUNDEDRECTD143*
21,1,0.5532,1.4590,0,0,80.0*
21,1,0.1750,1.8372,0,0,80.0*
1,1,0.3782,0.7336,-0.0405*
1,1,0.3782,0.7032,-0.2129*
1,1,0.3782,-0.7336,0.0405*
1,1,0.3782,-0.7032,0.2129*
%
%ADD143ROUNDEDRECTD143*%
G04:AMPARAMS|DCode=144|XSize=1.4032mm|YSize=1.0032mm|CornerRadius=0.3016mm|HoleSize=0mm|Usage=FLASHONLY|Rotation=0.000|XOffset=0mm|YOffset=0mm|HoleType=Round|Shape=RoundedRectangle|*
%AMROUNDEDRECTD144*
21,1,1.4032,0.4000,0,0,0.0*
21,1,0.8000,1.0032,0,0,0.0*
1,1,0.6032,0.4000,-0.2000*
1,1,0.6032,-0.4000,-0.2000*
1,1,0.6032,-0.4000,0.2000*
1,1,0.6032,0.4000,0.2000*
%
%ADD144ROUNDEDRECTD144*%
%ADD145R,1.4032X1.0032*%
G04:AMPARAMS|DCode=146|XSize=2.5032mm|YSize=3.4032mm|CornerRadius=0.3891mm|HoleSize=0mm|Usage=FLASHONLY|Rotation=45.000|XOffset=0mm|YOffset=0mm|HoleType=Round|Shape=RoundedRectangle|*
%AMROUNDEDRECTD146*
21,1,2.5032,2.6250,0,0,45.0*
21,1,1.7250,3.4032,0,0,45.0*
1,1,0.7782,1.5380,-0.3182*
1,1,0.7782,0.3182,-1.5380*
1,1,0.7782,-1.5380,0.3182*
1,1,0.7782,-0.3182,1.5380*
%
%ADD146ROUNDEDRECTD146*%
G04:AMPARAMS|DCode=147|XSize=0.8032mm|YSize=1.6532mm|CornerRadius=0.2516mm|HoleSize=0mm|Usage=FLASHONLY|Rotation=315.000|XOffset=0mm|YOffset=0mm|HoleType=Round|Shape=RoundedRectangle|*
%AMROUNDEDRECTD147*
21,1,0.8032,1.1500,0,0,315.0*
21,1,0.3000,1.6532,0,0,315.0*
1,1,0.5032,-0.3005,-0.5127*
1,1,0.5032,-0.5127,-0.3005*
1,1,0.5032,0.3005,0.5127*
1,1,0.5032,0.5127,0.3005*
%
%ADD147ROUNDEDRECTD147*%
G04:AMPARAMS|DCode=148|XSize=0.8032mm|YSize=1.6532mm|CornerRadius=0mm|HoleSize=0mm|Usage=FLASHONLY|Rotation=315.000|XOffset=0mm|YOffset=0mm|HoleType=Round|Shape=Rectangle|*
%AMROTATEDRECTD148*
4,1,4,-0.8685,-0.3005,0.3005,0.8685,0.8685,0.3005,-0.3005,-0.8685,-0.8685,-0.3005,0.0*
%
%ADD148ROTATEDRECTD148*%

G04:AMPARAMS|DCode=149|XSize=0.5032mm|YSize=1.6532mm|CornerRadius=0mm|HoleSize=0mm|Usage=FLASHONLY|Rotation=315.000|XOffset=0mm|YOffset=0mm|HoleType=Round|Shape=Rectangle|*
%AMROTATEDRECTD149*
4,1,4,-0.7624,-0.4066,0.4066,0.7624,0.7624,0.4066,-0.4066,-0.7624,-0.7624,-0.4066,0.0*
%
%ADD149ROTATEDRECTD149*%

%ADD150R,4.2032X2.2032*%
G04:AMPARAMS|DCode=151|XSize=2.0032mm|YSize=1.5032mm|CornerRadius=0.4266mm|HoleSize=0mm|Usage=FLASHONLY|Rotation=70.000|XOffset=0mm|YOffset=0mm|HoleType=Round|Shape=RoundedRectangle|*
%AMROUNDEDRECTD151*
21,1,2.0032,0.6500,0,0,70.0*
21,1,1.1500,1.5032,0,0,70.0*
1,1,0.8532,0.5021,0.4292*
1,1,0.8532,0.1087,-0.6515*
1,1,0.8532,-0.5021,-0.4292*
1,1,0.8532,-0.1087,0.6515*
%
%ADD151ROUNDEDRECTD151*%
G04:AMPARAMS|DCode=152|XSize=0.9032mm|YSize=1.5032mm|CornerRadius=0.2766mm|HoleSize=0mm|Usage=FLASHONLY|Rotation=180.000|XOffset=0mm|YOffset=0mm|HoleType=Round|Shape=RoundedRectangle|*
%AMROUNDEDRECTD152*
21,1,0.9032,0.9500,0,0,180.0*
21,1,0.3500,1.5032,0,0,180.0*
1,1,0.5532,-0.1750,0.4750*
1,1,0.5532,0.1750,0.4750*
1,1,0.5532,0.1750,-0.4750*
1,1,0.5532,-0.1750,-0.4750*
%
%ADD152ROUNDEDRECTD152*%
%ADD153R,0.9032X1.5032*%
G04:AMPARAMS|DCode=154|XSize=0.5032mm|YSize=1.3532mm|CornerRadius=0.1766mm|HoleSize=0mm|Usage=FLASHONLY|Rotation=270.000|XOffset=0mm|YOffset=0mm|HoleType=Round|Shape=RoundedRectangle|*
%AMROUNDEDRECTD154*
21,1,0.5032,1.0000,0,0,270.0*
21,1,0.1500,1.3532,0,0,270.0*
1,1,0.3532,-0.5000,-0.0750*
1,1,0.3532,-0.5000,0.0750*
1,1,0.3532,0.5000,0.0750*
1,1,0.3532,0.5000,-0.0750*
%
%ADD154ROUNDEDRECTD154*%
G04:AMPARAMS|DCode=155|XSize=2.5032mm|YSize=1.7032mm|CornerRadius=0.4766mm|HoleSize=0mm|Usage=FLASHONLY|Rotation=270.000|XOffset=0mm|YOffset=0mm|HoleType=Round|Shape=RoundedRectangle|*
%AMROUNDEDRECTD155*
21,1,2.5032,0.7500,0,0,270.0*
21,1,1.5500,1.7032,0,0,270.0*
1,1,0.9532,-0.3750,-0.7750*
1,1,0.9532,-0.3750,0.7750*
1,1,0.9532,0.3750,0.7750*
1,1,0.9532,0.3750,-0.7750*
%
%ADD155ROUNDEDRECTD155*%
G04:AMPARAMS|DCode=156|XSize=0.5532mm|YSize=1.8372mm|CornerRadius=0.1891mm|HoleSize=0mm|Usage=FLASHONLY|Rotation=180.000|XOffset=0mm|YOffset=0mm|HoleType=Round|Shape=RoundedRectangle|*
%AMROUNDEDRECTD156*
21,1,0.5532,1.4590,0,0,180.0*
21,1,0.1750,1.8372,0,0,180.0*
1,1,0.3782,-0.0875,0.7295*
1,1,0.3782,0.0875,0.7295*
1,1,0.3782,0.0875,-0.7295*
1,1,0.3782,-0.0875,-0.7295*
%
%ADD156ROUNDEDRECTD156*%
G04:AMPARAMS|DCode=157|XSize=0.5032mm|YSize=1.3532mm|CornerRadius=0.1766mm|HoleSize=0mm|Usage=FLASHONLY|Rotation=225.000|XOffset=0mm|YOffset=0mm|HoleType=Round|Shape=RoundedRectangle|*
%AMROUNDEDRECTD157*
21,1,0.5032,1.0000,0,0,225.0*
21,1,0.1500,1.3532,0,0,225.0*
1,1,0.3532,-0.4066,0.3005*
1,1,0.3532,-0.3005,0.4066*
1,1,0.3532,0.4066,-0.3005*
1,1,0.3532,0.3005,-0.4066*
%
%ADD157ROUNDEDRECTD157*%
G04:AMPARAMS|DCode=158|XSize=2.5032mm|YSize=1.7032mm|CornerRadius=0.4766mm|HoleSize=0mm|Usage=FLASHONLY|Rotation=225.000|XOffset=0mm|YOffset=0mm|HoleType=Round|Shape=RoundedRectangle|*
%AMROUNDEDRECTD158*
21,1,2.5032,0.7500,0,0,225.0*
21,1,1.5500,1.7032,0,0,225.0*
1,1,0.9532,-0.8132,-0.2828*
1,1,0.9532,0.2828,0.8132*
1,1,0.9532,0.8132,0.2828*
1,1,0.9532,-0.2828,-0.8132*
%
%ADD158ROUNDEDRECTD158*%
G04:AMPARAMS|DCode=159|XSize=0.5532mm|YSize=1.8372mm|CornerRadius=0.1891mm|HoleSize=0mm|Usage=FLASHONLY|Rotation=135.000|XOffset=0mm|YOffset=0mm|HoleType=Round|Shape=RoundedRectangle|*
%AMROUNDEDRECTD159*
21,1,0.5532,1.4590,0,0,135.0*
21,1,0.1750,1.8372,0,0,135.0*
1,1,0.3782,0.4540,0.5777*
1,1,0.3782,0.5777,0.4540*
1,1,0.3782,-0.4540,-0.5777*
1,1,0.3782,-0.5777,-0.4540*
%
%ADD159ROUNDEDRECTD159*%
G04:AMPARAMS|DCode=160|XSize=1.2032mm|YSize=1.1032mm|CornerRadius=0.3266mm|HoleSize=0mm|Usage=FLASHONLY|Rotation=150.000|XOffset=0mm|YOffset=0mm|HoleType=Round|Shape=RoundedRectangle|*
%AMROUNDEDRECTD160*
21,1,1.2032,0.4500,0,0,150.0*
21,1,0.5500,1.1032,0,0,150.0*
1,1,0.6532,-0.1257,0.3324*
1,1,0.6532,0.3507,0.0574*
1,1,0.6532,0.1257,-0.3324*
1,1,0.6532,-0.3507,-0.0574*
%
%ADD160ROUNDEDRECTD160*%
G04:AMPARAMS|DCode=161|XSize=1.2032mm|YSize=1.1032mm|CornerRadius=0.3266mm|HoleSize=0mm|Usage=FLASHONLY|Rotation=252.000|XOffset=0mm|YOffset=0mm|HoleType=Round|Shape=RoundedRectangle|*
%AMROUNDEDRECTD161*
21,1,1.2032,0.4500,0,0,252.0*
21,1,0.5500,1.1032,0,0,252.0*
1,1,0.6532,-0.2990,-0.1920*
1,1,0.6532,-0.1290,0.3311*
1,1,0.6532,0.2990,0.1920*
1,1,0.6532,0.1290,-0.3311*
%
%ADD161ROUNDEDRECTD161*%
%ADD162C,0.4000*%
D97*
X336119Y386642D02*
D03*
X352119D02*
D03*
X352119Y371642D02*
D03*
X336119D02*
D03*
X366500Y340000D02*
D03*
X350500D02*
D03*
X169776Y260858D02*
D03*
X185776Y260858D02*
D03*
X169000Y97500D02*
D03*
X153000D02*
D03*
X169000Y82500D02*
D03*
X153000D02*
D03*
X206500Y97500D02*
D03*
X190500D02*
D03*
X209533Y133451D02*
D03*
X193533D02*
D03*
X433000Y177500D02*
D03*
X449000D02*
D03*
X336500Y340000D02*
D03*
X320500D02*
D03*
X281028Y415544D02*
D03*
X297028D02*
D03*
X226500Y157500D02*
D03*
X210500D02*
D03*
X400500Y177500D02*
D03*
X416500D02*
D03*
X419000Y235000D02*
D03*
X403000D02*
D03*
X351500Y355000D02*
D03*
X335500D02*
D03*
X205080Y342138D02*
D03*
X189080Y342138D02*
D03*
X240500Y325000D02*
D03*
X256500D02*
D03*
X240500Y340000D02*
D03*
X256500D02*
D03*
X171500Y115000D02*
D03*
X155500D02*
D03*
X473000Y217500D02*
D03*
X489000D02*
D03*
X351500Y402500D02*
D03*
X335500D02*
D03*
X351500Y417500D02*
D03*
X335500D02*
D03*
D108*
X143598Y138938D02*
D03*
X157598D02*
D03*
D109*
X619037Y243924D02*
D03*
X371331Y57698D02*
D03*
X227673Y453502D02*
D03*
D110*
X454158Y470154D02*
D03*
X426158D02*
D03*
X114500Y282500D02*
D03*
X142500D02*
D03*
D111*
X128500Y218000D02*
D03*
Y202000D02*
D03*
X146000Y172000D02*
D03*
X146000Y188000D02*
D03*
X223500Y186532D02*
D03*
X223500Y202532D02*
D03*
X431000Y206500D02*
D03*
Y222500D02*
D03*
X381000Y218000D02*
D03*
Y202000D02*
D03*
X113500D02*
D03*
Y218000D02*
D03*
X146000Y218000D02*
D03*
Y202000D02*
D03*
X261000Y43000D02*
D03*
Y27000D02*
D03*
X205716Y313056D02*
D03*
Y329056D02*
D03*
X331000Y169500D02*
D03*
Y185500D02*
D03*
D112*
X453500Y225500D02*
D03*
Y197500D02*
D03*
D119*
X515157Y285343D02*
D03*
X503843Y296657D02*
D03*
D121*
X526586Y229882D02*
D03*
X531530Y245098D02*
D03*
D122*
X308000Y90000D02*
D03*
Y81000D02*
D03*
Y72000D02*
D03*
Y63000D02*
D03*
X608000Y311000D02*
D03*
X614364Y317364D02*
D03*
X620728Y323728D02*
D03*
X627092Y330092D02*
D03*
X96000Y137000D02*
D03*
Y146000D02*
D03*
Y155000D02*
D03*
Y164000D02*
D03*
X216000Y420000D02*
D03*
X207000D02*
D03*
X198000D02*
D03*
X189000D02*
D03*
D123*
X306095Y344032D02*
D03*
X306095Y318632D02*
D03*
Y369432D02*
D03*
X407695Y445632D02*
D03*
X433095Y445632D02*
D03*
X382295Y445632D02*
D03*
X356895D02*
D03*
X483895Y318632D02*
D03*
Y445632D02*
D03*
X331495Y445632D02*
D03*
X331495Y318632D02*
D03*
X356895Y318632D02*
D03*
X382295Y318632D02*
D03*
X407695D02*
D03*
X433095Y318632D02*
D03*
X458495Y318632D02*
D03*
Y445632D02*
D03*
X306095Y445632D02*
D03*
X415195Y369432D02*
D03*
Y394832D02*
D03*
Y420232D02*
D03*
X440595Y394832D02*
D03*
Y369432D02*
D03*
X252700Y391600D02*
D03*
X227300Y391600D02*
D03*
X201900Y391600D02*
D03*
X389795Y369432D02*
D03*
Y394832D02*
D03*
X389795Y420232D02*
D03*
D124*
X525039Y264782D02*
D03*
D125*
X508500Y216750D02*
D03*
D126*
X151100Y366200D02*
D03*
X176500Y366200D02*
D03*
X201900Y366200D02*
D03*
X227300D02*
D03*
X252700D02*
D03*
D127*
X278100D02*
D03*
D128*
X415195Y344032D02*
D03*
X440595D02*
D03*
X389795Y344032D02*
D03*
D129*
X426399Y495078D02*
D03*
X188500Y114750D02*
D03*
X376000Y152250D02*
D03*
X453500D02*
D03*
D130*
X401399Y495078D02*
D03*
X376399D02*
D03*
X351399D02*
D03*
X286250Y55000D02*
D03*
Y80000D02*
D03*
X213500Y114750D02*
D03*
X401000Y152250D02*
D03*
X478500D02*
D03*
D131*
X286250Y30000D02*
D03*
D132*
X493946Y429689D02*
D03*
X555039Y368595D02*
D03*
D133*
X478248Y393768D02*
D03*
X519118Y352898D02*
D03*
D134*
X464389Y400132D02*
D03*
X525482Y339038D02*
D03*
D135*
X278100Y391600D02*
D03*
D136*
X619493Y368048D02*
D03*
X494493Y494142D02*
D03*
D137*
X268660Y150469D02*
D03*
X388500Y278182D02*
D03*
D138*
X230250Y70500D02*
D03*
D139*
X230250Y47500D02*
D03*
X230250Y24500D02*
D03*
D140*
X171750Y47500D02*
D03*
D141*
X484190Y260377D02*
D03*
X490749Y259221D02*
D03*
X497308Y258064D02*
D03*
X503867Y256908D02*
D03*
X479728Y235068D02*
D03*
X486286Y233911D02*
D03*
X492845Y232754D02*
D03*
X499404Y231598D02*
D03*
D142*
X491091Y241985D02*
D03*
D143*
X490055Y255281D02*
D03*
D144*
X126414Y337500D02*
D03*
X361000Y233048D02*
D03*
D145*
X126414Y302500D02*
D03*
X361000Y198048D02*
D03*
D146*
X556998Y312420D02*
D03*
D147*
X562832Y346538D02*
D03*
X569903Y339467D02*
D03*
X576974Y332396D02*
D03*
X584045Y325325D02*
D03*
X591116Y318254D02*
D03*
X522880Y306586D02*
D03*
X529951Y299515D02*
D03*
X537022Y292444D02*
D03*
X544093Y285373D02*
D03*
D148*
X551164Y278302D02*
D03*
X465839Y386449D02*
D03*
X511801Y340487D02*
D03*
X506144Y346144D02*
D03*
X471496Y380792D02*
D03*
D149*
X501194Y351094D02*
D03*
X497658Y354629D02*
D03*
X476445Y375842D02*
D03*
X479981Y372307D02*
D03*
X487052Y365236D02*
D03*
X494123Y358165D02*
D03*
X483516Y368771D02*
D03*
X490587Y361700D02*
D03*
D150*
X161520Y307340D02*
D03*
Y340360D02*
D03*
D151*
X334800Y476974D02*
D03*
X361112Y467398D02*
D03*
D152*
X396500Y195500D02*
D03*
X406000D02*
D03*
X415500D02*
D03*
Y219500D02*
D03*
X406000D02*
D03*
D153*
X396500D02*
D03*
D154*
X348060Y166540D02*
D03*
Y173200D02*
D03*
Y179860D02*
D03*
Y186520D02*
D03*
X373760Y166540D02*
D03*
Y173200D02*
D03*
Y179860D02*
D03*
Y186520D02*
D03*
D155*
X364974Y176530D02*
D03*
D156*
X352060Y173200D02*
D03*
D157*
X474474Y177362D02*
D03*
X479183Y182071D02*
D03*
X483893Y186781D02*
D03*
X488602Y191490D02*
D03*
X492647Y159189D02*
D03*
X497356Y163899D02*
D03*
X502065Y168608D02*
D03*
X506775Y173317D02*
D03*
D158*
X493498Y172466D02*
D03*
D159*
X482012Y179243D02*
D03*
D160*
X465368Y256470D02*
D03*
X473368Y270326D02*
D03*
D161*
X515330Y194632D02*
D03*
X500114Y199576D02*
D03*
D162*
X553109Y324087D02*
D03*
X545331Y316309D02*
D03*
X560887D02*
D03*
X553109Y308531D02*
D03*
X568665D02*
D03*
X560887Y300753D02*
D03*
X290501Y127304D02*
D03*
X205136Y254975D02*
D03*
X207449Y261355D02*
D03*
X161803Y242065D02*
D03*
X179954Y217912D02*
D03*
X189969Y270657D02*
D03*
X198350Y280271D02*
D03*
X176796Y268986D02*
D03*
X177225Y224299D02*
D03*
X152884Y67818D02*
D03*
X175750Y81788D02*
D03*
X214606Y211292D02*
D03*
X233596Y249356D02*
D03*
X173679Y186702D02*
D03*
X151415Y179146D02*
D03*
X171898Y144526D02*
D03*
X166854Y128016D02*
D03*
X182602Y144272D02*
D03*
X135669Y210115D02*
D03*
X104817Y229633D02*
D03*
X104250Y213801D02*
D03*
X191027Y158321D02*
D03*
X214234Y178696D02*
D03*
X202037Y162980D02*
D03*
X215622Y187030D02*
D03*
X158853Y209641D02*
D03*
X154154Y189901D02*
D03*
X136232Y196556D02*
D03*
X142724Y229616D02*
D03*
X253214Y310896D02*
D03*
X248388Y175514D02*
D03*
X240768Y201168D02*
D03*
X244324Y210820D02*
D03*
X164060Y192786D02*
D03*
X161012Y186690D02*
D03*
X105386Y264668D02*
D03*
X240500Y350924D02*
D03*
X106148Y250698D02*
D03*
X215876Y250129D02*
D03*
X230608Y238252D02*
D03*
X230899Y272157D02*
D03*
X225810Y276832D02*
D03*
X236196Y314452D02*
D03*
X214606Y24384D02*
D03*
X198350Y333756D02*
D03*
X213082Y320294D02*
D03*
X218179Y307656D02*
D03*
X131729Y327804D02*
D03*
X137136Y306070D02*
D03*
X135358Y346202D02*
D03*
X128500Y113792D02*
D03*
X107418Y131826D02*
D03*
X215611Y239025D02*
D03*
X221464Y341122D02*
D03*
X250928Y117602D02*
D03*
X218790Y165100D02*
D03*
X274771Y119530D02*
D03*
X306593Y233312D02*
D03*
X297731Y208026D02*
D03*
X286119Y210820D02*
D03*
X286448Y240464D02*
D03*
X300814Y168656D02*
D03*
X167362Y181864D02*
D03*
X153414Y227562D02*
D03*
X231719Y226509D02*
D03*
X249658Y195834D02*
D03*
X272120Y55880D02*
D03*
X107418Y239522D02*
D03*
X247118Y52578D02*
D03*
X108688Y172974D02*
D03*
X139168Y154686D02*
D03*
X130532Y277622D02*
D03*
X458700Y302768D02*
D03*
X285722Y222500D02*
D03*
X302626Y182000D02*
D03*
X284456Y188722D02*
D03*
X285726Y274828D02*
D03*
X456414Y243114D02*
D03*
X562496Y283281D02*
D03*
X276074Y315214D02*
D03*
X187428Y152146D02*
D03*
X214606Y171450D02*
D03*
X310654Y355092D02*
D03*
X314682Y165100D02*
D03*
X326366Y405638D02*
D03*
X330430Y331470D02*
D03*
X345069Y345933D02*
D03*
X364529Y357886D02*
D03*
X342104Y362956D02*
D03*
X311888Y385064D02*
D03*
X327204Y417500D02*
D03*
X110268Y296619D02*
D03*
X422378Y263398D02*
D03*
X425172Y185166D02*
D03*
X495500Y331000D02*
D03*
X500516Y329000D02*
D03*
X475310Y353214D02*
D03*
X323324Y254645D02*
D03*
X328122Y259444D02*
D03*
X468524Y353214D02*
D03*
X555220Y337820D02*
D03*
X574016Y352044D02*
D03*
X491212Y383794D02*
D03*
X508230Y365760D02*
D03*
X465868Y363648D02*
D03*
X375518Y339746D02*
D03*
X487656Y202184D02*
D03*
X351766Y157226D02*
D03*
X461240Y177500D02*
D03*
X444064Y206500D02*
D03*
X390374Y183388D02*
D03*
X429236Y238760D02*
D03*
X371324Y235000D02*
D03*
X507722Y248666D02*
D03*
X464852Y369648D02*
D03*
X460852Y365648D02*
D03*
X499500Y335000D02*
D03*
X548108Y266192D02*
D03*
X599416Y328422D02*
D03*
X582398Y353060D02*
D03*
M02*
