G04*
G04 #@! TF.GenerationSoftware,Altium Limited,Altium Designer,23.11.1 (41)*
G04*
G04 Layer_Color=32896*
%FSLAX44Y44*%
%MOMM*%
G71*
G04*
G04 #@! TF.SameCoordinates,7D9A12BA-FF4A-4FA1-B099-3E499341C767*
G04*
G04*
G04 #@! TF.FilePolarity,Positive*
G04*
G01*
G75*
%ADD32C,0.2032*%
%ADD86C,0.5000*%
%ADD88C,0.2000*%
%ADD89C,0.2500*%
%ADD91C,0.1000*%
G36*
X321426Y402690D02*
X323173Y399565D01*
X321875D01*
X320727Y401762D01*
X320717D01*
X319579Y399565D01*
X318281D01*
X320028Y402690D01*
X318411Y405605D01*
X319699D01*
X320717Y403628D01*
X320727D01*
X321755Y405605D01*
X323043D01*
X321426Y402690D01*
D02*
G37*
G36*
X327225Y404626D02*
X325938D01*
Y399565D01*
X324760D01*
Y404626D01*
X323492D01*
Y405605D01*
X327225D01*
Y404626D01*
D02*
G37*
G36*
X311294Y399565D02*
X308079D01*
Y400544D01*
X310146D01*
Y402141D01*
X308279D01*
Y403109D01*
X310146D01*
Y404626D01*
X308079D01*
Y405605D01*
X311294D01*
Y399565D01*
D02*
G37*
G36*
X307141D02*
X304087D01*
Y400544D01*
X305963D01*
Y405605D01*
X307141D01*
Y399565D01*
D02*
G37*
G36*
X313959Y405704D02*
X314119Y405695D01*
X314258Y405675D01*
X314378Y405654D01*
X314478Y405625D01*
X314548Y405605D01*
X314598Y405595D01*
X314618Y405585D01*
X314748Y405535D01*
X314867Y405475D01*
X314967Y405415D01*
X315057Y405355D01*
X315137Y405295D01*
X315187Y405255D01*
X315227Y405225D01*
X315237Y405215D01*
X315327Y405126D01*
X315406Y405036D01*
X315466Y404936D01*
X315526Y404846D01*
X315566Y404776D01*
X315596Y404716D01*
X315616Y404666D01*
X315626Y404656D01*
X315676Y404526D01*
X315706Y404407D01*
X315736Y404277D01*
X315746Y404167D01*
X315756Y404067D01*
X315766Y403988D01*
Y403938D01*
Y403918D01*
X315756Y403758D01*
X315736Y403608D01*
X315716Y403478D01*
X315676Y403369D01*
X315646Y403279D01*
X315626Y403219D01*
X315606Y403169D01*
X315596Y403159D01*
X315526Y403049D01*
X315446Y402949D01*
X315376Y402869D01*
X315307Y402790D01*
X315247Y402730D01*
X315197Y402690D01*
X315167Y402660D01*
X315157Y402650D01*
X314957Y402510D01*
X314867Y402440D01*
X314778Y402390D01*
X314708Y402350D01*
X314648Y402321D01*
X314608Y402300D01*
X314598Y402290D01*
X314378Y402191D01*
X314278Y402141D01*
X314199Y402091D01*
X314129Y402061D01*
X314079Y402031D01*
X314039Y402011D01*
X314029Y402001D01*
X313939Y401951D01*
X313849Y401891D01*
X313779Y401841D01*
X313719Y401791D01*
X313669Y401741D01*
X313630Y401712D01*
X313610Y401692D01*
X313600Y401682D01*
X313540Y401612D01*
X313500Y401542D01*
X313460Y401472D01*
X313440Y401402D01*
X313430Y401342D01*
X313420Y401292D01*
Y401262D01*
Y401252D01*
X313430Y401133D01*
X313460Y401033D01*
X313500Y400943D01*
X313540Y400863D01*
X313590Y400803D01*
X313630Y400763D01*
X313659Y400733D01*
X313669Y400723D01*
X313769Y400653D01*
X313879Y400603D01*
X313989Y400574D01*
X314089Y400554D01*
X314189Y400534D01*
X314268Y400524D01*
X314338D01*
X314548Y400534D01*
X314648Y400554D01*
X314738Y400564D01*
X314807Y400584D01*
X314867Y400594D01*
X314907Y400603D01*
X314917D01*
X315117Y400673D01*
X315207Y400703D01*
X315287Y400733D01*
X315357Y400763D01*
X315406Y400783D01*
X315436Y400803D01*
X315446D01*
X315836Y399785D01*
X315576Y399675D01*
X315446Y399635D01*
X315337Y399605D01*
X315237Y399575D01*
X315167Y399555D01*
X315117Y399545D01*
X315097D01*
X314797Y399496D01*
X314658Y399486D01*
X314538Y399476D01*
X314428Y399466D01*
X314278D01*
X314099Y399476D01*
X313939Y399486D01*
X313789Y399506D01*
X313659Y399535D01*
X313560Y399555D01*
X313480Y399575D01*
X313430Y399585D01*
X313410Y399595D01*
X313270Y399645D01*
X313141Y399705D01*
X313031Y399775D01*
X312941Y399835D01*
X312861Y399885D01*
X312811Y399935D01*
X312771Y399965D01*
X312761Y399975D01*
X312661Y400075D01*
X312582Y400174D01*
X312512Y400264D01*
X312452Y400354D01*
X312412Y400434D01*
X312382Y400494D01*
X312362Y400544D01*
X312352Y400554D01*
X312302Y400683D01*
X312272Y400813D01*
X312242Y400943D01*
X312232Y401063D01*
X312222Y401162D01*
X312212Y401242D01*
Y401292D01*
Y401312D01*
X312222Y401472D01*
X312242Y401622D01*
X312272Y401752D01*
X312302Y401851D01*
X312332Y401941D01*
X312362Y402011D01*
X312382Y402051D01*
X312392Y402061D01*
X312462Y402171D01*
X312532Y402271D01*
X312601Y402350D01*
X312671Y402430D01*
X312741Y402490D01*
X312781Y402530D01*
X312821Y402560D01*
X312831Y402570D01*
X313031Y402720D01*
X313120Y402780D01*
X313210Y402840D01*
X313290Y402879D01*
X313350Y402909D01*
X313390Y402929D01*
X313400Y402939D01*
X313620Y403049D01*
X313719Y403099D01*
X313809Y403149D01*
X313879Y403179D01*
X313929Y403209D01*
X313969Y403229D01*
X313979Y403239D01*
X314159Y403349D01*
X314228Y403409D01*
X314298Y403459D01*
X314348Y403498D01*
X314388Y403528D01*
X314408Y403548D01*
X314418Y403558D01*
X314478Y403628D01*
X314518Y403698D01*
X314548Y403768D01*
X314568Y403838D01*
X314578Y403898D01*
X314588Y403948D01*
Y403978D01*
Y403988D01*
X314578Y404097D01*
X314558Y404207D01*
X314518Y404287D01*
X314478Y404367D01*
X314438Y404417D01*
X314398Y404467D01*
X314378Y404487D01*
X314368Y404497D01*
X314278Y404566D01*
X314179Y404616D01*
X314069Y404646D01*
X313969Y404676D01*
X313889Y404686D01*
X313809Y404696D01*
X313749D01*
X313550Y404686D01*
X313460Y404676D01*
X313380Y404666D01*
X313310Y404646D01*
X313260Y404636D01*
X313230Y404626D01*
X313220D01*
X313041Y404566D01*
X312961Y404537D01*
X312901Y404507D01*
X312841Y404477D01*
X312801Y404457D01*
X312771Y404447D01*
X312761Y404437D01*
X312392Y405385D01*
X312611Y405495D01*
X312721Y405535D01*
X312821Y405565D01*
X312901Y405595D01*
X312971Y405615D01*
X313011Y405625D01*
X313031D01*
X313300Y405675D01*
X313430Y405695D01*
X313550Y405704D01*
X313650Y405714D01*
X313799D01*
X313959Y405704D01*
D02*
G37*
G36*
X372963Y470350D02*
X371835D01*
Y473863D01*
X371725Y473913D01*
X371625Y473953D01*
X371585Y473963D01*
X371555Y473973D01*
X371535Y473983D01*
X371525D01*
X371396Y474013D01*
X371286Y474023D01*
X371236Y474033D01*
X371176D01*
X371036Y474023D01*
X370916Y474003D01*
X370817Y473973D01*
X370727Y473943D01*
X370667Y473903D01*
X370617Y473873D01*
X370587Y473853D01*
X370577Y473843D01*
X370507Y473764D01*
X370447Y473684D01*
X370407Y473584D01*
X370387Y473494D01*
X370367Y473414D01*
X370358Y473344D01*
Y473304D01*
Y473284D01*
Y470350D01*
X369220D01*
Y473404D01*
Y473534D01*
X369239Y473664D01*
X369289Y473893D01*
X369359Y474083D01*
X369439Y474243D01*
X369519Y474373D01*
X369589Y474462D01*
X369639Y474512D01*
X369649Y474532D01*
X369659D01*
X369838Y474662D01*
X370028Y474762D01*
X370238Y474832D01*
X370437Y474872D01*
X370607Y474902D01*
X370687Y474912D01*
X370757D01*
X370807Y474922D01*
X370886D01*
X371066Y474912D01*
X371156Y474902D01*
X371226Y474892D01*
X371296Y474882D01*
X371346Y474872D01*
X371376Y474862D01*
X371386D01*
X371565Y474812D01*
X371635Y474792D01*
X371705Y474762D01*
X371755Y474742D01*
X371795Y474732D01*
X371825Y474712D01*
X371835D01*
Y476908D01*
X372963D01*
Y470350D01*
D02*
G37*
G36*
X344843Y476269D02*
X344973Y476179D01*
X345023Y476139D01*
X345063Y476110D01*
X345093Y476090D01*
X345103Y476079D01*
X345272Y475970D01*
X345362Y475930D01*
X345442Y475890D01*
X345502Y475860D01*
X345552Y475830D01*
X345592Y475820D01*
X345602Y475810D01*
X345801Y475730D01*
X345901Y475700D01*
X345991Y475670D01*
X346071Y475640D01*
X346131Y475630D01*
X346171Y475610D01*
X346181D01*
X346400Y475560D01*
X346500Y475531D01*
X346590Y475521D01*
X346670Y475501D01*
X346730Y475491D01*
X346769Y475481D01*
X346780D01*
X346610Y474612D01*
X346450Y474642D01*
X346310Y474672D01*
X346250Y474682D01*
X346211Y474692D01*
X346181Y474702D01*
X346171D01*
X346001Y474742D01*
X345931Y474762D01*
X345861Y474772D01*
X345811Y474792D01*
X345771Y474802D01*
X345741Y474812D01*
X345731D01*
X345572Y474862D01*
X345502Y474882D01*
X345442Y474902D01*
X345382Y474922D01*
X345342Y474942D01*
X345322Y474952D01*
X345312D01*
X345172Y475011D01*
X345063Y475061D01*
X345023Y475081D01*
X344993Y475101D01*
X344983Y475111D01*
X344973D01*
Y470350D01*
X343815D01*
Y476389D01*
X344723D01*
X344843Y476269D01*
D02*
G37*
G36*
X337566Y476269D02*
X337696Y476179D01*
X337746Y476139D01*
X337785Y476110D01*
X337816Y476090D01*
X337826Y476079D01*
X337995Y475970D01*
X338085Y475930D01*
X338165Y475890D01*
X338225Y475860D01*
X338275Y475830D01*
X338315Y475820D01*
X338325Y475810D01*
X338524Y475730D01*
X338624Y475700D01*
X338714Y475670D01*
X338794Y475640D01*
X338854Y475630D01*
X338894Y475610D01*
X338904D01*
X339123Y475560D01*
X339223Y475531D01*
X339313Y475521D01*
X339393Y475500D01*
X339453Y475491D01*
X339492Y475481D01*
X339502D01*
X339333Y474612D01*
X339173Y474642D01*
X339033Y474672D01*
X338973Y474682D01*
X338933Y474692D01*
X338904Y474702D01*
X338894D01*
X338724Y474742D01*
X338654Y474762D01*
X338584Y474772D01*
X338534Y474792D01*
X338494Y474802D01*
X338464Y474812D01*
X338454D01*
X338295Y474862D01*
X338225Y474882D01*
X338165Y474902D01*
X338105Y474922D01*
X338065Y474941D01*
X338045Y474952D01*
X338035D01*
X337895Y475011D01*
X337785Y475061D01*
X337746Y475081D01*
X337716Y475101D01*
X337706Y475111D01*
X337696D01*
Y470350D01*
X336538D01*
Y476389D01*
X337446D01*
X337566Y476269D01*
D02*
G37*
G36*
X362102Y474932D02*
X362262Y474922D01*
X362402Y474902D01*
X362521Y474882D01*
X362611Y474862D01*
X362671Y474852D01*
X362681Y474842D01*
X362691D01*
X362851Y474802D01*
X362991Y474762D01*
X363120Y474732D01*
X363220Y474692D01*
X363310Y474662D01*
X363370Y474642D01*
X363410Y474632D01*
X363420Y474622D01*
X363140Y473853D01*
X363050Y473893D01*
X362961Y473913D01*
X362891Y473933D01*
X362881Y473943D01*
X362871D01*
X362751Y473983D01*
X362651Y474003D01*
X362611Y474023D01*
X362581D01*
X362561Y474033D01*
X362551D01*
X362422Y474063D01*
X362322Y474083D01*
X362272D01*
X362242Y474093D01*
X362212D01*
X362082Y474113D01*
X361972Y474123D01*
X361873D01*
X361733Y474113D01*
X361613Y474103D01*
X361513Y474073D01*
X361423Y474053D01*
X361353Y474023D01*
X361304Y473993D01*
X361274Y473983D01*
X361264Y473973D01*
X361184Y473913D01*
X361134Y473834D01*
X361094Y473754D01*
X361064Y473674D01*
X361044Y473594D01*
X361034Y473534D01*
Y473494D01*
Y473474D01*
Y473245D01*
X361224Y473235D01*
X361403Y473215D01*
X361573Y473195D01*
X361723Y473175D01*
X361843Y473165D01*
X361942Y473145D01*
X362002Y473135D01*
X362022D01*
X362192Y473105D01*
X362352Y473065D01*
X362491Y473025D01*
X362621Y472985D01*
X362721Y472955D01*
X362791Y472925D01*
X362841Y472905D01*
X362861Y472895D01*
X362991Y472835D01*
X363110Y472756D01*
X363210Y472686D01*
X363290Y472616D01*
X363360Y472546D01*
X363410Y472496D01*
X363440Y472456D01*
X363450Y472446D01*
X363520Y472326D01*
X363579Y472206D01*
X363619Y472087D01*
X363639Y471967D01*
X363659Y471857D01*
X363669Y471777D01*
Y471717D01*
Y471707D01*
Y471697D01*
X363659Y471568D01*
X363649Y471458D01*
X363590Y471238D01*
X363510Y471059D01*
X363420Y470909D01*
X363330Y470789D01*
X363250Y470699D01*
X363190Y470649D01*
X363180Y470629D01*
X363170D01*
X363070Y470559D01*
X362961Y470499D01*
X362721Y470410D01*
X362462Y470340D01*
X362212Y470300D01*
X362102Y470280D01*
X361992Y470270D01*
X361893Y470260D01*
X361813D01*
X361743Y470250D01*
X361453D01*
X361274Y470270D01*
X361114Y470280D01*
X360964Y470300D01*
X360844Y470320D01*
X360755Y470330D01*
X360695Y470350D01*
X360675D01*
X360505Y470390D01*
X360365Y470420D01*
X360246Y470460D01*
X360136Y470490D01*
X360056Y470519D01*
X360006Y470549D01*
X359966Y470559D01*
X359956Y470569D01*
Y473344D01*
Y473504D01*
X359976Y473644D01*
X359996Y473774D01*
X360026Y473903D01*
X360066Y474013D01*
X360106Y474113D01*
X360146Y474203D01*
X360186Y474283D01*
X360235Y474353D01*
X360275Y474412D01*
X360355Y474502D01*
X360405Y474552D01*
X360415Y474572D01*
X360425D01*
X360615Y474702D01*
X360834Y474792D01*
X361054Y474862D01*
X361264Y474902D01*
X361453Y474932D01*
X361543Y474942D01*
X361613D01*
X361673Y474952D01*
X361932D01*
X362102Y474932D01*
D02*
G37*
G36*
X392338Y472576D02*
X389943D01*
Y473544D01*
X392338D01*
Y472576D01*
D02*
G37*
G36*
X350663Y470350D02*
X349415D01*
X347558Y476389D01*
X348836D01*
X349854Y472456D01*
X349904Y472256D01*
X349924Y472166D01*
X349944Y472087D01*
X349954Y472017D01*
X349964Y471967D01*
X349974Y471937D01*
Y471927D01*
X349984Y471847D01*
X350004Y471777D01*
X350014Y471717D01*
Y471667D01*
X350024Y471628D01*
X350034Y471608D01*
Y471598D01*
Y471588D01*
X350054D01*
X350064Y471628D01*
X350074Y471677D01*
X350084Y471717D01*
Y471727D01*
X350094Y471807D01*
X350104Y471877D01*
X350113Y471927D01*
Y471937D01*
Y471947D01*
X350134Y472037D01*
X350144Y472117D01*
X350154Y472177D01*
X350163Y472187D01*
Y472197D01*
X350183Y472296D01*
X350203Y472376D01*
X350213Y472436D01*
X350223Y472446D01*
Y472456D01*
X351241Y476389D01*
X352519D01*
X350663Y470350D01*
D02*
G37*
G36*
X366444Y474942D02*
X366604Y474922D01*
X366754Y474892D01*
X366884Y474862D01*
X366993Y474832D01*
X367073Y474802D01*
X367123Y474782D01*
X367143Y474772D01*
X367283Y474702D01*
X367413Y474622D01*
X367523Y474542D01*
X367622Y474472D01*
X367692Y474403D01*
X367752Y474343D01*
X367792Y474303D01*
X367802Y474293D01*
X367892Y474173D01*
X367982Y474043D01*
X368052Y473923D01*
X368111Y473804D01*
X368151Y473704D01*
X368181Y473614D01*
X368201Y473564D01*
X368211Y473554D01*
Y473544D01*
X368261Y473384D01*
X368291Y473215D01*
X368321Y473055D01*
X368331Y472905D01*
X368341Y472785D01*
X368351Y472686D01*
Y472646D01*
Y472616D01*
Y472606D01*
Y472596D01*
X368341Y472406D01*
X368331Y472236D01*
X368311Y472077D01*
X368281Y471927D01*
X368251Y471817D01*
X368231Y471727D01*
X368221Y471667D01*
X368211Y471657D01*
Y471647D01*
X368151Y471488D01*
X368082Y471348D01*
X368002Y471218D01*
X367932Y471108D01*
X367872Y471019D01*
X367822Y470959D01*
X367782Y470909D01*
X367772Y470899D01*
X367662Y470789D01*
X367542Y470689D01*
X367423Y470609D01*
X367313Y470539D01*
X367213Y470490D01*
X367133Y470450D01*
X367083Y470430D01*
X367063Y470420D01*
X366904Y470360D01*
X366734Y470320D01*
X366574Y470290D01*
X366414Y470270D01*
X366285Y470260D01*
X366175Y470250D01*
X365905D01*
X365726Y470260D01*
X365566Y470280D01*
X365426Y470300D01*
X365316Y470310D01*
X365227Y470330D01*
X365167Y470340D01*
X365147D01*
X364987Y470380D01*
X364847Y470410D01*
X364728Y470450D01*
X364618Y470490D01*
X364528Y470519D01*
X364468Y470549D01*
X364428Y470559D01*
X364418Y470569D01*
X364748Y471418D01*
X364937Y471338D01*
X365037Y471298D01*
X365127Y471278D01*
X365207Y471248D01*
X365266Y471228D01*
X365307Y471218D01*
X365326D01*
X365566Y471168D01*
X365686Y471158D01*
X365786Y471148D01*
X365866Y471138D01*
X365995D01*
X366175Y471148D01*
X366345Y471178D01*
X366484Y471218D01*
X366604Y471258D01*
X366704Y471298D01*
X366774Y471338D01*
X366814Y471368D01*
X366834Y471378D01*
X366944Y471478D01*
X367033Y471598D01*
X367103Y471727D01*
X367163Y471847D01*
X367203Y471957D01*
X367223Y472047D01*
X367243Y472107D01*
Y472117D01*
Y472127D01*
X364348Y472516D01*
X364338Y472586D01*
X364328Y472646D01*
Y472686D01*
Y472706D01*
Y472905D01*
X364338Y473075D01*
X364348Y473225D01*
X364368Y473374D01*
X364388Y473494D01*
X364418Y473594D01*
X364438Y473674D01*
X364448Y473714D01*
X364458Y473734D01*
X364508Y473873D01*
X364568Y473993D01*
X364638Y474103D01*
X364697Y474203D01*
X364748Y474273D01*
X364797Y474333D01*
X364827Y474373D01*
X364837Y474383D01*
X364927Y474482D01*
X365027Y474562D01*
X365127Y474632D01*
X365227Y474692D01*
X365307Y474742D01*
X365376Y474772D01*
X365416Y474792D01*
X365436Y474802D01*
X365576Y474852D01*
X365716Y474892D01*
X365855Y474912D01*
X365985Y474932D01*
X366095Y474942D01*
X366185Y474952D01*
X366265D01*
X366444Y474942D01*
D02*
G37*
G36*
X401073Y476489D02*
X401232Y476469D01*
X401372Y476459D01*
X401492Y476439D01*
X401582Y476419D01*
X401642Y476409D01*
X401662D01*
X401821Y476369D01*
X401971Y476329D01*
X402101Y476289D01*
X402221Y476259D01*
X402321Y476219D01*
X402390Y476199D01*
X402430Y476179D01*
X402450Y476169D01*
Y470350D01*
X401302D01*
Y472696D01*
X401222Y472686D01*
X401143Y472676D01*
X401073Y472666D01*
X401053D01*
X400933Y472656D01*
X400743D01*
X400534Y472666D01*
X400334Y472676D01*
X400154Y472696D01*
X400005Y472725D01*
X399885Y472756D01*
X399795Y472775D01*
X399735Y472785D01*
X399715Y472795D01*
X399555Y472855D01*
X399416Y472915D01*
X399286Y472985D01*
X399176Y473045D01*
X399096Y473095D01*
X399026Y473145D01*
X398986Y473175D01*
X398976Y473185D01*
X398867Y473284D01*
X398777Y473394D01*
X398707Y473494D01*
X398637Y473584D01*
X398587Y473674D01*
X398557Y473734D01*
X398537Y473774D01*
X398527Y473794D01*
X398477Y473923D01*
X398437Y474063D01*
X398417Y474183D01*
X398397Y474303D01*
X398387Y474403D01*
X398377Y474482D01*
Y474532D01*
Y474552D01*
X398387Y474712D01*
X398407Y474872D01*
X398437Y475011D01*
X398467Y475151D01*
X398567Y475391D01*
X398617Y475501D01*
X398677Y475590D01*
X398737Y475680D01*
X398787Y475760D01*
X398837Y475820D01*
X398887Y475870D01*
X398917Y475920D01*
X398946Y475950D01*
X398966Y475960D01*
X398976Y475970D01*
X399096Y476060D01*
X399226Y476149D01*
X399356Y476219D01*
X399496Y476279D01*
X399785Y476369D01*
X400065Y476429D01*
X400194Y476459D01*
X400314Y476469D01*
X400424Y476479D01*
X400514Y476489D01*
X400593Y476499D01*
X400893D01*
X401073Y476489D01*
D02*
G37*
G36*
X389214Y475411D02*
X387926D01*
Y470350D01*
X386748D01*
Y475411D01*
X385480D01*
Y476389D01*
X389214D01*
Y475411D01*
D02*
G37*
G36*
X375139Y470350D02*
X374001D01*
Y476908D01*
X375139D01*
Y470350D01*
D02*
G37*
G36*
X341439Y471697D02*
X341529Y471677D01*
X341589Y471657D01*
X341599Y471647D01*
X341609D01*
X341699Y471598D01*
X341768Y471548D01*
X341818Y471508D01*
X341838Y471488D01*
X341898Y471418D01*
X341948Y471348D01*
X341978Y471288D01*
X341988Y471278D01*
Y471268D01*
X342018Y471168D01*
X342038Y471078D01*
X342048Y471039D01*
Y471019D01*
Y470999D01*
Y470989D01*
X342038Y470879D01*
X342018Y470789D01*
X341998Y470729D01*
X341988Y470719D01*
Y470709D01*
X341938Y470619D01*
X341888Y470549D01*
X341848Y470499D01*
X341838Y470480D01*
X341758Y470420D01*
X341689Y470380D01*
X341629Y470350D01*
X341619Y470340D01*
X341609D01*
X341509Y470310D01*
X341419Y470290D01*
X341379Y470280D01*
X341329D01*
X341219Y470290D01*
X341130Y470310D01*
X341070Y470330D01*
X341060Y470340D01*
X341050D01*
X340960Y470380D01*
X340890Y470430D01*
X340840Y470470D01*
X340820Y470480D01*
X340750Y470559D01*
X340710Y470629D01*
X340680Y470689D01*
X340670Y470699D01*
Y470709D01*
X340630Y470809D01*
X340620Y470899D01*
X340611Y470939D01*
Y470959D01*
Y470979D01*
Y470989D01*
X340620Y471098D01*
X340640Y471188D01*
X340660Y471248D01*
X340670Y471258D01*
Y471268D01*
X340710Y471358D01*
X340760Y471428D01*
X340800Y471468D01*
X340820Y471488D01*
X340900Y471558D01*
X340970Y471608D01*
X341030Y471637D01*
X341040Y471647D01*
X341050D01*
X341149Y471687D01*
X341239Y471697D01*
X341279Y471707D01*
X341329D01*
X341439Y471697D01*
D02*
G37*
G36*
X396231Y476479D02*
X396391Y476469D01*
X396531Y476449D01*
X396641Y476429D01*
X396730Y476419D01*
X396790Y476399D01*
X396810D01*
X396970Y476359D01*
X397110Y476329D01*
X397229Y476289D01*
X397329Y476249D01*
X397419Y476219D01*
X397479Y476189D01*
X397519Y476179D01*
X397529Y476169D01*
Y470569D01*
X397419Y470519D01*
X397299Y470480D01*
X397190Y470440D01*
X397070Y470400D01*
X396970Y470380D01*
X396890Y470360D01*
X396840Y470340D01*
X396820D01*
X396491Y470290D01*
X396331Y470270D01*
X396181Y470260D01*
X396052D01*
X395962Y470250D01*
X395872D01*
X395642Y470260D01*
X395423Y470280D01*
X395223Y470320D01*
X395033Y470370D01*
X394854Y470430D01*
X394694Y470499D01*
X394544Y470569D01*
X394415Y470649D01*
X394295Y470719D01*
X394195Y470789D01*
X394105Y470859D01*
X394035Y470919D01*
X393975Y470969D01*
X393935Y471009D01*
X393915Y471029D01*
X393905Y471039D01*
X393776Y471198D01*
X393676Y471368D01*
X393576Y471548D01*
X393496Y471737D01*
X393426Y471937D01*
X393366Y472127D01*
X393326Y472316D01*
X393287Y472506D01*
X393257Y472686D01*
X393237Y472845D01*
X393217Y472995D01*
X393207Y473125D01*
X393197Y473225D01*
Y473304D01*
Y473354D01*
Y473374D01*
X393207Y473654D01*
X393227Y473913D01*
X393267Y474153D01*
X393307Y474383D01*
X393356Y474592D01*
X393416Y474782D01*
X393486Y474952D01*
X393546Y475111D01*
X393616Y475251D01*
X393686Y475371D01*
X393746Y475471D01*
X393796Y475550D01*
X393836Y475620D01*
X393876Y475660D01*
X393895Y475690D01*
X393905Y475700D01*
X394045Y475840D01*
X394195Y475960D01*
X394345Y476070D01*
X394504Y476159D01*
X394674Y476239D01*
X394834Y476309D01*
X394994Y476359D01*
X395153Y476399D01*
X395293Y476429D01*
X395433Y476459D01*
X395552Y476479D01*
X395662Y476489D01*
X395752Y476499D01*
X396052D01*
X396231Y476479D01*
D02*
G37*
G36*
X383015Y474942D02*
X383175Y474922D01*
X383324Y474892D01*
X383454Y474862D01*
X383564Y474832D01*
X383644Y474802D01*
X383694Y474782D01*
X383714Y474772D01*
X383853Y474702D01*
X383973Y474622D01*
X384083Y474532D01*
X384173Y474452D01*
X384253Y474383D01*
X384303Y474323D01*
X384342Y474283D01*
X384352Y474273D01*
X384442Y474153D01*
X384522Y474023D01*
X384592Y473903D01*
X384642Y473784D01*
X384682Y473684D01*
X384722Y473604D01*
X384732Y473554D01*
X384742Y473544D01*
Y473534D01*
X384782Y473374D01*
X384812Y473205D01*
X384842Y473045D01*
X384852Y472905D01*
X384862Y472775D01*
X384872Y472686D01*
Y472646D01*
Y472616D01*
Y472606D01*
Y472596D01*
X384862Y472416D01*
X384852Y472236D01*
X384832Y472077D01*
X384802Y471937D01*
X384782Y471827D01*
X384762Y471737D01*
X384752Y471677D01*
X384742Y471667D01*
Y471657D01*
X384692Y471498D01*
X384622Y471358D01*
X384562Y471228D01*
X384502Y471118D01*
X384442Y471029D01*
X384392Y470969D01*
X384362Y470919D01*
X384352Y470909D01*
X384253Y470799D01*
X384143Y470699D01*
X384033Y470619D01*
X383933Y470549D01*
X383843Y470490D01*
X383773Y470450D01*
X383734Y470430D01*
X383714Y470420D01*
X383564Y470360D01*
X383414Y470320D01*
X383264Y470290D01*
X383125Y470270D01*
X383015Y470260D01*
X382915Y470250D01*
X382835D01*
X382655Y470260D01*
X382496Y470280D01*
X382346Y470300D01*
X382216Y470340D01*
X382117Y470370D01*
X382037Y470390D01*
X381987Y470410D01*
X381967Y470420D01*
X381827Y470490D01*
X381707Y470569D01*
X381597Y470649D01*
X381508Y470729D01*
X381428Y470799D01*
X381378Y470859D01*
X381338Y470899D01*
X381328Y470909D01*
X381238Y471029D01*
X381158Y471158D01*
X381088Y471288D01*
X381038Y471408D01*
X380989Y471508D01*
X380959Y471588D01*
X380949Y471637D01*
X380939Y471657D01*
X380889Y471827D01*
X380859Y471987D01*
X380829Y472147D01*
X380819Y472296D01*
X380809Y472416D01*
X380799Y472516D01*
Y472546D01*
Y472576D01*
Y472586D01*
Y472596D01*
X380809Y472785D01*
X380819Y472955D01*
X380839Y473115D01*
X380869Y473255D01*
X380899Y473374D01*
X380919Y473464D01*
X380929Y473514D01*
X380939Y473534D01*
X380989Y473694D01*
X381058Y473834D01*
X381118Y473953D01*
X381178Y474063D01*
X381238Y474153D01*
X381288Y474223D01*
X381318Y474263D01*
X381328Y474273D01*
X381428Y474383D01*
X381538Y474482D01*
X381647Y474572D01*
X381747Y474642D01*
X381837Y474702D01*
X381907Y474742D01*
X381947Y474762D01*
X381967Y474772D01*
X382117Y474832D01*
X382266Y474872D01*
X382406Y474912D01*
X382546Y474932D01*
X382655Y474942D01*
X382755Y474952D01*
X382835D01*
X383015Y474942D01*
D02*
G37*
G36*
X378233D02*
X378393Y474922D01*
X378543Y474892D01*
X378673Y474862D01*
X378782Y474832D01*
X378862Y474802D01*
X378912Y474782D01*
X378932Y474772D01*
X379072Y474702D01*
X379192Y474622D01*
X379301Y474532D01*
X379391Y474452D01*
X379471Y474383D01*
X379521Y474323D01*
X379561Y474283D01*
X379571Y474273D01*
X379661Y474153D01*
X379741Y474023D01*
X379811Y473903D01*
X379860Y473784D01*
X379900Y473684D01*
X379940Y473604D01*
X379950Y473554D01*
X379960Y473544D01*
Y473534D01*
X380000Y473374D01*
X380030Y473205D01*
X380060Y473045D01*
X380070Y472905D01*
X380080Y472775D01*
X380090Y472686D01*
Y472646D01*
Y472616D01*
Y472606D01*
Y472596D01*
X380080Y472416D01*
X380070Y472236D01*
X380050Y472077D01*
X380020Y471937D01*
X380000Y471827D01*
X379980Y471737D01*
X379970Y471677D01*
X379960Y471667D01*
Y471657D01*
X379910Y471498D01*
X379841Y471358D01*
X379781Y471228D01*
X379721Y471118D01*
X379661Y471029D01*
X379611Y470969D01*
X379581Y470919D01*
X379571Y470909D01*
X379471Y470799D01*
X379361Y470699D01*
X379252Y470619D01*
X379152Y470549D01*
X379062Y470490D01*
X378992Y470450D01*
X378952Y470430D01*
X378932Y470420D01*
X378782Y470360D01*
X378633Y470320D01*
X378483Y470290D01*
X378343Y470270D01*
X378233Y470260D01*
X378134Y470250D01*
X378054D01*
X377874Y470260D01*
X377714Y470280D01*
X377565Y470300D01*
X377435Y470340D01*
X377335Y470370D01*
X377255Y470390D01*
X377205Y470410D01*
X377185Y470420D01*
X377046Y470490D01*
X376926Y470569D01*
X376816Y470649D01*
X376726Y470729D01*
X376646Y470799D01*
X376596Y470859D01*
X376556Y470899D01*
X376546Y470909D01*
X376457Y471029D01*
X376377Y471158D01*
X376307Y471288D01*
X376257Y471408D01*
X376207Y471508D01*
X376177Y471588D01*
X376167Y471637D01*
X376157Y471657D01*
X376107Y471827D01*
X376077Y471987D01*
X376047Y472147D01*
X376037Y472296D01*
X376027Y472416D01*
X376017Y472516D01*
Y472546D01*
Y472576D01*
Y472586D01*
Y472596D01*
X376027Y472785D01*
X376037Y472955D01*
X376057Y473115D01*
X376087Y473255D01*
X376117Y473374D01*
X376137Y473464D01*
X376147Y473514D01*
X376157Y473534D01*
X376207Y473694D01*
X376277Y473834D01*
X376337Y473953D01*
X376397Y474063D01*
X376457Y474153D01*
X376507Y474223D01*
X376536Y474263D01*
X376546Y474273D01*
X376646Y474383D01*
X376756Y474482D01*
X376866Y474572D01*
X376966Y474642D01*
X377056Y474702D01*
X377125Y474742D01*
X377165Y474762D01*
X377185Y474772D01*
X377335Y474832D01*
X377485Y474872D01*
X377625Y474912D01*
X377764Y474932D01*
X377874Y474942D01*
X377974Y474952D01*
X378054D01*
X378233Y474942D01*
D02*
G37*
G36*
X356352Y474802D02*
X356442Y474832D01*
X356542Y474852D01*
X356582D01*
X356612Y474862D01*
X356642D01*
X356772Y474882D01*
X356881Y474892D01*
X356991D01*
X357181Y474882D01*
X357351Y474862D01*
X357510Y474842D01*
X357640Y474812D01*
X357760Y474772D01*
X357840Y474752D01*
X357890Y474732D01*
X357910Y474722D01*
X358049Y474652D01*
X358179Y474572D01*
X358289Y474492D01*
X358389Y474422D01*
X358459Y474353D01*
X358519Y474293D01*
X358559Y474253D01*
X358568Y474243D01*
X358658Y474123D01*
X358748Y474003D01*
X358808Y473884D01*
X358868Y473764D01*
X358908Y473664D01*
X358948Y473584D01*
X358958Y473534D01*
X358968Y473524D01*
Y473514D01*
X359008Y473354D01*
X359038Y473185D01*
X359068Y473025D01*
X359078Y472875D01*
X359087Y472756D01*
X359098Y472656D01*
Y472616D01*
Y472586D01*
Y472576D01*
Y472566D01*
X359087Y472366D01*
X359078Y472177D01*
X359048Y471997D01*
X359008Y471837D01*
X358968Y471687D01*
X358918Y471548D01*
X358868Y471418D01*
X358808Y471298D01*
X358758Y471198D01*
X358708Y471108D01*
X358658Y471039D01*
X358618Y470969D01*
X358578Y470919D01*
X358549Y470889D01*
X358539Y470869D01*
X358529Y470859D01*
X358419Y470749D01*
X358289Y470659D01*
X358159Y470579D01*
X358019Y470509D01*
X357880Y470450D01*
X357740Y470400D01*
X357470Y470330D01*
X357351Y470300D01*
X357231Y470280D01*
X357121Y470270D01*
X357031Y470260D01*
X356961Y470250D01*
X356662D01*
X356482Y470270D01*
X356323Y470280D01*
X356173Y470300D01*
X356063Y470320D01*
X355973Y470330D01*
X355913Y470350D01*
X355893D01*
X355733Y470390D01*
X355604Y470420D01*
X355484Y470460D01*
X355384Y470490D01*
X355304Y470519D01*
X355254Y470549D01*
X355215Y470559D01*
X355205Y470569D01*
Y476908D01*
X356352D01*
Y474802D01*
D02*
G37*
G36*
X374485Y468623D02*
X374645Y468603D01*
X374785Y468593D01*
X374914Y468573D01*
X375004Y468553D01*
X375064Y468543D01*
X375084D01*
X375254Y468513D01*
X375413Y468473D01*
X375563Y468433D01*
X375683Y468393D01*
X375783Y468363D01*
X375863Y468333D01*
X375913Y468313D01*
X375933Y468303D01*
X375603Y467415D01*
X375373Y467495D01*
X375264Y467525D01*
X375164Y467555D01*
X375084Y467575D01*
X375014Y467595D01*
X374974Y467605D01*
X374954D01*
X374705Y467655D01*
X374585Y467664D01*
X374485Y467674D01*
X374405Y467685D01*
X374286D01*
X374116Y467674D01*
X373976Y467655D01*
X373856Y467625D01*
X373746Y467595D01*
X373667Y467555D01*
X373617Y467525D01*
X373577Y467505D01*
X373567Y467495D01*
X373487Y467425D01*
X373427Y467335D01*
X373377Y467255D01*
X373347Y467175D01*
X373327Y467096D01*
X373317Y467036D01*
Y466996D01*
Y466986D01*
Y466916D01*
X373337Y466846D01*
X373377Y466726D01*
X373397Y466676D01*
X373417Y466646D01*
X373427Y466626D01*
X373437Y466616D01*
X373537Y466507D01*
X373637Y466417D01*
X373686Y466377D01*
X373727Y466347D01*
X373746Y466337D01*
X373756Y466327D01*
X373926Y466237D01*
X374086Y466177D01*
X374156Y466147D01*
X374216Y466127D01*
X374255Y466117D01*
X374266D01*
X374495Y466067D01*
X374605Y466047D01*
X374715Y466037D01*
X374804Y466027D01*
X374874Y466017D01*
X374934D01*
Y465179D01*
X374705D01*
X374575Y465169D01*
X374465Y465159D01*
X374365Y465149D01*
X374286Y465129D01*
X374216Y465119D01*
X374176Y465109D01*
X374166D01*
X374056Y465089D01*
X373946Y465059D01*
X373856Y465029D01*
X373776Y464999D01*
X373717Y464969D01*
X373667Y464949D01*
X373637Y464939D01*
X373627Y464929D01*
X373547Y464889D01*
X373477Y464840D01*
X373407Y464790D01*
X373357Y464740D01*
X373317Y464700D01*
X373287Y464670D01*
X373277Y464650D01*
X373267Y464640D01*
X373227Y464570D01*
X373187Y464500D01*
X373158Y464360D01*
X373148Y464310D01*
X373138Y464261D01*
Y464231D01*
Y464221D01*
X373148Y464081D01*
X373187Y463951D01*
X373237Y463841D01*
X373287Y463751D01*
X373347Y463682D01*
X373397Y463622D01*
X373437Y463592D01*
X373447Y463582D01*
X373567Y463502D01*
X373707Y463442D01*
X373846Y463402D01*
X373986Y463372D01*
X374106Y463352D01*
X374206Y463342D01*
X374445D01*
X374585Y463352D01*
X374715Y463362D01*
X374835Y463372D01*
X374934Y463382D01*
X375004Y463392D01*
X375054Y463402D01*
X375074D01*
X375214Y463432D01*
X375334Y463462D01*
X375443Y463492D01*
X375543Y463522D01*
X375613Y463552D01*
X375673Y463572D01*
X375713Y463592D01*
X375723D01*
X376082Y462703D01*
X375942Y462654D01*
X375793Y462604D01*
X375653Y462564D01*
X375523Y462534D01*
X375404Y462504D01*
X375314Y462494D01*
X375254Y462474D01*
X375234D01*
X375054Y462444D01*
X374884Y462424D01*
X374715Y462404D01*
X374575Y462394D01*
X374455D01*
X374355Y462384D01*
X374276D01*
X374076Y462394D01*
X373886Y462404D01*
X373727Y462424D01*
X373577Y462454D01*
X373457Y462474D01*
X373377Y462494D01*
X373317Y462504D01*
X373297Y462514D01*
X373148Y462564D01*
X373008Y462623D01*
X372878Y462683D01*
X372778Y462743D01*
X372688Y462803D01*
X372628Y462843D01*
X372589Y462873D01*
X372579Y462883D01*
X372469Y462973D01*
X372379Y463073D01*
X372299Y463173D01*
X372239Y463262D01*
X372189Y463342D01*
X372149Y463402D01*
X372129Y463452D01*
X372119Y463462D01*
X372069Y463592D01*
X372029Y463722D01*
X372000Y463851D01*
X371980Y463971D01*
X371970Y464071D01*
X371960Y464151D01*
Y464201D01*
Y464221D01*
Y464330D01*
X371980Y464440D01*
X371990Y464530D01*
X372010Y464620D01*
X372029Y464680D01*
X372049Y464740D01*
X372059Y464770D01*
X372069Y464780D01*
X372159Y464949D01*
X372199Y465029D01*
X372249Y465089D01*
X372289Y465139D01*
X372319Y465179D01*
X372339Y465199D01*
X372349Y465209D01*
X372479Y465339D01*
X372608Y465438D01*
X372658Y465468D01*
X372698Y465498D01*
X372728Y465508D01*
X372738Y465518D01*
X372898Y465608D01*
X372978Y465638D01*
X373048Y465668D01*
X373108Y465688D01*
X373158Y465708D01*
X373187Y465718D01*
X373197D01*
Y465738D01*
X373058Y465808D01*
X372928Y465878D01*
X372888Y465898D01*
X372848Y465928D01*
X372828Y465938D01*
X372818Y465948D01*
X372688Y466057D01*
X372579Y466157D01*
X372539Y466197D01*
X372509Y466227D01*
X372489Y466247D01*
X372479Y466257D01*
X372379Y466387D01*
X372309Y466507D01*
X372279Y466557D01*
X372259Y466596D01*
X372249Y466626D01*
Y466636D01*
X372199Y466796D01*
X372179Y466936D01*
X372169Y466996D01*
Y467036D01*
Y467066D01*
Y467076D01*
X372179Y467205D01*
X372189Y467325D01*
X372249Y467555D01*
X372319Y467744D01*
X372409Y467904D01*
X372499Y468034D01*
X372579Y468124D01*
X372638Y468184D01*
X372648Y468204D01*
X372658D01*
X372758Y468283D01*
X372858Y468343D01*
X373098Y468453D01*
X373337Y468533D01*
X373577Y468583D01*
X373686Y468593D01*
X373786Y468613D01*
X373886Y468623D01*
X373966D01*
X374036Y468633D01*
X374305D01*
X374485Y468623D01*
D02*
G37*
G36*
X362526D02*
X362676Y468603D01*
X362806Y468593D01*
X362926Y468573D01*
X363006Y468553D01*
X363065Y468543D01*
X363085D01*
X363245Y468513D01*
X363395Y468473D01*
X363535Y468433D01*
X363654Y468393D01*
X363764Y468363D01*
X363834Y468333D01*
X363884Y468313D01*
X363904Y468303D01*
X363575Y467415D01*
X363355Y467495D01*
X363245Y467525D01*
X363155Y467555D01*
X363065Y467575D01*
X363006Y467595D01*
X362956Y467605D01*
X362946D01*
X362696Y467645D01*
X362586Y467655D01*
X362496Y467664D01*
X362417Y467674D01*
X362297D01*
X362097Y467664D01*
X361927Y467635D01*
X361778Y467595D01*
X361658Y467545D01*
X361558Y467495D01*
X361498Y467455D01*
X361448Y467425D01*
X361438Y467415D01*
X361339Y467315D01*
X361269Y467205D01*
X361209Y467096D01*
X361179Y466986D01*
X361159Y466896D01*
X361139Y466816D01*
Y466766D01*
Y466746D01*
X361149Y466636D01*
X361159Y466537D01*
X361189Y466447D01*
X361209Y466367D01*
X361239Y466297D01*
X361269Y466247D01*
X361279Y466207D01*
X361289Y466197D01*
X361398Y466017D01*
X361458Y465938D01*
X361508Y465858D01*
X361548Y465798D01*
X361588Y465748D01*
X361608Y465718D01*
X361618Y465708D01*
X364203Y462484D01*
X359821D01*
Y463422D01*
X362277D01*
X360700Y465199D01*
X360600Y465319D01*
X360510Y465419D01*
X360480Y465468D01*
X360450Y465498D01*
X360440Y465518D01*
X360430Y465528D01*
X360330Y465668D01*
X360251Y465788D01*
X360220Y465838D01*
X360201Y465878D01*
X360181Y465898D01*
Y465908D01*
X360111Y466067D01*
X360051Y466197D01*
X360031Y466257D01*
X360021Y466297D01*
X360011Y466327D01*
Y466337D01*
X359971Y466507D01*
X359961Y466586D01*
X359951Y466656D01*
X359941Y466716D01*
Y466766D01*
Y466796D01*
Y466806D01*
X359951Y466966D01*
X359961Y467105D01*
X359991Y467245D01*
X360031Y467375D01*
X360121Y467605D01*
X360230Y467794D01*
X360280Y467874D01*
X360340Y467944D01*
X360390Y468004D01*
X360430Y468054D01*
X360470Y468094D01*
X360490Y468124D01*
X360510Y468134D01*
X360520Y468144D01*
X360630Y468233D01*
X360760Y468303D01*
X360889Y468373D01*
X361019Y468423D01*
X361299Y468513D01*
X361568Y468573D01*
X361698Y468593D01*
X361818Y468603D01*
X361917Y468623D01*
X362017D01*
X362087Y468633D01*
X362367D01*
X362526Y468623D01*
D02*
G37*
G36*
X352524D02*
X352674Y468603D01*
X352804Y468593D01*
X352924Y468573D01*
X353003Y468553D01*
X353063Y468543D01*
X353083D01*
X353243Y468513D01*
X353393Y468473D01*
X353532Y468433D01*
X353652Y468393D01*
X353762Y468363D01*
X353832Y468333D01*
X353882Y468313D01*
X353902Y468303D01*
X353572Y467415D01*
X353353Y467495D01*
X353243Y467525D01*
X353153Y467555D01*
X353063Y467575D01*
X353003Y467595D01*
X352953Y467605D01*
X352943D01*
X352694Y467645D01*
X352584Y467655D01*
X352494Y467664D01*
X352415Y467674D01*
X352295D01*
X352095Y467664D01*
X351925Y467635D01*
X351776Y467595D01*
X351656Y467545D01*
X351556Y467495D01*
X351496Y467455D01*
X351446Y467425D01*
X351436Y467415D01*
X351336Y467315D01*
X351267Y467205D01*
X351207Y467096D01*
X351177Y466986D01*
X351157Y466896D01*
X351137Y466816D01*
Y466766D01*
Y466746D01*
X351147Y466636D01*
X351157Y466537D01*
X351187Y466447D01*
X351207Y466367D01*
X351237Y466297D01*
X351267Y466247D01*
X351277Y466207D01*
X351287Y466197D01*
X351396Y466017D01*
X351456Y465938D01*
X351506Y465858D01*
X351546Y465798D01*
X351586Y465748D01*
X351606Y465718D01*
X351616Y465708D01*
X354201Y462484D01*
X349819D01*
Y463422D01*
X352275D01*
X350698Y465199D01*
X350598Y465319D01*
X350508Y465419D01*
X350478Y465468D01*
X350448Y465498D01*
X350438Y465518D01*
X350428Y465528D01*
X350328Y465668D01*
X350248Y465788D01*
X350218Y465838D01*
X350198Y465878D01*
X350178Y465898D01*
Y465908D01*
X350109Y466067D01*
X350049Y466197D01*
X350029Y466257D01*
X350019Y466297D01*
X350009Y466327D01*
Y466337D01*
X349969Y466507D01*
X349959Y466586D01*
X349949Y466656D01*
X349939Y466716D01*
Y466766D01*
Y466796D01*
Y466806D01*
X349949Y466966D01*
X349959Y467105D01*
X349989Y467245D01*
X350029Y467375D01*
X350119Y467605D01*
X350228Y467794D01*
X350278Y467874D01*
X350338Y467944D01*
X350388Y468004D01*
X350428Y468054D01*
X350468Y468094D01*
X350488Y468124D01*
X350508Y468134D01*
X350518Y468144D01*
X350628Y468233D01*
X350757Y468303D01*
X350887Y468373D01*
X351017Y468423D01*
X351297Y468513D01*
X351566Y468573D01*
X351696Y468593D01*
X351815Y468603D01*
X351915Y468623D01*
X352015D01*
X352085Y468633D01*
X352365D01*
X352524Y468623D01*
D02*
G37*
G36*
X347403D02*
X347563Y468603D01*
X347703Y468593D01*
X347833Y468573D01*
X347923Y468553D01*
X347982Y468543D01*
X348002D01*
X348172Y468513D01*
X348332Y468473D01*
X348481Y468433D01*
X348601Y468393D01*
X348701Y468363D01*
X348781Y468333D01*
X348831Y468313D01*
X348851Y468303D01*
X348521Y467415D01*
X348292Y467495D01*
X348182Y467525D01*
X348082Y467555D01*
X348002Y467575D01*
X347933Y467595D01*
X347892Y467605D01*
X347873D01*
X347623Y467655D01*
X347503Y467664D01*
X347403Y467674D01*
X347323Y467685D01*
X347204D01*
X347034Y467674D01*
X346894Y467655D01*
X346774Y467625D01*
X346665Y467595D01*
X346585Y467555D01*
X346535Y467525D01*
X346495Y467505D01*
X346485Y467495D01*
X346405Y467425D01*
X346345Y467335D01*
X346295Y467255D01*
X346265Y467175D01*
X346245Y467096D01*
X346236Y467036D01*
Y466996D01*
Y466986D01*
Y466916D01*
X346255Y466846D01*
X346295Y466726D01*
X346315Y466676D01*
X346335Y466646D01*
X346345Y466626D01*
X346355Y466616D01*
X346455Y466507D01*
X346555Y466417D01*
X346605Y466377D01*
X346645Y466347D01*
X346665Y466337D01*
X346675Y466327D01*
X346844Y466237D01*
X347004Y466177D01*
X347074Y466147D01*
X347134Y466127D01*
X347174Y466117D01*
X347184D01*
X347413Y466067D01*
X347523Y466047D01*
X347633Y466037D01*
X347723Y466027D01*
X347793Y466017D01*
X347853D01*
Y465179D01*
X347623D01*
X347493Y465169D01*
X347383Y465159D01*
X347284Y465149D01*
X347204Y465129D01*
X347134Y465119D01*
X347094Y465109D01*
X347084D01*
X346974Y465089D01*
X346864Y465059D01*
X346774Y465029D01*
X346695Y464999D01*
X346635Y464969D01*
X346585Y464949D01*
X346555Y464939D01*
X346545Y464929D01*
X346465Y464889D01*
X346395Y464840D01*
X346325Y464790D01*
X346275Y464740D01*
X346236Y464700D01*
X346205Y464670D01*
X346195Y464650D01*
X346186Y464640D01*
X346146Y464570D01*
X346106Y464500D01*
X346076Y464360D01*
X346066Y464310D01*
X346056Y464261D01*
Y464231D01*
Y464221D01*
X346066Y464081D01*
X346106Y463951D01*
X346156Y463841D01*
X346205Y463751D01*
X346265Y463682D01*
X346315Y463622D01*
X346355Y463592D01*
X346365Y463582D01*
X346485Y463502D01*
X346625Y463442D01*
X346764Y463402D01*
X346904Y463372D01*
X347024Y463352D01*
X347124Y463342D01*
X347364D01*
X347503Y463352D01*
X347633Y463362D01*
X347753Y463372D01*
X347853Y463382D01*
X347923Y463392D01*
X347972Y463402D01*
X347992D01*
X348132Y463432D01*
X348252Y463462D01*
X348362Y463492D01*
X348461Y463522D01*
X348531Y463552D01*
X348591Y463572D01*
X348631Y463592D01*
X348641D01*
X349001Y462703D01*
X348861Y462654D01*
X348711Y462604D01*
X348571Y462564D01*
X348442Y462534D01*
X348322Y462504D01*
X348232Y462494D01*
X348172Y462474D01*
X348152D01*
X347972Y462444D01*
X347803Y462424D01*
X347633Y462404D01*
X347493Y462394D01*
X347373D01*
X347274Y462384D01*
X347194D01*
X346994Y462394D01*
X346805Y462404D01*
X346645Y462424D01*
X346495Y462454D01*
X346375Y462474D01*
X346295Y462494D01*
X346236Y462504D01*
X346216Y462514D01*
X346066Y462564D01*
X345926Y462623D01*
X345796Y462683D01*
X345696Y462743D01*
X345607Y462803D01*
X345547Y462843D01*
X345507Y462873D01*
X345497Y462883D01*
X345387Y462973D01*
X345297Y463073D01*
X345217Y463173D01*
X345157Y463262D01*
X345107Y463342D01*
X345068Y463402D01*
X345048Y463452D01*
X345038Y463462D01*
X344988Y463592D01*
X344948Y463722D01*
X344918Y463851D01*
X344898Y463971D01*
X344888Y464071D01*
X344878Y464151D01*
Y464201D01*
Y464221D01*
Y464330D01*
X344898Y464440D01*
X344908Y464530D01*
X344928Y464620D01*
X344948Y464680D01*
X344968Y464740D01*
X344978Y464770D01*
X344988Y464780D01*
X345078Y464949D01*
X345117Y465029D01*
X345167Y465089D01*
X345207Y465139D01*
X345237Y465179D01*
X345257Y465199D01*
X345267Y465209D01*
X345397Y465339D01*
X345527Y465438D01*
X345577Y465468D01*
X345617Y465498D01*
X345647Y465508D01*
X345657Y465518D01*
X345816Y465608D01*
X345896Y465638D01*
X345966Y465668D01*
X346026Y465688D01*
X346076Y465708D01*
X346106Y465718D01*
X346116D01*
Y465738D01*
X345976Y465808D01*
X345846Y465878D01*
X345806Y465898D01*
X345766Y465928D01*
X345746Y465938D01*
X345736Y465948D01*
X345607Y466057D01*
X345497Y466157D01*
X345457Y466197D01*
X345427Y466227D01*
X345407Y466247D01*
X345397Y466257D01*
X345297Y466387D01*
X345227Y466507D01*
X345197Y466557D01*
X345177Y466596D01*
X345167Y466626D01*
Y466636D01*
X345117Y466796D01*
X345098Y466936D01*
X345088Y466996D01*
Y467036D01*
Y467066D01*
Y467076D01*
X345098Y467205D01*
X345107Y467325D01*
X345167Y467555D01*
X345237Y467744D01*
X345327Y467904D01*
X345417Y468034D01*
X345497Y468124D01*
X345557Y468184D01*
X345567Y468204D01*
X345577D01*
X345676Y468283D01*
X345776Y468343D01*
X346016Y468453D01*
X346255Y468533D01*
X346495Y468583D01*
X346605Y468593D01*
X346705Y468613D01*
X346805Y468623D01*
X346884D01*
X346954Y468633D01*
X347224D01*
X347403Y468623D01*
D02*
G37*
G36*
X388780Y467066D02*
X388939Y467056D01*
X389079Y467036D01*
X389199Y467016D01*
X389289Y466996D01*
X389349Y466986D01*
X389359Y466976D01*
X389369D01*
X389528Y466936D01*
X389668Y466896D01*
X389798Y466866D01*
X389898Y466826D01*
X389987Y466796D01*
X390047Y466776D01*
X390087Y466766D01*
X390097Y466756D01*
X389818Y465988D01*
X389728Y466027D01*
X389638Y466047D01*
X389568Y466067D01*
X389558Y466077D01*
X389548D01*
X389428Y466117D01*
X389329Y466137D01*
X389289Y466157D01*
X389259D01*
X389239Y466167D01*
X389229D01*
X389099Y466197D01*
X388999Y466217D01*
X388949D01*
X388919Y466227D01*
X388889D01*
X388760Y466247D01*
X388650Y466257D01*
X388550D01*
X388410Y466247D01*
X388290Y466237D01*
X388191Y466207D01*
X388101Y466187D01*
X388031Y466157D01*
X387981Y466127D01*
X387951Y466117D01*
X387941Y466107D01*
X387861Y466047D01*
X387811Y465968D01*
X387771Y465888D01*
X387742Y465808D01*
X387721Y465728D01*
X387711Y465668D01*
Y465628D01*
Y465608D01*
Y465379D01*
X387901Y465369D01*
X388081Y465349D01*
X388251Y465329D01*
X388400Y465309D01*
X388520Y465299D01*
X388620Y465279D01*
X388680Y465269D01*
X388700D01*
X388870Y465239D01*
X389029Y465199D01*
X389169Y465159D01*
X389299Y465119D01*
X389398Y465089D01*
X389468Y465059D01*
X389518Y465039D01*
X389538Y465029D01*
X389668Y464969D01*
X389788Y464889D01*
X389888Y464820D01*
X389967Y464750D01*
X390037Y464680D01*
X390087Y464630D01*
X390117Y464590D01*
X390127Y464580D01*
X390197Y464460D01*
X390257Y464341D01*
X390297Y464221D01*
X390317Y464101D01*
X390337Y463991D01*
X390347Y463911D01*
Y463851D01*
Y463841D01*
Y463831D01*
X390337Y463702D01*
X390327Y463592D01*
X390267Y463372D01*
X390187Y463192D01*
X390097Y463043D01*
X390007Y462923D01*
X389928Y462833D01*
X389868Y462783D01*
X389858Y462763D01*
X389848D01*
X389748Y462693D01*
X389638Y462634D01*
X389398Y462544D01*
X389139Y462474D01*
X388889Y462434D01*
X388780Y462414D01*
X388670Y462404D01*
X388570Y462394D01*
X388490D01*
X388420Y462384D01*
X388131D01*
X387951Y462404D01*
X387791Y462414D01*
X387642Y462434D01*
X387522Y462454D01*
X387432Y462464D01*
X387372Y462484D01*
X387352D01*
X387183Y462524D01*
X387043Y462554D01*
X386923Y462594D01*
X386813Y462623D01*
X386733Y462654D01*
X386683Y462683D01*
X386643Y462693D01*
X386633Y462703D01*
Y465478D01*
Y465638D01*
X386653Y465778D01*
X386673Y465908D01*
X386703Y466037D01*
X386743Y466147D01*
X386783Y466247D01*
X386823Y466337D01*
X386863Y466417D01*
X386913Y466487D01*
X386953Y466547D01*
X387033Y466636D01*
X387083Y466686D01*
X387093Y466706D01*
X387103D01*
X387292Y466836D01*
X387512Y466926D01*
X387732Y466996D01*
X387941Y467036D01*
X388131Y467066D01*
X388221Y467076D01*
X388290D01*
X388350Y467086D01*
X388610D01*
X388780Y467066D01*
D02*
G37*
G36*
X370672Y465259D02*
X370482Y465289D01*
X370402D01*
X370332Y465299D01*
X370273Y465309D01*
X370193D01*
X370033Y465319D01*
X369953Y465329D01*
X369604D01*
X369464Y465319D01*
X369334Y465309D01*
X369215Y465289D01*
X369125Y465279D01*
X369065Y465259D01*
X369015Y465249D01*
X369005D01*
X368895Y465219D01*
X368785Y465179D01*
X368695Y465149D01*
X368626Y465109D01*
X368566Y465079D01*
X368526Y465049D01*
X368496Y465039D01*
X368486Y465029D01*
X368416Y464979D01*
X368356Y464919D01*
X368266Y464810D01*
X368236Y464770D01*
X368216Y464730D01*
X368196Y464710D01*
Y464700D01*
X368136Y464550D01*
X368106Y464410D01*
X368097Y464360D01*
Y464310D01*
Y464281D01*
Y464271D01*
X368106Y464111D01*
X368146Y463981D01*
X368206Y463861D01*
X368266Y463761D01*
X368326Y463682D01*
X368386Y463632D01*
X368426Y463592D01*
X368436Y463582D01*
X368566Y463502D01*
X368715Y463442D01*
X368865Y463402D01*
X369005Y463372D01*
X369135Y463352D01*
X369244Y463342D01*
X369334D01*
X369594Y463352D01*
X369714Y463362D01*
X369833Y463372D01*
X369923Y463382D01*
X369993Y463392D01*
X370043Y463402D01*
X370063D01*
X370193Y463432D01*
X370312Y463462D01*
X370422Y463492D01*
X370512Y463522D01*
X370592Y463552D01*
X370642Y463572D01*
X370682Y463592D01*
X370692D01*
X371051Y462703D01*
X370772Y462614D01*
X370632Y462574D01*
X370502Y462534D01*
X370392Y462514D01*
X370312Y462494D01*
X370253Y462474D01*
X370233D01*
X370063Y462444D01*
X369893Y462424D01*
X369734Y462404D01*
X369594Y462394D01*
X369474D01*
X369384Y462384D01*
X369304D01*
X369115Y462394D01*
X368945Y462404D01*
X368775Y462424D01*
X368635Y462444D01*
X368526Y462464D01*
X368436Y462484D01*
X368376Y462504D01*
X368356D01*
X368196Y462554D01*
X368057Y462614D01*
X367927Y462673D01*
X367807Y462733D01*
X367717Y462783D01*
X367657Y462823D01*
X367607Y462853D01*
X367597Y462863D01*
X367488Y462963D01*
X367388Y463063D01*
X367298Y463163D01*
X367228Y463252D01*
X367168Y463332D01*
X367128Y463402D01*
X367108Y463442D01*
X367098Y463462D01*
X367038Y463602D01*
X366998Y463741D01*
X366959Y463881D01*
X366939Y464021D01*
X366929Y464131D01*
X366919Y464221D01*
Y464281D01*
Y464291D01*
Y464300D01*
X366929Y464460D01*
X366949Y464610D01*
X366978Y464750D01*
X367008Y464889D01*
X367058Y465009D01*
X367108Y465119D01*
X367158Y465219D01*
X367218Y465319D01*
X367278Y465399D01*
X367328Y465468D01*
X367378Y465528D01*
X367428Y465578D01*
X367458Y465618D01*
X367488Y465648D01*
X367508Y465658D01*
X367518Y465668D01*
X367637Y465758D01*
X367767Y465838D01*
X367897Y465898D01*
X368047Y465958D01*
X368346Y466047D01*
X368635Y466107D01*
X368765Y466127D01*
X368895Y466137D01*
X369005Y466157D01*
X369105D01*
X369194Y466167D01*
X369474D01*
X369304Y467585D01*
X367048D01*
Y468523D01*
X370303D01*
X370672Y465259D01*
D02*
G37*
G36*
X392243Y467076D02*
X392383Y467066D01*
X392513Y467036D01*
X392633Y467016D01*
X392723Y466986D01*
X392802Y466956D01*
X392842Y466946D01*
X392862Y466936D01*
X392992Y466876D01*
X393112Y466806D01*
X393222Y466736D01*
X393312Y466666D01*
X393391Y466606D01*
X393451Y466557D01*
X393491Y466517D01*
X393501Y466507D01*
X393601Y466397D01*
X393691Y466267D01*
X393771Y466147D01*
X393831Y466037D01*
X393881Y465928D01*
X393920Y465848D01*
X393940Y465798D01*
X393950Y465788D01*
Y465778D01*
X394000Y465608D01*
X394040Y465429D01*
X394070Y465249D01*
X394090Y465089D01*
X394100Y464949D01*
X394110Y464830D01*
Y464790D01*
Y464760D01*
Y464740D01*
Y464730D01*
X394100Y464510D01*
X394080Y464310D01*
X394060Y464141D01*
X394030Y463991D01*
X394000Y463861D01*
X393970Y463772D01*
X393960Y463712D01*
X393950Y463702D01*
Y463692D01*
X393881Y463532D01*
X393811Y463392D01*
X393731Y463262D01*
X393661Y463163D01*
X393601Y463073D01*
X393551Y463003D01*
X393511Y462963D01*
X393501Y462953D01*
X393391Y462853D01*
X393282Y462763D01*
X393172Y462693D01*
X393072Y462634D01*
X392992Y462584D01*
X392922Y462554D01*
X392882Y462534D01*
X392862Y462524D01*
X392723Y462474D01*
X392583Y462444D01*
X392463Y462414D01*
X392343Y462404D01*
X392243Y462394D01*
X392174Y462384D01*
X392104D01*
X391854Y462394D01*
X391624Y462434D01*
X391425Y462484D01*
X391245Y462534D01*
X391105Y462594D01*
X391046Y462614D01*
X390996Y462634D01*
X390956Y462654D01*
X390926Y462673D01*
X390916Y462683D01*
X390906D01*
X391265Y463542D01*
X391375Y463472D01*
X391485Y463422D01*
X391595Y463392D01*
X391704Y463372D01*
X391794Y463352D01*
X391864Y463342D01*
X391934D01*
X392074Y463352D01*
X392203Y463382D01*
X392253Y463402D01*
X392293Y463412D01*
X392313Y463422D01*
X392323D01*
X392453Y463502D01*
X392553Y463582D01*
X392593Y463622D01*
X392613Y463652D01*
X392633Y463672D01*
X392643Y463682D01*
X392733Y463831D01*
X392793Y463971D01*
X392822Y464031D01*
X392842Y464081D01*
X392852Y464111D01*
Y464121D01*
X392902Y464330D01*
X392912Y464440D01*
X392922Y464530D01*
X392932Y464620D01*
Y464680D01*
Y464720D01*
Y464740D01*
X392922Y464989D01*
X392882Y465209D01*
X392842Y465389D01*
X392783Y465538D01*
X392733Y465648D01*
X392683Y465728D01*
X392653Y465778D01*
X392643Y465798D01*
X392533Y465918D01*
X392413Y465998D01*
X392293Y466057D01*
X392183Y466107D01*
X392084Y466127D01*
X392004Y466137D01*
X391954Y466147D01*
X391934D01*
X391794Y466137D01*
X391665Y466117D01*
X391545Y466087D01*
X391445Y466057D01*
X391375Y466017D01*
X391315Y465988D01*
X391275Y465968D01*
X391265Y465958D01*
X390906Y466776D01*
X391105Y466876D01*
X391305Y466956D01*
X391505Y467006D01*
X391694Y467046D01*
X391854Y467066D01*
X391924Y467076D01*
X391984Y467086D01*
X392104D01*
X392243Y467076D01*
D02*
G37*
G36*
X381073Y464790D02*
Y463971D01*
X378368D01*
Y462484D01*
X377310D01*
Y463971D01*
X376711D01*
Y464790D01*
X377310D01*
Y468523D01*
X378558D01*
X381073Y464790D01*
D02*
G37*
G36*
X383030Y466936D02*
X383120Y466966D01*
X383219Y466986D01*
X383260D01*
X383289Y466996D01*
X383319D01*
X383449Y467016D01*
X383559Y467026D01*
X383669D01*
X383858Y467016D01*
X384028Y466996D01*
X384188Y466976D01*
X384318Y466946D01*
X384437Y466906D01*
X384517Y466886D01*
X384567Y466866D01*
X384587Y466856D01*
X384727Y466786D01*
X384857Y466706D01*
X384966Y466626D01*
X385066Y466557D01*
X385136Y466487D01*
X385196Y466427D01*
X385236Y466387D01*
X385246Y466377D01*
X385336Y466257D01*
X385426Y466137D01*
X385485Y466017D01*
X385545Y465898D01*
X385585Y465798D01*
X385625Y465718D01*
X385635Y465668D01*
X385645Y465658D01*
Y465648D01*
X385685Y465488D01*
X385715Y465319D01*
X385745Y465159D01*
X385755Y465009D01*
X385765Y464889D01*
X385775Y464790D01*
Y464750D01*
Y464720D01*
Y464710D01*
Y464700D01*
X385765Y464500D01*
X385755Y464310D01*
X385725Y464131D01*
X385685Y463971D01*
X385645Y463821D01*
X385595Y463682D01*
X385545Y463552D01*
X385485Y463432D01*
X385436Y463332D01*
X385386Y463242D01*
X385336Y463173D01*
X385296Y463103D01*
X385256Y463053D01*
X385226Y463023D01*
X385216Y463003D01*
X385206Y462993D01*
X385096Y462883D01*
X384966Y462793D01*
X384837Y462713D01*
X384697Y462644D01*
X384557Y462584D01*
X384417Y462534D01*
X384148Y462464D01*
X384028Y462434D01*
X383908Y462414D01*
X383798Y462404D01*
X383709Y462394D01*
X383639Y462384D01*
X383339D01*
X383160Y462404D01*
X383000Y462414D01*
X382850Y462434D01*
X382740Y462454D01*
X382650Y462464D01*
X382591Y462484D01*
X382571D01*
X382411Y462524D01*
X382281Y462554D01*
X382161Y462594D01*
X382062Y462623D01*
X381982Y462654D01*
X381932Y462683D01*
X381892Y462693D01*
X381882Y462703D01*
Y469042D01*
X383030D01*
Y466936D01*
D02*
G37*
G36*
X356996Y468623D02*
X357176Y468593D01*
X357336Y468553D01*
X357475Y468513D01*
X357585Y468473D01*
X357675Y468433D01*
X357725Y468403D01*
X357745Y468393D01*
X357885Y468293D01*
X358014Y468184D01*
X358124Y468074D01*
X358214Y467974D01*
X358294Y467874D01*
X358344Y467794D01*
X358384Y467744D01*
X358394Y467734D01*
Y467724D01*
X358484Y467565D01*
X358554Y467395D01*
X358623Y467225D01*
X358673Y467076D01*
X358713Y466936D01*
X358743Y466836D01*
X358753Y466796D01*
Y466766D01*
X358763Y466746D01*
Y466736D01*
X358803Y466517D01*
X358833Y466307D01*
X358853Y466097D01*
X358863Y465908D01*
X358873Y465748D01*
X358883Y465678D01*
Y465618D01*
Y465568D01*
Y465538D01*
Y465518D01*
Y465508D01*
X358873Y465259D01*
X358863Y465029D01*
X358843Y464820D01*
X358823Y464640D01*
X358803Y464490D01*
X358793Y464420D01*
X358783Y464370D01*
X358773Y464330D01*
X358763Y464300D01*
Y464281D01*
Y464271D01*
X358713Y464061D01*
X358653Y463871D01*
X358593Y463702D01*
X358534Y463562D01*
X358484Y463442D01*
X358434Y463352D01*
X358404Y463292D01*
X358394Y463282D01*
Y463272D01*
X358294Y463123D01*
X358184Y462993D01*
X358074Y462883D01*
X357975Y462783D01*
X357885Y462713D01*
X357815Y462654D01*
X357765Y462623D01*
X357745Y462614D01*
X357585Y462534D01*
X357425Y462484D01*
X357266Y462444D01*
X357116Y462414D01*
X356986Y462394D01*
X356886Y462384D01*
X356797D01*
X356597Y462394D01*
X356417Y462424D01*
X356258Y462454D01*
X356118Y462504D01*
X356008Y462544D01*
X355918Y462574D01*
X355868Y462604D01*
X355848Y462614D01*
X355709Y462713D01*
X355579Y462813D01*
X355469Y462923D01*
X355369Y463033D01*
X355299Y463123D01*
X355239Y463203D01*
X355210Y463252D01*
X355200Y463272D01*
X355110Y463442D01*
X355040Y463612D01*
X354970Y463782D01*
X354920Y463931D01*
X354880Y464071D01*
X354850Y464171D01*
X354840Y464211D01*
Y464241D01*
X354830Y464261D01*
Y464271D01*
X354790Y464490D01*
X354760Y464700D01*
X354740Y464910D01*
X354720Y465099D01*
Y465269D01*
X354710Y465339D01*
Y465399D01*
Y465438D01*
Y465478D01*
Y465498D01*
Y465508D01*
Y465748D01*
X354730Y465978D01*
X354750Y466187D01*
X354770Y466367D01*
X354790Y466527D01*
X354800Y466586D01*
X354810Y466636D01*
X354820Y466676D01*
Y466706D01*
X354830Y466726D01*
Y466736D01*
X354880Y466946D01*
X354940Y467136D01*
X355000Y467295D01*
X355060Y467445D01*
X355110Y467565D01*
X355160Y467655D01*
X355190Y467705D01*
X355200Y467724D01*
X355299Y467874D01*
X355409Y468014D01*
X355519Y468124D01*
X355619Y468223D01*
X355709Y468293D01*
X355779Y468353D01*
X355828Y468383D01*
X355848Y468393D01*
X356008Y468473D01*
X356168Y468533D01*
X356328Y468573D01*
X356467Y468603D01*
X356597Y468623D01*
X356707Y468633D01*
X356797D01*
X356996Y468623D01*
D02*
G37*
G36*
X337541Y378492D02*
X337795Y378479D01*
X338023Y378441D01*
X338239Y378390D01*
X338442Y378339D01*
X338633Y378276D01*
X338798Y378200D01*
X338963Y378136D01*
X339090Y378073D01*
X339217Y377996D01*
X339319Y377933D01*
X339408Y377882D01*
X339471Y377831D01*
X339522Y377806D01*
X339547Y377780D01*
X339560Y377768D01*
X339712Y377628D01*
X339840Y377488D01*
X339954Y377336D01*
X340055Y377184D01*
X340132Y377044D01*
X340208Y376904D01*
X340309Y376625D01*
X340360Y376396D01*
X340386Y376295D01*
X340398Y376206D01*
X340411Y376142D01*
Y375901D01*
X340386Y375748D01*
X340322Y375482D01*
X340220Y375228D01*
X340119Y374999D01*
X340005Y374821D01*
X339954Y374745D01*
X339903Y374682D01*
X339865Y374631D01*
X339840Y374593D01*
X339827Y374567D01*
X339814Y374555D01*
X342405Y374986D01*
Y378123D01*
X343535D01*
Y374212D01*
X338569Y373437D01*
X338430Y374352D01*
X338582Y374440D01*
X338722Y374542D01*
X338836Y374631D01*
X338938Y374733D01*
X339014Y374821D01*
X339077Y374885D01*
X339103Y374936D01*
X339116Y374948D01*
X339204Y375101D01*
X339268Y375241D01*
X339306Y375380D01*
X339344Y375507D01*
X339357Y375621D01*
X339370Y375698D01*
Y375914D01*
X339344Y376041D01*
X339281Y376282D01*
X339192Y376485D01*
X339090Y376663D01*
X338976Y376803D01*
X338887Y376904D01*
X338824Y376968D01*
X338811Y376993D01*
X338798D01*
X338569Y377158D01*
X338303Y377272D01*
X338036Y377361D01*
X337782Y377412D01*
X337553Y377450D01*
X337452Y377463D01*
X337363D01*
X337299Y377476D01*
X337249D01*
X337211D01*
X337198D01*
X336804Y377450D01*
X336461Y377399D01*
X336157Y377311D01*
X336030Y377272D01*
X335915Y377222D01*
X335814Y377171D01*
X335712Y377133D01*
X335636Y377082D01*
X335572Y377044D01*
X335522Y377019D01*
X335483Y376993D01*
X335471Y376968D01*
X335458D01*
X335344Y376879D01*
X335255Y376777D01*
X335166Y376676D01*
X335102Y376574D01*
X334988Y376371D01*
X334912Y376193D01*
X334874Y376028D01*
X334848Y375901D01*
X334836Y375850D01*
Y375787D01*
X334861Y375583D01*
X334912Y375393D01*
X334975Y375228D01*
X335064Y375088D01*
X335140Y374974D01*
X335217Y374885D01*
X335267Y374834D01*
X335280Y374809D01*
X335471Y374669D01*
X335687Y374555D01*
X335902Y374466D01*
X336131Y374402D01*
X336322Y374352D01*
X336410Y374326D01*
X336487Y374313D01*
X336550Y374301D01*
X336601Y374288D01*
X336626D01*
X336639D01*
X336550Y373272D01*
X336322Y373297D01*
X336106Y373335D01*
X335902Y373374D01*
X335699Y373437D01*
X335534Y373501D01*
X335369Y373564D01*
X335217Y373628D01*
X335090Y373704D01*
X334963Y373767D01*
X334861Y373831D01*
X334772Y373894D01*
X334696Y373945D01*
X334645Y373996D01*
X334607Y374034D01*
X334582Y374047D01*
X334569Y374059D01*
X334442Y374199D01*
X334340Y374339D01*
X334239Y374478D01*
X334163Y374631D01*
X334036Y374923D01*
X333947Y375202D01*
X333896Y375431D01*
X333883Y375545D01*
X333871Y375634D01*
X333858Y375698D01*
Y375799D01*
X333871Y376028D01*
X333896Y376244D01*
X333947Y376434D01*
X334010Y376625D01*
X334086Y376803D01*
X334175Y376968D01*
X334264Y377107D01*
X334366Y377247D01*
X334455Y377361D01*
X334544Y377476D01*
X334632Y377565D01*
X334709Y377628D01*
X334772Y377692D01*
X334823Y377730D01*
X334848Y377755D01*
X334861Y377768D01*
X335052Y377895D01*
X335255Y378009D01*
X335458Y378111D01*
X335661Y378200D01*
X335864Y378263D01*
X336068Y378327D01*
X336449Y378415D01*
X336626Y378441D01*
X336779Y378466D01*
X336931Y378479D01*
X337046Y378492D01*
X337147Y378504D01*
X337223D01*
X337274D01*
X337287D01*
X337541Y378492D01*
D02*
G37*
G36*
X336639Y371291D02*
X336880Y371151D01*
X337122Y371011D01*
X337325Y370872D01*
X337503Y370757D01*
X337655Y370643D01*
X337769Y370554D01*
X337846Y370503D01*
X337871Y370478D01*
X337973Y370376D01*
X338061Y370275D01*
X338239Y370046D01*
X338303Y369957D01*
X338354Y369881D01*
X338392Y369830D01*
X338404Y369805D01*
X338493Y370186D01*
X338608Y370516D01*
X338747Y370808D01*
X338900Y371037D01*
X338963Y371138D01*
X339039Y371215D01*
X339090Y371291D01*
X339154Y371354D01*
X339192Y371392D01*
X339230Y371431D01*
X339243Y371456D01*
X339255D01*
X339395Y371558D01*
X339535Y371646D01*
X339827Y371786D01*
X340119Y371888D01*
X340398Y371951D01*
X340652Y372002D01*
X340754Y372015D01*
X340855D01*
X340932Y372027D01*
X340983D01*
X341021D01*
X341033D01*
X341338Y372015D01*
X341605Y371977D01*
X341859Y371913D01*
X342062Y371862D01*
X342240Y371799D01*
X342367Y371735D01*
X342418Y371723D01*
X342456Y371697D01*
X342468Y371684D01*
X342481D01*
X342697Y371558D01*
X342887Y371418D01*
X343040Y371265D01*
X343167Y371138D01*
X343269Y371011D01*
X343332Y370923D01*
X343370Y370859D01*
X343383Y370834D01*
X343434Y370732D01*
X343472Y370618D01*
X343548Y370364D01*
X343599Y370097D01*
X343624Y369830D01*
X343649Y369589D01*
Y369475D01*
X343662Y369386D01*
Y365715D01*
X334023D01*
Y366757D01*
X338303D01*
Y368154D01*
X338277Y368306D01*
X338252Y368446D01*
X338227Y368560D01*
X338201Y368662D01*
X338176Y368725D01*
X338163Y368764D01*
X338150Y368776D01*
X338087Y368890D01*
X338011Y368992D01*
X337922Y369094D01*
X337820Y369183D01*
X337744Y369259D01*
X337668Y369322D01*
X337617Y369360D01*
X337604Y369373D01*
X337515Y369437D01*
X337414Y369500D01*
X337185Y369652D01*
X336918Y369805D01*
X336665Y369957D01*
X336410Y370097D01*
X336309Y370148D01*
X336207Y370199D01*
X336131Y370237D01*
X336068Y370275D01*
X336030Y370288D01*
X336017Y370300D01*
X334023Y371354D01*
Y372675D01*
X336639Y371291D01*
D02*
G37*
G36*
X337344Y393141D02*
X343580D01*
Y392341D01*
X337344Y388747D01*
X336252D01*
Y392176D01*
X333940D01*
Y393141D01*
X336252D01*
Y394208D01*
X337344D01*
Y393141D01*
D02*
G37*
G36*
X336557Y387083D02*
X336798Y386944D01*
X337039Y386804D01*
X337242Y386664D01*
X337420Y386550D01*
X337573Y386436D01*
X337687Y386347D01*
X337763Y386296D01*
X337789Y386270D01*
X337890Y386169D01*
X337979Y386067D01*
X338157Y385839D01*
X338220Y385750D01*
X338271Y385674D01*
X338309Y385623D01*
X338322Y385597D01*
X338411Y385978D01*
X338525Y386309D01*
X338665Y386601D01*
X338817Y386829D01*
X338881Y386931D01*
X338957Y387007D01*
X339008Y387083D01*
X339071Y387147D01*
X339109Y387185D01*
X339147Y387223D01*
X339160Y387248D01*
X339173D01*
X339313Y387350D01*
X339452Y387439D01*
X339744Y387579D01*
X340036Y387680D01*
X340316Y387744D01*
X340570Y387794D01*
X340671Y387807D01*
X340773D01*
X340849Y387820D01*
X340900D01*
X340938D01*
X340951D01*
X341256Y387807D01*
X341522Y387769D01*
X341776Y387706D01*
X341979Y387655D01*
X342157Y387591D01*
X342284Y387528D01*
X342335Y387515D01*
X342373Y387490D01*
X342386Y387477D01*
X342399D01*
X342615Y387350D01*
X342805Y387210D01*
X342957Y387058D01*
X343084Y386931D01*
X343186Y386804D01*
X343250Y386715D01*
X343288Y386651D01*
X343300Y386626D01*
X343351Y386525D01*
X343389Y386410D01*
X343465Y386156D01*
X343516Y385890D01*
X343542Y385623D01*
X343567Y385382D01*
Y385267D01*
X343580Y385178D01*
Y381508D01*
X333940D01*
Y382549D01*
X338220D01*
Y383946D01*
X338195Y384099D01*
X338170Y384239D01*
X338144Y384353D01*
X338119Y384454D01*
X338093Y384518D01*
X338081Y384556D01*
X338068Y384569D01*
X338004Y384683D01*
X337928Y384785D01*
X337839Y384886D01*
X337738Y384975D01*
X337662Y385051D01*
X337585Y385115D01*
X337534Y385153D01*
X337522Y385166D01*
X337433Y385229D01*
X337331Y385293D01*
X337103Y385445D01*
X336836Y385597D01*
X336582Y385750D01*
X336328Y385890D01*
X336226Y385940D01*
X336125Y385991D01*
X336049Y386029D01*
X335985Y386067D01*
X335947Y386080D01*
X335934Y386093D01*
X333940Y387147D01*
Y388468D01*
X336557Y387083D01*
D02*
G37*
%LPC*%
G36*
X361084Y472516D02*
X361034D01*
Y471148D01*
X361114Y471118D01*
X361204Y471098D01*
X361244Y471088D01*
X361284D01*
X361304Y471078D01*
X361314D01*
X361443Y471068D01*
X361563Y471059D01*
X361673D01*
X361833Y471068D01*
X361972Y471088D01*
X362092Y471108D01*
X362192Y471148D01*
X362272Y471178D01*
X362322Y471198D01*
X362362Y471218D01*
X362372Y471228D01*
X362452Y471298D01*
X362501Y471378D01*
X362541Y471468D01*
X362571Y471548D01*
X362591Y471618D01*
X362601Y471677D01*
Y471717D01*
Y471727D01*
X362591Y471817D01*
X362581Y471897D01*
X362561Y471967D01*
X362531Y472017D01*
X362511Y472067D01*
X362491Y472097D01*
X362481Y472117D01*
X362472Y472127D01*
X362362Y472226D01*
X362252Y472296D01*
X362202Y472326D01*
X362162Y472346D01*
X362142Y472356D01*
X362132D01*
X361962Y472416D01*
X361813Y472446D01*
X361743Y472456D01*
X361693Y472466D01*
X361643D01*
X361423Y472486D01*
X361324Y472496D01*
X361234Y472506D01*
X361154D01*
X361084Y472516D01*
D02*
G37*
G36*
X366365Y474123D02*
X366295D01*
X366145Y474113D01*
X366025Y474083D01*
X365915Y474043D01*
X365826Y473993D01*
X365746Y473943D01*
X365696Y473903D01*
X365666Y473873D01*
X365656Y473863D01*
X365576Y473764D01*
X365526Y473644D01*
X365486Y473514D01*
X365456Y473394D01*
X365436Y473274D01*
X365426Y473185D01*
Y473125D01*
Y473115D01*
Y473105D01*
X367323Y472845D01*
X367303Y473065D01*
X367263Y473255D01*
X367223Y473424D01*
X367163Y473554D01*
X367113Y473664D01*
X367063Y473734D01*
X367033Y473784D01*
X367023Y473794D01*
X366914Y473903D01*
X366794Y473983D01*
X366674Y474043D01*
X366554Y474083D01*
X366454Y474103D01*
X366365Y474123D01*
D02*
G37*
G36*
X400803Y475590D02*
X400693D01*
X400484Y475580D01*
X400304Y475550D01*
X400154Y475501D01*
X400015Y475431D01*
X399905Y475351D01*
X399815Y475261D01*
X399735Y475171D01*
X399675Y475081D01*
X399625Y474981D01*
X399585Y474892D01*
X399565Y474802D01*
X399545Y474722D01*
X399535Y474662D01*
X399525Y474602D01*
Y474572D01*
Y474562D01*
X399535Y474393D01*
X399575Y474243D01*
X399625Y474113D01*
X399685Y474013D01*
X399755Y473923D01*
X399805Y473863D01*
X399845Y473824D01*
X399855Y473814D01*
X399985Y473724D01*
X400134Y473654D01*
X400294Y473614D01*
X400444Y473574D01*
X400584Y473554D01*
X400703Y473544D01*
X400913D01*
X401013Y473554D01*
X401093D01*
X401172Y473564D01*
X401222Y473574D01*
X401272D01*
X401292Y473584D01*
X401302D01*
Y475501D01*
X401212Y475531D01*
X401123Y475550D01*
X401093D01*
X401063Y475560D01*
X401033D01*
X400903Y475580D01*
X400803Y475590D01*
D02*
G37*
G36*
X395922Y475501D02*
X395692D01*
X395583Y475481D01*
X395483Y475461D01*
X395403Y475441D01*
X395333Y475421D01*
X395283Y475401D01*
X395243Y475391D01*
X395233Y475381D01*
X395133Y475331D01*
X395043Y475271D01*
X394974Y475211D01*
X394904Y475151D01*
X394844Y475091D01*
X394804Y475041D01*
X394784Y475011D01*
X394774Y475001D01*
X394704Y474902D01*
X394644Y474792D01*
X394594Y474672D01*
X394554Y474572D01*
X394524Y474472D01*
X394504Y474403D01*
X394484Y474353D01*
Y474333D01*
X394445Y474173D01*
X394425Y474013D01*
X394405Y473853D01*
X394385Y473704D01*
Y473574D01*
X394375Y473464D01*
Y473424D01*
Y473404D01*
Y473384D01*
Y473374D01*
Y473165D01*
X394395Y472985D01*
X394405Y472815D01*
X394425Y472676D01*
X394445Y472556D01*
X394464Y472466D01*
X394474Y472416D01*
X394484Y472396D01*
X394524Y472256D01*
X394574Y472127D01*
X394624Y472017D01*
X394664Y471917D01*
X394704Y471837D01*
X394744Y471787D01*
X394764Y471747D01*
X394774Y471737D01*
X394844Y471647D01*
X394924Y471568D01*
X395004Y471508D01*
X395073Y471448D01*
X395133Y471408D01*
X395183Y471378D01*
X395223Y471368D01*
X395233Y471358D01*
X395333Y471318D01*
X395433Y471288D01*
X395523Y471268D01*
X395612Y471258D01*
X395692Y471248D01*
X395752Y471238D01*
X395932D01*
X396042Y471248D01*
X396142Y471268D01*
X396211Y471278D01*
X396271Y471298D01*
X396321Y471308D01*
X396341Y471318D01*
X396351D01*
Y475421D01*
X396271Y475451D01*
X396181Y475471D01*
X396002Y475491D01*
X395922Y475501D01*
D02*
G37*
G36*
X382855Y474053D02*
X382835D01*
X382676Y474033D01*
X382546Y473993D01*
X382426Y473933D01*
X382336Y473863D01*
X382256Y473784D01*
X382206Y473724D01*
X382176Y473684D01*
X382166Y473664D01*
X382086Y473514D01*
X382037Y473334D01*
X381997Y473165D01*
X381967Y472995D01*
X381947Y472845D01*
Y472775D01*
X381937Y472715D01*
Y472676D01*
Y472636D01*
Y472616D01*
Y472606D01*
X381947Y472366D01*
X381977Y472156D01*
X382007Y471977D01*
X382047Y471827D01*
X382096Y471707D01*
X382127Y471618D01*
X382156Y471568D01*
X382166Y471548D01*
X382256Y471418D01*
X382366Y471328D01*
X382476Y471258D01*
X382586Y471218D01*
X382686Y471188D01*
X382765Y471178D01*
X382815Y471168D01*
X382835D01*
X382995Y471188D01*
X383135Y471228D01*
X383245Y471288D01*
X383344Y471358D01*
X383414Y471428D01*
X383474Y471488D01*
X383504Y471528D01*
X383514Y471548D01*
X383594Y471707D01*
X383644Y471877D01*
X383684Y472057D01*
X383714Y472226D01*
X383734Y472376D01*
Y472436D01*
X383744Y472496D01*
Y472546D01*
Y472576D01*
Y472596D01*
Y472606D01*
X383734Y472845D01*
X383704Y473055D01*
X383674Y473235D01*
X383624Y473394D01*
X383584Y473504D01*
X383554Y473594D01*
X383524Y473644D01*
X383514Y473664D01*
X383414Y473794D01*
X383314Y473893D01*
X383195Y473963D01*
X383085Y474003D01*
X382985Y474033D01*
X382905Y474043D01*
X382855Y474053D01*
D02*
G37*
G36*
X378074D02*
X378054D01*
X377894Y474033D01*
X377764Y473993D01*
X377645Y473933D01*
X377555Y473863D01*
X377475Y473784D01*
X377425Y473724D01*
X377395Y473684D01*
X377385Y473664D01*
X377305Y473514D01*
X377255Y473334D01*
X377215Y473165D01*
X377185Y472995D01*
X377165Y472845D01*
Y472775D01*
X377155Y472715D01*
Y472676D01*
Y472636D01*
Y472616D01*
Y472606D01*
X377165Y472366D01*
X377195Y472156D01*
X377225Y471977D01*
X377265Y471827D01*
X377315Y471707D01*
X377345Y471618D01*
X377375Y471568D01*
X377385Y471548D01*
X377475Y471418D01*
X377585Y471328D01*
X377694Y471258D01*
X377804Y471218D01*
X377904Y471188D01*
X377984Y471178D01*
X378034Y471168D01*
X378054D01*
X378213Y471188D01*
X378353Y471228D01*
X378463Y471288D01*
X378563Y471358D01*
X378633Y471428D01*
X378693Y471488D01*
X378722Y471528D01*
X378732Y471548D01*
X378812Y471707D01*
X378862Y471877D01*
X378902Y472057D01*
X378932Y472226D01*
X378952Y472376D01*
Y472436D01*
X378962Y472496D01*
Y472546D01*
Y472576D01*
Y472596D01*
Y472606D01*
X378952Y472845D01*
X378922Y473055D01*
X378892Y473235D01*
X378842Y473394D01*
X378802Y473504D01*
X378772Y473594D01*
X378742Y473644D01*
X378732Y473664D01*
X378633Y473794D01*
X378533Y473893D01*
X378413Y473963D01*
X378303Y474003D01*
X378204Y474033D01*
X378124Y474043D01*
X378074Y474053D01*
D02*
G37*
G36*
X356931Y474033D02*
X356772D01*
X356672Y474023D01*
X356642Y474013D01*
X356612D01*
X356592Y474003D01*
X356582D01*
X356482Y473983D01*
X356402Y473963D01*
X356362Y473953D01*
X356352Y473943D01*
Y471228D01*
X356422Y471198D01*
X356492Y471178D01*
X356552Y471168D01*
X356572Y471158D01*
X356582D01*
X356692Y471148D01*
X356792Y471138D01*
X356881D01*
X357061Y471158D01*
X357231Y471198D01*
X357361Y471258D01*
X357480Y471328D01*
X357570Y471398D01*
X357640Y471458D01*
X357680Y471498D01*
X357690Y471518D01*
X357780Y471677D01*
X357850Y471847D01*
X357900Y472027D01*
X357930Y472197D01*
X357950Y472346D01*
X357960Y472416D01*
X357970Y472476D01*
Y472516D01*
Y472556D01*
Y472576D01*
Y472586D01*
X357960Y472815D01*
X357930Y473015D01*
X357880Y473195D01*
X357830Y473344D01*
X357780Y473464D01*
X357730Y473554D01*
X357700Y473604D01*
X357690Y473624D01*
X357570Y473764D01*
X357440Y473863D01*
X357311Y473933D01*
X357181Y473983D01*
X357061Y474013D01*
X356971Y474023D01*
X356931Y474033D01*
D02*
G37*
G36*
X387761Y464650D02*
X387711D01*
Y463282D01*
X387791Y463252D01*
X387881Y463232D01*
X387921Y463223D01*
X387961D01*
X387981Y463213D01*
X387991D01*
X388121Y463203D01*
X388241Y463192D01*
X388350D01*
X388510Y463203D01*
X388650Y463223D01*
X388770Y463242D01*
X388870Y463282D01*
X388949Y463312D01*
X388999Y463332D01*
X389039Y463352D01*
X389049Y463362D01*
X389129Y463432D01*
X389179Y463512D01*
X389219Y463602D01*
X389249Y463682D01*
X389269Y463751D01*
X389279Y463811D01*
Y463851D01*
Y463861D01*
X389269Y463951D01*
X389259Y464031D01*
X389239Y464101D01*
X389209Y464151D01*
X389189Y464201D01*
X389169Y464231D01*
X389159Y464251D01*
X389149Y464261D01*
X389039Y464360D01*
X388929Y464430D01*
X388879Y464460D01*
X388839Y464480D01*
X388820Y464490D01*
X388810D01*
X388640Y464550D01*
X388490Y464580D01*
X388420Y464590D01*
X388370Y464600D01*
X388320D01*
X388101Y464620D01*
X388001Y464630D01*
X387911Y464640D01*
X387831D01*
X387761Y464650D01*
D02*
G37*
G36*
X378328Y467525D02*
X378308D01*
Y467495D01*
Y467465D01*
Y467365D01*
X378318Y467325D01*
Y467285D01*
Y467255D01*
Y467245D01*
X378328Y467076D01*
Y466986D01*
Y466906D01*
Y466836D01*
Y466786D01*
Y466746D01*
Y466736D01*
Y464790D01*
X380085D01*
X378718Y466836D01*
X378678Y466896D01*
X378638Y466956D01*
X378618Y466996D01*
X378608Y467016D01*
X378568Y467096D01*
X378528Y467165D01*
X378498Y467205D01*
X378488Y467225D01*
X378448Y467295D01*
X378418Y467355D01*
X378398Y467395D01*
X378388Y467405D01*
X378358Y467455D01*
X378338Y467495D01*
X378328Y467515D01*
Y467525D01*
D02*
G37*
G36*
X383609Y466167D02*
X383449D01*
X383349Y466157D01*
X383319Y466147D01*
X383289D01*
X383269Y466137D01*
X383260D01*
X383160Y466117D01*
X383080Y466097D01*
X383040Y466087D01*
X383030Y466077D01*
Y463362D01*
X383100Y463332D01*
X383170Y463312D01*
X383229Y463302D01*
X383250Y463292D01*
X383260D01*
X383369Y463282D01*
X383469Y463272D01*
X383559D01*
X383739Y463292D01*
X383908Y463332D01*
X384038Y463392D01*
X384158Y463462D01*
X384248Y463532D01*
X384318Y463592D01*
X384357Y463632D01*
X384367Y463652D01*
X384457Y463811D01*
X384527Y463981D01*
X384577Y464161D01*
X384607Y464330D01*
X384627Y464480D01*
X384637Y464550D01*
X384647Y464610D01*
Y464650D01*
Y464690D01*
Y464710D01*
Y464720D01*
X384637Y464949D01*
X384607Y465149D01*
X384557Y465329D01*
X384507Y465478D01*
X384457Y465598D01*
X384407Y465688D01*
X384378Y465738D01*
X384367Y465758D01*
X384248Y465898D01*
X384118Y465998D01*
X383988Y466067D01*
X383858Y466117D01*
X383739Y466147D01*
X383649Y466157D01*
X383609Y466167D01*
D02*
G37*
G36*
X356837Y467724D02*
X356797D01*
X356707Y467715D01*
X356627Y467705D01*
X356547Y467674D01*
X356487Y467645D01*
X356437Y467615D01*
X356397Y467595D01*
X356377Y467575D01*
X356367Y467565D01*
X356307Y467495D01*
X356248Y467425D01*
X356158Y467275D01*
X356118Y467205D01*
X356098Y467155D01*
X356078Y467116D01*
Y467105D01*
X356038Y466996D01*
X356008Y466876D01*
X355978Y466756D01*
X355958Y466646D01*
X355938Y466557D01*
X355928Y466477D01*
X355918Y466427D01*
Y466407D01*
X355878Y466097D01*
X355868Y465948D01*
Y465808D01*
X355858Y465688D01*
Y465588D01*
Y465528D01*
Y465518D01*
Y465508D01*
Y465329D01*
X355868Y465159D01*
X355878Y465009D01*
X355888Y464879D01*
X355898Y464770D01*
X355908Y464680D01*
X355918Y464630D01*
Y464610D01*
X355938Y464470D01*
X355968Y464330D01*
X355988Y464211D01*
X356018Y464111D01*
X356038Y464031D01*
X356058Y463961D01*
X356068Y463921D01*
X356078Y463911D01*
X356118Y463811D01*
X356168Y463722D01*
X356218Y463642D01*
X356268Y463582D01*
X356307Y463532D01*
X356338Y463492D01*
X356357Y463472D01*
X356367Y463462D01*
X356437Y463412D01*
X356507Y463372D01*
X356577Y463342D01*
X356647Y463322D01*
X356707Y463312D01*
X356757Y463302D01*
X356797D01*
X356886Y463312D01*
X356966Y463332D01*
X357046Y463352D01*
X357106Y463382D01*
X357156Y463412D01*
X357196Y463442D01*
X357216Y463452D01*
X357226Y463462D01*
X357286Y463532D01*
X357346Y463602D01*
X357445Y463751D01*
X357475Y463811D01*
X357505Y463861D01*
X357515Y463901D01*
X357525Y463911D01*
X357595Y464151D01*
X357625Y464261D01*
X357645Y464370D01*
X357665Y464470D01*
X357675Y464540D01*
X357685Y464590D01*
Y464610D01*
X357715Y464919D01*
X357725Y465079D01*
Y465209D01*
X357735Y465329D01*
Y465429D01*
Y465488D01*
Y465498D01*
Y465508D01*
Y465688D01*
X357725Y465858D01*
X357715Y466007D01*
X357705Y466147D01*
Y466257D01*
X357695Y466337D01*
X357685Y466387D01*
Y466407D01*
X357665Y466557D01*
X357635Y466686D01*
X357615Y466806D01*
X357585Y466906D01*
X357565Y466996D01*
X357545Y467056D01*
X357525Y467096D01*
Y467105D01*
X357475Y467215D01*
X357425Y467305D01*
X357376Y467385D01*
X357326Y467445D01*
X357286Y467495D01*
X357256Y467535D01*
X357236Y467555D01*
X357226Y467565D01*
X357156Y467615D01*
X357086Y467655D01*
X357006Y467685D01*
X356946Y467705D01*
X356886Y467715D01*
X356837Y467724D01*
D02*
G37*
G36*
X341148Y370948D02*
X341097D01*
X341059D01*
X341033D01*
X341021D01*
X340843Y370935D01*
X340665Y370910D01*
X340513Y370872D01*
X340386Y370834D01*
X340284Y370796D01*
X340195Y370757D01*
X340144Y370732D01*
X340132Y370719D01*
X340005Y370630D01*
X339890Y370529D01*
X339789Y370427D01*
X339712Y370326D01*
X339649Y370237D01*
X339611Y370173D01*
X339585Y370122D01*
X339573Y370110D01*
X339522Y369957D01*
X339484Y369780D01*
X339446Y369589D01*
X339433Y369411D01*
X339420Y369246D01*
X339408Y369119D01*
Y366757D01*
X342595D01*
Y369246D01*
X342583Y369538D01*
X342532Y369805D01*
X342468Y370021D01*
X342392Y370199D01*
X342303Y370338D01*
X342240Y370440D01*
X342189Y370491D01*
X342176Y370516D01*
X342011Y370656D01*
X341821Y370770D01*
X341630Y370846D01*
X341440Y370897D01*
X341275Y370923D01*
X341148Y370948D01*
D02*
G37*
G36*
X341675Y392176D02*
X337344D01*
Y389687D01*
X341675Y392176D01*
D02*
G37*
G36*
X341065Y386740D02*
X341014D01*
X340976D01*
X340951D01*
X340938D01*
X340760Y386728D01*
X340583Y386702D01*
X340430Y386664D01*
X340303Y386626D01*
X340201Y386588D01*
X340113Y386550D01*
X340062Y386525D01*
X340049Y386512D01*
X339922Y386423D01*
X339808Y386321D01*
X339706Y386220D01*
X339630Y386118D01*
X339566Y386029D01*
X339528Y385966D01*
X339503Y385915D01*
X339490Y385902D01*
X339440Y385750D01*
X339401Y385572D01*
X339363Y385382D01*
X339351Y385204D01*
X339338Y385039D01*
X339325Y384912D01*
Y382549D01*
X342513D01*
Y385039D01*
X342500Y385331D01*
X342449Y385597D01*
X342386Y385813D01*
X342310Y385991D01*
X342221Y386131D01*
X342157Y386232D01*
X342107Y386283D01*
X342094Y386309D01*
X341929Y386448D01*
X341738Y386563D01*
X341548Y386639D01*
X341357Y386690D01*
X341192Y386715D01*
X341065Y386740D01*
D02*
G37*
%LPD*%
D32*
X390000Y278182D02*
G03*
X360000Y308182I-30000J0D01*
G01*
X299425D02*
G03*
X287227Y304032I0J-20000D01*
G01*
X360000Y248182D02*
G03*
X390000Y278182I0J30000D01*
G01*
X301573Y248182D02*
G03*
X281768Y230965I0J-20000D01*
G01*
X234389Y263367D02*
G03*
X222978Y243768I18297J-23774D01*
G01*
X210452Y154644D02*
G03*
X269868Y146293I29708J-4175D01*
G01*
X352240Y308182D02*
X389185Y271237D01*
X337872Y308182D02*
X384781Y261273D01*
X323504Y308182D02*
X377715Y253971D01*
X309135Y308182D02*
X368038Y249279D01*
X367583Y307208D02*
X389026Y285765D01*
X363590Y248397D02*
X389784Y274592D01*
X299425Y308182D02*
X360000D01*
X295215Y307734D02*
X354767Y248182D01*
X285714Y302867D02*
X340398Y248182D01*
X277594Y296618D02*
X326030Y248182D01*
X301573D02*
X360000D01*
X269475Y290369D02*
X311662Y248182D01*
X334638D02*
X383405Y296949D01*
X334638Y248182D02*
X383405Y296949D01*
X305901Y248182D02*
X365409Y307690D01*
X320269Y248182D02*
X375782Y303695D01*
X349006Y248182D02*
X388469Y287644D01*
X261355Y284120D02*
X297677Y247799D01*
X253235Y277871D02*
X288123Y242983D01*
X245116Y271623D02*
X282509Y234229D01*
X269868Y146293D02*
X281768Y230965D01*
X252842Y123281D02*
X267348Y137787D01*
X245116Y271622D02*
X282509Y234229D01*
X219538Y219292D02*
X308427Y308182D01*
X217188Y202574D02*
X322796Y308182D01*
X214839Y185856D02*
X337164Y308182D01*
X212489Y169139D02*
X351532Y308182D01*
X234389Y263367D02*
X287227Y304032D01*
X236996Y265374D02*
X280491Y221879D01*
X221887Y236010D02*
X292998Y307121D01*
X227688Y256180D02*
X236502Y264993D01*
X229442Y258559D02*
X278720Y209281D01*
X224308Y249325D02*
X276950Y196683D01*
X222056Y237209D02*
X275179Y184085D01*
X220285Y224611D02*
X273409Y171487D01*
X218515Y212013D02*
X271638Y158889D01*
X217391Y130935D02*
X275938Y189482D01*
X217391Y130935D02*
X275938Y189482D01*
X210230Y152511D02*
X280637Y222918D01*
X212057Y139970D02*
X278288Y206200D01*
X225257Y124432D02*
X273588Y172764D01*
X235957Y120764D02*
X271239Y156046D01*
X216744Y199415D02*
X269868Y146292D01*
X214974Y186817D02*
X266207Y135584D01*
X210452Y154644D02*
X222978Y243768D01*
X213203Y174219D02*
X259710Y127713D01*
X211433Y161621D02*
X250681Y122374D01*
X210228Y148458D02*
X238150Y120536D01*
D86*
X499243Y494392D02*
G03*
X498511Y496160I-2500J0D01*
G01*
X451493Y523143D02*
G03*
X449727Y522412I0J-2500D01*
G01*
X144465Y419142D02*
G03*
X142699Y418413I0J-2500D01*
G01*
X499243Y494392D02*
G03*
X498513Y496158I-2500J0D01*
G01*
X98230Y373943D02*
G03*
X97500Y372178I1770J-1766D01*
G01*
X137172Y-1249D02*
G03*
X139338Y-2500I2166J1249D01*
G01*
X619263Y352877D02*
G03*
X619993Y354642I-1770J1766D01*
G01*
X516687Y250337D02*
G03*
X516954Y250568I-1499J2001D01*
G01*
X294369Y510392D02*
G03*
X293636Y508624I1768J-1768D01*
G01*
X449727Y522412D02*
G03*
X449723Y522408I1766J-1770D01*
G01*
X142699Y418413D02*
G03*
X142695Y418408I1766J-1770D01*
G01*
X498513Y496158D02*
G03*
X498508Y496162I-1770J-1766D01*
G01*
X137172Y-1249D02*
G03*
X139338Y-2500I2166J1249D01*
G01*
X516954Y250568D02*
G03*
X516959Y250573I-1766J1770D01*
G01*
X301979Y516967D02*
G03*
X300213Y516236I0J-2500D01*
G01*
X294371Y510395D02*
G03*
X294366Y510390I1766J-1770D01*
G01*
X451493Y523143D02*
G03*
X449725Y522410I0J-2500D01*
G01*
X472261D02*
G03*
X470493Y523143I-1768J-1768D01*
G01*
X144465Y419142D02*
G03*
X142697Y418410I0J-2500D01*
G01*
X498508Y476122D02*
G03*
X498513Y476127I-1766J1770D01*
G01*
X276071Y-2500D02*
G03*
X278571Y0I0J2500D01*
G01*
X574743Y402393D02*
G03*
X572977Y401662I0J-2500D01*
G01*
X300213Y516236D02*
G03*
X300208Y516232I1766J-1770D01*
G01*
X472263Y522408D02*
G03*
X472258Y522412I-1770J-1766D01*
G01*
X498513Y476127D02*
G03*
X499243Y477892I-1770J1766D01*
G01*
X593011Y401660D02*
G03*
X591243Y402393I-1768J-1768D01*
G01*
X619993Y373642D02*
G03*
X619263Y375408I-2500J0D01*
G01*
X294366Y510390D02*
G03*
X293636Y508624I1770J-1766D01*
G01*
X572977Y401662D02*
G03*
X572972Y401658I1766J-1770D01*
G01*
X593013D02*
G03*
X593008Y401662I-1770J-1766D01*
G01*
X619263Y375408D02*
G03*
X619258Y375412I-1770J-1766D01*
G01*
X474675Y129707D02*
G03*
X477047Y131417I0J2500D01*
G01*
X301979Y516967D02*
G03*
X300211Y516234I0J-2500D01*
G01*
X472258Y522412D02*
G03*
X470493Y523143I-1766J-1770D01*
G01*
X98232Y373946D02*
G03*
X97500Y372178I1768J-1768D01*
G01*
Y68182D02*
G03*
X97834Y66932I2500J0D01*
G01*
X276071Y-2500D02*
G03*
X278571Y0I0J2500D01*
G01*
X574743Y402393D02*
G03*
X572975Y401660I0J-2500D01*
G01*
X619993Y373642D02*
G03*
X619261Y375410I-2500J0D01*
G01*
X474675Y129707D02*
G03*
X477047Y131417I0J2500D01*
G01*
X619261Y352874D02*
G03*
X619993Y354642I-1768J1768D01*
G01*
X98234Y373948D02*
G03*
X98230Y373943I1766J-1770D01*
G01*
X498511Y476124D02*
G03*
X499243Y477892I-1768J1768D01*
G01*
X97500Y68182D02*
G03*
X97834Y66932I2500J0D01*
G01*
X593008Y401662D02*
G03*
X591243Y402393I-1766J-1770D01*
G01*
X619258Y352872D02*
G03*
X619263Y352877I-1766J1770D01*
G01*
X516687Y250337D02*
G03*
X516957Y250570I-1499J2001D01*
G01*
X294371Y510395D02*
X300208Y516232D01*
X444281Y516967D02*
X449723Y522408D01*
X142697Y418410D02*
X142699Y418413D01*
X472263Y522408D02*
X498508Y496162D01*
X499243Y477892D02*
Y494392D01*
X498508Y476122D02*
X498511Y476124D01*
X619261Y352874D02*
X619263Y352877D01*
X300208Y516232D02*
X300211Y516234D01*
X451493Y523143D02*
X470493D01*
X144465Y419142D02*
X230297D01*
X498511Y476124D02*
X498513Y476127D01*
X473279Y450892D02*
X547743Y376428D01*
X139338Y-2500D02*
X276071D01*
X572972Y401658D02*
X572975Y401660D01*
X574743Y402393D02*
X591243D01*
X278571Y125065D02*
X283214Y129707D01*
X619261Y375410D02*
X619263Y375408D01*
X449723Y522408D02*
X449725Y522410D01*
X230297Y419142D02*
X293636Y482482D01*
X472261Y522410D02*
X472263Y522408D01*
X98230Y373943D02*
X98232Y373946D01*
X572975Y401660D02*
X572977Y401662D01*
X619258Y375412D02*
X619261Y375410D01*
X619993Y354642D02*
Y373642D01*
X300211Y516234D02*
X300213Y516236D01*
X449725Y522410D02*
X449727Y522412D01*
X472258D02*
X472261Y522410D01*
X516954Y250568D02*
X516957Y250570D01*
X98232Y373946D02*
X98234Y373948D01*
X97834Y66932D02*
X137172Y-1249D01*
X593013Y401658D02*
X619258Y375412D01*
X283214Y129707D02*
X474675D01*
X516957Y250570D02*
X516959Y250573D01*
X294366Y510390D02*
X294369Y510392D01*
X98234Y373948D02*
X142695Y418408D01*
X97500Y68182D02*
Y372178D01*
X278571Y0D02*
Y125065D01*
X593011Y401660D02*
X593013Y401658D01*
X294369Y510392D02*
X294371Y510395D01*
X293636Y482482D02*
Y508624D01*
X142695Y418408D02*
X142697Y418410D01*
X498511Y496160D02*
X498513Y496158D01*
X473279Y450892D02*
X498508Y476122D01*
X593008Y401662D02*
X593011Y401660D01*
X516959Y250573D02*
X619258Y352872D01*
X301979Y516967D02*
X444281D01*
X498508Y496162D02*
X498511Y496160D01*
X547743Y376428D02*
X572972Y401658D01*
X619258Y352872D02*
X619261Y352874D01*
X477047Y131417D02*
X516687Y250337D01*
D88*
X167993Y70142D02*
Y73142D01*
X198993Y70142D02*
Y73142D01*
X167993D02*
X198993D01*
X167993Y70142D02*
X198993D01*
X456493Y254142D02*
X490493D01*
X456493Y304142D02*
X490493D01*
X456493Y254142D02*
Y304142D01*
X490493Y254142D02*
Y304142D01*
X475274Y335574D02*
X484255Y326593D01*
X533399Y375737D02*
X544783Y387122D01*
X505892Y348231D02*
X519327Y361666D01*
X484255Y326593D02*
X487507Y329846D01*
X483972Y447932D02*
X544783Y387122D01*
X423444Y387404D02*
X426696Y390657D01*
X445081Y409042D02*
X458516Y422477D01*
X472588Y436548D02*
X483972Y447932D01*
X423444Y387404D02*
X432424Y378424D01*
X178535Y3926D02*
X188695Y3926D01*
X178535Y42026D02*
X188695Y42026D01*
X126993Y116142D02*
X129993D01*
X126993Y147142D02*
X129993D01*
X126993Y116142D02*
Y147142D01*
X129993Y116142D02*
Y147142D01*
X114527Y73522D02*
Y83682D01*
X152627Y73522D02*
Y83682D01*
X300406Y394716D02*
X331394D01*
Y363474D02*
Y394716D01*
X300406Y363474D02*
X331394D01*
X300406D02*
Y394716D01*
D89*
X166243Y83642D02*
G03*
X166243Y83642I-1250J0D01*
G01*
X484000Y162910D02*
G03*
X484000Y162910I-1250J0D01*
G01*
X502993Y307642D02*
G03*
X502993Y307642I-1250J0D01*
G01*
X117743Y113142D02*
G03*
X117743Y113142I-1250J0D01*
G01*
D91*
X145440Y198404D02*
G03*
X145440Y198404I-500J0D01*
G01*
X101844Y209052D02*
G03*
X101844Y209052I-500J0D01*
G01*
X292000Y183500D02*
G03*
X292000Y183500I-500J0D01*
G01*
X203226Y291132D02*
X214002Y301909D01*
X222983Y271376D02*
X233759Y282152D01*
X226575Y303705D02*
X235555Y294725D01*
X201430Y278560D02*
X210410Y269580D01*
M02*
