G04*
G04 #@! TF.GenerationSoftware,Altium Limited,Altium Designer,23.11.1 (41)*
G04*
G04 Layer_Physical_Order=2*
G04 Layer_Color=36540*
%FSLAX44Y44*%
%MOMM*%
G71*
G04*
G04 #@! TF.SameCoordinates,7D9A12BA-FF4A-4FA1-B099-3E499341C767*
G04*
G04*
G04 #@! TF.FilePolarity,Positive*
G04*
G01*
G75*
%ADD31C,0.6350*%
%ADD32C,0.2032*%
%ADD33C,0.3048*%
%ADD34C,1.2700*%
%ADD39C,1.3716*%
%ADD41R,1.7000X1.7000*%
%ADD42C,1.8000*%
%ADD44C,1.5240*%
%ADD46R,1.4986X1.4986*%
%ADD47C,1.5080*%
%ADD49R,1.5080X1.5080*%
G04:AMPARAMS|DCode=50|XSize=1mm|YSize=1.6mm|CornerRadius=0mm|HoleSize=0mm|Usage=FLASHONLY|Rotation=135.000|XOffset=0mm|YOffset=0mm|HoleType=Round|Shape=Round|*
%AMOVALD50*
21,1,0.6000,1.0000,0.0000,0.0000,225.0*
1,1,1.0000,0.2121,0.2121*
1,1,1.0000,-0.2121,-0.2121*
%
%ADD50OVALD50*%

G04:AMPARAMS|DCode=52|XSize=1mm|YSize=2.1mm|CornerRadius=0mm|HoleSize=0mm|Usage=FLASHONLY|Rotation=135.000|XOffset=0mm|YOffset=0mm|HoleType=Round|Shape=Round|*
%AMOVALD52*
21,1,1.1000,1.0000,0.0000,0.0000,225.0*
1,1,1.0000,0.3889,0.3889*
1,1,1.0000,-0.3889,-0.3889*
%
%ADD52OVALD52*%

%ADD53C,0.4500*%
%ADD54C,0.5000*%
%ADD55R,1.8796X2.8448*%
G36*
X322818Y453241D02*
X322780Y452949D01*
X321078Y451247D01*
X319874Y449162D01*
X319251Y446836D01*
Y444428D01*
X319874Y442103D01*
X321078Y440018D01*
X322780Y438315D01*
X324865Y437112D01*
X327125Y436506D01*
Y388736D01*
X286793Y348404D01*
X285534Y348570D01*
X284912Y349647D01*
X283209Y351349D01*
X281124Y352553D01*
X278799Y353176D01*
X276391D01*
X274065Y352553D01*
X271980Y351349D01*
X270278Y349647D01*
X269074Y347562D01*
X268451Y345236D01*
Y342828D01*
X269074Y340503D01*
X270278Y338418D01*
X271980Y336715D01*
X273057Y336094D01*
X273223Y334835D01*
X267181Y328792D01*
Y289863D01*
X244047Y266729D01*
X178671D01*
X154917Y290482D01*
X155215Y291980D01*
X155988Y292300D01*
X157264Y293576D01*
X157955Y295244D01*
Y297048D01*
X157264Y298715D01*
X155988Y299991D01*
X154321Y300682D01*
X152517D01*
X150850Y299991D01*
X149574Y298715D01*
X149253Y297942D01*
X147755Y297644D01*
X132622Y312777D01*
X131530Y313507D01*
X130242Y313763D01*
X128121D01*
X122241Y319643D01*
Y322108D01*
X123762D01*
X125429Y322799D01*
X126705Y324075D01*
X127396Y325742D01*
Y327546D01*
X126705Y329213D01*
X125429Y330489D01*
X123762Y331180D01*
X121958D01*
X120291Y330489D01*
X119015Y329213D01*
X118840Y328791D01*
X117594Y328543D01*
X113296Y332842D01*
Y334026D01*
X113605Y334155D01*
X114881Y335431D01*
X115572Y337098D01*
Y338902D01*
X114881Y340569D01*
X113605Y341845D01*
X111938Y342536D01*
X110134D01*
X108466Y341845D01*
X107643Y341022D01*
X106819Y341845D01*
X105152Y342536D01*
X103348D01*
X103095Y342431D01*
X102039Y343137D01*
Y371333D01*
X145309Y414603D01*
X157904D01*
X158430Y413333D01*
X158131Y413033D01*
X157440Y411366D01*
Y409562D01*
X158131Y407895D01*
X159407Y406619D01*
X161074Y405928D01*
X162878D01*
X164545Y406619D01*
X165821Y407895D01*
X166512Y409562D01*
Y410185D01*
X167782Y410438D01*
X168037Y409823D01*
X169313Y408547D01*
X170980Y407856D01*
X172784D01*
X174451Y408547D01*
X174526Y408621D01*
X185728D01*
X191817Y402531D01*
X192910Y401802D01*
X194198Y401545D01*
X226565D01*
X227853Y401802D01*
X228946Y402531D01*
X236493Y410078D01*
D01*
D01*
X236567Y410190D01*
X242873Y416495D01*
X249606D01*
X250894Y416752D01*
X251987Y417481D01*
X255543Y421037D01*
X256272Y422130D01*
X256529Y423418D01*
Y430219D01*
X264358Y438048D01*
X265035D01*
X266702Y438739D01*
X267978Y440015D01*
X268327Y440857D01*
X269740Y440949D01*
X270278Y440018D01*
X270441Y439855D01*
X270143Y438357D01*
X269643Y438149D01*
X268367Y436873D01*
X267676Y435206D01*
Y433402D01*
X268367Y431735D01*
X269643Y430459D01*
X271310Y429768D01*
X273114D01*
X274781Y430459D01*
X276057Y431735D01*
X276748Y433402D01*
Y435206D01*
X276743Y435218D01*
X277592Y436488D01*
X278799D01*
X281124Y437112D01*
X283209Y438315D01*
X284912Y440018D01*
X286116Y442103D01*
X286739Y444428D01*
Y446836D01*
X286116Y449162D01*
X284912Y451247D01*
X283209Y452949D01*
X281124Y454153D01*
X278799Y454776D01*
X276391D01*
X274065Y454153D01*
X272783Y453413D01*
X272003Y454429D01*
X280478Y462904D01*
X313155D01*
X322818Y453241D01*
D02*
G37*
G36*
X557993Y355142D02*
Y314142D01*
X541993Y298142D01*
X537993D01*
X515013Y275162D01*
X514436D01*
X512769Y274472D01*
X511493Y273196D01*
X510803Y271529D01*
Y270952D01*
X508993Y269142D01*
X495993Y256142D01*
X487065D01*
X486684Y256524D01*
X485017Y257214D01*
X483212D01*
X481545Y256524D01*
X481163Y256142D01*
X469993D01*
X461993Y264142D01*
Y290303D01*
X472139Y300450D01*
X473385Y300202D01*
X473479Y299975D01*
X474755Y298699D01*
X476422Y298008D01*
X478227D01*
X479894Y298699D01*
X481170Y299975D01*
X481861Y301642D01*
Y303447D01*
X481170Y305114D01*
X479894Y306390D01*
X479667Y306484D01*
X479419Y307730D01*
X480889Y309200D01*
X481619Y310292D01*
X481875Y311580D01*
Y335025D01*
X528993Y382142D01*
X530993D01*
X557993Y355142D01*
D02*
G37*
G36*
X130283Y283604D02*
X131376Y282874D01*
X132664Y282618D01*
X136415D01*
X136491Y282460D01*
X135948Y280869D01*
X134672Y279593D01*
X133982Y277926D01*
Y276122D01*
X134672Y274454D01*
X135151Y273976D01*
Y261456D01*
X135407Y260168D01*
X136137Y259076D01*
X137594Y257619D01*
X137067Y256349D01*
X137050D01*
X135383Y255659D01*
X135341Y255617D01*
X134082Y255783D01*
X133855Y256176D01*
X132026Y258005D01*
X129785Y259299D01*
X127286Y259968D01*
X124699D01*
X122200Y259299D01*
X119959Y258005D01*
X118130Y256176D01*
X116836Y253935D01*
X116167Y251436D01*
Y248849D01*
X116836Y246350D01*
X118130Y244109D01*
X119959Y242280D01*
X122200Y240986D01*
X124699Y240316D01*
X127286D01*
X129785Y240986D01*
X132026Y242280D01*
X133855Y244109D01*
X135149Y246350D01*
X135313Y246963D01*
X136453Y247525D01*
X137050Y247277D01*
X138855D01*
X140522Y247968D01*
X141798Y249244D01*
X142223Y250269D01*
X143493Y250017D01*
Y238121D01*
X142383Y237011D01*
X141692Y235344D01*
Y233540D01*
X142383Y231873D01*
X143493Y230763D01*
Y192525D01*
X143164Y191732D01*
Y189928D01*
X143493Y189135D01*
Y186642D01*
Y154993D01*
X142223Y154145D01*
X141337Y154512D01*
X139532D01*
X137865Y153822D01*
X136589Y152546D01*
X135899Y150879D01*
Y149074D01*
X136589Y147407D01*
X137865Y146131D01*
X139532Y145440D01*
X141337D01*
X142223Y145807D01*
X143493Y144960D01*
Y62484D01*
X105641D01*
X104891Y63785D01*
X105775Y64794D01*
X106972Y64298D01*
X108776D01*
X110443Y64989D01*
X111719Y66265D01*
X112410Y67932D01*
Y69736D01*
X111719Y71403D01*
X110443Y72679D01*
X108776Y73370D01*
X106972D01*
X105305Y72679D01*
X104763Y72137D01*
X103493Y72664D01*
X103493Y140324D01*
X104763Y141172D01*
X105496Y140868D01*
X107301D01*
X108968Y141559D01*
X110244Y142835D01*
X110935Y144502D01*
Y146307D01*
X110244Y147974D01*
X108968Y149250D01*
X107301Y149940D01*
X105496D01*
X104763Y149636D01*
X103493Y150485D01*
Y181299D01*
X103493Y276797D01*
X112954Y286258D01*
X127629D01*
X130283Y283604D01*
D02*
G37*
G36*
X342165Y197924D02*
X343549Y196120D01*
X353308Y186362D01*
X355112Y184978D01*
X357212Y184108D01*
X359467Y183811D01*
X385693D01*
X387947Y184108D01*
X390048Y184978D01*
X390527Y185345D01*
X393863D01*
X409929Y169280D01*
Y135244D01*
X294105D01*
X293107Y134247D01*
X282178D01*
X282178Y134247D01*
X281398Y134091D01*
X280736Y133649D01*
X280736Y133649D01*
X274629Y127542D01*
X274187Y126881D01*
X274032Y126100D01*
Y115171D01*
X246121Y87260D01*
X244592Y86851D01*
X242351Y85557D01*
X240522Y83728D01*
X239228Y81487D01*
X238819Y79958D01*
X233725Y74865D01*
X232281Y75217D01*
X231861Y76229D01*
X230585Y77505D01*
X228918Y78196D01*
X227114D01*
X225447Y77505D01*
X224171Y76229D01*
X223480Y74562D01*
Y72758D01*
X224171Y71091D01*
X224685Y70576D01*
X224159Y69306D01*
X223812D01*
X222145Y68615D01*
X220869Y67339D01*
X220178Y65672D01*
Y63868D01*
X220869Y62201D01*
X220965Y62104D01*
X200328Y41467D01*
X199157Y42093D01*
X199261Y42611D01*
Y68341D01*
X199912Y69914D01*
Y71718D01*
X199221Y73385D01*
X197945Y74661D01*
X196278Y75352D01*
X194474D01*
X192806Y74661D01*
X191530Y73385D01*
X190840Y71718D01*
Y69914D01*
X191491Y68341D01*
Y44220D01*
X183085Y35814D01*
X147039D01*
Y109072D01*
X148309Y109325D01*
X148645Y108513D01*
X149921Y107237D01*
X151588Y106546D01*
X153393D01*
X155060Y107237D01*
X156336Y108513D01*
X157026Y110180D01*
Y111985D01*
X156336Y113652D01*
X155060Y114928D01*
X153393Y115618D01*
X151588D01*
X149921Y114928D01*
X148645Y113652D01*
X148309Y112840D01*
X147039Y113093D01*
Y186044D01*
X147288Y186294D01*
X148602D01*
X150270Y186985D01*
X151546Y188260D01*
X152236Y189928D01*
Y191242D01*
X161009Y200014D01*
X177390D01*
X177836Y198350D01*
X179130Y196109D01*
X180959Y194279D01*
X183200Y192986D01*
X185699Y192316D01*
X188286D01*
X190785Y192986D01*
X193026Y194279D01*
X194855Y196109D01*
X196149Y198350D01*
X196595Y200014D01*
X212438D01*
X212670Y199563D01*
X212827Y198744D01*
X211725Y197641D01*
X211034Y195974D01*
Y194170D01*
X211725Y192503D01*
X213001Y191227D01*
X214668Y190536D01*
X216472D01*
X218139Y191227D01*
X219415Y192503D01*
X220106Y194170D01*
Y195974D01*
X219415Y197641D01*
X218313Y198744D01*
X218470Y199563D01*
X218702Y200014D01*
X293569D01*
X294599Y199419D01*
X297118Y198744D01*
X299727D01*
X302246Y199419D01*
X303277Y200014D01*
X318969D01*
X319999Y199419D01*
X322519Y198744D01*
X325127D01*
X327646Y199419D01*
X328677Y200014D01*
X329787D01*
X330493Y198958D01*
X330414Y198768D01*
Y196964D01*
X331105Y195297D01*
X332381Y194021D01*
X334048Y193330D01*
X335852D01*
X337519Y194021D01*
X338795Y195297D01*
X339486Y196964D01*
Y198768D01*
X339407Y198958D01*
X340113Y200014D01*
X341299D01*
X342165Y197924D01*
D02*
G37*
%LPC*%
G36*
X265541Y421178D02*
X263736D01*
X262069Y420488D01*
X260793Y419212D01*
X260103Y417545D01*
Y415740D01*
X260793Y414073D01*
X262069Y412797D01*
X263736Y412106D01*
X265541D01*
X267208Y412797D01*
X268484Y414073D01*
X269175Y415740D01*
Y417545D01*
X268484Y419212D01*
X267208Y420488D01*
X265541Y421178D01*
D02*
G37*
G36*
X277757Y401585D02*
X275952D01*
X274285Y400895D01*
X273009Y399619D01*
X272319Y397951D01*
Y396147D01*
X273009Y394480D01*
X274285Y393204D01*
X275952Y392513D01*
X277757D01*
X279424Y393204D01*
X280700Y394480D01*
X281391Y396147D01*
Y397951D01*
X280700Y399619D01*
X279424Y400895D01*
X277757Y401585D01*
D02*
G37*
G36*
X302070Y401538D02*
X300266D01*
X298599Y400847D01*
X297323Y399571D01*
X296632Y397904D01*
Y396100D01*
X297323Y394433D01*
X298599Y393157D01*
X300266Y392466D01*
X302070D01*
X303737Y393157D01*
X305013Y394433D01*
X305704Y396100D01*
Y397904D01*
X305013Y399571D01*
X303737Y400847D01*
X302070Y401538D01*
D02*
G37*
G36*
X140522Y395398D02*
X138718D01*
X137051Y394708D01*
X135775Y393432D01*
X135084Y391764D01*
Y389960D01*
X135775Y388293D01*
X137051Y387017D01*
X138718Y386326D01*
X140522D01*
X142190Y387017D01*
X142962Y387789D01*
X143380Y387766D01*
X144365Y387397D01*
X144923Y386051D01*
X146199Y384775D01*
X147866Y384084D01*
X149670D01*
X151337Y384775D01*
X152613Y386051D01*
X153304Y387718D01*
Y389522D01*
X152613Y391189D01*
X151337Y392465D01*
X149670Y393156D01*
X147866D01*
X146199Y392465D01*
X145426Y391693D01*
X145008Y391717D01*
X144024Y392085D01*
X143466Y393432D01*
X142190Y394708D01*
X140522Y395398D01*
D02*
G37*
G36*
X200773Y388192D02*
X198968D01*
X197301Y387502D01*
X196025Y386226D01*
X195335Y384559D01*
Y382754D01*
X196025Y381087D01*
X197301Y379811D01*
X198968Y379120D01*
X200773D01*
X202440Y379811D01*
X203716Y381087D01*
X204407Y382754D01*
Y384559D01*
X203716Y386226D01*
X202440Y387502D01*
X200773Y388192D01*
D02*
G37*
G36*
X249529Y388810D02*
X247724D01*
X246057Y388120D01*
X244781Y386844D01*
X244090Y385177D01*
Y383372D01*
X244781Y381705D01*
X246057Y380429D01*
X247724Y379738D01*
X248896D01*
Y378581D01*
X249586Y376913D01*
X250862Y375638D01*
X252529Y374947D01*
X254334D01*
X256001Y375638D01*
X257277Y376913D01*
X257968Y378581D01*
Y380385D01*
X257277Y382052D01*
X256001Y383328D01*
X254334Y384019D01*
X253162D01*
Y385177D01*
X252472Y386844D01*
X251196Y388120D01*
X249529Y388810D01*
D02*
G37*
G36*
X278799Y378576D02*
X276391D01*
X274065Y377953D01*
X271980Y376749D01*
X270278Y375047D01*
X269074Y372962D01*
X268451Y370636D01*
Y368228D01*
X269074Y365903D01*
X270278Y363818D01*
X271980Y362115D01*
X274065Y360911D01*
X276391Y360288D01*
X278799D01*
X281124Y360911D01*
X283209Y362115D01*
X284912Y363818D01*
X286115Y365903D01*
X286739Y368228D01*
Y370636D01*
X286115Y372962D01*
X284912Y375047D01*
X283209Y376749D01*
X281124Y377953D01*
X278799Y378576D01*
D02*
G37*
G36*
X241865Y356498D02*
X240060D01*
X238393Y355808D01*
X237117Y354532D01*
X236427Y352865D01*
Y351060D01*
X237117Y349393D01*
X238393Y348117D01*
X240060Y347426D01*
X241865D01*
X243532Y348117D01*
X244808Y349393D01*
X245499Y351060D01*
Y352865D01*
X244808Y354532D01*
X243532Y355808D01*
X241865Y356498D01*
D02*
G37*
G36*
X152259Y356469D02*
X150454D01*
X148787Y355779D01*
X147511Y354503D01*
X146821Y352836D01*
Y351031D01*
X147511Y349364D01*
X148787Y348088D01*
X150454Y347397D01*
X152259D01*
X153926Y348088D01*
X155202Y349364D01*
X155893Y351031D01*
Y352836D01*
X155202Y354503D01*
X153926Y355779D01*
X152259Y356469D01*
D02*
G37*
G36*
X232523Y350346D02*
X230718D01*
X229051Y349656D01*
X227775Y348380D01*
X227085Y346713D01*
Y344908D01*
X227775Y343241D01*
X229051Y341965D01*
X230718Y341274D01*
X232523D01*
X234190Y341965D01*
X235466Y343241D01*
X236157Y344908D01*
Y346713D01*
X235466Y348380D01*
X234190Y349656D01*
X232523Y350346D01*
D02*
G37*
G36*
X221601Y339678D02*
X219796D01*
X218129Y338988D01*
X216853Y337712D01*
X216163Y336045D01*
Y334240D01*
X216853Y332573D01*
X218129Y331297D01*
X219796Y330606D01*
X221601D01*
X223268Y331297D01*
X224544Y332573D01*
X225235Y334240D01*
Y336045D01*
X224544Y337712D01*
X223268Y338988D01*
X221601Y339678D01*
D02*
G37*
G36*
X205345Y305896D02*
X203540D01*
X201873Y305206D01*
X200597Y303930D01*
X199907Y302263D01*
Y300458D01*
X200597Y298791D01*
X201873Y297515D01*
X203540Y296824D01*
X205345D01*
X207012Y297515D01*
X208288Y298791D01*
X208979Y300458D01*
Y302263D01*
X208288Y303930D01*
X207012Y305206D01*
X205345Y305896D01*
D02*
G37*
G36*
X232523Y303102D02*
X230718D01*
X229051Y302412D01*
X227775Y301136D01*
X227085Y299469D01*
Y297664D01*
X227775Y295997D01*
X229051Y294721D01*
X230718Y294030D01*
X232523D01*
X234190Y294721D01*
X235466Y295997D01*
X236157Y297664D01*
Y299469D01*
X235466Y301136D01*
X234190Y302412D01*
X232523Y303102D01*
D02*
G37*
G36*
X247311Y301611D02*
X245507D01*
X243840Y300920D01*
X242564Y299644D01*
X241873Y297977D01*
Y296173D01*
X242564Y294505D01*
X243840Y293229D01*
X245507Y292539D01*
X247311D01*
X248979Y293229D01*
X250255Y294505D01*
X250945Y296173D01*
Y297977D01*
X250255Y299644D01*
X248979Y300920D01*
X247311Y301611D01*
D02*
G37*
G36*
X183501Y301578D02*
X181696D01*
X180029Y300888D01*
X178753Y299612D01*
X178063Y297945D01*
Y296140D01*
X178753Y294473D01*
X180029Y293197D01*
X181696Y292506D01*
X183501D01*
X185168Y293197D01*
X186444Y294473D01*
X187135Y296140D01*
Y297945D01*
X186444Y299612D01*
X185168Y300888D01*
X183501Y301578D01*
D02*
G37*
G36*
X549007Y360688D02*
X547202D01*
X545535Y359998D01*
X544259Y358722D01*
X543569Y357055D01*
Y355250D01*
X544259Y353583D01*
X545083Y352759D01*
X544259Y351936D01*
X543569Y350269D01*
Y348464D01*
X544259Y346797D01*
X545535Y345521D01*
X547202Y344830D01*
X549007D01*
X550674Y345521D01*
X551950Y346797D01*
X552641Y348464D01*
Y350269D01*
X551950Y351936D01*
X551127Y352759D01*
X551950Y353583D01*
X552641Y355250D01*
Y357055D01*
X551950Y358722D01*
X550674Y359998D01*
X549007Y360688D01*
D02*
G37*
G36*
X531735Y344758D02*
X529930D01*
X528263Y344068D01*
X526987Y342792D01*
X526297Y341125D01*
Y339320D01*
X526987Y337653D01*
X528263Y336377D01*
X529930Y335686D01*
X531735D01*
X533402Y336377D01*
X534678Y337653D01*
X535369Y339320D01*
Y341125D01*
X534678Y342792D01*
X533402Y344068D01*
X531735Y344758D01*
D02*
G37*
G36*
X518431Y344214D02*
X516626D01*
X514959Y343524D01*
X513683Y342248D01*
X512993Y340581D01*
Y338776D01*
X513683Y337109D01*
X514959Y335833D01*
X516626Y335142D01*
X518431D01*
X520098Y335833D01*
X521374Y337109D01*
X522065Y338776D01*
Y340581D01*
X521374Y342248D01*
X520098Y343524D01*
X518431Y344214D01*
D02*
G37*
G36*
X545481Y317752D02*
X543676D01*
X542009Y317062D01*
X540733Y315786D01*
X540043Y314119D01*
Y312314D01*
X540733Y310647D01*
X542009Y309371D01*
X543676Y308680D01*
X545481D01*
X547148Y309371D01*
X548424Y310647D01*
X549115Y312314D01*
Y314119D01*
X548424Y315786D01*
X547148Y317062D01*
X545481Y317752D01*
D02*
G37*
G36*
X137030Y213772D02*
X135226D01*
X133559Y213081D01*
X132283Y211805D01*
X131592Y210138D01*
Y208334D01*
X132283Y206667D01*
X133559Y205391D01*
X135226Y204700D01*
X137030D01*
X138697Y205391D01*
X139973Y206667D01*
X140664Y208334D01*
Y210138D01*
X139973Y211805D01*
X138697Y213081D01*
X137030Y213772D01*
D02*
G37*
G36*
X110300Y186146D02*
X108496D01*
X106829Y185455D01*
X105553Y184179D01*
X104862Y182512D01*
Y180708D01*
X105553Y179041D01*
X106829Y177765D01*
X108496Y177074D01*
X110300D01*
X111967Y177765D01*
X113243Y179041D01*
X113934Y180708D01*
Y182512D01*
X113243Y184179D01*
X111967Y185455D01*
X110300Y186146D01*
D02*
G37*
G36*
X127286Y181968D02*
X124699D01*
X122200Y181299D01*
X119959Y180005D01*
X118130Y178176D01*
X116836Y175935D01*
X116167Y173436D01*
Y170849D01*
X116836Y168350D01*
X118130Y166109D01*
X119959Y164280D01*
X122200Y162986D01*
X124699Y162316D01*
X127286D01*
X129785Y162986D01*
X132026Y164280D01*
X133855Y166109D01*
X135149Y168350D01*
X135819Y170849D01*
Y173436D01*
X135149Y175935D01*
X133855Y178176D01*
X132026Y180005D01*
X129785Y181299D01*
X127286Y181968D01*
D02*
G37*
G36*
X128895Y152734D02*
X127090D01*
X125423Y152044D01*
X124147Y150768D01*
X123457Y149101D01*
Y147296D01*
X124147Y145629D01*
X125423Y144353D01*
X127090Y143662D01*
X128895D01*
X130562Y144353D01*
X131838Y145629D01*
X132529Y147296D01*
Y149101D01*
X131838Y150768D01*
X130562Y152044D01*
X128895Y152734D01*
D02*
G37*
G36*
X129350Y120106D02*
X127546D01*
X125879Y119415D01*
X124603Y118139D01*
X123912Y116472D01*
Y115358D01*
X123912Y114668D01*
X122739Y114184D01*
X122212D01*
X120545Y113494D01*
X119269Y112218D01*
X118578Y110551D01*
Y108746D01*
X119269Y107079D01*
X120545Y105803D01*
X122212Y105112D01*
X124016D01*
X125683Y105803D01*
X126959Y107079D01*
X127650Y108746D01*
Y109861D01*
X127650Y110551D01*
X128823Y111034D01*
X129350D01*
X131017Y111725D01*
X132293Y113001D01*
X132984Y114668D01*
Y116472D01*
X132293Y118139D01*
X131017Y119415D01*
X129350Y120106D01*
D02*
G37*
G36*
X313402Y197036D02*
X311598D01*
X309931Y196345D01*
X308750Y195165D01*
X307569Y196345D01*
X305902Y197036D01*
X304098D01*
X302431Y196345D01*
X301250Y195165D01*
X300070Y196345D01*
X298402Y197036D01*
X296598D01*
X294931Y196345D01*
X293655Y195069D01*
X292964Y193402D01*
Y191598D01*
X293626Y190000D01*
X292964Y188402D01*
Y186598D01*
X293655Y184931D01*
X294931Y183655D01*
X296598Y182964D01*
X298402D01*
X300070Y183655D01*
X301250Y184835D01*
X302431Y183655D01*
X304098Y182964D01*
X305902D01*
X307569Y183655D01*
X308750Y184835D01*
X309931Y183655D01*
X311598Y182964D01*
X313402D01*
X315069Y183655D01*
X316345Y184931D01*
X317036Y186598D01*
Y188402D01*
X316374Y190000D01*
X317036Y191598D01*
Y193402D01*
X316345Y195069D01*
X315069Y196345D01*
X313402Y197036D01*
D02*
G37*
G36*
X179134Y190464D02*
X177330D01*
X175663Y189773D01*
X174387Y188497D01*
X173696Y186830D01*
Y185026D01*
X174387Y183359D01*
X175663Y182083D01*
X177330Y181392D01*
X179134D01*
X180801Y182083D01*
X182077Y183359D01*
X182768Y185026D01*
Y186830D01*
X182077Y188497D01*
X180801Y189773D01*
X179134Y190464D01*
D02*
G37*
G36*
X284895Y154560D02*
X283090D01*
X281423Y153870D01*
X280147Y152594D01*
X279457Y150927D01*
Y149122D01*
X280147Y147455D01*
X281423Y146179D01*
X283090Y145488D01*
X284895D01*
X286562Y146179D01*
X287838Y147455D01*
X288529Y149122D01*
Y150927D01*
X287838Y152594D01*
X286562Y153870D01*
X284895Y154560D01*
D02*
G37*
G36*
X341413Y159928D02*
X338573D01*
X335829Y159193D01*
X333370Y157773D01*
X331362Y155765D01*
X329942Y153306D01*
X329207Y150562D01*
Y147722D01*
X329942Y144979D01*
X331362Y142520D01*
X333370Y140511D01*
X335829Y139091D01*
X338573Y138356D01*
X341413D01*
X344156Y139091D01*
X346615Y140511D01*
X348624Y142520D01*
X350044Y144979D01*
X350779Y147722D01*
Y150562D01*
X350044Y153306D01*
X348624Y155765D01*
X346615Y157773D01*
X344156Y159193D01*
X341413Y159928D01*
D02*
G37*
G36*
X168293Y147391D02*
X166489D01*
X164821Y146700D01*
X163545Y145424D01*
X162855Y143757D01*
Y141953D01*
X163545Y140286D01*
X164821Y139010D01*
X166489Y138319D01*
X168293D01*
X169960Y139010D01*
X171236Y140286D01*
X171927Y141953D01*
Y143757D01*
X171236Y145424D01*
X169960Y146700D01*
X168293Y147391D01*
D02*
G37*
G36*
X241961Y168755D02*
X238359D01*
X234826Y168052D01*
X231498Y166673D01*
X228503Y164672D01*
X225956Y162125D01*
X223955Y159130D01*
X222577Y155802D01*
X221874Y152269D01*
Y148667D01*
X222577Y145135D01*
X223955Y141807D01*
X225956Y138812D01*
X228503Y136265D01*
X231498Y134264D01*
X234826Y132885D01*
X238359Y132183D01*
X241961D01*
X245494Y132885D01*
X248822Y134264D01*
X251817Y136265D01*
X254364Y138812D01*
X256365Y141807D01*
X257743Y145135D01*
X258446Y148667D01*
Y152269D01*
X257743Y155802D01*
X256365Y159130D01*
X254364Y162125D01*
X251817Y164672D01*
X248822Y166673D01*
X245494Y168052D01*
X241961Y168755D01*
D02*
G37*
G36*
X173341Y132160D02*
X171536D01*
X169869Y131470D01*
X168593Y130194D01*
X167903Y128527D01*
Y126722D01*
X168593Y125055D01*
X169869Y123779D01*
X171536Y123088D01*
X173341D01*
X175008Y123779D01*
X176284Y125055D01*
X176975Y126722D01*
Y128527D01*
X176284Y130194D01*
X175008Y131470D01*
X173341Y132160D01*
D02*
G37*
G36*
X224890Y112602D02*
X223086D01*
X221419Y111912D01*
X220143Y110636D01*
X219452Y108969D01*
Y107164D01*
X220143Y105497D01*
X221419Y104221D01*
X223086Y103530D01*
X224890D01*
X226557Y104221D01*
X227833Y105497D01*
X228524Y107164D01*
Y108969D01*
X227833Y110636D01*
X226557Y111912D01*
X224890Y112602D01*
D02*
G37*
G36*
X230237Y94568D02*
X228432D01*
X226765Y93878D01*
X225489Y92602D01*
X224799Y90935D01*
Y89130D01*
X225489Y87463D01*
X226765Y86187D01*
X228432Y85496D01*
X230237D01*
X231904Y86187D01*
X233180Y87463D01*
X233871Y89130D01*
Y90935D01*
X233180Y92602D01*
X231904Y93878D01*
X230237Y94568D01*
D02*
G37*
G36*
X217791Y93298D02*
X215986D01*
X214319Y92608D01*
X213043Y91332D01*
X212353Y89665D01*
Y87860D01*
X213043Y86193D01*
X214319Y84917D01*
X215986Y84226D01*
X217791D01*
X219458Y84917D01*
X220734Y86193D01*
X221425Y87860D01*
Y89665D01*
X220734Y91332D01*
X219458Y92608D01*
X217791Y93298D01*
D02*
G37*
G36*
X162645Y93129D02*
X160840D01*
X159173Y92438D01*
X157897Y91162D01*
X157207Y89495D01*
Y87690D01*
X157897Y86023D01*
X159173Y84747D01*
X160840Y84057D01*
X162645D01*
X164312Y84747D01*
X165588Y86023D01*
X166279Y87690D01*
Y89495D01*
X165588Y91162D01*
X164312Y92438D01*
X162645Y93129D01*
D02*
G37*
G36*
X168723Y81335D02*
X166918D01*
X165251Y80645D01*
X163975Y79369D01*
X163285Y77701D01*
Y75897D01*
X163975Y74230D01*
X165251Y72954D01*
X166918Y72263D01*
X168723D01*
X170390Y72954D01*
X171197Y73761D01*
X172274Y73042D01*
X172032Y72458D01*
Y70654D01*
X172723Y68987D01*
X173999Y67710D01*
X175666Y67020D01*
X177470D01*
X179138Y67710D01*
X180414Y68987D01*
X181104Y70654D01*
Y72458D01*
X180414Y74125D01*
X179138Y75401D01*
X177470Y76092D01*
X175666D01*
X173999Y75401D01*
X173192Y74594D01*
X172115Y75314D01*
X172357Y75897D01*
Y77701D01*
X171666Y79369D01*
X170390Y80645D01*
X168723Y81335D01*
D02*
G37*
G36*
X161052Y65281D02*
X159248D01*
X157581Y64590D01*
X156305Y63314D01*
X155614Y61647D01*
Y59842D01*
X156305Y58175D01*
X157581Y56899D01*
X159248Y56209D01*
X161052D01*
X162720Y56899D01*
X163996Y58175D01*
X164686Y59842D01*
Y61647D01*
X163996Y63314D01*
X162720Y64590D01*
X161052Y65281D01*
D02*
G37*
%LPD*%
D31*
X270343Y277116D02*
X272058Y275401D01*
X175983Y39642D02*
X185834Y49493D01*
X142311Y39642D02*
X175983D01*
X290676Y314292D02*
Y324184D01*
X297443Y330951D01*
X281864Y296147D02*
Y305480D01*
X270343Y284626D02*
X281864Y296147D01*
X270343Y277116D02*
Y284626D01*
X281864Y305480D02*
X290676Y314292D01*
X297892Y330951D02*
X384297D01*
X186740Y50619D02*
Y77763D01*
X185834Y49713D02*
X186740Y50619D01*
X183615Y80888D02*
X186740Y77763D01*
X185834Y49493D02*
Y49713D01*
X384297Y330951D02*
X384424Y330824D01*
X391387D02*
X404595Y344032D01*
X384424Y330824D02*
X391387D01*
X404595Y344032D02*
Y369432D01*
Y394832D01*
Y420232D02*
X429995Y445632D01*
X404595Y394832D02*
Y420232D01*
D32*
X172286Y411988D02*
X187122D01*
X171882Y412392D02*
X172286Y411988D01*
X105357Y329553D02*
Y336225D01*
Y329553D02*
X114302Y320608D01*
X463984Y370914D02*
X473811Y361087D01*
X463984Y373787D02*
X466475Y376279D01*
X463984Y370914D02*
Y373787D01*
X473811Y312990D02*
Y361087D01*
X139802Y294370D02*
X175382Y258790D01*
X139802Y294370D02*
Y294550D01*
X412132Y251310D02*
X473811Y312990D01*
X136370Y297802D02*
X136550D01*
X128348Y305824D02*
X136370Y297802D01*
X136550D02*
X139802Y294550D01*
X309876Y254104D02*
X312670Y251310D01*
X300788Y254104D02*
X309876D01*
X312670Y251310D02*
X412132D01*
X175382Y258790D02*
X296102D01*
X300788Y254104D01*
X114302Y315875D02*
X124353Y305824D01*
X114302Y315875D02*
Y320608D01*
X124353Y305824D02*
X128348D01*
X109929Y331447D02*
Y336225D01*
Y331447D02*
X118874Y322502D01*
X463607Y380364D02*
Y381032D01*
X462471Y379228D02*
X463607Y380364D01*
X462471Y378740D02*
Y379228D01*
X469239Y314883D02*
Y359193D01*
X459412Y369020D02*
Y375681D01*
X462471Y378740D01*
X459412Y369020D02*
X469239Y359193D01*
X177276Y263362D02*
X297995D01*
X130242Y310396D02*
X177276Y263362D01*
X410238Y255882D02*
X469239Y314883D01*
X118874Y317444D02*
X125922Y310396D01*
X130242D01*
X311770Y258675D02*
X314563Y255882D01*
X410238D01*
X297995Y263362D02*
X302682Y258675D01*
X311770D01*
X118874Y317444D02*
Y322502D01*
X228016Y73660D02*
X248385Y53291D01*
Y52694D02*
Y53291D01*
X233604Y212344D02*
X234076Y211872D01*
X235760D01*
X235970Y211662D01*
X244018Y219710D01*
X330124D01*
X334950Y214884D01*
Y197866D02*
Y214884D01*
X346058Y361696D02*
X353795Y369432D01*
X313957Y361696D02*
X346058D01*
X234112Y412496D02*
X241478Y419862D01*
X249606D02*
X253162Y423418D01*
X241478Y419862D02*
X249606D01*
X253162Y431614D02*
X264133Y442584D01*
X253162Y423418D02*
Y431614D01*
X171920Y244050D02*
X234430D01*
X171675Y254461D02*
X279127D01*
X148196Y271590D02*
X169643Y250143D01*
X224298Y249652D02*
X277830D01*
X279127Y254461D02*
X286089Y247500D01*
X140152Y285984D02*
X171675Y254461D01*
X223806Y250143D02*
X224298Y249652D01*
X169643Y250143D02*
X223806D01*
X194198Y404912D02*
X226565D01*
X234112Y412459D01*
Y412496D01*
X187122Y411988D02*
X194198Y404912D01*
X171871Y243833D02*
Y244383D01*
X171795D02*
X171871D01*
X157940Y242034D02*
X169446D01*
X171795Y244383D01*
X236398Y286258D02*
X251892Y270764D01*
X444473Y277544D02*
X478509Y311580D01*
X444473Y250306D02*
Y277544D01*
X478509Y311580D02*
Y351652D01*
X420830Y282889D02*
X442441Y304499D01*
X420830Y279402D02*
Y282889D01*
X442441Y304499D02*
Y356224D01*
X417803Y276374D02*
X420830Y279402D01*
X417803Y275706D02*
Y276374D01*
X310373Y247500D02*
X323823Y234050D01*
X286089Y247500D02*
X310373D01*
X277830Y249652D02*
X285928Y241554D01*
X138518Y261456D02*
X157940Y242034D01*
X138518Y261456D02*
Y277024D01*
X132664Y285984D02*
X140152D01*
X144768Y271590D02*
X148196D01*
X144360Y271182D02*
X144768Y271590D01*
X127112Y291536D02*
X132664Y285984D01*
X123146Y291536D02*
X127112D01*
X442441Y356224D02*
X445743Y359526D01*
X483781Y356924D02*
X483808D01*
X478509Y351652D02*
X483781Y356924D01*
D33*
X390793Y149142D02*
X465594D01*
X480536Y164084D01*
X168629Y15864D02*
X195376Y42611D01*
Y70816D01*
X146023Y15864D02*
X168629D01*
D34*
X445694Y185928D02*
Y190754D01*
X442646Y193802D02*
X445694Y190754D01*
X385693Y192521D02*
X387228Y194056D01*
X435461Y193802D02*
X442646D01*
X349709Y202279D02*
Y208164D01*
Y202279D02*
X359467Y192521D01*
X385693D01*
X387228Y194056D02*
X435206D01*
X435461Y193802D01*
X349223Y208650D02*
X349709Y208164D01*
X349223Y208650D02*
Y234050D01*
D39*
X429995Y445632D02*
D03*
X302995Y445632D02*
D03*
D41*
X390793Y149142D02*
D03*
D42*
X323823Y234050D02*
D03*
X349223D02*
D03*
D44*
Y208650D02*
D03*
X404595Y369432D02*
D03*
Y394832D02*
D03*
X353795Y369432D02*
D03*
D46*
X404595Y344032D02*
D03*
D47*
X248385Y52694D02*
D03*
D49*
X125993Y275142D02*
D03*
Y197142D02*
D03*
D50*
X526539Y368595D02*
D03*
D52*
X496982Y339038D02*
D03*
D53*
X116002Y342646D02*
D03*
X171882Y412392D02*
D03*
X468385Y376212D02*
D03*
X463607Y381032D02*
D03*
X104250Y338000D02*
D03*
X111036D02*
D03*
X142164Y360426D02*
D03*
X113970Y373888D02*
D03*
X228016Y73660D02*
D03*
X233604Y212344D02*
D03*
X334950Y197866D02*
D03*
X272058Y275401D02*
D03*
X120000Y74342D02*
D03*
X297443Y330951D02*
D03*
X313957Y361696D02*
D03*
X480536Y164084D02*
D03*
X451000Y182000D02*
D03*
X445000D02*
D03*
X439000D02*
D03*
Y176000D02*
D03*
X445000D02*
D03*
X451000D02*
D03*
X237023Y407518D02*
D03*
X265637Y301781D02*
D03*
X171871Y244100D02*
D03*
X234430Y244050D02*
D03*
X205684Y272796D02*
D03*
X255900Y307792D02*
D03*
X251892Y270764D02*
D03*
X285928Y241554D02*
D03*
X138518Y277024D02*
D03*
X144360Y271182D02*
D03*
X123146Y291536D02*
D03*
X195376Y70816D02*
D03*
X123493Y79610D02*
D03*
X267689Y397626D02*
D03*
X264133Y442584D02*
D03*
X146023Y15864D02*
D03*
X185834Y49713D02*
D03*
X142311Y39642D02*
D03*
X130993Y79610D02*
D03*
X417803Y275706D02*
D03*
X444473Y250306D02*
D03*
X445743Y359526D02*
D03*
X483808Y356924D02*
D03*
X192454Y327573D02*
D03*
X205205Y388954D02*
D03*
X202969Y318074D02*
D03*
X164819Y358764D02*
D03*
X224509Y341238D02*
D03*
X220191Y352444D02*
D03*
X206668Y340967D02*
D03*
D54*
X467993Y268142D02*
D03*
X478993D02*
D03*
X467993Y279142D02*
D03*
X478993D02*
D03*
X467993Y290142D02*
D03*
X478993D02*
D03*
D55*
X445694Y185928D02*
D03*
M02*
