G04*
G04 #@! TF.GenerationSoftware,Altium Limited,Altium Designer,23.11.1 (41)*
G04*
G04 Layer_Physical_Order=1*
G04 Layer_Color=255*
%FSLAX44Y44*%
%MOMM*%
G71*
G04*
G04 #@! TF.SameCoordinates,7D9A12BA-FF4A-4FA1-B099-3E499341C767*
G04*
G04*
G04 #@! TF.FilePolarity,Positive*
G04*
G01*
G75*
G04:AMPARAMS|DCode=10|XSize=1mm|YSize=0.9mm|CornerRadius=0.225mm|HoleSize=0mm|Usage=FLASHONLY|Rotation=270.000|XOffset=0mm|YOffset=0mm|HoleType=Round|Shape=RoundedRectangle|*
%AMROUNDEDRECTD10*
21,1,1.0000,0.4500,0,0,270.0*
21,1,0.5500,0.9000,0,0,270.0*
1,1,0.4500,-0.2250,-0.2750*
1,1,0.4500,-0.2250,0.2750*
1,1,0.4500,0.2250,0.2750*
1,1,0.4500,0.2250,-0.2750*
%
%ADD10ROUNDEDRECTD10*%
G04:AMPARAMS|DCode=11|XSize=1mm|YSize=0.9mm|CornerRadius=0.225mm|HoleSize=0mm|Usage=FLASHONLY|Rotation=0.000|XOffset=0mm|YOffset=0mm|HoleType=Round|Shape=RoundedRectangle|*
%AMROUNDEDRECTD11*
21,1,1.0000,0.4500,0,0,0.0*
21,1,0.5500,0.9000,0,0,0.0*
1,1,0.4500,0.2750,-0.2250*
1,1,0.4500,-0.2750,-0.2250*
1,1,0.4500,-0.2750,0.2250*
1,1,0.4500,0.2750,0.2250*
%
%ADD11ROUNDEDRECTD11*%
G04:AMPARAMS|DCode=12|XSize=1.8mm|YSize=1.3mm|CornerRadius=0.325mm|HoleSize=0mm|Usage=FLASHONLY|Rotation=270.000|XOffset=0mm|YOffset=0mm|HoleType=Round|Shape=RoundedRectangle|*
%AMROUNDEDRECTD12*
21,1,1.8000,0.6500,0,0,270.0*
21,1,1.1500,1.3000,0,0,270.0*
1,1,0.6500,-0.3250,-0.5750*
1,1,0.6500,-0.3250,0.5750*
1,1,0.6500,0.3250,0.5750*
1,1,0.6500,0.3250,-0.5750*
%
%ADD12ROUNDEDRECTD12*%
G04:AMPARAMS|DCode=13|XSize=1.8mm|YSize=1.3mm|CornerRadius=0.325mm|HoleSize=0mm|Usage=FLASHONLY|Rotation=0.000|XOffset=0mm|YOffset=0mm|HoleType=Round|Shape=RoundedRectangle|*
%AMROUNDEDRECTD13*
21,1,1.8000,0.6500,0,0,0.0*
21,1,1.1500,1.3000,0,0,0.0*
1,1,0.6500,0.5750,-0.3250*
1,1,0.6500,-0.5750,-0.3250*
1,1,0.6500,-0.5750,0.3250*
1,1,0.6500,0.5750,0.3250*
%
%ADD13ROUNDEDRECTD13*%
G04:AMPARAMS|DCode=14|XSize=0.95mm|YSize=0.85mm|CornerRadius=0mm|HoleSize=0mm|Usage=FLASHONLY|Rotation=315.000|XOffset=0mm|YOffset=0mm|HoleType=Round|Shape=Rectangle|*
%AMROTATEDRECTD14*
4,1,4,-0.6364,0.0354,-0.0354,0.6364,0.6364,-0.0354,0.0354,-0.6364,-0.6364,0.0354,0.0*
%
%ADD14ROTATEDRECTD14*%

G04:AMPARAMS|DCode=15|XSize=0.95mm|YSize=0.85mm|CornerRadius=0.2125mm|HoleSize=0mm|Usage=FLASHONLY|Rotation=315.000|XOffset=0mm|YOffset=0mm|HoleType=Round|Shape=RoundedRectangle|*
%AMROUNDEDRECTD15*
21,1,0.9500,0.4250,0,0,315.0*
21,1,0.5250,0.8500,0,0,315.0*
1,1,0.4250,0.0354,-0.3359*
1,1,0.4250,-0.3359,0.0354*
1,1,0.4250,-0.0354,0.3359*
1,1,0.4250,0.3359,-0.0354*
%
%ADD15ROUNDEDRECTD15*%
G04:AMPARAMS|DCode=16|XSize=1mm|YSize=0.9mm|CornerRadius=0.225mm|HoleSize=0mm|Usage=FLASHONLY|Rotation=160.000|XOffset=0mm|YOffset=0mm|HoleType=Round|Shape=RoundedRectangle|*
%AMROUNDEDRECTD16*
21,1,1.0000,0.4500,0,0,160.0*
21,1,0.5500,0.9000,0,0,160.0*
1,1,0.4500,-0.1815,0.3055*
1,1,0.4500,0.3354,0.1174*
1,1,0.4500,0.1815,-0.3055*
1,1,0.4500,-0.3354,-0.1174*
%
%ADD16ROUNDEDRECTD16*%
%ADD17R,0.8500X0.9500*%
G04:AMPARAMS|DCode=18|XSize=0.95mm|YSize=0.85mm|CornerRadius=0.2125mm|HoleSize=0mm|Usage=FLASHONLY|Rotation=90.000|XOffset=0mm|YOffset=0mm|HoleType=Round|Shape=RoundedRectangle|*
%AMROUNDEDRECTD18*
21,1,0.9500,0.4250,0,0,90.0*
21,1,0.5250,0.8500,0,0,90.0*
1,1,0.4250,0.2125,0.2625*
1,1,0.4250,0.2125,-0.2625*
1,1,0.4250,-0.2125,-0.2625*
1,1,0.4250,-0.2125,0.2625*
%
%ADD18ROUNDEDRECTD18*%
%ADD19R,1.2000X1.0000*%
%ADD20R,0.8000X1.2000*%
G04:AMPARAMS|DCode=21|XSize=1.2mm|YSize=0.8mm|CornerRadius=0.2mm|HoleSize=0mm|Usage=FLASHONLY|Rotation=90.000|XOffset=0mm|YOffset=0mm|HoleType=Round|Shape=RoundedRectangle|*
%AMROUNDEDRECTD21*
21,1,1.2000,0.4000,0,0,90.0*
21,1,0.8000,0.8000,0,0,90.0*
1,1,0.4000,0.2000,0.4000*
1,1,0.4000,0.2000,-0.4000*
1,1,0.4000,-0.2000,-0.4000*
1,1,0.4000,-0.2000,0.4000*
%
%ADD21ROUNDEDRECTD21*%
G04:AMPARAMS|DCode=22|XSize=1.475mm|YSize=0.3mm|CornerRadius=0.075mm|HoleSize=0mm|Usage=FLASHONLY|Rotation=225.000|XOffset=0mm|YOffset=0mm|HoleType=Round|Shape=RoundedRectangle|*
%AMROUNDEDRECTD22*
21,1,1.4750,0.1500,0,0,225.0*
21,1,1.3250,0.3000,0,0,225.0*
1,1,0.1500,-0.5215,-0.4154*
1,1,0.1500,0.4154,0.5215*
1,1,0.1500,0.5215,0.4154*
1,1,0.1500,-0.4154,-0.5215*
%
%ADD22ROUNDEDRECTD22*%
G04:AMPARAMS|DCode=23|XSize=1.475mm|YSize=0.3mm|CornerRadius=0.075mm|HoleSize=0mm|Usage=FLASHONLY|Rotation=135.000|XOffset=0mm|YOffset=0mm|HoleType=Round|Shape=RoundedRectangle|*
%AMROUNDEDRECTD23*
21,1,1.4750,0.1500,0,0,135.0*
21,1,1.3250,0.3000,0,0,135.0*
1,1,0.1500,-0.4154,0.5215*
1,1,0.1500,0.5215,-0.4154*
1,1,0.1500,0.4154,-0.5215*
1,1,0.1500,-0.5215,0.4154*
%
%ADD23ROUNDEDRECTD23*%
G04:AMPARAMS|DCode=24|XSize=1.475mm|YSize=0.3mm|CornerRadius=0mm|HoleSize=0mm|Usage=FLASHONLY|Rotation=135.000|XOffset=0mm|YOffset=0mm|HoleType=Round|Shape=Round|*
%AMOVALD24*
21,1,1.1750,0.3000,0.0000,0.0000,135.0*
1,1,0.3000,0.4154,-0.4154*
1,1,0.3000,-0.4154,0.4154*
%
%ADD24OVALD24*%

G04:AMPARAMS|DCode=25|XSize=1.475mm|YSize=0.3mm|CornerRadius=0mm|HoleSize=0mm|Usage=FLASHONLY|Rotation=135.000|XOffset=0mm|YOffset=0mm|HoleType=Round|Shape=Rectangle|*
%AMROTATEDRECTD25*
4,1,4,0.6276,-0.4154,0.4154,-0.6276,-0.6276,0.4154,-0.4154,0.6276,0.6276,-0.4154,0.0*
%
%ADD25ROTATEDRECTD25*%

%ADD26C,0.9906*%
G04:AMPARAMS|DCode=27|XSize=1.5mm|YSize=3.5mm|CornerRadius=0mm|HoleSize=0mm|Usage=FLASHONLY|Rotation=225.000|XOffset=0mm|YOffset=0mm|HoleType=Round|Shape=Rectangle|*
%AMROTATEDRECTD27*
4,1,4,-0.7071,1.7678,1.7678,-0.7071,0.7071,-1.7678,-1.7678,0.7071,-0.7071,1.7678,0.0*
%
%ADD27ROTATEDRECTD27*%

G04:AMPARAMS|DCode=28|XSize=1.5mm|YSize=3.5mm|CornerRadius=0.375mm|HoleSize=0mm|Usage=FLASHONLY|Rotation=225.000|XOffset=0mm|YOffset=0mm|HoleType=Round|Shape=RoundedRectangle|*
%AMROUNDEDRECTD28*
21,1,1.5000,2.7500,0,0,225.0*
21,1,0.7500,3.5000,0,0,225.0*
1,1,0.7500,-1.2374,0.7071*
1,1,0.7500,-0.7071,1.2374*
1,1,0.7500,1.2374,-0.7071*
1,1,0.7500,0.7071,-1.2374*
%
%ADD28ROUNDEDRECTD28*%
G04:AMPARAMS|DCode=29|XSize=1mm|YSize=0.9mm|CornerRadius=0.225mm|HoleSize=0mm|Usage=FLASHONLY|Rotation=135.000|XOffset=0mm|YOffset=0mm|HoleType=Round|Shape=RoundedRectangle|*
%AMROUNDEDRECTD29*
21,1,1.0000,0.4500,0,0,135.0*
21,1,0.5500,0.9000,0,0,135.0*
1,1,0.4500,-0.0354,0.3536*
1,1,0.4500,0.3536,-0.0354*
1,1,0.4500,0.0354,-0.3536*
1,1,0.4500,-0.3536,0.0354*
%
%ADD29ROUNDEDRECTD29*%
%ADD30C,1.5000*%
%ADD31C,0.6350*%
%ADD32C,0.2032*%
%ADD33C,0.3048*%
%ADD34C,1.2700*%
%ADD35C,0.2540*%
%ADD36C,0.4318*%
%ADD37C,1.0160*%
%ADD38C,0.5080*%
%ADD39C,1.3716*%
%ADD40C,1.7000*%
%ADD41R,1.7000X1.7000*%
%ADD42C,1.8000*%
%ADD43R,1.8000X1.8000*%
%ADD44C,1.5240*%
%ADD45R,1.4986X1.4986*%
%ADD46R,1.4986X1.4986*%
%ADD47C,1.5080*%
%ADD48R,1.5080X1.5080*%
%ADD49R,1.5080X1.5080*%
G04:AMPARAMS|DCode=50|XSize=1mm|YSize=1.6mm|CornerRadius=0mm|HoleSize=0mm|Usage=FLASHONLY|Rotation=135.000|XOffset=0mm|YOffset=0mm|HoleType=Round|Shape=Round|*
%AMOVALD50*
21,1,0.6000,1.0000,0.0000,0.0000,225.0*
1,1,1.0000,0.2121,0.2121*
1,1,1.0000,-0.2121,-0.2121*
%
%ADD50OVALD50*%

%ADD51C,0.6750*%
G04:AMPARAMS|DCode=52|XSize=1mm|YSize=2.1mm|CornerRadius=0mm|HoleSize=0mm|Usage=FLASHONLY|Rotation=135.000|XOffset=0mm|YOffset=0mm|HoleType=Round|Shape=Round|*
%AMOVALD52*
21,1,1.1000,1.0000,0.0000,0.0000,225.0*
1,1,1.0000,0.3889,0.3889*
1,1,1.0000,-0.3889,-0.3889*
%
%ADD52OVALD52*%

%ADD53C,0.4500*%
%ADD54C,0.5000*%
G36*
X469062Y453095D02*
X468301Y452334D01*
X467859Y451673D01*
X467704Y450892D01*
X467859Y450112D01*
X468301Y449450D01*
X468301Y449450D01*
X540993Y376759D01*
Y354990D01*
X540993Y320588D01*
X528737D01*
Y306516D01*
X540993D01*
Y300026D01*
X537510Y296543D01*
X533875D01*
Y298750D01*
X533523Y300520D01*
X532520Y302020D01*
X531020Y303023D01*
X529250Y303375D01*
X523750D01*
X521980Y303023D01*
X520480Y302020D01*
X519689Y300836D01*
X519611Y300808D01*
X518538Y300768D01*
X518277Y300836D01*
X517549Y301927D01*
X516049Y302929D01*
X514279Y303281D01*
X508779D01*
X507009Y302929D01*
X505508Y301927D01*
X504506Y300426D01*
X504154Y298656D01*
Y297274D01*
X502884Y296892D01*
X501997Y297485D01*
X501438Y297596D01*
X501279Y298394D01*
X500277Y299895D01*
X498777Y300897D01*
X497007Y301249D01*
X494133D01*
X493095Y302519D01*
X493189Y302992D01*
Y310821D01*
X493325Y310847D01*
X494825Y311850D01*
X495827Y313351D01*
X496180Y315120D01*
Y320620D01*
X495827Y322390D01*
X494825Y323891D01*
X493325Y324893D01*
X491555Y325245D01*
X487055D01*
X485285Y324893D01*
X483784Y323891D01*
X482782Y322390D01*
X482430Y320620D01*
Y315120D01*
X482782Y313351D01*
X483784Y311850D01*
X485285Y310847D01*
X485420Y310821D01*
Y304601D01*
X483130Y302312D01*
X481861Y302838D01*
Y303447D01*
X481170Y305114D01*
X479894Y306390D01*
X478227Y307080D01*
X476422D01*
X474755Y306390D01*
X473479Y305114D01*
X472789Y303447D01*
Y301642D01*
X473479Y299975D01*
X474755Y298699D01*
X476422Y298008D01*
X478227D01*
X479894Y298699D01*
X480292Y299097D01*
X481562Y298571D01*
Y267282D01*
X478860Y264579D01*
X478859Y264579D01*
X474951Y260671D01*
X474109Y259411D01*
X473813Y257924D01*
Y240845D01*
X474109Y239358D01*
X474951Y238098D01*
X481736Y231313D01*
Y229147D01*
X481727Y229137D01*
X481036Y227470D01*
Y225666D01*
X481727Y223999D01*
X481736Y223989D01*
Y216698D01*
X477335D01*
Y202126D01*
X493907D01*
Y216698D01*
X489505D01*
Y224211D01*
X490108Y225666D01*
Y227470D01*
X489505Y228925D01*
Y232922D01*
X489210Y234409D01*
X488368Y235669D01*
X481583Y242454D01*
Y247674D01*
X482639Y248380D01*
X483212Y248142D01*
X485017D01*
X486421Y248724D01*
X486454Y248718D01*
X490830D01*
X490860Y248688D01*
X491952Y247958D01*
X493241Y247702D01*
X494777D01*
Y243782D01*
X508632D01*
X509374Y242752D01*
X484549Y168278D01*
X483324Y167843D01*
X483096Y167933D01*
X481438Y168620D01*
X479634D01*
X477967Y167929D01*
X476691Y166653D01*
X476000Y164986D01*
X475543Y164666D01*
X473518Y165403D01*
X471735Y165678D01*
X469982Y165249D01*
X468527Y164182D01*
X467591Y162639D01*
X466051Y158410D01*
X465777Y156627D01*
X466206Y154874D01*
X467273Y153419D01*
X468816Y152483D01*
X473984Y150601D01*
X475768Y150327D01*
X477357Y150716D01*
X477903Y150350D01*
X478398Y149825D01*
X477142Y146055D01*
X475824Y146096D01*
X474757Y147551D01*
X473214Y148487D01*
X468046Y150368D01*
X466263Y150642D01*
X464510Y150214D01*
X463054Y149146D01*
X462118Y147604D01*
X461302Y145363D01*
X453712D01*
X453620Y145824D01*
X452645Y147283D01*
X451186Y148258D01*
X449465Y148600D01*
X445215D01*
X443494Y148258D01*
X442035Y147283D01*
X441060Y145824D01*
X440718Y144103D01*
Y138853D01*
X441060Y137132D01*
X441473Y136514D01*
X440794Y135244D01*
X437376D01*
Y148514D01*
X424304D01*
Y145363D01*
X407340D01*
X405853Y145067D01*
X404593Y144225D01*
X402752Y142384D01*
X401579Y142870D01*
Y159928D01*
X380007D01*
Y140283D01*
X348183D01*
X347422Y141318D01*
X348624Y142520D01*
X350044Y144979D01*
X350779Y147722D01*
Y150562D01*
X350044Y153306D01*
X348624Y155765D01*
X346615Y157773D01*
X344156Y159193D01*
X341413Y159928D01*
X338573D01*
X335829Y159193D01*
X333370Y157773D01*
X331362Y155765D01*
X329942Y153306D01*
X329207Y150562D01*
Y147722D01*
X329942Y144979D01*
X331362Y142520D01*
X333370Y140511D01*
X335829Y139091D01*
X338573Y138356D01*
X339256D01*
X339915Y137369D01*
X340867Y136418D01*
X340381Y135244D01*
X299626D01*
X284453D01*
X283455Y134247D01*
X282178D01*
X282178Y134247D01*
X281398Y134091D01*
X280736Y133649D01*
X280736Y133649D01*
X275181Y128095D01*
X274629Y127542D01*
X274187Y126881D01*
X274032Y126100D01*
Y2039D01*
X207678D01*
X207350Y2573D01*
X207138Y3309D01*
X208015Y4622D01*
X208368Y6392D01*
Y11892D01*
X208015Y13662D01*
X207013Y15163D01*
X205854Y15937D01*
X205792Y16154D01*
Y17131D01*
X205854Y17348D01*
X207013Y18122D01*
X208015Y19622D01*
X208142Y20258D01*
X215515D01*
X217001Y20553D01*
X218262Y21395D01*
X218902Y22036D01*
X220474Y22687D01*
X221750Y23963D01*
X222441Y25630D01*
Y27435D01*
X221750Y29102D01*
X220474Y30378D01*
X218807Y31068D01*
X217002D01*
X215335Y30378D01*
X214059Y29102D01*
X213614Y28027D01*
X208142D01*
X208015Y28662D01*
X207013Y30163D01*
X205854Y30937D01*
X205792Y31154D01*
Y32131D01*
X205854Y32348D01*
X207013Y33122D01*
X208015Y34622D01*
X208245Y35776D01*
X212227D01*
X212705Y35297D01*
X214372Y34606D01*
X216177D01*
X217844Y35297D01*
X219120Y36573D01*
X219811Y38240D01*
Y40045D01*
X219120Y41712D01*
X217844Y42988D01*
X216177Y43678D01*
X214372D01*
X212705Y42988D01*
X212227Y42509D01*
X208245D01*
X208015Y43662D01*
X207013Y45163D01*
X205513Y46165D01*
X203743Y46517D01*
X199243D01*
X197473Y46165D01*
X195972Y45163D01*
X194970Y43662D01*
X194618Y41892D01*
Y40810D01*
X193847Y40656D01*
X192754Y39927D01*
X191140Y38312D01*
X190410Y37220D01*
X190154Y35932D01*
Y32148D01*
X188884Y31290D01*
X187743Y31517D01*
X183243D01*
X181473Y31165D01*
X179972Y30163D01*
X178970Y28662D01*
X178948Y28552D01*
X177600Y28284D01*
X177013Y29163D01*
X175513Y30165D01*
X173743Y30517D01*
X168243D01*
X166473Y30165D01*
X164972Y29163D01*
X163970Y27662D01*
X163618Y25892D01*
Y21392D01*
X163970Y19622D01*
X164972Y18122D01*
X166473Y17119D01*
X168243Y16767D01*
X173743D01*
X175513Y17119D01*
X177013Y18122D01*
X177787Y19281D01*
X178004Y19343D01*
X178981D01*
X179198Y19281D01*
X179972Y18122D01*
X181131Y17348D01*
X181194Y17131D01*
Y16154D01*
X181131Y15937D01*
X179972Y15163D01*
X178970Y13662D01*
X178618Y11892D01*
Y6392D01*
X178970Y4622D01*
X179847Y3309D01*
X179635Y2573D01*
X179307Y2039D01*
X161224D01*
X160740Y3309D01*
X161523Y4480D01*
X161875Y6250D01*
Y11750D01*
X161523Y13520D01*
X160520Y15020D01*
X159020Y16023D01*
X157250Y16375D01*
X156684D01*
X156299Y17645D01*
X157013Y18122D01*
X158015Y19622D01*
X158368Y21392D01*
Y25892D01*
X158015Y27662D01*
X157013Y29163D01*
X155513Y30165D01*
X153743Y30517D01*
X148243D01*
X146473Y30165D01*
X144972Y29163D01*
X143970Y27662D01*
X143618Y25892D01*
Y21761D01*
X143554Y21697D01*
X142712Y20437D01*
X142416Y18950D01*
Y18672D01*
X142177Y18434D01*
X141487Y16767D01*
Y14962D01*
X142177Y13295D01*
X143453Y12019D01*
X145026Y11367D01*
X147096Y9297D01*
X148125Y8610D01*
Y6250D01*
X148477Y4480D01*
X149260Y3309D01*
X148776Y2039D01*
X140516D01*
X102039Y68728D01*
Y118540D01*
X103212Y119026D01*
X105185Y117053D01*
X105125Y116750D01*
Y112250D01*
X105477Y110480D01*
X106480Y108980D01*
X107980Y107977D01*
X109133Y107748D01*
Y105553D01*
X108355Y105398D01*
X106855Y104395D01*
X105852Y102895D01*
X105500Y101125D01*
Y96625D01*
X105852Y94855D01*
X106855Y93355D01*
X108355Y92352D01*
X110125Y92000D01*
X115625D01*
X117395Y92352D01*
X118895Y93355D01*
X119898Y94855D01*
X120250Y96625D01*
Y101125D01*
X119898Y102895D01*
X118895Y104395D01*
X117395Y105398D01*
X115867Y105702D01*
Y107748D01*
X117020Y107977D01*
X117413Y108240D01*
X118985Y107763D01*
X119269Y107079D01*
X120545Y105803D01*
X122212Y105112D01*
X124016D01*
X125683Y105803D01*
X125690Y105809D01*
X126960Y105283D01*
Y103400D01*
X127389Y101240D01*
X128613Y99409D01*
X130444Y98185D01*
X132604Y97756D01*
X132786D01*
Y96078D01*
X132123Y95086D01*
X131699Y92956D01*
Y86568D01*
X131931Y85401D01*
X130906Y84146D01*
X130090D01*
X128518Y83495D01*
X125967D01*
X124395Y84146D01*
X122590D01*
X121520Y83703D01*
X120250Y84442D01*
Y85125D01*
X119898Y86895D01*
X118895Y88395D01*
X117395Y89398D01*
X115625Y89750D01*
X110125D01*
X108355Y89398D01*
X106855Y88395D01*
X105852Y86895D01*
X105500Y85125D01*
Y80625D01*
X105852Y78855D01*
X106855Y77355D01*
X108355Y76352D01*
X110125Y76000D01*
X112950D01*
X113156Y75693D01*
X115503Y73345D01*
X116155Y71773D01*
X117431Y70497D01*
X119098Y69806D01*
X120902D01*
X122570Y70497D01*
X123845Y71773D01*
X124316Y72910D01*
X125962Y74555D01*
X126744Y75726D01*
X128518D01*
X130090Y75074D01*
X131895D01*
X133562Y75765D01*
X133645Y75847D01*
X134818Y75361D01*
Y41567D01*
X135242Y39436D01*
X136449Y37630D01*
X138373Y35705D01*
X140180Y34498D01*
X142311Y34074D01*
X145044D01*
X146473Y33119D01*
X148243Y32767D01*
X153743D01*
X155513Y33119D01*
X157013Y34122D01*
X158015Y35622D01*
X158368Y37392D01*
Y41892D01*
X158015Y43662D01*
X157013Y45163D01*
X156469Y45526D01*
X156747Y46868D01*
X158013Y47119D01*
X159513Y48122D01*
X160515Y49622D01*
X160868Y51392D01*
Y52497D01*
X160937Y52543D01*
X162207Y51864D01*
Y50856D01*
X174779D01*
Y67428D01*
X162207D01*
Y67428D01*
X162138Y67422D01*
X160868Y68583D01*
Y70634D01*
X162870Y72637D01*
X166017D01*
X166918Y72263D01*
X168723D01*
X170390Y72954D01*
X171666Y74230D01*
X172357Y75897D01*
Y77701D01*
X171666Y79369D01*
X170390Y80645D01*
X168723Y81335D01*
X166918D01*
X165251Y80645D01*
X165013Y80406D01*
X161261D01*
X159775Y80110D01*
X158514Y79268D01*
X155764Y76517D01*
X150743D01*
X148973Y76165D01*
X147472Y75163D01*
X147224Y74791D01*
X145954Y75176D01*
Y83449D01*
X145530Y85580D01*
X144323Y87386D01*
X142835Y88874D01*
Y90920D01*
X143498Y91911D01*
X143922Y94042D01*
Y97756D01*
X144104D01*
X144344Y97803D01*
X152998D01*
X154017Y96785D01*
X154094Y96733D01*
X156911Y93916D01*
X158411Y92913D01*
X160181Y92561D01*
X161141Y92752D01*
X162221Y91672D01*
X164027Y90465D01*
X166158Y90042D01*
X169495D01*
X171268Y88857D01*
X172361Y88640D01*
Y86706D01*
X172785Y84575D01*
X173992Y82769D01*
X178618Y78143D01*
Y76392D01*
X178970Y74623D01*
X179972Y73122D01*
X181473Y72119D01*
X183243Y71767D01*
X187743D01*
X189513Y72119D01*
X189677Y72229D01*
X190230Y71986D01*
X190840Y71479D01*
Y69914D01*
X191530Y68246D01*
X192806Y66970D01*
X194474Y66280D01*
X196278D01*
X197945Y66970D01*
X199221Y68246D01*
X199912Y69914D01*
Y71718D01*
X199221Y73385D01*
X197945Y74661D01*
X196278Y75352D01*
X194474D01*
X193364Y74892D01*
X192241Y75755D01*
X192368Y76392D01*
Y81892D01*
X192015Y83662D01*
X191013Y85163D01*
X189513Y86165D01*
X187743Y86517D01*
X185992D01*
X183839Y88670D01*
X183919Y90081D01*
X185143Y91912D01*
X185572Y94072D01*
Y105572D01*
X185143Y107732D01*
X183919Y109563D01*
X182088Y110787D01*
X179928Y111216D01*
X173428D01*
X171268Y110787D01*
X169437Y109563D01*
X168213Y107732D01*
X167784Y105572D01*
Y104203D01*
X167014Y103825D01*
D01*
X166514Y103758D01*
X165690Y104582D01*
X165639Y104659D01*
X165562Y104711D01*
X162744Y107528D01*
X161244Y108530D01*
X159474Y108882D01*
X157704Y108530D01*
X157302Y108710D01*
X156803Y109642D01*
X157026Y110180D01*
Y111985D01*
X156336Y113652D01*
X155060Y114928D01*
X153393Y115618D01*
X151588D01*
X149921Y114928D01*
X149327Y114334D01*
X148164Y113916D01*
X147574Y114240D01*
X146264Y115115D01*
X144104Y115544D01*
X136348D01*
X132385Y119507D01*
X130579Y120714D01*
X128448Y121138D01*
X126317Y120714D01*
X124511Y119507D01*
X123304Y117701D01*
X122880Y115570D01*
X122971Y115110D01*
X122212Y114184D01*
X121145Y113742D01*
X119875Y114483D01*
Y116750D01*
X119523Y118520D01*
X118520Y120020D01*
X117020Y121023D01*
X115250Y121375D01*
X110386D01*
X106383Y125379D01*
Y140627D01*
X106624Y140868D01*
X107301D01*
X108968Y141559D01*
X110244Y142835D01*
X110935Y144502D01*
Y146307D01*
X110244Y147974D01*
X108968Y149250D01*
X107301Y149940D01*
X105496D01*
X103829Y149250D01*
X103309Y148730D01*
X102039Y149256D01*
Y154940D01*
X137324D01*
X137593Y154385D01*
X137713Y153670D01*
X136589Y152546D01*
X135899Y150879D01*
Y149074D01*
X136589Y147407D01*
X137865Y146131D01*
X139532Y145440D01*
X141337D01*
X143004Y146131D01*
X144280Y147407D01*
X144971Y149074D01*
Y150879D01*
X144280Y152546D01*
X143156Y153670D01*
X143277Y154385D01*
X143545Y154940D01*
X158680D01*
Y142855D01*
X158977Y140601D01*
X159847Y138500D01*
X161232Y136696D01*
X163036Y135311D01*
X165136Y134441D01*
X165983Y134330D01*
X166521Y132978D01*
X166074Y132428D01*
X155977D01*
Y115856D01*
X168549D01*
Y116713D01*
X168957D01*
X170880Y116966D01*
X172671Y117708D01*
X174210Y118889D01*
X177692Y122371D01*
X178873Y123910D01*
X179615Y125701D01*
X179868Y127624D01*
X179615Y129547D01*
X178873Y131339D01*
X177692Y132878D01*
X176153Y134059D01*
X174362Y134801D01*
D01*
X173342Y134935D01*
X172986Y136263D01*
X173550Y136696D01*
X174934Y138500D01*
X175805Y140601D01*
X176101Y142855D01*
Y154940D01*
Y165619D01*
X175805Y167873D01*
X174934Y169974D01*
X173550Y171778D01*
X166111Y179217D01*
X164307Y180602D01*
X162206Y181472D01*
X159951Y181769D01*
X158723D01*
Y182083D01*
X153371Y182083D01*
X135819Y199635D01*
Y204700D01*
X137030D01*
X138697Y205391D01*
X139973Y206667D01*
X140664Y208334D01*
Y210138D01*
X139973Y211805D01*
X138697Y213081D01*
X137030Y213772D01*
X135226D01*
X134544Y214228D01*
X134544Y236474D01*
X143072Y245002D01*
X150611Y252542D01*
X152056Y252190D01*
X152475Y251177D01*
X153751Y249901D01*
X155419Y249210D01*
X157223D01*
X158890Y249901D01*
X160166Y251177D01*
X160857Y252844D01*
Y254649D01*
X160166Y256316D01*
X159688Y256795D01*
Y261618D01*
X171120Y273050D01*
X213792Y273050D01*
X217269Y276527D01*
X218847Y276309D01*
X219368Y275528D01*
X220869Y274526D01*
X222639Y274173D01*
X227139D01*
X228909Y274526D01*
X230409Y275528D01*
X231411Y277029D01*
X231763Y278798D01*
Y283662D01*
X238463Y290361D01*
X241317D01*
X242605Y290618D01*
X243698Y291347D01*
X245070Y292720D01*
X245507Y292539D01*
X247311D01*
X248979Y293229D01*
X250255Y294505D01*
X250945Y296173D01*
Y297977D01*
X250764Y298414D01*
X250940Y298589D01*
X251669Y299681D01*
X251926Y300970D01*
Y304514D01*
X251669Y305802D01*
X250940Y306895D01*
X243610Y314224D01*
X242518Y314953D01*
X241230Y315210D01*
X241151D01*
X238959Y317402D01*
X239071Y318539D01*
X240131Y319600D01*
X240802Y320604D01*
X241038Y321789D01*
X240802Y322973D01*
X240131Y323978D01*
X230762Y333347D01*
X229758Y334018D01*
X229329Y334103D01*
X225909Y337523D01*
X224816Y338253D01*
X223801Y338455D01*
X223444Y338812D01*
Y344678D01*
X225911Y347145D01*
X226573Y346901D01*
X227085Y346523D01*
Y344908D01*
X227775Y343241D01*
X228254Y342762D01*
Y341192D01*
X228510Y339904D01*
X229240Y338811D01*
X231639Y336413D01*
X231724Y335984D01*
X232395Y334979D01*
X241764Y325610D01*
X242768Y324939D01*
X243953Y324704D01*
X245138Y324939D01*
X246142Y325610D01*
X247141Y326610D01*
X248466Y326656D01*
X258086Y317037D01*
Y306887D01*
X257704Y306506D01*
X256974Y305413D01*
X256718Y304125D01*
Y296099D01*
X213668Y253049D01*
X209532D01*
X208244Y252792D01*
X207152Y252063D01*
X192057Y236968D01*
X177167D01*
Y217316D01*
X196819D01*
Y232207D01*
X210927Y246315D01*
X215062D01*
X216350Y246572D01*
X217443Y247301D01*
X262465Y292324D01*
X263195Y293416D01*
X263451Y294705D01*
Y302731D01*
X263833Y303112D01*
X264563Y304204D01*
X264819Y305493D01*
Y318431D01*
X264563Y319720D01*
X263833Y320812D01*
X255805Y328839D01*
X256223Y330218D01*
X256536Y330280D01*
X257629Y331010D01*
X258177Y331558D01*
X258798Y331973D01*
X258801Y331976D01*
X260611D01*
X269568Y323018D01*
X269074Y322162D01*
X268451Y319836D01*
Y317428D01*
X269074Y315103D01*
X270278Y313018D01*
X271980Y311315D01*
X274065Y310112D01*
X276391Y309488D01*
X277038D01*
Y293293D01*
X275865Y292806D01*
X274566Y294105D01*
X273066Y295107D01*
X271296Y295460D01*
X269526Y295107D01*
X268026Y294105D01*
X264844Y290923D01*
X263841Y289423D01*
X263489Y287653D01*
X263841Y285883D01*
X264844Y284382D01*
X268733Y280493D01*
X269000Y280315D01*
X269017Y278776D01*
X268212Y277971D01*
X267522Y276304D01*
Y274499D01*
X268212Y272832D01*
X268903Y272141D01*
Y269982D01*
X266030Y267109D01*
X265028Y265609D01*
X264776Y264344D01*
X253481Y253049D01*
X245633Y245201D01*
X243266Y244567D01*
X240693Y243081D01*
X240044Y242432D01*
X238972Y243144D01*
X238966Y243150D01*
Y244953D01*
X238275Y246620D01*
X236999Y247896D01*
X235332Y248586D01*
X233527D01*
X231860Y247896D01*
X230584Y246620D01*
X229894Y244953D01*
Y243148D01*
X230584Y241481D01*
X231860Y240205D01*
X233527Y239514D01*
X235332D01*
X236576Y240030D01*
X237461Y239021D01*
X237106Y238407D01*
X236472Y236040D01*
X236353Y235921D01*
X236417Y235837D01*
X236337Y235536D01*
Y232565D01*
X237106Y229694D01*
X238592Y227121D01*
X240693Y225019D01*
X243266Y223533D01*
X246137Y222764D01*
X249109D01*
X251979Y223533D01*
X254552Y225019D01*
X256654Y227121D01*
X258139Y229694D01*
X258909Y232565D01*
Y235536D01*
X258828Y235837D01*
X259601Y236844D01*
X261044D01*
X261817Y235837D01*
X261737Y235536D01*
Y232565D01*
X262506Y229694D01*
X263992Y227121D01*
X266093Y225019D01*
X268666Y223533D01*
X271537Y222764D01*
X274508D01*
X277379Y223533D01*
X279952Y225019D01*
X282054Y227121D01*
X283540Y229694D01*
X284309Y232565D01*
Y235536D01*
X284228Y235837D01*
X285001Y236844D01*
X286444D01*
X287217Y235837D01*
X287137Y235536D01*
Y232565D01*
X287906Y229694D01*
X289392Y227121D01*
X291493Y225019D01*
X294066Y223533D01*
X296937Y222764D01*
X299909D01*
X302779Y223533D01*
X304519Y224538D01*
X305352Y225019D01*
X307454Y227121D01*
X308939Y229694D01*
X309709Y232565D01*
Y235536D01*
X308939Y238407D01*
X307454Y240980D01*
X305352Y243081D01*
X302779Y244567D01*
X301789Y244832D01*
Y246649D01*
X302464Y247659D01*
X302721Y248948D01*
Y307905D01*
X302658Y308218D01*
X303678Y309488D01*
X304199D01*
X306524Y310112D01*
X308609Y311315D01*
X310312Y313018D01*
X311516Y315103D01*
X312139Y317428D01*
Y319836D01*
X311516Y322162D01*
X310312Y324247D01*
X308609Y325949D01*
X306524Y327153D01*
X304199Y327776D01*
X302342D01*
X301569Y328859D01*
X301541Y328993D01*
X301979Y330049D01*
Y331854D01*
X301288Y333521D01*
X300012Y334797D01*
X298345Y335487D01*
X298235D01*
X298174Y344347D01*
X299068Y345248D01*
X300243D01*
X302403Y345677D01*
X304234Y346901D01*
X305457Y348732D01*
X305887Y350892D01*
Y362392D01*
X305457Y364552D01*
X304234Y366384D01*
X303604Y366805D01*
Y368075D01*
X303807Y368211D01*
X305031Y370042D01*
X305460Y372202D01*
Y383702D01*
X305031Y385862D01*
X303807Y387693D01*
X301976Y388917D01*
X299816Y389346D01*
X298649D01*
Y391761D01*
X299350Y392420D01*
X299835Y392644D01*
X300266Y392466D01*
X302070D01*
X303737Y393157D01*
X305013Y394433D01*
X305704Y396100D01*
Y397904D01*
X305013Y399571D01*
X303737Y400847D01*
X302070Y401538D01*
X300266D01*
X299657Y401286D01*
X298387Y402135D01*
Y407392D01*
X297957Y409552D01*
X297718Y409910D01*
X297418Y453204D01*
X298680Y454268D01*
X317331D01*
Y453035D01*
X317754Y450904D01*
X318962Y449098D01*
X319668Y448392D01*
X319251Y446836D01*
Y444428D01*
X319874Y442103D01*
X321078Y440018D01*
X322780Y438315D01*
X324865Y437112D01*
X327191Y436488D01*
X329599D01*
X331924Y437112D01*
X334009Y438315D01*
X335712Y440018D01*
X336916Y442103D01*
X337539Y444428D01*
Y446836D01*
X336916Y449162D01*
X335712Y451247D01*
X334009Y452949D01*
X333924Y452998D01*
X334265Y454268D01*
X342331D01*
Y453035D01*
X342755Y450904D01*
X343961Y449098D01*
X344983Y448076D01*
X344651Y446836D01*
Y444428D01*
X345274Y442103D01*
X346478Y440018D01*
X348180Y438315D01*
X350265Y437112D01*
X352591Y436488D01*
X354999D01*
X357324Y437112D01*
X359409Y438315D01*
X361112Y440018D01*
X362316Y442103D01*
X362939Y444428D01*
Y446836D01*
X362316Y449162D01*
X361112Y451247D01*
X359409Y452949D01*
X359325Y452998D01*
X359665Y454268D01*
X367331D01*
Y453035D01*
X367755Y450904D01*
X368961Y449098D01*
X370299Y447761D01*
X370051Y446836D01*
Y444428D01*
X370674Y442103D01*
X371878Y440018D01*
X373580Y438315D01*
X375665Y437112D01*
X377991Y436488D01*
X380399D01*
X382724Y437112D01*
X384809Y438315D01*
X386512Y440018D01*
X387716Y442103D01*
X388339Y444428D01*
Y446836D01*
X387716Y449162D01*
X386512Y451247D01*
X384809Y452949D01*
X384724Y452998D01*
X385065Y454268D01*
X392331D01*
Y453035D01*
X392755Y450904D01*
X393961Y449098D01*
X395614Y447445D01*
X395451Y446836D01*
Y444428D01*
X396074Y442103D01*
X397278Y440018D01*
X398980Y438315D01*
X401065Y437112D01*
X403391Y436488D01*
X405799D01*
X408124Y437112D01*
X410209Y438315D01*
X411912Y440018D01*
X413116Y442103D01*
X413739Y444428D01*
Y446836D01*
X413116Y449162D01*
X411912Y451247D01*
X410209Y452949D01*
X410125Y452998D01*
X410465Y454268D01*
X424125D01*
X424465Y452998D01*
X424380Y452949D01*
X422678Y451247D01*
X421474Y449162D01*
X420851Y446836D01*
Y444428D01*
X421474Y442103D01*
X422678Y440018D01*
X424380Y438315D01*
X426465Y437112D01*
X428791Y436488D01*
X431199D01*
X433524Y437112D01*
X435609Y438315D01*
X437312Y440018D01*
X438516Y442103D01*
X439139Y444428D01*
Y446836D01*
X438516Y449162D01*
X437312Y451247D01*
X435609Y452949D01*
X435524Y452998D01*
X435865Y454268D01*
X468576D01*
X469062Y453095D01*
D02*
G37*
%LPC*%
G36*
X380499Y430138D02*
X377891D01*
X375371Y429463D01*
X373112Y428159D01*
X371268Y426315D01*
X369964Y424056D01*
X369289Y421536D01*
Y418928D01*
X369964Y416409D01*
X371268Y414150D01*
X373112Y412306D01*
X375371Y411002D01*
X377891Y410326D01*
X380499D01*
X383018Y411002D01*
X385277Y412306D01*
X387122Y414150D01*
X388426Y416409D01*
X389101Y418928D01*
Y421536D01*
X388426Y424056D01*
X387122Y426315D01*
X385277Y428159D01*
X383018Y429463D01*
X380499Y430138D01*
D02*
G37*
G36*
X355099D02*
X352491D01*
X349971Y429463D01*
X347712Y428159D01*
X345868Y426315D01*
X344564Y424056D01*
X343889Y421536D01*
Y418928D01*
X344564Y416409D01*
X345868Y414150D01*
X347712Y412306D01*
X349971Y411002D01*
X352491Y410326D01*
X355099D01*
X357618Y411002D01*
X359877Y412306D01*
X361721Y414150D01*
X363026Y416409D01*
X363701Y418928D01*
Y421536D01*
X363026Y424056D01*
X361721Y426315D01*
X359877Y428159D01*
X357618Y429463D01*
X355099Y430138D01*
D02*
G37*
G36*
X450874Y399429D02*
X448622D01*
X446542Y398567D01*
X444949Y396974D01*
X444087Y394894D01*
Y392642D01*
X444949Y390561D01*
X446542Y388969D01*
X448622Y388107D01*
X450874D01*
X452955Y388969D01*
X454548Y390561D01*
X455410Y392642D01*
Y394894D01*
X454548Y396974D01*
X452955Y398567D01*
X450874Y399429D01*
D02*
G37*
G36*
X405899Y404738D02*
X403291D01*
X400771Y404063D01*
X398512Y402759D01*
X396668Y400915D01*
X395364Y398656D01*
X394689Y396137D01*
Y393528D01*
X395364Y391009D01*
X396668Y388750D01*
X398512Y386906D01*
X400771Y385602D01*
X403291Y384926D01*
X405899D01*
X408418Y385602D01*
X410677Y386906D01*
X412522Y388750D01*
X413826Y391009D01*
X414501Y393528D01*
Y396137D01*
X413826Y398656D01*
X412522Y400915D01*
X410677Y402759D01*
X408418Y404063D01*
X405899Y404738D01*
D02*
G37*
G36*
X355099Y404738D02*
X352491D01*
X349971Y404063D01*
X347712Y402759D01*
X345868Y400915D01*
X344564Y398656D01*
X343889Y396137D01*
Y393528D01*
X344564Y391009D01*
X345868Y388750D01*
X347712Y386906D01*
X349971Y385602D01*
X352491Y384926D01*
X355099D01*
X357618Y385602D01*
X359877Y386906D01*
X361721Y388750D01*
X363026Y391009D01*
X363701Y393528D01*
Y396137D01*
X363026Y398656D01*
X361721Y400915D01*
X359877Y402759D01*
X357618Y404063D01*
X355099Y404738D01*
D02*
G37*
G36*
X380499Y404738D02*
X377891D01*
X375371Y404063D01*
X373112Y402759D01*
X371268Y400915D01*
X369964Y398656D01*
X369289Y396137D01*
Y393528D01*
X369964Y391009D01*
X371268Y388750D01*
X373112Y386906D01*
X375371Y385601D01*
X377891Y384926D01*
X380499D01*
X383018Y385601D01*
X385277Y386906D01*
X387122Y388750D01*
X388426Y391009D01*
X389101Y393528D01*
Y396137D01*
X388426Y398656D01*
X387122Y400915D01*
X385277Y402759D01*
X383018Y404063D01*
X380499Y404738D01*
D02*
G37*
G36*
X492953Y388022D02*
X485620Y380689D01*
X485167Y380341D01*
X481347Y376521D01*
X479299D01*
X477045Y376224D01*
X474944Y375354D01*
X474020Y374645D01*
X473210Y375135D01*
X472921Y375402D01*
Y377114D01*
X472230Y378781D01*
X470954Y380057D01*
X469287Y380748D01*
X468143D01*
Y381935D01*
X467453Y383602D01*
X466177Y384878D01*
X464509Y385568D01*
X462705D01*
X461038Y384878D01*
X459762Y383602D01*
X459071Y381935D01*
Y380130D01*
X459762Y378463D01*
X461038Y377187D01*
X462705Y376496D01*
X463849D01*
Y375309D01*
X464539Y373642D01*
X465815Y372366D01*
X467482Y371676D01*
X469050D01*
X469505Y371011D01*
X469673Y370502D01*
X466236Y367066D01*
X464852Y365262D01*
X463982Y363161D01*
X463685Y360907D01*
Y351618D01*
X462415Y350770D01*
X461885Y350989D01*
X460080D01*
X458413Y350299D01*
X457137Y349023D01*
X456447Y347356D01*
Y345551D01*
X456537Y345334D01*
X456218Y344856D01*
X455554Y344388D01*
X455109Y344572D01*
X452855Y344869D01*
X450600Y344572D01*
X448499Y343702D01*
X446695Y342318D01*
X445311Y340514D01*
X444441Y338413D01*
X444144Y336158D01*
X444441Y333904D01*
X445311Y331803D01*
X446695Y329999D01*
X447286Y329408D01*
X449090Y328024D01*
X450105Y327603D01*
X450198Y326190D01*
X449780Y325949D01*
X448078Y324247D01*
X446874Y322162D01*
X446251Y319836D01*
Y317428D01*
X446874Y315103D01*
X448078Y313018D01*
X449780Y311315D01*
X451865Y310112D01*
X454191Y309488D01*
X456599D01*
X458924Y310112D01*
X461009Y311315D01*
X462712Y313018D01*
X463915Y315103D01*
X464539Y317428D01*
Y319836D01*
X463915Y322162D01*
X462712Y324247D01*
X461372Y325587D01*
X461884Y326857D01*
X465492D01*
X467746Y327154D01*
X469847Y328024D01*
X471651Y329408D01*
X478555Y336312D01*
X479939Y338116D01*
X480809Y340217D01*
X481106Y342471D01*
Y351759D01*
X482376Y352608D01*
X482906Y352388D01*
X484710D01*
X484957Y352223D01*
Y351772D01*
X485819Y349691D01*
X487411Y348099D01*
X489492Y347237D01*
X491744D01*
X493825Y348099D01*
X495417Y349691D01*
X496279Y351772D01*
Y354024D01*
X495417Y356105D01*
X496331Y356964D01*
X507095Y346200D01*
X520934Y360040D01*
X492953Y388022D01*
D02*
G37*
G36*
X405899Y379338D02*
X403291D01*
X400771Y378663D01*
X398512Y377359D01*
X396668Y375515D01*
X395364Y373256D01*
X394689Y370737D01*
Y368128D01*
X395364Y365609D01*
X396668Y363350D01*
X398512Y361506D01*
X400771Y360201D01*
X403291Y359526D01*
X405899D01*
X408418Y360201D01*
X410677Y361506D01*
X412522Y363350D01*
X413826Y365609D01*
X414501Y368128D01*
Y370737D01*
X413826Y373256D01*
X412522Y375515D01*
X410677Y377359D01*
X408418Y378663D01*
X405899Y379338D01*
D02*
G37*
G36*
X380499D02*
X377891D01*
X375371Y378663D01*
X373112Y377359D01*
X371268Y375515D01*
X369964Y373256D01*
X369289Y370737D01*
Y368128D01*
X369964Y365609D01*
X371268Y363350D01*
X373112Y361506D01*
X375371Y360201D01*
X377891Y359526D01*
X380499D01*
X383018Y360201D01*
X385277Y361506D01*
X387122Y363350D01*
X388426Y365609D01*
X389101Y368128D01*
Y370737D01*
X388426Y373256D01*
X387122Y375515D01*
X385277Y377359D01*
X383018Y378663D01*
X380499Y379338D01*
D02*
G37*
G36*
X355099Y379338D02*
X352491D01*
X349971Y378663D01*
X347712Y377359D01*
X345868Y375515D01*
X344564Y373256D01*
X343889Y370737D01*
Y368128D01*
X344564Y365609D01*
X345868Y363350D01*
X347712Y361506D01*
X349971Y360201D01*
X352491Y359526D01*
X355099D01*
X357618Y360201D01*
X359877Y361506D01*
X361721Y363350D01*
X363026Y365609D01*
X363701Y368128D01*
Y370737D01*
X363026Y373256D01*
X361721Y375515D01*
X359877Y377359D01*
X357618Y378663D01*
X355099Y379338D01*
D02*
G37*
G36*
X314859Y366232D02*
X313054D01*
X311387Y365541D01*
X310111Y364265D01*
X309421Y362598D01*
Y360794D01*
X310111Y359127D01*
X311387Y357851D01*
X313054Y357160D01*
X314859D01*
X316526Y357851D01*
X317802Y359127D01*
X318493Y360794D01*
Y362598D01*
X317802Y364265D01*
X316526Y365541D01*
X314859Y366232D01*
D02*
G37*
G36*
X440894Y372317D02*
X439089D01*
X437422Y371626D01*
X436146Y370350D01*
X435455Y368683D01*
Y366879D01*
X436146Y365211D01*
X437422Y363936D01*
X439089Y363245D01*
X440894D01*
X441503Y363497D01*
X442222Y362421D01*
X441897Y362096D01*
X441207Y360429D01*
Y358624D01*
X441897Y356957D01*
X443173Y355681D01*
X444840Y354990D01*
X446645D01*
X448312Y355681D01*
X449588Y356957D01*
X450279Y358624D01*
Y360429D01*
X449588Y362096D01*
X448312Y363372D01*
X446645Y364062D01*
X444840D01*
X444231Y363810D01*
X443512Y364887D01*
X443837Y365211D01*
X444527Y366879D01*
Y368683D01*
X443837Y370350D01*
X442561Y371626D01*
X440894Y372317D01*
D02*
G37*
G36*
X363574Y353811D02*
X344016D01*
Y334253D01*
X363574D01*
Y353811D01*
D02*
G37*
G36*
X414374Y353811D02*
X394816D01*
Y334253D01*
X414374D01*
Y353811D01*
D02*
G37*
G36*
X388974D02*
X369416D01*
Y334253D01*
X388974D01*
Y353811D01*
D02*
G37*
G36*
X531735Y344758D02*
X529930D01*
X528263Y344068D01*
X526987Y342792D01*
X526297Y341125D01*
Y339320D01*
X526975Y337682D01*
X526548Y337435D01*
X525200Y336087D01*
X524247Y334436D01*
X523754Y332595D01*
Y330689D01*
X524247Y328848D01*
X525200Y327197D01*
X526548Y325850D01*
X528199Y324897D01*
X530040Y324403D01*
X531946D01*
X533787Y324897D01*
X535438Y325850D01*
X536785Y327197D01*
X537738Y328848D01*
X538232Y330689D01*
Y332595D01*
X537738Y334436D01*
X536785Y336087D01*
X535438Y337435D01*
X534752Y337831D01*
X535369Y339320D01*
Y341125D01*
X534678Y342792D01*
X533402Y344068D01*
X531735Y344758D01*
D02*
G37*
G36*
X405798Y327776D02*
X403391D01*
X401065Y327153D01*
X398980Y325949D01*
X397278Y324247D01*
X396074Y322162D01*
X395451Y319836D01*
Y317428D01*
X396074Y315103D01*
X397278Y313018D01*
X398980Y311315D01*
X401065Y310112D01*
X403391Y309488D01*
X405798D01*
X408124Y310112D01*
X410209Y311315D01*
X411912Y313018D01*
X413116Y315103D01*
X413739Y317428D01*
Y319836D01*
X413116Y322162D01*
X411912Y324247D01*
X410209Y325949D01*
X408124Y327153D01*
X405798Y327776D01*
D02*
G37*
G36*
X329599Y327776D02*
X327191D01*
X324865Y327153D01*
X322780Y325949D01*
X321078Y324247D01*
X319874Y322162D01*
X319251Y319836D01*
Y317428D01*
X319874Y315103D01*
X321078Y313018D01*
X322780Y311315D01*
X324865Y310112D01*
X327191Y309488D01*
X329599D01*
X331924Y310112D01*
X334009Y311315D01*
X335712Y313018D01*
X336916Y315103D01*
X337539Y317428D01*
Y319836D01*
X336916Y322162D01*
X335712Y324247D01*
X334009Y325949D01*
X331924Y327153D01*
X329599Y327776D01*
D02*
G37*
G36*
X380399Y327776D02*
X377991D01*
X375665Y327153D01*
X373580Y325949D01*
X371878Y324247D01*
X370674Y322162D01*
X370051Y319836D01*
Y317428D01*
X370674Y315103D01*
X371878Y313018D01*
X373580Y311315D01*
X375665Y310112D01*
X377991Y309488D01*
X380399D01*
X382724Y310112D01*
X384809Y311315D01*
X386512Y313018D01*
X387716Y315103D01*
X388339Y317428D01*
Y319836D01*
X387716Y322162D01*
X386512Y324247D01*
X384809Y325949D01*
X382724Y327153D01*
X380399Y327776D01*
D02*
G37*
G36*
X354999D02*
X352591D01*
X350265Y327153D01*
X348180Y325949D01*
X346478Y324247D01*
X345274Y322162D01*
X344651Y319836D01*
Y317428D01*
X345274Y315103D01*
X346478Y313018D01*
X348180Y311315D01*
X350265Y310112D01*
X352591Y309488D01*
X354999D01*
X357324Y310112D01*
X359409Y311315D01*
X361112Y313018D01*
X362316Y315103D01*
X362939Y317428D01*
Y319836D01*
X362316Y322162D01*
X361112Y324247D01*
X359409Y325949D01*
X357324Y327153D01*
X354999Y327776D01*
D02*
G37*
G36*
X431199Y327776D02*
X428791D01*
X426465Y327153D01*
X424380Y325949D01*
X422678Y324247D01*
X421474Y322162D01*
X420851Y319836D01*
Y317428D01*
X421474Y315103D01*
X422678Y313018D01*
X424380Y311315D01*
X426465Y310112D01*
X428791Y309488D01*
X431199D01*
X433524Y310112D01*
X435609Y311315D01*
X437312Y313018D01*
X438516Y315103D01*
X439139Y317428D01*
Y319836D01*
X438516Y322162D01*
X437312Y324247D01*
X435609Y325949D01*
X433524Y327153D01*
X431199Y327776D01*
D02*
G37*
G36*
X518431Y344214D02*
X516626D01*
X514959Y343524D01*
X513683Y342248D01*
X512993Y340581D01*
Y339935D01*
X512228Y338825D01*
X510322D01*
X508480Y338332D01*
X506830Y337379D01*
X505482Y336031D01*
X504529Y334380D01*
X504036Y332539D01*
Y330633D01*
X504529Y328792D01*
X505482Y327141D01*
X506108Y326515D01*
X505582Y325245D01*
X503055D01*
X501285Y324893D01*
X499784Y323891D01*
X498782Y322390D01*
X498430Y320620D01*
Y315120D01*
X498782Y313351D01*
X499784Y311850D01*
X501285Y310847D01*
X503055Y310495D01*
X507555D01*
X507765Y310537D01*
X508266Y310203D01*
X509653Y309927D01*
X512349D01*
X512493Y309206D01*
X513468Y307747D01*
X514927Y306772D01*
X516648Y306430D01*
X520898D01*
X522619Y306772D01*
X524078Y307747D01*
X525053Y309206D01*
X525395Y310927D01*
Y316177D01*
X525053Y317898D01*
X524078Y319357D01*
X522619Y320332D01*
X520898Y320675D01*
X516648D01*
X514927Y320332D01*
X513468Y319357D01*
X513450Y319331D01*
X512179Y319716D01*
Y320620D01*
X511828Y322390D01*
X511368Y323077D01*
X512047Y324347D01*
X512228D01*
X514069Y324841D01*
X515719Y325794D01*
X517067Y327141D01*
X518020Y328792D01*
X518514Y330633D01*
Y332539D01*
X518191Y333742D01*
X519437Y334987D01*
X519965Y335778D01*
X520098Y335833D01*
X521374Y337109D01*
X522065Y338776D01*
Y340581D01*
X521374Y342248D01*
X520098Y343524D01*
X518431Y344214D01*
D02*
G37*
G36*
X424801Y304880D02*
X422996D01*
X421329Y304190D01*
X420053Y302914D01*
X419363Y301247D01*
Y299442D01*
X420053Y297775D01*
X421329Y296499D01*
X422996Y295808D01*
X424801D01*
X426468Y296499D01*
X427744Y297775D01*
X428435Y299442D01*
Y301247D01*
X427744Y302914D01*
X426468Y304190D01*
X424801Y304880D01*
D02*
G37*
G36*
X427284Y285125D02*
X425480D01*
X423813Y284434D01*
X422537Y283158D01*
X421846Y281491D01*
Y279874D01*
X421343Y279500D01*
X420673Y279251D01*
X420372Y279552D01*
X418705Y280242D01*
X416900D01*
X415233Y279552D01*
X413957Y278276D01*
X413267Y276609D01*
Y274804D01*
X413957Y273137D01*
X415233Y271861D01*
X416900Y271170D01*
X418705D01*
X420372Y271861D01*
X421648Y273137D01*
X422339Y274804D01*
Y276421D01*
X422842Y276795D01*
X423512Y277044D01*
X423813Y276743D01*
X425480Y276053D01*
X427284D01*
X428952Y276743D01*
X430228Y278019D01*
X430918Y279687D01*
Y281491D01*
X430228Y283158D01*
X428952Y284434D01*
X427284Y285125D01*
D02*
G37*
G36*
X360000Y307558D02*
X355405Y307197D01*
X350922Y306121D01*
X346663Y304356D01*
X342733Y301948D01*
X339228Y298954D01*
X336234Y295449D01*
X333825Y291518D01*
X332061Y287260D01*
X330985Y282777D01*
X330623Y278182D01*
X330985Y273586D01*
X332061Y269104D01*
X333825Y264845D01*
X336234Y260915D01*
X339228Y257409D01*
X342733Y254416D01*
X346663Y252007D01*
X350922Y250243D01*
X355405Y249167D01*
X360000Y248805D01*
X364595Y249167D01*
X369078Y250243D01*
X373337Y252007D01*
X377267Y254416D01*
X380772Y257409D01*
X383766Y260915D01*
X386175Y264845D01*
X387939Y269104D01*
X389015Y273586D01*
X389376Y278182D01*
X389015Y282777D01*
X387939Y287260D01*
X386175Y291518D01*
X383766Y295449D01*
X380772Y298954D01*
X377267Y301948D01*
X373337Y304356D01*
X369078Y306121D01*
X364595Y307197D01*
X360000Y307558D01*
D02*
G37*
G36*
X447985Y286519D02*
X442485D01*
X440715Y286167D01*
X439214Y285165D01*
X438212Y283664D01*
X437860Y281894D01*
Y277394D01*
X438212Y275625D01*
X439214Y274124D01*
X440715Y273121D01*
X441868Y272892D01*
Y254116D01*
X440627Y252876D01*
X439937Y251209D01*
Y249404D01*
X440627Y247737D01*
X441903Y246461D01*
X443570Y245770D01*
X445375D01*
X447042Y246461D01*
X448318Y247737D01*
X449009Y249404D01*
Y251209D01*
X448601Y252192D01*
Y272892D01*
X449754Y273121D01*
X451255Y274124D01*
X452257Y275625D01*
X452609Y277394D01*
Y281894D01*
X452257Y283664D01*
X451255Y285165D01*
X449754Y286167D01*
X447985Y286519D01*
D02*
G37*
G36*
X172773Y248636D02*
X170968D01*
X169301Y247945D01*
X168025Y246669D01*
X167335Y245002D01*
Y243197D01*
X168025Y241530D01*
X169301Y240254D01*
X170968Y239564D01*
X172773D01*
X174440Y240254D01*
X175716Y241530D01*
X176407Y243197D01*
Y245002D01*
X175716Y246669D01*
X174440Y247945D01*
X172773Y248636D01*
D02*
G37*
G36*
X350709Y245336D02*
X347737D01*
X344866Y244567D01*
X342293Y243081D01*
X340192Y240980D01*
X338706Y238407D01*
X337937Y235536D01*
Y232565D01*
X338706Y229694D01*
X340192Y227121D01*
X342293Y225019D01*
X344866Y223533D01*
X347737Y222764D01*
X350709D01*
X353579Y223533D01*
X356152Y225019D01*
X358254Y227121D01*
X359739Y229694D01*
X360509Y232565D01*
Y235536D01*
X359739Y238407D01*
X358254Y240980D01*
X356152Y243081D01*
X353579Y244567D01*
X350709Y245336D01*
D02*
G37*
G36*
X325308D02*
X322337D01*
X319466Y244567D01*
X316893Y243081D01*
X314792Y240980D01*
X313306Y238407D01*
X312537Y235536D01*
Y232565D01*
X313306Y229694D01*
X314792Y227121D01*
X316893Y225019D01*
X319466Y223533D01*
X322337Y222764D01*
X325308D01*
X328179Y223533D01*
X330752Y225019D01*
X332854Y227121D01*
X334339Y229694D01*
X335109Y232565D01*
Y235536D01*
X334339Y238407D01*
X332854Y240980D01*
X330752Y243081D01*
X328179Y244567D01*
X325308Y245336D01*
D02*
G37*
G36*
X442902Y238536D02*
X441098D01*
X439431Y237845D01*
X438155Y236569D01*
X437464Y234902D01*
Y233098D01*
X438155Y231431D01*
X438633Y230952D01*
Y222395D01*
X429018Y212779D01*
X419907D01*
Y216698D01*
X403335D01*
Y202126D01*
X419907D01*
Y206046D01*
X430412D01*
X431701Y206302D01*
X432793Y207032D01*
X444381Y218619D01*
X445110Y219712D01*
X445367Y221000D01*
Y230952D01*
X445845Y231431D01*
X446536Y233098D01*
Y234902D01*
X445845Y236569D01*
X444569Y237845D01*
X442902Y238536D01*
D02*
G37*
G36*
X234506Y216880D02*
X232702D01*
X231035Y216189D01*
X229759Y214913D01*
X229068Y213246D01*
Y211442D01*
X229759Y209775D01*
X231035Y208499D01*
X232702Y207808D01*
X234506D01*
X236173Y208499D01*
X237449Y209775D01*
X238140Y211442D01*
Y213246D01*
X237449Y214913D01*
X236173Y216189D01*
X234506Y216880D01*
D02*
G37*
G36*
X350527Y218556D02*
X347919D01*
X345399Y217881D01*
X343140Y216577D01*
X341296Y214733D01*
X339992Y212474D01*
X339317Y209954D01*
Y207346D01*
X339992Y204827D01*
X341296Y202568D01*
X343140Y200724D01*
X345399Y199419D01*
X347919Y198744D01*
X350527D01*
X353046Y199419D01*
X355305Y200724D01*
X357149Y202568D01*
X358454Y204827D01*
X359129Y207346D01*
Y209954D01*
X358454Y212474D01*
X357149Y214733D01*
X355305Y216577D01*
X353046Y217881D01*
X350527Y218556D01*
D02*
G37*
G36*
X299727D02*
X297118D01*
X294599Y217881D01*
X292340Y216577D01*
X290496Y214733D01*
X289192Y212474D01*
X288517Y209954D01*
Y207346D01*
X289192Y204827D01*
X290496Y202568D01*
X292340Y200724D01*
X294599Y199419D01*
X297118Y198744D01*
X299727D01*
X302246Y199419D01*
X304505Y200724D01*
D01*
X306349Y202568D01*
X307654Y204827D01*
X308329Y207346D01*
Y209954D01*
X307654Y212474D01*
X306349Y214733D01*
X304615Y216467D01*
X304505Y216577D01*
X302246Y217881D01*
X299727Y218556D01*
D02*
G37*
G36*
X325127D02*
X322519D01*
X319999Y217881D01*
X317740Y216577D01*
X315896Y214733D01*
X314592Y212474D01*
X313917Y209954D01*
Y207346D01*
X314592Y204827D01*
X315896Y202568D01*
X317740Y200724D01*
X319999Y199419D01*
X322519Y198744D01*
X325127D01*
X327646Y199419D01*
X329832Y200681D01*
X329957Y200639D01*
X330795Y199687D01*
X330414Y198768D01*
Y196964D01*
X331105Y195297D01*
X332381Y194021D01*
X334048Y193330D01*
X335852D01*
X337519Y194021D01*
X338795Y195297D01*
X339486Y196964D01*
Y198768D01*
X338795Y200435D01*
X337519Y201711D01*
X335852Y202402D01*
X334048D01*
X332772Y201873D01*
X331944Y202905D01*
X333054Y204827D01*
X333729Y207346D01*
Y209954D01*
X333054Y212474D01*
X331749Y214733D01*
X329905Y216577D01*
X327646Y217881D01*
X325127Y218556D01*
D02*
G37*
G36*
X451902Y186536D02*
X450098D01*
X448430Y185845D01*
X448000Y185415D01*
X447569Y185845D01*
X445902Y186536D01*
X444098D01*
X442431Y185845D01*
X442000Y185415D01*
X441569Y185845D01*
X439902Y186536D01*
X438098D01*
X436431Y185845D01*
X435155Y184569D01*
X434464Y182902D01*
Y181098D01*
X435155Y179431D01*
X435585Y179000D01*
X435155Y178570D01*
X434464Y176902D01*
Y175098D01*
X435155Y173431D01*
X436431Y172155D01*
X438098Y171464D01*
X439902D01*
X441569Y172155D01*
X442000Y172585D01*
X442431Y172155D01*
X444098Y171464D01*
X445902D01*
X447569Y172155D01*
X448000Y172585D01*
X448430Y172155D01*
X450098Y171464D01*
X451902D01*
X453569Y172155D01*
X454845Y173431D01*
X455536Y175098D01*
Y176902D01*
X454845Y178570D01*
X454415Y179000D01*
X454845Y179431D01*
X455536Y181098D01*
Y182902D01*
X454845Y184569D01*
X453569Y185845D01*
X451902Y186536D01*
D02*
G37*
G36*
X428902Y186536D02*
X427098D01*
X425430Y185845D01*
X425000Y185415D01*
X424569Y185845D01*
X422902Y186536D01*
X421098D01*
X419431Y185845D01*
X419000Y185415D01*
X418569Y185845D01*
X416902Y186536D01*
X415098D01*
X413431Y185845D01*
X412155Y184569D01*
X411464Y182902D01*
Y181098D01*
X412155Y179431D01*
X412585Y179000D01*
X412155Y178569D01*
X411464Y176902D01*
Y175098D01*
X412155Y173431D01*
X413431Y172155D01*
X415098Y171464D01*
X416902D01*
X418569Y172155D01*
X419000Y172585D01*
X419431Y172155D01*
X421098Y171464D01*
X422902D01*
X424569Y172155D01*
X425000Y172585D01*
X425430Y172155D01*
X427098Y171464D01*
X428902D01*
X430569Y172155D01*
X431845Y173431D01*
X432536Y175098D01*
Y176902D01*
X431845Y178569D01*
X431415Y179000D01*
X431845Y179431D01*
X432536Y181098D01*
Y182902D01*
X431845Y184569D01*
X430569Y185845D01*
X428902Y186536D01*
D02*
G37*
G36*
X179134Y190464D02*
X177330D01*
X175663Y189773D01*
X174387Y188497D01*
X173696Y186830D01*
Y185026D01*
X174387Y183359D01*
X175663Y182083D01*
X177330Y181392D01*
X179134D01*
X180801Y182083D01*
X182077Y183359D01*
X182768Y185026D01*
Y186830D01*
X182077Y188497D01*
X180801Y189773D01*
X179134Y190464D01*
D02*
G37*
G36*
X240160Y179845D02*
X235565Y179483D01*
X231082Y178407D01*
X226823Y176643D01*
X222893Y174235D01*
X219388Y171241D01*
X216394Y167736D01*
X213985Y163805D01*
X212221Y159546D01*
X211145Y155064D01*
X210784Y150469D01*
X211145Y145873D01*
X212221Y141391D01*
X213985Y137132D01*
X216394Y133201D01*
X219388Y129696D01*
X222893Y126702D01*
X226823Y124294D01*
X231082Y122530D01*
X235565Y121454D01*
X240160Y121092D01*
X244756Y121454D01*
X249238Y122530D01*
X253497Y124294D01*
X257427Y126702D01*
X260932Y129696D01*
X263926Y133201D01*
X266335Y137132D01*
X268099Y141391D01*
X269175Y145873D01*
X269537Y150469D01*
X269175Y155064D01*
X268099Y159546D01*
X266335Y163805D01*
X263926Y167736D01*
X260932Y171241D01*
X257427Y174235D01*
X253497Y176643D01*
X249238Y178407D01*
X244756Y179483D01*
X240160Y179845D01*
D02*
G37*
G36*
X228918Y78196D02*
X227114D01*
X225447Y77505D01*
X224171Y76229D01*
X223480Y74562D01*
Y72758D01*
X224171Y71091D01*
X224685Y70576D01*
X224159Y69306D01*
X223812D01*
X222145Y68615D01*
X220869Y67339D01*
X220178Y65672D01*
Y63868D01*
X220869Y62201D01*
X222145Y60925D01*
X223812Y60234D01*
X225616D01*
X227283Y60925D01*
X228559Y62201D01*
X229250Y63868D01*
Y64124D01*
Y65672D01*
X228559Y67339D01*
X228471Y67428D01*
X228045Y67854D01*
X228571Y69124D01*
X228918D01*
X230585Y69815D01*
X231861Y71091D01*
X232552Y72758D01*
Y74562D01*
X231861Y76229D01*
X230585Y77505D01*
X228918Y78196D01*
D02*
G37*
G36*
X186736Y54249D02*
X184932D01*
X183264Y53559D01*
X181988Y52283D01*
X181298Y50615D01*
Y48811D01*
X181988Y47144D01*
X183264Y45868D01*
X184932Y45177D01*
X186736D01*
X188403Y45868D01*
X189679Y47144D01*
X190370Y48811D01*
Y50615D01*
X189679Y52283D01*
X188403Y53559D01*
X186736Y54249D01*
D02*
G37*
G36*
X249678Y62520D02*
X247091D01*
X244592Y61851D01*
X242351Y60557D01*
X240522Y58728D01*
X239228Y56487D01*
X238559Y53988D01*
Y51401D01*
X239228Y48902D01*
X240522Y46661D01*
X242351Y44832D01*
X244592Y43538D01*
X247091Y42868D01*
X249678D01*
X252177Y43538D01*
X254418Y44832D01*
X256247Y46661D01*
X257541Y48902D01*
X258211Y51401D01*
Y53988D01*
X257541Y56487D01*
X256247Y58728D01*
X254418Y60557D01*
X252177Y61851D01*
X249678Y62520D01*
D02*
G37*
G36*
X258211Y37520D02*
X238559D01*
Y17868D01*
X258211D01*
Y37520D01*
D02*
G37*
%LPD*%
D10*
X171000Y9000D02*
D03*
X155000D02*
D03*
X224889Y281548D02*
D03*
X208889D02*
D03*
X489305Y317870D02*
D03*
X505305D02*
D03*
X185493Y39142D02*
D03*
X201493D02*
D03*
X201493Y79142D02*
D03*
X185493D02*
D03*
X201493Y9142D02*
D03*
X185493Y9142D02*
D03*
Y24142D02*
D03*
X201493D02*
D03*
D11*
X112875Y82875D02*
D03*
X112875Y98875D02*
D03*
X494257Y294374D02*
D03*
Y278374D02*
D03*
X511529Y296406D02*
D03*
Y280406D02*
D03*
X445235Y279644D02*
D03*
Y295644D02*
D03*
X153493Y53642D02*
D03*
Y69642D02*
D03*
X150993Y39642D02*
D03*
Y23642D02*
D03*
X112500Y114500D02*
D03*
X112500Y130500D02*
D03*
X170993Y39642D02*
D03*
Y23642D02*
D03*
X526500Y280500D02*
D03*
Y296500D02*
D03*
D12*
X176678Y99822D02*
D03*
X204678D02*
D03*
X312493Y424142D02*
D03*
X284493D02*
D03*
X324993Y356642D02*
D03*
X296993D02*
D03*
X324566Y377952D02*
D03*
X296566D02*
D03*
X317493Y401642D02*
D03*
X289493D02*
D03*
D13*
X138354Y106650D02*
D03*
Y134650D02*
D03*
D14*
X141648Y325112D02*
D03*
D15*
X129980Y313444D02*
D03*
D16*
X468279Y142967D02*
D03*
X473751Y158002D02*
D03*
D17*
X430840Y141478D02*
D03*
X535273Y313552D02*
D03*
D18*
X447340Y141478D02*
D03*
X518773Y313552D02*
D03*
D19*
X503063Y251068D02*
D03*
X429063D02*
D03*
X485621Y209412D02*
D03*
X411621D02*
D03*
D20*
X168493Y59142D02*
D03*
X162263Y124142D02*
D03*
D21*
X203493Y59142D02*
D03*
X197263Y124142D02*
D03*
D22*
X190471Y304730D02*
D03*
X186935Y308265D02*
D03*
X183400Y311801D02*
D03*
X179864Y315336D02*
D03*
X176329Y318872D02*
D03*
X172793Y322407D02*
D03*
X165722Y329478D02*
D03*
X162187Y333014D02*
D03*
X158651Y336549D02*
D03*
X155116Y340085D02*
D03*
X151580Y343620D02*
D03*
X211514Y403555D02*
D03*
X215050Y400019D02*
D03*
X218585Y396484D02*
D03*
X222121Y392948D02*
D03*
X225657Y389413D02*
D03*
X229192Y385877D02*
D03*
X232728Y382342D02*
D03*
X236263Y378806D02*
D03*
X239799Y375271D02*
D03*
X243334Y371735D02*
D03*
X246870Y368200D02*
D03*
X250405Y364664D02*
D03*
X169258Y325943D02*
D03*
D23*
X151580Y364664D02*
D03*
X155116Y368200D02*
D03*
X158651Y371735D02*
D03*
X162187Y375271D02*
D03*
X165722Y378806D02*
D03*
X169258Y382342D02*
D03*
X172793Y385877D02*
D03*
X176329Y389413D02*
D03*
X179864Y392948D02*
D03*
X183400Y396484D02*
D03*
X186935Y400019D02*
D03*
X190471Y403555D02*
D03*
X250405Y343620D02*
D03*
X246870Y340085D02*
D03*
X243334Y336549D02*
D03*
X239799Y333014D02*
D03*
X236263Y329478D02*
D03*
X232728Y325943D02*
D03*
X229192Y322407D02*
D03*
X225657Y318872D02*
D03*
X222121Y315336D02*
D03*
X218585Y311801D02*
D03*
D24*
X215050Y308265D02*
D03*
D25*
X211514Y304730D02*
D03*
D26*
X128448Y346456D02*
D03*
X530993Y331642D02*
D03*
X511275Y331586D02*
D03*
X159436Y400304D02*
D03*
X257226Y400558D02*
D03*
X113970Y322834D02*
D03*
X127940Y378206D02*
D03*
X111176Y365760D02*
D03*
D27*
X500024Y367111D02*
D03*
D28*
X463961Y403173D02*
D03*
D29*
X260336Y275986D02*
D03*
X271649Y287299D02*
D03*
X284149Y274799D02*
D03*
X272836Y263486D02*
D03*
X238664Y302815D02*
D03*
X249977Y314129D02*
D03*
X159828Y100722D02*
D03*
X148514Y89408D02*
D03*
D30*
X199173Y443502D02*
D03*
X342831Y57698D02*
D03*
X590537Y243924D02*
D03*
X590993Y368048D02*
D03*
X465993Y494142D02*
D03*
X240160Y150469D02*
D03*
X360000Y278182D02*
D03*
D31*
X166158Y95610D02*
X176678D01*
X177929Y86706D02*
Y98571D01*
X176678Y99822D02*
X177929Y98571D01*
Y86706D02*
X183668Y80967D01*
X184168D01*
X185493Y79642D01*
Y79142D02*
Y79642D01*
X283993Y142142D02*
Y150024D01*
X154968Y55612D02*
X159037Y59681D01*
X153493Y53642D02*
X153643D01*
X154968Y54967D01*
Y55612D01*
X159037Y59681D02*
X159087D01*
X160150Y60745D01*
X160378Y60622D02*
X167668D01*
X168493Y59797D01*
Y59142D02*
Y59797D01*
X161046Y100722D02*
X166158Y95610D01*
X157954Y100722D02*
X161702D01*
X141633Y103371D02*
X155304D01*
X157954Y100722D01*
X140386Y41567D02*
X142311Y39642D01*
X140386Y41567D02*
Y83449D01*
X137267Y86568D02*
X140386Y83449D01*
X137267Y86568D02*
Y92956D01*
X138354Y94042D02*
Y106650D01*
X137267Y92956D02*
X138354Y94042D01*
Y106650D02*
X141633Y103371D01*
X132575Y109969D02*
X135895Y106650D01*
X132575Y109969D02*
Y111443D01*
X127993Y124206D02*
Y128471D01*
X135895Y106650D02*
X138354D01*
X128448Y115570D02*
X132575Y111443D01*
X126924Y129540D02*
X127993Y128471D01*
X126924Y129540D02*
X127993Y130609D01*
Y148198D01*
X283993Y150024D02*
X289671D01*
X302577Y162930D01*
X142311Y39642D02*
X150993D01*
X404595Y445632D02*
Y446339D01*
X397899Y453035D02*
Y495078D01*
Y453035D02*
X404595Y446339D01*
X379195Y445632D02*
Y446739D01*
X372899Y453035D02*
Y495078D01*
Y453035D02*
X379195Y446739D01*
X353795Y445632D02*
Y447139D01*
X347899Y453035D02*
Y495078D01*
Y453035D02*
X353795Y447139D01*
X328395Y445632D02*
Y447539D01*
X322899Y453035D02*
Y495078D01*
Y453035D02*
X328395Y447539D01*
X312493Y424142D02*
Y426602D01*
X309173Y429921D02*
X312493Y426602D01*
X306761Y429921D02*
X309173D01*
X302995Y433687D02*
X306761Y429921D01*
X302995Y433687D02*
Y445632D01*
X316081Y403054D02*
X317493Y401642D01*
X316081Y403054D02*
Y418013D01*
X312493Y421602D02*
X316081Y418013D01*
X312493Y421602D02*
Y424142D01*
X319214Y382421D02*
Y388377D01*
X318904Y388687D02*
X319214Y388377D01*
X318904Y388687D02*
Y400231D01*
X317493Y401642D02*
X318904Y400231D01*
X323743Y357892D02*
X324993Y356642D01*
X323743Y357892D02*
Y377892D01*
X319214Y382421D02*
X323743Y377892D01*
X293081Y380554D02*
X295743Y377892D01*
Y357892D02*
Y377892D01*
Y357892D02*
X296993Y356642D01*
X289493Y401642D02*
X292771Y398364D01*
Y392407D02*
Y398364D01*
Y392407D02*
X293081Y392098D01*
Y380554D02*
Y392098D01*
X284493Y424142D02*
X287771Y420864D01*
Y414907D02*
Y420864D01*
Y414907D02*
X288081Y414598D01*
Y403054D02*
Y414598D01*
Y403054D02*
X289493Y401642D01*
X277595Y444848D02*
Y445632D01*
Y444848D02*
X284213Y438230D01*
Y424422D02*
Y438230D01*
Y424422D02*
X284493Y424142D01*
D32*
X119050Y333502D02*
X127168D01*
X114802Y329254D02*
X119050Y333502D01*
X146468Y383068D02*
X154389D01*
X139620Y390561D02*
X143216Y386965D01*
X154389Y383068D02*
X162187Y375271D01*
X139620Y390561D02*
Y390862D01*
X155908Y388620D02*
X165722Y378806D01*
X148768Y388620D02*
X155908D01*
X143216Y386320D02*
X146468Y383068D01*
X143216Y386320D02*
Y386965D01*
X171882Y408002D02*
Y412392D01*
X161976Y410464D02*
X162349D01*
X179864Y392948D01*
X171882Y408002D02*
X183400Y396484D01*
X549879Y350473D02*
X553403D01*
X555435Y348441D01*
Y343560D02*
X559281Y339714D01*
X555435Y343560D02*
Y348441D01*
X559281Y313552D02*
Y339714D01*
X530992Y293176D02*
X538905D01*
X559281Y313552D01*
X525332Y296500D02*
X526500D01*
X521832Y293000D02*
X525332Y296500D01*
X527668D02*
X530992Y293176D01*
X526500Y296500D02*
X527668D01*
X516103Y293000D02*
X521832D01*
X511529Y296406D02*
X512696D01*
X516103Y293000D01*
X549879Y355045D02*
X555297D01*
X560007Y350335D01*
Y345454D02*
X563853Y341608D01*
Y311659D02*
Y341608D01*
X560007Y345454D02*
Y350335D01*
X540798Y288604D02*
X563853Y311659D01*
X500709Y294374D02*
X506479Y288604D01*
X540798D01*
X494257Y294374D02*
X500709D01*
X152180Y378206D02*
X158651Y371735D01*
X127940Y378206D02*
X152180D01*
X240963Y351963D02*
Y352493D01*
X239982Y353473D02*
X240963Y352493D01*
X239982Y353473D02*
Y353492D01*
X239475Y354000D02*
X239982Y353492D01*
X236000Y354000D02*
X239475D01*
X224000Y366000D02*
X236000Y354000D01*
X192670Y366000D02*
X224000D01*
X172793Y385877D02*
X192670Y366000D01*
X272270Y264051D02*
X272836Y263486D01*
X272270Y264051D02*
Y275189D01*
X272058Y275401D02*
X272270Y275189D01*
X199896Y37546D02*
X201493Y39142D01*
X193521Y35932D02*
X195135Y37546D01*
X199896D01*
X193521Y11521D02*
Y35932D01*
X191850Y9850D02*
X193521Y11521D01*
X186201Y9850D02*
X191850D01*
X185493Y9142D02*
X186201Y9850D01*
X112500Y99250D02*
X112875Y98875D01*
X112500Y99250D02*
Y114500D01*
X103016Y123984D02*
Y142022D01*
Y123984D02*
X112500Y114500D01*
X103016Y142022D02*
X106399Y145404D01*
X275061Y369432D02*
X277595D01*
X270562Y373931D02*
X275061Y369432D01*
X252881Y373931D02*
X270562D01*
X230037Y407935D02*
Y408421D01*
X247574Y425958D01*
X290940Y337014D02*
X291891Y336064D01*
Y326605D02*
Y336064D01*
X290940Y337014D02*
Y339460D01*
X291891Y326605D02*
X292500Y325996D01*
Y314759D02*
Y325996D01*
X290468Y339932D02*
X290940Y339460D01*
X271868Y433960D02*
X272212Y434304D01*
X268910Y433960D02*
X271868D01*
X274311Y393838D02*
X276855Y396381D01*
X274311Y393111D02*
Y393838D01*
X276855Y396381D02*
Y397049D01*
X272874Y391674D02*
X274311Y393111D01*
X257407Y416642D02*
X264639D01*
X137952Y252328D02*
X151526Y265902D01*
Y279927D01*
X129932Y298322D02*
Y300759D01*
X162187Y333014D01*
X123146Y291536D02*
X129932Y298322D01*
X116002Y292354D02*
Y302467D01*
X118542Y305007D01*
Y314452D01*
X138868Y334778D01*
X147559Y325457D02*
X158651Y336549D01*
X147274Y325457D02*
X147559D01*
X146575Y324758D02*
X147274Y325457D01*
X142001Y324758D02*
X146575D01*
X141648Y325112D02*
X142001Y324758D01*
X127168Y333502D02*
X133133Y339466D01*
X142662Y334778D02*
X145253Y332186D01*
X138868Y334778D02*
X142662D01*
X145253Y332186D02*
X146937D01*
X154836Y340085D01*
X133133Y339466D02*
X147426D01*
X480536Y164022D02*
Y164084D01*
X473751Y158002D02*
X474516D01*
X480536Y164022D01*
X154836Y340085D02*
X155116D01*
X147426Y339466D02*
X151580Y343620D01*
X271918Y287299D02*
X277785Y281432D01*
X271649Y287299D02*
X271918D01*
X277785Y281432D02*
X278054D01*
X277517D02*
X284149Y274799D01*
X241230Y311843D02*
X248559Y304514D01*
Y300970D02*
Y304514D01*
X244664Y297075D02*
X246409D01*
X241317Y293728D02*
X248559Y300970D01*
X291565Y303646D02*
Y304053D01*
X288022Y307596D02*
X291565Y304053D01*
X113970Y322834D02*
X114802Y323666D01*
Y329254D01*
X159436Y392164D02*
X169258Y382342D01*
X159436Y392164D02*
Y400304D01*
X430412Y209412D02*
X442000Y221000D01*
Y234000D01*
X411621Y209412D02*
X430412D01*
X229192Y385877D02*
X240963Y397648D01*
X241111D01*
X253444Y416088D02*
X256852D01*
X239323Y401966D02*
X253444Y416088D01*
X241111Y397648D02*
X252403Y408940D01*
X231139Y401966D02*
X239323D01*
X222121Y392948D02*
X231139Y401966D01*
X252403Y408940D02*
X265608D01*
X218585Y396484D02*
X230037Y407935D01*
X202248Y406031D02*
X206680Y410464D01*
X196266Y393446D02*
X202248Y399427D01*
Y406031D01*
X193509Y393446D02*
X196266D01*
X186935Y400019D02*
X193509Y393446D01*
X256852Y416088D02*
X257407Y416642D01*
X256742Y400074D02*
X257226Y400558D01*
X250459Y400074D02*
X256742D01*
X232728Y382342D02*
X250459Y400074D01*
X265608Y408940D02*
X270191Y413523D01*
X260085Y304125D02*
X261452Y305493D01*
Y318431D01*
X215062Y249682D02*
X260085Y294705D01*
X243334Y336549D02*
X261452Y318431D01*
X260085Y294705D02*
Y304125D01*
X267720Y432769D02*
X268910Y433960D01*
X267720Y431212D02*
Y432769D01*
Y431212D02*
X270191Y428741D01*
Y413523D02*
Y428741D01*
X205684Y273463D02*
X206166Y273946D01*
X205684Y272796D02*
Y273463D01*
X137952Y251813D02*
Y252328D01*
X211506Y198882D02*
X211760D01*
X215570Y195072D02*
X224460Y203962D01*
Y243339D01*
X211760Y198882D02*
X215570Y195072D01*
X186993Y227142D02*
X209532Y249682D01*
X215062D01*
X224889Y281548D02*
X237068Y293728D01*
X241317D01*
X255900Y307792D02*
Y307815D01*
X249977Y313738D02*
Y314129D01*
Y313738D02*
X255900Y307815D01*
X251892Y270764D02*
X257113Y275986D01*
X260336D01*
X257406Y335342D02*
X262006D01*
X255438Y339660D02*
X264014D01*
X277595Y318632D02*
Y319753D01*
X255248Y333390D02*
X256211Y334354D01*
X255244Y339466D02*
X255438Y339660D01*
X262006Y335342D02*
X277595Y319753D01*
X253565Y333390D02*
X255248D01*
X272596Y331078D02*
X281173D01*
X256418Y334354D02*
X257406Y335342D01*
X264014Y339660D02*
X272596Y331078D01*
X256211Y334354D02*
X256418D01*
X250405Y343620D02*
X254560Y339466D01*
X246870Y340085D02*
X246870D01*
X254560Y339466D02*
X255244D01*
X246870Y340085D02*
X253565Y333390D01*
X138518Y277024D02*
X139889Y278395D01*
X526500Y280500D02*
X534678D01*
X537230Y283052D01*
X537388D01*
X299354Y248948D02*
Y307905D01*
X298423Y234050D02*
Y248016D01*
X299354Y248948D01*
X292500Y314759D02*
X299354Y307905D01*
X139889Y278395D02*
Y296574D01*
X144360Y271182D02*
Y294938D01*
X165397Y315976D01*
X139889Y296574D02*
X169258Y325943D01*
X166362Y315976D02*
X172793Y322407D01*
X165397Y315976D02*
X166362D01*
X134250Y292250D02*
Y298006D01*
X156321Y253746D02*
Y278384D01*
X151526Y279927D02*
X158179Y286580D01*
X156321Y278384D02*
X163041Y285104D01*
X153419Y296146D02*
X153428D01*
X176154Y318872D01*
X158179Y293219D02*
X166773Y301813D01*
X158179Y286580D02*
Y293219D01*
X163041Y291442D02*
X183400Y311801D01*
X163041Y285104D02*
Y291442D01*
X166773Y301813D02*
Y302245D01*
X176154Y318872D02*
X176329D01*
X166773Y302245D02*
X179864Y315336D01*
X134250Y298006D02*
X165722Y329478D01*
X288022Y307596D02*
Y324229D01*
X281173Y331078D02*
X288022Y324229D01*
X250322Y378722D02*
X252003D01*
X243334Y371735D02*
X250322Y378722D01*
X252003D02*
X252764Y379483D01*
X253432D01*
X260336Y275986D02*
Y278037D01*
X256513Y281861D02*
X260336Y278037D01*
X239756Y311843D02*
X241230D01*
X484114Y252678D02*
X484587Y252206D01*
X486332D01*
X486454Y252084D01*
X492225D01*
X493241Y251068D01*
X503063D01*
X256544Y366384D02*
X266274D01*
X277595Y344032D02*
Y355064D01*
X266274Y366384D02*
X277595Y355064D01*
X250405Y364664D02*
X253993Y368252D01*
X254677D01*
X256544Y366384D01*
X239799Y375359D02*
X248626Y384186D01*
X243074Y386574D02*
X248174Y391674D01*
X248626Y384186D02*
Y384274D01*
X246870Y368200D02*
X247150D01*
X252881Y373931D01*
X243074Y385617D02*
Y386574D01*
X236263Y378806D02*
X243074Y385617D01*
X248174Y391674D02*
X272874D01*
X239799Y375271D02*
Y375359D01*
X236263Y378806D02*
Y378806D01*
X201493Y39142D02*
X215275D01*
X206166Y273946D02*
Y278826D01*
X208889Y281548D01*
X445235Y251736D02*
Y279644D01*
X444473Y250974D02*
X445235Y251736D01*
X444473Y250306D02*
Y250974D01*
X511275Y331586D02*
X517057Y337368D01*
Y339206D01*
X517529Y339678D01*
X530833Y331802D02*
X530993Y331642D01*
X530833Y331802D02*
Y340222D01*
X211514Y403555D02*
X219175Y411215D01*
X199871Y383656D02*
X204109Y379418D01*
X215662D01*
X205677Y390646D02*
X215050Y400019D01*
X205677Y389426D02*
Y390646D01*
X205205Y388954D02*
X205677Y389426D01*
X215662Y379418D02*
X225657Y389413D01*
X204915Y303864D02*
X208305Y307255D01*
X204443Y301360D02*
X204915Y301833D01*
Y303864D01*
X208990Y307255D02*
X211514Y304730D01*
X208305Y307255D02*
X208990D01*
X197075Y318124D02*
X202919D01*
X220699Y335142D02*
X223528D01*
X232728Y325943D01*
X236263Y329478D02*
Y329484D01*
X224509Y341238D02*
X236263Y329484D01*
X151357Y360139D02*
X153389Y362171D01*
X151357Y351933D02*
Y360139D01*
X151580Y364664D02*
X153389Y362855D01*
Y362171D02*
Y362855D01*
X231621Y341192D02*
X239799Y333014D01*
X231621Y341192D02*
Y345810D01*
X202919Y318124D02*
X202969Y318074D01*
X187215Y308265D02*
X197075Y318124D01*
X182599Y297042D02*
X182784D01*
X190471Y304730D01*
X155116Y368200D02*
X164551Y358764D01*
X186935Y308265D02*
X187215D01*
X235870Y302649D02*
Y302815D01*
X231621Y298566D02*
X231787D01*
X235870Y302649D01*
Y302815D02*
X238664D01*
X245736Y313444D02*
Y320006D01*
X229192Y322407D02*
X239756Y311843D01*
X236263Y329478D02*
X245736Y320006D01*
X225657Y318872D02*
X238664Y305865D01*
Y302815D02*
Y305865D01*
D33*
X111176Y365760D02*
X112488Y367072D01*
Y372013D02*
X113970Y373495D01*
X112488Y367072D02*
Y372013D01*
X113970Y373495D02*
Y373888D01*
X112982Y82875D02*
X115903Y79954D01*
Y78439D02*
X120000Y74342D01*
X112875Y82875D02*
X112982D01*
X115903Y78439D02*
Y79954D01*
X123215Y79332D02*
X123493Y79610D01*
X120255Y74342D02*
X123215Y77302D01*
Y79332D01*
X120000Y74342D02*
X120255D01*
X123493Y79610D02*
X130993D01*
Y80003D01*
X485621Y209412D02*
Y232922D01*
X430840Y141478D02*
X431216D01*
X407340D02*
X430840D01*
X466827Y141516D02*
X468279Y142967D01*
X462451Y141516D02*
X466827D01*
X447472Y141478D02*
X462414D01*
X462451Y141516D01*
X342662Y140116D02*
Y146473D01*
Y140116D02*
X346380Y136398D01*
X402260D01*
X407340Y141478D01*
X477698Y257924D02*
X481606Y261832D01*
X481606D01*
X477698Y240845D02*
Y257924D01*
X481606Y261832D02*
X485447Y265673D01*
X477698Y240845D02*
X485621Y232922D01*
X485447Y299134D02*
X489305Y302992D01*
X485447Y265673D02*
Y299134D01*
X489305Y302992D02*
Y317870D01*
X161261Y76521D02*
X167543D01*
X154382Y69642D02*
X161261Y76521D01*
X153493Y69642D02*
X154382D01*
X167543Y76521D02*
X167821Y76799D01*
X152591Y12044D02*
X155493Y9142D01*
X149843Y12044D02*
X152591D01*
X146023Y15864D02*
X149843Y12044D01*
X150886Y23642D02*
X150993D01*
X147517Y20273D02*
X150886Y23642D01*
X147517Y20166D02*
Y20273D01*
X146300Y18950D02*
X147517Y20166D01*
X146300Y16142D02*
Y18950D01*
X146023Y15864D02*
X146300Y16142D01*
X215515Y24142D02*
X217905Y26532D01*
X201493Y24142D02*
X215515D01*
X201493D02*
X201493Y24142D01*
Y9142D02*
Y24142D01*
X170993Y23642D02*
X184993D01*
X185493Y24142D01*
X171493Y9142D02*
Y9249D01*
X168124Y12618D02*
X171493Y9249D01*
X168017Y12618D02*
X168124D01*
X162183Y18452D02*
X168017Y12618D01*
X167517Y36273D02*
X170886Y39642D01*
X162183Y18452D02*
Y30832D01*
X170886Y39642D02*
X170993D01*
X167517Y36166D02*
Y36273D01*
X162183Y30832D02*
X167517Y36166D01*
D34*
X150077Y173058D02*
X159951D01*
X167391Y142855D02*
Y165619D01*
X159951Y173058D02*
X167391Y165619D01*
X125993Y197142D02*
X150077Y173058D01*
X465492Y335568D02*
X472395Y342471D01*
X492953Y374182D02*
X495482Y371653D01*
X491326Y374182D02*
X492953D01*
X484955Y367810D02*
X491326Y374182D01*
X453446Y335568D02*
X465492D01*
X479299Y367810D02*
X484955D01*
X472395Y360907D02*
X479299Y367810D01*
X472395Y342471D02*
Y360907D01*
X452855Y336158D02*
X453446Y335568D01*
D35*
X123114Y306578D02*
X129980Y313444D01*
X123114Y303113D02*
Y306578D01*
X122528Y302527D02*
X123114Y303113D01*
X122528Y299387D02*
Y302527D01*
X122352Y299212D02*
X122528Y299387D01*
X342662Y146473D02*
X342760Y146376D01*
X339993Y149142D02*
X342662Y146473D01*
X342760Y141892D02*
Y146376D01*
X429000Y243818D02*
Y251006D01*
X429063Y251068D01*
X511529Y280376D02*
X515339Y276566D01*
Y270626D02*
Y276566D01*
X511529Y280376D02*
Y280406D01*
X508863Y263768D02*
X513815D01*
X494257Y278374D02*
X508863Y263768D01*
X429063Y268932D02*
X430503Y270372D01*
X429063Y251068D02*
Y268932D01*
X509653Y313552D02*
X518773D01*
X505335Y317870D02*
X509653Y313552D01*
X505305Y317870D02*
X505335D01*
X535273Y313552D02*
X544243D01*
X544579Y313216D01*
X445235Y295644D02*
X462491D01*
X467993Y290142D01*
X488993Y329931D02*
X496982Y337921D01*
Y339038D01*
D36*
X128448Y346456D02*
X137084D01*
X142561Y351933D01*
X151357D01*
D37*
X168957Y124142D02*
X172439Y127624D01*
X165024Y124142D02*
X168957D01*
D38*
X201493Y79142D02*
X202493Y78142D01*
Y62602D02*
Y78142D01*
X203493Y59142D02*
Y61602D01*
X202493Y62602D02*
X203493Y61602D01*
X201493Y79142D02*
Y94142D01*
X171493Y39142D02*
X185493D01*
X170993Y39642D02*
X171493Y39142D01*
X187453Y41602D02*
X189191D01*
X192167Y44578D02*
Y44823D01*
X196312Y48968D02*
X197669D01*
X202033Y53332D01*
X192167Y44823D02*
X196312Y48968D01*
X202033Y53332D02*
Y57682D01*
X203493Y59142D01*
X189191Y41602D02*
X192167Y44578D01*
X399515Y271388D02*
Y272404D01*
X375821Y247694D02*
X399515Y271388D01*
X374623Y234050D02*
X375821Y235249D01*
Y247694D01*
X374623Y208650D02*
Y234050D01*
D39*
X277595Y445632D02*
D03*
X429995Y445632D02*
D03*
Y318632D02*
D03*
X404595Y318632D02*
D03*
X379195Y318632D02*
D03*
X353795D02*
D03*
X328395Y318632D02*
D03*
X302995Y318632D02*
D03*
X302995Y445632D02*
D03*
X455395Y445632D02*
D03*
Y318632D02*
D03*
X328395Y445632D02*
D03*
X353795D02*
D03*
X404595Y445632D02*
D03*
X379195Y445632D02*
D03*
X277595Y369432D02*
D03*
Y318632D02*
D03*
X277595Y344032D02*
D03*
D40*
X339993Y149142D02*
D03*
D41*
X390793D02*
D03*
D42*
X247623Y234050D02*
D03*
X273023D02*
D03*
X298423D02*
D03*
X323823D02*
D03*
X349223D02*
D03*
D43*
X374623D02*
D03*
D44*
X298423Y208650D02*
D03*
X323823D02*
D03*
X349223D02*
D03*
X404595Y369432D02*
D03*
Y394832D02*
D03*
X353795Y420232D02*
D03*
X353795Y394832D02*
D03*
Y369432D02*
D03*
X379195Y420232D02*
D03*
Y394832D02*
D03*
Y369432D02*
D03*
D45*
X374623Y208650D02*
D03*
D46*
X404595Y344032D02*
D03*
X353795Y344032D02*
D03*
X379195Y344032D02*
D03*
D47*
X322899Y495078D02*
D03*
X347899D02*
D03*
X372899D02*
D03*
X248385Y52694D02*
D03*
Y77694D02*
D03*
X186993Y202142D02*
D03*
X125993Y250142D02*
D03*
Y172142D02*
D03*
D48*
X397899Y495078D02*
D03*
D49*
X248385Y27694D02*
D03*
X186993Y227142D02*
D03*
X125993Y275142D02*
D03*
Y197142D02*
D03*
D50*
X526539Y368595D02*
D03*
X465446Y429689D02*
D03*
D51*
X490618Y352898D02*
D03*
X449748Y393768D02*
D03*
D52*
X496982Y339038D02*
D03*
X435889Y400132D02*
D03*
D53*
X116002Y342646D02*
D03*
X148768Y388620D02*
D03*
X161976Y410464D02*
D03*
X171882Y412392D02*
D03*
X468385Y376212D02*
D03*
X548105Y349366D02*
D03*
X463607Y381032D02*
D03*
X548105Y356152D02*
D03*
X104250Y338000D02*
D03*
X111036D02*
D03*
X139620Y390862D02*
D03*
X142164Y360426D02*
D03*
X113970Y373888D02*
D03*
X107874Y68834D02*
D03*
X147700Y190830D02*
D03*
X109398Y181610D02*
D03*
X136128Y209236D02*
D03*
X178232Y185928D02*
D03*
X223988Y108066D02*
D03*
X229335Y90032D02*
D03*
X228016Y73660D02*
D03*
X224714Y64770D02*
D03*
X216889Y88762D02*
D03*
X233604Y212344D02*
D03*
X305000Y192500D02*
D03*
X297500D02*
D03*
X334950Y197866D02*
D03*
X283993Y150024D02*
D03*
X312500Y192500D02*
D03*
Y187500D02*
D03*
X305000D02*
D03*
X297500D02*
D03*
X423899Y300344D02*
D03*
X240963Y351963D02*
D03*
X272058Y275401D02*
D03*
X160150Y60745D02*
D03*
X161743Y88593D02*
D03*
X152490Y111082D02*
D03*
X126924Y40640D02*
D03*
X136576Y26670D02*
D03*
X123114Y109648D02*
D03*
X128448Y115570D02*
D03*
X120000Y74342D02*
D03*
X301168Y397002D02*
D03*
X297443Y330951D02*
D03*
X313957Y361696D02*
D03*
X272212Y434304D02*
D03*
X247574Y425958D02*
D03*
X276855Y397049D02*
D03*
X264639Y416642D02*
D03*
X122352Y299212D02*
D03*
X112870Y309187D02*
D03*
X116002Y292354D02*
D03*
X122860Y326644D02*
D03*
X468000Y176000D02*
D03*
X462000D02*
D03*
X474000D02*
D03*
X480536Y164084D02*
D03*
X278054Y281432D02*
D03*
X246409Y297075D02*
D03*
X291565Y303646D02*
D03*
X428000Y182000D02*
D03*
X416000D02*
D03*
X422000D02*
D03*
X416000Y176000D02*
D03*
X422000D02*
D03*
X428000D02*
D03*
X451000Y182000D02*
D03*
X445000D02*
D03*
X439000D02*
D03*
Y176000D02*
D03*
X445000D02*
D03*
X451000D02*
D03*
X462000Y182000D02*
D03*
X468000D02*
D03*
X474000D02*
D03*
X442000Y234000D02*
D03*
X429000Y243818D02*
D03*
X237023Y407518D02*
D03*
X206680Y410464D02*
D03*
X265637Y301781D02*
D03*
X146228Y234442D02*
D03*
X171871Y244100D02*
D03*
X234430Y244050D02*
D03*
X205684Y272796D02*
D03*
X137952Y251813D02*
D03*
X104250Y320581D02*
D03*
X215570Y195072D02*
D03*
X173914Y211582D02*
D03*
X255900Y307792D02*
D03*
X251892Y270764D02*
D03*
X204443Y301360D02*
D03*
X293802Y253238D02*
D03*
X477324Y302544D02*
D03*
X426382Y280589D02*
D03*
X485572Y226568D02*
D03*
X537388Y283052D02*
D03*
X515339Y270626D02*
D03*
X513815Y263768D02*
D03*
X285928Y241554D02*
D03*
X138518Y277024D02*
D03*
X144360Y271182D02*
D03*
X123146Y291536D02*
D03*
X134250Y292250D02*
D03*
X153419Y296146D02*
D03*
X285723Y334380D02*
D03*
X290468Y339932D02*
D03*
X156321Y253746D02*
D03*
X216635Y206872D02*
D03*
X106399Y145404D02*
D03*
X172439Y127624D02*
D03*
X176568Y71556D02*
D03*
X167821Y76799D02*
D03*
X195376Y70816D02*
D03*
X123493Y79610D02*
D03*
X127993Y148198D02*
D03*
X140435Y149976D02*
D03*
X167391Y142855D02*
D03*
X267689Y397626D02*
D03*
X484114Y252678D02*
D03*
X253432Y379483D02*
D03*
X248626Y384274D02*
D03*
X264133Y442584D02*
D03*
X146023Y15864D02*
D03*
X215275Y39142D02*
D03*
X217905Y26532D02*
D03*
X185834Y49713D02*
D03*
X142311Y39642D02*
D03*
X130993Y79610D02*
D03*
X544579Y313216D02*
D03*
X417803Y275706D02*
D03*
X444473Y250306D02*
D03*
X445743Y359526D02*
D03*
X483808Y356924D02*
D03*
X452855Y336158D02*
D03*
X460983Y346454D02*
D03*
X530833Y340222D02*
D03*
X439991Y367781D02*
D03*
X517529Y339678D02*
D03*
X219175Y411215D02*
D03*
X192454Y327573D02*
D03*
X199871Y383656D02*
D03*
X205205Y388954D02*
D03*
X220699Y335142D02*
D03*
X151357Y351933D02*
D03*
X231621Y345810D02*
D03*
X202969Y318074D02*
D03*
X182599Y297042D02*
D03*
X164819Y358764D02*
D03*
X224509Y341238D02*
D03*
X220191Y352444D02*
D03*
X206668Y340967D02*
D03*
X231621Y298566D02*
D03*
D54*
X467993Y268142D02*
D03*
X478993D02*
D03*
X467993Y279142D02*
D03*
X478993D02*
D03*
X467993Y290142D02*
D03*
X478993D02*
D03*
M02*
