G04*
G04 #@! TF.GenerationSoftware,Altium Limited,Altium Designer,23.11.1 (41)*
G04*
G04 Layer_Color=8388736*
%FSLAX44Y44*%
%MOMM*%
G71*
G04*
G04 #@! TF.SameCoordinates,FB2BF82D-85B4-4A24-BBB8-605E99FAA97A*
G04*
G04*
G04 #@! TF.FilePolarity,Negative*
G04*
G01*
G75*
%ADD93R,1.4032X1.2032*%
%ADD94R,1.5032X0.9032*%
G04:AMPARAMS|DCode=95|XSize=0.9032mm|YSize=1.5032mm|CornerRadius=0.2766mm|HoleSize=0mm|Usage=FLASHONLY|Rotation=270.000|XOffset=0mm|YOffset=0mm|HoleType=Round|Shape=RoundedRectangle|*
%AMROUNDEDRECTD95*
21,1,0.9032,0.9500,0,0,270.0*
21,1,0.3500,1.5032,0,0,270.0*
1,1,0.5532,-0.4750,-0.1750*
1,1,0.5532,-0.4750,0.1750*
1,1,0.5532,0.4750,0.1750*
1,1,0.5532,0.4750,-0.1750*
%
%ADD95ROUNDEDRECTD95*%
%ADD96R,1.6032X1.4032*%
G04:AMPARAMS|DCode=97|XSize=1.2032mm|YSize=1.1032mm|CornerRadius=0.3266mm|HoleSize=0mm|Usage=FLASHONLY|Rotation=90.000|XOffset=0mm|YOffset=0mm|HoleType=Round|Shape=RoundedRectangle|*
%AMROUNDEDRECTD97*
21,1,1.2032,0.4500,0,0,90.0*
21,1,0.5500,1.1032,0,0,90.0*
1,1,0.6532,0.2250,0.2750*
1,1,0.6532,0.2250,-0.2750*
1,1,0.6532,-0.2250,-0.2750*
1,1,0.6532,-0.2250,0.2750*
%
%ADD97ROUNDEDRECTD97*%
G04:AMPARAMS|DCode=98|XSize=1.6782mm|YSize=0.5032mm|CornerRadius=0mm|HoleSize=0mm|Usage=FLASHONLY|Rotation=45.000|XOffset=0mm|YOffset=0mm|HoleType=Round|Shape=Rectangle|*
%AMROTATEDRECTD98*
4,1,4,-0.4154,-0.7712,-0.7712,-0.4154,0.4154,0.7712,0.7712,0.4154,-0.4154,-0.7712,0.0*
%
%ADD98ROTATEDRECTD98*%

G04:AMPARAMS|DCode=99|XSize=1.6782mm|YSize=0.5032mm|CornerRadius=0mm|HoleSize=0mm|Usage=FLASHONLY|Rotation=45.000|XOffset=0mm|YOffset=0mm|HoleType=Round|Shape=Round|*
%AMOVALD99*
21,1,1.1750,0.5032,0.0000,0.0000,45.0*
1,1,0.5032,-0.4154,-0.4154*
1,1,0.5032,0.4154,0.4154*
%
%ADD99OVALD99*%

G04:AMPARAMS|DCode=100|XSize=1.6782mm|YSize=0.5032mm|CornerRadius=0.1766mm|HoleSize=0mm|Usage=FLASHONLY|Rotation=45.000|XOffset=0mm|YOffset=0mm|HoleType=Round|Shape=RoundedRectangle|*
%AMROUNDEDRECTD100*
21,1,1.6782,0.1500,0,0,45.0*
21,1,1.3250,0.5032,0,0,45.0*
1,1,0.3532,0.5215,0.4154*
1,1,0.3532,-0.4154,-0.5215*
1,1,0.3532,-0.5215,-0.4154*
1,1,0.3532,0.4154,0.5215*
%
%ADD100ROUNDEDRECTD100*%
G04:AMPARAMS|DCode=101|XSize=1.6782mm|YSize=0.5032mm|CornerRadius=0.1766mm|HoleSize=0mm|Usage=FLASHONLY|Rotation=135.000|XOffset=0mm|YOffset=0mm|HoleType=Round|Shape=RoundedRectangle|*
%AMROUNDEDRECTD101*
21,1,1.6782,0.1500,0,0,135.0*
21,1,1.3250,0.5032,0,0,135.0*
1,1,0.3532,-0.4154,0.5215*
1,1,0.3532,0.5215,-0.4154*
1,1,0.3532,0.4154,-0.5215*
1,1,0.3532,-0.5215,0.4154*
%
%ADD101ROUNDEDRECTD101*%
%ADD102C,1.0414*%
G04:AMPARAMS|DCode=103|XSize=1.1532mm|YSize=1.0532mm|CornerRadius=0.3141mm|HoleSize=0mm|Usage=FLASHONLY|Rotation=162.000|XOffset=0mm|YOffset=0mm|HoleType=Round|Shape=RoundedRectangle|*
%AMROUNDEDRECTD103*
21,1,1.1532,0.4250,0,0,162.0*
21,1,0.5250,1.0532,0,0,162.0*
1,1,0.6282,-0.1840,0.2832*
1,1,0.6282,0.3153,0.1210*
1,1,0.6282,0.1840,-0.2832*
1,1,0.6282,-0.3153,-0.1210*
%
%ADD103ROUNDEDRECTD103*%
G04:AMPARAMS|DCode=104|XSize=1.1532mm|YSize=1.0532mm|CornerRadius=0mm|HoleSize=0mm|Usage=FLASHONLY|Rotation=162.000|XOffset=0mm|YOffset=0mm|HoleType=Round|Shape=Rectangle|*
%AMROTATEDRECTD104*
4,1,4,0.7111,0.3227,0.3857,-0.6790,-0.7111,-0.3227,-0.3857,0.6790,0.7111,0.3227,0.0*
%
%ADD104ROTATEDRECTD104*%

%ADD105R,1.2532X0.8032*%
G04:AMPARAMS|DCode=106|XSize=1.7032mm|YSize=3.7032mm|CornerRadius=0.4766mm|HoleSize=0mm|Usage=FLASHONLY|Rotation=225.000|XOffset=0mm|YOffset=0mm|HoleType=Round|Shape=RoundedRectangle|*
%AMROUNDEDRECTD106*
21,1,1.7032,2.7500,0,0,225.0*
21,1,0.7500,3.7032,0,0,225.0*
1,1,0.9532,-1.2374,0.7071*
1,1,0.9532,-0.7071,1.2374*
1,1,0.9532,1.2374,-0.7071*
1,1,0.9532,0.7071,-1.2374*
%
%ADD106ROUNDEDRECTD106*%
G04:AMPARAMS|DCode=107|XSize=1.7032mm|YSize=3.7032mm|CornerRadius=0mm|HoleSize=0mm|Usage=FLASHONLY|Rotation=225.000|XOffset=0mm|YOffset=0mm|HoleType=Round|Shape=Rectangle|*
%AMROTATEDRECTD107*
4,1,4,-0.7071,1.9115,1.9115,-0.7071,0.7071,-1.9115,-1.9115,0.7071,-0.7071,1.9115,0.0*
%
%ADD107ROTATEDRECTD107*%

%ADD108R,1.0032X1.1032*%
%ADD109C,3.0000*%
G04:AMPARAMS|DCode=110|XSize=2.0032mm|YSize=1.5032mm|CornerRadius=0.4266mm|HoleSize=0mm|Usage=FLASHONLY|Rotation=270.000|XOffset=0mm|YOffset=0mm|HoleType=Round|Shape=RoundedRectangle|*
%AMROUNDEDRECTD110*
21,1,2.0032,0.6500,0,0,270.0*
21,1,1.1500,1.5032,0,0,270.0*
1,1,0.8532,-0.3250,-0.5750*
1,1,0.8532,-0.3250,0.5750*
1,1,0.8532,0.3250,0.5750*
1,1,0.8532,0.3250,-0.5750*
%
%ADD110ROUNDEDRECTD110*%
G04:AMPARAMS|DCode=111|XSize=1.2032mm|YSize=1.1032mm|CornerRadius=0.3266mm|HoleSize=0mm|Usage=FLASHONLY|Rotation=180.000|XOffset=0mm|YOffset=0mm|HoleType=Round|Shape=RoundedRectangle|*
%AMROUNDEDRECTD111*
21,1,1.2032,0.4500,0,0,180.0*
21,1,0.5500,1.1032,0,0,180.0*
1,1,0.6532,-0.2750,0.2250*
1,1,0.6532,0.2750,0.2250*
1,1,0.6532,0.2750,-0.2250*
1,1,0.6532,-0.2750,-0.2250*
%
%ADD111ROUNDEDRECTD111*%
G04:AMPARAMS|DCode=112|XSize=2.0032mm|YSize=1.5032mm|CornerRadius=0.4266mm|HoleSize=0mm|Usage=FLASHONLY|Rotation=180.000|XOffset=0mm|YOffset=0mm|HoleType=Round|Shape=RoundedRectangle|*
%AMROUNDEDRECTD112*
21,1,2.0032,0.6500,0,0,180.0*
21,1,1.1500,1.5032,0,0,180.0*
1,1,0.8532,-0.5750,0.3250*
1,1,0.8532,0.5750,0.3250*
1,1,0.8532,0.5750,-0.3250*
1,1,0.8532,-0.5750,-0.3250*
%
%ADD112ROUNDEDRECTD112*%
%ADD113R,1.2032X1.4032*%
%ADD114R,2.2032X4.2032*%
G04:AMPARAMS|DCode=115|XSize=1.1532mm|YSize=1.0532mm|CornerRadius=0.3141mm|HoleSize=0mm|Usage=FLASHONLY|Rotation=225.000|XOffset=0mm|YOffset=0mm|HoleType=Round|Shape=RoundedRectangle|*
%AMROUNDEDRECTD115*
21,1,1.1532,0.4250,0,0,225.0*
21,1,0.5250,1.0532,0,0,225.0*
1,1,0.6282,-0.3359,-0.0354*
1,1,0.6282,0.0354,0.3359*
1,1,0.6282,0.3359,0.0354*
1,1,0.6282,-0.0354,-0.3359*
%
%ADD115ROUNDEDRECTD115*%
G04:AMPARAMS|DCode=116|XSize=1.1532mm|YSize=1.0532mm|CornerRadius=0mm|HoleSize=0mm|Usage=FLASHONLY|Rotation=225.000|XOffset=0mm|YOffset=0mm|HoleType=Round|Shape=Rectangle|*
%AMROTATEDRECTD116*
4,1,4,0.0354,0.7801,0.7801,0.0354,-0.0354,-0.7801,-0.7801,-0.0354,0.0354,0.7801,0.0*
%
%ADD116ROTATEDRECTD116*%

G04:AMPARAMS|DCode=117|XSize=1.1532mm|YSize=1.0532mm|CornerRadius=0.3141mm|HoleSize=0mm|Usage=FLASHONLY|Rotation=135.000|XOffset=0mm|YOffset=0mm|HoleType=Round|Shape=RoundedRectangle|*
%AMROUNDEDRECTD117*
21,1,1.1532,0.4250,0,0,135.0*
21,1,0.5250,1.0532,0,0,135.0*
1,1,0.6282,-0.0354,0.3359*
1,1,0.6282,0.3359,-0.0354*
1,1,0.6282,0.0354,-0.3359*
1,1,0.6282,-0.3359,0.0354*
%
%ADD117ROUNDEDRECTD117*%
G04:AMPARAMS|DCode=118|XSize=1.1532mm|YSize=1.0532mm|CornerRadius=0mm|HoleSize=0mm|Usage=FLASHONLY|Rotation=135.000|XOffset=0mm|YOffset=0mm|HoleType=Round|Shape=Rectangle|*
%AMROTATEDRECTD118*
4,1,4,0.7801,-0.0354,0.0354,-0.7801,-0.7801,0.0354,-0.0354,0.7801,0.7801,-0.0354,0.0*
%
%ADD118ROTATEDRECTD118*%

G04:AMPARAMS|DCode=119|XSize=1.2032mm|YSize=1.1032mm|CornerRadius=0.3266mm|HoleSize=0mm|Usage=FLASHONLY|Rotation=225.000|XOffset=0mm|YOffset=0mm|HoleType=Round|Shape=RoundedRectangle|*
%AMROUNDEDRECTD119*
21,1,1.2032,0.4500,0,0,225.0*
21,1,0.5500,1.1032,0,0,225.0*
1,1,0.6532,-0.3536,-0.0354*
1,1,0.6532,0.0354,0.3536*
1,1,0.6532,0.3536,0.0354*
1,1,0.6532,-0.0354,-0.3536*
%
%ADD119ROUNDEDRECTD119*%
G04:AMPARAMS|DCode=120|XSize=1.2032mm|YSize=1.1032mm|CornerRadius=0.3266mm|HoleSize=0mm|Usage=FLASHONLY|Rotation=315.000|XOffset=0mm|YOffset=0mm|HoleType=Round|Shape=RoundedRectangle|*
%AMROUNDEDRECTD120*
21,1,1.2032,0.4500,0,0,315.0*
21,1,0.5500,1.1032,0,0,315.0*
1,1,0.6532,0.0354,-0.3536*
1,1,0.6532,-0.3536,0.0354*
1,1,0.6532,-0.0354,0.3536*
1,1,0.6532,0.3536,-0.0354*
%
%ADD120ROUNDEDRECTD120*%
G04:AMPARAMS|DCode=121|XSize=1.2032mm|YSize=1.1032mm|CornerRadius=0.3266mm|HoleSize=0mm|Usage=FLASHONLY|Rotation=162.000|XOffset=0mm|YOffset=0mm|HoleType=Round|Shape=RoundedRectangle|*
%AMROUNDEDRECTD121*
21,1,1.2032,0.4500,0,0,162.0*
21,1,0.5500,1.1032,0,0,162.0*
1,1,0.6532,-0.1920,0.2990*
1,1,0.6532,0.3311,0.1290*
1,1,0.6532,0.1920,-0.2990*
1,1,0.6532,-0.3311,-0.1290*
%
%ADD121ROUNDEDRECTD121*%
%ADD122C,0.2032*%
%ADD123C,1.5748*%
%ADD124P,2.6915X4X296.0*%
%ADD125C,1.9032*%
%ADD126C,1.8508*%
%ADD127R,1.8508X1.8508*%
%ADD128R,1.5494X1.5494*%
%ADD129R,1.7112X1.7112*%
%ADD130C,1.7112*%
%ADD131R,1.7112X1.7112*%
G04:AMPARAMS|DCode=132|XSize=1.2032mm|YSize=1.8032mm|CornerRadius=0mm|HoleSize=0mm|Usage=FLASHONLY|Rotation=315.000|XOffset=0mm|YOffset=0mm|HoleType=Round|Shape=Round|*
%AMOVALD132*
21,1,0.6000,1.2032,0.0000,0.0000,45.0*
1,1,1.2032,-0.2121,-0.2121*
1,1,1.2032,0.2121,0.2121*
%
%ADD132OVALD132*%

%ADD133C,0.8782*%
G04:AMPARAMS|DCode=134|XSize=1.2032mm|YSize=2.3032mm|CornerRadius=0mm|HoleSize=0mm|Usage=FLASHONLY|Rotation=315.000|XOffset=0mm|YOffset=0mm|HoleType=Round|Shape=Round|*
%AMOVALD134*
21,1,1.1000,1.2032,0.0000,0.0000,45.0*
1,1,1.2032,-0.3889,-0.3889*
1,1,1.2032,0.3889,0.3889*
%
%ADD134OVALD134*%

%ADD135R,1.5494X1.5494*%
%ADD136C,5.2032*%
%ADD137C,1.7032*%
D93*
X210372Y333248D02*
D03*
X284372D02*
D03*
D94*
X173000Y310500D02*
D03*
D95*
Y320000D02*
D03*
Y329500D02*
D03*
X149000Y329500D02*
D03*
Y320000D02*
D03*
X149000Y310500D02*
D03*
D96*
X139970Y141430D02*
D03*
Y118570D02*
D03*
X112030Y141430D02*
D03*
Y118570D02*
D03*
D97*
X260500Y195000D02*
D03*
X276500D02*
D03*
Y277500D02*
D03*
X260500D02*
D03*
X123000Y102500D02*
D03*
X139000D02*
D03*
X126500Y157500D02*
D03*
X110500D02*
D03*
X145500Y345000D02*
D03*
X161500D02*
D03*
X276500Y237500D02*
D03*
X260500D02*
D03*
X276500Y210000D02*
D03*
X260500D02*
D03*
X276500Y305000D02*
D03*
X260500D02*
D03*
X304000Y250000D02*
D03*
X288000D02*
D03*
X304000Y265000D02*
D03*
X288000D02*
D03*
X395500Y242500D02*
D03*
X411500D02*
D03*
X171500Y280000D02*
D03*
X155500D02*
D03*
X276500Y222500D02*
D03*
X260500D02*
D03*
D98*
X111587Y199478D02*
D03*
D99*
X115123Y195943D02*
D03*
D100*
X118659Y192407D02*
D03*
X122194Y188872D02*
D03*
X125730Y185336D02*
D03*
X129265Y181801D02*
D03*
X132801Y178265D02*
D03*
X136336Y174729D02*
D03*
X139872Y171194D02*
D03*
X143407Y167659D02*
D03*
X146943Y164123D02*
D03*
X150478Y160587D02*
D03*
X210413Y220522D02*
D03*
X206877Y224057D02*
D03*
X203342Y227593D02*
D03*
X199806Y231128D02*
D03*
X196271Y234664D02*
D03*
X192735Y238199D02*
D03*
X189199Y241735D02*
D03*
X185664Y245271D02*
D03*
X182128Y248806D02*
D03*
X178593Y252342D02*
D03*
X175057Y255877D02*
D03*
X171522Y259413D02*
D03*
D101*
Y160587D02*
D03*
X175057Y164123D02*
D03*
X178593Y167659D02*
D03*
X182128Y171194D02*
D03*
X185664Y174729D02*
D03*
X189199Y178265D02*
D03*
X192735Y181801D02*
D03*
X196271Y185336D02*
D03*
X199806Y188872D02*
D03*
X203342Y192407D02*
D03*
X206877Y195943D02*
D03*
X210413Y199478D02*
D03*
X150478Y259413D02*
D03*
X146943Y255877D02*
D03*
X143407Y252342D02*
D03*
X139872Y248806D02*
D03*
X136336Y245271D02*
D03*
X132801Y241735D02*
D03*
X129265Y238199D02*
D03*
X125730Y234664D02*
D03*
X122194Y231128D02*
D03*
X118659Y227593D02*
D03*
X115123Y224057D02*
D03*
X111587Y220522D02*
D03*
D102*
X210542Y156464D02*
D03*
X139422Y74422D02*
D03*
X161520Y266446D02*
D03*
X204700Y272288D02*
D03*
X153900Y101346D02*
D03*
X216384Y287528D02*
D03*
D103*
X471155Y254226D02*
D03*
D104*
X466057Y238534D02*
D03*
D105*
X247750Y252500D02*
D03*
X274250Y252500D02*
D03*
Y262500D02*
D03*
X247750D02*
D03*
D106*
X492461Y403173D02*
D03*
D107*
X528524Y367111D02*
D03*
D108*
X284000Y412500D02*
D03*
X298000D02*
D03*
X261500Y290000D02*
D03*
X275500D02*
D03*
D109*
X227673Y453502D02*
D03*
X371331Y57698D02*
D03*
X619037Y243924D02*
D03*
D110*
X325493Y356642D02*
D03*
X353493D02*
D03*
X325066Y377952D02*
D03*
X353066D02*
D03*
X314500Y400000D02*
D03*
X342500D02*
D03*
X314500Y422500D02*
D03*
X342500D02*
D03*
D111*
X246000Y305500D02*
D03*
Y289500D02*
D03*
X366000Y202000D02*
D03*
Y218000D02*
D03*
X108180Y312040D02*
D03*
Y328040D02*
D03*
X201144Y300356D02*
D03*
Y316356D02*
D03*
X293500Y182000D02*
D03*
Y198000D02*
D03*
D112*
X126722Y316768D02*
D03*
Y288768D02*
D03*
D113*
X323500Y145000D02*
D03*
Y219000D02*
D03*
D114*
X386990Y212500D02*
D03*
X420010D02*
D03*
D115*
X580166Y328334D02*
D03*
D116*
X591834Y316666D02*
D03*
D117*
X141834Y275834D02*
D03*
D118*
X130166Y264166D02*
D03*
D119*
X557843Y350657D02*
D03*
X569157Y339343D02*
D03*
X529686Y307777D02*
D03*
X541000Y296464D02*
D03*
D120*
X567843Y289343D02*
D03*
X579157Y300657D02*
D03*
D121*
X480154Y281409D02*
D03*
X475210Y266192D02*
D03*
D122*
X308000Y90000D02*
D03*
Y81000D02*
D03*
Y72000D02*
D03*
Y63000D02*
D03*
X608000Y311000D02*
D03*
X614364Y317364D02*
D03*
X620728Y323728D02*
D03*
X627092Y330092D02*
D03*
X96000Y137000D02*
D03*
Y146000D02*
D03*
Y155000D02*
D03*
Y164000D02*
D03*
X216000Y420000D02*
D03*
X207000D02*
D03*
X198000D02*
D03*
X189000D02*
D03*
D123*
X306095Y344032D02*
D03*
X306095Y318632D02*
D03*
Y369432D02*
D03*
X407695Y445632D02*
D03*
X433095Y445632D02*
D03*
X382295Y445632D02*
D03*
X356895D02*
D03*
X483895Y318632D02*
D03*
Y445632D02*
D03*
X331495Y445632D02*
D03*
X331495Y318632D02*
D03*
X356895Y318632D02*
D03*
X382295Y318632D02*
D03*
X407695D02*
D03*
X433095Y318632D02*
D03*
X458495Y318632D02*
D03*
Y445632D02*
D03*
X306095Y445632D02*
D03*
X415195Y369432D02*
D03*
Y394832D02*
D03*
Y420232D02*
D03*
X440595Y394832D02*
D03*
Y369432D02*
D03*
X252700Y391600D02*
D03*
X227300Y391600D02*
D03*
X201900Y391600D02*
D03*
X389795Y369432D02*
D03*
Y394832D02*
D03*
X389795Y420232D02*
D03*
D124*
X525039Y264782D02*
D03*
D125*
X508500Y216750D02*
D03*
D126*
X151100Y366200D02*
D03*
X176500Y366200D02*
D03*
X201900Y366200D02*
D03*
X227300D02*
D03*
X252700D02*
D03*
D127*
X278100D02*
D03*
D128*
X415195Y344032D02*
D03*
X440595D02*
D03*
X389795Y344032D02*
D03*
D129*
X426399Y495078D02*
D03*
X188500Y114750D02*
D03*
X376000Y152250D02*
D03*
X453500D02*
D03*
D130*
X401399Y495078D02*
D03*
X376399D02*
D03*
X351399D02*
D03*
X286250Y55000D02*
D03*
Y80000D02*
D03*
X213500Y114750D02*
D03*
X401000Y152250D02*
D03*
X478500D02*
D03*
D131*
X286250Y30000D02*
D03*
D132*
X493946Y429689D02*
D03*
X555039Y368595D02*
D03*
D133*
X478248Y393768D02*
D03*
X519118Y352898D02*
D03*
D134*
X464389Y400132D02*
D03*
X525482Y339038D02*
D03*
D135*
X278100Y391600D02*
D03*
D136*
X619493Y368048D02*
D03*
X494493Y494142D02*
D03*
D137*
X268660Y150469D02*
D03*
X388500Y278182D02*
D03*
M02*
