G04*
G04 #@! TF.GenerationSoftware,Altium Limited,Altium Designer,23.11.1 (41)*
G04*
G04 Layer_Physical_Order=3*
G04 Layer_Color=16440176*
%FSLAX44Y44*%
%MOMM*%
G71*
G04*
G04 #@! TF.SameCoordinates,FB2BF82D-85B4-4A24-BBB8-605E99FAA97A*
G04*
G04*
G04 #@! TF.FilePolarity,Positive*
G04*
G01*
G75*
%ADD39C,0.5080*%
%ADD40C,0.2032*%
%ADD42C,0.3048*%
%ADD43C,0.2540*%
%ADD44C,1.2700*%
%ADD45C,1.3716*%
%ADD46P,2.4042X4X296.0*%
%ADD48C,1.8000*%
%ADD51C,1.5240*%
%ADD52R,1.5080X1.5080*%
%ADD53C,1.5080*%
G04:AMPARAMS|DCode=55|XSize=1mm|YSize=1.6mm|CornerRadius=0mm|HoleSize=0mm|Usage=FLASHONLY|Rotation=315.000|XOffset=0mm|YOffset=0mm|HoleType=Round|Shape=Round|*
%AMOVALD55*
21,1,0.6000,1.0000,0.0000,0.0000,45.0*
1,1,1.0000,-0.2121,-0.2121*
1,1,1.0000,0.2121,0.2121*
%
%ADD55OVALD55*%

G04:AMPARAMS|DCode=57|XSize=1mm|YSize=2.1mm|CornerRadius=0mm|HoleSize=0mm|Usage=FLASHONLY|Rotation=315.000|XOffset=0mm|YOffset=0mm|HoleType=Round|Shape=Round|*
%AMOVALD57*
21,1,1.1000,1.0000,0.0000,0.0000,45.0*
1,1,1.0000,-0.3889,-0.3889*
1,1,1.0000,0.3889,0.3889*
%
%ADD57OVALD57*%

%ADD61C,0.4500*%
%ADD62C,1.9050*%
D39*
X440595Y427732D02*
X458495Y445632D01*
X440595Y394832D02*
Y427732D01*
D40*
X336996Y206464D02*
G03*
X337591Y207900I-1437J1437D01*
G01*
X342504Y308189D02*
G03*
X341909Y306752I1437J-1437D01*
G01*
X291110Y127304D02*
X293636Y129830D01*
X290501Y127304D02*
X291110D01*
X293636Y129830D02*
Y161025D01*
X149582Y262137D02*
Y364682D01*
Y262137D02*
X167355Y244364D01*
Y214881D02*
Y244364D01*
X183872Y179095D02*
Y213978D01*
X182348Y227028D02*
Y270887D01*
X192131Y280670D01*
X185506Y215612D02*
Y220212D01*
X182777Y222941D02*
X185506Y220212D01*
X183872Y213978D02*
X185506Y215612D01*
X182777Y222941D02*
Y226599D01*
X182348Y227028D02*
X182777Y226599D01*
X192131Y280670D02*
X197952D01*
X198350Y280271D01*
X171172Y166395D02*
X183872Y179095D01*
X233596Y249356D02*
X233639D01*
X229070Y253516D02*
X229904D01*
X233639Y249356D02*
X245340Y261057D01*
X229904Y253516D02*
X241022Y264634D01*
Y278649D01*
X212216Y280081D02*
Y310367D01*
X195266Y263130D02*
X212216Y280081D01*
X217768Y279526D02*
Y307245D01*
X199584Y261342D02*
X217768Y279526D01*
X213350Y310678D02*
X216602Y313930D01*
X212528Y310678D02*
X213350D01*
X212216Y310367D02*
X212528Y310678D01*
X199584Y165433D02*
Y261342D01*
Y165433D02*
X202037Y162980D01*
X205524Y344424D02*
X227300Y366200D01*
X169394Y255535D02*
X177225Y247704D01*
X169394Y255535D02*
Y315214D01*
X177225Y224299D02*
Y247704D01*
X169394Y315214D02*
X198604Y344424D01*
X205524D01*
X153900Y264922D02*
X171673Y247149D01*
Y216669D02*
Y247149D01*
X153900Y264922D02*
Y339646D01*
X149582Y364682D02*
X151100Y366200D01*
X153900Y339646D02*
X176500Y362246D01*
Y366200D01*
X173679Y186702D02*
Y187369D01*
X175998Y189688D01*
X171766Y212016D02*
X175998Y207784D01*
Y189688D02*
Y207784D01*
X167448Y210227D02*
X171680Y205995D01*
Y192554D02*
Y205995D01*
X167362Y188236D02*
X171680Y192554D01*
X171673Y216669D02*
X171766Y216576D01*
X167355Y214881D02*
X167448Y214788D01*
X195266Y162524D02*
Y263130D01*
X167448Y210227D02*
Y214788D01*
X171766Y212016D02*
Y216576D01*
X171898Y144526D02*
Y155431D01*
X171172Y156157D02*
Y166395D01*
Y156157D02*
X171898Y155431D01*
X191063Y158321D02*
X195266Y162524D01*
X191027Y158321D02*
X191063D01*
X253214Y310642D02*
Y310896D01*
Y310642D02*
X256770Y307086D01*
Y183896D02*
Y307086D01*
X279795Y349414D02*
X287299D01*
X245340Y314960D02*
X279795Y349414D01*
X248388Y175514D02*
X256770Y183896D01*
X167362Y181864D02*
Y188236D01*
X161012Y180296D02*
Y186690D01*
X157964Y177248D02*
X161012Y180296D01*
X157964Y145286D02*
Y177248D01*
X246356Y121666D02*
Y158474D01*
X245340Y261057D02*
Y314960D01*
X225818Y243042D02*
X230608Y238252D01*
X225818Y243042D02*
Y250264D01*
X229070Y253516D01*
X236196Y283475D02*
Y314452D01*
Y283475D02*
X241022Y278649D01*
X216602Y313930D02*
Y314497D01*
X221464Y319359D02*
Y341122D01*
X216602Y314497D02*
X221464Y319359D01*
X217768Y307245D02*
X218179Y307656D01*
X126722Y322413D02*
X131729Y327420D01*
Y327804D01*
X126722Y281432D02*
Y322413D01*
Y281432D02*
X130532Y277622D01*
X250420Y117602D02*
X250928D01*
X246356Y121666D02*
X250420Y117602D01*
X290944Y175282D02*
X296497Y180836D01*
X290944Y163717D02*
Y175282D01*
X296497Y180836D02*
Y191376D01*
X306010Y257012D02*
X320560Y271562D01*
X296497Y191376D02*
X300458Y195337D01*
Y213151D02*
X303284Y210326D01*
X300458Y202901D02*
X303284Y205726D01*
X306010Y245788D02*
Y257012D01*
X300458Y195337D02*
Y202901D01*
X303284Y205726D02*
Y210326D01*
X306593Y233312D02*
Y245205D01*
X306010Y245788D02*
X306593Y245205D01*
X301144Y258253D02*
X316206Y273315D01*
X300458Y213151D02*
Y233691D01*
X301144Y234377D02*
Y258253D01*
X300458Y233691D02*
X301144Y234377D01*
X278904Y191022D02*
Y225068D01*
X292000Y238164D02*
Y266116D01*
X295935Y270051D01*
Y337107D01*
X278904Y225068D02*
X292000Y238164D01*
X295935Y337107D02*
X299505Y340677D01*
X299578D01*
X291617Y347267D02*
X299442Y355092D01*
X291617Y272867D02*
Y347267D01*
X299578Y340677D02*
X302933Y344032D01*
X306095D01*
X287299Y349414D02*
X295681Y357797D01*
X286448Y267698D02*
X291617Y272867D01*
X286448Y240464D02*
Y267698D01*
X246356Y158474D02*
X278904Y191022D01*
X316206Y348289D02*
Y359321D01*
X306095Y369432D02*
X316206Y359321D01*
Y314375D02*
X316255Y314424D01*
X320560Y271562D02*
Y312623D01*
X316206Y348289D02*
X316255Y348241D01*
X316206Y273315D02*
Y314375D01*
X290944Y163717D02*
X293636Y161025D01*
X336996Y204837D02*
Y206464D01*
X300814Y168656D02*
X336996Y204837D01*
X232191Y222241D02*
X234236Y220195D01*
X231719Y226509D02*
X232191Y226037D01*
X234236Y93764D02*
Y220195D01*
X232191Y222241D02*
Y226037D01*
X234236Y93764D02*
X272120Y55880D01*
X157964Y145286D02*
X188500Y114750D01*
X337591Y207900D02*
X337591Y231199D01*
X341909Y192327D02*
Y306752D01*
X314682Y165100D02*
X341909Y192327D01*
X342504Y308189D02*
X346686Y312371D01*
X316255Y314424D02*
Y348241D01*
X320560Y312623D02*
X320573Y312635D01*
Y350029D01*
X320560Y350042D02*
Y410856D01*
Y350042D02*
X320573Y350029D01*
X299442Y355092D02*
X310654D01*
X337591Y309383D02*
X342368Y314160D01*
X337591Y231199D02*
Y309383D01*
X346686Y312371D02*
Y324866D01*
X342368Y314160D02*
Y327384D01*
X326366Y343386D02*
X342368Y327384D01*
X326366Y343386D02*
Y405638D01*
X346686Y324866D02*
X354306Y332486D01*
Y350753D01*
X342104Y362956D02*
X354306Y350753D01*
X320560Y410856D02*
X327204Y417500D01*
X295681Y357797D02*
Y373387D01*
X306886Y384592D01*
X311416D01*
X311888Y385064D01*
X532106Y360934D02*
X555220Y337820D01*
X529047Y360934D02*
X532106D01*
X534392Y365252D02*
X553442Y346202D01*
X567920D01*
X573762Y352044D01*
X491212Y383794D02*
X512294D01*
X530836Y365252D01*
X534392D01*
X573762Y352044D02*
X574016D01*
X508230Y365760D02*
X524221D01*
X529047Y360934D01*
D42*
X413488Y254508D02*
X422378Y263398D01*
X413488Y196850D02*
Y254508D01*
Y196850D02*
X425172Y185166D01*
X356895Y318632D02*
X368716Y330454D01*
X400788D01*
X403074Y332740D01*
Y357312D01*
X415195Y369432D01*
D43*
X288216Y134824D02*
Y158850D01*
X274771Y119530D02*
Y121379D01*
X288216Y134824D01*
X286372Y160694D02*
X288216Y158850D01*
X286372Y160694D02*
Y177176D01*
X291926Y182729D01*
Y231624D01*
X296572Y262560D02*
X306095Y272083D01*
X296572Y236271D02*
Y262560D01*
X291926Y231624D02*
X296572Y236271D01*
X306095Y272083D02*
Y318632D01*
D44*
X120778Y214933D02*
X143436D01*
X108688Y202844D02*
X120778Y214933D01*
X108688Y172974D02*
Y202844D01*
X143436Y214933D02*
X153414Y224911D01*
Y227562D01*
X464389Y400132D02*
X464389D01*
X493946Y429689D01*
X555039Y368595D01*
X351766Y157226D02*
X365228Y170688D01*
X431522D01*
X438334Y177500D01*
X461240D01*
X444064Y206500D02*
X474120D01*
X481560Y213940D02*
Y248158D01*
X474120Y206500D02*
X481560Y213940D01*
Y248158D02*
X498184Y264782D01*
X525039D01*
D45*
X306095Y344032D02*
D03*
X306095Y318632D02*
D03*
Y369432D02*
D03*
X407695Y445632D02*
D03*
X433095Y445632D02*
D03*
X382295Y445632D02*
D03*
X356895D02*
D03*
Y318632D02*
D03*
X458495Y445632D02*
D03*
D46*
X525039Y264782D02*
D03*
D48*
X151100Y366200D02*
D03*
X176500Y366200D02*
D03*
X227300Y366200D02*
D03*
D51*
X415195Y369432D02*
D03*
X440595Y394832D02*
D03*
D52*
X426399Y495078D02*
D03*
X188500Y114750D02*
D03*
D53*
X401399Y495078D02*
D03*
X376399D02*
D03*
X351399D02*
D03*
D55*
X493946Y429689D02*
D03*
X555039Y368595D02*
D03*
D57*
X464389Y400132D02*
D03*
D61*
X290501Y127304D02*
D03*
X198350Y280271D02*
D03*
X177225Y224299D02*
D03*
X233596Y249356D02*
D03*
X173679Y186702D02*
D03*
X171898Y144526D02*
D03*
X135669Y210115D02*
D03*
X191027Y158321D02*
D03*
X202037Y162980D02*
D03*
X253214Y310896D02*
D03*
X248388Y175514D02*
D03*
X161012Y186690D02*
D03*
X230608Y238252D02*
D03*
X236196Y314452D02*
D03*
X218179Y307656D02*
D03*
X131729Y327804D02*
D03*
X221464Y341122D02*
D03*
X250928Y117602D02*
D03*
X274771Y119530D02*
D03*
X306593Y233312D02*
D03*
X286448Y240464D02*
D03*
X300814Y168656D02*
D03*
X167362Y181864D02*
D03*
X153414Y227562D02*
D03*
X231719Y226509D02*
D03*
X272120Y55880D02*
D03*
X108688Y172974D02*
D03*
X130532Y277622D02*
D03*
X310654Y355092D02*
D03*
X314682Y165100D02*
D03*
X326366Y405638D02*
D03*
X342104Y362956D02*
D03*
X311888Y385064D02*
D03*
X327204Y417500D02*
D03*
X422378Y263398D02*
D03*
X425172Y185166D02*
D03*
X555220Y337820D02*
D03*
X574016Y352044D02*
D03*
X491212Y383794D02*
D03*
X508230Y365760D02*
D03*
X351766Y157226D02*
D03*
X461240Y177500D02*
D03*
X444064Y206500D02*
D03*
D62*
X383095Y445632D02*
Y459145D01*
X376399Y465841D02*
X383095Y459145D01*
X376399Y465841D02*
Y495078D01*
X404747Y448980D02*
Y491730D01*
Y448980D02*
X408095Y445632D01*
X401399Y495078D02*
X404747Y491730D01*
X351399Y452328D02*
Y495078D01*
Y452328D02*
X358095Y445632D01*
X433095D02*
Y488382D01*
X426399Y495078D02*
X433095Y488382D01*
M02*
