G04*
G04 #@! TF.GenerationSoftware,Altium Limited,Altium Designer,23.11.1 (41)*
G04*
G04 Layer_Physical_Order=4*
G04 Layer_Color=16711680*
%FSLAX44Y44*%
%MOMM*%
G71*
G04*
G04 #@! TF.SameCoordinates,79A2741A-1FD1-431D-8CB4-14BDB42BD488*
G04*
G04*
G04 #@! TF.FilePolarity,Positive*
G04*
G01*
G75*
G04:AMPARAMS|DCode=14|XSize=1mm|YSize=0.9mm|CornerRadius=0.225mm|HoleSize=0mm|Usage=FLASHONLY|Rotation=90.000|XOffset=0mm|YOffset=0mm|HoleType=Round|Shape=RoundedRectangle|*
%AMROUNDEDRECTD14*
21,1,1.0000,0.4500,0,0,90.0*
21,1,0.5500,0.9000,0,0,90.0*
1,1,0.4500,0.2250,0.2750*
1,1,0.4500,0.2250,-0.2750*
1,1,0.4500,-0.2250,-0.2750*
1,1,0.4500,-0.2250,0.2750*
%
%ADD14ROUNDEDRECTD14*%
%ADD25R,0.8000X0.9000*%
%ADD26C,1.5000*%
G04:AMPARAMS|DCode=27|XSize=1.8mm|YSize=1.3mm|CornerRadius=0.325mm|HoleSize=0mm|Usage=FLASHONLY|Rotation=270.000|XOffset=0mm|YOffset=0mm|HoleType=Round|Shape=RoundedRectangle|*
%AMROUNDEDRECTD27*
21,1,1.8000,0.6500,0,0,270.0*
21,1,1.1500,1.3000,0,0,270.0*
1,1,0.6500,-0.3250,-0.5750*
1,1,0.6500,-0.3250,0.5750*
1,1,0.6500,0.3250,0.5750*
1,1,0.6500,0.3250,-0.5750*
%
%ADD27ROUNDEDRECTD27*%
G04:AMPARAMS|DCode=28|XSize=1mm|YSize=0.9mm|CornerRadius=0.225mm|HoleSize=0mm|Usage=FLASHONLY|Rotation=180.000|XOffset=0mm|YOffset=0mm|HoleType=Round|Shape=RoundedRectangle|*
%AMROUNDEDRECTD28*
21,1,1.0000,0.4500,0,0,180.0*
21,1,0.5500,0.9000,0,0,180.0*
1,1,0.4500,-0.2750,0.2250*
1,1,0.4500,0.2750,0.2250*
1,1,0.4500,0.2750,-0.2250*
1,1,0.4500,-0.2750,-0.2250*
%
%ADD28ROUNDEDRECTD28*%
G04:AMPARAMS|DCode=29|XSize=1.8mm|YSize=1.3mm|CornerRadius=0.325mm|HoleSize=0mm|Usage=FLASHONLY|Rotation=180.000|XOffset=0mm|YOffset=0mm|HoleType=Round|Shape=RoundedRectangle|*
%AMROUNDEDRECTD29*
21,1,1.8000,0.6500,0,0,180.0*
21,1,1.1500,1.3000,0,0,180.0*
1,1,0.6500,-0.5750,0.3250*
1,1,0.6500,0.5750,0.3250*
1,1,0.6500,0.5750,-0.3250*
1,1,0.6500,-0.5750,-0.3250*
%
%ADD29ROUNDEDRECTD29*%
G04:AMPARAMS|DCode=36|XSize=1mm|YSize=0.9mm|CornerRadius=0.225mm|HoleSize=0mm|Usage=FLASHONLY|Rotation=225.000|XOffset=0mm|YOffset=0mm|HoleType=Round|Shape=RoundedRectangle|*
%AMROUNDEDRECTD36*
21,1,1.0000,0.4500,0,0,225.0*
21,1,0.5500,0.9000,0,0,225.0*
1,1,0.4500,-0.3536,-0.0354*
1,1,0.4500,0.0354,0.3536*
1,1,0.4500,0.3536,0.0354*
1,1,0.4500,-0.0354,-0.3536*
%
%ADD36ROUNDEDRECTD36*%
G04:AMPARAMS|DCode=38|XSize=1mm|YSize=0.9mm|CornerRadius=0.225mm|HoleSize=0mm|Usage=FLASHONLY|Rotation=162.000|XOffset=0mm|YOffset=0mm|HoleType=Round|Shape=RoundedRectangle|*
%AMROUNDEDRECTD38*
21,1,1.0000,0.4500,0,0,162.0*
21,1,0.5500,0.9000,0,0,162.0*
1,1,0.4500,-0.1920,0.2990*
1,1,0.4500,0.3311,0.1290*
1,1,0.4500,0.1920,-0.2990*
1,1,0.4500,-0.3311,-0.1290*
%
%ADD38ROUNDEDRECTD38*%
%ADD39C,0.5080*%
%ADD40C,0.2032*%
%ADD41C,0.6350*%
%ADD42C,0.3048*%
%ADD43C,0.2540*%
%ADD44C,1.2700*%
%ADD45C,1.3716*%
%ADD46P,2.4042X4X296.0*%
%ADD47C,1.7000*%
%ADD48C,1.8000*%
%ADD49R,1.8000X1.8000*%
%ADD50R,1.4986X1.4986*%
%ADD51C,1.5240*%
%ADD52R,1.5080X1.5080*%
%ADD53C,1.5080*%
%ADD54R,1.5080X1.5080*%
G04:AMPARAMS|DCode=55|XSize=1mm|YSize=1.6mm|CornerRadius=0mm|HoleSize=0mm|Usage=FLASHONLY|Rotation=315.000|XOffset=0mm|YOffset=0mm|HoleType=Round|Shape=Round|*
%AMOVALD55*
21,1,0.6000,1.0000,0.0000,0.0000,45.0*
1,1,1.0000,-0.2121,-0.2121*
1,1,1.0000,0.2121,0.2121*
%
%ADD55OVALD55*%

%ADD56C,0.6750*%
G04:AMPARAMS|DCode=57|XSize=1mm|YSize=2.1mm|CornerRadius=0mm|HoleSize=0mm|Usage=FLASHONLY|Rotation=315.000|XOffset=0mm|YOffset=0mm|HoleType=Round|Shape=Round|*
%AMOVALD57*
21,1,1.1000,1.0000,0.0000,0.0000,45.0*
1,1,1.0000,-0.3889,-0.3889*
1,1,1.0000,0.3889,0.3889*
%
%ADD57OVALD57*%

%ADD58R,1.4986X1.4986*%
%ADD59C,5.0000*%
%ADD60C,0.5000*%
%ADD61C,0.4500*%
%ADD63R,2.1500X1.6000*%
G04:AMPARAMS|DCode=64|XSize=1.6mm|YSize=2.15mm|CornerRadius=0.4mm|HoleSize=0mm|Usage=FLASHONLY|Rotation=90.000|XOffset=0mm|YOffset=0mm|HoleType=Round|Shape=RoundedRectangle|*
%AMROUNDEDRECTD64*
21,1,1.6000,1.3500,0,0,90.0*
21,1,0.8000,2.1500,0,0,90.0*
1,1,0.8000,0.6750,0.4000*
1,1,0.8000,0.6750,-0.4000*
1,1,0.8000,-0.6750,-0.4000*
1,1,0.8000,-0.6750,0.4000*
%
%ADD64ROUNDEDRECTD64*%
G04:AMPARAMS|DCode=65|XSize=3.85mm|YSize=2.15mm|CornerRadius=0.5375mm|HoleSize=0mm|Usage=FLASHONLY|Rotation=90.000|XOffset=0mm|YOffset=0mm|HoleType=Round|Shape=RoundedRectangle|*
%AMROUNDEDRECTD65*
21,1,3.8500,1.0750,0,0,90.0*
21,1,2.7750,2.1500,0,0,90.0*
1,1,1.0750,0.5375,1.3875*
1,1,1.0750,0.5375,-1.3875*
1,1,1.0750,-0.5375,-1.3875*
1,1,1.0750,-0.5375,1.3875*
%
%ADD65ROUNDEDRECTD65*%
G04:AMPARAMS|DCode=66|XSize=0.3mm|YSize=1.15mm|CornerRadius=0.075mm|HoleSize=0mm|Usage=FLASHONLY|Rotation=170.000|XOffset=0mm|YOffset=0mm|HoleType=Round|Shape=RoundedRectangle|*
%AMROUNDEDRECTD66*
21,1,0.3000,1.0000,0,0,170.0*
21,1,0.1500,1.1500,0,0,170.0*
1,1,0.1500,0.0130,0.5054*
1,1,0.1500,0.1607,0.4794*
1,1,0.1500,-0.0130,-0.5054*
1,1,0.1500,-0.1607,-0.4794*
%
%ADD66ROUNDEDRECTD66*%
G04:AMPARAMS|DCode=67|XSize=2.3mm|YSize=1.5mm|CornerRadius=0.375mm|HoleSize=0mm|Usage=FLASHONLY|Rotation=170.000|XOffset=0mm|YOffset=0mm|HoleType=Round|Shape=RoundedRectangle|*
%AMROUNDEDRECTD67*
21,1,2.3000,0.7500,0,0,170.0*
21,1,1.5500,1.5000,0,0,170.0*
1,1,0.7500,-0.6981,0.5039*
1,1,0.7500,0.8283,0.2347*
1,1,0.7500,0.6981,-0.5039*
1,1,0.7500,-0.8283,-0.2347*
%
%ADD67ROUNDEDRECTD67*%
G04:AMPARAMS|DCode=68|XSize=0.35mm|YSize=1.634mm|CornerRadius=0.0875mm|HoleSize=0mm|Usage=FLASHONLY|Rotation=80.000|XOffset=0mm|YOffset=0mm|HoleType=Round|Shape=RoundedRectangle|*
%AMROUNDEDRECTD68*
21,1,0.3500,1.4590,0,0,80.0*
21,1,0.1750,1.6340,0,0,80.0*
1,1,0.1750,0.7336,-0.0405*
1,1,0.1750,0.7032,-0.2129*
1,1,0.1750,-0.7336,0.0405*
1,1,0.1750,-0.7032,0.2129*
%
%ADD68ROUNDEDRECTD68*%
G04:AMPARAMS|DCode=69|XSize=1.2mm|YSize=0.8mm|CornerRadius=0.2mm|HoleSize=0mm|Usage=FLASHONLY|Rotation=0.000|XOffset=0mm|YOffset=0mm|HoleType=Round|Shape=RoundedRectangle|*
%AMROUNDEDRECTD69*
21,1,1.2000,0.4000,0,0,0.0*
21,1,0.8000,0.8000,0,0,0.0*
1,1,0.4000,0.4000,-0.2000*
1,1,0.4000,-0.4000,-0.2000*
1,1,0.4000,-0.4000,0.2000*
1,1,0.4000,0.4000,0.2000*
%
%ADD69ROUNDEDRECTD69*%
%ADD70R,1.2000X0.8000*%
G04:AMPARAMS|DCode=71|XSize=2.3mm|YSize=3.2mm|CornerRadius=0.2875mm|HoleSize=0mm|Usage=FLASHONLY|Rotation=45.000|XOffset=0mm|YOffset=0mm|HoleType=Round|Shape=RoundedRectangle|*
%AMROUNDEDRECTD71*
21,1,2.3000,2.6250,0,0,45.0*
21,1,1.7250,3.2000,0,0,45.0*
1,1,0.5750,1.5380,-0.3182*
1,1,0.5750,0.3182,-1.5380*
1,1,0.5750,-1.5380,0.3182*
1,1,0.5750,-0.3182,1.5380*
%
%ADD71ROUNDEDRECTD71*%
G04:AMPARAMS|DCode=72|XSize=0.6mm|YSize=1.45mm|CornerRadius=0.15mm|HoleSize=0mm|Usage=FLASHONLY|Rotation=315.000|XOffset=0mm|YOffset=0mm|HoleType=Round|Shape=RoundedRectangle|*
%AMROUNDEDRECTD72*
21,1,0.6000,1.1500,0,0,315.0*
21,1,0.3000,1.4500,0,0,315.0*
1,1,0.3000,-0.3005,-0.5127*
1,1,0.3000,-0.5127,-0.3005*
1,1,0.3000,0.3005,0.5127*
1,1,0.3000,0.5127,0.3005*
%
%ADD72ROUNDEDRECTD72*%
G04:AMPARAMS|DCode=73|XSize=0.6mm|YSize=1.45mm|CornerRadius=0mm|HoleSize=0mm|Usage=FLASHONLY|Rotation=315.000|XOffset=0mm|YOffset=0mm|HoleType=Round|Shape=Rectangle|*
%AMROTATEDRECTD73*
4,1,4,-0.7248,-0.3005,0.3005,0.7248,0.7248,0.3005,-0.3005,-0.7248,-0.7248,-0.3005,0.0*
%
%ADD73ROTATEDRECTD73*%

G04:AMPARAMS|DCode=74|XSize=0.3mm|YSize=1.45mm|CornerRadius=0mm|HoleSize=0mm|Usage=FLASHONLY|Rotation=315.000|XOffset=0mm|YOffset=0mm|HoleType=Round|Shape=Rectangle|*
%AMROTATEDRECTD74*
4,1,4,-0.6187,-0.4066,0.4066,0.6187,0.6187,0.4066,-0.4066,-0.6187,-0.6187,-0.4066,0.0*
%
%ADD74ROTATEDRECTD74*%

%ADD75R,4.0000X2.0000*%
G04:AMPARAMS|DCode=76|XSize=1.8mm|YSize=1.3mm|CornerRadius=0.325mm|HoleSize=0mm|Usage=FLASHONLY|Rotation=70.000|XOffset=0mm|YOffset=0mm|HoleType=Round|Shape=RoundedRectangle|*
%AMROUNDEDRECTD76*
21,1,1.8000,0.6500,0,0,70.0*
21,1,1.1500,1.3000,0,0,70.0*
1,1,0.6500,0.5021,0.4292*
1,1,0.6500,0.1087,-0.6515*
1,1,0.6500,-0.5021,-0.4292*
1,1,0.6500,-0.1087,0.6515*
%
%ADD76ROUNDEDRECTD76*%
G04:AMPARAMS|DCode=77|XSize=0.7mm|YSize=1.3mm|CornerRadius=0.175mm|HoleSize=0mm|Usage=FLASHONLY|Rotation=180.000|XOffset=0mm|YOffset=0mm|HoleType=Round|Shape=RoundedRectangle|*
%AMROUNDEDRECTD77*
21,1,0.7000,0.9500,0,0,180.0*
21,1,0.3500,1.3000,0,0,180.0*
1,1,0.3500,-0.1750,0.4750*
1,1,0.3500,0.1750,0.4750*
1,1,0.3500,0.1750,-0.4750*
1,1,0.3500,-0.1750,-0.4750*
%
%ADD77ROUNDEDRECTD77*%
%ADD78R,0.7000X1.3000*%
G04:AMPARAMS|DCode=79|XSize=0.3mm|YSize=1.15mm|CornerRadius=0.075mm|HoleSize=0mm|Usage=FLASHONLY|Rotation=270.000|XOffset=0mm|YOffset=0mm|HoleType=Round|Shape=RoundedRectangle|*
%AMROUNDEDRECTD79*
21,1,0.3000,1.0000,0,0,270.0*
21,1,0.1500,1.1500,0,0,270.0*
1,1,0.1500,-0.5000,-0.0750*
1,1,0.1500,-0.5000,0.0750*
1,1,0.1500,0.5000,0.0750*
1,1,0.1500,0.5000,-0.0750*
%
%ADD79ROUNDEDRECTD79*%
G04:AMPARAMS|DCode=80|XSize=2.3mm|YSize=1.5mm|CornerRadius=0.375mm|HoleSize=0mm|Usage=FLASHONLY|Rotation=270.000|XOffset=0mm|YOffset=0mm|HoleType=Round|Shape=RoundedRectangle|*
%AMROUNDEDRECTD80*
21,1,2.3000,0.7500,0,0,270.0*
21,1,1.5500,1.5000,0,0,270.0*
1,1,0.7500,-0.3750,-0.7750*
1,1,0.7500,-0.3750,0.7750*
1,1,0.7500,0.3750,0.7750*
1,1,0.7500,0.3750,-0.7750*
%
%ADD80ROUNDEDRECTD80*%
G04:AMPARAMS|DCode=81|XSize=0.35mm|YSize=1.634mm|CornerRadius=0.0875mm|HoleSize=0mm|Usage=FLASHONLY|Rotation=180.000|XOffset=0mm|YOffset=0mm|HoleType=Round|Shape=RoundedRectangle|*
%AMROUNDEDRECTD81*
21,1,0.3500,1.4590,0,0,180.0*
21,1,0.1750,1.6340,0,0,180.0*
1,1,0.1750,-0.0875,0.7295*
1,1,0.1750,0.0875,0.7295*
1,1,0.1750,0.0875,-0.7295*
1,1,0.1750,-0.0875,-0.7295*
%
%ADD81ROUNDEDRECTD81*%
G04:AMPARAMS|DCode=82|XSize=0.3mm|YSize=1.15mm|CornerRadius=0.075mm|HoleSize=0mm|Usage=FLASHONLY|Rotation=225.000|XOffset=0mm|YOffset=0mm|HoleType=Round|Shape=RoundedRectangle|*
%AMROUNDEDRECTD82*
21,1,0.3000,1.0000,0,0,225.0*
21,1,0.1500,1.1500,0,0,225.0*
1,1,0.1500,-0.4066,0.3005*
1,1,0.1500,-0.3005,0.4066*
1,1,0.1500,0.4066,-0.3005*
1,1,0.1500,0.3005,-0.4066*
%
%ADD82ROUNDEDRECTD82*%
G04:AMPARAMS|DCode=83|XSize=2.3mm|YSize=1.5mm|CornerRadius=0.375mm|HoleSize=0mm|Usage=FLASHONLY|Rotation=225.000|XOffset=0mm|YOffset=0mm|HoleType=Round|Shape=RoundedRectangle|*
%AMROUNDEDRECTD83*
21,1,2.3000,0.7500,0,0,225.0*
21,1,1.5500,1.5000,0,0,225.0*
1,1,0.7500,-0.8132,-0.2828*
1,1,0.7500,0.2828,0.8132*
1,1,0.7500,0.8132,0.2828*
1,1,0.7500,-0.2828,-0.8132*
%
%ADD83ROUNDEDRECTD83*%
G04:AMPARAMS|DCode=84|XSize=0.35mm|YSize=1.634mm|CornerRadius=0.0875mm|HoleSize=0mm|Usage=FLASHONLY|Rotation=135.000|XOffset=0mm|YOffset=0mm|HoleType=Round|Shape=RoundedRectangle|*
%AMROUNDEDRECTD84*
21,1,0.3500,1.4590,0,0,135.0*
21,1,0.1750,1.6340,0,0,135.0*
1,1,0.1750,0.4540,0.5777*
1,1,0.1750,0.5777,0.4540*
1,1,0.1750,-0.4540,-0.5777*
1,1,0.1750,-0.5777,-0.4540*
%
%ADD84ROUNDEDRECTD84*%
G04:AMPARAMS|DCode=85|XSize=1mm|YSize=0.9mm|CornerRadius=0.225mm|HoleSize=0mm|Usage=FLASHONLY|Rotation=150.000|XOffset=0mm|YOffset=0mm|HoleType=Round|Shape=RoundedRectangle|*
%AMROUNDEDRECTD85*
21,1,1.0000,0.4500,0,0,150.0*
21,1,0.5500,0.9000,0,0,150.0*
1,1,0.4500,-0.1257,0.3324*
1,1,0.4500,0.3507,0.0574*
1,1,0.4500,0.1257,-0.3324*
1,1,0.4500,-0.3507,-0.0574*
%
%ADD85ROUNDEDRECTD85*%
G04:AMPARAMS|DCode=86|XSize=1mm|YSize=0.9mm|CornerRadius=0.225mm|HoleSize=0mm|Usage=FLASHONLY|Rotation=252.000|XOffset=0mm|YOffset=0mm|HoleType=Round|Shape=RoundedRectangle|*
%AMROUNDEDRECTD86*
21,1,1.0000,0.4500,0,0,252.0*
21,1,0.5500,0.9000,0,0,252.0*
1,1,0.4500,-0.2990,-0.1920*
1,1,0.4500,-0.1290,0.3311*
1,1,0.4500,0.2990,0.1920*
1,1,0.4500,0.1290,-0.3311*
%
%ADD86ROUNDEDRECTD86*%
G36*
X555039Y391096D02*
Y377724D01*
X553486Y377081D01*
X551964Y375913D01*
X547722Y371670D01*
X546554Y370148D01*
X545820Y368376D01*
X545569Y366474D01*
X545820Y364572D01*
X546554Y362800D01*
X547722Y361278D01*
X549244Y360110D01*
X551016Y359375D01*
X552918Y359125D01*
X553769Y359237D01*
X555039Y358147D01*
Y352189D01*
X545891Y343040D01*
X532141Y356790D01*
X531785Y357028D01*
X531434Y357274D01*
X531408Y357280D01*
X531385Y357296D01*
X530965Y357379D01*
X530547Y357472D01*
X530520Y357468D01*
X530493Y357473D01*
X530073Y357390D01*
X529651Y357316D01*
X529628Y357301D01*
X529601Y357296D01*
X529245Y357058D01*
X528883Y356828D01*
X525952Y354031D01*
X524588Y354484D01*
X523917Y356105D01*
X522325Y357697D01*
X520244Y358559D01*
X517992D01*
X515911Y357697D01*
X514319Y356105D01*
X513457Y354024D01*
Y351772D01*
X514088Y350250D01*
X501320Y337482D01*
X508795Y330006D01*
X509064Y330275D01*
X511523Y327816D01*
X511037Y326642D01*
X502142D01*
X500500Y325000D01*
X494500D01*
X493500Y326000D01*
Y330000D01*
X479778Y343722D01*
X484195Y348139D01*
X484924Y349232D01*
X485181Y350520D01*
Y351532D01*
X486225Y352577D01*
X488238Y350563D01*
X497128Y341674D01*
X510614Y355160D01*
X510048Y355725D01*
X510258Y356039D01*
X510514Y357327D01*
Y361796D01*
X510799Y361915D01*
X512075Y363191D01*
X512766Y364858D01*
Y366662D01*
X512075Y368329D01*
X510799Y369605D01*
X509132Y370296D01*
X507328D01*
X505661Y369605D01*
X504537Y368482D01*
X504040Y368426D01*
X503816Y368439D01*
X503112Y368576D01*
X502541Y369431D01*
X498402Y373570D01*
X497309Y374300D01*
X496021Y374556D01*
X493285D01*
X491997Y374300D01*
X491683Y374090D01*
X489104Y376669D01*
X490545Y378110D01*
X491060Y378881D01*
X491437Y379258D01*
X492114D01*
X493781Y379949D01*
X495057Y381225D01*
X495748Y382892D01*
Y384696D01*
X495057Y386363D01*
X493781Y387639D01*
X492114Y388330D01*
X490310D01*
X488643Y387639D01*
X487367Y386363D01*
X486676Y384696D01*
Y384019D01*
X485783Y383127D01*
X485268Y382355D01*
X484343Y381431D01*
X480511Y385262D01*
X467025Y371777D01*
X474544Y364258D01*
X472788Y362502D01*
X472238Y362393D01*
X471146Y361663D01*
X467325Y357842D01*
X467311Y357822D01*
X465934Y357566D01*
X463852Y359648D01*
X459852D01*
X458852Y360648D01*
Y364648D01*
X453161Y370339D01*
Y384519D01*
X454334Y385005D01*
X455626Y383712D01*
X455358Y383444D01*
X462833Y375968D01*
X475602Y388737D01*
X477122Y388107D01*
X479375D01*
X481455Y388969D01*
X483048Y390561D01*
X483909Y392642D01*
Y394894D01*
X483048Y396974D01*
X481455Y398567D01*
X480324Y399035D01*
X480046Y400525D01*
X482597Y402961D01*
X482613Y402984D01*
X482636Y402999D01*
X482874Y403355D01*
X483120Y403705D01*
X483126Y403732D01*
X483141Y403755D01*
X483225Y404175D01*
X483318Y404593D01*
X483313Y404620D01*
X483319Y404647D01*
X483235Y405067D01*
X483162Y405489D01*
X483147Y405512D01*
X483141Y405539D01*
X482904Y405895D01*
X482674Y406256D01*
X482651Y406272D01*
X482636Y406295D01*
X471142Y417789D01*
X470386Y418294D01*
X469494Y418472D01*
X463994D01*
X463102Y418294D01*
X462346Y417789D01*
X454334Y409777D01*
X453161Y410263D01*
Y429661D01*
X460094Y436594D01*
X462024Y437112D01*
X464109Y438315D01*
X465812Y440018D01*
X467015Y442103D01*
X467533Y444033D01*
X470354Y446854D01*
X475740Y441468D01*
X476578Y440018D01*
X478280Y438315D01*
X480365Y437112D01*
X482691Y436488D01*
X485098D01*
X487424Y437112D01*
X489509Y438315D01*
X491212Y440018D01*
X492416Y442103D01*
X493039Y444428D01*
Y446836D01*
X492416Y449162D01*
X491212Y451247D01*
X489586Y452872D01*
X489616Y453218D01*
X489983Y454142D01*
X491993D01*
X555039Y391096D01*
D02*
G37*
G36*
X480988Y404647D02*
X458988Y383647D01*
X453415Y389220D01*
X453415Y405562D01*
X463994Y416141D01*
X469494D01*
X480988Y404647D01*
D02*
G37*
G36*
X551156Y334479D02*
X551156Y324866D01*
X543282Y316992D01*
X527992Y316992D01*
X526459Y315459D01*
X525885Y315573D01*
X524408Y315279D01*
X523156Y314442D01*
X515024Y306311D01*
X514187Y305058D01*
X513893Y303581D01*
X514007Y303008D01*
X504674Y293674D01*
Y265128D01*
X504534Y265010D01*
X503326Y264984D01*
X502221Y264498D01*
X501386Y263625D01*
X500948Y262499D01*
X499220Y252697D01*
X499207Y252647D01*
X498885Y252324D01*
X497961Y251755D01*
X496022Y252010D01*
X494461D01*
X492637Y251770D01*
X485179Y253085D01*
X482778Y253032D01*
X482251Y252801D01*
X475210Y259842D01*
Y296710D01*
X486000Y307500D01*
X501335Y322835D01*
X501392Y322847D01*
X502148Y323352D01*
X503108Y324311D01*
X511037D01*
X511929Y324489D01*
X512685Y324994D01*
X513190Y325750D01*
X513676Y326924D01*
X513854Y327816D01*
X513676Y328708D01*
X513171Y329464D01*
X508493Y334142D01*
X530493Y355142D01*
X551156Y334479D01*
D02*
G37*
%LPC*%
G36*
X496067Y439159D02*
X494165Y438909D01*
X492393Y438175D01*
X490871Y437007D01*
X486628Y432764D01*
X485460Y431242D01*
X484726Y429470D01*
X484475Y427568D01*
X484726Y425666D01*
X485460Y423893D01*
X486628Y422371D01*
X488150Y421204D01*
X489922Y420469D01*
X491824Y420219D01*
X493726Y420469D01*
X495499Y421204D01*
X497021Y422371D01*
X501263Y426614D01*
X502431Y428136D01*
X503165Y429908D01*
X503416Y431810D01*
X503165Y433713D01*
X502431Y435485D01*
X501263Y437007D01*
X499741Y438175D01*
X497969Y438909D01*
X496067Y439159D01*
D02*
G37*
%LPD*%
D14*
X336119Y386642D02*
D03*
X352119D02*
D03*
X352119Y371642D02*
D03*
X336119D02*
D03*
X366500Y340000D02*
D03*
X350500D02*
D03*
X169776Y260858D02*
D03*
X185776Y260858D02*
D03*
X169000Y97500D02*
D03*
X153000D02*
D03*
X169000Y82500D02*
D03*
X153000D02*
D03*
X206500Y97500D02*
D03*
X190500D02*
D03*
X209533Y133451D02*
D03*
X193533D02*
D03*
X433000Y177500D02*
D03*
X449000D02*
D03*
X336500Y340000D02*
D03*
X320500D02*
D03*
X281028Y415544D02*
D03*
X297028D02*
D03*
X226500Y157500D02*
D03*
X210500D02*
D03*
X400500Y177500D02*
D03*
X416500D02*
D03*
X419000Y235000D02*
D03*
X403000D02*
D03*
X351500Y355000D02*
D03*
X335500D02*
D03*
X205080Y342138D02*
D03*
X189080Y342138D02*
D03*
X240500Y325000D02*
D03*
X256500D02*
D03*
X240500Y340000D02*
D03*
X256500D02*
D03*
X171500Y115000D02*
D03*
X155500D02*
D03*
X473000Y217500D02*
D03*
X489000D02*
D03*
X351500Y402500D02*
D03*
X335500D02*
D03*
X351500Y417500D02*
D03*
X335500D02*
D03*
D25*
X143598Y138938D02*
D03*
X157598D02*
D03*
D26*
X619037Y243924D02*
D03*
X371331Y57698D02*
D03*
X227673Y453502D02*
D03*
X268660Y150469D02*
D03*
X388500Y278182D02*
D03*
D27*
X454158Y470154D02*
D03*
X426158D02*
D03*
X114500Y282500D02*
D03*
X142500D02*
D03*
D28*
X128500Y218000D02*
D03*
Y202000D02*
D03*
X146000Y172000D02*
D03*
X146000Y188000D02*
D03*
X223500Y186532D02*
D03*
X223500Y202532D02*
D03*
X431000Y206500D02*
D03*
Y222500D02*
D03*
X381000Y218000D02*
D03*
Y202000D02*
D03*
X113500D02*
D03*
Y218000D02*
D03*
X146000Y218000D02*
D03*
Y202000D02*
D03*
X261000Y43000D02*
D03*
Y27000D02*
D03*
X205716Y313056D02*
D03*
Y329056D02*
D03*
X331000Y169500D02*
D03*
Y185500D02*
D03*
D29*
X453500Y225500D02*
D03*
Y197500D02*
D03*
D36*
X515157Y285343D02*
D03*
X503843Y296657D02*
D03*
D38*
X526586Y229882D02*
D03*
X531530Y245098D02*
D03*
D39*
X214606Y210926D02*
Y211292D01*
Y210926D02*
X223000Y202532D01*
X223500D01*
X239804Y186227D02*
X254956D01*
X225960Y200072D02*
X239804Y186227D01*
X254956D02*
X262739Y194010D01*
Y247523D01*
X163298Y342138D02*
X189080D01*
X262739Y247523D02*
X276074Y260858D01*
X214606Y24384D02*
X214722Y24500D01*
X230250D01*
X276074Y260858D02*
Y274574D01*
Y315214D01*
X230250Y24500D02*
X232750Y27000D01*
X261000D01*
X262960Y25040D01*
X266288D01*
X266436Y24892D02*
X281142D01*
X286250Y30000D01*
X266288Y25040D02*
X266436Y24892D01*
X266286Y315214D02*
X276074D01*
X258460Y322540D02*
X258960D01*
X266286Y315214D01*
X256500Y324500D02*
Y325000D01*
Y324500D02*
X258460Y322540D01*
X256500Y340000D02*
Y356764D01*
Y325000D02*
Y340000D01*
X255172Y358092D02*
X256500Y356764D01*
X252700Y366200D02*
X255172Y363728D01*
Y358092D02*
Y363728D01*
X252700Y366200D02*
Y391600D01*
X345560Y345933D02*
X348540Y342953D01*
X345069Y345933D02*
X345560D01*
X348540Y341960D02*
Y342953D01*
Y341960D02*
X350500Y340000D01*
X340164Y169500D02*
X346940Y176276D01*
X331000Y169500D02*
X340164D01*
X371324Y235000D02*
Y250120D01*
X371000Y250444D02*
X371324Y250120D01*
X426158Y468874D02*
X430064Y464968D01*
X435184D01*
X426158Y468874D02*
Y470154D01*
X435184Y464968D02*
X451350Y448802D01*
X452988D02*
X456158Y445632D01*
X451350Y448802D02*
X452988D01*
X456158Y445632D02*
X458495D01*
X451384Y197500D02*
X453500D01*
X444064Y206500D02*
X447478Y203086D01*
Y201406D02*
Y203086D01*
Y201406D02*
X451384Y197500D01*
X362460Y234508D02*
X366944D01*
X367436Y235000D01*
X371324D01*
X361000Y233048D02*
X362460Y234508D01*
X404960Y230604D02*
Y233040D01*
X403000Y235000D02*
X404960Y233040D01*
Y230604D02*
X406000Y229564D01*
Y219500D02*
Y229564D01*
X431000Y206500D02*
X444064D01*
X430674Y206826D02*
X431000Y206500D01*
X406245Y195745D02*
Y203780D01*
X409290Y206826D02*
X430674D01*
X406245Y203780D02*
X409290Y206826D01*
X406000Y195500D02*
X406245Y195745D01*
X402960Y179960D02*
X406000Y183000D01*
X400500Y178000D02*
X402460Y179960D01*
X400500Y177500D02*
Y178000D01*
X406000Y183000D02*
Y195500D01*
X402460Y179960D02*
X402960D01*
X516079Y196975D02*
X520070Y209474D01*
X515330Y194632D02*
X516079Y196975D01*
X526100Y227978D02*
X526586Y229882D01*
X521826Y211241D02*
X526100Y227978D01*
X520070Y209474D02*
X521826Y211241D01*
D40*
X463272Y390752D02*
X465839Y388186D01*
X463272Y390752D02*
Y393470D01*
X465839Y386449D02*
Y388186D01*
X468524Y353882D02*
X469705Y355063D01*
Y355461D01*
X468524Y353214D02*
Y353882D01*
X188498Y268518D02*
X189969Y269989D01*
X188498Y264748D02*
Y268518D01*
X189969Y269989D02*
Y270657D01*
X185776Y262026D02*
X188498Y264748D01*
X185776Y260858D02*
Y262026D01*
X169776Y260858D02*
Y261662D01*
X176796Y268682D02*
Y268986D01*
X169776Y261662D02*
X176796Y268682D01*
X104834Y229616D02*
X105132D01*
X104817Y229633D02*
X104834Y229616D01*
X105132D02*
X110910Y223838D01*
Y220590D02*
Y223838D01*
Y220590D02*
X113500Y218000D01*
X104689Y210811D02*
Y213362D01*
Y210811D02*
X113500Y202000D01*
X104250Y213801D02*
X104689Y213362D01*
X240500Y350924D02*
Y361848D01*
Y340000D02*
Y350924D01*
X214998Y333872D02*
Y378502D01*
X201900Y391600D02*
X214998Y378502D01*
X236196Y314452D02*
X236243Y314405D01*
X237927D01*
X240500Y316978D01*
Y325000D01*
X214998Y333872D02*
X223870Y325000D01*
X240500D01*
X217628Y164628D02*
X218318D01*
X210500Y157500D02*
X217628Y164628D01*
X218318D02*
X218790Y165100D01*
X298204Y207554D02*
X300168D01*
X297731Y208026D02*
X298204Y207554D01*
X300168D02*
X322222Y185500D01*
X331000D01*
X261000Y43000D02*
X273000Y55000D01*
X272120Y55880D02*
X273000Y55000D01*
X286250D01*
X171500Y115000D02*
X171750Y114750D01*
X188500D01*
X193533Y119783D01*
Y133451D01*
X458700Y302768D02*
X468030D01*
X483895Y318632D01*
X276328Y274828D02*
X285726D01*
X276074Y274574D02*
X276328Y274828D01*
X240398Y361950D02*
Y378502D01*
Y361950D02*
X240500Y361848D01*
X227300Y391600D02*
X240398Y378502D01*
X326896Y405638D02*
X330782D01*
X332020Y186520D02*
X348060D01*
X331000Y185500D02*
X332020Y186520D01*
X493285Y371189D02*
X496021D01*
X487332Y365236D02*
X493285Y371189D01*
X500160Y364482D02*
Y367050D01*
X496021Y371189D02*
X500160Y367050D01*
X486772Y365236D02*
X487052D01*
X480818Y359282D02*
X486772Y365236D01*
X487052D02*
X487332D01*
X480796Y359282D02*
X480818D01*
X494123Y358445D02*
X500160Y364482D01*
X475310Y353797D02*
X480796Y359282D01*
X494123Y358165D02*
Y358445D01*
X475310Y353214D02*
Y353797D01*
X483516Y368491D02*
Y368771D01*
X477563Y362538D02*
X483516Y368491D01*
X481814Y352927D02*
X490587Y361700D01*
X477563Y362515D02*
Y362538D01*
X474330Y359282D02*
X477563Y362515D01*
X473526Y359282D02*
X474330D01*
X469705Y355461D02*
X473526Y359282D01*
X481814Y350520D02*
Y352927D01*
X477242Y345948D02*
X481814Y350520D01*
X469876Y345948D02*
X477242D01*
X468524Y347300D02*
Y353214D01*
Y347300D02*
X469876Y345948D01*
X555220Y337820D02*
X562832Y345432D01*
Y346538D01*
X565652Y349358D01*
Y352112D01*
X569903Y341850D02*
X574016Y345963D01*
X569903Y339467D02*
Y341850D01*
X574016Y345963D02*
Y352044D01*
X488164Y380746D02*
X491212Y383794D01*
X488164Y380490D02*
Y380746D01*
X479981Y372307D02*
X488164Y380490D01*
X507148Y364678D02*
X508230Y365760D01*
X501194Y351374D02*
X507148Y357327D01*
Y364678D01*
X501194Y351094D02*
Y351374D01*
X503521Y252161D02*
X507722Y248666D01*
X503521Y252161D02*
X503867Y256908D01*
X591116Y318254D02*
Y320122D01*
D41*
X155424Y225552D02*
X156195D01*
X184451Y259533D02*
X185776Y260858D01*
X184451Y253808D02*
Y259533D01*
X156195Y225552D02*
X184451Y253808D01*
X153000Y66250D02*
Y82500D01*
X169000D02*
Y97500D01*
X169712Y81788D02*
X175750D01*
X169000Y82500D02*
X169712Y81788D01*
X107418Y131826D02*
X110466D01*
X128500Y113792D01*
X135938Y196556D02*
X136232D01*
X128500Y202000D02*
X129825Y200675D01*
X131819D01*
X135938Y196556D01*
X235942Y205994D02*
X240768Y201168D01*
X235942Y205994D02*
Y218440D01*
X125706Y151638D02*
Y199206D01*
Y151638D02*
X140946Y136398D01*
Y106934D02*
Y136398D01*
Y106934D02*
X148555Y99325D01*
X151675D01*
X153000Y97500D02*
Y98000D01*
X151675Y99325D02*
X153000Y98000D01*
Y82500D02*
Y97500D01*
X157939Y61311D02*
X164342D01*
X153000Y66250D02*
X157939Y61311D01*
X171750Y47500D02*
Y53903D01*
X164342Y61311D02*
X171750Y53903D01*
X136639Y372190D02*
X148850Y384401D01*
X136639Y368508D02*
Y372190D01*
X133484Y365354D02*
X136639Y368508D01*
X254738Y237236D02*
Y268732D01*
X235942Y218440D02*
X254738Y237236D01*
X148850Y384401D02*
X152531D01*
X478500Y152250D02*
X493498Y167248D01*
Y172466D01*
X366533Y174971D02*
X378279D01*
X401000Y152250D01*
X364974Y176530D02*
X366533Y174971D01*
X366952Y202000D02*
X381000D01*
X361000Y198048D02*
X363000D01*
X366952Y202000D01*
X381000D02*
X381500D01*
X387195Y186567D02*
X390374Y183388D01*
X387195Y186567D02*
Y195805D01*
X396195D01*
X382825Y200175D02*
X387195Y195805D01*
X396195D02*
X396500Y195500D01*
X382825Y200175D02*
Y200675D01*
X381500Y202000D02*
X382825Y200675D01*
X376000Y152250D02*
X390750Y137500D01*
X438750D01*
X453500Y152250D01*
X527134Y258429D02*
X527984Y255853D01*
X531016Y246659D01*
X531270Y245886D01*
X531530Y245098D01*
X525039Y264782D02*
X527134Y258429D01*
D42*
X525391Y338947D02*
X525482Y339038D01*
X511801Y340487D02*
X514511Y343198D01*
X516599D01*
X520850Y338947D01*
X525391D01*
X534935Y292444D02*
X537022D01*
X531543Y289052D02*
X534935Y292444D01*
X146000Y188893D02*
X146730Y189623D01*
X142131Y185024D02*
X146000Y188893D01*
Y202000D01*
X153876Y189623D02*
X154154Y189901D01*
X146730Y189623D02*
X153876D01*
X154154Y184978D02*
X158899Y180233D01*
X154154Y184978D02*
Y189901D01*
X158899Y180233D02*
X159849D01*
X165838Y174244D01*
Y129425D02*
Y174244D01*
X166854Y128016D02*
Y128409D01*
X165838Y129425D02*
X166854Y128409D01*
X198350Y333756D02*
X198743D01*
X200915Y331584D01*
X203188D02*
X205716Y329056D01*
X200915Y331584D02*
X203188D01*
X209192Y316532D02*
X212954Y320294D01*
X213082D01*
X205716Y313056D02*
X205823D01*
X209192Y316425D01*
Y316532D01*
X201604Y338662D02*
X201711D01*
X198628Y335686D02*
X201604Y338662D01*
X205080Y342031D02*
Y342138D01*
X201711Y338662D02*
X205080Y342031D01*
X139942Y326550D02*
X142310D01*
X148734Y315816D02*
Y320126D01*
X137710Y328782D02*
Y342823D01*
X148734Y315816D02*
X157210Y307340D01*
X135358Y345809D02*
Y346202D01*
Y345809D02*
X136084Y345083D01*
Y344449D02*
X137710Y342823D01*
X136084Y344449D02*
Y345083D01*
X157210Y307340D02*
X161520D01*
X142310Y326550D02*
X148734Y320126D01*
X137710Y328782D02*
X139942Y326550D01*
X141566Y185024D02*
X142131D01*
X208378Y134605D02*
X209533Y133451D01*
X209528Y100528D02*
X213424Y104424D01*
Y114674D02*
X213500Y114750D01*
X213424Y104424D02*
Y114674D01*
X209421Y100528D02*
X209528D01*
X206500Y97607D02*
X209421Y100528D01*
X206500Y97500D02*
Y97607D01*
X209533Y121973D02*
X213500Y118006D01*
Y114750D02*
Y118006D01*
X209533Y121973D02*
Y133451D01*
X462080Y248780D02*
Y249251D01*
X456414Y243114D02*
X462080Y248780D01*
Y249251D02*
X463711Y250883D01*
X330430Y331470D02*
X330708Y331748D01*
Y334208D01*
X333131Y336524D02*
X336500Y339893D01*
X333024Y336524D02*
X333131D01*
X336500Y339893D02*
Y340000D01*
X330708Y334208D02*
X333024Y336524D01*
X364529Y355000D02*
X368876D01*
X351500D02*
X364466D01*
Y357823D02*
X364529Y357886D01*
X364466Y355000D02*
Y357823D01*
X425000Y185387D02*
Y190418D01*
Y185338D02*
Y185387D01*
X424053Y184440D02*
X425000Y185387D01*
X417459Y193377D02*
X422040D01*
X415500Y195336D02*
Y195500D01*
X422040Y193377D02*
X425000Y190418D01*
X415500Y195336D02*
X417459Y193377D01*
X425000Y185338D02*
X425172Y185166D01*
X423440Y184440D02*
X424053D01*
X416500Y177607D02*
X419869Y180976D01*
X419976D02*
X423440Y184440D01*
X416500Y177500D02*
Y177607D01*
X419869Y180976D02*
X419976D01*
X487656Y202184D02*
Y216156D01*
X489000Y217500D01*
X366500Y340000D02*
X375264D01*
X375518Y339746D01*
X487656Y196480D02*
Y202184D01*
X485976Y194116D02*
Y194800D01*
X487656Y196480D01*
X485976Y194116D02*
X488602Y191490D01*
X416500Y177500D02*
X433000D01*
X381000Y218000D02*
X395000D01*
X396500Y219500D01*
X415500Y230607D02*
X419000Y234107D01*
X415500Y219500D02*
Y230607D01*
X419000Y234107D02*
Y235000D01*
Y235107D02*
X421921Y238028D01*
X422760Y238760D02*
X429236D01*
X419000Y235000D02*
Y235107D01*
X421921Y238028D02*
X422028D01*
X422760Y238760D01*
X368876Y355000D02*
X379515Y344361D01*
X389466D02*
X389795Y344032D01*
X379515Y344361D02*
X389466D01*
X354232Y420232D02*
X389795D01*
X351500Y417500D02*
X354232Y420232D01*
X370398Y402500D02*
X378066Y394832D01*
X351500Y402500D02*
X370398D01*
X378066Y394832D02*
X389795D01*
X339341Y374865D02*
X340341D01*
X336119Y371642D02*
X339341Y374865D01*
X340341D02*
X352119Y386642D01*
X363142D02*
X380317Y369467D01*
X352119Y386642D02*
X363142D01*
X389760Y369467D02*
X389795Y369432D01*
X380317Y369467D02*
X389760D01*
X463711Y250883D02*
Y253169D01*
X568665Y308531D02*
Y309945D01*
X584045Y325325D01*
X537022Y292444D02*
X553109Y308531D01*
X515157Y285343D02*
X521354Y279146D01*
X537205D01*
X543432Y285373D02*
X544093D01*
X537205Y279146D02*
X543432Y285373D01*
X544093D02*
X551164Y278302D01*
Y276215D02*
Y278302D01*
X548108Y273158D02*
X551164Y276215D01*
X548108Y266192D02*
Y273158D01*
X591116Y320122D02*
X599416Y328422D01*
X584938Y340360D02*
Y350520D01*
X576974Y332396D02*
X584938Y340360D01*
X582398Y353060D02*
X584938Y350520D01*
D43*
X157598Y131005D02*
X158944Y129659D01*
X155500Y115000D02*
Y116030D01*
X157598Y131005D02*
Y138938D01*
X158944Y119474D02*
Y129659D01*
X155500Y116030D02*
X158944Y119474D01*
X146000Y172000D02*
X157598Y160402D01*
Y138938D02*
Y160402D01*
X151040Y178771D02*
X151415Y179146D01*
X146000Y172000D02*
Y172030D01*
X151040Y177071D01*
Y178771D01*
X155500Y115000D02*
X164444Y106056D01*
X173655D02*
X176057Y103654D01*
X185782D01*
X187270Y102166D01*
Y101760D02*
X190500Y98530D01*
Y97500D02*
Y98530D01*
X187270Y101760D02*
Y102166D01*
X164444Y106056D02*
X173655D01*
X310654Y355092D02*
X315190D01*
X315282Y355000D02*
X335500D01*
X315190Y355092D02*
X315282Y355000D01*
X326366Y405638D02*
X326896D01*
X307617Y320154D02*
Y327117D01*
X306095Y318632D02*
X307617Y320154D01*
Y327117D02*
X320500Y340000D01*
X342104Y362956D02*
X347665Y368517D01*
X348994D02*
X352119Y371642D01*
X347665Y368517D02*
X348994D01*
X311888Y385064D02*
X313466Y386642D01*
X336119D01*
X332375Y405625D02*
X335500Y402500D01*
X330782Y405638D02*
X330795Y405625D01*
X332375D01*
X327204Y417500D02*
X335500D01*
D44*
X181660Y332920D02*
G03*
X163699Y340360I-17960J-17960D01*
G01*
X462409Y394334D02*
X463272Y393470D01*
X462409Y394334D02*
Y398152D01*
X464389Y400132D01*
X525482Y339038D02*
X546771Y317750D01*
X552101Y312420D02*
X556998D01*
X546771Y317750D02*
X552101Y312420D01*
X111428Y295273D02*
Y322514D01*
X126030Y337500D02*
X126414D01*
X120843Y332313D02*
X126030Y337500D01*
X120843Y331929D02*
Y332313D01*
X130171Y216329D02*
X144328D01*
X128500Y218000D02*
Y263086D01*
X114650Y276936D02*
X128500Y263086D01*
X144328Y216329D02*
X146000Y218000D01*
X128500Y218000D02*
X130171Y216329D01*
X153414Y227562D02*
X160449Y220527D01*
X163362D01*
X169739Y211392D02*
Y214150D01*
X163362Y220527D02*
X169739Y214150D01*
X191549Y189583D02*
X215622D01*
X169739Y211392D02*
X191549Y189583D01*
X229676Y71074D02*
Y178650D01*
X218743Y189583D02*
X221794Y186532D01*
X223500D01*
X242040Y47500D02*
X247118Y52578D01*
X230250Y47500D02*
X242040D01*
X171750D02*
X230250D01*
X124472Y356341D02*
X133484Y365354D01*
X124472Y341693D02*
Y356341D01*
X126414Y337500D02*
Y339751D01*
X124472Y341693D02*
X126414Y339751D01*
X142500Y283718D02*
X183799D01*
X254738Y268732D02*
Y277368D01*
X240949Y291157D02*
X254738Y277368D01*
X191238Y291157D02*
X240949D01*
X114650Y276936D02*
Y282350D01*
X114500Y282500D02*
X114650Y282350D01*
X191238Y291157D02*
Y325473D01*
X181660Y332920D02*
X183790D01*
X161520Y340360D02*
X163699D01*
X142500Y282500D02*
Y283718D01*
X183799D02*
X191238Y291157D01*
X183790Y332920D02*
X191238Y325473D01*
X128445Y304531D02*
X158711D01*
X111428Y322514D02*
X120843Y331929D01*
X126414Y302500D02*
X128445Y304531D01*
X114350Y282650D02*
X114500Y282500D01*
X114350Y282650D02*
Y292351D01*
X111428Y295273D02*
X114350Y292351D01*
X146000Y218000D02*
X146503D01*
X153610Y225107D01*
X242090Y80000D02*
X286250D01*
X230250Y70500D02*
X233000D01*
X234650Y72150D01*
Y72561D01*
X242090Y80000D01*
X229676Y71074D02*
X230250Y70500D01*
X223500Y184826D02*
X229676Y178650D01*
X223500Y184826D02*
Y186532D01*
X278100Y412616D02*
X281028Y415544D01*
X273340Y407856D02*
X278100Y412616D01*
X152531Y384401D02*
X175987Y407856D01*
X273340D01*
X278100Y391600D02*
Y412616D01*
Y366200D02*
Y391600D01*
X297028Y415544D02*
X301406D01*
X331495Y445632D01*
X454382Y272034D02*
X480544D01*
X458394Y225350D02*
X475150Y208594D01*
X346940Y162052D02*
Y176276D01*
X371000Y250444D02*
X411456D01*
X461240Y177500D02*
X472116D01*
X449000D02*
X461240D01*
X472116D02*
X475210Y180594D01*
X346940Y162052D02*
X351766Y157226D01*
X475150Y180654D02*
Y208594D01*
Y180654D02*
X475210Y180594D01*
X453650Y225350D02*
X458394D01*
X453500Y225500D02*
X453650Y225350D01*
X442444Y247020D02*
Y260096D01*
Y233944D02*
Y247020D01*
X403000Y241988D02*
X411456Y250444D01*
X403000Y235000D02*
Y241988D01*
X411456Y250444D02*
X439020D01*
X442444Y247020D01*
X450850Y225650D02*
Y226504D01*
X442444Y233944D02*
X443410D01*
X451000Y225500D02*
X453500D01*
X450850Y225650D02*
X451000Y225500D01*
X443410Y233944D02*
X450850Y226504D01*
X431000Y222500D02*
X442444Y233944D01*
Y260096D02*
X454382Y272034D01*
X525482Y339038D02*
Y339038D01*
X454158Y467654D02*
X454308Y467504D01*
X454158Y467654D02*
Y470154D01*
X462023Y467504D02*
X483895Y445632D01*
X454308Y467504D02*
X462023D01*
X331495Y445632D02*
X350252Y464390D01*
X361112Y466311D02*
Y467398D01*
X359191Y464390D02*
X361112Y466311D01*
X350252Y464390D02*
X359191D01*
X306095Y445632D02*
X333287Y472824D01*
Y475461D02*
X334800Y476974D01*
X333287Y472824D02*
Y475461D01*
X499491Y238269D02*
X507974Y229786D01*
X500114Y199576D02*
X508500Y216750D01*
X494461Y243299D02*
X496022D01*
X499491Y238269D02*
Y239830D01*
X496022Y243299D02*
X499491Y239830D01*
X507974Y217276D02*
X508500Y216750D01*
X507974Y217276D02*
Y229786D01*
D45*
X306095Y344032D02*
D03*
X306095Y318632D02*
D03*
Y369432D02*
D03*
X407695Y445632D02*
D03*
X433095Y445632D02*
D03*
X382295Y445632D02*
D03*
X356895D02*
D03*
X483895Y318632D02*
D03*
Y445632D02*
D03*
X331495Y445632D02*
D03*
X331495Y318632D02*
D03*
X356895Y318632D02*
D03*
X382295Y318632D02*
D03*
X407695D02*
D03*
X433095Y318632D02*
D03*
X458495Y318632D02*
D03*
Y445632D02*
D03*
X306095Y445632D02*
D03*
D46*
X525039Y264782D02*
D03*
D47*
X508500Y216750D02*
D03*
D48*
X151100Y366200D02*
D03*
X176500Y366200D02*
D03*
X201900Y366200D02*
D03*
X227300D02*
D03*
X252700D02*
D03*
D49*
X278100D02*
D03*
D50*
X415195Y344032D02*
D03*
X440595D02*
D03*
X389795Y344032D02*
D03*
D51*
X415195Y369432D02*
D03*
Y394832D02*
D03*
Y420232D02*
D03*
X440595Y394832D02*
D03*
Y369432D02*
D03*
X252700Y391600D02*
D03*
X227300Y391600D02*
D03*
X201900Y391600D02*
D03*
X389795Y369432D02*
D03*
Y394832D02*
D03*
X389795Y420232D02*
D03*
D52*
X426399Y495078D02*
D03*
X188500Y114750D02*
D03*
X376000Y152250D02*
D03*
X453500D02*
D03*
D53*
X401399Y495078D02*
D03*
X376399D02*
D03*
X351399D02*
D03*
X286250Y55000D02*
D03*
Y80000D02*
D03*
X213500Y114750D02*
D03*
X401000Y152250D02*
D03*
X478500D02*
D03*
D54*
X286250Y30000D02*
D03*
D55*
X493946Y429689D02*
D03*
X555039Y368595D02*
D03*
D56*
X478248Y393768D02*
D03*
X519118Y352898D02*
D03*
D57*
X464389Y400132D02*
D03*
X525482Y339038D02*
D03*
D58*
X278100Y391600D02*
D03*
D59*
X619493Y368048D02*
D03*
X494493Y494142D02*
D03*
D60*
X553109Y324087D02*
D03*
X545331Y316309D02*
D03*
X560887D02*
D03*
X553109Y308531D02*
D03*
X568665D02*
D03*
X560887Y300753D02*
D03*
D61*
X290501Y127304D02*
D03*
X205136Y254975D02*
D03*
X207449Y261355D02*
D03*
X161803Y242065D02*
D03*
X179954Y217912D02*
D03*
X189969Y270657D02*
D03*
X198350Y280271D02*
D03*
X176796Y268986D02*
D03*
X177225Y224299D02*
D03*
X152884Y67818D02*
D03*
X175750Y81788D02*
D03*
X214606Y211292D02*
D03*
X233596Y249356D02*
D03*
X173679Y186702D02*
D03*
X151415Y179146D02*
D03*
X171898Y144526D02*
D03*
X166854Y128016D02*
D03*
X182602Y144272D02*
D03*
X135669Y210115D02*
D03*
X104817Y229633D02*
D03*
X104250Y213801D02*
D03*
X191027Y158321D02*
D03*
X214234Y178696D02*
D03*
X202037Y162980D02*
D03*
X215622Y187030D02*
D03*
X158853Y209641D02*
D03*
X154154Y189901D02*
D03*
X136232Y196556D02*
D03*
X142724Y229616D02*
D03*
X253214Y310896D02*
D03*
X248388Y175514D02*
D03*
X240768Y201168D02*
D03*
X244324Y210820D02*
D03*
X164060Y192786D02*
D03*
X161012Y186690D02*
D03*
X105386Y264668D02*
D03*
X240500Y350924D02*
D03*
X106148Y250698D02*
D03*
X215876Y250129D02*
D03*
X230608Y238252D02*
D03*
X230899Y272157D02*
D03*
X225810Y276832D02*
D03*
X236196Y314452D02*
D03*
X214606Y24384D02*
D03*
X198350Y333756D02*
D03*
X213082Y320294D02*
D03*
X218179Y307656D02*
D03*
X131729Y327804D02*
D03*
X137136Y306070D02*
D03*
X135358Y346202D02*
D03*
X128500Y113792D02*
D03*
X107418Y131826D02*
D03*
X215611Y239025D02*
D03*
X221464Y341122D02*
D03*
X250928Y117602D02*
D03*
X218790Y165100D02*
D03*
X274771Y119530D02*
D03*
X306593Y233312D02*
D03*
X297731Y208026D02*
D03*
X286119Y210820D02*
D03*
X286448Y240464D02*
D03*
X300814Y168656D02*
D03*
X167362Y181864D02*
D03*
X153414Y227562D02*
D03*
X231719Y226509D02*
D03*
X249658Y195834D02*
D03*
X272120Y55880D02*
D03*
X107418Y239522D02*
D03*
X247118Y52578D02*
D03*
X108688Y172974D02*
D03*
X139168Y154686D02*
D03*
X130532Y277622D02*
D03*
X458700Y302768D02*
D03*
X285722Y222500D02*
D03*
X302626Y182000D02*
D03*
X284456Y188722D02*
D03*
X285726Y274828D02*
D03*
X456414Y243114D02*
D03*
X562496Y283281D02*
D03*
X276074Y315214D02*
D03*
X187428Y152146D02*
D03*
X214606Y171450D02*
D03*
X310654Y355092D02*
D03*
X314682Y165100D02*
D03*
X326366Y405638D02*
D03*
X330430Y331470D02*
D03*
X345069Y345933D02*
D03*
X364529Y357886D02*
D03*
X342104Y362956D02*
D03*
X311888Y385064D02*
D03*
X327204Y417500D02*
D03*
X110268Y296619D02*
D03*
X422378Y263398D02*
D03*
X425172Y185166D02*
D03*
X495500Y331000D02*
D03*
X500516Y329000D02*
D03*
X475310Y353214D02*
D03*
X323324Y254645D02*
D03*
X328122Y259444D02*
D03*
X468524Y353214D02*
D03*
X555220Y337820D02*
D03*
X574016Y352044D02*
D03*
X491212Y383794D02*
D03*
X508230Y365760D02*
D03*
X465868Y363648D02*
D03*
X375518Y339746D02*
D03*
X487656Y202184D02*
D03*
X351766Y157226D02*
D03*
X461240Y177500D02*
D03*
X444064Y206500D02*
D03*
X390374Y183388D02*
D03*
X429236Y238760D02*
D03*
X371324Y235000D02*
D03*
X507722Y248666D02*
D03*
X464852Y369648D02*
D03*
X460852Y365648D02*
D03*
X499500Y335000D02*
D03*
X548108Y266192D02*
D03*
X599416Y328422D02*
D03*
X582398Y353060D02*
D03*
D63*
X230250Y70500D02*
D03*
D64*
X230250Y47500D02*
D03*
X230250Y24500D02*
D03*
D65*
X171750Y47500D02*
D03*
D66*
X484190Y260377D02*
D03*
X490749Y259221D02*
D03*
X497308Y258064D02*
D03*
X503867Y256908D02*
D03*
X479728Y235068D02*
D03*
X486286Y233911D02*
D03*
X492845Y232754D02*
D03*
X499404Y231598D02*
D03*
D67*
X491091Y241985D02*
D03*
D68*
X490055Y255281D02*
D03*
D69*
X126414Y337500D02*
D03*
X361000Y233048D02*
D03*
D70*
X126414Y302500D02*
D03*
X361000Y198048D02*
D03*
D71*
X556998Y312420D02*
D03*
D72*
X562832Y346538D02*
D03*
X569903Y339467D02*
D03*
X576974Y332396D02*
D03*
X584045Y325325D02*
D03*
X591116Y318254D02*
D03*
X522880Y306586D02*
D03*
X529951Y299515D02*
D03*
X537022Y292444D02*
D03*
X544093Y285373D02*
D03*
D73*
X551164Y278302D02*
D03*
X465839Y386449D02*
D03*
X511801Y340487D02*
D03*
X506144Y346144D02*
D03*
X471496Y380792D02*
D03*
D74*
X501194Y351094D02*
D03*
X497658Y354629D02*
D03*
X476445Y375842D02*
D03*
X479981Y372307D02*
D03*
X487052Y365236D02*
D03*
X494123Y358165D02*
D03*
X483516Y368771D02*
D03*
X490587Y361700D02*
D03*
D75*
X161520Y307340D02*
D03*
Y340360D02*
D03*
D76*
X334800Y476974D02*
D03*
X361112Y467398D02*
D03*
D77*
X396500Y195500D02*
D03*
X406000D02*
D03*
X415500D02*
D03*
Y219500D02*
D03*
X406000D02*
D03*
D78*
X396500D02*
D03*
D79*
X348060Y166540D02*
D03*
Y173200D02*
D03*
Y179860D02*
D03*
Y186520D02*
D03*
X373760Y166540D02*
D03*
Y173200D02*
D03*
Y179860D02*
D03*
Y186520D02*
D03*
D80*
X364974Y176530D02*
D03*
D81*
X352060Y173200D02*
D03*
D82*
X474474Y177362D02*
D03*
X479183Y182071D02*
D03*
X483893Y186781D02*
D03*
X488602Y191490D02*
D03*
X492647Y159189D02*
D03*
X497356Y163899D02*
D03*
X502065Y168608D02*
D03*
X506775Y173317D02*
D03*
D83*
X493498Y172466D02*
D03*
D84*
X482012Y179243D02*
D03*
D85*
X465368Y256470D02*
D03*
X473368Y270326D02*
D03*
D86*
X515330Y194632D02*
D03*
X500114Y199576D02*
D03*
M02*
