G04*
G04 #@! TF.GenerationSoftware,Altium Limited,Altium Designer,23.11.1 (41)*
G04*
G04 Layer_Physical_Order=3*
G04 Layer_Color=16440176*
%FSLAX44Y44*%
%MOMM*%
G71*
G04*
G04 #@! TF.SameCoordinates,7D9A12BA-FF4A-4FA1-B099-3E499341C767*
G04*
G04*
G04 #@! TF.FilePolarity,Positive*
G04*
G01*
G75*
%ADD31C,0.6350*%
%ADD32C,0.2032*%
%ADD33C,0.3048*%
%ADD35C,0.2540*%
%ADD38C,0.5080*%
%ADD39C,1.3716*%
%ADD42C,1.8000*%
%ADD44C,1.5240*%
%ADD46R,1.4986X1.4986*%
%ADD47C,1.5080*%
%ADD49R,1.5080X1.5080*%
%ADD53C,0.4500*%
G36*
X434665Y183388D02*
X434464Y182902D01*
Y181098D01*
X435155Y179431D01*
X435585Y179000D01*
X435155Y178570D01*
X434464Y176902D01*
Y175098D01*
X435155Y173431D01*
X436431Y172155D01*
X438098Y171464D01*
X439902D01*
X441569Y172155D01*
X442000Y172585D01*
X442431Y172155D01*
X444098Y171464D01*
X445902D01*
X447569Y172155D01*
X448000Y172585D01*
X448430Y172155D01*
X449060Y171894D01*
X457632Y163322D01*
Y134247D01*
X282178D01*
X282178Y134247D01*
X281398Y134091D01*
X280736Y133649D01*
X280736Y133649D01*
X274629Y127542D01*
X274187Y126881D01*
X274032Y126100D01*
Y3556D01*
X250114D01*
X229540Y24130D01*
Y69381D01*
X230585Y69815D01*
X231861Y71091D01*
X232552Y72758D01*
Y74562D01*
X231861Y76229D01*
X231383Y76708D01*
Y83499D01*
X231126Y84788D01*
X231119Y84799D01*
X231488Y86014D01*
X231904Y86187D01*
X233180Y87463D01*
X233871Y89130D01*
Y90935D01*
X233180Y92602D01*
X231904Y93878D01*
X230237Y94568D01*
X229540D01*
Y97601D01*
X231921Y99981D01*
X232650Y101074D01*
X232907Y102362D01*
Y118618D01*
X232650Y119906D01*
X231921Y120999D01*
X229540Y123379D01*
Y134225D01*
X230660Y134824D01*
X231498Y134264D01*
X234826Y132885D01*
X238359Y132183D01*
X241961D01*
X245494Y132885D01*
X248822Y134264D01*
X251817Y136265D01*
X254364Y138812D01*
X256365Y141807D01*
X257743Y145135D01*
X258446Y148667D01*
Y152269D01*
X257743Y155802D01*
X256365Y159130D01*
X254364Y162125D01*
X251817Y164672D01*
X251676Y164766D01*
X251552Y166030D01*
X270180Y184658D01*
X293927D01*
X294931Y183655D01*
X296598Y182964D01*
X298402D01*
X300070Y183655D01*
X301073Y184658D01*
X301427D01*
X302431Y183655D01*
X304098Y182964D01*
X305902D01*
X307569Y183655D01*
X308573Y184658D01*
X308927D01*
X309931Y183655D01*
X311598Y182964D01*
X313402D01*
X315069Y183655D01*
X316073Y184658D01*
X433817D01*
X434665Y183388D01*
D02*
G37*
G36*
X166599Y253427D02*
X188013D01*
X214682Y226759D01*
Y220787D01*
X214938Y219499D01*
X215668Y218407D01*
X219634Y214441D01*
Y177735D01*
X210395Y168497D01*
X209666Y167404D01*
X209409Y166116D01*
Y142813D01*
D01*
Y135382D01*
X209666Y134094D01*
X210395Y133001D01*
X224255Y119142D01*
Y101838D01*
X221402Y98985D01*
X220672Y97893D01*
X220416Y96605D01*
Y87733D01*
X220672Y86444D01*
X221402Y85352D01*
X224255Y82499D01*
Y76314D01*
X224171Y76229D01*
X223480Y74562D01*
Y72758D01*
X224171Y71091D01*
X224255Y71006D01*
Y69306D01*
X223812D01*
X222145Y68615D01*
X220869Y67339D01*
X220178Y65672D01*
Y63868D01*
X220869Y62201D01*
X221132Y61937D01*
Y35253D01*
X216908Y31029D01*
X215335Y30378D01*
X214059Y29102D01*
X213369Y27435D01*
Y25630D01*
X214059Y23963D01*
X215335Y22687D01*
X217002Y21996D01*
X218807D01*
X220474Y22687D01*
X221750Y23963D01*
X222314Y25324D01*
X222985Y25689D01*
X224255Y24985D01*
Y22909D01*
X203385Y2039D01*
X140516D01*
X102039Y68728D01*
Y139446D01*
Y141553D01*
D01*
D01*
X103309Y142079D01*
X103829Y141559D01*
X105496Y140868D01*
X107301D01*
X108968Y141559D01*
X110244Y142835D01*
X110935Y144502D01*
Y146307D01*
X110244Y147974D01*
X108968Y149250D01*
X107301Y149940D01*
X105496D01*
X103829Y149250D01*
X103309Y148730D01*
X102039Y149256D01*
D01*
Y157741D01*
Y234453D01*
X103212Y234939D01*
X129913Y208238D01*
X129387Y206968D01*
X116167D01*
Y187316D01*
X135819D01*
Y204062D01*
X136128Y204315D01*
X138011Y204690D01*
X139607Y205757D01*
X140674Y207353D01*
X141048Y209236D01*
X140674Y211119D01*
X139607Y212715D01*
X138277Y214045D01*
X137512Y214557D01*
X109460Y242608D01*
Y253492D01*
X115674D01*
X116448Y252484D01*
X116167Y251436D01*
Y248849D01*
X116836Y246350D01*
X118130Y244109D01*
X119959Y242280D01*
X122200Y240986D01*
X124699Y240316D01*
X127286D01*
X129785Y240986D01*
X132026Y242280D01*
X133855Y244109D01*
X135149Y246350D01*
X135313Y246963D01*
X136453Y247525D01*
X137050Y247277D01*
X138855D01*
X140522Y247968D01*
X141798Y249244D01*
X142488Y250911D01*
Y252715D01*
X143007Y253492D01*
X151785D01*
Y252844D01*
X152475Y251177D01*
X153751Y249901D01*
X155419Y249210D01*
X156096D01*
X158355Y246951D01*
Y202438D01*
X158612Y201150D01*
X159341Y200057D01*
X173696Y185703D01*
Y185026D01*
X174387Y183359D01*
X175663Y182083D01*
X177330Y181392D01*
X179134D01*
X180801Y182083D01*
X182077Y183359D01*
X182768Y185026D01*
Y186830D01*
X182077Y188497D01*
X180801Y189773D01*
X179134Y190464D01*
X178457D01*
X165089Y203832D01*
Y248345D01*
X164832Y249634D01*
X164103Y250726D01*
X162510Y252319D01*
X162996Y253492D01*
X166274D01*
X166599Y253427D01*
D02*
G37*
%LPC*%
G36*
X284895Y154560D02*
X283090D01*
X281423Y153870D01*
X280147Y152594D01*
X279457Y150927D01*
Y149122D01*
X280147Y147455D01*
X281423Y146179D01*
X283090Y145488D01*
X284895D01*
X286562Y146179D01*
X287838Y147455D01*
X288529Y149122D01*
Y150927D01*
X287838Y152594D01*
X286562Y153870D01*
X284895Y154560D01*
D02*
G37*
G36*
X401579Y159928D02*
X380007D01*
Y138356D01*
X401579D01*
Y159928D01*
D02*
G37*
G36*
X341413D02*
X338573D01*
X335829Y159193D01*
X333370Y157773D01*
X331362Y155765D01*
X329942Y153306D01*
X329207Y150562D01*
Y147722D01*
X329942Y144979D01*
X331362Y142520D01*
X333370Y140511D01*
X335829Y139091D01*
X338573Y138356D01*
X341413D01*
X344156Y139091D01*
X346615Y140511D01*
X348624Y142520D01*
X350044Y144979D01*
X350779Y147722D01*
Y150562D01*
X350044Y153306D01*
X348624Y155765D01*
X346615Y157773D01*
X344156Y159193D01*
X341413Y159928D01*
D02*
G37*
G36*
X249678Y87520D02*
X247091D01*
X244592Y86851D01*
X242351Y85557D01*
X240522Y83728D01*
X239228Y81487D01*
X238559Y78988D01*
Y76401D01*
X239228Y73902D01*
X240522Y71661D01*
X242351Y69832D01*
X244592Y68538D01*
X247091Y67868D01*
X249678D01*
X252177Y68538D01*
X254418Y69832D01*
X256247Y71661D01*
X257541Y73902D01*
X258211Y76401D01*
Y78988D01*
X257541Y81487D01*
X256247Y83728D01*
X254418Y85557D01*
X252177Y86851D01*
X249678Y87520D01*
D02*
G37*
G36*
Y62520D02*
X247091D01*
X244592Y61851D01*
X242351Y60557D01*
X240522Y58728D01*
X239228Y56487D01*
X238559Y53988D01*
Y51401D01*
X239228Y48902D01*
X240522Y46661D01*
X242351Y44832D01*
X244592Y43538D01*
X247091Y42868D01*
X249678D01*
X252177Y43538D01*
X254418Y44832D01*
X256247Y46661D01*
X257541Y48902D01*
X258211Y51401D01*
Y53988D01*
X257541Y56487D01*
X256247Y58728D01*
X254418Y60557D01*
X252177Y61851D01*
X249678Y62520D01*
D02*
G37*
G36*
X172773Y248636D02*
X170968D01*
X169301Y247945D01*
X168025Y246669D01*
X167335Y245002D01*
Y243197D01*
X168025Y241530D01*
X169301Y240254D01*
X170968Y239564D01*
X172773D01*
X174440Y240254D01*
X175716Y241530D01*
X176407Y243197D01*
Y245002D01*
X175716Y246669D01*
X174440Y247945D01*
X172773Y248636D01*
D02*
G37*
G36*
X196819Y236968D02*
X177167D01*
Y217316D01*
X196819D01*
Y236968D01*
D02*
G37*
G36*
X127286Y181968D02*
X124699D01*
X122200Y181299D01*
X119959Y180005D01*
X118130Y178176D01*
X116836Y175935D01*
X116167Y173436D01*
Y170849D01*
X116331Y170237D01*
D01*
X116836Y168350D01*
X118130Y166109D01*
X119959Y164280D01*
X122200Y162986D01*
X124699Y162316D01*
X127286D01*
X129785Y162986D01*
X132026Y164280D01*
X133855Y166109D01*
X135149Y168350D01*
X135819Y170849D01*
Y173436D01*
X135149Y175935D01*
X133855Y178176D01*
X132026Y180005D01*
X129785Y181299D01*
X127286Y181968D01*
D02*
G37*
G36*
X168293Y147391D02*
X166489D01*
X164821Y146700D01*
X163545Y145424D01*
X162855Y143757D01*
Y141953D01*
X163367Y140716D01*
D01*
X163545Y140286D01*
X164821Y139010D01*
X166489Y138319D01*
X168293D01*
X169960Y139010D01*
X171236Y140286D01*
X171415Y140716D01*
D01*
X171927Y141953D01*
Y143757D01*
X171236Y145424D01*
X169960Y146700D01*
X168293Y147391D01*
D02*
G37*
G36*
X173341Y132160D02*
X171536D01*
X169869Y131470D01*
X168593Y130194D01*
X167903Y128527D01*
Y126722D01*
X168593Y125055D01*
X169869Y123779D01*
X171536Y123088D01*
X173341D01*
X175008Y123779D01*
X176284Y125055D01*
X176975Y126722D01*
Y128527D01*
X176284Y130194D01*
X175008Y131470D01*
X173341Y132160D01*
D02*
G37*
G36*
X141337Y154512D02*
X139532D01*
X137865Y153822D01*
X136589Y152546D01*
X135899Y150879D01*
Y149074D01*
X136589Y147407D01*
X136814Y147182D01*
Y139446D01*
Y131244D01*
X137070Y129955D01*
X137800Y128863D01*
X150396Y116267D01*
X150148Y115022D01*
X149921Y114928D01*
X149326Y114333D01*
X147635D01*
X146904Y115064D01*
X145728Y115850D01*
X144340Y116126D01*
X144340Y116126D01*
X133589D01*
X133589Y116126D01*
X133442Y116096D01*
X132984Y116472D01*
X132293Y118139D01*
X131017Y119415D01*
X129350Y120106D01*
X127546D01*
X125879Y119415D01*
X124603Y118139D01*
X123912Y116472D01*
Y115358D01*
X123912Y114668D01*
X122739Y114184D01*
X122212D01*
X120545Y113494D01*
X119269Y112218D01*
X118578Y110551D01*
Y108746D01*
X119269Y107079D01*
X120545Y105803D01*
X122212Y105112D01*
X124016D01*
X125683Y105803D01*
X126019Y106138D01*
X130853D01*
X130853Y106138D01*
X132240Y106414D01*
X133417Y107200D01*
X135091Y108874D01*
X142839D01*
X143867Y107846D01*
X145043Y107061D01*
X146430Y106784D01*
X147818Y107061D01*
X147849Y107082D01*
X150296D01*
X151588Y106546D01*
X153393D01*
X155060Y107237D01*
X156336Y108513D01*
X156430Y108740D01*
X157675Y108988D01*
X191888Y74775D01*
Y73743D01*
X191530Y73385D01*
X190840Y71718D01*
Y69914D01*
X191530Y68246D01*
X192806Y66970D01*
X194474Y66280D01*
X196278D01*
X197945Y66970D01*
X199221Y68246D01*
X199912Y69914D01*
Y71718D01*
X199221Y73385D01*
X198622Y73985D01*
Y76169D01*
X198365Y77458D01*
X197635Y78550D01*
X143547Y132638D01*
Y139446D01*
Y146674D01*
X144280Y147407D01*
X144971Y149074D01*
Y150879D01*
X144280Y152546D01*
X143004Y153822D01*
X141337Y154512D01*
D02*
G37*
G36*
X131895Y84146D02*
X130090D01*
X128423Y83456D01*
X127243Y82275D01*
X126062Y83456D01*
X124395Y84146D01*
X122590D01*
X120923Y83456D01*
X119647Y82180D01*
X118957Y80513D01*
Y78820D01*
X117431Y78188D01*
X116155Y76912D01*
X115464Y75245D01*
Y73440D01*
X116155Y71773D01*
X117431Y70497D01*
X119098Y69806D01*
X120902D01*
X122570Y70497D01*
X123845Y71773D01*
X124536Y73440D01*
Y75133D01*
X126062Y75765D01*
X127243Y76945D01*
X128423Y75765D01*
X130090Y75074D01*
X131895D01*
X133562Y75765D01*
X134838Y77041D01*
X135529Y78708D01*
Y80513D01*
X134838Y82180D01*
X133562Y83456D01*
X131895Y84146D01*
D02*
G37*
G36*
X168723Y81335D02*
X166918D01*
X165251Y80645D01*
X163975Y79369D01*
X163285Y77701D01*
Y75897D01*
X163975Y74230D01*
X165251Y72954D01*
X166918Y72263D01*
X168723D01*
X170390Y72954D01*
X171666Y74230D01*
X172357Y75897D01*
Y77701D01*
X171666Y79369D01*
X170390Y80645D01*
X168723Y81335D01*
D02*
G37*
G36*
X161052Y65281D02*
X159248D01*
X157581Y64590D01*
X156305Y63314D01*
X155614Y61647D01*
Y59842D01*
X156305Y58175D01*
X157581Y56899D01*
X159248Y56209D01*
X161052D01*
X162720Y56899D01*
X163996Y58175D01*
X164686Y59842D01*
Y61647D01*
X163996Y63314D01*
X162720Y64590D01*
X161052Y65281D01*
D02*
G37*
G36*
X186736Y54249D02*
X184932D01*
X183264Y53559D01*
X181988Y52283D01*
X181298Y50615D01*
Y48811D01*
X181988Y47144D01*
X183264Y45868D01*
X184932Y45177D01*
X186736D01*
X188403Y45868D01*
X189679Y47144D01*
X190370Y48811D01*
Y50615D01*
X189679Y52283D01*
X188403Y53559D01*
X186736Y54249D01*
D02*
G37*
G36*
X143213Y44178D02*
X141408D01*
X139741Y43488D01*
X138465Y42212D01*
X137775Y40545D01*
Y38740D01*
X138465Y37073D01*
X139741Y35797D01*
X141408Y35106D01*
X143213D01*
X144880Y35797D01*
X146156Y37073D01*
X146847Y38740D01*
Y40545D01*
X146156Y42212D01*
X144880Y43488D01*
X143213Y44178D01*
D02*
G37*
G36*
X216177Y43678D02*
X214372D01*
X212705Y42988D01*
X211429Y41712D01*
X210739Y40045D01*
Y38240D01*
X211429Y36573D01*
X212705Y35297D01*
X214372Y34606D01*
X216177D01*
X217844Y35297D01*
X219120Y36573D01*
X219811Y38240D01*
Y40045D01*
X219120Y41712D01*
X217844Y42988D01*
X216177Y43678D01*
D02*
G37*
G36*
X146925Y20400D02*
X145120D01*
X143453Y19710D01*
X142177Y18434D01*
X141487Y16767D01*
Y14962D01*
X142177Y13295D01*
X143453Y12019D01*
X145120Y11328D01*
X146925D01*
X148592Y12019D01*
X149868Y13295D01*
X150559Y14962D01*
Y16767D01*
X149868Y18434D01*
X148592Y19710D01*
X146925Y20400D01*
D02*
G37*
%LPD*%
D31*
X272058Y275401D02*
X283027Y264432D01*
X272058Y275401D02*
X272058D01*
X318841Y264432D02*
X349223Y234050D01*
X283027Y264432D02*
X318841D01*
D32*
X169582Y406840D02*
X198620D01*
X161976Y410464D02*
X165959D01*
X169582Y406840D01*
X198620D02*
X214300Y391160D01*
X475159Y379846D02*
X486267D01*
X473648Y381357D02*
X475159Y379846D01*
X486267D02*
X515640Y350473D01*
X471965Y381357D02*
X473648D01*
X468857Y378249D02*
X471965Y381357D01*
X515640Y350473D02*
X546330D01*
X547437Y349366D02*
X548105D01*
X546330Y350473D02*
X547437Y349366D01*
X475542Y385929D02*
X477053Y384418D01*
X470071Y385929D02*
X475542D01*
X477053Y384418D02*
X488161D01*
X465645Y381504D02*
X470071Y385929D01*
X547437Y356152D02*
X548105D01*
X546330Y355045D02*
X547437Y356152D01*
X517534Y355045D02*
X546330D01*
X488161Y384418D02*
X517534Y355045D01*
X161722Y202438D02*
X178232Y185928D01*
X161722Y202438D02*
Y248345D01*
X156321Y253746D02*
X161722Y248345D01*
X212776Y166116D02*
X225095Y178435D01*
X212776Y135382D02*
X229540Y118618D01*
X212776Y135382D02*
Y166116D01*
X229540Y102362D02*
Y118618D01*
X223783Y96605D02*
X229540Y102362D01*
X223783Y87733D02*
Y96605D01*
X228016Y73660D02*
Y83499D01*
X223783Y87733D02*
X228016Y83499D01*
X222367Y223589D02*
X233354Y212602D01*
X233350Y212598D02*
X233604Y212344D01*
X243275Y221000D02*
X422024D01*
X435024Y234000D01*
X235321Y228955D02*
X243275Y221000D01*
X415554Y292000D02*
X423899Y300344D01*
X374262Y297738D02*
X380000Y292000D01*
X415554D01*
X423899Y300344D02*
X438132D01*
X351900Y297738D02*
X374262D01*
X346162Y292000D02*
X351900Y297738D01*
X287000Y292000D02*
X346162D01*
X240963Y338037D02*
X287000Y292000D01*
X240963Y338037D02*
Y351963D01*
X317473Y304154D02*
X345744D01*
X347532Y299836D02*
X350006Y302310D01*
X345744Y304154D02*
X348217Y306628D01*
X378629Y299836D02*
X414247D01*
X376156Y302310D02*
X378629Y299836D01*
X350006Y302310D02*
X376156D01*
X348217Y306628D02*
X356159D01*
X295375Y299836D02*
X347532D01*
X356159Y306628D02*
X363955Y314424D01*
X414247Y299836D02*
X421613Y307202D01*
X240963Y351963D02*
X241000Y352000D01*
X195255Y70937D02*
Y76169D01*
X140181Y131244D02*
Y149722D01*
Y131244D02*
X195255Y76169D01*
X291770Y406400D02*
X301168Y397002D01*
X259512Y406400D02*
X291770D01*
X293020Y334380D02*
X299500Y340860D01*
Y365874D01*
X285723Y334380D02*
X293020D01*
X253432Y379483D02*
X253715D01*
X255856Y381624D02*
X283750D01*
X253715Y379483D02*
X255856Y381624D01*
X303818Y336186D02*
Y367663D01*
X315392Y317267D02*
Y324612D01*
X303818Y336186D02*
X315392Y324612D01*
X280321Y391160D02*
X303818Y367663D01*
X214300Y391160D02*
X280321D01*
X264133Y432259D02*
Y442584D01*
Y432259D02*
X267640Y428752D01*
X275801D01*
X272684Y433832D02*
X402006D01*
X274012Y424434D02*
X284426Y414020D01*
X247574Y425958D02*
X260365D01*
X275801Y428752D02*
X284321Y420232D01*
X261889Y424434D02*
X274012D01*
X272212Y434304D02*
X272684Y433832D01*
X260365Y425958D02*
X261889Y424434D01*
X284426Y414020D02*
X334607D01*
X284321Y420232D02*
X353795D01*
X117594Y289237D02*
Y290094D01*
X120846Y285984D02*
X131591D01*
X132053Y286447D01*
X117594Y289237D02*
X120846Y285984D01*
X116002Y291686D02*
Y292354D01*
Y291686D02*
X117594Y290094D01*
X112870Y300497D02*
Y309187D01*
X110450Y245328D02*
Y298077D01*
X112870Y300497D01*
X110450Y245328D02*
X124384Y231394D01*
X260716Y295125D02*
X264361D01*
X278054Y281432D01*
X316154D02*
X338706Y258880D01*
X278054Y281432D02*
X316154D01*
X291565Y303646D02*
X295375Y299836D01*
X218049Y220787D02*
X225095Y213741D01*
Y178435D02*
Y213741D01*
X435024Y234000D02*
X442000D01*
X338706Y258880D02*
X477913D01*
X484114Y252678D01*
X254940Y401828D02*
X259512Y406400D01*
X206680Y410464D02*
X215316Y401828D01*
X254940D01*
X324186Y308472D02*
X332603D01*
X315392Y317267D02*
X324186Y308472D01*
X332603D02*
X342062Y317931D01*
Y332300D01*
X302995Y318632D02*
X317473Y304154D01*
X342062Y332300D02*
X353795Y344032D01*
X368400Y333237D02*
Y352893D01*
X371731Y356224D01*
X218049Y220787D02*
Y228153D01*
X166599Y256794D02*
X189408D01*
X162504Y266996D02*
X185312D01*
X222367Y223589D02*
Y229942D01*
X189408Y256794D02*
X218049Y228153D01*
X185312Y266996D02*
X222367Y229942D01*
X153419Y296146D02*
X174482D01*
X235321Y235308D01*
X240225Y244050D02*
X249921Y253746D01*
X235321Y228955D02*
Y235308D01*
X234430Y244050D02*
X240225D01*
X134250Y292250D02*
X134722Y291778D01*
X136947Y286447D02*
X166599Y256794D01*
X134722Y291778D02*
X137722D01*
X162504Y266996D01*
X124384Y231394D02*
X142418D01*
X334607Y414020D02*
X353795Y394832D01*
X402006Y433832D02*
X422580Y413258D01*
Y326047D02*
Y413258D01*
Y326047D02*
X429995Y318632D01*
X220699Y335142D02*
X260716Y295125D01*
X474025Y302415D02*
X477195D01*
X477324Y302544D01*
X426382Y280589D02*
X427003D01*
X448827Y302412D01*
X293294Y253746D02*
X293802Y253238D01*
X249921Y253746D02*
X293294D01*
X132053Y286447D02*
X136947D01*
X448827Y302412D02*
X474022D01*
X474025Y302415D01*
X290468Y339932D02*
Y351225D01*
X283945Y357748D02*
X290468Y351225D01*
X283750Y381624D02*
X299500Y365874D01*
X195255Y70937D02*
X195376Y70816D01*
X140181Y149722D02*
X140435Y149976D01*
X256767Y357748D02*
X283945D01*
X245337Y369178D02*
X256767Y357748D01*
X245337Y380985D02*
X248626Y384274D01*
X245337Y369178D02*
Y380985D01*
X454807Y318045D02*
X455395Y318632D01*
X446679Y318045D02*
X454807D01*
X435837Y307202D02*
X446679Y318045D01*
X421613Y307202D02*
X435837D01*
X438132Y300344D02*
X446006Y308218D01*
X459708D01*
X439991Y357426D02*
X474888Y322529D01*
X439991Y357426D02*
Y367781D01*
X474888Y322529D02*
X500379D01*
X459708Y308218D02*
X465296Y313806D01*
X544549D01*
X461455Y344236D02*
X478844Y326847D01*
X461455Y344236D02*
Y345981D01*
X478844Y326847D02*
X496846D01*
X460983Y346454D02*
X461455Y345981D01*
X526769Y344286D02*
X530833Y340222D01*
X520772Y344286D02*
X526769D01*
X519828Y345230D02*
X520772Y344286D01*
X515229Y345230D02*
X519828D01*
X496846Y326847D02*
X515229Y345230D01*
X500379Y322529D02*
X517529Y339678D01*
X383767Y356224D02*
X390117Y362574D01*
X371731Y356224D02*
X383767D01*
X379195Y420232D02*
X406373D01*
X415517Y411088D01*
Y329554D02*
Y411088D01*
X404595Y318632D02*
X415517Y329554D01*
X390117Y362574D02*
Y383910D01*
X379195Y318632D02*
X404595D01*
X404595Y318632D01*
X363955Y319140D02*
X379195Y334380D01*
X363955Y314424D02*
Y319140D01*
X379195Y334380D02*
Y344032D01*
X353795Y318632D02*
X368400Y333237D01*
X367402Y358002D02*
X370960Y361560D01*
X371323D01*
X379195Y369432D01*
X342365Y358002D02*
X367402D01*
X379195Y394832D02*
X390117Y383910D01*
X328395Y318632D02*
Y344032D01*
X342365Y358002D01*
D33*
X118034Y335788D02*
Y340614D01*
X116002Y342646D02*
X118034Y340614D01*
X113970Y331724D02*
X118034Y335788D01*
X104298Y324084D02*
X111938Y331724D01*
X104250Y320581D02*
X104298Y320629D01*
X111938Y331724D02*
X113970D01*
X104298Y320629D02*
Y324084D01*
X224714Y64770D02*
X224992Y64492D01*
Y63465D02*
X225017Y63441D01*
X224992Y63465D02*
Y64492D01*
X225017Y33644D02*
Y63441D01*
X217905Y26532D02*
X225017Y33644D01*
D35*
X146727Y110707D02*
X152115D01*
X152490Y111082D01*
X146430Y110410D02*
X146727Y110707D01*
X123230Y109764D02*
X130853D01*
X123114Y109648D02*
X123230Y109764D01*
X130853D02*
X133589Y112500D01*
X144340D01*
X146430Y110410D01*
D38*
X134798Y210566D02*
X136128Y209236D01*
X134544Y210566D02*
X134798D01*
X104540Y240570D02*
X134544Y210566D01*
X104540Y240570D02*
Y310864D01*
X120320Y326644D02*
X122860D01*
X104540Y310864D02*
X120320Y326644D01*
X485572Y226568D02*
X496240Y237236D01*
Y274066D01*
X505226Y283052D01*
X537388D01*
X162992Y332994D02*
X195504Y365506D01*
X122860Y326644D02*
X129210Y332994D01*
X162992D01*
X195504Y365506D02*
X225476D01*
X231621Y359361D01*
Y345810D02*
Y359361D01*
D39*
X429995Y318632D02*
D03*
X404595Y318632D02*
D03*
X379195Y318632D02*
D03*
X353795D02*
D03*
X328395Y318632D02*
D03*
X302995Y318632D02*
D03*
X455395Y318632D02*
D03*
D42*
X349223Y234050D02*
D03*
D44*
X353795Y420232D02*
D03*
X353795Y394832D02*
D03*
X379195Y420232D02*
D03*
Y394832D02*
D03*
Y369432D02*
D03*
D46*
X353795Y344032D02*
D03*
X379195Y344032D02*
D03*
D47*
X186993Y202142D02*
D03*
D49*
X248385Y27694D02*
D03*
D53*
X116002Y342646D02*
D03*
X161976Y410464D02*
D03*
X468385Y376212D02*
D03*
X548105Y349366D02*
D03*
X463607Y381032D02*
D03*
X548105Y356152D02*
D03*
X107874Y68834D02*
D03*
X147700Y190830D02*
D03*
X109398Y181610D02*
D03*
X136128Y209236D02*
D03*
X178232Y185928D02*
D03*
X223988Y108066D02*
D03*
X228016Y73660D02*
D03*
X224714Y64770D02*
D03*
X216889Y88762D02*
D03*
X233604Y212344D02*
D03*
X423899Y300344D02*
D03*
X240963Y351963D02*
D03*
X272058Y275401D02*
D03*
X161743Y88593D02*
D03*
X152490Y111082D02*
D03*
X126924Y40640D02*
D03*
X136576Y26670D02*
D03*
X123114Y109648D02*
D03*
X301168Y397002D02*
D03*
X272212Y434304D02*
D03*
X247574Y425958D02*
D03*
X112870Y309187D02*
D03*
X116002Y292354D02*
D03*
X122860Y326644D02*
D03*
X278054Y281432D02*
D03*
X291565Y303646D02*
D03*
X428000Y182000D02*
D03*
X416000D02*
D03*
X422000D02*
D03*
X416000Y176000D02*
D03*
X422000D02*
D03*
X428000D02*
D03*
X442000Y234000D02*
D03*
X206680Y410464D02*
D03*
X146228Y234442D02*
D03*
X234430Y244050D02*
D03*
X104250Y320581D02*
D03*
X215570Y195072D02*
D03*
X173914Y211582D02*
D03*
X293802Y253238D02*
D03*
X477324Y302544D02*
D03*
X426382Y280589D02*
D03*
X485572Y226568D02*
D03*
X537388Y283052D02*
D03*
X134250Y292250D02*
D03*
X153419Y296146D02*
D03*
X285723Y334380D02*
D03*
X290468Y339932D02*
D03*
X156321Y253746D02*
D03*
X216635Y206872D02*
D03*
X176568Y71556D02*
D03*
X195376Y70816D02*
D03*
X127993Y148198D02*
D03*
X140435Y149976D02*
D03*
X484114Y252678D02*
D03*
X253432Y379483D02*
D03*
X248626Y384274D02*
D03*
X264133Y442584D02*
D03*
X217905Y26532D02*
D03*
X544579Y313216D02*
D03*
X460983Y346454D02*
D03*
X530833Y340222D02*
D03*
X439991Y367781D02*
D03*
X517529Y339678D02*
D03*
X220699Y335142D02*
D03*
X231621Y345810D02*
D03*
M02*
