G04*
G04 #@! TF.GenerationSoftware,Altium Limited,Altium Designer,23.4.1 (23)*
G04*
G04 Layer_Physical_Order=3*
G04 Layer_Color=16440176*
%FSLAX44Y44*%
%MOMM*%
G71*
G04*
G04 #@! TF.SameCoordinates,94C9EC07-DBB0-4CC7-B746-D598ABB35CDF*
G04*
G04*
G04 #@! TF.FilePolarity,Positive*
G04*
G01*
G75*
%ADD32C,0.2032*%
%ADD33C,0.2540*%
%ADD34C,0.3048*%
%ADD37C,0.6350*%
%ADD39C,0.5080*%
%ADD40C,1.3716*%
%ADD43C,1.8000*%
%ADD45C,1.5240*%
%ADD47R,1.4986X1.4986*%
%ADD48C,1.5080*%
%ADD50R,1.5080X1.5080*%
%ADD54C,0.4500*%
G36*
X166599Y253427D02*
X188013D01*
X214682Y226759D01*
Y220787D01*
X214938Y219499D01*
X215668Y218407D01*
X219634Y214441D01*
Y183388D01*
X200838Y164592D01*
X161214D01*
X135819Y189987D01*
Y206968D01*
X135814D01*
Y209456D01*
X144940D01*
X146823Y209830D01*
X148419Y210897D01*
X149486Y212493D01*
X149861Y214376D01*
X149486Y216259D01*
X148419Y217855D01*
X146823Y218922D01*
X144940Y219296D01*
X135814D01*
Y236982D01*
X150781Y251949D01*
X152279Y251651D01*
X152475Y251177D01*
X152954Y250698D01*
Y207847D01*
X153210Y206558D01*
X153940Y205466D01*
X167700Y191706D01*
Y191029D01*
X168391Y189362D01*
X169667Y188086D01*
X171334Y187395D01*
X173138D01*
X174805Y188086D01*
X176081Y189362D01*
X176772Y191029D01*
Y192833D01*
X176081Y194501D01*
X174805Y195777D01*
X173138Y196467D01*
X172461D01*
X159688Y209241D01*
Y250698D01*
X160166Y251177D01*
X160857Y252844D01*
Y253492D01*
X166274D01*
X166599Y253427D01*
D02*
G37*
G36*
X434665Y183388D02*
X434464Y182902D01*
Y181098D01*
X435155Y179431D01*
X435585Y179000D01*
X435155Y178570D01*
X434464Y176902D01*
Y175098D01*
X435155Y173431D01*
X436431Y172155D01*
X438098Y171464D01*
X439902D01*
X441569Y172155D01*
X442000Y172585D01*
X442431Y172155D01*
X444098Y171464D01*
X445902D01*
X447569Y172155D01*
X448000Y172585D01*
X448430Y172155D01*
X449060Y171894D01*
X457632Y163322D01*
Y134247D01*
X282178D01*
X282178Y134247D01*
X281398Y134091D01*
X280736Y133649D01*
X280736Y133649D01*
X274629Y127542D01*
X274187Y126881D01*
X274032Y126100D01*
Y3556D01*
X250114D01*
X229540Y24130D01*
Y85496D01*
X230237D01*
X231904Y86187D01*
X233180Y87463D01*
X233871Y89130D01*
Y90935D01*
X233180Y92602D01*
X231904Y93878D01*
X230237Y94568D01*
X229540D01*
Y134225D01*
X230660Y134824D01*
X231498Y134264D01*
X234826Y132885D01*
X238359Y132183D01*
X241961D01*
X245494Y132885D01*
X248822Y134264D01*
X251817Y136265D01*
X254364Y138812D01*
X256365Y141807D01*
X257743Y145135D01*
X258446Y148667D01*
Y152269D01*
X257743Y155802D01*
X256365Y159130D01*
X254364Y162125D01*
X251817Y164672D01*
X251676Y164766D01*
X251552Y166030D01*
X263358Y177836D01*
X273073Y168122D01*
X274165Y167392D01*
X275453Y167136D01*
X280944D01*
X281423Y166657D01*
X283090Y165966D01*
X284895D01*
X286562Y166657D01*
X287838Y167933D01*
X288529Y169600D01*
Y171405D01*
X287838Y173072D01*
X286562Y174348D01*
X284895Y175038D01*
X283090D01*
X281423Y174348D01*
X280944Y173869D01*
X276848D01*
X268119Y182597D01*
X270180Y184658D01*
X330059D01*
X330286Y183482D01*
X328619Y182792D01*
X327343Y181516D01*
X326653Y179849D01*
Y178044D01*
X327343Y176377D01*
X328619Y175101D01*
X330286Y174410D01*
X332091D01*
X333758Y175101D01*
X335034Y176377D01*
X335725Y178044D01*
Y179849D01*
X335034Y181516D01*
X333758Y182792D01*
X332091Y183482D01*
X332319Y184658D01*
X433817D01*
X434665Y183388D01*
D02*
G37*
%LPC*%
G36*
X172773Y248636D02*
X170968D01*
X169301Y247945D01*
X168025Y246669D01*
X167335Y245002D01*
Y243197D01*
X168025Y241530D01*
X169301Y240254D01*
X170968Y239564D01*
X172773D01*
X174440Y240254D01*
X175716Y241530D01*
X176407Y243197D01*
Y245002D01*
X175716Y246669D01*
X174440Y247945D01*
X172773Y248636D01*
D02*
G37*
G36*
X196819Y236968D02*
X177167D01*
Y217316D01*
X196819D01*
Y236968D01*
D02*
G37*
G36*
X284895Y154560D02*
X283090D01*
X281423Y153870D01*
X280147Y152594D01*
X279457Y150927D01*
Y149122D01*
X280147Y147455D01*
X281423Y146179D01*
X283090Y145488D01*
X284895D01*
X286562Y146179D01*
X287838Y147455D01*
X288529Y149122D01*
Y150927D01*
X287838Y152594D01*
X286562Y153870D01*
X284895Y154560D01*
D02*
G37*
G36*
X401579Y159928D02*
X380007D01*
Y138356D01*
X401579D01*
Y159928D01*
D02*
G37*
G36*
X341413D02*
X338573D01*
X335829Y159193D01*
X333370Y157773D01*
X331362Y155765D01*
X329942Y153306D01*
X329207Y150562D01*
Y147722D01*
X329942Y144979D01*
X331362Y142520D01*
X333370Y140511D01*
X335829Y139091D01*
X338573Y138356D01*
X341413D01*
X344156Y139091D01*
X346615Y140511D01*
X348624Y142520D01*
X350044Y144979D01*
X350779Y147722D01*
Y150562D01*
X350044Y153306D01*
X348624Y155765D01*
X346615Y157773D01*
X344156Y159193D01*
X341413Y159928D01*
D02*
G37*
G36*
X249678Y87520D02*
X247091D01*
X244592Y86851D01*
X242351Y85557D01*
X240522Y83728D01*
X239228Y81487D01*
X238559Y78988D01*
Y76401D01*
X239228Y73902D01*
X240522Y71661D01*
X242351Y69832D01*
X244592Y68538D01*
X247091Y67868D01*
X249678D01*
X252177Y68538D01*
X254418Y69832D01*
X256247Y71661D01*
X257541Y73902D01*
X258211Y76401D01*
Y78988D01*
X257541Y81487D01*
X256247Y83728D01*
X254418Y85557D01*
X252177Y86851D01*
X249678Y87520D01*
D02*
G37*
G36*
Y62520D02*
X247091D01*
X244592Y61851D01*
X242351Y60557D01*
X240522Y58728D01*
X239228Y56487D01*
X238559Y53988D01*
Y51401D01*
X239228Y48902D01*
X240522Y46661D01*
X242351Y44832D01*
X244592Y43538D01*
X247091Y42868D01*
X249678D01*
X252177Y43538D01*
X254418Y44832D01*
X256247Y46661D01*
X257541Y48902D01*
X258211Y51401D01*
Y53988D01*
X257541Y56487D01*
X256247Y58728D01*
X254418Y60557D01*
X252177Y61851D01*
X249678Y62520D01*
D02*
G37*
%LPD*%
D32*
X291770Y406400D02*
X301168Y397002D01*
X259512Y406400D02*
X291770D01*
X293020Y334380D02*
X299500Y340860D01*
Y365874D01*
X285723Y334380D02*
X293020D01*
X253432Y379483D02*
X253715D01*
X255856Y381624D02*
X283750D01*
X253715Y379483D02*
X255856Y381624D01*
X303818Y336186D02*
Y367663D01*
X315392Y317267D02*
Y324612D01*
X303818Y336186D02*
X315392Y324612D01*
X280321Y391160D02*
X303818Y367663D01*
X214300Y391160D02*
X280321D01*
X264133Y432259D02*
Y442584D01*
Y432259D02*
X267640Y428752D01*
X275801D01*
X272684Y433832D02*
X402006D01*
X274012Y424434D02*
X284426Y414020D01*
X247574Y425958D02*
X260365D01*
X275801Y428752D02*
X284321Y420232D01*
X261889Y424434D02*
X274012D01*
X272212Y434304D02*
X272684Y433832D01*
X260365Y425958D02*
X261889Y424434D01*
X284426Y414020D02*
X334607D01*
X284321Y420232D02*
X353795D01*
X117594Y289237D02*
Y290094D01*
X120846Y285984D02*
X131591D01*
X132053Y286447D01*
X117594Y289237D02*
X120846Y285984D01*
X116002Y291686D02*
Y292354D01*
Y291686D02*
X117594Y290094D01*
X112870Y300497D02*
Y309187D01*
X110450Y245328D02*
Y298077D01*
X112870Y300497D01*
X110450Y245328D02*
X124384Y231394D01*
X260716Y295125D02*
X264361D01*
X278054Y281432D01*
X316154D02*
X338706Y258880D01*
X278054Y281432D02*
X316154D01*
X291565Y303646D02*
X295375Y299836D01*
X414247D01*
X187122Y95250D02*
Y140462D01*
Y95250D02*
X213538Y68834D01*
Y53340D02*
Y68834D01*
X218049Y220787D02*
X225095Y213741D01*
X187122Y140462D02*
X225095Y178435D01*
Y213741D01*
X435024Y234000D02*
X442000D01*
X395030Y194005D02*
X435024Y234000D01*
X338706Y258880D02*
X477913D01*
X484114Y252678D01*
X254940Y401828D02*
X259512Y406400D01*
X206680Y410464D02*
X215316Y401828D01*
X254940D01*
X151054Y411226D02*
X160960Y401320D01*
X204140D01*
X214300Y391160D01*
X324186Y308472D02*
X332603D01*
X315392Y317267D02*
X324186Y308472D01*
X353685Y304154D02*
X363955Y314424D01*
X332603Y308472D02*
X342062Y317931D01*
X317473Y304154D02*
X353685D01*
X342062Y317931D02*
Y332300D01*
X302995Y318632D02*
X317473Y304154D01*
X342062Y332300D02*
X353795Y344032D01*
X368400Y333237D02*
Y352893D01*
X371731Y356224D01*
X218049Y220787D02*
Y228153D01*
X222367Y223589D02*
X275453Y170502D01*
X283993D01*
X235321Y228955D02*
X270270Y194005D01*
X395030D01*
X166599Y256794D02*
X189408D01*
X162504Y266996D02*
X185312D01*
X222367Y223589D02*
Y229942D01*
X189408Y256794D02*
X218049Y228153D01*
X185312Y266996D02*
X222367Y229942D01*
X153419Y296146D02*
X174482D01*
X235321Y235308D01*
X240225Y244050D02*
X249921Y253746D01*
X235321Y228955D02*
Y235308D01*
X234430Y244050D02*
X240225D01*
X134250Y292250D02*
X134722Y291778D01*
X136947Y286447D02*
X166599Y256794D01*
X134722Y291778D02*
X137722D01*
X162504Y266996D01*
X124384Y231394D02*
X142418D01*
X334607Y414020D02*
X353795Y394832D01*
X402006Y433832D02*
X422580Y413258D01*
Y326047D02*
Y413258D01*
Y326047D02*
X429995Y318632D01*
X220699Y335142D02*
X260716Y295125D01*
X474025Y302415D02*
X477195D01*
X477324Y302544D01*
X426382Y280589D02*
X427003D01*
X448827Y302412D01*
X293294Y253746D02*
X293802Y253238D01*
X249921Y253746D02*
X293294D01*
X132053Y286447D02*
X136947D01*
X448827Y302412D02*
X474022D01*
X474025Y302415D01*
X290468Y339932D02*
Y351225D01*
X283945Y357748D02*
X290468Y351225D01*
X283750Y381624D02*
X299500Y365874D01*
X156321Y207847D02*
Y253746D01*
Y207847D02*
X172236Y191931D01*
X463607Y381032D02*
X464078Y381504D01*
X465645D01*
X468857Y378249D02*
X471965Y381357D01*
X465645Y381504D02*
X470071Y385929D01*
X140181Y131188D02*
X195255Y76114D01*
X140181Y131188D02*
Y149722D01*
X195255Y70937D02*
X195376Y70816D01*
X195255Y70937D02*
Y76114D01*
X140181Y149722D02*
X140435Y149976D01*
X256767Y357748D02*
X283945D01*
X245337Y369178D02*
X256767Y357748D01*
X245337Y380985D02*
X248626Y384274D01*
X245337Y369178D02*
Y380985D01*
X414247Y299836D02*
X421613Y307202D01*
X454807Y318045D02*
X455395Y318632D01*
X446679Y318045D02*
X454807D01*
X435837Y307202D02*
X446679Y318045D01*
X421613Y307202D02*
X435837D01*
X477053Y384418D02*
X488161D01*
X475542Y385929D02*
X477053Y384418D01*
X488161D02*
X517534Y355045D01*
X470071Y385929D02*
X475542D01*
X547437Y356152D02*
X548105D01*
X546330Y355045D02*
X547437Y356152D01*
X517534Y355045D02*
X546330D01*
X475159Y379846D02*
X486267D01*
X473648Y381357D02*
X475159Y379846D01*
X486267D02*
X515640Y350473D01*
X471965Y381357D02*
X473648D01*
X468857Y376684D02*
Y378249D01*
X468385Y376212D02*
X468857Y376684D01*
X546330Y350473D02*
X547437Y349366D01*
X548105D01*
X515640Y350473D02*
X546330D01*
X439991Y357426D02*
X474888Y322529D01*
X439991Y357426D02*
Y367781D01*
X474888Y322529D02*
X500379D01*
X461455Y344236D02*
X478844Y326847D01*
X461455Y344236D02*
Y345981D01*
X478844Y326847D02*
X496846D01*
X460983Y346454D02*
X461455Y345981D01*
X526769Y344286D02*
X530833Y340222D01*
X520772Y344286D02*
X526769D01*
X519828Y345230D02*
X520772Y344286D01*
X515229Y345230D02*
X519828D01*
X496846Y326847D02*
X515229Y345230D01*
X500379Y322529D02*
X517529Y339678D01*
X383767Y356224D02*
X390117Y362574D01*
X371731Y356224D02*
X383767D01*
X379195Y420232D02*
X406373D01*
X415517Y411088D01*
Y329554D02*
Y411088D01*
X404595Y318632D02*
X415517Y329554D01*
X390117Y362574D02*
Y383910D01*
X379195Y318632D02*
X404595D01*
X404595Y318632D01*
X363955Y319140D02*
X379195Y334380D01*
X363955Y314424D02*
Y319140D01*
X379195Y334380D02*
Y344032D01*
X353795Y318632D02*
X368400Y333237D01*
X367402Y358002D02*
X370960Y361560D01*
X371323D01*
X379195Y369432D01*
X342365Y358002D02*
X367402D01*
X379195Y394832D02*
X390117Y383910D01*
X328395Y318632D02*
Y344032D01*
X342365Y358002D01*
D33*
X152330Y110410D02*
X152490Y110250D01*
X119746Y111680D02*
X145160D01*
X146430Y110410D02*
X152330D01*
X145160Y111680D02*
X146430Y110410D01*
X119029Y112397D02*
X119746Y111680D01*
X118499Y112397D02*
X119029D01*
X423899Y300344D02*
X438132D01*
X446006Y308218D01*
X459708D01*
X465296Y313806D01*
X544549D01*
D34*
X193493Y100496D02*
X225017Y68972D01*
Y33644D02*
Y68972D01*
X111938Y331724D02*
X113970D01*
X104250Y320581D02*
X104298Y320629D01*
Y324084D01*
X111938Y331724D01*
X118034Y335788D02*
Y349758D01*
X113970Y331724D02*
X118034Y335788D01*
X217905Y26532D02*
X225017Y33644D01*
D37*
X318841Y264432D02*
X349223Y234050D01*
X283027Y264432D02*
X318841D01*
X272261Y275198D02*
X283027Y264432D01*
D39*
X120320Y326644D02*
X122860D01*
X130734Y214376D02*
X144940D01*
X104540Y240570D02*
X130734Y214376D01*
X104540Y240570D02*
Y310864D01*
X120320Y326644D01*
X485572Y226568D02*
X496240Y237236D01*
Y274066D01*
X505226Y283052D01*
X537388D01*
X162992Y332994D02*
X195504Y365506D01*
X122860Y326644D02*
X129210Y332994D01*
X162992D01*
X195504Y365506D02*
X225476D01*
X231621Y359361D01*
Y345810D02*
Y359361D01*
D40*
X429995Y318632D02*
D03*
X404595Y318632D02*
D03*
X379195Y318632D02*
D03*
X353795D02*
D03*
X328395Y318632D02*
D03*
X302995Y318632D02*
D03*
X455395Y318632D02*
D03*
D43*
X349223Y234050D02*
D03*
D45*
X353795Y420232D02*
D03*
X353795Y394832D02*
D03*
X379195Y420232D02*
D03*
Y394832D02*
D03*
Y369432D02*
D03*
D47*
X353795Y344032D02*
D03*
X379195Y344032D02*
D03*
D48*
X186993Y202142D02*
D03*
D50*
X248385Y27694D02*
D03*
D54*
X301168Y397002D02*
D03*
X272212Y434304D02*
D03*
X247574Y425958D02*
D03*
X112870Y309187D02*
D03*
X116002Y292354D02*
D03*
X122860Y326644D02*
D03*
X278054Y281432D02*
D03*
X291565Y303646D02*
D03*
X428000Y182000D02*
D03*
X416000D02*
D03*
X422000D02*
D03*
X416000Y176000D02*
D03*
X422000D02*
D03*
X428000D02*
D03*
X213538Y53340D02*
D03*
X442000Y234000D02*
D03*
X151054Y411226D02*
D03*
X206680Y410464D02*
D03*
X138100Y225044D02*
D03*
X144940Y214376D02*
D03*
X234430Y244050D02*
D03*
X118034Y351536D02*
D03*
X104250Y320581D02*
D03*
X215570Y195072D02*
D03*
X173914Y211582D02*
D03*
X293802Y253238D02*
D03*
X477324Y302544D02*
D03*
X426382Y280589D02*
D03*
X485572Y226568D02*
D03*
X537388Y283052D02*
D03*
X134250Y292250D02*
D03*
X153419Y296146D02*
D03*
X285723Y334380D02*
D03*
X290468Y339932D02*
D03*
X156321Y253746D02*
D03*
X463607Y381032D02*
D03*
X216635Y206872D02*
D03*
X172236Y191931D02*
D03*
X152490Y110250D02*
D03*
X195376Y70816D02*
D03*
X118499Y112397D02*
D03*
X140435Y149976D02*
D03*
X283993Y170502D02*
D03*
X272261Y275198D02*
D03*
X484114Y252678D02*
D03*
X423899Y300344D02*
D03*
X253432Y379483D02*
D03*
X248626Y384274D02*
D03*
X264133Y442584D02*
D03*
X193493Y100496D02*
D03*
X217905Y26532D02*
D03*
X548105Y356152D02*
D03*
X468385Y376212D02*
D03*
X548105Y349366D02*
D03*
X544579Y313216D02*
D03*
X460983Y346454D02*
D03*
X530833Y340222D02*
D03*
X439991Y367781D02*
D03*
X517529Y339678D02*
D03*
X220699Y335142D02*
D03*
X231621Y345810D02*
D03*
M02*
