G04*
G04 #@! TF.GenerationSoftware,Altium Limited,Altium Designer,23.4.1 (23)*
G04*
G04 Layer_Color=8388736*
%FSLAX44Y44*%
%MOMM*%
G71*
G04*
G04 #@! TF.SameCoordinates,94C9EC07-DBB0-4CC7-B746-D598ABB35CDF*
G04*
G04*
G04 #@! TF.FilePolarity,Negative*
G04*
G01*
G75*
G04:AMPARAMS|DCode=84|XSize=1.1532mm|YSize=1.0532mm|CornerRadius=0mm|HoleSize=0mm|Usage=FLASHONLY|Rotation=315.000|XOffset=0mm|YOffset=0mm|HoleType=Round|Shape=Rectangle|*
%AMROTATEDRECTD84*
4,1,4,-0.7801,0.0354,-0.0354,0.7801,0.7801,-0.0354,0.0354,-0.7801,-0.7801,0.0354,0.0*
%
%ADD84ROTATEDRECTD84*%

G04:AMPARAMS|DCode=85|XSize=1.1532mm|YSize=1.0532mm|CornerRadius=0.3141mm|HoleSize=0mm|Usage=FLASHONLY|Rotation=315.000|XOffset=0mm|YOffset=0mm|HoleType=Round|Shape=RoundedRectangle|*
%AMROUNDEDRECTD85*
21,1,1.1532,0.4250,0,0,315.0*
21,1,0.5250,1.0532,0,0,315.0*
1,1,0.6282,0.0354,-0.3359*
1,1,0.6282,-0.3359,0.0354*
1,1,0.6282,-0.0354,0.3359*
1,1,0.6282,0.3359,-0.0354*
%
%ADD85ROUNDEDRECTD85*%
G04:AMPARAMS|DCode=86|XSize=1.2032mm|YSize=1.1032mm|CornerRadius=0.3266mm|HoleSize=0mm|Usage=FLASHONLY|Rotation=160.000|XOffset=0mm|YOffset=0mm|HoleType=Round|Shape=RoundedRectangle|*
%AMROUNDEDRECTD86*
21,1,1.2032,0.4500,0,0,160.0*
21,1,0.5500,1.1032,0,0,160.0*
1,1,0.6532,-0.1815,0.3055*
1,1,0.6532,0.3354,0.1174*
1,1,0.6532,0.1815,-0.3055*
1,1,0.6532,-0.3354,-0.1174*
%
%ADD86ROUNDEDRECTD86*%
%ADD87R,1.0532X1.1532*%
G04:AMPARAMS|DCode=88|XSize=1.1532mm|YSize=1.0532mm|CornerRadius=0.3141mm|HoleSize=0mm|Usage=FLASHONLY|Rotation=90.000|XOffset=0mm|YOffset=0mm|HoleType=Round|Shape=RoundedRectangle|*
%AMROUNDEDRECTD88*
21,1,1.1532,0.4250,0,0,90.0*
21,1,0.5250,1.0532,0,0,90.0*
1,1,0.6282,0.2125,0.2625*
1,1,0.6282,0.2125,-0.2625*
1,1,0.6282,-0.2125,-0.2625*
1,1,0.6282,-0.2125,0.2625*
%
%ADD88ROUNDEDRECTD88*%
%ADD89R,1.4032X1.2032*%
%ADD90R,1.0032X1.4032*%
G04:AMPARAMS|DCode=91|XSize=1.4032mm|YSize=1.0032mm|CornerRadius=0.3016mm|HoleSize=0mm|Usage=FLASHONLY|Rotation=90.000|XOffset=0mm|YOffset=0mm|HoleType=Round|Shape=RoundedRectangle|*
%AMROUNDEDRECTD91*
21,1,1.4032,0.4000,0,0,90.0*
21,1,0.8000,1.0032,0,0,90.0*
1,1,0.6032,0.2000,0.4000*
1,1,0.6032,0.2000,-0.4000*
1,1,0.6032,-0.2000,-0.4000*
1,1,0.6032,-0.2000,0.4000*
%
%ADD91ROUNDEDRECTD91*%
G04:AMPARAMS|DCode=92|XSize=1.6782mm|YSize=0.5032mm|CornerRadius=0.1766mm|HoleSize=0mm|Usage=FLASHONLY|Rotation=225.000|XOffset=0mm|YOffset=0mm|HoleType=Round|Shape=RoundedRectangle|*
%AMROUNDEDRECTD92*
21,1,1.6782,0.1500,0,0,225.0*
21,1,1.3250,0.5032,0,0,225.0*
1,1,0.3532,-0.5215,-0.4154*
1,1,0.3532,0.4154,0.5215*
1,1,0.3532,0.5215,0.4154*
1,1,0.3532,-0.4154,-0.5215*
%
%ADD92ROUNDEDRECTD92*%
G04:AMPARAMS|DCode=93|XSize=1.6782mm|YSize=0.5032mm|CornerRadius=0.1766mm|HoleSize=0mm|Usage=FLASHONLY|Rotation=135.000|XOffset=0mm|YOffset=0mm|HoleType=Round|Shape=RoundedRectangle|*
%AMROUNDEDRECTD93*
21,1,1.6782,0.1500,0,0,135.0*
21,1,1.3250,0.5032,0,0,135.0*
1,1,0.3532,-0.4154,0.5215*
1,1,0.3532,0.5215,-0.4154*
1,1,0.3532,0.4154,-0.5215*
1,1,0.3532,-0.5215,0.4154*
%
%ADD93ROUNDEDRECTD93*%
G04:AMPARAMS|DCode=94|XSize=1.6782mm|YSize=0.5032mm|CornerRadius=0mm|HoleSize=0mm|Usage=FLASHONLY|Rotation=135.000|XOffset=0mm|YOffset=0mm|HoleType=Round|Shape=Round|*
%AMOVALD94*
21,1,1.1750,0.5032,0.0000,0.0000,135.0*
1,1,0.5032,0.4154,-0.4154*
1,1,0.5032,-0.4154,0.4154*
%
%ADD94OVALD94*%

G04:AMPARAMS|DCode=95|XSize=1.6782mm|YSize=0.5032mm|CornerRadius=0mm|HoleSize=0mm|Usage=FLASHONLY|Rotation=135.000|XOffset=0mm|YOffset=0mm|HoleType=Round|Shape=Rectangle|*
%AMROTATEDRECTD95*
4,1,4,0.7712,-0.4154,0.4154,-0.7712,-0.7712,0.4154,-0.4154,0.7712,0.7712,-0.4154,0.0*
%
%ADD95ROTATEDRECTD95*%

%ADD96C,1.0414*%
G04:AMPARAMS|DCode=97|XSize=2.0032mm|YSize=1.5032mm|CornerRadius=0.4266mm|HoleSize=0mm|Usage=FLASHONLY|Rotation=270.000|XOffset=0mm|YOffset=0mm|HoleType=Round|Shape=RoundedRectangle|*
%AMROUNDEDRECTD97*
21,1,2.0032,0.6500,0,0,270.0*
21,1,1.1500,1.5032,0,0,270.0*
1,1,0.8532,-0.3250,-0.5750*
1,1,0.8532,-0.3250,0.5750*
1,1,0.8532,0.3250,0.5750*
1,1,0.8532,0.3250,-0.5750*
%
%ADD97ROUNDEDRECTD97*%
G04:AMPARAMS|DCode=98|XSize=1.2032mm|YSize=1.1032mm|CornerRadius=0.3266mm|HoleSize=0mm|Usage=FLASHONLY|Rotation=270.000|XOffset=0mm|YOffset=0mm|HoleType=Round|Shape=RoundedRectangle|*
%AMROUNDEDRECTD98*
21,1,1.2032,0.4500,0,0,270.0*
21,1,0.5500,1.1032,0,0,270.0*
1,1,0.6532,-0.2250,-0.2750*
1,1,0.6532,-0.2250,0.2750*
1,1,0.6532,0.2250,0.2750*
1,1,0.6532,0.2250,-0.2750*
%
%ADD98ROUNDEDRECTD98*%
G04:AMPARAMS|DCode=99|XSize=1.7032mm|YSize=3.7032mm|CornerRadius=0mm|HoleSize=0mm|Usage=FLASHONLY|Rotation=225.000|XOffset=0mm|YOffset=0mm|HoleType=Round|Shape=Rectangle|*
%AMROTATEDRECTD99*
4,1,4,-0.7071,1.9115,1.9115,-0.7071,0.7071,-1.9115,-1.9115,0.7071,-0.7071,1.9115,0.0*
%
%ADD99ROTATEDRECTD99*%

G04:AMPARAMS|DCode=100|XSize=1.7032mm|YSize=3.7032mm|CornerRadius=0.4766mm|HoleSize=0mm|Usage=FLASHONLY|Rotation=225.000|XOffset=0mm|YOffset=0mm|HoleType=Round|Shape=RoundedRectangle|*
%AMROUNDEDRECTD100*
21,1,1.7032,2.7500,0,0,225.0*
21,1,0.7500,3.7032,0,0,225.0*
1,1,0.9532,-1.2374,0.7071*
1,1,0.9532,-0.7071,1.2374*
1,1,0.9532,1.2374,-0.7071*
1,1,0.9532,0.7071,-1.2374*
%
%ADD100ROUNDEDRECTD100*%
G04:AMPARAMS|DCode=101|XSize=1.2032mm|YSize=1.1032mm|CornerRadius=0.3266mm|HoleSize=0mm|Usage=FLASHONLY|Rotation=135.000|XOffset=0mm|YOffset=0mm|HoleType=Round|Shape=RoundedRectangle|*
%AMROUNDEDRECTD101*
21,1,1.2032,0.4500,0,0,135.0*
21,1,0.5500,1.1032,0,0,135.0*
1,1,0.6532,-0.0354,0.3536*
1,1,0.6532,0.3536,-0.0354*
1,1,0.6532,0.0354,-0.3536*
1,1,0.6532,-0.3536,0.0354*
%
%ADD101ROUNDEDRECTD101*%
%ADD102C,3.0000*%
G04:AMPARAMS|DCode=103|XSize=1.2032mm|YSize=1.1032mm|CornerRadius=0.3266mm|HoleSize=0mm|Usage=FLASHONLY|Rotation=180.000|XOffset=0mm|YOffset=0mm|HoleType=Round|Shape=RoundedRectangle|*
%AMROUNDEDRECTD103*
21,1,1.2032,0.4500,0,0,180.0*
21,1,0.5500,1.1032,0,0,180.0*
1,1,0.6532,-0.2750,0.2250*
1,1,0.6532,0.2750,0.2250*
1,1,0.6532,0.2750,-0.2250*
1,1,0.6532,-0.2750,-0.2250*
%
%ADD103ROUNDEDRECTD103*%
G04:AMPARAMS|DCode=104|XSize=0.8032mm|YSize=1.2032mm|CornerRadius=0.2516mm|HoleSize=0mm|Usage=FLASHONLY|Rotation=90.000|XOffset=0mm|YOffset=0mm|HoleType=Round|Shape=RoundedRectangle|*
%AMROUNDEDRECTD104*
21,1,0.8032,0.7000,0,0,90.0*
21,1,0.3000,1.2032,0,0,90.0*
1,1,0.5032,0.3500,0.1500*
1,1,0.5032,0.3500,-0.1500*
1,1,0.5032,-0.3500,-0.1500*
1,1,0.5032,-0.3500,0.1500*
%
%ADD104ROUNDEDRECTD104*%
%ADD105R,1.2032X0.8032*%
%ADD106C,1.5748*%
%ADD107C,1.9032*%
%ADD108R,1.9032X1.9032*%
%ADD109C,1.8508*%
%ADD110R,1.8508X1.8508*%
%ADD111R,1.5494X1.5494*%
%ADD112R,1.5494X1.5494*%
%ADD113C,1.7112*%
%ADD114R,1.7112X1.7112*%
%ADD115R,1.7112X1.7112*%
G04:AMPARAMS|DCode=116|XSize=1.2032mm|YSize=1.8032mm|CornerRadius=0mm|HoleSize=0mm|Usage=FLASHONLY|Rotation=135.000|XOffset=0mm|YOffset=0mm|HoleType=Round|Shape=Round|*
%AMOVALD116*
21,1,0.6000,1.2032,0.0000,0.0000,225.0*
1,1,1.2032,0.2121,0.2121*
1,1,1.2032,-0.2121,-0.2121*
%
%ADD116OVALD116*%

%ADD117C,0.8782*%
G04:AMPARAMS|DCode=118|XSize=1.2032mm|YSize=2.3032mm|CornerRadius=0mm|HoleSize=0mm|Usage=FLASHONLY|Rotation=135.000|XOffset=0mm|YOffset=0mm|HoleType=Round|Shape=Round|*
%AMOVALD118*
21,1,1.1000,1.2032,0.0000,0.0000,225.0*
1,1,1.2032,0.3889,0.3889*
1,1,1.2032,-0.3889,-0.3889*
%
%ADD118OVALD118*%

%ADD119C,1.7032*%
D84*
X141648Y325112D02*
D03*
D85*
X129980Y313444D02*
D03*
D86*
X468279Y142967D02*
D03*
X473751Y158002D02*
D03*
D87*
X430840Y141478D02*
D03*
X535273Y313552D02*
D03*
D88*
X447340Y141478D02*
D03*
X518773Y313552D02*
D03*
D89*
X503063Y251068D02*
D03*
X429063D02*
D03*
X485621Y209412D02*
D03*
X411621D02*
D03*
D90*
X168493Y59142D02*
D03*
X162263Y124142D02*
D03*
D91*
X203493Y59142D02*
D03*
X197263Y124142D02*
D03*
D92*
X190471Y304730D02*
D03*
X186935Y308265D02*
D03*
X183400Y311801D02*
D03*
X179864Y315336D02*
D03*
X176329Y318872D02*
D03*
X172793Y322407D02*
D03*
X165722Y329478D02*
D03*
X162187Y333014D02*
D03*
X158651Y336549D02*
D03*
X155116Y340085D02*
D03*
X151580Y343620D02*
D03*
X211514Y403555D02*
D03*
X215050Y400019D02*
D03*
X218585Y396484D02*
D03*
X222121Y392948D02*
D03*
X225657Y389413D02*
D03*
X229192Y385877D02*
D03*
X232728Y382342D02*
D03*
X236263Y378806D02*
D03*
X239799Y375271D02*
D03*
X243334Y371735D02*
D03*
X246870Y368200D02*
D03*
X250405Y364664D02*
D03*
X169258Y325943D02*
D03*
D93*
X151580Y364664D02*
D03*
X155116Y368200D02*
D03*
X158651Y371735D02*
D03*
X162187Y375271D02*
D03*
X165722Y378806D02*
D03*
X169258Y382342D02*
D03*
X172793Y385877D02*
D03*
X176329Y389413D02*
D03*
X179864Y392948D02*
D03*
X183400Y396484D02*
D03*
X186935Y400019D02*
D03*
X190471Y403555D02*
D03*
X250405Y343620D02*
D03*
X246870Y340085D02*
D03*
X243334Y336549D02*
D03*
X239799Y333014D02*
D03*
X236263Y329478D02*
D03*
X232728Y325943D02*
D03*
X229192Y322407D02*
D03*
X225657Y318872D02*
D03*
X222121Y315336D02*
D03*
X218585Y311801D02*
D03*
D94*
X215050Y308265D02*
D03*
D95*
X211514Y304730D02*
D03*
D96*
X128448Y346456D02*
D03*
X530993Y331642D02*
D03*
X511275Y331586D02*
D03*
X159436Y400304D02*
D03*
X257226Y400558D02*
D03*
X113970Y322834D02*
D03*
X127940Y378206D02*
D03*
X111176Y365760D02*
D03*
D97*
X312493Y424142D02*
D03*
X284493D02*
D03*
X324993Y356642D02*
D03*
X296993D02*
D03*
X324566Y377952D02*
D03*
X296566D02*
D03*
X317493Y401642D02*
D03*
X289493D02*
D03*
D98*
X224889Y281548D02*
D03*
X208889D02*
D03*
X489305Y317870D02*
D03*
X505305D02*
D03*
X143993Y136642D02*
D03*
X127993D02*
D03*
X143993Y121642D02*
D03*
X127993D02*
D03*
X185493Y39142D02*
D03*
X201493D02*
D03*
X201493Y94142D02*
D03*
X185493Y94142D02*
D03*
X201493Y79142D02*
D03*
X185493D02*
D03*
X120493Y102832D02*
D03*
X136493Y102832D02*
D03*
X155493Y9142D02*
D03*
X171493D02*
D03*
X201493D02*
D03*
X185493Y9142D02*
D03*
Y24142D02*
D03*
X201493D02*
D03*
D99*
X500024Y367111D02*
D03*
D100*
X463961Y403173D02*
D03*
D101*
X260336Y275986D02*
D03*
X271649Y287299D02*
D03*
X284149Y274799D02*
D03*
X272836Y263486D02*
D03*
X238664Y302815D02*
D03*
X249977Y314129D02*
D03*
D102*
X199173Y443502D02*
D03*
X342831Y57698D02*
D03*
X590537Y243924D02*
D03*
D103*
X494257Y294374D02*
D03*
Y278374D02*
D03*
X511529Y296406D02*
D03*
Y280406D02*
D03*
X445235Y279644D02*
D03*
Y295644D02*
D03*
X153493Y53642D02*
D03*
Y69642D02*
D03*
X150993Y39642D02*
D03*
Y23642D02*
D03*
X113493Y137142D02*
D03*
X113493Y121142D02*
D03*
X170993Y39642D02*
D03*
Y23642D02*
D03*
X526500Y280500D02*
D03*
Y296500D02*
D03*
D104*
X307993Y151642D02*
D03*
X283993Y142142D02*
D03*
D105*
Y161142D02*
D03*
D106*
X277595Y445632D02*
D03*
X429995Y445632D02*
D03*
Y318632D02*
D03*
X404595Y318632D02*
D03*
X379195Y318632D02*
D03*
X353795D02*
D03*
X328395Y318632D02*
D03*
X302995Y318632D02*
D03*
X302995Y445632D02*
D03*
X455395Y445632D02*
D03*
Y318632D02*
D03*
X328395Y445632D02*
D03*
X353795D02*
D03*
X404595Y445632D02*
D03*
X379195Y445632D02*
D03*
X277595Y369432D02*
D03*
Y318632D02*
D03*
X277595Y344032D02*
D03*
X298423Y208650D02*
D03*
X323823D02*
D03*
X349223D02*
D03*
X404595Y369432D02*
D03*
Y394832D02*
D03*
X353795Y420232D02*
D03*
X353795Y394832D02*
D03*
Y369432D02*
D03*
X379195Y420232D02*
D03*
Y394832D02*
D03*
Y369432D02*
D03*
D107*
X339993Y149142D02*
D03*
D108*
X390793D02*
D03*
D109*
X247623Y234050D02*
D03*
X273023D02*
D03*
X298423D02*
D03*
X323823D02*
D03*
X349223D02*
D03*
D110*
X374623D02*
D03*
D111*
Y208650D02*
D03*
D112*
X404595Y344032D02*
D03*
X353795Y344032D02*
D03*
X379195Y344032D02*
D03*
D113*
X322899Y495078D02*
D03*
X347899D02*
D03*
X372899D02*
D03*
X248385Y52694D02*
D03*
Y77694D02*
D03*
X186993Y202142D02*
D03*
X125993Y250142D02*
D03*
Y172142D02*
D03*
D114*
X397899Y495078D02*
D03*
D115*
X248385Y27694D02*
D03*
X186993Y227142D02*
D03*
X125993Y275142D02*
D03*
Y197142D02*
D03*
D116*
X526539Y368595D02*
D03*
X465446Y429689D02*
D03*
D117*
X490618Y352898D02*
D03*
X449748Y393768D02*
D03*
D118*
X496982Y339038D02*
D03*
X435889Y400132D02*
D03*
D119*
X590993Y368048D02*
D03*
X465993Y494142D02*
D03*
X240160Y150469D02*
D03*
X360000Y278182D02*
D03*
M02*
