G04*
G04 #@! TF.GenerationSoftware,Altium Limited,Altium Designer,23.4.1 (23)*
G04*
G04 Layer_Color=32896*
%FSLAX44Y44*%
%MOMM*%
G71*
G04*
G04 #@! TF.SameCoordinates,94C9EC07-DBB0-4CC7-B746-D598ABB35CDF*
G04*
G04*
G04 #@! TF.FilePolarity,Positive*
G04*
G01*
G75*
%ADD32C,0.2032*%
%ADD79C,0.2000*%
%ADD80C,0.2500*%
%ADD82C,0.1000*%
G36*
X321426Y402690D02*
X323173Y399565D01*
X321875D01*
X320727Y401762D01*
X320717D01*
X319579Y399565D01*
X318281D01*
X320028Y402690D01*
X318411Y405605D01*
X319699D01*
X320717Y403628D01*
X320727D01*
X321755Y405605D01*
X323043D01*
X321426Y402690D01*
D02*
G37*
G36*
X327225Y404626D02*
X325938D01*
Y399565D01*
X324760D01*
Y404626D01*
X323492D01*
Y405605D01*
X327225D01*
Y404626D01*
D02*
G37*
G36*
X311294Y399565D02*
X308079D01*
Y400544D01*
X310146D01*
Y402141D01*
X308279D01*
Y403109D01*
X310146D01*
Y404626D01*
X308079D01*
Y405605D01*
X311294D01*
Y399565D01*
D02*
G37*
G36*
X307141D02*
X304087D01*
Y400544D01*
X305963D01*
Y405605D01*
X307141D01*
Y399565D01*
D02*
G37*
G36*
X313959Y405704D02*
X314119Y405695D01*
X314258Y405675D01*
X314378Y405654D01*
X314478Y405625D01*
X314548Y405605D01*
X314598Y405595D01*
X314618Y405585D01*
X314748Y405535D01*
X314867Y405475D01*
X314967Y405415D01*
X315057Y405355D01*
X315137Y405295D01*
X315187Y405255D01*
X315227Y405225D01*
X315237Y405215D01*
X315327Y405126D01*
X315406Y405036D01*
X315466Y404936D01*
X315526Y404846D01*
X315566Y404776D01*
X315596Y404716D01*
X315616Y404666D01*
X315626Y404656D01*
X315676Y404526D01*
X315706Y404407D01*
X315736Y404277D01*
X315746Y404167D01*
X315756Y404067D01*
X315766Y403988D01*
Y403938D01*
Y403918D01*
X315756Y403758D01*
X315736Y403608D01*
X315716Y403478D01*
X315676Y403369D01*
X315646Y403279D01*
X315626Y403219D01*
X315606Y403169D01*
X315596Y403159D01*
X315526Y403049D01*
X315446Y402949D01*
X315376Y402869D01*
X315307Y402790D01*
X315247Y402730D01*
X315197Y402690D01*
X315167Y402660D01*
X315157Y402650D01*
X314957Y402510D01*
X314867Y402440D01*
X314778Y402390D01*
X314708Y402350D01*
X314648Y402321D01*
X314608Y402300D01*
X314598Y402290D01*
X314378Y402191D01*
X314278Y402141D01*
X314199Y402091D01*
X314129Y402061D01*
X314079Y402031D01*
X314039Y402011D01*
X314029Y402001D01*
X313939Y401951D01*
X313849Y401891D01*
X313779Y401841D01*
X313719Y401791D01*
X313669Y401741D01*
X313630Y401712D01*
X313610Y401692D01*
X313600Y401682D01*
X313540Y401612D01*
X313500Y401542D01*
X313460Y401472D01*
X313440Y401402D01*
X313430Y401342D01*
X313420Y401292D01*
Y401262D01*
Y401252D01*
X313430Y401133D01*
X313460Y401033D01*
X313500Y400943D01*
X313540Y400863D01*
X313590Y400803D01*
X313630Y400763D01*
X313659Y400733D01*
X313669Y400723D01*
X313769Y400653D01*
X313879Y400603D01*
X313989Y400574D01*
X314089Y400554D01*
X314189Y400534D01*
X314268Y400524D01*
X314338D01*
X314548Y400534D01*
X314648Y400554D01*
X314738Y400564D01*
X314807Y400584D01*
X314867Y400594D01*
X314907Y400603D01*
X314917D01*
X315117Y400673D01*
X315207Y400703D01*
X315287Y400733D01*
X315357Y400763D01*
X315406Y400783D01*
X315436Y400803D01*
X315446D01*
X315836Y399785D01*
X315576Y399675D01*
X315446Y399635D01*
X315337Y399605D01*
X315237Y399575D01*
X315167Y399555D01*
X315117Y399545D01*
X315097D01*
X314797Y399496D01*
X314658Y399486D01*
X314538Y399476D01*
X314428Y399466D01*
X314278D01*
X314099Y399476D01*
X313939Y399486D01*
X313789Y399506D01*
X313659Y399535D01*
X313560Y399555D01*
X313480Y399575D01*
X313430Y399585D01*
X313410Y399595D01*
X313270Y399645D01*
X313141Y399705D01*
X313031Y399775D01*
X312941Y399835D01*
X312861Y399885D01*
X312811Y399935D01*
X312771Y399965D01*
X312761Y399975D01*
X312661Y400075D01*
X312582Y400174D01*
X312512Y400264D01*
X312452Y400354D01*
X312412Y400434D01*
X312382Y400494D01*
X312362Y400544D01*
X312352Y400554D01*
X312302Y400683D01*
X312272Y400813D01*
X312242Y400943D01*
X312232Y401063D01*
X312222Y401162D01*
X312212Y401242D01*
Y401292D01*
Y401312D01*
X312222Y401472D01*
X312242Y401622D01*
X312272Y401752D01*
X312302Y401851D01*
X312332Y401941D01*
X312362Y402011D01*
X312382Y402051D01*
X312392Y402061D01*
X312462Y402171D01*
X312532Y402271D01*
X312601Y402350D01*
X312671Y402430D01*
X312741Y402490D01*
X312781Y402530D01*
X312821Y402560D01*
X312831Y402570D01*
X313031Y402720D01*
X313120Y402780D01*
X313210Y402840D01*
X313290Y402879D01*
X313350Y402909D01*
X313390Y402929D01*
X313400Y402939D01*
X313620Y403049D01*
X313719Y403099D01*
X313809Y403149D01*
X313879Y403179D01*
X313929Y403209D01*
X313969Y403229D01*
X313979Y403239D01*
X314159Y403349D01*
X314228Y403409D01*
X314298Y403459D01*
X314348Y403498D01*
X314388Y403528D01*
X314408Y403548D01*
X314418Y403558D01*
X314478Y403628D01*
X314518Y403698D01*
X314548Y403768D01*
X314568Y403838D01*
X314578Y403898D01*
X314588Y403948D01*
Y403978D01*
Y403988D01*
X314578Y404097D01*
X314558Y404207D01*
X314518Y404287D01*
X314478Y404367D01*
X314438Y404417D01*
X314398Y404467D01*
X314378Y404487D01*
X314368Y404497D01*
X314278Y404566D01*
X314179Y404616D01*
X314069Y404646D01*
X313969Y404676D01*
X313889Y404686D01*
X313809Y404696D01*
X313749D01*
X313550Y404686D01*
X313460Y404676D01*
X313380Y404666D01*
X313310Y404646D01*
X313260Y404636D01*
X313230Y404626D01*
X313220D01*
X313041Y404566D01*
X312961Y404537D01*
X312901Y404507D01*
X312841Y404477D01*
X312801Y404457D01*
X312771Y404447D01*
X312761Y404437D01*
X312392Y405385D01*
X312611Y405495D01*
X312721Y405535D01*
X312821Y405565D01*
X312901Y405595D01*
X312971Y405615D01*
X313011Y405625D01*
X313031D01*
X313300Y405675D01*
X313430Y405695D01*
X313550Y405704D01*
X313650Y405714D01*
X313799D01*
X313959Y405704D01*
D02*
G37*
G36*
X389718Y470350D02*
X388590D01*
Y473863D01*
X388480Y473913D01*
X388380Y473953D01*
X388340Y473963D01*
X388311Y473973D01*
X388290Y473983D01*
X388280D01*
X388151Y474013D01*
X388041Y474023D01*
X387991Y474033D01*
X387931D01*
X387791Y474023D01*
X387672Y474003D01*
X387572Y473973D01*
X387482Y473943D01*
X387422Y473903D01*
X387372Y473873D01*
X387342Y473853D01*
X387332Y473843D01*
X387262Y473764D01*
X387202Y473684D01*
X387163Y473584D01*
X387142Y473494D01*
X387123Y473414D01*
X387113Y473344D01*
Y473304D01*
Y473284D01*
Y470350D01*
X385975D01*
Y473404D01*
Y473534D01*
X385995Y473664D01*
X386045Y473893D01*
X386114Y474083D01*
X386194Y474243D01*
X386274Y474373D01*
X386344Y474462D01*
X386394Y474512D01*
X386404Y474532D01*
X386414D01*
X386594Y474662D01*
X386783Y474762D01*
X386993Y474832D01*
X387192Y474872D01*
X387362Y474902D01*
X387442Y474912D01*
X387512D01*
X387562Y474922D01*
X387642D01*
X387821Y474912D01*
X387911Y474902D01*
X387981Y474892D01*
X388051Y474882D01*
X388101Y474872D01*
X388131Y474862D01*
X388141D01*
X388320Y474812D01*
X388390Y474792D01*
X388460Y474762D01*
X388510Y474742D01*
X388550Y474732D01*
X388580Y474712D01*
X388590D01*
Y476908D01*
X389718D01*
Y470350D01*
D02*
G37*
G36*
X336453Y476269D02*
X336583Y476179D01*
X336633Y476139D01*
X336673Y476110D01*
X336702Y476090D01*
X336712Y476079D01*
X336882Y475970D01*
X336972Y475930D01*
X337052Y475890D01*
X337112Y475860D01*
X337162Y475830D01*
X337202Y475820D01*
X337212Y475810D01*
X337411Y475730D01*
X337511Y475700D01*
X337601Y475670D01*
X337681Y475640D01*
X337741Y475630D01*
X337781Y475610D01*
X337790D01*
X338010Y475560D01*
X338110Y475531D01*
X338200Y475521D01*
X338280Y475500D01*
X338340Y475491D01*
X338380Y475481D01*
X338390D01*
X338220Y474612D01*
X338060Y474642D01*
X337920Y474672D01*
X337860Y474682D01*
X337821Y474692D01*
X337790Y474702D01*
X337781D01*
X337611Y474742D01*
X337541Y474762D01*
X337471Y474772D01*
X337421Y474792D01*
X337381Y474802D01*
X337351Y474812D01*
X337341D01*
X337182Y474862D01*
X337112Y474882D01*
X337052Y474902D01*
X336992Y474922D01*
X336952Y474941D01*
X336932Y474952D01*
X336922D01*
X336782Y475011D01*
X336673Y475061D01*
X336633Y475081D01*
X336603Y475101D01*
X336593Y475111D01*
X336583D01*
Y470350D01*
X335425D01*
Y476389D01*
X336333D01*
X336453Y476269D01*
D02*
G37*
G36*
X398143Y474932D02*
X398303Y474922D01*
X398442Y474902D01*
X398562Y474882D01*
X398652Y474862D01*
X398712Y474852D01*
X398722Y474842D01*
X398732D01*
X398892Y474802D01*
X399031Y474762D01*
X399161Y474732D01*
X399261Y474692D01*
X399351Y474662D01*
X399411Y474642D01*
X399451Y474632D01*
X399461Y474622D01*
X399181Y473853D01*
X399091Y473893D01*
X399001Y473913D01*
X398932Y473933D01*
X398922Y473943D01*
X398912D01*
X398792Y473983D01*
X398692Y474003D01*
X398652Y474023D01*
X398622D01*
X398602Y474033D01*
X398592D01*
X398462Y474063D01*
X398363Y474083D01*
X398313D01*
X398283Y474093D01*
X398253D01*
X398123Y474113D01*
X398013Y474123D01*
X397913D01*
X397774Y474113D01*
X397654Y474103D01*
X397554Y474073D01*
X397464Y474053D01*
X397394Y474023D01*
X397344Y473993D01*
X397314Y473983D01*
X397304Y473973D01*
X397225Y473913D01*
X397175Y473834D01*
X397135Y473754D01*
X397105Y473674D01*
X397085Y473594D01*
X397075Y473534D01*
Y473494D01*
Y473474D01*
Y473245D01*
X397265Y473235D01*
X397444Y473215D01*
X397614Y473195D01*
X397764Y473175D01*
X397883Y473165D01*
X397983Y473145D01*
X398043Y473135D01*
X398063D01*
X398233Y473105D01*
X398392Y473065D01*
X398532Y473025D01*
X398662Y472985D01*
X398762Y472955D01*
X398832Y472925D01*
X398882Y472905D01*
X398902Y472895D01*
X399031Y472835D01*
X399151Y472756D01*
X399251Y472686D01*
X399331Y472616D01*
X399401Y472546D01*
X399451Y472496D01*
X399481Y472456D01*
X399491Y472446D01*
X399560Y472326D01*
X399620Y472206D01*
X399660Y472087D01*
X399680Y471967D01*
X399700Y471857D01*
X399710Y471777D01*
Y471717D01*
Y471707D01*
Y471697D01*
X399700Y471568D01*
X399690Y471458D01*
X399630Y471238D01*
X399550Y471059D01*
X399461Y470909D01*
X399371Y470789D01*
X399291Y470699D01*
X399231Y470649D01*
X399221Y470629D01*
X399211D01*
X399111Y470559D01*
X399001Y470499D01*
X398762Y470410D01*
X398502Y470340D01*
X398253Y470300D01*
X398143Y470280D01*
X398033Y470270D01*
X397933Y470260D01*
X397853D01*
X397784Y470250D01*
X397494D01*
X397314Y470270D01*
X397155Y470280D01*
X397005Y470300D01*
X396885Y470320D01*
X396795Y470330D01*
X396735Y470350D01*
X396716D01*
X396546Y470390D01*
X396406Y470420D01*
X396286Y470460D01*
X396176Y470490D01*
X396097Y470519D01*
X396047Y470549D01*
X396007Y470559D01*
X395997Y470569D01*
Y473344D01*
Y473504D01*
X396017Y473644D01*
X396037Y473774D01*
X396067Y473903D01*
X396106Y474013D01*
X396147Y474113D01*
X396186Y474203D01*
X396226Y474283D01*
X396276Y474353D01*
X396316Y474412D01*
X396396Y474502D01*
X396446Y474552D01*
X396456Y474572D01*
X396466D01*
X396656Y474702D01*
X396875Y474792D01*
X397095Y474862D01*
X397304Y474902D01*
X397494Y474932D01*
X397584Y474942D01*
X397654D01*
X397714Y474952D01*
X397973D01*
X398143Y474932D01*
D02*
G37*
G36*
X359382Y472576D02*
X356986D01*
Y473544D01*
X359382D01*
Y472576D01*
D02*
G37*
G36*
X342272Y470350D02*
X341025D01*
X339168Y476389D01*
X340446Y476389D01*
X341464Y472456D01*
X341514Y472256D01*
X341534Y472166D01*
X341554Y472087D01*
X341564Y472017D01*
X341574Y471967D01*
X341584Y471937D01*
Y471927D01*
X341594Y471847D01*
X341614Y471777D01*
X341624Y471717D01*
Y471667D01*
X341634Y471628D01*
X341644Y471608D01*
Y471598D01*
Y471588D01*
X341664D01*
X341674Y471628D01*
X341684Y471677D01*
X341694Y471717D01*
Y471727D01*
X341704Y471807D01*
X341713Y471877D01*
X341724Y471927D01*
Y471937D01*
Y471947D01*
X341744Y472037D01*
X341754Y472117D01*
X341763Y472177D01*
X341773Y472187D01*
Y472197D01*
X341793Y472296D01*
X341813Y472376D01*
X341823Y472436D01*
X341833Y472446D01*
Y472456D01*
X342851Y476389D01*
X344129D01*
X342272Y470350D01*
D02*
G37*
G36*
X407007Y475850D02*
Y474852D01*
X407586D01*
Y473993D01*
X407007D01*
Y471697D01*
X406997Y471448D01*
X406957Y471238D01*
X406907Y471049D01*
X406847Y470899D01*
X406797Y470789D01*
X406748Y470709D01*
X406708Y470659D01*
X406698Y470639D01*
X406568Y470519D01*
X406418Y470440D01*
X406258Y470380D01*
X406099Y470330D01*
X405949Y470310D01*
X405839Y470300D01*
X405789Y470290D01*
X405729D01*
X405580Y470300D01*
X405460Y470310D01*
X405410D01*
X405370Y470320D01*
X405340D01*
X405210Y470350D01*
X405121Y470370D01*
X405071Y470390D01*
X405051Y470400D01*
Y471348D01*
X405090Y471328D01*
X405140Y471308D01*
X405170Y471298D01*
X405190D01*
X405260Y471288D01*
X405310Y471278D01*
X405370D01*
X405450Y471288D01*
X405520Y471298D01*
X405580Y471318D01*
X405639Y471338D01*
X405680Y471358D01*
X405709Y471368D01*
X405729Y471388D01*
X405739D01*
X405789Y471438D01*
X405829Y471498D01*
X405849Y471558D01*
X405869Y471628D01*
X405879Y471687D01*
X405889Y471727D01*
Y471767D01*
Y471777D01*
Y473993D01*
X405051D01*
Y474852D01*
X405889D01*
Y476179D01*
X407007Y475850D01*
D02*
G37*
G36*
X392493D02*
Y474852D01*
X393072D01*
Y473993D01*
X392493D01*
Y471697D01*
X392483Y471448D01*
X392443Y471238D01*
X392393Y471049D01*
X392333Y470899D01*
X392283Y470789D01*
X392234Y470709D01*
X392193Y470659D01*
X392183Y470639D01*
X392054Y470519D01*
X391904Y470440D01*
X391744Y470380D01*
X391585Y470330D01*
X391435Y470310D01*
X391325Y470300D01*
X391275Y470290D01*
X391215D01*
X391065Y470300D01*
X390946Y470310D01*
X390896D01*
X390856Y470320D01*
X390826D01*
X390696Y470350D01*
X390606Y470370D01*
X390556Y470390D01*
X390536Y470400D01*
Y471348D01*
X390576Y471328D01*
X390626Y471308D01*
X390656Y471298D01*
X390676D01*
X390746Y471288D01*
X390796Y471278D01*
X390856D01*
X390936Y471288D01*
X391006Y471298D01*
X391065Y471318D01*
X391125Y471338D01*
X391165Y471358D01*
X391195Y471368D01*
X391215Y471388D01*
X391225D01*
X391275Y471438D01*
X391315Y471498D01*
X391335Y471558D01*
X391355Y471628D01*
X391365Y471687D01*
X391375Y471727D01*
Y471767D01*
Y471777D01*
Y473993D01*
X390536D01*
Y474852D01*
X391375D01*
Y476179D01*
X392493Y475850D01*
D02*
G37*
G36*
X379806Y471917D02*
X379796Y471757D01*
X379786Y471608D01*
X379766Y471468D01*
X379726Y471338D01*
X379696Y471228D01*
X379656Y471118D01*
X379606Y471029D01*
X379566Y470949D01*
X379516Y470869D01*
X379476Y470809D01*
X379436Y470759D01*
X379396Y470719D01*
X379346Y470659D01*
X379337Y470639D01*
X379327D01*
X379227Y470569D01*
X379127Y470509D01*
X378907Y470410D01*
X378668Y470350D01*
X378438Y470300D01*
X378228Y470270D01*
X378139Y470260D01*
X378059D01*
X377999Y470250D01*
X377909D01*
X377719Y470260D01*
X377630D01*
X377560Y470270D01*
X377490D01*
X377440Y470280D01*
X377400D01*
X377210Y470300D01*
X377130Y470310D01*
X377061Y470320D01*
X377001Y470330D01*
X376951D01*
X376921Y470340D01*
X376911D01*
X376741Y470370D01*
X376661Y470390D01*
X376601Y470410D01*
X376551Y470420D01*
X376502Y470430D01*
X376482Y470440D01*
X376472D01*
X376332Y470490D01*
X376212Y470529D01*
X376172Y470549D01*
X376142Y470559D01*
X376122Y470569D01*
X376112D01*
Y474852D01*
X377250D01*
Y471278D01*
X377340Y471248D01*
X377430Y471228D01*
X377470Y471218D01*
X377500D01*
X377520Y471208D01*
X377530D01*
X377659Y471188D01*
X377779Y471178D01*
X377909D01*
X378049Y471188D01*
X378159Y471208D01*
X378268Y471248D01*
X378348Y471288D01*
X378428Y471338D01*
X378488Y471398D01*
X378538Y471468D01*
X378578Y471538D01*
X378638Y471667D01*
X378668Y471777D01*
Y471817D01*
X378678Y471857D01*
Y471877D01*
Y471887D01*
Y474852D01*
X379806D01*
Y471917D01*
D02*
G37*
G36*
X402485Y474942D02*
X402645Y474922D01*
X402795Y474892D01*
X402924Y474862D01*
X403034Y474832D01*
X403114Y474802D01*
X403164Y474782D01*
X403184Y474772D01*
X403324Y474702D01*
X403453Y474622D01*
X403563Y474542D01*
X403663Y474472D01*
X403733Y474403D01*
X403793Y474343D01*
X403833Y474303D01*
X403843Y474293D01*
X403933Y474173D01*
X404022Y474043D01*
X404092Y473923D01*
X404152Y473804D01*
X404192Y473704D01*
X404222Y473614D01*
X404242Y473564D01*
X404252Y473554D01*
Y473544D01*
X404302Y473384D01*
X404332Y473215D01*
X404362Y473055D01*
X404372Y472905D01*
X404382Y472785D01*
X404392Y472686D01*
Y472646D01*
Y472616D01*
Y472606D01*
Y472596D01*
X404382Y472406D01*
X404372Y472236D01*
X404352Y472077D01*
X404322Y471927D01*
X404292Y471817D01*
X404272Y471727D01*
X404262Y471667D01*
X404252Y471657D01*
Y471647D01*
X404192Y471488D01*
X404122Y471348D01*
X404042Y471218D01*
X403973Y471108D01*
X403913Y471019D01*
X403863Y470959D01*
X403823Y470909D01*
X403813Y470899D01*
X403703Y470789D01*
X403583Y470689D01*
X403463Y470609D01*
X403354Y470539D01*
X403254Y470490D01*
X403174Y470450D01*
X403124Y470430D01*
X403104Y470420D01*
X402944Y470360D01*
X402775Y470320D01*
X402615Y470290D01*
X402455Y470270D01*
X402326Y470260D01*
X402216Y470250D01*
X401946D01*
X401767Y470260D01*
X401607Y470280D01*
X401467Y470300D01*
X401357Y470310D01*
X401267Y470330D01*
X401208Y470340D01*
X401188D01*
X401028Y470380D01*
X400888Y470410D01*
X400768Y470450D01*
X400658Y470490D01*
X400569Y470519D01*
X400509Y470549D01*
X400469Y470559D01*
X400459Y470569D01*
X400788Y471418D01*
X400978Y471338D01*
X401078Y471298D01*
X401167Y471278D01*
X401247Y471248D01*
X401307Y471228D01*
X401347Y471218D01*
X401367D01*
X401607Y471168D01*
X401726Y471158D01*
X401826Y471148D01*
X401906Y471138D01*
X402036D01*
X402216Y471148D01*
X402385Y471178D01*
X402525Y471218D01*
X402645Y471258D01*
X402745Y471298D01*
X402815Y471338D01*
X402854Y471368D01*
X402874Y471378D01*
X402984Y471478D01*
X403074Y471598D01*
X403144Y471727D01*
X403204Y471847D01*
X403244Y471957D01*
X403264Y472047D01*
X403284Y472107D01*
Y472117D01*
Y472127D01*
X400389Y472516D01*
X400379Y472586D01*
X400369Y472646D01*
Y472686D01*
Y472706D01*
Y472905D01*
X400379Y473075D01*
X400389Y473225D01*
X400409Y473374D01*
X400429Y473494D01*
X400459Y473594D01*
X400479Y473674D01*
X400489Y473714D01*
X400499Y473734D01*
X400549Y473873D01*
X400608Y473993D01*
X400678Y474103D01*
X400738Y474203D01*
X400788Y474273D01*
X400838Y474333D01*
X400868Y474373D01*
X400878Y474383D01*
X400968Y474482D01*
X401068Y474562D01*
X401167Y474632D01*
X401267Y474692D01*
X401347Y474742D01*
X401417Y474772D01*
X401457Y474792D01*
X401477Y474802D01*
X401617Y474852D01*
X401757Y474892D01*
X401896Y474912D01*
X402026Y474932D01*
X402136Y474942D01*
X402226Y474952D01*
X402305D01*
X402485Y474942D01*
D02*
G37*
G36*
X365451D02*
X365611Y474922D01*
X365761Y474892D01*
X365890Y474862D01*
X366000Y474832D01*
X366080Y474802D01*
X366130Y474782D01*
X366150Y474772D01*
X366290Y474702D01*
X366419Y474622D01*
X366529Y474542D01*
X366629Y474472D01*
X366699Y474403D01*
X366759Y474343D01*
X366799Y474303D01*
X366809Y474293D01*
X366899Y474173D01*
X366988Y474043D01*
X367058Y473923D01*
X367118Y473804D01*
X367158Y473704D01*
X367188Y473614D01*
X367208Y473564D01*
X367218Y473554D01*
Y473544D01*
X367268Y473384D01*
X367298Y473215D01*
X367328Y473055D01*
X367338Y472905D01*
X367348Y472785D01*
X367358Y472686D01*
Y472646D01*
Y472616D01*
Y472606D01*
Y472596D01*
X367348Y472406D01*
X367338Y472236D01*
X367318Y472077D01*
X367288Y471927D01*
X367258Y471817D01*
X367238Y471727D01*
X367228Y471667D01*
X367218Y471657D01*
Y471647D01*
X367158Y471488D01*
X367088Y471348D01*
X367008Y471218D01*
X366939Y471108D01*
X366879Y471019D01*
X366829Y470959D01*
X366789Y470909D01*
X366779Y470899D01*
X366669Y470789D01*
X366549Y470689D01*
X366429Y470609D01*
X366320Y470539D01*
X366220Y470490D01*
X366140Y470450D01*
X366090Y470430D01*
X366070Y470420D01*
X365910Y470360D01*
X365741Y470320D01*
X365581Y470290D01*
X365421Y470270D01*
X365291Y470260D01*
X365182Y470250D01*
X364912D01*
X364733Y470260D01*
X364573Y470280D01*
X364433Y470300D01*
X364323Y470310D01*
X364233Y470330D01*
X364174Y470340D01*
X364154D01*
X363994Y470380D01*
X363854Y470410D01*
X363734Y470450D01*
X363624Y470490D01*
X363535Y470519D01*
X363475Y470549D01*
X363435Y470559D01*
X363425Y470569D01*
X363754Y471418D01*
X363944Y471338D01*
X364044Y471298D01*
X364134Y471278D01*
X364213Y471248D01*
X364273Y471228D01*
X364313Y471218D01*
X364333D01*
X364573Y471168D01*
X364693Y471158D01*
X364792Y471148D01*
X364872Y471138D01*
X365002D01*
X365182Y471148D01*
X365351Y471178D01*
X365491Y471218D01*
X365611Y471258D01*
X365711Y471298D01*
X365781Y471338D01*
X365821Y471368D01*
X365840Y471378D01*
X365950Y471478D01*
X366040Y471598D01*
X366110Y471727D01*
X366170Y471847D01*
X366210Y471957D01*
X366230Y472047D01*
X366250Y472107D01*
Y472117D01*
Y472127D01*
X363355Y472516D01*
X363345Y472586D01*
X363335Y472646D01*
Y472686D01*
Y472706D01*
Y472905D01*
X363345Y473075D01*
X363355Y473225D01*
X363375Y473374D01*
X363395Y473494D01*
X363425Y473594D01*
X363445Y473674D01*
X363455Y473714D01*
X363465Y473734D01*
X363515Y473873D01*
X363575Y473993D01*
X363644Y474103D01*
X363704Y474203D01*
X363754Y474273D01*
X363804Y474333D01*
X363834Y474373D01*
X363844Y474383D01*
X363934Y474482D01*
X364034Y474562D01*
X364134Y474632D01*
X364233Y474692D01*
X364313Y474742D01*
X364383Y474772D01*
X364423Y474792D01*
X364443Y474802D01*
X364583Y474852D01*
X364723Y474892D01*
X364862Y474912D01*
X364992Y474932D01*
X365102Y474942D01*
X365192Y474952D01*
X365271D01*
X365451Y474942D01*
D02*
G37*
G36*
X394969Y470350D02*
X393831D01*
Y476908D01*
X394969D01*
Y470350D01*
D02*
G37*
G36*
X373657Y474932D02*
X373826Y474922D01*
X373976Y474902D01*
X374106Y474882D01*
X374206Y474872D01*
X374266Y474852D01*
X374286D01*
X374455Y474812D01*
X374605Y474782D01*
X374745Y474742D01*
X374864Y474702D01*
X374954Y474672D01*
X375034Y474642D01*
X375074Y474632D01*
X375094Y474622D01*
Y470350D01*
X373966D01*
Y473933D01*
X373876Y473963D01*
X373796Y473983D01*
X373727Y474003D01*
X373707D01*
X373597Y474023D01*
X373497Y474033D01*
X373287D01*
X373197Y474023D01*
X373108Y474013D01*
X373038Y474003D01*
X372968Y473983D01*
X372928Y473973D01*
X372898Y473963D01*
X372888D01*
X372678Y474912D01*
X372768Y474922D01*
X372848D01*
X372908Y474932D01*
X372938D01*
X373048Y474942D01*
X373158Y474952D01*
X373457D01*
X373657Y474932D01*
D02*
G37*
G36*
X370572D02*
X370742Y474922D01*
X370891Y474902D01*
X371011Y474882D01*
X371101Y474872D01*
X371161Y474852D01*
X371181D01*
X371341Y474812D01*
X371480Y474782D01*
X371620Y474742D01*
X371740Y474702D01*
X371830Y474672D01*
X371910Y474642D01*
X371950Y474632D01*
X371970Y474622D01*
Y470350D01*
X370842D01*
Y473933D01*
X370742Y473963D01*
X370642Y473983D01*
X370602Y473993D01*
X370572Y474003D01*
X370542D01*
X370402Y474023D01*
X370283Y474033D01*
X370163D01*
X370023Y474023D01*
X369903Y474003D01*
X369794Y473973D01*
X369714Y473943D01*
X369644Y473903D01*
X369604Y473873D01*
X369574Y473853D01*
X369564Y473843D01*
X369494Y473764D01*
X369444Y473684D01*
X369414Y473594D01*
X369384Y473504D01*
X369374Y473434D01*
X369364Y473374D01*
Y473334D01*
Y473315D01*
Y470350D01*
X368226D01*
Y473424D01*
Y473554D01*
X368246Y473684D01*
X368296Y473913D01*
X368376Y474103D01*
X368456Y474263D01*
X368546Y474393D01*
X368626Y474482D01*
X368675Y474532D01*
X368685Y474552D01*
X368695D01*
X368785Y474622D01*
X368895Y474682D01*
X369125Y474782D01*
X369364Y474852D01*
X369614Y474902D01*
X369724Y474922D01*
X369833Y474932D01*
X369923Y474942D01*
X370003D01*
X370073Y474952D01*
X370382D01*
X370572Y474932D01*
D02*
G37*
G36*
X361029D02*
X361199Y474922D01*
X361348Y474902D01*
X361478Y474882D01*
X361578Y474872D01*
X361638Y474852D01*
X361658D01*
X361828Y474812D01*
X361977Y474782D01*
X362117Y474742D01*
X362237Y474702D01*
X362327Y474672D01*
X362407Y474642D01*
X362447Y474632D01*
X362467Y474622D01*
Y470350D01*
X361339D01*
Y473933D01*
X361249Y473963D01*
X361169Y473983D01*
X361099Y474003D01*
X361079D01*
X360969Y474023D01*
X360869Y474033D01*
X360660D01*
X360570Y474023D01*
X360480Y474013D01*
X360410Y474003D01*
X360340Y473983D01*
X360300Y473973D01*
X360271Y473963D01*
X360261D01*
X360051Y474912D01*
X360141Y474922D01*
X360220D01*
X360280Y474932D01*
X360310D01*
X360420Y474942D01*
X360530Y474952D01*
X360830D01*
X361029Y474932D01*
D02*
G37*
G36*
X354571Y476489D02*
X354730Y476469D01*
X354870Y476459D01*
X354990Y476439D01*
X355080Y476419D01*
X355140Y476409D01*
X355160D01*
X355319Y476369D01*
X355469Y476329D01*
X355599Y476289D01*
X355719Y476259D01*
X355818Y476219D01*
X355888Y476199D01*
X355928Y476179D01*
X355948Y476169D01*
Y470350D01*
X354800D01*
Y472696D01*
X354720Y472686D01*
X354641Y472676D01*
X354571Y472666D01*
X354551D01*
X354431Y472656D01*
X354241D01*
X354032Y472666D01*
X353832Y472676D01*
X353652Y472696D01*
X353503Y472725D01*
X353383Y472756D01*
X353293Y472775D01*
X353233Y472785D01*
X353213Y472795D01*
X353053Y472855D01*
X352914Y472915D01*
X352784Y472985D01*
X352674Y473045D01*
X352594Y473095D01*
X352524Y473145D01*
X352484Y473175D01*
X352474Y473185D01*
X352365Y473284D01*
X352275Y473394D01*
X352205Y473494D01*
X352135Y473584D01*
X352085Y473674D01*
X352055Y473734D01*
X352035Y473774D01*
X352025Y473794D01*
X351975Y473923D01*
X351935Y474063D01*
X351915Y474183D01*
X351895Y474303D01*
X351885Y474403D01*
X351875Y474482D01*
Y474532D01*
Y474552D01*
X351885Y474712D01*
X351905Y474872D01*
X351935Y475011D01*
X351965Y475151D01*
X352065Y475391D01*
X352115Y475501D01*
X352175Y475590D01*
X352235Y475680D01*
X352285Y475760D01*
X352335Y475820D01*
X352384Y475870D01*
X352415Y475920D01*
X352444Y475950D01*
X352464Y475960D01*
X352474Y475970D01*
X352594Y476060D01*
X352724Y476149D01*
X352854Y476219D01*
X352993Y476279D01*
X353283Y476369D01*
X353562Y476429D01*
X353692Y476459D01*
X353812Y476469D01*
X353922Y476479D01*
X354012Y476489D01*
X354091Y476499D01*
X354391D01*
X354571Y476489D01*
D02*
G37*
G36*
X333049Y471697D02*
X333139Y471677D01*
X333199Y471657D01*
X333209Y471647D01*
X333219D01*
X333308Y471598D01*
X333378Y471548D01*
X333428Y471508D01*
X333448Y471488D01*
X333508Y471418D01*
X333558Y471348D01*
X333588Y471288D01*
X333598Y471278D01*
Y471268D01*
X333628Y471168D01*
X333648Y471078D01*
X333658Y471039D01*
Y471018D01*
Y470999D01*
Y470989D01*
X333648Y470879D01*
X333628Y470789D01*
X333608Y470729D01*
X333598Y470719D01*
Y470709D01*
X333548Y470619D01*
X333498Y470549D01*
X333458Y470499D01*
X333448Y470480D01*
X333368Y470420D01*
X333298Y470380D01*
X333239Y470350D01*
X333229Y470340D01*
X333219D01*
X333119Y470310D01*
X333029Y470290D01*
X332989Y470280D01*
X332939D01*
X332829Y470290D01*
X332739Y470310D01*
X332680Y470330D01*
X332670Y470340D01*
X332660D01*
X332570Y470380D01*
X332500Y470430D01*
X332450Y470470D01*
X332430Y470480D01*
X332360Y470559D01*
X332320Y470629D01*
X332290Y470689D01*
X332280Y470699D01*
Y470709D01*
X332240Y470809D01*
X332230Y470899D01*
X332220Y470939D01*
Y470959D01*
Y470979D01*
Y470989D01*
X332230Y471098D01*
X332250Y471188D01*
X332270Y471248D01*
X332280Y471258D01*
Y471268D01*
X332320Y471358D01*
X332370Y471428D01*
X332410Y471468D01*
X332430Y471488D01*
X332510Y471558D01*
X332580Y471608D01*
X332640Y471637D01*
X332650Y471647D01*
X332660D01*
X332760Y471687D01*
X332849Y471697D01*
X332889Y471707D01*
X332939D01*
X333049Y471697D01*
D02*
G37*
G36*
X409922Y476489D02*
X410082Y476479D01*
X410221Y476459D01*
X410341Y476439D01*
X410441Y476409D01*
X410511Y476389D01*
X410561Y476379D01*
X410581Y476369D01*
X410710Y476319D01*
X410830Y476259D01*
X410930Y476199D01*
X411020Y476139D01*
X411100Y476079D01*
X411150Y476040D01*
X411190Y476010D01*
X411200Y476000D01*
X411289Y475910D01*
X411369Y475820D01*
X411429Y475720D01*
X411489Y475630D01*
X411529Y475560D01*
X411559Y475501D01*
X411579Y475451D01*
X411589Y475441D01*
X411639Y475311D01*
X411669Y475191D01*
X411699Y475061D01*
X411709Y474952D01*
X411719Y474852D01*
X411729Y474772D01*
Y474722D01*
Y474702D01*
X411719Y474542D01*
X411699Y474393D01*
X411679Y474263D01*
X411639Y474153D01*
X411609Y474063D01*
X411589Y474003D01*
X411569Y473953D01*
X411559Y473943D01*
X411489Y473834D01*
X411409Y473734D01*
X411339Y473654D01*
X411269Y473574D01*
X411210Y473514D01*
X411160Y473474D01*
X411130Y473444D01*
X411120Y473434D01*
X410920Y473294D01*
X410830Y473225D01*
X410741Y473175D01*
X410671Y473135D01*
X410611Y473105D01*
X410571Y473085D01*
X410561Y473075D01*
X410341Y472975D01*
X410241Y472925D01*
X410162Y472875D01*
X410092Y472845D01*
X410042Y472815D01*
X410002Y472795D01*
X409992Y472785D01*
X409902Y472735D01*
X409812Y472676D01*
X409742Y472626D01*
X409682Y472576D01*
X409632Y472526D01*
X409593Y472496D01*
X409572Y472476D01*
X409563Y472466D01*
X409503Y472396D01*
X409463Y472326D01*
X409423Y472256D01*
X409403Y472187D01*
X409393Y472127D01*
X409383Y472077D01*
Y472047D01*
Y472037D01*
X409393Y471917D01*
X409423Y471817D01*
X409463Y471727D01*
X409503Y471647D01*
X409553Y471588D01*
X409593Y471548D01*
X409622Y471518D01*
X409632Y471508D01*
X409732Y471438D01*
X409842Y471388D01*
X409952Y471358D01*
X410052Y471338D01*
X410151Y471318D01*
X410231Y471308D01*
X410301D01*
X410511Y471318D01*
X410611Y471338D01*
X410700Y471348D01*
X410770Y471368D01*
X410830Y471378D01*
X410870Y471388D01*
X410880D01*
X411080Y471458D01*
X411170Y471488D01*
X411250Y471518D01*
X411319Y471548D01*
X411369Y471568D01*
X411399Y471588D01*
X411409D01*
X411799Y470569D01*
X411539Y470460D01*
X411409Y470420D01*
X411300Y470390D01*
X411200Y470360D01*
X411130Y470340D01*
X411080Y470330D01*
X411060D01*
X410760Y470280D01*
X410621Y470270D01*
X410501Y470260D01*
X410391Y470250D01*
X410241D01*
X410062Y470260D01*
X409902Y470270D01*
X409752Y470290D01*
X409622Y470320D01*
X409523Y470340D01*
X409443Y470360D01*
X409393Y470370D01*
X409373Y470380D01*
X409233Y470430D01*
X409103Y470490D01*
X408994Y470559D01*
X408904Y470619D01*
X408824Y470669D01*
X408774Y470719D01*
X408734Y470749D01*
X408724Y470759D01*
X408624Y470859D01*
X408544Y470959D01*
X408475Y471049D01*
X408415Y471138D01*
X408375Y471218D01*
X408345Y471278D01*
X408325Y471328D01*
X408315Y471338D01*
X408265Y471468D01*
X408235Y471598D01*
X408205Y471727D01*
X408195Y471847D01*
X408185Y471947D01*
X408175Y472027D01*
Y472077D01*
Y472097D01*
X408185Y472256D01*
X408205Y472406D01*
X408235Y472536D01*
X408265Y472636D01*
X408295Y472725D01*
X408325Y472795D01*
X408345Y472835D01*
X408355Y472845D01*
X408425Y472955D01*
X408494Y473055D01*
X408564Y473135D01*
X408634Y473215D01*
X408704Y473274D01*
X408744Y473315D01*
X408784Y473344D01*
X408794Y473354D01*
X408994Y473504D01*
X409083Y473564D01*
X409173Y473624D01*
X409253Y473664D01*
X409313Y473694D01*
X409353Y473714D01*
X409363Y473724D01*
X409582Y473834D01*
X409682Y473884D01*
X409772Y473933D01*
X409842Y473963D01*
X409892Y473993D01*
X409932Y474013D01*
X409942Y474023D01*
X410122Y474133D01*
X410191Y474193D01*
X410261Y474243D01*
X410311Y474283D01*
X410351Y474313D01*
X410371Y474333D01*
X410381Y474343D01*
X410441Y474412D01*
X410481Y474482D01*
X410511Y474552D01*
X410531Y474622D01*
X410541Y474682D01*
X410551Y474732D01*
Y474762D01*
Y474772D01*
X410541Y474882D01*
X410521Y474991D01*
X410481Y475071D01*
X410441Y475151D01*
X410401Y475201D01*
X410361Y475251D01*
X410341Y475271D01*
X410331Y475281D01*
X410241Y475351D01*
X410141Y475401D01*
X410032Y475431D01*
X409932Y475461D01*
X409852Y475471D01*
X409772Y475481D01*
X409712D01*
X409513Y475471D01*
X409423Y475461D01*
X409343Y475451D01*
X409273Y475431D01*
X409223Y475421D01*
X409193Y475411D01*
X409183D01*
X409004Y475351D01*
X408924Y475321D01*
X408864Y475291D01*
X408804Y475261D01*
X408764Y475241D01*
X408734Y475231D01*
X408724Y475221D01*
X408355Y476169D01*
X408574Y476279D01*
X408684Y476319D01*
X408784Y476349D01*
X408864Y476379D01*
X408934Y476399D01*
X408974Y476409D01*
X408994D01*
X409263Y476459D01*
X409393Y476479D01*
X409513Y476489D01*
X409613Y476499D01*
X409762D01*
X409922Y476489D01*
D02*
G37*
G36*
X383459Y476479D02*
X383629Y476469D01*
X383778Y476449D01*
X383908Y476429D01*
X384008Y476419D01*
X384068Y476399D01*
X384088D01*
X384258Y476359D01*
X384407Y476329D01*
X384547Y476289D01*
X384667Y476249D01*
X384767Y476219D01*
X384837Y476189D01*
X384877Y476179D01*
X384897Y476169D01*
Y470569D01*
X384777Y470519D01*
X384637Y470480D01*
X384507Y470440D01*
X384378Y470400D01*
X384258Y470380D01*
X384168Y470360D01*
X384108Y470340D01*
X384088D01*
X383898Y470310D01*
X383709Y470290D01*
X383539Y470270D01*
X383379Y470260D01*
X383250D01*
X383150Y470250D01*
X383060D01*
X382840Y470260D01*
X382641Y470270D01*
X382451Y470290D01*
X382281Y470320D01*
X382122Y470360D01*
X381972Y470400D01*
X381842Y470440D01*
X381722Y470480D01*
X381612Y470519D01*
X381523Y470559D01*
X381453Y470599D01*
X381383Y470639D01*
X381333Y470669D01*
X381303Y470689D01*
X381283Y470709D01*
X381273D01*
X381163Y470799D01*
X381073Y470899D01*
X380993Y470999D01*
X380924Y471098D01*
X380864Y471208D01*
X380814Y471318D01*
X380744Y471518D01*
X380694Y471707D01*
X380684Y471787D01*
X380674Y471857D01*
X380664Y471907D01*
Y471947D01*
Y471977D01*
Y471987D01*
Y472107D01*
X380684Y472216D01*
X380694Y472316D01*
X380714Y472396D01*
X380734Y472466D01*
X380754Y472526D01*
X380764Y472556D01*
X380774Y472566D01*
X380854Y472735D01*
X380904Y472815D01*
X380944Y472875D01*
X380984Y472925D01*
X381013Y472965D01*
X381033Y472985D01*
X381043Y472995D01*
X381163Y473125D01*
X381273Y473225D01*
X381323Y473255D01*
X381363Y473284D01*
X381383Y473294D01*
X381393Y473304D01*
X381533Y473384D01*
X381652Y473444D01*
X381702Y473464D01*
X381742Y473474D01*
X381762Y473484D01*
X381772D01*
Y473504D01*
X381632Y473554D01*
X381523Y473604D01*
X381483Y473624D01*
X381453Y473644D01*
X381433Y473664D01*
X381423D01*
X381303Y473764D01*
X381213Y473863D01*
X381173Y473903D01*
X381143Y473933D01*
X381133Y473953D01*
X381123Y473963D01*
X381033Y474103D01*
X380964Y474233D01*
X380934Y474283D01*
X380914Y474323D01*
X380904Y474353D01*
Y474363D01*
X380854Y474532D01*
X380844Y474612D01*
X380834Y474682D01*
X380824Y474752D01*
Y474802D01*
Y474832D01*
Y474842D01*
X380834Y474972D01*
X380844Y475101D01*
X380864Y475211D01*
X380894Y475311D01*
X380924Y475391D01*
X380944Y475451D01*
X380954Y475491D01*
X380964Y475501D01*
X381023Y475610D01*
X381083Y475710D01*
X381153Y475800D01*
X381223Y475880D01*
X381283Y475940D01*
X381333Y475980D01*
X381373Y476010D01*
X381383Y476020D01*
X381493Y476100D01*
X381602Y476169D01*
X381722Y476229D01*
X381832Y476279D01*
X381932Y476319D01*
X382012Y476349D01*
X382062Y476359D01*
X382072Y476369D01*
X382082D01*
X382241Y476409D01*
X382411Y476449D01*
X382581Y476469D01*
X382740Y476479D01*
X382870Y476489D01*
X382980Y476499D01*
X383279D01*
X383459Y476479D01*
D02*
G37*
G36*
X349729D02*
X349889Y476469D01*
X350029Y476449D01*
X350139Y476429D01*
X350228Y476419D01*
X350288Y476399D01*
X350308D01*
X350468Y476359D01*
X350608Y476329D01*
X350728Y476289D01*
X350827Y476249D01*
X350917Y476219D01*
X350977Y476189D01*
X351017Y476179D01*
X351027Y476169D01*
Y470569D01*
X350917Y470519D01*
X350797Y470480D01*
X350687Y470440D01*
X350568Y470400D01*
X350468Y470380D01*
X350388Y470360D01*
X350338Y470340D01*
X350318D01*
X349989Y470290D01*
X349829Y470270D01*
X349679Y470260D01*
X349550D01*
X349460Y470250D01*
X349370D01*
X349140Y470260D01*
X348921Y470280D01*
X348721Y470320D01*
X348531Y470370D01*
X348352Y470430D01*
X348192Y470499D01*
X348042Y470569D01*
X347912Y470649D01*
X347793Y470719D01*
X347693Y470789D01*
X347603Y470859D01*
X347533Y470919D01*
X347473Y470969D01*
X347433Y471009D01*
X347413Y471029D01*
X347403Y471039D01*
X347274Y471198D01*
X347174Y471368D01*
X347074Y471548D01*
X346994Y471737D01*
X346924Y471937D01*
X346864Y472127D01*
X346824Y472316D01*
X346785Y472506D01*
X346755Y472686D01*
X346735Y472845D01*
X346715Y472995D01*
X346705Y473125D01*
X346695Y473225D01*
Y473304D01*
Y473354D01*
Y473374D01*
X346705Y473654D01*
X346725Y473913D01*
X346764Y474153D01*
X346805Y474383D01*
X346854Y474592D01*
X346914Y474782D01*
X346984Y474952D01*
X347044Y475111D01*
X347114Y475251D01*
X347184Y475371D01*
X347244Y475471D01*
X347294Y475550D01*
X347333Y475620D01*
X347373Y475660D01*
X347393Y475690D01*
X347403Y475700D01*
X347543Y475840D01*
X347693Y475960D01*
X347843Y476070D01*
X348002Y476159D01*
X348172Y476239D01*
X348332Y476309D01*
X348492Y476359D01*
X348651Y476399D01*
X348791Y476429D01*
X348931Y476459D01*
X349050Y476479D01*
X349160Y476489D01*
X349250Y476499D01*
X349550D01*
X349729Y476479D01*
D02*
G37*
G36*
X329495Y476489D02*
X329675Y476459D01*
X329835Y476419D01*
X329975Y476379D01*
X330084Y476339D01*
X330174Y476299D01*
X330224Y476269D01*
X330244Y476259D01*
X330384Y476159D01*
X330513Y476050D01*
X330623Y475940D01*
X330713Y475840D01*
X330793Y475740D01*
X330843Y475660D01*
X330883Y475610D01*
X330893Y475600D01*
Y475590D01*
X330983Y475431D01*
X331053Y475261D01*
X331122Y475091D01*
X331172Y474941D01*
X331212Y474802D01*
X331242Y474702D01*
X331252Y474662D01*
Y474632D01*
X331262Y474612D01*
Y474602D01*
X331302Y474383D01*
X331332Y474173D01*
X331352Y473963D01*
X331362Y473774D01*
X331372Y473614D01*
X331382Y473544D01*
Y473484D01*
Y473434D01*
Y473404D01*
Y473384D01*
Y473374D01*
X331372Y473125D01*
X331362Y472895D01*
X331342Y472686D01*
X331322Y472506D01*
X331302Y472356D01*
X331292Y472286D01*
X331282Y472236D01*
X331272Y472196D01*
X331262Y472166D01*
Y472146D01*
Y472136D01*
X331212Y471927D01*
X331152Y471737D01*
X331092Y471568D01*
X331033Y471428D01*
X330983Y471308D01*
X330933Y471218D01*
X330903Y471158D01*
X330893Y471148D01*
Y471138D01*
X330793Y470989D01*
X330683Y470859D01*
X330573Y470749D01*
X330474Y470649D01*
X330384Y470579D01*
X330314Y470519D01*
X330264Y470490D01*
X330244Y470480D01*
X330084Y470400D01*
X329925Y470350D01*
X329765Y470310D01*
X329615Y470280D01*
X329485Y470260D01*
X329385Y470250D01*
X329296D01*
X329096Y470260D01*
X328916Y470290D01*
X328757Y470320D01*
X328617Y470370D01*
X328507Y470410D01*
X328417Y470440D01*
X328367Y470470D01*
X328347Y470480D01*
X328208Y470579D01*
X328078Y470679D01*
X327968Y470789D01*
X327868Y470899D01*
X327798Y470989D01*
X327738Y471068D01*
X327709Y471118D01*
X327699Y471138D01*
X327609Y471308D01*
X327539Y471478D01*
X327469Y471647D01*
X327419Y471797D01*
X327379Y471937D01*
X327349Y472037D01*
X327339Y472077D01*
Y472107D01*
X327329Y472127D01*
Y472136D01*
X327289Y472356D01*
X327259Y472566D01*
X327239Y472775D01*
X327219Y472965D01*
Y473135D01*
X327209Y473205D01*
Y473265D01*
Y473304D01*
Y473344D01*
Y473364D01*
Y473374D01*
Y473614D01*
X327229Y473843D01*
X327249Y474053D01*
X327269Y474233D01*
X327289Y474393D01*
X327299Y474452D01*
X327309Y474502D01*
X327319Y474542D01*
Y474572D01*
X327329Y474592D01*
Y474602D01*
X327379Y474812D01*
X327439Y475001D01*
X327499Y475161D01*
X327559Y475311D01*
X327609Y475431D01*
X327659Y475521D01*
X327688Y475570D01*
X327699Y475590D01*
X327798Y475740D01*
X327908Y475880D01*
X328018Y475990D01*
X328118Y476090D01*
X328208Y476159D01*
X328278Y476219D01*
X328327Y476249D01*
X328347Y476259D01*
X328507Y476339D01*
X328667Y476399D01*
X328826Y476439D01*
X328966Y476469D01*
X329096Y476489D01*
X329206Y476499D01*
X329296D01*
X329495Y476489D01*
D02*
G37*
G36*
X374485Y468623D02*
X374645Y468603D01*
X374785Y468593D01*
X374914Y468573D01*
X375004Y468553D01*
X375064Y468543D01*
X375084D01*
X375254Y468513D01*
X375413Y468473D01*
X375563Y468433D01*
X375683Y468393D01*
X375783Y468363D01*
X375863Y468333D01*
X375913Y468313D01*
X375933Y468303D01*
X375603Y467415D01*
X375373Y467495D01*
X375264Y467525D01*
X375164Y467555D01*
X375084Y467575D01*
X375014Y467595D01*
X374974Y467605D01*
X374954D01*
X374705Y467655D01*
X374585Y467664D01*
X374485Y467674D01*
X374405Y467685D01*
X374286D01*
X374116Y467674D01*
X373976Y467655D01*
X373856Y467625D01*
X373746Y467595D01*
X373667Y467555D01*
X373617Y467525D01*
X373577Y467505D01*
X373567Y467495D01*
X373487Y467425D01*
X373427Y467335D01*
X373377Y467255D01*
X373347Y467175D01*
X373327Y467096D01*
X373317Y467036D01*
Y466996D01*
Y466986D01*
Y466916D01*
X373337Y466846D01*
X373377Y466726D01*
X373397Y466676D01*
X373417Y466646D01*
X373427Y466626D01*
X373437Y466616D01*
X373537Y466507D01*
X373637Y466417D01*
X373686Y466377D01*
X373727Y466347D01*
X373746Y466337D01*
X373756Y466327D01*
X373926Y466237D01*
X374086Y466177D01*
X374156Y466147D01*
X374216Y466127D01*
X374255Y466117D01*
X374266D01*
X374495Y466067D01*
X374605Y466047D01*
X374715Y466037D01*
X374804Y466027D01*
X374874Y466017D01*
X374934D01*
Y465179D01*
X374705D01*
X374575Y465169D01*
X374465Y465159D01*
X374365Y465149D01*
X374286Y465129D01*
X374216Y465119D01*
X374176Y465109D01*
X374166D01*
X374056Y465089D01*
X373946Y465059D01*
X373856Y465029D01*
X373776Y464999D01*
X373717Y464969D01*
X373667Y464949D01*
X373637Y464939D01*
X373627Y464929D01*
X373547Y464889D01*
X373477Y464840D01*
X373407Y464790D01*
X373357Y464740D01*
X373317Y464700D01*
X373287Y464670D01*
X373277Y464650D01*
X373267Y464640D01*
X373227Y464570D01*
X373187Y464500D01*
X373158Y464360D01*
X373148Y464310D01*
X373138Y464261D01*
Y464231D01*
Y464221D01*
X373148Y464081D01*
X373187Y463951D01*
X373237Y463841D01*
X373287Y463751D01*
X373347Y463682D01*
X373397Y463622D01*
X373437Y463592D01*
X373447Y463582D01*
X373567Y463502D01*
X373707Y463442D01*
X373846Y463402D01*
X373986Y463372D01*
X374106Y463352D01*
X374206Y463342D01*
X374445D01*
X374585Y463352D01*
X374715Y463362D01*
X374835Y463372D01*
X374934Y463382D01*
X375004Y463392D01*
X375054Y463402D01*
X375074D01*
X375214Y463432D01*
X375334Y463462D01*
X375443Y463492D01*
X375543Y463522D01*
X375613Y463552D01*
X375673Y463572D01*
X375713Y463592D01*
X375723D01*
X376082Y462703D01*
X375942Y462654D01*
X375793Y462604D01*
X375653Y462564D01*
X375523Y462534D01*
X375404Y462504D01*
X375314Y462494D01*
X375254Y462474D01*
X375234D01*
X375054Y462444D01*
X374884Y462424D01*
X374715Y462404D01*
X374575Y462394D01*
X374455D01*
X374355Y462384D01*
X374276D01*
X374076Y462394D01*
X373886Y462404D01*
X373727Y462424D01*
X373577Y462454D01*
X373457Y462474D01*
X373377Y462494D01*
X373317Y462504D01*
X373297Y462514D01*
X373148Y462564D01*
X373008Y462623D01*
X372878Y462683D01*
X372778Y462743D01*
X372688Y462803D01*
X372628Y462843D01*
X372589Y462873D01*
X372579Y462883D01*
X372469Y462973D01*
X372379Y463073D01*
X372299Y463173D01*
X372239Y463262D01*
X372189Y463342D01*
X372149Y463402D01*
X372129Y463452D01*
X372119Y463462D01*
X372069Y463592D01*
X372029Y463722D01*
X372000Y463851D01*
X371980Y463971D01*
X371970Y464071D01*
X371960Y464151D01*
Y464201D01*
Y464221D01*
Y464330D01*
X371980Y464440D01*
X371990Y464530D01*
X372010Y464620D01*
X372029Y464680D01*
X372049Y464740D01*
X372059Y464770D01*
X372069Y464780D01*
X372159Y464949D01*
X372199Y465029D01*
X372249Y465089D01*
X372289Y465139D01*
X372319Y465179D01*
X372339Y465199D01*
X372349Y465209D01*
X372479Y465339D01*
X372608Y465438D01*
X372658Y465468D01*
X372698Y465498D01*
X372728Y465508D01*
X372738Y465518D01*
X372898Y465608D01*
X372978Y465638D01*
X373048Y465668D01*
X373108Y465688D01*
X373158Y465708D01*
X373187Y465718D01*
X373197D01*
Y465738D01*
X373058Y465808D01*
X372928Y465878D01*
X372888Y465898D01*
X372848Y465928D01*
X372828Y465938D01*
X372818Y465948D01*
X372688Y466057D01*
X372579Y466157D01*
X372539Y466197D01*
X372509Y466227D01*
X372489Y466247D01*
X372479Y466257D01*
X372379Y466387D01*
X372309Y466507D01*
X372279Y466557D01*
X372259Y466596D01*
X372249Y466626D01*
Y466636D01*
X372199Y466796D01*
X372179Y466936D01*
X372169Y466996D01*
Y467036D01*
Y467066D01*
Y467076D01*
X372179Y467205D01*
X372189Y467325D01*
X372249Y467555D01*
X372319Y467744D01*
X372409Y467904D01*
X372499Y468034D01*
X372579Y468124D01*
X372638Y468184D01*
X372648Y468204D01*
X372658D01*
X372758Y468283D01*
X372858Y468343D01*
X373098Y468453D01*
X373337Y468533D01*
X373577Y468583D01*
X373686Y468593D01*
X373786Y468613D01*
X373886Y468623D01*
X373966D01*
X374036Y468633D01*
X374305D01*
X374485Y468623D01*
D02*
G37*
G36*
X362526D02*
X362676Y468603D01*
X362806Y468593D01*
X362926Y468573D01*
X363006Y468553D01*
X363065Y468543D01*
X363085D01*
X363245Y468513D01*
X363395Y468473D01*
X363535Y468433D01*
X363654Y468393D01*
X363764Y468363D01*
X363834Y468333D01*
X363884Y468313D01*
X363904Y468303D01*
X363575Y467415D01*
X363355Y467495D01*
X363245Y467525D01*
X363155Y467555D01*
X363065Y467575D01*
X363006Y467595D01*
X362956Y467605D01*
X362946D01*
X362696Y467645D01*
X362586Y467655D01*
X362496Y467664D01*
X362417Y467674D01*
X362297D01*
X362097Y467664D01*
X361927Y467635D01*
X361778Y467595D01*
X361658Y467545D01*
X361558Y467495D01*
X361498Y467455D01*
X361448Y467425D01*
X361438Y467415D01*
X361339Y467315D01*
X361269Y467205D01*
X361209Y467096D01*
X361179Y466986D01*
X361159Y466896D01*
X361139Y466816D01*
Y466766D01*
Y466746D01*
X361149Y466636D01*
X361159Y466537D01*
X361189Y466447D01*
X361209Y466367D01*
X361239Y466297D01*
X361269Y466247D01*
X361279Y466207D01*
X361289Y466197D01*
X361398Y466017D01*
X361458Y465938D01*
X361508Y465858D01*
X361548Y465798D01*
X361588Y465748D01*
X361608Y465718D01*
X361618Y465708D01*
X364203Y462484D01*
X359821D01*
Y463422D01*
X362277D01*
X360700Y465199D01*
X360600Y465319D01*
X360510Y465419D01*
X360480Y465468D01*
X360450Y465498D01*
X360440Y465518D01*
X360430Y465528D01*
X360330Y465668D01*
X360251Y465788D01*
X360220Y465838D01*
X360201Y465878D01*
X360181Y465898D01*
Y465908D01*
X360111Y466067D01*
X360051Y466197D01*
X360031Y466257D01*
X360021Y466297D01*
X360011Y466327D01*
Y466337D01*
X359971Y466507D01*
X359961Y466586D01*
X359951Y466656D01*
X359941Y466716D01*
Y466766D01*
Y466796D01*
Y466806D01*
X359951Y466966D01*
X359961Y467105D01*
X359991Y467245D01*
X360031Y467375D01*
X360121Y467605D01*
X360230Y467794D01*
X360280Y467874D01*
X360340Y467944D01*
X360390Y468004D01*
X360430Y468054D01*
X360470Y468094D01*
X360490Y468124D01*
X360510Y468134D01*
X360520Y468144D01*
X360630Y468233D01*
X360760Y468303D01*
X360889Y468373D01*
X361019Y468423D01*
X361299Y468513D01*
X361568Y468573D01*
X361698Y468593D01*
X361818Y468603D01*
X361917Y468623D01*
X362017D01*
X362087Y468633D01*
X362367D01*
X362526Y468623D01*
D02*
G37*
G36*
X352524D02*
X352674Y468603D01*
X352804Y468593D01*
X352924Y468573D01*
X353003Y468553D01*
X353063Y468543D01*
X353083D01*
X353243Y468513D01*
X353393Y468473D01*
X353532Y468433D01*
X353652Y468393D01*
X353762Y468363D01*
X353832Y468333D01*
X353882Y468313D01*
X353902Y468303D01*
X353572Y467415D01*
X353353Y467495D01*
X353243Y467525D01*
X353153Y467555D01*
X353063Y467575D01*
X353003Y467595D01*
X352953Y467605D01*
X352943D01*
X352694Y467645D01*
X352584Y467655D01*
X352494Y467664D01*
X352415Y467674D01*
X352295D01*
X352095Y467664D01*
X351925Y467635D01*
X351776Y467595D01*
X351656Y467545D01*
X351556Y467495D01*
X351496Y467455D01*
X351446Y467425D01*
X351436Y467415D01*
X351336Y467315D01*
X351267Y467205D01*
X351207Y467096D01*
X351177Y466986D01*
X351157Y466896D01*
X351137Y466816D01*
Y466766D01*
Y466746D01*
X351147Y466636D01*
X351157Y466537D01*
X351187Y466447D01*
X351207Y466367D01*
X351237Y466297D01*
X351267Y466247D01*
X351277Y466207D01*
X351287Y466197D01*
X351396Y466017D01*
X351456Y465938D01*
X351506Y465858D01*
X351546Y465798D01*
X351586Y465748D01*
X351606Y465718D01*
X351616Y465708D01*
X354201Y462484D01*
X349819D01*
Y463422D01*
X352275D01*
X350698Y465199D01*
X350598Y465319D01*
X350508Y465419D01*
X350478Y465468D01*
X350448Y465498D01*
X350438Y465518D01*
X350428Y465528D01*
X350328Y465668D01*
X350248Y465788D01*
X350218Y465838D01*
X350198Y465878D01*
X350178Y465898D01*
Y465908D01*
X350109Y466067D01*
X350049Y466197D01*
X350029Y466257D01*
X350019Y466297D01*
X350009Y466327D01*
Y466337D01*
X349969Y466507D01*
X349959Y466586D01*
X349949Y466656D01*
X349939Y466716D01*
Y466766D01*
Y466796D01*
Y466806D01*
X349949Y466966D01*
X349959Y467105D01*
X349989Y467245D01*
X350029Y467375D01*
X350119Y467605D01*
X350228Y467794D01*
X350278Y467874D01*
X350338Y467944D01*
X350388Y468004D01*
X350428Y468054D01*
X350468Y468094D01*
X350488Y468124D01*
X350508Y468134D01*
X350518Y468144D01*
X350628Y468233D01*
X350757Y468303D01*
X350887Y468373D01*
X351017Y468423D01*
X351297Y468513D01*
X351566Y468573D01*
X351696Y468593D01*
X351815Y468603D01*
X351915Y468623D01*
X352015D01*
X352085Y468633D01*
X352365D01*
X352524Y468623D01*
D02*
G37*
G36*
X347403D02*
X347563Y468603D01*
X347703Y468593D01*
X347833Y468573D01*
X347923Y468553D01*
X347982Y468543D01*
X348002D01*
X348172Y468513D01*
X348332Y468473D01*
X348481Y468433D01*
X348601Y468393D01*
X348701Y468363D01*
X348781Y468333D01*
X348831Y468313D01*
X348851Y468303D01*
X348521Y467415D01*
X348292Y467495D01*
X348182Y467525D01*
X348082Y467555D01*
X348002Y467575D01*
X347933Y467595D01*
X347892Y467605D01*
X347873D01*
X347623Y467655D01*
X347503Y467664D01*
X347403Y467674D01*
X347323Y467685D01*
X347204D01*
X347034Y467674D01*
X346894Y467655D01*
X346774Y467625D01*
X346665Y467595D01*
X346585Y467555D01*
X346535Y467525D01*
X346495Y467505D01*
X346485Y467495D01*
X346405Y467425D01*
X346345Y467335D01*
X346295Y467255D01*
X346265Y467175D01*
X346245Y467096D01*
X346236Y467036D01*
Y466996D01*
Y466986D01*
Y466916D01*
X346255Y466846D01*
X346295Y466726D01*
X346315Y466676D01*
X346335Y466646D01*
X346345Y466626D01*
X346355Y466616D01*
X346455Y466507D01*
X346555Y466417D01*
X346605Y466377D01*
X346645Y466347D01*
X346665Y466337D01*
X346675Y466327D01*
X346844Y466237D01*
X347004Y466177D01*
X347074Y466147D01*
X347134Y466127D01*
X347174Y466117D01*
X347184D01*
X347413Y466067D01*
X347523Y466047D01*
X347633Y466037D01*
X347723Y466027D01*
X347793Y466017D01*
X347853D01*
Y465179D01*
X347623D01*
X347493Y465169D01*
X347383Y465159D01*
X347284Y465149D01*
X347204Y465129D01*
X347134Y465119D01*
X347094Y465109D01*
X347084D01*
X346974Y465089D01*
X346864Y465059D01*
X346774Y465029D01*
X346695Y464999D01*
X346635Y464969D01*
X346585Y464949D01*
X346555Y464939D01*
X346545Y464929D01*
X346465Y464889D01*
X346395Y464840D01*
X346325Y464790D01*
X346275Y464740D01*
X346236Y464700D01*
X346205Y464670D01*
X346195Y464650D01*
X346186Y464640D01*
X346146Y464570D01*
X346106Y464500D01*
X346076Y464360D01*
X346066Y464310D01*
X346056Y464261D01*
Y464231D01*
Y464221D01*
X346066Y464081D01*
X346106Y463951D01*
X346156Y463841D01*
X346205Y463751D01*
X346265Y463682D01*
X346315Y463622D01*
X346355Y463592D01*
X346365Y463582D01*
X346485Y463502D01*
X346625Y463442D01*
X346764Y463402D01*
X346904Y463372D01*
X347024Y463352D01*
X347124Y463342D01*
X347364D01*
X347503Y463352D01*
X347633Y463362D01*
X347753Y463372D01*
X347853Y463382D01*
X347923Y463392D01*
X347972Y463402D01*
X347992D01*
X348132Y463432D01*
X348252Y463462D01*
X348362Y463492D01*
X348461Y463522D01*
X348531Y463552D01*
X348591Y463572D01*
X348631Y463592D01*
X348641D01*
X349001Y462703D01*
X348861Y462654D01*
X348711Y462604D01*
X348571Y462564D01*
X348442Y462534D01*
X348322Y462504D01*
X348232Y462494D01*
X348172Y462474D01*
X348152D01*
X347972Y462444D01*
X347803Y462424D01*
X347633Y462404D01*
X347493Y462394D01*
X347373D01*
X347274Y462384D01*
X347194D01*
X346994Y462394D01*
X346805Y462404D01*
X346645Y462424D01*
X346495Y462454D01*
X346375Y462474D01*
X346295Y462494D01*
X346236Y462504D01*
X346216Y462514D01*
X346066Y462564D01*
X345926Y462623D01*
X345796Y462683D01*
X345696Y462743D01*
X345607Y462803D01*
X345547Y462843D01*
X345507Y462873D01*
X345497Y462883D01*
X345387Y462973D01*
X345297Y463073D01*
X345217Y463173D01*
X345157Y463262D01*
X345107Y463342D01*
X345068Y463402D01*
X345048Y463452D01*
X345038Y463462D01*
X344988Y463592D01*
X344948Y463722D01*
X344918Y463851D01*
X344898Y463971D01*
X344888Y464071D01*
X344878Y464151D01*
Y464201D01*
Y464221D01*
Y464330D01*
X344898Y464440D01*
X344908Y464530D01*
X344928Y464620D01*
X344948Y464680D01*
X344968Y464740D01*
X344978Y464770D01*
X344988Y464780D01*
X345078Y464949D01*
X345117Y465029D01*
X345167Y465089D01*
X345207Y465139D01*
X345237Y465179D01*
X345257Y465199D01*
X345267Y465209D01*
X345397Y465339D01*
X345527Y465438D01*
X345577Y465468D01*
X345617Y465498D01*
X345647Y465508D01*
X345657Y465518D01*
X345816Y465608D01*
X345896Y465638D01*
X345966Y465668D01*
X346026Y465688D01*
X346076Y465708D01*
X346106Y465718D01*
X346116D01*
Y465738D01*
X345976Y465808D01*
X345846Y465878D01*
X345806Y465898D01*
X345766Y465928D01*
X345746Y465938D01*
X345736Y465948D01*
X345607Y466057D01*
X345497Y466157D01*
X345457Y466197D01*
X345427Y466227D01*
X345407Y466247D01*
X345397Y466257D01*
X345297Y466387D01*
X345227Y466507D01*
X345197Y466557D01*
X345177Y466596D01*
X345167Y466626D01*
Y466636D01*
X345117Y466796D01*
X345098Y466936D01*
X345088Y466996D01*
Y467036D01*
Y467066D01*
Y467076D01*
X345098Y467205D01*
X345107Y467325D01*
X345167Y467555D01*
X345237Y467744D01*
X345327Y467904D01*
X345417Y468034D01*
X345497Y468124D01*
X345557Y468184D01*
X345567Y468204D01*
X345577D01*
X345676Y468283D01*
X345776Y468343D01*
X346016Y468453D01*
X346255Y468533D01*
X346495Y468583D01*
X346605Y468593D01*
X346705Y468613D01*
X346805Y468623D01*
X346884D01*
X346954Y468633D01*
X347224D01*
X347403Y468623D01*
D02*
G37*
G36*
X388780Y467066D02*
X388939Y467056D01*
X389079Y467036D01*
X389199Y467016D01*
X389289Y466996D01*
X389349Y466986D01*
X389359Y466976D01*
X389369D01*
X389528Y466936D01*
X389668Y466896D01*
X389798Y466866D01*
X389898Y466826D01*
X389987Y466796D01*
X390047Y466776D01*
X390087Y466766D01*
X390097Y466756D01*
X389818Y465988D01*
X389728Y466027D01*
X389638Y466047D01*
X389568Y466067D01*
X389558Y466077D01*
X389548D01*
X389428Y466117D01*
X389329Y466137D01*
X389289Y466157D01*
X389259D01*
X389239Y466167D01*
X389229D01*
X389099Y466197D01*
X388999Y466217D01*
X388949D01*
X388919Y466227D01*
X388889D01*
X388760Y466247D01*
X388650Y466257D01*
X388550D01*
X388410Y466247D01*
X388290Y466237D01*
X388191Y466207D01*
X388101Y466187D01*
X388031Y466157D01*
X387981Y466127D01*
X387951Y466117D01*
X387941Y466107D01*
X387861Y466047D01*
X387811Y465968D01*
X387771Y465888D01*
X387742Y465808D01*
X387721Y465728D01*
X387711Y465668D01*
Y465628D01*
Y465608D01*
Y465379D01*
X387901Y465369D01*
X388081Y465349D01*
X388251Y465329D01*
X388400Y465309D01*
X388520Y465299D01*
X388620Y465279D01*
X388680Y465269D01*
X388700D01*
X388870Y465239D01*
X389029Y465199D01*
X389169Y465159D01*
X389299Y465119D01*
X389398Y465089D01*
X389468Y465059D01*
X389518Y465039D01*
X389538Y465029D01*
X389668Y464969D01*
X389788Y464889D01*
X389888Y464820D01*
X389967Y464750D01*
X390037Y464680D01*
X390087Y464630D01*
X390117Y464590D01*
X390127Y464580D01*
X390197Y464460D01*
X390257Y464341D01*
X390297Y464221D01*
X390317Y464101D01*
X390337Y463991D01*
X390347Y463911D01*
Y463851D01*
Y463841D01*
Y463831D01*
X390337Y463702D01*
X390327Y463592D01*
X390267Y463372D01*
X390187Y463192D01*
X390097Y463043D01*
X390007Y462923D01*
X389928Y462833D01*
X389868Y462783D01*
X389858Y462763D01*
X389848D01*
X389748Y462693D01*
X389638Y462634D01*
X389398Y462544D01*
X389139Y462474D01*
X388889Y462434D01*
X388780Y462414D01*
X388670Y462404D01*
X388570Y462394D01*
X388490D01*
X388420Y462384D01*
X388131D01*
X387951Y462404D01*
X387791Y462414D01*
X387642Y462434D01*
X387522Y462454D01*
X387432Y462464D01*
X387372Y462484D01*
X387352D01*
X387183Y462524D01*
X387043Y462554D01*
X386923Y462594D01*
X386813Y462623D01*
X386733Y462654D01*
X386683Y462683D01*
X386643Y462693D01*
X386633Y462703D01*
Y465478D01*
Y465638D01*
X386653Y465778D01*
X386673Y465908D01*
X386703Y466037D01*
X386743Y466147D01*
X386783Y466247D01*
X386823Y466337D01*
X386863Y466417D01*
X386913Y466487D01*
X386953Y466547D01*
X387033Y466636D01*
X387083Y466686D01*
X387093Y466706D01*
X387103D01*
X387292Y466836D01*
X387512Y466926D01*
X387732Y466996D01*
X387941Y467036D01*
X388131Y467066D01*
X388221Y467076D01*
X388290D01*
X388350Y467086D01*
X388610D01*
X388780Y467066D01*
D02*
G37*
G36*
X370672Y465259D02*
X370482Y465289D01*
X370402D01*
X370332Y465299D01*
X370273Y465309D01*
X370193D01*
X370033Y465319D01*
X369953Y465329D01*
X369604D01*
X369464Y465319D01*
X369334Y465309D01*
X369215Y465289D01*
X369125Y465279D01*
X369065Y465259D01*
X369015Y465249D01*
X369005D01*
X368895Y465219D01*
X368785Y465179D01*
X368695Y465149D01*
X368626Y465109D01*
X368566Y465079D01*
X368526Y465049D01*
X368496Y465039D01*
X368486Y465029D01*
X368416Y464979D01*
X368356Y464919D01*
X368266Y464810D01*
X368236Y464770D01*
X368216Y464730D01*
X368196Y464710D01*
Y464700D01*
X368136Y464550D01*
X368106Y464410D01*
X368097Y464360D01*
Y464310D01*
Y464281D01*
Y464271D01*
X368106Y464111D01*
X368146Y463981D01*
X368206Y463861D01*
X368266Y463761D01*
X368326Y463682D01*
X368386Y463632D01*
X368426Y463592D01*
X368436Y463582D01*
X368566Y463502D01*
X368715Y463442D01*
X368865Y463402D01*
X369005Y463372D01*
X369135Y463352D01*
X369244Y463342D01*
X369334D01*
X369594Y463352D01*
X369714Y463362D01*
X369833Y463372D01*
X369923Y463382D01*
X369993Y463392D01*
X370043Y463402D01*
X370063D01*
X370193Y463432D01*
X370312Y463462D01*
X370422Y463492D01*
X370512Y463522D01*
X370592Y463552D01*
X370642Y463572D01*
X370682Y463592D01*
X370692D01*
X371051Y462703D01*
X370772Y462614D01*
X370632Y462574D01*
X370502Y462534D01*
X370392Y462514D01*
X370312Y462494D01*
X370253Y462474D01*
X370233D01*
X370063Y462444D01*
X369893Y462424D01*
X369734Y462404D01*
X369594Y462394D01*
X369474D01*
X369384Y462384D01*
X369304D01*
X369115Y462394D01*
X368945Y462404D01*
X368775Y462424D01*
X368635Y462444D01*
X368526Y462464D01*
X368436Y462484D01*
X368376Y462504D01*
X368356D01*
X368196Y462554D01*
X368057Y462614D01*
X367927Y462673D01*
X367807Y462733D01*
X367717Y462783D01*
X367657Y462823D01*
X367607Y462853D01*
X367597Y462863D01*
X367488Y462963D01*
X367388Y463063D01*
X367298Y463163D01*
X367228Y463252D01*
X367168Y463332D01*
X367128Y463402D01*
X367108Y463442D01*
X367098Y463462D01*
X367038Y463602D01*
X366998Y463741D01*
X366959Y463881D01*
X366939Y464021D01*
X366929Y464131D01*
X366919Y464221D01*
Y464281D01*
Y464291D01*
Y464300D01*
X366929Y464460D01*
X366949Y464610D01*
X366978Y464750D01*
X367008Y464889D01*
X367058Y465009D01*
X367108Y465119D01*
X367158Y465219D01*
X367218Y465319D01*
X367278Y465399D01*
X367328Y465468D01*
X367378Y465528D01*
X367428Y465578D01*
X367458Y465618D01*
X367488Y465648D01*
X367508Y465658D01*
X367518Y465668D01*
X367637Y465758D01*
X367767Y465838D01*
X367897Y465898D01*
X368047Y465958D01*
X368346Y466047D01*
X368635Y466107D01*
X368765Y466127D01*
X368895Y466137D01*
X369005Y466157D01*
X369105D01*
X369194Y466167D01*
X369474D01*
X369304Y467585D01*
X367048D01*
Y468523D01*
X370303D01*
X370672Y465259D01*
D02*
G37*
G36*
X392243Y467076D02*
X392383Y467066D01*
X392513Y467036D01*
X392633Y467016D01*
X392723Y466986D01*
X392802Y466956D01*
X392842Y466946D01*
X392862Y466936D01*
X392992Y466876D01*
X393112Y466806D01*
X393222Y466736D01*
X393312Y466666D01*
X393391Y466606D01*
X393451Y466557D01*
X393491Y466517D01*
X393501Y466507D01*
X393601Y466397D01*
X393691Y466267D01*
X393771Y466147D01*
X393831Y466037D01*
X393881Y465928D01*
X393920Y465848D01*
X393940Y465798D01*
X393950Y465788D01*
Y465778D01*
X394000Y465608D01*
X394040Y465429D01*
X394070Y465249D01*
X394090Y465089D01*
X394100Y464949D01*
X394110Y464830D01*
Y464790D01*
Y464760D01*
Y464740D01*
Y464730D01*
X394100Y464510D01*
X394080Y464310D01*
X394060Y464141D01*
X394030Y463991D01*
X394000Y463861D01*
X393970Y463772D01*
X393960Y463712D01*
X393950Y463702D01*
Y463692D01*
X393881Y463532D01*
X393811Y463392D01*
X393731Y463262D01*
X393661Y463163D01*
X393601Y463073D01*
X393551Y463003D01*
X393511Y462963D01*
X393501Y462953D01*
X393391Y462853D01*
X393282Y462763D01*
X393172Y462693D01*
X393072Y462634D01*
X392992Y462584D01*
X392922Y462554D01*
X392882Y462534D01*
X392862Y462524D01*
X392723Y462474D01*
X392583Y462444D01*
X392463Y462414D01*
X392343Y462404D01*
X392243Y462394D01*
X392174Y462384D01*
X392104D01*
X391854Y462394D01*
X391624Y462434D01*
X391425Y462484D01*
X391245Y462534D01*
X391105Y462594D01*
X391046Y462614D01*
X390996Y462634D01*
X390956Y462654D01*
X390926Y462673D01*
X390916Y462683D01*
X390906D01*
X391265Y463542D01*
X391375Y463472D01*
X391485Y463422D01*
X391595Y463392D01*
X391704Y463372D01*
X391794Y463352D01*
X391864Y463342D01*
X391934D01*
X392074Y463352D01*
X392203Y463382D01*
X392253Y463402D01*
X392293Y463412D01*
X392313Y463422D01*
X392323D01*
X392453Y463502D01*
X392553Y463582D01*
X392593Y463622D01*
X392613Y463652D01*
X392633Y463672D01*
X392643Y463682D01*
X392733Y463831D01*
X392793Y463971D01*
X392822Y464031D01*
X392842Y464081D01*
X392852Y464111D01*
Y464121D01*
X392902Y464330D01*
X392912Y464440D01*
X392922Y464530D01*
X392932Y464620D01*
Y464680D01*
Y464720D01*
Y464740D01*
X392922Y464989D01*
X392882Y465209D01*
X392842Y465389D01*
X392783Y465538D01*
X392733Y465648D01*
X392683Y465728D01*
X392653Y465778D01*
X392643Y465798D01*
X392533Y465918D01*
X392413Y465998D01*
X392293Y466057D01*
X392183Y466107D01*
X392084Y466127D01*
X392004Y466137D01*
X391954Y466147D01*
X391934D01*
X391794Y466137D01*
X391665Y466117D01*
X391545Y466087D01*
X391445Y466057D01*
X391375Y466017D01*
X391315Y465988D01*
X391275Y465968D01*
X391265Y465958D01*
X390906Y466776D01*
X391105Y466876D01*
X391305Y466956D01*
X391505Y467006D01*
X391694Y467046D01*
X391854Y467066D01*
X391924Y467076D01*
X391984Y467086D01*
X392104D01*
X392243Y467076D01*
D02*
G37*
G36*
X381073Y464790D02*
Y463971D01*
X378368D01*
Y462484D01*
X377310D01*
Y463971D01*
X376711D01*
Y464790D01*
X377310D01*
Y468523D01*
X378558D01*
X381073Y464790D01*
D02*
G37*
G36*
X383030Y466936D02*
X383120Y466966D01*
X383219Y466986D01*
X383260D01*
X383289Y466996D01*
X383319D01*
X383449Y467016D01*
X383559Y467026D01*
X383669D01*
X383858Y467016D01*
X384028Y466996D01*
X384188Y466976D01*
X384318Y466946D01*
X384437Y466906D01*
X384517Y466886D01*
X384567Y466866D01*
X384587Y466856D01*
X384727Y466786D01*
X384857Y466706D01*
X384966Y466626D01*
X385066Y466557D01*
X385136Y466487D01*
X385196Y466427D01*
X385236Y466387D01*
X385246Y466377D01*
X385336Y466257D01*
X385426Y466137D01*
X385485Y466017D01*
X385545Y465898D01*
X385585Y465798D01*
X385625Y465718D01*
X385635Y465668D01*
X385645Y465658D01*
Y465648D01*
X385685Y465488D01*
X385715Y465319D01*
X385745Y465159D01*
X385755Y465009D01*
X385765Y464889D01*
X385775Y464790D01*
Y464750D01*
Y464720D01*
Y464710D01*
Y464700D01*
X385765Y464500D01*
X385755Y464310D01*
X385725Y464131D01*
X385685Y463971D01*
X385645Y463821D01*
X385595Y463682D01*
X385545Y463552D01*
X385485Y463432D01*
X385436Y463332D01*
X385386Y463242D01*
X385336Y463173D01*
X385296Y463103D01*
X385256Y463053D01*
X385226Y463023D01*
X385216Y463003D01*
X385206Y462993D01*
X385096Y462883D01*
X384966Y462793D01*
X384837Y462713D01*
X384697Y462644D01*
X384557Y462584D01*
X384417Y462534D01*
X384148Y462464D01*
X384028Y462434D01*
X383908Y462414D01*
X383798Y462404D01*
X383709Y462394D01*
X383639Y462384D01*
X383339D01*
X383160Y462404D01*
X383000Y462414D01*
X382850Y462434D01*
X382740Y462454D01*
X382650Y462464D01*
X382591Y462484D01*
X382571D01*
X382411Y462524D01*
X382281Y462554D01*
X382161Y462594D01*
X382062Y462623D01*
X381982Y462654D01*
X381932Y462683D01*
X381892Y462693D01*
X381882Y462703D01*
Y469042D01*
X383030D01*
Y466936D01*
D02*
G37*
G36*
X356996Y468623D02*
X357176Y468593D01*
X357336Y468553D01*
X357475Y468513D01*
X357585Y468473D01*
X357675Y468433D01*
X357725Y468403D01*
X357745Y468393D01*
X357885Y468293D01*
X358014Y468184D01*
X358124Y468074D01*
X358214Y467974D01*
X358294Y467874D01*
X358344Y467794D01*
X358384Y467744D01*
X358394Y467734D01*
Y467724D01*
X358484Y467565D01*
X358554Y467395D01*
X358623Y467225D01*
X358673Y467076D01*
X358713Y466936D01*
X358743Y466836D01*
X358753Y466796D01*
Y466766D01*
X358763Y466746D01*
Y466736D01*
X358803Y466517D01*
X358833Y466307D01*
X358853Y466097D01*
X358863Y465908D01*
X358873Y465748D01*
X358883Y465678D01*
Y465618D01*
Y465568D01*
Y465538D01*
Y465518D01*
Y465508D01*
X358873Y465259D01*
X358863Y465029D01*
X358843Y464820D01*
X358823Y464640D01*
X358803Y464490D01*
X358793Y464420D01*
X358783Y464370D01*
X358773Y464330D01*
X358763Y464300D01*
Y464281D01*
Y464271D01*
X358713Y464061D01*
X358653Y463871D01*
X358593Y463702D01*
X358534Y463562D01*
X358484Y463442D01*
X358434Y463352D01*
X358404Y463292D01*
X358394Y463282D01*
Y463272D01*
X358294Y463123D01*
X358184Y462993D01*
X358074Y462883D01*
X357975Y462783D01*
X357885Y462713D01*
X357815Y462654D01*
X357765Y462623D01*
X357745Y462614D01*
X357585Y462534D01*
X357425Y462484D01*
X357266Y462444D01*
X357116Y462414D01*
X356986Y462394D01*
X356886Y462384D01*
X356797D01*
X356597Y462394D01*
X356417Y462424D01*
X356258Y462454D01*
X356118Y462504D01*
X356008Y462544D01*
X355918Y462574D01*
X355868Y462604D01*
X355848Y462614D01*
X355709Y462713D01*
X355579Y462813D01*
X355469Y462923D01*
X355369Y463033D01*
X355299Y463123D01*
X355239Y463203D01*
X355210Y463252D01*
X355200Y463272D01*
X355110Y463442D01*
X355040Y463612D01*
X354970Y463782D01*
X354920Y463931D01*
X354880Y464071D01*
X354850Y464171D01*
X354840Y464211D01*
Y464241D01*
X354830Y464261D01*
Y464271D01*
X354790Y464490D01*
X354760Y464700D01*
X354740Y464910D01*
X354720Y465099D01*
Y465269D01*
X354710Y465339D01*
Y465399D01*
Y465438D01*
Y465478D01*
Y465498D01*
Y465508D01*
Y465748D01*
X354730Y465978D01*
X354750Y466187D01*
X354770Y466367D01*
X354790Y466527D01*
X354800Y466586D01*
X354810Y466636D01*
X354820Y466676D01*
Y466706D01*
X354830Y466726D01*
Y466736D01*
X354880Y466946D01*
X354940Y467136D01*
X355000Y467295D01*
X355060Y467445D01*
X355110Y467565D01*
X355160Y467655D01*
X355190Y467705D01*
X355200Y467724D01*
X355299Y467874D01*
X355409Y468014D01*
X355519Y468124D01*
X355619Y468223D01*
X355709Y468293D01*
X355779Y468353D01*
X355828Y468383D01*
X355848Y468393D01*
X356008Y468473D01*
X356168Y468533D01*
X356328Y468573D01*
X356467Y468603D01*
X356597Y468623D01*
X356707Y468633D01*
X356797D01*
X356996Y468623D01*
D02*
G37*
G36*
X337541Y378492D02*
X337795Y378479D01*
X338023Y378441D01*
X338239Y378390D01*
X338442Y378339D01*
X338633Y378276D01*
X338798Y378200D01*
X338963Y378136D01*
X339090Y378073D01*
X339217Y377996D01*
X339319Y377933D01*
X339408Y377882D01*
X339471Y377831D01*
X339522Y377806D01*
X339547Y377780D01*
X339560Y377768D01*
X339712Y377628D01*
X339840Y377488D01*
X339954Y377336D01*
X340055Y377184D01*
X340132Y377044D01*
X340208Y376904D01*
X340309Y376625D01*
X340360Y376396D01*
X340386Y376295D01*
X340398Y376206D01*
X340411Y376142D01*
Y375901D01*
X340386Y375748D01*
X340322Y375482D01*
X340220Y375228D01*
X340119Y374999D01*
X340005Y374821D01*
X339954Y374745D01*
X339903Y374682D01*
X339865Y374631D01*
X339840Y374593D01*
X339827Y374567D01*
X339814Y374555D01*
X342405Y374986D01*
Y378123D01*
X343535D01*
Y374212D01*
X338569Y373437D01*
X338430Y374352D01*
X338582Y374440D01*
X338722Y374542D01*
X338836Y374631D01*
X338938Y374733D01*
X339014Y374821D01*
X339077Y374885D01*
X339103Y374936D01*
X339116Y374948D01*
X339204Y375101D01*
X339268Y375241D01*
X339306Y375380D01*
X339344Y375507D01*
X339357Y375621D01*
X339370Y375698D01*
Y375914D01*
X339344Y376041D01*
X339281Y376282D01*
X339192Y376485D01*
X339090Y376663D01*
X338976Y376803D01*
X338887Y376904D01*
X338824Y376968D01*
X338811Y376993D01*
X338798D01*
X338569Y377158D01*
X338303Y377272D01*
X338036Y377361D01*
X337782Y377412D01*
X337553Y377450D01*
X337452Y377463D01*
X337363D01*
X337299Y377476D01*
X337249D01*
X337211D01*
X337198D01*
X336804Y377450D01*
X336461Y377399D01*
X336157Y377311D01*
X336030Y377272D01*
X335915Y377222D01*
X335814Y377171D01*
X335712Y377133D01*
X335636Y377082D01*
X335572Y377044D01*
X335522Y377019D01*
X335483Y376993D01*
X335471Y376968D01*
X335458D01*
X335344Y376879D01*
X335255Y376777D01*
X335166Y376676D01*
X335102Y376574D01*
X334988Y376371D01*
X334912Y376193D01*
X334874Y376028D01*
X334848Y375901D01*
X334836Y375850D01*
Y375787D01*
X334861Y375583D01*
X334912Y375393D01*
X334975Y375228D01*
X335064Y375088D01*
X335140Y374974D01*
X335217Y374885D01*
X335267Y374834D01*
X335280Y374809D01*
X335471Y374669D01*
X335687Y374555D01*
X335902Y374466D01*
X336131Y374402D01*
X336322Y374352D01*
X336410Y374326D01*
X336487Y374313D01*
X336550Y374301D01*
X336601Y374288D01*
X336626D01*
X336639D01*
X336550Y373272D01*
X336322Y373297D01*
X336106Y373335D01*
X335902Y373374D01*
X335699Y373437D01*
X335534Y373501D01*
X335369Y373564D01*
X335217Y373628D01*
X335090Y373704D01*
X334963Y373767D01*
X334861Y373831D01*
X334772Y373894D01*
X334696Y373945D01*
X334645Y373996D01*
X334607Y374034D01*
X334582Y374047D01*
X334569Y374059D01*
X334442Y374199D01*
X334340Y374339D01*
X334239Y374478D01*
X334163Y374631D01*
X334036Y374923D01*
X333947Y375202D01*
X333896Y375431D01*
X333883Y375545D01*
X333871Y375634D01*
X333858Y375698D01*
Y375799D01*
X333871Y376028D01*
X333896Y376244D01*
X333947Y376434D01*
X334010Y376625D01*
X334086Y376803D01*
X334175Y376968D01*
X334264Y377107D01*
X334366Y377247D01*
X334455Y377361D01*
X334544Y377476D01*
X334632Y377565D01*
X334709Y377628D01*
X334772Y377692D01*
X334823Y377730D01*
X334848Y377755D01*
X334861Y377768D01*
X335052Y377895D01*
X335255Y378009D01*
X335458Y378111D01*
X335661Y378200D01*
X335864Y378263D01*
X336068Y378327D01*
X336449Y378415D01*
X336626Y378441D01*
X336779Y378466D01*
X336931Y378479D01*
X337046Y378492D01*
X337147Y378504D01*
X337223D01*
X337274D01*
X337287D01*
X337541Y378492D01*
D02*
G37*
G36*
X336639Y371291D02*
X336880Y371151D01*
X337122Y371011D01*
X337325Y370872D01*
X337503Y370757D01*
X337655Y370643D01*
X337769Y370554D01*
X337846Y370503D01*
X337871Y370478D01*
X337973Y370376D01*
X338061Y370275D01*
X338239Y370046D01*
X338303Y369957D01*
X338354Y369881D01*
X338392Y369830D01*
X338404Y369805D01*
X338493Y370186D01*
X338608Y370516D01*
X338747Y370808D01*
X338900Y371037D01*
X338963Y371138D01*
X339039Y371215D01*
X339090Y371291D01*
X339154Y371354D01*
X339192Y371392D01*
X339230Y371431D01*
X339243Y371456D01*
X339255D01*
X339395Y371558D01*
X339535Y371646D01*
X339827Y371786D01*
X340119Y371888D01*
X340398Y371951D01*
X340652Y372002D01*
X340754Y372015D01*
X340855D01*
X340932Y372027D01*
X340983D01*
X341021D01*
X341033D01*
X341338Y372015D01*
X341605Y371977D01*
X341859Y371913D01*
X342062Y371862D01*
X342240Y371799D01*
X342367Y371735D01*
X342418Y371723D01*
X342456Y371697D01*
X342468Y371684D01*
X342481D01*
X342697Y371558D01*
X342887Y371418D01*
X343040Y371265D01*
X343167Y371138D01*
X343269Y371011D01*
X343332Y370923D01*
X343370Y370859D01*
X343383Y370834D01*
X343434Y370732D01*
X343472Y370618D01*
X343548Y370364D01*
X343599Y370097D01*
X343624Y369830D01*
X343649Y369589D01*
Y369475D01*
X343662Y369386D01*
Y365715D01*
X334023D01*
Y366757D01*
X338303D01*
Y368154D01*
X338277Y368306D01*
X338252Y368446D01*
X338227Y368560D01*
X338201Y368662D01*
X338176Y368725D01*
X338163Y368764D01*
X338150Y368776D01*
X338087Y368890D01*
X338011Y368992D01*
X337922Y369094D01*
X337820Y369183D01*
X337744Y369259D01*
X337668Y369322D01*
X337617Y369360D01*
X337604Y369373D01*
X337515Y369437D01*
X337414Y369500D01*
X337185Y369652D01*
X336918Y369805D01*
X336665Y369957D01*
X336410Y370097D01*
X336309Y370148D01*
X336207Y370199D01*
X336131Y370237D01*
X336068Y370275D01*
X336030Y370288D01*
X336017Y370300D01*
X334023Y371354D01*
Y372675D01*
X336639Y371291D01*
D02*
G37*
G36*
X337344Y393141D02*
X343580D01*
Y392341D01*
X337344Y388747D01*
X336252D01*
Y392176D01*
X333940D01*
Y393141D01*
X336252D01*
Y394208D01*
X337344D01*
Y393141D01*
D02*
G37*
G36*
X336557Y387083D02*
X336798Y386944D01*
X337039Y386804D01*
X337242Y386664D01*
X337420Y386550D01*
X337573Y386436D01*
X337687Y386347D01*
X337763Y386296D01*
X337789Y386270D01*
X337890Y386169D01*
X337979Y386067D01*
X338157Y385839D01*
X338220Y385750D01*
X338271Y385674D01*
X338309Y385623D01*
X338322Y385597D01*
X338411Y385978D01*
X338525Y386309D01*
X338665Y386601D01*
X338817Y386829D01*
X338881Y386931D01*
X338957Y387007D01*
X339008Y387083D01*
X339071Y387147D01*
X339109Y387185D01*
X339147Y387223D01*
X339160Y387248D01*
X339173D01*
X339313Y387350D01*
X339452Y387439D01*
X339744Y387579D01*
X340036Y387680D01*
X340316Y387744D01*
X340570Y387794D01*
X340671Y387807D01*
X340773D01*
X340849Y387820D01*
X340900D01*
X340938D01*
X340951D01*
X341256Y387807D01*
X341522Y387769D01*
X341776Y387706D01*
X341979Y387655D01*
X342157Y387591D01*
X342284Y387528D01*
X342335Y387515D01*
X342373Y387490D01*
X342386Y387477D01*
X342399D01*
X342615Y387350D01*
X342805Y387210D01*
X342957Y387058D01*
X343084Y386931D01*
X343186Y386804D01*
X343250Y386715D01*
X343288Y386651D01*
X343300Y386626D01*
X343351Y386525D01*
X343389Y386410D01*
X343465Y386156D01*
X343516Y385890D01*
X343542Y385623D01*
X343567Y385382D01*
Y385267D01*
X343580Y385178D01*
Y381508D01*
X333940D01*
Y382549D01*
X338220D01*
Y383946D01*
X338195Y384099D01*
X338170Y384239D01*
X338144Y384353D01*
X338119Y384454D01*
X338093Y384518D01*
X338081Y384556D01*
X338068Y384569D01*
X338004Y384683D01*
X337928Y384785D01*
X337839Y384886D01*
X337738Y384975D01*
X337662Y385051D01*
X337585Y385115D01*
X337534Y385153D01*
X337522Y385166D01*
X337433Y385229D01*
X337331Y385293D01*
X337103Y385445D01*
X336836Y385597D01*
X336582Y385750D01*
X336328Y385890D01*
X336226Y385940D01*
X336125Y385991D01*
X336049Y386029D01*
X335985Y386067D01*
X335947Y386080D01*
X335934Y386093D01*
X333940Y387147D01*
Y388468D01*
X336557Y387083D01*
D02*
G37*
%LPC*%
G36*
X397125Y472516D02*
X397075D01*
Y471148D01*
X397155Y471118D01*
X397244Y471098D01*
X397284Y471088D01*
X397324D01*
X397344Y471078D01*
X397354D01*
X397484Y471068D01*
X397604Y471059D01*
X397714D01*
X397873Y471068D01*
X398013Y471088D01*
X398133Y471108D01*
X398233Y471148D01*
X398313Y471178D01*
X398363Y471198D01*
X398402Y471218D01*
X398412Y471228D01*
X398492Y471298D01*
X398542Y471378D01*
X398582Y471468D01*
X398612Y471548D01*
X398632Y471618D01*
X398642Y471677D01*
Y471717D01*
Y471727D01*
X398632Y471817D01*
X398622Y471897D01*
X398602Y471967D01*
X398572Y472017D01*
X398552Y472067D01*
X398532Y472097D01*
X398522Y472117D01*
X398512Y472127D01*
X398402Y472226D01*
X398293Y472296D01*
X398243Y472326D01*
X398203Y472346D01*
X398183Y472356D01*
X398173D01*
X398003Y472416D01*
X397853Y472446D01*
X397784Y472456D01*
X397734Y472466D01*
X397684D01*
X397464Y472486D01*
X397364Y472496D01*
X397275Y472506D01*
X397195D01*
X397125Y472516D01*
D02*
G37*
G36*
X402405Y474123D02*
X402335D01*
X402186Y474113D01*
X402066Y474083D01*
X401956Y474043D01*
X401866Y473993D01*
X401786Y473943D01*
X401736Y473903D01*
X401707Y473873D01*
X401697Y473863D01*
X401617Y473764D01*
X401567Y473644D01*
X401527Y473514D01*
X401497Y473394D01*
X401477Y473274D01*
X401467Y473185D01*
Y473125D01*
Y473115D01*
Y473105D01*
X403364Y472845D01*
X403344Y473065D01*
X403304Y473255D01*
X403264Y473424D01*
X403204Y473554D01*
X403154Y473664D01*
X403104Y473734D01*
X403074Y473784D01*
X403064Y473794D01*
X402954Y473903D01*
X402835Y473983D01*
X402715Y474043D01*
X402595Y474083D01*
X402495Y474103D01*
X402405Y474123D01*
D02*
G37*
G36*
X365371D02*
X365302D01*
X365152Y474113D01*
X365032Y474083D01*
X364922Y474043D01*
X364832Y473993D01*
X364753Y473943D01*
X364702Y473903D01*
X364673Y473873D01*
X364663Y473863D01*
X364583Y473764D01*
X364533Y473644D01*
X364493Y473514D01*
X364463Y473394D01*
X364443Y473274D01*
X364433Y473185D01*
Y473125D01*
Y473115D01*
Y473105D01*
X366330Y472845D01*
X366310Y473065D01*
X366270Y473255D01*
X366230Y473424D01*
X366170Y473554D01*
X366120Y473664D01*
X366070Y473734D01*
X366040Y473784D01*
X366030Y473794D01*
X365920Y473903D01*
X365801Y473983D01*
X365681Y474043D01*
X365561Y474083D01*
X365461Y474103D01*
X365371Y474123D01*
D02*
G37*
G36*
X354301Y475590D02*
X354191D01*
X353982Y475580D01*
X353802Y475550D01*
X353652Y475501D01*
X353512Y475431D01*
X353403Y475351D01*
X353313Y475261D01*
X353233Y475171D01*
X353173Y475081D01*
X353123Y474981D01*
X353083Y474892D01*
X353063Y474802D01*
X353043Y474722D01*
X353033Y474662D01*
X353023Y474602D01*
Y474572D01*
Y474562D01*
X353033Y474393D01*
X353073Y474243D01*
X353123Y474113D01*
X353183Y474013D01*
X353253Y473923D01*
X353303Y473863D01*
X353343Y473824D01*
X353353Y473814D01*
X353483Y473724D01*
X353632Y473654D01*
X353792Y473614D01*
X353942Y473574D01*
X354081Y473554D01*
X354201Y473544D01*
X354411D01*
X354511Y473554D01*
X354591D01*
X354670Y473564D01*
X354720Y473574D01*
X354770D01*
X354790Y473584D01*
X354800D01*
Y475501D01*
X354710Y475531D01*
X354621Y475550D01*
X354591D01*
X354561Y475560D01*
X354531D01*
X354401Y475580D01*
X354301Y475590D01*
D02*
G37*
G36*
X383200Y475600D02*
X383080D01*
X382870Y475590D01*
X382701Y475560D01*
X382551Y475531D01*
X382431Y475491D01*
X382341Y475441D01*
X382271Y475411D01*
X382231Y475381D01*
X382221Y475371D01*
X382132Y475281D01*
X382062Y475171D01*
X382012Y475071D01*
X381972Y474962D01*
X381952Y474872D01*
X381942Y474802D01*
Y474752D01*
Y474732D01*
X381952Y474572D01*
X381962Y474502D01*
X381982Y474442D01*
X381992Y474393D01*
X382012Y474353D01*
X382022Y474333D01*
Y474323D01*
X382091Y474203D01*
X382151Y474113D01*
X382211Y474053D01*
X382221Y474043D01*
X382231Y474033D01*
X382341Y473963D01*
X382441Y473923D01*
X382491Y473903D01*
X382521Y473893D01*
X382541Y473884D01*
X382551D01*
X382621Y473863D01*
X382701Y473853D01*
X382860Y473843D01*
X382930Y473834D01*
X383778D01*
Y475501D01*
X383689Y475531D01*
X383589Y475550D01*
X383549Y475560D01*
X383509Y475570D01*
X383479D01*
X383329Y475590D01*
X383200Y475600D01*
D02*
G37*
G36*
X383778Y473005D02*
X382910D01*
X382810Y472995D01*
X382730Y472985D01*
X382660D01*
X382601Y472975D01*
X382561Y472965D01*
X382541Y472955D01*
X382531D01*
X382401Y472915D01*
X382301Y472865D01*
X382261Y472835D01*
X382231Y472825D01*
X382211Y472805D01*
X382201D01*
X382072Y472706D01*
X381982Y472596D01*
X381912Y472476D01*
X381872Y472346D01*
X381842Y472236D01*
X381832Y472147D01*
X381822Y472087D01*
Y472077D01*
Y472067D01*
X381832Y471907D01*
X381872Y471757D01*
X381942Y471637D01*
X382012Y471528D01*
X382112Y471438D01*
X382221Y471368D01*
X382331Y471308D01*
X382441Y471258D01*
X382561Y471218D01*
X382671Y471188D01*
X382780Y471168D01*
X382870Y471148D01*
X382950D01*
X383020Y471138D01*
X383070D01*
X383209Y471148D01*
X383339Y471158D01*
X383389D01*
X383429Y471168D01*
X383459D01*
X383589Y471188D01*
X383689Y471218D01*
X383729Y471228D01*
X383759D01*
X383769Y471238D01*
X383778D01*
Y473005D01*
D02*
G37*
G36*
X349420Y475501D02*
X349190D01*
X349080Y475481D01*
X348981Y475461D01*
X348901Y475441D01*
X348831Y475421D01*
X348781Y475401D01*
X348741Y475391D01*
X348731Y475381D01*
X348631Y475331D01*
X348541Y475271D01*
X348471Y475211D01*
X348402Y475151D01*
X348342Y475091D01*
X348302Y475041D01*
X348282Y475011D01*
X348272Y475001D01*
X348202Y474902D01*
X348142Y474792D01*
X348092Y474672D01*
X348052Y474572D01*
X348022Y474472D01*
X348002Y474403D01*
X347982Y474353D01*
Y474333D01*
X347942Y474173D01*
X347923Y474013D01*
X347902Y473853D01*
X347882Y473704D01*
Y473574D01*
X347873Y473464D01*
Y473424D01*
Y473404D01*
Y473384D01*
Y473374D01*
Y473165D01*
X347892Y472985D01*
X347902Y472815D01*
X347923Y472676D01*
X347942Y472556D01*
X347962Y472466D01*
X347972Y472416D01*
X347982Y472396D01*
X348022Y472256D01*
X348072Y472127D01*
X348122Y472017D01*
X348162Y471917D01*
X348202Y471837D01*
X348242Y471787D01*
X348262Y471747D01*
X348272Y471737D01*
X348342Y471647D01*
X348422Y471568D01*
X348501Y471508D01*
X348571Y471448D01*
X348631Y471408D01*
X348681Y471378D01*
X348721Y471368D01*
X348731Y471358D01*
X348831Y471318D01*
X348931Y471288D01*
X349021Y471268D01*
X349110Y471258D01*
X349190Y471248D01*
X349250Y471238D01*
X349430D01*
X349540Y471248D01*
X349639Y471268D01*
X349709Y471278D01*
X349769Y471298D01*
X349819Y471308D01*
X349839Y471318D01*
X349849D01*
Y475421D01*
X349769Y475451D01*
X349679Y475471D01*
X349500Y475491D01*
X349420Y475501D01*
D02*
G37*
G36*
X329336Y475590D02*
X329296D01*
X329206Y475580D01*
X329126Y475570D01*
X329046Y475541D01*
X328986Y475510D01*
X328936Y475481D01*
X328896Y475461D01*
X328876Y475441D01*
X328866Y475431D01*
X328807Y475361D01*
X328747Y475291D01*
X328657Y475141D01*
X328617Y475071D01*
X328597Y475021D01*
X328577Y474981D01*
Y474972D01*
X328537Y474862D01*
X328507Y474742D01*
X328477Y474622D01*
X328457Y474512D01*
X328437Y474422D01*
X328427Y474343D01*
X328417Y474293D01*
Y474273D01*
X328377Y473963D01*
X328367Y473814D01*
Y473674D01*
X328357Y473554D01*
Y473454D01*
Y473394D01*
Y473384D01*
Y473374D01*
Y473195D01*
X328367Y473025D01*
X328377Y472875D01*
X328387Y472746D01*
X328397Y472636D01*
X328407Y472546D01*
X328417Y472496D01*
Y472476D01*
X328437Y472336D01*
X328467Y472196D01*
X328487Y472077D01*
X328517Y471977D01*
X328537Y471897D01*
X328557Y471827D01*
X328567Y471787D01*
X328577Y471777D01*
X328617Y471677D01*
X328667Y471587D01*
X328717Y471508D01*
X328767Y471448D01*
X328807Y471398D01*
X328837Y471358D01*
X328857Y471338D01*
X328866Y471328D01*
X328936Y471278D01*
X329006Y471238D01*
X329076Y471208D01*
X329146Y471188D01*
X329206Y471178D01*
X329256Y471168D01*
X329296D01*
X329385Y471178D01*
X329465Y471198D01*
X329545Y471218D01*
X329605Y471248D01*
X329655Y471278D01*
X329695Y471308D01*
X329715Y471318D01*
X329725Y471328D01*
X329785Y471398D01*
X329845Y471468D01*
X329944Y471618D01*
X329975Y471677D01*
X330004Y471727D01*
X330014Y471767D01*
X330024Y471777D01*
X330094Y472017D01*
X330124Y472127D01*
X330144Y472236D01*
X330164Y472336D01*
X330174Y472406D01*
X330184Y472456D01*
Y472476D01*
X330214Y472785D01*
X330224Y472945D01*
Y473075D01*
X330234Y473195D01*
Y473294D01*
Y473354D01*
Y473364D01*
Y473374D01*
Y473554D01*
X330224Y473724D01*
X330214Y473873D01*
X330204Y474013D01*
Y474123D01*
X330194Y474203D01*
X330184Y474253D01*
Y474273D01*
X330164Y474422D01*
X330134Y474552D01*
X330114Y474672D01*
X330084Y474772D01*
X330064Y474862D01*
X330044Y474922D01*
X330024Y474962D01*
Y474972D01*
X329975Y475081D01*
X329925Y475171D01*
X329875Y475251D01*
X329825Y475311D01*
X329785Y475361D01*
X329755Y475401D01*
X329735Y475421D01*
X329725Y475431D01*
X329655Y475481D01*
X329585Y475521D01*
X329505Y475550D01*
X329445Y475570D01*
X329385Y475580D01*
X329336Y475590D01*
D02*
G37*
G36*
X387761Y464650D02*
X387711D01*
Y463282D01*
X387791Y463252D01*
X387881Y463232D01*
X387921Y463223D01*
X387961D01*
X387981Y463213D01*
X387991D01*
X388121Y463203D01*
X388241Y463192D01*
X388350D01*
X388510Y463203D01*
X388650Y463223D01*
X388770Y463242D01*
X388870Y463282D01*
X388949Y463312D01*
X388999Y463332D01*
X389039Y463352D01*
X389049Y463362D01*
X389129Y463432D01*
X389179Y463512D01*
X389219Y463602D01*
X389249Y463682D01*
X389269Y463751D01*
X389279Y463811D01*
Y463851D01*
Y463861D01*
X389269Y463951D01*
X389259Y464031D01*
X389239Y464101D01*
X389209Y464151D01*
X389189Y464201D01*
X389169Y464231D01*
X389159Y464251D01*
X389149Y464261D01*
X389039Y464360D01*
X388929Y464430D01*
X388879Y464460D01*
X388839Y464480D01*
X388820Y464490D01*
X388810D01*
X388640Y464550D01*
X388490Y464580D01*
X388420Y464590D01*
X388370Y464600D01*
X388320D01*
X388101Y464620D01*
X388001Y464630D01*
X387911Y464640D01*
X387831D01*
X387761Y464650D01*
D02*
G37*
G36*
X378328Y467525D02*
X378308D01*
Y467495D01*
Y467465D01*
Y467365D01*
X378318Y467325D01*
Y467285D01*
Y467255D01*
Y467245D01*
X378328Y467076D01*
Y466986D01*
Y466906D01*
Y466836D01*
Y466786D01*
Y466746D01*
Y466736D01*
Y464790D01*
X380085D01*
X378718Y466836D01*
X378678Y466896D01*
X378638Y466956D01*
X378618Y466996D01*
X378608Y467016D01*
X378568Y467096D01*
X378528Y467165D01*
X378498Y467205D01*
X378488Y467225D01*
X378448Y467295D01*
X378418Y467355D01*
X378398Y467395D01*
X378388Y467405D01*
X378358Y467455D01*
X378338Y467495D01*
X378328Y467515D01*
Y467525D01*
D02*
G37*
G36*
X383609Y466167D02*
X383449D01*
X383349Y466157D01*
X383319Y466147D01*
X383289D01*
X383269Y466137D01*
X383260D01*
X383160Y466117D01*
X383080Y466097D01*
X383040Y466087D01*
X383030Y466077D01*
Y463362D01*
X383100Y463332D01*
X383170Y463312D01*
X383229Y463302D01*
X383250Y463292D01*
X383260D01*
X383369Y463282D01*
X383469Y463272D01*
X383559D01*
X383739Y463292D01*
X383908Y463332D01*
X384038Y463392D01*
X384158Y463462D01*
X384248Y463532D01*
X384318Y463592D01*
X384357Y463632D01*
X384367Y463652D01*
X384457Y463811D01*
X384527Y463981D01*
X384577Y464161D01*
X384607Y464330D01*
X384627Y464480D01*
X384637Y464550D01*
X384647Y464610D01*
Y464650D01*
Y464690D01*
Y464710D01*
Y464720D01*
X384637Y464949D01*
X384607Y465149D01*
X384557Y465329D01*
X384507Y465478D01*
X384457Y465598D01*
X384407Y465688D01*
X384378Y465738D01*
X384367Y465758D01*
X384248Y465898D01*
X384118Y465998D01*
X383988Y466067D01*
X383858Y466117D01*
X383739Y466147D01*
X383649Y466157D01*
X383609Y466167D01*
D02*
G37*
G36*
X356837Y467724D02*
X356797D01*
X356707Y467715D01*
X356627Y467705D01*
X356547Y467674D01*
X356487Y467645D01*
X356437Y467615D01*
X356397Y467595D01*
X356377Y467575D01*
X356367Y467565D01*
X356307Y467495D01*
X356248Y467425D01*
X356158Y467275D01*
X356118Y467205D01*
X356098Y467155D01*
X356078Y467116D01*
Y467105D01*
X356038Y466996D01*
X356008Y466876D01*
X355978Y466756D01*
X355958Y466646D01*
X355938Y466557D01*
X355928Y466477D01*
X355918Y466427D01*
Y466407D01*
X355878Y466097D01*
X355868Y465948D01*
Y465808D01*
X355858Y465688D01*
Y465588D01*
Y465528D01*
Y465518D01*
Y465508D01*
Y465329D01*
X355868Y465159D01*
X355878Y465009D01*
X355888Y464879D01*
X355898Y464770D01*
X355908Y464680D01*
X355918Y464630D01*
Y464610D01*
X355938Y464470D01*
X355968Y464330D01*
X355988Y464211D01*
X356018Y464111D01*
X356038Y464031D01*
X356058Y463961D01*
X356068Y463921D01*
X356078Y463911D01*
X356118Y463811D01*
X356168Y463722D01*
X356218Y463642D01*
X356268Y463582D01*
X356307Y463532D01*
X356338Y463492D01*
X356357Y463472D01*
X356367Y463462D01*
X356437Y463412D01*
X356507Y463372D01*
X356577Y463342D01*
X356647Y463322D01*
X356707Y463312D01*
X356757Y463302D01*
X356797D01*
X356886Y463312D01*
X356966Y463332D01*
X357046Y463352D01*
X357106Y463382D01*
X357156Y463412D01*
X357196Y463442D01*
X357216Y463452D01*
X357226Y463462D01*
X357286Y463532D01*
X357346Y463602D01*
X357445Y463751D01*
X357475Y463811D01*
X357505Y463861D01*
X357515Y463901D01*
X357525Y463911D01*
X357595Y464151D01*
X357625Y464261D01*
X357645Y464370D01*
X357665Y464470D01*
X357675Y464540D01*
X357685Y464590D01*
Y464610D01*
X357715Y464919D01*
X357725Y465079D01*
Y465209D01*
X357735Y465329D01*
Y465429D01*
Y465488D01*
Y465498D01*
Y465508D01*
Y465688D01*
X357725Y465858D01*
X357715Y466007D01*
X357705Y466147D01*
Y466257D01*
X357695Y466337D01*
X357685Y466387D01*
Y466407D01*
X357665Y466557D01*
X357635Y466686D01*
X357615Y466806D01*
X357585Y466906D01*
X357565Y466996D01*
X357545Y467056D01*
X357525Y467096D01*
Y467105D01*
X357475Y467215D01*
X357425Y467305D01*
X357376Y467385D01*
X357326Y467445D01*
X357286Y467495D01*
X357256Y467535D01*
X357236Y467555D01*
X357226Y467565D01*
X357156Y467615D01*
X357086Y467655D01*
X357006Y467685D01*
X356946Y467705D01*
X356886Y467715D01*
X356837Y467724D01*
D02*
G37*
G36*
X341148Y370948D02*
X341097D01*
X341059D01*
X341033D01*
X341021D01*
X340843Y370935D01*
X340665Y370910D01*
X340513Y370872D01*
X340386Y370834D01*
X340284Y370796D01*
X340195Y370757D01*
X340144Y370732D01*
X340132Y370719D01*
X340005Y370630D01*
X339890Y370529D01*
X339789Y370427D01*
X339712Y370326D01*
X339649Y370237D01*
X339611Y370173D01*
X339585Y370122D01*
X339573Y370110D01*
X339522Y369957D01*
X339484Y369780D01*
X339446Y369589D01*
X339433Y369411D01*
X339420Y369246D01*
X339408Y369119D01*
Y366757D01*
X342595D01*
Y369246D01*
X342583Y369538D01*
X342532Y369805D01*
X342468Y370021D01*
X342392Y370199D01*
X342303Y370338D01*
X342240Y370440D01*
X342189Y370491D01*
X342176Y370516D01*
X342011Y370656D01*
X341821Y370770D01*
X341630Y370846D01*
X341440Y370897D01*
X341275Y370923D01*
X341148Y370948D01*
D02*
G37*
G36*
X341675Y392176D02*
X337344D01*
Y389687D01*
X341675Y392176D01*
D02*
G37*
G36*
X341065Y386740D02*
X341014D01*
X340976D01*
X340951D01*
X340938D01*
X340760Y386728D01*
X340583Y386702D01*
X340430Y386664D01*
X340303Y386626D01*
X340201Y386588D01*
X340113Y386550D01*
X340062Y386525D01*
X340049Y386512D01*
X339922Y386423D01*
X339808Y386321D01*
X339706Y386220D01*
X339630Y386118D01*
X339566Y386029D01*
X339528Y385966D01*
X339503Y385915D01*
X339490Y385902D01*
X339440Y385750D01*
X339401Y385572D01*
X339363Y385382D01*
X339351Y385204D01*
X339338Y385039D01*
X339325Y384912D01*
Y382549D01*
X342513D01*
Y385039D01*
X342500Y385331D01*
X342449Y385597D01*
X342386Y385813D01*
X342310Y385991D01*
X342221Y386131D01*
X342157Y386232D01*
X342107Y386283D01*
X342094Y386309D01*
X341929Y386448D01*
X341738Y386563D01*
X341548Y386639D01*
X341357Y386690D01*
X341192Y386715D01*
X341065Y386740D01*
D02*
G37*
%LPD*%
D32*
X390000Y278182D02*
G03*
X360000Y308182I-30000J0D01*
G01*
X299425D02*
G03*
X287227Y304032I0J-20000D01*
G01*
X360000Y248182D02*
G03*
X390000Y278182I0J30000D01*
G01*
X301573Y248182D02*
G03*
X281768Y230965I0J-20000D01*
G01*
X234389Y263367D02*
G03*
X222978Y243768I18297J-23774D01*
G01*
X210452Y154644D02*
G03*
X269868Y146293I29708J-4175D01*
G01*
X352240Y308182D02*
X389185Y271237D01*
X337872Y308182D02*
X384781Y261273D01*
X323504Y308182D02*
X377715Y253971D01*
X309135Y308182D02*
X368038Y249279D01*
X367583Y307208D02*
X389026Y285765D01*
X363590Y248397D02*
X389784Y274592D01*
X299425Y308182D02*
X360000D01*
X295215Y307734D02*
X354767Y248182D01*
X285714Y302867D02*
X340398Y248182D01*
X277594Y296618D02*
X326030Y248182D01*
X301573D02*
X360000D01*
X269475Y290369D02*
X311662Y248182D01*
X334638D02*
X383405Y296949D01*
X334638Y248182D02*
X383405Y296949D01*
X305901Y248182D02*
X365409Y307690D01*
X320269Y248182D02*
X375782Y303695D01*
X349006Y248182D02*
X388469Y287644D01*
X261355Y284120D02*
X297677Y247799D01*
X253235Y277871D02*
X288123Y242983D01*
X245116Y271623D02*
X282509Y234229D01*
X269868Y146293D02*
X281768Y230965D01*
X252842Y123281D02*
X267348Y137787D01*
X245116Y271622D02*
X282509Y234229D01*
X219538Y219292D02*
X308427Y308182D01*
X217188Y202574D02*
X322796Y308182D01*
X214839Y185856D02*
X337164Y308182D01*
X212489Y169139D02*
X351532Y308182D01*
X234389Y263367D02*
X287227Y304032D01*
X236996Y265374D02*
X280491Y221879D01*
X221887Y236010D02*
X292998Y307121D01*
X227688Y256180D02*
X236502Y264993D01*
X229442Y258559D02*
X278720Y209281D01*
X224308Y249325D02*
X276950Y196683D01*
X222056Y237209D02*
X275179Y184085D01*
X220285Y224611D02*
X273409Y171487D01*
X218515Y212013D02*
X271638Y158889D01*
X217391Y130935D02*
X275938Y189482D01*
X217391Y130935D02*
X275938Y189482D01*
X210230Y152511D02*
X280637Y222918D01*
X212057Y139970D02*
X278288Y206200D01*
X225257Y124432D02*
X273588Y172764D01*
X235957Y120764D02*
X271239Y156046D01*
X216744Y199415D02*
X269868Y146292D01*
X214974Y186817D02*
X266207Y135584D01*
X210452Y154644D02*
X222978Y243768D01*
X213203Y174219D02*
X259710Y127713D01*
X211433Y161621D02*
X250681Y122374D01*
X210228Y148458D02*
X238150Y120536D01*
D79*
X167993Y70142D02*
Y73142D01*
X198993Y70142D02*
Y73142D01*
X167993D02*
X198993D01*
X167993Y70142D02*
X198993D01*
X456493Y254142D02*
X490493D01*
X456493Y304142D02*
X490493D01*
X456493Y254142D02*
Y304142D01*
X490493Y254142D02*
Y304142D01*
X475274Y335574D02*
X484255Y326593D01*
X533399Y375737D02*
X544783Y387122D01*
X505892Y348231D02*
X519327Y361666D01*
X484255Y326593D02*
X487507Y329846D01*
X483972Y447932D02*
X544783Y387122D01*
X423444Y387404D02*
X426696Y390657D01*
X445081Y409042D02*
X458516Y422477D01*
X472588Y436548D02*
X483972Y447932D01*
X423444Y387404D02*
X432424Y378424D01*
X178535Y3926D02*
X188695Y3926D01*
X178535Y42026D02*
X188695Y42026D01*
X126993Y116142D02*
X129993D01*
X126993Y147142D02*
X129993D01*
X126993Y116142D02*
Y147142D01*
X129993Y116142D02*
Y147142D01*
X114527Y73522D02*
Y83682D01*
X152627Y73522D02*
Y83682D01*
X300406Y394716D02*
X331394D01*
Y363474D02*
Y394716D01*
X300406Y363474D02*
X331394D01*
X300406D02*
Y394716D01*
D80*
X344243Y194642D02*
G03*
X344243Y194642I-1250J0D01*
G01*
X166243Y83642D02*
G03*
X166243Y83642I-1250J0D01*
G01*
X484000Y162910D02*
G03*
X484000Y162910I-1250J0D01*
G01*
X502993Y307642D02*
G03*
X502993Y307642I-1250J0D01*
G01*
X117743Y113142D02*
G03*
X117743Y113142I-1250J0D01*
G01*
X134586Y242790D02*
G03*
X134586Y242790I-1250J0D01*
G01*
X174243Y192142D02*
G03*
X174243Y192142I-1250J0D01*
G01*
X295243Y133642D02*
G03*
X295243Y133642I-1250J0D01*
G01*
D82*
X203226Y291132D02*
X214002Y301909D01*
X222983Y271376D02*
X233759Y282152D01*
X226575Y303705D02*
X235555Y294725D01*
X201430Y278560D02*
X210410Y269580D01*
M02*
