G04*
G04 #@! TF.GenerationSoftware,Altium Limited,Altium Designer,23.4.1 (23)*
G04*
G04 Layer_Color=32896*
%FSLAX44Y44*%
%MOMM*%
G71*
G04*
G04 #@! TF.SameCoordinates,AB80FC79-285A-43AE-8B4E-7A9897C75676*
G04*
G04*
G04 #@! TF.FilePolarity,Positive*
G04*
G01*
G75*
%ADD29C,0.2032*%
%ADD75C,0.2000*%
%ADD77C,0.2500*%
%ADD80C,0.1000*%
G36*
X228538Y402690D02*
X230285Y399565D01*
X228987D01*
X227839Y401762D01*
X227829D01*
X226691Y399565D01*
X225393D01*
X227140Y402690D01*
X225523Y405605D01*
X226811D01*
X227829Y403628D01*
X227839D01*
X228867Y405605D01*
X230155D01*
X228538Y402690D01*
D02*
G37*
G36*
X234337Y404626D02*
X233050D01*
Y399565D01*
X231872D01*
Y404626D01*
X230604D01*
Y405605D01*
X234337D01*
Y404626D01*
D02*
G37*
G36*
X218406Y399565D02*
X215191D01*
Y400544D01*
X217258D01*
Y402141D01*
X215391D01*
Y403109D01*
X217258D01*
Y404626D01*
X215191D01*
Y405605D01*
X218406D01*
Y399565D01*
D02*
G37*
G36*
X214253D02*
X211199D01*
Y400544D01*
X213075D01*
Y405605D01*
X214253D01*
Y399565D01*
D02*
G37*
G36*
X221071Y405704D02*
X221231Y405695D01*
X221371Y405675D01*
X221490Y405654D01*
X221590Y405625D01*
X221660Y405605D01*
X221710Y405595D01*
X221730Y405585D01*
X221860Y405535D01*
X221979Y405475D01*
X222079Y405415D01*
X222169Y405355D01*
X222249Y405295D01*
X222299Y405255D01*
X222339Y405225D01*
X222349Y405215D01*
X222439Y405126D01*
X222518Y405036D01*
X222578Y404936D01*
X222638Y404846D01*
X222678Y404776D01*
X222708Y404716D01*
X222728Y404666D01*
X222738Y404656D01*
X222788Y404526D01*
X222818Y404407D01*
X222848Y404277D01*
X222858Y404167D01*
X222868Y404067D01*
X222878Y403988D01*
Y403938D01*
Y403918D01*
X222868Y403758D01*
X222848Y403608D01*
X222828Y403478D01*
X222788Y403369D01*
X222758Y403279D01*
X222738Y403219D01*
X222718Y403169D01*
X222708Y403159D01*
X222638Y403049D01*
X222558Y402949D01*
X222488Y402869D01*
X222419Y402790D01*
X222359Y402730D01*
X222309Y402690D01*
X222279Y402660D01*
X222269Y402650D01*
X222069Y402510D01*
X221979Y402440D01*
X221889Y402390D01*
X221820Y402350D01*
X221760Y402321D01*
X221720Y402300D01*
X221710Y402290D01*
X221490Y402191D01*
X221390Y402141D01*
X221311Y402091D01*
X221241Y402061D01*
X221191Y402031D01*
X221151Y402011D01*
X221141Y402001D01*
X221051Y401951D01*
X220961Y401891D01*
X220891Y401841D01*
X220831Y401791D01*
X220781Y401741D01*
X220742Y401712D01*
X220722Y401692D01*
X220712Y401682D01*
X220652Y401612D01*
X220612Y401542D01*
X220572Y401472D01*
X220552Y401402D01*
X220542Y401342D01*
X220532Y401292D01*
Y401262D01*
Y401252D01*
X220542Y401133D01*
X220572Y401033D01*
X220612Y400943D01*
X220652Y400863D01*
X220702Y400803D01*
X220742Y400763D01*
X220772Y400733D01*
X220781Y400723D01*
X220881Y400653D01*
X220991Y400603D01*
X221101Y400574D01*
X221201Y400554D01*
X221301Y400534D01*
X221381Y400524D01*
X221450D01*
X221660Y400534D01*
X221760Y400554D01*
X221850Y400564D01*
X221919Y400584D01*
X221979Y400594D01*
X222019Y400603D01*
X222029D01*
X222229Y400673D01*
X222319Y400703D01*
X222399Y400733D01*
X222468Y400763D01*
X222518Y400783D01*
X222548Y400803D01*
X222558D01*
X222948Y399785D01*
X222688Y399675D01*
X222558Y399635D01*
X222449Y399605D01*
X222349Y399575D01*
X222279Y399555D01*
X222229Y399545D01*
X222209D01*
X221910Y399496D01*
X221770Y399486D01*
X221650Y399476D01*
X221540Y399466D01*
X221390D01*
X221211Y399476D01*
X221051Y399486D01*
X220901Y399506D01*
X220772Y399535D01*
X220672Y399555D01*
X220592Y399575D01*
X220542Y399585D01*
X220522Y399595D01*
X220382Y399645D01*
X220252Y399705D01*
X220143Y399775D01*
X220053Y399835D01*
X219973Y399885D01*
X219923Y399935D01*
X219883Y399965D01*
X219873Y399975D01*
X219773Y400075D01*
X219694Y400174D01*
X219624Y400264D01*
X219564Y400354D01*
X219524Y400434D01*
X219494Y400494D01*
X219474Y400544D01*
X219464Y400554D01*
X219414Y400683D01*
X219384Y400813D01*
X219354Y400943D01*
X219344Y401063D01*
X219334Y401162D01*
X219324Y401242D01*
Y401292D01*
Y401312D01*
X219334Y401472D01*
X219354Y401622D01*
X219384Y401752D01*
X219414Y401851D01*
X219444Y401941D01*
X219474Y402011D01*
X219494Y402051D01*
X219504Y402061D01*
X219574Y402171D01*
X219644Y402271D01*
X219713Y402350D01*
X219783Y402430D01*
X219853Y402490D01*
X219893Y402530D01*
X219933Y402560D01*
X219943Y402570D01*
X220143Y402720D01*
X220233Y402780D01*
X220322Y402840D01*
X220402Y402879D01*
X220462Y402909D01*
X220502Y402929D01*
X220512Y402939D01*
X220732Y403049D01*
X220831Y403099D01*
X220921Y403149D01*
X220991Y403179D01*
X221041Y403209D01*
X221081Y403229D01*
X221091Y403239D01*
X221271Y403349D01*
X221341Y403409D01*
X221410Y403459D01*
X221460Y403498D01*
X221500Y403528D01*
X221520Y403548D01*
X221530Y403558D01*
X221590Y403628D01*
X221630Y403698D01*
X221660Y403768D01*
X221680Y403838D01*
X221690Y403898D01*
X221700Y403948D01*
Y403978D01*
Y403988D01*
X221690Y404097D01*
X221670Y404207D01*
X221630Y404287D01*
X221590Y404367D01*
X221550Y404417D01*
X221510Y404467D01*
X221490Y404487D01*
X221480Y404497D01*
X221390Y404566D01*
X221291Y404616D01*
X221181Y404646D01*
X221081Y404676D01*
X221001Y404686D01*
X220921Y404696D01*
X220861D01*
X220662Y404686D01*
X220572Y404676D01*
X220492Y404666D01*
X220422Y404646D01*
X220372Y404636D01*
X220342Y404626D01*
X220332D01*
X220153Y404566D01*
X220073Y404537D01*
X220013Y404507D01*
X219953Y404477D01*
X219913Y404457D01*
X219883Y404447D01*
X219873Y404437D01*
X219504Y405385D01*
X219723Y405495D01*
X219833Y405535D01*
X219933Y405565D01*
X220013Y405595D01*
X220083Y405615D01*
X220123Y405625D01*
X220143D01*
X220412Y405675D01*
X220542Y405695D01*
X220662Y405704D01*
X220762Y405714D01*
X220911D01*
X221071Y405704D01*
D02*
G37*
G36*
X289718Y470350D02*
X288590D01*
Y473863D01*
X288480Y473913D01*
X288380Y473953D01*
X288340Y473963D01*
X288310Y473973D01*
X288291Y473983D01*
X288281D01*
X288151Y474013D01*
X288041Y474023D01*
X287991Y474033D01*
X287931D01*
X287791Y474023D01*
X287672Y474003D01*
X287572Y473973D01*
X287482Y473943D01*
X287422Y473903D01*
X287372Y473873D01*
X287342Y473853D01*
X287332Y473843D01*
X287262Y473764D01*
X287202Y473684D01*
X287162Y473584D01*
X287143Y473494D01*
X287123Y473414D01*
X287113Y473344D01*
Y473304D01*
Y473284D01*
Y470350D01*
X285975D01*
Y473404D01*
Y473534D01*
X285995Y473664D01*
X286045Y473893D01*
X286114Y474083D01*
X286194Y474243D01*
X286274Y474373D01*
X286344Y474462D01*
X286394Y474512D01*
X286404Y474532D01*
X286414D01*
X286593Y474662D01*
X286783Y474762D01*
X286993Y474832D01*
X287192Y474872D01*
X287362Y474902D01*
X287442Y474912D01*
X287512D01*
X287562Y474922D01*
X287642D01*
X287821Y474912D01*
X287911Y474902D01*
X287981Y474892D01*
X288051Y474882D01*
X288101Y474872D01*
X288131Y474862D01*
X288141D01*
X288320Y474812D01*
X288390Y474792D01*
X288460Y474762D01*
X288510Y474742D01*
X288550Y474732D01*
X288580Y474712D01*
X288590D01*
Y476908D01*
X289718D01*
Y470350D01*
D02*
G37*
G36*
X236453Y476269D02*
X236583Y476179D01*
X236633Y476139D01*
X236672Y476110D01*
X236702Y476090D01*
X236712Y476079D01*
X236882Y475970D01*
X236972Y475930D01*
X237052Y475890D01*
X237112Y475860D01*
X237162Y475830D01*
X237202Y475820D01*
X237212Y475810D01*
X237411Y475730D01*
X237511Y475700D01*
X237601Y475670D01*
X237681Y475640D01*
X237741Y475630D01*
X237781Y475610D01*
X237791D01*
X238010Y475560D01*
X238110Y475531D01*
X238200Y475521D01*
X238280Y475500D01*
X238340Y475491D01*
X238379Y475481D01*
X238389D01*
X238220Y474612D01*
X238060Y474642D01*
X237920Y474672D01*
X237860Y474682D01*
X237820Y474692D01*
X237791Y474702D01*
X237781D01*
X237611Y474742D01*
X237541Y474762D01*
X237471Y474772D01*
X237421Y474792D01*
X237381Y474802D01*
X237351Y474812D01*
X237341D01*
X237182Y474862D01*
X237112Y474882D01*
X237052Y474902D01*
X236992Y474922D01*
X236952Y474941D01*
X236932Y474952D01*
X236922D01*
X236782Y475011D01*
X236672Y475061D01*
X236633Y475081D01*
X236603Y475101D01*
X236593Y475111D01*
X236583D01*
Y470350D01*
X235425D01*
Y476389D01*
X236333D01*
X236453Y476269D01*
D02*
G37*
G36*
X298143Y474932D02*
X298303Y474922D01*
X298442Y474902D01*
X298562Y474882D01*
X298652Y474862D01*
X298712Y474852D01*
X298722Y474842D01*
X298732D01*
X298892Y474802D01*
X299031Y474762D01*
X299161Y474732D01*
X299261Y474692D01*
X299351Y474662D01*
X299411Y474642D01*
X299451Y474632D01*
X299461Y474622D01*
X299181Y473853D01*
X299091Y473893D01*
X299001Y473913D01*
X298932Y473933D01*
X298922Y473943D01*
X298911D01*
X298792Y473983D01*
X298692Y474003D01*
X298652Y474023D01*
X298622D01*
X298602Y474033D01*
X298592D01*
X298462Y474063D01*
X298363Y474083D01*
X298313D01*
X298283Y474093D01*
X298253D01*
X298123Y474113D01*
X298013Y474123D01*
X297913D01*
X297774Y474113D01*
X297654Y474103D01*
X297554Y474073D01*
X297464Y474053D01*
X297394Y474023D01*
X297344Y473993D01*
X297314Y473983D01*
X297304Y473973D01*
X297225Y473913D01*
X297175Y473834D01*
X297135Y473754D01*
X297105Y473674D01*
X297085Y473594D01*
X297075Y473534D01*
Y473494D01*
Y473474D01*
Y473245D01*
X297264Y473235D01*
X297444Y473215D01*
X297614Y473195D01*
X297764Y473175D01*
X297883Y473165D01*
X297983Y473145D01*
X298043Y473135D01*
X298063D01*
X298233Y473105D01*
X298393Y473065D01*
X298532Y473025D01*
X298662Y472985D01*
X298762Y472955D01*
X298832Y472925D01*
X298882Y472905D01*
X298902Y472895D01*
X299031Y472835D01*
X299151Y472756D01*
X299251Y472686D01*
X299331Y472616D01*
X299401Y472546D01*
X299451Y472496D01*
X299480Y472456D01*
X299491Y472446D01*
X299560Y472326D01*
X299620Y472206D01*
X299660Y472087D01*
X299680Y471967D01*
X299700Y471857D01*
X299710Y471777D01*
Y471717D01*
Y471707D01*
Y471697D01*
X299700Y471568D01*
X299690Y471458D01*
X299630Y471238D01*
X299550Y471059D01*
X299461Y470909D01*
X299371Y470789D01*
X299291Y470699D01*
X299231Y470649D01*
X299221Y470629D01*
X299211D01*
X299111Y470559D01*
X299001Y470499D01*
X298762Y470410D01*
X298502Y470340D01*
X298253Y470300D01*
X298143Y470280D01*
X298033Y470270D01*
X297933Y470260D01*
X297853D01*
X297784Y470250D01*
X297494D01*
X297314Y470270D01*
X297155Y470280D01*
X297005Y470300D01*
X296885Y470320D01*
X296795Y470330D01*
X296735Y470350D01*
X296716D01*
X296546Y470390D01*
X296406Y470420D01*
X296286Y470460D01*
X296176Y470490D01*
X296097Y470519D01*
X296047Y470549D01*
X296007Y470559D01*
X295997Y470569D01*
Y473344D01*
Y473504D01*
X296017Y473644D01*
X296037Y473774D01*
X296067Y473903D01*
X296106Y474013D01*
X296147Y474113D01*
X296186Y474203D01*
X296226Y474283D01*
X296276Y474353D01*
X296316Y474412D01*
X296396Y474502D01*
X296446Y474552D01*
X296456Y474572D01*
X296466D01*
X296656Y474702D01*
X296875Y474792D01*
X297095Y474862D01*
X297304Y474902D01*
X297494Y474932D01*
X297584Y474942D01*
X297654D01*
X297714Y474952D01*
X297973D01*
X298143Y474932D01*
D02*
G37*
G36*
X259382Y472576D02*
X256986D01*
Y473544D01*
X259382D01*
Y472576D01*
D02*
G37*
G36*
X242272Y470350D02*
X241025D01*
X239168Y476389D01*
X240446Y476389D01*
X241464Y472456D01*
X241514Y472256D01*
X241534Y472166D01*
X241554Y472087D01*
X241564Y472017D01*
X241574Y471967D01*
X241584Y471937D01*
Y471927D01*
X241594Y471847D01*
X241614Y471777D01*
X241624Y471717D01*
Y471667D01*
X241634Y471628D01*
X241644Y471608D01*
Y471598D01*
Y471588D01*
X241664D01*
X241674Y471628D01*
X241684Y471677D01*
X241694Y471717D01*
Y471727D01*
X241704Y471807D01*
X241714Y471877D01*
X241723Y471927D01*
Y471937D01*
Y471947D01*
X241744Y472037D01*
X241754Y472117D01*
X241763Y472177D01*
X241773Y472187D01*
Y472197D01*
X241793Y472296D01*
X241813Y472376D01*
X241823Y472436D01*
X241833Y472446D01*
Y472456D01*
X242852Y476389D01*
X244129D01*
X242272Y470350D01*
D02*
G37*
G36*
X307007Y475850D02*
Y474852D01*
X307586D01*
Y473993D01*
X307007D01*
Y471697D01*
X306997Y471448D01*
X306957Y471238D01*
X306907Y471049D01*
X306847Y470899D01*
X306798Y470789D01*
X306748Y470709D01*
X306708Y470659D01*
X306698Y470639D01*
X306568Y470519D01*
X306418Y470440D01*
X306258Y470380D01*
X306099Y470330D01*
X305949Y470310D01*
X305839Y470300D01*
X305789Y470290D01*
X305729D01*
X305580Y470300D01*
X305460Y470310D01*
X305410D01*
X305370Y470320D01*
X305340D01*
X305210Y470350D01*
X305121Y470370D01*
X305071Y470390D01*
X305051Y470400D01*
Y471348D01*
X305091Y471328D01*
X305140Y471308D01*
X305170Y471298D01*
X305190D01*
X305260Y471288D01*
X305310Y471278D01*
X305370D01*
X305450Y471288D01*
X305520Y471298D01*
X305580Y471318D01*
X305639Y471338D01*
X305679Y471358D01*
X305709Y471368D01*
X305729Y471388D01*
X305739D01*
X305789Y471438D01*
X305829Y471498D01*
X305849Y471558D01*
X305869Y471628D01*
X305879Y471687D01*
X305889Y471727D01*
Y471767D01*
Y471777D01*
Y473993D01*
X305051D01*
Y474852D01*
X305889D01*
Y476179D01*
X307007Y475850D01*
D02*
G37*
G36*
X292493D02*
Y474852D01*
X293072D01*
Y473993D01*
X292493D01*
Y471697D01*
X292483Y471448D01*
X292443Y471238D01*
X292393Y471049D01*
X292333Y470899D01*
X292283Y470789D01*
X292234Y470709D01*
X292194Y470659D01*
X292183Y470639D01*
X292054Y470519D01*
X291904Y470440D01*
X291744Y470380D01*
X291585Y470330D01*
X291435Y470310D01*
X291325Y470300D01*
X291275Y470290D01*
X291215D01*
X291066Y470300D01*
X290946Y470310D01*
X290896D01*
X290856Y470320D01*
X290826D01*
X290696Y470350D01*
X290606Y470370D01*
X290556Y470390D01*
X290536Y470400D01*
Y471348D01*
X290576Y471328D01*
X290626Y471308D01*
X290656Y471298D01*
X290676D01*
X290746Y471288D01*
X290796Y471278D01*
X290856D01*
X290936Y471288D01*
X291006Y471298D01*
X291066Y471318D01*
X291125Y471338D01*
X291165Y471358D01*
X291195Y471368D01*
X291215Y471388D01*
X291225D01*
X291275Y471438D01*
X291315Y471498D01*
X291335Y471558D01*
X291355Y471628D01*
X291365Y471687D01*
X291375Y471727D01*
Y471767D01*
Y471777D01*
Y473993D01*
X290536D01*
Y474852D01*
X291375D01*
Y476179D01*
X292493Y475850D01*
D02*
G37*
G36*
X279806Y471917D02*
X279796Y471757D01*
X279786Y471608D01*
X279766Y471468D01*
X279726Y471338D01*
X279696Y471228D01*
X279656Y471118D01*
X279606Y471029D01*
X279566Y470949D01*
X279516Y470869D01*
X279476Y470809D01*
X279436Y470759D01*
X279396Y470719D01*
X279346Y470659D01*
X279336Y470639D01*
X279326D01*
X279227Y470569D01*
X279127Y470509D01*
X278907Y470410D01*
X278668Y470350D01*
X278438Y470300D01*
X278228Y470270D01*
X278139Y470260D01*
X278059D01*
X277999Y470250D01*
X277909D01*
X277719Y470260D01*
X277630D01*
X277560Y470270D01*
X277490D01*
X277440Y470280D01*
X277400D01*
X277210Y470300D01*
X277130Y470310D01*
X277061Y470320D01*
X277001Y470330D01*
X276951D01*
X276921Y470340D01*
X276911D01*
X276741Y470370D01*
X276661Y470390D01*
X276601Y470410D01*
X276551Y470420D01*
X276502Y470430D01*
X276481Y470440D01*
X276472D01*
X276332Y470490D01*
X276212Y470529D01*
X276172Y470549D01*
X276142Y470559D01*
X276122Y470569D01*
X276112D01*
Y474852D01*
X277250D01*
Y471278D01*
X277340Y471248D01*
X277430Y471228D01*
X277470Y471218D01*
X277500D01*
X277520Y471208D01*
X277530D01*
X277659Y471188D01*
X277779Y471178D01*
X277909D01*
X278049Y471188D01*
X278158Y471208D01*
X278268Y471248D01*
X278348Y471288D01*
X278428Y471338D01*
X278488Y471398D01*
X278538Y471468D01*
X278578Y471538D01*
X278638Y471667D01*
X278668Y471777D01*
Y471817D01*
X278678Y471857D01*
Y471877D01*
Y471887D01*
Y474852D01*
X279806D01*
Y471917D01*
D02*
G37*
G36*
X302485Y474942D02*
X302645Y474922D01*
X302795Y474892D01*
X302924Y474862D01*
X303034Y474832D01*
X303114Y474802D01*
X303164Y474782D01*
X303184Y474772D01*
X303324Y474702D01*
X303453Y474622D01*
X303563Y474542D01*
X303663Y474472D01*
X303733Y474403D01*
X303793Y474343D01*
X303833Y474303D01*
X303843Y474293D01*
X303933Y474173D01*
X304022Y474043D01*
X304092Y473923D01*
X304152Y473804D01*
X304192Y473704D01*
X304222Y473614D01*
X304242Y473564D01*
X304252Y473554D01*
Y473544D01*
X304302Y473384D01*
X304332Y473215D01*
X304362Y473055D01*
X304372Y472905D01*
X304382Y472785D01*
X304392Y472686D01*
Y472646D01*
Y472616D01*
Y472606D01*
Y472596D01*
X304382Y472406D01*
X304372Y472236D01*
X304352Y472077D01*
X304322Y471927D01*
X304292Y471817D01*
X304272Y471727D01*
X304262Y471667D01*
X304252Y471657D01*
Y471647D01*
X304192Y471488D01*
X304122Y471348D01*
X304042Y471218D01*
X303972Y471108D01*
X303913Y471019D01*
X303863Y470959D01*
X303823Y470909D01*
X303813Y470899D01*
X303703Y470789D01*
X303583Y470689D01*
X303463Y470609D01*
X303354Y470539D01*
X303254Y470490D01*
X303174Y470450D01*
X303124Y470430D01*
X303104Y470420D01*
X302944Y470360D01*
X302775Y470320D01*
X302615Y470290D01*
X302455Y470270D01*
X302325Y470260D01*
X302216Y470250D01*
X301946D01*
X301766Y470260D01*
X301607Y470280D01*
X301467Y470300D01*
X301357Y470310D01*
X301267Y470330D01*
X301207Y470340D01*
X301187D01*
X301028Y470380D01*
X300888Y470410D01*
X300768Y470450D01*
X300658Y470490D01*
X300569Y470519D01*
X300509Y470549D01*
X300469Y470559D01*
X300459Y470569D01*
X300788Y471418D01*
X300978Y471338D01*
X301078Y471298D01*
X301168Y471278D01*
X301247Y471248D01*
X301307Y471228D01*
X301347Y471218D01*
X301367D01*
X301607Y471168D01*
X301726Y471158D01*
X301826Y471148D01*
X301906Y471138D01*
X302036D01*
X302216Y471148D01*
X302385Y471178D01*
X302525Y471218D01*
X302645Y471258D01*
X302745Y471298D01*
X302815Y471338D01*
X302854Y471368D01*
X302875Y471378D01*
X302984Y471478D01*
X303074Y471598D01*
X303144Y471727D01*
X303204Y471847D01*
X303244Y471957D01*
X303264Y472047D01*
X303284Y472107D01*
Y472117D01*
Y472127D01*
X300389Y472516D01*
X300379Y472586D01*
X300369Y472646D01*
Y472686D01*
Y472706D01*
Y472905D01*
X300379Y473075D01*
X300389Y473225D01*
X300409Y473374D01*
X300429Y473494D01*
X300459Y473594D01*
X300479Y473674D01*
X300489Y473714D01*
X300499Y473734D01*
X300549Y473873D01*
X300609Y473993D01*
X300678Y474103D01*
X300738Y474203D01*
X300788Y474273D01*
X300838Y474333D01*
X300868Y474373D01*
X300878Y474383D01*
X300968Y474482D01*
X301068Y474562D01*
X301168Y474632D01*
X301267Y474692D01*
X301347Y474742D01*
X301417Y474772D01*
X301457Y474792D01*
X301477Y474802D01*
X301617Y474852D01*
X301756Y474892D01*
X301896Y474912D01*
X302026Y474932D01*
X302136Y474942D01*
X302226Y474952D01*
X302306D01*
X302485Y474942D01*
D02*
G37*
G36*
X265451D02*
X265611Y474922D01*
X265761Y474892D01*
X265890Y474862D01*
X266000Y474832D01*
X266080Y474802D01*
X266130Y474782D01*
X266150Y474772D01*
X266290Y474702D01*
X266420Y474622D01*
X266529Y474542D01*
X266629Y474472D01*
X266699Y474403D01*
X266759Y474343D01*
X266799Y474303D01*
X266809Y474293D01*
X266899Y474173D01*
X266989Y474043D01*
X267058Y473923D01*
X267118Y473804D01*
X267158Y473704D01*
X267188Y473614D01*
X267208Y473564D01*
X267218Y473554D01*
Y473544D01*
X267268Y473384D01*
X267298Y473215D01*
X267328Y473055D01*
X267338Y472905D01*
X267348Y472785D01*
X267358Y472686D01*
Y472646D01*
Y472616D01*
Y472606D01*
Y472596D01*
X267348Y472406D01*
X267338Y472236D01*
X267318Y472077D01*
X267288Y471927D01*
X267258Y471817D01*
X267238Y471727D01*
X267228Y471667D01*
X267218Y471657D01*
Y471647D01*
X267158Y471488D01*
X267088Y471348D01*
X267008Y471218D01*
X266939Y471108D01*
X266879Y471019D01*
X266829Y470959D01*
X266789Y470909D01*
X266779Y470899D01*
X266669Y470789D01*
X266549Y470689D01*
X266430Y470609D01*
X266320Y470539D01*
X266220Y470490D01*
X266140Y470450D01*
X266090Y470430D01*
X266070Y470420D01*
X265910Y470360D01*
X265741Y470320D01*
X265581Y470290D01*
X265421Y470270D01*
X265292Y470260D01*
X265182Y470250D01*
X264912D01*
X264732Y470260D01*
X264573Y470280D01*
X264433Y470300D01*
X264323Y470310D01*
X264233Y470330D01*
X264174Y470340D01*
X264153D01*
X263994Y470380D01*
X263854Y470410D01*
X263734Y470450D01*
X263624Y470490D01*
X263535Y470519D01*
X263475Y470549D01*
X263435Y470559D01*
X263425Y470569D01*
X263754Y471418D01*
X263944Y471338D01*
X264044Y471298D01*
X264134Y471278D01*
X264213Y471248D01*
X264273Y471228D01*
X264313Y471218D01*
X264333D01*
X264573Y471168D01*
X264693Y471158D01*
X264792Y471148D01*
X264872Y471138D01*
X265002D01*
X265182Y471148D01*
X265351Y471178D01*
X265491Y471218D01*
X265611Y471258D01*
X265711Y471298D01*
X265781Y471338D01*
X265821Y471368D01*
X265840Y471378D01*
X265950Y471478D01*
X266040Y471598D01*
X266110Y471727D01*
X266170Y471847D01*
X266210Y471957D01*
X266230Y472047D01*
X266250Y472107D01*
Y472117D01*
Y472127D01*
X263355Y472516D01*
X263345Y472586D01*
X263335Y472646D01*
Y472686D01*
Y472706D01*
Y472905D01*
X263345Y473075D01*
X263355Y473225D01*
X263375Y473374D01*
X263395Y473494D01*
X263425Y473594D01*
X263445Y473674D01*
X263455Y473714D01*
X263465Y473734D01*
X263515Y473873D01*
X263575Y473993D01*
X263644Y474103D01*
X263704Y474203D01*
X263754Y474273D01*
X263804Y474333D01*
X263834Y474373D01*
X263844Y474383D01*
X263934Y474482D01*
X264034Y474562D01*
X264134Y474632D01*
X264233Y474692D01*
X264313Y474742D01*
X264383Y474772D01*
X264423Y474792D01*
X264443Y474802D01*
X264583Y474852D01*
X264722Y474892D01*
X264862Y474912D01*
X264992Y474932D01*
X265102Y474942D01*
X265192Y474952D01*
X265271D01*
X265451Y474942D01*
D02*
G37*
G36*
X294969Y470350D02*
X293831D01*
Y476908D01*
X294969D01*
Y470350D01*
D02*
G37*
G36*
X273657Y474932D02*
X273826Y474922D01*
X273976Y474902D01*
X274106Y474882D01*
X274206Y474872D01*
X274265Y474852D01*
X274286D01*
X274455Y474812D01*
X274605Y474782D01*
X274745Y474742D01*
X274864Y474702D01*
X274954Y474672D01*
X275034Y474642D01*
X275074Y474632D01*
X275094Y474622D01*
Y470350D01*
X273966D01*
Y473933D01*
X273876Y473963D01*
X273796Y473983D01*
X273727Y474003D01*
X273706D01*
X273597Y474023D01*
X273497Y474033D01*
X273287D01*
X273197Y474023D01*
X273108Y474013D01*
X273038Y474003D01*
X272968Y473983D01*
X272928Y473973D01*
X272898Y473963D01*
X272888D01*
X272678Y474912D01*
X272768Y474922D01*
X272848D01*
X272908Y474932D01*
X272938D01*
X273048Y474942D01*
X273158Y474952D01*
X273457D01*
X273657Y474932D01*
D02*
G37*
G36*
X270572D02*
X270742Y474922D01*
X270891Y474902D01*
X271011Y474882D01*
X271101Y474872D01*
X271161Y474852D01*
X271181D01*
X271341Y474812D01*
X271481Y474782D01*
X271620Y474742D01*
X271740Y474702D01*
X271830Y474672D01*
X271910Y474642D01*
X271950Y474632D01*
X271970Y474622D01*
Y470350D01*
X270842D01*
Y473933D01*
X270742Y473963D01*
X270642Y473983D01*
X270602Y473993D01*
X270572Y474003D01*
X270542D01*
X270402Y474023D01*
X270283Y474033D01*
X270163D01*
X270023Y474023D01*
X269903Y474003D01*
X269793Y473973D01*
X269714Y473943D01*
X269644Y473903D01*
X269604Y473873D01*
X269574Y473853D01*
X269564Y473843D01*
X269494Y473764D01*
X269444Y473684D01*
X269414Y473594D01*
X269384Y473504D01*
X269374Y473434D01*
X269364Y473374D01*
Y473334D01*
Y473315D01*
Y470350D01*
X268226D01*
Y473424D01*
Y473554D01*
X268246Y473684D01*
X268296Y473913D01*
X268376Y474103D01*
X268456Y474263D01*
X268546Y474393D01*
X268626Y474482D01*
X268675Y474532D01*
X268685Y474552D01*
X268695D01*
X268785Y474622D01*
X268895Y474682D01*
X269125Y474782D01*
X269364Y474852D01*
X269614Y474902D01*
X269724Y474922D01*
X269833Y474932D01*
X269923Y474942D01*
X270003D01*
X270073Y474952D01*
X270382D01*
X270572Y474932D01*
D02*
G37*
G36*
X261029D02*
X261199Y474922D01*
X261348Y474902D01*
X261478Y474882D01*
X261578Y474872D01*
X261638Y474852D01*
X261658D01*
X261828Y474812D01*
X261977Y474782D01*
X262117Y474742D01*
X262237Y474702D01*
X262327Y474672D01*
X262407Y474642D01*
X262447Y474632D01*
X262467Y474622D01*
Y470350D01*
X261339D01*
Y473933D01*
X261249Y473963D01*
X261169Y473983D01*
X261099Y474003D01*
X261079D01*
X260969Y474023D01*
X260869Y474033D01*
X260660D01*
X260570Y474023D01*
X260480Y474013D01*
X260410Y474003D01*
X260340Y473983D01*
X260300Y473973D01*
X260270Y473963D01*
X260261D01*
X260051Y474912D01*
X260141Y474922D01*
X260221D01*
X260280Y474932D01*
X260310D01*
X260420Y474942D01*
X260530Y474952D01*
X260830D01*
X261029Y474932D01*
D02*
G37*
G36*
X254571Y476489D02*
X254730Y476469D01*
X254870Y476459D01*
X254990Y476439D01*
X255080Y476419D01*
X255140Y476409D01*
X255160D01*
X255319Y476369D01*
X255469Y476329D01*
X255599Y476289D01*
X255719Y476259D01*
X255818Y476219D01*
X255888Y476199D01*
X255928Y476179D01*
X255948Y476169D01*
Y470350D01*
X254800D01*
Y472696D01*
X254720Y472686D01*
X254641Y472676D01*
X254571Y472666D01*
X254551D01*
X254431Y472656D01*
X254241D01*
X254032Y472666D01*
X253832Y472676D01*
X253652Y472696D01*
X253503Y472725D01*
X253383Y472756D01*
X253293Y472775D01*
X253233Y472785D01*
X253213Y472795D01*
X253053Y472855D01*
X252914Y472915D01*
X252784Y472985D01*
X252674Y473045D01*
X252594Y473095D01*
X252524Y473145D01*
X252484Y473175D01*
X252474Y473185D01*
X252365Y473284D01*
X252275Y473394D01*
X252205Y473494D01*
X252135Y473584D01*
X252085Y473674D01*
X252055Y473734D01*
X252035Y473774D01*
X252025Y473794D01*
X251975Y473923D01*
X251935Y474063D01*
X251915Y474183D01*
X251895Y474303D01*
X251885Y474403D01*
X251875Y474482D01*
Y474532D01*
Y474552D01*
X251885Y474712D01*
X251905Y474872D01*
X251935Y475011D01*
X251965Y475151D01*
X252065Y475391D01*
X252115Y475501D01*
X252175Y475590D01*
X252235Y475680D01*
X252285Y475760D01*
X252335Y475820D01*
X252384Y475870D01*
X252414Y475920D01*
X252444Y475950D01*
X252464Y475960D01*
X252474Y475970D01*
X252594Y476060D01*
X252724Y476149D01*
X252854Y476219D01*
X252993Y476279D01*
X253283Y476369D01*
X253562Y476429D01*
X253692Y476459D01*
X253812Y476469D01*
X253922Y476479D01*
X254012Y476489D01*
X254091Y476499D01*
X254391D01*
X254571Y476489D01*
D02*
G37*
G36*
X233049Y471697D02*
X233139Y471677D01*
X233199Y471657D01*
X233209Y471647D01*
X233219D01*
X233309Y471598D01*
X233378Y471548D01*
X233428Y471508D01*
X233448Y471488D01*
X233508Y471418D01*
X233558Y471348D01*
X233588Y471288D01*
X233598Y471278D01*
Y471268D01*
X233628Y471168D01*
X233648Y471078D01*
X233658Y471039D01*
Y471018D01*
Y470999D01*
Y470989D01*
X233648Y470879D01*
X233628Y470789D01*
X233608Y470729D01*
X233598Y470719D01*
Y470709D01*
X233548Y470619D01*
X233498Y470549D01*
X233458Y470499D01*
X233448Y470480D01*
X233368Y470420D01*
X233298Y470380D01*
X233239Y470350D01*
X233229Y470340D01*
X233219D01*
X233119Y470310D01*
X233029Y470290D01*
X232989Y470280D01*
X232939D01*
X232829Y470290D01*
X232740Y470310D01*
X232680Y470330D01*
X232670Y470340D01*
X232660D01*
X232570Y470380D01*
X232500Y470430D01*
X232450Y470470D01*
X232430Y470480D01*
X232360Y470559D01*
X232320Y470629D01*
X232290Y470689D01*
X232280Y470699D01*
Y470709D01*
X232240Y470809D01*
X232230Y470899D01*
X232220Y470939D01*
Y470959D01*
Y470979D01*
Y470989D01*
X232230Y471098D01*
X232250Y471188D01*
X232270Y471248D01*
X232280Y471258D01*
Y471268D01*
X232320Y471358D01*
X232370Y471428D01*
X232410Y471468D01*
X232430Y471488D01*
X232510Y471558D01*
X232580Y471608D01*
X232640Y471637D01*
X232650Y471647D01*
X232660D01*
X232759Y471687D01*
X232849Y471697D01*
X232889Y471707D01*
X232939D01*
X233049Y471697D01*
D02*
G37*
G36*
X309922Y476489D02*
X310082Y476479D01*
X310221Y476459D01*
X310341Y476439D01*
X310441Y476409D01*
X310511Y476389D01*
X310561Y476379D01*
X310581Y476369D01*
X310711Y476319D01*
X310830Y476259D01*
X310930Y476199D01*
X311020Y476139D01*
X311100Y476079D01*
X311150Y476040D01*
X311190Y476010D01*
X311200Y476000D01*
X311290Y475910D01*
X311369Y475820D01*
X311429Y475720D01*
X311489Y475630D01*
X311529Y475560D01*
X311559Y475501D01*
X311579Y475451D01*
X311589Y475441D01*
X311639Y475311D01*
X311669Y475191D01*
X311699Y475061D01*
X311709Y474952D01*
X311719Y474852D01*
X311729Y474772D01*
Y474722D01*
Y474702D01*
X311719Y474542D01*
X311699Y474393D01*
X311679Y474263D01*
X311639Y474153D01*
X311609Y474063D01*
X311589Y474003D01*
X311569Y473953D01*
X311559Y473943D01*
X311489Y473834D01*
X311409Y473734D01*
X311339Y473654D01*
X311269Y473574D01*
X311210Y473514D01*
X311160Y473474D01*
X311130Y473444D01*
X311120Y473434D01*
X310920Y473294D01*
X310830Y473225D01*
X310741Y473175D01*
X310671Y473135D01*
X310611Y473105D01*
X310571Y473085D01*
X310561Y473075D01*
X310341Y472975D01*
X310241Y472925D01*
X310161Y472875D01*
X310092Y472845D01*
X310042Y472815D01*
X310002Y472795D01*
X309992Y472785D01*
X309902Y472735D01*
X309812Y472676D01*
X309742Y472626D01*
X309682Y472576D01*
X309632Y472526D01*
X309592Y472496D01*
X309573Y472476D01*
X309563Y472466D01*
X309503Y472396D01*
X309463Y472326D01*
X309423Y472256D01*
X309403Y472187D01*
X309393Y472127D01*
X309383Y472077D01*
Y472047D01*
Y472037D01*
X309393Y471917D01*
X309423Y471817D01*
X309463Y471727D01*
X309503Y471647D01*
X309553Y471588D01*
X309592Y471548D01*
X309622Y471518D01*
X309632Y471508D01*
X309732Y471438D01*
X309842Y471388D01*
X309952Y471358D01*
X310052Y471338D01*
X310152Y471318D01*
X310231Y471308D01*
X310301D01*
X310511Y471318D01*
X310611Y471338D01*
X310700Y471348D01*
X310770Y471368D01*
X310830Y471378D01*
X310870Y471388D01*
X310880D01*
X311080Y471458D01*
X311170Y471488D01*
X311250Y471518D01*
X311319Y471548D01*
X311369Y471568D01*
X311399Y471588D01*
X311409D01*
X311799Y470569D01*
X311539Y470460D01*
X311409Y470420D01*
X311299Y470390D01*
X311200Y470360D01*
X311130Y470340D01*
X311080Y470330D01*
X311060D01*
X310760Y470280D01*
X310621Y470270D01*
X310501Y470260D01*
X310391Y470250D01*
X310241D01*
X310062Y470260D01*
X309902Y470270D01*
X309752Y470290D01*
X309622Y470320D01*
X309523Y470340D01*
X309443Y470360D01*
X309393Y470370D01*
X309373Y470380D01*
X309233Y470430D01*
X309103Y470490D01*
X308994Y470559D01*
X308904Y470619D01*
X308824Y470669D01*
X308774Y470719D01*
X308734Y470749D01*
X308724Y470759D01*
X308624Y470859D01*
X308544Y470959D01*
X308475Y471049D01*
X308415Y471138D01*
X308375Y471218D01*
X308345Y471278D01*
X308325Y471328D01*
X308315Y471338D01*
X308265Y471468D01*
X308235Y471598D01*
X308205Y471727D01*
X308195Y471847D01*
X308185Y471947D01*
X308175Y472027D01*
Y472077D01*
Y472097D01*
X308185Y472256D01*
X308205Y472406D01*
X308235Y472536D01*
X308265Y472636D01*
X308295Y472725D01*
X308325Y472795D01*
X308345Y472835D01*
X308355Y472845D01*
X308425Y472955D01*
X308494Y473055D01*
X308564Y473135D01*
X308634Y473215D01*
X308704Y473274D01*
X308744Y473315D01*
X308784Y473344D01*
X308794Y473354D01*
X308994Y473504D01*
X309083Y473564D01*
X309173Y473624D01*
X309253Y473664D01*
X309313Y473694D01*
X309353Y473714D01*
X309363Y473724D01*
X309583Y473834D01*
X309682Y473884D01*
X309772Y473933D01*
X309842Y473963D01*
X309892Y473993D01*
X309932Y474013D01*
X309942Y474023D01*
X310122Y474133D01*
X310191Y474193D01*
X310261Y474243D01*
X310311Y474283D01*
X310351Y474313D01*
X310371Y474333D01*
X310381Y474343D01*
X310441Y474412D01*
X310481Y474482D01*
X310511Y474552D01*
X310531Y474622D01*
X310541Y474682D01*
X310551Y474732D01*
Y474762D01*
Y474772D01*
X310541Y474882D01*
X310521Y474991D01*
X310481Y475071D01*
X310441Y475151D01*
X310401Y475201D01*
X310361Y475251D01*
X310341Y475271D01*
X310331Y475281D01*
X310241Y475351D01*
X310142Y475401D01*
X310032Y475431D01*
X309932Y475461D01*
X309852Y475471D01*
X309772Y475481D01*
X309712D01*
X309513Y475471D01*
X309423Y475461D01*
X309343Y475451D01*
X309273Y475431D01*
X309223Y475421D01*
X309193Y475411D01*
X309183D01*
X309004Y475351D01*
X308924Y475321D01*
X308864Y475291D01*
X308804Y475261D01*
X308764Y475241D01*
X308734Y475231D01*
X308724Y475221D01*
X308355Y476169D01*
X308574Y476279D01*
X308684Y476319D01*
X308784Y476349D01*
X308864Y476379D01*
X308934Y476399D01*
X308974Y476409D01*
X308994D01*
X309263Y476459D01*
X309393Y476479D01*
X309513Y476489D01*
X309613Y476499D01*
X309762D01*
X309922Y476489D01*
D02*
G37*
G36*
X283459Y476479D02*
X283629Y476469D01*
X283778Y476449D01*
X283908Y476429D01*
X284008Y476419D01*
X284068Y476399D01*
X284088D01*
X284258Y476359D01*
X284407Y476329D01*
X284547Y476289D01*
X284667Y476249D01*
X284767Y476219D01*
X284837Y476189D01*
X284877Y476179D01*
X284897Y476169D01*
Y470569D01*
X284777Y470519D01*
X284637Y470480D01*
X284507Y470440D01*
X284377Y470400D01*
X284258Y470380D01*
X284168Y470360D01*
X284108Y470340D01*
X284088D01*
X283898Y470310D01*
X283709Y470290D01*
X283539Y470270D01*
X283379Y470260D01*
X283249D01*
X283150Y470250D01*
X283060D01*
X282840Y470260D01*
X282641Y470270D01*
X282451Y470290D01*
X282281Y470320D01*
X282122Y470360D01*
X281972Y470400D01*
X281842Y470440D01*
X281722Y470480D01*
X281612Y470519D01*
X281523Y470559D01*
X281453Y470599D01*
X281383Y470639D01*
X281333Y470669D01*
X281303Y470689D01*
X281283Y470709D01*
X281273D01*
X281163Y470799D01*
X281073Y470899D01*
X280993Y470999D01*
X280924Y471098D01*
X280864Y471208D01*
X280814Y471318D01*
X280744Y471518D01*
X280694Y471707D01*
X280684Y471787D01*
X280674Y471857D01*
X280664Y471907D01*
Y471947D01*
Y471977D01*
Y471987D01*
Y472107D01*
X280684Y472216D01*
X280694Y472316D01*
X280714Y472396D01*
X280734Y472466D01*
X280754Y472526D01*
X280764Y472556D01*
X280774Y472566D01*
X280854Y472735D01*
X280904Y472815D01*
X280944Y472875D01*
X280984Y472925D01*
X281014Y472965D01*
X281033Y472985D01*
X281043Y472995D01*
X281163Y473125D01*
X281273Y473225D01*
X281323Y473255D01*
X281363Y473284D01*
X281383Y473294D01*
X281393Y473304D01*
X281532Y473384D01*
X281652Y473444D01*
X281702Y473464D01*
X281742Y473474D01*
X281762Y473484D01*
X281772D01*
Y473504D01*
X281632Y473554D01*
X281523Y473604D01*
X281483Y473624D01*
X281453Y473644D01*
X281433Y473664D01*
X281423D01*
X281303Y473764D01*
X281213Y473863D01*
X281173Y473903D01*
X281143Y473933D01*
X281133Y473953D01*
X281123Y473963D01*
X281033Y474103D01*
X280963Y474233D01*
X280934Y474283D01*
X280914Y474323D01*
X280904Y474353D01*
Y474363D01*
X280854Y474532D01*
X280844Y474612D01*
X280834Y474682D01*
X280824Y474752D01*
Y474802D01*
Y474832D01*
Y474842D01*
X280834Y474972D01*
X280844Y475101D01*
X280864Y475211D01*
X280894Y475311D01*
X280924Y475391D01*
X280944Y475451D01*
X280954Y475491D01*
X280963Y475501D01*
X281023Y475610D01*
X281083Y475710D01*
X281153Y475800D01*
X281223Y475880D01*
X281283Y475940D01*
X281333Y475980D01*
X281373Y476010D01*
X281383Y476020D01*
X281493Y476100D01*
X281602Y476169D01*
X281722Y476229D01*
X281832Y476279D01*
X281932Y476319D01*
X282012Y476349D01*
X282062Y476359D01*
X282072Y476369D01*
X282082D01*
X282241Y476409D01*
X282411Y476449D01*
X282581Y476469D01*
X282740Y476479D01*
X282870Y476489D01*
X282980Y476499D01*
X283279D01*
X283459Y476479D01*
D02*
G37*
G36*
X249729D02*
X249889Y476469D01*
X250029Y476449D01*
X250138Y476429D01*
X250228Y476419D01*
X250288Y476399D01*
X250308D01*
X250468Y476359D01*
X250608Y476329D01*
X250728Y476289D01*
X250827Y476249D01*
X250917Y476219D01*
X250977Y476189D01*
X251017Y476179D01*
X251027Y476169D01*
Y470569D01*
X250917Y470519D01*
X250797Y470480D01*
X250688Y470440D01*
X250568Y470400D01*
X250468Y470380D01*
X250388Y470360D01*
X250338Y470340D01*
X250318D01*
X249989Y470290D01*
X249829Y470270D01*
X249679Y470260D01*
X249550D01*
X249460Y470250D01*
X249370D01*
X249140Y470260D01*
X248921Y470280D01*
X248721Y470320D01*
X248531Y470370D01*
X248352Y470430D01*
X248192Y470499D01*
X248042Y470569D01*
X247913Y470649D01*
X247793Y470719D01*
X247693Y470789D01*
X247603Y470859D01*
X247533Y470919D01*
X247473Y470969D01*
X247433Y471009D01*
X247413Y471029D01*
X247403Y471039D01*
X247274Y471198D01*
X247174Y471368D01*
X247074Y471548D01*
X246994Y471737D01*
X246924Y471937D01*
X246864Y472127D01*
X246824Y472316D01*
X246784Y472506D01*
X246754Y472686D01*
X246735Y472845D01*
X246715Y472995D01*
X246705Y473125D01*
X246695Y473225D01*
Y473304D01*
Y473354D01*
Y473374D01*
X246705Y473654D01*
X246725Y473913D01*
X246765Y474153D01*
X246805Y474383D01*
X246854Y474592D01*
X246914Y474782D01*
X246984Y474952D01*
X247044Y475111D01*
X247114Y475251D01*
X247184Y475371D01*
X247244Y475471D01*
X247294Y475550D01*
X247334Y475620D01*
X247373Y475660D01*
X247393Y475690D01*
X247403Y475700D01*
X247543Y475840D01*
X247693Y475960D01*
X247843Y476070D01*
X248002Y476159D01*
X248172Y476239D01*
X248332Y476309D01*
X248491Y476359D01*
X248651Y476399D01*
X248791Y476429D01*
X248931Y476459D01*
X249051Y476479D01*
X249160Y476489D01*
X249250Y476499D01*
X249550D01*
X249729Y476479D01*
D02*
G37*
G36*
X229495Y476489D02*
X229675Y476459D01*
X229835Y476419D01*
X229974Y476379D01*
X230084Y476339D01*
X230174Y476299D01*
X230224Y476269D01*
X230244Y476259D01*
X230384Y476159D01*
X230513Y476050D01*
X230623Y475940D01*
X230713Y475840D01*
X230793Y475740D01*
X230843Y475660D01*
X230883Y475610D01*
X230893Y475600D01*
Y475590D01*
X230983Y475431D01*
X231052Y475261D01*
X231122Y475091D01*
X231172Y474941D01*
X231212Y474802D01*
X231242Y474702D01*
X231252Y474662D01*
Y474632D01*
X231262Y474612D01*
Y474602D01*
X231302Y474383D01*
X231332Y474173D01*
X231352Y473963D01*
X231362Y473774D01*
X231372Y473614D01*
X231382Y473544D01*
Y473484D01*
Y473434D01*
Y473404D01*
Y473384D01*
Y473374D01*
X231372Y473125D01*
X231362Y472895D01*
X231342Y472686D01*
X231322Y472506D01*
X231302Y472356D01*
X231292Y472286D01*
X231282Y472236D01*
X231272Y472196D01*
X231262Y472166D01*
Y472146D01*
Y472136D01*
X231212Y471927D01*
X231152Y471737D01*
X231092Y471568D01*
X231033Y471428D01*
X230983Y471308D01*
X230933Y471218D01*
X230903Y471158D01*
X230893Y471148D01*
Y471138D01*
X230793Y470989D01*
X230683Y470859D01*
X230573Y470749D01*
X230474Y470649D01*
X230384Y470579D01*
X230314Y470519D01*
X230264Y470490D01*
X230244Y470480D01*
X230084Y470400D01*
X229925Y470350D01*
X229765Y470310D01*
X229615Y470280D01*
X229485Y470260D01*
X229386Y470250D01*
X229296D01*
X229096Y470260D01*
X228916Y470290D01*
X228757Y470320D01*
X228617Y470370D01*
X228507Y470410D01*
X228417Y470440D01*
X228367Y470470D01*
X228347Y470480D01*
X228208Y470579D01*
X228078Y470679D01*
X227968Y470789D01*
X227868Y470899D01*
X227798Y470989D01*
X227738Y471068D01*
X227708Y471118D01*
X227698Y471138D01*
X227609Y471308D01*
X227539Y471478D01*
X227469Y471647D01*
X227419Y471797D01*
X227379Y471937D01*
X227349Y472037D01*
X227339Y472077D01*
Y472107D01*
X227329Y472127D01*
Y472136D01*
X227289Y472356D01*
X227259Y472566D01*
X227239Y472775D01*
X227219Y472965D01*
Y473135D01*
X227209Y473205D01*
Y473265D01*
Y473304D01*
Y473344D01*
Y473364D01*
Y473374D01*
Y473614D01*
X227229Y473843D01*
X227249Y474053D01*
X227269Y474233D01*
X227289Y474393D01*
X227299Y474452D01*
X227309Y474502D01*
X227319Y474542D01*
Y474572D01*
X227329Y474592D01*
Y474602D01*
X227379Y474812D01*
X227439Y475001D01*
X227499Y475161D01*
X227559Y475311D01*
X227609Y475431D01*
X227659Y475521D01*
X227689Y475570D01*
X227698Y475590D01*
X227798Y475740D01*
X227908Y475880D01*
X228018Y475990D01*
X228118Y476090D01*
X228208Y476159D01*
X228277Y476219D01*
X228327Y476249D01*
X228347Y476259D01*
X228507Y476339D01*
X228667Y476399D01*
X228827Y476439D01*
X228966Y476469D01*
X229096Y476489D01*
X229206Y476499D01*
X229296D01*
X229495Y476489D01*
D02*
G37*
G36*
X274485Y468623D02*
X274645Y468603D01*
X274785Y468593D01*
X274914Y468573D01*
X275004Y468553D01*
X275064Y468543D01*
X275084D01*
X275254Y468513D01*
X275413Y468473D01*
X275563Y468433D01*
X275683Y468393D01*
X275783Y468363D01*
X275863Y468333D01*
X275913Y468313D01*
X275933Y468303D01*
X275603Y467415D01*
X275373Y467495D01*
X275264Y467525D01*
X275164Y467555D01*
X275084Y467575D01*
X275014Y467595D01*
X274974Y467605D01*
X274954D01*
X274705Y467655D01*
X274585Y467664D01*
X274485Y467674D01*
X274405Y467685D01*
X274286D01*
X274116Y467674D01*
X273976Y467655D01*
X273856Y467625D01*
X273746Y467595D01*
X273667Y467555D01*
X273617Y467525D01*
X273577Y467505D01*
X273567Y467495D01*
X273487Y467425D01*
X273427Y467335D01*
X273377Y467255D01*
X273347Y467175D01*
X273327Y467096D01*
X273317Y467036D01*
Y466996D01*
Y466986D01*
Y466916D01*
X273337Y466846D01*
X273377Y466726D01*
X273397Y466676D01*
X273417Y466646D01*
X273427Y466626D01*
X273437Y466616D01*
X273537Y466507D01*
X273637Y466417D01*
X273687Y466377D01*
X273727Y466347D01*
X273746Y466337D01*
X273756Y466327D01*
X273926Y466237D01*
X274086Y466177D01*
X274156Y466147D01*
X274216Y466127D01*
X274256Y466117D01*
X274265D01*
X274495Y466067D01*
X274605Y466047D01*
X274715Y466037D01*
X274804Y466027D01*
X274874Y466017D01*
X274934D01*
Y465179D01*
X274705D01*
X274575Y465169D01*
X274465Y465159D01*
X274365Y465149D01*
X274286Y465129D01*
X274216Y465119D01*
X274176Y465109D01*
X274166D01*
X274056Y465089D01*
X273946Y465059D01*
X273856Y465029D01*
X273776Y464999D01*
X273717Y464969D01*
X273667Y464949D01*
X273637Y464939D01*
X273627Y464929D01*
X273547Y464889D01*
X273477Y464840D01*
X273407Y464790D01*
X273357Y464740D01*
X273317Y464700D01*
X273287Y464670D01*
X273277Y464650D01*
X273267Y464640D01*
X273227Y464570D01*
X273187Y464500D01*
X273158Y464360D01*
X273148Y464310D01*
X273137Y464261D01*
Y464231D01*
Y464221D01*
X273148Y464081D01*
X273187Y463951D01*
X273237Y463841D01*
X273287Y463751D01*
X273347Y463682D01*
X273397Y463622D01*
X273437Y463592D01*
X273447Y463582D01*
X273567Y463502D01*
X273706Y463442D01*
X273846Y463402D01*
X273986Y463372D01*
X274106Y463352D01*
X274206Y463342D01*
X274445D01*
X274585Y463352D01*
X274715Y463362D01*
X274834Y463372D01*
X274934Y463382D01*
X275004Y463392D01*
X275054Y463402D01*
X275074D01*
X275214Y463432D01*
X275334Y463462D01*
X275443Y463492D01*
X275543Y463522D01*
X275613Y463552D01*
X275673Y463572D01*
X275713Y463592D01*
X275723D01*
X276082Y462703D01*
X275942Y462654D01*
X275793Y462604D01*
X275653Y462564D01*
X275523Y462534D01*
X275403Y462504D01*
X275314Y462494D01*
X275254Y462474D01*
X275234D01*
X275054Y462444D01*
X274884Y462424D01*
X274715Y462404D01*
X274575Y462394D01*
X274455D01*
X274355Y462384D01*
X274275D01*
X274076Y462394D01*
X273886Y462404D01*
X273727Y462424D01*
X273577Y462454D01*
X273457Y462474D01*
X273377Y462494D01*
X273317Y462504D01*
X273297Y462514D01*
X273148Y462564D01*
X273008Y462623D01*
X272878Y462683D01*
X272778Y462743D01*
X272688Y462803D01*
X272628Y462843D01*
X272589Y462873D01*
X272579Y462883D01*
X272469Y462973D01*
X272379Y463073D01*
X272299Y463173D01*
X272239Y463262D01*
X272189Y463342D01*
X272149Y463402D01*
X272129Y463452D01*
X272119Y463462D01*
X272069Y463592D01*
X272029Y463722D01*
X271999Y463851D01*
X271980Y463971D01*
X271970Y464071D01*
X271960Y464151D01*
Y464201D01*
Y464221D01*
Y464330D01*
X271980Y464440D01*
X271989Y464530D01*
X272010Y464620D01*
X272029Y464680D01*
X272049Y464740D01*
X272059Y464770D01*
X272069Y464780D01*
X272159Y464949D01*
X272199Y465029D01*
X272249Y465089D01*
X272289Y465139D01*
X272319Y465179D01*
X272339Y465199D01*
X272349Y465209D01*
X272479Y465339D01*
X272608Y465438D01*
X272658Y465468D01*
X272698Y465498D01*
X272728Y465508D01*
X272738Y465518D01*
X272898Y465608D01*
X272978Y465638D01*
X273048Y465668D01*
X273108Y465688D01*
X273158Y465708D01*
X273187Y465718D01*
X273197D01*
Y465738D01*
X273058Y465808D01*
X272928Y465878D01*
X272888Y465898D01*
X272848Y465928D01*
X272828Y465938D01*
X272818Y465948D01*
X272688Y466057D01*
X272579Y466157D01*
X272539Y466197D01*
X272509Y466227D01*
X272489Y466247D01*
X272479Y466257D01*
X272379Y466387D01*
X272309Y466507D01*
X272279Y466557D01*
X272259Y466596D01*
X272249Y466626D01*
Y466636D01*
X272199Y466796D01*
X272179Y466936D01*
X272169Y466996D01*
Y467036D01*
Y467066D01*
Y467076D01*
X272179Y467205D01*
X272189Y467325D01*
X272249Y467555D01*
X272319Y467744D01*
X272409Y467904D01*
X272499Y468034D01*
X272579Y468124D01*
X272638Y468184D01*
X272648Y468204D01*
X272658D01*
X272758Y468283D01*
X272858Y468343D01*
X273098Y468453D01*
X273337Y468533D01*
X273577Y468583D01*
X273687Y468593D01*
X273786Y468613D01*
X273886Y468623D01*
X273966D01*
X274036Y468633D01*
X274305D01*
X274485Y468623D01*
D02*
G37*
G36*
X262526D02*
X262676Y468603D01*
X262806Y468593D01*
X262926Y468573D01*
X263006Y468553D01*
X263065Y468543D01*
X263085D01*
X263245Y468513D01*
X263395Y468473D01*
X263535Y468433D01*
X263654Y468393D01*
X263764Y468363D01*
X263834Y468333D01*
X263884Y468313D01*
X263904Y468303D01*
X263575Y467415D01*
X263355Y467495D01*
X263245Y467525D01*
X263155Y467555D01*
X263065Y467575D01*
X263006Y467595D01*
X262956Y467605D01*
X262946D01*
X262696Y467645D01*
X262586Y467655D01*
X262496Y467664D01*
X262417Y467674D01*
X262297D01*
X262097Y467664D01*
X261928Y467635D01*
X261778Y467595D01*
X261658Y467545D01*
X261558Y467495D01*
X261498Y467455D01*
X261448Y467425D01*
X261438Y467415D01*
X261339Y467315D01*
X261269Y467205D01*
X261209Y467096D01*
X261179Y466986D01*
X261159Y466896D01*
X261139Y466816D01*
Y466766D01*
Y466746D01*
X261149Y466636D01*
X261159Y466537D01*
X261189Y466447D01*
X261209Y466367D01*
X261239Y466297D01*
X261269Y466247D01*
X261279Y466207D01*
X261289Y466197D01*
X261398Y466017D01*
X261458Y465938D01*
X261508Y465858D01*
X261548Y465798D01*
X261588Y465748D01*
X261608Y465718D01*
X261618Y465708D01*
X264203Y462484D01*
X259821D01*
Y463422D01*
X262277D01*
X260700Y465199D01*
X260600Y465319D01*
X260510Y465419D01*
X260480Y465468D01*
X260450Y465498D01*
X260440Y465518D01*
X260430Y465528D01*
X260330Y465668D01*
X260250Y465788D01*
X260221Y465838D01*
X260201Y465878D01*
X260181Y465898D01*
Y465908D01*
X260111Y466067D01*
X260051Y466197D01*
X260031Y466257D01*
X260021Y466297D01*
X260011Y466327D01*
Y466337D01*
X259971Y466507D01*
X259961Y466586D01*
X259951Y466656D01*
X259941Y466716D01*
Y466766D01*
Y466796D01*
Y466806D01*
X259951Y466966D01*
X259961Y467105D01*
X259991Y467245D01*
X260031Y467375D01*
X260121Y467605D01*
X260231Y467794D01*
X260280Y467874D01*
X260340Y467944D01*
X260390Y468004D01*
X260430Y468054D01*
X260470Y468094D01*
X260490Y468124D01*
X260510Y468134D01*
X260520Y468144D01*
X260630Y468233D01*
X260760Y468303D01*
X260889Y468373D01*
X261019Y468423D01*
X261299Y468513D01*
X261568Y468573D01*
X261698Y468593D01*
X261818Y468603D01*
X261917Y468623D01*
X262017D01*
X262087Y468633D01*
X262367D01*
X262526Y468623D01*
D02*
G37*
G36*
X252524D02*
X252674Y468603D01*
X252804Y468593D01*
X252924Y468573D01*
X253003Y468553D01*
X253063Y468543D01*
X253083D01*
X253243Y468513D01*
X253393Y468473D01*
X253533Y468433D01*
X253652Y468393D01*
X253762Y468363D01*
X253832Y468333D01*
X253882Y468313D01*
X253902Y468303D01*
X253572Y467415D01*
X253353Y467495D01*
X253243Y467525D01*
X253153Y467555D01*
X253063Y467575D01*
X253003Y467595D01*
X252953Y467605D01*
X252943D01*
X252694Y467645D01*
X252584Y467655D01*
X252494Y467664D01*
X252414Y467674D01*
X252295D01*
X252095Y467664D01*
X251925Y467635D01*
X251776Y467595D01*
X251656Y467545D01*
X251556Y467495D01*
X251496Y467455D01*
X251446Y467425D01*
X251436Y467415D01*
X251336Y467315D01*
X251266Y467205D01*
X251207Y467096D01*
X251177Y466986D01*
X251157Y466896D01*
X251137Y466816D01*
Y466766D01*
Y466746D01*
X251147Y466636D01*
X251157Y466537D01*
X251187Y466447D01*
X251207Y466367D01*
X251237Y466297D01*
X251266Y466247D01*
X251276Y466207D01*
X251287Y466197D01*
X251396Y466017D01*
X251456Y465938D01*
X251506Y465858D01*
X251546Y465798D01*
X251586Y465748D01*
X251606Y465718D01*
X251616Y465708D01*
X254201Y462484D01*
X249819D01*
Y463422D01*
X252275D01*
X250697Y465199D01*
X250598Y465319D01*
X250508Y465419D01*
X250478Y465468D01*
X250448Y465498D01*
X250438Y465518D01*
X250428Y465528D01*
X250328Y465668D01*
X250248Y465788D01*
X250218Y465838D01*
X250198Y465878D01*
X250178Y465898D01*
Y465908D01*
X250109Y466067D01*
X250049Y466197D01*
X250029Y466257D01*
X250019Y466297D01*
X250009Y466327D01*
Y466337D01*
X249969Y466507D01*
X249959Y466586D01*
X249949Y466656D01*
X249939Y466716D01*
Y466766D01*
Y466796D01*
Y466806D01*
X249949Y466966D01*
X249959Y467105D01*
X249989Y467245D01*
X250029Y467375D01*
X250119Y467605D01*
X250228Y467794D01*
X250278Y467874D01*
X250338Y467944D01*
X250388Y468004D01*
X250428Y468054D01*
X250468Y468094D01*
X250488Y468124D01*
X250508Y468134D01*
X250518Y468144D01*
X250628Y468233D01*
X250757Y468303D01*
X250887Y468373D01*
X251017Y468423D01*
X251296Y468513D01*
X251566Y468573D01*
X251696Y468593D01*
X251815Y468603D01*
X251915Y468623D01*
X252015D01*
X252085Y468633D01*
X252365D01*
X252524Y468623D01*
D02*
G37*
G36*
X247403D02*
X247563Y468603D01*
X247703Y468593D01*
X247833Y468573D01*
X247922Y468553D01*
X247982Y468543D01*
X248002D01*
X248172Y468513D01*
X248332Y468473D01*
X248482Y468433D01*
X248601Y468393D01*
X248701Y468363D01*
X248781Y468333D01*
X248831Y468313D01*
X248851Y468303D01*
X248521Y467415D01*
X248292Y467495D01*
X248182Y467525D01*
X248082Y467555D01*
X248002Y467575D01*
X247932Y467595D01*
X247892Y467605D01*
X247873D01*
X247623Y467655D01*
X247503Y467664D01*
X247403Y467674D01*
X247323Y467685D01*
X247204D01*
X247034Y467674D01*
X246894Y467655D01*
X246775Y467625D01*
X246665Y467595D01*
X246585Y467555D01*
X246535Y467525D01*
X246495Y467505D01*
X246485Y467495D01*
X246405Y467425D01*
X246345Y467335D01*
X246295Y467255D01*
X246265Y467175D01*
X246245Y467096D01*
X246236Y467036D01*
Y466996D01*
Y466986D01*
Y466916D01*
X246255Y466846D01*
X246295Y466726D01*
X246315Y466676D01*
X246335Y466646D01*
X246345Y466626D01*
X246355Y466616D01*
X246455Y466507D01*
X246555Y466417D01*
X246605Y466377D01*
X246645Y466347D01*
X246665Y466337D01*
X246675Y466327D01*
X246844Y466237D01*
X247004Y466177D01*
X247074Y466147D01*
X247134Y466127D01*
X247174Y466117D01*
X247184D01*
X247413Y466067D01*
X247523Y466047D01*
X247633Y466037D01*
X247723Y466027D01*
X247793Y466017D01*
X247853D01*
Y465179D01*
X247623D01*
X247493Y465169D01*
X247383Y465159D01*
X247284Y465149D01*
X247204Y465129D01*
X247134Y465119D01*
X247094Y465109D01*
X247084D01*
X246974Y465089D01*
X246864Y465059D01*
X246775Y465029D01*
X246695Y464999D01*
X246635Y464969D01*
X246585Y464949D01*
X246555Y464939D01*
X246545Y464929D01*
X246465Y464889D01*
X246395Y464840D01*
X246325Y464790D01*
X246275Y464740D01*
X246236Y464700D01*
X246206Y464670D01*
X246196Y464650D01*
X246186Y464640D01*
X246146Y464570D01*
X246106Y464500D01*
X246076Y464360D01*
X246066Y464310D01*
X246056Y464261D01*
Y464231D01*
Y464221D01*
X246066Y464081D01*
X246106Y463951D01*
X246156Y463841D01*
X246206Y463751D01*
X246265Y463682D01*
X246315Y463622D01*
X246355Y463592D01*
X246365Y463582D01*
X246485Y463502D01*
X246625Y463442D01*
X246765Y463402D01*
X246904Y463372D01*
X247024Y463352D01*
X247124Y463342D01*
X247363D01*
X247503Y463352D01*
X247633Y463362D01*
X247753Y463372D01*
X247853Y463382D01*
X247922Y463392D01*
X247972Y463402D01*
X247992D01*
X248132Y463432D01*
X248252Y463462D01*
X248362Y463492D01*
X248461Y463522D01*
X248531Y463552D01*
X248591Y463572D01*
X248631Y463592D01*
X248641D01*
X249000Y462703D01*
X248861Y462654D01*
X248711Y462604D01*
X248571Y462564D01*
X248442Y462534D01*
X248322Y462504D01*
X248232Y462494D01*
X248172Y462474D01*
X248152D01*
X247972Y462444D01*
X247803Y462424D01*
X247633Y462404D01*
X247493Y462394D01*
X247373D01*
X247274Y462384D01*
X247194D01*
X246994Y462394D01*
X246805Y462404D01*
X246645Y462424D01*
X246495Y462454D01*
X246375Y462474D01*
X246295Y462494D01*
X246236Y462504D01*
X246215Y462514D01*
X246066Y462564D01*
X245926Y462623D01*
X245796Y462683D01*
X245696Y462743D01*
X245607Y462803D01*
X245547Y462843D01*
X245507Y462873D01*
X245497Y462883D01*
X245387Y462973D01*
X245297Y463073D01*
X245217Y463173D01*
X245157Y463262D01*
X245107Y463342D01*
X245068Y463402D01*
X245048Y463452D01*
X245038Y463462D01*
X244988Y463592D01*
X244948Y463722D01*
X244918Y463851D01*
X244898Y463971D01*
X244888Y464071D01*
X244878Y464151D01*
Y464201D01*
Y464221D01*
Y464330D01*
X244898Y464440D01*
X244908Y464530D01*
X244928Y464620D01*
X244948Y464680D01*
X244968Y464740D01*
X244978Y464770D01*
X244988Y464780D01*
X245077Y464949D01*
X245117Y465029D01*
X245167Y465089D01*
X245207Y465139D01*
X245237Y465179D01*
X245257Y465199D01*
X245267Y465209D01*
X245397Y465339D01*
X245527Y465438D01*
X245577Y465468D01*
X245617Y465498D01*
X245646Y465508D01*
X245657Y465518D01*
X245816Y465608D01*
X245896Y465638D01*
X245966Y465668D01*
X246026Y465688D01*
X246076Y465708D01*
X246106Y465718D01*
X246116D01*
Y465738D01*
X245976Y465808D01*
X245846Y465878D01*
X245806Y465898D01*
X245766Y465928D01*
X245746Y465938D01*
X245736Y465948D01*
X245607Y466057D01*
X245497Y466157D01*
X245457Y466197D01*
X245427Y466227D01*
X245407Y466247D01*
X245397Y466257D01*
X245297Y466387D01*
X245227Y466507D01*
X245197Y466557D01*
X245177Y466596D01*
X245167Y466626D01*
Y466636D01*
X245117Y466796D01*
X245098Y466936D01*
X245088Y466996D01*
Y467036D01*
Y467066D01*
Y467076D01*
X245098Y467205D01*
X245107Y467325D01*
X245167Y467555D01*
X245237Y467744D01*
X245327Y467904D01*
X245417Y468034D01*
X245497Y468124D01*
X245557Y468184D01*
X245567Y468204D01*
X245577D01*
X245676Y468283D01*
X245776Y468343D01*
X246016Y468453D01*
X246255Y468533D01*
X246495Y468583D01*
X246605Y468593D01*
X246705Y468613D01*
X246805Y468623D01*
X246884D01*
X246954Y468633D01*
X247224D01*
X247403Y468623D01*
D02*
G37*
G36*
X288780Y467066D02*
X288939Y467056D01*
X289079Y467036D01*
X289199Y467016D01*
X289289Y466996D01*
X289349Y466986D01*
X289359Y466976D01*
X289369D01*
X289528Y466936D01*
X289668Y466896D01*
X289798Y466866D01*
X289898Y466826D01*
X289988Y466796D01*
X290047Y466776D01*
X290087Y466766D01*
X290097Y466756D01*
X289818Y465988D01*
X289728Y466027D01*
X289638Y466047D01*
X289568Y466067D01*
X289558Y466077D01*
X289548D01*
X289429Y466117D01*
X289329Y466137D01*
X289289Y466157D01*
X289259D01*
X289239Y466167D01*
X289229D01*
X289099Y466197D01*
X288999Y466217D01*
X288949D01*
X288919Y466227D01*
X288889D01*
X288760Y466247D01*
X288650Y466257D01*
X288550D01*
X288410Y466247D01*
X288291Y466237D01*
X288191Y466207D01*
X288101Y466187D01*
X288031Y466157D01*
X287981Y466127D01*
X287951Y466117D01*
X287941Y466107D01*
X287861Y466047D01*
X287811Y465968D01*
X287771Y465888D01*
X287742Y465808D01*
X287722Y465728D01*
X287712Y465668D01*
Y465628D01*
Y465608D01*
Y465379D01*
X287901Y465369D01*
X288081Y465349D01*
X288251Y465329D01*
X288400Y465309D01*
X288520Y465299D01*
X288620Y465279D01*
X288680Y465269D01*
X288700D01*
X288869Y465239D01*
X289029Y465199D01*
X289169Y465159D01*
X289299Y465119D01*
X289398Y465089D01*
X289468Y465059D01*
X289518Y465039D01*
X289538Y465029D01*
X289668Y464969D01*
X289788Y464889D01*
X289888Y464820D01*
X289967Y464750D01*
X290037Y464680D01*
X290087Y464630D01*
X290117Y464590D01*
X290127Y464580D01*
X290197Y464460D01*
X290257Y464341D01*
X290297Y464221D01*
X290317Y464101D01*
X290337Y463991D01*
X290347Y463911D01*
Y463851D01*
Y463841D01*
Y463831D01*
X290337Y463702D01*
X290327Y463592D01*
X290267Y463372D01*
X290187Y463192D01*
X290097Y463043D01*
X290007Y462923D01*
X289928Y462833D01*
X289868Y462783D01*
X289858Y462763D01*
X289848D01*
X289748Y462693D01*
X289638Y462634D01*
X289398Y462544D01*
X289139Y462474D01*
X288889Y462434D01*
X288780Y462414D01*
X288670Y462404D01*
X288570Y462394D01*
X288490D01*
X288420Y462384D01*
X288131D01*
X287951Y462404D01*
X287791Y462414D01*
X287642Y462434D01*
X287522Y462454D01*
X287432Y462464D01*
X287372Y462484D01*
X287352D01*
X287183Y462524D01*
X287043Y462554D01*
X286923Y462594D01*
X286813Y462623D01*
X286733Y462654D01*
X286683Y462683D01*
X286643Y462693D01*
X286633Y462703D01*
Y465478D01*
Y465638D01*
X286653Y465778D01*
X286673Y465908D01*
X286703Y466037D01*
X286743Y466147D01*
X286783Y466247D01*
X286823Y466337D01*
X286863Y466417D01*
X286913Y466487D01*
X286953Y466547D01*
X287033Y466636D01*
X287083Y466686D01*
X287093Y466706D01*
X287103D01*
X287292Y466836D01*
X287512Y466926D01*
X287731Y466996D01*
X287941Y467036D01*
X288131Y467066D01*
X288221Y467076D01*
X288291D01*
X288350Y467086D01*
X288610D01*
X288780Y467066D01*
D02*
G37*
G36*
X270672Y465259D02*
X270482Y465289D01*
X270402D01*
X270333Y465299D01*
X270273Y465309D01*
X270193D01*
X270033Y465319D01*
X269953Y465329D01*
X269604D01*
X269464Y465319D01*
X269334Y465309D01*
X269214Y465289D01*
X269125Y465279D01*
X269065Y465259D01*
X269015Y465249D01*
X269005D01*
X268895Y465219D01*
X268785Y465179D01*
X268695Y465149D01*
X268626Y465109D01*
X268566Y465079D01*
X268526Y465049D01*
X268496Y465039D01*
X268486Y465029D01*
X268416Y464979D01*
X268356Y464919D01*
X268266Y464810D01*
X268236Y464770D01*
X268216Y464730D01*
X268196Y464710D01*
Y464700D01*
X268136Y464550D01*
X268106Y464410D01*
X268097Y464360D01*
Y464310D01*
Y464281D01*
Y464271D01*
X268106Y464111D01*
X268146Y463981D01*
X268206Y463861D01*
X268266Y463761D01*
X268326Y463682D01*
X268386Y463632D01*
X268426Y463592D01*
X268436Y463582D01*
X268566Y463502D01*
X268715Y463442D01*
X268865Y463402D01*
X269005Y463372D01*
X269135Y463352D01*
X269244Y463342D01*
X269334D01*
X269594Y463352D01*
X269714Y463362D01*
X269833Y463372D01*
X269923Y463382D01*
X269993Y463392D01*
X270043Y463402D01*
X270063D01*
X270193Y463432D01*
X270312Y463462D01*
X270422Y463492D01*
X270512Y463522D01*
X270592Y463552D01*
X270642Y463572D01*
X270682Y463592D01*
X270692D01*
X271051Y462703D01*
X270772Y462614D01*
X270632Y462574D01*
X270502Y462534D01*
X270392Y462514D01*
X270312Y462494D01*
X270253Y462474D01*
X270233D01*
X270063Y462444D01*
X269893Y462424D01*
X269734Y462404D01*
X269594Y462394D01*
X269474D01*
X269384Y462384D01*
X269304D01*
X269115Y462394D01*
X268945Y462404D01*
X268775Y462424D01*
X268636Y462444D01*
X268526Y462464D01*
X268436Y462484D01*
X268376Y462504D01*
X268356D01*
X268196Y462554D01*
X268057Y462614D01*
X267927Y462673D01*
X267807Y462733D01*
X267717Y462783D01*
X267657Y462823D01*
X267607Y462853D01*
X267597Y462863D01*
X267488Y462963D01*
X267388Y463063D01*
X267298Y463163D01*
X267228Y463252D01*
X267168Y463332D01*
X267128Y463402D01*
X267108Y463442D01*
X267098Y463462D01*
X267038Y463602D01*
X266998Y463741D01*
X266959Y463881D01*
X266939Y464021D01*
X266929Y464131D01*
X266919Y464221D01*
Y464281D01*
Y464291D01*
Y464300D01*
X266929Y464460D01*
X266949Y464610D01*
X266978Y464750D01*
X267008Y464889D01*
X267058Y465009D01*
X267108Y465119D01*
X267158Y465219D01*
X267218Y465319D01*
X267278Y465399D01*
X267328Y465468D01*
X267378Y465528D01*
X267428Y465578D01*
X267458Y465618D01*
X267488Y465648D01*
X267507Y465658D01*
X267518Y465668D01*
X267637Y465758D01*
X267767Y465838D01*
X267897Y465898D01*
X268047Y465958D01*
X268346Y466047D01*
X268636Y466107D01*
X268765Y466127D01*
X268895Y466137D01*
X269005Y466157D01*
X269105D01*
X269195Y466167D01*
X269474D01*
X269304Y467585D01*
X267048D01*
Y468523D01*
X270303D01*
X270672Y465259D01*
D02*
G37*
G36*
X292243Y467076D02*
X292383Y467066D01*
X292513Y467036D01*
X292633Y467016D01*
X292723Y466986D01*
X292802Y466956D01*
X292842Y466946D01*
X292862Y466936D01*
X292992Y466876D01*
X293112Y466806D01*
X293222Y466736D01*
X293312Y466666D01*
X293391Y466606D01*
X293451Y466557D01*
X293491Y466517D01*
X293501Y466507D01*
X293601Y466397D01*
X293691Y466267D01*
X293771Y466147D01*
X293831Y466037D01*
X293881Y465928D01*
X293920Y465848D01*
X293940Y465798D01*
X293950Y465788D01*
Y465778D01*
X294000Y465608D01*
X294040Y465429D01*
X294070Y465249D01*
X294090Y465089D01*
X294100Y464949D01*
X294110Y464830D01*
Y464790D01*
Y464760D01*
Y464740D01*
Y464730D01*
X294100Y464510D01*
X294080Y464310D01*
X294060Y464141D01*
X294030Y463991D01*
X294000Y463861D01*
X293970Y463772D01*
X293960Y463712D01*
X293950Y463702D01*
Y463692D01*
X293881Y463532D01*
X293811Y463392D01*
X293731Y463262D01*
X293661Y463163D01*
X293601Y463073D01*
X293551Y463003D01*
X293511Y462963D01*
X293501Y462953D01*
X293391Y462853D01*
X293282Y462763D01*
X293172Y462693D01*
X293072Y462634D01*
X292992Y462584D01*
X292922Y462554D01*
X292882Y462534D01*
X292862Y462524D01*
X292723Y462474D01*
X292583Y462444D01*
X292463Y462414D01*
X292343Y462404D01*
X292243Y462394D01*
X292174Y462384D01*
X292104D01*
X291854Y462394D01*
X291625Y462434D01*
X291425Y462484D01*
X291245Y462534D01*
X291105Y462594D01*
X291046Y462614D01*
X290996Y462634D01*
X290956Y462654D01*
X290926Y462673D01*
X290916Y462683D01*
X290906D01*
X291265Y463542D01*
X291375Y463472D01*
X291485Y463422D01*
X291595Y463392D01*
X291704Y463372D01*
X291794Y463352D01*
X291864Y463342D01*
X291934D01*
X292074Y463352D01*
X292204Y463382D01*
X292253Y463402D01*
X292293Y463412D01*
X292313Y463422D01*
X292323D01*
X292453Y463502D01*
X292553Y463582D01*
X292593Y463622D01*
X292613Y463652D01*
X292633Y463672D01*
X292643Y463682D01*
X292733Y463831D01*
X292792Y463971D01*
X292822Y464031D01*
X292842Y464081D01*
X292852Y464111D01*
Y464121D01*
X292902Y464330D01*
X292912Y464440D01*
X292922Y464530D01*
X292932Y464620D01*
Y464680D01*
Y464720D01*
Y464740D01*
X292922Y464989D01*
X292882Y465209D01*
X292842Y465389D01*
X292782Y465538D01*
X292733Y465648D01*
X292683Y465728D01*
X292653Y465778D01*
X292643Y465798D01*
X292533Y465918D01*
X292413Y465998D01*
X292293Y466057D01*
X292183Y466107D01*
X292084Y466127D01*
X292004Y466137D01*
X291954Y466147D01*
X291934D01*
X291794Y466137D01*
X291665Y466117D01*
X291545Y466087D01*
X291445Y466057D01*
X291375Y466017D01*
X291315Y465988D01*
X291275Y465968D01*
X291265Y465958D01*
X290906Y466776D01*
X291105Y466876D01*
X291305Y466956D01*
X291505Y467006D01*
X291694Y467046D01*
X291854Y467066D01*
X291924Y467076D01*
X291984Y467086D01*
X292104D01*
X292243Y467076D01*
D02*
G37*
G36*
X281073Y464790D02*
Y463971D01*
X278368D01*
Y462484D01*
X277310D01*
Y463971D01*
X276711D01*
Y464790D01*
X277310D01*
Y468523D01*
X278558D01*
X281073Y464790D01*
D02*
G37*
G36*
X283030Y466936D02*
X283120Y466966D01*
X283220Y466986D01*
X283260D01*
X283289Y466996D01*
X283319D01*
X283449Y467016D01*
X283559Y467026D01*
X283669D01*
X283858Y467016D01*
X284028Y466996D01*
X284188Y466976D01*
X284318Y466946D01*
X284437Y466906D01*
X284517Y466886D01*
X284567Y466866D01*
X284587Y466856D01*
X284727Y466786D01*
X284857Y466706D01*
X284966Y466626D01*
X285066Y466557D01*
X285136Y466487D01*
X285196Y466427D01*
X285236Y466387D01*
X285246Y466377D01*
X285336Y466257D01*
X285426Y466137D01*
X285485Y466017D01*
X285545Y465898D01*
X285585Y465798D01*
X285625Y465718D01*
X285635Y465668D01*
X285645Y465658D01*
Y465648D01*
X285685Y465488D01*
X285715Y465319D01*
X285745Y465159D01*
X285755Y465009D01*
X285765Y464889D01*
X285775Y464790D01*
Y464750D01*
Y464720D01*
Y464710D01*
Y464700D01*
X285765Y464500D01*
X285755Y464310D01*
X285725Y464131D01*
X285685Y463971D01*
X285645Y463821D01*
X285595Y463682D01*
X285545Y463552D01*
X285485Y463432D01*
X285436Y463332D01*
X285386Y463242D01*
X285336Y463173D01*
X285296Y463103D01*
X285256Y463053D01*
X285226Y463023D01*
X285216Y463003D01*
X285206Y462993D01*
X285096Y462883D01*
X284966Y462793D01*
X284837Y462713D01*
X284697Y462644D01*
X284557Y462584D01*
X284417Y462534D01*
X284148Y462464D01*
X284028Y462434D01*
X283908Y462414D01*
X283799Y462404D01*
X283709Y462394D01*
X283639Y462384D01*
X283339D01*
X283160Y462404D01*
X283000Y462414D01*
X282850Y462434D01*
X282740Y462454D01*
X282651Y462464D01*
X282591Y462484D01*
X282571D01*
X282411Y462524D01*
X282281Y462554D01*
X282161Y462594D01*
X282062Y462623D01*
X281982Y462654D01*
X281932Y462683D01*
X281892Y462693D01*
X281882Y462703D01*
Y469042D01*
X283030D01*
Y466936D01*
D02*
G37*
G36*
X256996Y468623D02*
X257176Y468593D01*
X257336Y468553D01*
X257475Y468513D01*
X257585Y468473D01*
X257675Y468433D01*
X257725Y468403D01*
X257745Y468393D01*
X257885Y468293D01*
X258015Y468184D01*
X258124Y468074D01*
X258214Y467974D01*
X258294Y467874D01*
X258344Y467794D01*
X258384Y467744D01*
X258394Y467734D01*
Y467724D01*
X258484Y467565D01*
X258554Y467395D01*
X258623Y467225D01*
X258673Y467076D01*
X258713Y466936D01*
X258743Y466836D01*
X258753Y466796D01*
Y466766D01*
X258763Y466746D01*
Y466736D01*
X258803Y466517D01*
X258833Y466307D01*
X258853Y466097D01*
X258863Y465908D01*
X258873Y465748D01*
X258883Y465678D01*
Y465618D01*
Y465568D01*
Y465538D01*
Y465518D01*
Y465508D01*
X258873Y465259D01*
X258863Y465029D01*
X258843Y464820D01*
X258823Y464640D01*
X258803Y464490D01*
X258793Y464420D01*
X258783Y464370D01*
X258773Y464330D01*
X258763Y464300D01*
Y464281D01*
Y464271D01*
X258713Y464061D01*
X258653Y463871D01*
X258593Y463702D01*
X258533Y463562D01*
X258484Y463442D01*
X258434Y463352D01*
X258404Y463292D01*
X258394Y463282D01*
Y463272D01*
X258294Y463123D01*
X258184Y462993D01*
X258074Y462883D01*
X257974Y462783D01*
X257885Y462713D01*
X257815Y462654D01*
X257765Y462623D01*
X257745Y462614D01*
X257585Y462534D01*
X257425Y462484D01*
X257266Y462444D01*
X257116Y462414D01*
X256986Y462394D01*
X256887Y462384D01*
X256797D01*
X256597Y462394D01*
X256417Y462424D01*
X256258Y462454D01*
X256118Y462504D01*
X256008Y462544D01*
X255918Y462574D01*
X255868Y462604D01*
X255848Y462614D01*
X255709Y462713D01*
X255579Y462813D01*
X255469Y462923D01*
X255369Y463033D01*
X255299Y463123D01*
X255239Y463203D01*
X255210Y463252D01*
X255200Y463272D01*
X255110Y463442D01*
X255040Y463612D01*
X254970Y463782D01*
X254920Y463931D01*
X254880Y464071D01*
X254850Y464171D01*
X254840Y464211D01*
Y464241D01*
X254830Y464261D01*
Y464271D01*
X254790Y464490D01*
X254760Y464700D01*
X254740Y464910D01*
X254720Y465099D01*
Y465269D01*
X254710Y465339D01*
Y465399D01*
Y465438D01*
Y465478D01*
Y465498D01*
Y465508D01*
Y465748D01*
X254730Y465978D01*
X254750Y466187D01*
X254770Y466367D01*
X254790Y466527D01*
X254800Y466586D01*
X254810Y466636D01*
X254820Y466676D01*
Y466706D01*
X254830Y466726D01*
Y466736D01*
X254880Y466946D01*
X254940Y467136D01*
X255000Y467295D01*
X255060Y467445D01*
X255110Y467565D01*
X255160Y467655D01*
X255189Y467705D01*
X255200Y467724D01*
X255299Y467874D01*
X255409Y468014D01*
X255519Y468124D01*
X255619Y468223D01*
X255709Y468293D01*
X255779Y468353D01*
X255828Y468383D01*
X255848Y468393D01*
X256008Y468473D01*
X256168Y468533D01*
X256327Y468573D01*
X256467Y468603D01*
X256597Y468623D01*
X256707Y468633D01*
X256797D01*
X256996Y468623D01*
D02*
G37*
G36*
X196539Y371412D02*
X195624Y371272D01*
X195536Y371424D01*
X195434Y371564D01*
X195345Y371678D01*
X195243Y371780D01*
X195154Y371856D01*
X195091Y371920D01*
X195040Y371945D01*
X195028Y371958D01*
X194875Y372047D01*
X194735Y372110D01*
X194596Y372148D01*
X194469Y372186D01*
X194354Y372199D01*
X194278Y372212D01*
X194062D01*
X193935Y372186D01*
X193694Y372123D01*
X193491Y372034D01*
X193313Y371932D01*
X193173Y371818D01*
X193072Y371729D01*
X193008Y371665D01*
X192983Y371653D01*
Y371640D01*
X192818Y371412D01*
X192703Y371145D01*
X192614Y370878D01*
X192564Y370624D01*
X192526Y370396D01*
X192513Y370294D01*
Y370205D01*
X192500Y370141D01*
Y370091D01*
Y370053D01*
Y370040D01*
X192526Y369646D01*
X192576Y369303D01*
X192665Y368998D01*
X192703Y368871D01*
X192754Y368757D01*
X192805Y368656D01*
X192843Y368554D01*
X192894Y368478D01*
X192932Y368414D01*
X192957Y368363D01*
X192983Y368325D01*
X193008Y368313D01*
Y368300D01*
X193097Y368186D01*
X193199Y368097D01*
X193300Y368008D01*
X193402Y367944D01*
X193605Y367830D01*
X193783Y367754D01*
X193948Y367716D01*
X194075Y367690D01*
X194126Y367678D01*
X194189D01*
X194393Y367703D01*
X194583Y367754D01*
X194748Y367817D01*
X194888Y367906D01*
X195002Y367982D01*
X195091Y368059D01*
X195142Y368110D01*
X195167Y368122D01*
X195307Y368313D01*
X195421Y368529D01*
X195510Y368745D01*
X195574Y368973D01*
X195624Y369164D01*
X195650Y369253D01*
X195662Y369329D01*
X195675Y369392D01*
X195688Y369443D01*
Y369468D01*
Y369481D01*
X196704Y369392D01*
X196679Y369164D01*
X196640Y368948D01*
X196602Y368745D01*
X196539Y368541D01*
X196475Y368376D01*
X196412Y368211D01*
X196348Y368059D01*
X196272Y367932D01*
X196209Y367805D01*
X196145Y367703D01*
X196082Y367614D01*
X196031Y367538D01*
X195980Y367487D01*
X195942Y367449D01*
X195929Y367424D01*
X195917Y367411D01*
X195777Y367284D01*
X195637Y367182D01*
X195497Y367081D01*
X195345Y367005D01*
X195053Y366878D01*
X194774Y366789D01*
X194545Y366738D01*
X194431Y366725D01*
X194342Y366712D01*
X194278Y366700D01*
X194177D01*
X193948Y366712D01*
X193732Y366738D01*
X193542Y366789D01*
X193351Y366852D01*
X193173Y366928D01*
X193008Y367017D01*
X192868Y367106D01*
X192729Y367208D01*
X192614Y367297D01*
X192500Y367386D01*
X192411Y367475D01*
X192348Y367551D01*
X192284Y367614D01*
X192246Y367665D01*
X192221Y367690D01*
X192208Y367703D01*
X192081Y367894D01*
X191967Y368097D01*
X191865Y368300D01*
X191776Y368503D01*
X191713Y368706D01*
X191649Y368910D01*
X191560Y369291D01*
X191535Y369468D01*
X191510Y369621D01*
X191497Y369773D01*
X191484Y369888D01*
X191472Y369989D01*
Y370065D01*
Y370116D01*
Y370129D01*
X191484Y370383D01*
X191497Y370637D01*
X191535Y370865D01*
X191586Y371081D01*
X191637Y371284D01*
X191700Y371475D01*
X191776Y371640D01*
X191840Y371805D01*
X191903Y371932D01*
X191980Y372059D01*
X192043Y372161D01*
X192094Y372250D01*
X192145Y372313D01*
X192170Y372364D01*
X192195Y372389D01*
X192208Y372402D01*
X192348Y372555D01*
X192488Y372682D01*
X192640Y372796D01*
X192792Y372897D01*
X192932Y372974D01*
X193072Y373050D01*
X193351Y373151D01*
X193580Y373202D01*
X193681Y373228D01*
X193770Y373240D01*
X193834Y373253D01*
X194075D01*
X194227Y373228D01*
X194494Y373164D01*
X194748Y373063D01*
X194977Y372961D01*
X195154Y372847D01*
X195231Y372796D01*
X195294Y372745D01*
X195345Y372707D01*
X195383Y372682D01*
X195409Y372669D01*
X195421Y372656D01*
X194989Y375247D01*
X191852D01*
Y376377D01*
X195764D01*
X196539Y371412D01*
D02*
G37*
G36*
X204260Y366865D02*
X203219D01*
Y371145D01*
X201822D01*
X201670Y371119D01*
X201530Y371094D01*
X201416Y371069D01*
X201314Y371043D01*
X201250Y371018D01*
X201212Y371005D01*
X201200Y370992D01*
X201085Y370929D01*
X200984Y370853D01*
X200882Y370764D01*
X200793Y370662D01*
X200717Y370586D01*
X200654Y370510D01*
X200616Y370459D01*
X200603Y370446D01*
X200539Y370357D01*
X200476Y370256D01*
X200323Y370027D01*
X200171Y369761D01*
X200019Y369506D01*
X199879Y369253D01*
X199828Y369151D01*
X199777Y369049D01*
X199739Y368973D01*
X199701Y368910D01*
X199688Y368871D01*
X199676Y368859D01*
X198622Y366865D01*
X197301D01*
X198685Y369481D01*
X198825Y369722D01*
X198965Y369964D01*
X199104Y370167D01*
X199219Y370345D01*
X199333Y370497D01*
X199422Y370611D01*
X199473Y370688D01*
X199498Y370713D01*
X199599Y370815D01*
X199701Y370904D01*
X199930Y371081D01*
X200019Y371145D01*
X200095Y371196D01*
X200146Y371234D01*
X200171Y371246D01*
X199790Y371335D01*
X199460Y371450D01*
X199168Y371589D01*
X198939Y371742D01*
X198838Y371805D01*
X198761Y371881D01*
X198685Y371932D01*
X198622Y371996D01*
X198584Y372034D01*
X198545Y372072D01*
X198520Y372085D01*
Y372097D01*
X198418Y372237D01*
X198330Y372377D01*
X198190Y372669D01*
X198088Y372961D01*
X198025Y373240D01*
X197974Y373494D01*
X197961Y373596D01*
Y373698D01*
X197948Y373774D01*
Y373825D01*
Y373863D01*
Y373875D01*
X197961Y374180D01*
X197999Y374447D01*
X198063Y374701D01*
X198114Y374904D01*
X198177Y375082D01*
X198241Y375209D01*
X198253Y375260D01*
X198279Y375298D01*
X198291Y375310D01*
Y375323D01*
X198418Y375539D01*
X198558Y375729D01*
X198710Y375882D01*
X198838Y376009D01*
X198965Y376110D01*
X199053Y376174D01*
X199117Y376212D01*
X199142Y376225D01*
X199244Y376276D01*
X199358Y376314D01*
X199612Y376390D01*
X199879Y376441D01*
X200146Y376466D01*
X200387Y376492D01*
X200501D01*
X200590Y376504D01*
X204260D01*
Y366865D01*
D02*
G37*
G36*
X204216Y381782D02*
X203175D01*
Y386062D01*
X201778D01*
X201625Y386037D01*
X201486Y386011D01*
X201371Y385986D01*
X201270Y385961D01*
X201206Y385935D01*
X201168Y385923D01*
X201155Y385910D01*
X201041Y385846D01*
X200939Y385770D01*
X200838Y385681D01*
X200749Y385580D01*
X200673Y385503D01*
X200609Y385427D01*
X200571Y385376D01*
X200558Y385364D01*
X200495Y385275D01*
X200431Y385173D01*
X200279Y384945D01*
X200127Y384678D01*
X199974Y384424D01*
X199834Y384170D01*
X199784Y384068D01*
X199733Y383967D01*
X199695Y383890D01*
X199657Y383827D01*
X199644Y383789D01*
X199631Y383776D01*
X198577Y381782D01*
X197256D01*
X198641Y384398D01*
X198780Y384640D01*
X198920Y384881D01*
X199060Y385084D01*
X199174Y385262D01*
X199288Y385415D01*
X199377Y385529D01*
X199428Y385605D01*
X199454Y385630D01*
X199555Y385732D01*
X199657Y385821D01*
X199885Y385999D01*
X199974Y386062D01*
X200050Y386113D01*
X200101Y386151D01*
X200127Y386164D01*
X199746Y386253D01*
X199415Y386367D01*
X199123Y386507D01*
X198895Y386659D01*
X198793Y386723D01*
X198717Y386799D01*
X198641Y386850D01*
X198577Y386913D01*
X198539Y386951D01*
X198501Y386989D01*
X198476Y387002D01*
Y387015D01*
X198374Y387154D01*
X198285Y387294D01*
X198145Y387586D01*
X198044Y387878D01*
X197980Y388158D01*
X197929Y388412D01*
X197917Y388513D01*
Y388615D01*
X197904Y388691D01*
Y388742D01*
Y388780D01*
Y388793D01*
X197917Y389098D01*
X197955Y389364D01*
X198018Y389618D01*
X198069Y389821D01*
X198133Y389999D01*
X198196Y390126D01*
X198209Y390177D01*
X198234Y390215D01*
X198247Y390228D01*
Y390241D01*
X198374Y390456D01*
X198514Y390647D01*
X198666Y390799D01*
X198793Y390926D01*
X198920Y391028D01*
X199009Y391091D01*
X199072Y391129D01*
X199098Y391142D01*
X199200Y391193D01*
X199314Y391231D01*
X199568Y391307D01*
X199834Y391358D01*
X200101Y391384D01*
X200343Y391409D01*
X200457D01*
X200546Y391422D01*
X204216D01*
Y381782D01*
D02*
G37*
G36*
X196977Y385186D02*
Y384094D01*
X193548D01*
Y381782D01*
X192583D01*
Y384094D01*
X191516D01*
Y385186D01*
X192583D01*
Y391422D01*
X193383D01*
X196977Y385186D01*
D02*
G37*
%LPC*%
G36*
X297125Y472516D02*
X297075D01*
Y471148D01*
X297155Y471118D01*
X297244Y471098D01*
X297284Y471088D01*
X297324D01*
X297344Y471078D01*
X297354D01*
X297484Y471068D01*
X297604Y471059D01*
X297714D01*
X297873Y471068D01*
X298013Y471088D01*
X298133Y471108D01*
X298233Y471148D01*
X298313Y471178D01*
X298363Y471198D01*
X298403Y471218D01*
X298412Y471228D01*
X298492Y471298D01*
X298542Y471378D01*
X298582Y471468D01*
X298612Y471548D01*
X298632Y471618D01*
X298642Y471677D01*
Y471717D01*
Y471727D01*
X298632Y471817D01*
X298622Y471897D01*
X298602Y471967D01*
X298572Y472017D01*
X298552Y472067D01*
X298532Y472097D01*
X298522Y472117D01*
X298512Y472127D01*
X298403Y472226D01*
X298293Y472296D01*
X298243Y472326D01*
X298203Y472346D01*
X298183Y472356D01*
X298173D01*
X298003Y472416D01*
X297853Y472446D01*
X297784Y472456D01*
X297734Y472466D01*
X297684D01*
X297464Y472486D01*
X297364Y472496D01*
X297274Y472506D01*
X297195D01*
X297125Y472516D01*
D02*
G37*
G36*
X302405Y474123D02*
X302335D01*
X302186Y474113D01*
X302066Y474083D01*
X301956Y474043D01*
X301866Y473993D01*
X301786Y473943D01*
X301737Y473903D01*
X301707Y473873D01*
X301697Y473863D01*
X301617Y473764D01*
X301567Y473644D01*
X301527Y473514D01*
X301497Y473394D01*
X301477Y473274D01*
X301467Y473185D01*
Y473125D01*
Y473115D01*
Y473105D01*
X303364Y472845D01*
X303344Y473065D01*
X303304Y473255D01*
X303264Y473424D01*
X303204Y473554D01*
X303154Y473664D01*
X303104Y473734D01*
X303074Y473784D01*
X303064Y473794D01*
X302954Y473903D01*
X302834Y473983D01*
X302715Y474043D01*
X302595Y474083D01*
X302495Y474103D01*
X302405Y474123D01*
D02*
G37*
G36*
X265371D02*
X265301D01*
X265152Y474113D01*
X265032Y474083D01*
X264922Y474043D01*
X264832Y473993D01*
X264753Y473943D01*
X264702Y473903D01*
X264673Y473873D01*
X264663Y473863D01*
X264583Y473764D01*
X264533Y473644D01*
X264493Y473514D01*
X264463Y473394D01*
X264443Y473274D01*
X264433Y473185D01*
Y473125D01*
Y473115D01*
Y473105D01*
X266330Y472845D01*
X266310Y473065D01*
X266270Y473255D01*
X266230Y473424D01*
X266170Y473554D01*
X266120Y473664D01*
X266070Y473734D01*
X266040Y473784D01*
X266030Y473794D01*
X265920Y473903D01*
X265801Y473983D01*
X265681Y474043D01*
X265561Y474083D01*
X265461Y474103D01*
X265371Y474123D01*
D02*
G37*
G36*
X254301Y475590D02*
X254191D01*
X253982Y475580D01*
X253802Y475550D01*
X253652Y475501D01*
X253512Y475431D01*
X253403Y475351D01*
X253313Y475261D01*
X253233Y475171D01*
X253173Y475081D01*
X253123Y474981D01*
X253083Y474892D01*
X253063Y474802D01*
X253043Y474722D01*
X253033Y474662D01*
X253023Y474602D01*
Y474572D01*
Y474562D01*
X253033Y474393D01*
X253073Y474243D01*
X253123Y474113D01*
X253183Y474013D01*
X253253Y473923D01*
X253303Y473863D01*
X253343Y473824D01*
X253353Y473814D01*
X253483Y473724D01*
X253632Y473654D01*
X253792Y473614D01*
X253942Y473574D01*
X254081Y473554D01*
X254201Y473544D01*
X254411D01*
X254511Y473554D01*
X254591D01*
X254670Y473564D01*
X254720Y473574D01*
X254770D01*
X254790Y473584D01*
X254800D01*
Y475501D01*
X254710Y475531D01*
X254620Y475550D01*
X254591D01*
X254561Y475560D01*
X254531D01*
X254401Y475580D01*
X254301Y475590D01*
D02*
G37*
G36*
X283200Y475600D02*
X283080D01*
X282870Y475590D01*
X282701Y475560D01*
X282551Y475531D01*
X282431Y475491D01*
X282341Y475441D01*
X282271Y475411D01*
X282231Y475381D01*
X282221Y475371D01*
X282132Y475281D01*
X282062Y475171D01*
X282012Y475071D01*
X281972Y474962D01*
X281952Y474872D01*
X281942Y474802D01*
Y474752D01*
Y474732D01*
X281952Y474572D01*
X281962Y474502D01*
X281982Y474442D01*
X281992Y474393D01*
X282012Y474353D01*
X282022Y474333D01*
Y474323D01*
X282092Y474203D01*
X282151Y474113D01*
X282211Y474053D01*
X282221Y474043D01*
X282231Y474033D01*
X282341Y473963D01*
X282441Y473923D01*
X282491Y473903D01*
X282521Y473893D01*
X282541Y473884D01*
X282551D01*
X282621Y473863D01*
X282701Y473853D01*
X282860Y473843D01*
X282930Y473834D01*
X283778D01*
Y475501D01*
X283689Y475531D01*
X283589Y475550D01*
X283549Y475560D01*
X283509Y475570D01*
X283479D01*
X283329Y475590D01*
X283200Y475600D01*
D02*
G37*
G36*
X283778Y473005D02*
X282910D01*
X282810Y472995D01*
X282730Y472985D01*
X282661D01*
X282601Y472975D01*
X282561Y472965D01*
X282541Y472955D01*
X282531D01*
X282401Y472915D01*
X282301Y472865D01*
X282261Y472835D01*
X282231Y472825D01*
X282211Y472805D01*
X282201D01*
X282072Y472706D01*
X281982Y472596D01*
X281912Y472476D01*
X281872Y472346D01*
X281842Y472236D01*
X281832Y472147D01*
X281822Y472087D01*
Y472077D01*
Y472067D01*
X281832Y471907D01*
X281872Y471757D01*
X281942Y471637D01*
X282012Y471528D01*
X282111Y471438D01*
X282221Y471368D01*
X282331Y471308D01*
X282441Y471258D01*
X282561Y471218D01*
X282670Y471188D01*
X282780Y471168D01*
X282870Y471148D01*
X282950D01*
X283020Y471138D01*
X283070D01*
X283209Y471148D01*
X283339Y471158D01*
X283389D01*
X283429Y471168D01*
X283459D01*
X283589Y471188D01*
X283689Y471218D01*
X283729Y471228D01*
X283759D01*
X283769Y471238D01*
X283778D01*
Y473005D01*
D02*
G37*
G36*
X249420Y475501D02*
X249190D01*
X249080Y475481D01*
X248981Y475461D01*
X248901Y475441D01*
X248831Y475421D01*
X248781Y475401D01*
X248741Y475391D01*
X248731Y475381D01*
X248631Y475331D01*
X248541Y475271D01*
X248472Y475211D01*
X248402Y475151D01*
X248342Y475091D01*
X248302Y475041D01*
X248282Y475011D01*
X248272Y475001D01*
X248202Y474902D01*
X248142Y474792D01*
X248092Y474672D01*
X248052Y474572D01*
X248022Y474472D01*
X248002Y474403D01*
X247982Y474353D01*
Y474333D01*
X247942Y474173D01*
X247922Y474013D01*
X247903Y473853D01*
X247882Y473704D01*
Y473574D01*
X247873Y473464D01*
Y473424D01*
Y473404D01*
Y473384D01*
Y473374D01*
Y473165D01*
X247892Y472985D01*
X247903Y472815D01*
X247922Y472676D01*
X247942Y472556D01*
X247962Y472466D01*
X247972Y472416D01*
X247982Y472396D01*
X248022Y472256D01*
X248072Y472127D01*
X248122Y472017D01*
X248162Y471917D01*
X248202Y471837D01*
X248242Y471787D01*
X248262Y471747D01*
X248272Y471737D01*
X248342Y471647D01*
X248422Y471568D01*
X248501Y471508D01*
X248571Y471448D01*
X248631Y471408D01*
X248681Y471378D01*
X248721Y471368D01*
X248731Y471358D01*
X248831Y471318D01*
X248931Y471288D01*
X249021Y471268D01*
X249110Y471258D01*
X249190Y471248D01*
X249250Y471238D01*
X249430D01*
X249540Y471248D01*
X249639Y471268D01*
X249709Y471278D01*
X249769Y471298D01*
X249819Y471308D01*
X249839Y471318D01*
X249849D01*
Y475421D01*
X249769Y475451D01*
X249679Y475471D01*
X249500Y475491D01*
X249420Y475501D01*
D02*
G37*
G36*
X229336Y475590D02*
X229296D01*
X229206Y475580D01*
X229126Y475570D01*
X229046Y475541D01*
X228986Y475510D01*
X228936Y475481D01*
X228896Y475461D01*
X228876Y475441D01*
X228866Y475431D01*
X228807Y475361D01*
X228747Y475291D01*
X228657Y475141D01*
X228617Y475071D01*
X228597Y475021D01*
X228577Y474981D01*
Y474972D01*
X228537Y474862D01*
X228507Y474742D01*
X228477Y474622D01*
X228457Y474512D01*
X228437Y474422D01*
X228427Y474343D01*
X228417Y474293D01*
Y474273D01*
X228377Y473963D01*
X228367Y473814D01*
Y473674D01*
X228357Y473554D01*
Y473454D01*
Y473394D01*
Y473384D01*
Y473374D01*
Y473195D01*
X228367Y473025D01*
X228377Y472875D01*
X228387Y472746D01*
X228397Y472636D01*
X228407Y472546D01*
X228417Y472496D01*
Y472476D01*
X228437Y472336D01*
X228467Y472196D01*
X228487Y472077D01*
X228517Y471977D01*
X228537Y471897D01*
X228557Y471827D01*
X228567Y471787D01*
X228577Y471777D01*
X228617Y471677D01*
X228667Y471587D01*
X228717Y471508D01*
X228767Y471448D01*
X228807Y471398D01*
X228836Y471358D01*
X228857Y471338D01*
X228866Y471328D01*
X228936Y471278D01*
X229006Y471238D01*
X229076Y471208D01*
X229146Y471188D01*
X229206Y471178D01*
X229256Y471168D01*
X229296D01*
X229386Y471178D01*
X229465Y471198D01*
X229545Y471218D01*
X229605Y471248D01*
X229655Y471278D01*
X229695Y471308D01*
X229715Y471318D01*
X229725Y471328D01*
X229785Y471398D01*
X229845Y471468D01*
X229944Y471618D01*
X229974Y471677D01*
X230004Y471727D01*
X230014Y471767D01*
X230024Y471777D01*
X230094Y472017D01*
X230124Y472127D01*
X230144Y472236D01*
X230164Y472336D01*
X230174Y472406D01*
X230184Y472456D01*
Y472476D01*
X230214Y472785D01*
X230224Y472945D01*
Y473075D01*
X230234Y473195D01*
Y473294D01*
Y473354D01*
Y473364D01*
Y473374D01*
Y473554D01*
X230224Y473724D01*
X230214Y473873D01*
X230204Y474013D01*
Y474123D01*
X230194Y474203D01*
X230184Y474253D01*
Y474273D01*
X230164Y474422D01*
X230134Y474552D01*
X230114Y474672D01*
X230084Y474772D01*
X230064Y474862D01*
X230044Y474922D01*
X230024Y474962D01*
Y474972D01*
X229974Y475081D01*
X229925Y475171D01*
X229875Y475251D01*
X229825Y475311D01*
X229785Y475361D01*
X229755Y475401D01*
X229735Y475421D01*
X229725Y475431D01*
X229655Y475481D01*
X229585Y475521D01*
X229505Y475550D01*
X229445Y475570D01*
X229386Y475580D01*
X229336Y475590D01*
D02*
G37*
G36*
X287761Y464650D02*
X287712D01*
Y463282D01*
X287791Y463252D01*
X287881Y463232D01*
X287921Y463223D01*
X287961D01*
X287981Y463213D01*
X287991D01*
X288121Y463203D01*
X288241Y463192D01*
X288350D01*
X288510Y463203D01*
X288650Y463223D01*
X288770Y463242D01*
X288869Y463282D01*
X288949Y463312D01*
X288999Y463332D01*
X289039Y463352D01*
X289049Y463362D01*
X289129Y463432D01*
X289179Y463512D01*
X289219Y463602D01*
X289249Y463682D01*
X289269Y463751D01*
X289279Y463811D01*
Y463851D01*
Y463861D01*
X289269Y463951D01*
X289259Y464031D01*
X289239Y464101D01*
X289209Y464151D01*
X289189Y464201D01*
X289169Y464231D01*
X289159Y464251D01*
X289149Y464261D01*
X289039Y464360D01*
X288929Y464430D01*
X288879Y464460D01*
X288839Y464480D01*
X288820Y464490D01*
X288810D01*
X288640Y464550D01*
X288490Y464580D01*
X288420Y464590D01*
X288370Y464600D01*
X288320D01*
X288101Y464620D01*
X288001Y464630D01*
X287911Y464640D01*
X287831D01*
X287761Y464650D01*
D02*
G37*
G36*
X278328Y467525D02*
X278308D01*
Y467495D01*
Y467465D01*
Y467365D01*
X278318Y467325D01*
Y467285D01*
Y467255D01*
Y467245D01*
X278328Y467076D01*
Y466986D01*
Y466906D01*
Y466836D01*
Y466786D01*
Y466746D01*
Y466736D01*
Y464790D01*
X280085D01*
X278718Y466836D01*
X278678Y466896D01*
X278638Y466956D01*
X278618Y466996D01*
X278608Y467016D01*
X278568Y467096D01*
X278528Y467165D01*
X278498Y467205D01*
X278488Y467225D01*
X278448Y467295D01*
X278418Y467355D01*
X278398Y467395D01*
X278388Y467405D01*
X278358Y467455D01*
X278338Y467495D01*
X278328Y467515D01*
Y467525D01*
D02*
G37*
G36*
X283609Y466167D02*
X283449D01*
X283349Y466157D01*
X283319Y466147D01*
X283289D01*
X283269Y466137D01*
X283260D01*
X283160Y466117D01*
X283080Y466097D01*
X283040Y466087D01*
X283030Y466077D01*
Y463362D01*
X283100Y463332D01*
X283170Y463312D01*
X283230Y463302D01*
X283249Y463292D01*
X283260D01*
X283369Y463282D01*
X283469Y463272D01*
X283559D01*
X283739Y463292D01*
X283908Y463332D01*
X284038Y463392D01*
X284158Y463462D01*
X284248Y463532D01*
X284318Y463592D01*
X284357Y463632D01*
X284368Y463652D01*
X284457Y463811D01*
X284527Y463981D01*
X284577Y464161D01*
X284607Y464330D01*
X284627Y464480D01*
X284637Y464550D01*
X284647Y464610D01*
Y464650D01*
Y464690D01*
Y464710D01*
Y464720D01*
X284637Y464949D01*
X284607Y465149D01*
X284557Y465329D01*
X284507Y465478D01*
X284457Y465598D01*
X284407Y465688D01*
X284377Y465738D01*
X284368Y465758D01*
X284248Y465898D01*
X284118Y465998D01*
X283988Y466067D01*
X283858Y466117D01*
X283739Y466147D01*
X283649Y466157D01*
X283609Y466167D01*
D02*
G37*
G36*
X256837Y467724D02*
X256797D01*
X256707Y467715D01*
X256627Y467705D01*
X256547Y467674D01*
X256487Y467645D01*
X256437Y467615D01*
X256397Y467595D01*
X256377Y467575D01*
X256367Y467565D01*
X256308Y467495D01*
X256248Y467425D01*
X256158Y467275D01*
X256118Y467205D01*
X256098Y467155D01*
X256078Y467116D01*
Y467105D01*
X256038Y466996D01*
X256008Y466876D01*
X255978Y466756D01*
X255958Y466646D01*
X255938Y466557D01*
X255928Y466477D01*
X255918Y466427D01*
Y466407D01*
X255878Y466097D01*
X255868Y465948D01*
Y465808D01*
X255858Y465688D01*
Y465588D01*
Y465528D01*
Y465518D01*
Y465508D01*
Y465329D01*
X255868Y465159D01*
X255878Y465009D01*
X255888Y464879D01*
X255898Y464770D01*
X255908Y464680D01*
X255918Y464630D01*
Y464610D01*
X255938Y464470D01*
X255968Y464330D01*
X255988Y464211D01*
X256018Y464111D01*
X256038Y464031D01*
X256058Y463961D01*
X256068Y463921D01*
X256078Y463911D01*
X256118Y463811D01*
X256168Y463722D01*
X256218Y463642D01*
X256268Y463582D01*
X256308Y463532D01*
X256338Y463492D01*
X256357Y463472D01*
X256367Y463462D01*
X256437Y463412D01*
X256507Y463372D01*
X256577Y463342D01*
X256647Y463322D01*
X256707Y463312D01*
X256757Y463302D01*
X256797D01*
X256887Y463312D01*
X256966Y463332D01*
X257046Y463352D01*
X257106Y463382D01*
X257156Y463412D01*
X257196Y463442D01*
X257216Y463452D01*
X257226Y463462D01*
X257286Y463532D01*
X257346Y463602D01*
X257446Y463751D01*
X257475Y463811D01*
X257505Y463861D01*
X257515Y463901D01*
X257525Y463911D01*
X257595Y464151D01*
X257625Y464261D01*
X257645Y464370D01*
X257665Y464470D01*
X257675Y464540D01*
X257685Y464590D01*
Y464610D01*
X257715Y464919D01*
X257725Y465079D01*
Y465209D01*
X257735Y465329D01*
Y465429D01*
Y465488D01*
Y465498D01*
Y465508D01*
Y465688D01*
X257725Y465858D01*
X257715Y466007D01*
X257705Y466147D01*
Y466257D01*
X257695Y466337D01*
X257685Y466387D01*
Y466407D01*
X257665Y466557D01*
X257635Y466686D01*
X257615Y466806D01*
X257585Y466906D01*
X257565Y466996D01*
X257545Y467056D01*
X257525Y467096D01*
Y467105D01*
X257475Y467215D01*
X257425Y467305D01*
X257376Y467385D01*
X257326Y467445D01*
X257286Y467495D01*
X257256Y467535D01*
X257236Y467555D01*
X257226Y467565D01*
X257156Y467615D01*
X257086Y467655D01*
X257006Y467685D01*
X256946Y467705D01*
X256887Y467715D01*
X256837Y467724D01*
D02*
G37*
G36*
X203219Y375437D02*
X200730D01*
X200438Y375425D01*
X200171Y375374D01*
X199955Y375310D01*
X199777Y375234D01*
X199638Y375145D01*
X199536Y375082D01*
X199485Y375031D01*
X199460Y375018D01*
X199320Y374853D01*
X199206Y374663D01*
X199130Y374472D01*
X199079Y374282D01*
X199053Y374117D01*
X199028Y373990D01*
Y373939D01*
Y373901D01*
Y373875D01*
Y373863D01*
X199041Y373685D01*
X199066Y373507D01*
X199104Y373355D01*
X199142Y373228D01*
X199180Y373126D01*
X199219Y373037D01*
X199244Y372986D01*
X199257Y372974D01*
X199345Y372847D01*
X199447Y372732D01*
X199549Y372631D01*
X199650Y372555D01*
X199739Y372491D01*
X199803Y372453D01*
X199853Y372427D01*
X199866Y372415D01*
X200019Y372364D01*
X200196Y372326D01*
X200387Y372288D01*
X200565Y372275D01*
X200730Y372262D01*
X200857Y372250D01*
X203219D01*
Y375437D01*
D02*
G37*
G36*
X203175Y390355D02*
X200685D01*
X200393Y390342D01*
X200127Y390291D01*
X199911Y390228D01*
X199733Y390152D01*
X199593Y390063D01*
X199492Y389999D01*
X199441Y389948D01*
X199415Y389936D01*
X199276Y389771D01*
X199161Y389580D01*
X199085Y389390D01*
X199034Y389199D01*
X199009Y389034D01*
X198984Y388907D01*
Y388856D01*
Y388818D01*
Y388793D01*
Y388780D01*
X198996Y388602D01*
X199022Y388424D01*
X199060Y388272D01*
X199098Y388145D01*
X199136Y388043D01*
X199174Y387954D01*
X199200Y387904D01*
X199212Y387891D01*
X199301Y387764D01*
X199403Y387650D01*
X199504Y387548D01*
X199606Y387472D01*
X199695Y387408D01*
X199758Y387370D01*
X199809Y387345D01*
X199822Y387332D01*
X199974Y387281D01*
X200152Y387243D01*
X200343Y387205D01*
X200520Y387192D01*
X200685Y387180D01*
X200812Y387167D01*
X203175D01*
Y390355D01*
D02*
G37*
G36*
X193548Y389517D02*
Y385186D01*
X196037D01*
X193548Y389517D01*
D02*
G37*
%LPD*%
D29*
X290000Y278182D02*
G03*
X260000Y308182I-30000J0D01*
G01*
X199425D02*
G03*
X187227Y304032I0J-20000D01*
G01*
X260000Y248182D02*
G03*
X290000Y278182I0J30000D01*
G01*
X201573Y248182D02*
G03*
X181768Y230965I0J-20000D01*
G01*
X134389Y263367D02*
G03*
X122978Y243768I18297J-23774D01*
G01*
X110452Y154644D02*
G03*
X169868Y146293I29708J-4175D01*
G01*
X252240Y308182D02*
X289185Y271237D01*
X237872Y308182D02*
X284781Y261273D01*
X223504Y308182D02*
X277715Y253971D01*
X209135Y308182D02*
X268038Y249279D01*
X267583Y307208D02*
X289026Y285765D01*
X263590Y248397D02*
X289784Y274592D01*
X199425Y308182D02*
X260000D01*
X195215Y307734D02*
X254767Y248182D01*
X185714Y302867D02*
X240398Y248182D01*
X177594Y296618D02*
X226030Y248182D01*
X201573D02*
X260000D01*
X169475Y290369D02*
X211662Y248182D01*
X234638D02*
X283405Y296949D01*
X234638Y248182D02*
X283405Y296949D01*
X205901Y248182D02*
X265409Y307690D01*
X220269Y248182D02*
X275782Y303695D01*
X249006Y248182D02*
X288469Y287644D01*
X161355Y284120D02*
X197677Y247799D01*
X153235Y277871D02*
X188123Y242983D01*
X145116Y271623D02*
X182509Y234229D01*
X169868Y146293D02*
X181768Y230965D01*
X152842Y123281D02*
X167348Y137787D01*
X145116Y271622D02*
X182509Y234229D01*
X119538Y219292D02*
X208427Y308182D01*
X117188Y202574D02*
X222796Y308182D01*
X114839Y185856D02*
X237164Y308182D01*
X112489Y169139D02*
X251532Y308182D01*
X134389Y263367D02*
X187227Y304032D01*
X136996Y265374D02*
X180491Y221879D01*
X121887Y236010D02*
X192998Y307121D01*
X127688Y256180D02*
X136502Y264993D01*
X129442Y258559D02*
X178720Y209281D01*
X124308Y249325D02*
X176950Y196683D01*
X122056Y237209D02*
X175179Y184085D01*
X120285Y224611D02*
X173409Y171487D01*
X118515Y212013D02*
X171638Y158889D01*
X117391Y130935D02*
X175938Y189482D01*
X117391Y130935D02*
X175938Y189482D01*
X110230Y152511D02*
X180637Y222918D01*
X112057Y139970D02*
X178288Y206200D01*
X125257Y124432D02*
X173588Y172764D01*
X135957Y120764D02*
X171239Y156046D01*
X116744Y199415D02*
X169868Y146292D01*
X114974Y186817D02*
X166207Y135584D01*
X110452Y154644D02*
X122978Y243768D01*
X113203Y174219D02*
X159710Y127713D01*
X111433Y161621D02*
X150681Y122374D01*
X110227Y148458D02*
X138150Y120536D01*
D75*
X207518Y394716D02*
X238506D01*
Y363474D02*
Y394716D01*
X207518Y363474D02*
X238506D01*
X207518D02*
Y394716D01*
X52627Y73522D02*
Y83682D01*
X14527Y73522D02*
Y83682D01*
X29993Y116142D02*
Y147142D01*
X26993Y116142D02*
Y147142D01*
X29993D01*
X26993Y116142D02*
X29993D01*
X78535Y42026D02*
X88695Y42026D01*
X78535Y3926D02*
X88695Y3926D01*
X67993Y70142D02*
X98993D01*
X67993Y73142D02*
X98993D01*
Y70142D02*
Y73142D01*
X67993Y70142D02*
Y73142D01*
X390493Y254142D02*
Y304142D01*
X356493Y254142D02*
Y304142D01*
X390493D01*
X356493Y254142D02*
X390493D01*
X323444Y387404D02*
X332424Y378424D01*
X372588Y436548D02*
X383972Y447932D01*
X345081Y409042D02*
X358516Y422477D01*
X323444Y387404D02*
X326696Y390657D01*
X383972Y447932D02*
X444783Y387122D01*
X384255Y326593D02*
X387507Y329846D01*
X405892Y348231D02*
X419327Y361666D01*
X433399Y375737D02*
X444783Y387122D01*
X375274Y335574D02*
X384255Y326593D01*
D77*
X384000Y162910D02*
G03*
X384000Y162910I-1250J0D01*
G01*
X74243Y192142D02*
G03*
X74243Y192142I-1250J0D01*
G01*
X244243Y194642D02*
G03*
X244243Y194642I-1250J0D01*
G01*
X195243Y133642D02*
G03*
X195243Y133642I-1250J0D01*
G01*
X34586Y242790D02*
G03*
X34586Y242790I-1250J0D01*
G01*
X17743Y113142D02*
G03*
X17743Y113142I-1250J0D01*
G01*
X66243Y83642D02*
G03*
X66243Y83642I-1250J0D01*
G01*
X402993Y307642D02*
G03*
X402993Y307642I-1250J0D01*
G01*
D80*
X101430Y278560D02*
X110410Y269580D01*
X126575Y303705D02*
X135555Y294725D01*
X122983Y271376D02*
X133759Y282152D01*
X103226Y291132D02*
X114003Y301909D01*
M02*
