G04*
G04 #@! TF.GenerationSoftware,Altium Limited,Altium Designer,23.4.1 (23)*
G04*
G04 Layer_Color=16711935*
%FSLAX44Y44*%
%MOMM*%
G71*
G04*
G04 #@! TF.SameCoordinates,AB80FC79-285A-43AE-8B4E-7A9897C75676*
G04*
G04*
G04 #@! TF.FilePolarity,Negative*
G04*
G01*
G75*
G04:AMPARAMS|DCode=82|XSize=1.2032mm|YSize=1.1032mm|CornerRadius=0.3266mm|HoleSize=0mm|Usage=FLASHONLY|Rotation=0.000|XOffset=0mm|YOffset=0mm|HoleType=Round|Shape=RoundedRectangle|*
%AMROUNDEDRECTD82*
21,1,1.2032,0.4500,0,0,0.0*
21,1,0.5500,1.1032,0,0,0.0*
1,1,0.6532,0.2750,-0.2250*
1,1,0.6532,-0.2750,-0.2250*
1,1,0.6532,-0.2750,0.2250*
1,1,0.6532,0.2750,0.2250*
%
%ADD82ROUNDEDRECTD82*%
G04:AMPARAMS|DCode=84|XSize=1.2032mm|YSize=1.1032mm|CornerRadius=0.3266mm|HoleSize=0mm|Usage=FLASHONLY|Rotation=315.000|XOffset=0mm|YOffset=0mm|HoleType=Round|Shape=RoundedRectangle|*
%AMROUNDEDRECTD84*
21,1,1.2032,0.4500,0,0,315.0*
21,1,0.5500,1.1032,0,0,315.0*
1,1,0.6532,0.0354,-0.3536*
1,1,0.6532,-0.3536,0.0354*
1,1,0.6532,-0.0354,0.3536*
1,1,0.6532,0.3536,-0.0354*
%
%ADD84ROUNDEDRECTD84*%
G04:AMPARAMS|DCode=85|XSize=1.2032mm|YSize=1.1032mm|CornerRadius=0.3266mm|HoleSize=0mm|Usage=FLASHONLY|Rotation=90.000|XOffset=0mm|YOffset=0mm|HoleType=Round|Shape=RoundedRectangle|*
%AMROUNDEDRECTD85*
21,1,1.2032,0.4500,0,0,90.0*
21,1,0.5500,1.1032,0,0,90.0*
1,1,0.6532,0.2250,0.2750*
1,1,0.6532,0.2250,-0.2750*
1,1,0.6532,-0.2250,-0.2750*
1,1,0.6532,-0.2250,0.2750*
%
%ADD85ROUNDEDRECTD85*%
%ADD86R,1.2032X0.8032*%
G04:AMPARAMS|DCode=87|XSize=0.8032mm|YSize=1.2032mm|CornerRadius=0.2516mm|HoleSize=0mm|Usage=FLASHONLY|Rotation=90.000|XOffset=0mm|YOffset=0mm|HoleType=Round|Shape=RoundedRectangle|*
%AMROUNDEDRECTD87*
21,1,0.8032,0.7000,0,0,90.0*
21,1,0.3000,1.2032,0,0,90.0*
1,1,0.5032,0.3500,0.1500*
1,1,0.5032,0.3500,-0.1500*
1,1,0.5032,-0.3500,-0.1500*
1,1,0.5032,-0.3500,0.1500*
%
%ADD87ROUNDEDRECTD87*%
G04:AMPARAMS|DCode=92|XSize=2.0032mm|YSize=1.5032mm|CornerRadius=0.4266mm|HoleSize=0mm|Usage=FLASHONLY|Rotation=270.000|XOffset=0mm|YOffset=0mm|HoleType=Round|Shape=RoundedRectangle|*
%AMROUNDEDRECTD92*
21,1,2.0032,0.6500,0,0,270.0*
21,1,1.1500,1.5032,0,0,270.0*
1,1,0.8532,-0.3250,-0.5750*
1,1,0.8532,-0.3250,0.5750*
1,1,0.8532,0.3250,0.5750*
1,1,0.8532,0.3250,-0.5750*
%
%ADD92ROUNDEDRECTD92*%
%ADD97C,3.0000*%
%ADD100R,1.7112X1.7112*%
%ADD101C,1.7112*%
%ADD102C,1.5748*%
%ADD103R,1.7112X1.7112*%
%ADD104R,1.8508X1.8508*%
%ADD105C,1.8508*%
%ADD106R,1.5494X1.5494*%
%ADD107R,1.9032X1.9032*%
%ADD108C,1.9032*%
%ADD109C,1.7032*%
%ADD110R,1.5494X1.5494*%
G04:AMPARAMS|DCode=111|XSize=1.2032mm|YSize=1.8032mm|CornerRadius=0mm|HoleSize=0mm|Usage=FLASHONLY|Rotation=315.000|XOffset=0mm|YOffset=0mm|HoleType=Round|Shape=Round|*
%AMOVALD111*
21,1,0.6000,1.2032,0.0000,0.0000,45.0*
1,1,1.2032,-0.2121,-0.2121*
1,1,1.2032,0.2121,0.2121*
%
%ADD111OVALD111*%

%ADD112C,0.8782*%
G04:AMPARAMS|DCode=113|XSize=1.2032mm|YSize=2.3032mm|CornerRadius=0mm|HoleSize=0mm|Usage=FLASHONLY|Rotation=315.000|XOffset=0mm|YOffset=0mm|HoleType=Round|Shape=Round|*
%AMOVALD113*
21,1,1.1000,1.2032,0.0000,0.0000,45.0*
1,1,1.2032,-0.3889,-0.3889*
1,1,1.2032,0.3889,0.3889*
%
%ADD113OVALD113*%

G04:AMPARAMS|DCode=114|XSize=4.0532mm|YSize=2.3532mm|CornerRadius=0.6391mm|HoleSize=0mm|Usage=FLASHONLY|Rotation=0.000|XOffset=0mm|YOffset=0mm|HoleType=Round|Shape=RoundedRectangle|*
%AMROUNDEDRECTD114*
21,1,4.0532,1.0750,0,0,0.0*
21,1,2.7750,2.3532,0,0,0.0*
1,1,1.2782,1.3875,-0.5375*
1,1,1.2782,-1.3875,-0.5375*
1,1,1.2782,-1.3875,0.5375*
1,1,1.2782,1.3875,0.5375*
%
%ADD114ROUNDEDRECTD114*%
G04:AMPARAMS|DCode=115|XSize=1.8032mm|YSize=2.3532mm|CornerRadius=0.5016mm|HoleSize=0mm|Usage=FLASHONLY|Rotation=0.000|XOffset=0mm|YOffset=0mm|HoleType=Round|Shape=RoundedRectangle|*
%AMROUNDEDRECTD115*
21,1,1.8032,1.3500,0,0,0.0*
21,1,0.8000,2.3532,0,0,0.0*
1,1,1.0032,0.4000,-0.6750*
1,1,1.0032,-0.4000,-0.6750*
1,1,1.0032,-0.4000,0.6750*
1,1,1.0032,0.4000,0.6750*
%
%ADD115ROUNDEDRECTD115*%
%ADD116R,1.8032X2.3532*%
G04:AMPARAMS|DCode=117|XSize=1.2032mm|YSize=1.1032mm|CornerRadius=0.3266mm|HoleSize=0mm|Usage=FLASHONLY|Rotation=45.000|XOffset=0mm|YOffset=0mm|HoleType=Round|Shape=RoundedRectangle|*
%AMROUNDEDRECTD117*
21,1,1.2032,0.4500,0,0,45.0*
21,1,0.5500,1.1032,0,0,45.0*
1,1,0.6532,0.3536,0.0354*
1,1,0.6532,-0.0354,-0.3536*
1,1,0.6532,-0.3536,-0.0354*
1,1,0.6532,0.0354,0.3536*
%
%ADD117ROUNDEDRECTD117*%
%ADD118R,4.2032X2.2032*%
G04:AMPARAMS|DCode=119|XSize=0.9032mm|YSize=1.5032mm|CornerRadius=0.2766mm|HoleSize=0mm|Usage=FLASHONLY|Rotation=270.000|XOffset=0mm|YOffset=0mm|HoleType=Round|Shape=RoundedRectangle|*
%AMROUNDEDRECTD119*
21,1,0.9032,0.9500,0,0,270.0*
21,1,0.3500,1.5032,0,0,270.0*
1,1,0.5532,-0.4750,-0.1750*
1,1,0.5532,-0.4750,0.1750*
1,1,0.5532,0.4750,0.1750*
1,1,0.5532,0.4750,-0.1750*
%
%ADD119ROUNDEDRECTD119*%
%ADD120R,1.5032X0.9032*%
%ADD121R,2.2032X4.2032*%
G04:AMPARAMS|DCode=122|XSize=0.9032mm|YSize=1.5032mm|CornerRadius=0.2766mm|HoleSize=0mm|Usage=FLASHONLY|Rotation=180.000|XOffset=0mm|YOffset=0mm|HoleType=Round|Shape=RoundedRectangle|*
%AMROUNDEDRECTD122*
21,1,0.9032,0.9500,0,0,180.0*
21,1,0.3500,1.5032,0,0,180.0*
1,1,0.5532,-0.1750,0.4750*
1,1,0.5532,0.1750,0.4750*
1,1,0.5532,0.1750,-0.4750*
1,1,0.5532,-0.1750,-0.4750*
%
%ADD122ROUNDEDRECTD122*%
%ADD123R,0.9032X1.5032*%
G04:AMPARAMS|DCode=124|XSize=1.1032mm|YSize=1.0032mm|CornerRadius=0mm|HoleSize=0mm|Usage=FLASHONLY|Rotation=135.000|XOffset=0mm|YOffset=0mm|HoleType=Round|Shape=Rectangle|*
%AMROTATEDRECTD124*
4,1,4,0.7447,-0.0354,0.0354,-0.7447,-0.7447,0.0354,-0.0354,0.7447,0.7447,-0.0354,0.0*
%
%ADD124ROTATEDRECTD124*%

%ADD125R,1.6532X0.8032*%
G04:AMPARAMS|DCode=126|XSize=0.8032mm|YSize=1.6532mm|CornerRadius=0.2516mm|HoleSize=0mm|Usage=FLASHONLY|Rotation=90.000|XOffset=0mm|YOffset=0mm|HoleType=Round|Shape=RoundedRectangle|*
%AMROUNDEDRECTD126*
21,1,0.8032,1.1500,0,0,90.0*
21,1,0.3000,1.6532,0,0,90.0*
1,1,0.5032,0.5750,0.1500*
1,1,0.5032,0.5750,-0.1500*
1,1,0.5032,-0.5750,-0.1500*
1,1,0.5032,-0.5750,0.1500*
%
%ADD126ROUNDEDRECTD126*%
G04:AMPARAMS|DCode=127|XSize=2.5032mm|YSize=3.4032mm|CornerRadius=0.3891mm|HoleSize=0mm|Usage=FLASHONLY|Rotation=180.000|XOffset=0mm|YOffset=0mm|HoleType=Round|Shape=RoundedRectangle|*
%AMROUNDEDRECTD127*
21,1,2.5032,2.6250,0,0,180.0*
21,1,1.7250,3.4032,0,0,180.0*
1,1,0.7782,-0.8625,1.3125*
1,1,0.7782,0.8625,1.3125*
1,1,0.7782,0.8625,-1.3125*
1,1,0.7782,-0.8625,-1.3125*
%
%ADD127ROUNDEDRECTD127*%
G04:AMPARAMS|DCode=128|XSize=1.6032mm|YSize=1.4032mm|CornerRadius=0mm|HoleSize=0mm|Usage=FLASHONLY|Rotation=45.000|XOffset=0mm|YOffset=0mm|HoleType=Round|Shape=Rectangle|*
%AMROTATEDRECTD128*
4,1,4,-0.0707,-1.0629,-1.0629,-0.0707,0.0707,1.0629,1.0629,0.0707,-0.0707,-1.0629,0.0*
%
%ADD128ROTATEDRECTD128*%

G04:AMPARAMS|DCode=129|XSize=0.5032mm|YSize=1.6532mm|CornerRadius=0mm|HoleSize=0mm|Usage=FLASHONLY|Rotation=315.000|XOffset=0mm|YOffset=0mm|HoleType=Round|Shape=Rectangle|*
%AMROTATEDRECTD129*
4,1,4,-0.7624,-0.4066,0.4066,0.7624,0.7624,0.4066,-0.4066,-0.7624,-0.7624,-0.4066,0.0*
%
%ADD129ROTATEDRECTD129*%

G04:AMPARAMS|DCode=130|XSize=0.8032mm|YSize=1.6532mm|CornerRadius=0mm|HoleSize=0mm|Usage=FLASHONLY|Rotation=315.000|XOffset=0mm|YOffset=0mm|HoleType=Round|Shape=Rectangle|*
%AMROTATEDRECTD130*
4,1,4,-0.8685,-0.3005,0.3005,0.8685,0.8685,0.3005,-0.3005,-0.8685,-0.8685,-0.3005,0.0*
%
%ADD130ROTATEDRECTD130*%

%ADD131C,0.4000*%
D82*
X9398Y270890D02*
D03*
Y254890D02*
D03*
X260350Y148210D02*
D03*
Y164210D02*
D03*
X45466Y260730D02*
D03*
Y244730D02*
D03*
X106128Y205215D02*
D03*
Y221215D02*
D03*
X60993Y111142D02*
D03*
Y127142D02*
D03*
X130993Y29642D02*
D03*
Y13642D02*
D03*
X434993Y299142D02*
D03*
Y315142D02*
D03*
X419493Y299642D02*
D03*
Y315642D02*
D03*
X161593Y338826D02*
D03*
Y354826D02*
D03*
D84*
X81843Y254343D02*
D03*
X93157Y265657D02*
D03*
X79990Y367331D02*
D03*
X91304Y378645D02*
D03*
X34524Y368348D02*
D03*
X45837Y379661D02*
D03*
X51649Y362299D02*
D03*
X40336Y350985D02*
D03*
X33900Y391599D02*
D03*
X22586Y380285D02*
D03*
X139150Y329799D02*
D03*
X127836Y318486D02*
D03*
D85*
X326000Y258000D02*
D03*
X310000D02*
D03*
X66213Y224230D02*
D03*
X50213D02*
D03*
X65912Y205740D02*
D03*
X49912D02*
D03*
X60493Y149142D02*
D03*
X76493D02*
D03*
X418993Y330142D02*
D03*
X434993D02*
D03*
X384993Y243142D02*
D03*
X400993D02*
D03*
X388993Y314142D02*
D03*
X404993D02*
D03*
X370993Y243142D02*
D03*
X354993D02*
D03*
X180769Y387720D02*
D03*
X164769D02*
D03*
X98729Y403468D02*
D03*
X114729D02*
D03*
X231493Y371642D02*
D03*
X215493D02*
D03*
X215493Y386642D02*
D03*
X231493D02*
D03*
D86*
X72993Y183642D02*
D03*
X242993Y186142D02*
D03*
X193993Y142142D02*
D03*
X33336Y234290D02*
D03*
D87*
X48993Y174142D02*
D03*
X72993Y164642D02*
D03*
X242993Y167142D02*
D03*
X218993Y176642D02*
D03*
X193993Y161142D02*
D03*
X217993Y151642D02*
D03*
X33336Y215290D02*
D03*
X9336Y224790D02*
D03*
D92*
X186993Y424142D02*
D03*
X214993D02*
D03*
D97*
X242831Y57698D02*
D03*
X490537Y243924D02*
D03*
X99173Y443502D02*
D03*
D100*
X297899Y495078D02*
D03*
D101*
X272899D02*
D03*
X247899D02*
D03*
X222899D02*
D03*
X25993Y172142D02*
D03*
Y250142D02*
D03*
X148385Y77694D02*
D03*
Y52694D02*
D03*
X86993Y202142D02*
D03*
D102*
X177595Y344032D02*
D03*
X177595Y318632D02*
D03*
Y369432D02*
D03*
X249223Y208650D02*
D03*
X223823D02*
D03*
X198423D02*
D03*
X304595Y394832D02*
D03*
Y369432D02*
D03*
X279195D02*
D03*
Y394832D02*
D03*
Y420232D02*
D03*
X253795Y369432D02*
D03*
Y394832D02*
D03*
X253795Y420232D02*
D03*
X279195Y445632D02*
D03*
X304595Y445632D02*
D03*
X253795Y445632D02*
D03*
X228395D02*
D03*
X355395Y318632D02*
D03*
Y445632D02*
D03*
X202995Y445632D02*
D03*
X202995Y318632D02*
D03*
X228395Y318632D02*
D03*
X253795Y318632D02*
D03*
X279195D02*
D03*
X304595Y318632D02*
D03*
X329995Y318632D02*
D03*
Y445632D02*
D03*
X177595Y445632D02*
D03*
D103*
X25993Y197142D02*
D03*
Y275142D02*
D03*
X148385Y27694D02*
D03*
X86993Y227142D02*
D03*
D104*
X274623Y234050D02*
D03*
D105*
X249223D02*
D03*
X223823D02*
D03*
X198423D02*
D03*
X173023D02*
D03*
X147623D02*
D03*
D106*
X274623Y208650D02*
D03*
D107*
X290793Y149142D02*
D03*
D108*
X239993D02*
D03*
D109*
X490993Y368048D02*
D03*
X365993Y494142D02*
D03*
X140160Y150469D02*
D03*
X260000Y278182D02*
D03*
D110*
X304595Y344032D02*
D03*
X279195D02*
D03*
X253795Y344032D02*
D03*
D111*
X365446Y429689D02*
D03*
X426539Y368595D02*
D03*
D112*
X349748Y393768D02*
D03*
X390618Y352898D02*
D03*
D113*
X335889Y400132D02*
D03*
X396982Y339038D02*
D03*
D114*
X345000Y216250D02*
D03*
D115*
X322000Y157750D02*
D03*
X345000Y157750D02*
D03*
D116*
X368000Y157750D02*
D03*
D117*
X71323Y288190D02*
D03*
X82637Y276876D02*
D03*
X68157Y266843D02*
D03*
X56843Y278157D02*
D03*
X101650Y345985D02*
D03*
X90336Y357299D02*
D03*
X114150Y358485D02*
D03*
X102836Y369799D02*
D03*
X77704Y316923D02*
D03*
X89017Y305609D02*
D03*
D118*
X33577Y95112D02*
D03*
Y62092D02*
D03*
D119*
X40493Y122142D02*
D03*
Y131642D02*
D03*
Y141142D02*
D03*
X16493D02*
D03*
Y131642D02*
D03*
D120*
Y122142D02*
D03*
D121*
X67105Y22976D02*
D03*
X100125D02*
D03*
D122*
X73993Y59642D02*
D03*
X83493Y59642D02*
D03*
X92993Y59642D02*
D03*
Y83642D02*
D03*
X83493Y83642D02*
D03*
D123*
X73993Y83642D02*
D03*
D124*
X154350Y323074D02*
D03*
X144451Y313175D02*
D03*
D125*
X401743Y299142D02*
D03*
D126*
Y289142D02*
D03*
Y279142D02*
D03*
Y269142D02*
D03*
Y259142D02*
D03*
X345243Y299142D02*
D03*
Y289142D02*
D03*
Y279142D02*
D03*
Y269142D02*
D03*
Y259142D02*
D03*
D127*
X373493Y279142D02*
D03*
D128*
X136453Y288438D02*
D03*
X120289Y304603D02*
D03*
X116697Y268682D02*
D03*
X100532Y284846D02*
D03*
D129*
X372694Y351094D02*
D03*
X369158Y354629D02*
D03*
X347945Y375842D02*
D03*
X351481Y372307D02*
D03*
X358552Y365236D02*
D03*
X362087Y361700D02*
D03*
X355016Y368771D02*
D03*
X365623Y358165D02*
D03*
D130*
X337339Y386449D02*
D03*
X383301Y340487D02*
D03*
X377644Y346144D02*
D03*
X342995Y380792D02*
D03*
D131*
X178054Y281432D02*
D03*
X146409Y297075D02*
D03*
X191565Y303646D02*
D03*
X41948Y359819D02*
D03*
X328000Y182000D02*
D03*
X316000D02*
D03*
X322000D02*
D03*
X316000Y176000D02*
D03*
X322000D02*
D03*
X328000D02*
D03*
X351000Y182000D02*
D03*
X345000D02*
D03*
X339000D02*
D03*
Y176000D02*
D03*
X345000D02*
D03*
X351000D02*
D03*
X113538Y53340D02*
D03*
X374000Y176000D02*
D03*
X368000D02*
D03*
X362000D02*
D03*
Y182000D02*
D03*
X368000D02*
D03*
X374000D02*
D03*
X342000Y234000D02*
D03*
X329000Y243818D02*
D03*
X137023Y407518D02*
D03*
X51054Y411226D02*
D03*
X205994Y389636D02*
D03*
X106680Y410464D02*
D03*
X71882Y411988D02*
D03*
X147574Y425958D02*
D03*
X164639Y416642D02*
D03*
X178457Y397256D02*
D03*
X165637Y301781D02*
D03*
X172212Y434086D02*
D03*
X38100Y225044D02*
D03*
X44940Y214376D02*
D03*
X71871Y244100D02*
D03*
X134430Y244050D02*
D03*
X105684Y272796D02*
D03*
X18034Y349758D02*
D03*
X37952Y251813D02*
D03*
X4250Y320581D02*
D03*
X13004Y309321D02*
D03*
X115570Y195072D02*
D03*
X73914Y211582D02*
D03*
X155900Y307792D02*
D03*
X151892Y270764D02*
D03*
X104443Y301360D02*
D03*
X193802Y253238D02*
D03*
X377324Y302544D02*
D03*
X326382Y280589D02*
D03*
X385572Y226568D02*
D03*
X437388Y283052D02*
D03*
X415339Y270626D02*
D03*
X413815Y263768D02*
D03*
X22860Y326644D02*
D03*
X11036Y338000D02*
D03*
X19733Y297699D02*
D03*
X185928Y241554D02*
D03*
X38518Y277024D02*
D03*
X44360Y271182D02*
D03*
X23146Y291536D02*
D03*
X34250Y292250D02*
D03*
X53419Y296146D02*
D03*
X198052Y330951D02*
D03*
X185723Y334380D02*
D03*
X190468Y339932D02*
D03*
X56321Y253746D02*
D03*
X4250Y338000D02*
D03*
X363607Y381032D02*
D03*
X116635Y206872D02*
D03*
X72236Y191931D02*
D03*
X6399Y145404D02*
D03*
X52340Y137044D02*
D03*
X52490Y110250D02*
D03*
X72439Y127624D02*
D03*
X79297Y105272D02*
D03*
X76568Y71556D02*
D03*
X67821Y76799D02*
D03*
X95376Y70816D02*
D03*
X62025Y92318D02*
D03*
X23493Y79610D02*
D03*
X27993Y148198D02*
D03*
X18499Y112397D02*
D03*
X40435Y149976D02*
D03*
X67391Y142855D02*
D03*
X183993Y170502D02*
D03*
X116889Y88762D02*
D03*
X124255Y108066D02*
D03*
X129335Y90032D02*
D03*
X231189Y178946D02*
D03*
X183993Y150024D02*
D03*
X53897Y391784D02*
D03*
X41451Y397626D02*
D03*
X167689D02*
D03*
X172261Y275198D02*
D03*
X384114Y252678D02*
D03*
X323899Y300344D02*
D03*
X153432Y379483D02*
D03*
X148626Y384274D02*
D03*
X164133Y442584D02*
D03*
X62243Y59642D02*
D03*
X46023Y15864D02*
D03*
X93493Y100496D02*
D03*
X115275Y39142D02*
D03*
X117905Y26532D02*
D03*
X85834Y49713D02*
D03*
X42311Y39642D02*
D03*
X30993Y79610D02*
D03*
X15993D02*
D03*
X448105Y356152D02*
D03*
X368385Y376212D02*
D03*
X448105Y349366D02*
D03*
X444579Y313216D02*
D03*
X317803Y275706D02*
D03*
X344473Y250306D02*
D03*
X345743Y359526D02*
D03*
X383808Y356924D02*
D03*
X352855Y336158D02*
D03*
X360983Y346454D02*
D03*
X430833Y340222D02*
D03*
X339991Y367781D02*
D03*
X417529Y339678D02*
D03*
X119175Y411215D02*
D03*
X92454Y327573D02*
D03*
X99871Y383656D02*
D03*
X105205Y388954D02*
D03*
X120699Y335142D02*
D03*
X51357Y351933D02*
D03*
X131621Y345810D02*
D03*
X102969Y318074D02*
D03*
X82599Y297042D02*
D03*
X64819Y358764D02*
D03*
X124509Y341238D02*
D03*
X120191Y352444D02*
D03*
X106668Y340967D02*
D03*
X131621Y298566D02*
D03*
X378993Y290142D02*
D03*
X367993D02*
D03*
X378993Y279142D02*
D03*
X367993D02*
D03*
X378993Y268142D02*
D03*
X367993D02*
D03*
M02*
