G04*
G04 #@! TF.GenerationSoftware,Altium Limited,Altium Designer,23.4.1 (23)*
G04*
G04 Layer_Physical_Order=1*
G04 Layer_Color=255*
%FSLAX44Y44*%
%MOMM*%
G71*
G04*
G04 #@! TF.SameCoordinates,AB80FC79-285A-43AE-8B4E-7A9897C75676*
G04*
G04*
G04 #@! TF.FilePolarity,Positive*
G04*
G01*
G75*
%ADD10C,0.9906*%
G04:AMPARAMS|DCode=11|XSize=1mm|YSize=0.9mm|CornerRadius=0.225mm|HoleSize=0mm|Usage=FLASHONLY|Rotation=0.000|XOffset=0mm|YOffset=0mm|HoleType=Round|Shape=RoundedRectangle|*
%AMROUNDEDRECTD11*
21,1,1.0000,0.4500,0,0,0.0*
21,1,0.5500,0.9000,0,0,0.0*
1,1,0.4500,0.2750,-0.2250*
1,1,0.4500,-0.2750,-0.2250*
1,1,0.4500,-0.2750,0.2250*
1,1,0.4500,0.2750,0.2250*
%
%ADD11ROUNDEDRECTD11*%
G04:AMPARAMS|DCode=12|XSize=1.475mm|YSize=0.3mm|CornerRadius=0.075mm|HoleSize=0mm|Usage=FLASHONLY|Rotation=225.000|XOffset=0mm|YOffset=0mm|HoleType=Round|Shape=RoundedRectangle|*
%AMROUNDEDRECTD12*
21,1,1.4750,0.1500,0,0,225.0*
21,1,1.3250,0.3000,0,0,225.0*
1,1,0.1500,-0.5215,-0.4154*
1,1,0.1500,0.4154,0.5215*
1,1,0.1500,0.5215,0.4154*
1,1,0.1500,-0.4154,-0.5215*
%
%ADD12ROUNDEDRECTD12*%
G04:AMPARAMS|DCode=13|XSize=1mm|YSize=0.9mm|CornerRadius=0.225mm|HoleSize=0mm|Usage=FLASHONLY|Rotation=315.000|XOffset=0mm|YOffset=0mm|HoleType=Round|Shape=RoundedRectangle|*
%AMROUNDEDRECTD13*
21,1,1.0000,0.4500,0,0,315.0*
21,1,0.5500,0.9000,0,0,315.0*
1,1,0.4500,0.0354,-0.3536*
1,1,0.4500,-0.3536,0.0354*
1,1,0.4500,-0.0354,0.3536*
1,1,0.4500,0.3536,-0.0354*
%
%ADD13ROUNDEDRECTD13*%
G04:AMPARAMS|DCode=14|XSize=1mm|YSize=0.9mm|CornerRadius=0.225mm|HoleSize=0mm|Usage=FLASHONLY|Rotation=90.000|XOffset=0mm|YOffset=0mm|HoleType=Round|Shape=RoundedRectangle|*
%AMROUNDEDRECTD14*
21,1,1.0000,0.4500,0,0,90.0*
21,1,0.5500,0.9000,0,0,90.0*
1,1,0.4500,0.2250,0.2750*
1,1,0.4500,0.2250,-0.2750*
1,1,0.4500,-0.2250,-0.2750*
1,1,0.4500,-0.2250,0.2750*
%
%ADD14ROUNDEDRECTD14*%
%ADD15R,1.0000X0.6000*%
G04:AMPARAMS|DCode=16|XSize=0.6mm|YSize=1mm|CornerRadius=0.15mm|HoleSize=0mm|Usage=FLASHONLY|Rotation=90.000|XOffset=0mm|YOffset=0mm|HoleType=Round|Shape=RoundedRectangle|*
%AMROUNDEDRECTD16*
21,1,0.6000,0.7000,0,0,90.0*
21,1,0.3000,1.0000,0,0,90.0*
1,1,0.3000,0.3500,0.1500*
1,1,0.3000,0.3500,-0.1500*
1,1,0.3000,-0.3500,-0.1500*
1,1,0.3000,-0.3500,0.1500*
%
%ADD16ROUNDEDRECTD16*%
G04:AMPARAMS|DCode=17|XSize=1.2mm|YSize=0.8mm|CornerRadius=0.2mm|HoleSize=0mm|Usage=FLASHONLY|Rotation=90.000|XOffset=0mm|YOffset=0mm|HoleType=Round|Shape=RoundedRectangle|*
%AMROUNDEDRECTD17*
21,1,1.2000,0.4000,0,0,90.0*
21,1,0.8000,0.8000,0,0,90.0*
1,1,0.4000,0.2000,0.4000*
1,1,0.4000,0.2000,-0.4000*
1,1,0.4000,-0.2000,-0.4000*
1,1,0.4000,-0.2000,0.4000*
%
%ADD17ROUNDEDRECTD17*%
%ADD18R,0.8000X1.2000*%
%ADD19R,0.8500X0.9500*%
G04:AMPARAMS|DCode=20|XSize=0.95mm|YSize=0.85mm|CornerRadius=0.2125mm|HoleSize=0mm|Usage=FLASHONLY|Rotation=270.000|XOffset=0mm|YOffset=0mm|HoleType=Round|Shape=RoundedRectangle|*
%AMROUNDEDRECTD20*
21,1,0.9500,0.4250,0,0,270.0*
21,1,0.5250,0.8500,0,0,270.0*
1,1,0.4250,-0.2125,-0.2625*
1,1,0.4250,-0.2125,0.2625*
1,1,0.4250,0.2125,0.2625*
1,1,0.4250,0.2125,-0.2625*
%
%ADD20ROUNDEDRECTD20*%
G04:AMPARAMS|DCode=21|XSize=1.8mm|YSize=1.3mm|CornerRadius=0.325mm|HoleSize=0mm|Usage=FLASHONLY|Rotation=270.000|XOffset=0mm|YOffset=0mm|HoleType=Round|Shape=RoundedRectangle|*
%AMROUNDEDRECTD21*
21,1,1.8000,0.6500,0,0,270.0*
21,1,1.1500,1.3000,0,0,270.0*
1,1,0.6500,-0.3250,-0.5750*
1,1,0.6500,-0.3250,0.5750*
1,1,0.6500,0.3250,0.5750*
1,1,0.6500,0.3250,-0.5750*
%
%ADD21ROUNDEDRECTD21*%
G04:AMPARAMS|DCode=22|XSize=1.475mm|YSize=0.3mm|CornerRadius=0mm|HoleSize=0mm|Usage=FLASHONLY|Rotation=135.000|XOffset=0mm|YOffset=0mm|HoleType=Round|Shape=Rectangle|*
%AMROTATEDRECTD22*
4,1,4,0.6276,-0.4154,0.4154,-0.6276,-0.6276,0.4154,-0.4154,0.6276,0.6276,-0.4154,0.0*
%
%ADD22ROTATEDRECTD22*%

G04:AMPARAMS|DCode=23|XSize=1.475mm|YSize=0.3mm|CornerRadius=0mm|HoleSize=0mm|Usage=FLASHONLY|Rotation=135.000|XOffset=0mm|YOffset=0mm|HoleType=Round|Shape=Round|*
%AMOVALD23*
21,1,1.1750,0.3000,0.0000,0.0000,135.0*
1,1,0.3000,0.4154,-0.4154*
1,1,0.3000,-0.4154,0.4154*
%
%ADD23OVALD23*%

G04:AMPARAMS|DCode=24|XSize=1.475mm|YSize=0.3mm|CornerRadius=0.075mm|HoleSize=0mm|Usage=FLASHONLY|Rotation=135.000|XOffset=0mm|YOffset=0mm|HoleType=Round|Shape=RoundedRectangle|*
%AMROUNDEDRECTD24*
21,1,1.4750,0.1500,0,0,135.0*
21,1,1.3250,0.3000,0,0,135.0*
1,1,0.1500,-0.4154,0.5215*
1,1,0.1500,0.5215,-0.4154*
1,1,0.1500,0.4154,-0.5215*
1,1,0.1500,-0.5215,0.4154*
%
%ADD24ROUNDEDRECTD24*%
%ADD25R,1.2000X1.0000*%
%ADD26C,1.5000*%
G04:AMPARAMS|DCode=27|XSize=1.5mm|YSize=3.5mm|CornerRadius=0.375mm|HoleSize=0mm|Usage=FLASHONLY|Rotation=225.000|XOffset=0mm|YOffset=0mm|HoleType=Round|Shape=RoundedRectangle|*
%AMROUNDEDRECTD27*
21,1,1.5000,2.7500,0,0,225.0*
21,1,0.7500,3.5000,0,0,225.0*
1,1,0.7500,-1.2374,0.7071*
1,1,0.7500,-0.7071,1.2374*
1,1,0.7500,1.2374,-0.7071*
1,1,0.7500,0.7071,-1.2374*
%
%ADD27ROUNDEDRECTD27*%
G04:AMPARAMS|DCode=28|XSize=1.5mm|YSize=3.5mm|CornerRadius=0mm|HoleSize=0mm|Usage=FLASHONLY|Rotation=225.000|XOffset=0mm|YOffset=0mm|HoleType=Round|Shape=Rectangle|*
%AMROTATEDRECTD28*
4,1,4,-0.7071,1.7678,1.7678,-0.7071,0.7071,-1.7678,-1.7678,0.7071,-0.7071,1.7678,0.0*
%
%ADD28ROTATEDRECTD28*%

%ADD29C,0.2032*%
%ADD30C,0.3048*%
%ADD31C,0.4318*%
%ADD32C,0.2540*%
%ADD33C,1.2700*%
%ADD34C,0.6350*%
%ADD35C,1.0160*%
%ADD36C,0.5080*%
%ADD37R,1.5080X1.5080*%
%ADD38C,1.5080*%
%ADD39C,1.3716*%
%ADD40R,1.5080X1.5080*%
%ADD41R,1.8000X1.8000*%
%ADD42C,1.8000*%
%ADD43R,1.4986X1.4986*%
%ADD44C,1.5240*%
%ADD45R,1.7000X1.7000*%
%ADD46C,1.7000*%
%ADD47R,1.4986X1.4986*%
G04:AMPARAMS|DCode=48|XSize=1mm|YSize=1.6mm|CornerRadius=0mm|HoleSize=0mm|Usage=FLASHONLY|Rotation=315.000|XOffset=0mm|YOffset=0mm|HoleType=Round|Shape=Round|*
%AMOVALD48*
21,1,0.6000,1.0000,0.0000,0.0000,45.0*
1,1,1.0000,-0.2121,-0.2121*
1,1,1.0000,0.2121,0.2121*
%
%ADD48OVALD48*%

%ADD49C,0.6750*%
G04:AMPARAMS|DCode=50|XSize=1mm|YSize=2.1mm|CornerRadius=0mm|HoleSize=0mm|Usage=FLASHONLY|Rotation=315.000|XOffset=0mm|YOffset=0mm|HoleType=Round|Shape=Round|*
%AMOVALD50*
21,1,1.1000,1.0000,0.0000,0.0000,45.0*
1,1,1.0000,-0.3889,-0.3889*
1,1,1.0000,0.3889,0.3889*
%
%ADD50OVALD50*%

%ADD51C,0.4500*%
%ADD52C,0.5000*%
G36*
X369062Y453095D02*
X368301Y452334D01*
X367859Y451673D01*
X367704Y450892D01*
X367859Y450112D01*
X368301Y449450D01*
X368301Y449450D01*
X440993Y376759D01*
Y354990D01*
X440993Y320588D01*
X428737D01*
Y306516D01*
X440993D01*
Y300026D01*
X437510Y296543D01*
X433875D01*
Y298750D01*
X433523Y300520D01*
X432520Y302020D01*
X431020Y303023D01*
X429250Y303375D01*
X423750D01*
X421980Y303023D01*
X420480Y302020D01*
X419689Y300836D01*
X419611Y300808D01*
X418538Y300768D01*
X418277Y300836D01*
X417549Y301927D01*
X416049Y302929D01*
X414279Y303281D01*
X408779D01*
X407009Y302929D01*
X405508Y301927D01*
X404506Y300426D01*
X404154Y298656D01*
Y297274D01*
X402884Y296892D01*
X401997Y297485D01*
X401438Y297596D01*
X401279Y298394D01*
X400277Y299895D01*
X398777Y300897D01*
X397007Y301249D01*
X394133D01*
X393095Y302519D01*
X393189Y302992D01*
Y310821D01*
X393325Y310847D01*
X394825Y311850D01*
X395827Y313351D01*
X396180Y315120D01*
Y320620D01*
X395827Y322390D01*
X394825Y323891D01*
X393325Y324893D01*
X391555Y325245D01*
X387055D01*
X385285Y324893D01*
X383784Y323891D01*
X382782Y322390D01*
X382430Y320620D01*
Y315120D01*
X382782Y313351D01*
X383784Y311850D01*
X385285Y310847D01*
X385420Y310821D01*
Y304601D01*
X383130Y302312D01*
X381861Y302838D01*
Y303447D01*
X381170Y305114D01*
X379894Y306390D01*
X378227Y307080D01*
X376422D01*
X374755Y306390D01*
X373479Y305114D01*
X372789Y303447D01*
Y301642D01*
X373479Y299975D01*
X374755Y298699D01*
X376422Y298008D01*
X378227D01*
X379894Y298699D01*
X380292Y299097D01*
X381562Y298571D01*
Y267282D01*
X378860Y264579D01*
X378859Y264579D01*
X374951Y260671D01*
X374109Y259411D01*
X373813Y257924D01*
Y240845D01*
X374109Y239358D01*
X374951Y238098D01*
X381736Y231313D01*
Y229147D01*
X381727Y229137D01*
X381036Y227470D01*
Y225666D01*
X381727Y223999D01*
X381736Y223989D01*
Y216698D01*
X377335D01*
Y202126D01*
X393907D01*
Y216698D01*
X389505D01*
Y224211D01*
X390108Y225666D01*
Y227470D01*
X389505Y228925D01*
Y232922D01*
X389210Y234409D01*
X388368Y235669D01*
X381583Y242454D01*
Y247674D01*
X382639Y248380D01*
X383212Y248142D01*
X385017D01*
X386421Y248724D01*
X386454Y248718D01*
X390830D01*
X390860Y248688D01*
X391952Y247958D01*
X393241Y247702D01*
X394777D01*
Y243782D01*
X408632D01*
X409374Y242752D01*
X376514Y144171D01*
X367587Y135244D01*
X199626Y135244D01*
X184453D01*
X183455Y134247D01*
X182178D01*
X182178Y134247D01*
X181398Y134091D01*
X180736Y133649D01*
X180736Y133649D01*
X174629Y127542D01*
X174187Y126881D01*
X174032Y126100D01*
Y124823D01*
X167689Y118480D01*
Y71998D01*
X159815Y64124D01*
X114349Y64124D01*
X99617Y78856D01*
Y89524D01*
X93291D01*
X92249Y90794D01*
X92368Y91392D01*
Y95811D01*
X92590Y95960D01*
X94395D01*
X96062Y96651D01*
X97338Y97927D01*
X98029Y99594D01*
Y101398D01*
X97338Y103066D01*
X96062Y104342D01*
X94395Y105032D01*
X92590D01*
X90923Y104342D01*
X89647Y103066D01*
X88957Y101398D01*
X88836Y101300D01*
X87743Y101517D01*
X86492D01*
X84865Y103145D01*
Y105272D01*
X84441Y107403D01*
X83234Y109209D01*
X81427Y110416D01*
X79297Y110840D01*
X77166Y110416D01*
X75360Y109209D01*
X74152Y107403D01*
X73729Y105272D01*
Y100838D01*
X74152Y98708D01*
X75360Y96901D01*
X78618Y93643D01*
Y91392D01*
X78737Y90794D01*
X77695Y89524D01*
X58723D01*
Y115856D01*
X68549D01*
Y116713D01*
X68957D01*
X70880Y116966D01*
X72671Y117708D01*
X74210Y118889D01*
X77692Y122371D01*
X78873Y123910D01*
X79615Y125701D01*
X79868Y127624D01*
X79615Y129547D01*
X78873Y131339D01*
X77692Y132878D01*
X76153Y134059D01*
X74362Y134801D01*
X73342Y134935D01*
X72986Y136263D01*
X73550Y136696D01*
X74934Y138500D01*
X75805Y140601D01*
X76101Y142855D01*
Y173058D01*
X75805Y175313D01*
X74934Y177413D01*
X73550Y179217D01*
X58723Y194045D01*
Y204265D01*
X65786Y211328D01*
Y239014D01*
X68164Y241392D01*
X69301Y240254D01*
X70968Y239564D01*
X72773D01*
X74440Y240254D01*
X75716Y241530D01*
X76407Y243197D01*
Y245002D01*
X75716Y246669D01*
X74579Y247806D01*
X79564Y252792D01*
X99822Y273050D01*
X113792Y273050D01*
X117269Y276527D01*
X118847Y276309D01*
X119368Y275528D01*
X120869Y274526D01*
X122639Y274173D01*
X127139D01*
X128909Y274526D01*
X130409Y275528D01*
X131412Y277029D01*
X131763Y278798D01*
Y283662D01*
X138463Y290361D01*
X141317D01*
X142605Y290618D01*
X143698Y291347D01*
X145070Y292720D01*
X145507Y292539D01*
X147311D01*
X148979Y293229D01*
X150255Y294505D01*
X150945Y296173D01*
Y297977D01*
X150764Y298414D01*
X150940Y298589D01*
X151669Y299681D01*
X151926Y300970D01*
Y304514D01*
X151669Y305802D01*
X150940Y306895D01*
X143610Y314224D01*
X142518Y314953D01*
X141230Y315210D01*
X141151D01*
X138959Y317402D01*
X139071Y318539D01*
X140131Y319600D01*
X140802Y320604D01*
X141038Y321789D01*
X140802Y322973D01*
X140131Y323978D01*
X130762Y333347D01*
X129758Y334018D01*
X129329Y334103D01*
X125909Y337523D01*
X124817Y338253D01*
X123801Y338455D01*
X123444Y338812D01*
Y344678D01*
X125911Y347145D01*
X126573Y346901D01*
X127085Y346523D01*
Y344908D01*
X127775Y343241D01*
X128254Y342762D01*
Y341192D01*
X128510Y339904D01*
X129240Y338811D01*
X131638Y336413D01*
X131724Y335984D01*
X132395Y334979D01*
X141764Y325610D01*
X142768Y324939D01*
X143953Y324704D01*
X145138Y324939D01*
X146142Y325610D01*
X147141Y326610D01*
X148466Y326656D01*
X158086Y317037D01*
Y306887D01*
X157704Y306506D01*
X156974Y305413D01*
X156718Y304125D01*
Y296099D01*
X113667Y253049D01*
X109532D01*
X108244Y252792D01*
X107152Y252063D01*
X92057Y236968D01*
X77167D01*
Y217316D01*
X96819D01*
Y232207D01*
X110927Y246315D01*
X115062D01*
X116350Y246572D01*
X117443Y247301D01*
X162465Y292324D01*
X163195Y293416D01*
X163451Y294705D01*
Y302731D01*
X163833Y303112D01*
X164563Y304204D01*
X164819Y305493D01*
Y318431D01*
X164563Y319720D01*
X163833Y320812D01*
X155805Y328839D01*
X156223Y330218D01*
X156536Y330280D01*
X157629Y331010D01*
X158177Y331558D01*
X158798Y331973D01*
X158801Y331976D01*
X160611D01*
X169568Y323018D01*
X169074Y322162D01*
X168451Y319836D01*
Y317428D01*
X169074Y315103D01*
X170278Y313018D01*
X171980Y311315D01*
X174065Y310112D01*
X176391Y309488D01*
X177038D01*
Y293293D01*
X175865Y292806D01*
X174566Y294105D01*
X173066Y295107D01*
X171296Y295460D01*
X169526Y295107D01*
X168026Y294105D01*
X164844Y290923D01*
X163841Y289423D01*
X163489Y287653D01*
X163841Y285883D01*
X164844Y284382D01*
X168733Y280493D01*
X169182Y280194D01*
X169265Y280005D01*
X169261Y278613D01*
X168415Y277768D01*
X167725Y276101D01*
Y274296D01*
X168415Y272629D01*
X168894Y272150D01*
Y269973D01*
X166030Y267109D01*
X165028Y265609D01*
X164776Y264344D01*
X145633Y245201D01*
X143266Y244567D01*
X140693Y243081D01*
X140044Y242432D01*
X138972Y243144D01*
X138966Y243150D01*
Y244953D01*
X138275Y246620D01*
X136999Y247896D01*
X135332Y248586D01*
X133527D01*
X131860Y247896D01*
X130584Y246620D01*
X129894Y244953D01*
Y243148D01*
X130584Y241481D01*
X131860Y240205D01*
X133527Y239514D01*
X135332D01*
X136576Y240030D01*
X137461Y239021D01*
X137106Y238407D01*
X136472Y236040D01*
X136353Y235921D01*
X136417Y235837D01*
X136337Y235536D01*
Y232565D01*
X137106Y229694D01*
X138592Y227121D01*
X140693Y225019D01*
X143266Y223533D01*
X146137Y222764D01*
X149108D01*
X151979Y223533D01*
X154552Y225019D01*
X156654Y227121D01*
X158139Y229694D01*
X158909Y232565D01*
Y235536D01*
X158828Y235837D01*
X159601Y236844D01*
X161044D01*
X161817Y235837D01*
X161737Y235536D01*
Y232565D01*
X162506Y229694D01*
X163992Y227121D01*
X166093Y225019D01*
X168666Y223533D01*
X171537Y222764D01*
X174508D01*
X177379Y223533D01*
X179952Y225019D01*
X182054Y227121D01*
X183540Y229694D01*
X184309Y232565D01*
Y235536D01*
X184228Y235837D01*
X185001Y236844D01*
X186444D01*
X187217Y235837D01*
X187137Y235536D01*
Y232565D01*
X187906Y229694D01*
X189392Y227121D01*
X191493Y225019D01*
X194066Y223533D01*
X196937Y222764D01*
X199909D01*
X202779Y223533D01*
X204519Y224538D01*
X205352Y225019D01*
X207454Y227121D01*
X208939Y229694D01*
X209709Y232565D01*
Y235536D01*
X208939Y238407D01*
X207454Y240980D01*
X205352Y243081D01*
X202779Y244567D01*
X201789Y244832D01*
Y246649D01*
X202464Y247659D01*
X202721Y248948D01*
Y307905D01*
X202658Y308218D01*
X203678Y309488D01*
X204199D01*
X206524Y310112D01*
X208609Y311315D01*
X210312Y313018D01*
X211516Y315103D01*
X212139Y317428D01*
Y319836D01*
X211516Y322162D01*
X210312Y324247D01*
X208609Y325949D01*
X206524Y327153D01*
X204199Y327776D01*
X202951D01*
X202173Y329046D01*
X202588Y330049D01*
Y331854D01*
X201897Y333521D01*
X200621Y334797D01*
X198954Y335487D01*
X198235D01*
X198174Y344347D01*
X199068Y345248D01*
X200243D01*
X202403Y345677D01*
X204234Y346901D01*
X205457Y348732D01*
X205887Y350892D01*
Y362392D01*
X205457Y364552D01*
X204234Y366384D01*
X202403Y367607D01*
X201311Y367824D01*
Y369118D01*
X201734Y369401D01*
X202957Y371232D01*
X203387Y373392D01*
Y384431D01*
X204266Y385190D01*
X204600Y385304D01*
X205092Y385100D01*
X206896D01*
X208563Y385791D01*
X209839Y387067D01*
X210530Y388734D01*
Y390538D01*
X209839Y392205D01*
X208563Y393481D01*
X206896Y394172D01*
X205092D01*
X203425Y393481D01*
X202149Y392205D01*
X201476Y390583D01*
X201372Y390381D01*
X200230Y389888D01*
X199903Y390107D01*
X198649Y390356D01*
Y392098D01*
X198339Y393656D01*
Y395652D01*
X198387Y395892D01*
Y407392D01*
X197957Y409552D01*
X197718Y409910D01*
X197418Y453204D01*
X198680Y454268D01*
X217331D01*
Y453035D01*
X217754Y450904D01*
X218962Y449098D01*
X219668Y448392D01*
X219251Y446836D01*
Y444428D01*
X219874Y442103D01*
X221078Y440018D01*
X222780Y438315D01*
X224865Y437112D01*
X227191Y436488D01*
X229599D01*
X231924Y437112D01*
X234009Y438315D01*
X235712Y440018D01*
X236915Y442103D01*
X237539Y444428D01*
Y446836D01*
X236915Y449162D01*
X235712Y451247D01*
X234009Y452949D01*
X233925Y452998D01*
X234265Y454268D01*
X242331D01*
Y453035D01*
X242754Y450904D01*
X243962Y449098D01*
X244983Y448076D01*
X244651Y446836D01*
Y444428D01*
X245274Y442103D01*
X246478Y440018D01*
X248180Y438315D01*
X250265Y437112D01*
X252591Y436488D01*
X254999D01*
X257324Y437112D01*
X259409Y438315D01*
X261112Y440018D01*
X262316Y442103D01*
X262939Y444428D01*
Y446836D01*
X262316Y449162D01*
X261112Y451247D01*
X259409Y452949D01*
X259325Y452998D01*
X259665Y454268D01*
X267331D01*
Y453035D01*
X267755Y450904D01*
X268962Y449098D01*
X270299Y447761D01*
X270051Y446836D01*
Y444428D01*
X270674Y442103D01*
X271878Y440018D01*
X273580Y438315D01*
X275665Y437112D01*
X277991Y436488D01*
X280399D01*
X282724Y437112D01*
X284809Y438315D01*
X286512Y440018D01*
X287716Y442103D01*
X288339Y444428D01*
Y446836D01*
X287716Y449162D01*
X286512Y451247D01*
X284809Y452949D01*
X284724Y452998D01*
X285065Y454268D01*
X292331D01*
Y453035D01*
X292754Y450904D01*
X293962Y449098D01*
X295614Y447445D01*
X295451Y446836D01*
Y444428D01*
X296074Y442103D01*
X297278Y440018D01*
X298980Y438315D01*
X301065Y437112D01*
X303391Y436488D01*
X305799D01*
X308124Y437112D01*
X310209Y438315D01*
X311912Y440018D01*
X313116Y442103D01*
X313739Y444428D01*
Y446836D01*
X313116Y449162D01*
X311912Y451247D01*
X310209Y452949D01*
X310124Y452998D01*
X310465Y454268D01*
X324125D01*
X324465Y452998D01*
X324380Y452949D01*
X322678Y451247D01*
X321474Y449162D01*
X320851Y446836D01*
Y444428D01*
X321474Y442103D01*
X322678Y440018D01*
X324380Y438315D01*
X326465Y437112D01*
X328791Y436488D01*
X331199D01*
X333524Y437112D01*
X335609Y438315D01*
X337312Y440018D01*
X338516Y442103D01*
X339139Y444428D01*
Y446836D01*
X338516Y449162D01*
X337312Y451247D01*
X335609Y452949D01*
X335524Y452998D01*
X335865Y454268D01*
X368576D01*
X369062Y453095D01*
D02*
G37*
%LPC*%
G36*
X280499Y430138D02*
X277891D01*
X275371Y429463D01*
X273112Y428159D01*
X271268Y426315D01*
X269964Y424056D01*
X269289Y421536D01*
Y418928D01*
X269964Y416409D01*
X271268Y414150D01*
X273112Y412306D01*
X275371Y411002D01*
X277891Y410326D01*
X280499D01*
X283018Y411002D01*
X285277Y412306D01*
X287122Y414150D01*
X288426Y416409D01*
X289101Y418928D01*
Y421536D01*
X288426Y424056D01*
X287122Y426315D01*
X285277Y428159D01*
X283018Y429463D01*
X280499Y430138D01*
D02*
G37*
G36*
X255099D02*
X252491D01*
X249971Y429463D01*
X247712Y428159D01*
X245868Y426315D01*
X244564Y424056D01*
X243889Y421536D01*
Y418928D01*
X244564Y416409D01*
X245868Y414150D01*
X247712Y412306D01*
X249971Y411002D01*
X252491Y410326D01*
X255099D01*
X257618Y411002D01*
X259877Y412306D01*
X261721Y414150D01*
X263026Y416409D01*
X263701Y418928D01*
Y421536D01*
X263026Y424056D01*
X261721Y426315D01*
X259877Y428159D01*
X257618Y429463D01*
X255099Y430138D01*
D02*
G37*
G36*
X350874Y399429D02*
X348622D01*
X346542Y398567D01*
X344949Y396974D01*
X344087Y394894D01*
Y392642D01*
X344949Y390561D01*
X346542Y388969D01*
X348622Y388107D01*
X350874D01*
X352955Y388969D01*
X354548Y390561D01*
X355410Y392642D01*
Y394894D01*
X354548Y396974D01*
X352955Y398567D01*
X350874Y399429D01*
D02*
G37*
G36*
X305899Y404738D02*
X303291D01*
X300771Y404063D01*
X298512Y402759D01*
X296668Y400915D01*
X295364Y398656D01*
X294689Y396137D01*
Y393528D01*
X295364Y391009D01*
X296668Y388750D01*
X298512Y386906D01*
X300771Y385602D01*
X303291Y384926D01*
X305899D01*
X308418Y385602D01*
X310677Y386906D01*
X312521Y388750D01*
X313826Y391009D01*
X314501Y393528D01*
Y396137D01*
X313826Y398656D01*
X312521Y400915D01*
X310677Y402759D01*
X308418Y404063D01*
X305899Y404738D01*
D02*
G37*
G36*
X255099Y404738D02*
X252491D01*
X249971Y404063D01*
X247712Y402759D01*
X245868Y400915D01*
X244564Y398656D01*
X243889Y396137D01*
Y393528D01*
X244564Y391009D01*
X245868Y388750D01*
X247712Y386906D01*
X249971Y385602D01*
X252491Y384926D01*
X255099D01*
X257618Y385602D01*
X259877Y386906D01*
X261721Y388750D01*
X263026Y391009D01*
X263701Y393528D01*
Y396137D01*
X263026Y398656D01*
X261721Y400915D01*
X259877Y402759D01*
X257618Y404063D01*
X255099Y404738D01*
D02*
G37*
G36*
X280499Y404738D02*
X277891D01*
X275371Y404063D01*
X273112Y402759D01*
X271268Y400915D01*
X269964Y398656D01*
X269289Y396137D01*
Y393528D01*
X269964Y391009D01*
X271268Y388750D01*
X273112Y386906D01*
X275371Y385601D01*
X277891Y384926D01*
X280499D01*
X283018Y385601D01*
X285277Y386906D01*
X287122Y388750D01*
X288426Y391009D01*
X289101Y393528D01*
Y396137D01*
X288426Y398656D01*
X287122Y400915D01*
X285277Y402759D01*
X283018Y404063D01*
X280499Y404738D01*
D02*
G37*
G36*
X392953Y388022D02*
X385620Y380689D01*
X385167Y380341D01*
X381347Y376521D01*
X379299D01*
X377045Y376224D01*
X374944Y375354D01*
X374020Y374645D01*
X373210Y375135D01*
X372921Y375402D01*
Y377114D01*
X372230Y378781D01*
X370954Y380057D01*
X369287Y380748D01*
X368143D01*
Y381935D01*
X367453Y383602D01*
X366177Y384878D01*
X364509Y385568D01*
X362705D01*
X361038Y384878D01*
X359762Y383602D01*
X359071Y381935D01*
Y380130D01*
X359762Y378463D01*
X361038Y377187D01*
X362705Y376496D01*
X363849D01*
Y375309D01*
X364539Y373642D01*
X365815Y372366D01*
X367482Y371676D01*
X369050D01*
X369505Y371011D01*
X369673Y370502D01*
X366236Y367066D01*
X364852Y365262D01*
X363982Y363161D01*
X363685Y360907D01*
Y351618D01*
X362415Y350770D01*
X361885Y350989D01*
X360080D01*
X358413Y350299D01*
X357137Y349023D01*
X356447Y347356D01*
Y345551D01*
X356537Y345334D01*
X356218Y344856D01*
X355554Y344388D01*
X355109Y344572D01*
X352855Y344869D01*
X350600Y344572D01*
X348499Y343702D01*
X346695Y342318D01*
X345311Y340514D01*
X344441Y338413D01*
X344144Y336158D01*
X344441Y333904D01*
X345311Y331803D01*
X346695Y329999D01*
X347286Y329408D01*
X349090Y328024D01*
X350105Y327603D01*
X350198Y326190D01*
X349780Y325949D01*
X348078Y324247D01*
X346874Y322162D01*
X346251Y319836D01*
Y317428D01*
X346874Y315103D01*
X348078Y313018D01*
X349780Y311315D01*
X351865Y310112D01*
X354191Y309488D01*
X356599D01*
X358924Y310112D01*
X361009Y311315D01*
X362712Y313018D01*
X363915Y315103D01*
X364539Y317428D01*
Y319836D01*
X363915Y322162D01*
X362712Y324247D01*
X361372Y325587D01*
X361884Y326857D01*
X365492D01*
X367746Y327154D01*
X369847Y328024D01*
X371651Y329408D01*
X378555Y336312D01*
X379939Y338116D01*
X380809Y340217D01*
X381106Y342471D01*
Y351759D01*
X382376Y352608D01*
X382906Y352388D01*
X384710D01*
X384957Y352223D01*
Y351772D01*
X385819Y349691D01*
X387411Y348099D01*
X389492Y347237D01*
X391744D01*
X393825Y348099D01*
X395417Y349691D01*
X396279Y351772D01*
Y354024D01*
X395417Y356105D01*
X396331Y356964D01*
X407095Y346200D01*
X420934Y360040D01*
X392953Y388022D01*
D02*
G37*
G36*
X305899Y379338D02*
X303291D01*
X300771Y378663D01*
X298512Y377359D01*
X296668Y375515D01*
X295364Y373256D01*
X294689Y370737D01*
Y368128D01*
X295364Y365609D01*
X296668Y363350D01*
X298512Y361506D01*
X300771Y360201D01*
X303291Y359526D01*
X305899D01*
X308418Y360201D01*
X310677Y361506D01*
X312521Y363350D01*
X313826Y365609D01*
X314501Y368128D01*
Y370737D01*
X313826Y373256D01*
X312521Y375515D01*
X310677Y377359D01*
X308418Y378663D01*
X305899Y379338D01*
D02*
G37*
G36*
X280499D02*
X277891D01*
X275371Y378663D01*
X273112Y377359D01*
X271268Y375515D01*
X269964Y373256D01*
X269289Y370737D01*
Y368128D01*
X269964Y365609D01*
X271268Y363350D01*
X273112Y361506D01*
X275371Y360201D01*
X277891Y359526D01*
X280499D01*
X283018Y360201D01*
X285277Y361506D01*
X287122Y363350D01*
X288426Y365609D01*
X289101Y368128D01*
Y370737D01*
X288426Y373256D01*
X287122Y375515D01*
X285277Y377359D01*
X283018Y378663D01*
X280499Y379338D01*
D02*
G37*
G36*
X255099Y379338D02*
X252491D01*
X249971Y378663D01*
X247712Y377359D01*
X245868Y375515D01*
X244564Y373256D01*
X243889Y370737D01*
Y368128D01*
X244564Y365609D01*
X245868Y363350D01*
X247712Y361506D01*
X249971Y360201D01*
X252491Y359526D01*
X255099D01*
X257618Y360201D01*
X259877Y361506D01*
X261721Y363350D01*
X263026Y365609D01*
X263701Y368128D01*
Y370737D01*
X263026Y373256D01*
X261721Y375515D01*
X259877Y377359D01*
X257618Y378663D01*
X255099Y379338D01*
D02*
G37*
G36*
X340894Y372317D02*
X339089D01*
X337422Y371626D01*
X336146Y370350D01*
X335455Y368683D01*
Y366879D01*
X336146Y365211D01*
X337422Y363936D01*
X339089Y363245D01*
X340894D01*
X341503Y363497D01*
X342222Y362421D01*
X341897Y362096D01*
X341207Y360429D01*
Y358624D01*
X341897Y356957D01*
X343173Y355681D01*
X344840Y354990D01*
X346645D01*
X348312Y355681D01*
X349588Y356957D01*
X350279Y358624D01*
Y360429D01*
X349588Y362096D01*
X348312Y363372D01*
X346645Y364062D01*
X344840D01*
X344231Y363810D01*
X343512Y364887D01*
X343837Y365211D01*
X344527Y366879D01*
Y368683D01*
X343837Y370350D01*
X342561Y371626D01*
X340894Y372317D01*
D02*
G37*
G36*
X263574Y353811D02*
X244016D01*
Y334253D01*
X263574D01*
Y353811D01*
D02*
G37*
G36*
X314374Y353811D02*
X294816D01*
Y334253D01*
X314374D01*
Y353811D01*
D02*
G37*
G36*
X288974D02*
X269416D01*
Y334253D01*
X288974D01*
Y353811D01*
D02*
G37*
G36*
X431735Y344758D02*
X429930D01*
X428263Y344068D01*
X426987Y342792D01*
X426297Y341125D01*
Y339320D01*
X426975Y337682D01*
X426548Y337435D01*
X425200Y336087D01*
X424247Y334436D01*
X423754Y332595D01*
Y330689D01*
X424247Y328848D01*
X425200Y327197D01*
X426548Y325850D01*
X428199Y324897D01*
X430040Y324403D01*
X431946D01*
X433787Y324897D01*
X435438Y325850D01*
X436785Y327197D01*
X437738Y328848D01*
X438232Y330689D01*
Y332595D01*
X437738Y334436D01*
X436785Y336087D01*
X435438Y337435D01*
X434752Y337831D01*
X435369Y339320D01*
Y341125D01*
X434678Y342792D01*
X433402Y344068D01*
X431735Y344758D01*
D02*
G37*
G36*
X305798Y327776D02*
X303391D01*
X301065Y327153D01*
X298980Y325949D01*
X297278Y324247D01*
X296074Y322162D01*
X295451Y319836D01*
Y317428D01*
X296074Y315103D01*
X297278Y313018D01*
X298980Y311315D01*
X301065Y310112D01*
X303391Y309488D01*
X305798D01*
X308124Y310112D01*
X310209Y311315D01*
X311912Y313018D01*
X313116Y315103D01*
X313739Y317428D01*
Y319836D01*
X313116Y322162D01*
X311912Y324247D01*
X310209Y325949D01*
X308124Y327153D01*
X305798Y327776D01*
D02*
G37*
G36*
X229599Y327776D02*
X227191D01*
X224865Y327153D01*
X222780Y325949D01*
X221078Y324247D01*
X219874Y322162D01*
X219251Y319836D01*
Y317428D01*
X219874Y315103D01*
X221078Y313018D01*
X222780Y311315D01*
X224865Y310112D01*
X227191Y309488D01*
X229599D01*
X231924Y310112D01*
X234009Y311315D01*
X235712Y313018D01*
X236915Y315103D01*
X237539Y317428D01*
Y319836D01*
X236915Y322162D01*
X235712Y324247D01*
X234009Y325949D01*
X231924Y327153D01*
X229599Y327776D01*
D02*
G37*
G36*
X280399Y327776D02*
X277991D01*
X275665Y327153D01*
X273580Y325949D01*
X271878Y324247D01*
X270674Y322162D01*
X270051Y319836D01*
Y317428D01*
X270674Y315103D01*
X271878Y313018D01*
X273580Y311315D01*
X275665Y310112D01*
X277991Y309488D01*
X280399D01*
X282724Y310112D01*
X284809Y311315D01*
X286512Y313018D01*
X287716Y315103D01*
X288339Y317428D01*
Y319836D01*
X287716Y322162D01*
X286512Y324247D01*
X284809Y325949D01*
X282724Y327153D01*
X280399Y327776D01*
D02*
G37*
G36*
X254999D02*
X252591D01*
X250265Y327153D01*
X248180Y325949D01*
X246478Y324247D01*
X245274Y322162D01*
X244651Y319836D01*
Y317428D01*
X245274Y315103D01*
X246478Y313018D01*
X248180Y311315D01*
X250265Y310112D01*
X252591Y309488D01*
X254999D01*
X257324Y310112D01*
X259409Y311315D01*
X261112Y313018D01*
X262316Y315103D01*
X262939Y317428D01*
Y319836D01*
X262316Y322162D01*
X261112Y324247D01*
X259409Y325949D01*
X257324Y327153D01*
X254999Y327776D01*
D02*
G37*
G36*
X331199Y327776D02*
X328791D01*
X326465Y327153D01*
X324380Y325949D01*
X322678Y324247D01*
X321474Y322162D01*
X320851Y319836D01*
Y317428D01*
X321474Y315103D01*
X322678Y313018D01*
X324380Y311315D01*
X326465Y310112D01*
X328791Y309488D01*
X331199D01*
X333524Y310112D01*
X335609Y311315D01*
X337312Y313018D01*
X338516Y315103D01*
X339139Y317428D01*
Y319836D01*
X338516Y322162D01*
X337312Y324247D01*
X335609Y325949D01*
X333524Y327153D01*
X331199Y327776D01*
D02*
G37*
G36*
X418431Y344214D02*
X416626D01*
X414959Y343524D01*
X413683Y342248D01*
X412993Y340581D01*
Y339935D01*
X412228Y338825D01*
X410322D01*
X408480Y338332D01*
X406830Y337379D01*
X405482Y336031D01*
X404529Y334380D01*
X404036Y332539D01*
Y330633D01*
X404529Y328792D01*
X405482Y327141D01*
X406108Y326515D01*
X405582Y325245D01*
X403055D01*
X401285Y324893D01*
X399784Y323891D01*
X398782Y322390D01*
X398430Y320620D01*
Y315120D01*
X398782Y313351D01*
X399784Y311850D01*
X401285Y310847D01*
X403055Y310495D01*
X407555D01*
X407765Y310537D01*
X408266Y310203D01*
X409653Y309927D01*
X412349D01*
X412493Y309206D01*
X413468Y307747D01*
X414927Y306772D01*
X416648Y306430D01*
X420898D01*
X422619Y306772D01*
X424078Y307747D01*
X425053Y309206D01*
X425395Y310927D01*
Y316177D01*
X425053Y317898D01*
X424078Y319357D01*
X422619Y320332D01*
X420898Y320675D01*
X416648D01*
X414927Y320332D01*
X413468Y319357D01*
X413450Y319331D01*
X412179Y319716D01*
Y320620D01*
X411828Y322390D01*
X411368Y323077D01*
X412047Y324347D01*
X412228D01*
X414069Y324841D01*
X415719Y325794D01*
X417067Y327141D01*
X418020Y328792D01*
X418514Y330633D01*
Y332539D01*
X418191Y333742D01*
X419437Y334987D01*
X419965Y335778D01*
X420098Y335833D01*
X421374Y337109D01*
X422065Y338776D01*
Y340581D01*
X421374Y342248D01*
X420098Y343524D01*
X418431Y344214D01*
D02*
G37*
G36*
X324801Y304880D02*
X322996D01*
X321329Y304190D01*
X320053Y302914D01*
X319363Y301247D01*
Y299442D01*
X320053Y297775D01*
X321329Y296499D01*
X322996Y295808D01*
X324801D01*
X326468Y296499D01*
X327744Y297775D01*
X328435Y299442D01*
Y301247D01*
X327744Y302914D01*
X326468Y304190D01*
X324801Y304880D01*
D02*
G37*
G36*
X327284Y285125D02*
X325480D01*
X323813Y284434D01*
X322537Y283158D01*
X321846Y281491D01*
Y279874D01*
X321343Y279500D01*
X320673Y279251D01*
X320372Y279552D01*
X318705Y280242D01*
X316900D01*
X315233Y279552D01*
X313957Y278276D01*
X313267Y276609D01*
Y274804D01*
X313957Y273137D01*
X315233Y271861D01*
X316900Y271170D01*
X318705D01*
X320372Y271861D01*
X321648Y273137D01*
X322339Y274804D01*
Y276421D01*
X322842Y276795D01*
X323512Y277044D01*
X323813Y276743D01*
X325480Y276053D01*
X327284D01*
X328952Y276743D01*
X330228Y278019D01*
X330918Y279687D01*
Y281491D01*
X330228Y283158D01*
X328952Y284434D01*
X327284Y285125D01*
D02*
G37*
G36*
X260000Y307558D02*
X255404Y307197D01*
X250922Y306121D01*
X246663Y304356D01*
X242733Y301948D01*
X239228Y298954D01*
X236234Y295449D01*
X233825Y291518D01*
X232061Y287260D01*
X230985Y282777D01*
X230623Y278182D01*
X230985Y273586D01*
X232061Y269104D01*
X233825Y264845D01*
X236234Y260915D01*
X239228Y257409D01*
X242733Y254416D01*
X246663Y252007D01*
X250922Y250243D01*
X255404Y249167D01*
X260000Y248805D01*
X264596Y249167D01*
X269078Y250243D01*
X273337Y252007D01*
X277267Y254416D01*
X280772Y257409D01*
X283766Y260915D01*
X286175Y264845D01*
X287939Y269104D01*
X289015Y273586D01*
X289377Y278182D01*
X289015Y282777D01*
X287939Y287260D01*
X286175Y291518D01*
X283766Y295449D01*
X280772Y298954D01*
X277267Y301948D01*
X273337Y304356D01*
X269078Y306121D01*
X264596Y307197D01*
X260000Y307558D01*
D02*
G37*
G36*
X347985Y286519D02*
X342485D01*
X340715Y286167D01*
X339214Y285165D01*
X338212Y283664D01*
X337860Y281894D01*
Y277394D01*
X338212Y275625D01*
X339214Y274124D01*
X340715Y273121D01*
X341868Y272892D01*
Y254116D01*
X340627Y252876D01*
X339937Y251209D01*
Y249404D01*
X340627Y247737D01*
X341903Y246461D01*
X343570Y245770D01*
X345375D01*
X347042Y246461D01*
X348318Y247737D01*
X349009Y249404D01*
Y251209D01*
X348601Y252192D01*
Y272892D01*
X349754Y273121D01*
X351255Y274124D01*
X352257Y275625D01*
X352609Y277394D01*
Y281894D01*
X352257Y283664D01*
X351255Y285165D01*
X349754Y286167D01*
X347985Y286519D01*
D02*
G37*
G36*
X250709Y245336D02*
X247737D01*
X244866Y244567D01*
X242293Y243081D01*
X240192Y240980D01*
X238706Y238407D01*
X237937Y235536D01*
Y232565D01*
X238706Y229694D01*
X240192Y227121D01*
X242293Y225019D01*
X244866Y223533D01*
X247737Y222764D01*
X250709D01*
X253579Y223533D01*
X256152Y225019D01*
X258254Y227121D01*
X259739Y229694D01*
X260509Y232565D01*
Y235536D01*
X259739Y238407D01*
X258254Y240980D01*
X256152Y243081D01*
X253579Y244567D01*
X250709Y245336D01*
D02*
G37*
G36*
X225308D02*
X222337D01*
X219466Y244567D01*
X216893Y243081D01*
X214792Y240980D01*
X213306Y238407D01*
X212537Y235536D01*
Y232565D01*
X213306Y229694D01*
X214792Y227121D01*
X216893Y225019D01*
X219466Y223533D01*
X222337Y222764D01*
X225308D01*
X228179Y223533D01*
X230752Y225019D01*
X232854Y227121D01*
X234340Y229694D01*
X235109Y232565D01*
Y235536D01*
X234340Y238407D01*
X232854Y240980D01*
X230752Y243081D01*
X228179Y244567D01*
X225308Y245336D01*
D02*
G37*
G36*
X342902Y238536D02*
X341098D01*
X339431Y237845D01*
X338155Y236569D01*
X337464Y234902D01*
Y233098D01*
X338155Y231431D01*
X338633Y230952D01*
Y222395D01*
X329018Y212779D01*
X319907D01*
Y216698D01*
X303335D01*
Y202126D01*
X319907D01*
Y206046D01*
X330412D01*
X331701Y206302D01*
X332793Y207032D01*
X344381Y218619D01*
X345110Y219712D01*
X345367Y221000D01*
Y230952D01*
X345845Y231431D01*
X346536Y233098D01*
Y234902D01*
X345845Y236569D01*
X344569Y237845D01*
X342902Y238536D01*
D02*
G37*
G36*
X250527Y218556D02*
X247918D01*
X245399Y217881D01*
X243140Y216577D01*
X241296Y214733D01*
X239992Y212474D01*
X239317Y209954D01*
Y207346D01*
X239992Y204827D01*
X241296Y202568D01*
X243140Y200724D01*
X245399Y199419D01*
X247918Y198744D01*
X250527D01*
X253046Y199419D01*
X255305Y200724D01*
X257149Y202568D01*
X258454Y204827D01*
X259129Y207346D01*
Y209954D01*
X258454Y212474D01*
X257149Y214733D01*
X255305Y216577D01*
X253046Y217881D01*
X250527Y218556D01*
D02*
G37*
G36*
X225127D02*
X222519D01*
X219999Y217881D01*
X217740Y216577D01*
X215896Y214733D01*
X214592Y212474D01*
X213917Y209954D01*
Y207346D01*
X214592Y204827D01*
X215896Y202568D01*
X217740Y200724D01*
X219999Y199419D01*
X222519Y198744D01*
X225127D01*
X227646Y199419D01*
X229905Y200724D01*
X231749Y202568D01*
X233054Y204827D01*
X233729Y207346D01*
Y209954D01*
X233054Y212474D01*
X231749Y214733D01*
X229905Y216577D01*
X227646Y217881D01*
X225127Y218556D01*
D02*
G37*
G36*
X199727D02*
X197118D01*
X194599Y217881D01*
X192340Y216577D01*
X190496Y214733D01*
X189192Y212474D01*
X188517Y209954D01*
Y207346D01*
X189192Y204827D01*
X190496Y202568D01*
X192340Y200724D01*
X194599Y199419D01*
X197118Y198744D01*
X199727D01*
X202246Y199419D01*
X204505Y200724D01*
D01*
X206349Y202568D01*
X207654Y204827D01*
X208329Y207346D01*
Y209954D01*
X207654Y212474D01*
X206349Y214733D01*
X204615Y216467D01*
X204505Y216577D01*
X202246Y217881D01*
X199727Y218556D01*
D02*
G37*
G36*
X73138Y196467D02*
X71334D01*
X69667Y195777D01*
X68391Y194501D01*
X67700Y192833D01*
Y191029D01*
X68391Y189362D01*
X69667Y188086D01*
X71334Y187395D01*
X73138D01*
X74805Y188086D01*
X76081Y189362D01*
X76772Y191029D01*
Y192833D01*
X76081Y194501D01*
X74805Y195777D01*
X73138Y196467D01*
D02*
G37*
G36*
X351902Y186536D02*
X350098D01*
X348430Y185845D01*
X348000Y185415D01*
X347569Y185845D01*
X345902Y186536D01*
X344098D01*
X342431Y185845D01*
X342000Y185415D01*
X341569Y185845D01*
X339902Y186536D01*
X338098D01*
X336431Y185845D01*
X335155Y184569D01*
X334464Y182902D01*
Y181098D01*
X335155Y179431D01*
X335585Y179000D01*
X335155Y178570D01*
X334464Y176902D01*
Y175098D01*
X335155Y173431D01*
X336431Y172155D01*
X338098Y171464D01*
X339902D01*
X341569Y172155D01*
X342000Y172585D01*
X342431Y172155D01*
X344098Y171464D01*
X345902D01*
X347569Y172155D01*
X348000Y172585D01*
X348430Y172155D01*
X350098Y171464D01*
X351902D01*
X353569Y172155D01*
X354845Y173431D01*
X355536Y175098D01*
Y176902D01*
X354845Y178570D01*
X354415Y179000D01*
X354845Y179431D01*
X355536Y181098D01*
Y182902D01*
X354845Y184569D01*
X353569Y185845D01*
X351902Y186536D01*
D02*
G37*
G36*
X328902Y186536D02*
X327098D01*
X325430Y185845D01*
X325000Y185415D01*
X324569Y185845D01*
X322902Y186536D01*
X321098D01*
X319431Y185845D01*
X319000Y185415D01*
X318569Y185845D01*
X316902Y186536D01*
X315098D01*
X313431Y185845D01*
X312155Y184569D01*
X311464Y182902D01*
Y181098D01*
X312155Y179431D01*
X312585Y179000D01*
X312155Y178569D01*
X311464Y176902D01*
Y175098D01*
X312155Y173431D01*
X313431Y172155D01*
X315098Y171464D01*
X316902D01*
X318569Y172155D01*
X319000Y172585D01*
X319431Y172155D01*
X321098Y171464D01*
X322902D01*
X324569Y172155D01*
X325000Y172585D01*
X325430Y172155D01*
X327098Y171464D01*
X328902D01*
X330569Y172155D01*
X331845Y173431D01*
X332536Y175098D01*
Y176902D01*
X331845Y178569D01*
X331415Y179000D01*
X331845Y179431D01*
X332536Y181098D01*
Y182902D01*
X331845Y184569D01*
X330569Y185845D01*
X328902Y186536D01*
D02*
G37*
G36*
X184895Y175038D02*
X183090D01*
X181423Y174348D01*
X180147Y173072D01*
X179457Y171405D01*
Y169600D01*
X180147Y167933D01*
X180382Y167698D01*
X180036Y166428D01*
X176707D01*
Y155856D01*
X191279D01*
Y166428D01*
X187949D01*
X187604Y167698D01*
X187838Y167933D01*
X188529Y169600D01*
Y171405D01*
X187838Y173072D01*
X186562Y174348D01*
X184895Y175038D01*
D02*
G37*
G36*
X301579Y159928D02*
X280007D01*
Y138356D01*
X301579D01*
Y159928D01*
D02*
G37*
G36*
X207993Y160353D02*
X205738Y160056D01*
D01*
X203637Y159186D01*
X201833Y157802D01*
X200449Y155998D01*
X199579Y153897D01*
X199282Y151642D01*
X199579Y149388D01*
X200449Y147287D01*
X201534Y145873D01*
X201833Y145483D01*
X204333Y142983D01*
X206137Y141599D01*
X208238Y140729D01*
X210493Y140432D01*
X233508D01*
X235829Y139091D01*
X238573Y138356D01*
X241413D01*
X244156Y139091D01*
X246615Y140511D01*
X248624Y142520D01*
X250044Y144979D01*
X250779Y147722D01*
Y150562D01*
X250044Y153306D01*
X248624Y155765D01*
X246615Y157773D01*
X244156Y159193D01*
X241413Y159928D01*
X238573D01*
X235829Y159193D01*
X233508Y157853D01*
X214085D01*
X212348Y159186D01*
X210247Y160056D01*
X207993Y160353D01*
D02*
G37*
G36*
X140160Y179845D02*
X135565Y179483D01*
X131082Y178407D01*
X126823Y176643D01*
X122893Y174235D01*
X119388Y171241D01*
X116394Y167736D01*
X113985Y163805D01*
X112221Y159546D01*
X111145Y155064D01*
X110784Y150469D01*
X111145Y145873D01*
X112221Y141391D01*
X113985Y137132D01*
X116394Y133201D01*
X119388Y129696D01*
X122893Y126702D01*
X126823Y124294D01*
X131082Y122530D01*
X135565Y121454D01*
X140160Y121092D01*
X144756Y121454D01*
X149238Y122530D01*
X153497Y124294D01*
X157427Y126702D01*
X160932Y129696D01*
X163926Y133201D01*
X166335Y137132D01*
X168099Y141391D01*
X169175Y145873D01*
X169537Y150469D01*
X169175Y155064D01*
X168099Y159546D01*
X166335Y163805D01*
X163926Y167736D01*
X160932Y171241D01*
X157427Y174235D01*
X153497Y176643D01*
X149238Y178407D01*
X144756Y179483D01*
X140160Y179845D01*
D02*
G37*
%LPD*%
D10*
X27940Y378206D02*
D03*
X13970Y322834D02*
D03*
X33020Y342392D02*
D03*
X11176Y363982D02*
D03*
X157226Y400558D02*
D03*
X59436Y400304D02*
D03*
X411275Y331586D02*
D03*
X430993Y331642D02*
D03*
D11*
X426500Y296500D02*
D03*
Y280500D02*
D03*
X53493Y69642D02*
D03*
Y53642D02*
D03*
X70993Y23642D02*
D03*
Y39642D02*
D03*
X50993Y23642D02*
D03*
Y39642D02*
D03*
X13493Y121142D02*
D03*
X13493Y137142D02*
D03*
X345235Y295644D02*
D03*
Y279644D02*
D03*
X394257Y278374D02*
D03*
Y294374D02*
D03*
X411529Y280406D02*
D03*
Y296406D02*
D03*
D12*
X69258Y325943D02*
D03*
X150405Y364664D02*
D03*
X146870Y368200D02*
D03*
X143334Y371735D02*
D03*
X139799Y375271D02*
D03*
X136263Y378806D02*
D03*
X132728Y382342D02*
D03*
X129192Y385877D02*
D03*
X125656Y389413D02*
D03*
X122121Y392948D02*
D03*
X118586Y396484D02*
D03*
X115050Y400019D02*
D03*
X111514Y403555D02*
D03*
X51580Y343620D02*
D03*
X55116Y340085D02*
D03*
X58651Y336549D02*
D03*
X62187Y333014D02*
D03*
X65722Y329478D02*
D03*
X72793Y322407D02*
D03*
X76329Y318872D02*
D03*
X79864Y315336D02*
D03*
X83400Y311801D02*
D03*
X86935Y308265D02*
D03*
X90471Y304730D02*
D03*
D13*
X172836Y263486D02*
D03*
X184149Y274799D02*
D03*
X171649Y287299D02*
D03*
X160336Y275986D02*
D03*
X149978Y314129D02*
D03*
X138664Y302815D02*
D03*
D14*
X36493Y102832D02*
D03*
X20493Y102832D02*
D03*
X101493Y39142D02*
D03*
X85493D02*
D03*
X101493Y24142D02*
D03*
X85493D02*
D03*
Y9142D02*
D03*
X101493Y9142D02*
D03*
X85493Y94142D02*
D03*
X101493Y94142D02*
D03*
X85493Y79142D02*
D03*
X101493D02*
D03*
X27993Y121642D02*
D03*
X43993D02*
D03*
X27993Y136642D02*
D03*
X43993D02*
D03*
X71493Y9142D02*
D03*
X55493D02*
D03*
X108889Y281548D02*
D03*
X124889D02*
D03*
X405305Y317870D02*
D03*
X389305D02*
D03*
D15*
X183993Y161142D02*
D03*
D16*
Y142142D02*
D03*
X207993Y151642D02*
D03*
D17*
X103493Y59142D02*
D03*
X97263Y124142D02*
D03*
D18*
X68493Y59142D02*
D03*
X62263Y124142D02*
D03*
D19*
X435273Y313552D02*
D03*
D20*
X418773D02*
D03*
D21*
X184493Y424142D02*
D03*
X212493D02*
D03*
X189493Y401642D02*
D03*
X217493D02*
D03*
X194493Y379142D02*
D03*
X222493D02*
D03*
X196993Y356642D02*
D03*
X224993D02*
D03*
D22*
X111514Y304730D02*
D03*
D23*
X115050Y308265D02*
D03*
D24*
X118586Y311801D02*
D03*
X122121Y315336D02*
D03*
X125656Y318872D02*
D03*
X129192Y322407D02*
D03*
X132728Y325943D02*
D03*
X136263Y329478D02*
D03*
X139799Y333014D02*
D03*
X143334Y336549D02*
D03*
X146870Y340085D02*
D03*
X150405Y343620D02*
D03*
X90471Y403555D02*
D03*
X86935Y400019D02*
D03*
X83400Y396484D02*
D03*
X79864Y392948D02*
D03*
X76329Y389413D02*
D03*
X72793Y385877D02*
D03*
X69258Y382342D02*
D03*
X65722Y378806D02*
D03*
X62187Y375271D02*
D03*
X58651Y371735D02*
D03*
X55116Y368200D02*
D03*
X51580Y364664D02*
D03*
D25*
X329063Y251068D02*
D03*
X403063D02*
D03*
X311621Y209412D02*
D03*
X385621D02*
D03*
D26*
X490537Y243924D02*
D03*
X242831Y57698D02*
D03*
X99173Y443502D02*
D03*
X490993Y368048D02*
D03*
X365993Y494142D02*
D03*
X140160Y150469D02*
D03*
X260000Y278182D02*
D03*
D27*
X363961Y403173D02*
D03*
D28*
X400024Y367111D02*
D03*
D29*
X171918Y287299D02*
X177785Y281432D01*
X171649Y287299D02*
X171918D01*
X177785Y281432D02*
X178054D01*
X177517D02*
X184149Y274799D01*
X141230Y311843D02*
X148559Y304514D01*
Y300970D02*
Y304514D01*
X144664Y297075D02*
X146409D01*
X141317Y293728D02*
X148559Y300970D01*
X191565Y303646D02*
Y304053D01*
X188022Y307596D02*
X191565Y304053D01*
X27940Y378206D02*
X52180D01*
X58651Y371735D01*
X13970Y322834D02*
X14801Y323666D01*
Y329254D01*
X19050Y333502D01*
X41462D01*
X51580Y343620D01*
X59436Y392164D02*
X69258Y382342D01*
X59436Y392164D02*
Y400304D01*
X330412Y209412D02*
X342000Y221000D01*
Y234000D01*
X311621Y209412D02*
X330412D01*
X129192Y385877D02*
X140963Y397648D01*
X141111D01*
X153444Y416088D02*
X156852D01*
X139323Y401966D02*
X153444Y416088D01*
X141111Y397648D02*
X152403Y408940D01*
X131139Y401966D02*
X139323D01*
X122121Y392948D02*
X131139Y401966D01*
X152403Y408940D02*
X165608D01*
X130037Y407935D02*
Y410961D01*
X139482Y420406D02*
X149874D01*
X130037Y410961D02*
X139482Y420406D01*
X118586Y396484D02*
X130037Y407935D01*
X62821Y409992D02*
X79864Y392948D01*
X52956Y409992D02*
X62821D01*
X51722Y411226D02*
X52956Y409992D01*
X51054Y411226D02*
X51722D01*
X102247Y406031D02*
X106680Y410464D01*
X96266Y393446D02*
X102247Y399427D01*
Y406031D01*
X93509Y393446D02*
X96266D01*
X86935Y400019D02*
X93509Y393446D01*
X71882Y408002D02*
X83400Y396484D01*
X71882Y408002D02*
Y411988D01*
X156767Y427299D02*
Y435219D01*
X164133Y442584D01*
X156852Y416088D02*
X157407Y416642D01*
X149874Y420406D02*
X156767Y427299D01*
X157407Y416642D02*
X164639D01*
X172874Y391674D02*
X178457Y397256D01*
X156742Y400074D02*
X157226Y400558D01*
X150459Y400074D02*
X156742D01*
X132728Y382342D02*
X150459Y400074D01*
X165608Y408940D02*
X170191Y413523D01*
X35750Y318939D02*
X43184Y326373D01*
Y328154D01*
X55116Y340085D01*
X160085Y304125D02*
X161452Y305493D01*
Y318431D01*
X115062Y249682D02*
X160085Y294705D01*
X143334Y336549D02*
X161452Y318431D01*
X160085Y294705D02*
Y304125D01*
X172085Y433960D02*
X172212Y434086D01*
X168910Y433960D02*
X172085D01*
X167720Y432769D02*
X168910Y433960D01*
X167720Y431212D02*
Y432769D01*
Y431212D02*
X170191Y428741D01*
Y413523D02*
Y428741D01*
X105684Y273463D02*
X106166Y273946D01*
X105684Y272796D02*
Y273463D01*
X37952Y252328D02*
X40943Y255319D01*
X47801D01*
X37952Y251813D02*
Y252328D01*
X111506Y198882D02*
X111760D01*
X115570Y195072D02*
X124460Y203962D01*
Y243339D01*
X111760Y198882D02*
X115570Y195072D01*
X86993Y227142D02*
X109532Y249682D01*
X115062D01*
X124889Y281548D02*
X137068Y293728D01*
X141317D01*
X155900Y307792D02*
Y307815D01*
X149978Y313738D02*
Y314129D01*
Y313738D02*
X155900Y307815D01*
X151892Y270764D02*
X157114Y275986D01*
X160336D01*
X157406Y335342D02*
X162006D01*
X155438Y339660D02*
X164014D01*
X177595Y318632D02*
Y319753D01*
X155248Y333390D02*
X156211Y334354D01*
X155244Y339466D02*
X155438Y339660D01*
X162006Y335342D02*
X177595Y319753D01*
X153565Y333390D02*
X155248D01*
X172596Y331078D02*
X181173D01*
X156418Y334354D02*
X157406Y335342D01*
X164014Y339660D02*
X172596Y331078D01*
X156211Y334354D02*
X156418D01*
X150405Y343620D02*
X154560Y339466D01*
X146870Y340085D02*
X146870D01*
X154560Y339466D02*
X155244D01*
X146870Y340085D02*
X153565Y333390D01*
X38518Y277024D02*
X39889Y278395D01*
X426500Y280500D02*
X434678D01*
X437230Y283052D01*
X437388D01*
X440798Y288604D02*
X463853Y311659D01*
X427668Y296500D02*
X430992Y293176D01*
X438905D01*
X406479Y288604D02*
X440798D01*
X400709Y294374D02*
X406479Y288604D01*
X394257Y294374D02*
X400709D01*
X411529Y296406D02*
X412696D01*
X416103Y293000D01*
X421832D01*
X425332Y296500D01*
X427668D01*
X438905Y293176D02*
X459281Y313552D01*
X35750Y312750D02*
Y318939D01*
X21930Y298930D02*
X35750Y312750D01*
X19733Y297699D02*
X20401D01*
X21632Y298930D01*
X47801Y255319D02*
Y260508D01*
X51526Y264233D01*
Y279927D01*
X199354Y248948D02*
Y307905D01*
X198423Y234050D02*
Y248016D01*
X199354Y248948D01*
X192500Y314759D02*
X199354Y307905D01*
X39889Y278395D02*
Y296574D01*
X44360Y271182D02*
Y294938D01*
X65397Y315976D01*
X39889Y296574D02*
X69258Y325943D01*
X66362Y315976D02*
X72793Y322407D01*
X65397Y315976D02*
X66362D01*
X23146Y292160D02*
X26415Y295428D01*
X34250Y292250D02*
Y298006D01*
X23146Y291536D02*
Y292160D01*
X56321Y253746D02*
Y278384D01*
X51526Y279927D02*
X58179Y286580D01*
X56321Y278384D02*
X63041Y285104D01*
X53419Y296146D02*
X53429D01*
X76154Y318872D01*
X58179Y293219D02*
X66773Y301813D01*
X58179Y286580D02*
Y293219D01*
X63041Y291442D02*
X83400Y311801D01*
X63041Y285104D02*
Y291442D01*
X66773Y301813D02*
Y302245D01*
X76154Y318872D02*
X76329D01*
X66773Y302245D02*
X79864Y315336D01*
X34250Y298006D02*
X65722Y329478D01*
X21632Y298930D02*
X21930D01*
X190468Y339540D02*
Y339932D01*
Y339540D02*
X192500Y337508D01*
Y314759D02*
Y337508D01*
X188022Y307596D02*
Y324229D01*
X181173Y331078D02*
X188022Y324229D01*
X26415Y295428D02*
Y297242D01*
X62187Y333014D01*
X150322Y378722D02*
X152003D01*
X143334Y371735D02*
X150322Y378722D01*
X152003D02*
X152764Y379483D01*
X153432D01*
X9528Y133010D02*
X13577Y137058D01*
X6399Y145404D02*
X10270Y141533D01*
Y140365D02*
X13493Y137142D01*
X10270Y140365D02*
Y141533D01*
X183993Y161142D02*
Y170502D01*
X54369Y390159D02*
X65722Y378806D01*
X54369Y390159D02*
Y391312D01*
X53897Y391784D02*
X54369Y391312D01*
X41923Y395534D02*
Y397154D01*
X41451Y397626D02*
X41923Y397154D01*
Y395534D02*
X62187Y375271D01*
X172261Y264061D02*
X172836Y263486D01*
X172261Y264061D02*
Y275198D01*
X160336Y275986D02*
Y278037D01*
X156513Y281861D02*
X160336Y278037D01*
X139756Y311843D02*
X141230D01*
X384114Y252678D02*
X384587Y252206D01*
X386332D01*
X386454Y252084D01*
X392225D01*
X393241Y251068D01*
X403063D01*
X156545Y366384D02*
X166274D01*
X177595Y344032D02*
Y355064D01*
X166274Y366384D02*
X177595Y355064D01*
X150405Y364664D02*
X153993Y368252D01*
X154677D01*
X156545Y366384D01*
X158264Y375528D02*
X171365D01*
X139799Y375359D02*
X148626Y384186D01*
X143074Y386574D02*
X148174Y391674D01*
X148626Y384186D02*
Y384274D01*
X146870Y368200D02*
X147150D01*
X152881Y373931D01*
X143074Y385617D02*
Y386574D01*
X152881Y373931D02*
X156666D01*
X136263Y378806D02*
X143074Y385617D01*
X148174Y391674D02*
X172874D01*
X156666Y373931D02*
X158264Y375528D01*
X139799Y375271D02*
Y375359D01*
X136263Y378806D02*
Y378806D01*
X177461Y369432D02*
X177595D01*
X171365Y375528D02*
X177461Y369432D01*
X101493Y39142D02*
X115275D01*
X93521Y31170D02*
X101493Y39142D01*
X93521Y17170D02*
Y31170D01*
X85493Y9142D02*
X93521Y17170D01*
X3016Y109182D02*
X5874Y106324D01*
X9528Y132678D02*
Y133010D01*
X3016Y126166D02*
X9528Y132678D01*
X3016Y109182D02*
Y126166D01*
X5874Y106324D02*
X20175D01*
X20493Y106142D02*
Y106642D01*
X449879Y355045D02*
X455297D01*
X460007Y350335D01*
Y345454D02*
X463853Y341608D01*
Y311659D02*
Y341608D01*
X460007Y345454D02*
Y350335D01*
X449879Y350473D02*
X453403D01*
X448773Y349366D02*
X449879Y350473D01*
X453403D02*
X455435Y348441D01*
X448105Y349366D02*
X448773D01*
X455435Y343560D02*
X459281Y339714D01*
Y313552D02*
Y339714D01*
X455435Y343560D02*
Y348441D01*
X106166Y273946D02*
Y278826D01*
X108889Y281548D01*
X345235Y251736D02*
Y279644D01*
X344473Y250974D02*
X345235Y251736D01*
X344473Y250306D02*
Y250974D01*
X411275Y331586D02*
X417057Y337368D01*
Y339206D01*
X417529Y339678D01*
X430833Y331802D02*
X430993Y331642D01*
X430833Y331802D02*
Y340222D01*
X111514Y403555D02*
X119175Y411215D01*
X99871Y383656D02*
X104109Y379418D01*
X115662D01*
X105677Y390646D02*
X115050Y400019D01*
X105677Y389426D02*
Y390646D01*
X105205Y388954D02*
X105677Y389426D01*
X115662Y379418D02*
X125656Y389413D01*
X104915Y303864D02*
X108305Y307255D01*
X104443Y301360D02*
X104915Y301833D01*
Y303864D01*
X108989Y307255D02*
X111514Y304730D01*
X108305Y307255D02*
X108989D01*
X97074Y318124D02*
X102919D01*
X120699Y335142D02*
X123528D01*
X132728Y325943D01*
X136263Y329478D02*
Y329484D01*
X124509Y341238D02*
X136263Y329484D01*
X51357Y360139D02*
X53389Y362171D01*
X51357Y351933D02*
Y360139D01*
X51580Y364664D02*
X53389Y362855D01*
Y362171D02*
Y362855D01*
X131621Y341192D02*
X139799Y333014D01*
X131621Y341192D02*
Y345810D01*
X102919Y318124D02*
X102969Y318074D01*
X87215Y308265D02*
X97074Y318124D01*
X82599Y297042D02*
X82784D01*
X90471Y304730D01*
X55116Y368200D02*
X64551Y358764D01*
X86935Y308265D02*
X87215D01*
X135870Y302649D02*
Y302815D01*
X131621Y298566D02*
X131788D01*
X135870Y302649D01*
Y302815D02*
X138664D01*
X145736Y313444D02*
Y320006D01*
X129192Y322407D02*
X139756Y311843D01*
X136263Y329478D02*
X145736Y320006D01*
X125656Y318872D02*
X138664Y305865D01*
Y302815D02*
Y305865D01*
D30*
X377698Y257924D02*
X381606Y261832D01*
X381606D01*
X377698Y240845D02*
Y257924D01*
X381606Y261832D02*
X385447Y265673D01*
X385621Y209412D02*
Y226568D01*
Y232922D01*
X377698Y240845D02*
X385621Y232922D01*
X385447Y299134D02*
X389305Y302992D01*
X385447Y265673D02*
Y299134D01*
X389305Y302992D02*
Y317870D01*
X11176Y363982D02*
X11180Y363978D01*
Y356612D02*
Y363978D01*
Y356612D02*
X18034Y349758D01*
X61261Y76521D02*
X67543D01*
X54382Y69642D02*
X61261Y76521D01*
X53493Y69642D02*
X54382D01*
X67543Y76521D02*
X67821Y76799D01*
X36493Y85110D02*
Y102832D01*
X30993Y79610D02*
X36493Y85110D01*
X52591Y12044D02*
X55493Y9142D01*
X49843Y12044D02*
X52591D01*
X46023Y15864D02*
X49843Y12044D01*
X50886Y23642D02*
X50993D01*
X47517Y20273D02*
X50886Y23642D01*
X47517Y20166D02*
Y20273D01*
X46301Y18950D02*
X47517Y20166D01*
X46301Y16142D02*
Y18950D01*
X46023Y15864D02*
X46301Y16142D01*
X115515Y24142D02*
X117905Y26532D01*
X101493Y24142D02*
X115515D01*
X101493D02*
X101493Y24142D01*
Y9142D02*
Y24142D01*
X70993Y23642D02*
X84993D01*
X85493Y24142D01*
X71493Y9142D02*
Y9249D01*
X68124Y12618D02*
X71493Y9249D01*
X68017Y12618D02*
X68124D01*
X62183Y18452D02*
X68017Y12618D01*
X67517Y36273D02*
X70886Y39642D01*
X62183Y18452D02*
Y30832D01*
X70886Y39642D02*
X70993D01*
X67517Y36166D02*
Y36273D01*
X62183Y30832D02*
X67517Y36166D01*
D31*
X33020Y342392D02*
X42561Y351933D01*
X51357D01*
D32*
X329000Y243818D02*
Y251006D01*
X329063Y251068D01*
X411529Y280376D02*
X415339Y276566D01*
Y270626D02*
Y276566D01*
X411529Y280376D02*
Y280406D01*
X408863Y263768D02*
X413815D01*
X394257Y278374D02*
X408863Y263768D01*
X329063Y268932D02*
X330503Y270372D01*
X329063Y251068D02*
Y268932D01*
X409653Y313552D02*
X418773D01*
X405335Y317870D02*
X409653Y313552D01*
X405305Y317870D02*
X405335D01*
X435273Y313552D02*
X444243D01*
X444579Y313216D01*
X345235Y295644D02*
X362491D01*
X367993Y290142D01*
X388993Y329931D02*
X396982Y337921D01*
Y339038D01*
D33*
X43307Y197142D02*
X50150Y190299D01*
X67391Y173058D01*
Y142855D02*
Y173058D01*
X25993Y197142D02*
X43307D01*
X210493Y149142D02*
X239993D01*
X207993Y151642D02*
X210493Y149142D01*
X365492Y335568D02*
X372395Y342471D01*
X392953Y374182D02*
X395482Y371653D01*
X391326Y374182D02*
X392953D01*
X384955Y367810D02*
X391326Y374182D01*
X353446Y335568D02*
X365492D01*
X379299Y367810D02*
X384955D01*
X372395Y360907D02*
X379299Y367810D01*
X372395Y342471D02*
Y360907D01*
X352855Y336158D02*
X353446Y335568D01*
D34*
X43993Y136642D02*
X44395Y137044D01*
X52340D01*
X79297Y100838D02*
Y105272D01*
X84168Y95467D02*
X85493Y94142D01*
X84168Y95467D02*
Y95967D01*
X79297Y100838D02*
X84168Y95967D01*
X75532Y72593D02*
Y87447D01*
Y72593D02*
X76568Y71556D01*
X70661Y92318D02*
X75532Y87447D01*
X62025Y92318D02*
X70661D01*
X85788Y61266D02*
X87665Y63143D01*
X85788Y49759D02*
Y61266D01*
X85493Y78642D02*
X86818Y77317D01*
Y75497D02*
Y77317D01*
Y75497D02*
X87665Y74650D01*
Y63143D02*
Y74650D01*
X85788Y49759D02*
X85834Y49713D01*
X85493Y78642D02*
Y94142D01*
X27993Y136642D02*
Y148198D01*
Y121642D02*
Y136642D01*
X13493Y121142D02*
X13993Y121642D01*
X27993D01*
X43993Y136642D02*
X43993Y136642D01*
Y121642D02*
Y136642D01*
X183993Y150024D02*
X189671D01*
X202577Y162930D01*
X183993Y142142D02*
Y150024D01*
X58177Y57827D02*
X67668D01*
X53493Y53642D02*
X53993D01*
X58177Y57827D01*
X67668D02*
X68493Y58652D01*
Y59142D01*
X42311Y39642D02*
X50993D01*
X304595Y445632D02*
Y446339D01*
X297899Y453035D02*
Y495078D01*
Y453035D02*
X304595Y446339D01*
X279195Y445632D02*
Y446739D01*
X272899Y453035D02*
Y495078D01*
Y453035D02*
X279195Y446739D01*
X253795Y445632D02*
Y447139D01*
X247899Y453035D02*
Y495078D01*
Y453035D02*
X253795Y447139D01*
X228395Y445632D02*
Y447539D01*
X222899Y453035D02*
Y495078D01*
Y453035D02*
X228395Y447539D01*
X212493Y424142D02*
Y426602D01*
X209173Y429921D02*
X212493Y426602D01*
X206761Y429921D02*
X209173D01*
X202995Y433687D02*
X206761Y429921D01*
X202995Y433687D02*
Y445632D01*
X216081Y403054D02*
X217493Y401642D01*
X216081Y403054D02*
Y418013D01*
X212493Y421602D02*
X216081Y418013D01*
X212493Y421602D02*
Y424142D01*
X219214Y382421D02*
X222493Y379142D01*
X219214Y382421D02*
Y388377D01*
X218904Y388687D02*
X219214Y388377D01*
X218904Y388687D02*
Y400231D01*
X217493Y401642D02*
X218904Y400231D01*
X223743Y357892D02*
X224993Y356642D01*
X223743Y357892D02*
Y377892D01*
X222493Y379142D02*
X223743Y377892D01*
X194493Y379142D02*
X195743Y377892D01*
Y357892D02*
Y377892D01*
Y357892D02*
X196993Y356642D01*
X189493Y401642D02*
X192771Y398364D01*
Y392407D02*
Y398364D01*
Y392407D02*
X193081Y392098D01*
Y380554D02*
Y392098D01*
Y380554D02*
X194493Y379142D01*
X184493Y424142D02*
X187771Y420864D01*
Y414907D02*
Y420864D01*
Y414907D02*
X188081Y414598D01*
Y403054D02*
Y414598D01*
Y403054D02*
X189493Y401642D01*
X177595Y444848D02*
Y445632D01*
Y444848D02*
X184213Y438230D01*
Y424422D02*
Y438230D01*
Y424422D02*
X184493Y424142D01*
D35*
X68957Y124142D02*
X72439Y127624D01*
X62263Y124142D02*
X68957D01*
D36*
X101493Y79142D02*
X102493Y78142D01*
Y62602D02*
Y78142D01*
X103493Y59142D02*
Y61602D01*
X102493Y62602D02*
X103493Y61602D01*
X101493Y79142D02*
Y94142D01*
X71493Y39142D02*
X85493D01*
X70993Y39642D02*
X71493Y39142D01*
X87453Y41602D02*
X89191D01*
X92167Y44578D02*
Y44823D01*
X96312Y48968D02*
X97669D01*
X102033Y53332D01*
X92167Y44823D02*
X96312Y48968D01*
X102033Y53332D02*
Y57682D01*
X103493Y59142D01*
X89191Y41602D02*
X92167Y44578D01*
X299515Y271388D02*
Y272404D01*
X275821Y247694D02*
X299515Y271388D01*
X274623Y234050D02*
X275821Y235249D01*
Y247694D01*
X274623Y208650D02*
Y234050D01*
D37*
X297899Y495078D02*
D03*
D38*
X272899D02*
D03*
X247899D02*
D03*
X222899D02*
D03*
X25993Y172142D02*
D03*
Y250142D02*
D03*
X148385Y77694D02*
D03*
Y52694D02*
D03*
X86993Y202142D02*
D03*
D39*
X177595Y344032D02*
D03*
X177595Y318632D02*
D03*
Y369432D02*
D03*
X279195Y445632D02*
D03*
X304595Y445632D02*
D03*
X253795Y445632D02*
D03*
X228395D02*
D03*
X355395Y318632D02*
D03*
Y445632D02*
D03*
X202995Y445632D02*
D03*
X202995Y318632D02*
D03*
X228395Y318632D02*
D03*
X253795Y318632D02*
D03*
X279195D02*
D03*
X304595Y318632D02*
D03*
X329995Y318632D02*
D03*
Y445632D02*
D03*
X177595Y445632D02*
D03*
D40*
X25993Y197142D02*
D03*
Y275142D02*
D03*
X148385Y27694D02*
D03*
X86993Y227142D02*
D03*
D41*
X274623Y234050D02*
D03*
D42*
X249223D02*
D03*
X223823D02*
D03*
X198423D02*
D03*
X173023D02*
D03*
X147623D02*
D03*
D43*
X274623Y208650D02*
D03*
D44*
X249223D02*
D03*
X223823D02*
D03*
X198423D02*
D03*
X304595Y394832D02*
D03*
Y369432D02*
D03*
X279195D02*
D03*
Y394832D02*
D03*
Y420232D02*
D03*
X253795Y369432D02*
D03*
Y394832D02*
D03*
X253795Y420232D02*
D03*
D45*
X290793Y149142D02*
D03*
D46*
X239993D02*
D03*
D47*
X304595Y344032D02*
D03*
X279195D02*
D03*
X253795Y344032D02*
D03*
D48*
X365446Y429689D02*
D03*
X426539Y368595D02*
D03*
D49*
X349748Y393768D02*
D03*
X390618Y352898D02*
D03*
D50*
X335889Y400132D02*
D03*
X396982Y339038D02*
D03*
D51*
X178054Y281432D02*
D03*
X146409Y297075D02*
D03*
X191565Y303646D02*
D03*
X41948Y359819D02*
D03*
X328000Y182000D02*
D03*
X316000D02*
D03*
X322000D02*
D03*
X316000Y176000D02*
D03*
X322000D02*
D03*
X328000D02*
D03*
X351000Y182000D02*
D03*
X345000D02*
D03*
X339000D02*
D03*
Y176000D02*
D03*
X345000D02*
D03*
X351000D02*
D03*
X113538Y53340D02*
D03*
X374000Y176000D02*
D03*
X368000D02*
D03*
X362000D02*
D03*
Y182000D02*
D03*
X368000D02*
D03*
X374000D02*
D03*
X342000Y234000D02*
D03*
X329000Y243818D02*
D03*
X137023Y407518D02*
D03*
X51054Y411226D02*
D03*
X205994Y389636D02*
D03*
X106680Y410464D02*
D03*
X71882Y411988D02*
D03*
X147574Y425958D02*
D03*
X164639Y416642D02*
D03*
X178457Y397256D02*
D03*
X165637Y301781D02*
D03*
X172212Y434086D02*
D03*
X38100Y225044D02*
D03*
X44940Y214376D02*
D03*
X71871Y244100D02*
D03*
X134430Y244050D02*
D03*
X105684Y272796D02*
D03*
X18034Y349758D02*
D03*
X37952Y251813D02*
D03*
X4250Y320581D02*
D03*
X13004Y309321D02*
D03*
X115570Y195072D02*
D03*
X73914Y211582D02*
D03*
X155900Y307792D02*
D03*
X151892Y270764D02*
D03*
X104443Y301360D02*
D03*
X193802Y253238D02*
D03*
X377324Y302544D02*
D03*
X326382Y280589D02*
D03*
X385572Y226568D02*
D03*
X437388Y283052D02*
D03*
X415339Y270626D02*
D03*
X413815Y263768D02*
D03*
X22860Y326644D02*
D03*
X11036Y338000D02*
D03*
X19733Y297699D02*
D03*
X185928Y241554D02*
D03*
X38518Y277024D02*
D03*
X44360Y271182D02*
D03*
X23146Y291536D02*
D03*
X34250Y292250D02*
D03*
X53419Y296146D02*
D03*
X198052Y330951D02*
D03*
X185723Y334380D02*
D03*
X190468Y339932D02*
D03*
X56321Y253746D02*
D03*
X4250Y338000D02*
D03*
X363607Y381032D02*
D03*
X116635Y206872D02*
D03*
X72236Y191931D02*
D03*
X6399Y145404D02*
D03*
X52340Y137044D02*
D03*
X52490Y110250D02*
D03*
X72439Y127624D02*
D03*
X79297Y105272D02*
D03*
X76568Y71556D02*
D03*
X67821Y76799D02*
D03*
X95376Y70816D02*
D03*
X62025Y92318D02*
D03*
X23493Y79610D02*
D03*
X27993Y148198D02*
D03*
X18499Y112397D02*
D03*
X40435Y149976D02*
D03*
X67391Y142855D02*
D03*
X183993Y170502D02*
D03*
X116889Y88762D02*
D03*
X124255Y108066D02*
D03*
X129335Y90032D02*
D03*
X231189Y178946D02*
D03*
X183993Y150024D02*
D03*
X53897Y391784D02*
D03*
X41451Y397626D02*
D03*
X167689D02*
D03*
X172261Y275198D02*
D03*
X384114Y252678D02*
D03*
X323899Y300344D02*
D03*
X153432Y379483D02*
D03*
X148626Y384274D02*
D03*
X164133Y442584D02*
D03*
X62243Y59642D02*
D03*
X46023Y15864D02*
D03*
X93493Y100496D02*
D03*
X115275Y39142D02*
D03*
X117905Y26532D02*
D03*
X85834Y49713D02*
D03*
X42311Y39642D02*
D03*
X30993Y79610D02*
D03*
X15993D02*
D03*
X448105Y356152D02*
D03*
X368385Y376212D02*
D03*
X448105Y349366D02*
D03*
X444579Y313216D02*
D03*
X317803Y275706D02*
D03*
X344473Y250306D02*
D03*
X345743Y359526D02*
D03*
X383808Y356924D02*
D03*
X352855Y336158D02*
D03*
X360983Y346454D02*
D03*
X430833Y340222D02*
D03*
X339991Y367781D02*
D03*
X417529Y339678D02*
D03*
X119175Y411215D02*
D03*
X92454Y327573D02*
D03*
X99871Y383656D02*
D03*
X105205Y388954D02*
D03*
X120699Y335142D02*
D03*
X51357Y351933D02*
D03*
X131621Y345810D02*
D03*
X102969Y318074D02*
D03*
X82599Y297042D02*
D03*
X64819Y358764D02*
D03*
X124509Y341238D02*
D03*
X120191Y352444D02*
D03*
X106668Y340967D02*
D03*
X131621Y298566D02*
D03*
D52*
X378993Y290142D02*
D03*
X367993D02*
D03*
X378993Y279142D02*
D03*
X367993D02*
D03*
X378993Y268142D02*
D03*
X367993D02*
D03*
M02*
