G04*
G04 #@! TF.GenerationSoftware,Altium Limited,Altium Designer,23.4.1 (23)*
G04*
G04 Layer_Physical_Order=4*
G04 Layer_Color=16711680*
%FSLAX44Y44*%
%MOMM*%
G71*
G04*
G04 #@! TF.SameCoordinates,94C9EC07-DBB0-4CC7-B746-D598ABB35CDF*
G04*
G04*
G04 #@! TF.FilePolarity,Positive*
G04*
G01*
G75*
G04:AMPARAMS|DCode=23|XSize=1.8mm|YSize=1.3mm|CornerRadius=0.325mm|HoleSize=0mm|Usage=FLASHONLY|Rotation=270.000|XOffset=0mm|YOffset=0mm|HoleType=Round|Shape=RoundedRectangle|*
%AMROUNDEDRECTD23*
21,1,1.8000,0.6500,0,0,270.0*
21,1,1.1500,1.3000,0,0,270.0*
1,1,0.6500,-0.3250,-0.5750*
1,1,0.6500,-0.3250,0.5750*
1,1,0.6500,0.3250,0.5750*
1,1,0.6500,0.3250,-0.5750*
%
%ADD23ROUNDEDRECTD23*%
G04:AMPARAMS|DCode=24|XSize=1mm|YSize=0.9mm|CornerRadius=0.225mm|HoleSize=0mm|Usage=FLASHONLY|Rotation=270.000|XOffset=0mm|YOffset=0mm|HoleType=Round|Shape=RoundedRectangle|*
%AMROUNDEDRECTD24*
21,1,1.0000,0.4500,0,0,270.0*
21,1,0.5500,0.9000,0,0,270.0*
1,1,0.4500,-0.2250,-0.2750*
1,1,0.4500,-0.2250,0.2750*
1,1,0.4500,0.2250,0.2750*
1,1,0.4500,0.2250,-0.2750*
%
%ADD24ROUNDEDRECTD24*%
G04:AMPARAMS|DCode=27|XSize=1mm|YSize=0.9mm|CornerRadius=0.225mm|HoleSize=0mm|Usage=FLASHONLY|Rotation=135.000|XOffset=0mm|YOffset=0mm|HoleType=Round|Shape=RoundedRectangle|*
%AMROUNDEDRECTD27*
21,1,1.0000,0.4500,0,0,135.0*
21,1,0.5500,0.9000,0,0,135.0*
1,1,0.4500,-0.0354,0.3536*
1,1,0.4500,0.3536,-0.0354*
1,1,0.4500,0.0354,-0.3536*
1,1,0.4500,-0.3536,0.0354*
%
%ADD27ROUNDEDRECTD27*%
%ADD28C,1.5000*%
G04:AMPARAMS|DCode=29|XSize=1mm|YSize=0.9mm|CornerRadius=0.225mm|HoleSize=0mm|Usage=FLASHONLY|Rotation=180.000|XOffset=0mm|YOffset=0mm|HoleType=Round|Shape=RoundedRectangle|*
%AMROUNDEDRECTD29*
21,1,1.0000,0.4500,0,0,180.0*
21,1,0.5500,0.9000,0,0,180.0*
1,1,0.4500,-0.2750,0.2250*
1,1,0.4500,0.2750,0.2250*
1,1,0.4500,0.2750,-0.2250*
1,1,0.4500,-0.2750,-0.2250*
%
%ADD29ROUNDEDRECTD29*%
G04:AMPARAMS|DCode=30|XSize=0.6mm|YSize=1mm|CornerRadius=0.15mm|HoleSize=0mm|Usage=FLASHONLY|Rotation=90.000|XOffset=0mm|YOffset=0mm|HoleType=Round|Shape=RoundedRectangle|*
%AMROUNDEDRECTD30*
21,1,0.6000,0.7000,0,0,90.0*
21,1,0.3000,1.0000,0,0,90.0*
1,1,0.3000,0.3500,0.1500*
1,1,0.3000,0.3500,-0.1500*
1,1,0.3000,-0.3500,-0.1500*
1,1,0.3000,-0.3500,0.1500*
%
%ADD30ROUNDEDRECTD30*%
%ADD31R,1.0000X0.6000*%
%ADD32C,0.2032*%
%ADD33C,0.2540*%
%ADD34C,0.3048*%
%ADD36C,1.2700*%
%ADD37C,0.6350*%
%ADD38C,1.0160*%
%ADD39C,0.5080*%
%ADD40C,1.3716*%
%ADD41C,1.7000*%
%ADD42R,1.7000X1.7000*%
%ADD43C,1.8000*%
%ADD44R,1.8000X1.8000*%
%ADD45C,1.5240*%
%ADD46R,1.4986X1.4986*%
%ADD47R,1.4986X1.4986*%
%ADD48C,1.5080*%
%ADD49R,1.5080X1.5080*%
%ADD50R,1.5080X1.5080*%
G04:AMPARAMS|DCode=51|XSize=1mm|YSize=1.6mm|CornerRadius=0mm|HoleSize=0mm|Usage=FLASHONLY|Rotation=135.000|XOffset=0mm|YOffset=0mm|HoleType=Round|Shape=Round|*
%AMOVALD51*
21,1,0.6000,1.0000,0.0000,0.0000,225.0*
1,1,1.0000,0.2121,0.2121*
1,1,1.0000,-0.2121,-0.2121*
%
%ADD51OVALD51*%

%ADD52C,0.6750*%
G04:AMPARAMS|DCode=53|XSize=1mm|YSize=2.1mm|CornerRadius=0mm|HoleSize=0mm|Usage=FLASHONLY|Rotation=135.000|XOffset=0mm|YOffset=0mm|HoleType=Round|Shape=Round|*
%AMOVALD53*
21,1,1.1000,1.0000,0.0000,0.0000,225.0*
1,1,1.0000,0.3889,0.3889*
1,1,1.0000,-0.3889,-0.3889*
%
%ADD53OVALD53*%

%ADD54C,0.4500*%
%ADD55C,0.5000*%
%ADD57R,0.7000X1.3000*%
G04:AMPARAMS|DCode=58|XSize=0.7mm|YSize=1.3mm|CornerRadius=0.175mm|HoleSize=0mm|Usage=FLASHONLY|Rotation=180.000|XOffset=0mm|YOffset=0mm|HoleType=Round|Shape=RoundedRectangle|*
%AMROUNDEDRECTD58*
21,1,0.7000,0.9500,0,0,180.0*
21,1,0.3500,1.3000,0,0,180.0*
1,1,0.3500,-0.1750,0.4750*
1,1,0.3500,0.1750,0.4750*
1,1,0.3500,0.1750,-0.4750*
1,1,0.3500,-0.1750,-0.4750*
%
%ADD58ROUNDEDRECTD58*%
%ADD59R,1.6000X2.1500*%
G04:AMPARAMS|DCode=60|XSize=1.6mm|YSize=2.15mm|CornerRadius=0.4mm|HoleSize=0mm|Usage=FLASHONLY|Rotation=0.000|XOffset=0mm|YOffset=0mm|HoleType=Round|Shape=RoundedRectangle|*
%AMROUNDEDRECTD60*
21,1,1.6000,1.3500,0,0,0.0*
21,1,0.8000,2.1500,0,0,0.0*
1,1,0.8000,0.4000,-0.6750*
1,1,0.8000,-0.4000,-0.6750*
1,1,0.8000,-0.4000,0.6750*
1,1,0.8000,0.4000,0.6750*
%
%ADD60ROUNDEDRECTD60*%
G04:AMPARAMS|DCode=61|XSize=3.85mm|YSize=2.15mm|CornerRadius=0.5375mm|HoleSize=0mm|Usage=FLASHONLY|Rotation=0.000|XOffset=0mm|YOffset=0mm|HoleType=Round|Shape=RoundedRectangle|*
%AMROUNDEDRECTD61*
21,1,3.8500,1.0750,0,0,0.0*
21,1,2.7750,2.1500,0,0,0.0*
1,1,1.0750,1.3875,-0.5375*
1,1,1.0750,-1.3875,-0.5375*
1,1,1.0750,-1.3875,0.5375*
1,1,1.0750,1.3875,0.5375*
%
%ADD61ROUNDEDRECTD61*%
G04:AMPARAMS|DCode=62|XSize=1.4mm|YSize=1.2mm|CornerRadius=0mm|HoleSize=0mm|Usage=FLASHONLY|Rotation=225.000|XOffset=0mm|YOffset=0mm|HoleType=Round|Shape=Rectangle|*
%AMROTATEDRECTD62*
4,1,4,0.0707,0.9192,0.9192,0.0707,-0.0707,-0.9192,-0.9192,-0.0707,0.0707,0.9192,0.0*
%
%ADD62ROTATEDRECTD62*%

G04:AMPARAMS|DCode=63|XSize=2.3mm|YSize=3.2mm|CornerRadius=0.2875mm|HoleSize=0mm|Usage=FLASHONLY|Rotation=180.000|XOffset=0mm|YOffset=0mm|HoleType=Round|Shape=RoundedRectangle|*
%AMROUNDEDRECTD63*
21,1,2.3000,2.6250,0,0,180.0*
21,1,1.7250,3.2000,0,0,180.0*
1,1,0.5750,-0.8625,1.3125*
1,1,0.5750,0.8625,1.3125*
1,1,0.5750,0.8625,-1.3125*
1,1,0.5750,-0.8625,-1.3125*
%
%ADD63ROUNDEDRECTD63*%
G04:AMPARAMS|DCode=64|XSize=0.6mm|YSize=1.45mm|CornerRadius=0.15mm|HoleSize=0mm|Usage=FLASHONLY|Rotation=90.000|XOffset=0mm|YOffset=0mm|HoleType=Round|Shape=RoundedRectangle|*
%AMROUNDEDRECTD64*
21,1,0.6000,1.1500,0,0,90.0*
21,1,0.3000,1.4500,0,0,90.0*
1,1,0.3000,0.5750,0.1500*
1,1,0.3000,0.5750,-0.1500*
1,1,0.3000,-0.5750,-0.1500*
1,1,0.3000,-0.5750,0.1500*
%
%ADD64ROUNDEDRECTD64*%
%ADD65R,1.4500X0.6000*%
G04:AMPARAMS|DCode=66|XSize=0.3mm|YSize=1.45mm|CornerRadius=0mm|HoleSize=0mm|Usage=FLASHONLY|Rotation=315.000|XOffset=0mm|YOffset=0mm|HoleType=Round|Shape=Rectangle|*
%AMROTATEDRECTD66*
4,1,4,-0.6187,-0.4066,0.4066,0.6187,0.6187,0.4066,-0.4066,-0.6187,-0.6187,-0.4066,0.0*
%
%ADD66ROTATEDRECTD66*%

G04:AMPARAMS|DCode=67|XSize=0.6mm|YSize=1.45mm|CornerRadius=0mm|HoleSize=0mm|Usage=FLASHONLY|Rotation=315.000|XOffset=0mm|YOffset=0mm|HoleType=Round|Shape=Rectangle|*
%AMROTATEDRECTD67*
4,1,4,-0.7248,-0.3005,0.3005,0.7248,0.7248,0.3005,-0.3005,-0.7248,-0.7248,-0.3005,0.0*
%
%ADD67ROTATEDRECTD67*%

%ADD68R,2.0000X4.0000*%
G04:AMPARAMS|DCode=69|XSize=0.9mm|YSize=0.8mm|CornerRadius=0mm|HoleSize=0mm|Usage=FLASHONLY|Rotation=135.000|XOffset=0mm|YOffset=0mm|HoleType=Round|Shape=Rectangle|*
%AMROTATEDRECTD69*
4,1,4,0.6010,-0.0354,0.0354,-0.6010,-0.6010,0.0354,-0.0354,0.6010,0.6010,-0.0354,0.0*
%
%ADD69ROTATEDRECTD69*%

G04:AMPARAMS|DCode=70|XSize=1mm|YSize=0.9mm|CornerRadius=0.225mm|HoleSize=0mm|Usage=FLASHONLY|Rotation=225.000|XOffset=0mm|YOffset=0mm|HoleType=Round|Shape=RoundedRectangle|*
%AMROUNDEDRECTD70*
21,1,1.0000,0.4500,0,0,225.0*
21,1,0.5500,0.9000,0,0,225.0*
1,1,0.4500,-0.3536,-0.0354*
1,1,0.4500,0.0354,0.3536*
1,1,0.4500,0.3536,0.0354*
1,1,0.4500,-0.0354,-0.3536*
%
%ADD70ROUNDEDRECTD70*%
%ADD71R,1.3000X0.7000*%
G04:AMPARAMS|DCode=72|XSize=0.7mm|YSize=1.3mm|CornerRadius=0.175mm|HoleSize=0mm|Usage=FLASHONLY|Rotation=270.000|XOffset=0mm|YOffset=0mm|HoleType=Round|Shape=RoundedRectangle|*
%AMROUNDEDRECTD72*
21,1,0.7000,0.9500,0,0,270.0*
21,1,0.3500,1.3000,0,0,270.0*
1,1,0.3500,-0.4750,-0.1750*
1,1,0.3500,-0.4750,0.1750*
1,1,0.3500,0.4750,0.1750*
1,1,0.3500,0.4750,-0.1750*
%
%ADD72ROUNDEDRECTD72*%
%ADD73R,4.0000X2.0000*%
%ADD74R,1.6000X3.6000*%
%ADD75R,1.6000X7.2726*%
%ADD76R,1.2962X2.2352*%
%ADD77R,2.2500X1.6096*%
G36*
X545993Y371642D02*
X518526Y344175D01*
X518431Y344214D01*
X516626D01*
X514959Y343524D01*
X513683Y342248D01*
X512993Y340581D01*
Y338776D01*
X513032Y338681D01*
X500993Y326642D01*
X487493D01*
X479993Y334142D01*
X480504Y334631D01*
X477055Y338080D01*
X487243Y348268D01*
X487411Y348099D01*
X489492Y347237D01*
X491744D01*
X493825Y348099D01*
X495417Y349691D01*
X496279Y351772D01*
Y354024D01*
X495417Y356105D01*
X493825Y357697D01*
X491744Y358559D01*
X489492D01*
X489083Y358390D01*
X487910Y358876D01*
X487654Y359494D01*
X486378Y360770D01*
X484710Y361460D01*
X482906D01*
X482821Y361425D01*
X482791Y361445D01*
X481503Y361701D01*
X479934D01*
X478646Y361445D01*
X477554Y360715D01*
X477056Y360217D01*
X471211Y366063D01*
X474691Y369543D01*
X475421Y370635D01*
X476317Y371531D01*
X477047Y372624D01*
X477303Y373912D01*
Y378511D01*
X477047Y379800D01*
X476317Y380892D01*
X473065Y384144D01*
X471973Y384874D01*
X470684Y385130D01*
X465567D01*
X464509Y385568D01*
X462705D01*
X461038Y384878D01*
X459762Y383602D01*
X459071Y381935D01*
Y380130D01*
X459164Y379905D01*
X458130Y379214D01*
X458066Y379208D01*
X453476Y383797D01*
X450340Y386933D01*
X450826Y388107D01*
X450874D01*
X452955Y388969D01*
X454548Y390561D01*
X455410Y392642D01*
Y394894D01*
X454548Y396974D01*
X452955Y398567D01*
X450874Y399429D01*
X448622D01*
X446542Y398567D01*
X444949Y396974D01*
X444087Y394894D01*
Y392642D01*
X444949Y390561D01*
X445119Y390391D01*
X434931Y380204D01*
X431000Y384135D01*
X430488Y383647D01*
X424915Y389220D01*
Y390220D01*
X424661Y390474D01*
Y430310D01*
X430839Y436488D01*
X431199D01*
X433524Y437112D01*
X435609Y438315D01*
X437312Y440018D01*
X438516Y442103D01*
X439139Y444428D01*
Y444788D01*
X448493Y454142D01*
X463493D01*
X545993Y371642D01*
D02*
G37*
G36*
X423391Y469000D02*
Y451960D01*
X422678Y451247D01*
X421474Y449162D01*
X420851Y446836D01*
Y444428D01*
X421474Y442103D01*
X422678Y440018D01*
X423391Y439305D01*
Y432337D01*
X423013Y431958D01*
X422507Y431202D01*
X422330Y430310D01*
Y425450D01*
Y390474D01*
X422507Y389582D01*
X422584Y389468D01*
Y389220D01*
X422761Y388328D01*
X423267Y387572D01*
X427126Y383712D01*
X426858Y383444D01*
X434333Y375968D01*
X434333Y375968D01*
X434333Y375968D01*
X434931Y374905D01*
Y368162D01*
X435455D01*
Y366879D01*
X436146Y365211D01*
X437422Y363936D01*
X439089Y363245D01*
X440894D01*
X441830Y362496D01*
X441897Y362096D01*
X441207Y360429D01*
Y358624D01*
X441897Y356957D01*
X443173Y355681D01*
X444840Y354990D01*
X446645D01*
X448073Y355582D01*
X449028Y355290D01*
X449474Y355047D01*
X449488Y354978D01*
X450218Y353886D01*
X454273Y349831D01*
X455365Y349101D01*
X455762Y349022D01*
X456560Y347630D01*
X456447Y347356D01*
Y345551D01*
X457137Y343884D01*
X458413Y342608D01*
X460080Y341917D01*
X461885D01*
X463552Y342608D01*
X464828Y343884D01*
X465734Y343131D01*
X467993Y340872D01*
Y297529D01*
X464868D01*
X462854Y297129D01*
X461147Y295988D01*
X460006Y294281D01*
X459606Y292267D01*
Y290220D01*
X458432Y289734D01*
X456973Y291193D01*
X455797Y291979D01*
X454477Y292242D01*
X453722Y293372D01*
X453520Y293507D01*
Y294777D01*
X453722Y294913D01*
X454559Y296165D01*
X454853Y297642D01*
Y300642D01*
X454559Y302120D01*
X453722Y303372D01*
X452470Y304209D01*
X450993Y304503D01*
X439493D01*
X438016Y304209D01*
X436763Y303372D01*
X436360Y302768D01*
X427804D01*
X427744Y302914D01*
X426468Y304190D01*
X424801Y304880D01*
X422996D01*
X421329Y304190D01*
X420053Y302914D01*
X419363Y301247D01*
Y299442D01*
X420053Y297775D01*
X421329Y296499D01*
X422996Y295808D01*
X424220D01*
X424244Y295793D01*
X425631Y295517D01*
X436360D01*
X436763Y294913D01*
X436966Y294777D01*
Y293507D01*
X436763Y293372D01*
X435926Y292120D01*
X435633Y290642D01*
Y287642D01*
X435926Y286165D01*
X436763Y284913D01*
X436966Y284777D01*
Y283507D01*
X436763Y283372D01*
X436187Y282509D01*
X430496D01*
X430228Y283158D01*
X428952Y284434D01*
X427284Y285125D01*
X425480D01*
X423813Y284434D01*
X422537Y283158D01*
X421846Y281491D01*
Y279874D01*
X421343Y279500D01*
X420673Y279251D01*
X420372Y279552D01*
X418705Y280242D01*
X416900D01*
X415233Y279552D01*
X413957Y278276D01*
X413267Y276609D01*
Y274804D01*
X413957Y273137D01*
X415233Y271861D01*
X416900Y271170D01*
X417577D01*
X421986Y266762D01*
X422497Y266420D01*
X422229Y265072D01*
X421980Y265023D01*
X420480Y264020D01*
X419477Y262520D01*
X419125Y260750D01*
Y259310D01*
X418008Y258713D01*
X416875Y259287D01*
Y260750D01*
X416523Y262520D01*
X415520Y264020D01*
X414020Y265023D01*
X412250Y265375D01*
X407750D01*
X405980Y265023D01*
X404480Y264020D01*
X403477Y262520D01*
X403125Y260750D01*
Y255250D01*
X403477Y253480D01*
X404480Y251980D01*
X405980Y250977D01*
X407750Y250625D01*
X412250D01*
X414020Y250977D01*
X414203Y251100D01*
X414943Y249993D01*
X418493Y246443D01*
X419753Y245601D01*
X421240Y245305D01*
X422019D01*
X424503Y242821D01*
X425155Y241249D01*
X426431Y239973D01*
X428098Y239282D01*
X429902D01*
X431569Y239973D01*
X432845Y241249D01*
X433536Y242916D01*
Y243907D01*
X434806Y244433D01*
X438633Y240605D01*
Y237048D01*
X438155Y236569D01*
X437464Y234902D01*
Y233098D01*
X438155Y231431D01*
X438963Y230622D01*
X438437Y229352D01*
X431125D01*
X429125Y229089D01*
X427262Y228317D01*
X425661Y227089D01*
X424433Y225488D01*
X423661Y223625D01*
X423398Y221625D01*
Y210875D01*
X423661Y208875D01*
X424433Y207011D01*
X425661Y205411D01*
X427262Y204183D01*
X429125Y203411D01*
X431125Y203148D01*
X434669D01*
Y183398D01*
X434464Y182902D01*
Y181098D01*
X434606Y180756D01*
X433504Y179654D01*
X432331Y180140D01*
Y180602D01*
X432536Y181098D01*
Y182902D01*
X432331Y183398D01*
Y184000D01*
X432153Y184892D01*
X431648Y185648D01*
X430892Y186153D01*
X430000Y186331D01*
X429398D01*
X428902Y186536D01*
X427098D01*
X426602Y186331D01*
X423398D01*
X422902Y186536D01*
X421098D01*
X420602Y186331D01*
X417398D01*
X416902Y186536D01*
X415098D01*
X414602Y186331D01*
X414000D01*
X413108Y186153D01*
X412352Y185648D01*
X411847Y184892D01*
X411669Y184000D01*
Y183398D01*
X411464Y182902D01*
Y181098D01*
X411669Y180602D01*
Y177398D01*
X411464Y176902D01*
Y175098D01*
X411669Y174602D01*
Y164894D01*
X411591Y164500D01*
Y157741D01*
X397993Y144142D01*
X374993D01*
X367489Y151646D01*
X367373Y152230D01*
X366370Y153730D01*
X364870Y154733D01*
X364286Y154849D01*
X362970Y156165D01*
X363514Y157417D01*
X364870Y157687D01*
X366370Y158690D01*
X367373Y160190D01*
X367725Y161960D01*
Y166460D01*
X367373Y168230D01*
X366370Y169730D01*
X364870Y170733D01*
X363100Y171085D01*
X357600D01*
X357178Y171001D01*
X348496Y179683D01*
X348982Y180856D01*
X350279D01*
Y191428D01*
X335707D01*
X335707Y191428D01*
Y191428D01*
X334520Y191739D01*
X328944Y197315D01*
X327852Y198045D01*
X327606Y198094D01*
X327563Y199397D01*
X327646Y199419D01*
X329905Y200724D01*
X331749Y202568D01*
X333054Y204827D01*
X333729Y207346D01*
Y209954D01*
X333054Y212474D01*
X331749Y214733D01*
X329905Y216577D01*
X327646Y217881D01*
X325127Y218556D01*
X322519D01*
X319999Y217881D01*
X319590Y217645D01*
X314887Y222347D01*
Y225366D01*
X316061Y225851D01*
X316893Y225019D01*
X319466Y223533D01*
X322337Y222764D01*
X325308D01*
X328179Y223533D01*
X330752Y225019D01*
X332854Y227121D01*
X334339Y229694D01*
X335109Y232565D01*
Y235536D01*
X334339Y238407D01*
X332854Y240980D01*
X330752Y243081D01*
X328179Y244567D01*
X325308Y245336D01*
X322337D01*
X319466Y244567D01*
X316893Y243081D01*
X315074Y241262D01*
X314538Y241019D01*
X313445Y241187D01*
X311123Y243509D01*
Y288861D01*
X315535Y293274D01*
X316265Y294366D01*
X316521Y295655D01*
Y339295D01*
X316265Y340584D01*
X315535Y341676D01*
X312439Y344773D01*
X327965Y360299D01*
X325170Y363094D01*
X325656Y364267D01*
X325869D01*
X327639Y364619D01*
X329139Y365622D01*
X330141Y367122D01*
X330494Y368892D01*
Y374392D01*
X330141Y376162D01*
X329139Y377663D01*
X327980Y378437D01*
X327918Y378654D01*
Y379631D01*
X327980Y379848D01*
X329139Y380622D01*
X330141Y382122D01*
X330494Y383892D01*
Y389392D01*
X330141Y391162D01*
X329139Y392663D01*
X327639Y393665D01*
X325869Y394017D01*
X321369D01*
X319599Y393665D01*
X318098Y392663D01*
X317096Y391162D01*
X316744Y389392D01*
Y383892D01*
X317096Y382122D01*
X318098Y380622D01*
X319257Y379848D01*
X319320Y379631D01*
Y378654D01*
X319257Y378437D01*
X318098Y377663D01*
X317096Y376162D01*
X316744Y374392D01*
Y373180D01*
X315571Y372693D01*
X314494Y373770D01*
Y374392D01*
X314142Y376162D01*
X313139Y377663D01*
X311980Y378437D01*
X311918Y378654D01*
Y379631D01*
X311980Y379848D01*
X313139Y380622D01*
X314142Y382122D01*
X314494Y383892D01*
Y389392D01*
X314142Y391162D01*
X313139Y392663D01*
X311639Y393665D01*
X309869Y394017D01*
X306374D01*
X305290Y395101D01*
X305704Y396100D01*
Y397904D01*
X305013Y399571D01*
X303737Y400847D01*
X302070Y401538D01*
X300266D01*
X298599Y400847D01*
X297323Y399571D01*
X296632Y397904D01*
Y397857D01*
X295362Y397331D01*
X288230Y404463D01*
X287138Y405192D01*
X285849Y405449D01*
X282815D01*
X282178Y406086D01*
Y428349D01*
X276748Y433779D01*
Y435206D01*
X276057Y436873D01*
X274781Y438149D01*
X273114Y438840D01*
X271687D01*
X268669Y441858D01*
Y443487D01*
X267978Y445154D01*
X266702Y446430D01*
X266064Y446694D01*
X265766Y448192D01*
X297579Y480004D01*
X298020Y480666D01*
X298075Y480938D01*
X411453D01*
X423391Y469000D01*
D02*
G37*
G36*
X275993Y171479D02*
Y167264D01*
X274706Y165977D01*
X273976Y164885D01*
X273720Y163596D01*
Y146674D01*
X273976Y145386D01*
X274706Y144294D01*
X275993Y143007D01*
Y128906D01*
X274629Y127542D01*
X274187Y126881D01*
X274032Y126100D01*
Y65394D01*
X198658D01*
X198545Y65967D01*
X197923Y66897D01*
X197945Y66970D01*
X199221Y68246D01*
X199912Y69914D01*
Y71718D01*
X199221Y73385D01*
X197945Y74661D01*
X197776Y74731D01*
X197696Y75537D01*
X197744Y76119D01*
X198545Y77318D01*
X198858Y78892D01*
Y88392D01*
X198545Y89967D01*
X197836Y91028D01*
Y99128D01*
X198029Y99594D01*
Y101398D01*
X197338Y103066D01*
X196062Y104342D01*
X194395Y105032D01*
X192590D01*
X190923Y104342D01*
X189647Y103066D01*
X188957Y101398D01*
Y99594D01*
X189647Y97927D01*
X190066Y97508D01*
Y92273D01*
X189668Y92194D01*
X188333Y91302D01*
X187441Y89967D01*
X187128Y88392D01*
Y78892D01*
X187441Y77318D01*
X188333Y75982D01*
X189668Y75090D01*
X190984Y74829D01*
X191268Y74127D01*
X191293Y73507D01*
X191224Y73461D01*
X190246Y72483D01*
X189404Y71223D01*
X189108Y69736D01*
Y68075D01*
X188771Y67802D01*
X188014Y67394D01*
X186817Y68194D01*
X185243Y68507D01*
X181743D01*
X180168Y68194D01*
X178833Y67302D01*
X177721Y67924D01*
X177317Y68194D01*
X175743Y68507D01*
X172243D01*
X170668Y68194D01*
X169333Y67302D01*
X168441Y65967D01*
X168327Y65394D01*
X163295D01*
X155863Y72826D01*
Y74378D01*
X154311D01*
X147036Y81653D01*
X147522Y82826D01*
X155863D01*
Y103616D01*
X157133Y104488D01*
X158243Y104268D01*
X163743D01*
X165513Y104620D01*
X167013Y105622D01*
X168015Y107122D01*
X168368Y108892D01*
Y113392D01*
X168015Y115162D01*
X167013Y116663D01*
X165513Y117665D01*
X163743Y118017D01*
X162107D01*
X161472Y119287D01*
X161790Y119713D01*
X171957D01*
X173880Y119966D01*
X175672Y120708D01*
X177210Y121889D01*
X178391Y123427D01*
X179133Y125219D01*
X179386Y127142D01*
X179133Y129065D01*
X178391Y130857D01*
X177210Y132396D01*
X175672Y133576D01*
X173880Y134319D01*
X171957Y134572D01*
X158861D01*
X157794Y135716D01*
X157908Y136292D01*
Y137044D01*
X157485Y139175D01*
X156369Y140845D01*
X156542Y141361D01*
X156998Y142015D01*
X158243Y141767D01*
X158751D01*
X161600Y138918D01*
X163407Y137711D01*
X165537Y137287D01*
X167391D01*
X169522Y137711D01*
X171328Y138918D01*
X172535Y140724D01*
X172959Y142855D01*
X172535Y144986D01*
X171328Y146792D01*
X169522Y147999D01*
X167956Y148310D01*
X167368Y148899D01*
Y151892D01*
X167015Y153662D01*
X166013Y155163D01*
X164513Y156165D01*
X162743Y156517D01*
X158243D01*
X156473Y156165D01*
X154972Y155163D01*
X153970Y153662D01*
X153618Y151892D01*
Y146392D01*
X153970Y144622D01*
X154800Y143380D01*
X154210Y142326D01*
X154141Y142254D01*
X152340Y142612D01*
X150628Y142272D01*
X149811Y142671D01*
X149591Y142829D01*
X149313Y143117D01*
X149045Y144467D01*
X148153Y145802D01*
X146817Y146694D01*
X145471Y146962D01*
X144990Y147541D01*
X144641Y148277D01*
X144971Y149074D01*
Y150879D01*
X144280Y152546D01*
X143004Y153822D01*
X141337Y154512D01*
X139532D01*
X137865Y153822D01*
X136589Y152546D01*
X135899Y150879D01*
Y149074D01*
X136229Y148277D01*
X136015Y147719D01*
X135408Y146941D01*
X134168Y146694D01*
X132833Y145802D01*
X131941Y144467D01*
X131628Y142892D01*
Y139392D01*
X131941Y137817D01*
X132833Y136482D01*
Y136302D01*
X131941Y134967D01*
X131628Y133392D01*
Y129892D01*
X131941Y128317D01*
X132211Y127914D01*
X132782Y126892D01*
X132211Y125871D01*
X131941Y125467D01*
X131628Y123892D01*
Y120392D01*
X131941Y118818D01*
X132008Y118717D01*
Y107398D01*
X121574D01*
X121160Y108342D01*
X121110Y108593D01*
X122344Y109828D01*
X123035Y111495D01*
Y113299D01*
X122344Y114967D01*
X122224Y115086D01*
X122366Y116356D01*
X125279D01*
Y127928D01*
X107707D01*
Y122642D01*
X106533Y122156D01*
X103493Y125196D01*
Y140324D01*
X104763Y141172D01*
X105496Y140868D01*
X105887D01*
X106442Y140313D01*
X107535Y139584D01*
X107628Y139565D01*
Y139392D01*
X107941Y137817D01*
X108833Y136482D01*
X110168Y135590D01*
X111743Y135277D01*
X121243D01*
X122817Y135590D01*
X124152Y136482D01*
X125044Y137817D01*
X125358Y139392D01*
Y142892D01*
X125044Y144467D01*
X124152Y145802D01*
X122817Y146694D01*
X121243Y147007D01*
X111743D01*
X110728Y146805D01*
X110244Y147974D01*
X108968Y149250D01*
X107301Y149940D01*
X105496D01*
X104763Y149636D01*
X103493Y150485D01*
Y203899D01*
X128598Y229004D01*
X140622D01*
Y237013D01*
X141892Y238019D01*
X142716Y237855D01*
X148216D01*
X149986Y238207D01*
X151486Y239210D01*
X152489Y240710D01*
X152619Y241363D01*
X155156D01*
X156445Y241620D01*
X157537Y242349D01*
X162075Y246888D01*
X166741D01*
X167590Y245618D01*
X167335Y245002D01*
Y243197D01*
X168025Y241530D01*
X169301Y240254D01*
X170968Y239564D01*
X172773D01*
X174440Y240254D01*
X175716Y241530D01*
X176407Y243197D01*
Y244145D01*
X179149Y246888D01*
X179898D01*
X180427Y246535D01*
X182197Y246183D01*
X183967Y246535D01*
X184495Y246888D01*
X200584D01*
X275993Y171479D01*
D02*
G37*
%LPC*%
G36*
X354999Y454776D02*
X352591D01*
X350265Y454153D01*
X348180Y452949D01*
X346478Y451247D01*
X345274Y449162D01*
X344651Y446836D01*
Y444428D01*
X345274Y442103D01*
X346478Y440018D01*
X348180Y438315D01*
X350265Y437112D01*
X352591Y436488D01*
X354999D01*
X357324Y437112D01*
X359409Y438315D01*
X361112Y440018D01*
X362316Y442103D01*
X362939Y444428D01*
Y446836D01*
X362316Y449162D01*
X361112Y451247D01*
X359409Y452949D01*
X357324Y454153D01*
X354999Y454776D01*
D02*
G37*
G36*
X329599D02*
X327191D01*
X324865Y454153D01*
X322780Y452949D01*
X321078Y451247D01*
X319874Y449162D01*
X319251Y446836D01*
Y444428D01*
X319874Y442103D01*
X321078Y440018D01*
X322780Y438315D01*
X324865Y437112D01*
X327191Y436488D01*
X329599D01*
X331924Y437112D01*
X334009Y438315D01*
X335712Y440018D01*
X336916Y442103D01*
X337539Y444428D01*
Y446836D01*
X336916Y449162D01*
X335712Y451247D01*
X334009Y452949D01*
X331924Y454153D01*
X329599Y454776D01*
D02*
G37*
G36*
X405799Y454776D02*
X403391D01*
X401065Y454153D01*
X398980Y452949D01*
X397278Y451247D01*
X396074Y449162D01*
X395451Y446836D01*
Y444428D01*
X396074Y442103D01*
X397278Y440018D01*
X398980Y438315D01*
X401065Y437112D01*
X403391Y436488D01*
X405799D01*
X408124Y437112D01*
X410209Y438315D01*
X411912Y440018D01*
X413116Y442103D01*
X413739Y444428D01*
Y446836D01*
X413116Y449162D01*
X411912Y451247D01*
X410209Y452949D01*
X408124Y454153D01*
X405799Y454776D01*
D02*
G37*
G36*
X380399Y454776D02*
X377991D01*
X375665Y454153D01*
X373580Y452949D01*
X371878Y451247D01*
X370674Y449162D01*
X370051Y446836D01*
Y444428D01*
X370674Y442103D01*
X371878Y440018D01*
X373580Y438315D01*
X375665Y437112D01*
X377991Y436488D01*
X380399D01*
X382724Y437112D01*
X384809Y438315D01*
X386512Y440018D01*
X387716Y442103D01*
X388339Y444428D01*
Y446836D01*
X387716Y449162D01*
X386512Y451247D01*
X384809Y452949D01*
X382724Y454153D01*
X380399Y454776D01*
D02*
G37*
G36*
X304198D02*
X301791D01*
X299465Y454153D01*
X297380Y452949D01*
X295678Y451247D01*
X294474Y449162D01*
X293851Y446836D01*
Y444428D01*
X294474Y442103D01*
X295678Y440018D01*
X297380Y438315D01*
X297915Y438006D01*
D01*
Y435652D01*
X298339Y433521D01*
X299546Y431715D01*
X305277Y425984D01*
X306098Y425435D01*
Y418392D01*
X306528Y416232D01*
X307751Y414401D01*
X309583Y413177D01*
X311743Y412748D01*
X318243D01*
X320403Y413177D01*
X322234Y414401D01*
X323457Y416232D01*
X323887Y418392D01*
Y425450D01*
Y429892D01*
X323457Y432052D01*
X322234Y433884D01*
X320403Y435107D01*
X318243Y435537D01*
X311743D01*
X311517Y435492D01*
X309384Y437625D01*
X309051Y437958D01*
Y438757D01*
X309384Y439090D01*
X310312Y440018D01*
X311516Y442103D01*
X312139Y444428D01*
Y446836D01*
X311516Y449162D01*
X310312Y451247D01*
X308609Y452949D01*
X306524Y454153D01*
X304198Y454776D01*
D02*
G37*
G36*
X380499Y430138D02*
X377891D01*
X375371Y429463D01*
X373112Y428159D01*
X371268Y426315D01*
X370769Y425450D01*
X369964Y424056D01*
X369289Y421536D01*
Y418928D01*
X369964Y416409D01*
X371268Y414150D01*
X373112Y412306D01*
X375371Y411002D01*
X377891Y410326D01*
X380499D01*
X383018Y411002D01*
X385277Y412306D01*
X387122Y414150D01*
X388426Y416409D01*
X389101Y418928D01*
Y421536D01*
X388426Y424056D01*
X387621Y425450D01*
X387122Y426315D01*
X385277Y428159D01*
X383018Y429463D01*
X380499Y430138D01*
D02*
G37*
G36*
X355099D02*
X352491D01*
X349971Y429463D01*
X347712Y428159D01*
X345868Y426315D01*
X345369Y425450D01*
X344564Y424056D01*
X343889Y421536D01*
Y418928D01*
X344564Y416409D01*
X345868Y414150D01*
X347712Y412306D01*
X349971Y411002D01*
X352491Y410326D01*
X355099D01*
X357618Y411002D01*
X359877Y412306D01*
X361721Y414150D01*
X363026Y416409D01*
X363701Y418928D01*
Y421536D01*
X363026Y424056D01*
X362221Y425450D01*
X361721Y426315D01*
X359877Y428159D01*
X357618Y429463D01*
X355099Y430138D01*
D02*
G37*
G36*
X405899Y404738D02*
X403291D01*
X400771Y404063D01*
X398512Y402759D01*
X396668Y400915D01*
X395364Y398656D01*
X394689Y396137D01*
Y393528D01*
X395364Y391009D01*
X396668Y388750D01*
X398512Y386906D01*
X400771Y385602D01*
X403291Y384926D01*
X405899D01*
X408418Y385602D01*
X410677Y386906D01*
X412522Y388750D01*
X413826Y391009D01*
X414501Y393528D01*
Y396137D01*
X413826Y398656D01*
X412522Y400915D01*
X410677Y402759D01*
X408418Y404063D01*
X405899Y404738D01*
D02*
G37*
G36*
X355099Y404738D02*
X352491D01*
X349971Y404063D01*
X347712Y402759D01*
X345868Y400915D01*
X344564Y398656D01*
X343889Y396137D01*
Y393528D01*
X344564Y391009D01*
X345868Y388750D01*
X347712Y386906D01*
X349971Y385602D01*
X352491Y384926D01*
X355099D01*
X357618Y385602D01*
X359877Y386906D01*
X361721Y388750D01*
X363026Y391009D01*
X363701Y393528D01*
Y396137D01*
X363026Y398656D01*
X361721Y400915D01*
X359877Y402759D01*
X357618Y404063D01*
X355099Y404738D01*
D02*
G37*
G36*
X380499Y404738D02*
X377891D01*
X375371Y404063D01*
X373112Y402759D01*
X371268Y400915D01*
X369964Y398656D01*
X369289Y396137D01*
Y393528D01*
X369964Y391009D01*
X371268Y388750D01*
X373112Y386906D01*
X375371Y385601D01*
X377891Y384926D01*
X380499D01*
X383018Y385601D01*
X385277Y386906D01*
X387122Y388750D01*
X388426Y391009D01*
X389101Y393528D01*
Y396137D01*
X388426Y398656D01*
X387122Y400915D01*
X385277Y402759D01*
X383018Y404063D01*
X380499Y404738D01*
D02*
G37*
G36*
X405899Y379338D02*
X403291D01*
X400771Y378663D01*
X398512Y377359D01*
X396668Y375515D01*
X395364Y373256D01*
X394689Y370737D01*
Y368162D01*
D01*
Y368128D01*
X395364Y365609D01*
X396668Y363350D01*
X398512Y361506D01*
X400771Y360201D01*
X403291Y359526D01*
X405899D01*
X408418Y360201D01*
X410677Y361506D01*
X412522Y363350D01*
X413826Y365609D01*
X414501Y368128D01*
Y368162D01*
Y370737D01*
X413826Y373256D01*
X412522Y375515D01*
X410677Y377359D01*
X408418Y378663D01*
X405899Y379338D01*
D02*
G37*
G36*
X380499D02*
X377891D01*
X375371Y378663D01*
X373112Y377359D01*
X371268Y375515D01*
X369964Y373256D01*
X369289Y370737D01*
Y368162D01*
D01*
Y368128D01*
X369964Y365609D01*
X371268Y363350D01*
X373112Y361506D01*
X375371Y360201D01*
X377891Y359526D01*
X380499D01*
X383018Y360201D01*
X385277Y361506D01*
X387122Y363350D01*
X388426Y365609D01*
X389101Y368128D01*
Y368162D01*
Y370737D01*
X388426Y373256D01*
X387122Y375515D01*
X385277Y377359D01*
X383018Y378663D01*
X380499Y379338D01*
D02*
G37*
G36*
X355099Y379338D02*
X352491D01*
X349971Y378663D01*
X347712Y377359D01*
X345868Y375515D01*
X344564Y373256D01*
X343889Y370737D01*
Y368162D01*
D01*
Y368128D01*
X344564Y365609D01*
X345868Y363350D01*
X347712Y361506D01*
X349971Y360201D01*
X352491Y359526D01*
X355099D01*
X357618Y360201D01*
X359877Y361506D01*
X361721Y363350D01*
X363026Y365609D01*
X363701Y368128D01*
Y368162D01*
Y370737D01*
X363026Y373256D01*
X361721Y375515D01*
X359877Y377359D01*
X357618Y378663D01*
X355099Y379338D01*
D02*
G37*
G36*
X363574Y353811D02*
X344016D01*
Y334253D01*
X363574D01*
Y353811D01*
D02*
G37*
G36*
X414374Y353811D02*
X394816D01*
Y334253D01*
X414374D01*
Y353811D01*
D02*
G37*
G36*
X388974D02*
X369416D01*
Y334253D01*
X388974D01*
Y353811D01*
D02*
G37*
G36*
X405798Y327776D02*
X403391D01*
X401065Y327153D01*
X398980Y325949D01*
X397278Y324247D01*
X396074Y322162D01*
X395451Y319836D01*
Y317428D01*
X396074Y315103D01*
X397278Y313018D01*
X398980Y311315D01*
X401065Y310112D01*
X403391Y309488D01*
X405798D01*
X408124Y310112D01*
X410209Y311315D01*
X411912Y313018D01*
X413116Y315103D01*
X413739Y317428D01*
Y319836D01*
X413116Y322162D01*
X411912Y324247D01*
X410209Y325949D01*
X408124Y327153D01*
X405798Y327776D01*
D02*
G37*
G36*
X456599Y327776D02*
X454191D01*
X451865Y327153D01*
X449780Y325949D01*
X448078Y324247D01*
X446874Y322162D01*
X446251Y319836D01*
Y317428D01*
X446874Y315103D01*
X448078Y313018D01*
X449780Y311315D01*
X451865Y310112D01*
X454191Y309488D01*
X456599D01*
X458924Y310112D01*
X461009Y311315D01*
X462712Y313018D01*
X463915Y315103D01*
X464539Y317428D01*
Y319836D01*
X463915Y322162D01*
X462712Y324247D01*
X461009Y325949D01*
X458924Y327153D01*
X456599Y327776D01*
D02*
G37*
G36*
X329599D02*
X327191D01*
X324865Y327153D01*
X322780Y325949D01*
X321078Y324247D01*
X319874Y322162D01*
X319251Y319836D01*
Y317428D01*
X319874Y315103D01*
X321078Y313018D01*
X322780Y311315D01*
X324865Y310112D01*
X327191Y309488D01*
X329599D01*
X331924Y310112D01*
X334009Y311315D01*
X335712Y313018D01*
X336916Y315103D01*
X337539Y317428D01*
Y319836D01*
X336916Y322162D01*
X335712Y324247D01*
X334009Y325949D01*
X331924Y327153D01*
X329599Y327776D01*
D02*
G37*
G36*
X380399Y327776D02*
X377991D01*
X375665Y327153D01*
X373580Y325949D01*
X371878Y324247D01*
X370674Y322162D01*
X370051Y319836D01*
Y317428D01*
X370674Y315103D01*
X371878Y313018D01*
X373580Y311315D01*
X375665Y310112D01*
X377991Y309488D01*
X380399D01*
X382724Y310112D01*
X384809Y311315D01*
X386512Y313018D01*
X387716Y315103D01*
X388339Y317428D01*
Y319836D01*
X387716Y322162D01*
X386512Y324247D01*
X384809Y325949D01*
X382724Y327153D01*
X380399Y327776D01*
D02*
G37*
G36*
X354999D02*
X352591D01*
X350265Y327153D01*
X348180Y325949D01*
X346478Y324247D01*
X345274Y322162D01*
X344651Y319836D01*
Y317428D01*
X345274Y315103D01*
X346478Y313018D01*
X348180Y311315D01*
X350265Y310112D01*
X352591Y309488D01*
X354999D01*
X357324Y310112D01*
X359409Y311315D01*
X361112Y313018D01*
X362316Y315103D01*
X362939Y317428D01*
Y319836D01*
X362316Y322162D01*
X361112Y324247D01*
X359409Y325949D01*
X357324Y327153D01*
X354999Y327776D01*
D02*
G37*
G36*
X431199Y327776D02*
X428791D01*
X426465Y327153D01*
X424380Y325949D01*
X422678Y324247D01*
X421474Y322162D01*
X420851Y319836D01*
Y317428D01*
X421474Y315103D01*
X422678Y313018D01*
X424380Y311315D01*
X426465Y310112D01*
X428791Y309488D01*
X431199D01*
X433524Y310112D01*
X435609Y311315D01*
X437312Y313018D01*
X438516Y315103D01*
X439139Y317428D01*
Y319836D01*
X438516Y322162D01*
X437312Y324247D01*
X435609Y325949D01*
X433524Y327153D01*
X431199Y327776D01*
D02*
G37*
G36*
X361801Y296468D02*
X358199D01*
X354666Y295765D01*
X351338Y294387D01*
X348343Y292386D01*
X345796Y289839D01*
X343795Y286843D01*
X342417Y283516D01*
X341714Y279983D01*
Y276381D01*
X342417Y272848D01*
X343795Y269520D01*
X345796Y266525D01*
X348343Y263978D01*
X351338Y261977D01*
X354666Y260599D01*
X358199Y259896D01*
X361801D01*
X365334Y260599D01*
X368662Y261977D01*
X371657Y263978D01*
X374204Y266525D01*
X376205Y269520D01*
X377583Y272848D01*
X378286Y276381D01*
Y279983D01*
X377583Y283516D01*
X376205Y286843D01*
X374204Y289839D01*
X371657Y292386D01*
X368662Y294387D01*
X365334Y295765D01*
X361801Y296468D01*
D02*
G37*
G36*
X385909Y245336D02*
X363337D01*
Y222764D01*
X385909D01*
Y245336D01*
D02*
G37*
G36*
X350709D02*
X347737D01*
X344866Y244567D01*
X342293Y243081D01*
X340192Y240980D01*
X338706Y238407D01*
X337937Y235536D01*
Y232565D01*
X338706Y229694D01*
X340192Y227121D01*
X342293Y225019D01*
X344866Y223533D01*
X347737Y222764D01*
X350709D01*
X353579Y223533D01*
X356152Y225019D01*
X358254Y227121D01*
X359739Y229694D01*
X360509Y232565D01*
Y235536D01*
X359739Y238407D01*
X358254Y240980D01*
X356152Y243081D01*
X353579Y244567D01*
X350709Y245336D01*
D02*
G37*
G36*
X384402Y218429D02*
X364844D01*
Y198871D01*
X384402D01*
Y218429D01*
D02*
G37*
G36*
X350527Y218556D02*
X347919D01*
X345399Y217881D01*
X343140Y216577D01*
X341296Y214733D01*
X339992Y212474D01*
X339317Y209954D01*
Y207346D01*
X339992Y204827D01*
X341296Y202568D01*
X343140Y200724D01*
X345399Y199419D01*
X347919Y198744D01*
X350527D01*
X353046Y199419D01*
X355305Y200724D01*
X357149Y202568D01*
X358454Y204827D01*
X359129Y207346D01*
Y209954D01*
X358454Y212474D01*
X357149Y214733D01*
X355305Y216577D01*
X353046Y217881D01*
X350527Y218556D01*
D02*
G37*
G36*
X196819Y236968D02*
X177167D01*
Y227596D01*
X172965D01*
X172736Y228750D01*
X171733Y230250D01*
X170233Y231253D01*
X168463Y231605D01*
X163963D01*
X162193Y231253D01*
X160693Y230250D01*
X159690Y228750D01*
X159338Y226980D01*
Y221480D01*
X159690Y219710D01*
X160693Y218210D01*
X162193Y217207D01*
X163963Y216855D01*
X168463D01*
X170233Y217207D01*
X171733Y218210D01*
X172736Y219710D01*
X172965Y220863D01*
X177167D01*
Y217316D01*
X196819D01*
Y217848D01*
X198975D01*
X199105Y217195D01*
X200108Y215695D01*
X201608Y214692D01*
X203378Y214340D01*
X208878D01*
X210648Y214692D01*
X212148Y215695D01*
X213151Y217195D01*
X213503Y218965D01*
Y223465D01*
X213151Y225235D01*
X212148Y226735D01*
X210648Y227738D01*
X208878Y228090D01*
X203378D01*
X201608Y227738D01*
X200108Y226735D01*
X199105Y225235D01*
X198975Y224582D01*
X196819D01*
Y236968D01*
D02*
G37*
G36*
X152463Y231605D02*
X147963D01*
X146193Y231253D01*
X144693Y230250D01*
X143690Y228750D01*
X143338Y226980D01*
Y223525D01*
X141461Y221647D01*
X140394Y220051D01*
X140020Y218168D01*
Y211314D01*
X140394Y209431D01*
X141461Y207834D01*
X143037Y206258D01*
Y202990D01*
X143389Y201220D01*
X144392Y199720D01*
X145892Y198717D01*
X147662Y198365D01*
X152162D01*
X153932Y198717D01*
X155432Y199720D01*
X156435Y201220D01*
X156787Y202990D01*
Y208490D01*
X156435Y210260D01*
X155432Y211760D01*
X153932Y212763D01*
X152162Y213115D01*
X150098D01*
X149861Y213352D01*
Y216130D01*
X150586Y216855D01*
X152463D01*
X154233Y217207D01*
X155733Y218210D01*
X156736Y219710D01*
X157088Y221480D01*
Y226980D01*
X156736Y228750D01*
X155733Y230250D01*
X154233Y231253D01*
X152463Y231605D01*
D02*
G37*
G36*
X135819Y206968D02*
X116167D01*
Y187316D01*
X135819D01*
Y206968D01*
D02*
G37*
G36*
X173138Y196467D02*
X171334D01*
X169667Y195777D01*
X168391Y194501D01*
X167700Y192833D01*
Y192393D01*
X167194Y191888D01*
X166464Y190795D01*
X166208Y189507D01*
Y188928D01*
X165707D01*
Y178356D01*
X180279D01*
Y188928D01*
X177276D01*
X176428Y190198D01*
X176772Y191029D01*
Y192833D01*
X176081Y194501D01*
X174805Y195777D01*
X173138Y196467D01*
D02*
G37*
G36*
X127286Y181968D02*
X124699D01*
X122200Y181299D01*
X119959Y180005D01*
X118130Y178176D01*
X116836Y175935D01*
X116167Y173436D01*
Y170849D01*
X116836Y168350D01*
X118130Y166109D01*
X119959Y164280D01*
X122200Y162986D01*
X124699Y162316D01*
X127286D01*
X129785Y162986D01*
X132026Y164280D01*
X133855Y166109D01*
X135149Y168350D01*
X135209Y168574D01*
X148993D01*
X150037Y168782D01*
X152493D01*
X153970Y169076D01*
X155222Y169913D01*
X156059Y171165D01*
X156353Y172642D01*
Y175642D01*
X156059Y177120D01*
X155222Y178372D01*
X153970Y179209D01*
X152493Y179503D01*
X150037D01*
X148993Y179710D01*
X132321D01*
X132026Y180005D01*
X129785Y181299D01*
X127286Y181968D01*
D02*
G37*
G36*
X241961Y168755D02*
X238359D01*
X234826Y168052D01*
X231498Y166673D01*
X228503Y164672D01*
X225956Y162125D01*
X223955Y159130D01*
X222577Y155802D01*
X221874Y152269D01*
Y148667D01*
X222577Y145135D01*
X223955Y141807D01*
X225956Y138812D01*
X228503Y136265D01*
X231498Y134264D01*
X234826Y132885D01*
X238359Y132183D01*
X241961D01*
X245494Y132885D01*
X248822Y134264D01*
X251817Y136265D01*
X254364Y138812D01*
X256365Y141807D01*
X257743Y145135D01*
X258446Y148667D01*
Y152269D01*
X257743Y155802D01*
X256365Y159130D01*
X254364Y162125D01*
X251817Y164672D01*
X248822Y166673D01*
X245494Y168052D01*
X241961Y168755D01*
D02*
G37*
G36*
X180199Y109808D02*
X178394D01*
X176727Y109118D01*
X175451Y107842D01*
X174761Y106175D01*
Y104370D01*
X175451Y102703D01*
X176727Y101427D01*
X178394Y100736D01*
X180199D01*
X181866Y101427D01*
X183142Y102703D01*
X183833Y104370D01*
Y106175D01*
X183142Y107842D01*
X181866Y109118D01*
X180199Y109808D01*
D02*
G37*
G36*
X179779Y92428D02*
X168207D01*
Y81982D01*
X167355Y81413D01*
X167277Y81335D01*
X166918D01*
X165251Y80645D01*
X163975Y79369D01*
X163285Y77701D01*
Y75897D01*
X163975Y74230D01*
X165251Y72954D01*
X166918Y72263D01*
X168723D01*
X170390Y72954D01*
X171666Y74230D01*
X171895Y74782D01*
X172017D01*
X172392Y74856D01*
X179779D01*
Y92428D01*
D02*
G37*
%LPD*%
D23*
X314993Y424142D02*
D03*
X286993D02*
D03*
D24*
X214729Y403468D02*
D03*
X198729D02*
D03*
X410000Y258000D02*
D03*
X426000D02*
D03*
X323619Y386642D02*
D03*
X307619D02*
D03*
X307619Y371642D02*
D03*
X323619D02*
D03*
X264769Y387720D02*
D03*
X280769D02*
D03*
X534993Y330142D02*
D03*
X518993D02*
D03*
X504993Y314142D02*
D03*
X488993D02*
D03*
X454993Y243142D02*
D03*
X470993D02*
D03*
X500993D02*
D03*
X484993D02*
D03*
X176493Y149142D02*
D03*
X160493D02*
D03*
X149912Y205740D02*
D03*
X165912D02*
D03*
X150213Y224230D02*
D03*
X166213D02*
D03*
D27*
X139555Y320479D02*
D03*
X150869Y331793D02*
D03*
X140336Y350985D02*
D03*
X151650Y362299D02*
D03*
X227836Y318486D02*
D03*
X239149Y329799D02*
D03*
X122586Y380285D02*
D03*
X133899Y391599D02*
D03*
X145837Y379661D02*
D03*
X134524Y368348D02*
D03*
X191304Y378645D02*
D03*
X179990Y367331D02*
D03*
X193157Y265657D02*
D03*
X181843Y254343D02*
D03*
D28*
X590537Y243924D02*
D03*
X342831Y57698D02*
D03*
X199173Y443502D02*
D03*
X590993Y368048D02*
D03*
X465993Y494142D02*
D03*
X240160Y150469D02*
D03*
X360000Y278182D02*
D03*
D29*
X360350Y164210D02*
D03*
Y148210D02*
D03*
X206128Y221215D02*
D03*
Y205215D02*
D03*
X261593Y354826D02*
D03*
Y338826D02*
D03*
X519493Y315642D02*
D03*
Y299642D02*
D03*
X534993Y315142D02*
D03*
Y299142D02*
D03*
X230993Y13642D02*
D03*
Y29642D02*
D03*
X160993Y127142D02*
D03*
Y111142D02*
D03*
X145466Y244730D02*
D03*
Y260730D02*
D03*
X109398Y254890D02*
D03*
Y270890D02*
D03*
D30*
X318993Y176642D02*
D03*
X342993Y167142D02*
D03*
X109336Y224790D02*
D03*
X133336Y215290D02*
D03*
X172993Y164642D02*
D03*
X148993Y174142D02*
D03*
X317993Y151642D02*
D03*
X293993Y161142D02*
D03*
D31*
X342993Y186142D02*
D03*
X133336Y234290D02*
D03*
X172993Y183642D02*
D03*
X293993Y142142D02*
D03*
D32*
X304135Y391294D02*
X308787Y386642D01*
X304135Y391294D02*
Y391495D01*
X301612Y394018D02*
X304135Y391495D01*
X301168Y397002D02*
X301612Y396558D01*
Y394018D02*
Y396558D01*
X307135Y371642D02*
X307619D01*
X323619D02*
Y386642D01*
X323619Y386642D02*
X323619Y386642D01*
X313957Y361980D02*
X323619Y371642D01*
X313957Y361696D02*
Y361980D01*
X313155Y295655D02*
Y339295D01*
X294867Y357583D02*
Y386958D01*
Y357583D02*
X313155Y339295D01*
X302995Y318632D02*
Y341364D01*
X297443Y330951D02*
X297892Y331401D01*
X289558Y354801D02*
X302995Y341364D01*
X297892Y331401D02*
Y340360D01*
X277062Y397256D02*
X284569D01*
X264639Y416642D02*
X279199Y402082D01*
X285849D01*
X276855Y397049D02*
X277062Y397256D01*
X285849Y402082D02*
X299693Y388239D01*
X171442Y288055D02*
X171862Y288475D01*
X244018Y293400D02*
Y294650D01*
X236453Y288438D02*
X239056D01*
X244018Y293400D01*
Y294650D02*
X246409Y297042D01*
Y297075D01*
X141476Y359347D02*
X141948Y359819D01*
X140336Y350985D02*
Y355542D01*
X141476Y356682D01*
Y359347D01*
X275203Y302221D02*
Y302949D01*
Y302221D02*
Y302221D01*
X426000Y258000D02*
X442000Y242000D01*
Y234000D02*
Y242000D01*
X299693Y379084D02*
Y388239D01*
X158411Y229280D02*
X166319Y237187D01*
Y248935D01*
X167803Y250420D01*
Y266490D01*
X171871Y244371D02*
X181843Y254343D01*
X171871Y244100D02*
Y244371D01*
X205684Y272796D02*
Y272796D01*
Y272796D02*
X209723Y268757D01*
X209296Y268329D02*
X209723Y268757D01*
X109398Y254890D02*
X116636Y262128D01*
X130226D01*
X137532Y254822D01*
Y252233D02*
X137952Y251813D01*
X137532Y252233D02*
Y254822D01*
X137952Y251145D02*
Y251813D01*
X136835Y250028D02*
X137952Y251145D01*
X136835Y245651D02*
Y250028D01*
X135114Y243931D02*
X136835Y245651D01*
X135114Y234290D02*
Y243931D01*
X159069Y263257D02*
X161873Y260453D01*
X145466Y244730D02*
X155156D01*
X161873Y251447D01*
X167803Y266490D02*
X168157Y266843D01*
X159069Y263257D02*
Y268789D01*
X161873Y251447D02*
Y260453D01*
X156321Y253746D02*
Y259899D01*
X154102Y262117D02*
X156321Y259899D01*
X154102Y262117D02*
Y269928D01*
X158330Y274156D01*
X166211Y275931D02*
X170810D01*
X159069Y268789D02*
X166211Y275931D01*
X170810D02*
X171131Y275610D01*
X171862D01*
X220855Y200357D02*
X223121D01*
X206445Y205215D02*
X215098Y196562D01*
Y195544D02*
X215570Y195072D01*
X220855Y200357D01*
X215098Y195544D02*
Y196562D01*
X206128Y205215D02*
X206445D01*
X166213Y224230D02*
X184080D01*
X186993Y227142D01*
X158411Y219314D02*
Y229280D01*
Y219314D02*
X158420Y219305D01*
X145466Y260730D02*
Y269408D01*
X144360Y270514D02*
X145466Y269408D01*
X144360Y270514D02*
Y271182D01*
X192920Y221215D02*
X206128D01*
X186993Y227142D02*
X192920Y221215D01*
X269297Y326930D02*
X277595Y318632D01*
X261593Y338826D02*
X262093D01*
X269297Y331622D01*
Y326930D02*
Y331622D01*
X171442Y282650D02*
Y288055D01*
Y282650D02*
X171862Y282230D01*
Y275610D02*
Y282230D01*
Y275610D02*
X181815Y265657D01*
X193157D01*
Y262343D02*
Y265657D01*
X293802Y253238D02*
X294101Y252939D01*
X296932D01*
X311521Y238350D01*
X183176Y277161D02*
X188038Y282024D01*
Y288257D01*
X201077Y301297D01*
X204379D01*
X204443Y301360D01*
X342993Y180425D02*
X359208Y164210D01*
X342993Y180425D02*
Y186142D01*
X359208Y164210D02*
X360350D01*
X477395Y302544D02*
X488993Y314142D01*
X477324Y302544D02*
X477395D01*
X426382Y280589D02*
X427829Y279142D01*
X426382Y280589D02*
X426382D01*
X109929Y339775D02*
X111036Y338668D01*
X104250D02*
X105357Y339775D01*
X111036Y338000D02*
Y338668D01*
X105357Y339775D02*
Y354351D01*
X104250Y338000D02*
Y338668D01*
X206128Y221215D02*
X207160D01*
X285928Y221145D02*
Y241554D01*
X311521Y220952D02*
Y238350D01*
Y220952D02*
X323823Y208650D01*
X285928Y221145D02*
X298423Y208650D01*
X288263Y276869D02*
Y299097D01*
X247623Y234050D02*
X270551Y256978D01*
X275700Y236728D02*
Y258200D01*
X313155Y295655D01*
X270551Y256978D02*
Y259157D01*
X288263Y276869D01*
X283426Y354826D02*
X297892Y340360D01*
X285723Y324873D02*
Y334380D01*
Y324873D02*
X287755Y322841D01*
X289558Y354801D02*
Y380075D01*
X261593Y354826D02*
X283426D01*
X105357Y354351D02*
X123648Y372642D01*
X109929Y352458D02*
X126881Y369409D01*
X109929Y339775D02*
Y352458D01*
X123648Y372642D02*
Y374326D01*
X122586Y380285D02*
X123412Y379460D01*
X128564Y369409D02*
X128800Y369173D01*
X123412Y374562D02*
X123648Y374326D01*
X123412Y374562D02*
Y379460D01*
X128800Y369173D02*
X133698D01*
X126881Y369409D02*
X128564D01*
X482913Y356924D02*
X483808D01*
X481503Y358334D02*
X482913Y356924D01*
X472694Y351094D02*
X479934Y358334D01*
X481503D01*
X463607Y379243D02*
Y381032D01*
X464338Y381764D01*
X169575Y185626D02*
Y189507D01*
X171999Y191931D01*
X172236D01*
X171559Y183642D02*
X172993D01*
X169575Y185626D02*
X171559Y183642D01*
X114941Y142694D02*
X116493Y141142D01*
X108823Y142694D02*
X114941D01*
X106399Y145118D02*
X108823Y142694D01*
X106399Y145118D02*
Y145404D01*
X140435Y141200D02*
X140493Y141142D01*
X140435Y141200D02*
Y149976D01*
X283993Y170502D02*
Y185076D01*
X293851Y194934D01*
X326564D01*
X335356Y186142D01*
X342993D01*
X277087Y163596D02*
X283993Y170502D01*
X277087Y146674D02*
Y163596D01*
Y146674D02*
X281619Y142142D01*
X293993D01*
X153897Y387720D02*
Y391784D01*
X145837Y379661D02*
X153897Y387720D01*
X136026Y391599D02*
X141451Y397024D01*
Y397626D01*
X133899Y391599D02*
X136026D01*
X287755Y312965D02*
Y322841D01*
X286013Y311223D02*
X287755Y312965D01*
X286013Y301347D02*
X288263Y299097D01*
X286013Y301347D02*
Y311223D01*
X273023Y234050D02*
X275700Y236728D01*
X264769Y394706D02*
X267689Y397626D01*
X264769Y387720D02*
Y394706D01*
X489177Y254958D02*
Y275706D01*
Y254958D02*
X500993Y243142D01*
X284569Y397256D02*
X294867Y386958D01*
X299693Y379084D02*
X307135Y371642D01*
X214802Y37654D02*
Y38670D01*
X211982Y34834D02*
X214802Y37654D01*
Y38670D02*
X215275Y39142D01*
X230993Y29642D02*
X231690Y30340D01*
Y36000D01*
X248385Y52694D01*
X200125Y22976D02*
Y25850D01*
X209109Y34834D01*
X211982D01*
X470684Y381764D02*
X473937Y378511D01*
Y373912D02*
Y378511D01*
X472310Y372286D02*
X473937Y373912D01*
X464338Y381764D02*
X470684D01*
X472310Y371923D02*
Y372286D01*
X461273Y376909D02*
X463607Y379243D01*
X462087Y361700D02*
X472310Y371923D01*
X461273Y374748D02*
Y376909D01*
X455296Y368771D02*
X461273Y374748D01*
X455016Y368771D02*
X455296D01*
X133698Y369173D02*
X134524Y368348D01*
X468269Y376212D02*
X468385D01*
X465845Y373787D02*
X468269Y376212D01*
X465845Y372854D02*
Y373787D01*
X464506Y371515D02*
X465845Y372854D01*
X464506Y371469D02*
Y371515D01*
X461075Y353897D02*
X461355D01*
X465623Y358165D01*
X458552Y365516D02*
X464506Y371469D01*
X458552Y365236D02*
Y365516D01*
X454284Y360688D02*
Y360968D01*
X458552Y365236D01*
X452598Y359002D02*
X454284Y360688D01*
X459389Y352211D02*
X461075Y353897D01*
X456654Y352211D02*
X459389D01*
X452598Y356267D02*
Y359002D01*
Y356267D02*
X456654Y352211D01*
X216344Y268329D02*
X216697Y268682D01*
X209296Y268329D02*
X216344D01*
X489177Y275706D02*
X492613Y279142D01*
X501743D01*
X427829D02*
X445243D01*
X424367Y269142D02*
X445243D01*
X417803Y275706D02*
X424367Y269142D01*
X445243Y251744D02*
Y259142D01*
X445743Y359526D02*
Y363413D01*
X451481Y372027D02*
Y372307D01*
X445527Y366073D02*
X451481Y372027D01*
X445527Y363629D02*
Y366073D01*
Y363629D02*
X445743Y363413D01*
X460983Y346454D02*
X469158Y354629D01*
X439991Y367888D02*
X447945Y375842D01*
X439991Y367781D02*
Y367888D01*
X218703Y410743D02*
X219175Y411215D01*
X218703Y408610D02*
Y410743D01*
X351585Y371642D02*
X353795Y369432D01*
X285135Y384498D02*
X289558Y380075D01*
X188942Y324728D02*
X191786Y327573D01*
X192454D01*
X280769Y387720D02*
X283991Y384498D01*
X285135D01*
X171423Y358764D02*
X179990Y367331D01*
X164819Y358764D02*
X171423D01*
X191304Y378645D02*
X196315Y383656D01*
X199871D01*
X204987Y388954D02*
X205205D01*
X198729Y395212D02*
X204987Y388954D01*
X198729Y395212D02*
Y403468D01*
X171862Y288475D02*
X174032D01*
X182599Y297042D01*
X214729Y404636D02*
X218703Y408610D01*
X214729Y403468D02*
Y404636D01*
X219175Y411215D02*
X219188D01*
X151357Y351933D02*
Y356372D01*
X151531Y356546D01*
X231621Y345810D02*
X239149Y338281D01*
Y329799D02*
Y338281D01*
X177704Y316923D02*
X185509Y324728D01*
X188942D01*
X207290Y317602D02*
X220289Y304603D01*
X203441Y317602D02*
X207290D01*
X202969Y318074D02*
X203441Y317602D01*
X183071Y299663D02*
X189018Y305609D01*
X183071Y297514D02*
Y299663D01*
X182599Y297042D02*
X183071Y297514D01*
X206011Y340310D02*
X227836Y318486D01*
X214149Y358485D02*
X220191Y352444D01*
X201649Y345985D02*
X206668Y340967D01*
X227717Y318367D02*
X227836Y318486D01*
X227717Y312031D02*
Y318367D01*
X220289Y304603D02*
X227717Y312031D01*
X200532Y284846D02*
X201239Y285553D01*
X208288D01*
X208995Y284846D01*
X217901D01*
X231621Y298566D01*
D33*
X122352Y303276D02*
X139555Y320479D01*
X122352Y299212D02*
Y303276D01*
X501743Y289142D02*
X528842D01*
X532672Y296822D02*
X534993Y299142D01*
X532672Y292972D02*
Y296822D01*
X528842Y289142D02*
X532672Y292972D01*
X514831Y270626D02*
X515339D01*
X512871Y272586D02*
X514831Y270626D01*
X509211Y272586D02*
X512871D01*
X507723Y271098D02*
X509211Y272586D01*
X505868Y269142D02*
X507723Y270997D01*
X501743Y269142D02*
X505868D01*
X507723Y270997D02*
Y271098D01*
X510305Y260259D02*
X513815Y263768D01*
X502859Y260259D02*
X510305D01*
X501743Y259142D02*
X502859Y260259D01*
X116493Y122142D02*
X118499Y120136D01*
Y112397D02*
Y120136D01*
X152490Y110250D02*
X152865Y110625D01*
X160476D02*
X160993Y111142D01*
X152865Y110625D02*
X160476D01*
X423899Y300344D02*
X424429D01*
X425631Y299142D01*
X445243D01*
X115016Y130166D02*
X116493Y131642D01*
X469619Y333872D02*
Y338119D01*
Y333872D02*
X480541Y322950D01*
X496185D01*
X504993Y314142D01*
X506493Y315642D02*
X519493D01*
X504993Y314142D02*
X506493Y315642D01*
X470993Y243142D02*
X484993D01*
X454993D02*
X457618Y245767D01*
Y248297D01*
X457681Y248360D01*
Y285358D01*
X454409Y288630D02*
X457681Y285358D01*
X445755Y288630D02*
X454409D01*
X445243Y289142D02*
X445755Y288630D01*
D34*
X104528Y317798D02*
X113005Y309321D01*
X423628Y249190D02*
X429000Y243818D01*
X417690Y252740D02*
X421240Y249190D01*
X412159Y256114D02*
Y260659D01*
Y256114D02*
X412921Y255353D01*
X421240Y249190D02*
X423628D01*
X412921Y255353D02*
X415905D01*
X417690Y253567D01*
Y252740D02*
Y253567D01*
X104528Y317798D02*
Y320303D01*
X104250Y320581D02*
X104528Y320303D01*
X109398Y270890D02*
Y305715D01*
X113005Y309321D01*
X111114Y235264D02*
X125993Y250142D01*
X111114Y224790D02*
Y235264D01*
X342993Y167142D02*
X344993D01*
X346469Y165666D01*
Y163666D02*
Y165666D01*
Y163666D02*
X357322Y152813D01*
Y151131D02*
Y152813D01*
Y151131D02*
X360243Y148210D01*
X360350D01*
X130993Y79610D02*
X133577Y77026D01*
Y62092D02*
Y77026D01*
X168512Y77077D02*
X170102Y78666D01*
X168099Y77077D02*
X168512D01*
X167821Y76799D02*
X168099Y77077D01*
X193971Y70714D02*
X195274D01*
X192993Y69736D02*
X193971Y70714D01*
X195274D02*
X195376Y70816D01*
X170102Y78666D02*
X172017D01*
X192993Y59642D02*
Y69736D01*
X173993Y80642D02*
Y83642D01*
X172017Y78666D02*
X173993Y80642D01*
X192993Y83642D02*
X193951Y84600D01*
Y99645D01*
X193493Y100103D02*
X193951Y99645D01*
X193493Y100103D02*
Y100496D01*
X508993Y299142D02*
X509493Y298642D01*
X501743Y299142D02*
X508993D01*
X509493Y298642D02*
X519493D01*
X523834Y302483D02*
Y303483D01*
X519493Y298642D02*
X519993D01*
X523834Y302483D01*
Y303483D02*
X534493Y314142D01*
X534993D01*
X534993Y318642D02*
X534993Y318642D01*
Y314142D02*
Y318642D01*
X534993Y318642D02*
Y329142D01*
X496982Y339038D02*
X499287Y341343D01*
X503829D01*
X506133Y339038D01*
X509597D01*
X518993Y329642D01*
Y329142D02*
Y329642D01*
D36*
X317993Y151642D02*
Y175642D01*
X318993Y176642D01*
X320493Y149142D02*
X339993D01*
X317993Y151642D02*
X320493Y149142D01*
D37*
X140820Y116825D02*
X143315Y119320D01*
X133577Y95112D02*
X133995D01*
X140820Y101937D01*
Y116825D01*
X148016Y131967D02*
X152340Y136292D01*
Y137044D01*
X140818Y131967D02*
X148016D01*
X176616Y71603D02*
X179677D01*
X176568Y71556D02*
X176616Y71603D01*
X179677D02*
X183168Y75094D01*
Y83317D02*
X183493Y83642D01*
X183168Y75094D02*
Y83317D01*
X160493Y149142D02*
X161818Y147817D01*
Y146575D02*
Y147817D01*
Y146575D02*
X165537Y142855D01*
X167391D01*
X140493Y131642D02*
X140818Y131967D01*
X292343Y161142D02*
X293993D01*
X292168Y160967D02*
X292343Y161142D01*
X292168Y158199D02*
Y160967D01*
X283993Y150024D02*
X292168Y158199D01*
X293993Y179582D02*
X302864Y188453D01*
X293993Y161142D02*
Y179582D01*
X302864Y188453D02*
X323885D01*
X331189Y181150D01*
Y178946D02*
Y181150D01*
Y178946D02*
X341168Y168967D01*
Y167317D02*
Y168967D01*
Y167317D02*
X341343Y167142D01*
X342993D01*
X162243Y59642D02*
X173993D01*
X183818Y51729D02*
X185834Y49713D01*
X183493Y59642D02*
X183818Y59317D01*
Y51729D02*
Y59317D01*
X230993Y13642D02*
X232318Y14967D01*
X235658D01*
X248385Y27694D01*
X200125Y20467D02*
Y22976D01*
Y20467D02*
X206950Y13642D01*
X230993D01*
X173993Y39864D02*
Y59642D01*
X167105Y32976D02*
X173993Y39864D01*
X167105Y22976D02*
Y32976D01*
X130355Y174142D02*
X148993D01*
X128355Y172142D02*
X130355Y174142D01*
X125993Y172142D02*
X128355D01*
X418033Y388379D02*
Y440173D01*
X408300Y459348D02*
X417676Y449973D01*
Y440530D02*
Y449973D01*
Y440530D02*
X418033Y440173D01*
X420089Y385723D02*
Y386323D01*
X418033Y388379D02*
X420089Y386323D01*
Y385723D02*
X432789Y373023D01*
Y370585D02*
Y373023D01*
X291311Y459348D02*
X408300D01*
X277595Y445632D02*
X291311Y459348D01*
X285855Y425280D02*
X286993Y424142D01*
X285855Y425280D02*
Y437372D01*
X277595Y445632D02*
X285855Y437372D01*
X314993Y424142D02*
Y426602D01*
X311673Y429921D02*
X314993Y426602D01*
X309214Y429921D02*
X311673D01*
X303483Y435652D02*
X309214Y429921D01*
X303483Y435652D02*
Y445144D01*
X302995Y445632D02*
X303483Y445144D01*
D38*
X143315Y119320D02*
X144771Y120776D01*
X158098Y127142D02*
X171957D01*
X144771Y120776D02*
X151732D01*
X158098Y127142D01*
D39*
X151650Y351641D02*
Y358820D01*
X150799Y331863D02*
X150869Y331793D01*
X150799Y331863D02*
Y334635D01*
X154178Y338014D01*
Y349112D01*
X275203Y291464D02*
Y302221D01*
X270978Y276481D02*
Y287239D01*
Y276481D02*
X272261Y275198D01*
X270978Y287239D02*
X275203Y291464D01*
X445000Y216250D02*
X475254D01*
X485572Y226568D01*
X154178Y349112D02*
X182149D01*
X151650Y351641D02*
X154178Y349112D01*
X151650Y362299D02*
X152003Y361946D01*
X151650Y358820D02*
X152003Y359174D01*
Y361946D01*
X215654Y379055D02*
X217070Y380471D01*
X212925Y376326D02*
X215654Y379055D01*
X275203Y302221D02*
X275203D01*
X254350Y323074D02*
X275203Y302221D01*
X144940Y218168D02*
X148253Y221481D01*
Y222270D01*
X150213Y224230D01*
X144940Y211314D02*
X147952Y208302D01*
Y207700D02*
Y208302D01*
X144940Y211314D02*
Y214376D01*
Y218168D01*
X147952Y207700D02*
X149912Y205740D01*
X452855Y336158D02*
X454887Y334126D01*
X432789Y356224D02*
X452855Y336158D01*
X470993Y243142D02*
Y276642D01*
X473493Y279142D01*
X469691Y241840D02*
X470993Y243142D01*
X454887Y334126D02*
X465626D01*
X432789Y356224D02*
Y370585D01*
X465626Y334126D02*
X469619Y338119D01*
X477644Y346144D01*
X432789Y370585D02*
X442995Y380792D01*
X250925Y328564D02*
X254350Y325139D01*
X224216Y378716D02*
X250925Y352007D01*
X254350Y323074D02*
Y325139D01*
X250925Y328564D02*
Y352007D01*
X214729Y390848D02*
X217070Y388507D01*
X212135Y376326D02*
X212925D01*
X214729Y390848D02*
Y403468D01*
X205608Y369799D02*
X212135Y376326D01*
X215654Y379055D02*
X217365D01*
X202836Y369799D02*
X205608D01*
X217070Y380471D02*
Y388507D01*
X217365Y379055D02*
X217705Y378716D01*
X224216D01*
X190336Y357299D02*
X202836Y369799D01*
X239149Y329799D02*
X239503Y329446D01*
Y326674D02*
Y329446D01*
X239149Y326320D02*
X239503Y326674D01*
X239149Y319621D02*
Y326320D01*
Y319621D02*
X244451Y314319D01*
Y313175D02*
Y314319D01*
X200633Y325744D02*
Y330629D01*
X182149Y349112D02*
X200633Y330629D01*
X194537Y319648D02*
X200633Y325744D01*
X194537Y311831D02*
Y319648D01*
X189018Y305609D02*
Y306312D01*
X194537Y311831D01*
X182149Y349112D02*
X190336Y357299D01*
D40*
X277595Y445632D02*
D03*
X429995Y445632D02*
D03*
Y318632D02*
D03*
X404595Y318632D02*
D03*
X379195Y318632D02*
D03*
X353795D02*
D03*
X328395Y318632D02*
D03*
X302995Y318632D02*
D03*
X302995Y445632D02*
D03*
X455395Y445632D02*
D03*
Y318632D02*
D03*
X328395Y445632D02*
D03*
X353795D02*
D03*
X404595Y445632D02*
D03*
X379195Y445632D02*
D03*
X277595Y369432D02*
D03*
Y318632D02*
D03*
X277595Y344032D02*
D03*
D41*
X339993Y149142D02*
D03*
D42*
X390793D02*
D03*
D43*
X247623Y234050D02*
D03*
X273023D02*
D03*
X298423D02*
D03*
X323823D02*
D03*
X349223D02*
D03*
D44*
X374623D02*
D03*
D45*
X298423Y208650D02*
D03*
X323823D02*
D03*
X349223D02*
D03*
X404595Y369432D02*
D03*
Y394832D02*
D03*
X353795Y420232D02*
D03*
X353795Y394832D02*
D03*
Y369432D02*
D03*
X379195Y420232D02*
D03*
Y394832D02*
D03*
Y369432D02*
D03*
D46*
X374623Y208650D02*
D03*
D47*
X404595Y344032D02*
D03*
X353795Y344032D02*
D03*
X379195Y344032D02*
D03*
D48*
X322899Y495078D02*
D03*
X347899D02*
D03*
X372899D02*
D03*
X248385Y52694D02*
D03*
Y77694D02*
D03*
X186993Y202142D02*
D03*
X125993Y250142D02*
D03*
Y172142D02*
D03*
D49*
X397899Y495078D02*
D03*
D50*
X248385Y27694D02*
D03*
X186993Y227142D02*
D03*
X125993Y275142D02*
D03*
Y197142D02*
D03*
D51*
X526539Y368595D02*
D03*
X465446Y429689D02*
D03*
D52*
X490618Y352898D02*
D03*
X449748Y393768D02*
D03*
D53*
X496982Y339038D02*
D03*
X435889Y400132D02*
D03*
D54*
X301168Y397002D02*
D03*
X297443Y330951D02*
D03*
X313957Y361696D02*
D03*
X272212Y434304D02*
D03*
X247574Y425958D02*
D03*
X276855Y397049D02*
D03*
X264639Y416642D02*
D03*
X122352Y299212D02*
D03*
X112870Y309187D02*
D03*
X116002Y292354D02*
D03*
X122860Y326644D02*
D03*
X468000Y176000D02*
D03*
X462000D02*
D03*
X474000D02*
D03*
X480536Y164084D02*
D03*
X278054Y281432D02*
D03*
X246409Y297075D02*
D03*
X291565Y303646D02*
D03*
X141948Y359819D02*
D03*
X428000Y182000D02*
D03*
X416000D02*
D03*
X422000D02*
D03*
X416000Y176000D02*
D03*
X422000D02*
D03*
X428000D02*
D03*
X451000Y182000D02*
D03*
X445000D02*
D03*
X439000D02*
D03*
Y176000D02*
D03*
X445000D02*
D03*
X451000D02*
D03*
X213538Y53340D02*
D03*
X462000Y182000D02*
D03*
X468000D02*
D03*
X474000D02*
D03*
X442000Y234000D02*
D03*
X429000Y243818D02*
D03*
X237023Y407518D02*
D03*
X151054Y411226D02*
D03*
X206680Y410464D02*
D03*
X171882Y411988D02*
D03*
X265637Y301781D02*
D03*
X138100Y225044D02*
D03*
X144940Y214376D02*
D03*
X171871Y244100D02*
D03*
X234430Y244050D02*
D03*
X205684Y272796D02*
D03*
X118034Y351536D02*
D03*
X137952Y251813D02*
D03*
X104250Y320581D02*
D03*
X215570Y195072D02*
D03*
X173914Y211582D02*
D03*
X255900Y307792D02*
D03*
X251892Y270764D02*
D03*
X204443Y301360D02*
D03*
X293802Y253238D02*
D03*
X477324Y302544D02*
D03*
X426382Y280589D02*
D03*
X485572Y226568D02*
D03*
X537388Y283052D02*
D03*
X515339Y270626D02*
D03*
X513815Y263768D02*
D03*
X111036Y338000D02*
D03*
X285928Y241554D02*
D03*
X138518Y277024D02*
D03*
X144360Y271182D02*
D03*
X123146Y291536D02*
D03*
X134250Y292250D02*
D03*
X153419Y296146D02*
D03*
X285723Y334380D02*
D03*
X290468Y339932D02*
D03*
X156321Y253746D02*
D03*
X104250Y338000D02*
D03*
X463607Y381032D02*
D03*
X216635Y206872D02*
D03*
X172236Y191931D02*
D03*
X106399Y145404D02*
D03*
X152340Y137044D02*
D03*
X152490Y110250D02*
D03*
X172439Y127624D02*
D03*
X179297Y105272D02*
D03*
X176568Y71556D02*
D03*
X167821Y76799D02*
D03*
X195376Y70816D02*
D03*
X162025Y92318D02*
D03*
X123493Y79610D02*
D03*
X127993Y148198D02*
D03*
X118499Y112397D02*
D03*
X140435Y149976D02*
D03*
X167391Y142855D02*
D03*
X283993Y170502D02*
D03*
X216889Y88762D02*
D03*
X224255Y108066D02*
D03*
X229335Y90032D02*
D03*
X331189Y178946D02*
D03*
X283993Y150024D02*
D03*
X153897Y391784D02*
D03*
X141451Y397626D02*
D03*
X267689D02*
D03*
X272261Y275198D02*
D03*
X484114Y252678D02*
D03*
X423899Y300344D02*
D03*
X253432Y379483D02*
D03*
X248626Y384274D02*
D03*
X264133Y442584D02*
D03*
X162243Y59642D02*
D03*
X146023Y15864D02*
D03*
X193493Y100496D02*
D03*
X215275Y39142D02*
D03*
X217905Y26532D02*
D03*
X185834Y49713D02*
D03*
X142311Y39642D02*
D03*
X130993Y79610D02*
D03*
X115993D02*
D03*
X548105Y356152D02*
D03*
X468385Y376212D02*
D03*
X548105Y349366D02*
D03*
X544579Y313216D02*
D03*
X417803Y275706D02*
D03*
X444473Y250306D02*
D03*
X445743Y359526D02*
D03*
X483808Y356924D02*
D03*
X452855Y336158D02*
D03*
X460983Y346454D02*
D03*
X530833Y340222D02*
D03*
X439991Y367781D02*
D03*
X517529Y339678D02*
D03*
X219175Y411215D02*
D03*
X192454Y327573D02*
D03*
X199871Y383656D02*
D03*
X205205Y388954D02*
D03*
X220699Y335142D02*
D03*
X151357Y351933D02*
D03*
X231621Y345810D02*
D03*
X202969Y318074D02*
D03*
X182599Y297042D02*
D03*
X164819Y358764D02*
D03*
X224509Y341238D02*
D03*
X220191Y352444D02*
D03*
X206668Y340967D02*
D03*
X231621Y298566D02*
D03*
D55*
X467993Y268142D02*
D03*
X478993D02*
D03*
X467993Y279142D02*
D03*
X478993D02*
D03*
X467993Y290142D02*
D03*
X478993D02*
D03*
D57*
X173993Y83642D02*
D03*
D58*
X183493Y83642D02*
D03*
X192993Y83642D02*
D03*
Y59642D02*
D03*
X183493Y59642D02*
D03*
X173993Y59642D02*
D03*
D59*
X468000Y157750D02*
D03*
D60*
X445000Y157750D02*
D03*
X422000Y157750D02*
D03*
D61*
X445000Y216250D02*
D03*
D62*
X200532Y284846D02*
D03*
X216697Y268682D02*
D03*
X220289Y304603D02*
D03*
X236453Y288438D02*
D03*
D63*
X473493Y279142D02*
D03*
D64*
X445243Y259142D02*
D03*
Y269142D02*
D03*
Y279142D02*
D03*
Y289142D02*
D03*
Y299142D02*
D03*
X501743Y259142D02*
D03*
Y269142D02*
D03*
Y279142D02*
D03*
Y289142D02*
D03*
D65*
Y299142D02*
D03*
D66*
X465623Y358165D02*
D03*
X455016Y368771D02*
D03*
X462087Y361700D02*
D03*
X458552Y365236D02*
D03*
X451481Y372307D02*
D03*
X447945Y375842D02*
D03*
X469158Y354629D02*
D03*
X472694Y351094D02*
D03*
D67*
X442995Y380792D02*
D03*
X477644Y346144D02*
D03*
X483301Y340487D02*
D03*
X437339Y386449D02*
D03*
D68*
X200125Y22976D02*
D03*
X167105D02*
D03*
D69*
X244451Y313175D02*
D03*
X254350Y323074D02*
D03*
D70*
X189018Y305609D02*
D03*
X177704Y316923D02*
D03*
X202836Y369799D02*
D03*
X214149Y358485D02*
D03*
X190336Y357299D02*
D03*
X201649Y345985D02*
D03*
X182637Y276876D02*
D03*
X171323Y288190D02*
D03*
X156843Y278157D02*
D03*
X168157Y266843D02*
D03*
D71*
X116493Y122142D02*
D03*
D72*
Y131642D02*
D03*
Y141142D02*
D03*
X140493D02*
D03*
Y131642D02*
D03*
Y122142D02*
D03*
D73*
X133577Y62092D02*
D03*
Y95112D02*
D03*
D74*
X422000Y166000D02*
D03*
X468000D02*
D03*
D75*
X445000Y184363D02*
D03*
D76*
X140820Y112130D02*
D03*
D77*
X125015Y74364D02*
D03*
M02*
