G04*
G04 #@! TF.GenerationSoftware,Altium Limited,Altium Designer,23.4.1 (23)*
G04*
G04 Layer_Physical_Order=3*
G04 Layer_Color=16440176*
%FSLAX44Y44*%
%MOMM*%
G71*
G04*
G04 #@! TF.SameCoordinates,AB80FC79-285A-43AE-8B4E-7A9897C75676*
G04*
G04*
G04 #@! TF.FilePolarity,Positive*
G04*
G01*
G75*
%ADD29C,0.2032*%
%ADD30C,0.3048*%
%ADD32C,0.2540*%
%ADD34C,0.6350*%
%ADD36C,0.5080*%
%ADD38C,1.5080*%
%ADD39C,1.3716*%
%ADD40R,1.5080X1.5080*%
%ADD42C,1.8000*%
%ADD44C,1.5240*%
%ADD47R,1.4986X1.4986*%
%ADD51C,0.4500*%
G36*
X66599Y253427D02*
X88013D01*
X114682Y226759D01*
Y220787D01*
X114938Y219499D01*
X115668Y218407D01*
X119634Y214441D01*
Y183388D01*
X100838Y164592D01*
X61214D01*
X35819Y189987D01*
Y206968D01*
X35814D01*
Y209456D01*
X44940D01*
X46823Y209830D01*
X48419Y210897D01*
X49486Y212493D01*
X49861Y214376D01*
X49486Y216259D01*
X48419Y217855D01*
X46823Y218922D01*
X44940Y219296D01*
X35814D01*
Y236982D01*
X50781Y251949D01*
X52279Y251651D01*
X52475Y251177D01*
X52954Y250698D01*
Y207847D01*
X53210Y206558D01*
X53940Y205466D01*
X67700Y191706D01*
Y191029D01*
X68391Y189362D01*
X69667Y188086D01*
X71334Y187395D01*
X73138D01*
X74805Y188086D01*
X76081Y189362D01*
X76772Y191029D01*
Y192833D01*
X76081Y194501D01*
X74805Y195777D01*
X73138Y196467D01*
X72461D01*
X59688Y209241D01*
Y250698D01*
X60166Y251177D01*
X60857Y252844D01*
Y253492D01*
X66274D01*
X66599Y253427D01*
D02*
G37*
G36*
X334665Y183388D02*
X334464Y182902D01*
Y181098D01*
X335155Y179431D01*
X335585Y179000D01*
X335155Y178570D01*
X334464Y176902D01*
Y175098D01*
X335155Y173431D01*
X336431Y172155D01*
X338098Y171464D01*
X339902D01*
X341569Y172155D01*
X342000Y172585D01*
X342431Y172155D01*
X344098Y171464D01*
X345902D01*
X347569Y172155D01*
X348000Y172585D01*
X348430Y172155D01*
X349060Y171894D01*
X357632Y163322D01*
Y134247D01*
X182178D01*
X182178Y134247D01*
X181398Y134091D01*
X180736Y133649D01*
X180736Y133649D01*
X174629Y127542D01*
X174187Y126881D01*
X174032Y126100D01*
Y3556D01*
X150114D01*
X129540Y24130D01*
Y85496D01*
X130237D01*
X131904Y86187D01*
X133180Y87463D01*
X133871Y89130D01*
Y90935D01*
X133180Y92602D01*
X131904Y93878D01*
X130237Y94568D01*
X129540D01*
Y134225D01*
X130660Y134824D01*
X131498Y134264D01*
X134826Y132885D01*
X138359Y132183D01*
X141961D01*
X145494Y132885D01*
X148822Y134264D01*
X151817Y136265D01*
X154364Y138812D01*
X156365Y141807D01*
X157743Y145135D01*
X158446Y148667D01*
Y152269D01*
X157743Y155802D01*
X156365Y159130D01*
X154364Y162125D01*
X151817Y164672D01*
X151676Y164766D01*
X151552Y166030D01*
X163358Y177836D01*
X173073Y168122D01*
X174165Y167392D01*
X175453Y167136D01*
X180944D01*
X181423Y166657D01*
X183090Y165966D01*
X184895D01*
X186562Y166657D01*
X187838Y167933D01*
X188529Y169600D01*
Y171405D01*
X187838Y173072D01*
X186562Y174348D01*
X184895Y175038D01*
X183090D01*
X181423Y174348D01*
X180944Y173869D01*
X176848D01*
X168119Y182597D01*
X170180Y184658D01*
X230059D01*
X230286Y183482D01*
X228619Y182792D01*
X227343Y181516D01*
X226653Y179849D01*
Y178044D01*
X227343Y176377D01*
X228619Y175101D01*
X230286Y174410D01*
X232091D01*
X233758Y175101D01*
X235034Y176377D01*
X235725Y178044D01*
Y179849D01*
X235034Y181516D01*
X233758Y182792D01*
X232091Y183482D01*
X232319Y184658D01*
X333817D01*
X334665Y183388D01*
D02*
G37*
%LPC*%
G36*
X72773Y248636D02*
X70968D01*
X69301Y247945D01*
X68025Y246669D01*
X67335Y245002D01*
Y243197D01*
X68025Y241530D01*
X69301Y240254D01*
X70968Y239564D01*
X72773D01*
X74440Y240254D01*
X75716Y241530D01*
X76407Y243197D01*
Y245002D01*
X75716Y246669D01*
X74440Y247945D01*
X72773Y248636D01*
D02*
G37*
G36*
X96819Y236968D02*
X77167D01*
Y217316D01*
X96819D01*
Y236968D01*
D02*
G37*
G36*
X184895Y154560D02*
X183090D01*
X181423Y153870D01*
X180147Y152594D01*
X179457Y150927D01*
Y149122D01*
X180147Y147455D01*
X181423Y146179D01*
X183090Y145488D01*
X184895D01*
X186562Y146179D01*
X187838Y147455D01*
X188529Y149122D01*
Y150927D01*
X187838Y152594D01*
X186562Y153870D01*
X184895Y154560D01*
D02*
G37*
G36*
X301579Y159928D02*
X280007D01*
Y138356D01*
X301579D01*
Y159928D01*
D02*
G37*
G36*
X241413D02*
X238573D01*
X235829Y159193D01*
X233370Y157773D01*
X231362Y155765D01*
X229942Y153306D01*
X229207Y150562D01*
Y147722D01*
X229942Y144979D01*
X231362Y142520D01*
X233370Y140511D01*
X235829Y139091D01*
X238573Y138356D01*
X241413D01*
X244156Y139091D01*
X246615Y140511D01*
X248624Y142520D01*
X250044Y144979D01*
X250779Y147722D01*
Y150562D01*
X250044Y153306D01*
X248624Y155765D01*
X246615Y157773D01*
X244156Y159193D01*
X241413Y159928D01*
D02*
G37*
G36*
X149678Y87520D02*
X147091D01*
X144592Y86851D01*
X142351Y85557D01*
X140522Y83728D01*
X139228Y81487D01*
X138559Y78988D01*
Y76401D01*
X139228Y73902D01*
X140522Y71661D01*
X142351Y69832D01*
X144592Y68538D01*
X147091Y67868D01*
X149678D01*
X152177Y68538D01*
X154418Y69832D01*
X156247Y71661D01*
X157541Y73902D01*
X158211Y76401D01*
Y78988D01*
X157541Y81487D01*
X156247Y83728D01*
X154418Y85557D01*
X152177Y86851D01*
X149678Y87520D01*
D02*
G37*
G36*
Y62520D02*
X147091D01*
X144592Y61851D01*
X142351Y60557D01*
X140522Y58728D01*
X139228Y56487D01*
X138559Y53988D01*
Y51401D01*
X139228Y48902D01*
X140522Y46661D01*
X142351Y44832D01*
X144592Y43538D01*
X147091Y42868D01*
X149678D01*
X152177Y43538D01*
X154418Y44832D01*
X156247Y46661D01*
X157541Y48902D01*
X158211Y51401D01*
Y53988D01*
X157541Y56487D01*
X156247Y58728D01*
X154418Y60557D01*
X152177Y61851D01*
X149678Y62520D01*
D02*
G37*
%LPD*%
D29*
X160716Y295125D02*
X164361D01*
X178054Y281432D01*
X216154D02*
X238706Y258880D01*
X178054Y281432D02*
X216154D01*
X191565Y303646D02*
X195375Y299836D01*
X314247D01*
X87122Y95250D02*
Y140462D01*
Y95250D02*
X113538Y68834D01*
Y53340D02*
Y68834D01*
X118049Y220787D02*
X125095Y213741D01*
X87122Y140462D02*
X125095Y178435D01*
Y213741D01*
X335024Y234000D02*
X342000D01*
X295030Y194005D02*
X335024Y234000D01*
X238706Y258880D02*
X377913D01*
X384114Y252678D01*
X154940Y401828D02*
X159512Y406400D01*
X106680Y410464D02*
X115316Y401828D01*
X154940D01*
X51054Y411226D02*
X60960Y401320D01*
X104140D01*
X114300Y391160D01*
X185928D01*
X215392Y361696D01*
Y317267D02*
Y361696D01*
X224186Y308472D02*
X232603D01*
X215392Y317267D02*
X224186Y308472D01*
X253685Y304154D02*
X263955Y314424D01*
X232603Y308472D02*
X242062Y317931D01*
X217473Y304154D02*
X253685D01*
X242062Y317931D02*
Y332300D01*
X202995Y318632D02*
X217473Y304154D01*
X242062Y332300D02*
X253795Y344032D01*
X268400Y333237D02*
Y352893D01*
X271731Y356224D01*
X159512Y406400D02*
X189230D01*
X205994Y389636D01*
X172466Y433832D02*
X302006D01*
X172212Y434086D02*
X172466Y433832D01*
X184426Y414020D02*
X234607D01*
X164133Y434314D02*
Y442584D01*
Y434314D02*
X184426Y414020D01*
X118049Y220787D02*
Y228153D01*
X122367Y223589D02*
X175453Y170502D01*
X183993D01*
X135321Y228955D02*
X170270Y194005D01*
X295030D01*
X66599Y256794D02*
X89408D01*
X62504Y266996D02*
X85312D01*
X122367Y223589D02*
Y229942D01*
X89408Y256794D02*
X118049Y228153D01*
X85312Y266996D02*
X122367Y229942D01*
X53419Y296146D02*
X74482D01*
X135321Y235308D01*
X140225Y244050D02*
X149921Y253746D01*
X135321Y228955D02*
Y235308D01*
X134430Y244050D02*
X140225D01*
X34250Y292250D02*
X34722Y291778D01*
X36947Y286447D02*
X66599Y256794D01*
X34722Y291778D02*
X37722D01*
X62504Y266996D01*
X10668Y245110D02*
X24384Y231394D01*
X10668Y245110D02*
Y307340D01*
X24384Y231394D02*
X42418D01*
X13004Y309321D02*
X13004Y309321D01*
X12650Y309321D02*
X13004D01*
X10668Y307340D02*
X12650Y309321D01*
X234607Y414020D02*
X253795Y394832D01*
X302006Y433832D02*
X322580Y413258D01*
Y326047D02*
Y413258D01*
Y326047D02*
X329995Y318632D01*
X120699Y335142D02*
X160716Y295125D01*
X374025Y302415D02*
X377195D01*
X377324Y302544D01*
X326382Y280589D02*
X327003D01*
X348827Y302412D01*
X19885Y297547D02*
X25031D01*
X19733Y297699D02*
X19885Y297547D01*
X25031D02*
X28698Y293881D01*
X193294Y253746D02*
X193802Y253238D01*
X149921Y253746D02*
X193294D01*
X28698Y289802D02*
X32053Y286447D01*
X28698Y289802D02*
Y293881D01*
X32053Y286447D02*
X36947D01*
X348827Y302412D02*
X374022D01*
X374025Y302415D01*
X185723Y334380D02*
X193469D01*
X199500Y340411D01*
X190468Y339932D02*
Y351225D01*
X183945Y357748D02*
X190468Y351225D01*
X159746Y381624D02*
X183750D01*
X199500Y340411D02*
Y365874D01*
X183750Y381624D02*
X199500Y365874D01*
X56321Y207847D02*
Y253746D01*
Y207847D02*
X72236Y191931D01*
X363607Y381032D02*
X364078Y381504D01*
X365645D01*
X368857Y378249D02*
X371965Y381357D01*
X365645Y381504D02*
X370071Y385929D01*
X40181Y131188D02*
X95255Y76114D01*
X40181Y131188D02*
Y149722D01*
X95255Y70937D02*
X95376Y70816D01*
X95255Y70937D02*
Y76114D01*
X40181Y149722D02*
X40435Y149976D01*
X156767Y357748D02*
X183945D01*
X145337Y369178D02*
X156767Y357748D01*
X158077Y379955D02*
X159746Y381624D01*
X153904Y379955D02*
X158077D01*
X153432Y379483D02*
X153904Y379955D01*
X145337Y380985D02*
X148626Y384274D01*
X145337Y369178D02*
Y380985D01*
X314247Y299836D02*
X321613Y307202D01*
X354807Y318045D02*
X355395Y318632D01*
X346679Y318045D02*
X354807D01*
X335837Y307202D02*
X346679Y318045D01*
X321613Y307202D02*
X335837D01*
X326936Y318632D02*
X329995D01*
X377053Y384418D02*
X388161D01*
X375542Y385929D02*
X377053Y384418D01*
X388161D02*
X417534Y355045D01*
X370071Y385929D02*
X375542D01*
X447437Y356152D02*
X448105D01*
X446330Y355045D02*
X447437Y356152D01*
X417534Y355045D02*
X446330D01*
X375159Y379846D02*
X386267D01*
X373648Y381357D02*
X375159Y379846D01*
X386267D02*
X415640Y350473D01*
X371965Y381357D02*
X373648D01*
X368857Y376684D02*
Y378249D01*
X368385Y376212D02*
X368857Y376684D01*
X446330Y350473D02*
X447437Y349366D01*
X448105D01*
X415640Y350473D02*
X446330D01*
X339991Y357426D02*
X374888Y322529D01*
X339991Y357426D02*
Y367781D01*
X374888Y322529D02*
X400379D01*
X361455Y344236D02*
X378844Y326847D01*
X361455Y344236D02*
Y345981D01*
X378844Y326847D02*
X396846D01*
X360983Y346454D02*
X361455Y345981D01*
X426769Y344286D02*
X430833Y340222D01*
X420772Y344286D02*
X426769D01*
X419828Y345230D02*
X420772Y344286D01*
X415229Y345230D02*
X419828D01*
X396846Y326847D02*
X415229Y345230D01*
X400379Y322529D02*
X417529Y339678D01*
X283767Y356224D02*
X290117Y362574D01*
X271731Y356224D02*
X283767D01*
X279195Y420232D02*
X306373D01*
X315517Y411088D01*
Y329554D02*
Y411088D01*
X304595Y318632D02*
X315517Y329554D01*
X290117Y362574D02*
Y383910D01*
X279195Y318632D02*
X304595D01*
X304595Y318632D01*
X263955Y319140D02*
X279195Y334380D01*
X263955Y314424D02*
Y319140D01*
X279195Y334380D02*
Y344032D01*
X253795Y318632D02*
X268400Y333237D01*
X267402Y358002D02*
X270960Y361560D01*
X271322D01*
X279195Y369432D01*
X242365Y358002D02*
X267402D01*
X279195Y394832D02*
X290117Y383910D01*
X228395Y318632D02*
Y344032D01*
X242365Y358002D01*
D30*
X93493Y100496D02*
X125017Y68972D01*
Y33644D02*
Y68972D01*
X11938Y331724D02*
X13970D01*
X4250Y320581D02*
X4298Y320629D01*
Y324084D01*
X11938Y331724D01*
X18034Y335788D02*
Y349758D01*
X13970Y331724D02*
X18034Y335788D01*
X117905Y26532D02*
X125017Y33644D01*
D32*
X52330Y110410D02*
X52490Y110250D01*
X19746Y111680D02*
X45160D01*
X46430Y110410D02*
X52330D01*
X45160Y111680D02*
X46430Y110410D01*
X19029Y112397D02*
X19746Y111680D01*
X18499Y112397D02*
X19029D01*
X323899Y300344D02*
X338132D01*
X346006Y308218D01*
X359708D01*
X365296Y313806D01*
X444549D01*
D34*
X218841Y264432D02*
X249223Y234050D01*
X183027Y264432D02*
X218841D01*
X172261Y275198D02*
X183027Y264432D01*
D36*
X30734Y214376D02*
X44940D01*
X4540Y240570D02*
X30734Y214376D01*
X4540Y240570D02*
Y310864D01*
X20320Y326644D01*
X22860D01*
X385572Y226568D02*
X396240Y237236D01*
Y274066D01*
X405226Y283052D01*
X437388D01*
X62992Y332994D02*
X95504Y365506D01*
X22860Y326644D02*
X29210Y332994D01*
X62992D01*
X95504Y365506D02*
X125476D01*
X131621Y359361D01*
Y345810D02*
Y359361D01*
D38*
X86993Y202142D02*
D03*
D39*
X355395Y318632D02*
D03*
X202995Y318632D02*
D03*
X228395Y318632D02*
D03*
X253795Y318632D02*
D03*
X279195D02*
D03*
X304595Y318632D02*
D03*
X329995Y318632D02*
D03*
D40*
X148385Y27694D02*
D03*
D42*
X249223Y234050D02*
D03*
D44*
X279195Y369432D02*
D03*
Y394832D02*
D03*
Y420232D02*
D03*
X253795Y394832D02*
D03*
D47*
X279195Y344032D02*
D03*
X253795Y344032D02*
D03*
D51*
X178054Y281432D02*
D03*
X191565Y303646D02*
D03*
X328000Y182000D02*
D03*
X316000D02*
D03*
X322000D02*
D03*
X316000Y176000D02*
D03*
X322000D02*
D03*
X328000D02*
D03*
X113538Y53340D02*
D03*
X342000Y234000D02*
D03*
X51054Y411226D02*
D03*
X205994Y389636D02*
D03*
X106680Y410464D02*
D03*
X172212Y434086D02*
D03*
X38100Y225044D02*
D03*
X44940Y214376D02*
D03*
X134430Y244050D02*
D03*
X18034Y349758D02*
D03*
X4250Y320581D02*
D03*
X13004Y309321D02*
D03*
X115570Y195072D02*
D03*
X73914Y211582D02*
D03*
X193802Y253238D02*
D03*
X377324Y302544D02*
D03*
X326382Y280589D02*
D03*
X385572Y226568D02*
D03*
X437388Y283052D02*
D03*
X22860Y326644D02*
D03*
X19733Y297699D02*
D03*
X34250Y292250D02*
D03*
X53419Y296146D02*
D03*
X185723Y334380D02*
D03*
X190468Y339932D02*
D03*
X56321Y253746D02*
D03*
X363607Y381032D02*
D03*
X116635Y206872D02*
D03*
X72236Y191931D02*
D03*
X52490Y110250D02*
D03*
X95376Y70816D02*
D03*
X18499Y112397D02*
D03*
X40435Y149976D02*
D03*
X183993Y170502D02*
D03*
X172261Y275198D02*
D03*
X384114Y252678D02*
D03*
X323899Y300344D02*
D03*
X153432Y379483D02*
D03*
X148626Y384274D02*
D03*
X164133Y442584D02*
D03*
X93493Y100496D02*
D03*
X117905Y26532D02*
D03*
X448105Y356152D02*
D03*
X368385Y376212D02*
D03*
X448105Y349366D02*
D03*
X444579Y313216D02*
D03*
X360983Y346454D02*
D03*
X430833Y340222D02*
D03*
X339991Y367781D02*
D03*
X417529Y339678D02*
D03*
X120699Y335142D02*
D03*
X131621Y345810D02*
D03*
M02*
