%TF.GenerationSoftware,Altium Limited,Altium Designer,23.11.1 (41)*%
G04 Layer_Color=16711935*
%FSLAX26Y26*%
%MOIN*%
%TF.SameCoordinates,0B4E2714-AAF7-4A90-8E72-ED1F183F2DA5*%
%TF.FilePolarity,Negative*%
%TF.FileFunction,Soldermask,Bot*%
%TF.Part,CustomerPanel*%
G01*
G75*
%TA.AperFunction,FiducialPad,Global*%
%ADD79C,0.118110*%
%TA.AperFunction,ComponentPad*%
%ADD80O,0.070992X0.047370*%
%ADD81C,0.034575*%
%ADD82O,0.090677X0.047370*%
%ADD83C,0.074929*%
%ADD84R,0.074929X0.074929*%
%ADD85R,0.074929X0.074929*%
%ADD86O,0.082803X0.067055*%
%ADD87R,0.082803X0.067055*%
%ADD88C,0.067055*%
%ADD89O,0.067055X0.082803*%
%ADD90P,0.120208X4X90.0*%
%ADD91R,0.085000X0.085000*%
%TA.AperFunction,ViaPad*%
%ADD92C,0.011811*%
%ADD93C,0.023622*%
D79*
X543307Y907480D02*
D03*
X2962968Y761669D02*
D03*
X2866142Y1655512D02*
D03*
D80*
X3112204Y1313779D02*
D03*
Y973622D02*
D03*
X111213Y463748D02*
D03*
Y803905D02*
D03*
D81*
X2968504Y1257477D02*
D03*
Y1029925D02*
D03*
X254913Y520051D02*
D03*
Y747603D02*
D03*
D82*
X2947637Y1313779D02*
D03*
Y973622D02*
D03*
X275780Y463748D02*
D03*
Y803905D02*
D03*
D83*
X949055Y543307D02*
D03*
X159449Y1560236D02*
D03*
Y1166535D02*
D03*
D84*
X1149055Y543307D02*
D03*
D85*
X159449Y1360236D02*
D03*
Y966535D02*
D03*
D86*
X1952756Y956693D02*
D03*
D87*
Y1350394D02*
D03*
D88*
X2354331Y956693D02*
D03*
Y1350394D02*
D03*
D89*
X2452756Y1153543D02*
D03*
D90*
X3112205Y818898D02*
D03*
D91*
X2942913Y1537402D02*
D03*
D92*
X984968Y783669D02*
D03*
X939748Y748669D02*
D03*
X910940Y749142D02*
D03*
X2098425Y592520D02*
D03*
X2357968Y485795D02*
D03*
X2024968Y457669D02*
D03*
X1271654Y877953D02*
D03*
X583969Y532111D02*
D03*
Y559669D02*
D03*
X372969Y648228D02*
D03*
X2827372Y1188885D02*
D03*
X372969Y620669D02*
D03*
X2857198Y1189885D02*
D03*
X2856968Y1108669D02*
D03*
X1212001Y474521D02*
D03*
X939571Y1226862D02*
D03*
X2767716Y996063D02*
D03*
X2738189D02*
D03*
X2718504Y956693D02*
D03*
X2748032D02*
D03*
X1367968Y558598D02*
D03*
X2786968Y1181669D02*
D03*
X2785968Y1096669D02*
D03*
X2728347Y1370079D02*
D03*
Y1340551D02*
D03*
Y1311024D02*
D03*
Y1281496D02*
D03*
X2000000Y1842520D02*
D03*
X2397968Y1799669D02*
D03*
X2629921Y1645669D02*
D03*
Y1685040D02*
D03*
X2336968Y768669D02*
D03*
X2339968Y1749669D02*
D03*
X1734968Y645228D02*
D03*
X1394968Y835598D02*
D03*
X1392968Y592598D02*
D03*
X1528723Y772598D02*
D03*
X1515968Y805598D02*
D03*
X1537402Y877953D02*
D03*
X1619968Y821598D02*
D03*
X1596457Y1419291D02*
D03*
X1655512D02*
D03*
X1625984D02*
D03*
X1596457Y1389764D02*
D03*
X1655512D02*
D03*
X1625984D02*
D03*
X641732Y1055118D02*
D03*
Y996063D02*
D03*
Y1025591D02*
D03*
X681102Y1055118D02*
D03*
Y996063D02*
D03*
Y1025591D02*
D03*
X385827Y1606299D02*
D03*
Y1547244D02*
D03*
Y1576772D02*
D03*
X415354Y1606299D02*
D03*
Y1547244D02*
D03*
Y1576772D02*
D03*
X1813968Y820598D02*
D03*
X1768968Y923598D02*
D03*
X1351968Y1012598D02*
D03*
X1731968Y866598D02*
D03*
X1648695Y1011598D02*
D03*
X1648968Y910598D02*
D03*
X988968Y1322425D02*
D03*
X570968Y1137425D02*
D03*
X1038535Y1393583D02*
D03*
Y1452638D02*
D03*
Y1423110D02*
D03*
Y1364055D02*
D03*
X726323Y1590276D02*
D03*
X1038535Y1482165D02*
D03*
X895323Y1570276D02*
D03*
D93*
X1984968Y1618669D02*
D03*
%TF.MD5,cf54b0f1d66d7daeb818c0123433e722*%
M02*
