%TF.GenerationSoftware,Altium Limited,Altium Designer,23.11.1 (41)*%
G04 Layer_Color=65535*
%FSLAX26Y26*%
%MOIN*%
%TF.SameCoordinates,0B4E2714-AAF7-4A90-8E72-ED1F183F2DA5*%
%TF.FilePolarity,Positive*%
%TF.FileFunction,Legend,Top*%
%TF.Part,CustomerPanel*%
G01*
G75*
%TA.AperFunction,NonConductor*%
%ADD94C,0.003937*%
%ADD95C,0.011077*%
%ADD96C,0.009842*%
%ADD97C,0.007874*%
%ADD98C,0.010000*%
%ADD99C,0.005000*%
G36*
X2882022Y786983D02*
X2882547D01*
X2883137Y786918D01*
X2883793Y786852D01*
X2885171Y786655D01*
X2886745Y786327D01*
X2888385Y785933D01*
X2889959Y785343D01*
X2890025D01*
X2890156Y785278D01*
X2890353Y785146D01*
X2890681Y785015D01*
X2891075Y784818D01*
X2891468Y784621D01*
X2892518Y784097D01*
X2893633Y783375D01*
X2894945Y782588D01*
X2896191Y781604D01*
X2897438Y780554D01*
X2897503Y780489D01*
X2897569Y780423D01*
X2897766Y780226D01*
X2897963Y780029D01*
X2898619Y779374D01*
X2899340Y778521D01*
X2900259Y777405D01*
X2901177Y776225D01*
X2902095Y774847D01*
X2902948Y773338D01*
Y773273D01*
X2903079Y773141D01*
X2903145Y772945D01*
X2903342Y772617D01*
X2903539Y772223D01*
X2903735Y771764D01*
X2903998Y771239D01*
X2904260Y770649D01*
X2904785Y769271D01*
X2905376Y767762D01*
X2905900Y766122D01*
X2906360Y764351D01*
X2900062Y762514D01*
Y762580D01*
X2899996Y762777D01*
X2899931Y763105D01*
X2899800Y763498D01*
X2899668Y764023D01*
X2899472Y764614D01*
X2899275Y765269D01*
X2899012Y765926D01*
X2898422Y767500D01*
X2897700Y769140D01*
X2896847Y770780D01*
X2895863Y772289D01*
Y772354D01*
X2895732Y772486D01*
X2895601Y772682D01*
X2895339Y772879D01*
X2894748Y773601D01*
X2893961Y774388D01*
X2892977Y775306D01*
X2891796Y776290D01*
X2890550Y777143D01*
X2889107Y777930D01*
Y777865D01*
X2889172Y777734D01*
X2889238Y777471D01*
X2889369Y777209D01*
X2889435Y776815D01*
X2889566Y776356D01*
X2889828Y775306D01*
Y775241D01*
X2889894Y775044D01*
X2889959Y774782D01*
X2890025Y774388D01*
X2890091Y773470D01*
X2890156Y772486D01*
Y771895D01*
X2890091Y771436D01*
Y770911D01*
X2889959Y770321D01*
X2889894Y769665D01*
X2889763Y768943D01*
X2889369Y767369D01*
X2888779Y765729D01*
X2888451Y764942D01*
X2887992Y764154D01*
X2887532Y763433D01*
X2886942Y762711D01*
X2886876Y762645D01*
X2886811Y762580D01*
X2886614Y762383D01*
X2886352Y762121D01*
X2886023Y761858D01*
X2885630Y761596D01*
X2885171Y761268D01*
X2884711Y760874D01*
X2883465Y760218D01*
X2881956Y759693D01*
X2880251Y759234D01*
X2879267Y759169D01*
X2878283Y759103D01*
X2878151D01*
X2877823D01*
X2877299Y759169D01*
X2876643Y759234D01*
X2875856Y759365D01*
X2874937Y759562D01*
X2874084Y759825D01*
X2873166Y760153D01*
X2873035Y760218D01*
X2872772Y760350D01*
X2872313Y760546D01*
X2871788Y760874D01*
X2871132Y761268D01*
X2870411Y761727D01*
X2869689Y762317D01*
X2869033Y762973D01*
X2868968Y763039D01*
X2868771Y763302D01*
X2868443Y763695D01*
X2868049Y764154D01*
X2867590Y764810D01*
X2867131Y765532D01*
X2866671Y766385D01*
X2866278Y767303D01*
X2866212Y767434D01*
X2866147Y767762D01*
X2865950Y768287D01*
X2865819Y768943D01*
X2865622Y769796D01*
X2865425Y770780D01*
X2865360Y771830D01*
X2865294Y772945D01*
Y773535D01*
X2865360Y774257D01*
X2865425Y775110D01*
X2865556Y776093D01*
X2865819Y777143D01*
X2866081Y778193D01*
X2866475Y779242D01*
X2866540Y779374D01*
X2866737Y779702D01*
X2866999Y780161D01*
X2867393Y780751D01*
X2867852Y781473D01*
X2868443Y782194D01*
X2869099Y782916D01*
X2869820Y783638D01*
X2869952Y783703D01*
X2870214Y783900D01*
X2870673Y784228D01*
X2871264Y784621D01*
X2871985Y785015D01*
X2872838Y785409D01*
X2873756Y785868D01*
X2874806Y786196D01*
X2874872D01*
X2874937Y786261D01*
X2875265Y786327D01*
X2875856Y786458D01*
X2876577Y786590D01*
X2877495Y786786D01*
X2878479Y786918D01*
X2879595Y786983D01*
X2880710Y787049D01*
X2880776D01*
X2880907D01*
X2881235D01*
X2881563D01*
X2882022Y786983D01*
D02*
G37*
G36*
X2905638Y743097D02*
Y733978D01*
X2865950Y720727D01*
Y728796D01*
X2875200Y731551D01*
Y745524D01*
X2865950Y748345D01*
Y756413D01*
X2905638Y743097D01*
D02*
G37*
G36*
Y682089D02*
X2899209D01*
Y695405D01*
X2889238D01*
Y683335D01*
X2882875D01*
Y695405D01*
X2865950D01*
Y702949D01*
X2905638D01*
Y682089D01*
D02*
G37*
G36*
X2895535Y669165D02*
X2876052D01*
X2875987D01*
X2875856D01*
X2875593Y669100D01*
X2875331D01*
X2874609Y668903D01*
X2873756Y668510D01*
X2873297Y668247D01*
X2872838Y667919D01*
X2872444Y667525D01*
X2872116Y667001D01*
X2871854Y666476D01*
X2871591Y665754D01*
X2871460Y665033D01*
X2871395Y664114D01*
Y663261D01*
X2871460Y662474D01*
X2871591Y661621D01*
Y661556D01*
X2871657Y661425D01*
Y661228D01*
X2871723Y660966D01*
X2871854Y660375D01*
X2872051Y659785D01*
X2895535D01*
Y652306D01*
X2867393D01*
Y652372D01*
X2867327Y652503D01*
X2867262Y652700D01*
X2867131Y652962D01*
X2866868Y653750D01*
X2866540Y654668D01*
Y654734D01*
X2866475Y654865D01*
X2866409Y655193D01*
X2866343Y655521D01*
X2866212Y655914D01*
X2866081Y656439D01*
X2865884Y657554D01*
Y657620D01*
X2865819Y657817D01*
Y658145D01*
X2865753Y658538D01*
X2865688Y658997D01*
X2865622Y659522D01*
X2865491Y660769D01*
Y661031D01*
X2865425Y661359D01*
Y661818D01*
X2865360Y662278D01*
Y662868D01*
X2865294Y664114D01*
Y664705D01*
X2865360Y665098D01*
Y665623D01*
X2865425Y666213D01*
X2865622Y667591D01*
X2865950Y669100D01*
X2866343Y670674D01*
X2866999Y672117D01*
X2867393Y672774D01*
X2867852Y673429D01*
Y673495D01*
X2867983Y673561D01*
X2868377Y673889D01*
X2868640Y674151D01*
X2868968Y674413D01*
X2869361Y674676D01*
X2869886Y675004D01*
X2870411Y675266D01*
X2871001Y675594D01*
X2871723Y675857D01*
X2872444Y676053D01*
X2873297Y676316D01*
X2874215Y676447D01*
X2875200Y676513D01*
X2876249Y676578D01*
X2895535D01*
Y669165D01*
D02*
G37*
G36*
X2873100Y644894D02*
X2873035Y644828D01*
X2872969Y644631D01*
X2872838Y644303D01*
X2872641Y643909D01*
X2872444Y643385D01*
X2872182Y642794D01*
X2871723Y641482D01*
Y641417D01*
X2871657Y641154D01*
X2871591Y640761D01*
X2871460Y640302D01*
X2871395Y639777D01*
X2871264Y639186D01*
X2871198Y637940D01*
Y637612D01*
X2871264Y637218D01*
X2871329Y636759D01*
X2871591Y635710D01*
X2871788Y635185D01*
X2872051Y634726D01*
X2872116Y634660D01*
X2872247Y634529D01*
X2872444Y634332D01*
X2872707Y634069D01*
X2873035Y633873D01*
X2873428Y633676D01*
X2873887Y633545D01*
X2874412Y633479D01*
X2874478D01*
X2874675D01*
X2875003Y633545D01*
X2875331Y633610D01*
X2875724Y633807D01*
X2876184Y634004D01*
X2876577Y634332D01*
X2876905Y634791D01*
X2876971Y634857D01*
X2877036Y635053D01*
X2877233Y635316D01*
X2877430Y635710D01*
X2877692Y636169D01*
X2877955Y636693D01*
X2878217Y637350D01*
X2878479Y638071D01*
Y638137D01*
X2878545Y638333D01*
X2878676Y638596D01*
X2878807Y638990D01*
X2879004Y639449D01*
X2879201Y639908D01*
X2879660Y641023D01*
Y641089D01*
X2879791Y641285D01*
X2879923Y641548D01*
X2880119Y641876D01*
X2880644Y642794D01*
X2881300Y643713D01*
X2881366Y643778D01*
X2881497Y643909D01*
X2881694Y644172D01*
X2881956Y644434D01*
X2882350Y644762D01*
X2882744Y645090D01*
X2883727Y645746D01*
X2883793D01*
X2883990Y645878D01*
X2884318Y646009D01*
X2884777Y646140D01*
X2885302Y646271D01*
X2885958Y646402D01*
X2886680Y646468D01*
X2887467Y646534D01*
X2887532D01*
X2887664D01*
X2887860D01*
X2888123Y646468D01*
X2888844Y646402D01*
X2889763Y646206D01*
X2890747Y645812D01*
X2891796Y645353D01*
X2892846Y644631D01*
X2893305Y644237D01*
X2893764Y643713D01*
Y643647D01*
X2893896Y643582D01*
X2894158Y643188D01*
X2894552Y642532D01*
X2895011Y641614D01*
X2895404Y640498D01*
X2895798Y639121D01*
X2896060Y637481D01*
X2896191Y635644D01*
Y634726D01*
X2896126Y634069D01*
X2896060Y633348D01*
X2895995Y632561D01*
X2895667Y630789D01*
Y630658D01*
X2895601Y630396D01*
X2895470Y629937D01*
X2895273Y629346D01*
X2895011Y628690D01*
X2894748Y627969D01*
X2894027Y626525D01*
X2888910Y628822D01*
X2888976Y628887D01*
X2889041Y629018D01*
X2889172Y629346D01*
X2889369Y629674D01*
X2889566Y630068D01*
X2889763Y630593D01*
X2890156Y631642D01*
Y631708D01*
X2890222Y631905D01*
X2890287Y632233D01*
X2890419Y632561D01*
X2890484Y633086D01*
X2890550Y633545D01*
X2890615Y634726D01*
Y635053D01*
X2890550Y635381D01*
X2890484Y635841D01*
X2890222Y636825D01*
X2890025Y637350D01*
X2889697Y637809D01*
X2889631Y637874D01*
X2889566Y637940D01*
X2889369Y638137D01*
X2889107Y638333D01*
X2888451Y638662D01*
X2887992Y638793D01*
X2887532Y638858D01*
X2887467D01*
X2887401D01*
X2887008Y638793D01*
X2886483Y638662D01*
X2885958Y638465D01*
X2885892Y638399D01*
X2885630Y638202D01*
X2885236Y637874D01*
X2884908Y637415D01*
X2884843Y637284D01*
X2884646Y636956D01*
X2884383Y636497D01*
X2884055Y635972D01*
Y635906D01*
X2883990Y635841D01*
X2883859Y635447D01*
X2883662Y634922D01*
X2883465Y634266D01*
Y634201D01*
X2883334Y634004D01*
X2883268Y633741D01*
X2883072Y633348D01*
X2882875Y632889D01*
X2882678Y632429D01*
X2882219Y631314D01*
Y631249D01*
X2882088Y631052D01*
X2881956Y630789D01*
X2881825Y630396D01*
X2881300Y629543D01*
X2880579Y628559D01*
X2880513Y628494D01*
X2880382Y628362D01*
X2880185Y628100D01*
X2879923Y627837D01*
X2879529Y627510D01*
X2879135Y627182D01*
X2878086Y626525D01*
X2878020Y626460D01*
X2877823Y626394D01*
X2877495Y626263D01*
X2877102Y626132D01*
X2876577Y626001D01*
X2875921Y625870D01*
X2875200Y625738D01*
X2874412D01*
X2874347D01*
X2874215D01*
X2874019D01*
X2873756Y625804D01*
X2872969Y625870D01*
X2872051Y626132D01*
X2871001Y626460D01*
X2869886Y626985D01*
X2868771Y627772D01*
X2868246Y628231D01*
X2867787Y628756D01*
Y628822D01*
X2867655Y628887D01*
X2867590Y629084D01*
X2867393Y629346D01*
X2867196Y629609D01*
X2866999Y630002D01*
X2866803Y630462D01*
X2866540Y630986D01*
X2866278Y631577D01*
X2866081Y632298D01*
X2865884Y633020D01*
X2865688Y633807D01*
X2865556Y634726D01*
X2865425Y635644D01*
X2865294Y636628D01*
Y638727D01*
X2865360Y639383D01*
X2865425Y640105D01*
X2865491Y640957D01*
X2865819Y642794D01*
Y642926D01*
X2865950Y643188D01*
X2866015Y643647D01*
X2866212Y644237D01*
X2866409Y644959D01*
X2866737Y645681D01*
X2867393Y647321D01*
X2873100Y644894D01*
D02*
G37*
G36*
X2881956Y621212D02*
X2882744Y621146D01*
X2883727Y621081D01*
X2884777Y620884D01*
X2885892Y620687D01*
X2886942Y620359D01*
X2887008D01*
X2887073Y620293D01*
X2887401Y620162D01*
X2887992Y619966D01*
X2888648Y619703D01*
X2889435Y619309D01*
X2890222Y618850D01*
X2891075Y618260D01*
X2891862Y617669D01*
X2891927Y617604D01*
X2892190Y617341D01*
X2892584Y616948D01*
X2893043Y616489D01*
X2893502Y615833D01*
X2894027Y615111D01*
X2894552Y614258D01*
X2895011Y613340D01*
X2895076Y613209D01*
X2895207Y612881D01*
X2895404Y612356D01*
X2895601Y611634D01*
X2895798Y610782D01*
X2895995Y609798D01*
X2896126Y608748D01*
X2896191Y607567D01*
Y607042D01*
X2896126Y606452D01*
X2896060Y605730D01*
X2895929Y604878D01*
X2895798Y603959D01*
X2895535Y603041D01*
X2895207Y602122D01*
X2895142Y601991D01*
X2895011Y601729D01*
X2894814Y601269D01*
X2894486Y600745D01*
X2894092Y600089D01*
X2893633Y599433D01*
X2893108Y598777D01*
X2892452Y598186D01*
X2892387Y598121D01*
X2892124Y597924D01*
X2891731Y597596D01*
X2891271Y597268D01*
X2890615Y596874D01*
X2889894Y596415D01*
X2889107Y596021D01*
X2888188Y595693D01*
X2888057Y595628D01*
X2887795Y595562D01*
X2887270Y595431D01*
X2886614Y595234D01*
X2885827Y595103D01*
X2884843Y594972D01*
X2883859Y594906D01*
X2882744Y594841D01*
X2881432D01*
X2881300D01*
X2881038D01*
X2880644Y594906D01*
X2880185Y594972D01*
X2877627Y613996D01*
X2877561D01*
X2877495D01*
X2877102Y613865D01*
X2876512Y613734D01*
X2875790Y613471D01*
X2875003Y613077D01*
X2874150Y612618D01*
X2873363Y612028D01*
X2872707Y611306D01*
X2872641Y611175D01*
X2872444Y610913D01*
X2872182Y610453D01*
X2871919Y609798D01*
X2871657Y609010D01*
X2871395Y608092D01*
X2871198Y606977D01*
X2871132Y605796D01*
Y604943D01*
X2871198Y604418D01*
X2871264Y603762D01*
X2871329Y602975D01*
X2871657Y601401D01*
Y601269D01*
X2871723Y601007D01*
X2871854Y600614D01*
X2872051Y600089D01*
X2872182Y599498D01*
X2872444Y598842D01*
X2872969Y597596D01*
X2867393Y595431D01*
X2867327Y595497D01*
X2867262Y595759D01*
X2867065Y596153D01*
X2866868Y596743D01*
X2866606Y597465D01*
X2866343Y598252D01*
X2866147Y599170D01*
X2865884Y600220D01*
Y600351D01*
X2865819Y600745D01*
X2865688Y601335D01*
X2865622Y602057D01*
X2865491Y602975D01*
X2865360Y604025D01*
X2865294Y605206D01*
Y606977D01*
X2865360Y607698D01*
X2865425Y608551D01*
X2865556Y609601D01*
X2865753Y610650D01*
X2866015Y611765D01*
X2866409Y612815D01*
X2866475Y612946D01*
X2866606Y613274D01*
X2866868Y613799D01*
X2867196Y614455D01*
X2867655Y615177D01*
X2868180Y615964D01*
X2868836Y616751D01*
X2869558Y617473D01*
X2869624Y617538D01*
X2869952Y617801D01*
X2870345Y618129D01*
X2870936Y618522D01*
X2871657Y618981D01*
X2872510Y619506D01*
X2873428Y619966D01*
X2874478Y620359D01*
X2874544D01*
X2874609Y620425D01*
X2875003Y620490D01*
X2875593Y620621D01*
X2876315Y620818D01*
X2877299Y621015D01*
X2878348Y621146D01*
X2879463Y621212D01*
X2880710Y621278D01*
X2880776D01*
X2880841D01*
X2881038D01*
X2881300D01*
X2881956Y621212D01*
D02*
G37*
G36*
X2696226Y503914D02*
X2696161Y503849D01*
X2695898Y503783D01*
X2695570Y503586D01*
X2695045Y503389D01*
X2694389Y503192D01*
X2693602Y502930D01*
X2692749Y502733D01*
X2691700Y502471D01*
X2691569D01*
X2691175Y502340D01*
X2690585Y502274D01*
X2689863Y502143D01*
X2688879Y502012D01*
X2687829Y501946D01*
X2686649Y501815D01*
X2684681D01*
X2684221Y501880D01*
X2683631Y501946D01*
X2682909Y502012D01*
X2682122Y502143D01*
X2681335Y502340D01*
X2679564Y502799D01*
X2678645Y503127D01*
X2677727Y503521D01*
X2676809Y503980D01*
X2675956Y504505D01*
X2675103Y505095D01*
X2674381Y505817D01*
X2674316Y505882D01*
X2674250Y506013D01*
X2674053Y506210D01*
X2673791Y506538D01*
X2673529Y506997D01*
X2673201Y507457D01*
X2672873Y508047D01*
X2672545Y508703D01*
X2672151Y509490D01*
X2671823Y510343D01*
X2671495Y511261D01*
X2671233Y512245D01*
X2670970Y513295D01*
X2670773Y514476D01*
X2670708Y515722D01*
X2670642Y517034D01*
Y517100D01*
Y517165D01*
Y517362D01*
Y517625D01*
X2670708Y518280D01*
X2670773Y519068D01*
X2670839Y520052D01*
X2671036Y521101D01*
X2671233Y522216D01*
X2671495Y523266D01*
Y523332D01*
X2671561Y523397D01*
X2671626Y523725D01*
X2671889Y524250D01*
X2672151Y524906D01*
X2672545Y525693D01*
X2672938Y526481D01*
X2673529Y527268D01*
X2674119Y528055D01*
X2674185Y528120D01*
X2674447Y528383D01*
X2674841Y528777D01*
X2675300Y529236D01*
X2675956Y529695D01*
X2676677Y530220D01*
X2677530Y530745D01*
X2678449Y531204D01*
X2678580Y531269D01*
X2678908Y531400D01*
X2679433Y531532D01*
X2680220Y531794D01*
X2681073Y531991D01*
X2682122Y532122D01*
X2683237Y532253D01*
X2684484Y532319D01*
X2685205D01*
X2685927Y532253D01*
X2686780Y532122D01*
X2686977D01*
X2687173Y532057D01*
X2687436D01*
X2688092Y531925D01*
X2688682Y531729D01*
Y545570D01*
X2696226D01*
Y503914D01*
D02*
G37*
G36*
X2747460Y532647D02*
X2748181Y532581D01*
X2748378D01*
X2748772Y532516D01*
X2749297D01*
X2749887Y532450D01*
X2748509Y526218D01*
X2748444D01*
X2748247Y526284D01*
X2747985Y526349D01*
X2747525Y526481D01*
X2747066Y526546D01*
X2746476Y526612D01*
X2745885Y526677D01*
X2744508D01*
X2743852Y526612D01*
X2743130Y526481D01*
X2742999D01*
X2742540Y526349D01*
X2742015Y526218D01*
X2741425Y526021D01*
Y502471D01*
X2734012D01*
Y530548D01*
X2734143Y530613D01*
X2734405Y530679D01*
X2734930Y530876D01*
X2735521Y531072D01*
X2736308Y531335D01*
X2737226Y531597D01*
X2738210Y531794D01*
X2739325Y532057D01*
X2739457D01*
X2739850Y532188D01*
X2740506Y532253D01*
X2741359Y532385D01*
X2742343Y532516D01*
X2743458Y532581D01*
X2744770Y532712D01*
X2746738D01*
X2747460Y532647D01*
D02*
G37*
G36*
X2575719D02*
X2576441Y532581D01*
X2576637D01*
X2577031Y532516D01*
X2577556D01*
X2578146Y532450D01*
X2576769Y526218D01*
X2576703D01*
X2576506Y526284D01*
X2576244Y526349D01*
X2575785Y526481D01*
X2575325Y526546D01*
X2574735Y526612D01*
X2574145Y526677D01*
X2572767D01*
X2572111Y526612D01*
X2571389Y526480D01*
X2571258D01*
X2570799Y526349D01*
X2570274Y526218D01*
X2569684Y526021D01*
Y502471D01*
X2562271D01*
Y530548D01*
X2562402Y530613D01*
X2562665Y530679D01*
X2563189Y530876D01*
X2563780Y531072D01*
X2564567Y531335D01*
X2565485Y531597D01*
X2566469Y531794D01*
X2567585Y532056D01*
X2567716D01*
X2568109Y532188D01*
X2568765Y532253D01*
X2569618Y532384D01*
X2570602Y532516D01*
X2571717Y532581D01*
X2573029Y532712D01*
X2574997Y532712D01*
X2575719Y532647D01*
D02*
G37*
G36*
X2434220Y542815D02*
X2434810Y542749D01*
X2435532Y542684D01*
X2436319Y542618D01*
X2437172Y542421D01*
X2439009Y542028D01*
X2440911Y541437D01*
X2441829Y541044D01*
X2442682Y540584D01*
X2443535Y539994D01*
X2444322Y539404D01*
X2444388Y539338D01*
X2444519Y539272D01*
X2444716Y539076D01*
X2444913Y538748D01*
X2445241Y538420D01*
X2445569Y538026D01*
X2445897Y537501D01*
X2446290Y536911D01*
X2446684Y536320D01*
X2447012Y535599D01*
X2447668Y534024D01*
X2447865Y533106D01*
X2448061Y532188D01*
X2448193Y531138D01*
X2448258Y530088D01*
Y529957D01*
Y529629D01*
X2448193Y529104D01*
X2448127Y528448D01*
X2447996Y527661D01*
X2447865Y526874D01*
X2447602Y525956D01*
X2447274Y525103D01*
X2447209Y524972D01*
X2447077Y524709D01*
X2446881Y524316D01*
X2446553Y523725D01*
X2446093Y523135D01*
X2445634Y522479D01*
X2445044Y521757D01*
X2444322Y521101D01*
X2444257Y521036D01*
X2443994Y520839D01*
X2443535Y520511D01*
X2443010Y520183D01*
X2442289Y519789D01*
X2441436Y519330D01*
X2440517Y518936D01*
X2439468Y518543D01*
X2439337Y518477D01*
X2438943Y518412D01*
X2438353Y518280D01*
X2437565Y518084D01*
X2436581Y517887D01*
X2435401Y517756D01*
X2434089Y517690D01*
X2432711Y517624D01*
X2431465D01*
X2430677Y517690D01*
X2430546D01*
X2430087Y517756D01*
X2429562Y517821D01*
X2429037Y517887D01*
Y502471D01*
X2421493D01*
Y540716D01*
X2421625Y540781D01*
X2421887Y540912D01*
X2422346Y541044D01*
X2423002Y541306D01*
X2423789Y541503D01*
X2424642Y541765D01*
X2425626Y542028D01*
X2426676Y542290D01*
X2426807D01*
X2427201Y542356D01*
X2427791Y542487D01*
X2428578Y542618D01*
X2429497Y542684D01*
X2430546Y542815D01*
X2431727Y542880D01*
X2433695D01*
X2434220Y542815D01*
D02*
G37*
G36*
X2345201D02*
X2345791Y542749D01*
X2346513Y542684D01*
X2347300Y542618D01*
X2348153Y542421D01*
X2349989Y542028D01*
X2351892Y541437D01*
X2352810Y541044D01*
X2353663Y540584D01*
X2354516Y539994D01*
X2355303Y539404D01*
X2355369Y539338D01*
X2355500Y539272D01*
X2355697Y539076D01*
X2355893Y538748D01*
X2356221Y538420D01*
X2356549Y538026D01*
X2356877Y537501D01*
X2357271Y536911D01*
X2357665Y536320D01*
X2357993Y535599D01*
X2358649Y534024D01*
X2358845Y533106D01*
X2359042Y532188D01*
X2359173Y531138D01*
X2359239Y530088D01*
Y529957D01*
Y529629D01*
X2359173Y529104D01*
X2359108Y528448D01*
X2358977Y527661D01*
X2358845Y526874D01*
X2358583Y525956D01*
X2358255Y525103D01*
X2358189Y524972D01*
X2358058Y524709D01*
X2357861Y524316D01*
X2357533Y523725D01*
X2357074Y523135D01*
X2356615Y522479D01*
X2356025Y521757D01*
X2355303Y521101D01*
X2355237Y521036D01*
X2354975Y520839D01*
X2354516Y520511D01*
X2353991Y520183D01*
X2353269Y519789D01*
X2352417Y519330D01*
X2351498Y518936D01*
X2350449Y518543D01*
X2350317Y518477D01*
X2349924Y518412D01*
X2349333Y518280D01*
X2348546Y518084D01*
X2347562Y517887D01*
X2346381Y517756D01*
X2345069Y517690D01*
X2343692Y517624D01*
X2342445D01*
X2341658Y517690D01*
X2341527D01*
X2341068Y517756D01*
X2340543Y517821D01*
X2340018Y517887D01*
Y502471D01*
X2332474D01*
Y540716D01*
X2332605Y540781D01*
X2332868Y540912D01*
X2333327Y541044D01*
X2333983Y541306D01*
X2334770Y541503D01*
X2335623Y541765D01*
X2336607Y542028D01*
X2337657Y542290D01*
X2337788D01*
X2338181Y542356D01*
X2338772Y542487D01*
X2339559Y542618D01*
X2340477Y542684D01*
X2341527Y542815D01*
X2342708Y542880D01*
X2344676D01*
X2345201Y542815D01*
D02*
G37*
G36*
X2414671Y517100D02*
X2398927D01*
Y523463D01*
X2414671D01*
Y517100D01*
D02*
G37*
G36*
X2785901Y502471D02*
X2777701D01*
X2765500Y542159D01*
X2773897D01*
X2780588Y516312D01*
Y516247D01*
X2780653Y516181D01*
X2780719Y515788D01*
X2780850Y515263D01*
X2780981Y514607D01*
Y514541D01*
X2781047Y514476D01*
X2781113Y514082D01*
X2781178Y513557D01*
X2781309Y512967D01*
Y512901D01*
Y512836D01*
X2781375Y512508D01*
X2781441Y512048D01*
X2781506Y511524D01*
Y511458D01*
X2781572Y511196D01*
X2781637Y510868D01*
X2781703Y510605D01*
X2781834D01*
Y510671D01*
Y510736D01*
X2781900Y510868D01*
X2781965Y511130D01*
Y511458D01*
X2782031Y511852D01*
X2782162Y512311D01*
X2782228Y512836D01*
Y512901D01*
X2782293Y513098D01*
X2782359Y513426D01*
X2782425Y513885D01*
X2782556Y514410D01*
X2782687Y515000D01*
X2783015Y516312D01*
X2789706Y542159D01*
X2798103D01*
X2785901Y502471D01*
D02*
G37*
G36*
X2517925Y502471D02*
X2510185D01*
X2505593Y519264D01*
Y519330D01*
X2505527Y519527D01*
X2505461Y519855D01*
X2505330Y520183D01*
X2505133Y521101D01*
X2504937Y522085D01*
Y522151D01*
Y522282D01*
X2504871Y522479D01*
Y522741D01*
X2504805Y523332D01*
Y523528D01*
Y523725D01*
X2504674D01*
Y523594D01*
X2504609Y523266D01*
X2504477Y522676D01*
X2504346Y521888D01*
Y521823D01*
X2504281Y521692D01*
Y521429D01*
X2504215Y521101D01*
X2504149Y520708D01*
X2504018Y520314D01*
X2503756Y519264D01*
X2499229Y502471D01*
X2491489D01*
X2482895Y532056D01*
X2490373D01*
X2494637Y513885D01*
Y513820D01*
X2494703Y513623D01*
X2494769Y513360D01*
X2494834Y513032D01*
X2494900Y512573D01*
X2495031Y512114D01*
X2495162Y510999D01*
Y510933D01*
X2495228Y510736D01*
Y510474D01*
X2495293Y510212D01*
X2495359Y509556D01*
Y509293D01*
Y509096D01*
X2495490D01*
Y509162D01*
X2495556Y509490D01*
X2495621Y509687D01*
X2495687Y510015D01*
X2495753Y510408D01*
X2495818Y510868D01*
Y510933D01*
X2495884Y511130D01*
Y511392D01*
X2495949Y511786D01*
X2496081Y512180D01*
X2496212Y512704D01*
X2496474Y513885D01*
X2501263Y532056D01*
X2508151D01*
X2512874Y513885D01*
Y513820D01*
X2512940Y513623D01*
X2513005Y513295D01*
X2513137Y512901D01*
X2513333Y511917D01*
X2513530Y510868D01*
Y510802D01*
X2513596Y510671D01*
Y510408D01*
X2513661Y510146D01*
X2513793Y509556D01*
X2513858Y509293D01*
X2513924Y509096D01*
X2513989D01*
Y509162D01*
X2514055Y509490D01*
Y509687D01*
X2514121Y510015D01*
Y510408D01*
X2514186Y510868D01*
Y510933D01*
X2514252Y511130D01*
Y511392D01*
X2514317Y511786D01*
X2514449Y512180D01*
X2514514Y512704D01*
X2514777Y513885D01*
X2518975Y532056D01*
X2526519D01*
X2517925Y502471D01*
D02*
G37*
G36*
X2870525Y502471D02*
X2862916D01*
Y533762D01*
X2862850D01*
X2862785Y533697D01*
X2862588Y533565D01*
X2862325Y533434D01*
X2861604Y533106D01*
X2860685Y532712D01*
X2860620D01*
X2860489Y532647D01*
X2860226Y532516D01*
X2859833Y532385D01*
X2859439Y532253D01*
X2858980Y532122D01*
X2857930Y531794D01*
X2857865D01*
X2857668Y531729D01*
X2857405Y531663D01*
X2857077Y531532D01*
X2856618Y531466D01*
X2856159Y531335D01*
X2855044Y531072D01*
X2854978D01*
X2854781Y531007D01*
X2854519Y530941D01*
X2854125Y530876D01*
X2853207Y530679D01*
X2852157Y530482D01*
X2851042Y536189D01*
X2851108D01*
X2851370Y536255D01*
X2851764Y536321D01*
X2852289Y536452D01*
X2852879Y536517D01*
X2853535Y536714D01*
X2854978Y537042D01*
X2855044D01*
X2855306Y537173D01*
X2855700Y537239D01*
X2856225Y537436D01*
X2856815Y537633D01*
X2857471Y537829D01*
X2858783Y538354D01*
X2858849Y538420D01*
X2859111Y538485D01*
X2859439Y538682D01*
X2859833Y538879D01*
X2860357Y539141D01*
X2860948Y539404D01*
X2862063Y540125D01*
X2862129Y540191D01*
X2862325Y540322D01*
X2862588Y540519D01*
X2862916Y540781D01*
X2863769Y541372D01*
X2864556Y542159D01*
X2870525D01*
Y502471D01*
D02*
G37*
G36*
X2813716Y542815D02*
X2814372D01*
X2815028Y542684D01*
X2815815Y542618D01*
X2816668Y542487D01*
X2818439Y542093D01*
X2820276Y541503D01*
X2821129Y541175D01*
X2821981Y540716D01*
X2822834Y540256D01*
X2823556Y539666D01*
X2823621Y539601D01*
X2823753Y539535D01*
X2823884Y539338D01*
X2824146Y539076D01*
X2824409Y538748D01*
X2824737Y538354D01*
X2825130Y537895D01*
X2825458Y537370D01*
X2826180Y536124D01*
X2826770Y534615D01*
X2827033Y533762D01*
X2827229Y532844D01*
X2827295Y531925D01*
X2827361Y530876D01*
Y530810D01*
Y530613D01*
Y530285D01*
X2827295Y529892D01*
X2827229Y529433D01*
X2827164Y528908D01*
X2826901Y527793D01*
Y527727D01*
X2826836Y527530D01*
X2826770Y527268D01*
X2826639Y526874D01*
X2826245Y526021D01*
X2825786Y524972D01*
Y524906D01*
X2825655Y524775D01*
X2825524Y524513D01*
X2825327Y524184D01*
X2824802Y523397D01*
X2824146Y522479D01*
X2824081Y522413D01*
X2824015Y522282D01*
X2823818Y522085D01*
X2823621Y521757D01*
X2823031Y521101D01*
X2822375Y520314D01*
X2812010Y508637D01*
X2828148D01*
Y502471D01*
X2799349D01*
X2816340Y523660D01*
X2816405Y523725D01*
X2816537Y523922D01*
X2816799Y524250D01*
X2817061Y524644D01*
X2817389Y525168D01*
X2817783Y525693D01*
X2818505Y526874D01*
X2818570Y526940D01*
X2818636Y527202D01*
X2818833Y527530D01*
X2819029Y527989D01*
X2819161Y528514D01*
X2819357Y529105D01*
X2819423Y529760D01*
X2819489Y530482D01*
Y530613D01*
Y530941D01*
X2819357Y531466D01*
X2819226Y532057D01*
X2819029Y532778D01*
X2818636Y533500D01*
X2818177Y534221D01*
X2817521Y534877D01*
X2817455Y534943D01*
X2817127Y535140D01*
X2816733Y535402D01*
X2816077Y535730D01*
X2815290Y536058D01*
X2814306Y536321D01*
X2813191Y536517D01*
X2811879Y536583D01*
X2811092D01*
X2810567Y536517D01*
X2809977Y536452D01*
X2809255Y536386D01*
X2807615Y536124D01*
X2807549D01*
X2807221Y536058D01*
X2806828Y535927D01*
X2806237Y535796D01*
X2805647Y535599D01*
X2804925Y535402D01*
X2803482Y534877D01*
X2801317Y540716D01*
X2801449Y540781D01*
X2801777Y540913D01*
X2802236Y541109D01*
X2802957Y541306D01*
X2803745Y541568D01*
X2804663Y541831D01*
X2805647Y542093D01*
X2806697Y542290D01*
X2806828D01*
X2807221Y542356D01*
X2807746Y542487D01*
X2808533Y542618D01*
X2809386Y542684D01*
X2810370Y542815D01*
X2811420Y542880D01*
X2813257D01*
X2813716Y542815D01*
D02*
G37*
G36*
X2603993Y535730D02*
X2590676D01*
Y525759D01*
X2602746D01*
Y519396D01*
X2590676D01*
Y502471D01*
X2583132D01*
Y542159D01*
X2603993D01*
Y535730D01*
D02*
G37*
G36*
X2839628Y511327D02*
X2840218Y511261D01*
X2840874Y510999D01*
X2840940D01*
X2841005Y510933D01*
X2841399Y510736D01*
X2841858Y510409D01*
X2842383Y509949D01*
X2842514Y509818D01*
X2842777Y509556D01*
X2843105Y509096D01*
X2843367Y508506D01*
Y508440D01*
X2843433Y508375D01*
X2843564Y507981D01*
X2843695Y507391D01*
X2843761Y506669D01*
Y506604D01*
Y506473D01*
Y506341D01*
X2843695Y506079D01*
X2843629Y505488D01*
X2843367Y504832D01*
Y504767D01*
X2843301Y504701D01*
X2843105Y504308D01*
X2842842Y503849D01*
X2842383Y503324D01*
X2842252Y503258D01*
X2841924Y502996D01*
X2841465Y502668D01*
X2840874Y502405D01*
X2840809D01*
X2840743Y502340D01*
X2840349Y502209D01*
X2839759Y502077D01*
X2839037Y502012D01*
X2838709D01*
X2838447Y502077D01*
X2837857Y502209D01*
X2837201Y502405D01*
X2837135D01*
X2837069Y502471D01*
X2836676Y502668D01*
X2836217Y502930D01*
X2835692Y503324D01*
X2835626Y503455D01*
X2835364Y503783D01*
X2835036Y504242D01*
X2834708Y504832D01*
Y504898D01*
X2834642Y504964D01*
X2834511Y505357D01*
X2834380Y505948D01*
X2834314Y506669D01*
Y506735D01*
Y506866D01*
Y506997D01*
X2834380Y507260D01*
X2834511Y507850D01*
X2834708Y508506D01*
Y508572D01*
X2834773Y508637D01*
X2834970Y509031D01*
X2835298Y509490D01*
X2835692Y509949D01*
X2835823Y510080D01*
X2836151Y510343D01*
X2836610Y510671D01*
X2837201Y510999D01*
X2837266D01*
X2837332Y511065D01*
X2837725Y511196D01*
X2838316Y511327D01*
X2839037Y511392D01*
X2839365D01*
X2839628Y511327D01*
D02*
G37*
G36*
X2716693Y532647D02*
X2717415Y532581D01*
X2718268Y532450D01*
X2719186Y532319D01*
X2720105Y532057D01*
X2721023Y531729D01*
X2721154Y531663D01*
X2721417Y531532D01*
X2721876Y531335D01*
X2722401Y531007D01*
X2723057Y530613D01*
X2723713Y530154D01*
X2724369Y529629D01*
X2724959Y528973D01*
X2725025Y528908D01*
X2725221Y528645D01*
X2725549Y528252D01*
X2725877Y527793D01*
X2726271Y527136D01*
X2726730Y526415D01*
X2727124Y525628D01*
X2727452Y524709D01*
X2727517Y524578D01*
X2727583Y524316D01*
X2727714Y523791D01*
X2727911Y523135D01*
X2728042Y522348D01*
X2728173Y521364D01*
X2728239Y520380D01*
X2728305Y519264D01*
Y517952D01*
Y517821D01*
Y517559D01*
X2728239Y517165D01*
X2728173Y516706D01*
X2709149Y514148D01*
Y514082D01*
Y514016D01*
X2709281Y513623D01*
X2709412Y513033D01*
X2709674Y512311D01*
X2710068Y511524D01*
X2710527Y510671D01*
X2711117Y509884D01*
X2711839Y509228D01*
X2711970Y509162D01*
X2712233Y508965D01*
X2712692Y508703D01*
X2713348Y508440D01*
X2714135Y508178D01*
X2715053Y507916D01*
X2716169Y507719D01*
X2717349Y507653D01*
X2718202D01*
X2718727Y507719D01*
X2719383Y507784D01*
X2720170Y507850D01*
X2721745Y508178D01*
X2721876D01*
X2722138Y508244D01*
X2722532Y508375D01*
X2723057Y508572D01*
X2723647Y508703D01*
X2724303Y508965D01*
X2725549Y509490D01*
X2727714Y503914D01*
X2727649Y503849D01*
X2727386Y503783D01*
X2726993Y503586D01*
X2726402Y503389D01*
X2725681Y503127D01*
X2724893Y502865D01*
X2723975Y502668D01*
X2722925Y502405D01*
X2722794D01*
X2722401Y502340D01*
X2721810Y502209D01*
X2721089Y502143D01*
X2720170Y502012D01*
X2719121Y501880D01*
X2717940Y501815D01*
X2716169D01*
X2715447Y501880D01*
X2714594Y501946D01*
X2713545Y502077D01*
X2712495Y502274D01*
X2711380Y502536D01*
X2710330Y502930D01*
X2710199Y502996D01*
X2709871Y503127D01*
X2709346Y503389D01*
X2708690Y503717D01*
X2707969Y504176D01*
X2707181Y504701D01*
X2706394Y505357D01*
X2705673Y506079D01*
X2705607Y506144D01*
X2705345Y506473D01*
X2705017Y506866D01*
X2704623Y507457D01*
X2704164Y508178D01*
X2703639Y509031D01*
X2703180Y509949D01*
X2702786Y510999D01*
Y511065D01*
X2702721Y511130D01*
X2702655Y511524D01*
X2702524Y512114D01*
X2702327Y512836D01*
X2702130Y513820D01*
X2701999Y514869D01*
X2701933Y515985D01*
X2701868Y517231D01*
Y517297D01*
Y517362D01*
Y517559D01*
Y517821D01*
X2701933Y518477D01*
X2701999Y519264D01*
X2702065Y520249D01*
X2702261Y521298D01*
X2702458Y522413D01*
X2702786Y523463D01*
Y523529D01*
X2702852Y523594D01*
X2702983Y523922D01*
X2703180Y524513D01*
X2703442Y525168D01*
X2703836Y525956D01*
X2704295Y526743D01*
X2704885Y527596D01*
X2705476Y528383D01*
X2705541Y528448D01*
X2705804Y528711D01*
X2706197Y529105D01*
X2706657Y529564D01*
X2707313Y530023D01*
X2708034Y530548D01*
X2708887Y531072D01*
X2709805Y531532D01*
X2709937Y531597D01*
X2710265Y531729D01*
X2710789Y531925D01*
X2711511Y532122D01*
X2712364Y532319D01*
X2713348Y532516D01*
X2714397Y532647D01*
X2715578Y532712D01*
X2716103D01*
X2716693Y532647D01*
D02*
G37*
G36*
X2654373D02*
X2655095Y532581D01*
X2655948Y532450D01*
X2656866Y532319D01*
X2657785Y532057D01*
X2658703Y531729D01*
X2658834Y531663D01*
X2659097Y531532D01*
X2659556Y531335D01*
X2660081Y531007D01*
X2660737Y530613D01*
X2661393Y530154D01*
X2662049Y529629D01*
X2662639Y528973D01*
X2662705Y528908D01*
X2662901Y528645D01*
X2663229Y528252D01*
X2663557Y527793D01*
X2663951Y527136D01*
X2664410Y526415D01*
X2664804Y525628D01*
X2665132Y524709D01*
X2665197Y524578D01*
X2665263Y524316D01*
X2665394Y523791D01*
X2665591Y523135D01*
X2665722Y522348D01*
X2665853Y521364D01*
X2665919Y520380D01*
X2665985Y519264D01*
Y517952D01*
Y517821D01*
Y517559D01*
X2665919Y517165D01*
X2665853Y516706D01*
X2646829Y514148D01*
Y514082D01*
Y514016D01*
X2646961Y513623D01*
X2647092Y513033D01*
X2647354Y512311D01*
X2647748Y511524D01*
X2648207Y510671D01*
X2648797Y509884D01*
X2649519Y509228D01*
X2649650Y509162D01*
X2649913Y508965D01*
X2650372Y508703D01*
X2651028Y508440D01*
X2651815Y508178D01*
X2652733Y507916D01*
X2653849Y507719D01*
X2655029Y507653D01*
X2655882D01*
X2656407Y507719D01*
X2657063Y507784D01*
X2657850Y507850D01*
X2659425Y508178D01*
X2659556D01*
X2659818Y508244D01*
X2660212Y508375D01*
X2660737Y508572D01*
X2661327Y508703D01*
X2661983Y508965D01*
X2663229Y509490D01*
X2665394Y503914D01*
X2665329Y503849D01*
X2665066Y503783D01*
X2664673Y503586D01*
X2664082Y503389D01*
X2663361Y503127D01*
X2662573Y502865D01*
X2661655Y502668D01*
X2660605Y502405D01*
X2660474D01*
X2660081Y502340D01*
X2659490Y502209D01*
X2658769Y502143D01*
X2657850Y502012D01*
X2656801Y501880D01*
X2655620Y501815D01*
X2653849D01*
X2653127Y501880D01*
X2652274Y501946D01*
X2651225Y502077D01*
X2650175Y502274D01*
X2649060Y502536D01*
X2648010Y502930D01*
X2647879Y502996D01*
X2647551Y503127D01*
X2647026Y503389D01*
X2646370Y503717D01*
X2645649Y504176D01*
X2644861Y504701D01*
X2644074Y505357D01*
X2643353Y506079D01*
X2643287Y506144D01*
X2643025Y506473D01*
X2642697Y506866D01*
X2642303Y507457D01*
X2641844Y508178D01*
X2641319Y509031D01*
X2640860Y509949D01*
X2640466Y510999D01*
Y511065D01*
X2640401Y511130D01*
X2640335Y511524D01*
X2640204Y512114D01*
X2640007Y512836D01*
X2639810Y513820D01*
X2639679Y514869D01*
X2639613Y515985D01*
X2639548Y517231D01*
Y517297D01*
Y517362D01*
Y517559D01*
Y517821D01*
X2639613Y518477D01*
X2639679Y519264D01*
X2639745Y520249D01*
X2639941Y521298D01*
X2640138Y522413D01*
X2640466Y523463D01*
Y523529D01*
X2640532Y523594D01*
X2640663Y523922D01*
X2640860Y524513D01*
X2641122Y525168D01*
X2641516Y525956D01*
X2641975Y526743D01*
X2642565Y527596D01*
X2643156Y528383D01*
X2643221Y528448D01*
X2643484Y528711D01*
X2643877Y529105D01*
X2644337Y529564D01*
X2644993Y530023D01*
X2645714Y530548D01*
X2646567Y531072D01*
X2647485Y531532D01*
X2647617Y531597D01*
X2647945Y531729D01*
X2648469Y531925D01*
X2649191Y532122D01*
X2650044Y532319D01*
X2651028Y532516D01*
X2652077Y532647D01*
X2653258Y532712D01*
X2653783D01*
X2654373Y532647D01*
D02*
G37*
G36*
X2623279D02*
X2624001Y532581D01*
X2624853Y532450D01*
X2625772Y532319D01*
X2626690Y532057D01*
X2627609Y531729D01*
X2627740Y531663D01*
X2628002Y531532D01*
X2628461Y531335D01*
X2628986Y531007D01*
X2629642Y530613D01*
X2630298Y530154D01*
X2630954Y529629D01*
X2631545Y528973D01*
X2631610Y528908D01*
X2631807Y528645D01*
X2632135Y528252D01*
X2632463Y527793D01*
X2632857Y527136D01*
X2633316Y526415D01*
X2633709Y525628D01*
X2634037Y524709D01*
X2634103Y524578D01*
X2634169Y524316D01*
X2634300Y523791D01*
X2634497Y523135D01*
X2634628Y522348D01*
X2634759Y521364D01*
X2634825Y520380D01*
X2634890Y519264D01*
Y517952D01*
Y517821D01*
Y517559D01*
X2634825Y517165D01*
X2634759Y516706D01*
X2615735Y514148D01*
Y514082D01*
Y514016D01*
X2615866Y513623D01*
X2615997Y513033D01*
X2616260Y512311D01*
X2616653Y511524D01*
X2617113Y510671D01*
X2617703Y509884D01*
X2618425Y509228D01*
X2618556Y509162D01*
X2618818Y508965D01*
X2619277Y508703D01*
X2619933Y508440D01*
X2620721Y508178D01*
X2621639Y507916D01*
X2622754Y507719D01*
X2623935Y507653D01*
X2624788D01*
X2625313Y507719D01*
X2625969Y507784D01*
X2626756Y507850D01*
X2628330Y508178D01*
X2628461D01*
X2628724Y508244D01*
X2629117Y508375D01*
X2629642Y508572D01*
X2630233Y508703D01*
X2630889Y508965D01*
X2632135Y509490D01*
X2634300Y503914D01*
X2634234Y503849D01*
X2633972Y503783D01*
X2633578Y503586D01*
X2632988Y503389D01*
X2632266Y503127D01*
X2631479Y502865D01*
X2630561Y502668D01*
X2629511Y502405D01*
X2629380D01*
X2628986Y502340D01*
X2628396Y502209D01*
X2627674Y502143D01*
X2626756Y502012D01*
X2625706Y501880D01*
X2624525Y501815D01*
X2622754D01*
X2622033Y501880D01*
X2621180Y501946D01*
X2620130Y502077D01*
X2619081Y502274D01*
X2617965Y502536D01*
X2616916Y502930D01*
X2616785Y502996D01*
X2616457Y503127D01*
X2615932Y503389D01*
X2615276Y503717D01*
X2614554Y504176D01*
X2613767Y504701D01*
X2612980Y505357D01*
X2612258Y506079D01*
X2612193Y506144D01*
X2611930Y506473D01*
X2611602Y506866D01*
X2611209Y507457D01*
X2610749Y508178D01*
X2610225Y509031D01*
X2609765Y509949D01*
X2609372Y510999D01*
Y511065D01*
X2609306Y511130D01*
X2609241Y511524D01*
X2609109Y512114D01*
X2608913Y512836D01*
X2608716Y513820D01*
X2608585Y514869D01*
X2608519Y515985D01*
X2608453Y517231D01*
Y517297D01*
Y517362D01*
Y517559D01*
Y517821D01*
X2608519Y518477D01*
X2608585Y519264D01*
X2608650Y520249D01*
X2608847Y521298D01*
X2609044Y522413D01*
X2609372Y523463D01*
Y523529D01*
X2609437Y523594D01*
X2609569Y523922D01*
X2609765Y524513D01*
X2610028Y525168D01*
X2610421Y525956D01*
X2610881Y526743D01*
X2611471Y527596D01*
X2612061Y528383D01*
X2612127Y528448D01*
X2612389Y528711D01*
X2612783Y529105D01*
X2613242Y529564D01*
X2613898Y530023D01*
X2614620Y530548D01*
X2615473Y531072D01*
X2616391Y531532D01*
X2616522Y531597D01*
X2616850Y531729D01*
X2617375Y531925D01*
X2618097Y532122D01*
X2618949Y532319D01*
X2619933Y532516D01*
X2620983Y532647D01*
X2622164Y532712D01*
X2622689D01*
X2623279Y532647D01*
D02*
G37*
G36*
X2544953Y532647D02*
X2545674Y532581D01*
X2546527Y532450D01*
X2547445Y532319D01*
X2548364Y532056D01*
X2549282Y531728D01*
X2549413Y531663D01*
X2549676Y531532D01*
X2550135Y531335D01*
X2550660Y531007D01*
X2551316Y530613D01*
X2551972Y530154D01*
X2552628Y529629D01*
X2553218Y528973D01*
X2553284Y528908D01*
X2553481Y528645D01*
X2553809Y528252D01*
X2554137Y527792D01*
X2554530Y527136D01*
X2554989Y526415D01*
X2555383Y525628D01*
X2555711Y524709D01*
X2555777Y524578D01*
X2555842Y524316D01*
X2555973Y523791D01*
X2556170Y523135D01*
X2556301Y522348D01*
X2556433Y521364D01*
X2556498Y520380D01*
X2556564Y519264D01*
Y517952D01*
Y517821D01*
Y517559D01*
X2556498Y517165D01*
X2556433Y516706D01*
X2537409Y514148D01*
Y514082D01*
Y514016D01*
X2537540Y513623D01*
X2537671Y513032D01*
X2537933Y512311D01*
X2538327Y511524D01*
X2538786Y510671D01*
X2539377Y509884D01*
X2540098Y509228D01*
X2540229Y509162D01*
X2540492Y508965D01*
X2540951Y508703D01*
X2541607Y508440D01*
X2542394Y508178D01*
X2543313Y507916D01*
X2544428Y507719D01*
X2545609Y507653D01*
X2546461D01*
X2546986Y507719D01*
X2547642Y507784D01*
X2548429Y507850D01*
X2550004Y508178D01*
X2550135D01*
X2550397Y508244D01*
X2550791Y508375D01*
X2551316Y508572D01*
X2551906Y508703D01*
X2552562Y508965D01*
X2553809Y509490D01*
X2555973Y503914D01*
X2555908Y503848D01*
X2555645Y503783D01*
X2555252Y503586D01*
X2554661Y503389D01*
X2553940Y503127D01*
X2553153Y502864D01*
X2552234Y502668D01*
X2551185Y502405D01*
X2551053D01*
X2550660Y502340D01*
X2550069Y502208D01*
X2549348Y502143D01*
X2548429Y502012D01*
X2547380Y501880D01*
X2546199Y501815D01*
X2544428D01*
X2543706Y501880D01*
X2542853Y501946D01*
X2541804Y502077D01*
X2540754Y502274D01*
X2539639Y502536D01*
X2538589Y502930D01*
X2538458Y502996D01*
X2538130Y503127D01*
X2537605Y503389D01*
X2536949Y503717D01*
X2536228Y504176D01*
X2535441Y504701D01*
X2534653Y505357D01*
X2533932Y506079D01*
X2533866Y506144D01*
X2533604Y506472D01*
X2533276Y506866D01*
X2532882Y507456D01*
X2532423Y508178D01*
X2531898Y509031D01*
X2531439Y509949D01*
X2531045Y510999D01*
Y511064D01*
X2530980Y511130D01*
X2530914Y511524D01*
X2530783Y512114D01*
X2530586Y512836D01*
X2530389Y513820D01*
X2530258Y514869D01*
X2530193Y515984D01*
X2530127Y517231D01*
Y517296D01*
Y517362D01*
Y517559D01*
Y517821D01*
X2530193Y518477D01*
X2530258Y519264D01*
X2530324Y520248D01*
X2530521Y521298D01*
X2530717Y522413D01*
X2531045Y523463D01*
Y523528D01*
X2531111Y523594D01*
X2531242Y523922D01*
X2531439Y524512D01*
X2531701Y525168D01*
X2532095Y525956D01*
X2532554Y526743D01*
X2533145Y527596D01*
X2533735Y528383D01*
X2533801Y528448D01*
X2534063Y528711D01*
X2534457Y529104D01*
X2534916Y529564D01*
X2535572Y530023D01*
X2536293Y530548D01*
X2537146Y531072D01*
X2538065Y531532D01*
X2538196Y531597D01*
X2538524Y531728D01*
X2539049Y531925D01*
X2539770Y532122D01*
X2540623Y532319D01*
X2541607Y532516D01*
X2542657Y532647D01*
X2543837Y532712D01*
X2544362D01*
X2544953Y532647D01*
D02*
G37*
G36*
X2467020D02*
X2467741Y532581D01*
X2468660Y532450D01*
X2469578Y532188D01*
X2470562Y531925D01*
X2471546Y531532D01*
X2471677Y531466D01*
X2471940Y531335D01*
X2472399Y531072D01*
X2472989Y530679D01*
X2473645Y530220D01*
X2474367Y529629D01*
X2475089Y528973D01*
X2475745Y528252D01*
X2475810Y528186D01*
X2476007Y527924D01*
X2476335Y527464D01*
X2476729Y526874D01*
X2477122Y526152D01*
X2477516Y525365D01*
X2477975Y524447D01*
X2478303Y523397D01*
X2478369Y523266D01*
X2478434Y522938D01*
X2478565Y522348D01*
X2478762Y521560D01*
X2478959Y520642D01*
X2479090Y519592D01*
X2479156Y518477D01*
X2479221Y517231D01*
Y517165D01*
Y517100D01*
Y516903D01*
Y516706D01*
X2479156Y516050D01*
X2479090Y515263D01*
X2479025Y514279D01*
X2478828Y513229D01*
X2478631Y512180D01*
X2478303Y511064D01*
X2478237Y510933D01*
X2478172Y510605D01*
X2477975Y510080D01*
X2477647Y509424D01*
X2477319Y508637D01*
X2476860Y507784D01*
X2476335Y506932D01*
X2475745Y506144D01*
X2475679Y506079D01*
X2475417Y505816D01*
X2475089Y505423D01*
X2474564Y504964D01*
X2473973Y504439D01*
X2473252Y503914D01*
X2472465Y503389D01*
X2471546Y502930D01*
X2471415Y502864D01*
X2471087Y502733D01*
X2470562Y502602D01*
X2469906Y502405D01*
X2469053Y502143D01*
X2468069Y502012D01*
X2467020Y501880D01*
X2465839Y501815D01*
X2465314D01*
X2464658Y501880D01*
X2463937Y501946D01*
X2463018Y502077D01*
X2462034Y502274D01*
X2461050Y502536D01*
X2460066Y502930D01*
X2459935Y502996D01*
X2459673Y503127D01*
X2459213Y503389D01*
X2458623Y503783D01*
X2457967Y504242D01*
X2457245Y504767D01*
X2456524Y505423D01*
X2455868Y506144D01*
X2455802Y506210D01*
X2455605Y506538D01*
X2455277Y506932D01*
X2454884Y507522D01*
X2454490Y508244D01*
X2454097Y509096D01*
X2453637Y510015D01*
X2453309Y511064D01*
Y511130D01*
X2453244Y511196D01*
X2453178Y511589D01*
X2453047Y512180D01*
X2452916Y512901D01*
X2452719Y513820D01*
X2452588Y514869D01*
X2452522Y516050D01*
X2452457Y517231D01*
Y517296D01*
Y517362D01*
Y517559D01*
Y517821D01*
X2452522Y518412D01*
X2452588Y519264D01*
X2452653Y520183D01*
X2452850Y521232D01*
X2453047Y522348D01*
X2453309Y523397D01*
Y523463D01*
X2453375Y523528D01*
X2453441Y523856D01*
X2453703Y524381D01*
X2453965Y525037D01*
X2454293Y525824D01*
X2454753Y526612D01*
X2455277Y527464D01*
X2455868Y528252D01*
X2455933Y528317D01*
X2456196Y528580D01*
X2456524Y528973D01*
X2457049Y529432D01*
X2457639Y529957D01*
X2458361Y530548D01*
X2459148Y531072D01*
X2460066Y531532D01*
X2460197Y531597D01*
X2460525Y531728D01*
X2461050Y531925D01*
X2461772Y532122D01*
X2462625Y532319D01*
X2463609Y532516D01*
X2464658Y532647D01*
X2465839Y532712D01*
X2466364D01*
X2467020Y532647D01*
D02*
G37*
G36*
X2377082Y542815D02*
X2377804Y542749D01*
X2378591Y542618D01*
X2379509Y542421D01*
X2380428Y542224D01*
X2381477Y541962D01*
X2382527Y541634D01*
X2383577Y541175D01*
X2384692Y540650D01*
X2385741Y540060D01*
X2386725Y539338D01*
X2387709Y538551D01*
X2388628Y537632D01*
X2388693Y537567D01*
X2388825Y537370D01*
X2389087Y537108D01*
X2389349Y536648D01*
X2389677Y536124D01*
X2390071Y535468D01*
X2390530Y534680D01*
X2390989Y533762D01*
X2391383Y532712D01*
X2391842Y531597D01*
X2392236Y530351D01*
X2392564Y528973D01*
X2392826Y527464D01*
X2393089Y525890D01*
X2393220Y524184D01*
X2393285Y522348D01*
Y522216D01*
Y521888D01*
Y521364D01*
X2393220Y520708D01*
X2393154Y519855D01*
X2393023Y518871D01*
X2392892Y517821D01*
X2392695Y516640D01*
X2392433Y515394D01*
X2392170Y514148D01*
X2391777Y512901D01*
X2391317Y511589D01*
X2390793Y510343D01*
X2390137Y509162D01*
X2389481Y508047D01*
X2388628Y506997D01*
X2388562Y506932D01*
X2388431Y506800D01*
X2388169Y506538D01*
X2387775Y506210D01*
X2387316Y505816D01*
X2386725Y505357D01*
X2386069Y504898D01*
X2385282Y504439D01*
X2384429Y503914D01*
X2383445Y503455D01*
X2382396Y502996D01*
X2381215Y502602D01*
X2379969Y502274D01*
X2378657Y502012D01*
X2377213Y501880D01*
X2375705Y501815D01*
X2375114D01*
X2374524Y501880D01*
X2373671D01*
X2372687Y501946D01*
X2371637Y502077D01*
X2369473Y502405D01*
X2369341D01*
X2369013Y502536D01*
X2368489Y502668D01*
X2367833Y502799D01*
X2367045Y503061D01*
X2366324Y503324D01*
X2365537Y503586D01*
X2364815Y503914D01*
Y540716D01*
X2364881Y540781D01*
X2365143Y540847D01*
X2365537Y541044D01*
X2366127Y541240D01*
X2366783Y541503D01*
X2367570Y541765D01*
X2368489Y541962D01*
X2369538Y542224D01*
X2369669D01*
X2370063Y542356D01*
X2370653Y542421D01*
X2371375Y542552D01*
X2372293Y542684D01*
X2373343Y542749D01*
X2374524Y542880D01*
X2376492D01*
X2377082Y542815D01*
D02*
G37*
G36*
X2520090Y452221D02*
X2520025Y452156D01*
X2519762Y452090D01*
X2519434Y451893D01*
X2518909Y451696D01*
X2518253Y451500D01*
X2517466Y451237D01*
X2516613Y451040D01*
X2515564Y450778D01*
X2515433D01*
X2515039Y450647D01*
X2514449Y450581D01*
X2513727Y450450D01*
X2512743Y450319D01*
X2511693Y450253D01*
X2510513Y450122D01*
X2508545D01*
X2508085Y450188D01*
X2507495Y450253D01*
X2506773Y450319D01*
X2505986Y450450D01*
X2505199Y450647D01*
X2503428Y451106D01*
X2502509Y451434D01*
X2501591Y451828D01*
X2500673Y452287D01*
X2499820Y452812D01*
X2498967Y453402D01*
X2498245Y454124D01*
X2498180Y454189D01*
X2498114Y454320D01*
X2497917Y454517D01*
X2497655Y454845D01*
X2497393Y455304D01*
X2497065Y455764D01*
X2496737Y456354D01*
X2496409Y457010D01*
X2496015Y457797D01*
X2495687Y458650D01*
X2495359Y459568D01*
X2495097Y460552D01*
X2494834Y461602D01*
X2494637Y462783D01*
X2494572Y464029D01*
X2494506Y465341D01*
Y465407D01*
Y465472D01*
Y465669D01*
Y465932D01*
X2494572Y466588D01*
X2494637Y467375D01*
X2494703Y468359D01*
X2494900Y469408D01*
X2495097Y470524D01*
X2495359Y471573D01*
Y471639D01*
X2495425Y471704D01*
X2495490Y472032D01*
X2495753Y472557D01*
X2496015Y473213D01*
X2496409Y474000D01*
X2496802Y474788D01*
X2497393Y475575D01*
X2497983Y476362D01*
X2498049Y476428D01*
X2498311Y476690D01*
X2498705Y477084D01*
X2499164Y477543D01*
X2499820Y478002D01*
X2500541Y478527D01*
X2501394Y479052D01*
X2502313Y479511D01*
X2502444Y479576D01*
X2502772Y479708D01*
X2503297Y479839D01*
X2504084Y480101D01*
X2504937Y480298D01*
X2505986Y480429D01*
X2507101Y480560D01*
X2508348Y480626D01*
X2509069D01*
X2509791Y480560D01*
X2510644Y480429D01*
X2510841D01*
X2511037Y480364D01*
X2511300D01*
X2511956Y480232D01*
X2512546Y480036D01*
Y493877D01*
X2520090D01*
Y452221D01*
D02*
G37*
G36*
X2454097Y480954D02*
X2454556Y480888D01*
X2455605Y480757D01*
X2456852Y480495D01*
X2458164Y480167D01*
X2459476Y479642D01*
X2460788Y478986D01*
X2458426Y473607D01*
X2458361Y473672D01*
X2458098Y473804D01*
X2457705Y474000D01*
X2457245Y474263D01*
X2456589Y474460D01*
X2455802Y474656D01*
X2454949Y474788D01*
X2454031Y474853D01*
X2453900D01*
X2453572Y474788D01*
X2453047Y474722D01*
X2452391Y474591D01*
X2451669Y474263D01*
X2450882Y473869D01*
X2450095Y473344D01*
X2449373Y472557D01*
X2449308Y472426D01*
X2449111Y472098D01*
X2448783Y471573D01*
X2448455Y470852D01*
X2448061Y469868D01*
X2447799Y468687D01*
X2447537Y467244D01*
X2447471Y465604D01*
Y465472D01*
Y465210D01*
Y464816D01*
X2447537Y464226D01*
X2447602Y463636D01*
X2447668Y462914D01*
X2447996Y461536D01*
Y461471D01*
X2448061Y461274D01*
X2448193Y460946D01*
X2448389Y460552D01*
X2448783Y459634D01*
X2449373Y458650D01*
X2449439Y458584D01*
X2449570Y458453D01*
X2449701Y458256D01*
X2449964Y457994D01*
X2450620Y457469D01*
X2451473Y456944D01*
X2451538D01*
X2451669Y456879D01*
X2451932Y456813D01*
X2452260Y456682D01*
X2453113Y456485D01*
X2454031Y456420D01*
X2454490D01*
X2454949Y456485D01*
X2455540Y456616D01*
X2456261Y456748D01*
X2456983Y456944D01*
X2457705Y457272D01*
X2458426Y457732D01*
X2460788Y452090D01*
X2460722D01*
X2460657Y452024D01*
X2460460Y451893D01*
X2460197Y451762D01*
X2459869Y451631D01*
X2459476Y451500D01*
X2458557Y451106D01*
X2457377Y450778D01*
X2456065Y450450D01*
X2454556Y450188D01*
X2452916Y450122D01*
X2452457D01*
X2451997Y450188D01*
X2451341Y450253D01*
X2450554Y450319D01*
X2449767Y450516D01*
X2448849Y450712D01*
X2447930Y451040D01*
X2447799Y451106D01*
X2447537Y451237D01*
X2447077Y451434D01*
X2446553Y451762D01*
X2445897Y452156D01*
X2445175Y452615D01*
X2444453Y453205D01*
X2443732Y453861D01*
X2443666Y453927D01*
X2443404Y454189D01*
X2443076Y454648D01*
X2442682Y455239D01*
X2442223Y455895D01*
X2441698Y456748D01*
X2441239Y457666D01*
X2440780Y458716D01*
Y458781D01*
X2440714Y458847D01*
X2440649Y459240D01*
X2440452Y459831D01*
X2440255Y460684D01*
X2440058Y461668D01*
X2439927Y462783D01*
X2439796Y464095D01*
X2439730Y465538D01*
Y465604D01*
Y465735D01*
Y465932D01*
Y466194D01*
X2439796Y466981D01*
X2439861Y467900D01*
X2439993Y468949D01*
X2440189Y470130D01*
X2440452Y471311D01*
X2440780Y472426D01*
Y472492D01*
X2440845Y472557D01*
X2440977Y472885D01*
X2441239Y473410D01*
X2441567Y474132D01*
X2441961Y474853D01*
X2442485Y475640D01*
X2443076Y476493D01*
X2443732Y477215D01*
X2443797Y477280D01*
X2444060Y477543D01*
X2444453Y477871D01*
X2444978Y478264D01*
X2445569Y478724D01*
X2446290Y479183D01*
X2447077Y479642D01*
X2447930Y480036D01*
X2448061Y480101D01*
X2448324Y480167D01*
X2448849Y480364D01*
X2449439Y480560D01*
X2450226Y480692D01*
X2451079Y480888D01*
X2451997Y480954D01*
X2452916Y481020D01*
X2453703D01*
X2454097Y480954D01*
D02*
G37*
G36*
X2750084Y491122D02*
X2750609D01*
X2751265Y491057D01*
X2751921Y490925D01*
X2752642Y490860D01*
X2754217Y490532D01*
X2755791Y490007D01*
X2757365Y489285D01*
X2758021Y488892D01*
X2758677Y488367D01*
X2758743D01*
X2758809Y488236D01*
X2759202Y487842D01*
X2759727Y487252D01*
X2760317Y486399D01*
X2760908Y485349D01*
X2761367Y484103D01*
X2761761Y482594D01*
X2761826Y481807D01*
X2761892Y480954D01*
Y480889D01*
Y480692D01*
Y480429D01*
X2761826Y480036D01*
X2761695Y479117D01*
X2761367Y478068D01*
Y478002D01*
X2761301Y477805D01*
X2761170Y477543D01*
X2760973Y477215D01*
X2760514Y476428D01*
X2759858Y475575D01*
X2759793Y475509D01*
X2759661Y475378D01*
X2759465Y475181D01*
X2759202Y474919D01*
X2758481Y474263D01*
X2757628Y473541D01*
X2757562Y473476D01*
X2757431Y473410D01*
X2757169Y473213D01*
X2756906Y473082D01*
X2756053Y472623D01*
X2755135Y472164D01*
Y472033D01*
X2755201D01*
X2755397Y471967D01*
X2755725Y471836D01*
X2756119Y471704D01*
X2756578Y471508D01*
X2757103Y471311D01*
X2758153Y470721D01*
X2758218Y470655D01*
X2758415Y470589D01*
X2758677Y470392D01*
X2759005Y470196D01*
X2759858Y469540D01*
X2760711Y468687D01*
X2760777Y468621D01*
X2760908Y468490D01*
X2761105Y468228D01*
X2761367Y467900D01*
X2761695Y467506D01*
X2761957Y466981D01*
X2762548Y465866D01*
X2762613Y465800D01*
X2762679Y465604D01*
X2762810Y465210D01*
X2762941Y464817D01*
X2763073Y464226D01*
X2763138Y463636D01*
X2763269Y462914D01*
Y462192D01*
Y462061D01*
Y461733D01*
X2763204Y461209D01*
X2763138Y460553D01*
X2763007Y459765D01*
X2762810Y458913D01*
X2762548Y458060D01*
X2762220Y457207D01*
X2762154Y457141D01*
X2762023Y456813D01*
X2761761Y456420D01*
X2761433Y455895D01*
X2761039Y455305D01*
X2760514Y454649D01*
X2759924Y453993D01*
X2759202Y453402D01*
X2759137Y453337D01*
X2758874Y453140D01*
X2758481Y452877D01*
X2757890Y452484D01*
X2757234Y452090D01*
X2756381Y451697D01*
X2755463Y451303D01*
X2754479Y450975D01*
X2754348Y450909D01*
X2753954Y450844D01*
X2753429Y450712D01*
X2752642Y450581D01*
X2751658Y450385D01*
X2750609Y450253D01*
X2749362Y450188D01*
X2748050Y450122D01*
X2747525D01*
X2746869Y450188D01*
X2746082D01*
X2745164Y450253D01*
X2744049Y450385D01*
X2742933Y450516D01*
X2741753Y450712D01*
X2741621D01*
X2741228Y450844D01*
X2740637Y450909D01*
X2739850Y451106D01*
X2738997Y451303D01*
X2738079Y451565D01*
X2737095Y451893D01*
X2736177Y452221D01*
X2738538Y458060D01*
X2738604D01*
X2738866Y457928D01*
X2739260Y457797D01*
X2739719Y457601D01*
X2740375Y457404D01*
X2741097Y457207D01*
X2741884Y457010D01*
X2742802Y456813D01*
X2742933D01*
X2743261Y456748D01*
X2743721Y456682D01*
X2744377Y456616D01*
X2745164Y456551D01*
X2746017Y456485D01*
X2746935Y456420D01*
X2748509D01*
X2749165Y456485D01*
X2749953Y456616D01*
X2750871Y456813D01*
X2751789Y457076D01*
X2752708Y457469D01*
X2753495Y457994D01*
X2753561Y458060D01*
X2753823Y458257D01*
X2754151Y458650D01*
X2754545Y459109D01*
X2754873Y459700D01*
X2755201Y460421D01*
X2755463Y461274D01*
X2755529Y462192D01*
Y462258D01*
Y462455D01*
X2755463Y462783D01*
X2755397Y463111D01*
X2755201Y464029D01*
X2754938Y464488D01*
X2754676Y464948D01*
X2754610Y465013D01*
X2754545Y465144D01*
X2754348Y465341D01*
X2754085Y465604D01*
X2753757Y465932D01*
X2753298Y466260D01*
X2752839Y466588D01*
X2752314Y466850D01*
X2752249Y466916D01*
X2752052Y466981D01*
X2751724Y467113D01*
X2751330Y467309D01*
X2750805Y467506D01*
X2750215Y467703D01*
X2749493Y467900D01*
X2748772Y468031D01*
X2748706D01*
X2748444Y468096D01*
X2747985Y468162D01*
X2747460Y468293D01*
X2746804Y468359D01*
X2746082Y468425D01*
X2745229Y468490D01*
X2743721D01*
Y474000D01*
X2744114D01*
X2744573Y474066D01*
X2745164Y474132D01*
X2745885Y474197D01*
X2746607Y474329D01*
X2748116Y474656D01*
X2748181D01*
X2748444Y474722D01*
X2748837Y474853D01*
X2749297Y475050D01*
X2750346Y475444D01*
X2751461Y476034D01*
X2751527Y476100D01*
X2751658Y476165D01*
X2751921Y476362D01*
X2752249Y476625D01*
X2752905Y477215D01*
X2753561Y477937D01*
X2753626Y478002D01*
X2753692Y478133D01*
X2753823Y478330D01*
X2753954Y478658D01*
X2754217Y479445D01*
X2754348Y479904D01*
Y480364D01*
Y480429D01*
Y480692D01*
X2754282Y481085D01*
X2754151Y481610D01*
X2753954Y482135D01*
X2753626Y482660D01*
X2753233Y483250D01*
X2752708Y483709D01*
X2752642Y483775D01*
X2752380Y483906D01*
X2752052Y484103D01*
X2751527Y484365D01*
X2750805Y484562D01*
X2750018Y484759D01*
X2749100Y484890D01*
X2747985Y484956D01*
X2747197D01*
X2746673Y484890D01*
X2746017Y484825D01*
X2745229Y484759D01*
X2743589Y484431D01*
X2743458D01*
X2743196Y484365D01*
X2742737Y484234D01*
X2742212Y484103D01*
X2741556Y483906D01*
X2740834Y483709D01*
X2739325Y483185D01*
X2737161Y489023D01*
X2737292Y489089D01*
X2737620Y489220D01*
X2738145Y489416D01*
X2738801Y489613D01*
X2739588Y489876D01*
X2740572Y490138D01*
X2741621Y490401D01*
X2742737Y490597D01*
X2742868D01*
X2743261Y490663D01*
X2743852Y490794D01*
X2744705Y490925D01*
X2745623Y490991D01*
X2746673Y491122D01*
X2747853Y491188D01*
X2749625D01*
X2750084Y491122D01*
D02*
G37*
G36*
X2617572Y484300D02*
X2602746D01*
X2601631Y474985D01*
X2603468D01*
X2604058Y474919D01*
X2604714D01*
X2605436Y474788D01*
X2606289Y474722D01*
X2607141Y474591D01*
X2609044Y474197D01*
X2611012Y473607D01*
X2611996Y473213D01*
X2612849Y472820D01*
X2613701Y472295D01*
X2614489Y471704D01*
X2614554Y471639D01*
X2614685Y471573D01*
X2614882Y471377D01*
X2615079Y471114D01*
X2615407Y470786D01*
X2615735Y470392D01*
X2616063Y469933D01*
X2616457Y469409D01*
X2616850Y468752D01*
X2617178Y468096D01*
X2617506Y467375D01*
X2617834Y466588D01*
X2618031Y465669D01*
X2618228Y464751D01*
X2618359Y463767D01*
X2618425Y462717D01*
Y462652D01*
Y462586D01*
Y462192D01*
X2618359Y461602D01*
X2618293Y460880D01*
X2618162Y459962D01*
X2617900Y459044D01*
X2617637Y458125D01*
X2617244Y457207D01*
X2617178Y457076D01*
X2617047Y456813D01*
X2616785Y456354D01*
X2616391Y455829D01*
X2615932Y455239D01*
X2615341Y454583D01*
X2614685Y453927D01*
X2613964Y453271D01*
X2613898Y453205D01*
X2613570Y453009D01*
X2613177Y452746D01*
X2612586Y452418D01*
X2611799Y452024D01*
X2610946Y451631D01*
X2610028Y451237D01*
X2608978Y450909D01*
X2608847D01*
X2608453Y450778D01*
X2607863Y450647D01*
X2607141Y450516D01*
X2606223Y450385D01*
X2605108Y450253D01*
X2603993Y450188D01*
X2602746Y450122D01*
X2602221D01*
X2601631Y450188D01*
X2600844D01*
X2599925Y450253D01*
X2598876Y450385D01*
X2597761Y450516D01*
X2596645Y450712D01*
X2596514D01*
X2596121Y450844D01*
X2595596Y450975D01*
X2594874Y451106D01*
X2594021Y451368D01*
X2593103Y451631D01*
X2591266Y452221D01*
X2593628Y458060D01*
X2593693D01*
X2593956Y457928D01*
X2594284Y457797D01*
X2594809Y457601D01*
X2595399Y457404D01*
X2596121Y457207D01*
X2596908Y457010D01*
X2597761Y456813D01*
X2597892D01*
X2598220Y456748D01*
X2598679Y456682D01*
X2599269Y456616D01*
X2600057Y456551D01*
X2600844Y456485D01*
X2602549Y456420D01*
X2603140D01*
X2603861Y456485D01*
X2604714Y456616D01*
X2605633Y456813D01*
X2606617Y457076D01*
X2607601Y457469D01*
X2608453Y457994D01*
X2608519Y458060D01*
X2608781Y458322D01*
X2609175Y458650D01*
X2609569Y459175D01*
X2609962Y459831D01*
X2610356Y460618D01*
X2610618Y461471D01*
X2610684Y462521D01*
Y462586D01*
Y462783D01*
Y463111D01*
X2610618Y463439D01*
X2610421Y464357D01*
X2610028Y465341D01*
Y465407D01*
X2609897Y465538D01*
X2609765Y465800D01*
X2609569Y466063D01*
X2608978Y466784D01*
X2608585Y467178D01*
X2608125Y467506D01*
X2608060Y467572D01*
X2607863Y467637D01*
X2607601Y467834D01*
X2607207Y468031D01*
X2606748Y468293D01*
X2606157Y468490D01*
X2605436Y468752D01*
X2604714Y468949D01*
X2604649D01*
X2604321Y469015D01*
X2603927Y469146D01*
X2603337Y469212D01*
X2602549Y469343D01*
X2601697Y469409D01*
X2600778Y469474D01*
X2598482D01*
X2597957Y469409D01*
X2596908Y469343D01*
X2596383D01*
X2595989Y469277D01*
X2595530Y469212D01*
X2595005D01*
X2593759Y469015D01*
X2596186Y490466D01*
X2617572D01*
Y484300D01*
D02*
G37*
G36*
X2572111Y491122D02*
X2572636D01*
X2573292Y491056D01*
X2573948Y490925D01*
X2574669Y490860D01*
X2576244Y490532D01*
X2577818Y490007D01*
X2579393Y489285D01*
X2580049Y488892D01*
X2580705Y488367D01*
X2580770D01*
X2580836Y488236D01*
X2581229Y487842D01*
X2581754Y487252D01*
X2582345Y486399D01*
X2582935Y485349D01*
X2583394Y484103D01*
X2583788Y482594D01*
X2583853Y481807D01*
X2583919Y480954D01*
Y480889D01*
Y480692D01*
Y480429D01*
X2583853Y480036D01*
X2583722Y479117D01*
X2583394Y478068D01*
Y478002D01*
X2583329Y477805D01*
X2583197Y477543D01*
X2583001Y477215D01*
X2582541Y476428D01*
X2581885Y475575D01*
X2581820Y475509D01*
X2581689Y475378D01*
X2581492Y475181D01*
X2581229Y474919D01*
X2580508Y474263D01*
X2579655Y473541D01*
X2579589Y473476D01*
X2579458Y473410D01*
X2579196Y473213D01*
X2578933Y473082D01*
X2578081Y472623D01*
X2577162Y472164D01*
Y472033D01*
X2577228D01*
X2577425Y471967D01*
X2577753Y471836D01*
X2578146Y471704D01*
X2578605Y471508D01*
X2579130Y471311D01*
X2580180Y470721D01*
X2580245Y470655D01*
X2580442Y470589D01*
X2580705Y470392D01*
X2581033Y470196D01*
X2581885Y469540D01*
X2582738Y468687D01*
X2582804Y468621D01*
X2582935Y468490D01*
X2583132Y468228D01*
X2583394Y467900D01*
X2583722Y467506D01*
X2583985Y466981D01*
X2584575Y465866D01*
X2584641Y465800D01*
X2584706Y465604D01*
X2584837Y465210D01*
X2584969Y464817D01*
X2585100Y464226D01*
X2585165Y463636D01*
X2585297Y462914D01*
Y462192D01*
Y462061D01*
Y461733D01*
X2585231Y461209D01*
X2585165Y460553D01*
X2585034Y459765D01*
X2584837Y458913D01*
X2584575Y458060D01*
X2584247Y457207D01*
X2584181Y457141D01*
X2584050Y456813D01*
X2583788Y456420D01*
X2583460Y455895D01*
X2583066Y455305D01*
X2582541Y454649D01*
X2581951Y453993D01*
X2581229Y453402D01*
X2581164Y453337D01*
X2580901Y453140D01*
X2580508Y452877D01*
X2579917Y452484D01*
X2579261Y452090D01*
X2578409Y451697D01*
X2577490Y451303D01*
X2576506Y450975D01*
X2576375Y450909D01*
X2575981Y450844D01*
X2575457Y450712D01*
X2574669Y450581D01*
X2573685Y450384D01*
X2572636Y450253D01*
X2571389Y450188D01*
X2570077Y450122D01*
X2569553D01*
X2568897Y450188D01*
X2568109D01*
X2567191Y450253D01*
X2566076Y450384D01*
X2564961Y450516D01*
X2563780Y450712D01*
X2563649D01*
X2563255Y450844D01*
X2562665Y450909D01*
X2561877Y451106D01*
X2561025Y451303D01*
X2560106Y451565D01*
X2559122Y451893D01*
X2558204Y452221D01*
X2560565Y458060D01*
X2560631D01*
X2560893Y457928D01*
X2561287Y457797D01*
X2561746Y457600D01*
X2562402Y457404D01*
X2563124Y457207D01*
X2563911Y457010D01*
X2564829Y456813D01*
X2564961D01*
X2565289Y456748D01*
X2565748Y456682D01*
X2566404Y456616D01*
X2567191Y456551D01*
X2568044Y456485D01*
X2568962Y456420D01*
X2570537D01*
X2571193Y456485D01*
X2571980Y456616D01*
X2572898Y456813D01*
X2573817Y457076D01*
X2574735Y457469D01*
X2575522Y457994D01*
X2575588Y458060D01*
X2575850Y458257D01*
X2576178Y458650D01*
X2576572Y459109D01*
X2576900Y459700D01*
X2577228Y460421D01*
X2577490Y461274D01*
X2577556Y462192D01*
Y462258D01*
Y462455D01*
X2577490Y462783D01*
X2577425Y463111D01*
X2577228Y464029D01*
X2576965Y464488D01*
X2576703Y464948D01*
X2576637Y465013D01*
X2576572Y465144D01*
X2576375Y465341D01*
X2576113Y465604D01*
X2575785Y465932D01*
X2575325Y466260D01*
X2574866Y466588D01*
X2574341Y466850D01*
X2574276Y466916D01*
X2574079Y466981D01*
X2573751Y467112D01*
X2573357Y467309D01*
X2572833Y467506D01*
X2572242Y467703D01*
X2571521Y467900D01*
X2570799Y468031D01*
X2570733D01*
X2570471Y468096D01*
X2570012Y468162D01*
X2569487Y468293D01*
X2568831Y468359D01*
X2568109Y468424D01*
X2567257Y468490D01*
X2565748D01*
Y474000D01*
X2566141D01*
X2566601Y474066D01*
X2567191Y474132D01*
X2567913Y474197D01*
X2568634Y474328D01*
X2570143Y474656D01*
X2570209D01*
X2570471Y474722D01*
X2570865Y474853D01*
X2571324Y475050D01*
X2572373Y475444D01*
X2573489Y476034D01*
X2573554Y476100D01*
X2573685Y476165D01*
X2573948Y476362D01*
X2574276Y476624D01*
X2574932Y477215D01*
X2575588Y477937D01*
X2575653Y478002D01*
X2575719Y478133D01*
X2575850Y478330D01*
X2575981Y478658D01*
X2576244Y479445D01*
X2576375Y479904D01*
Y480364D01*
Y480429D01*
Y480692D01*
X2576309Y481085D01*
X2576178Y481610D01*
X2575981Y482135D01*
X2575653Y482660D01*
X2575260Y483250D01*
X2574735Y483709D01*
X2574669Y483775D01*
X2574407Y483906D01*
X2574079Y484103D01*
X2573554Y484365D01*
X2572833Y484562D01*
X2572045Y484759D01*
X2571127Y484890D01*
X2570012Y484956D01*
X2569225D01*
X2568700Y484890D01*
X2568044Y484824D01*
X2567257Y484759D01*
X2565617Y484431D01*
X2565485D01*
X2565223Y484365D01*
X2564764Y484234D01*
X2564239Y484103D01*
X2563583Y483906D01*
X2562861Y483709D01*
X2561353Y483184D01*
X2559188Y489023D01*
X2559319Y489088D01*
X2559647Y489220D01*
X2560172Y489416D01*
X2560828Y489613D01*
X2561615Y489876D01*
X2562599Y490138D01*
X2563649Y490400D01*
X2564764Y490597D01*
X2564895D01*
X2565289Y490663D01*
X2565879Y490794D01*
X2566732Y490925D01*
X2567650Y490991D01*
X2568700Y491122D01*
X2569881Y491188D01*
X2571652D01*
X2572111Y491122D01*
D02*
G37*
G36*
X2716365Y491122D02*
X2717021D01*
X2717677Y490991D01*
X2718465Y490925D01*
X2719317Y490794D01*
X2721089Y490401D01*
X2722925Y489810D01*
X2723778Y489482D01*
X2724631Y489023D01*
X2725484Y488564D01*
X2726205Y487973D01*
X2726271Y487908D01*
X2726402Y487842D01*
X2726533Y487645D01*
X2726796Y487383D01*
X2727058Y487055D01*
X2727386Y486661D01*
X2727780Y486202D01*
X2728108Y485677D01*
X2728829Y484431D01*
X2729420Y482922D01*
X2729682Y482069D01*
X2729879Y481151D01*
X2729945Y480233D01*
X2730010Y479183D01*
Y479117D01*
Y478921D01*
Y478592D01*
X2729945Y478199D01*
X2729879Y477740D01*
X2729813Y477215D01*
X2729551Y476100D01*
Y476034D01*
X2729485Y475837D01*
X2729420Y475575D01*
X2729289Y475181D01*
X2728895Y474329D01*
X2728436Y473279D01*
Y473213D01*
X2728305Y473082D01*
X2728173Y472820D01*
X2727977Y472492D01*
X2727452Y471704D01*
X2726796Y470786D01*
X2726730Y470721D01*
X2726665Y470589D01*
X2726468Y470392D01*
X2726271Y470065D01*
X2725681Y469409D01*
X2725025Y468621D01*
X2714660Y456945D01*
X2730797D01*
Y450778D01*
X2701999D01*
X2718989Y471967D01*
X2719055Y472033D01*
X2719186Y472229D01*
X2719449Y472557D01*
X2719711Y472951D01*
X2720039Y473476D01*
X2720433Y474000D01*
X2721154Y475181D01*
X2721220Y475247D01*
X2721285Y475509D01*
X2721482Y475837D01*
X2721679Y476296D01*
X2721810Y476821D01*
X2722007Y477412D01*
X2722073Y478068D01*
X2722138Y478789D01*
Y478921D01*
Y479248D01*
X2722007Y479773D01*
X2721876Y480364D01*
X2721679Y481085D01*
X2721285Y481807D01*
X2720826Y482529D01*
X2720170Y483185D01*
X2720105Y483250D01*
X2719777Y483447D01*
X2719383Y483709D01*
X2718727Y484037D01*
X2717940Y484365D01*
X2716956Y484628D01*
X2715841Y484825D01*
X2714529Y484890D01*
X2713741D01*
X2713217Y484825D01*
X2712626Y484759D01*
X2711905Y484693D01*
X2710265Y484431D01*
X2710199D01*
X2709871Y484365D01*
X2709477Y484234D01*
X2708887Y484103D01*
X2708297Y483906D01*
X2707575Y483709D01*
X2706132Y483185D01*
X2703967Y489023D01*
X2704098Y489089D01*
X2704426Y489220D01*
X2704885Y489416D01*
X2705607Y489613D01*
X2706394Y489876D01*
X2707313Y490138D01*
X2708297Y490401D01*
X2709346Y490597D01*
X2709477D01*
X2709871Y490663D01*
X2710396Y490794D01*
X2711183Y490925D01*
X2712036Y490991D01*
X2713020Y491122D01*
X2714069Y491188D01*
X2715906D01*
X2716365Y491122D01*
D02*
G37*
G36*
X2650634D02*
X2651290D01*
X2651946Y490991D01*
X2652733Y490925D01*
X2653586Y490794D01*
X2655357Y490401D01*
X2657194Y489810D01*
X2658047Y489482D01*
X2658900Y489023D01*
X2659753Y488564D01*
X2660474Y487973D01*
X2660540Y487908D01*
X2660671Y487842D01*
X2660802Y487645D01*
X2661065Y487383D01*
X2661327Y487055D01*
X2661655Y486661D01*
X2662049Y486202D01*
X2662377Y485677D01*
X2663098Y484431D01*
X2663689Y482922D01*
X2663951Y482069D01*
X2664148Y481151D01*
X2664213Y480233D01*
X2664279Y479183D01*
Y479117D01*
Y478921D01*
Y478592D01*
X2664213Y478199D01*
X2664148Y477740D01*
X2664082Y477215D01*
X2663820Y476100D01*
Y476034D01*
X2663754Y475837D01*
X2663689Y475575D01*
X2663557Y475181D01*
X2663164Y474329D01*
X2662705Y473279D01*
Y473213D01*
X2662573Y473082D01*
X2662442Y472820D01*
X2662245Y472492D01*
X2661721Y471704D01*
X2661065Y470786D01*
X2660999Y470721D01*
X2660933Y470589D01*
X2660737Y470392D01*
X2660540Y470065D01*
X2659949Y469409D01*
X2659293Y468621D01*
X2648929Y456945D01*
X2665066D01*
Y450778D01*
X2636268D01*
X2653258Y471967D01*
X2653324Y472033D01*
X2653455Y472229D01*
X2653717Y472557D01*
X2653980Y472951D01*
X2654308Y473476D01*
X2654701Y474000D01*
X2655423Y475181D01*
X2655489Y475247D01*
X2655554Y475509D01*
X2655751Y475837D01*
X2655948Y476296D01*
X2656079Y476821D01*
X2656276Y477412D01*
X2656341Y478068D01*
X2656407Y478789D01*
Y478921D01*
Y479248D01*
X2656276Y479773D01*
X2656145Y480364D01*
X2655948Y481085D01*
X2655554Y481807D01*
X2655095Y482529D01*
X2654439Y483185D01*
X2654373Y483250D01*
X2654045Y483447D01*
X2653652Y483709D01*
X2652996Y484037D01*
X2652209Y484365D01*
X2651225Y484628D01*
X2650109Y484825D01*
X2648797Y484890D01*
X2648010D01*
X2647485Y484825D01*
X2646895Y484759D01*
X2646173Y484693D01*
X2644533Y484431D01*
X2644468D01*
X2644140Y484365D01*
X2643746Y484234D01*
X2643156Y484103D01*
X2642565Y483906D01*
X2641844Y483709D01*
X2640401Y483185D01*
X2638236Y489023D01*
X2638367Y489089D01*
X2638695Y489220D01*
X2639154Y489416D01*
X2639876Y489613D01*
X2640663Y489876D01*
X2641581Y490138D01*
X2642565Y490401D01*
X2643615Y490597D01*
X2643746D01*
X2644140Y490663D01*
X2644665Y490794D01*
X2645452Y490925D01*
X2646305Y490991D01*
X2647289Y491122D01*
X2648338Y491188D01*
X2650175D01*
X2650634Y491122D01*
D02*
G37*
G36*
X2550135Y465932D02*
X2554071D01*
Y460552D01*
X2550135D01*
Y450778D01*
X2543181D01*
Y460552D01*
X2525404D01*
Y465932D01*
X2541935Y490466D01*
X2550135D01*
Y465932D01*
D02*
G37*
G36*
X2686255Y491122D02*
X2687108Y490991D01*
X2688026Y490794D01*
X2689076Y490532D01*
X2690125Y490138D01*
X2691175Y489613D01*
X2691306Y489548D01*
X2691634Y489351D01*
X2692093Y488957D01*
X2692684Y488498D01*
X2693340Y487842D01*
X2694061Y487120D01*
X2694783Y486202D01*
X2695439Y485218D01*
X2695505Y485087D01*
X2695701Y484759D01*
X2696029Y484168D01*
X2696357Y483381D01*
X2696751Y482397D01*
X2697145Y481348D01*
X2697538Y480101D01*
X2697866Y478724D01*
Y478658D01*
X2697932Y478527D01*
Y478330D01*
X2697997Y478068D01*
X2698063Y477740D01*
X2698129Y477346D01*
X2698260Y476296D01*
X2698391Y475116D01*
X2698522Y473738D01*
X2698653Y472229D01*
Y470655D01*
Y470589D01*
Y470458D01*
Y470196D01*
Y469933D01*
Y469540D01*
X2698588Y469080D01*
Y467965D01*
X2698457Y466719D01*
X2698325Y465341D01*
X2698129Y463964D01*
X2697866Y462521D01*
Y462455D01*
X2697801Y462324D01*
Y462127D01*
X2697735Y461865D01*
X2697538Y461209D01*
X2697276Y460290D01*
X2696948Y459306D01*
X2696489Y458191D01*
X2696029Y457076D01*
X2695439Y455961D01*
X2695373Y455829D01*
X2695177Y455501D01*
X2694783Y454976D01*
X2694324Y454386D01*
X2693668Y453664D01*
X2692946Y452943D01*
X2692093Y452287D01*
X2691175Y451631D01*
X2691044Y451565D01*
X2690716Y451368D01*
X2690125Y451172D01*
X2689404Y450909D01*
X2688485Y450581D01*
X2687436Y450385D01*
X2686255Y450188D01*
X2684943Y450122D01*
X2684353D01*
X2683697Y450188D01*
X2682844Y450319D01*
X2681860Y450516D01*
X2680810Y450778D01*
X2679761Y451106D01*
X2678711Y451631D01*
X2678580Y451697D01*
X2678252Y451893D01*
X2677793Y452287D01*
X2677202Y452746D01*
X2676546Y453402D01*
X2675825Y454124D01*
X2675103Y454976D01*
X2674447Y455961D01*
Y456026D01*
X2674381Y456092D01*
X2674185Y456485D01*
X2673857Y457076D01*
X2673529Y457863D01*
X2673135Y458781D01*
X2672741Y459897D01*
X2672348Y461143D01*
X2672020Y462521D01*
Y462586D01*
Y462717D01*
X2671954Y462914D01*
X2671889Y463176D01*
X2671823Y463505D01*
X2671757Y463964D01*
X2671626Y464948D01*
X2671495Y466128D01*
X2671364Y467506D01*
X2671298Y469015D01*
X2671233Y470655D01*
Y470721D01*
Y470852D01*
Y471048D01*
Y471377D01*
Y471770D01*
X2671298Y472229D01*
X2671364Y473279D01*
X2671429Y474525D01*
X2671561Y475903D01*
X2671757Y477281D01*
X2672020Y478724D01*
Y478789D01*
X2672085Y478921D01*
Y479117D01*
X2672151Y479380D01*
X2672348Y480036D01*
X2672610Y480954D01*
X2672938Y481938D01*
X2673397Y483053D01*
X2673857Y484168D01*
X2674447Y485218D01*
Y485284D01*
X2674513Y485349D01*
X2674775Y485677D01*
X2675103Y486202D01*
X2675628Y486858D01*
X2676218Y487514D01*
X2676940Y488236D01*
X2677793Y488957D01*
X2678711Y489613D01*
X2678842Y489679D01*
X2679170Y489876D01*
X2679761Y490138D01*
X2680482Y490401D01*
X2681401Y490663D01*
X2682450Y490925D01*
X2683631Y491122D01*
X2684943Y491188D01*
X2685533D01*
X2686255Y491122D01*
D02*
G37*
G36*
X2477975Y480954D02*
X2478434D01*
X2479025Y480888D01*
X2480271Y480692D01*
X2481649Y480429D01*
X2483092Y479970D01*
X2484535Y479380D01*
X2485781Y478527D01*
X2485847D01*
X2485913Y478396D01*
X2486241Y478068D01*
X2486765Y477477D01*
X2487028Y477084D01*
X2487356Y476624D01*
X2487618Y476100D01*
X2487881Y475509D01*
X2488143Y474853D01*
X2488405Y474132D01*
X2488602Y473279D01*
X2488733Y472426D01*
X2488865Y471508D01*
Y470458D01*
Y452221D01*
X2488799Y452156D01*
X2488537Y452090D01*
X2488209Y451893D01*
X2487684Y451696D01*
X2486962Y451500D01*
X2486175Y451237D01*
X2485257Y451040D01*
X2484141Y450778D01*
X2484010D01*
X2483617Y450647D01*
X2483026Y450581D01*
X2482239Y450450D01*
X2481255Y450319D01*
X2480205Y450253D01*
X2479025Y450122D01*
X2477122D01*
X2476663Y450188D01*
X2476138D01*
X2475482Y450253D01*
X2474761Y450319D01*
X2474039Y450450D01*
X2472399Y450712D01*
X2470693Y451172D01*
X2469119Y451762D01*
X2468397Y452156D01*
X2467741Y452615D01*
X2467676D01*
X2467610Y452746D01*
X2467217Y453074D01*
X2466692Y453664D01*
X2466101Y454452D01*
X2465511Y455436D01*
X2464986Y456616D01*
X2464593Y458060D01*
X2464527Y458781D01*
X2464461Y459634D01*
Y459700D01*
Y459765D01*
Y460159D01*
X2464527Y460684D01*
X2464658Y461405D01*
X2464789Y462192D01*
X2465052Y462980D01*
X2465445Y463767D01*
X2465905Y464554D01*
X2465970Y464620D01*
X2466167Y464882D01*
X2466495Y465210D01*
X2466954Y465669D01*
X2467479Y466128D01*
X2468135Y466588D01*
X2468922Y467112D01*
X2469775Y467506D01*
X2469906Y467572D01*
X2470234Y467703D01*
X2470693Y467900D01*
X2471349Y468096D01*
X2472202Y468359D01*
X2473121Y468621D01*
X2474170Y468884D01*
X2475285Y469080D01*
X2475417D01*
X2475810Y469146D01*
X2476466Y469277D01*
X2477253Y469343D01*
X2478237Y469474D01*
X2479353Y469605D01*
X2480533Y469736D01*
X2481780Y469802D01*
Y471311D01*
Y471442D01*
Y471704D01*
X2481714Y472098D01*
X2481583Y472623D01*
X2481386Y473148D01*
X2481124Y473672D01*
X2480796Y474197D01*
X2480271Y474591D01*
X2480205Y474656D01*
X2480009Y474722D01*
X2479681Y474919D01*
X2479221Y475116D01*
X2478631Y475247D01*
X2477975Y475444D01*
X2477188Y475509D01*
X2476269Y475575D01*
X2475613D01*
X2474892Y475509D01*
X2474039Y475378D01*
X2473842D01*
X2473645Y475312D01*
X2473317D01*
X2472661Y475181D01*
X2471809Y474984D01*
X2471743D01*
X2471612Y474919D01*
X2471415D01*
X2471153Y474788D01*
X2470497Y474656D01*
X2469709Y474394D01*
X2469644D01*
X2469578Y474328D01*
X2469119Y474197D01*
X2468529Y474066D01*
X2467938Y473804D01*
X2466101Y478855D01*
X2466167Y478920D01*
X2466429Y478986D01*
X2466823Y479117D01*
X2467413Y479314D01*
X2468069Y479576D01*
X2468922Y479773D01*
X2469841Y480036D01*
X2470890Y480298D01*
X2470956D01*
X2471021Y480364D01*
X2471415Y480429D01*
X2472005Y480560D01*
X2472793Y480692D01*
X2473711Y480823D01*
X2474761Y480888D01*
X2475876Y481020D01*
X2477581D01*
X2477975Y480954D01*
D02*
G37*
G36*
X2762678Y1457866D02*
X2763859Y1457768D01*
X2765139Y1457571D01*
X2767795Y1457079D01*
X2767992D01*
X2768386Y1456981D01*
X2769075Y1456784D01*
X2769862Y1456489D01*
X2770846Y1456194D01*
X2771928Y1455800D01*
X2774093Y1454717D01*
X2770452Y1445370D01*
X2770354Y1445468D01*
X2770059Y1445566D01*
X2769665Y1445763D01*
X2769075Y1446058D01*
X2768484Y1446353D01*
X2767697Y1446649D01*
X2765926Y1447239D01*
X2765827D01*
X2765532Y1447338D01*
X2765040Y1447436D01*
X2764351Y1447633D01*
X2763564Y1447731D01*
X2762678Y1447830D01*
X2760711Y1447928D01*
X2760120D01*
X2759333Y1447830D01*
X2758546Y1447731D01*
X2757562Y1447436D01*
X2756479Y1447141D01*
X2755495Y1446649D01*
X2754610Y1445960D01*
X2754511Y1445861D01*
X2754314Y1445665D01*
X2753921Y1445173D01*
X2753527Y1444681D01*
X2753134Y1443893D01*
X2752740Y1443106D01*
X2752543Y1442024D01*
X2752445Y1440941D01*
Y1440843D01*
Y1440548D01*
X2752543Y1440056D01*
X2752642Y1439466D01*
X2752838Y1438777D01*
X2753134Y1438088D01*
X2753527Y1437399D01*
X2754118Y1436710D01*
X2754216Y1436612D01*
X2754413Y1436415D01*
X2754807Y1436120D01*
X2755298Y1435726D01*
X2755987Y1435234D01*
X2756676Y1434644D01*
X2758447Y1433562D01*
X2758546Y1433463D01*
X2758939Y1433266D01*
X2759431Y1432971D01*
X2760120Y1432676D01*
X2761006Y1432184D01*
X2761990Y1431692D01*
X2764155Y1430610D01*
X2764253Y1430511D01*
X2764646Y1430314D01*
X2765237Y1430019D01*
X2766024Y1429626D01*
X2766910Y1429035D01*
X2767795Y1428445D01*
X2769763Y1426969D01*
X2769862Y1426870D01*
X2770255Y1426575D01*
X2770649Y1426181D01*
X2771338Y1425591D01*
X2772026Y1424804D01*
X2772715Y1424017D01*
X2773404Y1423033D01*
X2774093Y1421950D01*
X2774191Y1421852D01*
X2774388Y1421458D01*
X2774683Y1420770D01*
X2774979Y1419884D01*
X2775274Y1418900D01*
X2775569Y1417621D01*
X2775766Y1416145D01*
X2775864Y1414570D01*
Y1414373D01*
Y1413881D01*
X2775766Y1413094D01*
X2775667Y1412110D01*
X2775569Y1410929D01*
X2775274Y1409650D01*
X2774979Y1408371D01*
X2774486Y1407092D01*
X2774388Y1406994D01*
X2774191Y1406502D01*
X2773896Y1405911D01*
X2773503Y1405124D01*
X2772912Y1404238D01*
X2772223Y1403353D01*
X2771436Y1402369D01*
X2770452Y1401385D01*
X2770354Y1401286D01*
X2769960Y1400991D01*
X2769468Y1400499D01*
X2768681Y1400007D01*
X2767795Y1399417D01*
X2766713Y1398728D01*
X2765434Y1398138D01*
X2764056Y1397646D01*
X2763859Y1397547D01*
X2763367Y1397449D01*
X2762580Y1397252D01*
X2761596Y1397055D01*
X2760317Y1396760D01*
X2758841Y1396563D01*
X2757267Y1396465D01*
X2755495Y1396366D01*
X2754019D01*
X2752937Y1396465D01*
X2751756Y1396563D01*
X2750378Y1396661D01*
X2747427Y1397153D01*
X2747230D01*
X2746738Y1397252D01*
X2746049Y1397449D01*
X2745065Y1397744D01*
X2743983Y1398039D01*
X2742703Y1398433D01*
X2740145Y1399515D01*
X2743983Y1409552D01*
X2744081D01*
X2744376Y1409355D01*
X2744868Y1409158D01*
X2745557Y1408863D01*
X2746344Y1408568D01*
X2747230Y1408273D01*
X2749198Y1407584D01*
X2749296D01*
X2749690Y1407486D01*
X2750280Y1407387D01*
X2750969Y1407190D01*
X2751854Y1407092D01*
X2752838Y1406895D01*
X2754905Y1406797D01*
X2755594D01*
X2756381Y1406895D01*
X2757365Y1407092D01*
X2758349Y1407289D01*
X2759431Y1407584D01*
X2760514Y1408076D01*
X2761498Y1408765D01*
X2761596Y1408863D01*
X2761891Y1409158D01*
X2762285Y1409552D01*
X2762777Y1410142D01*
X2763171Y1410929D01*
X2763564Y1411815D01*
X2763859Y1412799D01*
X2763958Y1413980D01*
Y1414078D01*
Y1414373D01*
X2763859Y1414866D01*
X2763761Y1415456D01*
X2763564Y1416145D01*
X2763171Y1416833D01*
X2762777Y1417522D01*
X2762186Y1418211D01*
X2762088Y1418310D01*
X2761891Y1418506D01*
X2761498Y1418802D01*
X2761006Y1419293D01*
X2760415Y1419785D01*
X2759727Y1420277D01*
X2758841Y1420868D01*
X2757955Y1421360D01*
X2757857Y1421458D01*
X2757463Y1421655D01*
X2756971Y1421950D01*
X2756282Y1422245D01*
X2755495Y1422737D01*
X2754511Y1423229D01*
X2752347Y1424214D01*
X2752248Y1424312D01*
X2751854Y1424509D01*
X2751264Y1424804D01*
X2750575Y1425197D01*
X2749690Y1425689D01*
X2748804Y1426378D01*
X2746836Y1427756D01*
X2746738Y1427854D01*
X2746443Y1428149D01*
X2745950Y1428543D01*
X2745360Y1429133D01*
X2744671Y1429921D01*
X2743983Y1430708D01*
X2743195Y1431692D01*
X2742506Y1432774D01*
X2742408Y1432873D01*
X2742211Y1433365D01*
X2742015Y1433955D01*
X2741719Y1434841D01*
X2741326Y1435923D01*
X2741129Y1437202D01*
X2740932Y1438678D01*
X2740834Y1440253D01*
Y1440449D01*
Y1440941D01*
X2740932Y1441729D01*
X2741030Y1442713D01*
X2741129Y1443795D01*
X2741424Y1445074D01*
X2741719Y1446255D01*
X2742211Y1447534D01*
X2742310Y1447633D01*
X2742506Y1448125D01*
X2742802Y1448715D01*
X2743195Y1449404D01*
X2743786Y1450290D01*
X2744376Y1451274D01*
X2745163Y1452159D01*
X2746049Y1453045D01*
X2746147Y1453143D01*
X2746541Y1453438D01*
X2747033Y1453832D01*
X2747820Y1454422D01*
X2748706Y1455013D01*
X2749690Y1455603D01*
X2750870Y1456194D01*
X2752150Y1456686D01*
X2752347Y1456784D01*
X2752838Y1456882D01*
X2753527Y1457079D01*
X2754511Y1457374D01*
X2755692Y1457571D01*
X2757070Y1457768D01*
X2758644Y1457866D01*
X2760218Y1457965D01*
X2761695D01*
X2762678Y1457866D01*
D02*
G37*
G36*
X3108555D02*
X3109440Y1457768D01*
X3110523Y1457669D01*
X3111703Y1457571D01*
X3112983Y1457276D01*
X3115738Y1456686D01*
X3118591Y1455800D01*
X3119969Y1455209D01*
X3121248Y1454521D01*
X3122527Y1453635D01*
X3123708Y1452749D01*
X3123807Y1452651D01*
X3124003Y1452553D01*
X3124298Y1452257D01*
X3124594Y1451765D01*
X3125086Y1451274D01*
X3125578Y1450683D01*
X3126070Y1449896D01*
X3126660Y1449010D01*
X3127251Y1448125D01*
X3127742Y1447042D01*
X3128727Y1444681D01*
X3129022Y1443303D01*
X3129317Y1441926D01*
X3129514Y1440351D01*
X3129612Y1438777D01*
Y1438580D01*
Y1438088D01*
X3129514Y1437301D01*
X3129415Y1436317D01*
X3129218Y1435136D01*
X3129022Y1433955D01*
X3128628Y1432578D01*
X3128136Y1431298D01*
X3128038Y1431101D01*
X3127841Y1430708D01*
X3127546Y1430118D01*
X3127054Y1429232D01*
X3126365Y1428346D01*
X3125676Y1427362D01*
X3124791Y1426280D01*
X3123708Y1425296D01*
X3123610Y1425197D01*
X3123216Y1424902D01*
X3122527Y1424410D01*
X3121740Y1423918D01*
X3120658Y1423328D01*
X3119378Y1422639D01*
X3118001Y1422049D01*
X3116427Y1421458D01*
X3116230Y1421360D01*
X3115639Y1421262D01*
X3114754Y1421065D01*
X3113573Y1420770D01*
X3112097Y1420474D01*
X3110326Y1420277D01*
X3108358Y1420179D01*
X3106291Y1420081D01*
X3104422D01*
X3103241Y1420179D01*
X3103044D01*
X3102355Y1420277D01*
X3101568Y1420376D01*
X3100781Y1420474D01*
Y1397350D01*
X3089465D01*
Y1454717D01*
X3089662Y1454816D01*
X3090055Y1455013D01*
X3090744Y1455209D01*
X3091728Y1455603D01*
X3092909Y1455898D01*
X3094188Y1456292D01*
X3095664Y1456686D01*
X3097238Y1457079D01*
X3097435D01*
X3098026Y1457178D01*
X3098911Y1457374D01*
X3100092Y1457571D01*
X3101470Y1457669D01*
X3103044Y1457866D01*
X3104815Y1457965D01*
X3107767D01*
X3108555Y1457866D01*
D02*
G37*
G36*
X3045579Y1428445D02*
X3058370D01*
Y1419687D01*
X3045579D01*
Y1406403D01*
X3036132D01*
Y1419687D01*
X3023340D01*
Y1428445D01*
X3036132D01*
Y1441729D01*
X3045579D01*
Y1428445D01*
D02*
G37*
G36*
X2950426Y1414964D02*
Y1414767D01*
Y1414177D01*
X2950327Y1413389D01*
X2950229Y1412307D01*
X2950032Y1411028D01*
X2949737Y1409650D01*
X2949343Y1408371D01*
X2948851Y1406994D01*
X2948753Y1406895D01*
X2948556Y1406403D01*
X2948162Y1405813D01*
X2947769Y1405025D01*
X2947080Y1404140D01*
X2946391Y1403156D01*
X2945506Y1402172D01*
X2944522Y1401286D01*
X2944423Y1401188D01*
X2944030Y1400893D01*
X2943439Y1400499D01*
X2942751Y1400007D01*
X2941767Y1399417D01*
X2940684Y1398826D01*
X2939503Y1398236D01*
X2938126Y1397744D01*
X2937929D01*
X2937535Y1397547D01*
X2936748Y1397350D01*
X2935764Y1397153D01*
X2934583Y1396957D01*
X2933206Y1396760D01*
X2931631Y1396661D01*
X2930057Y1396563D01*
X2929368D01*
X2928483Y1396661D01*
X2927400Y1396760D01*
X2926219Y1396858D01*
X2924842Y1397055D01*
X2923366Y1397350D01*
X2921988Y1397744D01*
X2921791Y1397842D01*
X2921398Y1397941D01*
X2920709Y1398236D01*
X2919823Y1398630D01*
X2918839Y1399121D01*
X2917757Y1399712D01*
X2916675Y1400499D01*
X2915592Y1401286D01*
X2915494Y1401385D01*
X2915100Y1401680D01*
X2914608Y1402172D01*
X2914018Y1402861D01*
X2913329Y1403746D01*
X2912640Y1404730D01*
X2911951Y1405813D01*
X2911262Y1406994D01*
X2911164Y1407190D01*
X2911066Y1407584D01*
X2910771Y1408371D01*
X2910574Y1409257D01*
X2910278Y1410438D01*
X2909983Y1411815D01*
X2909885Y1413291D01*
X2909787Y1414964D01*
Y1456882D01*
X2921398D01*
Y1414866D01*
Y1414669D01*
Y1414177D01*
X2921496Y1413488D01*
X2921693Y1412602D01*
X2921988Y1411618D01*
X2922480Y1410634D01*
X2923070Y1409552D01*
X2923858Y1408666D01*
X2923956Y1408568D01*
X2924350Y1408273D01*
X2924842Y1407977D01*
X2925629Y1407584D01*
X2926515Y1407092D01*
X2927597Y1406797D01*
X2928778Y1406502D01*
X2930057Y1406403D01*
X2930647D01*
X2931336Y1406502D01*
X2932222Y1406698D01*
X2933206Y1406994D01*
X2934288Y1407387D01*
X2935272Y1407879D01*
X2936256Y1408666D01*
X2936354Y1408765D01*
X2936650Y1409060D01*
X2937043Y1409552D01*
X2937535Y1410339D01*
X2938027Y1411225D01*
X2938421Y1412209D01*
X2938716Y1413488D01*
X2938814Y1414866D01*
Y1456882D01*
X2950426D01*
Y1414964D01*
D02*
G37*
G36*
X2731584D02*
Y1414767D01*
Y1414177D01*
X2731486Y1413389D01*
X2731387Y1412307D01*
X2731191Y1411028D01*
X2730895Y1409650D01*
X2730502Y1408371D01*
X2730010Y1406994D01*
X2729911Y1406895D01*
X2729715Y1406403D01*
X2729321Y1405813D01*
X2728927Y1405025D01*
X2728238Y1404140D01*
X2727550Y1403156D01*
X2726664Y1402172D01*
X2725680Y1401286D01*
X2725582Y1401188D01*
X2725188Y1400893D01*
X2724598Y1400499D01*
X2723909Y1400007D01*
X2722925Y1399417D01*
X2721843Y1398826D01*
X2720662Y1398236D01*
X2719284Y1397744D01*
X2719087D01*
X2718694Y1397547D01*
X2717907Y1397350D01*
X2716923Y1397153D01*
X2715742Y1396957D01*
X2714364Y1396760D01*
X2712790Y1396661D01*
X2711215Y1396563D01*
X2710526D01*
X2709641Y1396661D01*
X2708559Y1396760D01*
X2707378Y1396858D01*
X2706000Y1397055D01*
X2704524Y1397350D01*
X2703146Y1397744D01*
X2702950Y1397842D01*
X2702556Y1397941D01*
X2701867Y1398236D01*
X2700982Y1398630D01*
X2699998Y1399121D01*
X2698915Y1399712D01*
X2697833Y1400499D01*
X2696751Y1401286D01*
X2696652Y1401385D01*
X2696258Y1401680D01*
X2695767Y1402172D01*
X2695176Y1402861D01*
X2694487Y1403746D01*
X2693798Y1404730D01*
X2693110Y1405813D01*
X2692421Y1406994D01*
X2692323Y1407190D01*
X2692224Y1407584D01*
X2691929Y1408371D01*
X2691732Y1409257D01*
X2691437Y1410438D01*
X2691142Y1411815D01*
X2691043Y1413291D01*
X2690945Y1414964D01*
Y1456882D01*
X2702556D01*
Y1414866D01*
Y1414669D01*
Y1414177D01*
X2702655Y1413488D01*
X2702851Y1412602D01*
X2703146Y1411618D01*
X2703639Y1410634D01*
X2704229Y1409552D01*
X2705016Y1408666D01*
X2705115Y1408568D01*
X2705508Y1408273D01*
X2706000Y1407977D01*
X2706787Y1407584D01*
X2707673Y1407092D01*
X2708755Y1406797D01*
X2709936Y1406502D01*
X2711215Y1406403D01*
X2711806D01*
X2712494Y1406502D01*
X2713380Y1406698D01*
X2714364Y1406994D01*
X2715447Y1407387D01*
X2716430Y1407879D01*
X2717414Y1408666D01*
X2717513Y1408765D01*
X2717808Y1409060D01*
X2718202Y1409552D01*
X2718694Y1410339D01*
X2719186Y1411225D01*
X2719579Y1412209D01*
X2719874Y1413488D01*
X2719973Y1414866D01*
Y1456882D01*
X2731584D01*
Y1414964D01*
D02*
G37*
G36*
X2995296Y1447239D02*
X2982799D01*
Y1397350D01*
X2971188D01*
Y1447239D01*
X2958494D01*
Y1456882D01*
X2995296D01*
Y1447239D01*
D02*
G37*
G36*
X3156377Y1457866D02*
X3157459Y1457768D01*
X3158640Y1457571D01*
X3160018Y1457276D01*
X3161395Y1456981D01*
X3162970Y1456587D01*
X3164544Y1456095D01*
X3166119Y1455406D01*
X3167791Y1454619D01*
X3169366Y1453734D01*
X3170842Y1452651D01*
X3172318Y1451470D01*
X3173695Y1450093D01*
X3173794Y1449994D01*
X3173990Y1449699D01*
X3174384Y1449305D01*
X3174778Y1448617D01*
X3175270Y1447830D01*
X3175860Y1446845D01*
X3176549Y1445665D01*
X3177238Y1444287D01*
X3177828Y1442713D01*
X3178517Y1441040D01*
X3179107Y1439170D01*
X3179599Y1437104D01*
X3179993Y1434841D01*
X3180387Y1432479D01*
X3180583Y1429921D01*
X3180682Y1427166D01*
Y1426969D01*
Y1426477D01*
Y1425689D01*
X3180583Y1424706D01*
X3180485Y1423426D01*
X3180288Y1421950D01*
X3180091Y1420376D01*
X3179796Y1418605D01*
X3179403Y1416735D01*
X3179009Y1414866D01*
X3178419Y1412996D01*
X3177730Y1411028D01*
X3176943Y1409158D01*
X3175959Y1407387D01*
X3174974Y1405714D01*
X3173695Y1404140D01*
X3173597Y1404042D01*
X3173400Y1403845D01*
X3173006Y1403451D01*
X3172416Y1402959D01*
X3171727Y1402369D01*
X3170842Y1401680D01*
X3169858Y1400991D01*
X3168677Y1400302D01*
X3167398Y1399515D01*
X3165922Y1398826D01*
X3164347Y1398138D01*
X3162576Y1397547D01*
X3160706Y1397055D01*
X3158738Y1396661D01*
X3156574Y1396465D01*
X3154311Y1396366D01*
X3153425D01*
X3152539Y1396465D01*
X3151260D01*
X3149784Y1396563D01*
X3148210Y1396760D01*
X3144963Y1397252D01*
X3144766D01*
X3144274Y1397449D01*
X3143486Y1397646D01*
X3142503Y1397842D01*
X3141322Y1398236D01*
X3140239Y1398630D01*
X3139059Y1399023D01*
X3137976Y1399515D01*
Y1454717D01*
X3138075Y1454816D01*
X3138468Y1454914D01*
X3139059Y1455209D01*
X3139944Y1455505D01*
X3140928Y1455898D01*
X3142109Y1456292D01*
X3143486Y1456587D01*
X3145061Y1456981D01*
X3145258D01*
X3145848Y1457178D01*
X3146734Y1457276D01*
X3147816Y1457473D01*
X3149194Y1457669D01*
X3150768Y1457768D01*
X3152539Y1457965D01*
X3155491D01*
X3156377Y1457866D01*
D02*
G37*
G36*
X2879381D02*
X2880857Y1457669D01*
X2882431Y1457374D01*
X2884104Y1456882D01*
X2885875Y1456292D01*
X2887548Y1455505D01*
X2887646D01*
X2887745Y1455406D01*
X2888335Y1455111D01*
X2889122Y1454521D01*
X2890106Y1453832D01*
X2891287Y1452848D01*
X2892468Y1451765D01*
X2893649Y1450486D01*
X2894731Y1449010D01*
X2894830Y1448813D01*
X2895223Y1448322D01*
X2895715Y1447436D01*
X2896306Y1446255D01*
X2896994Y1444779D01*
X2897683Y1443205D01*
X2898372Y1441335D01*
X2898963Y1439269D01*
Y1439170D01*
X2899061Y1438974D01*
Y1438678D01*
X2899159Y1438285D01*
X2899356Y1437793D01*
X2899454Y1437202D01*
X2899750Y1435628D01*
X2899947Y1433857D01*
X2900242Y1431790D01*
X2900340Y1429527D01*
X2900439Y1427166D01*
Y1427067D01*
Y1426870D01*
Y1426477D01*
Y1426083D01*
Y1425493D01*
X2900340Y1424804D01*
X2900242Y1423131D01*
X2900045Y1421262D01*
X2899848Y1419195D01*
X2899454Y1417129D01*
X2898963Y1414964D01*
Y1414866D01*
X2898864Y1414767D01*
Y1414373D01*
X2898667Y1413980D01*
X2898372Y1412996D01*
X2897880Y1411618D01*
X2897290Y1410142D01*
X2896601Y1408469D01*
X2895715Y1406797D01*
X2894731Y1405222D01*
X2894633Y1405025D01*
X2894239Y1404534D01*
X2893649Y1403746D01*
X2892763Y1402861D01*
X2891779Y1401778D01*
X2890500Y1400696D01*
X2889122Y1399712D01*
X2887548Y1398728D01*
X2887351Y1398630D01*
X2886761Y1398334D01*
X2885875Y1397941D01*
X2884695Y1397547D01*
X2883120Y1397153D01*
X2881447Y1396760D01*
X2879479Y1396465D01*
X2877314Y1396366D01*
X2876331D01*
X2875248Y1396465D01*
X2873870Y1396661D01*
X2872296Y1396957D01*
X2870525Y1397350D01*
X2868754Y1397941D01*
X2867081Y1398728D01*
X2866884Y1398826D01*
X2866392Y1399121D01*
X2865605Y1399712D01*
X2864523Y1400401D01*
X2863440Y1401385D01*
X2862259Y1402467D01*
X2860980Y1403746D01*
X2859898Y1405222D01*
X2859799Y1405419D01*
X2859406Y1405911D01*
X2858914Y1406797D01*
X2858323Y1407977D01*
X2857635Y1409454D01*
X2856946Y1411126D01*
X2856257Y1412898D01*
X2855666Y1414964D01*
Y1415062D01*
X2855568Y1415259D01*
Y1415554D01*
X2855470Y1415948D01*
X2855371Y1416440D01*
X2855273Y1417129D01*
X2854978Y1418605D01*
X2854682Y1420376D01*
X2854486Y1422442D01*
X2854387Y1424706D01*
X2854289Y1427166D01*
Y1427264D01*
Y1427461D01*
Y1427756D01*
Y1428248D01*
Y1428838D01*
X2854387Y1429527D01*
X2854486Y1431101D01*
X2854584Y1432971D01*
X2854879Y1435037D01*
X2855175Y1437104D01*
X2855666Y1439269D01*
Y1439367D01*
X2855765Y1439564D01*
X2855863Y1439859D01*
X2855962Y1440253D01*
X2856257Y1441237D01*
X2856749Y1442614D01*
X2857339Y1444090D01*
X2858028Y1445763D01*
X2858914Y1447436D01*
X2859898Y1449010D01*
X2859996Y1449207D01*
X2860390Y1449699D01*
X2861079Y1450486D01*
X2861866Y1451372D01*
X2862948Y1452454D01*
X2864129Y1453537D01*
X2865506Y1454521D01*
X2867081Y1455505D01*
X2867179D01*
X2867278Y1455603D01*
X2867868Y1455898D01*
X2868754Y1456292D01*
X2870033Y1456784D01*
X2871509Y1457178D01*
X2873280Y1457571D01*
X2875248Y1457866D01*
X2877314Y1457965D01*
X2878298D01*
X2879381Y1457866D01*
D02*
G37*
G36*
X2804892D02*
X2806171Y1457768D01*
X2807746Y1457669D01*
X2809419Y1457473D01*
X2811091Y1457079D01*
X2812666Y1456686D01*
X2812764D01*
X2812863Y1456587D01*
X2813354Y1456489D01*
X2814142Y1456194D01*
X2815126Y1455800D01*
X2816208Y1455308D01*
X2817389Y1454717D01*
X2818471Y1454029D01*
X2819554Y1453242D01*
X2819652Y1453143D01*
X2820046Y1452848D01*
X2820538Y1452454D01*
X2821128Y1451864D01*
X2821817Y1451077D01*
X2822506Y1450191D01*
X2823096Y1449207D01*
X2823686Y1448125D01*
X2823785Y1448026D01*
X2823883Y1447633D01*
X2824080Y1447042D01*
X2824375Y1446255D01*
X2824671Y1445271D01*
X2824867Y1444189D01*
X2824966Y1442909D01*
X2825064Y1441630D01*
Y1441532D01*
Y1441237D01*
Y1440745D01*
X2824966Y1440056D01*
X2824867Y1439367D01*
X2824769Y1438580D01*
X2824277Y1436907D01*
Y1436809D01*
X2824178Y1436514D01*
X2823982Y1436120D01*
X2823686Y1435628D01*
X2822998Y1434349D01*
X2822112Y1432971D01*
X2822014Y1432873D01*
X2821915Y1432676D01*
X2821620Y1432381D01*
X2821227Y1431987D01*
X2820341Y1431003D01*
X2819160Y1430019D01*
X2819062D01*
X2818865Y1429822D01*
X2818570Y1429626D01*
X2818176Y1429429D01*
X2817094Y1428937D01*
X2815716Y1428445D01*
Y1428248D01*
X2815814D01*
X2816011Y1428149D01*
X2816405Y1428051D01*
X2816897Y1427854D01*
X2818078Y1427264D01*
X2819455Y1426477D01*
X2819554Y1426378D01*
X2819751Y1426280D01*
X2820144Y1425985D01*
X2820636Y1425689D01*
X2821718Y1424706D01*
X2822899Y1423426D01*
X2822998Y1423328D01*
X2823195Y1423131D01*
X2823490Y1422737D01*
X2823883Y1422245D01*
X2824277Y1421655D01*
X2824769Y1420868D01*
X2825556Y1419195D01*
X2825655Y1419097D01*
X2825753Y1418802D01*
X2825950Y1418211D01*
X2826146Y1417522D01*
X2826343Y1416735D01*
X2826442Y1415751D01*
X2826639Y1414669D01*
Y1413488D01*
Y1413389D01*
Y1413094D01*
Y1412701D01*
X2826540Y1412209D01*
X2826442Y1411520D01*
X2826343Y1410733D01*
X2825851Y1408863D01*
X2825162Y1406895D01*
X2824671Y1405813D01*
X2824080Y1404730D01*
X2823391Y1403746D01*
X2822604Y1402762D01*
X2821718Y1401778D01*
X2820636Y1400893D01*
X2820538D01*
X2820341Y1400696D01*
X2820046Y1400499D01*
X2819554Y1400204D01*
X2818865Y1399810D01*
X2818176Y1399417D01*
X2817291Y1399023D01*
X2816208Y1398630D01*
X2815027Y1398236D01*
X2813748Y1397842D01*
X2812272Y1397449D01*
X2810698Y1397055D01*
X2809025Y1396760D01*
X2807155Y1396563D01*
X2805187Y1396465D01*
X2803023Y1396366D01*
X2802137D01*
X2801153Y1396465D01*
X2799874D01*
X2798299Y1396563D01*
X2796626Y1396760D01*
X2794757Y1396957D01*
X2792887Y1397252D01*
X2792691D01*
X2792100Y1397449D01*
X2791215Y1397646D01*
X2790034Y1397842D01*
X2788755Y1398236D01*
X2787475Y1398630D01*
X2786098Y1399023D01*
X2784917Y1399515D01*
Y1454717D01*
X2785114Y1454816D01*
X2785507Y1454914D01*
X2786196Y1455209D01*
X2787180Y1455505D01*
X2788361Y1455898D01*
X2789738Y1456292D01*
X2791215Y1456587D01*
X2792887Y1456981D01*
X2793084D01*
X2793675Y1457178D01*
X2794659Y1457276D01*
X2795938Y1457473D01*
X2797414Y1457669D01*
X2799086Y1457768D01*
X2800858Y1457965D01*
X2803810D01*
X2804892Y1457866D01*
D02*
G37*
G36*
X445939Y834606D02*
X447120Y834508D01*
X448399Y834311D01*
X451055Y833819D01*
X451252D01*
X451646Y833720D01*
X452335Y833524D01*
X453122Y833228D01*
X454106Y832933D01*
X455188Y832539D01*
X457353Y831457D01*
X453712Y822109D01*
X453614Y822207D01*
X453319Y822306D01*
X452925Y822503D01*
X452335Y822798D01*
X451744Y823093D01*
X450957Y823388D01*
X449186Y823979D01*
X449087D01*
X448792Y824077D01*
X448300Y824176D01*
X447611Y824372D01*
X446824Y824471D01*
X445939Y824569D01*
X443971Y824668D01*
X443380D01*
X442593Y824569D01*
X441806Y824471D01*
X440822Y824176D01*
X439740Y823880D01*
X438755Y823388D01*
X437870Y822699D01*
X437772Y822601D01*
X437575Y822404D01*
X437181Y821912D01*
X436788Y821420D01*
X436394Y820633D01*
X436000Y819846D01*
X435803Y818764D01*
X435705Y817681D01*
Y817583D01*
Y817288D01*
X435803Y816795D01*
X435902Y816205D01*
X436099Y815516D01*
X436394Y814827D01*
X436788Y814139D01*
X437378Y813450D01*
X437476Y813351D01*
X437673Y813155D01*
X438067Y812860D01*
X438559Y812466D01*
X439248Y811974D01*
X439936Y811384D01*
X441707Y810301D01*
X441806Y810203D01*
X442200Y810006D01*
X442692Y809711D01*
X443380Y809415D01*
X444266Y808923D01*
X445250Y808432D01*
X447415Y807349D01*
X447513Y807251D01*
X447907Y807054D01*
X448497Y806759D01*
X449284Y806365D01*
X450170Y805775D01*
X451055Y805184D01*
X453024Y803708D01*
X453122Y803610D01*
X453515Y803315D01*
X453909Y802921D01*
X454598Y802331D01*
X455287Y801543D01*
X455976Y800756D01*
X456664Y799772D01*
X457353Y798690D01*
X457452Y798591D01*
X457648Y798198D01*
X457943Y797509D01*
X458239Y796624D01*
X458534Y795639D01*
X458829Y794360D01*
X459026Y792884D01*
X459124Y791310D01*
Y791113D01*
Y790621D01*
X459026Y789834D01*
X458928Y788850D01*
X458829Y787669D01*
X458534Y786390D01*
X458239Y785111D01*
X457747Y783832D01*
X457648Y783733D01*
X457452Y783241D01*
X457156Y782651D01*
X456763Y781864D01*
X456172Y780978D01*
X455483Y780092D01*
X454696Y779108D01*
X453712Y778124D01*
X453614Y778026D01*
X453220Y777731D01*
X452728Y777239D01*
X451941Y776747D01*
X451055Y776156D01*
X449973Y775467D01*
X448694Y774877D01*
X447316Y774385D01*
X447120Y774287D01*
X446627Y774188D01*
X445840Y773991D01*
X444856Y773795D01*
X443577Y773500D01*
X442101Y773303D01*
X440527Y773204D01*
X438755Y773106D01*
X437279D01*
X436197Y773204D01*
X435016Y773303D01*
X433639Y773401D01*
X430687Y773893D01*
X430490D01*
X429998Y773991D01*
X429309Y774188D01*
X428325Y774484D01*
X427243Y774779D01*
X425964Y775172D01*
X423405Y776255D01*
X427243Y786292D01*
X427341D01*
X427636Y786095D01*
X428128Y785898D01*
X428817Y785603D01*
X429604Y785308D01*
X430490Y785012D01*
X432458Y784323D01*
X432556D01*
X432950Y784225D01*
X433540Y784127D01*
X434229Y783930D01*
X435115Y783832D01*
X436099Y783635D01*
X438165Y783536D01*
X438854D01*
X439641Y783635D01*
X440625Y783832D01*
X441609Y784028D01*
X442692Y784323D01*
X443774Y784816D01*
X444758Y785504D01*
X444856Y785603D01*
X445151Y785898D01*
X445545Y786292D01*
X446037Y786882D01*
X446431Y787669D01*
X446824Y788555D01*
X447120Y789539D01*
X447218Y790720D01*
Y790818D01*
Y791113D01*
X447120Y791605D01*
X447021Y792196D01*
X446824Y792884D01*
X446431Y793573D01*
X446037Y794262D01*
X445447Y794951D01*
X445348Y795049D01*
X445151Y795246D01*
X444758Y795541D01*
X444266Y796033D01*
X443675Y796525D01*
X442987Y797017D01*
X442101Y797607D01*
X441216Y798100D01*
X441117Y798198D01*
X440724Y798395D01*
X440231Y798690D01*
X439543Y798985D01*
X438755Y799477D01*
X437772Y799969D01*
X435607Y800953D01*
X435508Y801052D01*
X435115Y801248D01*
X434524Y801543D01*
X433836Y801937D01*
X432950Y802429D01*
X432064Y803118D01*
X430096Y804495D01*
X429998Y804594D01*
X429703Y804889D01*
X429211Y805283D01*
X428620Y805873D01*
X427932Y806660D01*
X427243Y807447D01*
X426455Y808432D01*
X425767Y809514D01*
X425668Y809612D01*
X425471Y810104D01*
X425275Y810695D01*
X424979Y811580D01*
X424586Y812663D01*
X424389Y813942D01*
X424192Y815418D01*
X424094Y816992D01*
Y817189D01*
Y817681D01*
X424192Y818468D01*
X424291Y819452D01*
X424389Y820535D01*
X424684Y821814D01*
X424979Y822995D01*
X425471Y824274D01*
X425570Y824372D01*
X425767Y824864D01*
X426062Y825455D01*
X426455Y826144D01*
X427046Y827029D01*
X427636Y828013D01*
X428423Y828899D01*
X429309Y829784D01*
X429408Y829883D01*
X429801Y830178D01*
X430293Y830572D01*
X431080Y831162D01*
X431966Y831752D01*
X432950Y832343D01*
X434131Y832933D01*
X435410Y833425D01*
X435607Y833524D01*
X436099Y833622D01*
X436788Y833819D01*
X437772Y834114D01*
X438952Y834311D01*
X440330Y834508D01*
X441904Y834606D01*
X443479Y834704D01*
X444955D01*
X445939Y834606D01*
D02*
G37*
G36*
X606232Y774090D02*
X596688D01*
X575335Y809415D01*
X575236Y809514D01*
X575138Y809809D01*
X574843Y810301D01*
X574449Y810891D01*
X573760Y812269D01*
X572973Y813745D01*
Y813843D01*
X572875Y814040D01*
X572678Y814434D01*
X572481Y814827D01*
X572087Y815713D01*
X571891Y816107D01*
X571792Y816402D01*
X571596D01*
Y816303D01*
Y816205D01*
Y815910D01*
X571694Y815615D01*
Y814631D01*
Y813351D01*
Y813253D01*
Y813056D01*
Y812564D01*
X571792Y812072D01*
Y811384D01*
Y810596D01*
Y809612D01*
Y808628D01*
Y774090D01*
X561952D01*
Y833622D01*
X571891D01*
X592751Y799280D01*
X592850Y799182D01*
X592948Y798887D01*
X593145Y798493D01*
X593440Y798001D01*
X594129Y796624D01*
X594818Y795246D01*
Y795148D01*
X595015Y794951D01*
X595113Y794557D01*
X595408Y794163D01*
X595900Y793179D01*
X596294Y792196D01*
X596392D01*
Y792392D01*
Y792884D01*
Y793278D01*
Y793770D01*
X596294Y794459D01*
Y795148D01*
Y795246D01*
Y795541D01*
Y796033D01*
Y796624D01*
Y797312D01*
Y798198D01*
Y799182D01*
Y800264D01*
Y833622D01*
X606232D01*
Y774090D01*
D02*
G37*
G36*
X414844Y791703D02*
Y791507D01*
Y790916D01*
X414746Y790129D01*
X414647Y789047D01*
X414451Y787768D01*
X414156Y786390D01*
X413762Y785111D01*
X413270Y783733D01*
X413171Y783635D01*
X412975Y783143D01*
X412581Y782552D01*
X412188Y781765D01*
X411499Y780880D01*
X410810Y779895D01*
X409924Y778912D01*
X408940Y778026D01*
X408842Y777928D01*
X408448Y777632D01*
X407858Y777239D01*
X407169Y776747D01*
X406185Y776156D01*
X405103Y775566D01*
X403922Y774976D01*
X402544Y774484D01*
X402348D01*
X401954Y774287D01*
X401167Y774090D01*
X400183Y773893D01*
X399002Y773696D01*
X397624Y773500D01*
X396050Y773401D01*
X394476Y773303D01*
X393787D01*
X392901Y773401D01*
X391819Y773500D01*
X390638Y773598D01*
X389260Y773795D01*
X387784Y774090D01*
X386407Y774484D01*
X386210Y774582D01*
X385816Y774680D01*
X385127Y774976D01*
X384242Y775369D01*
X383258Y775861D01*
X382175Y776452D01*
X381093Y777239D01*
X380011Y778026D01*
X379912Y778124D01*
X379519Y778419D01*
X379027Y778912D01*
X378436Y779600D01*
X377748Y780486D01*
X377059Y781470D01*
X376370Y782552D01*
X375681Y783733D01*
X375583Y783930D01*
X375484Y784323D01*
X375189Y785111D01*
X374992Y785996D01*
X374697Y787177D01*
X374402Y788555D01*
X374303Y790031D01*
X374205Y791703D01*
Y833622D01*
X385816D01*
Y791605D01*
Y791408D01*
Y790916D01*
X385915Y790227D01*
X386111Y789342D01*
X386407Y788358D01*
X386899Y787374D01*
X387489Y786292D01*
X388276Y785406D01*
X388375Y785308D01*
X388768Y785012D01*
X389260Y784717D01*
X390048Y784323D01*
X390933Y783832D01*
X392015Y783536D01*
X393196Y783241D01*
X394476Y783143D01*
X395066D01*
X395755Y783241D01*
X396640Y783438D01*
X397624Y783733D01*
X398707Y784127D01*
X399691Y784619D01*
X400675Y785406D01*
X400773Y785504D01*
X401068Y785799D01*
X401462Y786292D01*
X401954Y787079D01*
X402446Y787964D01*
X402839Y788948D01*
X403135Y790227D01*
X403233Y791605D01*
Y833622D01*
X414844D01*
Y791703D01*
D02*
G37*
G36*
X550932Y774090D02*
X539320D01*
Y833622D01*
X550932D01*
Y774090D01*
D02*
G37*
G36*
X488152Y834606D02*
X489432Y834508D01*
X491006Y834409D01*
X492679Y834212D01*
X494351Y833819D01*
X495926Y833425D01*
X496024D01*
X496123Y833327D01*
X496615Y833228D01*
X497402Y832933D01*
X498386Y832539D01*
X499468Y832048D01*
X500649Y831457D01*
X501731Y830768D01*
X502814Y829981D01*
X502912Y829883D01*
X503306Y829587D01*
X503798Y829194D01*
X504388Y828604D01*
X505077Y827816D01*
X505766Y826931D01*
X506356Y825947D01*
X506947Y824864D01*
X507045Y824766D01*
X507144Y824372D01*
X507340Y823782D01*
X507635Y822995D01*
X507931Y822011D01*
X508127Y820928D01*
X508226Y819649D01*
X508324Y818370D01*
Y818271D01*
Y817976D01*
Y817484D01*
X508226Y816795D01*
X508127Y816107D01*
X508029Y815319D01*
X507537Y813647D01*
Y813548D01*
X507439Y813253D01*
X507242Y812860D01*
X506947Y812367D01*
X506258Y811088D01*
X505372Y809711D01*
X505274Y809612D01*
X505175Y809415D01*
X504880Y809120D01*
X504487Y808727D01*
X503601Y807743D01*
X502420Y806759D01*
X502322D01*
X502125Y806562D01*
X501830Y806365D01*
X501436Y806168D01*
X500354Y805676D01*
X498976Y805184D01*
Y804987D01*
X499075D01*
X499272Y804889D01*
X499665Y804791D01*
X500157Y804594D01*
X501338Y804004D01*
X502716Y803216D01*
X502814Y803118D01*
X503011Y803019D01*
X503404Y802724D01*
X503896Y802429D01*
X504979Y801445D01*
X506159Y800166D01*
X506258Y800067D01*
X506455Y799871D01*
X506750Y799477D01*
X507144Y798985D01*
X507537Y798395D01*
X508029Y797607D01*
X508816Y795935D01*
X508915Y795836D01*
X509013Y795541D01*
X509210Y794951D01*
X509407Y794262D01*
X509603Y793475D01*
X509702Y792491D01*
X509899Y791408D01*
Y790227D01*
Y790129D01*
Y789834D01*
Y789440D01*
X509800Y788948D01*
X509702Y788260D01*
X509603Y787472D01*
X509111Y785603D01*
X508423Y783635D01*
X507931Y782552D01*
X507340Y781470D01*
X506651Y780486D01*
X505864Y779502D01*
X504979Y778518D01*
X503896Y777632D01*
X503798D01*
X503601Y777436D01*
X503306Y777239D01*
X502814Y776943D01*
X502125Y776550D01*
X501436Y776156D01*
X500551Y775763D01*
X499468Y775369D01*
X498288Y774976D01*
X497008Y774582D01*
X495532Y774188D01*
X493958Y773795D01*
X492285Y773500D01*
X490416Y773303D01*
X488447Y773204D01*
X486283Y773106D01*
X485397D01*
X484413Y773204D01*
X483134D01*
X481560Y773303D01*
X479887Y773500D01*
X478017Y773696D01*
X476147Y773991D01*
X475951D01*
X475360Y774188D01*
X474475Y774385D01*
X473294Y774582D01*
X472015Y774976D01*
X470736Y775369D01*
X469358Y775763D01*
X468177Y776255D01*
Y831457D01*
X468374Y831556D01*
X468767Y831654D01*
X469456Y831949D01*
X470440Y832244D01*
X471621Y832638D01*
X472999Y833032D01*
X474475Y833327D01*
X476147Y833720D01*
X476344D01*
X476935Y833917D01*
X477919Y834015D01*
X479198Y834212D01*
X480674Y834409D01*
X482347Y834508D01*
X484118Y834704D01*
X487070D01*
X488152Y834606D01*
D02*
G37*
G36*
X1083677Y769370D02*
X1084857Y769272D01*
X1086137Y769075D01*
X1088793Y768583D01*
X1088990D01*
X1089384Y768485D01*
X1090072Y768288D01*
X1090860Y767993D01*
X1091844Y767697D01*
X1092926Y767304D01*
X1095091Y766221D01*
X1091450Y756873D01*
X1091352Y756972D01*
X1091056Y757070D01*
X1090663Y757267D01*
X1090072Y757562D01*
X1089482Y757857D01*
X1088695Y758153D01*
X1086924Y758743D01*
X1086825D01*
X1086530Y758841D01*
X1086038Y758940D01*
X1085349Y759137D01*
X1084562Y759235D01*
X1083677Y759333D01*
X1081708Y759432D01*
X1081118D01*
X1080331Y759333D01*
X1079544Y759235D01*
X1078560Y758940D01*
X1077477Y758645D01*
X1076493Y758153D01*
X1075608Y757464D01*
X1075509Y757365D01*
X1075312Y757169D01*
X1074919Y756677D01*
X1074525Y756185D01*
X1074132Y755397D01*
X1073738Y754610D01*
X1073541Y753528D01*
X1073443Y752445D01*
Y752347D01*
Y752052D01*
X1073541Y751560D01*
X1073640Y750969D01*
X1073836Y750281D01*
X1074132Y749592D01*
X1074525Y748903D01*
X1075116Y748214D01*
X1075214Y748116D01*
X1075411Y747919D01*
X1075804Y747624D01*
X1076296Y747230D01*
X1076985Y746738D01*
X1077674Y746148D01*
X1079445Y745065D01*
X1079544Y744967D01*
X1079937Y744770D01*
X1080429Y744475D01*
X1081118Y744180D01*
X1082004Y743688D01*
X1082988Y743196D01*
X1085152Y742113D01*
X1085251Y742015D01*
X1085645Y741818D01*
X1086235Y741523D01*
X1087022Y741129D01*
X1087908Y740539D01*
X1088793Y739949D01*
X1090761Y738473D01*
X1090860Y738374D01*
X1091253Y738079D01*
X1091647Y737685D01*
X1092336Y737095D01*
X1093024Y736308D01*
X1093713Y735521D01*
X1094402Y734537D01*
X1095091Y733454D01*
X1095189Y733356D01*
X1095386Y732962D01*
X1095681Y732273D01*
X1095976Y731388D01*
X1096272Y730404D01*
X1096567Y729125D01*
X1096764Y727649D01*
X1096862Y726074D01*
Y725877D01*
Y725385D01*
X1096764Y724598D01*
X1096665Y723614D01*
X1096567Y722433D01*
X1096272Y721154D01*
X1095976Y719875D01*
X1095485Y718596D01*
X1095386Y718497D01*
X1095189Y718005D01*
X1094894Y717415D01*
X1094501Y716628D01*
X1093910Y715742D01*
X1093221Y714857D01*
X1092434Y713873D01*
X1091450Y712889D01*
X1091352Y712790D01*
X1090958Y712495D01*
X1090466Y712003D01*
X1089679Y711511D01*
X1088793Y710921D01*
X1087711Y710232D01*
X1086432Y709641D01*
X1085054Y709149D01*
X1084857Y709051D01*
X1084365Y708953D01*
X1083578Y708756D01*
X1082594Y708559D01*
X1081315Y708264D01*
X1079839Y708067D01*
X1078264Y707969D01*
X1076493Y707870D01*
X1075017D01*
X1073935Y707969D01*
X1072754Y708067D01*
X1071377Y708165D01*
X1068425Y708657D01*
X1068228D01*
X1067736Y708756D01*
X1067047Y708953D01*
X1066063Y709248D01*
X1064980Y709543D01*
X1063701Y709937D01*
X1061143Y711019D01*
X1064980Y721056D01*
X1065079D01*
X1065374Y720859D01*
X1065866Y720662D01*
X1066555Y720367D01*
X1067342Y720072D01*
X1068228Y719777D01*
X1070196Y719088D01*
X1070294D01*
X1070688Y718989D01*
X1071278Y718891D01*
X1071967Y718694D01*
X1072852Y718596D01*
X1073836Y718399D01*
X1075903Y718301D01*
X1076592D01*
X1077379Y718399D01*
X1078363Y718596D01*
X1079347Y718793D01*
X1080429Y719088D01*
X1081512Y719580D01*
X1082496Y720269D01*
X1082594Y720367D01*
X1082889Y720662D01*
X1083283Y721056D01*
X1083775Y721646D01*
X1084168Y722433D01*
X1084562Y723319D01*
X1084857Y724303D01*
X1084956Y725484D01*
Y725582D01*
Y725877D01*
X1084857Y726369D01*
X1084759Y726960D01*
X1084562Y727649D01*
X1084168Y728337D01*
X1083775Y729026D01*
X1083185Y729715D01*
X1083086Y729813D01*
X1082889Y730010D01*
X1082496Y730305D01*
X1082004Y730797D01*
X1081413Y731289D01*
X1080725Y731781D01*
X1079839Y732372D01*
X1078953Y732864D01*
X1078855Y732962D01*
X1078461Y733159D01*
X1077969Y733454D01*
X1077281Y733749D01*
X1076493Y734241D01*
X1075509Y734733D01*
X1073344Y735717D01*
X1073246Y735816D01*
X1072852Y736013D01*
X1072262Y736308D01*
X1071573Y736701D01*
X1070688Y737193D01*
X1069802Y737882D01*
X1067834Y739260D01*
X1067736Y739358D01*
X1067440Y739653D01*
X1066948Y740047D01*
X1066358Y740637D01*
X1065669Y741425D01*
X1064980Y742212D01*
X1064193Y743196D01*
X1063505Y744278D01*
X1063406Y744377D01*
X1063209Y744869D01*
X1063013Y745459D01*
X1062717Y746345D01*
X1062324Y747427D01*
X1062127Y748706D01*
X1061930Y750182D01*
X1061832Y751757D01*
Y751953D01*
Y752445D01*
X1061930Y753233D01*
X1062028Y754217D01*
X1062127Y755299D01*
X1062422Y756578D01*
X1062717Y757759D01*
X1063209Y759038D01*
X1063308Y759137D01*
X1063505Y759629D01*
X1063800Y760219D01*
X1064193Y760908D01*
X1064784Y761793D01*
X1065374Y762777D01*
X1066161Y763663D01*
X1067047Y764549D01*
X1067145Y764647D01*
X1067539Y764942D01*
X1068031Y765336D01*
X1068818Y765926D01*
X1069704Y766517D01*
X1070688Y767107D01*
X1071869Y767697D01*
X1073148Y768189D01*
X1073344Y768288D01*
X1073836Y768386D01*
X1074525Y768583D01*
X1075509Y768878D01*
X1076690Y769075D01*
X1078068Y769272D01*
X1079642Y769370D01*
X1081216Y769469D01*
X1082693D01*
X1083677Y769370D01*
D02*
G37*
G36*
X1147341Y708854D02*
X1135730D01*
Y734241D01*
X1117526D01*
Y708854D01*
X1105915D01*
Y768386D01*
X1117526D01*
Y743786D01*
X1135730D01*
Y768386D01*
X1147341D01*
Y708854D01*
D02*
G37*
G36*
X1254794D02*
X1245249D01*
X1223897Y744180D01*
X1223798Y744278D01*
X1223700Y744573D01*
X1223405Y745065D01*
X1223011Y745656D01*
X1222322Y747033D01*
X1221535Y748509D01*
Y748608D01*
X1221437Y748805D01*
X1221240Y749198D01*
X1221043Y749592D01*
X1220649Y750477D01*
X1220453Y750871D01*
X1220354Y751166D01*
X1220157D01*
Y751068D01*
Y750969D01*
Y750674D01*
X1220256Y750379D01*
Y749395D01*
Y748116D01*
Y748017D01*
Y747821D01*
Y747329D01*
X1220354Y746837D01*
Y746148D01*
Y745361D01*
Y744377D01*
Y743393D01*
Y708854D01*
X1210514D01*
Y768386D01*
X1220453D01*
X1241313Y734045D01*
X1241412Y733946D01*
X1241510Y733651D01*
X1241707Y733257D01*
X1242002Y732765D01*
X1242691Y731388D01*
X1243380Y730010D01*
Y729912D01*
X1243576Y729715D01*
X1243675Y729321D01*
X1243970Y728928D01*
X1244462Y727944D01*
X1244856Y726960D01*
X1244954D01*
Y727157D01*
Y727649D01*
Y728042D01*
Y728534D01*
X1244856Y729223D01*
Y729912D01*
Y730010D01*
Y730305D01*
Y730797D01*
Y731388D01*
Y732077D01*
Y732962D01*
Y733946D01*
Y735029D01*
Y768386D01*
X1254794D01*
Y708854D01*
D02*
G37*
G36*
X1176861Y769370D02*
X1177944Y769272D01*
X1179124Y769075D01*
X1180502Y768780D01*
X1181880Y768485D01*
X1183454Y768091D01*
X1185028Y767599D01*
X1186603Y766910D01*
X1188276Y766123D01*
X1189850Y765237D01*
X1191326Y764155D01*
X1192802Y762974D01*
X1194180Y761597D01*
X1194278Y761498D01*
X1194475Y761203D01*
X1194869Y760809D01*
X1195262Y760121D01*
X1195754Y759333D01*
X1196344Y758349D01*
X1197033Y757169D01*
X1197722Y755791D01*
X1198312Y754217D01*
X1199001Y752544D01*
X1199592Y750674D01*
X1200084Y748608D01*
X1200477Y746345D01*
X1200871Y743983D01*
X1201068Y741425D01*
X1201166Y738669D01*
Y738473D01*
Y737981D01*
Y737193D01*
X1201068Y736209D01*
X1200969Y734930D01*
X1200773Y733454D01*
X1200576Y731880D01*
X1200281Y730109D01*
X1199887Y728239D01*
X1199493Y726369D01*
X1198903Y724500D01*
X1198214Y722532D01*
X1197427Y720662D01*
X1196443Y718891D01*
X1195459Y717218D01*
X1194180Y715644D01*
X1194081Y715545D01*
X1193884Y715349D01*
X1193491Y714955D01*
X1192900Y714463D01*
X1192212Y713873D01*
X1191326Y713184D01*
X1190342Y712495D01*
X1189161Y711806D01*
X1187882Y711019D01*
X1186406Y710330D01*
X1184832Y709641D01*
X1183061Y709051D01*
X1181191Y708559D01*
X1179223Y708165D01*
X1177058Y707969D01*
X1174795Y707870D01*
X1173909D01*
X1173024Y707969D01*
X1171745D01*
X1170268Y708067D01*
X1168694Y708264D01*
X1165447Y708756D01*
X1165250D01*
X1164758Y708953D01*
X1163971Y709149D01*
X1162987Y709346D01*
X1161806Y709740D01*
X1160724Y710133D01*
X1159543Y710527D01*
X1158460Y711019D01*
Y766221D01*
X1158559Y766320D01*
X1158953Y766418D01*
X1159543Y766713D01*
X1160428Y767009D01*
X1161412Y767402D01*
X1162593Y767796D01*
X1163971Y768091D01*
X1165545Y768485D01*
X1165742D01*
X1166332Y768681D01*
X1167218Y768780D01*
X1168301Y768977D01*
X1169678Y769173D01*
X1171253Y769272D01*
X1173024Y769469D01*
X1175976D01*
X1176861Y769370D01*
D02*
G37*
G36*
X367512Y1284638D02*
X368791Y1284540D01*
X370267Y1284343D01*
X373219Y1283752D01*
X373416D01*
X373908Y1283555D01*
X374597Y1283359D01*
X375581Y1283162D01*
X376565Y1282768D01*
X377647Y1282473D01*
X378631Y1281981D01*
X379615Y1281489D01*
X375974Y1272436D01*
X375876D01*
X375679Y1272633D01*
X375285Y1272830D01*
X374793Y1273027D01*
X374105Y1273322D01*
X373317Y1273519D01*
X372432Y1273814D01*
X371448Y1274109D01*
X371349D01*
X370956Y1274207D01*
X370365Y1274306D01*
X369677Y1274503D01*
X368693Y1274601D01*
X367610Y1274699D01*
X366429Y1274798D01*
X364560D01*
X363871Y1274699D01*
X362985Y1274601D01*
X362001Y1274503D01*
X360821Y1274306D01*
X359640Y1273912D01*
X358459Y1273519D01*
X358361Y1273420D01*
X357967Y1273322D01*
X357377Y1273027D01*
X356688Y1272633D01*
X355802Y1272043D01*
X354917Y1271452D01*
X354031Y1270567D01*
X353145Y1269681D01*
X353047Y1269583D01*
X352752Y1269189D01*
X352358Y1268697D01*
X351866Y1267910D01*
X351276Y1266926D01*
X350685Y1265843D01*
X350095Y1264564D01*
X349505Y1263187D01*
X349406Y1262990D01*
X349308Y1262498D01*
X349111Y1261711D01*
X348914Y1260628D01*
X348619Y1259251D01*
X348422Y1257676D01*
X348324Y1255905D01*
X348225Y1253937D01*
Y1253839D01*
Y1253740D01*
Y1253445D01*
Y1253052D01*
X348324Y1252068D01*
X348422Y1250788D01*
X348521Y1249312D01*
X348717Y1247836D01*
X349013Y1246262D01*
X349406Y1244688D01*
X349505Y1244491D01*
X349603Y1243999D01*
X349898Y1243310D01*
X350292Y1242424D01*
X350685Y1241342D01*
X351276Y1240259D01*
X351965Y1239177D01*
X352653Y1238095D01*
X352752Y1237996D01*
X353047Y1237701D01*
X353441Y1237209D01*
X354031Y1236619D01*
X354720Y1235930D01*
X355507Y1235340D01*
X356393Y1234651D01*
X357377Y1234159D01*
X357475Y1234060D01*
X357869Y1233962D01*
X358361Y1233765D01*
X359049Y1233568D01*
X359935Y1233273D01*
X360821Y1233076D01*
X361805Y1232978D01*
X362887Y1232880D01*
X364166D01*
X365445Y1232978D01*
X366725Y1233076D01*
X366823D01*
X367020Y1233175D01*
X367709Y1233273D01*
X368496Y1233470D01*
X369185Y1233765D01*
Y1250395D01*
X360132D01*
Y1259251D01*
X380107D01*
Y1226287D01*
X380009Y1226188D01*
X379713Y1226090D01*
X379123Y1225795D01*
X378434Y1225499D01*
X377450Y1225204D01*
X376269Y1224811D01*
X374990Y1224515D01*
X373416Y1224122D01*
X373219D01*
X372629Y1223925D01*
X371743Y1223827D01*
X370562Y1223630D01*
X369185Y1223433D01*
X367512Y1223335D01*
X365642Y1223138D01*
X362592D01*
X362100Y1223236D01*
X361411D01*
X359935Y1223433D01*
X358262Y1223630D01*
X356294Y1224024D01*
X354425Y1224515D01*
X352457Y1225204D01*
X352358D01*
X352260Y1225303D01*
X351965Y1225401D01*
X351669Y1225598D01*
X350685Y1226090D01*
X349505Y1226779D01*
X348127Y1227664D01*
X346749Y1228747D01*
X345273Y1230026D01*
X343896Y1231403D01*
X343699Y1231600D01*
X343305Y1232092D01*
X342715Y1232978D01*
X341928Y1234159D01*
X341042Y1235536D01*
X340157Y1237209D01*
X339271Y1239079D01*
X338484Y1241145D01*
Y1241244D01*
X338385Y1241440D01*
X338287Y1241736D01*
X338189Y1242129D01*
X338090Y1242719D01*
X337893Y1243310D01*
X337598Y1244884D01*
X337205Y1246754D01*
X336909Y1248919D01*
X336713Y1251379D01*
X336614Y1253937D01*
Y1254035D01*
Y1254232D01*
Y1254626D01*
Y1255118D01*
X336713Y1255708D01*
Y1256495D01*
X336909Y1258168D01*
X337106Y1260136D01*
X337401Y1262203D01*
X337893Y1264466D01*
X338582Y1266631D01*
Y1266729D01*
X338681Y1266926D01*
X338779Y1267221D01*
X338976Y1267615D01*
X339468Y1268697D01*
X340058Y1269976D01*
X340845Y1271551D01*
X341829Y1273125D01*
X343010Y1274798D01*
X344289Y1276372D01*
X344486Y1276569D01*
X344978Y1277061D01*
X345765Y1277750D01*
X346848Y1278636D01*
X348127Y1279620D01*
X349603Y1280702D01*
X351276Y1281686D01*
X353145Y1282572D01*
X353244D01*
X353342Y1282670D01*
X353637Y1282768D01*
X354031Y1282867D01*
X355113Y1283260D01*
X356589Y1283654D01*
X358262Y1284047D01*
X360230Y1284441D01*
X362395Y1284638D01*
X364658Y1284736D01*
X366331D01*
X367512Y1284638D01*
D02*
G37*
G36*
X435113Y1224122D02*
X425568D01*
X404215Y1259447D01*
X404117Y1259546D01*
X404018Y1259841D01*
X403723Y1260333D01*
X403329Y1260924D01*
X402641Y1262301D01*
X401853Y1263777D01*
Y1263876D01*
X401755Y1264072D01*
X401558Y1264466D01*
X401361Y1264860D01*
X400968Y1265745D01*
X400771Y1266139D01*
X400673Y1266434D01*
X400476D01*
Y1266335D01*
Y1266237D01*
Y1265942D01*
X400574Y1265647D01*
Y1264663D01*
Y1263383D01*
Y1263285D01*
Y1263088D01*
Y1262596D01*
X400673Y1262104D01*
Y1261416D01*
Y1260628D01*
Y1259644D01*
Y1258660D01*
Y1224122D01*
X390833D01*
Y1283654D01*
X400771D01*
X421632Y1249312D01*
X421730Y1249214D01*
X421829Y1248919D01*
X422025Y1248525D01*
X422321Y1248033D01*
X423009Y1246656D01*
X423698Y1245278D01*
Y1245179D01*
X423895Y1244983D01*
X423993Y1244589D01*
X424289Y1244196D01*
X424781Y1243211D01*
X425174Y1242227D01*
X425273D01*
Y1242424D01*
Y1242916D01*
Y1243310D01*
Y1243802D01*
X425174Y1244491D01*
Y1245179D01*
Y1245278D01*
Y1245573D01*
Y1246065D01*
Y1246656D01*
Y1247344D01*
Y1248230D01*
Y1249214D01*
Y1250296D01*
Y1283654D01*
X435113D01*
Y1224122D01*
D02*
G37*
G36*
X464534Y1284638D02*
X465617Y1284540D01*
X466797Y1284343D01*
X468175Y1284047D01*
X469553Y1283752D01*
X471127Y1283359D01*
X472701Y1282867D01*
X474276Y1282178D01*
X475949Y1281391D01*
X477523Y1280505D01*
X478999Y1279423D01*
X480475Y1278242D01*
X481853Y1276864D01*
X481951Y1276766D01*
X482148Y1276471D01*
X482541Y1276077D01*
X482935Y1275388D01*
X483427Y1274601D01*
X484017Y1273617D01*
X484706Y1272436D01*
X485395Y1271059D01*
X485985Y1269484D01*
X486674Y1267812D01*
X487265Y1265942D01*
X487757Y1263876D01*
X488150Y1261612D01*
X488544Y1259251D01*
X488741Y1256692D01*
X488839Y1253937D01*
Y1253740D01*
Y1253248D01*
Y1252461D01*
X488741Y1251477D01*
X488642Y1250198D01*
X488445Y1248722D01*
X488249Y1247148D01*
X487953Y1245376D01*
X487560Y1243507D01*
X487166Y1241637D01*
X486576Y1239767D01*
X485887Y1237800D01*
X485100Y1235930D01*
X484116Y1234159D01*
X483132Y1232486D01*
X481853Y1230911D01*
X481754Y1230813D01*
X481557Y1230616D01*
X481164Y1230223D01*
X480573Y1229731D01*
X479885Y1229140D01*
X478999Y1228451D01*
X478015Y1227763D01*
X476834Y1227074D01*
X475555Y1226287D01*
X474079Y1225598D01*
X472505Y1224909D01*
X470733Y1224319D01*
X468864Y1223827D01*
X466896Y1223433D01*
X464731Y1223236D01*
X462468Y1223138D01*
X461582D01*
X460697Y1223236D01*
X459417D01*
X457941Y1223335D01*
X456367Y1223532D01*
X453120Y1224024D01*
X452923D01*
X452431Y1224220D01*
X451644Y1224417D01*
X450660Y1224614D01*
X449479Y1225007D01*
X448397Y1225401D01*
X447216Y1225795D01*
X446133Y1226287D01*
Y1281489D01*
X446232Y1281588D01*
X446625Y1281686D01*
X447216Y1281981D01*
X448101Y1282276D01*
X449085Y1282670D01*
X450266Y1283063D01*
X451644Y1283359D01*
X453218Y1283752D01*
X453415D01*
X454005Y1283949D01*
X454891Y1284047D01*
X455973Y1284244D01*
X457351Y1284441D01*
X458925Y1284540D01*
X460697Y1284736D01*
X463649D01*
X464534Y1284638D01*
D02*
G37*
G36*
X235463Y1687409D02*
X223163D01*
X204860Y1746941D01*
X217456D01*
X227492Y1708172D01*
Y1708073D01*
X227591Y1707975D01*
X227689Y1707385D01*
X227886Y1706597D01*
X228083Y1705613D01*
Y1705515D01*
X228181Y1705417D01*
X228280Y1704826D01*
X228378Y1704039D01*
X228575Y1703153D01*
Y1703055D01*
Y1702957D01*
X228673Y1702465D01*
X228772Y1701776D01*
X228870Y1700989D01*
Y1700890D01*
X228968Y1700497D01*
X229067Y1700005D01*
X229165Y1699611D01*
X229362D01*
Y1699709D01*
Y1699808D01*
X229460Y1700005D01*
X229559Y1700398D01*
Y1700890D01*
X229657Y1701481D01*
X229854Y1702169D01*
X229952Y1702957D01*
Y1703055D01*
X230051Y1703350D01*
X230149Y1703842D01*
X230248Y1704531D01*
X230444Y1705318D01*
X230641Y1706204D01*
X231133Y1708172D01*
X241170Y1746941D01*
X253765D01*
X235463Y1687409D01*
D02*
G37*
G36*
X87371Y1718504D02*
X100163D01*
Y1709746D01*
X87371D01*
Y1696462D01*
X77924D01*
Y1709746D01*
X65132D01*
Y1718504D01*
X77924D01*
Y1731788D01*
X87371D01*
Y1718504D01*
D02*
G37*
G36*
X194627Y1710140D02*
X200531D01*
Y1702071D01*
X194627D01*
Y1687409D01*
X184196D01*
Y1702071D01*
X157530D01*
Y1710140D01*
X182327Y1746941D01*
X194627D01*
Y1710140D01*
D02*
G37*
G36*
X127715Y1747925D02*
X128699D01*
X129683Y1747729D01*
X130864Y1747630D01*
X132143Y1747433D01*
X134800Y1746843D01*
X137555Y1745957D01*
X138834Y1745465D01*
X140113Y1744777D01*
X141392Y1744088D01*
X142475Y1743202D01*
X142573Y1743104D01*
X142770Y1743005D01*
X142967Y1742710D01*
X143360Y1742317D01*
X143754Y1741825D01*
X144246Y1741234D01*
X144836Y1740545D01*
X145328Y1739758D01*
X146411Y1737889D01*
X147296Y1735625D01*
X147690Y1734346D01*
X147985Y1732969D01*
X148084Y1731591D01*
X148182Y1730017D01*
Y1729918D01*
Y1729623D01*
Y1729131D01*
X148084Y1728541D01*
X147985Y1727852D01*
X147887Y1727065D01*
X147493Y1725392D01*
Y1725293D01*
X147395Y1724998D01*
X147296Y1724605D01*
X147100Y1724014D01*
X146509Y1722735D01*
X145820Y1721161D01*
Y1721062D01*
X145624Y1720865D01*
X145427Y1720472D01*
X145132Y1719980D01*
X144344Y1718799D01*
X143360Y1717421D01*
X143262Y1717323D01*
X143164Y1717126D01*
X142868Y1716831D01*
X142573Y1716339D01*
X141688Y1715355D01*
X140704Y1714174D01*
X125156Y1696659D01*
X149363D01*
Y1687409D01*
X106165D01*
X131651Y1719193D01*
X131749Y1719291D01*
X131946Y1719586D01*
X132340Y1720078D01*
X132733Y1720669D01*
X133225Y1721456D01*
X133816Y1722243D01*
X134898Y1724014D01*
X134996Y1724113D01*
X135095Y1724506D01*
X135390Y1724998D01*
X135685Y1725687D01*
X135882Y1726474D01*
X136177Y1727360D01*
X136276Y1728344D01*
X136374Y1729426D01*
Y1729623D01*
Y1730115D01*
X136177Y1730902D01*
X135980Y1731788D01*
X135685Y1732870D01*
X135095Y1733953D01*
X134406Y1735035D01*
X133422Y1736019D01*
X133324Y1736117D01*
X132832Y1736413D01*
X132241Y1736806D01*
X131257Y1737298D01*
X130076Y1737790D01*
X128600Y1738184D01*
X126928Y1738479D01*
X124960Y1738577D01*
X123779D01*
X122992Y1738479D01*
X122106Y1738381D01*
X121024Y1738282D01*
X118564Y1737889D01*
X118465D01*
X117973Y1737790D01*
X117383Y1737593D01*
X116497Y1737397D01*
X115612Y1737101D01*
X114529Y1736806D01*
X112364Y1736019D01*
X109117Y1744777D01*
X109314Y1744875D01*
X109806Y1745072D01*
X110495Y1745367D01*
X111577Y1745662D01*
X112758Y1746056D01*
X114136Y1746449D01*
X115612Y1746843D01*
X117186Y1747138D01*
X117383D01*
X117973Y1747237D01*
X118760Y1747433D01*
X119941Y1747630D01*
X121220Y1747729D01*
X122696Y1747925D01*
X124271Y1748024D01*
X127026D01*
X127715Y1747925D01*
D02*
G37*
G36*
X367512Y997236D02*
X368791Y997138D01*
X370267Y996941D01*
X373219Y996351D01*
X373416D01*
X373908Y996154D01*
X374597Y995957D01*
X375581Y995760D01*
X376565Y995367D01*
X377647Y995071D01*
X378631Y994579D01*
X379615Y994087D01*
X375974Y985035D01*
X375876D01*
X375679Y985231D01*
X375285Y985428D01*
X374793Y985625D01*
X374105Y985920D01*
X373317Y986117D01*
X372432Y986412D01*
X371448Y986707D01*
X371349D01*
X370956Y986806D01*
X370365Y986904D01*
X369677Y987101D01*
X368693Y987199D01*
X367610Y987298D01*
X366429Y987396D01*
X364560D01*
X363871Y987298D01*
X362985Y987199D01*
X362001Y987101D01*
X360821Y986904D01*
X359640Y986511D01*
X358459Y986117D01*
X358361Y986019D01*
X357967Y985920D01*
X357377Y985625D01*
X356688Y985231D01*
X355802Y984641D01*
X354917Y984051D01*
X354031Y983165D01*
X353145Y982279D01*
X353047Y982181D01*
X352752Y981787D01*
X352358Y981295D01*
X351866Y980508D01*
X351276Y979524D01*
X350685Y978442D01*
X350095Y977163D01*
X349505Y975785D01*
X349406Y975588D01*
X349308Y975096D01*
X349111Y974309D01*
X348914Y973227D01*
X348619Y971849D01*
X348422Y970275D01*
X348324Y968503D01*
X348225Y966535D01*
Y966437D01*
Y966339D01*
Y966043D01*
Y965650D01*
X348324Y964666D01*
X348422Y963387D01*
X348521Y961911D01*
X348717Y960435D01*
X349013Y958860D01*
X349406Y957286D01*
X349505Y957089D01*
X349603Y956597D01*
X349898Y955908D01*
X350292Y955023D01*
X350685Y953940D01*
X351276Y952858D01*
X351965Y951775D01*
X352653Y950693D01*
X352752Y950595D01*
X353047Y950299D01*
X353441Y949807D01*
X354031Y949217D01*
X354720Y948528D01*
X355507Y947938D01*
X356393Y947249D01*
X357377Y946757D01*
X357475Y946659D01*
X357869Y946560D01*
X358361Y946363D01*
X359049Y946167D01*
X359935Y945871D01*
X360821Y945675D01*
X361805Y945576D01*
X362887Y945478D01*
X364166D01*
X365445Y945576D01*
X366725Y945675D01*
X366823D01*
X367020Y945773D01*
X367709Y945871D01*
X368496Y946068D01*
X369185Y946363D01*
Y962993D01*
X360132D01*
Y971849D01*
X380107D01*
Y938885D01*
X380009Y938787D01*
X379713Y938688D01*
X379123Y938393D01*
X378434Y938098D01*
X377450Y937803D01*
X376269Y937409D01*
X374990Y937114D01*
X373416Y936720D01*
X373219D01*
X372629Y936523D01*
X371743Y936425D01*
X370562Y936228D01*
X369185Y936031D01*
X367512Y935933D01*
X365642Y935736D01*
X362592D01*
X362100Y935835D01*
X361411D01*
X359935Y936031D01*
X358262Y936228D01*
X356294Y936622D01*
X354425Y937114D01*
X352457Y937803D01*
X352358D01*
X352260Y937901D01*
X351965Y937999D01*
X351669Y938196D01*
X350685Y938688D01*
X349505Y939377D01*
X348127Y940263D01*
X346749Y941345D01*
X345273Y942624D01*
X343896Y944002D01*
X343699Y944199D01*
X343305Y944691D01*
X342715Y945576D01*
X341928Y946757D01*
X341042Y948135D01*
X340157Y949807D01*
X339271Y951677D01*
X338484Y953743D01*
Y953842D01*
X338385Y954039D01*
X338287Y954334D01*
X338189Y954727D01*
X338090Y955318D01*
X337893Y955908D01*
X337598Y957483D01*
X337205Y959352D01*
X336909Y961517D01*
X336713Y963977D01*
X336614Y966535D01*
Y966634D01*
Y966831D01*
Y967224D01*
Y967716D01*
X336713Y968307D01*
Y969094D01*
X336909Y970767D01*
X337106Y972735D01*
X337401Y974801D01*
X337893Y977064D01*
X338582Y979229D01*
Y979327D01*
X338681Y979524D01*
X338779Y979819D01*
X338976Y980213D01*
X339468Y981295D01*
X340058Y982575D01*
X340845Y984149D01*
X341829Y985723D01*
X343010Y987396D01*
X344289Y988971D01*
X344486Y989167D01*
X344978Y989659D01*
X345765Y990348D01*
X346848Y991234D01*
X348127Y992218D01*
X349603Y993300D01*
X351276Y994284D01*
X353145Y995170D01*
X353244D01*
X353342Y995268D01*
X353637Y995367D01*
X354031Y995465D01*
X355113Y995859D01*
X356589Y996252D01*
X358262Y996646D01*
X360230Y997039D01*
X362395Y997236D01*
X364658Y997335D01*
X366331D01*
X367512Y997236D01*
D02*
G37*
G36*
X435113Y936720D02*
X425568D01*
X404215Y972046D01*
X404117Y972144D01*
X404018Y972439D01*
X403723Y972931D01*
X403329Y973522D01*
X402641Y974899D01*
X401853Y976375D01*
Y976474D01*
X401755Y976671D01*
X401558Y977064D01*
X401361Y977458D01*
X400968Y978343D01*
X400771Y978737D01*
X400673Y979032D01*
X400476D01*
Y978934D01*
Y978835D01*
Y978540D01*
X400574Y978245D01*
Y977261D01*
Y975982D01*
Y975883D01*
Y975687D01*
Y975195D01*
X400673Y974703D01*
Y974014D01*
Y973227D01*
Y972243D01*
Y971259D01*
Y936720D01*
X390833D01*
Y996252D01*
X400771D01*
X421632Y961911D01*
X421730Y961812D01*
X421829Y961517D01*
X422025Y961123D01*
X422321Y960631D01*
X423009Y959254D01*
X423698Y957876D01*
Y957778D01*
X423895Y957581D01*
X423993Y957187D01*
X424289Y956794D01*
X424781Y955810D01*
X425174Y954826D01*
X425273D01*
Y955023D01*
Y955515D01*
Y955908D01*
Y956400D01*
X425174Y957089D01*
Y957778D01*
Y957876D01*
Y958171D01*
Y958663D01*
Y959254D01*
Y959943D01*
Y960828D01*
Y961812D01*
Y962895D01*
Y996252D01*
X435113D01*
Y936720D01*
D02*
G37*
G36*
X464534Y997236D02*
X465617Y997138D01*
X466797Y996941D01*
X468175Y996646D01*
X469553Y996351D01*
X471127Y995957D01*
X472701Y995465D01*
X474276Y994776D01*
X475949Y993989D01*
X477523Y993103D01*
X478999Y992021D01*
X480475Y990840D01*
X481853Y989463D01*
X481951Y989364D01*
X482148Y989069D01*
X482541Y988675D01*
X482935Y987987D01*
X483427Y987199D01*
X484017Y986215D01*
X484706Y985035D01*
X485395Y983657D01*
X485985Y982083D01*
X486674Y980410D01*
X487265Y978540D01*
X487757Y976474D01*
X488150Y974211D01*
X488544Y971849D01*
X488741Y969291D01*
X488839Y966535D01*
Y966339D01*
Y965847D01*
Y965059D01*
X488741Y964075D01*
X488642Y962796D01*
X488445Y961320D01*
X488249Y959746D01*
X487953Y957975D01*
X487560Y956105D01*
X487166Y954235D01*
X486576Y952366D01*
X485887Y950398D01*
X485100Y948528D01*
X484116Y946757D01*
X483132Y945084D01*
X481853Y943510D01*
X481754Y943411D01*
X481557Y943215D01*
X481164Y942821D01*
X480573Y942329D01*
X479885Y941739D01*
X478999Y941050D01*
X478015Y940361D01*
X476834Y939672D01*
X475555Y938885D01*
X474079Y938196D01*
X472505Y937507D01*
X470733Y936917D01*
X468864Y936425D01*
X466896Y936031D01*
X464731Y935835D01*
X462468Y935736D01*
X461582D01*
X460697Y935835D01*
X459417D01*
X457941Y935933D01*
X456367Y936130D01*
X453120Y936622D01*
X452923D01*
X452431Y936819D01*
X451644Y937015D01*
X450660Y937212D01*
X449479Y937606D01*
X448397Y937999D01*
X447216Y938393D01*
X446133Y938885D01*
Y994087D01*
X446232Y994186D01*
X446625Y994284D01*
X447216Y994579D01*
X448101Y994875D01*
X449085Y995268D01*
X450266Y995662D01*
X451644Y995957D01*
X453218Y996351D01*
X453415D01*
X454005Y996547D01*
X454891Y996646D01*
X455973Y996843D01*
X457351Y997039D01*
X458925Y997138D01*
X460697Y997335D01*
X463649D01*
X464534Y997236D01*
D02*
G37*
G36*
X506945Y1133079D02*
X494645D01*
X476342Y1192611D01*
X488937D01*
X498974Y1153841D01*
Y1153743D01*
X499073Y1153644D01*
X499171Y1153054D01*
X499368Y1152267D01*
X499565Y1151283D01*
Y1151184D01*
X499663Y1151086D01*
X499761Y1150495D01*
X499860Y1149708D01*
X500057Y1148823D01*
Y1148724D01*
Y1148626D01*
X500155Y1148134D01*
X500253Y1147445D01*
X500352Y1146658D01*
Y1146560D01*
X500450Y1146166D01*
X500549Y1145674D01*
X500647Y1145280D01*
X500844D01*
Y1145379D01*
Y1145477D01*
X500942Y1145674D01*
X501041Y1146068D01*
Y1146560D01*
X501139Y1147150D01*
X501336Y1147839D01*
X501434Y1148626D01*
Y1148724D01*
X501533Y1149020D01*
X501631Y1149512D01*
X501729Y1150200D01*
X501926Y1150987D01*
X502123Y1151873D01*
X502615Y1153841D01*
X512652Y1192611D01*
X525247D01*
X506945Y1133079D01*
D02*
G37*
G36*
X358853Y1164173D02*
X371645D01*
Y1155416D01*
X358853D01*
Y1142131D01*
X349406D01*
Y1155416D01*
X336614D01*
Y1164173D01*
X349406D01*
Y1177457D01*
X358853D01*
Y1164173D01*
D02*
G37*
G36*
X466109Y1155809D02*
X472013D01*
Y1147740D01*
X466109D01*
Y1133079D01*
X455678D01*
Y1147740D01*
X429012D01*
Y1155809D01*
X453809Y1192611D01*
X466109D01*
Y1155809D01*
D02*
G37*
G36*
X399197Y1193595D02*
X400181D01*
X401165Y1193398D01*
X402345Y1193300D01*
X403625Y1193103D01*
X406281Y1192512D01*
X409037Y1191627D01*
X410316Y1191135D01*
X411595Y1190446D01*
X412874Y1189757D01*
X413957Y1188871D01*
X414055Y1188773D01*
X414252Y1188675D01*
X414449Y1188380D01*
X414842Y1187986D01*
X415236Y1187494D01*
X415728Y1186903D01*
X416318Y1186215D01*
X416810Y1185428D01*
X417893Y1183558D01*
X418778Y1181295D01*
X419172Y1180015D01*
X419467Y1178638D01*
X419565Y1177260D01*
X419664Y1175686D01*
Y1175588D01*
Y1175292D01*
Y1174800D01*
X419565Y1174210D01*
X419467Y1173521D01*
X419369Y1172734D01*
X418975Y1171061D01*
Y1170963D01*
X418877Y1170668D01*
X418778Y1170274D01*
X418581Y1169684D01*
X417991Y1168404D01*
X417302Y1166830D01*
Y1166732D01*
X417105Y1166535D01*
X416909Y1166141D01*
X416613Y1165649D01*
X415826Y1164468D01*
X414842Y1163091D01*
X414744Y1162992D01*
X414645Y1162795D01*
X414350Y1162500D01*
X414055Y1162008D01*
X413169Y1161024D01*
X412185Y1159843D01*
X396638Y1142328D01*
X420845D01*
Y1133079D01*
X377647D01*
X403133Y1164862D01*
X403231Y1164960D01*
X403428Y1165255D01*
X403821Y1165747D01*
X404215Y1166338D01*
X404707Y1167125D01*
X405297Y1167912D01*
X406380Y1169684D01*
X406478Y1169782D01*
X406577Y1170176D01*
X406872Y1170668D01*
X407167Y1171356D01*
X407364Y1172143D01*
X407659Y1173029D01*
X407757Y1174013D01*
X407856Y1175095D01*
Y1175292D01*
Y1175784D01*
X407659Y1176572D01*
X407462Y1177457D01*
X407167Y1178540D01*
X406577Y1179622D01*
X405888Y1180704D01*
X404904Y1181688D01*
X404805Y1181787D01*
X404313Y1182082D01*
X403723Y1182476D01*
X402739Y1182967D01*
X401558Y1183459D01*
X400082Y1183853D01*
X398409Y1184148D01*
X396441Y1184247D01*
X395261D01*
X394473Y1184148D01*
X393588Y1184050D01*
X392505Y1183951D01*
X390045Y1183558D01*
X389947D01*
X389455Y1183459D01*
X388865Y1183263D01*
X387979Y1183066D01*
X387093Y1182771D01*
X386011Y1182476D01*
X383846Y1181688D01*
X380599Y1190446D01*
X380796Y1190544D01*
X381288Y1190741D01*
X381977Y1191036D01*
X383059Y1191332D01*
X384240Y1191725D01*
X385617Y1192119D01*
X387093Y1192512D01*
X388668Y1192807D01*
X388865D01*
X389455Y1192906D01*
X390242Y1193103D01*
X391423Y1193300D01*
X392702Y1193398D01*
X394178Y1193595D01*
X395753Y1193693D01*
X398508D01*
X399197Y1193595D01*
D02*
G37*
%LPC*%
G36*
X2881235Y779767D02*
X2880710D01*
X2880644D01*
X2880513D01*
X2880316D01*
X2880054D01*
X2879267Y779702D01*
X2878348Y779570D01*
X2877233Y779374D01*
X2876118Y779045D01*
X2875003Y778652D01*
X2873953Y778062D01*
X2873822Y777996D01*
X2873559Y777734D01*
X2873100Y777340D01*
X2872641Y776750D01*
X2872182Y776028D01*
X2871723Y775175D01*
X2871460Y774125D01*
X2871329Y772945D01*
Y772420D01*
X2871395Y772026D01*
X2871526Y771173D01*
X2871854Y770255D01*
Y770189D01*
X2871985Y770058D01*
X2872051Y769861D01*
X2872247Y769534D01*
X2872707Y768943D01*
X2873363Y768287D01*
X2873428Y768221D01*
X2873559Y768156D01*
X2873756Y767959D01*
X2874019Y767828D01*
X2874675Y767369D01*
X2875528Y766975D01*
X2875593D01*
X2875724Y766909D01*
X2875987Y766844D01*
X2876315Y766713D01*
X2877168Y766582D01*
X2878151Y766516D01*
X2878217D01*
X2878283D01*
X2878676D01*
X2879267Y766647D01*
X2879988Y766778D01*
X2880841Y767041D01*
X2881694Y767369D01*
X2882481Y767894D01*
X2883203Y768549D01*
X2883268Y768615D01*
X2883465Y768943D01*
X2883793Y769337D01*
X2884121Y769993D01*
X2884383Y770714D01*
X2884711Y771633D01*
X2884908Y772617D01*
X2884974Y773798D01*
Y774322D01*
X2884908Y774716D01*
Y775110D01*
X2884843Y775634D01*
X2884646Y776815D01*
Y776881D01*
X2884580Y777077D01*
X2884515Y777340D01*
X2884449Y777734D01*
X2884187Y778586D01*
X2883859Y779505D01*
X2883793D01*
X2883727D01*
X2883334Y779570D01*
X2882809Y779636D01*
X2882219Y779702D01*
X2882153D01*
X2882088D01*
X2881760D01*
X2881235Y779767D01*
D02*
G37*
G36*
X2880907Y743818D02*
Y733322D01*
X2894486Y737389D01*
X2894552D01*
X2894683Y737455D01*
X2894945Y737521D01*
X2895273Y737586D01*
X2896060Y737849D01*
X2896913Y738045D01*
X2896979D01*
X2897110D01*
X2897372Y738111D01*
X2897700Y738177D01*
X2898422Y738308D01*
X2899275Y738505D01*
Y738570D01*
X2899209D01*
X2899078Y738636D01*
X2898881D01*
X2898553Y738702D01*
X2897831Y738898D01*
X2896913Y739095D01*
X2896847D01*
X2896716Y739161D01*
X2896454D01*
X2896191Y739226D01*
X2895404Y739423D01*
X2894486Y739686D01*
X2880907Y743818D01*
D02*
G37*
G36*
X2882350Y614521D02*
X2884055Y602057D01*
X2884121D01*
X2884187D01*
X2884580D01*
X2885171Y602122D01*
X2885958Y602254D01*
X2886745Y602450D01*
X2887598Y602713D01*
X2888385Y603041D01*
X2889041Y603566D01*
X2889107Y603631D01*
X2889303Y603828D01*
X2889566Y604156D01*
X2889894Y604681D01*
X2890222Y605271D01*
X2890484Y605993D01*
X2890681Y606780D01*
X2890747Y607764D01*
Y608223D01*
X2890615Y608813D01*
X2890484Y609470D01*
X2890222Y610257D01*
X2889828Y611044D01*
X2889303Y611831D01*
X2888582Y612553D01*
X2888516Y612618D01*
X2888188Y612815D01*
X2887729Y613143D01*
X2887008Y613471D01*
X2886155Y613865D01*
X2885039Y614127D01*
X2883793Y614389D01*
X2882350Y614521D01*
D02*
G37*
G36*
X2685927Y526677D02*
X2684877D01*
X2684615Y526612D01*
X2684025Y526546D01*
X2683237Y526349D01*
X2682385Y526021D01*
X2681532Y525562D01*
X2680679Y524906D01*
X2679892Y523988D01*
X2679826Y523856D01*
X2679629Y523529D01*
X2679301Y522938D01*
X2678973Y522151D01*
X2678645Y521167D01*
X2678317Y519986D01*
X2678121Y518674D01*
X2678055Y517165D01*
Y517100D01*
Y516968D01*
Y516706D01*
Y516444D01*
X2678121Y516050D01*
X2678186Y515591D01*
X2678317Y514607D01*
X2678514Y513492D01*
X2678842Y512311D01*
X2679301Y511196D01*
X2679892Y510146D01*
X2679957Y510015D01*
X2680220Y509752D01*
X2680679Y509359D01*
X2681269Y508900D01*
X2682057Y508440D01*
X2682909Y508047D01*
X2684025Y507784D01*
X2685205Y507653D01*
X2685796D01*
X2686452Y507719D01*
X2687173Y507784D01*
X2687239D01*
X2687370Y507850D01*
X2687764Y507916D01*
X2688223Y508047D01*
X2688682Y508244D01*
Y526087D01*
X2688617Y526153D01*
X2688354Y526218D01*
X2687829Y526349D01*
X2687173Y526481D01*
X2687108D01*
X2686977Y526546D01*
X2686780D01*
X2686583Y526612D01*
X2685927Y526677D01*
D02*
G37*
G36*
X2433039Y536911D02*
X2432317D01*
X2431661Y536845D01*
X2430809Y536714D01*
X2430612D01*
X2430415Y536648D01*
X2430218D01*
X2429628Y536517D01*
X2429037Y536320D01*
Y523725D01*
X2429103D01*
X2429234Y523660D01*
X2429562D01*
X2429890Y523594D01*
X2430415Y523528D01*
X2430940D01*
X2431596Y523463D01*
X2432973D01*
X2433761Y523528D01*
X2434679Y523660D01*
X2435663Y523922D01*
X2436713Y524184D01*
X2437697Y524644D01*
X2438549Y525234D01*
X2438615Y525300D01*
X2438877Y525562D01*
X2439205Y525956D01*
X2439665Y526546D01*
X2440058Y527202D01*
X2440386Y528055D01*
X2440649Y529039D01*
X2440714Y530154D01*
Y530220D01*
Y530416D01*
X2440649Y530810D01*
X2440583Y531204D01*
X2440452Y531728D01*
X2440321Y532319D01*
X2440058Y532909D01*
X2439730Y533565D01*
X2439337Y534156D01*
X2438812Y534746D01*
X2438221Y535336D01*
X2437500Y535861D01*
X2436581Y536320D01*
X2435597Y536648D01*
X2434417Y536845D01*
X2433039Y536911D01*
D02*
G37*
G36*
X2344020D02*
X2343298D01*
X2342642Y536845D01*
X2341789Y536714D01*
X2341593D01*
X2341396Y536648D01*
X2341199D01*
X2340609Y536517D01*
X2340018Y536320D01*
Y523725D01*
X2340084D01*
X2340215Y523660D01*
X2340543D01*
X2340871Y523594D01*
X2341396Y523528D01*
X2341921D01*
X2342577Y523463D01*
X2343954D01*
X2344741Y523528D01*
X2345660Y523660D01*
X2346644Y523922D01*
X2347693Y524184D01*
X2348677Y524644D01*
X2349530Y525234D01*
X2349596Y525300D01*
X2349858Y525562D01*
X2350186Y525956D01*
X2350645Y526546D01*
X2351039Y527202D01*
X2351367Y528055D01*
X2351629Y529039D01*
X2351695Y530154D01*
Y530220D01*
Y530416D01*
X2351629Y530810D01*
X2351564Y531204D01*
X2351433Y531728D01*
X2351301Y532319D01*
X2351039Y532909D01*
X2350711Y533565D01*
X2350317Y534156D01*
X2349793Y534746D01*
X2349202Y535336D01*
X2348481Y535861D01*
X2347562Y536320D01*
X2346578Y536648D01*
X2345397Y536845D01*
X2344020Y536911D01*
D02*
G37*
G36*
X2715381Y527268D02*
X2714922D01*
X2714332Y527136D01*
X2713676Y527005D01*
X2712889Y526743D01*
X2712101Y526349D01*
X2711314Y525824D01*
X2710593Y525103D01*
X2710527Y525037D01*
X2710330Y524709D01*
X2710002Y524250D01*
X2709674Y523529D01*
X2709281Y522676D01*
X2709018Y521561D01*
X2708756Y520314D01*
X2708625Y518871D01*
X2721089Y520577D01*
Y520642D01*
Y520708D01*
Y521101D01*
X2721023Y521692D01*
X2720892Y522479D01*
X2720695Y523266D01*
X2720433Y524119D01*
X2720105Y524906D01*
X2719580Y525562D01*
X2719514Y525628D01*
X2719317Y525824D01*
X2718989Y526087D01*
X2718465Y526415D01*
X2717874Y526743D01*
X2717153Y527005D01*
X2716365Y527202D01*
X2715381Y527268D01*
D02*
G37*
G36*
X2653061D02*
X2652602D01*
X2652012Y527136D01*
X2651356Y527005D01*
X2650569Y526743D01*
X2649781Y526349D01*
X2648994Y525824D01*
X2648273Y525103D01*
X2648207Y525037D01*
X2648010Y524709D01*
X2647682Y524250D01*
X2647354Y523529D01*
X2646961Y522676D01*
X2646698Y521561D01*
X2646436Y520314D01*
X2646305Y518871D01*
X2658769Y520577D01*
Y520642D01*
Y520708D01*
Y521101D01*
X2658703Y521692D01*
X2658572Y522479D01*
X2658375Y523266D01*
X2658113Y524119D01*
X2657785Y524906D01*
X2657260Y525562D01*
X2657194Y525628D01*
X2656997Y525824D01*
X2656669Y526087D01*
X2656145Y526415D01*
X2655554Y526743D01*
X2654833Y527005D01*
X2654045Y527202D01*
X2653061Y527268D01*
D02*
G37*
G36*
X2621967D02*
X2621508D01*
X2620917Y527136D01*
X2620261Y527005D01*
X2619474Y526743D01*
X2618687Y526349D01*
X2617900Y525824D01*
X2617178Y525103D01*
X2617113Y525037D01*
X2616916Y524709D01*
X2616588Y524250D01*
X2616260Y523529D01*
X2615866Y522676D01*
X2615604Y521561D01*
X2615341Y520314D01*
X2615210Y518871D01*
X2627674Y520577D01*
Y520642D01*
Y520708D01*
Y521101D01*
X2627609Y521692D01*
X2627477Y522479D01*
X2627281Y523266D01*
X2627018Y524119D01*
X2626690Y524906D01*
X2626165Y525562D01*
X2626100Y525628D01*
X2625903Y525824D01*
X2625575Y526087D01*
X2625050Y526415D01*
X2624460Y526743D01*
X2623738Y527005D01*
X2622951Y527202D01*
X2621967Y527268D01*
D02*
G37*
G36*
X2543641Y527268D02*
X2543181D01*
X2542591Y527136D01*
X2541935Y527005D01*
X2541148Y526743D01*
X2540361Y526349D01*
X2539573Y525824D01*
X2538852Y525103D01*
X2538786Y525037D01*
X2538589Y524709D01*
X2538261Y524250D01*
X2537933Y523528D01*
X2537540Y522676D01*
X2537277Y521560D01*
X2537015Y520314D01*
X2536884Y518871D01*
X2549348Y520576D01*
Y520642D01*
Y520708D01*
Y521101D01*
X2549282Y521692D01*
X2549151Y522479D01*
X2548954Y523266D01*
X2548692Y524119D01*
X2548364Y524906D01*
X2547839Y525562D01*
X2547773Y525628D01*
X2547577Y525824D01*
X2547249Y526087D01*
X2546724Y526415D01*
X2546133Y526743D01*
X2545412Y527005D01*
X2544625Y527202D01*
X2543641Y527268D01*
D02*
G37*
G36*
X2465839Y526808D02*
X2465708D01*
X2465380Y526743D01*
X2464855Y526677D01*
X2464199Y526480D01*
X2463477Y526218D01*
X2462690Y525759D01*
X2462034Y525103D01*
X2461378Y524250D01*
X2461313Y524119D01*
X2461116Y523791D01*
X2460919Y523200D01*
X2460657Y522479D01*
X2460329Y521429D01*
X2460132Y520248D01*
X2459935Y518871D01*
X2459869Y517296D01*
Y517231D01*
Y517100D01*
Y516903D01*
Y516575D01*
X2459935Y516181D01*
Y515788D01*
X2460066Y514804D01*
X2460263Y513688D01*
X2460525Y512508D01*
X2460853Y511392D01*
X2461378Y510343D01*
X2461444Y510212D01*
X2461641Y509949D01*
X2462034Y509556D01*
X2462493Y509096D01*
X2463149Y508637D01*
X2463871Y508244D01*
X2464789Y507981D01*
X2465839Y507850D01*
X2465970D01*
X2466298Y507916D01*
X2466823Y507981D01*
X2467479Y508178D01*
X2468201Y508440D01*
X2468922Y508900D01*
X2469644Y509490D01*
X2470234Y510343D01*
X2470300Y510474D01*
X2470497Y510802D01*
X2470693Y511392D01*
X2471021Y512180D01*
X2471284Y513164D01*
X2471481Y514344D01*
X2471677Y515722D01*
X2471743Y517296D01*
Y517362D01*
Y517493D01*
Y517756D01*
Y518018D01*
X2471677Y518412D01*
Y518871D01*
X2471546Y519855D01*
X2471349Y520970D01*
X2471087Y522085D01*
X2470759Y523266D01*
X2470234Y524250D01*
X2470169Y524381D01*
X2469972Y524644D01*
X2469644Y525037D01*
X2469119Y525562D01*
X2468529Y526021D01*
X2467741Y526415D01*
X2466889Y526677D01*
X2465839Y526808D01*
D02*
G37*
G36*
X2376885Y536320D02*
X2375377D01*
X2374852Y536255D01*
X2373671Y536124D01*
X2373081Y535992D01*
X2372556Y535796D01*
Y508834D01*
X2372621D01*
X2372753Y508768D01*
X2373081Y508703D01*
X2373474Y508572D01*
X2373933Y508506D01*
X2374589Y508375D01*
X2375311Y508309D01*
X2376492D01*
X2376885Y508375D01*
X2377410Y508440D01*
X2378001Y508506D01*
X2378591Y508637D01*
X2379247Y508834D01*
X2379903Y509096D01*
X2379969Y509162D01*
X2380231Y509228D01*
X2380559Y509424D01*
X2380953Y509687D01*
X2381412Y510080D01*
X2381937Y510474D01*
X2382461Y510999D01*
X2382921Y511589D01*
X2382986Y511655D01*
X2383117Y511917D01*
X2383380Y512245D01*
X2383642Y512770D01*
X2383905Y513426D01*
X2384233Y514148D01*
X2384561Y515000D01*
X2384823Y515919D01*
X2384889Y516050D01*
X2384954Y516378D01*
X2385085Y516968D01*
X2385217Y517756D01*
X2385348Y518674D01*
X2385413Y519789D01*
X2385545Y520970D01*
Y522348D01*
Y522413D01*
Y522544D01*
Y522676D01*
Y522938D01*
X2385479Y523660D01*
Y524512D01*
X2385348Y525496D01*
X2385217Y526546D01*
X2385085Y527596D01*
X2384823Y528645D01*
Y528776D01*
X2384692Y529104D01*
X2384561Y529564D01*
X2384364Y530220D01*
X2384101Y530876D01*
X2383773Y531663D01*
X2383380Y532384D01*
X2382921Y533040D01*
X2382855Y533106D01*
X2382724Y533303D01*
X2382461Y533631D01*
X2382068Y534024D01*
X2381609Y534418D01*
X2381149Y534812D01*
X2380559Y535205D01*
X2379903Y535533D01*
X2379837Y535599D01*
X2379575Y535664D01*
X2379247Y535796D01*
X2378788Y535927D01*
X2378263Y536058D01*
X2377607Y536189D01*
X2376885Y536320D01*
D02*
G37*
G36*
X2509791Y474984D02*
X2508741D01*
X2508479Y474919D01*
X2507889Y474853D01*
X2507101Y474656D01*
X2506249Y474328D01*
X2505396Y473869D01*
X2504543Y473213D01*
X2503756Y472295D01*
X2503690Y472164D01*
X2503493Y471836D01*
X2503165Y471245D01*
X2502837Y470458D01*
X2502509Y469474D01*
X2502181Y468293D01*
X2501985Y466981D01*
X2501919Y465472D01*
Y465407D01*
Y465276D01*
Y465013D01*
Y464751D01*
X2501985Y464357D01*
X2502050Y463898D01*
X2502181Y462914D01*
X2502378Y461799D01*
X2502706Y460618D01*
X2503165Y459503D01*
X2503756Y458453D01*
X2503821Y458322D01*
X2504084Y458060D01*
X2504543Y457666D01*
X2505133Y457207D01*
X2505921Y456748D01*
X2506773Y456354D01*
X2507889Y456092D01*
X2509069Y455960D01*
X2509660D01*
X2510316Y456026D01*
X2511037Y456092D01*
X2511103D01*
X2511234Y456157D01*
X2511628Y456223D01*
X2512087Y456354D01*
X2512546Y456551D01*
Y474394D01*
X2512481Y474460D01*
X2512218Y474525D01*
X2511693Y474656D01*
X2511037Y474788D01*
X2510972D01*
X2510841Y474853D01*
X2510644D01*
X2510447Y474919D01*
X2509791Y474984D01*
D02*
G37*
G36*
X2543575Y483906D02*
X2543444D01*
Y483840D01*
X2543378Y483709D01*
X2543247Y483447D01*
X2543050Y483119D01*
X2542985Y483053D01*
X2542853Y482791D01*
X2542657Y482397D01*
X2542394Y481938D01*
X2542329Y481807D01*
X2542132Y481544D01*
X2541869Y481085D01*
X2541607Y480560D01*
X2541541Y480429D01*
X2541410Y480167D01*
X2541148Y479773D01*
X2540885Y479380D01*
X2531898Y465932D01*
X2543444D01*
Y478724D01*
Y478789D01*
Y479052D01*
Y479380D01*
Y479839D01*
Y480364D01*
Y480954D01*
X2543509Y482069D01*
Y482135D01*
Y482332D01*
Y482594D01*
X2543575Y482856D01*
Y483512D01*
Y483709D01*
Y483906D01*
D02*
G37*
G36*
X2684943Y485218D02*
X2684681D01*
X2684353Y485152D01*
X2683959Y485087D01*
X2683565Y484956D01*
X2683041Y484759D01*
X2682581Y484497D01*
X2682122Y484168D01*
X2682057Y484103D01*
X2681925Y483972D01*
X2681729Y483709D01*
X2681466Y483381D01*
X2681138Y482988D01*
X2680810Y482463D01*
X2680482Y481873D01*
X2680154Y481151D01*
Y481085D01*
X2680023Y480823D01*
X2679892Y480429D01*
X2679761Y479839D01*
X2679564Y479183D01*
X2679433Y478396D01*
X2679236Y477543D01*
X2679105Y476559D01*
Y476428D01*
X2679039Y476100D01*
X2678973Y475575D01*
Y474853D01*
X2678908Y473935D01*
X2678842Y472951D01*
X2678777Y471836D01*
Y470655D01*
Y470589D01*
Y470524D01*
Y470130D01*
Y469474D01*
X2678842Y468687D01*
Y467834D01*
X2678908Y466784D01*
X2679105Y464751D01*
Y464620D01*
X2679170Y464292D01*
X2679236Y463832D01*
X2679367Y463176D01*
X2679498Y462455D01*
X2679695Y461733D01*
X2680154Y460159D01*
X2680220Y460093D01*
X2680285Y459831D01*
X2680482Y459503D01*
X2680679Y459109D01*
X2681335Y458125D01*
X2681729Y457666D01*
X2682122Y457207D01*
X2682188Y457141D01*
X2682319Y457076D01*
X2682581Y456879D01*
X2682909Y456682D01*
X2683303Y456485D01*
X2683828Y456354D01*
X2684353Y456223D01*
X2684943Y456157D01*
X2685205D01*
X2685533Y456223D01*
X2685927Y456288D01*
X2686386Y456420D01*
X2686845Y456616D01*
X2687305Y456879D01*
X2687764Y457207D01*
X2687829Y457272D01*
X2687961Y457404D01*
X2688157Y457666D01*
X2688420Y457994D01*
X2688748Y458388D01*
X2689076Y458913D01*
X2689404Y459503D01*
X2689666Y460159D01*
X2689732Y460224D01*
X2689797Y460487D01*
X2689929Y460946D01*
X2690060Y461471D01*
X2690257Y462127D01*
X2690388Y462914D01*
X2690585Y463832D01*
X2690716Y464751D01*
Y464882D01*
X2690781Y465210D01*
X2690847Y465800D01*
X2690913Y466522D01*
X2690978Y467375D01*
X2691044Y468359D01*
X2691109Y469474D01*
Y470655D01*
Y470721D01*
Y470786D01*
Y471180D01*
Y471836D01*
X2691044Y472623D01*
Y473541D01*
X2690978Y474525D01*
X2690716Y476559D01*
Y476690D01*
X2690650Y477018D01*
X2690585Y477543D01*
X2690453Y478133D01*
X2690322Y478855D01*
X2690125Y479642D01*
X2689929Y480429D01*
X2689666Y481151D01*
Y481216D01*
X2689535Y481479D01*
X2689404Y481807D01*
X2689141Y482266D01*
X2688551Y483250D01*
X2688157Y483709D01*
X2687764Y484168D01*
X2687698Y484234D01*
X2687567Y484365D01*
X2687305Y484497D01*
X2686977Y484693D01*
X2686583Y484890D01*
X2686058Y485087D01*
X2685533Y485152D01*
X2684943Y485218D01*
D02*
G37*
G36*
X2481780Y465013D02*
X2481452D01*
X2480993Y464948D01*
X2480468D01*
X2479877Y464882D01*
X2479221Y464816D01*
X2477778Y464685D01*
X2477450D01*
X2477122Y464620D01*
X2476663Y464554D01*
X2475679Y464357D01*
X2474564Y463964D01*
X2474498D01*
X2474367Y463898D01*
X2474105Y463767D01*
X2473777Y463570D01*
X2473055Y463111D01*
X2472333Y462455D01*
X2472268Y462389D01*
X2472202Y462258D01*
X2472071Y462061D01*
X2471940Y461733D01*
X2471743Y461405D01*
X2471612Y460946D01*
X2471546Y460421D01*
X2471481Y459831D01*
Y459765D01*
Y459503D01*
X2471546Y459109D01*
X2471677Y458650D01*
X2471874Y458125D01*
X2472137Y457535D01*
X2472465Y457010D01*
X2472989Y456551D01*
X2473055Y456485D01*
X2473317Y456354D01*
X2473645Y456223D01*
X2474170Y456026D01*
X2474826Y455764D01*
X2475613Y455632D01*
X2476532Y455501D01*
X2477581Y455436D01*
X2478303D01*
X2479090Y455501D01*
X2479943Y455567D01*
X2480009D01*
X2480140Y455632D01*
X2480402D01*
X2480665Y455698D01*
X2481255Y455829D01*
X2481780Y456026D01*
Y465013D01*
D02*
G37*
G36*
X3106783Y1449010D02*
X3105701D01*
X3104717Y1448912D01*
X3103438Y1448715D01*
X3103142D01*
X3102847Y1448617D01*
X3102552D01*
X3101666Y1448420D01*
X3100781Y1448125D01*
Y1429232D01*
X3100879D01*
X3101076Y1429133D01*
X3101568D01*
X3102060Y1429035D01*
X3102847Y1428937D01*
X3103635D01*
X3104619Y1428838D01*
X3106685D01*
X3107866Y1428937D01*
X3109243Y1429133D01*
X3110719Y1429527D01*
X3112294Y1429921D01*
X3113770Y1430610D01*
X3115049Y1431495D01*
X3115147Y1431593D01*
X3115541Y1431987D01*
X3116033Y1432578D01*
X3116722Y1433463D01*
X3117312Y1434447D01*
X3117804Y1435726D01*
X3118198Y1437202D01*
X3118296Y1438875D01*
Y1438974D01*
Y1439269D01*
X3118198Y1439859D01*
X3118099Y1440449D01*
X3117903Y1441237D01*
X3117706Y1442122D01*
X3117312Y1443008D01*
X3116820Y1443992D01*
X3116230Y1444878D01*
X3115443Y1445763D01*
X3114557Y1446649D01*
X3113474Y1447436D01*
X3112097Y1448125D01*
X3110621Y1448617D01*
X3108850Y1448912D01*
X3106783Y1449010D01*
D02*
G37*
G36*
X3156082Y1448125D02*
X3153818D01*
X3153031Y1448026D01*
X3151260Y1447830D01*
X3150374Y1447633D01*
X3149587Y1447338D01*
Y1406895D01*
X3149686D01*
X3149883Y1406797D01*
X3150374Y1406698D01*
X3150965Y1406502D01*
X3151654Y1406403D01*
X3152638Y1406206D01*
X3153720Y1406108D01*
X3155491D01*
X3156082Y1406206D01*
X3156869Y1406305D01*
X3157755Y1406403D01*
X3158640Y1406600D01*
X3159624Y1406895D01*
X3160608Y1407289D01*
X3160706Y1407387D01*
X3161100Y1407486D01*
X3161592Y1407781D01*
X3162182Y1408174D01*
X3162871Y1408765D01*
X3163659Y1409355D01*
X3164446Y1410142D01*
X3165135Y1411028D01*
X3165233Y1411126D01*
X3165430Y1411520D01*
X3165823Y1412012D01*
X3166217Y1412799D01*
X3166610Y1413783D01*
X3167102Y1414866D01*
X3167595Y1416145D01*
X3167988Y1417522D01*
X3168086Y1417719D01*
X3168185Y1418211D01*
X3168382Y1419097D01*
X3168579Y1420277D01*
X3168775Y1421655D01*
X3168874Y1423328D01*
X3169070Y1425099D01*
Y1427166D01*
Y1427264D01*
Y1427461D01*
Y1427658D01*
Y1428051D01*
X3168972Y1429133D01*
Y1430413D01*
X3168775Y1431889D01*
X3168579Y1433463D01*
X3168382Y1435037D01*
X3167988Y1436612D01*
Y1436809D01*
X3167791Y1437301D01*
X3167595Y1437989D01*
X3167299Y1438974D01*
X3166906Y1439957D01*
X3166414Y1441138D01*
X3165823Y1442221D01*
X3165135Y1443205D01*
X3165036Y1443303D01*
X3164839Y1443598D01*
X3164446Y1444090D01*
X3163855Y1444681D01*
X3163166Y1445271D01*
X3162478Y1445861D01*
X3161592Y1446452D01*
X3160608Y1446944D01*
X3160510Y1447042D01*
X3160116Y1447141D01*
X3159624Y1447338D01*
X3158935Y1447534D01*
X3158148Y1447731D01*
X3157164Y1447928D01*
X3156082Y1448125D01*
D02*
G37*
G36*
X2877314Y1447633D02*
X2876823D01*
X2876331Y1447534D01*
X2875642Y1447436D01*
X2874854Y1447239D01*
X2873969Y1447042D01*
X2873182Y1446649D01*
X2872296Y1446157D01*
X2872198Y1446058D01*
X2872001Y1445861D01*
X2871607Y1445566D01*
X2871115Y1445074D01*
X2870525Y1444484D01*
X2869934Y1443795D01*
X2869344Y1442909D01*
X2868754Y1441926D01*
X2868655Y1441827D01*
X2868557Y1441434D01*
X2868262Y1440843D01*
X2867966Y1440154D01*
X2867671Y1439170D01*
X2867278Y1438088D01*
X2866884Y1436809D01*
X2866589Y1435431D01*
Y1435234D01*
X2866490Y1434742D01*
X2866392Y1434053D01*
X2866294Y1432971D01*
X2866097Y1431790D01*
X2865999Y1430413D01*
X2865900Y1428838D01*
Y1427166D01*
Y1427067D01*
Y1426969D01*
Y1426378D01*
Y1425493D01*
X2865999Y1424410D01*
X2866097Y1423033D01*
X2866195Y1421655D01*
X2866589Y1418703D01*
Y1418506D01*
X2866786Y1418113D01*
X2866884Y1417424D01*
X2867179Y1416538D01*
X2867474Y1415456D01*
X2867868Y1414373D01*
X2868754Y1412209D01*
X2868852Y1412110D01*
X2869049Y1411815D01*
X2869344Y1411323D01*
X2869738Y1410733D01*
X2870919Y1409355D01*
X2871509Y1408666D01*
X2872296Y1408076D01*
X2872394Y1407977D01*
X2872690Y1407879D01*
X2873182Y1407584D01*
X2873772Y1407387D01*
X2874461Y1407092D01*
X2875347Y1406797D01*
X2876331Y1406698D01*
X2877314Y1406600D01*
X2877807D01*
X2878298Y1406698D01*
X2878987Y1406797D01*
X2879774Y1406994D01*
X2880660Y1407190D01*
X2881546Y1407584D01*
X2882333Y1408076D01*
X2882431Y1408174D01*
X2882727Y1408371D01*
X2883120Y1408666D01*
X2883612Y1409158D01*
X2884104Y1409749D01*
X2884793Y1410438D01*
X2885285Y1411225D01*
X2885875Y1412209D01*
X2885974Y1412307D01*
X2886072Y1412701D01*
X2886367Y1413291D01*
X2886662Y1414078D01*
X2887056Y1414964D01*
X2887450Y1416145D01*
X2887745Y1417325D01*
X2888040Y1418703D01*
Y1418900D01*
X2888139Y1419392D01*
X2888335Y1420179D01*
X2888434Y1421163D01*
X2888631Y1422442D01*
X2888729Y1423918D01*
X2888827Y1425493D01*
Y1427166D01*
Y1427264D01*
Y1427362D01*
Y1427953D01*
Y1428838D01*
X2888729Y1429921D01*
X2888631Y1431200D01*
X2888532Y1432578D01*
X2888040Y1435431D01*
Y1435628D01*
X2887942Y1436120D01*
X2887745Y1436809D01*
X2887548Y1437694D01*
X2887253Y1438678D01*
X2886859Y1439761D01*
X2886367Y1440843D01*
X2885875Y1441926D01*
X2885777Y1442024D01*
X2885678Y1442418D01*
X2885285Y1442909D01*
X2884891Y1443500D01*
X2884399Y1444189D01*
X2883809Y1444878D01*
X2883120Y1445566D01*
X2882333Y1446157D01*
X2882235Y1446255D01*
X2881939Y1446353D01*
X2881546Y1446649D01*
X2880857Y1446944D01*
X2880168Y1447141D01*
X2879282Y1447436D01*
X2878397Y1447534D01*
X2877314Y1447633D01*
D02*
G37*
G36*
X2802826Y1449109D02*
X2801645D01*
X2800366Y1449010D01*
X2798890Y1448813D01*
X2798595D01*
X2798201Y1448715D01*
X2797807Y1448617D01*
X2796823Y1448420D01*
X2795938Y1448125D01*
Y1431692D01*
X2804302D01*
X2804990Y1431790D01*
X2806565Y1431889D01*
X2807352Y1431987D01*
X2808041Y1432184D01*
X2808139D01*
X2808336Y1432282D01*
X2808631Y1432381D01*
X2809123Y1432578D01*
X2810107Y1432971D01*
X2811190Y1433660D01*
X2811288Y1433758D01*
X2811387Y1433857D01*
X2811977Y1434447D01*
X2812567Y1435333D01*
X2813256Y1436514D01*
Y1436612D01*
X2813354Y1436809D01*
X2813551Y1437202D01*
X2813650Y1437694D01*
X2813847Y1438285D01*
X2813945Y1438974D01*
X2814043Y1440548D01*
Y1440745D01*
Y1441237D01*
X2813945Y1441926D01*
X2813748Y1442811D01*
X2813354Y1443893D01*
X2812863Y1444878D01*
X2812174Y1445960D01*
X2811288Y1446845D01*
X2811190Y1446944D01*
X2810796Y1447239D01*
X2810107Y1447534D01*
X2809222Y1448026D01*
X2808041Y1448420D01*
X2806565Y1448715D01*
X2804892Y1449010D01*
X2802826Y1449109D01*
D02*
G37*
G36*
X2804499Y1423525D02*
X2795938D01*
Y1406108D01*
X2796036D01*
X2796135Y1406009D01*
X2796430D01*
X2796823Y1405911D01*
X2797807Y1405616D01*
X2799086Y1405419D01*
X2799382D01*
X2799775Y1405321D01*
X2800267D01*
X2801546Y1405222D01*
X2802924Y1405124D01*
X2803416D01*
X2804105Y1405222D01*
X2804892D01*
X2805778Y1405419D01*
X2806860Y1405616D01*
X2807943Y1405911D01*
X2809123Y1406305D01*
X2810206Y1406797D01*
X2811288Y1407387D01*
X2812370Y1408076D01*
X2813354Y1408961D01*
X2814043Y1410044D01*
X2814732Y1411225D01*
X2815126Y1412701D01*
X2815224Y1414275D01*
Y1414373D01*
Y1414472D01*
X2815126Y1415062D01*
X2815027Y1415948D01*
X2814732Y1417030D01*
X2814338Y1418310D01*
X2813650Y1419490D01*
X2812764Y1420573D01*
X2811485Y1421557D01*
X2811387D01*
X2811190Y1421754D01*
X2810894Y1421852D01*
X2810501Y1422147D01*
X2809517Y1422639D01*
X2808238Y1423033D01*
X2808139D01*
X2807943Y1423131D01*
X2807549Y1423229D01*
X2806959Y1423328D01*
X2806270D01*
X2805483Y1423426D01*
X2804499Y1423525D01*
D02*
G37*
G36*
X486086Y825848D02*
X484905D01*
X483626Y825750D01*
X482150Y825553D01*
X481855D01*
X481461Y825455D01*
X481067Y825356D01*
X480084Y825159D01*
X479198Y824864D01*
Y808432D01*
X487562D01*
X488251Y808530D01*
X489825Y808628D01*
X490612Y808727D01*
X491301Y808923D01*
X491399D01*
X491596Y809022D01*
X491892Y809120D01*
X492384Y809317D01*
X493368Y809711D01*
X494450Y810399D01*
X494548Y810498D01*
X494647Y810596D01*
X495237Y811187D01*
X495827Y812072D01*
X496516Y813253D01*
Y813351D01*
X496615Y813548D01*
X496812Y813942D01*
X496910Y814434D01*
X497107Y815024D01*
X497205Y815713D01*
X497303Y817288D01*
Y817484D01*
Y817976D01*
X497205Y818665D01*
X497008Y819551D01*
X496615Y820633D01*
X496123Y821617D01*
X495434Y822699D01*
X494548Y823585D01*
X494450Y823683D01*
X494056Y823979D01*
X493368Y824274D01*
X492482Y824766D01*
X491301Y825159D01*
X489825Y825455D01*
X488152Y825750D01*
X486086Y825848D01*
D02*
G37*
G36*
X487759Y800264D02*
X479198D01*
Y782847D01*
X479296D01*
X479395Y782749D01*
X479690D01*
X480084Y782651D01*
X481067Y782356D01*
X482347Y782159D01*
X482642D01*
X483036Y782060D01*
X483527D01*
X484807Y781962D01*
X486184Y781864D01*
X486676D01*
X487365Y781962D01*
X488152D01*
X489038Y782159D01*
X490120Y782356D01*
X491203Y782651D01*
X492384Y783044D01*
X493466Y783536D01*
X494548Y784127D01*
X495631Y784816D01*
X496615Y785701D01*
X497303Y786784D01*
X497992Y787964D01*
X498386Y789440D01*
X498484Y791015D01*
Y791113D01*
Y791212D01*
X498386Y791802D01*
X498288Y792688D01*
X497992Y793770D01*
X497599Y795049D01*
X496910Y796230D01*
X496024Y797312D01*
X494745Y798296D01*
X494647D01*
X494450Y798493D01*
X494155Y798591D01*
X493761Y798887D01*
X492777Y799379D01*
X491498Y799772D01*
X491399D01*
X491203Y799871D01*
X490809Y799969D01*
X490219Y800067D01*
X489530D01*
X488743Y800166D01*
X487759Y800264D01*
D02*
G37*
G36*
X1176566Y759629D02*
X1174303D01*
X1173516Y759530D01*
X1171745Y759333D01*
X1170859Y759137D01*
X1170072Y758841D01*
Y718399D01*
X1170170D01*
X1170367Y718301D01*
X1170859Y718202D01*
X1171449Y718005D01*
X1172138Y717907D01*
X1173122Y717710D01*
X1174205Y717612D01*
X1175976D01*
X1176566Y717710D01*
X1177353Y717809D01*
X1178239Y717907D01*
X1179124Y718104D01*
X1180109Y718399D01*
X1181092Y718793D01*
X1181191Y718891D01*
X1181584Y718989D01*
X1182076Y719285D01*
X1182667Y719678D01*
X1183356Y720269D01*
X1184143Y720859D01*
X1184930Y721646D01*
X1185619Y722532D01*
X1185717Y722630D01*
X1185914Y723024D01*
X1186308Y723516D01*
X1186701Y724303D01*
X1187095Y725287D01*
X1187587Y726369D01*
X1188079Y727649D01*
X1188473Y729026D01*
X1188571Y729223D01*
X1188669Y729715D01*
X1188866Y730601D01*
X1189063Y731781D01*
X1189260Y733159D01*
X1189358Y734832D01*
X1189555Y736603D01*
Y738669D01*
Y738768D01*
Y738965D01*
Y739161D01*
Y739555D01*
X1189457Y740637D01*
Y741917D01*
X1189260Y743393D01*
X1189063Y744967D01*
X1188866Y746541D01*
X1188473Y748116D01*
Y748313D01*
X1188276Y748805D01*
X1188079Y749493D01*
X1187784Y750477D01*
X1187390Y751461D01*
X1186898Y752642D01*
X1186308Y753725D01*
X1185619Y754709D01*
X1185521Y754807D01*
X1185324Y755102D01*
X1184930Y755594D01*
X1184340Y756185D01*
X1183651Y756775D01*
X1182962Y757365D01*
X1182076Y757956D01*
X1181092Y758448D01*
X1180994Y758546D01*
X1180601Y758645D01*
X1180109Y758841D01*
X1179420Y759038D01*
X1178632Y759235D01*
X1177649Y759432D01*
X1176566Y759629D01*
D02*
G37*
G36*
X464239Y1274896D02*
X461976D01*
X461189Y1274798D01*
X459417Y1274601D01*
X458532Y1274404D01*
X457745Y1274109D01*
Y1233667D01*
X457843D01*
X458040Y1233568D01*
X458532Y1233470D01*
X459122Y1233273D01*
X459811Y1233175D01*
X460795Y1232978D01*
X461877Y1232880D01*
X463649D01*
X464239Y1232978D01*
X465026Y1233076D01*
X465912Y1233175D01*
X466797Y1233371D01*
X467781Y1233667D01*
X468765Y1234060D01*
X468864Y1234159D01*
X469257Y1234257D01*
X469749Y1234552D01*
X470340Y1234946D01*
X471029Y1235536D01*
X471816Y1236127D01*
X472603Y1236914D01*
X473292Y1237800D01*
X473390Y1237898D01*
X473587Y1238292D01*
X473981Y1238784D01*
X474374Y1239571D01*
X474768Y1240555D01*
X475260Y1241637D01*
X475752Y1242916D01*
X476145Y1244294D01*
X476244Y1244491D01*
X476342Y1244983D01*
X476539Y1245868D01*
X476736Y1247049D01*
X476933Y1248427D01*
X477031Y1250100D01*
X477228Y1251871D01*
Y1253937D01*
Y1254035D01*
Y1254232D01*
Y1254429D01*
Y1254823D01*
X477129Y1255905D01*
Y1257184D01*
X476933Y1258660D01*
X476736Y1260235D01*
X476539Y1261809D01*
X476145Y1263383D01*
Y1263580D01*
X475949Y1264072D01*
X475752Y1264761D01*
X475457Y1265745D01*
X475063Y1266729D01*
X474571Y1267910D01*
X473981Y1268992D01*
X473292Y1269976D01*
X473193Y1270075D01*
X472997Y1270370D01*
X472603Y1270862D01*
X472013Y1271452D01*
X471324Y1272043D01*
X470635Y1272633D01*
X469749Y1273224D01*
X468765Y1273716D01*
X468667Y1273814D01*
X468273Y1273912D01*
X467781Y1274109D01*
X467093Y1274306D01*
X466305Y1274503D01*
X465321Y1274699D01*
X464239Y1274896D01*
D02*
G37*
G36*
X184787Y1737101D02*
X184590D01*
Y1737003D01*
X184492Y1736806D01*
X184295Y1736413D01*
X184000Y1735921D01*
X183901Y1735822D01*
X183704Y1735429D01*
X183409Y1734838D01*
X183016Y1734149D01*
X182917Y1733953D01*
X182622Y1733559D01*
X182228Y1732870D01*
X181835Y1732083D01*
X181736Y1731886D01*
X181540Y1731493D01*
X181146Y1730902D01*
X180752Y1730312D01*
X167272Y1710140D01*
X184590D01*
Y1729328D01*
Y1729426D01*
Y1729820D01*
Y1730312D01*
Y1731001D01*
Y1731788D01*
Y1732673D01*
X184688Y1734346D01*
Y1734445D01*
Y1734740D01*
Y1735133D01*
X184787Y1735527D01*
Y1736511D01*
Y1736806D01*
Y1737101D01*
D02*
G37*
G36*
X464239Y987495D02*
X461976D01*
X461189Y987396D01*
X459417Y987199D01*
X458532Y987003D01*
X457745Y986707D01*
Y946265D01*
X457843D01*
X458040Y946167D01*
X458532Y946068D01*
X459122Y945871D01*
X459811Y945773D01*
X460795Y945576D01*
X461877Y945478D01*
X463649D01*
X464239Y945576D01*
X465026Y945675D01*
X465912Y945773D01*
X466797Y945970D01*
X467781Y946265D01*
X468765Y946659D01*
X468864Y946757D01*
X469257Y946855D01*
X469749Y947151D01*
X470340Y947544D01*
X471029Y948135D01*
X471816Y948725D01*
X472603Y949512D01*
X473292Y950398D01*
X473390Y950496D01*
X473587Y950890D01*
X473981Y951382D01*
X474374Y952169D01*
X474768Y953153D01*
X475260Y954235D01*
X475752Y955515D01*
X476145Y956892D01*
X476244Y957089D01*
X476342Y957581D01*
X476539Y958467D01*
X476736Y959647D01*
X476933Y961025D01*
X477031Y962698D01*
X477228Y964469D01*
Y966535D01*
Y966634D01*
Y966831D01*
Y967027D01*
Y967421D01*
X477129Y968503D01*
Y969783D01*
X476933Y971259D01*
X476736Y972833D01*
X476539Y974407D01*
X476145Y975982D01*
Y976179D01*
X475949Y976671D01*
X475752Y977359D01*
X475457Y978343D01*
X475063Y979327D01*
X474571Y980508D01*
X473981Y981591D01*
X473292Y982575D01*
X473193Y982673D01*
X472997Y982968D01*
X472603Y983460D01*
X472013Y984051D01*
X471324Y984641D01*
X470635Y985231D01*
X469749Y985822D01*
X468765Y986314D01*
X468667Y986412D01*
X468273Y986511D01*
X467781Y986707D01*
X467093Y986904D01*
X466305Y987101D01*
X465321Y987298D01*
X464239Y987495D01*
D02*
G37*
G36*
X456269Y1182771D02*
X456072D01*
Y1182672D01*
X455973Y1182476D01*
X455777Y1182082D01*
X455481Y1181590D01*
X455383Y1181492D01*
X455186Y1181098D01*
X454891Y1180507D01*
X454497Y1179819D01*
X454399Y1179622D01*
X454104Y1179228D01*
X453710Y1178540D01*
X453317Y1177752D01*
X453218Y1177555D01*
X453021Y1177162D01*
X452628Y1176572D01*
X452234Y1175981D01*
X438753Y1155809D01*
X456072D01*
Y1174997D01*
Y1175095D01*
Y1175489D01*
Y1175981D01*
Y1176670D01*
Y1177457D01*
Y1178343D01*
X456170Y1180015D01*
Y1180114D01*
Y1180409D01*
Y1180803D01*
X456269Y1181196D01*
Y1182180D01*
Y1182476D01*
Y1182771D01*
D02*
G37*
%LPD*%
D94*
X2360236Y546260D02*
G03*
X2360236Y546260I-1968J0D01*
G01*
X2121039Y1797032D02*
G03*
X2121039Y1797032I-1968J0D01*
G01*
X1005071Y1652441D02*
G03*
X1005071Y1652441I-1968J0D01*
G01*
X2379921Y1445457D02*
G03*
X2379921Y1445457I-1968J0D01*
G01*
X1828740Y1284449D02*
G03*
X1828740Y1284449I-1968J0D01*
G01*
X1067181Y846457D02*
X1067181Y807087D01*
X1047496Y826772D02*
X1086866D01*
X539622Y1603717D02*
X578992Y1603717D01*
X559307Y1584032D02*
Y1623402D01*
X2574551Y1077386D02*
X2613921D01*
X2594236Y1057701D02*
Y1097071D01*
D95*
X1725726Y838045D02*
G03*
X1725004Y839875I-1317J538D01*
G01*
X1705205Y791568D02*
G03*
X1707066Y792345I544J1314D01*
G01*
X1695070Y795766D02*
G03*
X1693728Y795630I-544J-1314D01*
G01*
X1669635Y780722D02*
G03*
X1671438Y780550I1006J1006D01*
G01*
X1650418Y801570D02*
G03*
X1650591Y799767I1178J-797D01*
G01*
X1665499Y823860D02*
G03*
X1665634Y825201I-1178J797D01*
G01*
X1656466Y847336D02*
G03*
X1655422Y848188I-1314J-544D01*
G01*
X1627844Y854682D02*
G03*
X1628996Y853286I1422J-0D01*
G01*
Y883012D02*
G03*
X1627844Y881616I270J-1397D01*
G01*
X1655422Y888110D02*
G03*
X1656466Y888962I-270J1397D01*
G01*
X1665634Y911097D02*
G03*
X1665499Y912438I-1314J544D01*
G01*
X1650591Y936531D02*
G03*
X1650418Y934728I1006J-1006D01*
G01*
X1671438Y955748D02*
G03*
X1669635Y955576I-797J-1178D01*
G01*
X1693728Y940668D02*
G03*
X1695070Y940532I797J1178D01*
G01*
X1717204Y949700D02*
G03*
X1718056Y950744I-544J1314D01*
G01*
X1724551Y978323D02*
G03*
X1723154Y977170I0J-1422D01*
G01*
X1752881D02*
G03*
X1751484Y978323I-1397J-269D01*
G01*
X1757979Y950745D02*
G03*
X1758831Y949700I1397J269D01*
G01*
X1780965Y940532D02*
G03*
X1782307Y940668I544J1314D01*
G01*
X1806399Y955576D02*
G03*
X1804597Y955748I-1006J-1006D01*
G01*
X1825617Y934728D02*
G03*
X1825444Y936531I-1178J797D01*
G01*
X1810536Y912438D02*
G03*
X1810400Y911097I1178J-797D01*
G01*
X1819568Y888963D02*
G03*
X1820613Y888110I1314J544D01*
G01*
X1848191Y881616D02*
G03*
X1847038Y883012I-1423J0D01*
G01*
Y853286D02*
G03*
X1848191Y854683I-270J1397D01*
G01*
X1820613Y848188D02*
G03*
X1819568Y847336I269J-1397D01*
G01*
X1810400Y825201D02*
G03*
X1810536Y823860I1314J-544D01*
G01*
X1825444Y799767D02*
G03*
X1825617Y801570I-1006J1006D01*
G01*
X1804597Y780550D02*
G03*
X1806399Y780722I797J1178D01*
G01*
X1782307Y795630D02*
G03*
X1780965Y795766I-797J-1178D01*
G01*
X1768968Y792345D02*
G03*
X1770830Y791568I1317J538D01*
G01*
X1751031Y839875D02*
G03*
X1750309Y838045I595J-1292D01*
G01*
X1751031Y839875D02*
G03*
X1725004Y839875I-13014J28274D01*
G01*
X1707066Y792345D02*
X1725726Y838046D01*
X1695070Y795766D02*
X1705205Y791568D01*
X1671438Y780550D02*
X1693728Y795630D01*
X1650591Y799767D02*
X1669635Y780722D01*
X1650418Y801569D02*
X1665499Y823860D01*
X1656466Y847336D02*
X1665635Y825201D01*
X1628997Y853286D02*
X1655422Y848188D01*
X1627844Y854683D02*
Y881616D01*
X1628997Y883012D02*
X1655422Y888110D01*
X1656466Y888963D02*
X1665635Y911097D01*
X1650418Y934729D02*
X1665499Y912438D01*
X1650591Y936531D02*
X1669635Y955576D01*
X1671438Y955748D02*
X1693728Y940668D01*
X1695070Y940532D02*
X1717204Y949700D01*
X1718056Y950745D02*
X1723154Y977170D01*
X1724551Y978323D02*
X1751484D01*
X1752881Y977170D02*
X1757979Y950745D01*
X1758831Y949700D02*
X1780965Y940532D01*
X1782306Y940668D02*
X1804597Y955748D01*
X1806399Y955576D02*
X1825444Y936531D01*
X1810536Y912438D02*
X1825617Y934729D01*
X1810400Y911097D02*
X1819568Y888963D01*
X1820613Y888110D02*
X1847038Y883012D01*
X1848191Y854683D02*
Y881616D01*
X1820613Y848188D02*
X1847038Y853286D01*
X1810400Y825201D02*
X1819568Y847336D01*
X1810536Y823860D02*
X1825617Y801569D01*
X1806399Y780722D02*
X1825444Y799767D01*
X1782306Y795630D02*
X1804597Y780550D01*
X1770830Y791568D02*
X1780965Y795766D01*
X1750309Y838046D02*
X1768969Y792345D01*
D96*
X1383701Y1002835D02*
G03*
X1383701Y1002835I-4331J0D01*
G01*
X714717Y1570945D02*
G03*
X714717Y1570945I-4921J0D01*
G01*
X1963583Y659449D02*
G03*
X1963583Y659449I-4921J0D01*
G01*
X2233134Y662732D02*
G03*
X2233134Y662732I-4921J0D01*
G01*
X2493918Y1658892D02*
G03*
X2493918Y1658892I-4921J0D01*
G01*
D97*
X1575716Y800253D02*
G03*
X1575716Y800253I-3937J0D01*
G01*
X2393701Y572835D02*
X2846457D01*
Y848425D01*
X2393701D02*
X2846457D01*
X2393701Y572835D02*
Y848425D01*
X2877559Y1262992D02*
Y1312992D01*
X3151181D02*
X3214567Y1312991D01*
X2998032Y1312992D02*
X3072835Y1312992D01*
X2877559D02*
X2895669D01*
X3214567Y974411D02*
Y1312991D01*
X2877559Y974410D02*
X2895669D01*
X2998032Y974409D02*
X3072835Y974410D01*
X3151181D02*
X3214567Y974411D01*
X2877559Y974410D02*
Y1024410D01*
X2304968Y1681669D02*
Y1721669D01*
X2154968Y1681669D02*
Y1721669D01*
X345858Y464536D02*
Y514536D01*
X8850Y464537D02*
X72236Y464536D01*
X150583D02*
X225386Y464535D01*
X327748Y464536D02*
X345858Y464536D01*
X8850Y464537D02*
Y803116D01*
X327748Y803118D02*
X345858Y803118D01*
X150583D02*
X225386Y803118D01*
X8850Y803116D02*
X72236Y803118D01*
X345858Y753118D02*
Y803118D01*
X1094370Y1252835D02*
X1094370Y992835D01*
X1329370Y1252835D02*
X1329370Y992835D01*
X1094370Y1252835D02*
X1329370D01*
X1094370Y992835D02*
X1329370D01*
X762945Y1354213D02*
Y1570748D01*
X920425Y1354213D02*
Y1570748D01*
X762945D02*
X920425D01*
X762945Y1354213D02*
X920425D01*
X2435847Y1670704D02*
X2447658D01*
X2435847Y1792751D02*
X2447658D01*
Y1670704D02*
Y1792751D01*
X2435847Y1670704D02*
Y1792751D01*
D98*
X1251417Y397638D02*
Y692914D01*
X857717Y397638D02*
X1251417D01*
X857717D02*
Y692914D01*
X1251417D01*
X1084102Y1449165D02*
Y1685386D01*
X1556543Y1449165D02*
Y1685386D01*
X309055Y1257874D02*
Y1651575D01*
X13780D02*
X309055D01*
X13780Y1257874D02*
Y1651575D01*
Y1257874D02*
X309055D01*
X1868110Y897638D02*
X2517716Y897638D01*
X1868110Y897638D02*
Y1409449D01*
X2517716D01*
Y897638D02*
Y1409449D01*
X309055Y864173D02*
Y1257874D01*
X13780D02*
X309055D01*
X13780Y864173D02*
Y1257874D01*
Y864173D02*
X309055D01*
D99*
X1597112Y577263D02*
X1606299Y568077D01*
X1710138Y690289D02*
X1719325Y681102D01*
X1493273D02*
X1502460Y671916D01*
X1606299Y794128D02*
X1615486Y784941D01*
X1606299Y568077D02*
X1615486Y577264D01*
X1710138Y671916D02*
X1719325Y681102D01*
X1493273D02*
X1502460Y690289D01*
X1597112Y784941D02*
X1606299Y794128D01*
%TF.MD5,ab317f9268096d9c0ae4efe25b9b6615*%
M02*
