%TF.GenerationSoftware,Altium Limited,Altium Designer,23.11.1 (41)*%
G04 Layer_Color=0*
%FSLAX26Y26*%
%MOIN*%
%TF.SameCoordinates,0B4E2714-AAF7-4A90-8E72-ED1F183F2DA5*%
%TF.FilePolarity,Positive*%
%TF.FileFunction,Profile,NP*%
%TF.Part,CustomerPanel*%
G01*
G75*
%TA.AperFunction,Profile*%
%ADD137C,0.001000*%
G36*
X2598425Y316913D02*
X2748032D01*
X2757831D01*
X2777335Y318834D01*
X2796556Y322658D01*
X2815311Y328347D01*
X2833417Y335847D01*
X2850702Y345085D01*
X2866997Y355974D01*
X2882147Y368406D01*
X2889076Y375336D01*
X2889076Y375336D01*
X3251436Y737696D01*
X3258365Y744625D01*
X3270798Y759775D01*
X3281686Y776070D01*
X3290925Y793354D01*
X3298425Y811461D01*
X3304114Y830215D01*
X3307938Y849437D01*
X3309858Y868941D01*
X3309858Y878740D01*
X3309858Y880134D01*
X3309760Y882919D01*
X3309563Y885698D01*
X3309268Y888470D01*
X3309071Y889849D01*
X3309071Y889849D01*
X3309071Y1408661D01*
Y1418460D01*
X3307150Y1437965D01*
X3303327Y1457186D01*
X3297637Y1475941D01*
X3290138Y1494047D01*
X3280899Y1511331D01*
X3270011Y1527627D01*
X3257578Y1542777D01*
X3250649Y1549706D01*
X3250649Y1549706D01*
X2888288Y1912066D01*
X2881359Y1918995D01*
X2866210Y1931428D01*
X2849914Y1942316D01*
X2832630Y1951555D01*
X2814523Y1959055D01*
X2795769Y1964744D01*
X2776547Y1968568D01*
X2757043Y1970488D01*
X2747244Y1970488D01*
X2747244Y1970489D01*
X2598425D01*
X2593240D01*
X2583223Y1967804D01*
X2574242Y1962619D01*
X2566909Y1955286D01*
X2561724Y1946305D01*
X2559040Y1936289D01*
Y1925918D01*
X2561724Y1915901D01*
X2566909Y1906920D01*
X2574242Y1899588D01*
X2583223Y1894402D01*
X2593240Y1891718D01*
X2598425D01*
D01*
X2747244Y1891718D01*
X2753166Y1891573D01*
X2764954Y1890412D01*
X2776571Y1888101D01*
X2787905Y1884663D01*
X2798848Y1880130D01*
X2809294Y1874547D01*
X2819143Y1867966D01*
X2828299Y1860452D01*
X2832589Y1856367D01*
X2832590Y1856367D01*
X3194950Y1494007D01*
X3199035Y1489716D01*
X3206549Y1480560D01*
X3213129Y1470712D01*
X3218713Y1460266D01*
X3223245Y1449323D01*
X3226684Y1437988D01*
X3228994Y1426371D01*
X3230155Y1414584D01*
X3230301Y1408661D01*
X3230301Y1408661D01*
Y886575D01*
X3230301Y885588D01*
X3230400Y883618D01*
X3230597Y881656D01*
X3230892Y879705D01*
X3231088Y878739D01*
X3230943Y872817D01*
X3229782Y861029D01*
X3227471Y849412D01*
X3224033Y838078D01*
X3219500Y827135D01*
X3213916Y816689D01*
X3207336Y806841D01*
X3199822Y797685D01*
X3195737Y793395D01*
X3195737Y793395D01*
X2833377Y431034D01*
X2829086Y426950D01*
X2819930Y419435D01*
X2810082Y412855D01*
X2799636Y407272D01*
X2788693Y402739D01*
X2777358Y399300D01*
X2765741Y396990D01*
X2753954Y395829D01*
X2748031Y395683D01*
X2748032D01*
X2598425D01*
X2593240D01*
X2583223Y392999D01*
X2574242Y387814D01*
X2566909Y380481D01*
X2561724Y371500D01*
X2559040Y361483D01*
Y351113D01*
X2561724Y341096D01*
X2566909Y332115D01*
X2574242Y324782D01*
X2583223Y319597D01*
X2593240Y316913D01*
X2598425D01*
D01*
D02*
G37*
G36*
X393701D02*
X388516D01*
X378499Y319597D01*
X369518Y324782D01*
X362185Y332115D01*
X357000Y341096D01*
X354316Y351113D01*
Y361483D01*
X357000Y371500D01*
X362185Y380481D01*
X369518Y387814D01*
X378499Y392999D01*
X388516Y395683D01*
X393701D01*
D01*
X2440945D01*
X2444824D01*
X2452433Y394170D01*
X2459601Y391201D01*
X2466051Y386891D01*
X2471537Y381405D01*
X2475847Y374954D01*
X2478816Y367786D01*
X2480330Y360177D01*
Y356298D01*
Y352419D01*
X2478816Y344810D01*
X2475847Y337642D01*
X2471537Y331192D01*
X2466051Y325706D01*
X2459601Y321396D01*
X2452433Y318427D01*
X2444824Y316913D01*
X2440945D01*
D01*
X393701D01*
D02*
G37*
G36*
Y1891718D02*
X388516D01*
X378499Y1894402D01*
X369518Y1899588D01*
X362185Y1906920D01*
X357000Y1915901D01*
X354316Y1925918D01*
Y1936289D01*
X357000Y1946305D01*
X362185Y1955286D01*
X369518Y1962619D01*
X378499Y1967804D01*
X388516Y1970489D01*
X393701D01*
D01*
X2440945D01*
X2444824D01*
X2452433Y1968975D01*
X2459601Y1966006D01*
X2466051Y1961696D01*
X2471537Y1956210D01*
X2475847Y1949759D01*
X2478816Y1942592D01*
X2480330Y1934983D01*
Y1931103D01*
Y1927224D01*
X2478816Y1919615D01*
X2475847Y1912448D01*
X2471537Y1905997D01*
X2466051Y1900511D01*
X2459601Y1896201D01*
X2452433Y1893232D01*
X2444824Y1891718D01*
X2440945D01*
D01*
X393701D01*
D02*
G37*
G36*
X-76788Y445669D02*
Y1841732D01*
Y1850171D01*
X-74585Y1866905D01*
X-70216Y1883208D01*
X-63757Y1898802D01*
X-55318Y1913419D01*
X-45043Y1926809D01*
X-33109Y1938744D01*
X-19718Y1949019D01*
X-5101Y1957458D01*
X10492Y1963917D01*
X26796Y1968285D01*
X43529Y1970489D01*
X51968D01*
D01*
X236220D01*
X240099D01*
X247709Y1968975D01*
X254876Y1966006D01*
X261327Y1961696D01*
X266813Y1956210D01*
X271123Y1949759D01*
X274092Y1942592D01*
X275606Y1934983D01*
Y1931103D01*
Y1927224D01*
X274092Y1919615D01*
X271123Y1912448D01*
X266813Y1905997D01*
X261327Y1900511D01*
X254876Y1896201D01*
X247709Y1893232D01*
X240099Y1891718D01*
X236220D01*
D01*
X51968D01*
X47069Y1891478D01*
X37458Y1889566D01*
X28405Y1885816D01*
X20258Y1880372D01*
X13329Y1873443D01*
X7885Y1865296D01*
X4135Y1856243D01*
X2223Y1846632D01*
X1982Y1841732D01*
D01*
Y445669D01*
X2223Y440770D01*
X4135Y431159D01*
X7885Y422106D01*
X13329Y413959D01*
X20258Y407030D01*
X28405Y401586D01*
X37458Y397836D01*
X47069Y395924D01*
X51968Y395683D01*
D01*
X236220D01*
X240099D01*
X247709Y394170D01*
X254876Y391201D01*
X261327Y386891D01*
X266813Y381405D01*
X271123Y374954D01*
X274092Y367786D01*
X275606Y360177D01*
Y356298D01*
Y352419D01*
X274092Y344810D01*
X271123Y337642D01*
X266813Y331192D01*
X261327Y325706D01*
X254876Y321396D01*
X247709Y318427D01*
X240099Y316913D01*
X236220D01*
D01*
X51968D01*
X43529D01*
X26796Y319116D01*
X10492Y323485D01*
X-5101Y329944D01*
X-19718Y338383D01*
X-33109Y348658D01*
X-45043Y360592D01*
X-55318Y373983D01*
X-63757Y388600D01*
X-70216Y404193D01*
X-74585Y420496D01*
X-76788Y437230D01*
Y445669D01*
D01*
D02*
G37*
D137*
X0Y50000D02*
Y2233465D01*
D02*
G02*
X50000Y2283465I50000J0D01*
G01*
X3180315D01*
D02*
G02*
X3230315Y2233465I0J-50000D01*
G01*
Y50000D01*
D02*
G02*
X3180315Y0I-50000J0D01*
G01*
X50000D01*
D02*
G02*
X0Y50000I0J50000D01*
G01*
%TF.MD5,a697788ccfd197be9fd26d6efa94a92d*%
M02*
