%TF.GenerationSoftware,Altium Limited,Altium Designer,23.11.1 (41)*%
G04 Layer_Physical_Order=2*
G04 Layer_Color=16711680*
%FSLAX26Y26*%
%MOIN*%
%TF.SameCoordinates,0B4E2714-AAF7-4A90-8E72-ED1F183F2DA5*%
%TF.FilePolarity,Positive*%
%TF.FileFunction,Copper,L2,Bot,Signal*%
%TF.Part,CustomerPanel*%
G01*
G75*
%TA.AperFunction,FiducialPad,Global*%
%ADD45C,0.059055*%
%TA.AperFunction,Conductor*%
%ADD48C,0.010000*%
%ADD49C,0.020000*%
%ADD50C,0.015000*%
%ADD51C,0.025000*%
%ADD52C,0.012000*%
%ADD54C,0.050000*%
%ADD55C,0.008000*%
%ADD58R,0.078740X0.098425*%
%TA.AperFunction,ComponentPad*%
%ADD61O,0.062992X0.039370*%
%ADD62C,0.026575*%
%ADD63O,0.082677X0.039370*%
%ADD64C,0.066929*%
%ADD65R,0.066929X0.066929*%
%ADD66R,0.066929X0.066929*%
%ADD67O,0.074803X0.059055*%
%ADD68R,0.074803X0.059055*%
%ADD69C,0.059055*%
%ADD70O,0.059055X0.074803*%
%ADD71P,0.117380X4X90.0*%
%ADD72R,0.083000X0.083000*%
%TA.AperFunction,ViaPad*%
%ADD73C,0.019685*%
%ADD74C,0.047244*%
%TA.AperFunction,Conductor*%
%ADD75C,0.100000*%
%ADD76R,0.098425X0.127953*%
%ADD77R,0.059055X0.177165*%
G36*
X1084646Y1584646D02*
Y1360236D01*
X1064961Y1340551D01*
X978346D01*
X946850Y1372047D01*
Y1561024D01*
X923228Y1584646D01*
X906008D01*
X905359Y1585295D01*
X898847Y1587992D01*
X891799D01*
X885287Y1585295D01*
X884638Y1584646D01*
X749074D01*
X744039Y1589680D01*
Y1593800D01*
X741342Y1600311D01*
X736359Y1605295D01*
X729847Y1607992D01*
X722799D01*
X716287Y1605295D01*
X711304Y1600311D01*
X708606Y1593800D01*
Y1586752D01*
X707199Y1584646D01*
X541339D01*
X425197Y1468504D01*
Y1128898D01*
X312047Y1015748D01*
X9996D01*
Y1841732D01*
Y1845866D01*
X11609Y1853976D01*
X14773Y1861614D01*
X19366Y1868488D01*
X25213Y1874335D01*
X32087Y1878928D01*
X39726Y1882092D01*
X47834Y1883705D01*
X1084646D01*
Y1584646D01*
D02*
G37*
G36*
X714772Y1576772D02*
X716287Y1575256D01*
X722799Y1572559D01*
X726918D01*
X737762Y1561715D01*
X737762Y1561715D01*
X741690Y1559091D01*
X746323Y1558169D01*
X746323Y1558169D01*
X882375D01*
X885287Y1555256D01*
X891799Y1552559D01*
X898847D01*
X905359Y1555256D01*
X910342Y1560240D01*
X913039Y1566752D01*
Y1573800D01*
X914922Y1576618D01*
X919903D01*
X938822Y1557698D01*
Y1372048D01*
X938822Y1372047D01*
X939433Y1368975D01*
X941173Y1366370D01*
X941174Y1366370D01*
X972669Y1334874D01*
X973785Y1334129D01*
X973949Y1332461D01*
X971252Y1325949D01*
Y1318901D01*
X973949Y1312390D01*
X974823Y1311516D01*
Y1282119D01*
X937282Y1244579D01*
X936047D01*
X929535Y1241882D01*
X924552Y1236898D01*
X921855Y1230386D01*
Y1223338D01*
X924552Y1216827D01*
X929535Y1211843D01*
X936047Y1209146D01*
X943095D01*
X949607Y1211843D01*
X954590Y1216827D01*
X957288Y1223338D01*
Y1224574D01*
X998971Y1266257D01*
X1000220Y1268127D01*
X1061968D01*
X1067382Y1269203D01*
X1071971Y1272270D01*
X1238678Y1438976D01*
X1669661Y1438976D01*
X1670581Y1438057D01*
X1670961Y1438975D01*
X2767716Y1438976D01*
D01*
X3218162D01*
X3219042Y1436074D01*
X3221202Y1425216D01*
X3222287Y1414197D01*
Y1408661D01*
Y907480D01*
X2915354D01*
X2885827Y937008D01*
Y1242126D01*
X2797244D01*
Y1202001D01*
X2792244Y1198660D01*
X2790492Y1199386D01*
X2783445D01*
X2776933Y1196689D01*
X2771949Y1191705D01*
X2769252Y1185193D01*
Y1178145D01*
X2771949Y1171634D01*
X2773842Y1169741D01*
Y1133669D01*
X2774841Y1128646D01*
X2777687Y1124388D01*
X2783069Y1119005D01*
X2781153Y1113851D01*
X2775933Y1111689D01*
X2770949Y1106705D01*
X2768252Y1100193D01*
Y1093145D01*
X2770949Y1086634D01*
X2772842Y1084741D01*
Y1020525D01*
X2772066Y1017485D01*
X2769685Y1016532D01*
Y946851D01*
X2757874Y935039D01*
X2706693D01*
X2698342Y943391D01*
X2697933Y942669D01*
X2393401D01*
X2390357Y946636D01*
X2391732Y951769D01*
Y961617D01*
X2389183Y971129D01*
X2384259Y979658D01*
X2377296Y986621D01*
X2368767Y991545D01*
X2359255Y994094D01*
X2349407D01*
X2339894Y991545D01*
X2331366Y986621D01*
X2324402Y979658D01*
X2319478Y971129D01*
X2316929Y961617D01*
Y951769D01*
X2318305Y946636D01*
X2315261Y942669D01*
X1999804D01*
X1998041Y945308D01*
X1997166Y947669D01*
X1998354Y956693D01*
X1997069Y966457D01*
X1993300Y975555D01*
X1987305Y983368D01*
X1979492Y989363D01*
X1970394Y993132D01*
X1960630Y994417D01*
X1944882D01*
X1935118Y993132D01*
X1926020Y989363D01*
X1918207Y983368D01*
X1912212Y975555D01*
X1908443Y966457D01*
X1907158Y956693D01*
X1908346Y947669D01*
X1907471Y945308D01*
X1905708Y942669D01*
X1768461D01*
X1690250Y1020880D01*
X1685992Y1023725D01*
X1680968Y1024725D01*
X1660624D01*
X1658730Y1026618D01*
X1652219Y1029315D01*
X1645171D01*
X1638659Y1026618D01*
X1633676Y1021634D01*
X1630978Y1015122D01*
Y1008074D01*
X1633676Y1001563D01*
X1638659Y996579D01*
X1645171Y993882D01*
X1652219D01*
X1658730Y996579D01*
X1660624Y998472D01*
X1675532D01*
X1726715Y947289D01*
X1724801Y942669D01*
X1674461D01*
X1649250Y967880D01*
X1644992Y970725D01*
X1639968Y971725D01*
X1411406D01*
X1369685Y1013445D01*
Y1016122D01*
X1366988Y1022634D01*
X1362004Y1027618D01*
X1355493Y1030315D01*
X1348445D01*
X1341933Y1027618D01*
X1336949Y1022634D01*
X1334252Y1016122D01*
Y1009074D01*
X1336949Y1002563D01*
X1341933Y997579D01*
X1348445Y994882D01*
X1351122D01*
X1396687Y949317D01*
X1399152Y947669D01*
X1397636Y942669D01*
X1295968D01*
X1259882Y978756D01*
X1237819Y956693D01*
X651575D01*
X612205Y996063D01*
Y1112669D01*
X589193Y1112669D01*
Y1137425D01*
X588685Y1139978D01*
Y1140949D01*
X588313Y1141847D01*
X587806Y1144399D01*
X586360Y1146563D01*
X585988Y1147461D01*
X585301Y1148148D01*
X583855Y1150312D01*
X581691Y1151758D01*
X581004Y1152445D01*
X580107Y1152816D01*
X577943Y1154262D01*
X575390Y1154770D01*
X574492Y1155142D01*
X573521D01*
X570968Y1155649D01*
X435039D01*
X435039Y1466993D01*
X544664Y1576618D01*
X707199D01*
X707975Y1576772D01*
X714772D01*
D02*
G37*
%LPC*%
G36*
X402854Y1621861D02*
X400591Y1619597D01*
X398327Y1621861D01*
Y1606299D01*
X385827D01*
Y1593799D01*
X370265D01*
X372529Y1591535D01*
X370265Y1589272D01*
X385827D01*
Y1564272D01*
X370265D01*
X372529Y1562008D01*
X370265Y1559744D01*
X385827D01*
Y1547244D01*
X398327D01*
Y1531682D01*
X400591Y1533946D01*
X402854Y1531682D01*
Y1547244D01*
X415354D01*
Y1559744D01*
X430916D01*
X428652Y1562008D01*
X430916Y1564272D01*
X415354D01*
Y1589272D01*
X430916D01*
X428652Y1591535D01*
X430916Y1593799D01*
X415354D01*
Y1606299D01*
X402854D01*
Y1621861D01*
D02*
G37*
G36*
X427854D02*
Y1618799D01*
X430916D01*
X427854Y1621861D01*
D02*
G37*
G36*
X373327D02*
X370265Y1618799D01*
X373327D01*
Y1621861D01*
D02*
G37*
G36*
X171949Y1601884D02*
Y1572736D01*
X201097D01*
X199951Y1577013D01*
X194229Y1586924D01*
X186137Y1595016D01*
X176226Y1600739D01*
X171949Y1601884D01*
D02*
G37*
G36*
X146949Y1601885D02*
X142672Y1600739D01*
X132761Y1595016D01*
X124668Y1586924D01*
X118946Y1577013D01*
X117800Y1572736D01*
X146949D01*
Y1601885D01*
D02*
G37*
G36*
X430916Y1534744D02*
X427854D01*
Y1531682D01*
X430916Y1534744D01*
D02*
G37*
G36*
X373327D02*
X370265D01*
X373327Y1531682D01*
Y1534744D01*
D02*
G37*
G36*
X201097Y1547736D02*
X171949D01*
Y1518588D01*
X176226Y1519734D01*
X186137Y1525456D01*
X194229Y1533548D01*
X199951Y1543459D01*
X201097Y1547736D01*
D02*
G37*
G36*
X146949D02*
X117800D01*
X118946Y1543459D01*
X124668Y1533548D01*
X132761Y1525456D01*
X142672Y1519734D01*
X146949Y1518588D01*
Y1547736D01*
D02*
G37*
G36*
X200787Y1401575D02*
X118110D01*
Y1318898D01*
X200787D01*
Y1401575D01*
D02*
G37*
G36*
X171949Y1208184D02*
Y1179035D01*
X201097D01*
X199951Y1183312D01*
X194229Y1193223D01*
X186137Y1201316D01*
X176226Y1207038D01*
X171949Y1208184D01*
D02*
G37*
G36*
X146949Y1208184D02*
X142672Y1207038D01*
X132761Y1201316D01*
X124668Y1193223D01*
X118946Y1183312D01*
X117800Y1179035D01*
X146949D01*
Y1208184D01*
D02*
G37*
G36*
X201097Y1154035D02*
X171949D01*
Y1124887D01*
X176226Y1126033D01*
X186137Y1131755D01*
X194229Y1139848D01*
X199951Y1149759D01*
X201097Y1154035D01*
D02*
G37*
G36*
X146949D02*
X117800D01*
X118946Y1149759D01*
X124668Y1139848D01*
X132761Y1131755D01*
X142672Y1126033D01*
X146949Y1124887D01*
Y1154035D01*
D02*
G37*
G36*
X865453Y1523436D02*
X863189Y1521172D01*
X860925Y1523436D01*
Y1507874D01*
X835925D01*
Y1523436D01*
X833661Y1521172D01*
X831398Y1523436D01*
Y1507874D01*
X818898D01*
Y1495374D01*
X803336D01*
X805600Y1493110D01*
X803336Y1490847D01*
X818898D01*
Y1465847D01*
X803336D01*
X805600Y1463583D01*
X803336Y1461319D01*
X818898D01*
Y1436319D01*
X803336D01*
X805600Y1434055D01*
X803336Y1431791D01*
X818898D01*
Y1419291D01*
X831398D01*
Y1403730D01*
X833661Y1405994D01*
X835925Y1403730D01*
Y1419291D01*
X860925D01*
Y1403730D01*
X863189Y1405994D01*
X865453Y1403730D01*
Y1419291D01*
X877953D01*
Y1431791D01*
X893514D01*
X891250Y1434055D01*
X893514Y1436319D01*
X877953D01*
Y1461319D01*
X893514D01*
X891250Y1463583D01*
X893514Y1465847D01*
X877953D01*
Y1490847D01*
X893514D01*
X891250Y1493110D01*
X893514Y1495374D01*
X877953D01*
Y1507874D01*
X865453D01*
Y1523436D01*
D02*
G37*
G36*
X890453D02*
Y1520374D01*
X893514D01*
X890453Y1523436D01*
D02*
G37*
G36*
X806398D02*
X803336Y1520374D01*
X806398D01*
Y1523436D01*
D02*
G37*
G36*
X893514Y1406791D02*
X890453D01*
Y1403730D01*
X893514Y1406791D01*
D02*
G37*
G36*
X806398D02*
X803336D01*
X806398Y1403730D01*
Y1406791D01*
D02*
G37*
G36*
X2740847Y1385640D02*
Y1382579D01*
X2743908D01*
X2740847Y1385640D01*
D02*
G37*
G36*
X2715847D02*
X2712785Y1382579D01*
X2715847D01*
Y1385640D01*
D02*
G37*
G36*
X2743908Y1357579D02*
X2712785D01*
X2715049Y1355315D01*
X2712785Y1353051D01*
X2743908D01*
X2741644Y1355315D01*
X2743908Y1357579D01*
D02*
G37*
G36*
X3124704Y1343630D02*
Y1326279D01*
X3150968D01*
X3149945Y1328750D01*
X3145187Y1334951D01*
X3138986Y1339709D01*
X3131765Y1342700D01*
X3124704Y1343630D01*
D02*
G37*
G36*
X3099704D02*
X3092644Y1342700D01*
X3085423Y1339709D01*
X3079222Y1334951D01*
X3074463Y1328750D01*
X3073440Y1326279D01*
X3099704D01*
Y1343630D01*
D02*
G37*
G36*
X2969291Y1343720D02*
X2960137D01*
Y1326279D01*
X2996244D01*
X2995221Y1328750D01*
X2990463Y1334951D01*
X2984262Y1339709D01*
X2977040Y1342700D01*
X2969291Y1343720D01*
D02*
G37*
G36*
X2935137D02*
X2925984D01*
X2918234Y1342700D01*
X2911013Y1339709D01*
X2904812Y1334951D01*
X2900054Y1328750D01*
X2899030Y1326279D01*
X2935137D01*
Y1343720D01*
D02*
G37*
G36*
X2743908Y1328051D02*
X2712785D01*
X2715049Y1325787D01*
X2712785Y1323524D01*
X2743908D01*
X2741644Y1325787D01*
X2743908Y1328051D01*
D02*
G37*
G36*
X2359255Y1387795D02*
X2349407D01*
X2339894Y1385246D01*
X2331366Y1380322D01*
X2324402Y1373359D01*
X2319478Y1364830D01*
X2316929Y1355318D01*
Y1345470D01*
X2319478Y1335957D01*
X2324402Y1327429D01*
X2331366Y1320465D01*
X2339894Y1315541D01*
X2349407Y1312992D01*
X2359255D01*
X2368767Y1315541D01*
X2377296Y1320465D01*
X2384259Y1327429D01*
X2389183Y1335957D01*
X2391732Y1345470D01*
Y1355318D01*
X2389183Y1364830D01*
X2384259Y1373359D01*
X2377296Y1380322D01*
X2368767Y1385246D01*
X2359255Y1387795D01*
D02*
G37*
G36*
X1998032D02*
X1907480D01*
Y1312992D01*
X1998032D01*
Y1387795D01*
D02*
G37*
G36*
X2743908Y1298524D02*
X2712785D01*
X2715049Y1296260D01*
X2712785Y1293996D01*
X2743908D01*
X2741644Y1296260D01*
X2743908Y1298524D01*
D02*
G37*
G36*
X3150968Y1301279D02*
X3124704D01*
Y1283929D01*
X3131765Y1284858D01*
X3138986Y1287849D01*
X3145187Y1292608D01*
X3149945Y1298809D01*
X3150968Y1301279D01*
D02*
G37*
G36*
X3099704D02*
X3073440D01*
X3074463Y1298809D01*
X3079222Y1292608D01*
X3085423Y1287849D01*
X3092644Y1284858D01*
X3099704Y1283929D01*
Y1301279D01*
D02*
G37*
G36*
X2996244Y1301279D02*
X2960137D01*
Y1283838D01*
X2969291D01*
X2977040Y1284858D01*
X2984262Y1287849D01*
X2990463Y1292608D01*
X2995221Y1298809D01*
X2996244Y1301279D01*
D02*
G37*
G36*
X2935137D02*
X2899031D01*
X2900054Y1298809D01*
X2904812Y1292608D01*
X2911013Y1287849D01*
X2918234Y1284858D01*
X2925984Y1283838D01*
X2935137D01*
Y1301279D01*
D02*
G37*
G36*
X2743908Y1268996D02*
X2740847D01*
Y1265935D01*
X2743908Y1268996D01*
D02*
G37*
G36*
X2715847D02*
X2712785D01*
X2715847Y1265935D01*
Y1268996D01*
D02*
G37*
G36*
X2972713Y1278638D02*
X2964295D01*
X2956517Y1275417D01*
X2950564Y1269464D01*
X2947343Y1261686D01*
Y1253268D01*
X2950564Y1245490D01*
X2956517Y1239537D01*
X2964295Y1236315D01*
X2972713D01*
X2980491Y1239537D01*
X2986444Y1245490D01*
X2989665Y1253268D01*
Y1261686D01*
X2986444Y1269464D01*
X2980491Y1275417D01*
X2972713Y1278638D01*
D02*
G37*
G36*
X2452756Y1199141D02*
X2442992Y1197856D01*
X2433894Y1194087D01*
X2426081Y1188092D01*
X2420086Y1180279D01*
X2416317Y1171181D01*
X2415032Y1161417D01*
Y1145669D01*
X2416317Y1135906D01*
X2420086Y1126807D01*
X2426081Y1118994D01*
X2433894Y1112999D01*
X2442992Y1109230D01*
X2452756Y1107945D01*
X2462520Y1109230D01*
X2471618Y1112999D01*
X2479431Y1118994D01*
X2485426Y1126807D01*
X2489195Y1135906D01*
X2490480Y1145669D01*
Y1161417D01*
X2489195Y1171181D01*
X2485426Y1180279D01*
X2479431Y1188092D01*
X2471618Y1194087D01*
X2462520Y1197856D01*
X2452756Y1199141D01*
D02*
G37*
G36*
X2972713Y1051086D02*
X2964295D01*
X2956517Y1047864D01*
X2950564Y1041911D01*
X2947343Y1034134D01*
Y1025715D01*
X2950564Y1017938D01*
X2956517Y1011985D01*
X2964295Y1008763D01*
X2972713D01*
X2980491Y1011985D01*
X2986444Y1017938D01*
X2989665Y1025715D01*
Y1034134D01*
X2986444Y1041911D01*
X2980491Y1047864D01*
X2972713Y1051086D01*
D02*
G37*
G36*
X2969291Y1003563D02*
X2960137D01*
Y986123D01*
X2996244D01*
X2995221Y988593D01*
X2990463Y994794D01*
X2984262Y999552D01*
X2977040Y1002543D01*
X2969291Y1003563D01*
D02*
G37*
G36*
X2935137D02*
X2925984D01*
X2918234Y1002543D01*
X2911013Y999552D01*
X2904812Y994794D01*
X2900054Y988593D01*
X2899031Y986123D01*
X2935137D01*
Y1003563D01*
D02*
G37*
G36*
X3124704Y1003473D02*
Y986122D01*
X3150968D01*
X3149945Y988593D01*
X3145187Y994794D01*
X3138986Y999552D01*
X3131765Y1002543D01*
X3124704Y1003473D01*
D02*
G37*
G36*
X3099704D02*
X3092644Y1002543D01*
X3085423Y999552D01*
X3079222Y994794D01*
X3074463Y988593D01*
X3073440Y986122D01*
X3099704D01*
Y1003473D01*
D02*
G37*
G36*
X3150968Y961122D02*
X3124704D01*
Y943772D01*
X3131765Y944701D01*
X3138986Y947692D01*
X3145187Y952451D01*
X3149945Y958652D01*
X3150968Y961122D01*
D02*
G37*
G36*
X3099704D02*
X3073440D01*
X3074463Y958652D01*
X3079222Y952451D01*
X3085423Y947692D01*
X3092644Y944701D01*
X3099704Y943772D01*
Y961122D01*
D02*
G37*
G36*
X2996244Y961123D02*
X2960137D01*
Y943681D01*
X2969291D01*
X2977040Y944701D01*
X2984262Y947692D01*
X2990463Y952451D01*
X2995221Y958652D01*
X2996244Y961123D01*
D02*
G37*
G36*
X2935137D02*
X2899030D01*
X2900054Y958652D01*
X2904812Y952451D01*
X2911013Y947692D01*
X2918234Y944701D01*
X2925984Y943681D01*
X2935137D01*
Y961123D01*
D02*
G37*
%LPD*%
D45*
X543307Y907480D02*
D03*
X2962968Y761669D02*
D03*
X2866142Y1655512D02*
D03*
D48*
X915969Y707669D02*
Y734669D01*
X935969Y715954D02*
X1007552Y644370D01*
X914042Y736596D02*
X915969Y734669D01*
X2853285Y847424D02*
Y1179185D01*
X915969Y707669D02*
X999268Y624370D01*
X935969Y715954D02*
Y734669D01*
X1271654Y718913D02*
Y877953D01*
X1332968Y528669D02*
X2506246D01*
X2833285Y855708D01*
X1324684Y508669D02*
X2514530D01*
X2853285Y847424D01*
X1217268Y644370D02*
X1332968Y528669D01*
X1208984Y624370D02*
X1324684Y508669D01*
X610694Y532111D02*
X635969Y557385D01*
X609969Y559669D02*
X615969Y565669D01*
X583969Y532111D02*
X610694D01*
X583969Y559669D02*
X609969D01*
X635969Y557385D02*
Y607954D01*
X615969Y565669D02*
Y599669D01*
X591189Y624449D02*
X615969Y599669D01*
X384322Y644449D02*
X599473D01*
X635969Y607954D01*
X384322Y624449D02*
X591189D01*
X382395Y622523D02*
X384322Y624449D01*
X372969Y648228D02*
X374822Y646375D01*
X382395D01*
X384322Y644449D01*
X372969Y620669D02*
X374822Y622523D01*
X382395D01*
X2829226Y1184411D02*
Y1188885D01*
Y1184411D02*
X2833285Y1180352D01*
Y855708D02*
Y1180352D01*
X1007552Y644370D02*
X1217268D01*
X935969Y734669D02*
X937895Y736596D01*
X2855345Y1181244D02*
Y1188032D01*
X2857198Y1189885D01*
X2853285Y1179185D02*
X2855345Y1181244D01*
X999268Y624370D02*
X1208984D01*
X2815411Y863112D02*
Y1105227D01*
X2786968Y1133669D02*
X2815411Y1105227D01*
X2785968Y1017795D02*
X2797537Y1006227D01*
X2785968Y1017795D02*
Y1096669D01*
X2797537Y870516D02*
Y1006227D01*
X2672817Y745795D02*
X2797537Y870516D01*
X2680220Y727921D02*
X2815411Y863112D01*
X2786968Y1133669D02*
Y1181669D01*
X1367594Y558972D02*
Y622972D01*
Y558972D02*
X1367968Y558598D01*
X2238968Y791669D02*
X2284843Y745795D01*
X2672817D01*
X2232039Y772598D02*
X2276716Y727921D01*
X2680220D01*
X1541040Y805598D02*
X1554968Y791669D01*
X1515968Y805598D02*
X1541040D01*
X1554968Y791669D02*
X2238968D01*
X1528723Y772598D02*
X2232039D01*
X1271654Y718913D02*
X1367594Y622972D01*
X1539255Y879806D02*
Y888885D01*
X1560968Y910598D01*
X1537402Y877953D02*
X1539255Y879806D01*
X1619968Y821598D02*
X1812968D01*
X1560968Y910598D02*
X1648968D01*
X1812968Y821598D02*
X1813968Y820598D01*
X1648695Y1011598D02*
X1680968D01*
X1768968Y923598D01*
X1405968Y958598D02*
X1639968D01*
X1351968Y1012598D02*
X1405968Y958598D01*
X1639968D02*
X1731968Y866598D01*
D49*
X651968Y905598D02*
X863039D01*
X984968Y783669D01*
X1212001Y474521D02*
X1223276Y485795D01*
X2357968D01*
X2336968Y768669D02*
X2354331Y786032D01*
Y956693D01*
X194629Y1137425D02*
X570968D01*
X159449Y1166535D02*
X165519D01*
X194629Y1137425D01*
X570968Y986598D02*
X651968Y905598D01*
X570968Y986598D02*
Y1137425D01*
D50*
X1232969Y417669D02*
X1984968D01*
X2024968Y457669D01*
X949055Y543307D02*
X1149055D01*
X1154508Y496130D02*
X1232969Y417669D01*
X1154508Y496130D02*
Y517343D01*
D51*
X1787676Y592520D02*
X2098425D01*
X1734968Y645228D02*
X1787676Y592520D01*
X1392968Y592598D02*
Y836598D01*
X1734968Y644598D02*
Y645228D01*
X1682968Y592598D02*
X1734968Y644598D01*
X1392968Y592598D02*
X1682968D01*
X1227968Y1001598D02*
X1392968Y836598D01*
D52*
X988968Y1276260D02*
Y1282272D01*
X939571Y1226862D02*
X988968Y1276260D01*
X2360789Y1710795D02*
X2397968Y1747975D01*
Y1799669D01*
X2320878Y1710795D02*
X2360789D01*
X988968Y1282272D02*
X1061968D01*
X1148968Y1369272D01*
Y1433669D01*
X1450094Y1734795D01*
X2296878D01*
X2320878Y1710795D01*
X988968Y1282272D02*
Y1322425D01*
D54*
X2000000Y1773669D02*
Y1842520D01*
Y1773669D02*
X2315968D01*
X1330040D02*
X2000000D01*
X1049087Y1492717D02*
X1330040Y1773669D01*
X2315968D02*
X2339968Y1749669D01*
X1038535Y1491292D02*
X1039961Y1492717D01*
X1038535Y1482165D02*
Y1491292D01*
X1039961Y1492717D02*
X1049087D01*
D55*
X746323Y1570276D02*
X895323D01*
X726323Y1590276D02*
X746323Y1570276D01*
D58*
X405512Y1576772D02*
D03*
D61*
X3112204Y1313779D02*
D03*
Y973622D02*
D03*
X111213Y463748D02*
D03*
Y803905D02*
D03*
D62*
X2968504Y1257477D02*
D03*
Y1029925D02*
D03*
X254913Y520051D02*
D03*
Y747603D02*
D03*
D63*
X2947637Y1313779D02*
D03*
Y973622D02*
D03*
X275780Y463748D02*
D03*
Y803905D02*
D03*
D64*
X949055Y543307D02*
D03*
X159449Y1560236D02*
D03*
Y1166535D02*
D03*
D65*
X1149055Y543307D02*
D03*
D66*
X159449Y1360236D02*
D03*
Y966535D02*
D03*
D67*
X1952756Y956693D02*
D03*
D68*
Y1350394D02*
D03*
D69*
X2354331Y956693D02*
D03*
Y1350394D02*
D03*
D70*
X2452756Y1153543D02*
D03*
D71*
X3112205Y818898D02*
D03*
D72*
X2942913Y1537402D02*
D03*
D73*
X984968Y783669D02*
D03*
X939748Y748669D02*
D03*
X910940Y749142D02*
D03*
X2098425Y592520D02*
D03*
X2357968Y485795D02*
D03*
X2024968Y457669D02*
D03*
X1271654Y877953D02*
D03*
X583969Y532111D02*
D03*
Y559669D02*
D03*
X372969Y648228D02*
D03*
X2827372Y1188885D02*
D03*
X372969Y620669D02*
D03*
X2857198Y1189885D02*
D03*
X2856968Y1108669D02*
D03*
X1212001Y474521D02*
D03*
X939571Y1226862D02*
D03*
X818898Y1507874D02*
D03*
Y1478347D02*
D03*
Y1448819D02*
D03*
Y1419291D02*
D03*
X848425D02*
D03*
Y1448819D02*
D03*
Y1478347D02*
D03*
Y1507874D02*
D03*
X877953Y1419291D02*
D03*
Y1448819D02*
D03*
Y1478347D02*
D03*
Y1507874D02*
D03*
X2767716Y996063D02*
D03*
X2738189D02*
D03*
X2718504Y956693D02*
D03*
X2748032D02*
D03*
X1367968Y558598D02*
D03*
X2786968Y1181669D02*
D03*
X2785968Y1096669D02*
D03*
X2728347Y1370079D02*
D03*
Y1340551D02*
D03*
Y1311024D02*
D03*
Y1281496D02*
D03*
X2000000Y1842520D02*
D03*
X2397968Y1799669D02*
D03*
X2629921Y1645669D02*
D03*
Y1685040D02*
D03*
X2336968Y768669D02*
D03*
X2339968Y1749669D02*
D03*
X1734968Y645228D02*
D03*
X1394968Y835598D02*
D03*
X1392968Y592598D02*
D03*
X1528723Y772598D02*
D03*
X1515968Y805598D02*
D03*
X1537402Y877953D02*
D03*
X1619968Y821598D02*
D03*
X1596457Y1419291D02*
D03*
X1655512D02*
D03*
X1625984D02*
D03*
X1596457Y1389764D02*
D03*
X1655512D02*
D03*
X1625984D02*
D03*
X641732Y1055118D02*
D03*
Y996063D02*
D03*
Y1025591D02*
D03*
X681102Y1055118D02*
D03*
Y996063D02*
D03*
Y1025591D02*
D03*
X385827Y1606299D02*
D03*
Y1547244D02*
D03*
Y1576772D02*
D03*
X415354Y1606299D02*
D03*
Y1547244D02*
D03*
Y1576772D02*
D03*
X1813968Y820598D02*
D03*
X1768968Y923598D02*
D03*
X1351968Y1012598D02*
D03*
X1731968Y866598D02*
D03*
X1648695Y1011598D02*
D03*
X1648968Y910598D02*
D03*
X988968Y1322425D02*
D03*
X570968Y1137425D02*
D03*
X1038535Y1393583D02*
D03*
Y1452638D02*
D03*
Y1423110D02*
D03*
Y1364055D02*
D03*
X726323Y1590276D02*
D03*
X1038535Y1482165D02*
D03*
X895323Y1570276D02*
D03*
D74*
X1984968Y1618669D02*
D03*
D75*
X1832677Y1389764D02*
Y1466378D01*
X1984968Y1618669D01*
X1997748Y1605890D02*
X2580709D01*
X1984968Y1618669D02*
X1997748Y1605890D01*
X2580709D02*
X2625205Y1650386D01*
D76*
X848425Y1463583D02*
D03*
D77*
X1035433Y1429134D02*
D03*
%TF.MD5,1430bef1adbd6cf875c86068debfc4f8*%
M02*
