%TF.GenerationSoftware,Altium Limited,Altium Designer,23.11.1 (41)*%
G04 Layer_Color=32896*
%FSLAX26Y26*%
%MOIN*%
%TF.SameCoordinates,0B4E2714-AAF7-4A90-8E72-ED1F183F2DA5*%
%TF.FilePolarity,Positive*%
%TF.FileFunction,Legend,Bot*%
%TF.Part,CustomerPanel*%
G01*
G75*
%TA.AperFunction,NonConductor*%
%ADD78C,0.008000*%
G36*
X1102022Y624854D02*
X1090411D01*
Y650241D01*
X1072207D01*
Y624854D01*
X1060596D01*
Y684386D01*
X1072207D01*
Y659786D01*
X1090411D01*
Y684386D01*
X1102022D01*
Y624854D01*
D02*
G37*
G36*
X997423D02*
X987583D01*
Y659393D01*
Y660377D01*
Y661361D01*
Y662148D01*
Y662837D01*
X987681Y663329D01*
Y663821D01*
Y664017D01*
Y664116D01*
Y665395D01*
Y666379D01*
X987780Y666674D01*
Y666969D01*
Y667068D01*
Y667166D01*
X987583D01*
X987485Y666871D01*
X987288Y666477D01*
X986894Y665592D01*
X986697Y665198D01*
X986500Y664805D01*
X986402Y664608D01*
Y664509D01*
X985615Y663033D01*
X984926Y661656D01*
X984533Y661065D01*
X984237Y660573D01*
X984139Y660278D01*
X984040Y660180D01*
X962688Y624854D01*
X953143D01*
Y684386D01*
X963081D01*
Y651029D01*
Y649946D01*
Y648962D01*
Y648077D01*
Y647388D01*
Y646797D01*
Y646305D01*
Y646010D01*
Y645912D01*
Y645223D01*
X962983Y644534D01*
Y644042D01*
Y643649D01*
Y643157D01*
Y642960D01*
X963081D01*
X963475Y643944D01*
X963967Y644928D01*
X964262Y645321D01*
X964361Y645715D01*
X964557Y645912D01*
Y646010D01*
X965246Y647388D01*
X965935Y648765D01*
X966230Y649257D01*
X966427Y649651D01*
X966525Y649946D01*
X966624Y650045D01*
X987485Y684386D01*
X997423D01*
Y624854D01*
D02*
G37*
G36*
X1128295Y685370D02*
X1129869Y685272D01*
X1131247Y685075D01*
X1132428Y684878D01*
X1133412Y684583D01*
X1134101Y684386D01*
X1134592Y684288D01*
X1134789Y684189D01*
X1136069Y683697D01*
X1137249Y683107D01*
X1138233Y682517D01*
X1139119Y681926D01*
X1139906Y681336D01*
X1140398Y680942D01*
X1140792Y680647D01*
X1140890Y680549D01*
X1141776Y679663D01*
X1142563Y678777D01*
X1143153Y677793D01*
X1143744Y676908D01*
X1144137Y676219D01*
X1144432Y675629D01*
X1144629Y675137D01*
X1144728Y675038D01*
X1145220Y673759D01*
X1145515Y672578D01*
X1145810Y671299D01*
X1145909Y670217D01*
X1146007Y669233D01*
X1146105Y668445D01*
Y667953D01*
Y667757D01*
X1146007Y666182D01*
X1145810Y664706D01*
X1145613Y663427D01*
X1145220Y662345D01*
X1144925Y661459D01*
X1144728Y660869D01*
X1144531Y660377D01*
X1144432Y660278D01*
X1143744Y659196D01*
X1142957Y658212D01*
X1142268Y657425D01*
X1141579Y656637D01*
X1140988Y656047D01*
X1140496Y655653D01*
X1140201Y655358D01*
X1140103Y655260D01*
X1138135Y653882D01*
X1137249Y653193D01*
X1136364Y652701D01*
X1135675Y652308D01*
X1135084Y652013D01*
X1134691Y651816D01*
X1134592Y651717D01*
X1132428Y650733D01*
X1131444Y650241D01*
X1130657Y649749D01*
X1129968Y649454D01*
X1129476Y649159D01*
X1129082Y648962D01*
X1128984Y648864D01*
X1128098Y648372D01*
X1127213Y647781D01*
X1126524Y647289D01*
X1125933Y646797D01*
X1125441Y646305D01*
X1125048Y646010D01*
X1124851Y645813D01*
X1124753Y645715D01*
X1124162Y645026D01*
X1123768Y644337D01*
X1123375Y643649D01*
X1123178Y642960D01*
X1123080Y642369D01*
X1122981Y641877D01*
Y641582D01*
Y641484D01*
X1123080Y640303D01*
X1123375Y639319D01*
X1123768Y638433D01*
X1124162Y637646D01*
X1124654Y637056D01*
X1125048Y636662D01*
X1125343Y636367D01*
X1125441Y636269D01*
X1126425Y635580D01*
X1127508Y635088D01*
X1128590Y634793D01*
X1129574Y634596D01*
X1130558Y634399D01*
X1131345Y634301D01*
X1132034D01*
X1134101Y634399D01*
X1135084Y634596D01*
X1135970Y634694D01*
X1136659Y634891D01*
X1137249Y634989D01*
X1137643Y635088D01*
X1137741D01*
X1139709Y635777D01*
X1140595Y636072D01*
X1141382Y636367D01*
X1142071Y636662D01*
X1142563Y636859D01*
X1142858Y637056D01*
X1142957D01*
X1146794Y627019D01*
X1144236Y625937D01*
X1142957Y625543D01*
X1141874Y625248D01*
X1140890Y624953D01*
X1140201Y624756D01*
X1139709Y624657D01*
X1139513D01*
X1136561Y624165D01*
X1135183Y624067D01*
X1134002Y623969D01*
X1132920Y623870D01*
X1131444D01*
X1129672Y623969D01*
X1128098Y624067D01*
X1126622Y624264D01*
X1125343Y624559D01*
X1124359Y624756D01*
X1123572Y624953D01*
X1123080Y625051D01*
X1122883Y625149D01*
X1121505Y625641D01*
X1120226Y626232D01*
X1119144Y626921D01*
X1118258Y627511D01*
X1117471Y628003D01*
X1116979Y628495D01*
X1116585Y628790D01*
X1116487Y628889D01*
X1115503Y629873D01*
X1114716Y630857D01*
X1114027Y631742D01*
X1113437Y632628D01*
X1113043Y633415D01*
X1112748Y634005D01*
X1112551Y634497D01*
X1112453Y634596D01*
X1111960Y635875D01*
X1111665Y637154D01*
X1111370Y638433D01*
X1111272Y639614D01*
X1111173Y640598D01*
X1111075Y641385D01*
Y641877D01*
Y642074D01*
X1111173Y643649D01*
X1111370Y645125D01*
X1111665Y646404D01*
X1111960Y647388D01*
X1112256Y648273D01*
X1112551Y648962D01*
X1112748Y649356D01*
X1112846Y649454D01*
X1113535Y650537D01*
X1114224Y651521D01*
X1114912Y652308D01*
X1115601Y653095D01*
X1116290Y653685D01*
X1116684Y654079D01*
X1117077Y654374D01*
X1117176Y654473D01*
X1119144Y655949D01*
X1120029Y656539D01*
X1120915Y657129D01*
X1121702Y657523D01*
X1122293Y657818D01*
X1122686Y658015D01*
X1122784Y658113D01*
X1124949Y659196D01*
X1125933Y659688D01*
X1126819Y660180D01*
X1127508Y660475D01*
X1128000Y660770D01*
X1128393Y660967D01*
X1128492Y661065D01*
X1130263Y662148D01*
X1130952Y662738D01*
X1131640Y663230D01*
X1132132Y663624D01*
X1132526Y663919D01*
X1132723Y664116D01*
X1132821Y664214D01*
X1133412Y664903D01*
X1133805Y665592D01*
X1134101Y666281D01*
X1134297Y666969D01*
X1134396Y667560D01*
X1134494Y668052D01*
Y668347D01*
Y668445D01*
X1134396Y669528D01*
X1134199Y670610D01*
X1133805Y671397D01*
X1133412Y672185D01*
X1133018Y672677D01*
X1132624Y673169D01*
X1132428Y673365D01*
X1132329Y673464D01*
X1131444Y674153D01*
X1130460Y674645D01*
X1129377Y674940D01*
X1128393Y675235D01*
X1127606Y675333D01*
X1126819Y675432D01*
X1126228D01*
X1124261Y675333D01*
X1123375Y675235D01*
X1122588Y675137D01*
X1121899Y674940D01*
X1121407Y674841D01*
X1121112Y674743D01*
X1121013D01*
X1119242Y674153D01*
X1118455Y673857D01*
X1117864Y673562D01*
X1117274Y673267D01*
X1116880Y673070D01*
X1116585Y672972D01*
X1116487Y672873D01*
X1112846Y682221D01*
X1115011Y683304D01*
X1116093Y683697D01*
X1117077Y683993D01*
X1117864Y684288D01*
X1118553Y684485D01*
X1118947Y684583D01*
X1119144D01*
X1121801Y685075D01*
X1123080Y685272D01*
X1124261Y685370D01*
X1125245Y685469D01*
X1126720D01*
X1128295Y685370D01*
D02*
G37*
G36*
X1036685Y685272D02*
X1038259Y685173D01*
X1039637Y684977D01*
X1040719Y684780D01*
X1041604Y684681D01*
X1042195Y684485D01*
X1042392D01*
X1043966Y684091D01*
X1045344Y683796D01*
X1046524Y683402D01*
X1047508Y683009D01*
X1048394Y682713D01*
X1048985Y682418D01*
X1049378Y682320D01*
X1049476Y682221D01*
Y627019D01*
X1048394Y626527D01*
X1047213Y626133D01*
X1046131Y625740D01*
X1044950Y625346D01*
X1043966Y625149D01*
X1043179Y624953D01*
X1042687Y624756D01*
X1042490D01*
X1039243Y624264D01*
X1037668Y624067D01*
X1036193Y623969D01*
X1034913D01*
X1034028Y623870D01*
X1033142D01*
X1030879Y623969D01*
X1028714Y624165D01*
X1026746Y624559D01*
X1024877Y625051D01*
X1023105Y625641D01*
X1021531Y626330D01*
X1020055Y627019D01*
X1018776Y627806D01*
X1017595Y628495D01*
X1016611Y629184D01*
X1015725Y629873D01*
X1015037Y630463D01*
X1014446Y630955D01*
X1014053Y631349D01*
X1013856Y631545D01*
X1013757Y631644D01*
X1012478Y633218D01*
X1011494Y634891D01*
X1010510Y636662D01*
X1009723Y638532D01*
X1009034Y640500D01*
X1008444Y642369D01*
X1008050Y644239D01*
X1007657Y646109D01*
X1007361Y647880D01*
X1007164Y649454D01*
X1006968Y650930D01*
X1006869Y652209D01*
X1006771Y653193D01*
Y653981D01*
Y654473D01*
Y654669D01*
X1006869Y657425D01*
X1007066Y659983D01*
X1007460Y662345D01*
X1007853Y664608D01*
X1008345Y666674D01*
X1008936Y668544D01*
X1009625Y670217D01*
X1010215Y671791D01*
X1010904Y673169D01*
X1011592Y674349D01*
X1012183Y675333D01*
X1012675Y676121D01*
X1013068Y676809D01*
X1013462Y677203D01*
X1013659Y677498D01*
X1013757Y677597D01*
X1015135Y678974D01*
X1016611Y680155D01*
X1018087Y681237D01*
X1019661Y682123D01*
X1021334Y682910D01*
X1022909Y683599D01*
X1024483Y684091D01*
X1026057Y684485D01*
X1027435Y684780D01*
X1028812Y685075D01*
X1029993Y685272D01*
X1031076Y685370D01*
X1031961Y685469D01*
X1034913D01*
X1036685Y685272D01*
D02*
G37*
G36*
X347683Y1196744D02*
X349159Y1196547D01*
X350438Y1196449D01*
X351619Y1196252D01*
X352406Y1196055D01*
X352997Y1195957D01*
X353193D01*
X354768Y1195662D01*
X356244Y1195268D01*
X357622Y1194875D01*
X358802Y1194481D01*
X359885Y1194186D01*
X360574Y1193891D01*
X361065Y1193694D01*
X361262Y1193595D01*
X358015Y1184838D01*
X355850Y1185625D01*
X354768Y1185920D01*
X353882Y1186215D01*
X352997Y1186412D01*
X352406Y1186609D01*
X351914Y1186707D01*
X351816D01*
X349356Y1187101D01*
X348274Y1187199D01*
X347388Y1187298D01*
X346601Y1187396D01*
X345420D01*
X343452Y1187298D01*
X341779Y1187003D01*
X340303Y1186609D01*
X339122Y1186117D01*
X338138Y1185625D01*
X337548Y1185231D01*
X337056Y1184936D01*
X336957Y1184838D01*
X335974Y1183854D01*
X335285Y1182771D01*
X334694Y1181689D01*
X334399Y1180607D01*
X334202Y1179721D01*
X334005Y1178934D01*
Y1178442D01*
Y1178245D01*
X334104Y1177163D01*
X334202Y1176179D01*
X334498Y1175293D01*
X334694Y1174506D01*
X334990Y1173817D01*
X335285Y1173325D01*
X335383Y1172931D01*
X335481Y1172833D01*
X336564Y1171062D01*
X337154Y1170275D01*
X337646Y1169487D01*
X338040Y1168897D01*
X338433Y1168405D01*
X338630Y1168110D01*
X338729Y1168011D01*
X364214Y1136228D01*
X321017D01*
Y1145478D01*
X345223D01*
X329676Y1162993D01*
X328692Y1164174D01*
X327806Y1165158D01*
X327511Y1165650D01*
X327216Y1165945D01*
X327118Y1166142D01*
X327019Y1166240D01*
X326035Y1167618D01*
X325248Y1168799D01*
X324953Y1169291D01*
X324756Y1169684D01*
X324559Y1169881D01*
Y1169979D01*
X323870Y1171554D01*
X323280Y1172833D01*
X323083Y1173423D01*
X322985Y1173817D01*
X322886Y1174112D01*
Y1174211D01*
X322493Y1175883D01*
X322394Y1176671D01*
X322296Y1177359D01*
X322197Y1177950D01*
Y1178442D01*
Y1178737D01*
Y1178835D01*
X322296Y1180410D01*
X322394Y1181787D01*
X322690Y1183165D01*
X323083Y1184444D01*
X323969Y1186707D01*
X325051Y1188577D01*
X325543Y1189364D01*
X326134Y1190053D01*
X326625Y1190643D01*
X327019Y1191135D01*
X327413Y1191529D01*
X327610Y1191824D01*
X327806Y1191923D01*
X327905Y1192021D01*
X328987Y1192907D01*
X330266Y1193595D01*
X331546Y1194284D01*
X332825Y1194776D01*
X335580Y1195662D01*
X338237Y1196252D01*
X339516Y1196449D01*
X340697Y1196547D01*
X341681Y1196744D01*
X342665D01*
X343353Y1196843D01*
X346109D01*
X347683Y1196744D01*
D02*
G37*
G36*
X247217Y1136228D02*
X234917D01*
X216614Y1195760D01*
X229209D01*
X239246Y1156991D01*
X239738Y1155023D01*
X239935Y1154137D01*
X240132Y1153350D01*
X240230Y1152661D01*
X240329Y1152169D01*
X240427Y1151874D01*
Y1151775D01*
X240525Y1150988D01*
X240722Y1150299D01*
X240821Y1149709D01*
Y1149217D01*
X240919Y1148823D01*
X241018Y1148627D01*
Y1148528D01*
Y1148430D01*
X241214D01*
X241313Y1148823D01*
X241411Y1149315D01*
X241510Y1149709D01*
Y1149807D01*
X241608Y1150595D01*
X241706Y1151283D01*
X241805Y1151775D01*
Y1151874D01*
Y1151972D01*
X242001Y1152858D01*
X242100Y1153645D01*
X242198Y1154235D01*
X242297Y1154334D01*
Y1154432D01*
X242494Y1155416D01*
X242690Y1156203D01*
X242789Y1156794D01*
X242887Y1156892D01*
Y1156991D01*
X252924Y1195760D01*
X265519D01*
X247217Y1136228D01*
D02*
G37*
G36*
X392455Y1167323D02*
X405247D01*
Y1158565D01*
X392455D01*
Y1145281D01*
X383009D01*
Y1158565D01*
X370217D01*
Y1167323D01*
X383009D01*
Y1180607D01*
X392455D01*
Y1167323D01*
D02*
G37*
G36*
X312849Y1158959D02*
Y1150890D01*
X286183D01*
Y1136228D01*
X275753D01*
Y1150890D01*
X269849D01*
Y1158959D01*
X275753D01*
Y1195760D01*
X288053D01*
X312849Y1158959D01*
D02*
G37*
G36*
X347683Y1590445D02*
X349159Y1590248D01*
X350438Y1590150D01*
X351619Y1589953D01*
X352406Y1589756D01*
X352997Y1589658D01*
X353193D01*
X354768Y1589363D01*
X356244Y1588969D01*
X357622Y1588575D01*
X358802Y1588182D01*
X359885Y1587887D01*
X360574Y1587591D01*
X361065Y1587395D01*
X361262Y1587296D01*
X358015Y1578539D01*
X355850Y1579326D01*
X354768Y1579621D01*
X353882Y1579916D01*
X352997Y1580113D01*
X352406Y1580310D01*
X351914Y1580408D01*
X351816D01*
X349356Y1580802D01*
X348274Y1580900D01*
X347388Y1580999D01*
X346601Y1581097D01*
X345420D01*
X343452Y1580999D01*
X341779Y1580703D01*
X340303Y1580310D01*
X339122Y1579818D01*
X338138Y1579326D01*
X337548Y1578932D01*
X337056Y1578637D01*
X336957Y1578539D01*
X335974Y1577555D01*
X335285Y1576472D01*
X334694Y1575390D01*
X334399Y1574307D01*
X334202Y1573422D01*
X334005Y1572635D01*
Y1572143D01*
Y1571946D01*
X334104Y1570863D01*
X334202Y1569879D01*
X334498Y1568994D01*
X334694Y1568207D01*
X334990Y1567518D01*
X335285Y1567026D01*
X335383Y1566632D01*
X335481Y1566534D01*
X336564Y1564763D01*
X337154Y1563975D01*
X337646Y1563188D01*
X338040Y1562598D01*
X338433Y1562106D01*
X338630Y1561811D01*
X338729Y1561712D01*
X364214Y1529929D01*
X321017D01*
Y1539179D01*
X345223D01*
X329676Y1556694D01*
X328692Y1557875D01*
X327806Y1558859D01*
X327511Y1559351D01*
X327216Y1559646D01*
X327118Y1559843D01*
X327019Y1559941D01*
X326035Y1561319D01*
X325248Y1562499D01*
X324953Y1562991D01*
X324756Y1563385D01*
X324559Y1563582D01*
Y1563680D01*
X323870Y1565255D01*
X323280Y1566534D01*
X323083Y1567124D01*
X322985Y1567518D01*
X322886Y1567813D01*
Y1567911D01*
X322493Y1569584D01*
X322394Y1570371D01*
X322296Y1571060D01*
X322197Y1571651D01*
Y1572143D01*
Y1572438D01*
Y1572536D01*
X322296Y1574111D01*
X322394Y1575488D01*
X322690Y1576866D01*
X323083Y1578145D01*
X323969Y1580408D01*
X325051Y1582278D01*
X325543Y1583065D01*
X326134Y1583754D01*
X326625Y1584344D01*
X327019Y1584836D01*
X327413Y1585230D01*
X327610Y1585525D01*
X327806Y1585623D01*
X327905Y1585722D01*
X328987Y1586607D01*
X330266Y1587296D01*
X331546Y1587985D01*
X332825Y1588477D01*
X335580Y1589363D01*
X338237Y1589953D01*
X339516Y1590150D01*
X340697Y1590248D01*
X341681Y1590445D01*
X342665D01*
X343353Y1590543D01*
X346109D01*
X347683Y1590445D01*
D02*
G37*
G36*
X247217Y1529929D02*
X234917D01*
X216614Y1589461D01*
X229209D01*
X239246Y1550691D01*
X239738Y1548723D01*
X239935Y1547838D01*
X240132Y1547051D01*
X240230Y1546362D01*
X240329Y1545870D01*
X240427Y1545575D01*
Y1545476D01*
X240525Y1544689D01*
X240722Y1544000D01*
X240821Y1543410D01*
Y1542918D01*
X240919Y1542524D01*
X241018Y1542327D01*
Y1542229D01*
Y1542131D01*
X241214D01*
X241313Y1542524D01*
X241411Y1543016D01*
X241510Y1543410D01*
Y1543508D01*
X241608Y1544295D01*
X241706Y1544984D01*
X241805Y1545476D01*
Y1545575D01*
Y1545673D01*
X242001Y1546559D01*
X242100Y1547346D01*
X242198Y1547936D01*
X242297Y1548035D01*
Y1548133D01*
X242494Y1549117D01*
X242690Y1549904D01*
X242789Y1550495D01*
X242887Y1550593D01*
Y1550691D01*
X252924Y1589461D01*
X265519D01*
X247217Y1529929D01*
D02*
G37*
G36*
X392455Y1561023D02*
X405247D01*
Y1552266D01*
X392455D01*
Y1538982D01*
X383009D01*
Y1552266D01*
X370217D01*
Y1561023D01*
X383009D01*
Y1574307D01*
X392455D01*
Y1561023D01*
D02*
G37*
G36*
X312849Y1552659D02*
Y1544591D01*
X286183D01*
Y1529929D01*
X275753D01*
Y1544591D01*
X269849D01*
Y1552659D01*
X275753D01*
Y1589461D01*
X288053D01*
X312849Y1552659D01*
D02*
G37*
G36*
X314621Y1330421D02*
X304781D01*
Y1364959D01*
Y1365943D01*
Y1366927D01*
Y1367715D01*
Y1368403D01*
X304879Y1368895D01*
Y1369387D01*
Y1369584D01*
Y1369683D01*
Y1370962D01*
Y1371946D01*
X304978Y1372241D01*
Y1372536D01*
Y1372635D01*
Y1372733D01*
X304781D01*
X304682Y1372438D01*
X304486Y1372044D01*
X304092Y1371159D01*
X303895Y1370765D01*
X303698Y1370371D01*
X303600Y1370175D01*
Y1370076D01*
X302813Y1368600D01*
X302124Y1367223D01*
X301730Y1366632D01*
X301435Y1366140D01*
X301337Y1365845D01*
X301238Y1365747D01*
X279885Y1330421D01*
X270341D01*
Y1389953D01*
X280279D01*
Y1356595D01*
Y1355513D01*
Y1354529D01*
Y1353643D01*
Y1352955D01*
Y1352364D01*
Y1351872D01*
Y1351577D01*
Y1351479D01*
Y1350790D01*
X280181Y1350101D01*
Y1349609D01*
Y1349215D01*
Y1348723D01*
Y1348527D01*
X280279D01*
X280673Y1349511D01*
X281165Y1350495D01*
X281460Y1350888D01*
X281558Y1351282D01*
X281755Y1351479D01*
Y1351577D01*
X282444Y1352955D01*
X283133Y1354332D01*
X283428Y1354824D01*
X283625Y1355218D01*
X283723Y1355513D01*
X283822Y1355611D01*
X304682Y1389953D01*
X314621D01*
Y1330421D01*
D02*
G37*
G36*
X343058Y1390937D02*
X345223Y1390740D01*
X347191Y1390347D01*
X348864Y1389953D01*
X350340Y1389559D01*
X351422Y1389166D01*
X351816Y1389067D01*
X352111Y1388969D01*
X352209Y1388871D01*
X352308D01*
X354178Y1387985D01*
X355850Y1387001D01*
X357326Y1385919D01*
X358606Y1384935D01*
X359688Y1384049D01*
X360475Y1383360D01*
X360967Y1382868D01*
X361164Y1382671D01*
X362443Y1381097D01*
X363624Y1379424D01*
X364608Y1377850D01*
X365395Y1376275D01*
X365986Y1374996D01*
X366478Y1373914D01*
X366674Y1373520D01*
X366773Y1373225D01*
X366871Y1373028D01*
Y1372930D01*
X367560Y1370765D01*
X368052Y1368502D01*
X368347Y1366435D01*
X368544Y1364467D01*
X368741Y1362795D01*
Y1362007D01*
X368839Y1361417D01*
Y1360925D01*
Y1360531D01*
Y1360335D01*
Y1360236D01*
X368741Y1357678D01*
X368544Y1355218D01*
X368249Y1353053D01*
X367855Y1351183D01*
X367560Y1349609D01*
X367363Y1349019D01*
X367265Y1348428D01*
X367166Y1348035D01*
X367068Y1347739D01*
X366969Y1347543D01*
Y1347444D01*
X366182Y1345378D01*
X365297Y1343508D01*
X364411Y1341835D01*
X363526Y1340458D01*
X362738Y1339277D01*
X362148Y1338391D01*
X361754Y1337899D01*
X361558Y1337703D01*
X360180Y1336325D01*
X358704Y1335046D01*
X357326Y1333963D01*
X355949Y1333078D01*
X354768Y1332389D01*
X353784Y1331897D01*
X353489Y1331700D01*
X353193Y1331602D01*
X353095Y1331503D01*
X352997D01*
X351029Y1330815D01*
X349159Y1330323D01*
X347191Y1329929D01*
X345518Y1329732D01*
X344042Y1329535D01*
X343353D01*
X342861Y1329437D01*
X339811D01*
X337942Y1329634D01*
X336269Y1329732D01*
X334891Y1329929D01*
X333710Y1330126D01*
X332825Y1330224D01*
X332234Y1330421D01*
X332038D01*
X330463Y1330815D01*
X329184Y1331110D01*
X328003Y1331503D01*
X327019Y1331799D01*
X326330Y1332094D01*
X325740Y1332389D01*
X325445Y1332487D01*
X325346Y1332586D01*
Y1365550D01*
X345322D01*
Y1356694D01*
X336269D01*
Y1340064D01*
X336957Y1339769D01*
X337745Y1339572D01*
X338433Y1339474D01*
X338630Y1339375D01*
X338729D01*
X340008Y1339277D01*
X341287Y1339179D01*
X342566D01*
X343649Y1339277D01*
X344633Y1339375D01*
X345518Y1339572D01*
X346404Y1339867D01*
X347093Y1340064D01*
X347585Y1340261D01*
X347978Y1340359D01*
X348077Y1340458D01*
X349061Y1340950D01*
X349946Y1341639D01*
X350733Y1342229D01*
X351422Y1342918D01*
X352013Y1343508D01*
X352406Y1344000D01*
X352702Y1344295D01*
X352800Y1344394D01*
X353489Y1345476D01*
X354178Y1346559D01*
X354768Y1347641D01*
X355161Y1348723D01*
X355555Y1349609D01*
X355850Y1350298D01*
X355949Y1350790D01*
X356047Y1350987D01*
X356441Y1352561D01*
X356736Y1354135D01*
X356933Y1355611D01*
X357031Y1357087D01*
X357130Y1358367D01*
X357228Y1359351D01*
Y1359744D01*
Y1360039D01*
Y1360138D01*
Y1360236D01*
X357130Y1362204D01*
X357031Y1363975D01*
X356834Y1365550D01*
X356539Y1366927D01*
X356342Y1368010D01*
X356146Y1368797D01*
X356047Y1369289D01*
X355949Y1369486D01*
X355358Y1370863D01*
X354768Y1372143D01*
X354178Y1373225D01*
X353587Y1374209D01*
X353095Y1374996D01*
X352702Y1375488D01*
X352406Y1375882D01*
X352308Y1375980D01*
X351422Y1376866D01*
X350537Y1377751D01*
X349651Y1378342D01*
X348765Y1378932D01*
X348077Y1379326D01*
X347486Y1379621D01*
X347093Y1379719D01*
X346994Y1379818D01*
X345813Y1380211D01*
X344633Y1380605D01*
X343452Y1380802D01*
X342468Y1380900D01*
X341582Y1380999D01*
X340894Y1381097D01*
X339024D01*
X337843Y1380999D01*
X336761Y1380900D01*
X335777Y1380802D01*
X335088Y1380605D01*
X334498Y1380507D01*
X334104Y1380408D01*
X334005D01*
X333022Y1380113D01*
X332136Y1379818D01*
X331349Y1379621D01*
X330660Y1379326D01*
X330168Y1379129D01*
X329774Y1378932D01*
X329577Y1378735D01*
X329479D01*
X325838Y1387788D01*
X326822Y1388280D01*
X327806Y1388772D01*
X328889Y1389067D01*
X329873Y1389461D01*
X330857Y1389658D01*
X331546Y1389855D01*
X332038Y1390051D01*
X332234D01*
X335186Y1390642D01*
X336662Y1390839D01*
X337942Y1390937D01*
X339122Y1391035D01*
X340795D01*
X343058Y1390937D01*
D02*
G37*
G36*
X246528Y1390839D02*
X248102Y1390740D01*
X249480Y1390543D01*
X250562Y1390347D01*
X251448Y1390248D01*
X252038Y1390051D01*
X252235D01*
X253810Y1389658D01*
X255187Y1389363D01*
X256368Y1388969D01*
X257352Y1388575D01*
X258238Y1388280D01*
X258828Y1387985D01*
X259221Y1387887D01*
X259320Y1387788D01*
Y1332586D01*
X258238Y1332094D01*
X257057Y1331700D01*
X255974Y1331307D01*
X254793Y1330913D01*
X253810Y1330716D01*
X253022Y1330519D01*
X252530Y1330323D01*
X252333D01*
X249086Y1329831D01*
X247512Y1329634D01*
X246036Y1329535D01*
X244757D01*
X243871Y1329437D01*
X242986D01*
X240722Y1329535D01*
X238558Y1329732D01*
X236589Y1330126D01*
X234720Y1330618D01*
X232949Y1331208D01*
X231374Y1331897D01*
X229898Y1332586D01*
X228619Y1333373D01*
X227438Y1334062D01*
X226454Y1334751D01*
X225569Y1335439D01*
X224880Y1336030D01*
X224290Y1336522D01*
X223896Y1336915D01*
X223699Y1337112D01*
X223601Y1337211D01*
X222321Y1338785D01*
X221338Y1340458D01*
X220353Y1342229D01*
X219566Y1344099D01*
X218877Y1346067D01*
X218287Y1347936D01*
X217893Y1349806D01*
X217500Y1351675D01*
X217205Y1353447D01*
X217008Y1355021D01*
X216811Y1356497D01*
X216713Y1357776D01*
X216614Y1358760D01*
Y1359547D01*
Y1360039D01*
Y1360236D01*
X216713Y1362991D01*
X216910Y1365550D01*
X217303Y1367911D01*
X217697Y1370175D01*
X218189Y1372241D01*
X218779Y1374111D01*
X219468Y1375783D01*
X220058Y1377358D01*
X220747Y1378735D01*
X221436Y1379916D01*
X222026Y1380900D01*
X222518Y1381687D01*
X222912Y1382376D01*
X223305Y1382770D01*
X223502Y1383065D01*
X223601Y1383163D01*
X224978Y1384541D01*
X226454Y1385722D01*
X227930Y1386804D01*
X229505Y1387690D01*
X231178Y1388477D01*
X232752Y1389166D01*
X234326Y1389658D01*
X235901Y1390051D01*
X237278Y1390347D01*
X238656Y1390642D01*
X239837Y1390839D01*
X240919Y1390937D01*
X241805Y1391035D01*
X244757D01*
X246528Y1390839D01*
D02*
G37*
G36*
X314621Y936720D02*
X304781D01*
Y971259D01*
Y972243D01*
Y973227D01*
Y974014D01*
Y974703D01*
X304879Y975195D01*
Y975687D01*
Y975883D01*
Y975982D01*
Y977261D01*
Y978245D01*
X304978Y978540D01*
Y978835D01*
Y978934D01*
Y979032D01*
X304781D01*
X304682Y978737D01*
X304486Y978343D01*
X304092Y977458D01*
X303895Y977064D01*
X303698Y976671D01*
X303600Y976474D01*
Y976375D01*
X302813Y974899D01*
X302124Y973522D01*
X301730Y972931D01*
X301435Y972439D01*
X301337Y972144D01*
X301238Y972046D01*
X279885Y936720D01*
X270341D01*
Y996252D01*
X280279D01*
Y962895D01*
Y961812D01*
Y960828D01*
Y959943D01*
Y959254D01*
Y958663D01*
Y958171D01*
Y957876D01*
Y957778D01*
Y957089D01*
X280181Y956400D01*
Y955908D01*
Y955515D01*
Y955023D01*
Y954826D01*
X280279D01*
X280673Y955810D01*
X281165Y956794D01*
X281460Y957187D01*
X281558Y957581D01*
X281755Y957778D01*
Y957876D01*
X282444Y959254D01*
X283133Y960631D01*
X283428Y961123D01*
X283625Y961517D01*
X283723Y961812D01*
X283822Y961911D01*
X304682Y996252D01*
X314621D01*
Y936720D01*
D02*
G37*
G36*
X343058Y997236D02*
X345223Y997039D01*
X347191Y996646D01*
X348864Y996252D01*
X350340Y995859D01*
X351422Y995465D01*
X351816Y995367D01*
X352111Y995268D01*
X352209Y995170D01*
X352308D01*
X354178Y994284D01*
X355850Y993300D01*
X357326Y992218D01*
X358606Y991234D01*
X359688Y990348D01*
X360475Y989659D01*
X360967Y989167D01*
X361164Y988971D01*
X362443Y987396D01*
X363624Y985723D01*
X364608Y984149D01*
X365395Y982575D01*
X365986Y981295D01*
X366478Y980213D01*
X366674Y979819D01*
X366773Y979524D01*
X366871Y979327D01*
Y979229D01*
X367560Y977064D01*
X368052Y974801D01*
X368347Y972735D01*
X368544Y970767D01*
X368741Y969094D01*
Y968307D01*
X368839Y967716D01*
Y967224D01*
Y966831D01*
Y966634D01*
Y966535D01*
X368741Y963977D01*
X368544Y961517D01*
X368249Y959352D01*
X367855Y957483D01*
X367560Y955908D01*
X367363Y955318D01*
X367265Y954727D01*
X367166Y954334D01*
X367068Y954039D01*
X366969Y953842D01*
Y953743D01*
X366182Y951677D01*
X365297Y949807D01*
X364411Y948135D01*
X363526Y946757D01*
X362738Y945576D01*
X362148Y944691D01*
X361754Y944199D01*
X361558Y944002D01*
X360180Y942624D01*
X358704Y941345D01*
X357326Y940263D01*
X355949Y939377D01*
X354768Y938688D01*
X353784Y938196D01*
X353489Y937999D01*
X353193Y937901D01*
X353095Y937803D01*
X352997D01*
X351029Y937114D01*
X349159Y936622D01*
X347191Y936228D01*
X345518Y936031D01*
X344042Y935835D01*
X343353D01*
X342861Y935736D01*
X339811D01*
X337942Y935933D01*
X336269Y936031D01*
X334891Y936228D01*
X333710Y936425D01*
X332825Y936523D01*
X332234Y936720D01*
X332038D01*
X330463Y937114D01*
X329184Y937409D01*
X328003Y937803D01*
X327019Y938098D01*
X326330Y938393D01*
X325740Y938688D01*
X325445Y938787D01*
X325346Y938885D01*
Y971849D01*
X345322D01*
Y962993D01*
X336269D01*
Y946363D01*
X336957Y946068D01*
X337745Y945871D01*
X338433Y945773D01*
X338630Y945675D01*
X338729D01*
X340008Y945576D01*
X341287Y945478D01*
X342566D01*
X343649Y945576D01*
X344633Y945675D01*
X345518Y945871D01*
X346404Y946167D01*
X347093Y946363D01*
X347585Y946560D01*
X347978Y946659D01*
X348077Y946757D01*
X349061Y947249D01*
X349946Y947938D01*
X350733Y948528D01*
X351422Y949217D01*
X352013Y949807D01*
X352406Y950299D01*
X352702Y950595D01*
X352800Y950693D01*
X353489Y951775D01*
X354178Y952858D01*
X354768Y953940D01*
X355161Y955023D01*
X355555Y955908D01*
X355850Y956597D01*
X355949Y957089D01*
X356047Y957286D01*
X356441Y958860D01*
X356736Y960435D01*
X356933Y961911D01*
X357031Y963387D01*
X357130Y964666D01*
X357228Y965650D01*
Y966043D01*
Y966339D01*
Y966437D01*
Y966535D01*
X357130Y968503D01*
X357031Y970275D01*
X356834Y971849D01*
X356539Y973227D01*
X356342Y974309D01*
X356146Y975096D01*
X356047Y975588D01*
X355949Y975785D01*
X355358Y977163D01*
X354768Y978442D01*
X354178Y979524D01*
X353587Y980508D01*
X353095Y981295D01*
X352702Y981787D01*
X352406Y982181D01*
X352308Y982279D01*
X351422Y983165D01*
X350537Y984051D01*
X349651Y984641D01*
X348765Y985231D01*
X348077Y985625D01*
X347486Y985920D01*
X347093Y986019D01*
X346994Y986117D01*
X345813Y986511D01*
X344633Y986904D01*
X343452Y987101D01*
X342468Y987199D01*
X341582Y987298D01*
X340894Y987396D01*
X339024D01*
X337843Y987298D01*
X336761Y987199D01*
X335777Y987101D01*
X335088Y986904D01*
X334498Y986806D01*
X334104Y986707D01*
X334005D01*
X333022Y986412D01*
X332136Y986117D01*
X331349Y985920D01*
X330660Y985625D01*
X330168Y985428D01*
X329774Y985231D01*
X329577Y985035D01*
X329479D01*
X325838Y994087D01*
X326822Y994579D01*
X327806Y995071D01*
X328889Y995367D01*
X329873Y995760D01*
X330857Y995957D01*
X331546Y996154D01*
X332038Y996351D01*
X332234D01*
X335186Y996941D01*
X336662Y997138D01*
X337942Y997236D01*
X339122Y997335D01*
X340795D01*
X343058Y997236D01*
D02*
G37*
G36*
X246528Y997138D02*
X248102Y997039D01*
X249480Y996843D01*
X250562Y996646D01*
X251448Y996547D01*
X252038Y996351D01*
X252235D01*
X253810Y995957D01*
X255187Y995662D01*
X256368Y995268D01*
X257352Y994875D01*
X258238Y994579D01*
X258828Y994284D01*
X259221Y994186D01*
X259320Y994087D01*
Y938885D01*
X258238Y938393D01*
X257057Y937999D01*
X255974Y937606D01*
X254793Y937212D01*
X253810Y937015D01*
X253022Y936819D01*
X252530Y936622D01*
X252333D01*
X249086Y936130D01*
X247512Y935933D01*
X246036Y935835D01*
X244757D01*
X243871Y935736D01*
X242986D01*
X240722Y935835D01*
X238558Y936031D01*
X236589Y936425D01*
X234720Y936917D01*
X232949Y937507D01*
X231374Y938196D01*
X229898Y938885D01*
X228619Y939672D01*
X227438Y940361D01*
X226454Y941050D01*
X225569Y941739D01*
X224880Y942329D01*
X224290Y942821D01*
X223896Y943215D01*
X223699Y943411D01*
X223601Y943510D01*
X222321Y945084D01*
X221338Y946757D01*
X220353Y948528D01*
X219566Y950398D01*
X218877Y952366D01*
X218287Y954235D01*
X217893Y956105D01*
X217500Y957975D01*
X217205Y959746D01*
X217008Y961320D01*
X216811Y962796D01*
X216713Y964075D01*
X216614Y965059D01*
Y965847D01*
Y966339D01*
Y966535D01*
X216713Y969291D01*
X216910Y971849D01*
X217303Y974211D01*
X217697Y976474D01*
X218189Y978540D01*
X218779Y980410D01*
X219468Y982083D01*
X220058Y983657D01*
X220747Y985035D01*
X221436Y986215D01*
X222026Y987199D01*
X222518Y987987D01*
X222912Y988675D01*
X223305Y989069D01*
X223502Y989364D01*
X223601Y989463D01*
X224978Y990840D01*
X226454Y992021D01*
X227930Y993103D01*
X229505Y993989D01*
X231178Y994776D01*
X232752Y995465D01*
X234326Y995957D01*
X235901Y996351D01*
X237278Y996646D01*
X238656Y996941D01*
X239837Y997138D01*
X240919Y997236D01*
X241805Y997335D01*
X244757D01*
X246528Y997138D01*
D02*
G37*
G36*
X3105814Y1242684D02*
X3086544D01*
X3086626Y1242028D01*
X3086708Y1241372D01*
X3086790Y1240798D01*
Y1240634D01*
X3086872Y1239650D01*
Y1238092D01*
X3086790Y1236370D01*
X3086708Y1234730D01*
X3086544Y1233254D01*
X3086298Y1232024D01*
X3086052Y1231040D01*
X3085888Y1230302D01*
X3085806Y1229810D01*
X3085724Y1229646D01*
X3085232Y1228334D01*
X3084740Y1227186D01*
X3084166Y1226120D01*
X3083674Y1225218D01*
X3083264Y1224562D01*
X3082854Y1223988D01*
X3082608Y1223660D01*
X3082526Y1223578D01*
X3081706Y1222676D01*
X3080804Y1221938D01*
X3079984Y1221364D01*
X3079246Y1220790D01*
X3078508Y1220380D01*
X3078016Y1220134D01*
X3077688Y1219970D01*
X3077524Y1219888D01*
X3076458Y1219478D01*
X3075310Y1219150D01*
X3074326Y1218986D01*
X3073342Y1218822D01*
X3072522Y1218740D01*
X3071866Y1218658D01*
X3071456D01*
X3071292D01*
X3069980Y1218740D01*
X3068668Y1218904D01*
X3067520Y1219150D01*
X3066372Y1219396D01*
X3064404Y1220216D01*
X3063502Y1220626D01*
X3062764Y1221118D01*
X3062026Y1221610D01*
X3061370Y1222020D01*
X3060878Y1222430D01*
X3060468Y1222840D01*
X3060058Y1223086D01*
X3059812Y1223332D01*
X3059730Y1223496D01*
X3059648Y1223578D01*
X3058910Y1224562D01*
X3058172Y1225628D01*
X3057598Y1226694D01*
X3057106Y1227842D01*
X3056368Y1230220D01*
X3055876Y1232516D01*
X3055630Y1233582D01*
X3055548Y1234566D01*
X3055466Y1235468D01*
X3055384Y1236206D01*
X3055302Y1236862D01*
Y1239322D01*
X3055384Y1240798D01*
X3055548Y1242110D01*
X3055630Y1243258D01*
X3055794Y1244242D01*
X3055958Y1244980D01*
X3056040Y1245472D01*
Y1245636D01*
X3056368Y1246948D01*
X3056696Y1248178D01*
X3057024Y1249244D01*
X3057270Y1250228D01*
X3057598Y1251048D01*
X3057762Y1251622D01*
X3057926Y1251950D01*
X3058008Y1252114D01*
X3105814D01*
Y1242684D01*
D02*
G37*
G36*
X3104420Y1210786D02*
X3104748Y1209802D01*
X3105076Y1208900D01*
X3105404Y1207916D01*
X3105568Y1207096D01*
X3105732Y1206440D01*
X3105896Y1206030D01*
Y1205866D01*
X3106306Y1203160D01*
X3106470Y1201848D01*
X3106552Y1200618D01*
Y1199552D01*
X3106634Y1198814D01*
Y1198076D01*
X3106552Y1196190D01*
X3106388Y1194386D01*
X3106060Y1192746D01*
X3105650Y1191188D01*
X3105158Y1189712D01*
X3104584Y1188400D01*
X3104010Y1187170D01*
X3103354Y1186104D01*
X3102780Y1185120D01*
X3102206Y1184300D01*
X3101632Y1183562D01*
X3101140Y1182988D01*
X3100730Y1182496D01*
X3100402Y1182168D01*
X3100238Y1182004D01*
X3100156Y1181922D01*
X3098844Y1180856D01*
X3097450Y1180036D01*
X3095974Y1179216D01*
X3094416Y1178560D01*
X3092776Y1177986D01*
X3091218Y1177494D01*
X3089660Y1177166D01*
X3088102Y1176838D01*
X3086626Y1176592D01*
X3085314Y1176428D01*
X3084084Y1176264D01*
X3083018Y1176182D01*
X3082198Y1176100D01*
X3081542D01*
X3081132D01*
X3080968D01*
X3078672Y1176182D01*
X3076540Y1176346D01*
X3074572Y1176674D01*
X3072686Y1177002D01*
X3070964Y1177412D01*
X3069406Y1177904D01*
X3068012Y1178478D01*
X3066700Y1178970D01*
X3065552Y1179544D01*
X3064568Y1180118D01*
X3063748Y1180610D01*
X3063092Y1181020D01*
X3062518Y1181348D01*
X3062190Y1181676D01*
X3061944Y1181840D01*
X3061862Y1181922D01*
X3060714Y1183070D01*
X3059730Y1184300D01*
X3058828Y1185530D01*
X3058090Y1186842D01*
X3057434Y1188236D01*
X3056860Y1189548D01*
X3056450Y1190860D01*
X3056122Y1192172D01*
X3055876Y1193320D01*
X3055630Y1194468D01*
X3055466Y1195452D01*
X3055384Y1196354D01*
X3055302Y1197092D01*
Y1199552D01*
X3055466Y1201028D01*
X3055548Y1202340D01*
X3055712Y1203488D01*
X3055876Y1204390D01*
X3055958Y1205128D01*
X3056122Y1205620D01*
Y1205784D01*
X3056450Y1207096D01*
X3056696Y1208244D01*
X3057024Y1209228D01*
X3057352Y1210048D01*
X3057598Y1210786D01*
X3057844Y1211278D01*
X3057926Y1211606D01*
X3058008Y1211688D01*
X3104010D01*
X3104420Y1210786D01*
D02*
G37*
G36*
X3083018Y1152648D02*
X3084904Y1152566D01*
X3086626Y1152402D01*
X3088102Y1152156D01*
X3089332Y1151910D01*
X3089906Y1151828D01*
X3090316Y1151746D01*
X3090644Y1151664D01*
X3090890D01*
X3091054Y1151582D01*
X3091136D01*
X3092858Y1151090D01*
X3094334Y1150516D01*
X3095728Y1149942D01*
X3096958Y1149368D01*
X3097942Y1148876D01*
X3098680Y1148466D01*
X3099090Y1148138D01*
X3099254Y1148056D01*
X3100484Y1147154D01*
X3101550Y1146088D01*
X3102452Y1145104D01*
X3103272Y1144202D01*
X3103846Y1143300D01*
X3104338Y1142644D01*
X3104584Y1142234D01*
X3104666Y1142070D01*
X3105322Y1140676D01*
X3105814Y1139200D01*
X3106142Y1137724D01*
X3106388Y1136412D01*
X3106552Y1135264D01*
X3106634Y1134362D01*
Y1133542D01*
X3106552Y1131738D01*
X3106306Y1130098D01*
X3105978Y1128704D01*
X3105650Y1127392D01*
X3105322Y1126408D01*
X3104994Y1125670D01*
X3104748Y1125178D01*
X3104666Y1125014D01*
X3103846Y1123702D01*
X3103026Y1122554D01*
X3102124Y1121488D01*
X3101222Y1120668D01*
X3100484Y1119930D01*
X3099828Y1119438D01*
X3099418Y1119110D01*
X3099254Y1119028D01*
X3097942Y1118208D01*
X3096548Y1117470D01*
X3095154Y1116896D01*
X3093924Y1116404D01*
X3092776Y1115994D01*
X3091956Y1115748D01*
X3091628Y1115584D01*
X3091300D01*
X3091218Y1115502D01*
X3091136D01*
X3089332Y1115092D01*
X3087610Y1114764D01*
X3085888Y1114600D01*
X3084330Y1114436D01*
X3082936Y1114354D01*
X3082362Y1114272D01*
X3081870D01*
X3081542D01*
X3081214D01*
X3081050D01*
X3080968D01*
X3079000Y1114354D01*
X3077114Y1114436D01*
X3075392Y1114682D01*
X3073916Y1114846D01*
X3072604Y1115092D01*
X3072112Y1115174D01*
X3071702Y1115338D01*
X3071374Y1115420D01*
X3071128D01*
X3070964Y1115502D01*
X3070882D01*
X3069160Y1115994D01*
X3067602Y1116568D01*
X3066290Y1117142D01*
X3065060Y1117716D01*
X3064076Y1118208D01*
X3063338Y1118618D01*
X3062928Y1118946D01*
X3062764Y1119028D01*
X3061534Y1119930D01*
X3060468Y1120914D01*
X3059566Y1121898D01*
X3058746Y1122882D01*
X3058172Y1123702D01*
X3057680Y1124358D01*
X3057434Y1124850D01*
X3057352Y1124932D01*
Y1125014D01*
X3056696Y1126408D01*
X3056204Y1127884D01*
X3055794Y1129278D01*
X3055548Y1130590D01*
X3055384Y1131820D01*
X3055302Y1132722D01*
Y1133542D01*
X3055384Y1135264D01*
X3055630Y1136904D01*
X3055958Y1138380D01*
X3056286Y1139610D01*
X3056696Y1140676D01*
X3057024Y1141414D01*
X3057270Y1141906D01*
X3057352Y1141988D01*
Y1142070D01*
X3058172Y1143382D01*
X3058992Y1144530D01*
X3059894Y1145514D01*
X3060796Y1146416D01*
X3061534Y1147072D01*
X3062190Y1147646D01*
X3062600Y1147974D01*
X3062764Y1148056D01*
X3064076Y1148876D01*
X3065470Y1149614D01*
X3066864Y1150188D01*
X3068094Y1150680D01*
X3069242Y1151090D01*
X3070062Y1151336D01*
X3070390Y1151418D01*
X3070636Y1151500D01*
X3070800Y1151582D01*
X3070882D01*
X3072686Y1151992D01*
X3074408Y1152238D01*
X3076130Y1152484D01*
X3077688Y1152566D01*
X3079000Y1152648D01*
X3079574Y1152730D01*
X3080066D01*
X3080476D01*
X3080722D01*
X3080886D01*
X3080968D01*
X3083018Y1152648D01*
D02*
G37*
G36*
X3092530Y1106400D02*
X3093760Y1106318D01*
X3094908Y1106072D01*
X3095892Y1105826D01*
X3096630Y1105662D01*
X3097286Y1105416D01*
X3097614Y1105334D01*
X3097778Y1105252D01*
X3098762Y1104678D01*
X3099664Y1104104D01*
X3100484Y1103530D01*
X3101222Y1102956D01*
X3101796Y1102464D01*
X3102206Y1102054D01*
X3102452Y1101726D01*
X3102534Y1101644D01*
X3103190Y1100742D01*
X3103846Y1099840D01*
X3104338Y1098938D01*
X3104748Y1098118D01*
X3105076Y1097380D01*
X3105322Y1096806D01*
X3105404Y1096478D01*
X3105486Y1096314D01*
X3105814Y1095166D01*
X3106060Y1093936D01*
X3106224Y1092788D01*
X3106306Y1091804D01*
X3106388Y1090902D01*
X3106470Y1090164D01*
Y1089590D01*
X3106388Y1088278D01*
X3106306Y1086966D01*
X3106142Y1085818D01*
X3105978Y1084834D01*
X3105814Y1084014D01*
X3105650Y1083358D01*
X3105486Y1083030D01*
Y1082866D01*
X3105076Y1081718D01*
X3104584Y1080734D01*
X3104092Y1079832D01*
X3103600Y1079012D01*
X3103190Y1078438D01*
X3102862Y1077946D01*
X3102616Y1077618D01*
X3102534Y1077536D01*
X3101796Y1076716D01*
X3100976Y1075978D01*
X3100156Y1075404D01*
X3099418Y1074830D01*
X3098762Y1074502D01*
X3098270Y1074174D01*
X3097860Y1074010D01*
X3097778Y1073928D01*
X3096630Y1073518D01*
X3095564Y1073190D01*
X3094416Y1072944D01*
X3093350Y1072780D01*
X3092448Y1072698D01*
X3091792Y1072616D01*
X3091300D01*
X3091136D01*
X3056204D01*
Y1082292D01*
X3091218D01*
X3092366Y1082374D01*
X3093432Y1082620D01*
X3094252Y1082948D01*
X3094990Y1083358D01*
X3095646Y1083768D01*
X3096056Y1084096D01*
X3096302Y1084342D01*
X3096384Y1084424D01*
X3097040Y1085244D01*
X3097450Y1086064D01*
X3097778Y1086966D01*
X3098024Y1087786D01*
X3098188Y1088524D01*
X3098270Y1089098D01*
Y1089590D01*
X3098188Y1090656D01*
X3097942Y1091640D01*
X3097696Y1092542D01*
X3097286Y1093280D01*
X3096958Y1093936D01*
X3096712Y1094346D01*
X3096466Y1094674D01*
X3096384Y1094756D01*
X3095646Y1095412D01*
X3094744Y1095904D01*
X3093924Y1096314D01*
X3093104Y1096560D01*
X3092366Y1096724D01*
X3091792Y1096806D01*
X3091382D01*
X3091218D01*
X3056204D01*
Y1106482D01*
X3091136D01*
X3092530Y1106400D01*
D02*
G37*
G36*
X3064240Y1055314D02*
X3105814D01*
Y1045638D01*
X3064240D01*
Y1035224D01*
X3056204D01*
Y1065892D01*
X3064240D01*
Y1055314D01*
D02*
G37*
G36*
X3029530Y1270400D02*
X3030760Y1270318D01*
X3031908Y1270072D01*
X3032892Y1269826D01*
X3033630Y1269662D01*
X3034286Y1269416D01*
X3034614Y1269334D01*
X3034778Y1269252D01*
X3035762Y1268678D01*
X3036664Y1268104D01*
X3037484Y1267530D01*
X3038222Y1266956D01*
X3038796Y1266464D01*
X3039206Y1266054D01*
X3039452Y1265726D01*
X3039534Y1265644D01*
X3040190Y1264742D01*
X3040846Y1263840D01*
X3041338Y1262938D01*
X3041748Y1262118D01*
X3042076Y1261380D01*
X3042322Y1260806D01*
X3042404Y1260478D01*
X3042486Y1260314D01*
X3042814Y1259166D01*
X3043060Y1257936D01*
X3043224Y1256788D01*
X3043306Y1255804D01*
X3043388Y1254902D01*
X3043470Y1254164D01*
Y1253590D01*
X3043388Y1252278D01*
X3043306Y1250966D01*
X3043142Y1249818D01*
X3042978Y1248834D01*
X3042814Y1248014D01*
X3042650Y1247358D01*
X3042486Y1247030D01*
Y1246866D01*
X3042076Y1245718D01*
X3041584Y1244734D01*
X3041092Y1243832D01*
X3040600Y1243012D01*
X3040190Y1242438D01*
X3039862Y1241946D01*
X3039616Y1241618D01*
X3039534Y1241536D01*
X3038796Y1240716D01*
X3037976Y1239978D01*
X3037156Y1239404D01*
X3036418Y1238830D01*
X3035762Y1238502D01*
X3035270Y1238174D01*
X3034860Y1238010D01*
X3034778Y1237928D01*
X3033630Y1237518D01*
X3032564Y1237190D01*
X3031416Y1236944D01*
X3030350Y1236780D01*
X3029448Y1236698D01*
X3028792Y1236616D01*
X3028300D01*
X3028136D01*
X2993204D01*
Y1246292D01*
X3028218D01*
X3029366Y1246374D01*
X3030432Y1246620D01*
X3031252Y1246948D01*
X3031990Y1247358D01*
X3032646Y1247768D01*
X3033056Y1248096D01*
X3033302Y1248342D01*
X3033384Y1248424D01*
X3034040Y1249244D01*
X3034450Y1250064D01*
X3034778Y1250966D01*
X3035024Y1251786D01*
X3035188Y1252524D01*
X3035270Y1253098D01*
Y1253590D01*
X3035188Y1254656D01*
X3034942Y1255640D01*
X3034696Y1256542D01*
X3034286Y1257280D01*
X3033958Y1257936D01*
X3033712Y1258346D01*
X3033466Y1258674D01*
X3033384Y1258756D01*
X3032646Y1259412D01*
X3031744Y1259904D01*
X3030924Y1260314D01*
X3030104Y1260560D01*
X3029366Y1260724D01*
X3028792Y1260806D01*
X3028382D01*
X3028218D01*
X2993204D01*
Y1270482D01*
X3028136D01*
X3029530Y1270400D01*
D02*
G37*
G36*
X3041912Y1227350D02*
X3042240Y1226284D01*
X3042486Y1225382D01*
X3042732Y1224562D01*
X3042896Y1223988D01*
X3042978Y1223578D01*
Y1223414D01*
X3043388Y1220954D01*
X3043470Y1219806D01*
X3043552Y1218822D01*
X3043634Y1217920D01*
Y1216690D01*
X3043552Y1215214D01*
X3043470Y1213902D01*
X3043306Y1212672D01*
X3043060Y1211606D01*
X3042896Y1210786D01*
X3042732Y1210130D01*
X3042650Y1209720D01*
X3042568Y1209556D01*
X3042158Y1208408D01*
X3041666Y1207342D01*
X3041092Y1206440D01*
X3040600Y1205702D01*
X3040190Y1205046D01*
X3039780Y1204636D01*
X3039534Y1204308D01*
X3039452Y1204226D01*
X3038632Y1203406D01*
X3037812Y1202750D01*
X3037074Y1202176D01*
X3036336Y1201684D01*
X3035680Y1201356D01*
X3035188Y1201110D01*
X3034778Y1200946D01*
X3034696Y1200864D01*
X3033630Y1200454D01*
X3032564Y1200208D01*
X3031498Y1199962D01*
X3030514Y1199880D01*
X3029694Y1199798D01*
X3029038Y1199716D01*
X3028628D01*
X3028464D01*
X3027152Y1199798D01*
X3025922Y1199962D01*
X3024856Y1200208D01*
X3024036Y1200454D01*
X3023298Y1200700D01*
X3022724Y1200946D01*
X3022396Y1201110D01*
X3022314Y1201192D01*
X3021412Y1201766D01*
X3020592Y1202340D01*
X3019936Y1202914D01*
X3019280Y1203488D01*
X3018788Y1204062D01*
X3018460Y1204390D01*
X3018214Y1204718D01*
X3018132Y1204800D01*
X3016902Y1206440D01*
X3016410Y1207178D01*
X3015918Y1207916D01*
X3015590Y1208572D01*
X3015344Y1209064D01*
X3015180Y1209392D01*
X3015098Y1209474D01*
X3014196Y1211278D01*
X3013786Y1212098D01*
X3013376Y1212836D01*
X3013130Y1213410D01*
X3012884Y1213820D01*
X3012720Y1214148D01*
X3012638Y1214230D01*
X3011736Y1215706D01*
X3011244Y1216280D01*
X3010834Y1216854D01*
X3010506Y1217264D01*
X3010260Y1217592D01*
X3010096Y1217756D01*
X3010014Y1217838D01*
X3009440Y1218330D01*
X3008866Y1218658D01*
X3008292Y1218904D01*
X3007718Y1219068D01*
X3007226Y1219150D01*
X3006816Y1219232D01*
X3006570D01*
X3006488D01*
X3005586Y1219150D01*
X3004684Y1218986D01*
X3004028Y1218658D01*
X3003372Y1218330D01*
X3002962Y1218002D01*
X3002552Y1217674D01*
X3002388Y1217510D01*
X3002306Y1217428D01*
X3001732Y1216690D01*
X3001322Y1215870D01*
X3001076Y1214968D01*
X3000830Y1214148D01*
X3000748Y1213492D01*
X3000666Y1212836D01*
Y1212344D01*
X3000748Y1210704D01*
X3000830Y1209966D01*
X3000912Y1209310D01*
X3001076Y1208736D01*
X3001158Y1208326D01*
X3001240Y1208080D01*
Y1207998D01*
X3001732Y1206522D01*
X3001978Y1205866D01*
X3002224Y1205374D01*
X3002470Y1204882D01*
X3002634Y1204554D01*
X3002716Y1204308D01*
X3002798Y1204226D01*
X2995008Y1201192D01*
X2994106Y1202996D01*
X2993778Y1203898D01*
X2993532Y1204718D01*
X2993286Y1205374D01*
X2993122Y1205948D01*
X2993040Y1206276D01*
Y1206440D01*
X2992630Y1208654D01*
X2992466Y1209720D01*
X2992384Y1210704D01*
X2992302Y1211524D01*
Y1212754D01*
X2992384Y1214066D01*
X2992466Y1215378D01*
X2992630Y1216526D01*
X2992794Y1217510D01*
X2993040Y1218330D01*
X2993204Y1218904D01*
X2993286Y1219314D01*
X2993368Y1219478D01*
X2993778Y1220544D01*
X2994270Y1221528D01*
X2994762Y1222348D01*
X2995254Y1223086D01*
X2995746Y1223742D01*
X2996074Y1224152D01*
X2996320Y1224480D01*
X2996402Y1224562D01*
X2997140Y1225300D01*
X2997878Y1225956D01*
X2998698Y1226448D01*
X2999436Y1226940D01*
X3000010Y1227268D01*
X3000502Y1227514D01*
X3000912Y1227678D01*
X3000994Y1227760D01*
X3002060Y1228170D01*
X3003044Y1228416D01*
X3004110Y1228662D01*
X3005012Y1228744D01*
X3005832Y1228826D01*
X3006488Y1228908D01*
X3006898D01*
X3007062D01*
X3008374Y1228826D01*
X3009604Y1228662D01*
X3010670Y1228498D01*
X3011572Y1228170D01*
X3012310Y1227924D01*
X3012802Y1227760D01*
X3013212Y1227596D01*
X3013294Y1227514D01*
X3014196Y1226940D01*
X3015016Y1226284D01*
X3015672Y1225710D01*
X3016328Y1225136D01*
X3016820Y1224644D01*
X3017148Y1224234D01*
X3017394Y1223988D01*
X3017476Y1223906D01*
X3018624Y1222266D01*
X3019198Y1221528D01*
X3019608Y1220790D01*
X3019936Y1220216D01*
X3020182Y1219724D01*
X3020346Y1219396D01*
X3020428Y1219314D01*
X3021248Y1217510D01*
X3021658Y1216690D01*
X3022068Y1216034D01*
X3022314Y1215460D01*
X3022560Y1215050D01*
X3022724Y1214722D01*
X3022806Y1214640D01*
X3023216Y1213902D01*
X3023708Y1213164D01*
X3024118Y1212590D01*
X3024528Y1212098D01*
X3024938Y1211688D01*
X3025184Y1211360D01*
X3025348Y1211196D01*
X3025430Y1211114D01*
X3026004Y1210622D01*
X3026578Y1210294D01*
X3027152Y1209966D01*
X3027726Y1209802D01*
X3028218Y1209720D01*
X3028628Y1209638D01*
X3028874D01*
X3028956D01*
X3029940Y1209720D01*
X3030760Y1209966D01*
X3031498Y1210294D01*
X3032154Y1210622D01*
X3032646Y1211032D01*
X3032974Y1211360D01*
X3033220Y1211606D01*
X3033302Y1211688D01*
X3033876Y1212508D01*
X3034286Y1213410D01*
X3034532Y1214312D01*
X3034696Y1215132D01*
X3034860Y1215952D01*
X3034942Y1216608D01*
Y1217182D01*
X3034860Y1218904D01*
X3034696Y1219724D01*
X3034614Y1220462D01*
X3034450Y1221036D01*
X3034368Y1221528D01*
X3034286Y1221856D01*
Y1221938D01*
X3033712Y1223578D01*
X3033466Y1224316D01*
X3033220Y1224972D01*
X3032974Y1225546D01*
X3032810Y1225956D01*
X3032646Y1226202D01*
Y1226284D01*
X3041010Y1229482D01*
X3041912Y1227350D01*
D02*
G37*
G36*
X3041420Y1191188D02*
X3041748Y1190040D01*
X3042076Y1188974D01*
X3042404Y1187908D01*
X3042568Y1186924D01*
X3042732Y1186186D01*
X3042896Y1185694D01*
Y1185530D01*
X3043142Y1183972D01*
X3043306Y1182414D01*
X3043470Y1181020D01*
X3043552Y1179708D01*
Y1178642D01*
X3043634Y1177822D01*
Y1177084D01*
X3043552Y1175280D01*
X3043470Y1173640D01*
X3043306Y1172082D01*
X3043060Y1170688D01*
X3042732Y1169376D01*
X3042404Y1168146D01*
X3042076Y1167080D01*
X3041748Y1166096D01*
X3041420Y1165194D01*
X3041092Y1164456D01*
X3040764Y1163882D01*
X3040436Y1163308D01*
X3040190Y1162898D01*
X3040026Y1162652D01*
X3039862Y1162488D01*
Y1162406D01*
X3039124Y1161504D01*
X3038304Y1160766D01*
X3037484Y1160110D01*
X3036664Y1159536D01*
X3035762Y1159044D01*
X3034860Y1158634D01*
X3033220Y1158060D01*
X3031662Y1157650D01*
X3031006Y1157568D01*
X3030432Y1157486D01*
X3030022Y1157404D01*
X3029694D01*
X3029448D01*
X3029366D01*
X3028382D01*
X3027480Y1157568D01*
X3026660Y1157650D01*
X3026004Y1157814D01*
X3025430Y1157978D01*
X3024938Y1158142D01*
X3024692Y1158224D01*
X3024610Y1158306D01*
X3023216Y1158962D01*
X3022560Y1159372D01*
X3022068Y1159700D01*
X3021658Y1160028D01*
X3021330Y1160274D01*
X3021166Y1160438D01*
X3021084Y1160520D01*
X3020018Y1161504D01*
X3019198Y1162406D01*
X3018952Y1162816D01*
X3018706Y1163144D01*
X3018624Y1163308D01*
X3018542Y1163390D01*
X3017886Y1164538D01*
X3017394Y1165522D01*
X3017230Y1165932D01*
X3017148Y1166260D01*
X3017066Y1166424D01*
Y1166506D01*
X3016902D01*
X3016492Y1165358D01*
X3016082Y1164456D01*
X3015918Y1164128D01*
X3015754Y1163882D01*
X3015590Y1163718D01*
Y1163636D01*
X3014770Y1162652D01*
X3013950Y1161914D01*
X3013622Y1161586D01*
X3013376Y1161340D01*
X3013212Y1161258D01*
X3013130Y1161176D01*
X3011982Y1160438D01*
X3010916Y1159864D01*
X3010506Y1159618D01*
X3010178Y1159454D01*
X3009932Y1159372D01*
X3009850D01*
X3008456Y1158962D01*
X3007800Y1158880D01*
X3007226Y1158798D01*
X3006652Y1158716D01*
X3006242D01*
X3005996D01*
X3005914D01*
X3004848Y1158798D01*
X3003782Y1158880D01*
X3002880Y1159044D01*
X3002060Y1159290D01*
X3001404Y1159536D01*
X3000912Y1159700D01*
X3000584Y1159782D01*
X3000502Y1159864D01*
X2999600Y1160356D01*
X2998780Y1160848D01*
X2998042Y1161422D01*
X2997386Y1161996D01*
X2996894Y1162488D01*
X2996566Y1162898D01*
X2996320Y1163226D01*
X2996238Y1163308D01*
X2995582Y1164210D01*
X2995008Y1165112D01*
X2994516Y1166096D01*
X2994106Y1166998D01*
X2993778Y1167818D01*
X2993532Y1168474D01*
X2993450Y1168884D01*
X2993368Y1168966D01*
Y1169048D01*
X2993040Y1170360D01*
X2992712Y1171754D01*
X2992548Y1173148D01*
X2992466Y1174460D01*
X2992384Y1175526D01*
X2992302Y1176428D01*
Y1178888D01*
X2992466Y1180364D01*
X2992548Y1181758D01*
X2992712Y1182988D01*
X2992876Y1184054D01*
X2992958Y1184874D01*
X2993122Y1185366D01*
Y1185530D01*
X2993450Y1186924D01*
X2993696Y1188154D01*
X2994024Y1189302D01*
X2994352Y1190286D01*
X2994598Y1191106D01*
X2994844Y1191680D01*
X2994926Y1192008D01*
X2995008Y1192172D01*
X3041010D01*
X3041420Y1191188D01*
D02*
G37*
G36*
X3020018Y1134280D02*
X3021904Y1134198D01*
X3023626Y1134034D01*
X3025102Y1133788D01*
X3026332Y1133542D01*
X3026906Y1133460D01*
X3027316Y1133378D01*
X3027644Y1133296D01*
X3027890D01*
X3028054Y1133214D01*
X3028136D01*
X3029858Y1132722D01*
X3031334Y1132148D01*
X3032728Y1131574D01*
X3033958Y1131000D01*
X3034942Y1130508D01*
X3035680Y1130098D01*
X3036090Y1129770D01*
X3036254Y1129688D01*
X3037484Y1128786D01*
X3038550Y1127720D01*
X3039452Y1126736D01*
X3040272Y1125834D01*
X3040846Y1124932D01*
X3041338Y1124276D01*
X3041584Y1123866D01*
X3041666Y1123702D01*
X3042322Y1122308D01*
X3042814Y1120832D01*
X3043142Y1119356D01*
X3043388Y1118044D01*
X3043552Y1116896D01*
X3043634Y1115994D01*
Y1115174D01*
X3043552Y1113370D01*
X3043306Y1111730D01*
X3042978Y1110336D01*
X3042650Y1109024D01*
X3042322Y1108040D01*
X3041994Y1107302D01*
X3041748Y1106810D01*
X3041666Y1106646D01*
X3040846Y1105334D01*
X3040026Y1104186D01*
X3039124Y1103120D01*
X3038222Y1102300D01*
X3037484Y1101562D01*
X3036828Y1101070D01*
X3036418Y1100742D01*
X3036254Y1100660D01*
X3034942Y1099840D01*
X3033548Y1099102D01*
X3032154Y1098528D01*
X3030924Y1098036D01*
X3029776Y1097626D01*
X3028956Y1097380D01*
X3028628Y1097216D01*
X3028300D01*
X3028218Y1097134D01*
X3028136D01*
X3026332Y1096724D01*
X3024610Y1096396D01*
X3022888Y1096232D01*
X3021330Y1096068D01*
X3019936Y1095986D01*
X3019362Y1095904D01*
X3018870D01*
X3018542D01*
X3018214D01*
X3018050D01*
X3017968D01*
X3016000Y1095986D01*
X3014114Y1096068D01*
X3012392Y1096314D01*
X3010916Y1096478D01*
X3009604Y1096724D01*
X3009112Y1096806D01*
X3008702Y1096970D01*
X3008374Y1097052D01*
X3008128D01*
X3007964Y1097134D01*
X3007882D01*
X3006160Y1097626D01*
X3004602Y1098200D01*
X3003290Y1098774D01*
X3002060Y1099348D01*
X3001076Y1099840D01*
X3000338Y1100250D01*
X2999928Y1100578D01*
X2999764Y1100660D01*
X2998534Y1101562D01*
X2997468Y1102546D01*
X2996566Y1103530D01*
X2995746Y1104514D01*
X2995172Y1105334D01*
X2994680Y1105990D01*
X2994434Y1106482D01*
X2994352Y1106564D01*
Y1106646D01*
X2993696Y1108040D01*
X2993204Y1109516D01*
X2992794Y1110910D01*
X2992548Y1112222D01*
X2992384Y1113452D01*
X2992302Y1114354D01*
Y1115174D01*
X2992384Y1116896D01*
X2992630Y1118536D01*
X2992958Y1120012D01*
X2993286Y1121242D01*
X2993696Y1122308D01*
X2994024Y1123046D01*
X2994270Y1123538D01*
X2994352Y1123620D01*
Y1123702D01*
X2995172Y1125014D01*
X2995992Y1126162D01*
X2996894Y1127146D01*
X2997796Y1128048D01*
X2998534Y1128704D01*
X2999190Y1129278D01*
X2999600Y1129606D01*
X2999764Y1129688D01*
X3001076Y1130508D01*
X3002470Y1131246D01*
X3003864Y1131820D01*
X3005094Y1132312D01*
X3006242Y1132722D01*
X3007062Y1132968D01*
X3007390Y1133050D01*
X3007636Y1133132D01*
X3007800Y1133214D01*
X3007882D01*
X3009686Y1133624D01*
X3011408Y1133870D01*
X3013130Y1134116D01*
X3014688Y1134198D01*
X3016000Y1134280D01*
X3016574Y1134362D01*
X3017066D01*
X3017476D01*
X3017722D01*
X3017886D01*
X3017968D01*
X3020018Y1134280D01*
D02*
G37*
G36*
X3029530Y1088032D02*
X3030760Y1087950D01*
X3031908Y1087704D01*
X3032892Y1087458D01*
X3033630Y1087294D01*
X3034286Y1087048D01*
X3034614Y1086966D01*
X3034778Y1086884D01*
X3035762Y1086310D01*
X3036664Y1085736D01*
X3037484Y1085162D01*
X3038222Y1084588D01*
X3038796Y1084096D01*
X3039206Y1083686D01*
X3039452Y1083358D01*
X3039534Y1083276D01*
X3040190Y1082374D01*
X3040846Y1081472D01*
X3041338Y1080570D01*
X3041748Y1079750D01*
X3042076Y1079012D01*
X3042322Y1078438D01*
X3042404Y1078110D01*
X3042486Y1077946D01*
X3042814Y1076798D01*
X3043060Y1075568D01*
X3043224Y1074420D01*
X3043306Y1073436D01*
X3043388Y1072534D01*
X3043470Y1071796D01*
Y1071222D01*
X3043388Y1069910D01*
X3043306Y1068598D01*
X3043142Y1067450D01*
X3042978Y1066466D01*
X3042814Y1065646D01*
X3042650Y1064990D01*
X3042486Y1064662D01*
Y1064498D01*
X3042076Y1063350D01*
X3041584Y1062366D01*
X3041092Y1061464D01*
X3040600Y1060644D01*
X3040190Y1060070D01*
X3039862Y1059578D01*
X3039616Y1059250D01*
X3039534Y1059168D01*
X3038796Y1058348D01*
X3037976Y1057610D01*
X3037156Y1057036D01*
X3036418Y1056462D01*
X3035762Y1056134D01*
X3035270Y1055806D01*
X3034860Y1055642D01*
X3034778Y1055560D01*
X3033630Y1055150D01*
X3032564Y1054822D01*
X3031416Y1054576D01*
X3030350Y1054412D01*
X3029448Y1054330D01*
X3028792Y1054248D01*
X3028300D01*
X3028136D01*
X2993204D01*
Y1063924D01*
X3028218D01*
X3029366Y1064006D01*
X3030432Y1064252D01*
X3031252Y1064580D01*
X3031990Y1064990D01*
X3032646Y1065400D01*
X3033056Y1065728D01*
X3033302Y1065974D01*
X3033384Y1066056D01*
X3034040Y1066876D01*
X3034450Y1067696D01*
X3034778Y1068598D01*
X3035024Y1069418D01*
X3035188Y1070156D01*
X3035270Y1070730D01*
Y1071222D01*
X3035188Y1072288D01*
X3034942Y1073272D01*
X3034696Y1074174D01*
X3034286Y1074912D01*
X3033958Y1075568D01*
X3033712Y1075978D01*
X3033466Y1076306D01*
X3033384Y1076388D01*
X3032646Y1077044D01*
X3031744Y1077536D01*
X3030924Y1077946D01*
X3030104Y1078192D01*
X3029366Y1078356D01*
X3028792Y1078438D01*
X3028382D01*
X3028218D01*
X2993204D01*
Y1088114D01*
X3028136D01*
X3029530Y1088032D01*
D02*
G37*
G36*
X3001240Y1036946D02*
X3042814D01*
Y1027270D01*
X3001240D01*
Y1016856D01*
X2993204D01*
Y1047524D01*
X3001240D01*
Y1036946D01*
D02*
G37*
G36*
X691975Y1406234D02*
X692329Y1406155D01*
X692604Y1406037D01*
X692879Y1405919D01*
X693115Y1405801D01*
X693272Y1405683D01*
X693350Y1405605D01*
X693390Y1405565D01*
X693625Y1405290D01*
X693822Y1405015D01*
X693940Y1404740D01*
X694058Y1404465D01*
X694097Y1404229D01*
X694136Y1404033D01*
Y1403915D01*
Y1403876D01*
X694097Y1403522D01*
X694019Y1403168D01*
X693901Y1402893D01*
X693743Y1402618D01*
X693625Y1402421D01*
X693508Y1402264D01*
X693429Y1402186D01*
X693390Y1402146D01*
X693115Y1401910D01*
X692800Y1401753D01*
X692486Y1401596D01*
X692211Y1401517D01*
X691975Y1401478D01*
X691739Y1401439D01*
X691582D01*
X691189Y1401478D01*
X690835Y1401557D01*
X690560Y1401675D01*
X690285Y1401793D01*
X690049Y1401910D01*
X689892Y1402028D01*
X689813Y1402107D01*
X689774Y1402146D01*
X689538Y1402421D01*
X689342Y1402736D01*
X689224Y1403011D01*
X689106Y1403286D01*
X689067Y1403522D01*
X689027Y1403718D01*
Y1403836D01*
Y1403876D01*
X689067Y1404229D01*
X689145Y1404583D01*
X689263Y1404858D01*
X689381Y1405094D01*
X689538Y1405290D01*
X689656Y1405447D01*
X689735Y1405526D01*
X689774Y1405565D01*
X690049Y1405801D01*
X690364Y1405958D01*
X690678Y1406116D01*
X690953Y1406194D01*
X691189Y1406234D01*
X691385Y1406273D01*
X691582D01*
X691975Y1406234D01*
D02*
G37*
G36*
X778396Y1380885D02*
X773758D01*
Y1391024D01*
X766488D01*
Y1380885D01*
X761850D01*
Y1404661D01*
X766488D01*
Y1394836D01*
X773758D01*
Y1404661D01*
X778396D01*
Y1380885D01*
D02*
G37*
G36*
X733633Y1398924D02*
X734262Y1398884D01*
X734812Y1398806D01*
X735284Y1398727D01*
X735637Y1398649D01*
X735873Y1398609D01*
X735912Y1398570D01*
X735952D01*
X736580Y1398413D01*
X737131Y1398256D01*
X737641Y1398138D01*
X738034Y1397980D01*
X738388Y1397863D01*
X738624Y1397784D01*
X738781Y1397745D01*
X738821Y1397705D01*
X737720Y1394679D01*
X737366Y1394836D01*
X737013Y1394915D01*
X736738Y1394994D01*
X736698Y1395033D01*
X736659D01*
X736187Y1395190D01*
X735794Y1395269D01*
X735637Y1395347D01*
X735519D01*
X735441Y1395387D01*
X735401D01*
X734890Y1395505D01*
X734497Y1395583D01*
X734301D01*
X734183Y1395622D01*
X734065D01*
X733554Y1395701D01*
X733122Y1395740D01*
X732729D01*
X732179Y1395701D01*
X731707Y1395662D01*
X731314Y1395544D01*
X730961Y1395465D01*
X730685Y1395347D01*
X730489Y1395229D01*
X730371Y1395190D01*
X730332Y1395151D01*
X730017Y1394915D01*
X729821Y1394601D01*
X729664Y1394286D01*
X729546Y1393972D01*
X729467Y1393658D01*
X729428Y1393422D01*
Y1393264D01*
Y1393186D01*
Y1392282D01*
X730174Y1392243D01*
X730882Y1392164D01*
X731550Y1392085D01*
X732139Y1392007D01*
X732611Y1391968D01*
X733004Y1391889D01*
X733240Y1391850D01*
X733318D01*
X733987Y1391732D01*
X734615Y1391575D01*
X735166Y1391417D01*
X735677Y1391260D01*
X736069Y1391142D01*
X736345Y1391024D01*
X736541Y1390946D01*
X736620Y1390907D01*
X737131Y1390671D01*
X737602Y1390356D01*
X737995Y1390081D01*
X738310Y1389806D01*
X738585Y1389531D01*
X738781Y1389334D01*
X738899Y1389177D01*
X738938Y1389138D01*
X739213Y1388666D01*
X739449Y1388195D01*
X739606Y1387723D01*
X739685Y1387252D01*
X739764Y1386819D01*
X739803Y1386505D01*
Y1386269D01*
Y1386230D01*
Y1386190D01*
X739764Y1385680D01*
X739724Y1385247D01*
X739489Y1384383D01*
X739174Y1383675D01*
X738821Y1383086D01*
X738467Y1382614D01*
X738152Y1382261D01*
X737917Y1382064D01*
X737877Y1381985D01*
X737838D01*
X737445Y1381710D01*
X737013Y1381475D01*
X736069Y1381121D01*
X735048Y1380846D01*
X734065Y1380688D01*
X733633Y1380610D01*
X733201Y1380571D01*
X732808Y1380531D01*
X732493D01*
X732218Y1380492D01*
X731078D01*
X730371Y1380571D01*
X729742Y1380610D01*
X729153Y1380688D01*
X728681Y1380767D01*
X728327Y1380806D01*
X728092Y1380885D01*
X728013D01*
X727345Y1381042D01*
X726795Y1381160D01*
X726323Y1381317D01*
X725891Y1381435D01*
X725576Y1381553D01*
X725380Y1381671D01*
X725223Y1381710D01*
X725183Y1381750D01*
Y1392675D01*
Y1393304D01*
X725262Y1393854D01*
X725341Y1394365D01*
X725458Y1394876D01*
X725616Y1395308D01*
X725773Y1395701D01*
X725930Y1396055D01*
X726087Y1396369D01*
X726284Y1396644D01*
X726441Y1396880D01*
X726755Y1397234D01*
X726952Y1397430D01*
X726991Y1397509D01*
X727030D01*
X727777Y1398020D01*
X728642Y1398373D01*
X729506Y1398649D01*
X730332Y1398806D01*
X731078Y1398924D01*
X731432Y1398963D01*
X731707D01*
X731943Y1399002D01*
X732965D01*
X733633Y1398924D01*
D02*
G37*
G36*
X666469Y1380885D02*
X662028D01*
Y1389806D01*
X661950D01*
X655583Y1380885D01*
X650513D01*
X657312Y1390317D01*
X650946Y1398609D01*
X656094D01*
X661950Y1390828D01*
X662028D01*
Y1406705D01*
X666469D01*
Y1380885D01*
D02*
G37*
G36*
X719996Y1402539D02*
Y1398609D01*
X722275D01*
Y1395229D01*
X719996D01*
Y1386190D01*
X719957Y1385208D01*
X719799Y1384383D01*
X719603Y1383636D01*
X719367Y1383046D01*
X719170Y1382614D01*
X718974Y1382300D01*
X718817Y1382103D01*
X718778Y1382025D01*
X718267Y1381553D01*
X717677Y1381239D01*
X717048Y1381003D01*
X716419Y1380806D01*
X715830Y1380728D01*
X715398Y1380688D01*
X715201Y1380649D01*
X714965D01*
X714376Y1380688D01*
X713904Y1380728D01*
X713708D01*
X713551Y1380767D01*
X713433D01*
X712922Y1380885D01*
X712568Y1380964D01*
X712372Y1381042D01*
X712293Y1381082D01*
Y1384815D01*
X712450Y1384736D01*
X712647Y1384658D01*
X712765Y1384619D01*
X712843D01*
X713118Y1384579D01*
X713315Y1384540D01*
X713551D01*
X713865Y1384579D01*
X714140Y1384619D01*
X714376Y1384697D01*
X714612Y1384776D01*
X714769Y1384854D01*
X714887Y1384894D01*
X714965Y1384972D01*
X715005D01*
X715201Y1385169D01*
X715358Y1385405D01*
X715437Y1385640D01*
X715516Y1385915D01*
X715555Y1386151D01*
X715594Y1386308D01*
Y1386466D01*
Y1386505D01*
Y1395229D01*
X712293D01*
Y1398609D01*
X715594D01*
Y1403836D01*
X719996Y1402539D01*
D02*
G37*
G36*
X750728Y1398963D02*
X751357Y1398884D01*
X751947Y1398766D01*
X752458Y1398649D01*
X752890Y1398531D01*
X753204Y1398413D01*
X753401Y1398334D01*
X753479Y1398295D01*
X754030Y1398020D01*
X754540Y1397705D01*
X754973Y1397391D01*
X755366Y1397116D01*
X755641Y1396841D01*
X755877Y1396605D01*
X756034Y1396448D01*
X756073Y1396409D01*
X756427Y1395937D01*
X756781Y1395426D01*
X757056Y1394954D01*
X757292Y1394483D01*
X757449Y1394090D01*
X757567Y1393736D01*
X757645Y1393540D01*
X757684Y1393500D01*
Y1393461D01*
X757881Y1392832D01*
X757999Y1392164D01*
X758117Y1391535D01*
X758156Y1390946D01*
X758195Y1390474D01*
X758235Y1390081D01*
Y1389924D01*
Y1389806D01*
Y1389767D01*
Y1389727D01*
X758195Y1388981D01*
X758156Y1388313D01*
X758077Y1387684D01*
X757960Y1387094D01*
X757842Y1386662D01*
X757763Y1386308D01*
X757724Y1386073D01*
X757684Y1386033D01*
Y1385994D01*
X757449Y1385365D01*
X757174Y1384815D01*
X756859Y1384304D01*
X756584Y1383872D01*
X756348Y1383518D01*
X756152Y1383282D01*
X755995Y1383086D01*
X755955Y1383046D01*
X755523Y1382614D01*
X755051Y1382221D01*
X754580Y1381907D01*
X754148Y1381632D01*
X753755Y1381435D01*
X753440Y1381278D01*
X753244Y1381199D01*
X753165Y1381160D01*
X752536Y1380924D01*
X751868Y1380767D01*
X751239Y1380649D01*
X750611Y1380571D01*
X750100Y1380531D01*
X749667Y1380492D01*
X748606D01*
X747899Y1380531D01*
X747270Y1380610D01*
X746720Y1380688D01*
X746288Y1380728D01*
X745934Y1380806D01*
X745698Y1380846D01*
X745619D01*
X744991Y1381003D01*
X744440Y1381121D01*
X743969Y1381278D01*
X743537Y1381435D01*
X743183Y1381553D01*
X742947Y1381671D01*
X742790Y1381710D01*
X742750Y1381750D01*
X744047Y1385090D01*
X744794Y1384776D01*
X745187Y1384619D01*
X745541Y1384540D01*
X745855Y1384422D01*
X746091Y1384343D01*
X746248Y1384304D01*
X746327D01*
X747270Y1384108D01*
X747742Y1384068D01*
X748135Y1384029D01*
X748449Y1383990D01*
X748960D01*
X749667Y1384029D01*
X750335Y1384147D01*
X750886Y1384304D01*
X751357Y1384461D01*
X751750Y1384619D01*
X752025Y1384776D01*
X752183Y1384894D01*
X752261Y1384933D01*
X752693Y1385326D01*
X753047Y1385797D01*
X753322Y1386308D01*
X753558Y1386780D01*
X753715Y1387212D01*
X753794Y1387566D01*
X753872Y1387802D01*
Y1387841D01*
Y1387880D01*
X742475Y1389413D01*
X742436Y1389688D01*
X742397Y1389924D01*
Y1390081D01*
Y1390160D01*
Y1390946D01*
X742436Y1391614D01*
X742475Y1392203D01*
X742554Y1392793D01*
X742633Y1393264D01*
X742750Y1393658D01*
X742829Y1393972D01*
X742868Y1394129D01*
X742908Y1394208D01*
X743104Y1394758D01*
X743340Y1395229D01*
X743615Y1395662D01*
X743851Y1396055D01*
X744047Y1396330D01*
X744244Y1396566D01*
X744362Y1396723D01*
X744401Y1396762D01*
X744755Y1397155D01*
X745148Y1397470D01*
X745541Y1397745D01*
X745934Y1397980D01*
X746248Y1398177D01*
X746523Y1398295D01*
X746681Y1398373D01*
X746759Y1398413D01*
X747309Y1398609D01*
X747860Y1398766D01*
X748410Y1398845D01*
X748921Y1398924D01*
X749353Y1398963D01*
X749707Y1399002D01*
X750021D01*
X750728Y1398963D01*
D02*
G37*
G36*
X693822Y1380885D02*
X689342D01*
Y1398609D01*
X693822D01*
Y1380885D01*
D02*
G37*
G36*
X679753Y1398924D02*
X680421Y1398884D01*
X681010Y1398806D01*
X681482Y1398727D01*
X681836Y1398688D01*
X682071Y1398609D01*
X682150D01*
X682779Y1398452D01*
X683329Y1398334D01*
X683879Y1398177D01*
X684351Y1398020D01*
X684704Y1397902D01*
X685019Y1397784D01*
X685176Y1397745D01*
X685255Y1397705D01*
Y1380885D01*
X680814D01*
Y1394994D01*
X680421Y1395112D01*
X680028Y1395190D01*
X679870Y1395229D01*
X679753Y1395269D01*
X679635D01*
X679085Y1395347D01*
X678613Y1395387D01*
X678141D01*
X677591Y1395347D01*
X677120Y1395269D01*
X676687Y1395151D01*
X676373Y1395033D01*
X676098Y1394876D01*
X675941Y1394758D01*
X675823Y1394679D01*
X675783Y1394640D01*
X675508Y1394326D01*
X675312Y1394011D01*
X675194Y1393658D01*
X675076Y1393304D01*
X675037Y1393029D01*
X674997Y1392793D01*
Y1392636D01*
Y1392557D01*
Y1380885D01*
X670517D01*
Y1392989D01*
Y1393500D01*
X670596Y1394011D01*
X670792Y1394915D01*
X671107Y1395662D01*
X671421Y1396291D01*
X671775Y1396802D01*
X672089Y1397155D01*
X672286Y1397352D01*
X672325Y1397430D01*
X672364D01*
X672718Y1397705D01*
X673150Y1397941D01*
X674054Y1398334D01*
X674997Y1398609D01*
X675980Y1398806D01*
X676412Y1398884D01*
X676844Y1398924D01*
X677198Y1398963D01*
X677513D01*
X677788Y1399002D01*
X679006D01*
X679753Y1398924D01*
D02*
G37*
G36*
X633182Y1406705D02*
X633654Y1406666D01*
X634047Y1406587D01*
X634361Y1406509D01*
X634636Y1406469D01*
X634793Y1406391D01*
X634833D01*
X635265Y1406234D01*
X635658Y1406076D01*
X636051Y1405880D01*
X636365Y1405683D01*
X636601Y1405526D01*
X636798Y1405369D01*
X636916Y1405290D01*
X636955Y1405251D01*
X637269Y1404937D01*
X637544Y1404622D01*
X637780Y1404308D01*
X638016Y1403993D01*
X638173Y1403758D01*
X638291Y1403522D01*
X638330Y1403365D01*
X638370Y1403325D01*
X638527Y1402893D01*
X638645Y1402421D01*
X638723Y1401950D01*
X638763Y1401517D01*
X638802Y1401164D01*
X638841Y1400849D01*
Y1400653D01*
Y1400574D01*
Y1398609D01*
X641081D01*
Y1395229D01*
X638841D01*
Y1380885D01*
X634440D01*
Y1395229D01*
X631021D01*
Y1398609D01*
X634440D01*
Y1400574D01*
X634400Y1401085D01*
X634283Y1401517D01*
X634165Y1401871D01*
X633968Y1402146D01*
X633811Y1402343D01*
X633693Y1402500D01*
X633575Y1402579D01*
X633536Y1402618D01*
X633182Y1402814D01*
X632789Y1402972D01*
X632435Y1403090D01*
X632082Y1403168D01*
X631767Y1403207D01*
X631532Y1403247D01*
X631021D01*
X630981Y1403207D01*
X630706D01*
Y1406705D01*
X630942Y1406744D01*
X631414D01*
X631689Y1406784D01*
X632711D01*
X633182Y1406705D01*
D02*
G37*
G36*
X603393Y1398924D02*
X604061Y1398884D01*
X604650Y1398806D01*
X605161Y1398727D01*
X605554Y1398688D01*
X605790Y1398609D01*
X605869D01*
X606537Y1398452D01*
X607126Y1398334D01*
X607676Y1398177D01*
X608148Y1398020D01*
X608502Y1397902D01*
X608816Y1397784D01*
X608973Y1397745D01*
X609052Y1397705D01*
Y1380885D01*
X604611D01*
Y1394994D01*
X604257Y1395112D01*
X603943Y1395190D01*
X603668Y1395269D01*
X603589D01*
X603157Y1395347D01*
X602764Y1395387D01*
X601939D01*
X601585Y1395347D01*
X601231Y1395308D01*
X600956Y1395269D01*
X600681Y1395190D01*
X600524Y1395151D01*
X600406Y1395112D01*
X600367D01*
X599541Y1398845D01*
X599895Y1398884D01*
X600209D01*
X600445Y1398924D01*
X600563D01*
X600995Y1398963D01*
X601428Y1399002D01*
X602607D01*
X603393Y1398924D01*
D02*
G37*
G36*
X704197D02*
X705180Y1398766D01*
X706005Y1398531D01*
X706673Y1398295D01*
X707223Y1398020D01*
X707616Y1397784D01*
X707852Y1397627D01*
X707891Y1397548D01*
X707931D01*
X708245Y1397273D01*
X708481Y1396998D01*
X708913Y1396369D01*
X709188Y1395740D01*
X709424Y1395151D01*
X709542Y1394601D01*
X709581Y1394168D01*
X709621Y1394011D01*
Y1393893D01*
Y1393815D01*
Y1393775D01*
X709581Y1393304D01*
X709542Y1392871D01*
X709463Y1392478D01*
X709385Y1392164D01*
X709306Y1391889D01*
X709228Y1391693D01*
X709149Y1391575D01*
Y1391535D01*
X708756Y1390946D01*
X708559Y1390710D01*
X708363Y1390474D01*
X708206Y1390317D01*
X708049Y1390199D01*
X707970Y1390120D01*
X707931Y1390081D01*
X707380Y1389688D01*
X706830Y1389374D01*
X706634Y1389256D01*
X706477Y1389177D01*
X706359Y1389099D01*
X706319D01*
X705651Y1388824D01*
X705376Y1388706D01*
X705101Y1388588D01*
X704865Y1388509D01*
X704708Y1388431D01*
X704590Y1388391D01*
X704551D01*
X704119Y1388234D01*
X703726Y1388077D01*
X703411Y1387920D01*
X703136Y1387763D01*
X702900Y1387645D01*
X702743Y1387527D01*
X702625Y1387487D01*
X702586Y1387448D01*
X702311Y1387252D01*
X702114Y1387016D01*
X701996Y1386741D01*
X701879Y1386505D01*
X701839Y1386308D01*
X701800Y1386112D01*
Y1385994D01*
Y1385955D01*
X701839Y1385640D01*
X701918Y1385365D01*
X702036Y1385129D01*
X702154Y1384933D01*
X702311Y1384776D01*
X702429Y1384658D01*
X702507Y1384579D01*
X702547Y1384540D01*
X702822Y1384383D01*
X703136Y1384265D01*
X703765Y1384108D01*
X704040Y1384068D01*
X704276Y1384029D01*
X704472D01*
X705219Y1384068D01*
X705573Y1384147D01*
X705887Y1384186D01*
X706162Y1384265D01*
X706398Y1384304D01*
X706555Y1384343D01*
X706595D01*
X707380Y1384619D01*
X707734Y1384776D01*
X708049Y1384894D01*
X708284Y1385012D01*
X708481Y1385090D01*
X708599Y1385129D01*
X708638Y1385169D01*
X710092Y1381750D01*
X709110Y1381357D01*
X708677Y1381160D01*
X708245Y1381042D01*
X707891Y1380924D01*
X707616Y1380885D01*
X707459Y1380806D01*
X707380D01*
X706280Y1380610D01*
X705769Y1380571D01*
X705337Y1380531D01*
X704944Y1380492D01*
X703686D01*
X703097Y1380571D01*
X702547Y1380649D01*
X701996Y1380728D01*
X701525Y1380846D01*
X701092Y1380964D01*
X700660Y1381082D01*
X700307Y1381239D01*
X699992Y1381396D01*
X699717Y1381514D01*
X699481Y1381632D01*
X699324Y1381750D01*
X699167Y1381868D01*
X699049Y1381907D01*
X699010Y1381985D01*
X698970D01*
X698656Y1382261D01*
X698381Y1382575D01*
X697909Y1383243D01*
X697595Y1383911D01*
X697398Y1384540D01*
X697241Y1385090D01*
X697202Y1385562D01*
X697163Y1385719D01*
Y1385837D01*
Y1385915D01*
Y1385955D01*
Y1386426D01*
X697241Y1386859D01*
X697320Y1387252D01*
X697398Y1387566D01*
X697477Y1387802D01*
X697556Y1387998D01*
X697595Y1388116D01*
X697634Y1388156D01*
X698027Y1388784D01*
X698224Y1389020D01*
X698420Y1389256D01*
X698577Y1389413D01*
X698735Y1389531D01*
X698813Y1389610D01*
X698852Y1389649D01*
X699442Y1390081D01*
X699953Y1390396D01*
X700189Y1390474D01*
X700346Y1390553D01*
X700464Y1390631D01*
X700503D01*
X701171Y1390907D01*
X701446Y1391024D01*
X701721Y1391142D01*
X701957Y1391260D01*
X702114Y1391300D01*
X702232Y1391378D01*
X702271D01*
X702664Y1391496D01*
X702979Y1391614D01*
X703215Y1391693D01*
X703254Y1391732D01*
X703293D01*
X703608Y1391928D01*
X703883Y1392085D01*
X704079Y1392203D01*
X704158Y1392243D01*
X704433Y1392439D01*
X704630Y1392675D01*
X704747Y1392832D01*
X704787Y1392871D01*
X704905Y1393186D01*
X704983Y1393500D01*
X705023Y1393736D01*
Y1393775D01*
Y1393815D01*
X704983Y1394090D01*
X704905Y1394365D01*
X704708Y1394758D01*
X704590Y1394915D01*
X704472Y1395033D01*
X704433Y1395072D01*
X704394Y1395112D01*
X704119Y1395308D01*
X703804Y1395426D01*
X703215Y1395583D01*
X702940Y1395622D01*
X702743Y1395662D01*
X702547D01*
X701839Y1395622D01*
X701564Y1395583D01*
X701250Y1395544D01*
X701053Y1395465D01*
X700857Y1395426D01*
X700739Y1395387D01*
X700699D01*
X700071Y1395151D01*
X699756Y1395033D01*
X699520Y1394915D01*
X699324Y1394797D01*
X699128Y1394719D01*
X699049Y1394679D01*
X699010Y1394640D01*
X697634Y1397705D01*
X698499Y1398138D01*
X698931Y1398295D01*
X699324Y1398452D01*
X699678Y1398570D01*
X699953Y1398649D01*
X700110Y1398688D01*
X700189D01*
X701250Y1398884D01*
X701721Y1398924D01*
X702154Y1398963D01*
X702547Y1399002D01*
X703097D01*
X704197Y1398924D01*
D02*
G37*
G36*
X621196Y1398963D02*
X621824Y1398884D01*
X622414Y1398766D01*
X622925Y1398649D01*
X623357Y1398531D01*
X623672Y1398413D01*
X623868Y1398334D01*
X623947Y1398295D01*
X624497Y1398020D01*
X624968Y1397705D01*
X625401Y1397352D01*
X625754Y1397037D01*
X626069Y1396762D01*
X626265Y1396526D01*
X626423Y1396369D01*
X626462Y1396330D01*
X626816Y1395858D01*
X627130Y1395347D01*
X627405Y1394876D01*
X627601Y1394404D01*
X627759Y1394011D01*
X627916Y1393697D01*
X627955Y1393500D01*
X627995Y1393461D01*
Y1393422D01*
X628152Y1392793D01*
X628270Y1392125D01*
X628388Y1391496D01*
X628427Y1390946D01*
X628466Y1390435D01*
X628505Y1390081D01*
Y1389924D01*
Y1389806D01*
Y1389767D01*
Y1389727D01*
X628466Y1389020D01*
X628427Y1388313D01*
X628348Y1387684D01*
X628230Y1387134D01*
X628152Y1386701D01*
X628073Y1386348D01*
X628034Y1386112D01*
X627995Y1386073D01*
Y1386033D01*
X627798Y1385405D01*
X627523Y1384854D01*
X627287Y1384343D01*
X627051Y1383911D01*
X626816Y1383557D01*
X626619Y1383322D01*
X626501Y1383125D01*
X626462Y1383086D01*
X626069Y1382653D01*
X625636Y1382261D01*
X625204Y1381946D01*
X624811Y1381671D01*
X624457Y1381435D01*
X624182Y1381278D01*
X624025Y1381199D01*
X623947Y1381160D01*
X623357Y1380924D01*
X622768Y1380767D01*
X622178Y1380649D01*
X621628Y1380571D01*
X621196Y1380531D01*
X620803Y1380492D01*
X620488D01*
X619781Y1380531D01*
X619152Y1380610D01*
X618562Y1380688D01*
X618052Y1380846D01*
X617659Y1380964D01*
X617344Y1381042D01*
X617148Y1381121D01*
X617069Y1381160D01*
X616519Y1381435D01*
X616047Y1381750D01*
X615615Y1382064D01*
X615261Y1382378D01*
X614947Y1382653D01*
X614750Y1382889D01*
X614593Y1383046D01*
X614554Y1383086D01*
X614200Y1383557D01*
X613886Y1384068D01*
X613611Y1384579D01*
X613414Y1385051D01*
X613218Y1385444D01*
X613100Y1385758D01*
X613061Y1385955D01*
X613021Y1386033D01*
X612825Y1386701D01*
X612707Y1387330D01*
X612589Y1387959D01*
X612550Y1388549D01*
X612510Y1389020D01*
X612471Y1389413D01*
Y1389531D01*
Y1389649D01*
Y1389688D01*
Y1389727D01*
X612510Y1390474D01*
X612550Y1391142D01*
X612628Y1391771D01*
X612746Y1392321D01*
X612864Y1392793D01*
X612943Y1393147D01*
X612982Y1393343D01*
X613021Y1393422D01*
X613218Y1394051D01*
X613493Y1394601D01*
X613729Y1395072D01*
X613964Y1395505D01*
X614200Y1395858D01*
X614397Y1396133D01*
X614515Y1396291D01*
X614554Y1396330D01*
X614947Y1396762D01*
X615379Y1397155D01*
X615812Y1397509D01*
X616205Y1397784D01*
X616558Y1398020D01*
X616833Y1398177D01*
X616990Y1398256D01*
X617069Y1398295D01*
X617659Y1398531D01*
X618248Y1398688D01*
X618798Y1398845D01*
X619348Y1398924D01*
X619781Y1398963D01*
X620174Y1399002D01*
X620488D01*
X621196Y1398963D01*
D02*
G37*
G36*
X690305Y1375265D02*
X690658Y1375187D01*
X690933Y1375069D01*
X691209Y1374951D01*
X691444Y1374833D01*
X691602Y1374715D01*
X691680Y1374636D01*
X691720Y1374597D01*
X691955Y1374322D01*
X692152Y1374047D01*
X692270Y1373772D01*
X692388Y1373497D01*
X692427Y1373261D01*
X692466Y1373064D01*
Y1372946D01*
Y1372907D01*
X692427Y1372553D01*
X692348Y1372200D01*
X692230Y1371925D01*
X692073Y1371649D01*
X691955Y1371453D01*
X691837Y1371296D01*
X691759Y1371217D01*
X691720Y1371178D01*
X691444Y1370942D01*
X691130Y1370785D01*
X690816Y1370628D01*
X690540Y1370549D01*
X690305Y1370510D01*
X690069Y1370470D01*
X689912D01*
X689519Y1370510D01*
X689165Y1370588D01*
X688890Y1370706D01*
X688615Y1370824D01*
X688379Y1370942D01*
X688222Y1371060D01*
X688143Y1371139D01*
X688104Y1371178D01*
X687868Y1371453D01*
X687672Y1371767D01*
X687554Y1372043D01*
X687436Y1372318D01*
X687396Y1372553D01*
X687357Y1372750D01*
Y1372868D01*
Y1372907D01*
X687396Y1373261D01*
X687475Y1373614D01*
X687593Y1373890D01*
X687711Y1374125D01*
X687868Y1374322D01*
X687986Y1374479D01*
X688065Y1374558D01*
X688104Y1374597D01*
X688379Y1374833D01*
X688693Y1374990D01*
X689008Y1375147D01*
X689283Y1375226D01*
X689519Y1375265D01*
X689715Y1375304D01*
X689912D01*
X690305Y1375265D01*
D02*
G37*
G36*
X647703D02*
X648057Y1375187D01*
X648332Y1375069D01*
X648607Y1374951D01*
X648843Y1374833D01*
X649000Y1374715D01*
X649079Y1374636D01*
X649118Y1374597D01*
X649354Y1374322D01*
X649551Y1374047D01*
X649668Y1373772D01*
X649786Y1373497D01*
X649826Y1373261D01*
X649865Y1373064D01*
Y1372946D01*
Y1372907D01*
X649826Y1372553D01*
X649747Y1372200D01*
X649629Y1371925D01*
X649472Y1371649D01*
X649354Y1371453D01*
X649236Y1371296D01*
X649158Y1371217D01*
X649118Y1371178D01*
X648843Y1370942D01*
X648529Y1370785D01*
X648214Y1370628D01*
X647939Y1370549D01*
X647703Y1370510D01*
X647468Y1370470D01*
X647311D01*
X646918Y1370510D01*
X646564Y1370588D01*
X646289Y1370706D01*
X646014Y1370824D01*
X645778Y1370942D01*
X645621Y1371060D01*
X645542Y1371139D01*
X645503Y1371178D01*
X645267Y1371453D01*
X645070Y1371767D01*
X644952Y1372043D01*
X644835Y1372318D01*
X644795Y1372553D01*
X644756Y1372750D01*
Y1372868D01*
Y1372907D01*
X644795Y1373261D01*
X644874Y1373614D01*
X644992Y1373890D01*
X645110Y1374125D01*
X645267Y1374322D01*
X645385Y1374479D01*
X645463Y1374558D01*
X645503Y1374597D01*
X645778Y1374833D01*
X646092Y1374990D01*
X646407Y1375147D01*
X646682Y1375226D01*
X646918Y1375265D01*
X647114Y1375304D01*
X647311D01*
X647703Y1375265D01*
D02*
G37*
G36*
X770870Y1350781D02*
X770437Y1350585D01*
X770005Y1350428D01*
X769534Y1350270D01*
X769101Y1350152D01*
X768747Y1350074D01*
X768433Y1349995D01*
X768237Y1349917D01*
X768158D01*
X766900Y1349681D01*
X766311Y1349602D01*
X765761Y1349563D01*
X765289D01*
X764935Y1349524D01*
X764621D01*
X763835Y1349563D01*
X763128Y1349641D01*
X762420Y1349759D01*
X761791Y1349877D01*
X761202Y1350074D01*
X760652Y1350270D01*
X760141Y1350467D01*
X759708Y1350703D01*
X759316Y1350938D01*
X758962Y1351135D01*
X758647Y1351331D01*
X758412Y1351528D01*
X758215Y1351646D01*
X758097Y1351764D01*
X758019Y1351842D01*
X757979Y1351882D01*
X757547Y1352353D01*
X757193Y1352864D01*
X756840Y1353454D01*
X756564Y1354043D01*
X756329Y1354633D01*
X756132Y1355261D01*
X755857Y1356440D01*
X755739Y1356991D01*
X755661Y1357541D01*
X755621Y1358012D01*
X755582Y1358405D01*
X755543Y1358759D01*
Y1358995D01*
Y1359191D01*
Y1359231D01*
X755582Y1359977D01*
X755621Y1360646D01*
X755739Y1361274D01*
X755818Y1361824D01*
X755936Y1362257D01*
X756054Y1362571D01*
X756093Y1362768D01*
X756132Y1362846D01*
X756368Y1363436D01*
X756604Y1363947D01*
X756879Y1364418D01*
X757115Y1364811D01*
X757351Y1365126D01*
X757547Y1365361D01*
X757665Y1365519D01*
X757704Y1365558D01*
X758097Y1365951D01*
X758529Y1366305D01*
X758923Y1366619D01*
X759316Y1366855D01*
X759669Y1367051D01*
X759944Y1367169D01*
X760101Y1367248D01*
X760180Y1367287D01*
X760730Y1367484D01*
X761241Y1367641D01*
X761791Y1367719D01*
X762263Y1367798D01*
X762656Y1367837D01*
X763010Y1367877D01*
X763285D01*
X763874Y1367837D01*
X764424Y1367798D01*
X764660Y1367759D01*
X764817Y1367719D01*
X764935Y1367680D01*
X764975D01*
X765564Y1367562D01*
X765800Y1367484D01*
X766036Y1367405D01*
X766193Y1367326D01*
X766311Y1367287D01*
X766389Y1367248D01*
X766429D01*
Y1375737D01*
X770870D01*
Y1350781D01*
D02*
G37*
G36*
X718601Y1349917D02*
X714160D01*
Y1358838D01*
X714081D01*
X707715Y1349917D01*
X702645D01*
X709444Y1359349D01*
X703077Y1367641D01*
X708226D01*
X714081Y1359860D01*
X714160D01*
Y1375737D01*
X718601D01*
Y1349917D01*
D02*
G37*
G36*
X726893Y1367995D02*
X727443Y1367955D01*
X727954Y1367837D01*
X728426Y1367759D01*
X728779Y1367641D01*
X729094Y1367523D01*
X729251Y1367484D01*
X729330Y1367444D01*
X729841Y1367209D01*
X730312Y1366934D01*
X730744Y1366658D01*
X731098Y1366383D01*
X731413Y1366148D01*
X731648Y1365951D01*
X731806Y1365794D01*
X731845Y1365755D01*
X732238Y1365322D01*
X732591Y1364811D01*
X732906Y1364340D01*
X733142Y1363907D01*
X733338Y1363475D01*
X733495Y1363161D01*
X733574Y1362964D01*
X733613Y1362925D01*
Y1362886D01*
X733810Y1362217D01*
X733967Y1361510D01*
X734085Y1360803D01*
X734163Y1360174D01*
X734203Y1359624D01*
X734242Y1359152D01*
Y1358995D01*
Y1358877D01*
Y1358798D01*
Y1358759D01*
X734203Y1357895D01*
X734124Y1357109D01*
X734046Y1356440D01*
X733928Y1355851D01*
X733810Y1355340D01*
X733692Y1354986D01*
X733653Y1354751D01*
X733613Y1354711D01*
Y1354672D01*
X733338Y1354043D01*
X733063Y1353493D01*
X732749Y1352982D01*
X732474Y1352589D01*
X732238Y1352235D01*
X732041Y1351960D01*
X731884Y1351803D01*
X731845Y1351764D01*
X731413Y1351371D01*
X730980Y1351017D01*
X730548Y1350742D01*
X730155Y1350506D01*
X729841Y1350310D01*
X729565Y1350192D01*
X729408Y1350113D01*
X729330Y1350074D01*
X728779Y1349877D01*
X728229Y1349759D01*
X727758Y1349641D01*
X727286Y1349602D01*
X726893Y1349563D01*
X726618Y1349524D01*
X726343D01*
X725360Y1349563D01*
X724456Y1349720D01*
X723670Y1349917D01*
X722963Y1350113D01*
X722413Y1350349D01*
X722177Y1350428D01*
X721981Y1350506D01*
X721823Y1350585D01*
X721705Y1350663D01*
X721666Y1350703D01*
X721627D01*
X723042Y1354082D01*
X723474Y1353807D01*
X723906Y1353611D01*
X724338Y1353493D01*
X724771Y1353414D01*
X725125Y1353336D01*
X725400Y1353296D01*
X725675D01*
X726225Y1353336D01*
X726736Y1353454D01*
X726932Y1353532D01*
X727090Y1353572D01*
X727168Y1353611D01*
X727207D01*
X727718Y1353925D01*
X728111Y1354240D01*
X728269Y1354397D01*
X728347Y1354515D01*
X728426Y1354593D01*
X728465Y1354633D01*
X728819Y1355222D01*
X729054Y1355772D01*
X729172Y1356008D01*
X729251Y1356205D01*
X729290Y1356322D01*
Y1356362D01*
X729487Y1357187D01*
X729526Y1357619D01*
X729565Y1357973D01*
X729605Y1358327D01*
Y1358563D01*
Y1358720D01*
Y1358798D01*
X729565Y1359781D01*
X729408Y1360646D01*
X729251Y1361353D01*
X729015Y1361942D01*
X728819Y1362375D01*
X728622Y1362689D01*
X728504Y1362886D01*
X728465Y1362964D01*
X728033Y1363436D01*
X727561Y1363750D01*
X727090Y1363986D01*
X726657Y1364182D01*
X726264Y1364261D01*
X725950Y1364300D01*
X725753Y1364340D01*
X725675D01*
X725125Y1364300D01*
X724614Y1364222D01*
X724142Y1364104D01*
X723749Y1363986D01*
X723474Y1363829D01*
X723238Y1363711D01*
X723081Y1363632D01*
X723042Y1363593D01*
X721627Y1366816D01*
X722413Y1367209D01*
X723199Y1367523D01*
X723985Y1367719D01*
X724731Y1367877D01*
X725360Y1367955D01*
X725635Y1367995D01*
X725871Y1368034D01*
X726343D01*
X726893Y1367995D01*
D02*
G37*
G36*
X752163Y1356087D02*
X752124Y1355458D01*
X752084Y1354868D01*
X752006Y1354318D01*
X751848Y1353807D01*
X751731Y1353375D01*
X751573Y1352943D01*
X751377Y1352589D01*
X751220Y1352275D01*
X751023Y1351960D01*
X750866Y1351724D01*
X750709Y1351528D01*
X750552Y1351371D01*
X750355Y1351135D01*
X750316Y1351056D01*
X750277D01*
X749884Y1350781D01*
X749490Y1350545D01*
X748626Y1350152D01*
X747683Y1349917D01*
X746779Y1349720D01*
X745953Y1349602D01*
X745600Y1349563D01*
X745285D01*
X745050Y1349524D01*
X744696D01*
X743949Y1349563D01*
X743596D01*
X743320Y1349602D01*
X743045D01*
X742849Y1349641D01*
X742692D01*
X741945Y1349720D01*
X741630Y1349759D01*
X741355Y1349799D01*
X741120Y1349838D01*
X740923D01*
X740805Y1349877D01*
X740766D01*
X740098Y1349995D01*
X739783Y1350074D01*
X739548Y1350152D01*
X739351Y1350192D01*
X739155Y1350231D01*
X739076Y1350270D01*
X739037D01*
X738486Y1350467D01*
X738015Y1350624D01*
X737858Y1350703D01*
X737740Y1350742D01*
X737661Y1350781D01*
X737622D01*
Y1367641D01*
X742102D01*
Y1353572D01*
X742456Y1353454D01*
X742809Y1353375D01*
X742967Y1353336D01*
X743085D01*
X743163Y1353296D01*
X743202D01*
X743713Y1353218D01*
X744185Y1353178D01*
X744696D01*
X745246Y1353218D01*
X745678Y1353296D01*
X746111Y1353454D01*
X746425Y1353611D01*
X746740Y1353807D01*
X746975Y1354043D01*
X747172Y1354318D01*
X747329Y1354593D01*
X747565Y1355104D01*
X747683Y1355536D01*
Y1355694D01*
X747722Y1355851D01*
Y1355929D01*
Y1355969D01*
Y1367641D01*
X752163D01*
Y1356087D01*
D02*
G37*
G36*
X615399Y1367995D02*
X616028Y1367916D01*
X616617Y1367798D01*
X617128Y1367680D01*
X617560Y1367562D01*
X617875Y1367444D01*
X618071Y1367366D01*
X618150Y1367326D01*
X618700Y1367051D01*
X619211Y1366737D01*
X619643Y1366423D01*
X620036Y1366148D01*
X620311Y1365872D01*
X620547Y1365637D01*
X620704Y1365479D01*
X620744Y1365440D01*
X621097Y1364968D01*
X621451Y1364458D01*
X621726Y1363986D01*
X621962Y1363514D01*
X622119Y1363121D01*
X622237Y1362768D01*
X622316Y1362571D01*
X622355Y1362532D01*
Y1362493D01*
X622552Y1361864D01*
X622669Y1361196D01*
X622787Y1360567D01*
X622827Y1359977D01*
X622866Y1359506D01*
X622905Y1359113D01*
Y1358956D01*
Y1358838D01*
Y1358798D01*
Y1358759D01*
X622866Y1358012D01*
X622827Y1357344D01*
X622748Y1356716D01*
X622630Y1356126D01*
X622512Y1355694D01*
X622434Y1355340D01*
X622394Y1355104D01*
X622355Y1355065D01*
Y1355026D01*
X622119Y1354397D01*
X621844Y1353847D01*
X621530Y1353336D01*
X621255Y1352903D01*
X621019Y1352550D01*
X620822Y1352314D01*
X620665Y1352117D01*
X620626Y1352078D01*
X620193Y1351646D01*
X619722Y1351253D01*
X619250Y1350938D01*
X618818Y1350663D01*
X618425Y1350467D01*
X618111Y1350310D01*
X617914Y1350231D01*
X617836Y1350192D01*
X617207Y1349956D01*
X616539Y1349799D01*
X615910Y1349681D01*
X615281Y1349602D01*
X614770Y1349563D01*
X614338Y1349524D01*
X613277D01*
X612569Y1349563D01*
X611941Y1349641D01*
X611390Y1349720D01*
X610958Y1349759D01*
X610604Y1349838D01*
X610369Y1349877D01*
X610290D01*
X609661Y1350034D01*
X609111Y1350152D01*
X608639Y1350310D01*
X608207Y1350467D01*
X607853Y1350585D01*
X607617Y1350703D01*
X607460Y1350742D01*
X607421Y1350781D01*
X608718Y1354122D01*
X609465Y1353807D01*
X609858Y1353650D01*
X610211Y1353572D01*
X610526Y1353454D01*
X610761Y1353375D01*
X610919Y1353336D01*
X610997D01*
X611941Y1353139D01*
X612412Y1353100D01*
X612805Y1353061D01*
X613120Y1353021D01*
X613630D01*
X614338Y1353061D01*
X615006Y1353178D01*
X615556Y1353336D01*
X616028Y1353493D01*
X616421Y1353650D01*
X616696Y1353807D01*
X616853Y1353925D01*
X616932Y1353965D01*
X617364Y1354358D01*
X617718Y1354829D01*
X617993Y1355340D01*
X618229Y1355812D01*
X618386Y1356244D01*
X618464Y1356598D01*
X618543Y1356833D01*
Y1356873D01*
Y1356912D01*
X607146Y1358445D01*
X607107Y1358720D01*
X607067Y1358956D01*
Y1359113D01*
Y1359191D01*
Y1359977D01*
X607107Y1360646D01*
X607146Y1361235D01*
X607225Y1361824D01*
X607303Y1362296D01*
X607421Y1362689D01*
X607500Y1363004D01*
X607539Y1363161D01*
X607578Y1363239D01*
X607775Y1363790D01*
X608010Y1364261D01*
X608286Y1364693D01*
X608521Y1365086D01*
X608718Y1365361D01*
X608914Y1365597D01*
X609032Y1365755D01*
X609072Y1365794D01*
X609425Y1366187D01*
X609818Y1366501D01*
X610211Y1366776D01*
X610604Y1367012D01*
X610919Y1367209D01*
X611194Y1367326D01*
X611351Y1367405D01*
X611430Y1367444D01*
X611980Y1367641D01*
X612530Y1367798D01*
X613080Y1367877D01*
X613591Y1367955D01*
X614023Y1367995D01*
X614377Y1368034D01*
X614692D01*
X615399Y1367995D01*
D02*
G37*
G36*
X692152Y1349917D02*
X687672D01*
Y1367641D01*
X692152D01*
Y1349917D01*
D02*
G37*
G36*
X678082Y1367955D02*
X678750Y1367916D01*
X679340Y1367837D01*
X679812Y1367759D01*
X680165Y1367719D01*
X680401Y1367641D01*
X680480D01*
X681109Y1367484D01*
X681659Y1367366D01*
X682209Y1367209D01*
X682681Y1367051D01*
X683034Y1366934D01*
X683349Y1366816D01*
X683506Y1366776D01*
X683584Y1366737D01*
Y1349917D01*
X679144D01*
Y1364025D01*
X678750Y1364143D01*
X678357Y1364222D01*
X678200Y1364261D01*
X678082Y1364300D01*
X677965D01*
X677414Y1364379D01*
X676943Y1364418D01*
X676471D01*
X675921Y1364379D01*
X675449Y1364300D01*
X675017Y1364182D01*
X674703Y1364065D01*
X674428Y1363907D01*
X674270Y1363790D01*
X674152Y1363711D01*
X674113Y1363672D01*
X673838Y1363357D01*
X673641Y1363043D01*
X673524Y1362689D01*
X673406Y1362335D01*
X673366Y1362060D01*
X673327Y1361824D01*
Y1361667D01*
Y1361589D01*
Y1349917D01*
X668847D01*
Y1362021D01*
Y1362532D01*
X668926Y1363043D01*
X669122Y1363947D01*
X669436Y1364693D01*
X669751Y1365322D01*
X670105Y1365833D01*
X670419Y1366187D01*
X670615Y1366383D01*
X670655Y1366462D01*
X670694D01*
X671048Y1366737D01*
X671480Y1366973D01*
X672384Y1367366D01*
X673327Y1367641D01*
X674310Y1367837D01*
X674742Y1367916D01*
X675174Y1367955D01*
X675528Y1367995D01*
X675842D01*
X676117Y1368034D01*
X677336D01*
X678082Y1367955D01*
D02*
G37*
G36*
X649551Y1349917D02*
X645070D01*
Y1367641D01*
X649551D01*
Y1349917D01*
D02*
G37*
G36*
X659926Y1367955D02*
X660908Y1367798D01*
X661734Y1367562D01*
X662402Y1367326D01*
X662952Y1367051D01*
X663345Y1366816D01*
X663581Y1366658D01*
X663620Y1366580D01*
X663659D01*
X663974Y1366305D01*
X664210Y1366030D01*
X664642Y1365401D01*
X664917Y1364772D01*
X665153Y1364182D01*
X665271Y1363632D01*
X665310Y1363200D01*
X665349Y1363043D01*
Y1362925D01*
Y1362846D01*
Y1362807D01*
X665310Y1362335D01*
X665271Y1361903D01*
X665192Y1361510D01*
X665113Y1361196D01*
X665035Y1360921D01*
X664956Y1360724D01*
X664878Y1360606D01*
Y1360567D01*
X664485Y1359977D01*
X664288Y1359742D01*
X664092Y1359506D01*
X663934Y1359349D01*
X663777Y1359231D01*
X663699Y1359152D01*
X663659Y1359113D01*
X663109Y1358720D01*
X662559Y1358405D01*
X662362Y1358287D01*
X662205Y1358209D01*
X662087Y1358130D01*
X662048D01*
X661380Y1357855D01*
X661105Y1357737D01*
X660830Y1357619D01*
X660594Y1357541D01*
X660437Y1357462D01*
X660319Y1357423D01*
X660279D01*
X659847Y1357266D01*
X659454Y1357109D01*
X659140Y1356951D01*
X658865Y1356794D01*
X658629Y1356676D01*
X658472Y1356558D01*
X658354Y1356519D01*
X658314Y1356480D01*
X658039Y1356283D01*
X657843Y1356047D01*
X657725Y1355772D01*
X657607Y1355536D01*
X657568Y1355340D01*
X657529Y1355143D01*
Y1355026D01*
Y1354986D01*
X657568Y1354672D01*
X657646Y1354397D01*
X657764Y1354161D01*
X657882Y1353965D01*
X658039Y1353807D01*
X658157Y1353689D01*
X658236Y1353611D01*
X658275Y1353572D01*
X658550Y1353414D01*
X658865Y1353296D01*
X659494Y1353139D01*
X659769Y1353100D01*
X660004Y1353061D01*
X660201D01*
X660948Y1353100D01*
X661301Y1353178D01*
X661616Y1353218D01*
X661891Y1353296D01*
X662127Y1353336D01*
X662284Y1353375D01*
X662323D01*
X663109Y1353650D01*
X663463Y1353807D01*
X663777Y1353925D01*
X664013Y1354043D01*
X664210Y1354122D01*
X664327Y1354161D01*
X664367Y1354200D01*
X665821Y1350781D01*
X664838Y1350388D01*
X664406Y1350192D01*
X663974Y1350074D01*
X663620Y1349956D01*
X663345Y1349917D01*
X663188Y1349838D01*
X663109D01*
X662009Y1349641D01*
X661498Y1349602D01*
X661066Y1349563D01*
X660673Y1349524D01*
X659415D01*
X658825Y1349602D01*
X658275Y1349681D01*
X657725Y1349759D01*
X657253Y1349877D01*
X656821Y1349995D01*
X656389Y1350113D01*
X656035Y1350270D01*
X655721Y1350428D01*
X655446Y1350545D01*
X655210Y1350663D01*
X655053Y1350781D01*
X654895Y1350899D01*
X654778Y1350938D01*
X654738Y1351017D01*
X654699D01*
X654385Y1351292D01*
X654109Y1351607D01*
X653638Y1352275D01*
X653323Y1352943D01*
X653127Y1353572D01*
X652970Y1354122D01*
X652930Y1354593D01*
X652891Y1354751D01*
Y1354868D01*
Y1354947D01*
Y1354986D01*
Y1355458D01*
X652970Y1355890D01*
X653048Y1356283D01*
X653127Y1356598D01*
X653206Y1356833D01*
X653284Y1357030D01*
X653323Y1357148D01*
X653363Y1357187D01*
X653756Y1357816D01*
X653952Y1358052D01*
X654149Y1358287D01*
X654306Y1358445D01*
X654463Y1358563D01*
X654542Y1358641D01*
X654581Y1358680D01*
X655170Y1359113D01*
X655681Y1359427D01*
X655917Y1359506D01*
X656074Y1359584D01*
X656192Y1359663D01*
X656232D01*
X656900Y1359938D01*
X657175Y1360056D01*
X657450Y1360174D01*
X657686Y1360292D01*
X657843Y1360331D01*
X657961Y1360410D01*
X658000D01*
X658393Y1360528D01*
X658707Y1360646D01*
X658943Y1360724D01*
X658983Y1360763D01*
X659022D01*
X659336Y1360960D01*
X659611Y1361117D01*
X659808Y1361235D01*
X659886Y1361274D01*
X660162Y1361471D01*
X660358Y1361707D01*
X660476Y1361864D01*
X660515Y1361903D01*
X660633Y1362217D01*
X660712Y1362532D01*
X660751Y1362768D01*
Y1362807D01*
Y1362846D01*
X660712Y1363121D01*
X660633Y1363397D01*
X660437Y1363790D01*
X660319Y1363947D01*
X660201Y1364065D01*
X660162Y1364104D01*
X660122Y1364143D01*
X659847Y1364340D01*
X659533Y1364458D01*
X658943Y1364615D01*
X658668Y1364654D01*
X658472Y1364693D01*
X658275D01*
X657568Y1364654D01*
X657293Y1364615D01*
X656978Y1364575D01*
X656782Y1364497D01*
X656585Y1364458D01*
X656467Y1364418D01*
X656428D01*
X655799Y1364182D01*
X655485Y1364065D01*
X655249Y1363947D01*
X655053Y1363829D01*
X654856Y1363750D01*
X654778Y1363711D01*
X654738Y1363672D01*
X653363Y1366737D01*
X654227Y1367169D01*
X654660Y1367326D01*
X655053Y1367484D01*
X655406Y1367602D01*
X655681Y1367680D01*
X655839Y1367719D01*
X655917D01*
X656978Y1367916D01*
X657450Y1367955D01*
X657882Y1367995D01*
X658275Y1368034D01*
X658825D01*
X659926Y1367955D01*
D02*
G37*
G36*
X630804Y1367444D02*
X631158Y1367562D01*
X631551Y1367641D01*
X631708D01*
X631826Y1367680D01*
X631944D01*
X632455Y1367759D01*
X632887Y1367798D01*
X633320D01*
X634066Y1367759D01*
X634735Y1367680D01*
X635363Y1367602D01*
X635874Y1367484D01*
X636346Y1367326D01*
X636660Y1367248D01*
X636857Y1367169D01*
X636935Y1367130D01*
X637486Y1366855D01*
X637996Y1366541D01*
X638429Y1366226D01*
X638822Y1365951D01*
X639097Y1365676D01*
X639333Y1365440D01*
X639490Y1365283D01*
X639529Y1365244D01*
X639883Y1364772D01*
X640236Y1364300D01*
X640472Y1363829D01*
X640708Y1363357D01*
X640865Y1362964D01*
X641023Y1362650D01*
X641062Y1362453D01*
X641101Y1362414D01*
Y1362375D01*
X641258Y1361746D01*
X641376Y1361078D01*
X641494Y1360449D01*
X641533Y1359860D01*
X641573Y1359388D01*
X641612Y1358995D01*
Y1358838D01*
Y1358720D01*
Y1358680D01*
Y1358641D01*
X641573Y1357855D01*
X641533Y1357109D01*
X641415Y1356401D01*
X641258Y1355772D01*
X641101Y1355183D01*
X640905Y1354633D01*
X640708Y1354122D01*
X640472Y1353650D01*
X640276Y1353257D01*
X640079Y1352903D01*
X639883Y1352628D01*
X639726Y1352353D01*
X639568Y1352157D01*
X639451Y1352039D01*
X639411Y1351960D01*
X639372Y1351921D01*
X638940Y1351489D01*
X638429Y1351135D01*
X637918Y1350821D01*
X637368Y1350545D01*
X636817Y1350310D01*
X636267Y1350113D01*
X635206Y1349838D01*
X634735Y1349720D01*
X634263Y1349641D01*
X633831Y1349602D01*
X633477Y1349563D01*
X633202Y1349524D01*
X632023D01*
X631315Y1349602D01*
X630687Y1349641D01*
X630097Y1349720D01*
X629665Y1349799D01*
X629311Y1349838D01*
X629075Y1349917D01*
X628997D01*
X628368Y1350074D01*
X627857Y1350192D01*
X627385Y1350349D01*
X626992Y1350467D01*
X626678Y1350585D01*
X626481Y1350703D01*
X626324Y1350742D01*
X626285Y1350781D01*
Y1375737D01*
X630804D01*
Y1367444D01*
D02*
G37*
G36*
X718345Y1344297D02*
X718699Y1344218D01*
X718974Y1344100D01*
X719249Y1343982D01*
X719485Y1343864D01*
X719642Y1343746D01*
X719721Y1343668D01*
X719760Y1343629D01*
X719996Y1343353D01*
X720192Y1343078D01*
X720310Y1342803D01*
X720428Y1342528D01*
X720467Y1342292D01*
X720507Y1342096D01*
Y1341978D01*
Y1341939D01*
X720467Y1341585D01*
X720389Y1341231D01*
X720271Y1340956D01*
X720114Y1340681D01*
X719996Y1340485D01*
X719878Y1340327D01*
X719799Y1340249D01*
X719760Y1340209D01*
X719485Y1339974D01*
X719170Y1339816D01*
X718856Y1339659D01*
X718581Y1339581D01*
X718345Y1339541D01*
X718109Y1339502D01*
X717952D01*
X717559Y1339541D01*
X717206Y1339620D01*
X716930Y1339738D01*
X716655Y1339856D01*
X716419Y1339974D01*
X716262Y1340092D01*
X716184Y1340170D01*
X716144Y1340209D01*
X715909Y1340485D01*
X715712Y1340799D01*
X715594Y1341074D01*
X715476Y1341349D01*
X715437Y1341585D01*
X715398Y1341782D01*
Y1341899D01*
Y1341939D01*
X715437Y1342292D01*
X715516Y1342646D01*
X715634Y1342921D01*
X715751Y1343157D01*
X715909Y1343353D01*
X716027Y1343511D01*
X716105Y1343589D01*
X716144Y1343629D01*
X716419Y1343864D01*
X716734Y1344022D01*
X717048Y1344179D01*
X717323Y1344257D01*
X717559Y1344297D01*
X717756Y1344336D01*
X717952D01*
X718345Y1344297D01*
D02*
G37*
G36*
X739017Y1318948D02*
X734576D01*
Y1332782D01*
X734144Y1332978D01*
X733751Y1333136D01*
X733594Y1333175D01*
X733476Y1333214D01*
X733397Y1333253D01*
X733358D01*
X732847Y1333371D01*
X732415Y1333411D01*
X732218Y1333450D01*
X731982D01*
X731432Y1333411D01*
X730961Y1333332D01*
X730567Y1333214D01*
X730214Y1333096D01*
X729978Y1332939D01*
X729782Y1332821D01*
X729664Y1332743D01*
X729624Y1332703D01*
X729349Y1332389D01*
X729113Y1332074D01*
X728956Y1331681D01*
X728878Y1331328D01*
X728799Y1331013D01*
X728760Y1330738D01*
Y1330581D01*
Y1330502D01*
Y1318948D01*
X724279D01*
Y1330974D01*
Y1331485D01*
X724358Y1331996D01*
X724555Y1332900D01*
X724830Y1333646D01*
X725144Y1334275D01*
X725458Y1334786D01*
X725734Y1335140D01*
X725930Y1335336D01*
X725969Y1335415D01*
X726009D01*
X726716Y1335926D01*
X727463Y1336319D01*
X728288Y1336594D01*
X729074Y1336751D01*
X729742Y1336869D01*
X730057Y1336908D01*
X730332D01*
X730528Y1336948D01*
X730843D01*
X731550Y1336908D01*
X731904Y1336869D01*
X732179Y1336830D01*
X732454Y1336790D01*
X732650Y1336751D01*
X732768Y1336712D01*
X732808D01*
X733515Y1336515D01*
X733790Y1336437D01*
X734065Y1336319D01*
X734262Y1336240D01*
X734419Y1336201D01*
X734537Y1336122D01*
X734576D01*
Y1344768D01*
X739017D01*
Y1318948D01*
D02*
G37*
G36*
X682897Y1336987D02*
X683525Y1336948D01*
X684076Y1336869D01*
X684547Y1336790D01*
X684901Y1336712D01*
X685137Y1336672D01*
X685176Y1336633D01*
X685215D01*
X685844Y1336476D01*
X686394Y1336319D01*
X686905Y1336201D01*
X687298Y1336044D01*
X687652Y1335926D01*
X687888Y1335847D01*
X688045Y1335808D01*
X688084Y1335769D01*
X686984Y1332743D01*
X686630Y1332900D01*
X686276Y1332978D01*
X686001Y1333057D01*
X685962Y1333096D01*
X685923D01*
X685451Y1333253D01*
X685058Y1333332D01*
X684901Y1333411D01*
X684783D01*
X684704Y1333450D01*
X684665D01*
X684154Y1333568D01*
X683761Y1333646D01*
X683565D01*
X683447Y1333686D01*
X683329D01*
X682818Y1333764D01*
X682386Y1333804D01*
X681993D01*
X681442Y1333764D01*
X680971Y1333725D01*
X680578Y1333607D01*
X680224Y1333528D01*
X679949Y1333411D01*
X679753Y1333293D01*
X679635Y1333253D01*
X679595Y1333214D01*
X679281Y1332978D01*
X679085Y1332664D01*
X678927Y1332350D01*
X678809Y1332035D01*
X678731Y1331721D01*
X678692Y1331485D01*
Y1331328D01*
Y1331249D01*
Y1330345D01*
X679438Y1330306D01*
X680146Y1330227D01*
X680814Y1330149D01*
X681403Y1330070D01*
X681875Y1330031D01*
X682268Y1329952D01*
X682504Y1329913D01*
X682582D01*
X683250Y1329795D01*
X683879Y1329638D01*
X684429Y1329481D01*
X684940Y1329323D01*
X685333Y1329206D01*
X685608Y1329088D01*
X685805Y1329009D01*
X685883Y1328970D01*
X686394Y1328734D01*
X686866Y1328419D01*
X687259Y1328144D01*
X687573Y1327869D01*
X687848Y1327594D01*
X688045Y1327398D01*
X688163Y1327241D01*
X688202Y1327201D01*
X688477Y1326730D01*
X688713Y1326258D01*
X688870Y1325786D01*
X688949Y1325315D01*
X689027Y1324882D01*
X689067Y1324568D01*
Y1324332D01*
Y1324293D01*
Y1324254D01*
X689027Y1323743D01*
X688988Y1323311D01*
X688752Y1322446D01*
X688438Y1321738D01*
X688084Y1321149D01*
X687731Y1320677D01*
X687416Y1320324D01*
X687180Y1320127D01*
X687141Y1320049D01*
X687102D01*
X686709Y1319774D01*
X686276Y1319538D01*
X685333Y1319184D01*
X684311Y1318909D01*
X683329Y1318752D01*
X682897Y1318673D01*
X682464Y1318634D01*
X682071Y1318594D01*
X681757D01*
X681482Y1318555D01*
X680342D01*
X679635Y1318634D01*
X679006Y1318673D01*
X678416Y1318752D01*
X677945Y1318830D01*
X677591Y1318870D01*
X677355Y1318948D01*
X677277D01*
X676609Y1319105D01*
X676058Y1319223D01*
X675587Y1319380D01*
X675154Y1319498D01*
X674840Y1319616D01*
X674644Y1319734D01*
X674486Y1319774D01*
X674447Y1319813D01*
Y1330738D01*
Y1331367D01*
X674526Y1331917D01*
X674604Y1332428D01*
X674722Y1332939D01*
X674879Y1333371D01*
X675037Y1333764D01*
X675194Y1334118D01*
X675351Y1334432D01*
X675548Y1334707D01*
X675705Y1334943D01*
X676019Y1335297D01*
X676216Y1335494D01*
X676255Y1335572D01*
X676294D01*
X677041Y1336083D01*
X677905Y1336437D01*
X678770Y1336712D01*
X679595Y1336869D01*
X680342Y1336987D01*
X680696Y1337026D01*
X680971D01*
X681207Y1337065D01*
X682229D01*
X682897Y1336987D01*
D02*
G37*
G36*
X634165D02*
X634793Y1336948D01*
X635344Y1336869D01*
X635815Y1336790D01*
X636169Y1336712D01*
X636405Y1336672D01*
X636444Y1336633D01*
X636483D01*
X637112Y1336476D01*
X637662Y1336319D01*
X638173Y1336201D01*
X638566Y1336044D01*
X638920Y1335926D01*
X639156Y1335847D01*
X639313Y1335808D01*
X639352Y1335769D01*
X638252Y1332743D01*
X637898Y1332900D01*
X637544Y1332978D01*
X637269Y1333057D01*
X637230Y1333096D01*
X637191D01*
X636719Y1333253D01*
X636326Y1333332D01*
X636169Y1333411D01*
X636051D01*
X635972Y1333450D01*
X635933D01*
X635422Y1333568D01*
X635029Y1333646D01*
X634833D01*
X634715Y1333686D01*
X634597D01*
X634086Y1333764D01*
X633654Y1333804D01*
X633261D01*
X632711Y1333764D01*
X632239Y1333725D01*
X631846Y1333607D01*
X631492Y1333528D01*
X631217Y1333411D01*
X631021Y1333293D01*
X630903Y1333253D01*
X630863Y1333214D01*
X630549Y1332978D01*
X630352Y1332664D01*
X630195Y1332350D01*
X630077Y1332035D01*
X629999Y1331721D01*
X629960Y1331485D01*
Y1331328D01*
Y1331249D01*
Y1330345D01*
X630706Y1330306D01*
X631414Y1330227D01*
X632082Y1330149D01*
X632671Y1330070D01*
X633143Y1330031D01*
X633536Y1329952D01*
X633772Y1329913D01*
X633850D01*
X634518Y1329795D01*
X635147Y1329638D01*
X635697Y1329481D01*
X636208Y1329323D01*
X636601Y1329206D01*
X636876Y1329088D01*
X637073Y1329009D01*
X637151Y1328970D01*
X637662Y1328734D01*
X638134Y1328419D01*
X638527Y1328144D01*
X638841Y1327869D01*
X639116Y1327594D01*
X639313Y1327398D01*
X639431Y1327241D01*
X639470Y1327201D01*
X639745Y1326730D01*
X639981Y1326258D01*
X640138Y1325786D01*
X640217Y1325315D01*
X640295Y1324882D01*
X640335Y1324568D01*
Y1324332D01*
Y1324293D01*
Y1324254D01*
X640295Y1323743D01*
X640256Y1323311D01*
X640020Y1322446D01*
X639706Y1321738D01*
X639352Y1321149D01*
X638999Y1320677D01*
X638684Y1320324D01*
X638448Y1320127D01*
X638409Y1320049D01*
X638370D01*
X637977Y1319774D01*
X637544Y1319538D01*
X636601Y1319184D01*
X635579Y1318909D01*
X634597Y1318752D01*
X634165Y1318673D01*
X633732Y1318634D01*
X633339Y1318594D01*
X633025D01*
X632750Y1318555D01*
X631610D01*
X630903Y1318634D01*
X630274Y1318673D01*
X629684Y1318752D01*
X629213Y1318830D01*
X628859Y1318870D01*
X628623Y1318948D01*
X628545D01*
X627877Y1319105D01*
X627326Y1319223D01*
X626855Y1319380D01*
X626423Y1319498D01*
X626108Y1319616D01*
X625912Y1319734D01*
X625754Y1319774D01*
X625715Y1319813D01*
Y1330738D01*
Y1331367D01*
X625794Y1331917D01*
X625872Y1332428D01*
X625990Y1332939D01*
X626147Y1333371D01*
X626305Y1333764D01*
X626462Y1334118D01*
X626619Y1334432D01*
X626816Y1334707D01*
X626973Y1334943D01*
X627287Y1335297D01*
X627484Y1335494D01*
X627523Y1335572D01*
X627562D01*
X628309Y1336083D01*
X629173Y1336437D01*
X630038Y1336712D01*
X630863Y1336869D01*
X631610Y1336987D01*
X631964Y1337026D01*
X632239D01*
X632475Y1337065D01*
X633496D01*
X634165Y1336987D01*
D02*
G37*
G36*
X749942Y1340602D02*
Y1336672D01*
X752222D01*
Y1333293D01*
X749942D01*
Y1324254D01*
X749903Y1323271D01*
X749746Y1322446D01*
X749549Y1321699D01*
X749314Y1321110D01*
X749117Y1320677D01*
X748921Y1320363D01*
X748763Y1320167D01*
X748724Y1320088D01*
X748213Y1319616D01*
X747624Y1319302D01*
X746995Y1319066D01*
X746366Y1318870D01*
X745777Y1318791D01*
X745344Y1318752D01*
X745148Y1318712D01*
X744912D01*
X744322Y1318752D01*
X743851Y1318791D01*
X743654D01*
X743497Y1318830D01*
X743379D01*
X742868Y1318948D01*
X742515Y1319027D01*
X742318Y1319105D01*
X742240Y1319145D01*
Y1322878D01*
X742397Y1322800D01*
X742593Y1322721D01*
X742711Y1322682D01*
X742790D01*
X743065Y1322642D01*
X743261Y1322603D01*
X743497D01*
X743812Y1322642D01*
X744087Y1322682D01*
X744322Y1322760D01*
X744558Y1322839D01*
X744716Y1322918D01*
X744833Y1322957D01*
X744912Y1323035D01*
X744951D01*
X745148Y1323232D01*
X745305Y1323468D01*
X745384Y1323704D01*
X745462Y1323979D01*
X745501Y1324214D01*
X745541Y1324372D01*
Y1324529D01*
Y1324568D01*
Y1333293D01*
X742240D01*
Y1336672D01*
X745541D01*
Y1341899D01*
X749942Y1340602D01*
D02*
G37*
G36*
X651260Y1337026D02*
X651889Y1336948D01*
X652478Y1336830D01*
X652989Y1336712D01*
X653422Y1336594D01*
X653736Y1336476D01*
X653933Y1336397D01*
X654011Y1336358D01*
X654561Y1336083D01*
X655072Y1335769D01*
X655505Y1335454D01*
X655898Y1335179D01*
X656173Y1334904D01*
X656408Y1334668D01*
X656566Y1334511D01*
X656605Y1334472D01*
X656959Y1334000D01*
X657312Y1333489D01*
X657587Y1333018D01*
X657823Y1332546D01*
X657980Y1332153D01*
X658098Y1331799D01*
X658177Y1331603D01*
X658216Y1331563D01*
Y1331524D01*
X658413Y1330895D01*
X658531Y1330227D01*
X658649Y1329599D01*
X658688Y1329009D01*
X658727Y1328537D01*
X658766Y1328144D01*
Y1327987D01*
Y1327869D01*
Y1327830D01*
Y1327791D01*
X658727Y1327044D01*
X658688Y1326376D01*
X658609Y1325747D01*
X658491Y1325158D01*
X658373Y1324725D01*
X658295Y1324372D01*
X658255Y1324136D01*
X658216Y1324097D01*
Y1324057D01*
X657980Y1323428D01*
X657705Y1322878D01*
X657391Y1322367D01*
X657116Y1321935D01*
X656880Y1321581D01*
X656683Y1321345D01*
X656526Y1321149D01*
X656487Y1321110D01*
X656055Y1320677D01*
X655583Y1320284D01*
X655111Y1319970D01*
X654679Y1319695D01*
X654286Y1319498D01*
X653972Y1319341D01*
X653775Y1319263D01*
X653697Y1319223D01*
X653068Y1318987D01*
X652400Y1318830D01*
X651771Y1318712D01*
X651142Y1318634D01*
X650631Y1318594D01*
X650199Y1318555D01*
X649138D01*
X648431Y1318594D01*
X647802Y1318673D01*
X647251Y1318752D01*
X646819Y1318791D01*
X646466Y1318870D01*
X646230Y1318909D01*
X646151D01*
X645522Y1319066D01*
X644972Y1319184D01*
X644500Y1319341D01*
X644068Y1319498D01*
X643715Y1319616D01*
X643479Y1319734D01*
X643322Y1319774D01*
X643282Y1319813D01*
X644579Y1323153D01*
X645326Y1322839D01*
X645719Y1322682D01*
X646072Y1322603D01*
X646387Y1322485D01*
X646623Y1322407D01*
X646780Y1322367D01*
X646859D01*
X647802Y1322171D01*
X648273Y1322131D01*
X648666Y1322092D01*
X648981Y1322053D01*
X649492D01*
X650199Y1322092D01*
X650867Y1322210D01*
X651417Y1322367D01*
X651889Y1322524D01*
X652282Y1322682D01*
X652557Y1322839D01*
X652714Y1322957D01*
X652793Y1322996D01*
X653225Y1323389D01*
X653579Y1323861D01*
X653854Y1324372D01*
X654090Y1324843D01*
X654247Y1325275D01*
X654326Y1325629D01*
X654404Y1325865D01*
Y1325904D01*
Y1325944D01*
X643007Y1327476D01*
X642968Y1327751D01*
X642928Y1327987D01*
Y1328144D01*
Y1328223D01*
Y1329009D01*
X642968Y1329677D01*
X643007Y1330267D01*
X643086Y1330856D01*
X643164Y1331328D01*
X643282Y1331721D01*
X643361Y1332035D01*
X643400Y1332192D01*
X643439Y1332271D01*
X643636Y1332821D01*
X643872Y1333293D01*
X644147Y1333725D01*
X644383Y1334118D01*
X644579Y1334393D01*
X644776Y1334629D01*
X644894Y1334786D01*
X644933Y1334825D01*
X645287Y1335218D01*
X645679Y1335533D01*
X646072Y1335808D01*
X646466Y1336044D01*
X646780Y1336240D01*
X647055Y1336358D01*
X647212Y1336437D01*
X647291Y1336476D01*
X647841Y1336672D01*
X648391Y1336830D01*
X648941Y1336908D01*
X649452Y1336987D01*
X649885Y1337026D01*
X650238Y1337065D01*
X650553D01*
X651260Y1337026D01*
D02*
G37*
G36*
X720192Y1318948D02*
X715712D01*
Y1336672D01*
X720192D01*
Y1318948D01*
D02*
G37*
G36*
X664779Y1336987D02*
X665447Y1336948D01*
X666037Y1336869D01*
X666548Y1336790D01*
X666941Y1336751D01*
X667177Y1336672D01*
X667255D01*
X667923Y1336515D01*
X668513Y1336397D01*
X669063Y1336240D01*
X669535Y1336083D01*
X669888Y1335965D01*
X670203Y1335847D01*
X670360Y1335808D01*
X670438Y1335769D01*
Y1318948D01*
X665998D01*
Y1333057D01*
X665644Y1333175D01*
X665330Y1333253D01*
X665054Y1333332D01*
X664976D01*
X664543Y1333411D01*
X664150Y1333450D01*
X663325D01*
X662971Y1333411D01*
X662618Y1333371D01*
X662343Y1333332D01*
X662068Y1333253D01*
X661910Y1333214D01*
X661793Y1333175D01*
X661753D01*
X660928Y1336908D01*
X661282Y1336948D01*
X661596D01*
X661832Y1336987D01*
X661950D01*
X662382Y1337026D01*
X662814Y1337065D01*
X663993D01*
X664779Y1336987D01*
D02*
G37*
G36*
X706752D02*
X707734Y1336830D01*
X708559Y1336594D01*
X709228Y1336358D01*
X709778Y1336083D01*
X710171Y1335847D01*
X710407Y1335690D01*
X710446Y1335611D01*
X710485D01*
X710800Y1335336D01*
X711035Y1335061D01*
X711468Y1334432D01*
X711743Y1333804D01*
X711979Y1333214D01*
X712096Y1332664D01*
X712136Y1332232D01*
X712175Y1332074D01*
Y1331957D01*
Y1331878D01*
Y1331839D01*
X712136Y1331367D01*
X712096Y1330935D01*
X712018Y1330542D01*
X711939Y1330227D01*
X711861Y1329952D01*
X711782Y1329756D01*
X711703Y1329638D01*
Y1329599D01*
X711311Y1329009D01*
X711114Y1328773D01*
X710918Y1328537D01*
X710760Y1328380D01*
X710603Y1328262D01*
X710524Y1328184D01*
X710485Y1328144D01*
X709935Y1327751D01*
X709385Y1327437D01*
X709188Y1327319D01*
X709031Y1327241D01*
X708913Y1327162D01*
X708874D01*
X708206Y1326887D01*
X707931Y1326769D01*
X707656Y1326651D01*
X707420Y1326572D01*
X707263Y1326494D01*
X707145Y1326455D01*
X707105D01*
X706673Y1326297D01*
X706280Y1326140D01*
X705966Y1325983D01*
X705691Y1325826D01*
X705455Y1325708D01*
X705298Y1325590D01*
X705180Y1325551D01*
X705140Y1325511D01*
X704865Y1325315D01*
X704669Y1325079D01*
X704551Y1324804D01*
X704433Y1324568D01*
X704394Y1324372D01*
X704354Y1324175D01*
Y1324057D01*
Y1324018D01*
X704394Y1323704D01*
X704472Y1323428D01*
X704590Y1323193D01*
X704708Y1322996D01*
X704865Y1322839D01*
X704983Y1322721D01*
X705062Y1322642D01*
X705101Y1322603D01*
X705376Y1322446D01*
X705691Y1322328D01*
X706319Y1322171D01*
X706595Y1322131D01*
X706830Y1322092D01*
X707027D01*
X707774Y1322131D01*
X708127Y1322210D01*
X708442Y1322249D01*
X708717Y1322328D01*
X708952Y1322367D01*
X709110Y1322407D01*
X709149D01*
X709935Y1322682D01*
X710289Y1322839D01*
X710603Y1322957D01*
X710839Y1323075D01*
X711035Y1323153D01*
X711153Y1323193D01*
X711193Y1323232D01*
X712647Y1319813D01*
X711664Y1319420D01*
X711232Y1319223D01*
X710800Y1319105D01*
X710446Y1318987D01*
X710171Y1318948D01*
X710014Y1318870D01*
X709935D01*
X708835Y1318673D01*
X708324Y1318634D01*
X707891Y1318594D01*
X707498Y1318555D01*
X706241D01*
X705651Y1318634D01*
X705101Y1318712D01*
X704551Y1318791D01*
X704079Y1318909D01*
X703647Y1319027D01*
X703215Y1319145D01*
X702861Y1319302D01*
X702547Y1319459D01*
X702271Y1319577D01*
X702036Y1319695D01*
X701879Y1319813D01*
X701721Y1319931D01*
X701603Y1319970D01*
X701564Y1320049D01*
X701525D01*
X701210Y1320324D01*
X700935Y1320638D01*
X700464Y1321306D01*
X700149Y1321974D01*
X699953Y1322603D01*
X699796Y1323153D01*
X699756Y1323625D01*
X699717Y1323782D01*
Y1323900D01*
Y1323979D01*
Y1324018D01*
Y1324489D01*
X699796Y1324922D01*
X699874Y1325315D01*
X699953Y1325629D01*
X700031Y1325865D01*
X700110Y1326062D01*
X700149Y1326179D01*
X700189Y1326219D01*
X700582Y1326848D01*
X700778Y1327083D01*
X700975Y1327319D01*
X701132Y1327476D01*
X701289Y1327594D01*
X701368Y1327673D01*
X701407Y1327712D01*
X701996Y1328144D01*
X702507Y1328459D01*
X702743Y1328537D01*
X702900Y1328616D01*
X703018Y1328695D01*
X703058D01*
X703726Y1328970D01*
X704001Y1329088D01*
X704276Y1329206D01*
X704512Y1329323D01*
X704669Y1329363D01*
X704787Y1329441D01*
X704826D01*
X705219Y1329559D01*
X705533Y1329677D01*
X705769Y1329756D01*
X705808Y1329795D01*
X705848D01*
X706162Y1329992D01*
X706437Y1330149D01*
X706634Y1330267D01*
X706712Y1330306D01*
X706987Y1330502D01*
X707184Y1330738D01*
X707302Y1330895D01*
X707341Y1330935D01*
X707459Y1331249D01*
X707538Y1331563D01*
X707577Y1331799D01*
Y1331839D01*
Y1331878D01*
X707538Y1332153D01*
X707459Y1332428D01*
X707263Y1332821D01*
X707145Y1332978D01*
X707027Y1333096D01*
X706987Y1333136D01*
X706948Y1333175D01*
X706673Y1333371D01*
X706359Y1333489D01*
X705769Y1333646D01*
X705494Y1333686D01*
X705298Y1333725D01*
X705101D01*
X704394Y1333686D01*
X704119Y1333646D01*
X703804Y1333607D01*
X703608Y1333528D01*
X703411Y1333489D01*
X703293Y1333450D01*
X703254D01*
X702625Y1333214D01*
X702311Y1333096D01*
X702075Y1332978D01*
X701879Y1332860D01*
X701682Y1332782D01*
X701603Y1332743D01*
X701564Y1332703D01*
X700189Y1335769D01*
X701053Y1336201D01*
X701486Y1336358D01*
X701879Y1336515D01*
X702232Y1336633D01*
X702507Y1336712D01*
X702664Y1336751D01*
X702743D01*
X703804Y1336948D01*
X704276Y1336987D01*
X704708Y1337026D01*
X705101Y1337065D01*
X705651D01*
X706752Y1336987D01*
D02*
G37*
G36*
X190284Y751681D02*
X191760Y751582D01*
X193138Y751287D01*
X194319Y750992D01*
X195204Y750795D01*
X195991Y750500D01*
X196385Y750402D01*
X196582Y750303D01*
X197763Y749614D01*
X198845Y748926D01*
X199829Y748237D01*
X200715Y747548D01*
X201403Y746958D01*
X201895Y746466D01*
X202191Y746072D01*
X202289Y745974D01*
X203076Y744891D01*
X203863Y743809D01*
X204454Y742726D01*
X204946Y741742D01*
X205339Y740857D01*
X205635Y740168D01*
X205733Y739774D01*
X205831Y739578D01*
X206225Y738200D01*
X206520Y736724D01*
X206717Y735346D01*
X206815Y734166D01*
X206914Y733083D01*
X207012Y732198D01*
Y731509D01*
X206914Y729934D01*
X206815Y728360D01*
X206619Y726982D01*
X206422Y725802D01*
X206225Y724818D01*
X206028Y724030D01*
X205831Y723637D01*
Y723440D01*
X205339Y722062D01*
X204749Y720882D01*
X204159Y719799D01*
X203568Y718815D01*
X203076Y718126D01*
X202683Y717536D01*
X202387Y717142D01*
X202289Y717044D01*
X201403Y716060D01*
X200419Y715174D01*
X199435Y714486D01*
X198550Y713797D01*
X197763Y713403D01*
X197172Y713010D01*
X196680Y712813D01*
X196582Y712714D01*
X195204Y712222D01*
X193925Y711829D01*
X192547Y711534D01*
X191268Y711337D01*
X190186Y711238D01*
X189399Y711140D01*
X188808D01*
X188611D01*
X146693D01*
Y722751D01*
X188710D01*
X190087Y722850D01*
X191367Y723145D01*
X192351Y723538D01*
X193236Y724030D01*
X194023Y724522D01*
X194515Y724916D01*
X194811Y725211D01*
X194909Y725310D01*
X195696Y726294D01*
X196188Y727278D01*
X196582Y728360D01*
X196877Y729344D01*
X197074Y730230D01*
X197172Y730918D01*
Y731509D01*
X197074Y732788D01*
X196779Y733969D01*
X196483Y735051D01*
X195991Y735937D01*
X195598Y736724D01*
X195303Y737216D01*
X195007Y737610D01*
X194909Y737708D01*
X194023Y738495D01*
X192941Y739086D01*
X191957Y739578D01*
X190973Y739873D01*
X190087Y740070D01*
X189399Y740168D01*
X188907D01*
X188710D01*
X146693D01*
Y751779D01*
X188611D01*
X190284Y751681D01*
D02*
G37*
G36*
X205143Y700021D02*
X205536Y698742D01*
X205831Y697659D01*
X206127Y696675D01*
X206323Y695986D01*
X206422Y695494D01*
Y695298D01*
X206914Y692346D01*
X207012Y690968D01*
X207111Y689787D01*
X207209Y688705D01*
Y687229D01*
X207111Y685458D01*
X207012Y683883D01*
X206815Y682407D01*
X206520Y681128D01*
X206323Y680144D01*
X206127Y679357D01*
X206028Y678865D01*
X205930Y678668D01*
X205438Y677290D01*
X204847Y676011D01*
X204159Y674929D01*
X203568Y674043D01*
X203076Y673256D01*
X202584Y672764D01*
X202289Y672370D01*
X202191Y672272D01*
X201207Y671288D01*
X200223Y670501D01*
X199337Y669812D01*
X198451Y669222D01*
X197664Y668828D01*
X197074Y668533D01*
X196582Y668336D01*
X196483Y668238D01*
X195204Y667746D01*
X193925Y667450D01*
X192646Y667155D01*
X191465Y667057D01*
X190481Y666958D01*
X189694Y666860D01*
X189202D01*
X189005D01*
X187431Y666958D01*
X185955Y667155D01*
X184675Y667450D01*
X183691Y667746D01*
X182806Y668041D01*
X182117Y668336D01*
X181723Y668533D01*
X181625Y668631D01*
X180543Y669320D01*
X179559Y670009D01*
X178771Y670698D01*
X177984Y671386D01*
X177394Y672075D01*
X177000Y672469D01*
X176705Y672862D01*
X176607Y672961D01*
X175131Y674929D01*
X174540Y675814D01*
X173950Y676700D01*
X173556Y677487D01*
X173261Y678078D01*
X173064Y678471D01*
X172966Y678570D01*
X171883Y680734D01*
X171391Y681718D01*
X170899Y682604D01*
X170604Y683293D01*
X170309Y683785D01*
X170112Y684178D01*
X170014Y684277D01*
X168931Y686048D01*
X168341Y686737D01*
X167849Y687426D01*
X167455Y687918D01*
X167160Y688311D01*
X166963Y688508D01*
X166865Y688606D01*
X166176Y689197D01*
X165487Y689590D01*
X164799Y689886D01*
X164110Y690082D01*
X163519Y690181D01*
X163027Y690279D01*
X162732D01*
X162634D01*
X161551Y690181D01*
X160469Y689984D01*
X159682Y689590D01*
X158895Y689197D01*
X158403Y688803D01*
X157911Y688410D01*
X157714Y688213D01*
X157615Y688114D01*
X156927Y687229D01*
X156435Y686245D01*
X156139Y685162D01*
X155844Y684178D01*
X155746Y683391D01*
X155647Y682604D01*
Y682014D01*
X155746Y680046D01*
X155844Y679160D01*
X155943Y678373D01*
X156139Y677684D01*
X156238Y677192D01*
X156336Y676897D01*
Y676798D01*
X156927Y675027D01*
X157222Y674240D01*
X157517Y673650D01*
X157812Y673059D01*
X158009Y672666D01*
X158107Y672370D01*
X158206Y672272D01*
X148858Y668631D01*
X147775Y670796D01*
X147382Y671878D01*
X147087Y672862D01*
X146791Y673650D01*
X146595Y674338D01*
X146496Y674732D01*
Y674929D01*
X146004Y677586D01*
X145807Y678865D01*
X145709Y680046D01*
X145611Y681030D01*
Y682506D01*
X145709Y684080D01*
X145807Y685654D01*
X146004Y687032D01*
X146201Y688213D01*
X146496Y689197D01*
X146693Y689886D01*
X146791Y690378D01*
X146890Y690574D01*
X147382Y691854D01*
X147972Y693034D01*
X148563Y694018D01*
X149153Y694904D01*
X149743Y695691D01*
X150137Y696183D01*
X150432Y696577D01*
X150531Y696675D01*
X151416Y697561D01*
X152302Y698348D01*
X153286Y698938D01*
X154171Y699529D01*
X154860Y699922D01*
X155451Y700218D01*
X155943Y700414D01*
X156041Y700513D01*
X157320Y701005D01*
X158501Y701300D01*
X159780Y701595D01*
X160863Y701694D01*
X161847Y701792D01*
X162634Y701890D01*
X163126D01*
X163323D01*
X164897Y701792D01*
X166373Y701595D01*
X167652Y701398D01*
X168735Y701005D01*
X169620Y700710D01*
X170211Y700513D01*
X170703Y700316D01*
X170801Y700218D01*
X171883Y699529D01*
X172867Y698742D01*
X173655Y698053D01*
X174442Y697364D01*
X175032Y696774D01*
X175426Y696282D01*
X175721Y695986D01*
X175819Y695888D01*
X177197Y693920D01*
X177886Y693034D01*
X178378Y692149D01*
X178771Y691460D01*
X179067Y690870D01*
X179263Y690476D01*
X179362Y690378D01*
X180346Y688213D01*
X180838Y687229D01*
X181330Y686442D01*
X181625Y685753D01*
X181920Y685261D01*
X182117Y684867D01*
X182215Y684769D01*
X182707Y683883D01*
X183298Y682998D01*
X183790Y682309D01*
X184282Y681718D01*
X184774Y681226D01*
X185069Y680833D01*
X185266Y680636D01*
X185364Y680538D01*
X186053Y679947D01*
X186742Y679554D01*
X187431Y679160D01*
X188119Y678963D01*
X188710Y678865D01*
X189202Y678766D01*
X189497D01*
X189595D01*
X190776Y678865D01*
X191760Y679160D01*
X192646Y679554D01*
X193433Y679947D01*
X194023Y680439D01*
X194417Y680833D01*
X194712Y681128D01*
X194811Y681226D01*
X195499Y682210D01*
X195991Y683293D01*
X196287Y684375D01*
X196483Y685359D01*
X196680Y686343D01*
X196779Y687130D01*
Y687819D01*
X196680Y689886D01*
X196483Y690870D01*
X196385Y691755D01*
X196188Y692444D01*
X196090Y693034D01*
X195991Y693428D01*
Y693526D01*
X195303Y695494D01*
X195007Y696380D01*
X194712Y697167D01*
X194417Y697856D01*
X194220Y698348D01*
X194023Y698643D01*
Y698742D01*
X204060Y702579D01*
X205143Y700021D01*
D02*
G37*
G36*
X204552Y656626D02*
X204946Y655249D01*
X205339Y653970D01*
X205733Y652690D01*
X205930Y651510D01*
X206127Y650624D01*
X206323Y650034D01*
Y649837D01*
X206619Y647967D01*
X206815Y646098D01*
X207012Y644425D01*
X207111Y642850D01*
Y641571D01*
X207209Y640587D01*
Y639702D01*
X207111Y637537D01*
X207012Y635569D01*
X206815Y633699D01*
X206520Y632026D01*
X206127Y630452D01*
X205733Y628976D01*
X205339Y627697D01*
X204946Y626516D01*
X204552Y625434D01*
X204159Y624548D01*
X203765Y623859D01*
X203371Y623170D01*
X203076Y622678D01*
X202879Y622383D01*
X202683Y622186D01*
Y622088D01*
X201797Y621006D01*
X200813Y620120D01*
X199829Y619333D01*
X198845Y618644D01*
X197763Y618054D01*
X196680Y617562D01*
X194712Y616873D01*
X192843Y616381D01*
X192055Y616282D01*
X191367Y616184D01*
X190875Y616086D01*
X190481D01*
X190186D01*
X190087D01*
X188907D01*
X187824Y616282D01*
X186840Y616381D01*
X186053Y616578D01*
X185364Y616774D01*
X184774Y616971D01*
X184479Y617070D01*
X184380Y617168D01*
X182707Y617955D01*
X181920Y618447D01*
X181330Y618841D01*
X180838Y619234D01*
X180444Y619530D01*
X180247Y619726D01*
X180149Y619825D01*
X178870Y621006D01*
X177886Y622088D01*
X177591Y622580D01*
X177295Y622974D01*
X177197Y623170D01*
X177099Y623269D01*
X176311Y624646D01*
X175721Y625827D01*
X175524Y626319D01*
X175426Y626713D01*
X175327Y626910D01*
Y627008D01*
X175131D01*
X174639Y625630D01*
X174147Y624548D01*
X173950Y624154D01*
X173753Y623859D01*
X173556Y623662D01*
Y623564D01*
X172572Y622383D01*
X171588Y621498D01*
X171195Y621104D01*
X170899Y620809D01*
X170703Y620710D01*
X170604Y620612D01*
X169227Y619726D01*
X167947Y619038D01*
X167455Y618742D01*
X167062Y618546D01*
X166767Y618447D01*
X166668D01*
X164995Y617955D01*
X164208Y617857D01*
X163519Y617758D01*
X162831Y617660D01*
X162339D01*
X162043D01*
X161945D01*
X160666Y617758D01*
X159387Y617857D01*
X158304Y618054D01*
X157320Y618349D01*
X156533Y618644D01*
X155943Y618841D01*
X155549Y618939D01*
X155451Y619038D01*
X154368Y619628D01*
X153384Y620218D01*
X152499Y620907D01*
X151711Y621596D01*
X151121Y622186D01*
X150727Y622678D01*
X150432Y623072D01*
X150334Y623170D01*
X149547Y624253D01*
X148858Y625335D01*
X148267Y626516D01*
X147775Y627598D01*
X147382Y628582D01*
X147087Y629370D01*
X146988Y629862D01*
X146890Y629960D01*
Y630058D01*
X146496Y631633D01*
X146103Y633306D01*
X145906Y634978D01*
X145807Y636553D01*
X145709Y637832D01*
X145611Y638914D01*
Y641866D01*
X145807Y643638D01*
X145906Y645310D01*
X146103Y646786D01*
X146299Y648066D01*
X146398Y649050D01*
X146595Y649640D01*
Y649837D01*
X146988Y651510D01*
X147283Y652986D01*
X147677Y654363D01*
X148071Y655544D01*
X148366Y656528D01*
X148661Y657217D01*
X148759Y657610D01*
X148858Y657807D01*
X204060D01*
X204552Y656626D01*
D02*
G37*
G36*
X206225Y575053D02*
X146693D01*
Y586664D01*
X206225D01*
Y575053D01*
D02*
G37*
G36*
Y554192D02*
X171687D01*
X170703D01*
X169719D01*
X168931D01*
X168243D01*
X167751Y554290D01*
X167259D01*
X167062D01*
X166963D01*
X165684D01*
X164700D01*
X164405Y554389D01*
X164110D01*
X164011D01*
X163913D01*
Y554192D01*
X164208Y554094D01*
X164602Y553897D01*
X165487Y553503D01*
X165881Y553306D01*
X166275Y553110D01*
X166471Y553011D01*
X166570D01*
X168046Y552224D01*
X169423Y551535D01*
X170014Y551142D01*
X170506Y550846D01*
X170801Y550748D01*
X170899Y550650D01*
X206225Y529297D01*
Y519752D01*
X146693D01*
Y529690D01*
X180051D01*
X181133D01*
X182117D01*
X183003D01*
X183691D01*
X184282D01*
X184774D01*
X185069D01*
X185167D01*
X185856D01*
X186545Y529592D01*
X187037D01*
X187431D01*
X187923D01*
X188119D01*
Y529690D01*
X187135Y530084D01*
X186151Y530576D01*
X185758Y530871D01*
X185364Y530970D01*
X185167Y531166D01*
X185069D01*
X183691Y531855D01*
X182314Y532544D01*
X181822Y532839D01*
X181428Y533036D01*
X181133Y533134D01*
X181035Y533233D01*
X146693Y554094D01*
Y564032D01*
X206225D01*
Y554192D01*
D02*
G37*
%LPC*%
G36*
X1033634Y675629D02*
X1031371D01*
X1030289Y675432D01*
X1029304Y675235D01*
X1028517Y675038D01*
X1027829Y674841D01*
X1027336Y674645D01*
X1026943Y674546D01*
X1026844Y674448D01*
X1025861Y673956D01*
X1024975Y673365D01*
X1024286Y672775D01*
X1023597Y672185D01*
X1023007Y671594D01*
X1022613Y671102D01*
X1022417Y670807D01*
X1022318Y670709D01*
X1021629Y669725D01*
X1021039Y668642D01*
X1020547Y667461D01*
X1020153Y666477D01*
X1019858Y665493D01*
X1019661Y664805D01*
X1019465Y664313D01*
Y664116D01*
X1019071Y662541D01*
X1018874Y660967D01*
X1018677Y659393D01*
X1018481Y657917D01*
Y656637D01*
X1018382Y655555D01*
Y655161D01*
Y654965D01*
Y654768D01*
Y654669D01*
Y652603D01*
X1018579Y650832D01*
X1018677Y649159D01*
X1018874Y647781D01*
X1019071Y646601D01*
X1019268Y645715D01*
X1019366Y645223D01*
X1019465Y645026D01*
X1019858Y643649D01*
X1020350Y642369D01*
X1020842Y641287D01*
X1021236Y640303D01*
X1021629Y639516D01*
X1022023Y639024D01*
X1022220Y638630D01*
X1022318Y638532D01*
X1023007Y637646D01*
X1023794Y636859D01*
X1024581Y636269D01*
X1025270Y635678D01*
X1025861Y635285D01*
X1026352Y634989D01*
X1026746Y634891D01*
X1026844Y634793D01*
X1027829Y634399D01*
X1028812Y634104D01*
X1029698Y633907D01*
X1030584Y633809D01*
X1031371Y633710D01*
X1031961Y633612D01*
X1033733D01*
X1034815Y633710D01*
X1035799Y633907D01*
X1036488Y634005D01*
X1037078Y634202D01*
X1037570Y634301D01*
X1037767Y634399D01*
X1037865D01*
Y674841D01*
X1037078Y675137D01*
X1036193Y675333D01*
X1034421Y675530D01*
X1033634Y675629D01*
D02*
G37*
G36*
X285789Y1185920D02*
X285593D01*
Y1185625D01*
Y1185330D01*
Y1184346D01*
X285691Y1183952D01*
Y1183559D01*
Y1183263D01*
Y1183165D01*
X285789Y1181492D01*
Y1180607D01*
Y1179819D01*
Y1179131D01*
Y1178639D01*
Y1178245D01*
Y1178147D01*
Y1158959D01*
X303108D01*
X289627Y1179131D01*
X289233Y1179721D01*
X288840Y1180311D01*
X288643Y1180705D01*
X288545Y1180902D01*
X288151Y1181689D01*
X287757Y1182378D01*
X287462Y1182771D01*
X287364Y1182968D01*
X286970Y1183657D01*
X286675Y1184247D01*
X286478Y1184641D01*
X286380Y1184739D01*
X286085Y1185231D01*
X285888Y1185625D01*
X285789Y1185822D01*
Y1185920D01*
D02*
G37*
G36*
Y1579621D02*
X285593D01*
Y1579326D01*
Y1579031D01*
Y1578047D01*
X285691Y1577653D01*
Y1577259D01*
Y1576964D01*
Y1576866D01*
X285789Y1575193D01*
Y1574307D01*
Y1573520D01*
Y1572831D01*
Y1572339D01*
Y1571946D01*
Y1571847D01*
Y1552659D01*
X303108D01*
X289627Y1572831D01*
X289233Y1573422D01*
X288840Y1574012D01*
X288643Y1574406D01*
X288545Y1574603D01*
X288151Y1575390D01*
X287757Y1576079D01*
X287462Y1576472D01*
X287364Y1576669D01*
X286970Y1577358D01*
X286675Y1577948D01*
X286478Y1578342D01*
X286380Y1578440D01*
X286085Y1578932D01*
X285888Y1579326D01*
X285789Y1579523D01*
Y1579621D01*
D02*
G37*
G36*
X243477Y1381195D02*
X241214D01*
X240132Y1380999D01*
X239148Y1380802D01*
X238361Y1380605D01*
X237672Y1380408D01*
X237180Y1380211D01*
X236786Y1380113D01*
X236688Y1380015D01*
X235704Y1379523D01*
X234818Y1378932D01*
X234130Y1378342D01*
X233441Y1377751D01*
X232850Y1377161D01*
X232457Y1376669D01*
X232260Y1376374D01*
X232161Y1376275D01*
X231473Y1375291D01*
X230882Y1374209D01*
X230390Y1373028D01*
X229997Y1372044D01*
X229702Y1371060D01*
X229505Y1370371D01*
X229308Y1369879D01*
Y1369683D01*
X228914Y1368108D01*
X228718Y1366534D01*
X228521Y1364959D01*
X228324Y1363483D01*
Y1362204D01*
X228226Y1361122D01*
Y1360728D01*
Y1360531D01*
Y1360335D01*
Y1360236D01*
Y1358170D01*
X228422Y1356399D01*
X228521Y1354726D01*
X228718Y1353348D01*
X228914Y1352167D01*
X229111Y1351282D01*
X229209Y1350790D01*
X229308Y1350593D01*
X229702Y1349215D01*
X230194Y1347936D01*
X230685Y1346854D01*
X231079Y1345870D01*
X231473Y1345083D01*
X231866Y1344591D01*
X232063Y1344197D01*
X232161Y1344099D01*
X232850Y1343213D01*
X233637Y1342426D01*
X234425Y1341835D01*
X235113Y1341245D01*
X235704Y1340851D01*
X236196Y1340556D01*
X236589Y1340458D01*
X236688Y1340359D01*
X237672Y1339966D01*
X238656Y1339671D01*
X239542Y1339474D01*
X240427Y1339375D01*
X241214Y1339277D01*
X241805Y1339179D01*
X243576D01*
X244658Y1339277D01*
X245642Y1339474D01*
X246331Y1339572D01*
X246922Y1339769D01*
X247413Y1339867D01*
X247610Y1339966D01*
X247709D01*
Y1380408D01*
X246922Y1380703D01*
X246036Y1380900D01*
X244265Y1381097D01*
X243477Y1381195D01*
D02*
G37*
G36*
Y987495D02*
X241214D01*
X240132Y987298D01*
X239148Y987101D01*
X238361Y986904D01*
X237672Y986707D01*
X237180Y986511D01*
X236786Y986412D01*
X236688Y986314D01*
X235704Y985822D01*
X234818Y985231D01*
X234130Y984641D01*
X233441Y984051D01*
X232850Y983460D01*
X232457Y982968D01*
X232260Y982673D01*
X232161Y982575D01*
X231473Y981591D01*
X230882Y980508D01*
X230390Y979327D01*
X229997Y978343D01*
X229702Y977359D01*
X229505Y976671D01*
X229308Y976179D01*
Y975982D01*
X228914Y974407D01*
X228718Y972833D01*
X228521Y971259D01*
X228324Y969783D01*
Y968503D01*
X228226Y967421D01*
Y967027D01*
Y966831D01*
Y966634D01*
Y966535D01*
Y964469D01*
X228422Y962698D01*
X228521Y961025D01*
X228718Y959647D01*
X228914Y958467D01*
X229111Y957581D01*
X229209Y957089D01*
X229308Y956892D01*
X229702Y955515D01*
X230194Y954235D01*
X230685Y953153D01*
X231079Y952169D01*
X231473Y951382D01*
X231866Y950890D01*
X232063Y950496D01*
X232161Y950398D01*
X232850Y949512D01*
X233637Y948725D01*
X234425Y948135D01*
X235113Y947544D01*
X235704Y947151D01*
X236196Y946855D01*
X236589Y946757D01*
X236688Y946659D01*
X237672Y946265D01*
X238656Y945970D01*
X239542Y945773D01*
X240427Y945675D01*
X241214Y945576D01*
X241805Y945478D01*
X243576D01*
X244658Y945576D01*
X245642Y945773D01*
X246331Y945871D01*
X246922Y946068D01*
X247413Y946167D01*
X247610Y946265D01*
X247709D01*
Y986707D01*
X246922Y987003D01*
X246036Y987199D01*
X244265Y987396D01*
X243477Y987495D01*
D02*
G37*
G36*
X3079246Y1242684D02*
X3063502D01*
X3063256Y1241946D01*
X3063092Y1241208D01*
Y1240962D01*
X3063010Y1240716D01*
Y1240470D01*
X3062846Y1239404D01*
X3062764Y1238584D01*
Y1237682D01*
X3062846Y1235960D01*
X3063092Y1234484D01*
X3063502Y1233254D01*
X3064076Y1232106D01*
X3064732Y1231204D01*
X3065470Y1230466D01*
X3066208Y1229810D01*
X3066946Y1229318D01*
X3067766Y1228908D01*
X3068504Y1228580D01*
X3069242Y1228416D01*
X3069898Y1228252D01*
X3070390Y1228170D01*
X3070882Y1228088D01*
X3071128D01*
X3071210D01*
X3072604Y1228170D01*
X3073834Y1228498D01*
X3074900Y1228908D01*
X3075720Y1229400D01*
X3076458Y1229974D01*
X3076950Y1230384D01*
X3077278Y1230712D01*
X3077360Y1230794D01*
X3078098Y1231860D01*
X3078672Y1233090D01*
X3079000Y1234402D01*
X3079328Y1235632D01*
X3079492Y1236780D01*
X3079574Y1237764D01*
Y1239486D01*
X3079492Y1240306D01*
Y1240962D01*
X3079410Y1241618D01*
X3079328Y1242028D01*
Y1242438D01*
X3079246Y1242602D01*
Y1242684D01*
D02*
G37*
G36*
X3097860Y1202012D02*
X3064158D01*
X3063912Y1201356D01*
X3063748Y1200618D01*
X3063584Y1199142D01*
X3063502Y1198486D01*
Y1196600D01*
X3063666Y1195698D01*
X3063830Y1194878D01*
X3063994Y1194222D01*
X3064158Y1193648D01*
X3064322Y1193238D01*
X3064404Y1192910D01*
X3064486Y1192828D01*
X3064896Y1192008D01*
X3065388Y1191270D01*
X3065880Y1190696D01*
X3066372Y1190122D01*
X3066864Y1189630D01*
X3067274Y1189302D01*
X3067520Y1189138D01*
X3067602Y1189056D01*
X3068422Y1188482D01*
X3069324Y1187990D01*
X3070308Y1187580D01*
X3071128Y1187252D01*
X3071948Y1187006D01*
X3072522Y1186842D01*
X3072932Y1186678D01*
X3073096D01*
X3074408Y1186350D01*
X3075720Y1186186D01*
X3077032Y1186022D01*
X3078262Y1185858D01*
X3079328D01*
X3080230Y1185776D01*
X3080558D01*
X3080722D01*
X3080886D01*
X3080968D01*
X3082690D01*
X3084166Y1185940D01*
X3085560Y1186022D01*
X3086708Y1186186D01*
X3087692Y1186350D01*
X3088430Y1186514D01*
X3088840Y1186596D01*
X3089004Y1186678D01*
X3090152Y1187006D01*
X3091218Y1187416D01*
X3092120Y1187826D01*
X3092940Y1188154D01*
X3093596Y1188482D01*
X3094006Y1188810D01*
X3094334Y1188974D01*
X3094416Y1189056D01*
X3095154Y1189630D01*
X3095810Y1190286D01*
X3096302Y1190942D01*
X3096794Y1191516D01*
X3097122Y1192008D01*
X3097368Y1192418D01*
X3097450Y1192746D01*
X3097532Y1192828D01*
X3097860Y1193648D01*
X3098106Y1194468D01*
X3098270Y1195206D01*
X3098352Y1195944D01*
X3098434Y1196600D01*
X3098516Y1197092D01*
Y1198568D01*
X3098434Y1199470D01*
X3098270Y1200290D01*
X3098188Y1200864D01*
X3098024Y1201356D01*
X3097942Y1201766D01*
X3097860Y1201930D01*
Y1202012D01*
D02*
G37*
G36*
X3082362Y1143054D02*
X3081624D01*
X3081132D01*
X3081050D01*
X3080968D01*
X3079574D01*
X3078262Y1142972D01*
X3077114Y1142890D01*
X3076130Y1142726D01*
X3075228Y1142644D01*
X3074654Y1142562D01*
X3074244Y1142480D01*
X3074080D01*
X3072932Y1142234D01*
X3071866Y1141906D01*
X3070964Y1141578D01*
X3070144Y1141332D01*
X3069570Y1141086D01*
X3069078Y1140840D01*
X3068750Y1140758D01*
X3068668Y1140676D01*
X3067848Y1140184D01*
X3067110Y1139692D01*
X3066536Y1139200D01*
X3066044Y1138708D01*
X3065634Y1138298D01*
X3065388Y1137970D01*
X3065224Y1137806D01*
X3065142Y1137724D01*
X3064732Y1136986D01*
X3064404Y1136330D01*
X3064240Y1135592D01*
X3064076Y1134936D01*
X3063994Y1134362D01*
X3063912Y1133952D01*
Y1133542D01*
X3063994Y1132640D01*
X3064076Y1131902D01*
X3064322Y1131164D01*
X3064486Y1130590D01*
X3064732Y1130016D01*
X3064978Y1129688D01*
X3065060Y1129442D01*
X3065142Y1129360D01*
X3065634Y1128704D01*
X3066208Y1128130D01*
X3066782Y1127638D01*
X3067356Y1127228D01*
X3067848Y1126900D01*
X3068258Y1126572D01*
X3068586Y1126490D01*
X3068668Y1126408D01*
X3069570Y1125998D01*
X3070472Y1125588D01*
X3071374Y1125260D01*
X3072194Y1125014D01*
X3072932Y1124850D01*
X3073506Y1124686D01*
X3073916Y1124604D01*
X3074080D01*
X3076458Y1124194D01*
X3077606Y1124112D01*
X3078672Y1124030D01*
X3079574Y1123948D01*
X3080312D01*
X3080804D01*
X3080886D01*
X3080968D01*
X3082362D01*
X3083674Y1124030D01*
X3084904Y1124112D01*
X3085970Y1124276D01*
X3086790Y1124358D01*
X3087446Y1124522D01*
X3087856Y1124604D01*
X3088020D01*
X3089168Y1124850D01*
X3090152Y1125096D01*
X3091136Y1125424D01*
X3091874Y1125752D01*
X3092530Y1125998D01*
X3093022Y1126244D01*
X3093350Y1126326D01*
X3093432Y1126408D01*
X3094252Y1126900D01*
X3094908Y1127310D01*
X3095482Y1127884D01*
X3095974Y1128294D01*
X3096384Y1128704D01*
X3096630Y1129032D01*
X3096794Y1129278D01*
X3096876Y1129360D01*
X3097286Y1130016D01*
X3097614Y1130754D01*
X3097778Y1131492D01*
X3097942Y1132148D01*
X3098024Y1132722D01*
X3098106Y1133132D01*
Y1133542D01*
X3098024Y1134362D01*
X3097942Y1135182D01*
X3097696Y1135920D01*
X3097450Y1136494D01*
X3097286Y1136986D01*
X3097040Y1137396D01*
X3096958Y1137642D01*
X3096876Y1137724D01*
X3096384Y1138380D01*
X3095810Y1138872D01*
X3094662Y1139856D01*
X3094170Y1140184D01*
X3093760Y1140430D01*
X3093514Y1140594D01*
X3093432Y1140676D01*
X3091628Y1141414D01*
X3090726Y1141742D01*
X3089824Y1141988D01*
X3089086Y1142234D01*
X3088512Y1142316D01*
X3088184Y1142480D01*
X3088020D01*
X3085560Y1142808D01*
X3084412Y1142890D01*
X3083264Y1142972D01*
X3082362Y1143054D01*
D02*
G37*
G36*
X3014196Y1182988D02*
X3000502D01*
X3000256Y1182250D01*
X3000092Y1181430D01*
X3000010Y1181102D01*
X2999928Y1180774D01*
Y1180528D01*
X2999764Y1179298D01*
X2999682Y1178232D01*
Y1177248D01*
X2999764Y1175526D01*
X3000010Y1174132D01*
X3000256Y1172902D01*
X3000584Y1171918D01*
X3000994Y1171180D01*
X3001240Y1170606D01*
X3001486Y1170278D01*
X3001568Y1170196D01*
X3002306Y1169458D01*
X3003208Y1168884D01*
X3004028Y1168474D01*
X3004930Y1168146D01*
X3005668Y1167982D01*
X3006242Y1167900D01*
X3006652D01*
X3006816D01*
X3008128Y1167982D01*
X3008702Y1168064D01*
X3009194Y1168228D01*
X3009604Y1168310D01*
X3009932Y1168474D01*
X3010096Y1168556D01*
X3010178D01*
X3011162Y1169130D01*
X3011900Y1169622D01*
X3012392Y1170114D01*
X3012474Y1170196D01*
X3012556Y1170278D01*
X3013130Y1171180D01*
X3013458Y1172000D01*
X3013622Y1172410D01*
X3013704Y1172656D01*
X3013786Y1172820D01*
Y1172902D01*
X3013950Y1173476D01*
X3014032Y1174132D01*
X3014114Y1175444D01*
X3014196Y1176018D01*
Y1182988D01*
D02*
G37*
G36*
X3035516D02*
X3021002D01*
Y1175854D01*
X3021084Y1175034D01*
X3021166Y1174378D01*
Y1173804D01*
X3021248Y1173312D01*
X3021330Y1172984D01*
X3021412Y1172820D01*
Y1172738D01*
X3021740Y1171672D01*
X3022150Y1170852D01*
X3022396Y1170524D01*
X3022478Y1170278D01*
X3022642Y1170114D01*
Y1170032D01*
X3023462Y1168966D01*
X3024364Y1168228D01*
X3025348Y1167654D01*
X3026414Y1167326D01*
X3027316Y1167080D01*
X3028054Y1166998D01*
X3028546Y1166916D01*
X3028628D01*
X3028710D01*
X3030022Y1166998D01*
X3031252Y1167326D01*
X3032236Y1167900D01*
X3033138Y1168474D01*
X3033876Y1169294D01*
X3034450Y1170196D01*
X3034942Y1171098D01*
X3035352Y1172000D01*
X3035680Y1172984D01*
X3035926Y1173886D01*
X3036090Y1174788D01*
X3036254Y1175526D01*
Y1176182D01*
X3036336Y1176756D01*
Y1177166D01*
X3036254Y1178314D01*
X3036172Y1179380D01*
Y1179790D01*
X3036090Y1180118D01*
Y1180364D01*
X3035926Y1181430D01*
X3035680Y1182250D01*
X3035598Y1182578D01*
Y1182824D01*
X3035516Y1182906D01*
Y1182988D01*
D02*
G37*
G36*
X3019362Y1124686D02*
X3018624D01*
X3018132D01*
X3018050D01*
X3017968D01*
X3016574D01*
X3015262Y1124604D01*
X3014114Y1124522D01*
X3013130Y1124358D01*
X3012228Y1124276D01*
X3011654Y1124194D01*
X3011244Y1124112D01*
X3011080D01*
X3009932Y1123866D01*
X3008866Y1123538D01*
X3007964Y1123210D01*
X3007144Y1122964D01*
X3006570Y1122718D01*
X3006078Y1122472D01*
X3005750Y1122390D01*
X3005668Y1122308D01*
X3004848Y1121816D01*
X3004110Y1121324D01*
X3003536Y1120832D01*
X3003044Y1120340D01*
X3002634Y1119930D01*
X3002388Y1119602D01*
X3002224Y1119438D01*
X3002142Y1119356D01*
X3001732Y1118618D01*
X3001404Y1117962D01*
X3001240Y1117224D01*
X3001076Y1116568D01*
X3000994Y1115994D01*
X3000912Y1115584D01*
Y1115174D01*
X3000994Y1114272D01*
X3001076Y1113534D01*
X3001322Y1112796D01*
X3001486Y1112222D01*
X3001732Y1111648D01*
X3001978Y1111320D01*
X3002060Y1111074D01*
X3002142Y1110992D01*
X3002634Y1110336D01*
X3003208Y1109762D01*
X3003782Y1109270D01*
X3004356Y1108860D01*
X3004848Y1108532D01*
X3005258Y1108204D01*
X3005586Y1108122D01*
X3005668Y1108040D01*
X3006570Y1107630D01*
X3007472Y1107220D01*
X3008374Y1106892D01*
X3009194Y1106646D01*
X3009932Y1106482D01*
X3010506Y1106318D01*
X3010916Y1106236D01*
X3011080D01*
X3013458Y1105826D01*
X3014606Y1105744D01*
X3015672Y1105662D01*
X3016574Y1105580D01*
X3017312D01*
X3017804D01*
X3017886D01*
X3017968D01*
X3019362D01*
X3020674Y1105662D01*
X3021904Y1105744D01*
X3022970Y1105908D01*
X3023790Y1105990D01*
X3024446Y1106154D01*
X3024856Y1106236D01*
X3025020D01*
X3026168Y1106482D01*
X3027152Y1106728D01*
X3028136Y1107056D01*
X3028874Y1107384D01*
X3029530Y1107630D01*
X3030022Y1107876D01*
X3030350Y1107958D01*
X3030432Y1108040D01*
X3031252Y1108532D01*
X3031908Y1108942D01*
X3032482Y1109516D01*
X3032974Y1109926D01*
X3033384Y1110336D01*
X3033630Y1110664D01*
X3033794Y1110910D01*
X3033876Y1110992D01*
X3034286Y1111648D01*
X3034614Y1112386D01*
X3034778Y1113124D01*
X3034942Y1113780D01*
X3035024Y1114354D01*
X3035106Y1114764D01*
Y1115174D01*
X3035024Y1115994D01*
X3034942Y1116814D01*
X3034696Y1117552D01*
X3034450Y1118126D01*
X3034286Y1118618D01*
X3034040Y1119028D01*
X3033958Y1119274D01*
X3033876Y1119356D01*
X3033384Y1120012D01*
X3032810Y1120504D01*
X3031662Y1121488D01*
X3031170Y1121816D01*
X3030760Y1122062D01*
X3030514Y1122226D01*
X3030432Y1122308D01*
X3028628Y1123046D01*
X3027726Y1123374D01*
X3026824Y1123620D01*
X3026086Y1123866D01*
X3025512Y1123948D01*
X3025184Y1124112D01*
X3025020D01*
X3022560Y1124440D01*
X3021412Y1124522D01*
X3020264Y1124604D01*
X3019362Y1124686D01*
D02*
G37*
G36*
X729624Y1389413D02*
X729428D01*
Y1384029D01*
X729742Y1383911D01*
X730096Y1383832D01*
X730253Y1383793D01*
X730410D01*
X730489Y1383754D01*
X730528D01*
X731039Y1383715D01*
X731511Y1383675D01*
X731943D01*
X732572Y1383715D01*
X733122Y1383793D01*
X733594Y1383872D01*
X733987Y1384029D01*
X734301Y1384147D01*
X734497Y1384226D01*
X734655Y1384304D01*
X734694Y1384343D01*
X735008Y1384619D01*
X735205Y1384933D01*
X735362Y1385287D01*
X735480Y1385601D01*
X735559Y1385876D01*
X735598Y1386112D01*
Y1386269D01*
Y1386308D01*
X735559Y1386662D01*
X735519Y1386976D01*
X735441Y1387252D01*
X735323Y1387448D01*
X735244Y1387645D01*
X735166Y1387763D01*
X735126Y1387841D01*
X735087Y1387880D01*
X734655Y1388273D01*
X734222Y1388549D01*
X734026Y1388666D01*
X733869Y1388745D01*
X733790Y1388784D01*
X733751D01*
X733083Y1389020D01*
X732493Y1389138D01*
X732218Y1389177D01*
X732022Y1389217D01*
X731825D01*
X730961Y1389295D01*
X730567Y1389334D01*
X730214Y1389374D01*
X729899D01*
X729624Y1389413D01*
D02*
G37*
G36*
X750414Y1395740D02*
X750139D01*
X749549Y1395701D01*
X749078Y1395583D01*
X748645Y1395426D01*
X748292Y1395229D01*
X747977Y1395033D01*
X747781Y1394876D01*
X747663Y1394758D01*
X747624Y1394719D01*
X747309Y1394326D01*
X747113Y1393854D01*
X746956Y1393343D01*
X746838Y1392871D01*
X746759Y1392400D01*
X746720Y1392046D01*
Y1391810D01*
Y1391771D01*
Y1391732D01*
X754187Y1390710D01*
X754108Y1391575D01*
X753951Y1392321D01*
X753794Y1392989D01*
X753558Y1393500D01*
X753361Y1393933D01*
X753165Y1394208D01*
X753047Y1394404D01*
X753008Y1394444D01*
X752576Y1394876D01*
X752104Y1395190D01*
X751632Y1395426D01*
X751161Y1395583D01*
X750768Y1395662D01*
X750414Y1395740D01*
D02*
G37*
G36*
X620567Y1395465D02*
X620488D01*
X619859Y1395387D01*
X619348Y1395229D01*
X618877Y1394994D01*
X618523Y1394719D01*
X618209Y1394404D01*
X618012Y1394168D01*
X617894Y1394011D01*
X617855Y1393933D01*
X617541Y1393343D01*
X617344Y1392636D01*
X617187Y1391968D01*
X617069Y1391300D01*
X616990Y1390710D01*
Y1390435D01*
X616951Y1390199D01*
Y1390042D01*
Y1389885D01*
Y1389806D01*
Y1389767D01*
X616990Y1388824D01*
X617108Y1387998D01*
X617226Y1387291D01*
X617384Y1386701D01*
X617580Y1386230D01*
X617698Y1385876D01*
X617816Y1385680D01*
X617855Y1385601D01*
X618209Y1385090D01*
X618641Y1384736D01*
X619073Y1384461D01*
X619506Y1384304D01*
X619899Y1384186D01*
X620213Y1384147D01*
X620410Y1384108D01*
X620488D01*
X621117Y1384186D01*
X621667Y1384343D01*
X622100Y1384579D01*
X622492Y1384854D01*
X622768Y1385129D01*
X623003Y1385365D01*
X623121Y1385522D01*
X623161Y1385601D01*
X623475Y1386230D01*
X623672Y1386898D01*
X623829Y1387605D01*
X623947Y1388273D01*
X624025Y1388863D01*
Y1389099D01*
X624064Y1389334D01*
Y1389531D01*
Y1389649D01*
Y1389727D01*
Y1389767D01*
X624025Y1390710D01*
X623907Y1391535D01*
X623789Y1392243D01*
X623593Y1392871D01*
X623436Y1393304D01*
X623318Y1393658D01*
X623200Y1393854D01*
X623161Y1393933D01*
X622768Y1394444D01*
X622375Y1394836D01*
X621903Y1395112D01*
X621471Y1395269D01*
X621078Y1395387D01*
X620763Y1395426D01*
X620567Y1395465D01*
D02*
G37*
G36*
X764542Y1364418D02*
X764149D01*
X763481Y1364340D01*
X762852Y1364182D01*
X762342Y1363947D01*
X761949Y1363711D01*
X761595Y1363436D01*
X761359Y1363200D01*
X761202Y1363043D01*
X761163Y1362964D01*
X760809Y1362375D01*
X760534Y1361707D01*
X760337Y1361039D01*
X760180Y1360370D01*
X760101Y1359781D01*
Y1359545D01*
X760062Y1359309D01*
Y1359113D01*
Y1358995D01*
Y1358916D01*
Y1358877D01*
X760101Y1357855D01*
X760259Y1356951D01*
X760416Y1356205D01*
X760652Y1355576D01*
X760848Y1355104D01*
X761045Y1354751D01*
X761202Y1354554D01*
X761241Y1354475D01*
X761713Y1354004D01*
X762224Y1353650D01*
X762735Y1353375D01*
X763206Y1353218D01*
X763678Y1353100D01*
X764032Y1353061D01*
X764267Y1353021D01*
X764778D01*
X765171Y1353061D01*
X765328D01*
X765446Y1353100D01*
X765525D01*
X765879Y1353178D01*
X766193Y1353296D01*
X766350Y1353336D01*
X766429Y1353375D01*
Y1363986D01*
X766075Y1364104D01*
X765761Y1364222D01*
X765486Y1364261D01*
X765446Y1364300D01*
X765407D01*
X764935Y1364379D01*
X764542Y1364418D01*
D02*
G37*
G36*
X615085Y1364772D02*
X614809D01*
X614220Y1364733D01*
X613748Y1364615D01*
X613316Y1364458D01*
X612962Y1364261D01*
X612648Y1364065D01*
X612451Y1363907D01*
X612333Y1363790D01*
X612294Y1363750D01*
X611980Y1363357D01*
X611783Y1362886D01*
X611626Y1362375D01*
X611508Y1361903D01*
X611430Y1361431D01*
X611390Y1361078D01*
Y1360842D01*
Y1360803D01*
Y1360763D01*
X618857Y1359742D01*
X618779Y1360606D01*
X618621Y1361353D01*
X618464Y1362021D01*
X618229Y1362532D01*
X618032Y1362964D01*
X617836Y1363239D01*
X617718Y1363436D01*
X617678Y1363475D01*
X617246Y1363907D01*
X616774Y1364222D01*
X616303Y1364458D01*
X615831Y1364615D01*
X615438Y1364693D01*
X615085Y1364772D01*
D02*
G37*
G36*
X633084Y1364418D02*
X632455D01*
X632062Y1364379D01*
X631944Y1364340D01*
X631826D01*
X631748Y1364300D01*
X631708D01*
X631315Y1364222D01*
X631001Y1364143D01*
X630844Y1364104D01*
X630804Y1364065D01*
Y1353375D01*
X631080Y1353257D01*
X631355Y1353178D01*
X631591Y1353139D01*
X631669Y1353100D01*
X631708D01*
X632141Y1353061D01*
X632534Y1353021D01*
X632887D01*
X633595Y1353100D01*
X634263Y1353257D01*
X634774Y1353493D01*
X635245Y1353768D01*
X635599Y1354043D01*
X635874Y1354279D01*
X636031Y1354436D01*
X636071Y1354515D01*
X636424Y1355143D01*
X636699Y1355812D01*
X636896Y1356519D01*
X637014Y1357187D01*
X637092Y1357777D01*
X637132Y1358052D01*
X637171Y1358287D01*
Y1358445D01*
Y1358602D01*
Y1358680D01*
Y1358720D01*
X637132Y1359624D01*
X637014Y1360410D01*
X636817Y1361117D01*
X636621Y1361707D01*
X636424Y1362178D01*
X636228Y1362532D01*
X636110Y1362728D01*
X636071Y1362807D01*
X635599Y1363357D01*
X635088Y1363750D01*
X634577Y1364025D01*
X634066Y1364222D01*
X633595Y1364340D01*
X633241Y1364379D01*
X633084Y1364418D01*
D02*
G37*
G36*
X678888Y1327476D02*
X678692D01*
Y1322092D01*
X679006Y1321974D01*
X679360Y1321896D01*
X679517Y1321856D01*
X679674D01*
X679753Y1321817D01*
X679792D01*
X680303Y1321778D01*
X680774Y1321738D01*
X681207D01*
X681836Y1321778D01*
X682386Y1321856D01*
X682857Y1321935D01*
X683250Y1322092D01*
X683565Y1322210D01*
X683761Y1322289D01*
X683918Y1322367D01*
X683958Y1322407D01*
X684272Y1322682D01*
X684469Y1322996D01*
X684626Y1323350D01*
X684744Y1323664D01*
X684822Y1323939D01*
X684862Y1324175D01*
Y1324332D01*
Y1324372D01*
X684822Y1324725D01*
X684783Y1325040D01*
X684704Y1325315D01*
X684587Y1325511D01*
X684508Y1325708D01*
X684429Y1325826D01*
X684390Y1325904D01*
X684351Y1325944D01*
X683918Y1326337D01*
X683486Y1326612D01*
X683290Y1326730D01*
X683132Y1326808D01*
X683054Y1326848D01*
X683014D01*
X682346Y1327083D01*
X681757Y1327201D01*
X681482Y1327241D01*
X681285Y1327280D01*
X681089D01*
X680224Y1327358D01*
X679831Y1327398D01*
X679477Y1327437D01*
X679163D01*
X678888Y1327476D01*
D02*
G37*
G36*
X630156D02*
X629960D01*
Y1322092D01*
X630274Y1321974D01*
X630628Y1321896D01*
X630785Y1321856D01*
X630942D01*
X631021Y1321817D01*
X631060D01*
X631571Y1321778D01*
X632042Y1321738D01*
X632475D01*
X633104Y1321778D01*
X633654Y1321856D01*
X634125Y1321935D01*
X634518Y1322092D01*
X634833Y1322210D01*
X635029Y1322289D01*
X635186Y1322367D01*
X635226Y1322407D01*
X635540Y1322682D01*
X635737Y1322996D01*
X635894Y1323350D01*
X636012Y1323664D01*
X636090Y1323939D01*
X636130Y1324175D01*
Y1324332D01*
Y1324372D01*
X636090Y1324725D01*
X636051Y1325040D01*
X635972Y1325315D01*
X635855Y1325511D01*
X635776Y1325708D01*
X635697Y1325826D01*
X635658Y1325904D01*
X635619Y1325944D01*
X635186Y1326337D01*
X634754Y1326612D01*
X634558Y1326730D01*
X634400Y1326808D01*
X634322Y1326848D01*
X634283D01*
X633614Y1327083D01*
X633025Y1327201D01*
X632750Y1327241D01*
X632553Y1327280D01*
X632357D01*
X631492Y1327358D01*
X631099Y1327398D01*
X630745Y1327437D01*
X630431D01*
X630156Y1327476D01*
D02*
G37*
G36*
X650946Y1333804D02*
X650671D01*
X650081Y1333764D01*
X649610Y1333646D01*
X649177Y1333489D01*
X648823Y1333293D01*
X648509Y1333096D01*
X648313Y1332939D01*
X648195Y1332821D01*
X648155Y1332782D01*
X647841Y1332389D01*
X647644Y1331917D01*
X647487Y1331406D01*
X647369Y1330935D01*
X647291Y1330463D01*
X647251Y1330109D01*
Y1329874D01*
Y1329834D01*
Y1329795D01*
X654718Y1328773D01*
X654640Y1329638D01*
X654483Y1330384D01*
X654326Y1331053D01*
X654090Y1331563D01*
X653893Y1331996D01*
X653697Y1332271D01*
X653579Y1332467D01*
X653539Y1332507D01*
X653107Y1332939D01*
X652636Y1333253D01*
X652164Y1333489D01*
X651692Y1333646D01*
X651299Y1333725D01*
X650946Y1333804D01*
D02*
G37*
G36*
X171883Y646786D02*
X155451D01*
X155155Y645901D01*
X154959Y644917D01*
X154860Y644523D01*
X154762Y644130D01*
Y643834D01*
X154565Y642358D01*
X154467Y641079D01*
Y639898D01*
X154565Y637832D01*
X154860Y636159D01*
X155155Y634683D01*
X155549Y633502D01*
X156041Y632617D01*
X156336Y631928D01*
X156631Y631534D01*
X156730Y631436D01*
X157615Y630550D01*
X158698Y629862D01*
X159682Y629370D01*
X160764Y628976D01*
X161650Y628779D01*
X162339Y628681D01*
X162831D01*
X163027D01*
X164602Y628779D01*
X165291Y628878D01*
X165881Y629074D01*
X166373Y629173D01*
X166767Y629370D01*
X166963Y629468D01*
X167062D01*
X168243Y630157D01*
X169128Y630747D01*
X169719Y631338D01*
X169817Y631436D01*
X169915Y631534D01*
X170604Y632617D01*
X170998Y633601D01*
X171195Y634093D01*
X171293Y634388D01*
X171391Y634585D01*
Y634683D01*
X171588Y635372D01*
X171687Y636159D01*
X171785Y637734D01*
X171883Y638422D01*
Y646786D01*
D02*
G37*
G36*
X197467D02*
X180051D01*
Y638226D01*
X180149Y637242D01*
X180247Y636454D01*
Y635766D01*
X180346Y635175D01*
X180444Y634782D01*
X180543Y634585D01*
Y634486D01*
X180936Y633207D01*
X181428Y632223D01*
X181723Y631830D01*
X181822Y631534D01*
X182019Y631338D01*
Y631239D01*
X183003Y629960D01*
X184085Y629074D01*
X185266Y628386D01*
X186545Y627992D01*
X187627Y627697D01*
X188513Y627598D01*
X189103Y627500D01*
X189202D01*
X189300D01*
X190875Y627598D01*
X192351Y627992D01*
X193531Y628681D01*
X194614Y629370D01*
X195499Y630354D01*
X196188Y631436D01*
X196779Y632518D01*
X197271Y633601D01*
X197664Y634782D01*
X197959Y635864D01*
X198156Y636946D01*
X198353Y637832D01*
Y638619D01*
X198451Y639308D01*
Y639800D01*
X198353Y641178D01*
X198255Y642457D01*
Y642949D01*
X198156Y643342D01*
Y643638D01*
X197959Y644917D01*
X197664Y645901D01*
X197566Y646294D01*
Y646590D01*
X197467Y646688D01*
Y646786D01*
D02*
G37*
%LPD*%
D78*
X942913Y1253614D02*
X942913Y1557087D01*
X517716D02*
X942913D01*
X942913Y1253614D02*
X942913Y1557087D01*
X846968Y1157669D02*
X942913Y1253614D01*
X435039Y1474410D02*
X517716Y1557087D01*
X435039Y1474410D02*
X517716Y1557087D01*
X435039Y1157670D02*
X846968Y1157669D01*
X435039Y1157670D02*
X435039Y1474410D01*
%TF.MD5,9ebb083b9f1823d6359355b1cd02372f*%
M02*
