%TF.GenerationSoftware,Altium Limited,Altium Designer,23.11.1 (41)*%
G04 Layer_Color=0*
%FSLAX26Y26*%
%MOIN*%
%TF.SameCoordinates,0B4E2714-AAF7-4A90-8E72-ED1F183F2DA5*%
%TF.FilePolarity,Positive*%
%TF.FileFunction,Plated,1,2,PTH,Drill*%
%TF.Part,CustomerPanel*%
G01*
G75*
%TA.AperFunction,ComponentDrill*%
%ADD139O,0.047244X0.027559*%
%ADD140O,0.066929X0.027559*%
%ADD141O,0.066929X0.027559*%
%ADD142O,0.047244X0.027559*%
%ADD143C,0.055000*%
%ADD144C,0.055118*%
%ADD145C,0.055118*%
%ADD146C,0.055000*%
%ADD147C,0.051181*%
%ADD148C,0.039370*%
%ADD149C,0.039370*%
%TA.AperFunction,ViaDrill,NotFilled*%
%ADD150C,0.011811*%
%ADD151C,0.023622*%
D139*
X3112204Y1313779D02*
D03*
X111213Y463748D02*
D03*
Y803905D02*
D03*
D140*
X2947637Y1313779D02*
D03*
X275780Y463748D02*
D03*
Y803905D02*
D03*
D141*
X2947637Y973622D02*
D03*
D142*
X3112204D02*
D03*
D143*
X949055Y543307D02*
D03*
D144*
X1149055Y543307D02*
D03*
D145*
X159449Y1360236D02*
D03*
Y966535D02*
D03*
D146*
Y1560236D02*
D03*
Y1166535D02*
D03*
D147*
X1952756Y956693D02*
D03*
Y1350394D02*
D03*
X2452756Y1153543D02*
D03*
D148*
X2354331Y956693D02*
D03*
Y1350394D02*
D03*
X2942913Y1537402D02*
D03*
D149*
X3112205Y818898D02*
D03*
D150*
X984968Y783669D02*
D03*
X939748Y748669D02*
D03*
X910940Y749142D02*
D03*
X2098425Y592520D02*
D03*
X2357968Y485795D02*
D03*
X2024968Y457669D02*
D03*
X1271654Y877953D02*
D03*
X583969Y532111D02*
D03*
Y559669D02*
D03*
X372969Y648228D02*
D03*
X2827372Y1188885D02*
D03*
X372969Y620669D02*
D03*
X2857198Y1189885D02*
D03*
X2856968Y1108669D02*
D03*
X1212001Y474521D02*
D03*
X939571Y1226862D02*
D03*
X818898Y1507874D02*
D03*
Y1478347D02*
D03*
Y1448819D02*
D03*
Y1419291D02*
D03*
X848425D02*
D03*
Y1448819D02*
D03*
Y1478347D02*
D03*
Y1507874D02*
D03*
X877953Y1419291D02*
D03*
Y1448819D02*
D03*
Y1478347D02*
D03*
Y1507874D02*
D03*
X2767716Y996063D02*
D03*
X2738189D02*
D03*
X2718504Y956693D02*
D03*
X2748032D02*
D03*
X1367968Y558598D02*
D03*
X2786968Y1181669D02*
D03*
X2785968Y1096669D02*
D03*
X2728347Y1370079D02*
D03*
Y1340551D02*
D03*
Y1311024D02*
D03*
Y1281496D02*
D03*
X2000000Y1842520D02*
D03*
X2397968Y1799669D02*
D03*
X2629921Y1645669D02*
D03*
Y1685040D02*
D03*
X2336968Y768669D02*
D03*
X2339968Y1749669D02*
D03*
X1734968Y645228D02*
D03*
X1394968Y835598D02*
D03*
X1392968Y592598D02*
D03*
X1528723Y772598D02*
D03*
X1515968Y805598D02*
D03*
X1537402Y877953D02*
D03*
X1619968Y821598D02*
D03*
X1596457Y1419291D02*
D03*
X1655512D02*
D03*
X1625984D02*
D03*
X1596457Y1389764D02*
D03*
X1655512D02*
D03*
X1625984D02*
D03*
X641732Y1055118D02*
D03*
Y996063D02*
D03*
Y1025591D02*
D03*
X681102Y1055118D02*
D03*
Y996063D02*
D03*
Y1025591D02*
D03*
X385827Y1606299D02*
D03*
Y1547244D02*
D03*
Y1576772D02*
D03*
X415354Y1606299D02*
D03*
Y1547244D02*
D03*
Y1576772D02*
D03*
X1813968Y820598D02*
D03*
X1768968Y923598D02*
D03*
X1351968Y1012598D02*
D03*
X1731968Y866598D02*
D03*
X1648695Y1011598D02*
D03*
X1648968Y910598D02*
D03*
X988968Y1322425D02*
D03*
X570968Y1137425D02*
D03*
X1038535Y1393583D02*
D03*
Y1452638D02*
D03*
Y1423110D02*
D03*
Y1364055D02*
D03*
X726323Y1590276D02*
D03*
X1038535Y1482165D02*
D03*
X895323Y1570276D02*
D03*
D151*
X1984968Y1618669D02*
D03*
%TF.MD5,aecdc0bf8334ea07c39fc34b3bb08cb8*%
M02*
