%TF.GenerationSoftware,Altium Limited,Altium Designer,23.11.1 (41)*%
G04 Layer_Color=8388736*
%FSLAX26Y26*%
%MOIN*%
%TF.SameCoordinates,0B4E2714-AAF7-4A90-8E72-ED1F183F2DA5*%
%TF.FilePolarity,Negative*%
%TF.FileFunction,Soldermask,Top*%
%TF.Part,CustomerPanel*%
G01*
G75*
%TA.AperFunction,ViaPad*%
%ADD73C,0.019685*%
%TA.AperFunction,FiducialPad,Global*%
%ADD79C,0.118110*%
%TA.AperFunction,ComponentPad*%
%ADD80O,0.070992X0.047370*%
%ADD81C,0.034575*%
%ADD82O,0.090677X0.047370*%
%ADD83C,0.074929*%
%ADD84R,0.074929X0.074929*%
%ADD85R,0.074929X0.074929*%
%ADD86O,0.082803X0.067055*%
%ADD87R,0.082803X0.067055*%
%ADD88C,0.067055*%
%ADD89O,0.067055X0.082803*%
%ADD90P,0.120208X4X90.0*%
%ADD91R,0.085000X0.085000*%
%TA.AperFunction,SMDPad,CuDef*%
G04:AMPARAMS|DCode=100|XSize=79.653mil|YSize=58mil|CornerRadius=16.5mil|HoleSize=0mil|Usage=FLASHONLY|Rotation=90.000|XOffset=0mil|YOffset=0mil|HoleType=Round|Shape=RoundedRectangle|*
%AMROUNDEDRECTD100*
21,1,0.079653,0.025000,0,0,90.0*
21,1,0.046654,0.058000,0,0,90.0*
1,1,0.033000,0.012500,0.023327*
1,1,0.033000,0.012500,-0.023327*
1,1,0.033000,-0.012500,-0.023327*
1,1,0.033000,-0.012500,0.023327*
%
%ADD100ROUNDEDRECTD100*%
G04:AMPARAMS|DCode=101|XSize=67.055mil|YSize=145.795mil|CornerRadius=18.764mil|HoleSize=0mil|Usage=FLASHONLY|Rotation=270.000|XOffset=0mil|YOffset=0mil|HoleType=Round|Shape=RoundedRectangle|*
%AMROUNDEDRECTD101*
21,1,0.067055,0.108268,0,0,270.0*
21,1,0.029527,0.145795,0,0,270.0*
1,1,0.037528,-0.054134,-0.014764*
1,1,0.037528,-0.054134,0.014764*
1,1,0.037528,0.054134,0.014764*
1,1,0.037528,0.054134,-0.014764*
%
%ADD101ROUNDEDRECTD101*%
%ADD102R,0.145795X0.067055*%
%ADD103R,0.130047X0.094614*%
G04:AMPARAMS|DCode=104|XSize=67.055mil|YSize=67.843mil|CornerRadius=18.764mil|HoleSize=0mil|Usage=FLASHONLY|Rotation=270.000|XOffset=0mil|YOffset=0mil|HoleType=Round|Shape=RoundedRectangle|*
%AMROUNDEDRECTD104*
21,1,0.067055,0.030315,0,0,270.0*
21,1,0.029527,0.067843,0,0,270.0*
1,1,0.037528,-0.015158,-0.014764*
1,1,0.037528,-0.015158,0.014764*
1,1,0.037528,0.015158,0.014764*
1,1,0.037528,0.015158,-0.014764*
%
%ADD104ROUNDEDRECTD104*%
G04:AMPARAMS|DCode=105|XSize=78.866mil|YSize=59.181mil|CornerRadius=16.795mil|HoleSize=0mil|Usage=FLASHONLY|Rotation=180.000|XOffset=0mil|YOffset=0mil|HoleType=Round|Shape=RoundedRectangle|*
%AMROUNDEDRECTD105*
21,1,0.078866,0.025591,0,0,180.0*
21,1,0.045276,0.059181,0,0,180.0*
1,1,0.033590,-0.022638,0.012795*
1,1,0.033590,0.022638,0.012795*
1,1,0.033590,0.022638,-0.012795*
1,1,0.033590,-0.022638,-0.012795*
%
%ADD105ROUNDEDRECTD105*%
G04:AMPARAMS|DCode=106|XSize=78.866mil|YSize=59.181mil|CornerRadius=16.795mil|HoleSize=0mil|Usage=FLASHONLY|Rotation=225.000|XOffset=0mil|YOffset=0mil|HoleType=Round|Shape=RoundedRectangle|*
%AMROUNDEDRECTD106*
21,1,0.078866,0.025591,0,0,225.0*
21,1,0.045276,0.059181,0,0,225.0*
1,1,0.033590,-0.025055,-0.006960*
1,1,0.033590,0.006960,0.025055*
1,1,0.033590,0.025055,0.006960*
1,1,0.033590,-0.006960,-0.025055*
%
%ADD106ROUNDEDRECTD106*%
G04:AMPARAMS|DCode=107|XSize=86.74mil|YSize=155.638mil|CornerRadius=23.685mil|HoleSize=0mil|Usage=FLASHONLY|Rotation=0.000|XOffset=0mil|YOffset=0mil|HoleType=Round|Shape=RoundedRectangle|*
%AMROUNDEDRECTD107*
21,1,0.086740,0.108268,0,0,0.0*
21,1,0.039370,0.155638,0,0,0.0*
1,1,0.047370,0.019685,-0.054134*
1,1,0.047370,-0.019685,-0.054134*
1,1,0.047370,-0.019685,0.054134*
1,1,0.047370,0.019685,0.054134*
%
%ADD107ROUNDEDRECTD107*%
G04:AMPARAMS|DCode=108|XSize=47.37mil|YSize=43.433mil|CornerRadius=12.858mil|HoleSize=0mil|Usage=FLASHONLY|Rotation=270.000|XOffset=0mil|YOffset=0mil|HoleType=Round|Shape=RoundedRectangle|*
%AMROUNDEDRECTD108*
21,1,0.047370,0.017717,0,0,270.0*
21,1,0.021654,0.043433,0,0,270.0*
1,1,0.025716,-0.008858,-0.010827*
1,1,0.025716,-0.008858,0.010827*
1,1,0.025716,0.008858,0.010827*
1,1,0.025716,0.008858,-0.010827*
%
%ADD108ROUNDEDRECTD108*%
%ADD109R,0.065087X0.019811*%
%ADD110R,0.065087X0.031622*%
%ADD111R,0.165480X0.086740*%
G04:AMPARAMS|DCode=112|XSize=67.055mil|YSize=67.843mil|CornerRadius=18.764mil|HoleSize=0mil|Usage=FLASHONLY|Rotation=0.000|XOffset=0mil|YOffset=0mil|HoleType=Round|Shape=RoundedRectangle|*
%AMROUNDEDRECTD112*
21,1,0.067055,0.030315,0,0,0.0*
21,1,0.029527,0.067843,0,0,0.0*
1,1,0.037528,0.014764,-0.015158*
1,1,0.037528,-0.014764,-0.015158*
1,1,0.037528,-0.014764,0.015158*
1,1,0.037528,0.014764,0.015158*
%
%ADD112ROUNDEDRECTD112*%
%ADD113R,0.094614X0.130047*%
G04:AMPARAMS|DCode=114|XSize=47.37mil|YSize=43.433mil|CornerRadius=12.858mil|HoleSize=0mil|Usage=FLASHONLY|Rotation=315.000|XOffset=0mil|YOffset=0mil|HoleType=Round|Shape=RoundedRectangle|*
%AMROUNDEDRECTD114*
21,1,0.047370,0.017717,0,0,315.0*
21,1,0.021654,0.043433,0,0,315.0*
1,1,0.025716,0.001392,-0.013920*
1,1,0.025716,-0.013920,0.001392*
1,1,0.025716,-0.001392,0.013920*
1,1,0.025716,0.013920,-0.001392*
%
%ADD114ROUNDEDRECTD114*%
%TA.AperFunction,ConnectorPad*%
%ADD115R,0.065087X0.019811*%
%ADD116R,0.065087X0.031622*%
%TA.AperFunction,SMDPad,CuDef*%
G04:AMPARAMS|DCode=117|XSize=47.37mil|YSize=43.433mil|CornerRadius=12.858mil|HoleSize=0mil|Usage=FLASHONLY|Rotation=0.000|XOffset=0mil|YOffset=0mil|HoleType=Round|Shape=RoundedRectangle|*
%AMROUNDEDRECTD117*
21,1,0.047370,0.017717,0,0,0.0*
21,1,0.021654,0.043433,0,0,0.0*
1,1,0.025716,0.010827,-0.008858*
1,1,0.025716,-0.010827,-0.008858*
1,1,0.025716,-0.010827,0.008858*
1,1,0.025716,0.010827,0.008858*
%
%ADD117ROUNDEDRECTD117*%
G04:AMPARAMS|DCode=118|XSize=78.866mil|YSize=59.181mil|CornerRadius=16.795mil|HoleSize=0mil|Usage=FLASHONLY|Rotation=90.000|XOffset=0mil|YOffset=0mil|HoleType=Round|Shape=RoundedRectangle|*
%AMROUNDEDRECTD118*
21,1,0.078866,0.025591,0,0,90.0*
21,1,0.045276,0.059181,0,0,90.0*
1,1,0.033590,0.012795,0.022638*
1,1,0.033590,0.012795,-0.022638*
1,1,0.033590,-0.012795,-0.022638*
1,1,0.033590,-0.012795,0.022638*
%
%ADD118ROUNDEDRECTD118*%
G04:AMPARAMS|DCode=119|XSize=67.055mil|YSize=145.795mil|CornerRadius=18.764mil|HoleSize=0mil|Usage=FLASHONLY|Rotation=0.000|XOffset=0mil|YOffset=0mil|HoleType=Round|Shape=RoundedRectangle|*
%AMROUNDEDRECTD119*
21,1,0.067055,0.108268,0,0,0.0*
21,1,0.029527,0.145795,0,0,0.0*
1,1,0.037528,0.014764,-0.054134*
1,1,0.037528,-0.014764,-0.054134*
1,1,0.037528,-0.014764,0.054134*
1,1,0.037528,0.014764,0.054134*
%
%ADD119ROUNDEDRECTD119*%
%ADD120R,0.067055X0.145795*%
%ADD121R,0.094614X0.055244*%
%ADD122R,0.236346X0.259969*%
%ADD123R,0.480441X0.224535*%
G04:AMPARAMS|DCode=124|XSize=126.11mil|YSize=165.48mil|CornerRadius=0mil|HoleSize=0mil|Usage=FLASHONLY|Rotation=0.000|XOffset=0mil|YOffset=0mil|HoleType=Round|Shape=Octagon|*
%AMOCTAGOND124*
4,1,8,-0.031527,0.082740,0.031527,0.082740,0.063055,0.051213,0.063055,-0.051213,0.031527,-0.082740,-0.031527,-0.082740,-0.063055,-0.051213,-0.063055,0.051213,-0.031527,0.082740,0.0*
%
%ADD124OCTAGOND124*%

%ADD125R,0.082803X0.031622*%
G04:AMPARAMS|DCode=126|XSize=31.622mil|YSize=82.803mil|CornerRadius=9.906mil|HoleSize=0mil|Usage=FLASHONLY|Rotation=90.000|XOffset=0mil|YOffset=0mil|HoleType=Round|Shape=RoundedRectangle|*
%AMROUNDEDRECTD126*
21,1,0.031622,0.062992,0,0,90.0*
21,1,0.011811,0.082803,0,0,90.0*
1,1,0.019811,0.031496,0.005906*
1,1,0.019811,0.031496,-0.005906*
1,1,0.019811,-0.031496,-0.005906*
1,1,0.019811,-0.031496,0.005906*
%
%ADD126ROUNDEDRECTD126*%
G04:AMPARAMS|DCode=127|XSize=143.827mil|YSize=96.583mil|CornerRadius=26.146mil|HoleSize=0mil|Usage=FLASHONLY|Rotation=90.000|XOffset=0mil|YOffset=0mil|HoleType=Round|Shape=RoundedRectangle|*
%AMROUNDEDRECTD127*
21,1,0.143827,0.044291,0,0,90.0*
21,1,0.091536,0.096583,0,0,90.0*
1,1,0.052291,0.022146,0.045768*
1,1,0.052291,0.022146,-0.045768*
1,1,0.052291,-0.022146,-0.045768*
1,1,0.052291,-0.022146,0.045768*
%
%ADD127ROUNDEDRECTD127*%
G04:AMPARAMS|DCode=128|XSize=41.071mil|YSize=18.236mil|CornerRadius=6.559mil|HoleSize=0mil|Usage=FLASHONLY|Rotation=45.000|XOffset=0mil|YOffset=0mil|HoleType=Round|Shape=RoundedRectangle|*
%AMROUNDEDRECTD128*
21,1,0.041071,0.005118,0,0,45.0*
21,1,0.027953,0.018236,0,0,45.0*
1,1,0.013118,0.011692,0.008073*
1,1,0.013118,-0.008073,-0.011692*
1,1,0.013118,-0.011692,-0.008073*
1,1,0.013118,0.008073,0.011692*
%
%ADD128ROUNDEDRECTD128*%
G04:AMPARAMS|DCode=129|XSize=41.071mil|YSize=18.236mil|CornerRadius=0mil|HoleSize=0mil|Usage=FLASHONLY|Rotation=315.000|XOffset=0mil|YOffset=0mil|HoleType=Round|Shape=Rectangle|*
%AMROTATEDRECTD129*
4,1,4,-0.020968,0.008073,-0.008073,0.020968,0.020968,-0.008073,0.008073,-0.020968,-0.020968,0.008073,0.0*
%
%ADD129ROTATEDRECTD129*%

G04:AMPARAMS|DCode=130|XSize=41.071mil|YSize=18.236mil|CornerRadius=6.559mil|HoleSize=0mil|Usage=FLASHONLY|Rotation=315.000|XOffset=0mil|YOffset=0mil|HoleType=Round|Shape=RoundedRectangle|*
%AMROUNDEDRECTD130*
21,1,0.041071,0.005118,0,0,315.0*
21,1,0.027953,0.018236,0,0,315.0*
1,1,0.013118,0.008073,-0.011692*
1,1,0.013118,-0.011692,0.008073*
1,1,0.013118,-0.008073,0.011692*
1,1,0.013118,0.011692,-0.008073*
%
%ADD130ROUNDEDRECTD130*%
%ADD131P,0.150508X4X360.0*%
G04:AMPARAMS|DCode=132|XSize=47.37mil|YSize=43.433mil|CornerRadius=12.858mil|HoleSize=0mil|Usage=FLASHONLY|Rotation=225.000|XOffset=0mil|YOffset=0mil|HoleType=Round|Shape=RoundedRectangle|*
%AMROUNDEDRECTD132*
21,1,0.047370,0.017717,0,0,225.0*
21,1,0.021654,0.043433,0,0,225.0*
1,1,0.025716,-0.013920,-0.001392*
1,1,0.025716,0.001392,0.013920*
1,1,0.025716,0.013920,0.001392*
1,1,0.025716,-0.001392,-0.013920*
%
%ADD132ROUNDEDRECTD132*%
%ADD133R,0.047370X0.031622*%
G04:AMPARAMS|DCode=134|XSize=31.622mil|YSize=47.37mil|CornerRadius=9.906mil|HoleSize=0mil|Usage=FLASHONLY|Rotation=270.000|XOffset=0mil|YOffset=0mil|HoleType=Round|Shape=RoundedRectangle|*
%AMROUNDEDRECTD134*
21,1,0.031622,0.027559,0,0,270.0*
21,1,0.011811,0.047370,0,0,270.0*
1,1,0.019811,-0.013780,-0.005906*
1,1,0.019811,-0.013780,0.005906*
1,1,0.019811,0.013780,0.005906*
1,1,0.019811,0.013780,-0.005906*
%
%ADD134ROUNDEDRECTD134*%
%ADD135R,0.059181X0.035559*%
G04:AMPARAMS|DCode=136|XSize=35.559mil|YSize=59.181mil|CornerRadius=10.89mil|HoleSize=0mil|Usage=FLASHONLY|Rotation=270.000|XOffset=0mil|YOffset=0mil|HoleType=Round|Shape=RoundedRectangle|*
%AMROUNDEDRECTD136*
21,1,0.035559,0.037401,0,0,270.0*
21,1,0.013780,0.059181,0,0,270.0*
1,1,0.021780,-0.018701,-0.006890*
1,1,0.021780,-0.018701,0.006890*
1,1,0.021780,0.018701,0.006890*
1,1,0.021780,0.018701,-0.006890*
%
%ADD136ROUNDEDRECTD136*%
D73*
X818898Y1507874D02*
D03*
Y1478347D02*
D03*
Y1448819D02*
D03*
Y1419291D02*
D03*
X848425D02*
D03*
Y1448819D02*
D03*
Y1478347D02*
D03*
Y1507874D02*
D03*
X877953Y1419291D02*
D03*
Y1448819D02*
D03*
Y1478347D02*
D03*
Y1507874D02*
D03*
D79*
X543307Y907480D02*
D03*
X2866142Y1655512D02*
D03*
X2994095Y759843D02*
D03*
D80*
X3112204Y1313779D02*
D03*
Y973622D02*
D03*
X111213Y463748D02*
D03*
Y803905D02*
D03*
D81*
X2968504Y1257477D02*
D03*
Y1029925D02*
D03*
X254913Y520051D02*
D03*
Y747603D02*
D03*
D82*
X2947637Y1313779D02*
D03*
Y973622D02*
D03*
X275780Y463748D02*
D03*
Y803905D02*
D03*
D83*
X949055Y543307D02*
D03*
X159449Y1560236D02*
D03*
Y1166535D02*
D03*
D84*
X1149055Y543307D02*
D03*
D85*
X159449Y1360236D02*
D03*
Y966535D02*
D03*
D86*
X1952756Y956693D02*
D03*
D87*
Y1350394D02*
D03*
D88*
X2354331Y956693D02*
D03*
Y1350394D02*
D03*
D89*
X2452756Y1153543D02*
D03*
D90*
X3112205Y818898D02*
D03*
D91*
X2942913Y1537402D02*
D03*
D100*
X669685Y631890D02*
D03*
X785433D02*
D03*
X669685Y533465D02*
D03*
X785433D02*
D03*
D101*
X831575Y911669D02*
D03*
D102*
X1032362D02*
D03*
D103*
X2302905Y602362D02*
D03*
X947740Y1708543D02*
D03*
X2322590Y1501559D02*
D03*
X1771409Y1340551D02*
D03*
D104*
X2175819Y601654D02*
D03*
X820654Y1707835D02*
D03*
X2195504Y1500851D02*
D03*
X1644323Y1339842D02*
D03*
D105*
X1281496Y923228D02*
D03*
Y812992D02*
D03*
X681102Y864173D02*
D03*
Y753937D02*
D03*
X1576772Y1061024D02*
D03*
Y950787D02*
D03*
X2708661Y1551181D02*
D03*
X2708662Y1661418D02*
D03*
X1923968Y1794669D02*
D03*
Y1684433D02*
D03*
D106*
X1508270Y562597D02*
D03*
X1586218Y484648D02*
D03*
D107*
X2452968Y707929D02*
D03*
X2786968D02*
D03*
D108*
X2539370Y1547244D02*
D03*
X2602362D02*
D03*
X971606Y1610118D02*
D03*
X908614D02*
D03*
X735386Y1255787D02*
D03*
X672394D02*
D03*
X790504Y1314842D02*
D03*
X853496D02*
D03*
X672394D02*
D03*
X735386D02*
D03*
X1653543Y1074803D02*
D03*
X1716535D02*
D03*
X515748Y582677D02*
D03*
X452756Y582677D02*
D03*
X515748Y523622D02*
D03*
X452756Y523622D02*
D03*
X515748Y641732D02*
D03*
X452756Y641732D02*
D03*
X515748Y700787D02*
D03*
X452756D02*
D03*
X2484252Y1547244D02*
D03*
X2421260D02*
D03*
X2487465Y1844669D02*
D03*
X2424472D02*
D03*
X2422472Y1625669D02*
D03*
X2485465D02*
D03*
D109*
X2913582Y1173232D02*
D03*
Y1114176D02*
D03*
Y1153546D02*
D03*
Y1133861D02*
D03*
Y1094491D02*
D03*
Y1074806D02*
D03*
Y1192917D02*
D03*
Y1212602D02*
D03*
D110*
Y1047247D02*
D03*
Y1240161D02*
D03*
Y1271657D02*
D03*
Y1015751D02*
D03*
D111*
X2229969Y1636669D02*
D03*
X2229968Y1766669D02*
D03*
D112*
X2063677Y1614583D02*
D03*
D113*
X2062968Y1741670D02*
D03*
D114*
X1771036Y501351D02*
D03*
X1815578Y545893D02*
D03*
X1672611Y501351D02*
D03*
X1717153Y545893D02*
D03*
X1761194Y589934D02*
D03*
X1805736Y634476D02*
D03*
D115*
X309835Y604296D02*
D03*
Y663351D02*
D03*
Y623981D02*
D03*
Y643666D02*
D03*
Y683036D02*
D03*
Y702721D02*
D03*
Y584611D02*
D03*
Y564926D02*
D03*
D116*
X309835Y730280D02*
D03*
X309835Y537367D02*
D03*
Y505871D02*
D03*
X309835Y761776D02*
D03*
D117*
X2029528Y570866D02*
D03*
Y633858D02*
D03*
X733811Y1198488D02*
D03*
Y1135496D02*
D03*
X674756Y1135496D02*
D03*
Y1198488D02*
D03*
X615701Y1198488D02*
D03*
X615701Y1135496D02*
D03*
X969638Y1139646D02*
D03*
Y1076654D02*
D03*
X792472Y1139646D02*
D03*
Y1076654D02*
D03*
X910583Y1076653D02*
D03*
Y1139646D02*
D03*
X851528Y1076653D02*
D03*
Y1139646D02*
D03*
X792472Y1194764D02*
D03*
Y1257756D02*
D03*
X1028693D02*
D03*
Y1194764D02*
D03*
X969638Y1194764D02*
D03*
Y1257756D02*
D03*
X910583Y1194764D02*
D03*
X910583Y1257756D02*
D03*
X851528Y1194764D02*
D03*
X851528Y1257756D02*
D03*
X1478347Y958661D02*
D03*
Y895669D02*
D03*
X1773622Y1076772D02*
D03*
Y1013779D02*
D03*
X1419291Y895669D02*
D03*
Y958661D02*
D03*
X1360236Y958661D02*
D03*
Y895669D02*
D03*
X1478968Y838094D02*
D03*
Y775102D02*
D03*
X2029528Y761811D02*
D03*
X2029527Y698819D02*
D03*
X2574468Y1677916D02*
D03*
Y1614924D02*
D03*
D118*
X2340087Y846228D02*
D03*
X2229850D02*
D03*
X1478087Y1122598D02*
D03*
X1367850D02*
D03*
X2055118Y1507874D02*
D03*
X1944882D02*
D03*
X1740158Y1557087D02*
D03*
X1629921D02*
D03*
X1818898Y1458661D02*
D03*
X1708661D02*
D03*
D119*
X474409Y1368110D02*
D03*
X2679134Y1312992D02*
D03*
D120*
X474409Y1568898D02*
D03*
X2679134Y1112205D02*
D03*
D121*
X1458661Y1033071D02*
D03*
Y1212598D02*
D03*
D122*
X1210630Y1122835D02*
D03*
D123*
X1320323Y1387276D02*
D03*
Y1747276D02*
D03*
D124*
X841685Y1462480D02*
D03*
D125*
X709795Y1537480D02*
D03*
D126*
Y1487480D02*
D03*
Y1437480D02*
D03*
Y1387480D02*
D03*
X973575Y1537480D02*
D03*
Y1487480D02*
D03*
Y1437480D02*
D03*
Y1387480D02*
D03*
D127*
X1784449Y1183071D02*
D03*
X1585630D02*
D03*
D128*
X1517772Y662172D02*
D03*
X1531691Y648253D02*
D03*
X1545610Y634333D02*
D03*
X1559530Y620414D02*
D03*
X1573449Y606494D02*
D03*
X1587369Y592575D02*
D03*
X1694827Y700033D02*
D03*
X1680907Y713952D02*
D03*
X1666988Y727872D02*
D03*
X1653068Y741791D02*
D03*
X1639149Y755711D02*
D03*
X1625230Y769630D02*
D03*
D129*
X1587369D02*
D03*
D130*
X1573449Y755711D02*
D03*
X1559530Y741791D02*
D03*
X1545610Y727872D02*
D03*
X1531691Y713952D02*
D03*
X1517772Y700033D02*
D03*
X1625230Y592575D02*
D03*
X1639149Y606494D02*
D03*
X1653068Y620414D02*
D03*
X1666988Y634333D02*
D03*
X1680907Y648253D02*
D03*
X1694827Y662172D02*
D03*
D131*
X1606299Y681102D02*
D03*
D132*
X1362822Y501351D02*
D03*
X1318280Y545893D02*
D03*
X1461248Y501351D02*
D03*
X1416705Y545893D02*
D03*
D133*
X1958661Y692913D02*
D03*
X2228213Y696197D02*
D03*
D134*
X1958661Y767716D02*
D03*
X1864173Y730315D02*
D03*
X2228213Y771000D02*
D03*
X2133724Y733598D02*
D03*
D135*
X2488996Y1694326D02*
D03*
D136*
Y1731727D02*
D03*
Y1769129D02*
D03*
X2394508D02*
D03*
Y1731727D02*
D03*
Y1694326D02*
D03*
%TF.MD5,1b0648a9ee6abf87cb492a7f5f43116a*%
M02*
