%TF.GenerationSoftware,Altium Limited,Altium Designer,23.4.1 (23)*%
G04 Layer_Color=32896*
%FSLAX26Y26*%
%MOIN*%
%TF.SameCoordinates,7B234F99-2337-49EF-8028-3FC35EF94B5E*%
%TF.FilePolarity,Positive*%
%TF.FileFunction,Legend,Bot*%
%TF.Part,CustomerPanel*%
G01*
G75*
%TA.AperFunction,NonConductor*%
%ADD68C,0.026691*%
G36*
X1954498Y2335518D02*
X1955991Y2334485D01*
X1956565Y2334026D01*
X1957024Y2333682D01*
X1957368Y2333452D01*
X1957483Y2333337D01*
X1959435Y2332074D01*
X1960468Y2331615D01*
X1961386Y2331156D01*
X1962075Y2330811D01*
X1962649Y2330467D01*
X1963108Y2330352D01*
X1963223Y2330238D01*
X1965519Y2329319D01*
X1966667Y2328975D01*
X1967700Y2328630D01*
X1968619Y2328286D01*
X1969307Y2328171D01*
X1969767Y2327941D01*
X1969881D01*
X1972407Y2327367D01*
X1973555Y2327023D01*
X1974588Y2326908D01*
X1975507Y2326679D01*
X1976195Y2326564D01*
X1976655Y2326449D01*
X1976769D01*
X1974818Y2316461D01*
X1972981Y2316806D01*
X1971374Y2317150D01*
X1970685Y2317265D01*
X1970226Y2317380D01*
X1969881Y2317495D01*
X1969767D01*
X1967815Y2317954D01*
X1967011Y2318184D01*
X1966208Y2318298D01*
X1965634Y2318528D01*
X1965175Y2318643D01*
X1964830Y2318758D01*
X1964715D01*
X1962879Y2319331D01*
X1962075Y2319561D01*
X1961386Y2319791D01*
X1960697Y2320020D01*
X1960238Y2320250D01*
X1960009Y2320365D01*
X1959894D01*
X1958287Y2321053D01*
X1957024Y2321628D01*
X1956565Y2321857D01*
X1956220Y2322087D01*
X1956105Y2322202D01*
X1955991D01*
Y2267442D01*
X1942674D01*
Y2336896D01*
X1953121D01*
X1954498Y2335518D01*
D02*
G37*
G36*
X2162286Y2303374D02*
X2182376Y2267442D01*
X2167452D01*
X2154250Y2292698D01*
X2154135D01*
X2141048Y2267442D01*
X2126124D01*
X2146214Y2303374D01*
X2127617Y2336896D01*
X2142426D01*
X2154135Y2314166D01*
X2154250D01*
X2166075Y2336896D01*
X2180884D01*
X2162286Y2303374D01*
D02*
G37*
G36*
X2021427Y2267442D02*
X2007077D01*
X1985724Y2336896D01*
X2000418D01*
X2012128Y2291665D01*
X2012702Y2289369D01*
X2012931Y2288336D01*
X2013161Y2287417D01*
X2013276Y2286613D01*
X2013391Y2286039D01*
X2013505Y2285695D01*
Y2285580D01*
X2013620Y2284662D01*
X2013850Y2283858D01*
X2013965Y2283169D01*
Y2282595D01*
X2014079Y2282136D01*
X2014194Y2281907D01*
Y2281792D01*
Y2281677D01*
X2014424D01*
X2014539Y2282136D01*
X2014653Y2282710D01*
X2014768Y2283169D01*
Y2283284D01*
X2014883Y2284203D01*
X2014998Y2285006D01*
X2015113Y2285580D01*
Y2285695D01*
Y2285810D01*
X2015342Y2286843D01*
X2015457Y2287762D01*
X2015572Y2288450D01*
X2015687Y2288565D01*
Y2288680D01*
X2015916Y2289828D01*
X2016146Y2290746D01*
X2016261Y2291435D01*
X2016375Y2291550D01*
Y2291665D01*
X2028085Y2336896D01*
X2042779D01*
X2021427Y2267442D01*
D02*
G37*
G36*
X2685315Y2267442D02*
X2671769D01*
X2663847Y2296831D01*
X2663388Y2298668D01*
X2663159Y2299356D01*
X2663044Y2300045D01*
X2662929Y2300619D01*
Y2301078D01*
X2662814Y2301308D01*
Y2301423D01*
X2662585Y2302800D01*
X2662355Y2303834D01*
X2662240Y2304408D01*
Y2304637D01*
X2662011D01*
Y2304293D01*
Y2303948D01*
X2661896Y2302915D01*
Y2302456D01*
X2661781Y2302112D01*
Y2301882D01*
Y2301767D01*
X2661437Y2300045D01*
X2661092Y2298438D01*
X2660863Y2297864D01*
X2660748Y2297290D01*
X2660633Y2296946D01*
Y2296831D01*
X2652597Y2267442D01*
X2639051D01*
X2624012Y2319217D01*
X2637214D01*
X2644561Y2287417D01*
X2645020Y2285351D01*
X2645135Y2284432D01*
X2645365Y2283744D01*
X2645479Y2283055D01*
Y2282596D01*
X2645594Y2282251D01*
Y2282136D01*
X2645709Y2281333D01*
Y2280644D01*
X2645824Y2280070D01*
Y2279726D01*
X2645939Y2279152D01*
Y2279037D01*
X2646053D01*
X2646168Y2279381D01*
X2646283Y2279840D01*
X2646513Y2280874D01*
X2646627Y2281333D01*
Y2281792D01*
X2646742Y2282022D01*
Y2282136D01*
X2647087Y2283973D01*
X2647431Y2285695D01*
X2647661Y2286384D01*
X2647775Y2286958D01*
X2647890Y2287302D01*
Y2287417D01*
X2656156Y2319217D01*
X2668210D01*
X2676590Y2287417D01*
X2677049Y2285351D01*
X2677279Y2284432D01*
X2677509Y2283744D01*
X2677623Y2283055D01*
Y2282596D01*
X2677738Y2282251D01*
Y2282136D01*
X2677853Y2281333D01*
X2677968Y2280644D01*
X2678083Y2280070D01*
X2678197Y2279726D01*
X2678312Y2279152D01*
Y2279037D01*
X2678542D01*
Y2279381D01*
Y2279840D01*
X2678657Y2280988D01*
X2678771Y2281448D01*
Y2281907D01*
X2678886Y2282251D01*
Y2282366D01*
X2679116Y2284318D01*
X2679345Y2285121D01*
X2679460Y2285925D01*
X2679575Y2286499D01*
X2679690Y2286958D01*
X2679805Y2287302D01*
Y2287417D01*
X2687267Y2319217D01*
X2700354D01*
X2685315Y2267442D01*
D02*
G37*
G36*
X2595771Y2320250D02*
X2597608Y2320020D01*
X2599330Y2319676D01*
X2600822Y2319332D01*
X2602085Y2318987D01*
X2603003Y2318643D01*
X2603577Y2318413D01*
X2603807Y2318298D01*
X2605414Y2317495D01*
X2606907Y2316576D01*
X2608169Y2315658D01*
X2609317Y2314854D01*
X2610121Y2314051D01*
X2610810Y2313362D01*
X2611269Y2312903D01*
X2611384Y2312788D01*
X2612417Y2311410D01*
X2613450Y2309918D01*
X2614254Y2308540D01*
X2614943Y2307163D01*
X2615402Y2306015D01*
X2615746Y2304982D01*
X2615976Y2304408D01*
X2616091Y2304293D01*
Y2304178D01*
X2616665Y2302341D01*
X2617009Y2300390D01*
X2617353Y2298553D01*
X2617468Y2296831D01*
X2617583Y2295453D01*
X2617698Y2294305D01*
Y2293846D01*
Y2293502D01*
Y2293387D01*
Y2293272D01*
X2617583Y2291091D01*
X2617468Y2289139D01*
X2617239Y2287302D01*
X2616894Y2285580D01*
X2616550Y2284318D01*
X2616320Y2283284D01*
X2616205Y2282596D01*
X2616091Y2282481D01*
Y2282366D01*
X2615402Y2280529D01*
X2614598Y2278922D01*
X2613680Y2277430D01*
X2612876Y2276167D01*
X2612187Y2275134D01*
X2611613Y2274445D01*
X2611154Y2273871D01*
X2611039Y2273756D01*
X2609777Y2272493D01*
X2608399Y2271345D01*
X2607021Y2270427D01*
X2605759Y2269623D01*
X2604611Y2269049D01*
X2603692Y2268590D01*
X2603118Y2268360D01*
X2602889Y2268246D01*
X2601052Y2267557D01*
X2599100Y2267098D01*
X2597263Y2266753D01*
X2595427Y2266524D01*
X2593934Y2266409D01*
X2592671Y2266294D01*
X2589572D01*
X2587505Y2266409D01*
X2585669Y2266638D01*
X2584061Y2266868D01*
X2582799Y2266983D01*
X2581765Y2267212D01*
X2581077Y2267327D01*
X2580847D01*
X2579010Y2267786D01*
X2577403Y2268131D01*
X2576025Y2268590D01*
X2574763Y2269049D01*
X2573729Y2269394D01*
X2573041Y2269738D01*
X2572581Y2269853D01*
X2572467Y2269968D01*
X2576255Y2279726D01*
X2578436Y2278807D01*
X2579584Y2278348D01*
X2580617Y2278118D01*
X2581536Y2277774D01*
X2582225Y2277544D01*
X2582684Y2277430D01*
X2582913D01*
X2585669Y2276856D01*
X2587046Y2276741D01*
X2588194Y2276626D01*
X2589113Y2276511D01*
X2590605D01*
X2592671Y2276626D01*
X2594623Y2276970D01*
X2596230Y2277430D01*
X2597608Y2277889D01*
X2598756Y2278348D01*
X2599559Y2278807D01*
X2600019Y2279152D01*
X2600248Y2279266D01*
X2601511Y2280414D01*
X2602544Y2281792D01*
X2603348Y2283284D01*
X2604037Y2284662D01*
X2604496Y2285925D01*
X2604725Y2286958D01*
X2604955Y2287647D01*
Y2287762D01*
Y2287876D01*
X2571663Y2292354D01*
X2571548Y2293157D01*
X2571433Y2293846D01*
Y2294305D01*
Y2294535D01*
Y2296831D01*
X2571548Y2298782D01*
X2571663Y2300504D01*
X2571893Y2302226D01*
X2572122Y2303604D01*
X2572467Y2304752D01*
X2572696Y2305670D01*
X2572811Y2306130D01*
X2572926Y2306359D01*
X2573500Y2307966D01*
X2574189Y2309344D01*
X2574992Y2310607D01*
X2575681Y2311755D01*
X2576255Y2312558D01*
X2576829Y2313247D01*
X2577173Y2313706D01*
X2577288Y2313821D01*
X2578321Y2314969D01*
X2579469Y2315888D01*
X2580617Y2316691D01*
X2581765Y2317380D01*
X2582684Y2317954D01*
X2583487Y2318298D01*
X2583947Y2318528D01*
X2584176Y2318643D01*
X2585783Y2319217D01*
X2587391Y2319676D01*
X2588998Y2319906D01*
X2590490Y2320135D01*
X2591753Y2320250D01*
X2592786Y2320365D01*
X2593705D01*
X2595771Y2320250D01*
D02*
G37*
G36*
X2434821D02*
X2436658Y2320020D01*
X2438380Y2319676D01*
X2439873Y2319332D01*
X2441135Y2318987D01*
X2442054Y2318643D01*
X2442628Y2318413D01*
X2442857Y2318298D01*
X2444465Y2317495D01*
X2445957Y2316576D01*
X2447220Y2315658D01*
X2448368Y2314854D01*
X2449171Y2314051D01*
X2449860Y2313362D01*
X2450319Y2312903D01*
X2450434Y2312788D01*
X2451467Y2311410D01*
X2452501Y2309918D01*
X2453304Y2308540D01*
X2453993Y2307163D01*
X2454452Y2306015D01*
X2454797Y2304982D01*
X2455026Y2304408D01*
X2455141Y2304293D01*
Y2304178D01*
X2455715Y2302341D01*
X2456059Y2300390D01*
X2456404Y2298553D01*
X2456519Y2296831D01*
X2456633Y2295453D01*
X2456748Y2294305D01*
Y2293846D01*
Y2293502D01*
Y2293387D01*
Y2293272D01*
X2456633Y2291091D01*
X2456519Y2289139D01*
X2456289Y2287302D01*
X2455945Y2285580D01*
X2455600Y2284318D01*
X2455371Y2283284D01*
X2455256Y2282596D01*
X2455141Y2282481D01*
Y2282366D01*
X2454452Y2280529D01*
X2453649Y2278922D01*
X2452730Y2277430D01*
X2451927Y2276167D01*
X2451238Y2275134D01*
X2450664Y2274445D01*
X2450205Y2273871D01*
X2450090Y2273756D01*
X2448827Y2272493D01*
X2447449Y2271345D01*
X2446072Y2270427D01*
X2444809Y2269623D01*
X2443661Y2269049D01*
X2442743Y2268590D01*
X2442169Y2268360D01*
X2441939Y2268246D01*
X2440102Y2267557D01*
X2438151Y2267098D01*
X2436314Y2266753D01*
X2434477Y2266524D01*
X2432985Y2266409D01*
X2431722Y2266294D01*
X2428622D01*
X2426556Y2266409D01*
X2424719Y2266638D01*
X2423112Y2266868D01*
X2421849Y2266983D01*
X2420816Y2267212D01*
X2420127Y2267327D01*
X2419897D01*
X2418061Y2267786D01*
X2416453Y2268131D01*
X2415076Y2268590D01*
X2413813Y2269049D01*
X2412780Y2269394D01*
X2412091Y2269738D01*
X2411632Y2269853D01*
X2411517Y2269968D01*
X2415305Y2279726D01*
X2417487Y2278807D01*
X2418635Y2278348D01*
X2419668Y2278118D01*
X2420586Y2277774D01*
X2421275Y2277544D01*
X2421734Y2277430D01*
X2421964D01*
X2424719Y2276856D01*
X2426097Y2276741D01*
X2427245Y2276626D01*
X2428163Y2276511D01*
X2429655D01*
X2431722Y2276626D01*
X2433673Y2276970D01*
X2435281Y2277430D01*
X2436658Y2277889D01*
X2437806Y2278348D01*
X2438610Y2278807D01*
X2439069Y2279152D01*
X2439299Y2279266D01*
X2440561Y2280414D01*
X2441595Y2281792D01*
X2442398Y2283284D01*
X2443087Y2284662D01*
X2443546Y2285925D01*
X2443776Y2286958D01*
X2444005Y2287647D01*
Y2287762D01*
Y2287876D01*
X2410713Y2292354D01*
X2410599Y2293157D01*
X2410484Y2293846D01*
Y2294305D01*
Y2294535D01*
Y2296831D01*
X2410599Y2298782D01*
X2410713Y2300504D01*
X2410943Y2302226D01*
X2411173Y2303604D01*
X2411517Y2304752D01*
X2411747Y2305670D01*
X2411861Y2306130D01*
X2411976Y2306359D01*
X2412550Y2307966D01*
X2413239Y2309344D01*
X2414043Y2310607D01*
X2414731Y2311755D01*
X2415305Y2312558D01*
X2415879Y2313247D01*
X2416224Y2313706D01*
X2416339Y2313821D01*
X2417372Y2314969D01*
X2418520Y2315888D01*
X2419668Y2316691D01*
X2420816Y2317380D01*
X2421734Y2317954D01*
X2422538Y2318298D01*
X2422997Y2318528D01*
X2423227Y2318643D01*
X2424834Y2319217D01*
X2426441Y2319676D01*
X2428048Y2319906D01*
X2429541Y2320135D01*
X2430803Y2320250D01*
X2431837Y2320365D01*
X2432755D01*
X2434821Y2320250D01*
D02*
G37*
G36*
X2380406D02*
X2382243Y2320020D01*
X2383965Y2319676D01*
X2385457Y2319332D01*
X2386720Y2318987D01*
X2387639Y2318643D01*
X2388213Y2318413D01*
X2388442Y2318298D01*
X2390049Y2317495D01*
X2391542Y2316576D01*
X2392805Y2315658D01*
X2393953Y2314854D01*
X2394756Y2314051D01*
X2395445Y2313362D01*
X2395904Y2312903D01*
X2396019Y2312788D01*
X2397052Y2311410D01*
X2398085Y2309918D01*
X2398889Y2308540D01*
X2399578Y2307163D01*
X2400037Y2306015D01*
X2400381Y2304982D01*
X2400611Y2304408D01*
X2400726Y2304293D01*
Y2304178D01*
X2401300Y2302341D01*
X2401644Y2300390D01*
X2401989Y2298553D01*
X2402103Y2296831D01*
X2402218Y2295453D01*
X2402333Y2294305D01*
Y2293846D01*
Y2293502D01*
Y2293387D01*
Y2293272D01*
X2402218Y2291091D01*
X2402103Y2289139D01*
X2401874Y2287302D01*
X2401529Y2285580D01*
X2401185Y2284318D01*
X2400955Y2283284D01*
X2400841Y2282596D01*
X2400726Y2282481D01*
Y2282366D01*
X2400037Y2280529D01*
X2399233Y2278922D01*
X2398315Y2277430D01*
X2397511Y2276167D01*
X2396823Y2275134D01*
X2396249Y2274445D01*
X2395789Y2273871D01*
X2395675Y2273756D01*
X2394412Y2272493D01*
X2393034Y2271345D01*
X2391657Y2270427D01*
X2390394Y2269623D01*
X2389246Y2269049D01*
X2388327Y2268590D01*
X2387753Y2268360D01*
X2387524Y2268246D01*
X2385687Y2267557D01*
X2383735Y2267098D01*
X2381899Y2266753D01*
X2380062Y2266524D01*
X2378569Y2266409D01*
X2377307Y2266294D01*
X2374207D01*
X2372141Y2266409D01*
X2370304Y2266638D01*
X2368697Y2266868D01*
X2367434Y2266983D01*
X2366401Y2267212D01*
X2365712Y2267327D01*
X2365482D01*
X2363645Y2267786D01*
X2362038Y2268131D01*
X2360661Y2268590D01*
X2359398Y2269049D01*
X2358365Y2269394D01*
X2357676Y2269738D01*
X2357217Y2269853D01*
X2357102Y2269968D01*
X2360890Y2279726D01*
X2363071Y2278807D01*
X2364219Y2278348D01*
X2365253Y2278118D01*
X2366171Y2277774D01*
X2366860Y2277544D01*
X2367319Y2277430D01*
X2367549D01*
X2370304Y2276856D01*
X2371681Y2276741D01*
X2372829Y2276626D01*
X2373748Y2276511D01*
X2375240D01*
X2377307Y2276626D01*
X2379258Y2276970D01*
X2380865Y2277430D01*
X2382243Y2277889D01*
X2383391Y2278348D01*
X2384195Y2278807D01*
X2384654Y2279152D01*
X2384883Y2279266D01*
X2386146Y2280414D01*
X2387179Y2281792D01*
X2387983Y2283284D01*
X2388672Y2284662D01*
X2389131Y2285925D01*
X2389361Y2286958D01*
X2389590Y2287647D01*
Y2287762D01*
Y2287876D01*
X2356298Y2292354D01*
X2356183Y2293157D01*
X2356069Y2293846D01*
Y2294305D01*
Y2294535D01*
Y2296831D01*
X2356183Y2298782D01*
X2356298Y2300504D01*
X2356528Y2302226D01*
X2356757Y2303604D01*
X2357102Y2304752D01*
X2357331Y2305670D01*
X2357446Y2306130D01*
X2357561Y2306359D01*
X2358135Y2307966D01*
X2358824Y2309344D01*
X2359627Y2310607D01*
X2360316Y2311755D01*
X2360890Y2312558D01*
X2361464Y2313247D01*
X2361809Y2313706D01*
X2361923Y2313821D01*
X2362957Y2314969D01*
X2364105Y2315888D01*
X2365253Y2316691D01*
X2366401Y2317380D01*
X2367319Y2317954D01*
X2368123Y2318298D01*
X2368582Y2318528D01*
X2368811Y2318643D01*
X2370419Y2319217D01*
X2372026Y2319676D01*
X2373633Y2319906D01*
X2375125Y2320135D01*
X2376388Y2320250D01*
X2377421Y2320365D01*
X2378340D01*
X2380406Y2320250D01*
D02*
G37*
G36*
X2271346D02*
X2273183Y2320020D01*
X2274905Y2319676D01*
X2276397Y2319332D01*
X2277660Y2318987D01*
X2278579Y2318643D01*
X2279153Y2318413D01*
X2279382Y2318298D01*
X2280989Y2317495D01*
X2282482Y2316576D01*
X2283745Y2315658D01*
X2284893Y2314854D01*
X2285696Y2314051D01*
X2286385Y2313362D01*
X2286844Y2312903D01*
X2286959Y2312788D01*
X2287992Y2311410D01*
X2289025Y2309918D01*
X2289829Y2308540D01*
X2290518Y2307163D01*
X2290977Y2306015D01*
X2291321Y2304982D01*
X2291551Y2304408D01*
X2291666Y2304293D01*
Y2304178D01*
X2292240Y2302341D01*
X2292584Y2300390D01*
X2292929Y2298553D01*
X2293043Y2296831D01*
X2293158Y2295453D01*
X2293273Y2294305D01*
Y2293846D01*
Y2293502D01*
Y2293387D01*
Y2293272D01*
X2293158Y2291091D01*
X2293043Y2289139D01*
X2292814Y2287302D01*
X2292469Y2285580D01*
X2292125Y2284318D01*
X2291895Y2283284D01*
X2291781Y2282596D01*
X2291666Y2282481D01*
Y2282366D01*
X2290977Y2280529D01*
X2290173Y2278922D01*
X2289255Y2277430D01*
X2288451Y2276167D01*
X2287763Y2275134D01*
X2287189Y2274445D01*
X2286729Y2273871D01*
X2286615Y2273756D01*
X2285352Y2272493D01*
X2283974Y2271345D01*
X2282597Y2270427D01*
X2281334Y2269623D01*
X2280186Y2269049D01*
X2279267Y2268590D01*
X2278693Y2268360D01*
X2278464Y2268246D01*
X2276627Y2267557D01*
X2274675Y2267098D01*
X2272839Y2266753D01*
X2271002Y2266524D01*
X2269509Y2266409D01*
X2268247Y2266294D01*
X2265147D01*
X2263081Y2266409D01*
X2261244Y2266638D01*
X2259637Y2266868D01*
X2258374Y2266983D01*
X2257341Y2267212D01*
X2256652Y2267327D01*
X2256422D01*
X2254585Y2267786D01*
X2252978Y2268131D01*
X2251601Y2268590D01*
X2250338Y2269049D01*
X2249305Y2269394D01*
X2248616Y2269738D01*
X2248157Y2269853D01*
X2248042Y2269968D01*
X2251830Y2279726D01*
X2254011Y2278807D01*
X2255159Y2278348D01*
X2256193Y2278118D01*
X2257111Y2277774D01*
X2257800Y2277544D01*
X2258259Y2277430D01*
X2258489D01*
X2261244Y2276856D01*
X2262621Y2276741D01*
X2263769Y2276626D01*
X2264688Y2276511D01*
X2266180D01*
X2268247Y2276626D01*
X2270198Y2276970D01*
X2271805Y2277430D01*
X2273183Y2277889D01*
X2274331Y2278348D01*
X2275135Y2278807D01*
X2275594Y2279152D01*
X2275823Y2279266D01*
X2277086Y2280414D01*
X2278119Y2281792D01*
X2278923Y2283284D01*
X2279612Y2284662D01*
X2280071Y2285925D01*
X2280301Y2286958D01*
X2280530Y2287647D01*
Y2287762D01*
Y2287876D01*
X2247238Y2292354D01*
X2247123Y2293157D01*
X2247009Y2293846D01*
Y2294305D01*
Y2294535D01*
Y2296831D01*
X2247123Y2298782D01*
X2247238Y2300504D01*
X2247468Y2302226D01*
X2247697Y2303604D01*
X2248042Y2304752D01*
X2248271Y2305670D01*
X2248386Y2306130D01*
X2248501Y2306359D01*
X2249075Y2307966D01*
X2249764Y2309344D01*
X2250567Y2310607D01*
X2251256Y2311755D01*
X2251830Y2312558D01*
X2252404Y2313247D01*
X2252749Y2313706D01*
X2252863Y2313821D01*
X2253897Y2314969D01*
X2255045Y2315888D01*
X2256193Y2316691D01*
X2257341Y2317380D01*
X2258259Y2317954D01*
X2259063Y2318298D01*
X2259522Y2318528D01*
X2259751Y2318643D01*
X2261359Y2319217D01*
X2262966Y2319676D01*
X2264573Y2319906D01*
X2266065Y2320135D01*
X2267328Y2320250D01*
X2268361Y2320365D01*
X2269280D01*
X2271346Y2320250D01*
D02*
G37*
G36*
X2791964Y2338044D02*
X2793801Y2337814D01*
X2795408Y2337700D01*
X2796786Y2337470D01*
X2797819Y2337240D01*
X2798508Y2337126D01*
X2798737D01*
X2800574Y2336666D01*
X2802296Y2336207D01*
X2803789Y2335748D01*
X2805166Y2335404D01*
X2806314Y2334945D01*
X2807118Y2334715D01*
X2807577Y2334485D01*
X2807807Y2334370D01*
Y2267442D01*
X2794605D01*
Y2294420D01*
X2793686Y2294305D01*
X2792768Y2294191D01*
X2791964Y2294076D01*
X2791735D01*
X2790357Y2293961D01*
X2788176D01*
X2785765Y2294076D01*
X2783469Y2294191D01*
X2781403Y2294420D01*
X2779681Y2294765D01*
X2778303Y2295109D01*
X2777270Y2295338D01*
X2776581Y2295453D01*
X2776351Y2295568D01*
X2774515Y2296257D01*
X2772907Y2296946D01*
X2771415Y2297749D01*
X2770152Y2298438D01*
X2769234Y2299012D01*
X2768430Y2299586D01*
X2767971Y2299930D01*
X2767856Y2300045D01*
X2766593Y2301193D01*
X2765560Y2302456D01*
X2764757Y2303604D01*
X2763953Y2304637D01*
X2763379Y2305671D01*
X2763035Y2306359D01*
X2762805Y2306818D01*
X2762690Y2307048D01*
X2762116Y2308541D01*
X2761657Y2310148D01*
X2761427Y2311525D01*
X2761198Y2312903D01*
X2761083Y2314051D01*
X2760968Y2314969D01*
Y2315543D01*
Y2315773D01*
X2761083Y2317610D01*
X2761313Y2319447D01*
X2761657Y2321054D01*
X2762001Y2322661D01*
X2763149Y2325416D01*
X2763723Y2326679D01*
X2764412Y2327712D01*
X2765101Y2328745D01*
X2765675Y2329664D01*
X2766249Y2330352D01*
X2766823Y2330927D01*
X2767167Y2331501D01*
X2767512Y2331845D01*
X2767741Y2331960D01*
X2767856Y2332075D01*
X2769234Y2333108D01*
X2770726Y2334141D01*
X2772219Y2334945D01*
X2773826Y2335633D01*
X2777155Y2336666D01*
X2780369Y2337355D01*
X2781862Y2337700D01*
X2783239Y2337814D01*
X2784502Y2337929D01*
X2785535Y2338044D01*
X2786454Y2338159D01*
X2789898D01*
X2791964Y2338044D01*
D02*
G37*
G36*
X2544915Y2320135D02*
X2546866Y2320020D01*
X2548588Y2319791D01*
X2550081Y2319561D01*
X2551229Y2319446D01*
X2551917Y2319217D01*
X2552147D01*
X2554099Y2318758D01*
X2555821Y2318413D01*
X2557428Y2317954D01*
X2558805Y2317495D01*
X2559839Y2317150D01*
X2560757Y2316806D01*
X2561216Y2316691D01*
X2561446Y2316576D01*
Y2267442D01*
X2548473D01*
Y2308655D01*
X2547440Y2309000D01*
X2546522Y2309229D01*
X2545718Y2309459D01*
X2545489D01*
X2544226Y2309688D01*
X2543078Y2309803D01*
X2540667D01*
X2539634Y2309688D01*
X2538601Y2309574D01*
X2537797Y2309459D01*
X2536993Y2309229D01*
X2536534Y2309114D01*
X2536190Y2309000D01*
X2536075D01*
X2533664Y2319906D01*
X2534697Y2320020D01*
X2535616D01*
X2536305Y2320135D01*
X2536649D01*
X2537912Y2320250D01*
X2539175Y2320365D01*
X2542619D01*
X2544915Y2320135D01*
D02*
G37*
G36*
X2501061Y2267442D02*
X2487859D01*
Y2297060D01*
X2466736D01*
Y2308196D01*
X2487859D01*
Y2325646D01*
X2464555D01*
Y2336896D01*
X2501061D01*
Y2267442D01*
D02*
G37*
G36*
X2220490Y2320135D02*
X2222441Y2320020D01*
X2224163Y2319791D01*
X2225656Y2319561D01*
X2226804Y2319446D01*
X2227493Y2319217D01*
X2227722D01*
X2229674Y2318758D01*
X2231396Y2318413D01*
X2233003Y2317954D01*
X2234381Y2317495D01*
X2235414Y2317150D01*
X2236332Y2316806D01*
X2236791Y2316691D01*
X2237021Y2316576D01*
Y2267442D01*
X2224049D01*
Y2308655D01*
X2223015Y2309000D01*
X2222097Y2309229D01*
X2221293Y2309459D01*
X2221064D01*
X2219801Y2309688D01*
X2218653Y2309803D01*
X2216242D01*
X2215209Y2309688D01*
X2214176Y2309574D01*
X2213372Y2309459D01*
X2212569Y2309229D01*
X2212109Y2309114D01*
X2211765Y2309000D01*
X2211650D01*
X2209239Y2319906D01*
X2210273Y2320020D01*
X2211191D01*
X2211880Y2320135D01*
X2212224D01*
X2213487Y2320250D01*
X2214750Y2320365D01*
X2218194D01*
X2220490Y2320135D01*
D02*
G37*
G36*
X2121877Y2293961D02*
Y2284547D01*
X2090766D01*
Y2267442D01*
X2078597D01*
Y2284547D01*
X2071709D01*
Y2293961D01*
X2078597D01*
Y2336896D01*
X2092947D01*
X2121877Y2293961D01*
D02*
G37*
G36*
X1915351Y2282940D02*
X1916385Y2282710D01*
X1917073Y2282481D01*
X1917188Y2282366D01*
X1917303D01*
X1918336Y2281792D01*
X1919140Y2281218D01*
X1919714Y2280759D01*
X1919943Y2280529D01*
X1920632Y2279726D01*
X1921206Y2278922D01*
X1921551Y2278233D01*
X1921665Y2278118D01*
Y2278003D01*
X1922010Y2276856D01*
X1922239Y2275822D01*
X1922354Y2275363D01*
Y2275133D01*
Y2274904D01*
Y2274789D01*
X1922239Y2273526D01*
X1922010Y2272493D01*
X1921780Y2271804D01*
X1921665Y2271689D01*
Y2271575D01*
X1921091Y2270541D01*
X1920517Y2269738D01*
X1920058Y2269164D01*
X1919943Y2268934D01*
X1919025Y2268245D01*
X1918221Y2267786D01*
X1917533Y2267442D01*
X1917418Y2267327D01*
X1917303D01*
X1916155Y2266983D01*
X1915122Y2266753D01*
X1914663Y2266638D01*
X1914089D01*
X1912826Y2266753D01*
X1911793Y2266983D01*
X1911104Y2267212D01*
X1910989Y2267327D01*
X1910874D01*
X1909841Y2267786D01*
X1909037Y2268360D01*
X1908463Y2268820D01*
X1908234Y2268934D01*
X1907430Y2269853D01*
X1906971Y2270656D01*
X1906627Y2271345D01*
X1906512Y2271460D01*
Y2271575D01*
X1906053Y2272723D01*
X1905938Y2273756D01*
X1905823Y2274215D01*
Y2274445D01*
Y2274674D01*
Y2274789D01*
X1905938Y2276052D01*
X1906167Y2277085D01*
X1906397Y2277774D01*
X1906512Y2277889D01*
Y2278003D01*
X1906971Y2279037D01*
X1907545Y2279840D01*
X1908004Y2280300D01*
X1908234Y2280529D01*
X1909152Y2281333D01*
X1909956Y2281907D01*
X1910645Y2282251D01*
X1910759Y2282366D01*
X1910874D01*
X1912022Y2282825D01*
X1913055Y2282940D01*
X1913515Y2283055D01*
X1914089D01*
X1915351Y2282940D01*
D02*
G37*
G36*
X2732268Y2320250D02*
X2734105Y2320021D01*
X2735827Y2319676D01*
X2737319Y2319332D01*
X2738582Y2318987D01*
X2739501Y2318643D01*
X2740075Y2318413D01*
X2740304Y2318298D01*
X2741911Y2317495D01*
X2743289Y2316577D01*
X2744552Y2315543D01*
X2745585Y2314625D01*
X2746503Y2313821D01*
X2747077Y2313133D01*
X2747537Y2312673D01*
X2747651Y2312559D01*
X2748685Y2311181D01*
X2749603Y2309689D01*
X2750407Y2308311D01*
X2750981Y2306933D01*
X2751440Y2305785D01*
X2751899Y2304867D01*
X2752014Y2304293D01*
X2752129Y2304178D01*
Y2304063D01*
X2752588Y2302227D01*
X2752932Y2300275D01*
X2753277Y2298438D01*
X2753391Y2296831D01*
X2753506Y2295338D01*
X2753621Y2294305D01*
Y2293846D01*
Y2293502D01*
Y2293387D01*
Y2293272D01*
X2753506Y2291206D01*
X2753391Y2289139D01*
X2753162Y2287302D01*
X2752817Y2285695D01*
X2752588Y2284432D01*
X2752358Y2283399D01*
X2752243Y2282711D01*
X2752129Y2282596D01*
Y2282481D01*
X2751555Y2280644D01*
X2750751Y2279037D01*
X2750062Y2277544D01*
X2749373Y2276282D01*
X2748685Y2275249D01*
X2748111Y2274560D01*
X2747766Y2273986D01*
X2747651Y2273871D01*
X2746503Y2272608D01*
X2745241Y2271460D01*
X2743978Y2270542D01*
X2742830Y2269738D01*
X2741797Y2269049D01*
X2740993Y2268590D01*
X2740534Y2268360D01*
X2740304Y2268246D01*
X2738582Y2267557D01*
X2736860Y2267098D01*
X2735138Y2266753D01*
X2733531Y2266524D01*
X2732268Y2266409D01*
X2731120Y2266294D01*
X2730202D01*
X2728135Y2266409D01*
X2726299Y2266638D01*
X2724577Y2266868D01*
X2723084Y2267327D01*
X2721936Y2267672D01*
X2721018Y2267901D01*
X2720444Y2268131D01*
X2720214Y2268246D01*
X2718607Y2269049D01*
X2717229Y2269968D01*
X2715967Y2270886D01*
X2714933Y2271804D01*
X2714015Y2272608D01*
X2713441Y2273297D01*
X2712982Y2273756D01*
X2712867Y2273871D01*
X2711834Y2275248D01*
X2710915Y2276741D01*
X2710112Y2278233D01*
X2709538Y2279611D01*
X2708964Y2280759D01*
X2708619Y2281677D01*
X2708505Y2282251D01*
X2708390Y2282481D01*
X2707816Y2284432D01*
X2707471Y2286269D01*
X2707127Y2288106D01*
X2707012Y2289828D01*
X2706897Y2291206D01*
X2706783Y2292354D01*
Y2292698D01*
Y2293042D01*
Y2293157D01*
Y2293272D01*
X2706897Y2295453D01*
X2707012Y2297405D01*
X2707242Y2299242D01*
X2707586Y2300849D01*
X2707931Y2302226D01*
X2708160Y2303260D01*
X2708275Y2303834D01*
X2708390Y2304063D01*
X2708964Y2305900D01*
X2709767Y2307507D01*
X2710456Y2308885D01*
X2711145Y2310148D01*
X2711834Y2311181D01*
X2712408Y2311984D01*
X2712752Y2312444D01*
X2712867Y2312558D01*
X2714015Y2313821D01*
X2715278Y2314969D01*
X2716541Y2316002D01*
X2717689Y2316806D01*
X2718722Y2317495D01*
X2719525Y2317954D01*
X2719985Y2318184D01*
X2720214Y2318298D01*
X2721936Y2318987D01*
X2723658Y2319446D01*
X2725265Y2319906D01*
X2726873Y2320135D01*
X2728135Y2320250D01*
X2729283Y2320365D01*
X2730202D01*
X2732268Y2320250D01*
D02*
G37*
G36*
X2316348Y2318643D02*
X2317381Y2318987D01*
X2318529Y2319217D01*
X2318988D01*
X2319333Y2319332D01*
X2319677D01*
X2321169Y2319561D01*
X2322432Y2319676D01*
X2323695D01*
X2325876Y2319561D01*
X2327828Y2319332D01*
X2329665Y2319102D01*
X2331157Y2318758D01*
X2332535Y2318298D01*
X2333453Y2318069D01*
X2334027Y2317839D01*
X2334257Y2317724D01*
X2335864Y2316921D01*
X2337356Y2316002D01*
X2338619Y2315084D01*
X2339767Y2314280D01*
X2340571Y2313477D01*
X2341259Y2312788D01*
X2341719Y2312329D01*
X2341833Y2312214D01*
X2342867Y2310836D01*
X2343900Y2309459D01*
X2344589Y2308081D01*
X2345277Y2306704D01*
X2345737Y2305556D01*
X2346196Y2304637D01*
X2346311Y2304063D01*
X2346425Y2303948D01*
Y2303834D01*
X2346885Y2301997D01*
X2347229Y2300045D01*
X2347573Y2298208D01*
X2347688Y2296486D01*
X2347803Y2295109D01*
X2347918Y2293961D01*
Y2293502D01*
Y2293157D01*
Y2293042D01*
Y2292928D01*
X2347803Y2290632D01*
X2347688Y2288450D01*
X2347344Y2286384D01*
X2346885Y2284547D01*
X2346425Y2282825D01*
X2345851Y2281218D01*
X2345277Y2279726D01*
X2344589Y2278348D01*
X2344015Y2277200D01*
X2343441Y2276167D01*
X2342867Y2275363D01*
X2342407Y2274560D01*
X2341948Y2273986D01*
X2341604Y2273641D01*
X2341489Y2273412D01*
X2341374Y2273297D01*
X2340111Y2272034D01*
X2338619Y2271001D01*
X2337127Y2270082D01*
X2335519Y2269279D01*
X2333912Y2268590D01*
X2332305Y2268016D01*
X2329205Y2267212D01*
X2327828Y2266868D01*
X2326450Y2266638D01*
X2325187Y2266524D01*
X2324154Y2266409D01*
X2323351Y2266294D01*
X2319907D01*
X2317840Y2266524D01*
X2316003Y2266638D01*
X2314281Y2266868D01*
X2313019Y2267098D01*
X2311985Y2267212D01*
X2311297Y2267442D01*
X2311067D01*
X2309230Y2267901D01*
X2307738Y2268246D01*
X2306360Y2268705D01*
X2305212Y2269049D01*
X2304294Y2269394D01*
X2303720Y2269738D01*
X2303261Y2269853D01*
X2303146Y2269968D01*
Y2342866D01*
X2316348D01*
Y2318643D01*
D02*
G37*
G36*
X1874483Y2338044D02*
X1876549Y2337700D01*
X1878386Y2337240D01*
X1879993Y2336781D01*
X1881256Y2336322D01*
X1882289Y2335863D01*
X1882863Y2335518D01*
X1883093Y2335403D01*
X1884700Y2334256D01*
X1886192Y2332993D01*
X1887455Y2331730D01*
X1888488Y2330582D01*
X1889407Y2329434D01*
X1889981Y2328515D01*
X1890440Y2327941D01*
X1890555Y2327827D01*
Y2327712D01*
X1891588Y2325875D01*
X1892391Y2323923D01*
X1893195Y2321972D01*
X1893769Y2320250D01*
X1894228Y2318643D01*
X1894573Y2317495D01*
X1894687Y2317035D01*
Y2316691D01*
X1894802Y2316461D01*
Y2316347D01*
X1895261Y2313821D01*
X1895606Y2311410D01*
X1895835Y2308999D01*
X1895950Y2306818D01*
X1896065Y2304981D01*
X1896180Y2304178D01*
Y2303489D01*
Y2302915D01*
Y2302571D01*
Y2302341D01*
Y2302226D01*
X1896065Y2299356D01*
X1895950Y2296716D01*
X1895721Y2294305D01*
X1895491Y2292239D01*
X1895261Y2290517D01*
X1895147Y2289713D01*
X1895032Y2289139D01*
X1894917Y2288680D01*
X1894802Y2288336D01*
Y2288106D01*
Y2287991D01*
X1894228Y2285580D01*
X1893539Y2283399D01*
X1892851Y2281448D01*
X1892162Y2279840D01*
X1891588Y2278463D01*
X1891014Y2277430D01*
X1890669Y2276741D01*
X1890555Y2276626D01*
Y2276511D01*
X1889407Y2274789D01*
X1888144Y2273297D01*
X1886881Y2272034D01*
X1885733Y2270886D01*
X1884700Y2270082D01*
X1883896Y2269394D01*
X1883322Y2269049D01*
X1883093Y2268934D01*
X1881256Y2268016D01*
X1879419Y2267442D01*
X1877582Y2266983D01*
X1875860Y2266638D01*
X1874368Y2266409D01*
X1873220Y2266294D01*
X1872187D01*
X1869891Y2266409D01*
X1867824Y2266753D01*
X1865987Y2267097D01*
X1864380Y2267671D01*
X1863117Y2268131D01*
X1862084Y2268475D01*
X1861510Y2268820D01*
X1861281Y2268934D01*
X1859673Y2270082D01*
X1858181Y2271230D01*
X1856918Y2272493D01*
X1855770Y2273756D01*
X1854967Y2274789D01*
X1854278Y2275707D01*
X1853933Y2276282D01*
X1853819Y2276511D01*
X1852785Y2278463D01*
X1851982Y2280414D01*
X1851178Y2282366D01*
X1850604Y2284088D01*
X1850145Y2285695D01*
X1849801Y2286843D01*
X1849686Y2287302D01*
Y2287647D01*
X1849571Y2287876D01*
Y2287991D01*
X1849112Y2290517D01*
X1848767Y2292927D01*
X1848538Y2295338D01*
X1848308Y2297519D01*
Y2299471D01*
X1848193Y2300275D01*
Y2300963D01*
Y2301423D01*
Y2301882D01*
Y2302111D01*
Y2302226D01*
Y2304981D01*
X1848423Y2307622D01*
X1848653Y2310033D01*
X1848882Y2312099D01*
X1849112Y2313936D01*
X1849227Y2314625D01*
X1849341Y2315199D01*
X1849456Y2315658D01*
Y2316002D01*
X1849571Y2316232D01*
Y2316347D01*
X1850145Y2318758D01*
X1850834Y2320939D01*
X1851523Y2322776D01*
X1852211Y2324497D01*
X1852785Y2325875D01*
X1853359Y2326908D01*
X1853704Y2327482D01*
X1853819Y2327712D01*
X1854967Y2329434D01*
X1856229Y2331041D01*
X1857492Y2332304D01*
X1858640Y2333452D01*
X1859673Y2334256D01*
X1860477Y2334944D01*
X1861051Y2335289D01*
X1861281Y2335403D01*
X1863117Y2336322D01*
X1864954Y2337011D01*
X1866791Y2337470D01*
X1868398Y2337814D01*
X1869891Y2338044D01*
X1871153Y2338159D01*
X1872187D01*
X1874483Y2338044D01*
D02*
G37*
G36*
X2645996Y2179505D02*
X2644733Y2178931D01*
X2643470Y2178472D01*
X2642093Y2178013D01*
X2640830Y2177668D01*
X2639797Y2177439D01*
X2638878Y2177209D01*
X2638304Y2176980D01*
X2638075D01*
X2634401Y2176291D01*
X2632679Y2176061D01*
X2631072Y2175946D01*
X2629694D01*
X2628661Y2175832D01*
X2627743D01*
X2625447Y2175946D01*
X2623380Y2176176D01*
X2621314Y2176520D01*
X2619477Y2176865D01*
X2617755Y2177439D01*
X2616148Y2178013D01*
X2614656Y2178587D01*
X2613393Y2179276D01*
X2612245Y2179964D01*
X2611212Y2180538D01*
X2610293Y2181112D01*
X2609604Y2181686D01*
X2609030Y2182031D01*
X2608686Y2182375D01*
X2608456Y2182605D01*
X2608342Y2182720D01*
X2607079Y2184097D01*
X2606046Y2185590D01*
X2605012Y2187312D01*
X2604209Y2189034D01*
X2603520Y2190756D01*
X2602946Y2192592D01*
X2602142Y2196036D01*
X2601798Y2197644D01*
X2601568Y2199251D01*
X2601454Y2200628D01*
X2601339Y2201776D01*
X2601224Y2202810D01*
Y2203498D01*
Y2204072D01*
Y2204187D01*
X2601339Y2206368D01*
X2601454Y2208320D01*
X2601798Y2210157D01*
X2602028Y2211764D01*
X2602372Y2213027D01*
X2602716Y2213945D01*
X2602831Y2214519D01*
X2602946Y2214749D01*
X2603635Y2216471D01*
X2604324Y2217963D01*
X2605127Y2219341D01*
X2605816Y2220489D01*
X2606505Y2221407D01*
X2607079Y2222096D01*
X2607423Y2222555D01*
X2607538Y2222670D01*
X2608686Y2223818D01*
X2609949Y2224851D01*
X2611097Y2225770D01*
X2612245Y2226458D01*
X2613278Y2227032D01*
X2614082Y2227377D01*
X2614541Y2227606D01*
X2614770Y2227721D01*
X2616378Y2228295D01*
X2617870Y2228754D01*
X2619477Y2228984D01*
X2620855Y2229214D01*
X2622003Y2229328D01*
X2623036Y2229443D01*
X2623840D01*
X2625562Y2229328D01*
X2627169Y2229214D01*
X2627858Y2229099D01*
X2628317Y2228984D01*
X2628661Y2228869D01*
X2628776D01*
X2630498Y2228525D01*
X2631187Y2228295D01*
X2631876Y2228066D01*
X2632335Y2227836D01*
X2632679Y2227721D01*
X2632909Y2227606D01*
X2633024D01*
Y2252403D01*
X2645996D01*
Y2179505D01*
D02*
G37*
G36*
X2700870Y2176980D02*
X2687898D01*
Y2217389D01*
X2686635Y2217963D01*
X2685487Y2218422D01*
X2685028Y2218537D01*
X2684684Y2218652D01*
X2684454Y2218767D01*
X2684339D01*
X2682847Y2219111D01*
X2681584Y2219226D01*
X2681010Y2219341D01*
X2680321D01*
X2678714Y2219226D01*
X2677336Y2218996D01*
X2676188Y2218652D01*
X2675155Y2218308D01*
X2674466Y2217848D01*
X2673892Y2217504D01*
X2673548Y2217274D01*
X2673433Y2217160D01*
X2672630Y2216241D01*
X2671941Y2215323D01*
X2671482Y2214175D01*
X2671252Y2213142D01*
X2671022Y2212223D01*
X2670908Y2211420D01*
Y2210960D01*
Y2210731D01*
Y2176980D01*
X2657820D01*
Y2212108D01*
Y2213601D01*
X2658050Y2215093D01*
X2658624Y2217734D01*
X2659428Y2219915D01*
X2660346Y2221752D01*
X2661264Y2223244D01*
X2662068Y2224277D01*
X2662642Y2224851D01*
X2662757Y2225081D01*
X2662872D01*
X2664938Y2226573D01*
X2667119Y2227721D01*
X2669530Y2228525D01*
X2671826Y2228984D01*
X2673778Y2229328D01*
X2674696Y2229443D01*
X2675500D01*
X2676074Y2229558D01*
X2676992D01*
X2679058Y2229443D01*
X2680092Y2229328D01*
X2680895Y2229214D01*
X2681699Y2229099D01*
X2682273Y2228984D01*
X2682617Y2228869D01*
X2682732D01*
X2684798Y2228295D01*
X2685602Y2228066D01*
X2686406Y2227721D01*
X2686980Y2227492D01*
X2687439Y2227377D01*
X2687783Y2227147D01*
X2687898D01*
Y2252403D01*
X2700870D01*
Y2176980D01*
D02*
G37*
G36*
X2797762Y2229673D02*
X2799598Y2229558D01*
X2801206Y2229329D01*
X2802583Y2229099D01*
X2803616Y2228869D01*
X2804305Y2228755D01*
X2804420Y2228640D01*
X2804535D01*
X2806372Y2228180D01*
X2807979Y2227721D01*
X2809471Y2227377D01*
X2810619Y2226918D01*
X2811652Y2226573D01*
X2812341Y2226344D01*
X2812800Y2226229D01*
X2812915Y2226114D01*
X2809701Y2217274D01*
X2808668Y2217734D01*
X2807634Y2217963D01*
X2806831Y2218193D01*
X2806716Y2218308D01*
X2806601D01*
X2805224Y2218767D01*
X2804076Y2218997D01*
X2803616Y2219226D01*
X2803272D01*
X2803042Y2219341D01*
X2802928D01*
X2801435Y2219685D01*
X2800287Y2219915D01*
X2799713D01*
X2799369Y2220030D01*
X2799024D01*
X2797532Y2220259D01*
X2796269Y2220374D01*
X2795121D01*
X2793514Y2220259D01*
X2792136Y2220144D01*
X2790988Y2219800D01*
X2789955Y2219570D01*
X2789152Y2219226D01*
X2788578Y2218882D01*
X2788233Y2218767D01*
X2788118Y2218652D01*
X2787200Y2217963D01*
X2786626Y2217045D01*
X2786167Y2216126D01*
X2785822Y2215208D01*
X2785593Y2214290D01*
X2785478Y2213601D01*
Y2213142D01*
Y2212912D01*
Y2210272D01*
X2787659Y2210157D01*
X2789726Y2209927D01*
X2791677Y2209698D01*
X2793399Y2209468D01*
X2794777Y2209353D01*
X2795925Y2209124D01*
X2796614Y2209009D01*
X2796843D01*
X2798795Y2208664D01*
X2800632Y2208205D01*
X2802239Y2207746D01*
X2803731Y2207287D01*
X2804879Y2206943D01*
X2805683Y2206598D01*
X2806257Y2206369D01*
X2806486Y2206254D01*
X2807979Y2205565D01*
X2809356Y2204646D01*
X2810504Y2203843D01*
X2811423Y2203039D01*
X2812226Y2202236D01*
X2812800Y2201662D01*
X2813145Y2201202D01*
X2813260Y2201088D01*
X2814063Y2199710D01*
X2814752Y2198332D01*
X2815211Y2196955D01*
X2815441Y2195577D01*
X2815670Y2194314D01*
X2815785Y2193396D01*
Y2192707D01*
Y2192593D01*
Y2192478D01*
X2815670Y2190985D01*
X2815556Y2189722D01*
X2814867Y2187197D01*
X2813948Y2185131D01*
X2812915Y2183409D01*
X2811882Y2182031D01*
X2810964Y2180998D01*
X2810275Y2180424D01*
X2810160Y2180194D01*
X2810045D01*
X2808897Y2179390D01*
X2807634Y2178702D01*
X2804879Y2177669D01*
X2801894Y2176865D01*
X2799024Y2176406D01*
X2797762Y2176176D01*
X2796499Y2176061D01*
X2795351Y2175947D01*
X2794432D01*
X2793629Y2175832D01*
X2790300D01*
X2788233Y2176061D01*
X2786396Y2176176D01*
X2784674Y2176406D01*
X2783297Y2176635D01*
X2782264Y2176750D01*
X2781575Y2176980D01*
X2781345D01*
X2779394Y2177439D01*
X2777786Y2177783D01*
X2776409Y2178242D01*
X2775146Y2178587D01*
X2774228Y2178931D01*
X2773654Y2179276D01*
X2773194Y2179390D01*
X2773080Y2179505D01*
Y2211420D01*
Y2213256D01*
X2773309Y2214864D01*
X2773539Y2216356D01*
X2773883Y2217849D01*
X2774342Y2219111D01*
X2774802Y2220259D01*
X2775261Y2221293D01*
X2775720Y2222211D01*
X2776294Y2223015D01*
X2776753Y2223703D01*
X2777672Y2224736D01*
X2778246Y2225311D01*
X2778360Y2225540D01*
X2778475D01*
X2780656Y2227032D01*
X2783182Y2228066D01*
X2785708Y2228869D01*
X2788118Y2229329D01*
X2790300Y2229673D01*
X2791333Y2229788D01*
X2792136D01*
X2792825Y2229903D01*
X2795810D01*
X2797762Y2229673D01*
D02*
G37*
G36*
X2316520Y2229673D02*
X2318357Y2229558D01*
X2319964Y2229328D01*
X2321342Y2229099D01*
X2322375Y2228869D01*
X2323064Y2228754D01*
X2323178Y2228640D01*
X2323293D01*
X2325130Y2228180D01*
X2326737Y2227721D01*
X2328230Y2227377D01*
X2329378Y2226918D01*
X2330411Y2226573D01*
X2331100Y2226344D01*
X2331559Y2226229D01*
X2331674Y2226114D01*
X2328459Y2217274D01*
X2327426Y2217734D01*
X2326393Y2217963D01*
X2325589Y2218193D01*
X2325474Y2218308D01*
X2325360D01*
X2323982Y2218767D01*
X2322834Y2218996D01*
X2322375Y2219226D01*
X2322030D01*
X2321801Y2219341D01*
X2321686D01*
X2320194Y2219685D01*
X2319046Y2219915D01*
X2318472D01*
X2318127Y2220030D01*
X2317783D01*
X2316290Y2220259D01*
X2315028Y2220374D01*
X2313880D01*
X2312272Y2220259D01*
X2310895Y2220144D01*
X2309747Y2219800D01*
X2308714Y2219570D01*
X2307910Y2219226D01*
X2307336Y2218882D01*
X2306992Y2218767D01*
X2306877Y2218652D01*
X2305958Y2217963D01*
X2305384Y2217045D01*
X2304925Y2216126D01*
X2304581Y2215208D01*
X2304351Y2214290D01*
X2304236Y2213601D01*
Y2213142D01*
Y2212912D01*
Y2210272D01*
X2306418Y2210157D01*
X2308484Y2209927D01*
X2310436Y2209698D01*
X2312158Y2209468D01*
X2313535Y2209353D01*
X2314683Y2209124D01*
X2315372Y2209009D01*
X2315602D01*
X2317553Y2208664D01*
X2319390Y2208205D01*
X2320997Y2207746D01*
X2322490Y2207287D01*
X2323638Y2206942D01*
X2324441Y2206598D01*
X2325015Y2206368D01*
X2325245Y2206254D01*
X2326737Y2205565D01*
X2328115Y2204646D01*
X2329263Y2203843D01*
X2330181Y2203039D01*
X2330985Y2202236D01*
X2331559Y2201662D01*
X2331903Y2201202D01*
X2332018Y2201088D01*
X2332822Y2199710D01*
X2333510Y2198332D01*
X2333970Y2196955D01*
X2334199Y2195577D01*
X2334429Y2194314D01*
X2334544Y2193396D01*
Y2192707D01*
Y2192592D01*
Y2192478D01*
X2334429Y2190985D01*
X2334314Y2189722D01*
X2333625Y2187197D01*
X2332707Y2185130D01*
X2331674Y2183408D01*
X2330640Y2182031D01*
X2329722Y2180998D01*
X2329033Y2180424D01*
X2328918Y2180194D01*
X2328804D01*
X2327656Y2179390D01*
X2326393Y2178702D01*
X2323638Y2177668D01*
X2320653Y2176865D01*
X2317783Y2176406D01*
X2316520Y2176176D01*
X2315257Y2176061D01*
X2314109Y2175946D01*
X2313191D01*
X2312387Y2175832D01*
X2309058D01*
X2306992Y2176061D01*
X2305155Y2176176D01*
X2303433Y2176406D01*
X2302055Y2176635D01*
X2301022Y2176750D01*
X2300333Y2176980D01*
X2300104D01*
X2298152Y2177439D01*
X2296545Y2177783D01*
X2295167Y2178242D01*
X2293904Y2178587D01*
X2292986Y2178931D01*
X2292412Y2179276D01*
X2291953Y2179390D01*
X2291838Y2179505D01*
Y2211420D01*
Y2213256D01*
X2292068Y2214864D01*
X2292297Y2216356D01*
X2292642Y2217848D01*
X2293101Y2219111D01*
X2293560Y2220259D01*
X2294019Y2221292D01*
X2294478Y2222211D01*
X2295052Y2223014D01*
X2295512Y2223703D01*
X2296430Y2224736D01*
X2297004Y2225310D01*
X2297119Y2225540D01*
X2297234D01*
X2299415Y2227032D01*
X2301940Y2228066D01*
X2304466Y2228869D01*
X2306877Y2229328D01*
X2309058Y2229673D01*
X2310091Y2229788D01*
X2310895D01*
X2311584Y2229902D01*
X2314568D01*
X2316520Y2229673D01*
D02*
G37*
G36*
X2037671Y2202580D02*
X2010119D01*
Y2213715D01*
X2037671D01*
Y2202580D01*
D02*
G37*
G36*
X1776960Y2247581D02*
X1779026Y2247352D01*
X1780863Y2247008D01*
X1782470Y2246548D01*
X1783733Y2246089D01*
X1784766Y2245745D01*
X1785455Y2245515D01*
X1785570Y2245400D01*
X1785685D01*
X1787522Y2244482D01*
X1789129Y2243449D01*
X1790621Y2242301D01*
X1791884Y2241267D01*
X1792917Y2240234D01*
X1793721Y2239431D01*
X1794180Y2238972D01*
X1794410Y2238742D01*
X1795672Y2237020D01*
X1796820Y2235068D01*
X1797854Y2233231D01*
X1798657Y2231395D01*
X1799346Y2229902D01*
X1799805Y2228640D01*
X1800035Y2228180D01*
X1800150Y2227836D01*
X1800264Y2227606D01*
Y2227492D01*
X1800953Y2224851D01*
X1801527Y2222211D01*
X1801872Y2219570D01*
X1802216Y2217045D01*
X1802331Y2214978D01*
Y2214060D01*
X1802446Y2213256D01*
Y2212682D01*
Y2212108D01*
Y2211879D01*
Y2211764D01*
X1802331Y2208435D01*
X1802101Y2205450D01*
X1801757Y2202695D01*
X1801298Y2200399D01*
X1801183Y2199365D01*
X1800953Y2198447D01*
X1800724Y2197644D01*
X1800609Y2197070D01*
X1800494Y2196495D01*
X1800379Y2196151D01*
X1800264Y2195921D01*
Y2195807D01*
X1799346Y2193396D01*
X1798428Y2191215D01*
X1797394Y2189378D01*
X1796476Y2187771D01*
X1795672Y2186393D01*
X1794984Y2185475D01*
X1794524Y2184901D01*
X1794410Y2184671D01*
X1792917Y2183064D01*
X1791425Y2181801D01*
X1789932Y2180653D01*
X1788670Y2179620D01*
X1787407Y2178931D01*
X1786488Y2178472D01*
X1785914Y2178128D01*
X1785685Y2178013D01*
X1783733Y2177324D01*
X1781896Y2176750D01*
X1780060Y2176405D01*
X1778338Y2176061D01*
X1776960Y2175946D01*
X1775812Y2175831D01*
X1774894D01*
X1771679Y2175946D01*
X1768809Y2176405D01*
X1766284Y2176979D01*
X1763988Y2177668D01*
X1762266Y2178357D01*
X1761462Y2178702D01*
X1760888Y2178931D01*
X1760429Y2179161D01*
X1760084Y2179390D01*
X1759855Y2179505D01*
X1759740D01*
X1763988Y2190526D01*
X1765365Y2189722D01*
X1766743Y2189148D01*
X1767317Y2188919D01*
X1767776Y2188689D01*
X1768006Y2188574D01*
X1768120D01*
X1769842Y2188230D01*
X1771564Y2188000D01*
X1772253Y2187885D01*
X1773286D01*
X1774549Y2188000D01*
X1775697Y2188115D01*
X1777764Y2188804D01*
X1779715Y2189722D01*
X1781322Y2190870D01*
X1782585Y2192018D01*
X1783504Y2192937D01*
X1784078Y2193626D01*
X1784307Y2193740D01*
Y2193855D01*
X1784996Y2195118D01*
X1785685Y2196381D01*
X1786718Y2199251D01*
X1787522Y2202235D01*
X1787981Y2205106D01*
X1788210Y2206483D01*
X1788325Y2207746D01*
X1788440Y2208894D01*
Y2209812D01*
X1788555Y2210616D01*
Y2211305D01*
Y2211649D01*
Y2211764D01*
Y2213945D01*
X1788325Y2216012D01*
X1788210Y2217848D01*
X1787866Y2219570D01*
X1787522Y2221292D01*
X1787177Y2222670D01*
X1786833Y2224048D01*
X1786374Y2225310D01*
X1786029Y2226343D01*
X1785685Y2227262D01*
X1785340Y2228066D01*
X1784996Y2228640D01*
X1784652Y2229099D01*
X1784537Y2229558D01*
X1784307Y2229673D01*
Y2229787D01*
X1783504Y2230821D01*
X1782585Y2231854D01*
X1781667Y2232657D01*
X1780748Y2233346D01*
X1778912Y2234380D01*
X1777190Y2235068D01*
X1775582Y2235528D01*
X1774434Y2235757D01*
X1773975Y2235872D01*
X1773286D01*
X1771220Y2235757D01*
X1770416Y2235642D01*
X1769613Y2235528D01*
X1769039Y2235298D01*
X1768465Y2235183D01*
X1768235Y2235068D01*
X1768120D01*
X1766513Y2234380D01*
X1765136Y2233805D01*
X1764676Y2233576D01*
X1764332Y2233346D01*
X1764102Y2233117D01*
X1763988D01*
X1759740Y2243908D01*
X1762266Y2245171D01*
X1764791Y2246089D01*
X1767317Y2246778D01*
X1769728Y2247237D01*
X1771794Y2247467D01*
X1772712Y2247581D01*
X1773401Y2247696D01*
X1774894D01*
X1776960Y2247581D01*
D02*
G37*
G36*
X2899704Y2240235D02*
Y2228755D01*
X2906362D01*
Y2218882D01*
X2899704D01*
Y2192478D01*
X2899589Y2189608D01*
X2899130Y2187197D01*
X2898556Y2185016D01*
X2897867Y2183294D01*
X2897293Y2182031D01*
X2896719Y2181113D01*
X2896260Y2180539D01*
X2896145Y2180309D01*
X2894653Y2178931D01*
X2892931Y2178013D01*
X2891094Y2177324D01*
X2889257Y2176750D01*
X2887535Y2176521D01*
X2886272Y2176406D01*
X2885698Y2176291D01*
X2885010D01*
X2883288Y2176406D01*
X2881910Y2176521D01*
X2881336D01*
X2880877Y2176635D01*
X2880532D01*
X2879040Y2176980D01*
X2878007Y2177209D01*
X2877433Y2177439D01*
X2877203Y2177554D01*
Y2188460D01*
X2877662Y2188230D01*
X2878236Y2188001D01*
X2878581Y2187886D01*
X2878810D01*
X2879614Y2187771D01*
X2880188Y2187656D01*
X2880877D01*
X2881795Y2187771D01*
X2882599Y2187886D01*
X2883288Y2188115D01*
X2883976Y2188345D01*
X2884436Y2188575D01*
X2884780Y2188689D01*
X2885010Y2188919D01*
X2885124D01*
X2885698Y2189493D01*
X2886158Y2190182D01*
X2886387Y2190870D01*
X2886617Y2191674D01*
X2886732Y2192363D01*
X2886846Y2192822D01*
Y2193281D01*
Y2193396D01*
Y2218882D01*
X2877203D01*
Y2228755D01*
X2886846D01*
Y2244023D01*
X2899704Y2240235D01*
D02*
G37*
G36*
X2732785D02*
Y2228755D01*
X2739443D01*
Y2218882D01*
X2732785D01*
Y2192478D01*
X2732670Y2189608D01*
X2732211Y2187197D01*
X2731637Y2185016D01*
X2730948Y2183294D01*
X2730374Y2182031D01*
X2729800Y2181113D01*
X2729341Y2180539D01*
X2729226Y2180309D01*
X2727734Y2178931D01*
X2726012Y2178013D01*
X2724175Y2177324D01*
X2722338Y2176750D01*
X2720616Y2176520D01*
X2719353Y2176406D01*
X2718779Y2176291D01*
X2718090D01*
X2716368Y2176406D01*
X2714991Y2176520D01*
X2714417D01*
X2713958Y2176635D01*
X2713613D01*
X2712121Y2176980D01*
X2711088Y2177209D01*
X2710514Y2177439D01*
X2710284Y2177554D01*
Y2188460D01*
X2710743Y2188230D01*
X2711317Y2188000D01*
X2711662Y2187886D01*
X2711891D01*
X2712695Y2187771D01*
X2713269Y2187656D01*
X2713958D01*
X2714876Y2187771D01*
X2715680Y2187886D01*
X2716368Y2188115D01*
X2717057Y2188345D01*
X2717516Y2188574D01*
X2717861Y2188689D01*
X2718090Y2188919D01*
X2718205D01*
X2718779Y2189493D01*
X2719238Y2190182D01*
X2719468Y2190870D01*
X2719698Y2191674D01*
X2719812Y2192363D01*
X2719927Y2192822D01*
Y2193281D01*
Y2193396D01*
Y2218882D01*
X2710284D01*
Y2228754D01*
X2719927D01*
Y2244023D01*
X2732785Y2240235D01*
D02*
G37*
G36*
X2205394Y2197529D02*
X2205279Y2195577D01*
X2205164Y2193855D01*
X2204820Y2192248D01*
X2204475Y2190870D01*
X2204246Y2189837D01*
X2203901Y2188919D01*
X2203786Y2188460D01*
X2203672Y2188230D01*
X2202868Y2186852D01*
X2202064Y2185590D01*
X2201261Y2184442D01*
X2200457Y2183408D01*
X2199768Y2182605D01*
X2199194Y2182031D01*
X2198735Y2181686D01*
X2198620Y2181572D01*
X2197358Y2180653D01*
X2196095Y2179735D01*
X2194832Y2179046D01*
X2193684Y2178472D01*
X2192651Y2178013D01*
X2191847Y2177668D01*
X2191388Y2177554D01*
X2191158Y2177439D01*
X2189551Y2176980D01*
X2187829Y2176635D01*
X2186222Y2176406D01*
X2184844Y2176291D01*
X2183582Y2176176D01*
X2182548Y2176061D01*
X2181745D01*
X2179908Y2176176D01*
X2178071Y2176291D01*
X2176464Y2176520D01*
X2175086Y2176750D01*
X2173938Y2176980D01*
X2173020Y2177209D01*
X2172561Y2177439D01*
X2172331D01*
X2170724Y2178013D01*
X2169346Y2178702D01*
X2168084Y2179390D01*
X2166936Y2180079D01*
X2166132Y2180653D01*
X2165443Y2181112D01*
X2164984Y2181457D01*
X2164869Y2181572D01*
X2163721Y2182605D01*
X2162688Y2183753D01*
X2161884Y2184901D01*
X2161081Y2185934D01*
X2160622Y2186852D01*
X2160162Y2187541D01*
X2159933Y2188115D01*
X2159818Y2188230D01*
X2159244Y2189837D01*
X2158785Y2191330D01*
X2158440Y2192937D01*
X2158211Y2194429D01*
X2158096Y2195692D01*
X2157981Y2196610D01*
Y2197299D01*
Y2197529D01*
Y2246434D01*
X2171528D01*
Y2197414D01*
X2171642Y2195807D01*
X2171987Y2194314D01*
X2172446Y2193166D01*
X2173020Y2192133D01*
X2173594Y2191215D01*
X2174053Y2190641D01*
X2174398Y2190296D01*
X2174512Y2190182D01*
X2175660Y2189263D01*
X2176808Y2188689D01*
X2178071Y2188230D01*
X2179219Y2187886D01*
X2180252Y2187656D01*
X2181056Y2187541D01*
X2181745D01*
X2183237Y2187656D01*
X2184615Y2188000D01*
X2185878Y2188345D01*
X2186911Y2188919D01*
X2187829Y2189378D01*
X2188403Y2189722D01*
X2188862Y2190067D01*
X2188977Y2190182D01*
X2189896Y2191215D01*
X2190584Y2192478D01*
X2191158Y2193626D01*
X2191503Y2194774D01*
X2191732Y2195807D01*
X2191847Y2196610D01*
Y2197184D01*
Y2197414D01*
Y2246434D01*
X2205394D01*
Y2197529D01*
D02*
G37*
G36*
X2591351Y2195003D02*
X2591236Y2193166D01*
X2591122Y2191444D01*
X2590892Y2189837D01*
X2590433Y2188345D01*
X2590088Y2187082D01*
X2589629Y2185819D01*
X2589055Y2184786D01*
X2588596Y2183868D01*
X2588022Y2182949D01*
X2587563Y2182260D01*
X2587104Y2181686D01*
X2586644Y2181227D01*
X2586070Y2180538D01*
X2585956Y2180309D01*
X2585841D01*
X2584693Y2179505D01*
X2583545Y2178816D01*
X2581019Y2177668D01*
X2578264Y2176980D01*
X2575624Y2176406D01*
X2573213Y2176061D01*
X2572180Y2175946D01*
X2571261D01*
X2570572Y2175832D01*
X2569539D01*
X2567358Y2175946D01*
X2566325D01*
X2565521Y2176061D01*
X2564718D01*
X2564144Y2176176D01*
X2563684D01*
X2561503Y2176406D01*
X2560585Y2176520D01*
X2559781Y2176635D01*
X2559092Y2176750D01*
X2558518D01*
X2558174Y2176865D01*
X2558059D01*
X2556108Y2177209D01*
X2555189Y2177439D01*
X2554500Y2177668D01*
X2553926Y2177783D01*
X2553352Y2177898D01*
X2553123Y2178013D01*
X2553008D01*
X2551401Y2178587D01*
X2550023Y2179046D01*
X2549564Y2179276D01*
X2549220Y2179390D01*
X2548990Y2179505D01*
X2548875D01*
Y2228754D01*
X2561962D01*
Y2187656D01*
X2562996Y2187312D01*
X2564029Y2187082D01*
X2564488Y2186967D01*
X2564832D01*
X2565062Y2186852D01*
X2565177D01*
X2566669Y2186623D01*
X2568047Y2186508D01*
X2569539D01*
X2571146Y2186623D01*
X2572409Y2186852D01*
X2573672Y2187312D01*
X2574590Y2187771D01*
X2575509Y2188345D01*
X2576198Y2189034D01*
X2576772Y2189837D01*
X2577231Y2190641D01*
X2577920Y2192133D01*
X2578264Y2193396D01*
Y2193855D01*
X2578379Y2194314D01*
Y2194544D01*
Y2194659D01*
Y2228754D01*
X2591351D01*
Y2195003D01*
D02*
G37*
G36*
X2847700Y2229788D02*
X2849536Y2229558D01*
X2851258Y2229214D01*
X2852751Y2228869D01*
X2854014Y2228525D01*
X2854932Y2228180D01*
X2855506Y2227951D01*
X2855736Y2227836D01*
X2857343Y2227032D01*
X2858835Y2226114D01*
X2860098Y2225196D01*
X2861246Y2224392D01*
X2862050Y2223588D01*
X2862738Y2222900D01*
X2863198Y2222441D01*
X2863312Y2222326D01*
X2864346Y2220948D01*
X2865379Y2219456D01*
X2866182Y2218078D01*
X2866871Y2216700D01*
X2867330Y2215552D01*
X2867675Y2214519D01*
X2867904Y2213945D01*
X2868019Y2213831D01*
Y2213716D01*
X2868593Y2211879D01*
X2868938Y2209927D01*
X2869282Y2208090D01*
X2869397Y2206369D01*
X2869512Y2204991D01*
X2869626Y2203843D01*
Y2203384D01*
Y2203039D01*
Y2202925D01*
Y2202810D01*
X2869512Y2200628D01*
X2869397Y2198677D01*
X2869167Y2196840D01*
X2868823Y2195118D01*
X2868478Y2193855D01*
X2868249Y2192822D01*
X2868134Y2192133D01*
X2868019Y2192019D01*
Y2191904D01*
X2867330Y2190067D01*
X2866527Y2188460D01*
X2865608Y2186967D01*
X2864805Y2185704D01*
X2864116Y2184671D01*
X2863542Y2183983D01*
X2863083Y2183409D01*
X2862968Y2183294D01*
X2861705Y2182031D01*
X2860328Y2180883D01*
X2858950Y2179965D01*
X2857687Y2179161D01*
X2856539Y2178587D01*
X2855621Y2178128D01*
X2855047Y2177898D01*
X2854817Y2177783D01*
X2852980Y2177095D01*
X2851029Y2176635D01*
X2849192Y2176291D01*
X2847355Y2176061D01*
X2845863Y2175947D01*
X2844600Y2175832D01*
X2841500D01*
X2839434Y2175947D01*
X2837597Y2176176D01*
X2835990Y2176406D01*
X2834727Y2176521D01*
X2833694Y2176750D01*
X2833005Y2176865D01*
X2832776D01*
X2830939Y2177324D01*
X2829332Y2177669D01*
X2827954Y2178128D01*
X2826691Y2178587D01*
X2825658Y2178931D01*
X2824969Y2179276D01*
X2824510Y2179390D01*
X2824395Y2179505D01*
X2828184Y2189263D01*
X2830365Y2188345D01*
X2831513Y2187886D01*
X2832546Y2187656D01*
X2833464Y2187312D01*
X2834153Y2187082D01*
X2834612Y2186967D01*
X2834842D01*
X2837597Y2186393D01*
X2838975Y2186278D01*
X2840123Y2186164D01*
X2841041Y2186049D01*
X2842534D01*
X2844600Y2186164D01*
X2846552Y2186508D01*
X2848159Y2186967D01*
X2849536Y2187427D01*
X2850684Y2187886D01*
X2851488Y2188345D01*
X2851947Y2188689D01*
X2852177Y2188804D01*
X2853440Y2189952D01*
X2854473Y2191330D01*
X2855276Y2192822D01*
X2855965Y2194200D01*
X2856424Y2195463D01*
X2856654Y2196496D01*
X2856884Y2197184D01*
Y2197299D01*
Y2197414D01*
X2823592Y2201891D01*
X2823477Y2202695D01*
X2823362Y2203384D01*
Y2203843D01*
Y2204073D01*
Y2206369D01*
X2823477Y2208320D01*
X2823592Y2210042D01*
X2823821Y2211764D01*
X2824051Y2213142D01*
X2824395Y2214290D01*
X2824625Y2215208D01*
X2824740Y2215667D01*
X2824854Y2215897D01*
X2825428Y2217504D01*
X2826117Y2218882D01*
X2826921Y2220144D01*
X2827610Y2221293D01*
X2828184Y2222096D01*
X2828758Y2222785D01*
X2829102Y2223244D01*
X2829217Y2223359D01*
X2830250Y2224507D01*
X2831398Y2225425D01*
X2832546Y2226229D01*
X2833694Y2226918D01*
X2834612Y2227492D01*
X2835416Y2227836D01*
X2835875Y2228066D01*
X2836105Y2228180D01*
X2837712Y2228755D01*
X2839319Y2229214D01*
X2840926Y2229443D01*
X2842419Y2229673D01*
X2843682Y2229788D01*
X2844715Y2229903D01*
X2845633D01*
X2847700Y2229788D01*
D02*
G37*
G36*
X2426269Y2229788D02*
X2428106Y2229558D01*
X2429828Y2229214D01*
X2431320Y2228869D01*
X2432583Y2228525D01*
X2433501Y2228180D01*
X2434075Y2227951D01*
X2434305Y2227836D01*
X2435912Y2227032D01*
X2437404Y2226114D01*
X2438667Y2225196D01*
X2439815Y2224392D01*
X2440619Y2223588D01*
X2441308Y2222900D01*
X2441767Y2222440D01*
X2441882Y2222326D01*
X2442915Y2220948D01*
X2443948Y2219456D01*
X2444752Y2218078D01*
X2445440Y2216700D01*
X2445900Y2215552D01*
X2446244Y2214519D01*
X2446474Y2213945D01*
X2446588Y2213830D01*
Y2213716D01*
X2447162Y2211879D01*
X2447507Y2209927D01*
X2447851Y2208090D01*
X2447966Y2206368D01*
X2448081Y2204991D01*
X2448196Y2203843D01*
Y2203384D01*
Y2203039D01*
Y2202924D01*
Y2202810D01*
X2448081Y2200628D01*
X2447966Y2198677D01*
X2447736Y2196840D01*
X2447392Y2195118D01*
X2447048Y2193855D01*
X2446818Y2192822D01*
X2446703Y2192133D01*
X2446588Y2192018D01*
Y2191904D01*
X2445900Y2190067D01*
X2445096Y2188460D01*
X2444178Y2186967D01*
X2443374Y2185704D01*
X2442685Y2184671D01*
X2442111Y2183982D01*
X2441652Y2183408D01*
X2441537Y2183294D01*
X2440274Y2182031D01*
X2438897Y2180883D01*
X2437519Y2179964D01*
X2436256Y2179161D01*
X2435108Y2178587D01*
X2434190Y2178128D01*
X2433616Y2177898D01*
X2433386Y2177783D01*
X2431550Y2177094D01*
X2429598Y2176635D01*
X2427761Y2176291D01*
X2425924Y2176061D01*
X2424432Y2175946D01*
X2423169Y2175832D01*
X2420070D01*
X2418003Y2175946D01*
X2416166Y2176176D01*
X2414559Y2176406D01*
X2413296Y2176520D01*
X2412263Y2176750D01*
X2411574Y2176865D01*
X2411345D01*
X2409508Y2177324D01*
X2407901Y2177668D01*
X2406523Y2178128D01*
X2405260Y2178587D01*
X2404227Y2178931D01*
X2403538Y2179276D01*
X2403079Y2179390D01*
X2402964Y2179505D01*
X2406753Y2189263D01*
X2408934Y2188345D01*
X2410082Y2187886D01*
X2411115Y2187656D01*
X2412034Y2187312D01*
X2412722Y2187082D01*
X2413182Y2186967D01*
X2413411D01*
X2416166Y2186393D01*
X2417544Y2186278D01*
X2418692Y2186164D01*
X2419610Y2186049D01*
X2421103D01*
X2423169Y2186164D01*
X2425121Y2186508D01*
X2426728Y2186967D01*
X2428106Y2187426D01*
X2429254Y2187886D01*
X2430057Y2188345D01*
X2430516Y2188689D01*
X2430746Y2188804D01*
X2432009Y2189952D01*
X2433042Y2191330D01*
X2433846Y2192822D01*
X2434534Y2194200D01*
X2434994Y2195462D01*
X2435223Y2196496D01*
X2435453Y2197184D01*
Y2197299D01*
Y2197414D01*
X2402161Y2201891D01*
X2402046Y2202695D01*
X2401931Y2203384D01*
Y2203843D01*
Y2204072D01*
Y2206368D01*
X2402046Y2208320D01*
X2402161Y2210042D01*
X2402390Y2211764D01*
X2402620Y2213142D01*
X2402964Y2214290D01*
X2403194Y2215208D01*
X2403309Y2215667D01*
X2403424Y2215897D01*
X2403998Y2217504D01*
X2404686Y2218882D01*
X2405490Y2220144D01*
X2406179Y2221292D01*
X2406753Y2222096D01*
X2407327Y2222785D01*
X2407671Y2223244D01*
X2407786Y2223359D01*
X2408819Y2224507D01*
X2409967Y2225425D01*
X2411115Y2226229D01*
X2412263Y2226918D01*
X2413182Y2227492D01*
X2413985Y2227836D01*
X2414444Y2228066D01*
X2414674Y2228180D01*
X2416281Y2228754D01*
X2417888Y2229214D01*
X2419496Y2229443D01*
X2420988Y2229673D01*
X2422251Y2229788D01*
X2423284Y2229902D01*
X2424202D01*
X2426269Y2229788D01*
D02*
G37*
G36*
X2761255Y2176980D02*
X2748168D01*
Y2252403D01*
X2761255D01*
Y2176980D01*
D02*
G37*
G36*
X2520634Y2229673D02*
X2522586Y2229558D01*
X2524308Y2229328D01*
X2525800Y2229099D01*
X2526948Y2228984D01*
X2527637Y2228754D01*
X2527867D01*
X2529818Y2228295D01*
X2531540Y2227951D01*
X2533148Y2227492D01*
X2534525Y2227032D01*
X2535558Y2226688D01*
X2536477Y2226344D01*
X2536936Y2226229D01*
X2537166Y2226114D01*
Y2176980D01*
X2524193D01*
Y2218193D01*
X2523160Y2218537D01*
X2522242Y2218767D01*
X2521438Y2218996D01*
X2521208D01*
X2519946Y2219226D01*
X2518798Y2219341D01*
X2516387D01*
X2515354Y2219226D01*
X2514320Y2219111D01*
X2513517Y2218996D01*
X2512713Y2218767D01*
X2512254Y2218652D01*
X2511910Y2218537D01*
X2511795D01*
X2509384Y2229443D01*
X2510417Y2229558D01*
X2511336D01*
X2512024Y2229673D01*
X2512369D01*
X2513632Y2229788D01*
X2514894Y2229902D01*
X2518338D01*
X2520634Y2229673D01*
D02*
G37*
G36*
X2485161D02*
X2487113Y2229558D01*
X2488835Y2229328D01*
X2490212Y2229099D01*
X2491246Y2228984D01*
X2491934Y2228754D01*
X2492164D01*
X2494001Y2228295D01*
X2495608Y2227951D01*
X2497215Y2227492D01*
X2498593Y2227032D01*
X2499626Y2226688D01*
X2500544Y2226344D01*
X2501004Y2226229D01*
X2501233Y2226114D01*
Y2176980D01*
X2488261D01*
Y2218193D01*
X2487113Y2218537D01*
X2485965Y2218767D01*
X2485506Y2218882D01*
X2485161Y2218996D01*
X2484817D01*
X2483210Y2219226D01*
X2481832Y2219341D01*
X2480454D01*
X2478847Y2219226D01*
X2477470Y2218996D01*
X2476207Y2218652D01*
X2475288Y2218308D01*
X2474485Y2217848D01*
X2474026Y2217504D01*
X2473681Y2217274D01*
X2473566Y2217160D01*
X2472763Y2216241D01*
X2472189Y2215323D01*
X2471844Y2214290D01*
X2471500Y2213256D01*
X2471385Y2212453D01*
X2471270Y2211764D01*
Y2211305D01*
Y2211075D01*
Y2176980D01*
X2458183D01*
Y2212338D01*
Y2213830D01*
X2458413Y2215323D01*
X2458987Y2217963D01*
X2459905Y2220144D01*
X2460824Y2221981D01*
X2461857Y2223474D01*
X2462775Y2224507D01*
X2463349Y2225081D01*
X2463464Y2225310D01*
X2463579D01*
X2464612Y2226114D01*
X2465875Y2226803D01*
X2468515Y2227951D01*
X2471270Y2228754D01*
X2474140Y2229328D01*
X2475403Y2229558D01*
X2476666Y2229673D01*
X2477699Y2229788D01*
X2478618D01*
X2479421Y2229902D01*
X2482980D01*
X2485161Y2229673D01*
D02*
G37*
G36*
X2375412D02*
X2377364Y2229558D01*
X2379086Y2229328D01*
X2380578Y2229099D01*
X2381726Y2228984D01*
X2382415Y2228754D01*
X2382645D01*
X2384596Y2228295D01*
X2386318Y2227951D01*
X2387926Y2227492D01*
X2389303Y2227032D01*
X2390336Y2226688D01*
X2391255Y2226344D01*
X2391714Y2226229D01*
X2391944Y2226114D01*
Y2176980D01*
X2378971D01*
Y2218193D01*
X2377938Y2218537D01*
X2377020Y2218767D01*
X2376216Y2218996D01*
X2375986D01*
X2374724Y2219226D01*
X2373576Y2219341D01*
X2371165D01*
X2370132Y2219226D01*
X2369098Y2219111D01*
X2368295Y2218996D01*
X2367491Y2218767D01*
X2367032Y2218652D01*
X2366688Y2218537D01*
X2366573D01*
X2364162Y2229443D01*
X2365195Y2229558D01*
X2366114D01*
X2366802Y2229673D01*
X2367147D01*
X2368410Y2229788D01*
X2369672Y2229902D01*
X2373116D01*
X2375412Y2229673D01*
D02*
G37*
G36*
X2280014Y2176980D02*
X2266926D01*
Y2252403D01*
X2280014D01*
Y2176980D01*
D02*
G37*
G36*
X2254872D02*
X2241785D01*
Y2252403D01*
X2254872D01*
Y2176980D01*
D02*
G37*
G36*
X1982337Y2247581D02*
X1984174Y2247352D01*
X1985781Y2247237D01*
X1987159Y2247008D01*
X1988192Y2246778D01*
X1988881Y2246663D01*
X1989110D01*
X1990947Y2246204D01*
X1992669Y2245745D01*
X1994162Y2245285D01*
X1995539Y2244941D01*
X1996687Y2244482D01*
X1997491Y2244252D01*
X1997950Y2244023D01*
X1998180Y2243908D01*
Y2176979D01*
X1984978D01*
Y2203957D01*
X1984059Y2203843D01*
X1983141Y2203728D01*
X1982337Y2203613D01*
X1982108D01*
X1980730Y2203498D01*
X1978549D01*
X1976138Y2203613D01*
X1973842Y2203728D01*
X1971776Y2203957D01*
X1970054Y2204302D01*
X1968676Y2204646D01*
X1967643Y2204876D01*
X1966954Y2204991D01*
X1966724Y2205106D01*
X1964888Y2205794D01*
X1963280Y2206483D01*
X1961788Y2207287D01*
X1960525Y2207976D01*
X1959607Y2208550D01*
X1958803Y2209124D01*
X1958344Y2209468D01*
X1958229Y2209583D01*
X1956966Y2210731D01*
X1955933Y2211994D01*
X1955130Y2213142D01*
X1954326Y2214175D01*
X1953752Y2215208D01*
X1953408Y2215897D01*
X1953178Y2216356D01*
X1953063Y2216586D01*
X1952489Y2218078D01*
X1952030Y2219685D01*
X1951800Y2221063D01*
X1951571Y2222440D01*
X1951456Y2223588D01*
X1951341Y2224507D01*
Y2225081D01*
Y2225310D01*
X1951456Y2227147D01*
X1951686Y2228984D01*
X1952030Y2230591D01*
X1952374Y2232198D01*
X1953522Y2234954D01*
X1954096Y2236216D01*
X1954785Y2237249D01*
X1955474Y2238283D01*
X1956048Y2239201D01*
X1956622Y2239890D01*
X1957196Y2240464D01*
X1957540Y2241038D01*
X1957885Y2241382D01*
X1958114Y2241497D01*
X1958229Y2241612D01*
X1959607Y2242645D01*
X1961099Y2243678D01*
X1962592Y2244482D01*
X1964199Y2245171D01*
X1967528Y2246204D01*
X1970742Y2246893D01*
X1972235Y2247237D01*
X1973612Y2247352D01*
X1974875Y2247467D01*
X1975908Y2247581D01*
X1976827Y2247696D01*
X1980271D01*
X1982337Y2247581D01*
D02*
G37*
G36*
X1841133D02*
X1842970Y2247352D01*
X1844577Y2247237D01*
X1845955Y2247008D01*
X1846988Y2246778D01*
X1847677Y2246663D01*
X1847906D01*
X1849743Y2246204D01*
X1851465Y2245745D01*
X1852958Y2245285D01*
X1854335Y2244941D01*
X1855483Y2244482D01*
X1856287Y2244252D01*
X1856746Y2244023D01*
X1856976Y2243908D01*
Y2176979D01*
X1843774D01*
Y2203957D01*
X1842855Y2203843D01*
X1841937Y2203728D01*
X1841133Y2203613D01*
X1840904D01*
X1839526Y2203498D01*
X1837345D01*
X1834934Y2203613D01*
X1832638Y2203728D01*
X1830572Y2203957D01*
X1828850Y2204302D01*
X1827472Y2204646D01*
X1826439Y2204876D01*
X1825750Y2204991D01*
X1825520Y2205106D01*
X1823684Y2205794D01*
X1822076Y2206483D01*
X1820584Y2207287D01*
X1819321Y2207976D01*
X1818403Y2208550D01*
X1817599Y2209124D01*
X1817140Y2209468D01*
X1817025Y2209583D01*
X1815762Y2210731D01*
X1814729Y2211994D01*
X1813926Y2213142D01*
X1813122Y2214175D01*
X1812548Y2215208D01*
X1812204Y2215897D01*
X1811974Y2216356D01*
X1811859Y2216586D01*
X1811285Y2218078D01*
X1810826Y2219685D01*
X1810596Y2221063D01*
X1810367Y2222440D01*
X1810252Y2223588D01*
X1810137Y2224507D01*
Y2225081D01*
Y2225310D01*
X1810252Y2227147D01*
X1810482Y2228984D01*
X1810826Y2230591D01*
X1811170Y2232198D01*
X1812318Y2234954D01*
X1812892Y2236216D01*
X1813581Y2237249D01*
X1814270Y2238283D01*
X1814844Y2239201D01*
X1815418Y2239890D01*
X1815992Y2240464D01*
X1816336Y2241038D01*
X1816681Y2241382D01*
X1816910Y2241497D01*
X1817025Y2241612D01*
X1818403Y2242645D01*
X1819895Y2243678D01*
X1821388Y2244482D01*
X1822995Y2245171D01*
X1826324Y2246204D01*
X1829538Y2246893D01*
X1831031Y2247237D01*
X1832408Y2247352D01*
X1833671Y2247467D01*
X1834704Y2247581D01*
X1835623Y2247696D01*
X1839067D01*
X1841133Y2247581D01*
D02*
G37*
G36*
X2933226Y2247582D02*
X2935062Y2247467D01*
X2936670Y2247237D01*
X2938047Y2247008D01*
X2939195Y2246663D01*
X2939999Y2246434D01*
X2940573Y2246319D01*
X2940802Y2246204D01*
X2942295Y2245630D01*
X2943672Y2244941D01*
X2944820Y2244253D01*
X2945854Y2243564D01*
X2946772Y2242875D01*
X2947346Y2242416D01*
X2947805Y2242071D01*
X2947920Y2241956D01*
X2948953Y2240923D01*
X2949872Y2239890D01*
X2950560Y2238742D01*
X2951249Y2237709D01*
X2951708Y2236905D01*
X2952053Y2236216D01*
X2952282Y2235642D01*
X2952397Y2235528D01*
X2952971Y2234035D01*
X2953316Y2232658D01*
X2953660Y2231165D01*
X2953775Y2229903D01*
X2953890Y2228755D01*
X2954004Y2227836D01*
Y2227262D01*
Y2227032D01*
X2953890Y2225196D01*
X2953660Y2223474D01*
X2953430Y2221981D01*
X2952971Y2220718D01*
X2952627Y2219685D01*
X2952397Y2218997D01*
X2952168Y2218423D01*
X2952053Y2218308D01*
X2951249Y2217045D01*
X2950331Y2215897D01*
X2949527Y2214979D01*
X2948724Y2214060D01*
X2948035Y2213371D01*
X2947461Y2212912D01*
X2947116Y2212568D01*
X2947002Y2212453D01*
X2944706Y2210846D01*
X2943672Y2210042D01*
X2942639Y2209468D01*
X2941836Y2209009D01*
X2941147Y2208664D01*
X2940688Y2208435D01*
X2940573Y2208320D01*
X2938047Y2207172D01*
X2936899Y2206598D01*
X2935981Y2206024D01*
X2935177Y2205680D01*
X2934603Y2205335D01*
X2934144Y2205106D01*
X2934029Y2204991D01*
X2932996Y2204417D01*
X2931963Y2203728D01*
X2931159Y2203154D01*
X2930470Y2202580D01*
X2929896Y2202006D01*
X2929437Y2201662D01*
X2929208Y2201432D01*
X2929093Y2201317D01*
X2928404Y2200514D01*
X2927945Y2199710D01*
X2927486Y2198907D01*
X2927256Y2198103D01*
X2927141Y2197414D01*
X2927026Y2196840D01*
Y2196496D01*
Y2196381D01*
X2927141Y2195003D01*
X2927486Y2193855D01*
X2927945Y2192822D01*
X2928404Y2191904D01*
X2928978Y2191215D01*
X2929437Y2190756D01*
X2929782Y2190411D01*
X2929896Y2190296D01*
X2931044Y2189493D01*
X2932307Y2188919D01*
X2933570Y2188575D01*
X2934718Y2188345D01*
X2935866Y2188115D01*
X2936784Y2188001D01*
X2937588D01*
X2939999Y2188115D01*
X2941147Y2188345D01*
X2942180Y2188460D01*
X2942984Y2188689D01*
X2943672Y2188804D01*
X2944132Y2188919D01*
X2944246D01*
X2946542Y2189722D01*
X2947576Y2190067D01*
X2948494Y2190411D01*
X2949298Y2190756D01*
X2949872Y2190985D01*
X2950216Y2191215D01*
X2950331D01*
X2954808Y2179505D01*
X2951823Y2178242D01*
X2950331Y2177783D01*
X2949068Y2177439D01*
X2947920Y2177095D01*
X2947116Y2176865D01*
X2946542Y2176750D01*
X2946313D01*
X2942869Y2176176D01*
X2941262Y2176061D01*
X2939884Y2175947D01*
X2938621Y2175832D01*
X2936899D01*
X2934833Y2175947D01*
X2932996Y2176061D01*
X2931274Y2176291D01*
X2929782Y2176635D01*
X2928634Y2176865D01*
X2927715Y2177095D01*
X2927141Y2177209D01*
X2926912Y2177324D01*
X2925304Y2177898D01*
X2923812Y2178587D01*
X2922549Y2179390D01*
X2921516Y2180079D01*
X2920598Y2180653D01*
X2920024Y2181227D01*
X2919564Y2181572D01*
X2919450Y2181686D01*
X2918302Y2182834D01*
X2917383Y2183983D01*
X2916580Y2185016D01*
X2915891Y2186049D01*
X2915432Y2186967D01*
X2915087Y2187656D01*
X2914858Y2188230D01*
X2914743Y2188345D01*
X2914169Y2189837D01*
X2913824Y2191330D01*
X2913480Y2192822D01*
X2913365Y2194200D01*
X2913250Y2195348D01*
X2913136Y2196266D01*
Y2196840D01*
Y2197070D01*
X2913250Y2198907D01*
X2913480Y2200628D01*
X2913824Y2202121D01*
X2914169Y2203269D01*
X2914513Y2204302D01*
X2914858Y2205106D01*
X2915087Y2205565D01*
X2915202Y2205680D01*
X2916006Y2206943D01*
X2916809Y2208090D01*
X2917613Y2209009D01*
X2918416Y2209927D01*
X2919220Y2210616D01*
X2919679Y2211075D01*
X2920138Y2211420D01*
X2920253Y2211535D01*
X2922549Y2213256D01*
X2923582Y2213945D01*
X2924616Y2214634D01*
X2925534Y2215093D01*
X2926223Y2215438D01*
X2926682Y2215667D01*
X2926797Y2215782D01*
X2929322Y2217045D01*
X2930470Y2217619D01*
X2931504Y2218193D01*
X2932307Y2218537D01*
X2932881Y2218882D01*
X2933340Y2219111D01*
X2933455Y2219226D01*
X2935522Y2220489D01*
X2936325Y2221178D01*
X2937129Y2221752D01*
X2937703Y2222211D01*
X2938162Y2222555D01*
X2938392Y2222785D01*
X2938506Y2222900D01*
X2939195Y2223703D01*
X2939654Y2224507D01*
X2939999Y2225311D01*
X2940228Y2226114D01*
X2940343Y2226803D01*
X2940458Y2227377D01*
Y2227721D01*
Y2227836D01*
X2940343Y2229099D01*
X2940114Y2230362D01*
X2939654Y2231280D01*
X2939195Y2232198D01*
X2938736Y2232773D01*
X2938277Y2233347D01*
X2938047Y2233576D01*
X2937932Y2233691D01*
X2936899Y2234494D01*
X2935751Y2235068D01*
X2934488Y2235413D01*
X2933340Y2235757D01*
X2932422Y2235872D01*
X2931504Y2235987D01*
X2930815D01*
X2928519Y2235872D01*
X2927486Y2235757D01*
X2926567Y2235642D01*
X2925764Y2235413D01*
X2925190Y2235298D01*
X2924845Y2235183D01*
X2924730D01*
X2922664Y2234494D01*
X2921746Y2234150D01*
X2921057Y2233806D01*
X2920368Y2233461D01*
X2919909Y2233232D01*
X2919564Y2233117D01*
X2919450Y2233002D01*
X2915202Y2243908D01*
X2917728Y2245171D01*
X2918990Y2245630D01*
X2920138Y2245974D01*
X2921057Y2246319D01*
X2921860Y2246548D01*
X2922320Y2246663D01*
X2922549D01*
X2925649Y2247237D01*
X2927141Y2247467D01*
X2928519Y2247582D01*
X2929667Y2247697D01*
X2931389D01*
X2933226Y2247582D01*
D02*
G37*
G36*
X2126411Y2247581D02*
X2128248Y2247467D01*
X2129855Y2247237D01*
X2131233Y2247008D01*
X2132381Y2246663D01*
X2133184Y2246434D01*
X2133758Y2246319D01*
X2133988Y2246204D01*
X2135480Y2245630D01*
X2136858Y2244941D01*
X2138006Y2244252D01*
X2139039Y2243564D01*
X2139958Y2242875D01*
X2140532Y2242416D01*
X2140991Y2242071D01*
X2141106Y2241956D01*
X2142139Y2240923D01*
X2143057Y2239890D01*
X2143746Y2238742D01*
X2144435Y2237709D01*
X2144894Y2236905D01*
X2145238Y2236216D01*
X2145468Y2235642D01*
X2145583Y2235528D01*
X2146157Y2234035D01*
X2146501Y2232657D01*
X2146846Y2231165D01*
X2146960Y2229902D01*
X2147075Y2228754D01*
X2147190Y2227836D01*
Y2227262D01*
Y2227032D01*
X2147075Y2225195D01*
X2146846Y2223474D01*
X2146616Y2221981D01*
X2146157Y2220718D01*
X2145812Y2219685D01*
X2145583Y2218996D01*
X2145353Y2218422D01*
X2145238Y2218307D01*
X2144435Y2217045D01*
X2143516Y2215897D01*
X2142713Y2214978D01*
X2141909Y2214060D01*
X2141220Y2213371D01*
X2140646Y2212912D01*
X2140302Y2212568D01*
X2140187Y2212453D01*
X2137891Y2210845D01*
X2136858Y2210042D01*
X2135825Y2209468D01*
X2135021Y2209009D01*
X2134332Y2208664D01*
X2133873Y2208435D01*
X2133758Y2208320D01*
X2131233Y2207172D01*
X2130085Y2206598D01*
X2129166Y2206024D01*
X2128363Y2205680D01*
X2127789Y2205335D01*
X2127330Y2205106D01*
X2127215Y2204991D01*
X2126182Y2204417D01*
X2125148Y2203728D01*
X2124345Y2203154D01*
X2123656Y2202580D01*
X2123082Y2202006D01*
X2122623Y2201662D01*
X2122393Y2201432D01*
X2122278Y2201317D01*
X2121590Y2200514D01*
X2121130Y2199710D01*
X2120671Y2198906D01*
X2120442Y2198103D01*
X2120327Y2197414D01*
X2120212Y2196840D01*
Y2196495D01*
Y2196381D01*
X2120327Y2195003D01*
X2120671Y2193855D01*
X2121130Y2192822D01*
X2121590Y2191903D01*
X2122164Y2191215D01*
X2122623Y2190756D01*
X2122967Y2190411D01*
X2123082Y2190296D01*
X2124230Y2189493D01*
X2125493Y2188919D01*
X2126756Y2188574D01*
X2127904Y2188345D01*
X2129052Y2188115D01*
X2129970Y2188000D01*
X2130774D01*
X2133184Y2188115D01*
X2134332Y2188345D01*
X2135366Y2188459D01*
X2136169Y2188689D01*
X2136858Y2188804D01*
X2137317Y2188919D01*
X2137432D01*
X2139728Y2189722D01*
X2140761Y2190067D01*
X2141680Y2190411D01*
X2142483Y2190756D01*
X2143057Y2190985D01*
X2143402Y2191215D01*
X2143516D01*
X2147994Y2179505D01*
X2145009Y2178242D01*
X2143516Y2177783D01*
X2142254Y2177439D01*
X2141106Y2177094D01*
X2140302Y2176865D01*
X2139728Y2176750D01*
X2139498D01*
X2136054Y2176176D01*
X2134447Y2176061D01*
X2133070Y2175946D01*
X2131807Y2175831D01*
X2130085D01*
X2128018Y2175946D01*
X2126182Y2176061D01*
X2124460Y2176291D01*
X2122967Y2176635D01*
X2121819Y2176865D01*
X2120901Y2177094D01*
X2120327Y2177209D01*
X2120097Y2177324D01*
X2118490Y2177898D01*
X2116998Y2178587D01*
X2115735Y2179390D01*
X2114702Y2180079D01*
X2113783Y2180653D01*
X2113209Y2181227D01*
X2112750Y2181572D01*
X2112635Y2181686D01*
X2111487Y2182834D01*
X2110569Y2183982D01*
X2109765Y2185015D01*
X2109076Y2186049D01*
X2108617Y2186967D01*
X2108273Y2187656D01*
X2108043Y2188230D01*
X2107928Y2188345D01*
X2107354Y2189837D01*
X2107010Y2191329D01*
X2106666Y2192822D01*
X2106551Y2194200D01*
X2106436Y2195347D01*
X2106321Y2196266D01*
Y2196840D01*
Y2197070D01*
X2106436Y2198906D01*
X2106666Y2200628D01*
X2107010Y2202121D01*
X2107354Y2203269D01*
X2107699Y2204302D01*
X2108043Y2205106D01*
X2108273Y2205565D01*
X2108388Y2205680D01*
X2109191Y2206942D01*
X2109995Y2208090D01*
X2110798Y2209009D01*
X2111602Y2209927D01*
X2112406Y2210616D01*
X2112865Y2211075D01*
X2113324Y2211419D01*
X2113439Y2211534D01*
X2115735Y2213256D01*
X2116768Y2213945D01*
X2117801Y2214634D01*
X2118720Y2215093D01*
X2119408Y2215438D01*
X2119868Y2215667D01*
X2119982Y2215782D01*
X2122508Y2217045D01*
X2123656Y2217619D01*
X2124689Y2218193D01*
X2125493Y2218537D01*
X2126067Y2218881D01*
X2126526Y2219111D01*
X2126641Y2219226D01*
X2128707Y2220489D01*
X2129511Y2221177D01*
X2130314Y2221751D01*
X2130888Y2222211D01*
X2131348Y2222555D01*
X2131577Y2222785D01*
X2131692Y2222899D01*
X2132381Y2223703D01*
X2132840Y2224507D01*
X2133184Y2225310D01*
X2133414Y2226114D01*
X2133529Y2226803D01*
X2133644Y2227377D01*
Y2227721D01*
Y2227836D01*
X2133529Y2229099D01*
X2133299Y2230361D01*
X2132840Y2231280D01*
X2132381Y2232198D01*
X2131922Y2232772D01*
X2131462Y2233346D01*
X2131233Y2233576D01*
X2131118Y2233691D01*
X2130085Y2234494D01*
X2128937Y2235068D01*
X2127674Y2235413D01*
X2126526Y2235757D01*
X2125608Y2235872D01*
X2124689Y2235987D01*
X2124000D01*
X2121704Y2235872D01*
X2120671Y2235757D01*
X2119753Y2235642D01*
X2118949Y2235413D01*
X2118375Y2235298D01*
X2118031Y2235183D01*
X2117916D01*
X2115850Y2234494D01*
X2114931Y2234150D01*
X2114242Y2233805D01*
X2113554Y2233461D01*
X2113094Y2233231D01*
X2112750Y2233117D01*
X2112635Y2233002D01*
X2108388Y2243908D01*
X2110913Y2245171D01*
X2112176Y2245630D01*
X2113324Y2245974D01*
X2114242Y2246319D01*
X2115046Y2246548D01*
X2115505Y2246663D01*
X2115735D01*
X2118834Y2247237D01*
X2120327Y2247467D01*
X2121704Y2247581D01*
X2122852Y2247696D01*
X2124574D01*
X2126411Y2247581D01*
D02*
G37*
G36*
X2079228Y2247467D02*
X2081180Y2247352D01*
X2082902Y2247122D01*
X2084394Y2246893D01*
X2085542Y2246778D01*
X2086231Y2246548D01*
X2086461D01*
X2088412Y2246089D01*
X2090134Y2245745D01*
X2091742Y2245285D01*
X2093119Y2244826D01*
X2094267Y2244482D01*
X2095071Y2244137D01*
X2095530Y2244023D01*
X2095760Y2243908D01*
Y2179505D01*
X2094382Y2178931D01*
X2092775Y2178472D01*
X2091282Y2178013D01*
X2089790Y2177553D01*
X2088412Y2177324D01*
X2087379Y2177094D01*
X2086690Y2176865D01*
X2086461D01*
X2084280Y2176520D01*
X2082098Y2176291D01*
X2080147Y2176061D01*
X2078310Y2175946D01*
X2076818D01*
X2075670Y2175831D01*
X2074636D01*
X2072111Y2175946D01*
X2069815Y2176061D01*
X2067634Y2176291D01*
X2065682Y2176635D01*
X2063845Y2177094D01*
X2062123Y2177553D01*
X2060631Y2178013D01*
X2059253Y2178472D01*
X2057990Y2178931D01*
X2056957Y2179390D01*
X2056154Y2179849D01*
X2055350Y2180309D01*
X2054776Y2180653D01*
X2054432Y2180883D01*
X2054202Y2181112D01*
X2054087D01*
X2052824Y2182146D01*
X2051791Y2183294D01*
X2050873Y2184441D01*
X2050069Y2185590D01*
X2049380Y2186852D01*
X2048806Y2188115D01*
X2048003Y2190411D01*
X2047429Y2192592D01*
X2047314Y2193511D01*
X2047199Y2194314D01*
X2047084Y2194888D01*
Y2195347D01*
Y2195692D01*
Y2195807D01*
Y2197184D01*
X2047314Y2198447D01*
X2047429Y2199595D01*
X2047658Y2200514D01*
X2047888Y2201317D01*
X2048118Y2202006D01*
X2048232Y2202350D01*
X2048347Y2202465D01*
X2049266Y2204417D01*
X2049840Y2205335D01*
X2050299Y2206024D01*
X2050758Y2206598D01*
X2051102Y2207057D01*
X2051332Y2207287D01*
X2051447Y2207401D01*
X2052824Y2208894D01*
X2054087Y2210042D01*
X2054661Y2210386D01*
X2055120Y2210731D01*
X2055350Y2210845D01*
X2055465Y2210960D01*
X2057072Y2211879D01*
X2058450Y2212568D01*
X2059024Y2212797D01*
X2059483Y2212912D01*
X2059712Y2213027D01*
X2059827D01*
Y2213256D01*
X2058220Y2213830D01*
X2056957Y2214404D01*
X2056498Y2214634D01*
X2056154Y2214863D01*
X2055924Y2215093D01*
X2055809D01*
X2054432Y2216241D01*
X2053398Y2217389D01*
X2052939Y2217848D01*
X2052595Y2218193D01*
X2052480Y2218422D01*
X2052365Y2218537D01*
X2051332Y2220144D01*
X2050528Y2221637D01*
X2050184Y2222211D01*
X2049954Y2222670D01*
X2049840Y2223014D01*
Y2223129D01*
X2049266Y2225081D01*
X2049151Y2225999D01*
X2049036Y2226803D01*
X2048921Y2227606D01*
Y2228180D01*
Y2228525D01*
Y2228640D01*
X2049036Y2230132D01*
X2049151Y2231624D01*
X2049380Y2232887D01*
X2049725Y2234035D01*
X2050069Y2234954D01*
X2050299Y2235642D01*
X2050414Y2236102D01*
X2050528Y2236216D01*
X2051217Y2237479D01*
X2051906Y2238627D01*
X2052710Y2239660D01*
X2053513Y2240579D01*
X2054202Y2241267D01*
X2054776Y2241727D01*
X2055235Y2242071D01*
X2055350Y2242186D01*
X2056613Y2243104D01*
X2057876Y2243908D01*
X2059253Y2244597D01*
X2060516Y2245171D01*
X2061664Y2245630D01*
X2062582Y2245974D01*
X2063156Y2246089D01*
X2063271Y2246204D01*
X2063386D01*
X2065223Y2246663D01*
X2067174Y2247122D01*
X2069126Y2247352D01*
X2070963Y2247467D01*
X2072455Y2247581D01*
X2073718Y2247696D01*
X2077162D01*
X2079228Y2247467D01*
D02*
G37*
G36*
X1926659D02*
X1928496Y2247352D01*
X1930103Y2247122D01*
X1931366Y2246893D01*
X1932399Y2246778D01*
X1933088Y2246548D01*
X1933318D01*
X1935154Y2246089D01*
X1936762Y2245745D01*
X1938139Y2245285D01*
X1939287Y2244826D01*
X1940320Y2244482D01*
X1941009Y2244137D01*
X1941468Y2244023D01*
X1941583Y2243908D01*
Y2179505D01*
X1940320Y2178931D01*
X1938943Y2178472D01*
X1937680Y2178013D01*
X1936302Y2177553D01*
X1935154Y2177324D01*
X1934236Y2177094D01*
X1933662Y2176865D01*
X1933432D01*
X1929644Y2176291D01*
X1927807Y2176061D01*
X1926085Y2175946D01*
X1924593D01*
X1923560Y2175831D01*
X1922526D01*
X1919886Y2175946D01*
X1917360Y2176176D01*
X1915064Y2176635D01*
X1912883Y2177209D01*
X1910817Y2177898D01*
X1908980Y2178702D01*
X1907258Y2179505D01*
X1905766Y2180423D01*
X1904388Y2181227D01*
X1903240Y2182031D01*
X1902207Y2182834D01*
X1901403Y2183523D01*
X1900714Y2184097D01*
X1900255Y2184556D01*
X1900026Y2184786D01*
X1899911Y2184901D01*
X1898418Y2186738D01*
X1897270Y2188689D01*
X1896122Y2190756D01*
X1895204Y2192937D01*
X1894400Y2195233D01*
X1893712Y2197414D01*
X1893252Y2199595D01*
X1892793Y2201776D01*
X1892449Y2203843D01*
X1892219Y2205680D01*
X1891990Y2207401D01*
X1891875Y2208894D01*
X1891760Y2210042D01*
Y2210960D01*
Y2211534D01*
Y2211764D01*
X1891875Y2214978D01*
X1892104Y2217963D01*
X1892564Y2220718D01*
X1893023Y2223359D01*
X1893597Y2225769D01*
X1894286Y2227951D01*
X1895089Y2229902D01*
X1895778Y2231739D01*
X1896582Y2233346D01*
X1897385Y2234724D01*
X1898074Y2235872D01*
X1898648Y2236790D01*
X1899107Y2237594D01*
X1899566Y2238053D01*
X1899796Y2238398D01*
X1899911Y2238512D01*
X1901518Y2240119D01*
X1903240Y2241497D01*
X1904962Y2242760D01*
X1906799Y2243793D01*
X1908750Y2244711D01*
X1910587Y2245515D01*
X1912424Y2246089D01*
X1914261Y2246548D01*
X1915868Y2246893D01*
X1917475Y2247237D01*
X1918853Y2247467D01*
X1920116Y2247581D01*
X1921149Y2247696D01*
X1924593D01*
X1926659Y2247467D01*
D02*
G37*
G36*
X1733566D02*
X1735517Y2247352D01*
X1737239Y2247122D01*
X1738732Y2246893D01*
X1739880Y2246778D01*
X1740568Y2246548D01*
X1740798D01*
X1742750Y2246089D01*
X1744472Y2245745D01*
X1746079Y2245285D01*
X1747456Y2244826D01*
X1748604Y2244482D01*
X1749408Y2244137D01*
X1749867Y2244023D01*
X1750097Y2243908D01*
Y2179505D01*
X1748719Y2178931D01*
X1747112Y2178472D01*
X1745620Y2178013D01*
X1744127Y2177553D01*
X1742750Y2177324D01*
X1741716Y2177094D01*
X1741028Y2176865D01*
X1740798D01*
X1738617Y2176520D01*
X1736436Y2176291D01*
X1734484Y2176061D01*
X1732647Y2175946D01*
X1731155D01*
X1730007Y2175831D01*
X1728974D01*
X1726448Y2175946D01*
X1724152Y2176061D01*
X1721971Y2176291D01*
X1720019Y2176635D01*
X1718182Y2177094D01*
X1716460Y2177553D01*
X1714968Y2178013D01*
X1713590Y2178472D01*
X1712328Y2178931D01*
X1711294Y2179390D01*
X1710491Y2179849D01*
X1709687Y2180309D01*
X1709113Y2180653D01*
X1708769Y2180883D01*
X1708539Y2181112D01*
X1708424D01*
X1707162Y2182146D01*
X1706128Y2183294D01*
X1705210Y2184441D01*
X1704406Y2185590D01*
X1703718Y2186852D01*
X1703144Y2188115D01*
X1702340Y2190411D01*
X1701766Y2192592D01*
X1701651Y2193511D01*
X1701536Y2194314D01*
X1701422Y2194888D01*
Y2195347D01*
Y2195692D01*
Y2195807D01*
Y2197184D01*
X1701651Y2198447D01*
X1701766Y2199595D01*
X1701996Y2200514D01*
X1702225Y2201317D01*
X1702455Y2202006D01*
X1702570Y2202350D01*
X1702684Y2202465D01*
X1703603Y2204417D01*
X1704177Y2205335D01*
X1704636Y2206024D01*
X1705095Y2206598D01*
X1705440Y2207057D01*
X1705669Y2207287D01*
X1705784Y2207401D01*
X1707162Y2208894D01*
X1708424Y2210042D01*
X1708998Y2210386D01*
X1709458Y2210731D01*
X1709687Y2210845D01*
X1709802Y2210960D01*
X1711409Y2211879D01*
X1712787Y2212568D01*
X1713361Y2212797D01*
X1713820Y2212912D01*
X1714050Y2213027D01*
X1714164D01*
Y2213256D01*
X1712557Y2213830D01*
X1711294Y2214404D01*
X1710835Y2214634D01*
X1710491Y2214863D01*
X1710261Y2215093D01*
X1710146D01*
X1708769Y2216241D01*
X1707736Y2217389D01*
X1707276Y2217848D01*
X1706932Y2218193D01*
X1706817Y2218422D01*
X1706702Y2218537D01*
X1705669Y2220144D01*
X1704866Y2221637D01*
X1704521Y2222211D01*
X1704292Y2222670D01*
X1704177Y2223014D01*
Y2223129D01*
X1703603Y2225081D01*
X1703488Y2225999D01*
X1703373Y2226803D01*
X1703258Y2227606D01*
Y2228180D01*
Y2228525D01*
Y2228640D01*
X1703373Y2230132D01*
X1703488Y2231624D01*
X1703718Y2232887D01*
X1704062Y2234035D01*
X1704406Y2234954D01*
X1704636Y2235642D01*
X1704751Y2236102D01*
X1704866Y2236216D01*
X1705554Y2237479D01*
X1706243Y2238627D01*
X1707047Y2239660D01*
X1707850Y2240579D01*
X1708539Y2241267D01*
X1709113Y2241727D01*
X1709572Y2242071D01*
X1709687Y2242186D01*
X1710950Y2243104D01*
X1712213Y2243908D01*
X1713590Y2244597D01*
X1714853Y2245171D01*
X1716001Y2245630D01*
X1716920Y2245974D01*
X1717494Y2246089D01*
X1717608Y2246204D01*
X1717723D01*
X1719560Y2246663D01*
X1721512Y2247122D01*
X1723463Y2247352D01*
X1725300Y2247467D01*
X1726792Y2247581D01*
X1728055Y2247696D01*
X1731499D01*
X1733566Y2247467D01*
D02*
G37*
G36*
X2385400Y2157119D02*
X2387237Y2156890D01*
X2388844Y2156775D01*
X2390336Y2156545D01*
X2391370Y2156316D01*
X2392058Y2156201D01*
X2392288D01*
X2394240Y2155856D01*
X2396076Y2155397D01*
X2397798Y2154938D01*
X2399176Y2154479D01*
X2400324Y2154134D01*
X2401242Y2153790D01*
X2401816Y2153560D01*
X2402046Y2153446D01*
X2398258Y2143228D01*
X2395617Y2144147D01*
X2394354Y2144491D01*
X2393206Y2144836D01*
X2392288Y2145065D01*
X2391484Y2145295D01*
X2391025Y2145410D01*
X2390796D01*
X2387926Y2145984D01*
X2386548Y2146098D01*
X2385400Y2146213D01*
X2384482Y2146328D01*
X2383104D01*
X2381152Y2146213D01*
X2379545Y2145984D01*
X2378168Y2145639D01*
X2376905Y2145295D01*
X2375986Y2144836D01*
X2375412Y2144491D01*
X2374953Y2144262D01*
X2374838Y2144147D01*
X2373920Y2143343D01*
X2373231Y2142310D01*
X2372657Y2141392D01*
X2372313Y2140473D01*
X2372083Y2139555D01*
X2371968Y2138866D01*
Y2138407D01*
Y2138292D01*
Y2137488D01*
X2372198Y2136685D01*
X2372657Y2135307D01*
X2372887Y2134733D01*
X2373116Y2134389D01*
X2373231Y2134159D01*
X2373346Y2134044D01*
X2374494Y2132782D01*
X2375642Y2131748D01*
X2376216Y2131289D01*
X2376675Y2130945D01*
X2376905Y2130830D01*
X2377020Y2130715D01*
X2378971Y2129682D01*
X2380808Y2128993D01*
X2381612Y2128649D01*
X2382300Y2128419D01*
X2382760Y2128304D01*
X2382874D01*
X2385515Y2127730D01*
X2386778Y2127501D01*
X2388040Y2127386D01*
X2389074Y2127271D01*
X2389877Y2127156D01*
X2390566D01*
Y2117513D01*
X2387926D01*
X2386433Y2117398D01*
X2385170Y2117284D01*
X2384022Y2117169D01*
X2383104Y2116939D01*
X2382300Y2116824D01*
X2381841Y2116710D01*
X2381726D01*
X2380464Y2116480D01*
X2379201Y2116136D01*
X2378168Y2115791D01*
X2377249Y2115447D01*
X2376560Y2115102D01*
X2375986Y2114873D01*
X2375642Y2114758D01*
X2375527Y2114643D01*
X2374609Y2114184D01*
X2373805Y2113610D01*
X2373002Y2113036D01*
X2372428Y2112462D01*
X2371968Y2112003D01*
X2371624Y2111658D01*
X2371509Y2111429D01*
X2371394Y2111314D01*
X2370935Y2110510D01*
X2370476Y2109707D01*
X2370132Y2108100D01*
X2370017Y2107526D01*
X2369902Y2106952D01*
Y2106607D01*
Y2106492D01*
X2370017Y2104885D01*
X2370476Y2103393D01*
X2371050Y2102130D01*
X2371624Y2101097D01*
X2372313Y2100293D01*
X2372887Y2099604D01*
X2373346Y2099260D01*
X2373461Y2099145D01*
X2374838Y2098227D01*
X2376446Y2097538D01*
X2378053Y2097079D01*
X2379660Y2096734D01*
X2381038Y2096505D01*
X2382186Y2096390D01*
X2384941D01*
X2386548Y2096505D01*
X2388040Y2096620D01*
X2389418Y2096734D01*
X2390566Y2096849D01*
X2391370Y2096964D01*
X2391944Y2097079D01*
X2392173D01*
X2393780Y2097423D01*
X2395158Y2097768D01*
X2396421Y2098112D01*
X2397569Y2098456D01*
X2398372Y2098801D01*
X2399061Y2099030D01*
X2399520Y2099260D01*
X2399635D01*
X2403768Y2089043D01*
X2402161Y2088469D01*
X2400439Y2087895D01*
X2398832Y2087436D01*
X2397339Y2087091D01*
X2395962Y2086747D01*
X2394928Y2086632D01*
X2394240Y2086402D01*
X2394010D01*
X2391944Y2086058D01*
X2389992Y2085828D01*
X2388040Y2085599D01*
X2386433Y2085484D01*
X2385056D01*
X2383908Y2085369D01*
X2382989D01*
X2380693Y2085484D01*
X2378512Y2085599D01*
X2376675Y2085828D01*
X2374953Y2086173D01*
X2373576Y2086402D01*
X2372657Y2086632D01*
X2371968Y2086747D01*
X2371739Y2086862D01*
X2370017Y2087436D01*
X2368410Y2088124D01*
X2366917Y2088813D01*
X2365769Y2089502D01*
X2364736Y2090191D01*
X2364047Y2090650D01*
X2363588Y2090994D01*
X2363473Y2091109D01*
X2362210Y2092142D01*
X2361177Y2093290D01*
X2360259Y2094438D01*
X2359570Y2095472D01*
X2358996Y2096390D01*
X2358537Y2097079D01*
X2358307Y2097653D01*
X2358192Y2097768D01*
X2357618Y2099260D01*
X2357159Y2100752D01*
X2356815Y2102245D01*
X2356585Y2103622D01*
X2356470Y2104770D01*
X2356356Y2105689D01*
Y2106263D01*
Y2106492D01*
Y2107755D01*
X2356585Y2109018D01*
X2356700Y2110051D01*
X2356930Y2111084D01*
X2357159Y2111773D01*
X2357389Y2112462D01*
X2357504Y2112806D01*
X2357618Y2112921D01*
X2358652Y2114873D01*
X2359111Y2115791D01*
X2359685Y2116480D01*
X2360144Y2117054D01*
X2360488Y2117513D01*
X2360718Y2117743D01*
X2360833Y2117858D01*
X2362325Y2119350D01*
X2363818Y2120498D01*
X2364392Y2120842D01*
X2364851Y2121187D01*
X2365195Y2121302D01*
X2365310Y2121416D01*
X2367147Y2122450D01*
X2368065Y2122794D01*
X2368869Y2123138D01*
X2369558Y2123368D01*
X2370132Y2123598D01*
X2370476Y2123712D01*
X2370591D01*
Y2123942D01*
X2368984Y2124746D01*
X2367491Y2125549D01*
X2367032Y2125779D01*
X2366573Y2126123D01*
X2366343Y2126238D01*
X2366228Y2126353D01*
X2364736Y2127616D01*
X2363473Y2128764D01*
X2363014Y2129223D01*
X2362670Y2129567D01*
X2362440Y2129797D01*
X2362325Y2129912D01*
X2361177Y2131404D01*
X2360374Y2132782D01*
X2360029Y2133356D01*
X2359800Y2133815D01*
X2359685Y2134159D01*
Y2134274D01*
X2359111Y2136111D01*
X2358881Y2137718D01*
X2358766Y2138407D01*
Y2138866D01*
Y2139210D01*
Y2139325D01*
X2358881Y2140818D01*
X2358996Y2142195D01*
X2359685Y2144836D01*
X2360488Y2147017D01*
X2361522Y2148854D01*
X2362555Y2150346D01*
X2363473Y2151379D01*
X2364162Y2152068D01*
X2364277Y2152298D01*
X2364392D01*
X2365540Y2153216D01*
X2366688Y2153905D01*
X2369443Y2155168D01*
X2372198Y2156086D01*
X2374953Y2156660D01*
X2376216Y2156775D01*
X2377364Y2157004D01*
X2378512Y2157119D01*
X2379430D01*
X2380234Y2157234D01*
X2383334D01*
X2385400Y2157119D01*
D02*
G37*
G36*
X2247870D02*
X2249592Y2156890D01*
X2251084Y2156775D01*
X2252462Y2156545D01*
X2253380Y2156316D01*
X2254069Y2156201D01*
X2254298D01*
X2256135Y2155856D01*
X2257857Y2155397D01*
X2259464Y2154938D01*
X2260842Y2154479D01*
X2262105Y2154134D01*
X2262908Y2153790D01*
X2263482Y2153560D01*
X2263712Y2153446D01*
X2259924Y2143228D01*
X2257398Y2144147D01*
X2256135Y2144491D01*
X2255102Y2144836D01*
X2254069Y2145065D01*
X2253380Y2145295D01*
X2252806Y2145410D01*
X2252691D01*
X2249821Y2145869D01*
X2248558Y2145984D01*
X2247525Y2146098D01*
X2246607Y2146213D01*
X2245229D01*
X2242933Y2146098D01*
X2240982Y2145754D01*
X2239260Y2145295D01*
X2237882Y2144721D01*
X2236734Y2144147D01*
X2236045Y2143688D01*
X2235471Y2143343D01*
X2235356Y2143228D01*
X2234208Y2142080D01*
X2233405Y2140818D01*
X2232716Y2139555D01*
X2232372Y2138292D01*
X2232142Y2137259D01*
X2231912Y2136340D01*
Y2135766D01*
Y2135537D01*
X2232027Y2134274D01*
X2232142Y2133126D01*
X2232486Y2132093D01*
X2232716Y2131174D01*
X2233060Y2130371D01*
X2233405Y2129797D01*
X2233520Y2129338D01*
X2233634Y2129223D01*
X2234897Y2127156D01*
X2235586Y2126238D01*
X2236160Y2125320D01*
X2236619Y2124631D01*
X2237078Y2124057D01*
X2237308Y2123712D01*
X2237423Y2123598D01*
X2267156Y2086517D01*
X2216759D01*
Y2097308D01*
X2245000D01*
X2226861Y2117743D01*
X2225713Y2119120D01*
X2224680Y2120268D01*
X2224336Y2120842D01*
X2223991Y2121187D01*
X2223876Y2121416D01*
X2223762Y2121531D01*
X2222614Y2123138D01*
X2221695Y2124516D01*
X2221351Y2125090D01*
X2221121Y2125549D01*
X2220892Y2125779D01*
Y2125894D01*
X2220088Y2127730D01*
X2219399Y2129223D01*
X2219170Y2129912D01*
X2219055Y2130371D01*
X2218940Y2130715D01*
Y2130830D01*
X2218481Y2132782D01*
X2218366Y2133700D01*
X2218251Y2134504D01*
X2218136Y2135192D01*
Y2135766D01*
Y2136111D01*
Y2136226D01*
X2218251Y2138062D01*
X2218366Y2139670D01*
X2218710Y2141277D01*
X2219170Y2142769D01*
X2220203Y2145410D01*
X2221466Y2147591D01*
X2222040Y2148509D01*
X2222728Y2149313D01*
X2223302Y2150002D01*
X2223762Y2150576D01*
X2224221Y2151035D01*
X2224450Y2151379D01*
X2224680Y2151494D01*
X2224795Y2151609D01*
X2226058Y2152642D01*
X2227550Y2153446D01*
X2229042Y2154249D01*
X2230535Y2154823D01*
X2233749Y2155856D01*
X2236849Y2156545D01*
X2238341Y2156775D01*
X2239719Y2156890D01*
X2240867Y2157119D01*
X2242015D01*
X2242818Y2157234D01*
X2246033D01*
X2247870Y2157119D01*
D02*
G37*
G36*
X2132840Y2157119D02*
X2134562Y2156890D01*
X2136054Y2156775D01*
X2137432Y2156545D01*
X2138350Y2156316D01*
X2139039Y2156201D01*
X2139269D01*
X2141106Y2155856D01*
X2142828Y2155397D01*
X2144435Y2154938D01*
X2145812Y2154479D01*
X2147075Y2154134D01*
X2147879Y2153790D01*
X2148453Y2153560D01*
X2148682Y2153445D01*
X2144894Y2143228D01*
X2142368Y2144147D01*
X2141106Y2144491D01*
X2140072Y2144836D01*
X2139039Y2145065D01*
X2138350Y2145295D01*
X2137776Y2145410D01*
X2137662D01*
X2134792Y2145869D01*
X2133529Y2145983D01*
X2132496Y2146098D01*
X2131577Y2146213D01*
X2130200D01*
X2127904Y2146098D01*
X2125952Y2145754D01*
X2124230Y2145295D01*
X2122852Y2144721D01*
X2121704Y2144147D01*
X2121016Y2143688D01*
X2120442Y2143343D01*
X2120327Y2143228D01*
X2119179Y2142080D01*
X2118375Y2140818D01*
X2117686Y2139555D01*
X2117342Y2138292D01*
X2117112Y2137259D01*
X2116883Y2136340D01*
Y2135766D01*
Y2135537D01*
X2116998Y2134274D01*
X2117112Y2133126D01*
X2117457Y2132093D01*
X2117686Y2131174D01*
X2118031Y2130371D01*
X2118375Y2129797D01*
X2118490Y2129338D01*
X2118605Y2129223D01*
X2119868Y2127156D01*
X2120556Y2126238D01*
X2121130Y2125320D01*
X2121590Y2124631D01*
X2122049Y2124057D01*
X2122278Y2123712D01*
X2122393Y2123597D01*
X2152126Y2086517D01*
X2101729D01*
Y2097308D01*
X2129970D01*
X2111832Y2117743D01*
X2110684Y2119120D01*
X2109650Y2120268D01*
X2109306Y2120842D01*
X2108962Y2121187D01*
X2108847Y2121416D01*
X2108732Y2121531D01*
X2107584Y2123138D01*
X2106666Y2124516D01*
X2106321Y2125090D01*
X2106092Y2125549D01*
X2105862Y2125779D01*
Y2125894D01*
X2105058Y2127730D01*
X2104370Y2129223D01*
X2104140Y2129912D01*
X2104025Y2130371D01*
X2103910Y2130715D01*
Y2130830D01*
X2103451Y2132782D01*
X2103336Y2133700D01*
X2103222Y2134503D01*
X2103107Y2135192D01*
Y2135766D01*
Y2136111D01*
Y2136226D01*
X2103222Y2138062D01*
X2103336Y2139669D01*
X2103681Y2141277D01*
X2104140Y2142769D01*
X2105173Y2145410D01*
X2106436Y2147591D01*
X2107010Y2148509D01*
X2107699Y2149313D01*
X2108273Y2150001D01*
X2108732Y2150575D01*
X2109191Y2151035D01*
X2109421Y2151379D01*
X2109650Y2151494D01*
X2109765Y2151609D01*
X2111028Y2152642D01*
X2112520Y2153445D01*
X2114013Y2154249D01*
X2115505Y2154823D01*
X2118720Y2155856D01*
X2121819Y2156545D01*
X2123312Y2156775D01*
X2124689Y2156890D01*
X2125837Y2157119D01*
X2126985D01*
X2127789Y2157234D01*
X2131003D01*
X2132840Y2157119D01*
D02*
G37*
G36*
X2073948D02*
X2075784Y2156890D01*
X2077392Y2156775D01*
X2078884Y2156545D01*
X2079917Y2156316D01*
X2080606Y2156201D01*
X2080836D01*
X2082787Y2155856D01*
X2084624Y2155397D01*
X2086346Y2154938D01*
X2087724Y2154479D01*
X2088872Y2154134D01*
X2089790Y2153790D01*
X2090364Y2153560D01*
X2090594Y2153445D01*
X2086805Y2143228D01*
X2084165Y2144147D01*
X2082902Y2144491D01*
X2081754Y2144836D01*
X2080836Y2145065D01*
X2080032Y2145295D01*
X2079573Y2145410D01*
X2079343D01*
X2076473Y2145983D01*
X2075096Y2146098D01*
X2073948Y2146213D01*
X2073029Y2146328D01*
X2071652D01*
X2069700Y2146213D01*
X2068093Y2145983D01*
X2066715Y2145639D01*
X2065452Y2145295D01*
X2064534Y2144836D01*
X2063960Y2144491D01*
X2063501Y2144262D01*
X2063386Y2144147D01*
X2062468Y2143343D01*
X2061779Y2142310D01*
X2061205Y2141392D01*
X2060860Y2140473D01*
X2060631Y2139555D01*
X2060516Y2138866D01*
Y2138407D01*
Y2138292D01*
Y2137488D01*
X2060746Y2136685D01*
X2061205Y2135307D01*
X2061434Y2134733D01*
X2061664Y2134389D01*
X2061779Y2134159D01*
X2061894Y2134044D01*
X2063042Y2132782D01*
X2064190Y2131748D01*
X2064764Y2131289D01*
X2065223Y2130945D01*
X2065452Y2130830D01*
X2065567Y2130715D01*
X2067519Y2129682D01*
X2069356Y2128993D01*
X2070159Y2128649D01*
X2070848Y2128419D01*
X2071307Y2128304D01*
X2071422D01*
X2074062Y2127730D01*
X2075325Y2127501D01*
X2076588Y2127386D01*
X2077621Y2127271D01*
X2078425Y2127156D01*
X2079114D01*
Y2117513D01*
X2076473D01*
X2074981Y2117398D01*
X2073718Y2117284D01*
X2072570Y2117169D01*
X2071652Y2116939D01*
X2070848Y2116824D01*
X2070389Y2116709D01*
X2070274D01*
X2069011Y2116480D01*
X2067748Y2116135D01*
X2066715Y2115791D01*
X2065797Y2115447D01*
X2065108Y2115102D01*
X2064534Y2114873D01*
X2064190Y2114758D01*
X2064075Y2114643D01*
X2063156Y2114184D01*
X2062353Y2113610D01*
X2061549Y2113036D01*
X2060975Y2112462D01*
X2060516Y2112003D01*
X2060172Y2111658D01*
X2060057Y2111429D01*
X2059942Y2111314D01*
X2059483Y2110510D01*
X2059024Y2109707D01*
X2058679Y2108099D01*
X2058564Y2107526D01*
X2058450Y2106952D01*
Y2106607D01*
Y2106492D01*
X2058564Y2104885D01*
X2059024Y2103393D01*
X2059598Y2102130D01*
X2060172Y2101097D01*
X2060860Y2100293D01*
X2061434Y2099604D01*
X2061894Y2099260D01*
X2062008Y2099145D01*
X2063386Y2098227D01*
X2064993Y2097538D01*
X2066600Y2097079D01*
X2068208Y2096734D01*
X2069585Y2096505D01*
X2070733Y2096390D01*
X2073488D01*
X2075096Y2096505D01*
X2076588Y2096619D01*
X2077966Y2096734D01*
X2079114Y2096849D01*
X2079917Y2096964D01*
X2080491Y2097079D01*
X2080721D01*
X2082328Y2097423D01*
X2083706Y2097767D01*
X2084968Y2098112D01*
X2086116Y2098456D01*
X2086920Y2098801D01*
X2087609Y2099030D01*
X2088068Y2099260D01*
X2088183D01*
X2092316Y2089043D01*
X2090708Y2088469D01*
X2088986Y2087895D01*
X2087379Y2087436D01*
X2085887Y2087091D01*
X2084509Y2086747D01*
X2083476Y2086632D01*
X2082787Y2086402D01*
X2082558D01*
X2080491Y2086058D01*
X2078540Y2085828D01*
X2076588Y2085599D01*
X2074981Y2085484D01*
X2073603D01*
X2072455Y2085369D01*
X2071537D01*
X2069241Y2085484D01*
X2067060Y2085599D01*
X2065223Y2085828D01*
X2063501Y2086173D01*
X2062123Y2086402D01*
X2061205Y2086632D01*
X2060516Y2086747D01*
X2060286Y2086861D01*
X2058564Y2087436D01*
X2056957Y2088124D01*
X2055465Y2088813D01*
X2054317Y2089502D01*
X2053284Y2090191D01*
X2052595Y2090650D01*
X2052136Y2090994D01*
X2052021Y2091109D01*
X2050758Y2092142D01*
X2049725Y2093290D01*
X2048806Y2094438D01*
X2048118Y2095472D01*
X2047544Y2096390D01*
X2047084Y2097079D01*
X2046855Y2097653D01*
X2046740Y2097767D01*
X2046166Y2099260D01*
X2045707Y2100752D01*
X2045362Y2102245D01*
X2045133Y2103622D01*
X2045018Y2104770D01*
X2044903Y2105689D01*
Y2106263D01*
Y2106492D01*
Y2107755D01*
X2045133Y2109018D01*
X2045248Y2110051D01*
X2045477Y2111084D01*
X2045707Y2111773D01*
X2045936Y2112462D01*
X2046051Y2112806D01*
X2046166Y2112921D01*
X2047199Y2114873D01*
X2047658Y2115791D01*
X2048232Y2116480D01*
X2048692Y2117054D01*
X2049036Y2117513D01*
X2049266Y2117743D01*
X2049380Y2117858D01*
X2050873Y2119350D01*
X2052365Y2120498D01*
X2052939Y2120842D01*
X2053398Y2121187D01*
X2053743Y2121302D01*
X2053858Y2121416D01*
X2055694Y2122450D01*
X2056613Y2122794D01*
X2057416Y2123138D01*
X2058105Y2123368D01*
X2058679Y2123597D01*
X2059024Y2123712D01*
X2059138D01*
Y2123942D01*
X2057531Y2124745D01*
X2056039Y2125549D01*
X2055580Y2125779D01*
X2055120Y2126123D01*
X2054891Y2126238D01*
X2054776Y2126353D01*
X2053284Y2127615D01*
X2052021Y2128764D01*
X2051562Y2129223D01*
X2051217Y2129567D01*
X2050988Y2129797D01*
X2050873Y2129912D01*
X2049725Y2131404D01*
X2048921Y2132782D01*
X2048577Y2133356D01*
X2048347Y2133815D01*
X2048232Y2134159D01*
Y2134274D01*
X2047658Y2136111D01*
X2047429Y2137718D01*
X2047314Y2138407D01*
Y2138866D01*
Y2139210D01*
Y2139325D01*
X2047429Y2140818D01*
X2047544Y2142195D01*
X2048232Y2144836D01*
X2049036Y2147017D01*
X2050069Y2148854D01*
X2051102Y2150346D01*
X2052021Y2151379D01*
X2052710Y2152068D01*
X2052824Y2152298D01*
X2052939D01*
X2054087Y2153216D01*
X2055235Y2153905D01*
X2057990Y2155168D01*
X2060746Y2156086D01*
X2063501Y2156660D01*
X2064764Y2156775D01*
X2065912Y2157004D01*
X2067060Y2157119D01*
X2067978D01*
X2068782Y2157234D01*
X2071881D01*
X2073948Y2157119D01*
D02*
G37*
G36*
X2549794Y2139210D02*
X2551630Y2139096D01*
X2553238Y2138866D01*
X2554615Y2138636D01*
X2555648Y2138407D01*
X2556337Y2138292D01*
X2556452Y2138177D01*
X2556567D01*
X2558404Y2137718D01*
X2560011Y2137259D01*
X2561503Y2136914D01*
X2562651Y2136455D01*
X2563684Y2136111D01*
X2564373Y2135881D01*
X2564832Y2135766D01*
X2564947Y2135652D01*
X2561733Y2126812D01*
X2560700Y2127271D01*
X2559666Y2127501D01*
X2558863Y2127730D01*
X2558748Y2127845D01*
X2558633D01*
X2557256Y2128304D01*
X2556108Y2128534D01*
X2555648Y2128764D01*
X2555304D01*
X2555074Y2128878D01*
X2554960D01*
X2553467Y2129223D01*
X2552319Y2129452D01*
X2551745D01*
X2551401Y2129567D01*
X2551056D01*
X2549564Y2129797D01*
X2548301Y2129912D01*
X2547153D01*
X2545546Y2129797D01*
X2544168Y2129682D01*
X2543020Y2129338D01*
X2541987Y2129108D01*
X2541184Y2128764D01*
X2540610Y2128419D01*
X2540265Y2128304D01*
X2540150Y2128190D01*
X2539232Y2127501D01*
X2538658Y2126582D01*
X2538199Y2125664D01*
X2537854Y2124746D01*
X2537625Y2123827D01*
X2537510Y2123138D01*
Y2122679D01*
Y2122450D01*
Y2119809D01*
X2539691Y2119694D01*
X2541758Y2119465D01*
X2543709Y2119235D01*
X2545431Y2119006D01*
X2546809Y2118891D01*
X2547957Y2118661D01*
X2548646Y2118546D01*
X2548875D01*
X2550827Y2118202D01*
X2552664Y2117743D01*
X2554271Y2117284D01*
X2555763Y2116824D01*
X2556911Y2116480D01*
X2557715Y2116136D01*
X2558289Y2115906D01*
X2558518Y2115791D01*
X2560011Y2115102D01*
X2561388Y2114184D01*
X2562536Y2113380D01*
X2563455Y2112577D01*
X2564258Y2111773D01*
X2564832Y2111199D01*
X2565177Y2110740D01*
X2565292Y2110625D01*
X2566095Y2109248D01*
X2566784Y2107870D01*
X2567243Y2106492D01*
X2567473Y2105115D01*
X2567702Y2103852D01*
X2567817Y2102934D01*
Y2102245D01*
Y2102130D01*
Y2102015D01*
X2567702Y2100523D01*
X2567588Y2099260D01*
X2566899Y2096734D01*
X2565980Y2094668D01*
X2564947Y2092946D01*
X2563914Y2091568D01*
X2562996Y2090535D01*
X2562307Y2089961D01*
X2562192Y2089732D01*
X2562077D01*
X2560929Y2088928D01*
X2559666Y2088239D01*
X2556911Y2087206D01*
X2553926Y2086402D01*
X2551056Y2085943D01*
X2549794Y2085714D01*
X2548531Y2085599D01*
X2547383Y2085484D01*
X2546464D01*
X2545661Y2085369D01*
X2542332D01*
X2540265Y2085599D01*
X2538428Y2085714D01*
X2536706Y2085943D01*
X2535329Y2086173D01*
X2534296Y2086288D01*
X2533607Y2086517D01*
X2533377D01*
X2531426Y2086976D01*
X2529818Y2087321D01*
X2528441Y2087780D01*
X2527178Y2088124D01*
X2526260Y2088469D01*
X2525686Y2088813D01*
X2525226Y2088928D01*
X2525112Y2089043D01*
Y2120957D01*
Y2122794D01*
X2525341Y2124401D01*
X2525571Y2125894D01*
X2525915Y2127386D01*
X2526374Y2128649D01*
X2526834Y2129797D01*
X2527293Y2130830D01*
X2527752Y2131748D01*
X2528326Y2132552D01*
X2528785Y2133241D01*
X2529704Y2134274D01*
X2530278Y2134848D01*
X2530392Y2135078D01*
X2530507D01*
X2532688Y2136570D01*
X2535214Y2137603D01*
X2537740Y2138407D01*
X2540150Y2138866D01*
X2542332Y2139210D01*
X2543365Y2139325D01*
X2544168D01*
X2544857Y2139440D01*
X2547842D01*
X2549794Y2139210D01*
D02*
G37*
G36*
X2341546Y2118432D02*
X2339365Y2118776D01*
X2338447D01*
X2337643Y2118891D01*
X2336954Y2119006D01*
X2336036D01*
X2334199Y2119120D01*
X2333281Y2119235D01*
X2329263D01*
X2327656Y2119120D01*
X2326163Y2119006D01*
X2324786Y2118776D01*
X2323752Y2118661D01*
X2323064Y2118432D01*
X2322490Y2118317D01*
X2322375D01*
X2321112Y2117972D01*
X2319849Y2117513D01*
X2318816Y2117169D01*
X2318012Y2116710D01*
X2317324Y2116365D01*
X2316864Y2116021D01*
X2316520Y2115906D01*
X2316405Y2115791D01*
X2315602Y2115217D01*
X2314913Y2114528D01*
X2313880Y2113266D01*
X2313535Y2112806D01*
X2313306Y2112347D01*
X2313076Y2112118D01*
Y2112003D01*
X2312387Y2110281D01*
X2312043Y2108674D01*
X2311928Y2108100D01*
Y2107526D01*
Y2107181D01*
Y2107066D01*
X2312043Y2105230D01*
X2312502Y2103737D01*
X2313191Y2102360D01*
X2313880Y2101212D01*
X2314568Y2100293D01*
X2315257Y2099719D01*
X2315716Y2099260D01*
X2315831Y2099145D01*
X2317324Y2098227D01*
X2319046Y2097538D01*
X2320768Y2097079D01*
X2322375Y2096734D01*
X2323867Y2096505D01*
X2325130Y2096390D01*
X2326163D01*
X2329148Y2096505D01*
X2330526Y2096620D01*
X2331903Y2096734D01*
X2332936Y2096849D01*
X2333740Y2096964D01*
X2334314Y2097079D01*
X2334544D01*
X2336036Y2097423D01*
X2337414Y2097768D01*
X2338676Y2098112D01*
X2339710Y2098456D01*
X2340628Y2098801D01*
X2341202Y2099030D01*
X2341661Y2099260D01*
X2341776D01*
X2345909Y2089043D01*
X2342694Y2088010D01*
X2341087Y2087550D01*
X2339595Y2087091D01*
X2338332Y2086862D01*
X2337414Y2086632D01*
X2336725Y2086402D01*
X2336495D01*
X2334544Y2086058D01*
X2332592Y2085828D01*
X2330755Y2085599D01*
X2329148Y2085484D01*
X2327770D01*
X2326737Y2085369D01*
X2325819D01*
X2323638Y2085484D01*
X2321686Y2085599D01*
X2319734Y2085828D01*
X2318127Y2086058D01*
X2316864Y2086288D01*
X2315831Y2086517D01*
X2315142Y2086747D01*
X2314913D01*
X2313076Y2087321D01*
X2311469Y2088010D01*
X2309976Y2088698D01*
X2308599Y2089387D01*
X2307566Y2089961D01*
X2306877Y2090420D01*
X2306303Y2090765D01*
X2306188Y2090880D01*
X2304925Y2092028D01*
X2303777Y2093176D01*
X2302744Y2094324D01*
X2301940Y2095357D01*
X2301252Y2096275D01*
X2300792Y2097079D01*
X2300563Y2097538D01*
X2300448Y2097768D01*
X2299759Y2099375D01*
X2299300Y2100982D01*
X2298841Y2102589D01*
X2298611Y2104196D01*
X2298496Y2105459D01*
X2298382Y2106492D01*
Y2107181D01*
Y2107296D01*
Y2107411D01*
X2298496Y2109248D01*
X2298726Y2110970D01*
X2299070Y2112577D01*
X2299415Y2114184D01*
X2299989Y2115562D01*
X2300563Y2116824D01*
X2301137Y2117972D01*
X2301826Y2119120D01*
X2302514Y2120039D01*
X2303088Y2120842D01*
X2303662Y2121531D01*
X2304236Y2122105D01*
X2304581Y2122564D01*
X2304925Y2122909D01*
X2305155Y2123024D01*
X2305270Y2123138D01*
X2306647Y2124172D01*
X2308140Y2125090D01*
X2309632Y2125779D01*
X2311354Y2126468D01*
X2314798Y2127501D01*
X2318127Y2128190D01*
X2319620Y2128419D01*
X2321112Y2128534D01*
X2322375Y2128764D01*
X2323523D01*
X2324556Y2128878D01*
X2327770D01*
X2325819Y2145180D01*
X2299874D01*
Y2155971D01*
X2337299D01*
X2341546Y2118432D01*
D02*
G37*
G36*
X2589629Y2139325D02*
X2591236Y2139210D01*
X2592729Y2138866D01*
X2594106Y2138636D01*
X2595140Y2138292D01*
X2596058Y2137948D01*
X2596517Y2137833D01*
X2596747Y2137718D01*
X2598239Y2137029D01*
X2599617Y2136226D01*
X2600880Y2135422D01*
X2601913Y2134618D01*
X2602831Y2133930D01*
X2603520Y2133356D01*
X2603979Y2132896D01*
X2604094Y2132782D01*
X2605242Y2131519D01*
X2606275Y2130026D01*
X2607194Y2128649D01*
X2607882Y2127386D01*
X2608456Y2126123D01*
X2608916Y2125205D01*
X2609145Y2124631D01*
X2609260Y2124516D01*
Y2124401D01*
X2609834Y2122450D01*
X2610293Y2120383D01*
X2610638Y2118317D01*
X2610867Y2116480D01*
X2610982Y2114873D01*
X2611097Y2113495D01*
Y2113036D01*
Y2112692D01*
Y2112462D01*
Y2112347D01*
X2610982Y2109822D01*
X2610752Y2107526D01*
X2610523Y2105574D01*
X2610178Y2103852D01*
X2609834Y2102360D01*
X2609490Y2101326D01*
X2609375Y2100638D01*
X2609260Y2100523D01*
Y2100408D01*
X2608456Y2098571D01*
X2607653Y2096964D01*
X2606734Y2095472D01*
X2605931Y2094324D01*
X2605242Y2093290D01*
X2604668Y2092487D01*
X2604209Y2092028D01*
X2604094Y2091913D01*
X2602831Y2090765D01*
X2601568Y2089732D01*
X2600306Y2088928D01*
X2599158Y2088239D01*
X2598239Y2087665D01*
X2597436Y2087321D01*
X2596976Y2087091D01*
X2596747Y2086976D01*
X2595140Y2086402D01*
X2593532Y2086058D01*
X2592155Y2085714D01*
X2590777Y2085599D01*
X2589629Y2085484D01*
X2588826Y2085369D01*
X2588022D01*
X2585152Y2085484D01*
X2582512Y2085943D01*
X2580216Y2086517D01*
X2578149Y2087091D01*
X2576542Y2087780D01*
X2575853Y2088010D01*
X2575279Y2088239D01*
X2574820Y2088469D01*
X2574476Y2088698D01*
X2574361Y2088813D01*
X2574246D01*
X2578379Y2098686D01*
X2579642Y2097882D01*
X2580904Y2097308D01*
X2582167Y2096964D01*
X2583430Y2096734D01*
X2584463Y2096505D01*
X2585267Y2096390D01*
X2586070D01*
X2587678Y2096505D01*
X2589170Y2096849D01*
X2589744Y2097079D01*
X2590203Y2097194D01*
X2590433Y2097308D01*
X2590548D01*
X2592040Y2098227D01*
X2593188Y2099145D01*
X2593647Y2099604D01*
X2593877Y2099949D01*
X2594106Y2100178D01*
X2594221Y2100293D01*
X2595254Y2102015D01*
X2595943Y2103622D01*
X2596288Y2104311D01*
X2596517Y2104885D01*
X2596632Y2105230D01*
Y2105344D01*
X2597206Y2107755D01*
X2597321Y2109018D01*
X2597436Y2110051D01*
X2597550Y2111084D01*
Y2111773D01*
Y2112232D01*
Y2112462D01*
X2597436Y2115332D01*
X2596976Y2117858D01*
X2596517Y2119924D01*
X2595828Y2121646D01*
X2595254Y2122909D01*
X2594680Y2123827D01*
X2594336Y2124401D01*
X2594221Y2124631D01*
X2592958Y2126008D01*
X2591581Y2126927D01*
X2590203Y2127616D01*
X2588940Y2128190D01*
X2587792Y2128419D01*
X2586874Y2128534D01*
X2586300Y2128649D01*
X2586070D01*
X2584463Y2128534D01*
X2582971Y2128304D01*
X2581593Y2127960D01*
X2580445Y2127616D01*
X2579642Y2127156D01*
X2578953Y2126812D01*
X2578494Y2126582D01*
X2578379Y2126468D01*
X2574246Y2135881D01*
X2576542Y2137029D01*
X2578838Y2137948D01*
X2581134Y2138522D01*
X2583315Y2138981D01*
X2585152Y2139210D01*
X2585956Y2139325D01*
X2586644Y2139440D01*
X2588022D01*
X2589629Y2139325D01*
D02*
G37*
G36*
X2461168Y2113036D02*
Y2103622D01*
X2430057D01*
Y2086517D01*
X2417888D01*
Y2103622D01*
X2411000D01*
Y2113036D01*
X2417888D01*
Y2155971D01*
X2432238D01*
X2461168Y2113036D01*
D02*
G37*
G36*
X2483669Y2137718D02*
X2484702Y2138062D01*
X2485850Y2138292D01*
X2486309D01*
X2486654Y2138407D01*
X2486998D01*
X2488490Y2138636D01*
X2489753Y2138751D01*
X2491016D01*
X2493197Y2138636D01*
X2495149Y2138407D01*
X2496986Y2138177D01*
X2498478Y2137833D01*
X2499856Y2137374D01*
X2500774Y2137144D01*
X2501348Y2136914D01*
X2501578Y2136800D01*
X2503185Y2135996D01*
X2504677Y2135078D01*
X2505940Y2134159D01*
X2507088Y2133356D01*
X2507892Y2132552D01*
X2508580Y2131863D01*
X2509040Y2131404D01*
X2509154Y2131289D01*
X2510188Y2129912D01*
X2511221Y2128534D01*
X2511910Y2127156D01*
X2512598Y2125779D01*
X2513058Y2124631D01*
X2513517Y2123712D01*
X2513632Y2123138D01*
X2513746Y2123024D01*
Y2122909D01*
X2514206Y2121072D01*
X2514550Y2119120D01*
X2514894Y2117284D01*
X2515009Y2115562D01*
X2515124Y2114184D01*
X2515239Y2113036D01*
Y2112577D01*
Y2112232D01*
Y2112118D01*
Y2112003D01*
X2515124Y2109707D01*
X2515009Y2107526D01*
X2514665Y2105459D01*
X2514206Y2103622D01*
X2513746Y2101900D01*
X2513172Y2100293D01*
X2512598Y2098801D01*
X2511910Y2097423D01*
X2511336Y2096275D01*
X2510762Y2095242D01*
X2510188Y2094438D01*
X2509728Y2093635D01*
X2509269Y2093061D01*
X2508925Y2092716D01*
X2508810Y2092487D01*
X2508695Y2092372D01*
X2507432Y2091109D01*
X2505940Y2090076D01*
X2504448Y2089158D01*
X2502840Y2088354D01*
X2501233Y2087665D01*
X2499626Y2087091D01*
X2496526Y2086288D01*
X2495149Y2085943D01*
X2493771Y2085714D01*
X2492508Y2085599D01*
X2491475Y2085484D01*
X2490672Y2085369D01*
X2487228D01*
X2485161Y2085599D01*
X2483324Y2085714D01*
X2481602Y2085943D01*
X2480340Y2086173D01*
X2479306Y2086288D01*
X2478618Y2086517D01*
X2478388D01*
X2476551Y2086976D01*
X2475059Y2087321D01*
X2473681Y2087780D01*
X2472533Y2088124D01*
X2471615Y2088469D01*
X2471041Y2088813D01*
X2470582Y2088928D01*
X2470467Y2089043D01*
Y2161941D01*
X2483669D01*
Y2137718D01*
D02*
G37*
G36*
X2184270Y2157119D02*
X2186337Y2156775D01*
X2188174Y2156316D01*
X2189781Y2155856D01*
X2191044Y2155397D01*
X2192077Y2154938D01*
X2192651Y2154594D01*
X2192880Y2154479D01*
X2194488Y2153331D01*
X2195980Y2152068D01*
X2197243Y2150805D01*
X2198276Y2149657D01*
X2199194Y2148509D01*
X2199768Y2147591D01*
X2200228Y2147017D01*
X2200342Y2146902D01*
Y2146787D01*
X2201376Y2144950D01*
X2202179Y2142999D01*
X2202983Y2141047D01*
X2203557Y2139325D01*
X2204016Y2137718D01*
X2204360Y2136570D01*
X2204475Y2136111D01*
Y2135766D01*
X2204590Y2135537D01*
Y2135422D01*
X2205049Y2132896D01*
X2205394Y2130486D01*
X2205623Y2128075D01*
X2205738Y2125894D01*
X2205853Y2124057D01*
X2205968Y2123253D01*
Y2122564D01*
Y2121990D01*
Y2121646D01*
Y2121416D01*
Y2121302D01*
X2205853Y2118432D01*
X2205738Y2115791D01*
X2205508Y2113380D01*
X2205279Y2111314D01*
X2205049Y2109592D01*
X2204934Y2108788D01*
X2204820Y2108214D01*
X2204705Y2107755D01*
X2204590Y2107411D01*
Y2107181D01*
Y2107066D01*
X2204016Y2104656D01*
X2203327Y2102474D01*
X2202638Y2100523D01*
X2201950Y2098916D01*
X2201376Y2097538D01*
X2200802Y2096505D01*
X2200457Y2095816D01*
X2200342Y2095701D01*
Y2095586D01*
X2199194Y2093864D01*
X2197932Y2092372D01*
X2196669Y2091109D01*
X2195521Y2089961D01*
X2194488Y2089158D01*
X2193684Y2088469D01*
X2193110Y2088124D01*
X2192880Y2088010D01*
X2191044Y2087091D01*
X2189207Y2086517D01*
X2187370Y2086058D01*
X2185648Y2085714D01*
X2184156Y2085484D01*
X2183008Y2085369D01*
X2181974D01*
X2179678Y2085484D01*
X2177612Y2085828D01*
X2175775Y2086173D01*
X2174168Y2086747D01*
X2172905Y2087206D01*
X2171872Y2087550D01*
X2171298Y2087895D01*
X2171068Y2088010D01*
X2169461Y2089158D01*
X2167969Y2090306D01*
X2166706Y2091568D01*
X2165558Y2092831D01*
X2164754Y2093864D01*
X2164066Y2094783D01*
X2163721Y2095357D01*
X2163606Y2095586D01*
X2162573Y2097538D01*
X2161770Y2099490D01*
X2160966Y2101441D01*
X2160392Y2103163D01*
X2159933Y2104770D01*
X2159588Y2105918D01*
X2159474Y2106378D01*
Y2106722D01*
X2159359Y2106952D01*
Y2107066D01*
X2158900Y2109592D01*
X2158555Y2112003D01*
X2158326Y2114414D01*
X2158096Y2116595D01*
Y2118546D01*
X2157981Y2119350D01*
Y2120039D01*
Y2120498D01*
Y2120957D01*
Y2121187D01*
Y2121302D01*
Y2124057D01*
X2158211Y2126697D01*
X2158440Y2129108D01*
X2158670Y2131174D01*
X2158900Y2133011D01*
X2159014Y2133700D01*
X2159129Y2134274D01*
X2159244Y2134733D01*
Y2135078D01*
X2159359Y2135307D01*
Y2135422D01*
X2159933Y2137833D01*
X2160622Y2140014D01*
X2161310Y2141851D01*
X2161999Y2143573D01*
X2162573Y2144950D01*
X2163147Y2145984D01*
X2163492Y2146558D01*
X2163606Y2146787D01*
X2164754Y2148509D01*
X2166017Y2150116D01*
X2167280Y2151379D01*
X2168428Y2152527D01*
X2169461Y2153331D01*
X2170265Y2154020D01*
X2170839Y2154364D01*
X2171068Y2154479D01*
X2172905Y2155397D01*
X2174742Y2156086D01*
X2176579Y2156545D01*
X2178186Y2156890D01*
X2179678Y2157119D01*
X2180941Y2157234D01*
X2181974D01*
X2184270Y2157119D01*
D02*
G37*
%LPC*%
G36*
X2594853Y2310836D02*
X2594049D01*
X2592327Y2310722D01*
X2590949Y2310377D01*
X2589687Y2309918D01*
X2588653Y2309344D01*
X2587735Y2308770D01*
X2587161Y2308311D01*
X2586817Y2307966D01*
X2586702Y2307852D01*
X2585783Y2306704D01*
X2585209Y2305326D01*
X2584750Y2303834D01*
X2584406Y2302456D01*
X2584176Y2301078D01*
X2584061Y2300045D01*
Y2299356D01*
Y2299242D01*
Y2299127D01*
X2605873Y2296142D01*
X2605644Y2298668D01*
X2605185Y2300849D01*
X2604725Y2302800D01*
X2604037Y2304293D01*
X2603463Y2305556D01*
X2602889Y2306359D01*
X2602544Y2306933D01*
X2602429Y2307048D01*
X2601167Y2308311D01*
X2599789Y2309229D01*
X2598411Y2309918D01*
X2597034Y2310377D01*
X2595886Y2310607D01*
X2594853Y2310836D01*
D02*
G37*
G36*
X2433903D02*
X2433099D01*
X2431377Y2310722D01*
X2430000Y2310377D01*
X2428737Y2309918D01*
X2427704Y2309344D01*
X2426785Y2308770D01*
X2426211Y2308311D01*
X2425867Y2307966D01*
X2425752Y2307852D01*
X2424834Y2306704D01*
X2424260Y2305326D01*
X2423801Y2303834D01*
X2423456Y2302456D01*
X2423227Y2301078D01*
X2423112Y2300045D01*
Y2299356D01*
Y2299242D01*
Y2299127D01*
X2444924Y2296142D01*
X2444694Y2298668D01*
X2444235Y2300849D01*
X2443776Y2302800D01*
X2443087Y2304293D01*
X2442513Y2305556D01*
X2441939Y2306359D01*
X2441595Y2306933D01*
X2441480Y2307048D01*
X2440217Y2308311D01*
X2438839Y2309229D01*
X2437462Y2309918D01*
X2436084Y2310377D01*
X2434936Y2310607D01*
X2433903Y2310836D01*
D02*
G37*
G36*
X2379488D02*
X2378684D01*
X2376962Y2310722D01*
X2375585Y2310377D01*
X2374322Y2309918D01*
X2373289Y2309344D01*
X2372370Y2308770D01*
X2371796Y2308311D01*
X2371452Y2307966D01*
X2371337Y2307852D01*
X2370419Y2306704D01*
X2369845Y2305326D01*
X2369385Y2303834D01*
X2369041Y2302456D01*
X2368811Y2301078D01*
X2368697Y2300045D01*
Y2299356D01*
Y2299242D01*
Y2299127D01*
X2390509Y2296142D01*
X2390279Y2298668D01*
X2389820Y2300849D01*
X2389361Y2302800D01*
X2388672Y2304293D01*
X2388098Y2305556D01*
X2387524Y2306359D01*
X2387179Y2306933D01*
X2387065Y2307048D01*
X2385802Y2308311D01*
X2384424Y2309229D01*
X2383047Y2309918D01*
X2381669Y2310377D01*
X2380521Y2310607D01*
X2379488Y2310836D01*
D02*
G37*
G36*
X2270428D02*
X2269624D01*
X2267902Y2310722D01*
X2266525Y2310377D01*
X2265262Y2309918D01*
X2264229Y2309344D01*
X2263310Y2308770D01*
X2262736Y2308311D01*
X2262392Y2307966D01*
X2262277Y2307852D01*
X2261359Y2306704D01*
X2260785Y2305326D01*
X2260325Y2303834D01*
X2259981Y2302456D01*
X2259751Y2301078D01*
X2259637Y2300045D01*
Y2299356D01*
Y2299242D01*
Y2299127D01*
X2281449Y2296142D01*
X2281219Y2298668D01*
X2280760Y2300849D01*
X2280301Y2302800D01*
X2279612Y2304293D01*
X2279038Y2305556D01*
X2278464Y2306359D01*
X2278119Y2306933D01*
X2278005Y2307048D01*
X2276742Y2308311D01*
X2275364Y2309229D01*
X2273987Y2309918D01*
X2272609Y2310377D01*
X2271461Y2310607D01*
X2270428Y2310836D01*
D02*
G37*
G36*
X2788865Y2327712D02*
X2787602D01*
X2785191Y2327597D01*
X2783125Y2327253D01*
X2781403Y2326679D01*
X2779795Y2325875D01*
X2778533Y2324957D01*
X2777499Y2323924D01*
X2776581Y2322890D01*
X2775892Y2321857D01*
X2775318Y2320709D01*
X2774859Y2319676D01*
X2774629Y2318643D01*
X2774400Y2317724D01*
X2774285Y2317036D01*
X2774170Y2316347D01*
Y2316003D01*
Y2315888D01*
X2774285Y2313936D01*
X2774744Y2312214D01*
X2775318Y2310722D01*
X2776007Y2309574D01*
X2776811Y2308541D01*
X2777385Y2307852D01*
X2777844Y2307392D01*
X2777959Y2307278D01*
X2779451Y2306244D01*
X2781173Y2305441D01*
X2783010Y2304982D01*
X2784732Y2304523D01*
X2786339Y2304293D01*
X2787717Y2304178D01*
X2790127D01*
X2791275Y2304293D01*
X2792194D01*
X2793112Y2304408D01*
X2793686Y2304523D01*
X2794260D01*
X2794490Y2304637D01*
X2794605D01*
Y2326679D01*
X2793571Y2327023D01*
X2792538Y2327253D01*
X2792194D01*
X2791849Y2327368D01*
X2791505D01*
X2790013Y2327597D01*
X2788865Y2327712D01*
D02*
G37*
G36*
X2090307Y2325416D02*
X2090077D01*
Y2325072D01*
Y2324727D01*
Y2323579D01*
X2090192Y2323120D01*
Y2322661D01*
Y2322316D01*
Y2322202D01*
X2090307Y2320250D01*
Y2319217D01*
Y2318298D01*
Y2317495D01*
Y2316921D01*
Y2316461D01*
Y2316347D01*
Y2293961D01*
X2110511D01*
X2094784Y2317495D01*
X2094325Y2318184D01*
X2093865Y2318872D01*
X2093636Y2319331D01*
X2093521Y2319561D01*
X2093062Y2320479D01*
X2092603Y2321283D01*
X2092258Y2321742D01*
X2092143Y2321972D01*
X2091684Y2322776D01*
X2091340Y2323464D01*
X2091110Y2323923D01*
X2090995Y2324038D01*
X2090651Y2324612D01*
X2090421Y2325072D01*
X2090307Y2325301D01*
Y2325416D01*
D02*
G37*
G36*
X2730431Y2310033D02*
X2730202D01*
X2728365Y2309803D01*
X2726873Y2309344D01*
X2725495Y2308655D01*
X2724462Y2307852D01*
X2723543Y2306933D01*
X2722969Y2306244D01*
X2722625Y2305785D01*
X2722510Y2305556D01*
X2721592Y2303834D01*
X2721018Y2301767D01*
X2720559Y2299816D01*
X2720214Y2297864D01*
X2719985Y2296142D01*
Y2295338D01*
X2719870Y2294650D01*
Y2294190D01*
Y2293731D01*
Y2293502D01*
Y2293387D01*
X2719985Y2290632D01*
X2720329Y2288221D01*
X2720673Y2286154D01*
X2721133Y2284432D01*
X2721707Y2283055D01*
X2722051Y2282022D01*
X2722395Y2281448D01*
X2722510Y2281218D01*
X2723543Y2279726D01*
X2724806Y2278692D01*
X2726069Y2277889D01*
X2727332Y2277430D01*
X2728480Y2277085D01*
X2729398Y2276970D01*
X2729972Y2276856D01*
X2730202D01*
X2732039Y2277085D01*
X2733646Y2277544D01*
X2734909Y2278233D01*
X2736057Y2279037D01*
X2736860Y2279840D01*
X2737549Y2280529D01*
X2737893Y2280988D01*
X2738008Y2281218D01*
X2738927Y2283055D01*
X2739501Y2285006D01*
X2739960Y2287073D01*
X2740304Y2289024D01*
X2740534Y2290747D01*
Y2291435D01*
X2740649Y2292124D01*
Y2292698D01*
Y2293043D01*
Y2293272D01*
Y2293387D01*
X2740534Y2296142D01*
X2740189Y2298553D01*
X2739845Y2300619D01*
X2739271Y2302456D01*
X2738812Y2303719D01*
X2738467Y2304752D01*
X2738123Y2305326D01*
X2738008Y2305556D01*
X2736860Y2307048D01*
X2735712Y2308196D01*
X2734335Y2309000D01*
X2733072Y2309459D01*
X2731924Y2309803D01*
X2731005Y2309918D01*
X2730431Y2310033D01*
D02*
G37*
G36*
X2323006Y2309803D02*
X2321169D01*
X2320021Y2309688D01*
X2319677Y2309574D01*
X2319333D01*
X2319103Y2309459D01*
X2318988D01*
X2317840Y2309229D01*
X2316922Y2309000D01*
X2316463Y2308885D01*
X2316348Y2308770D01*
Y2277544D01*
X2317151Y2277200D01*
X2317955Y2276970D01*
X2318644Y2276856D01*
X2318873Y2276741D01*
X2318988D01*
X2320251Y2276626D01*
X2321399Y2276511D01*
X2322432D01*
X2324499Y2276741D01*
X2326450Y2277200D01*
X2327943Y2277889D01*
X2329320Y2278692D01*
X2330353Y2279496D01*
X2331157Y2280185D01*
X2331616Y2280644D01*
X2331731Y2280874D01*
X2332764Y2282710D01*
X2333568Y2284662D01*
X2334142Y2286728D01*
X2334486Y2288680D01*
X2334716Y2290402D01*
X2334831Y2291206D01*
X2334945Y2291894D01*
Y2292354D01*
Y2292813D01*
Y2293042D01*
Y2293157D01*
X2334831Y2295798D01*
X2334486Y2298094D01*
X2333912Y2300160D01*
X2333338Y2301882D01*
X2332764Y2303260D01*
X2332190Y2304293D01*
X2331846Y2304867D01*
X2331731Y2305096D01*
X2330353Y2306704D01*
X2328861Y2307852D01*
X2327369Y2308655D01*
X2325876Y2309229D01*
X2324499Y2309574D01*
X2323465Y2309688D01*
X2323006Y2309803D01*
D02*
G37*
G36*
X1872646Y2327712D02*
X1872187D01*
X1871153Y2327597D01*
X1870235Y2327482D01*
X1869317Y2327138D01*
X1868628Y2326794D01*
X1868054Y2326449D01*
X1867595Y2326220D01*
X1867365Y2325990D01*
X1867250Y2325875D01*
X1866561Y2325072D01*
X1865873Y2324268D01*
X1864839Y2322546D01*
X1864380Y2321742D01*
X1864151Y2321168D01*
X1863921Y2320709D01*
Y2320594D01*
X1863462Y2319331D01*
X1863117Y2317954D01*
X1862773Y2316576D01*
X1862543Y2315314D01*
X1862314Y2314280D01*
X1862199Y2313362D01*
X1862084Y2312788D01*
Y2312558D01*
X1861625Y2308999D01*
X1861510Y2307278D01*
Y2305670D01*
X1861395Y2304293D01*
Y2303145D01*
Y2302456D01*
Y2302341D01*
Y2302226D01*
Y2300160D01*
X1861510Y2298208D01*
X1861625Y2296486D01*
X1861740Y2294994D01*
X1861855Y2293731D01*
X1861969Y2292698D01*
X1862084Y2292124D01*
Y2291894D01*
X1862314Y2290287D01*
X1862658Y2288680D01*
X1862888Y2287302D01*
X1863232Y2286154D01*
X1863462Y2285236D01*
X1863691Y2284432D01*
X1863806Y2283973D01*
X1863921Y2283858D01*
X1864380Y2282710D01*
X1864954Y2281677D01*
X1865528Y2280759D01*
X1866102Y2280070D01*
X1866561Y2279496D01*
X1866906Y2279037D01*
X1867135Y2278807D01*
X1867250Y2278692D01*
X1868054Y2278118D01*
X1868857Y2277659D01*
X1869661Y2277315D01*
X1870465Y2277085D01*
X1871153Y2276970D01*
X1871727Y2276856D01*
X1872187D01*
X1873220Y2276970D01*
X1874138Y2277200D01*
X1875057Y2277430D01*
X1875745Y2277774D01*
X1876319Y2278118D01*
X1876779Y2278463D01*
X1877008Y2278577D01*
X1877123Y2278692D01*
X1877812Y2279496D01*
X1878501Y2280300D01*
X1879649Y2282021D01*
X1879993Y2282710D01*
X1880337Y2283284D01*
X1880452Y2283744D01*
X1880567Y2283858D01*
X1881371Y2286613D01*
X1881715Y2287876D01*
X1881945Y2289139D01*
X1882174Y2290287D01*
X1882289Y2291091D01*
X1882404Y2291665D01*
Y2291894D01*
X1882748Y2295453D01*
X1882863Y2297290D01*
Y2298782D01*
X1882978Y2300160D01*
Y2301308D01*
Y2301997D01*
Y2302111D01*
Y2302226D01*
Y2304293D01*
X1882863Y2306244D01*
X1882748Y2307966D01*
X1882633Y2309573D01*
Y2310836D01*
X1882519Y2311755D01*
X1882404Y2312329D01*
Y2312558D01*
X1882174Y2314280D01*
X1881830Y2315773D01*
X1881600Y2317150D01*
X1881256Y2318298D01*
X1881026Y2319331D01*
X1880797Y2320020D01*
X1880567Y2320479D01*
Y2320594D01*
X1879993Y2321857D01*
X1879419Y2322890D01*
X1878845Y2323809D01*
X1878271Y2324497D01*
X1877812Y2325072D01*
X1877467Y2325531D01*
X1877238Y2325760D01*
X1877123Y2325875D01*
X1876319Y2326449D01*
X1875516Y2326908D01*
X1874597Y2327253D01*
X1873909Y2327482D01*
X1873220Y2327597D01*
X1872646Y2327712D01*
D02*
G37*
G36*
X2627513Y2219341D02*
X2626365D01*
X2624414Y2219111D01*
X2622577Y2218652D01*
X2621084Y2217963D01*
X2619936Y2217274D01*
X2618903Y2216471D01*
X2618214Y2215782D01*
X2617755Y2215323D01*
X2617640Y2215093D01*
X2616607Y2213371D01*
X2615804Y2211420D01*
X2615230Y2209468D01*
X2614770Y2207516D01*
X2614541Y2205794D01*
Y2205106D01*
X2614426Y2204417D01*
Y2203843D01*
Y2203498D01*
Y2203269D01*
Y2203154D01*
X2614541Y2200169D01*
X2615000Y2197529D01*
X2615459Y2195348D01*
X2616148Y2193511D01*
X2616722Y2192133D01*
X2617296Y2191100D01*
X2617755Y2190526D01*
X2617870Y2190296D01*
X2619248Y2188919D01*
X2620740Y2187886D01*
X2622232Y2187082D01*
X2623610Y2186623D01*
X2624988Y2186278D01*
X2626021Y2186164D01*
X2626710Y2186049D01*
X2628202D01*
X2629350Y2186164D01*
X2629809D01*
X2630154Y2186278D01*
X2630383D01*
X2631416Y2186508D01*
X2632335Y2186852D01*
X2632794Y2186967D01*
X2633024Y2187082D01*
Y2218078D01*
X2631990Y2218422D01*
X2631072Y2218767D01*
X2630268Y2218882D01*
X2630154Y2218996D01*
X2630039D01*
X2628661Y2219226D01*
X2627513Y2219341D01*
D02*
G37*
G36*
X2786052Y2201891D02*
X2785478D01*
Y2186164D01*
X2786396Y2185819D01*
X2787430Y2185590D01*
X2787889Y2185475D01*
X2788348D01*
X2788578Y2185360D01*
X2788692D01*
X2790185Y2185245D01*
X2791562Y2185131D01*
X2792825D01*
X2794662Y2185245D01*
X2796269Y2185475D01*
X2797647Y2185704D01*
X2798795Y2186164D01*
X2799713Y2186508D01*
X2800287Y2186738D01*
X2800746Y2186967D01*
X2800861Y2187082D01*
X2801780Y2187886D01*
X2802354Y2188804D01*
X2802813Y2189837D01*
X2803157Y2190756D01*
X2803387Y2191559D01*
X2803502Y2192248D01*
Y2192707D01*
Y2192822D01*
X2803387Y2193855D01*
X2803272Y2194774D01*
X2803042Y2195577D01*
X2802698Y2196151D01*
X2802468Y2196725D01*
X2802239Y2197070D01*
X2802124Y2197299D01*
X2802009Y2197414D01*
X2800746Y2198562D01*
X2799484Y2199366D01*
X2798910Y2199710D01*
X2798450Y2199940D01*
X2798221Y2200055D01*
X2798106D01*
X2796154Y2200743D01*
X2794432Y2201088D01*
X2793629Y2201202D01*
X2793055Y2201317D01*
X2792481D01*
X2789955Y2201547D01*
X2788807Y2201662D01*
X2787774Y2201776D01*
X2786856D01*
X2786052Y2201891D01*
D02*
G37*
G36*
X2304810Y2201891D02*
X2304236D01*
Y2186164D01*
X2305155Y2185819D01*
X2306188Y2185590D01*
X2306647Y2185475D01*
X2307106D01*
X2307336Y2185360D01*
X2307451D01*
X2308943Y2185245D01*
X2310321Y2185130D01*
X2311584D01*
X2313420Y2185245D01*
X2315028Y2185475D01*
X2316405Y2185704D01*
X2317553Y2186164D01*
X2318472Y2186508D01*
X2319046Y2186738D01*
X2319505Y2186967D01*
X2319620Y2187082D01*
X2320538Y2187886D01*
X2321112Y2188804D01*
X2321571Y2189837D01*
X2321916Y2190756D01*
X2322145Y2191559D01*
X2322260Y2192248D01*
Y2192707D01*
Y2192822D01*
X2322145Y2193855D01*
X2322030Y2194774D01*
X2321801Y2195577D01*
X2321456Y2196151D01*
X2321227Y2196725D01*
X2320997Y2197070D01*
X2320882Y2197299D01*
X2320768Y2197414D01*
X2319505Y2198562D01*
X2318242Y2199366D01*
X2317668Y2199710D01*
X2317209Y2199940D01*
X2316979Y2200054D01*
X2316864D01*
X2314913Y2200743D01*
X2313191Y2201088D01*
X2312387Y2201202D01*
X2311813Y2201317D01*
X2311239D01*
X2308714Y2201547D01*
X2307566Y2201662D01*
X2306532Y2201776D01*
X2305614D01*
X2304810Y2201891D01*
D02*
G37*
G36*
X2846781Y2220374D02*
X2845978D01*
X2844256Y2220259D01*
X2842878Y2219915D01*
X2841615Y2219456D01*
X2840582Y2218882D01*
X2839664Y2218308D01*
X2839090Y2217849D01*
X2838745Y2217504D01*
X2838630Y2217389D01*
X2837712Y2216241D01*
X2837138Y2214864D01*
X2836679Y2213371D01*
X2836334Y2211994D01*
X2836105Y2210616D01*
X2835990Y2209583D01*
Y2208894D01*
Y2208779D01*
Y2208664D01*
X2857802Y2205680D01*
X2857572Y2208205D01*
X2857113Y2210387D01*
X2856654Y2212338D01*
X2855965Y2213831D01*
X2855391Y2215093D01*
X2854817Y2215897D01*
X2854473Y2216471D01*
X2854358Y2216586D01*
X2853095Y2217849D01*
X2851718Y2218767D01*
X2850340Y2219456D01*
X2848962Y2219915D01*
X2847814Y2220144D01*
X2846781Y2220374D01*
D02*
G37*
G36*
X2425350Y2220374D02*
X2424547D01*
X2422825Y2220259D01*
X2421447Y2219915D01*
X2420184Y2219456D01*
X2419151Y2218882D01*
X2418233Y2218308D01*
X2417659Y2217848D01*
X2417314Y2217504D01*
X2417200Y2217389D01*
X2416281Y2216241D01*
X2415707Y2214864D01*
X2415248Y2213371D01*
X2414904Y2211994D01*
X2414674Y2210616D01*
X2414559Y2209583D01*
Y2208894D01*
Y2208779D01*
Y2208664D01*
X2436371Y2205680D01*
X2436142Y2208205D01*
X2435682Y2210386D01*
X2435223Y2212338D01*
X2434534Y2213830D01*
X2433960Y2215093D01*
X2433386Y2215897D01*
X2433042Y2216471D01*
X2432927Y2216586D01*
X2431664Y2217848D01*
X2430287Y2218767D01*
X2428909Y2219456D01*
X2427532Y2219915D01*
X2426384Y2220144D01*
X2425350Y2220374D01*
D02*
G37*
G36*
X1979238Y2237249D02*
X1977975D01*
X1975564Y2237135D01*
X1973498Y2236790D01*
X1971776Y2236216D01*
X1970168Y2235413D01*
X1968906Y2234494D01*
X1967872Y2233461D01*
X1966954Y2232428D01*
X1966265Y2231395D01*
X1965691Y2230247D01*
X1965232Y2229213D01*
X1965002Y2228180D01*
X1964773Y2227262D01*
X1964658Y2226573D01*
X1964543Y2225884D01*
Y2225540D01*
Y2225425D01*
X1964658Y2223474D01*
X1965117Y2221751D01*
X1965691Y2220259D01*
X1966380Y2219111D01*
X1967184Y2218078D01*
X1967758Y2217389D01*
X1968217Y2216930D01*
X1968332Y2216815D01*
X1969824Y2215782D01*
X1971546Y2214978D01*
X1973383Y2214519D01*
X1975105Y2214060D01*
X1976712Y2213830D01*
X1978090Y2213715D01*
X1980500D01*
X1981648Y2213830D01*
X1982567D01*
X1983485Y2213945D01*
X1984059Y2214060D01*
X1984633D01*
X1984863Y2214175D01*
X1984978D01*
Y2236216D01*
X1983944Y2236561D01*
X1982911Y2236790D01*
X1982567D01*
X1982222Y2236905D01*
X1981878D01*
X1980386Y2237135D01*
X1979238Y2237249D01*
D02*
G37*
G36*
X1838034D02*
X1836771D01*
X1834360Y2237135D01*
X1832294Y2236790D01*
X1830572Y2236216D01*
X1828964Y2235413D01*
X1827702Y2234494D01*
X1826668Y2233461D01*
X1825750Y2232428D01*
X1825061Y2231395D01*
X1824487Y2230247D01*
X1824028Y2229213D01*
X1823798Y2228180D01*
X1823569Y2227262D01*
X1823454Y2226573D01*
X1823339Y2225884D01*
Y2225540D01*
Y2225425D01*
X1823454Y2223474D01*
X1823913Y2221751D01*
X1824487Y2220259D01*
X1825176Y2219111D01*
X1825980Y2218078D01*
X1826554Y2217389D01*
X1827013Y2216930D01*
X1827128Y2216815D01*
X1828620Y2215782D01*
X1830342Y2214978D01*
X1832179Y2214519D01*
X1833901Y2214060D01*
X1835508Y2213830D01*
X1836886Y2213715D01*
X1839296D01*
X1840444Y2213830D01*
X1841363D01*
X1842281Y2213945D01*
X1842855Y2214060D01*
X1843429D01*
X1843659Y2214175D01*
X1843774D01*
Y2236216D01*
X1842740Y2236561D01*
X1841707Y2236790D01*
X1841363D01*
X1841018Y2236905D01*
X1840674D01*
X1839182Y2237135D01*
X1838034Y2237249D01*
D02*
G37*
G36*
X2076244Y2237364D02*
X2074866D01*
X2072455Y2237249D01*
X2070504Y2236905D01*
X2068782Y2236561D01*
X2067404Y2236102D01*
X2066371Y2235528D01*
X2065567Y2235183D01*
X2065108Y2234839D01*
X2064993Y2234724D01*
X2063960Y2233691D01*
X2063156Y2232428D01*
X2062582Y2231280D01*
X2062123Y2230017D01*
X2061894Y2228984D01*
X2061779Y2228180D01*
Y2227606D01*
Y2227377D01*
X2061894Y2225540D01*
X2062008Y2224736D01*
X2062238Y2224048D01*
X2062353Y2223474D01*
X2062582Y2223014D01*
X2062697Y2222785D01*
Y2222670D01*
X2063501Y2221292D01*
X2064190Y2220259D01*
X2064878Y2219570D01*
X2064993Y2219456D01*
X2065108Y2219341D01*
X2066371Y2218537D01*
X2067519Y2218078D01*
X2068093Y2217848D01*
X2068437Y2217733D01*
X2068667Y2217619D01*
X2068782D01*
X2069585Y2217389D01*
X2070504Y2217274D01*
X2072340Y2217160D01*
X2073144Y2217045D01*
X2082902D01*
Y2236216D01*
X2081869Y2236561D01*
X2080721Y2236790D01*
X2080262Y2236905D01*
X2079802Y2237020D01*
X2079458D01*
X2077736Y2237249D01*
X2076244Y2237364D01*
D02*
G37*
G36*
X2082902Y2207516D02*
X2072914D01*
X2071766Y2207401D01*
X2070848Y2207287D01*
X2070044D01*
X2069356Y2207172D01*
X2068896Y2207057D01*
X2068667Y2206942D01*
X2068552D01*
X2067060Y2206483D01*
X2065912Y2205909D01*
X2065452Y2205565D01*
X2065108Y2205450D01*
X2064878Y2205220D01*
X2064764D01*
X2063271Y2204072D01*
X2062238Y2202809D01*
X2061434Y2201432D01*
X2060975Y2199939D01*
X2060631Y2198677D01*
X2060516Y2197644D01*
X2060401Y2196955D01*
Y2196840D01*
Y2196725D01*
X2060516Y2194888D01*
X2060975Y2193166D01*
X2061779Y2191789D01*
X2062582Y2190526D01*
X2063730Y2189493D01*
X2064993Y2188689D01*
X2066256Y2188000D01*
X2067519Y2187426D01*
X2068896Y2186967D01*
X2070159Y2186623D01*
X2071422Y2186393D01*
X2072455Y2186164D01*
X2073374D01*
X2074177Y2186049D01*
X2074751D01*
X2076358Y2186164D01*
X2077851Y2186278D01*
X2078425D01*
X2078884Y2186393D01*
X2079228D01*
X2080721Y2186623D01*
X2081869Y2186967D01*
X2082328Y2187082D01*
X2082672D01*
X2082787Y2187197D01*
X2082902D01*
Y2207516D01*
D02*
G37*
G36*
X1923100Y2236216D02*
X1920460D01*
X1919197Y2235987D01*
X1918049Y2235757D01*
X1917131Y2235528D01*
X1916327Y2235298D01*
X1915753Y2235068D01*
X1915294Y2234954D01*
X1915179Y2234839D01*
X1914031Y2234265D01*
X1912998Y2233576D01*
X1912194Y2232887D01*
X1911391Y2232198D01*
X1910702Y2231510D01*
X1910243Y2230936D01*
X1910013Y2230591D01*
X1909898Y2230476D01*
X1909095Y2229328D01*
X1908406Y2228066D01*
X1907832Y2226688D01*
X1907373Y2225540D01*
X1907028Y2224392D01*
X1906799Y2223588D01*
X1906569Y2223014D01*
Y2222785D01*
X1906110Y2220948D01*
X1905880Y2219111D01*
X1905651Y2217274D01*
X1905421Y2215552D01*
Y2214060D01*
X1905306Y2212797D01*
Y2212338D01*
Y2212108D01*
Y2211879D01*
Y2211764D01*
Y2209353D01*
X1905536Y2207287D01*
X1905651Y2205335D01*
X1905880Y2203728D01*
X1906110Y2202350D01*
X1906340Y2201317D01*
X1906454Y2200743D01*
X1906569Y2200514D01*
X1907028Y2198906D01*
X1907602Y2197414D01*
X1908176Y2196151D01*
X1908636Y2195003D01*
X1909095Y2194085D01*
X1909554Y2193511D01*
X1909784Y2193052D01*
X1909898Y2192937D01*
X1910702Y2191903D01*
X1911620Y2190985D01*
X1912539Y2190296D01*
X1913342Y2189608D01*
X1914031Y2189148D01*
X1914605Y2188804D01*
X1915064Y2188689D01*
X1915179Y2188574D01*
X1916327Y2188115D01*
X1917475Y2187771D01*
X1918508Y2187541D01*
X1919542Y2187426D01*
X1920460Y2187311D01*
X1921149Y2187197D01*
X1923215D01*
X1924478Y2187311D01*
X1925626Y2187541D01*
X1926430Y2187656D01*
X1927118Y2187885D01*
X1927692Y2188000D01*
X1927922Y2188115D01*
X1928037D01*
Y2235298D01*
X1927118Y2235642D01*
X1926085Y2235872D01*
X1924019Y2236102D01*
X1923100Y2236216D01*
D02*
G37*
G36*
X1730581Y2237364D02*
X1729203D01*
X1726792Y2237249D01*
X1724841Y2236905D01*
X1723119Y2236561D01*
X1721741Y2236102D01*
X1720708Y2235528D01*
X1719904Y2235183D01*
X1719445Y2234839D01*
X1719330Y2234724D01*
X1718297Y2233691D01*
X1717494Y2232428D01*
X1716920Y2231280D01*
X1716460Y2230017D01*
X1716231Y2228984D01*
X1716116Y2228180D01*
Y2227606D01*
Y2227377D01*
X1716231Y2225540D01*
X1716346Y2224736D01*
X1716575Y2224048D01*
X1716690Y2223474D01*
X1716920Y2223014D01*
X1717034Y2222785D01*
Y2222670D01*
X1717838Y2221292D01*
X1718527Y2220259D01*
X1719216Y2219570D01*
X1719330Y2219456D01*
X1719445Y2219341D01*
X1720708Y2218537D01*
X1721856Y2218078D01*
X1722430Y2217848D01*
X1722774Y2217733D01*
X1723004Y2217619D01*
X1723119D01*
X1723922Y2217389D01*
X1724841Y2217274D01*
X1726678Y2217160D01*
X1727481Y2217045D01*
X1737239D01*
Y2236216D01*
X1736206Y2236561D01*
X1735058Y2236790D01*
X1734599Y2236905D01*
X1734140Y2237020D01*
X1733795D01*
X1732073Y2237249D01*
X1730581Y2237364D01*
D02*
G37*
G36*
X1737239Y2207516D02*
X1727252D01*
X1726104Y2207401D01*
X1725185Y2207287D01*
X1724382D01*
X1723693Y2207172D01*
X1723234Y2207057D01*
X1723004Y2206942D01*
X1722889D01*
X1721397Y2206483D01*
X1720249Y2205909D01*
X1719790Y2205565D01*
X1719445Y2205450D01*
X1719216Y2205220D01*
X1719101D01*
X1717608Y2204072D01*
X1716575Y2202809D01*
X1715772Y2201432D01*
X1715312Y2199939D01*
X1714968Y2198677D01*
X1714853Y2197644D01*
X1714738Y2196955D01*
Y2196840D01*
Y2196725D01*
X1714853Y2194888D01*
X1715312Y2193166D01*
X1716116Y2191789D01*
X1716920Y2190526D01*
X1718068Y2189493D01*
X1719330Y2188689D01*
X1720593Y2188000D01*
X1721856Y2187426D01*
X1723234Y2186967D01*
X1724496Y2186623D01*
X1725759Y2186393D01*
X1726792Y2186164D01*
X1727711D01*
X1728514Y2186049D01*
X1729088D01*
X1730696Y2186164D01*
X1732188Y2186278D01*
X1732762D01*
X1733221Y2186393D01*
X1733566D01*
X1735058Y2186623D01*
X1736206Y2186967D01*
X1736665Y2187082D01*
X1737010D01*
X1737124Y2187197D01*
X1737239D01*
Y2207516D01*
D02*
G37*
G36*
X2538084Y2111429D02*
X2537510D01*
Y2095701D01*
X2538428Y2095357D01*
X2539462Y2095127D01*
X2539921Y2095012D01*
X2540380D01*
X2540610Y2094898D01*
X2540724D01*
X2542217Y2094783D01*
X2543594Y2094668D01*
X2544857D01*
X2546694Y2094783D01*
X2548301Y2095012D01*
X2549679Y2095242D01*
X2550827Y2095701D01*
X2551745Y2096046D01*
X2552319Y2096275D01*
X2552778Y2096505D01*
X2552893Y2096620D01*
X2553812Y2097423D01*
X2554386Y2098342D01*
X2554845Y2099375D01*
X2555189Y2100293D01*
X2555419Y2101097D01*
X2555534Y2101786D01*
Y2102245D01*
Y2102360D01*
X2555419Y2103393D01*
X2555304Y2104311D01*
X2555074Y2105115D01*
X2554730Y2105689D01*
X2554500Y2106263D01*
X2554271Y2106607D01*
X2554156Y2106837D01*
X2554041Y2106952D01*
X2552778Y2108100D01*
X2551516Y2108903D01*
X2550942Y2109248D01*
X2550482Y2109477D01*
X2550253Y2109592D01*
X2550138D01*
X2548186Y2110281D01*
X2546464Y2110625D01*
X2545661Y2110740D01*
X2545087Y2110855D01*
X2544513D01*
X2541987Y2111084D01*
X2540839Y2111199D01*
X2539806Y2111314D01*
X2538888D01*
X2538084Y2111429D01*
D02*
G37*
G36*
X2429598Y2144491D02*
X2429368D01*
Y2144147D01*
Y2143802D01*
Y2142654D01*
X2429483Y2142195D01*
Y2141736D01*
Y2141392D01*
Y2141277D01*
X2429598Y2139325D01*
Y2138292D01*
Y2137374D01*
Y2136570D01*
Y2135996D01*
Y2135537D01*
Y2135422D01*
Y2113036D01*
X2449803D01*
X2434075Y2136570D01*
X2433616Y2137259D01*
X2433157Y2137948D01*
X2432927Y2138407D01*
X2432812Y2138636D01*
X2432353Y2139555D01*
X2431894Y2140358D01*
X2431550Y2140818D01*
X2431435Y2141047D01*
X2430976Y2141851D01*
X2430631Y2142540D01*
X2430402Y2142999D01*
X2430287Y2143114D01*
X2429942Y2143688D01*
X2429713Y2144147D01*
X2429598Y2144376D01*
Y2144491D01*
D02*
G37*
G36*
X2490327Y2128878D02*
X2488490D01*
X2487342Y2128764D01*
X2486998Y2128649D01*
X2486654D01*
X2486424Y2128534D01*
X2486309D01*
X2485161Y2128304D01*
X2484243Y2128075D01*
X2483784Y2127960D01*
X2483669Y2127845D01*
Y2096620D01*
X2484472Y2096275D01*
X2485276Y2096046D01*
X2485965Y2095931D01*
X2486194Y2095816D01*
X2486309D01*
X2487572Y2095701D01*
X2488720Y2095586D01*
X2489753D01*
X2491820Y2095816D01*
X2493771Y2096275D01*
X2495264Y2096964D01*
X2496641Y2097768D01*
X2497674Y2098571D01*
X2498478Y2099260D01*
X2498937Y2099719D01*
X2499052Y2099949D01*
X2500085Y2101786D01*
X2500889Y2103737D01*
X2501463Y2105804D01*
X2501807Y2107755D01*
X2502037Y2109477D01*
X2502152Y2110281D01*
X2502266Y2110970D01*
Y2111429D01*
Y2111888D01*
Y2112118D01*
Y2112232D01*
X2502152Y2114873D01*
X2501807Y2117169D01*
X2501233Y2119235D01*
X2500659Y2120957D01*
X2500085Y2122335D01*
X2499511Y2123368D01*
X2499167Y2123942D01*
X2499052Y2124172D01*
X2497674Y2125779D01*
X2496182Y2126927D01*
X2494690Y2127730D01*
X2493197Y2128304D01*
X2491820Y2128649D01*
X2490786Y2128764D01*
X2490327Y2128878D01*
D02*
G37*
G36*
X2182434Y2146787D02*
X2181974D01*
X2180941Y2146672D01*
X2180023Y2146558D01*
X2179104Y2146213D01*
X2178416Y2145869D01*
X2177842Y2145524D01*
X2177382Y2145295D01*
X2177153Y2145065D01*
X2177038Y2144950D01*
X2176349Y2144147D01*
X2175660Y2143343D01*
X2174627Y2141621D01*
X2174168Y2140818D01*
X2173938Y2140244D01*
X2173709Y2139784D01*
Y2139670D01*
X2173250Y2138407D01*
X2172905Y2137029D01*
X2172561Y2135652D01*
X2172331Y2134389D01*
X2172102Y2133356D01*
X2171987Y2132437D01*
X2171872Y2131863D01*
Y2131634D01*
X2171413Y2128075D01*
X2171298Y2126353D01*
Y2124746D01*
X2171183Y2123368D01*
Y2122220D01*
Y2121531D01*
Y2121416D01*
Y2121302D01*
Y2119235D01*
X2171298Y2117284D01*
X2171413Y2115562D01*
X2171528Y2114069D01*
X2171642Y2112806D01*
X2171757Y2111773D01*
X2171872Y2111199D01*
Y2110970D01*
X2172102Y2109362D01*
X2172446Y2107755D01*
X2172676Y2106378D01*
X2173020Y2105230D01*
X2173250Y2104311D01*
X2173479Y2103508D01*
X2173594Y2103048D01*
X2173709Y2102934D01*
X2174168Y2101786D01*
X2174742Y2100752D01*
X2175316Y2099834D01*
X2175890Y2099145D01*
X2176349Y2098571D01*
X2176694Y2098112D01*
X2176923Y2097882D01*
X2177038Y2097768D01*
X2177842Y2097194D01*
X2178645Y2096734D01*
X2179449Y2096390D01*
X2180252Y2096160D01*
X2180941Y2096046D01*
X2181515Y2095931D01*
X2181974D01*
X2183008Y2096046D01*
X2183926Y2096275D01*
X2184844Y2096505D01*
X2185533Y2096849D01*
X2186107Y2097194D01*
X2186566Y2097538D01*
X2186796Y2097653D01*
X2186911Y2097768D01*
X2187600Y2098571D01*
X2188288Y2099375D01*
X2189436Y2101097D01*
X2189781Y2101786D01*
X2190125Y2102360D01*
X2190240Y2102819D01*
X2190355Y2102934D01*
X2191158Y2105689D01*
X2191503Y2106952D01*
X2191732Y2108214D01*
X2191962Y2109362D01*
X2192077Y2110166D01*
X2192192Y2110740D01*
Y2110970D01*
X2192536Y2114528D01*
X2192651Y2116365D01*
Y2117858D01*
X2192766Y2119235D01*
Y2120383D01*
Y2121072D01*
Y2121187D01*
Y2121302D01*
Y2123368D01*
X2192651Y2125320D01*
X2192536Y2127042D01*
X2192421Y2128649D01*
Y2129912D01*
X2192306Y2130830D01*
X2192192Y2131404D01*
Y2131634D01*
X2191962Y2133356D01*
X2191618Y2134848D01*
X2191388Y2136226D01*
X2191044Y2137374D01*
X2190814Y2138407D01*
X2190584Y2139096D01*
X2190355Y2139555D01*
Y2139670D01*
X2189781Y2140932D01*
X2189207Y2141966D01*
X2188633Y2142884D01*
X2188059Y2143573D01*
X2187600Y2144147D01*
X2187255Y2144606D01*
X2187026Y2144836D01*
X2186911Y2144950D01*
X2186107Y2145524D01*
X2185304Y2145984D01*
X2184385Y2146328D01*
X2183696Y2146558D01*
X2183008Y2146672D01*
X2182434Y2146787D01*
D02*
G37*
%LPD*%
D68*
X3119092Y927706D02*
G03*
X3056380Y927706I-31356J68127D01*
G01*
X3058119Y923298D02*
G03*
X3056379Y927707I-3173J1295D01*
G01*
X3008673Y811311D02*
G03*
X3013158Y813181I1312J3167D01*
G01*
X2984252Y821426D02*
G03*
X2981020Y821098I-1311J-3166D01*
G01*
X2922968Y785177D02*
G03*
X2927311Y784762I2423J2423D01*
G01*
X2876664Y835409D02*
G03*
X2877079Y831065I2839J-1920D01*
G01*
X2913000Y889117D02*
G03*
X2913328Y892349I-2838J1920D01*
G01*
X2891237Y945683D02*
G03*
X2888719Y947736I-3167J-1312D01*
G01*
X2822270Y963385D02*
G03*
X2825048Y960020I3427J-0D01*
G01*
Y1031646D02*
G03*
X2822270Y1028281I649J-3365D01*
G01*
X2888719Y1043930D02*
G03*
X2891237Y1045984I-649J3365D01*
G01*
X2913328Y1099317D02*
G03*
X2913000Y1102549I-3166J1311D01*
G01*
X2877079Y1160601D02*
G03*
X2876664Y1156257I2423J-2424D01*
G01*
X2927311Y1206905D02*
G03*
X2922968Y1206490I-1920J-2838D01*
G01*
X2981020Y1170569D02*
G03*
X2984252Y1170241I1920J2838D01*
G01*
X3037585Y1192331D02*
G03*
X3039638Y1194848I-1312J3166D01*
G01*
X3055287Y1261299D02*
G03*
X3051922Y1258521I0J-3427D01*
G01*
X3123548D02*
G03*
X3120184Y1261299I-3365J-649D01*
G01*
X3135832Y1194848D02*
G03*
X3137886Y1192331I3365J650D01*
G01*
X3191218Y1170241D02*
G03*
X3194451Y1170569I1312J3167D01*
G01*
X3252503Y1206490D02*
G03*
X3248159Y1206905I-2423J-2423D01*
G01*
X3298807Y1156257D02*
G03*
X3298392Y1160601I-2839J1920D01*
G01*
X3262471Y1102549D02*
G03*
X3262143Y1099317I2839J-1920D01*
G01*
X3284234Y1045984D02*
G03*
X3286751Y1043930I3167J1311D01*
G01*
X3353200Y1028281D02*
G03*
X3350423Y1031646I-3427J0D01*
G01*
Y960020D02*
G03*
X3353200Y963385I-650J3365D01*
G01*
X3286751Y947737D02*
G03*
X3284234Y945683I650J-3365D01*
G01*
X3262143Y892349D02*
G03*
X3262471Y889117I3166J-1312D01*
G01*
X3298392Y831065D02*
G03*
X3298807Y835409I-2423J2424D01*
G01*
X3248159Y784762D02*
G03*
X3252503Y785177I1920J2838D01*
G01*
X3194451Y821098D02*
G03*
X3191218Y821425I-1921J-2839D01*
G01*
X3162313Y813181D02*
G03*
X3166797Y811310I3173J1295D01*
G01*
X3119092Y927706D02*
G03*
X3117351Y923298I1432J-3113D01*
G01*
X3013158Y813181D02*
X3058119Y923298D01*
X2984252Y821426D02*
X3008673Y811310D01*
X2927311Y784761D02*
X2981020Y821098D01*
X2877079Y831065D02*
X2922967Y785176D01*
X2876663Y835409D02*
X2913000Y889118D01*
X2891237Y945682D02*
X2913328Y892350D01*
X2825048Y960020D02*
X2888720Y947736D01*
X2822270Y963385D02*
Y1028281D01*
X2825048Y1031647D02*
X2888720Y1043930D01*
X2891237Y1045984D02*
X2913328Y1099317D01*
X2876663Y1156258D02*
X2913000Y1102549D01*
X2877079Y1160601D02*
X2922967Y1206490D01*
X2927311Y1206905D02*
X2981020Y1170568D01*
X2984252Y1170241D02*
X3037585Y1192332D01*
X3039638Y1194849D02*
X3051922Y1258521D01*
X3055287Y1261299D02*
X3120183D01*
X3123548Y1258521D02*
X3135832Y1194849D01*
X3137886Y1192332D02*
X3191219Y1170241D01*
X3194451Y1170568D02*
X3248159Y1206905D01*
X3252503Y1206490D02*
X3298392Y1160601D01*
X3262470Y1102549D02*
X3298807Y1156258D01*
X3262143Y1099317D02*
X3284234Y1045984D01*
X3286751Y1043930D02*
X3350423Y1031647D01*
X3353200Y963385D02*
Y1028281D01*
X3286751Y947736D02*
X3350423Y960020D01*
X3262143Y892350D02*
X3284234Y945682D01*
X3262470Y889118D02*
X3298807Y835409D01*
X3252503Y785176D02*
X3298392Y831065D01*
X3194451Y821098D02*
X3248159Y784761D01*
X3166797Y811310D02*
X3191219Y821426D01*
X3117352Y923298D02*
X3162313Y813181D01*
%TF.MD5,4d1a2142f5554de1c28b293ccbaa2895*%
M02*
