%TF.GenerationSoftware,Altium Limited,Altium Designer,23.4.1 (23)*%
G04 Layer_Color=8388736*
%FSLAX26Y26*%
%MOIN*%
%TF.SameCoordinates,9AE554A4-7581-43F1-91E0-74BCC9029391*%
%TF.FilePolarity,Negative*%
%TF.FileFunction,Soldermask,Top*%
%TF.Part,CustomerPanel*%
G01*
G75*
%TA.AperFunction,FiducialPad,Global*%
%ADD71C,0.118110*%
%TA.AperFunction,ComponentPad*%
%ADD72R,0.085000X0.085000*%
%ADD73O,0.047370X0.070992*%
%ADD74C,0.034575*%
%ADD75O,0.047370X0.090677*%
%ADD76C,0.074929*%
%ADD77R,0.074929X0.074929*%
%ADD78O,0.070992X0.047370*%
%ADD79O,0.090677X0.047370*%
%TA.AperFunction,WasherPad*%
%ADD80C,0.008000*%
%TA.AperFunction,ViaPad*%
%ADD81C,0.114299*%
%TA.AperFunction,SMDPad,CuDef*%
G04:AMPARAMS|DCode=90|XSize=65.087mil|YSize=45.402mil|CornerRadius=13.35mil|HoleSize=0mil|Usage=FLASHONLY|Rotation=0.000|XOffset=0mil|YOffset=0mil|HoleType=Round|Shape=RoundedRectangle|*
%AMROUNDEDRECTD90*
21,1,0.065087,0.018701,0,0,0.0*
21,1,0.038386,0.045402,0,0,0.0*
1,1,0.026701,0.019193,-0.009350*
1,1,0.026701,-0.019193,-0.009350*
1,1,0.026701,-0.019193,0.009350*
1,1,0.026701,0.019193,0.009350*
%
%ADD90ROUNDEDRECTD90*%
G04:AMPARAMS|DCode=91|XSize=47.37mil|YSize=43.433mil|CornerRadius=12.858mil|HoleSize=0mil|Usage=FLASHONLY|Rotation=0.000|XOffset=0mil|YOffset=0mil|HoleType=Round|Shape=RoundedRectangle|*
%AMROUNDEDRECTD91*
21,1,0.047370,0.017717,0,0,0.0*
21,1,0.021654,0.043433,0,0,0.0*
1,1,0.025716,0.010827,-0.008858*
1,1,0.025716,-0.010827,-0.008858*
1,1,0.025716,-0.010827,0.008858*
1,1,0.025716,0.010827,0.008858*
%
%ADD91ROUNDEDRECTD91*%
G04:AMPARAMS|DCode=92|XSize=78.866mil|YSize=59.181mil|CornerRadius=16.795mil|HoleSize=0mil|Usage=FLASHONLY|Rotation=90.000|XOffset=0mil|YOffset=0mil|HoleType=Round|Shape=RoundedRectangle|*
%AMROUNDEDRECTD92*
21,1,0.078866,0.025591,0,0,90.0*
21,1,0.045276,0.059181,0,0,90.0*
1,1,0.033590,0.012795,0.022638*
1,1,0.033590,0.012795,-0.022638*
1,1,0.033590,-0.012795,-0.022638*
1,1,0.033590,-0.012795,0.022638*
%
%ADD92ROUNDEDRECTD92*%
G04:AMPARAMS|DCode=93|XSize=67.055mil|YSize=145.795mil|CornerRadius=18.764mil|HoleSize=0mil|Usage=FLASHONLY|Rotation=270.000|XOffset=0mil|YOffset=0mil|HoleType=Round|Shape=RoundedRectangle|*
%AMROUNDEDRECTD93*
21,1,0.067055,0.108268,0,0,270.0*
21,1,0.029527,0.145795,0,0,270.0*
1,1,0.037528,-0.054134,-0.014764*
1,1,0.037528,-0.054134,0.014764*
1,1,0.037528,0.054134,0.014764*
1,1,0.037528,0.054134,-0.014764*
%
%ADD93ROUNDEDRECTD93*%
%ADD94R,0.145795X0.067055*%
G04:AMPARAMS|DCode=95|XSize=126.11mil|YSize=165.48mil|CornerRadius=0mil|HoleSize=0mil|Usage=FLASHONLY|Rotation=0.000|XOffset=0mil|YOffset=0mil|HoleType=Round|Shape=Octagon|*
%AMOCTAGOND95*
4,1,8,-0.031527,0.082740,0.031527,0.082740,0.063055,0.051213,0.063055,-0.051213,0.031527,-0.082740,-0.031527,-0.082740,-0.063055,-0.051213,-0.063055,0.051213,-0.031527,0.082740,0.0*
%
%ADD95OCTAGOND95*%

%ADD96R,0.082803X0.031622*%
G04:AMPARAMS|DCode=97|XSize=31.622mil|YSize=82.803mil|CornerRadius=9.906mil|HoleSize=0mil|Usage=FLASHONLY|Rotation=90.000|XOffset=0mil|YOffset=0mil|HoleType=Round|Shape=RoundedRectangle|*
%AMROUNDEDRECTD97*
21,1,0.031622,0.062992,0,0,90.0*
21,1,0.011811,0.082803,0,0,90.0*
1,1,0.019811,0.031496,0.005906*
1,1,0.019811,0.031496,-0.005906*
1,1,0.019811,-0.031496,-0.005906*
1,1,0.019811,-0.031496,0.005906*
%
%ADD97ROUNDEDRECTD97*%
G04:AMPARAMS|DCode=98|XSize=47.37mil|YSize=43.433mil|CornerRadius=12.858mil|HoleSize=0mil|Usage=FLASHONLY|Rotation=90.000|XOffset=0mil|YOffset=0mil|HoleType=Round|Shape=RoundedRectangle|*
%AMROUNDEDRECTD98*
21,1,0.047370,0.017717,0,0,90.0*
21,1,0.021654,0.043433,0,0,90.0*
1,1,0.025716,0.008858,0.010827*
1,1,0.025716,0.008858,-0.010827*
1,1,0.025716,-0.008858,-0.010827*
1,1,0.025716,-0.008858,0.010827*
%
%ADD98ROUNDEDRECTD98*%
%ADD99R,0.224535X0.480441*%
%ADD100R,0.019811X0.065087*%
%ADD101R,0.031622X0.065087*%
%ADD102R,0.031622X0.082803*%
G04:AMPARAMS|DCode=103|XSize=31.622mil|YSize=82.803mil|CornerRadius=9.906mil|HoleSize=0mil|Usage=FLASHONLY|Rotation=0.000|XOffset=0mil|YOffset=0mil|HoleType=Round|Shape=RoundedRectangle|*
%AMROUNDEDRECTD103*
21,1,0.031622,0.062992,0,0,0.0*
21,1,0.011811,0.082803,0,0,0.0*
1,1,0.019811,0.005906,-0.031496*
1,1,0.019811,-0.005906,-0.031496*
1,1,0.019811,-0.005906,0.031496*
1,1,0.019811,0.005906,0.031496*
%
%ADD103ROUNDEDRECTD103*%
G04:AMPARAMS|DCode=104|XSize=82.803mil|YSize=26.898mil|CornerRadius=6.362mil|HoleSize=0mil|Usage=FLASHONLY|Rotation=270.000|XOffset=0mil|YOffset=0mil|HoleType=Round|Shape=RoundedRectangle|*
%AMROUNDEDRECTD104*
21,1,0.082803,0.014173,0,0,270.0*
21,1,0.070079,0.026898,0,0,270.0*
1,1,0.012724,-0.007087,-0.035039*
1,1,0.012724,-0.007087,0.035039*
1,1,0.012724,0.007087,0.035039*
1,1,0.012724,0.007087,-0.035039*
%
%ADD104ROUNDEDRECTD104*%
%ADD105R,0.026898X0.082803*%
%ADD106R,0.063118X0.055244*%
G04:AMPARAMS|DCode=107|XSize=45.402mil|YSize=41.465mil|CornerRadius=12.366mil|HoleSize=0mil|Usage=FLASHONLY|Rotation=180.000|XOffset=0mil|YOffset=0mil|HoleType=Round|Shape=RoundedRectangle|*
%AMROUNDEDRECTD107*
21,1,0.045402,0.016732,0,0,180.0*
21,1,0.020669,0.041465,0,0,180.0*
1,1,0.024732,-0.010335,0.008366*
1,1,0.024732,0.010335,0.008366*
1,1,0.024732,0.010335,-0.008366*
1,1,0.024732,-0.010335,-0.008366*
%
%ADD107ROUNDEDRECTD107*%
%ADD108R,0.045402X0.041465*%
G04:AMPARAMS|DCode=109|XSize=67.055mil|YSize=67.843mil|CornerRadius=18.764mil|HoleSize=0mil|Usage=FLASHONLY|Rotation=0.000|XOffset=0mil|YOffset=0mil|HoleType=Round|Shape=RoundedRectangle|*
%AMROUNDEDRECTD109*
21,1,0.067055,0.030315,0,0,0.0*
21,1,0.029527,0.067843,0,0,0.0*
1,1,0.037528,0.014764,-0.015158*
1,1,0.037528,-0.014764,-0.015158*
1,1,0.037528,-0.014764,0.015158*
1,1,0.037528,0.014764,0.015158*
%
%ADD109ROUNDEDRECTD109*%
%ADD110R,0.094614X0.130047*%
G04:AMPARAMS|DCode=111|XSize=78.866mil|YSize=59.181mil|CornerRadius=16.795mil|HoleSize=0mil|Usage=FLASHONLY|Rotation=180.000|XOffset=0mil|YOffset=0mil|HoleType=Round|Shape=RoundedRectangle|*
%AMROUNDEDRECTD111*
21,1,0.078866,0.025591,0,0,180.0*
21,1,0.045276,0.059181,0,0,180.0*
1,1,0.033590,-0.022638,0.012795*
1,1,0.033590,0.022638,0.012795*
1,1,0.033590,0.022638,-0.012795*
1,1,0.033590,-0.022638,-0.012795*
%
%ADD111ROUNDEDRECTD111*%
%TA.AperFunction,ConnectorPad*%
%ADD112R,0.065087X0.019811*%
%ADD113R,0.065087X0.031622*%
%TA.AperFunction,SMDPad,CuDef*%
G04:AMPARAMS|DCode=114|XSize=65.087mil|YSize=45.402mil|CornerRadius=13.35mil|HoleSize=0mil|Usage=FLASHONLY|Rotation=90.000|XOffset=0mil|YOffset=0mil|HoleType=Round|Shape=RoundedRectangle|*
%AMROUNDEDRECTD114*
21,1,0.065087,0.018701,0,0,90.0*
21,1,0.038386,0.045402,0,0,90.0*
1,1,0.026701,0.009350,0.019193*
1,1,0.026701,0.009350,-0.019193*
1,1,0.026701,-0.009350,-0.019193*
1,1,0.026701,-0.009350,0.019193*
%
%ADD114ROUNDEDRECTD114*%
D71*
X679449Y2478299D02*
D03*
X472701Y1402590D02*
D03*
X4084961Y982551D02*
D03*
D72*
X3021969Y873968D02*
D03*
X2913701Y873968D02*
D03*
X2175512Y873968D02*
D03*
X2067244Y873968D02*
D03*
X1329055Y873968D02*
D03*
X1220787Y873968D02*
D03*
X3760157D02*
D03*
X3868425D02*
D03*
D73*
X2448347Y714519D02*
D03*
X2788504D02*
D03*
X1601890D02*
D03*
X1942047D02*
D03*
X755433D02*
D03*
X1095590D02*
D03*
X3634960Y714519D02*
D03*
X3294803D02*
D03*
D74*
X2504649Y858220D02*
D03*
X2732202D02*
D03*
X1658192D02*
D03*
X1885745D02*
D03*
X811736D02*
D03*
X1039288D02*
D03*
X4399921Y1190103D02*
D03*
Y962551D02*
D03*
X3578658Y858220D02*
D03*
X3351106Y858220D02*
D03*
D75*
X2448347Y879086D02*
D03*
X2788504D02*
D03*
X1601890D02*
D03*
X1942047D02*
D03*
X755433D02*
D03*
X1095590D02*
D03*
X3634960D02*
D03*
X3294803Y879086D02*
D03*
D76*
X546701Y960590D02*
D03*
D77*
Y760590D02*
D03*
D78*
X4543622Y1246405D02*
D03*
Y906248D02*
D03*
D79*
X4379055Y1246405D02*
D03*
Y906248D02*
D03*
D80*
X4230260Y2822472D02*
D03*
X750685Y2822472D02*
D03*
D81*
X3871181Y517669D02*
D03*
X3024724Y517669D02*
D03*
X2178268D02*
D03*
X1331811D02*
D03*
D90*
X2727693Y1027545D02*
D03*
Y1110223D02*
D03*
X1881701Y1028251D02*
D03*
Y1110928D02*
D03*
X1034780Y1027545D02*
D03*
Y1110223D02*
D03*
X3572701Y1023251D02*
D03*
Y1105928D02*
D03*
X4212913Y836566D02*
D03*
Y753889D02*
D03*
X4134173Y797196D02*
D03*
Y714519D02*
D03*
X4193228Y1919244D02*
D03*
Y1836566D02*
D03*
D91*
X2782418Y1230168D02*
D03*
Y1167176D02*
D03*
X2628268Y1102314D02*
D03*
Y1039322D02*
D03*
X2569213Y1102314D02*
D03*
Y1039322D02*
D03*
X1935961Y1230168D02*
D03*
Y1167176D02*
D03*
X1781811Y1102314D02*
D03*
Y1039322D02*
D03*
X1722756Y1102314D02*
D03*
Y1039322D02*
D03*
X1088520Y1230168D02*
D03*
Y1167176D02*
D03*
X935355Y1102314D02*
D03*
Y1039322D02*
D03*
X876299Y1102314D02*
D03*
Y1039322D02*
D03*
X3628874Y1230168D02*
D03*
Y1167176D02*
D03*
X4321181Y1856251D02*
D03*
Y1919243D02*
D03*
X4262126Y1856251D02*
D03*
X4262126Y1919243D02*
D03*
X4124331Y1846409D02*
D03*
Y1909401D02*
D03*
X4449701Y1844094D02*
D03*
Y1907086D02*
D03*
X3415669Y1039322D02*
D03*
Y1102314D02*
D03*
X3474724Y1039322D02*
D03*
Y1102314D02*
D03*
D92*
X2521701Y1562590D02*
D03*
X2411465D02*
D03*
X1683819Y1559590D02*
D03*
X1573583D02*
D03*
X690464Y1573590D02*
D03*
X800700D02*
D03*
X3368819Y1568590D02*
D03*
X3258583D02*
D03*
X4197165Y2350346D02*
D03*
X4307402Y2350346D02*
D03*
D93*
X2773937Y1379873D02*
D03*
X2860551Y1092472D02*
D03*
X1927480Y1379873D02*
D03*
X2014095Y1092472D02*
D03*
X1081024Y1379873D02*
D03*
X1167638Y1092472D02*
D03*
X4142047Y1434992D02*
D03*
X3707008Y1092472D02*
D03*
X3620394Y1379873D02*
D03*
D94*
X2974724Y1379873D02*
D03*
X3061339Y1092472D02*
D03*
X2128268Y1379873D02*
D03*
X2214882Y1092472D02*
D03*
X1281811Y1379873D02*
D03*
X1368425Y1092472D02*
D03*
X4342835Y1434992D02*
D03*
X3907795Y1092472D02*
D03*
X3821181Y1379873D02*
D03*
D95*
X2874087Y1703543D02*
D03*
X2027630D02*
D03*
X1181173D02*
D03*
X3720543D02*
D03*
D96*
X2742197Y1778543D02*
D03*
X1895740D02*
D03*
X1049284D02*
D03*
X3588654D02*
D03*
D97*
X2742197Y1728543D02*
D03*
Y1678543D02*
D03*
Y1628543D02*
D03*
X3005977Y1778543D02*
D03*
Y1728543D02*
D03*
Y1678543D02*
D03*
Y1628543D02*
D03*
X1895740Y1728543D02*
D03*
Y1678543D02*
D03*
Y1628543D02*
D03*
X2159520Y1778543D02*
D03*
Y1728543D02*
D03*
Y1678543D02*
D03*
Y1628543D02*
D03*
X1049284Y1728543D02*
D03*
Y1678543D02*
D03*
Y1628543D02*
D03*
X1313063Y1778543D02*
D03*
Y1728543D02*
D03*
Y1678543D02*
D03*
Y1628543D02*
D03*
X3852433D02*
D03*
Y1678543D02*
D03*
Y1728543D02*
D03*
Y1778543D02*
D03*
X3588654Y1628543D02*
D03*
Y1678543D02*
D03*
Y1728543D02*
D03*
D98*
X2598740Y1608220D02*
D03*
X2661732D02*
D03*
X2960945Y1553102D02*
D03*
X3023937D02*
D03*
X2748347Y1545228D02*
D03*
X2685354D02*
D03*
X2752284Y1856251D02*
D03*
X2689291D02*
D03*
X1752284Y1608220D02*
D03*
X1815276D02*
D03*
X2114488Y1553102D02*
D03*
X2177480D02*
D03*
X1901890Y1545228D02*
D03*
X1838898D02*
D03*
X1905827Y1856251D02*
D03*
X1842835D02*
D03*
X905827Y1608220D02*
D03*
X968819D02*
D03*
X1268032Y1553102D02*
D03*
X1331024D02*
D03*
X1055433Y1545228D02*
D03*
X992441D02*
D03*
X1059370Y1856251D02*
D03*
X996378D02*
D03*
X3535748D02*
D03*
X3598740D02*
D03*
X4474205Y1725590D02*
D03*
X4537197D02*
D03*
X3531811Y1545228D02*
D03*
X3594803Y1545228D02*
D03*
X3870394Y1553102D02*
D03*
X3807401D02*
D03*
X3508189Y1608220D02*
D03*
X3445197D02*
D03*
D99*
X3014961Y2173181D02*
D03*
X2654961D02*
D03*
X2168504D02*
D03*
X1808504D02*
D03*
X1322047D02*
D03*
X962047D02*
D03*
X3501417Y2173180D02*
D03*
X3861417Y2173180D02*
D03*
D100*
X2687326Y913141D02*
D03*
X2667641D02*
D03*
X2549531D02*
D03*
X2569216D02*
D03*
X2608586D02*
D03*
X2628271D02*
D03*
X2588901D02*
D03*
X2647956D02*
D03*
X1840870D02*
D03*
X1821185D02*
D03*
X1703074D02*
D03*
X1722759D02*
D03*
X1762129D02*
D03*
X1781814D02*
D03*
X1742444D02*
D03*
X1801499D02*
D03*
X994413D02*
D03*
X974728D02*
D03*
X856618D02*
D03*
X876303D02*
D03*
X915673D02*
D03*
X935358D02*
D03*
X895988D02*
D03*
X955043D02*
D03*
X3494413Y913142D02*
D03*
X3435358Y913141D02*
D03*
X3474728Y913142D02*
D03*
X3455043D02*
D03*
X3415673Y913141D02*
D03*
X3395988D02*
D03*
X3514098Y913141D02*
D03*
X3533783D02*
D03*
D101*
X2490476D02*
D03*
X2746381D02*
D03*
X2714885D02*
D03*
X2521972D02*
D03*
X1644019D02*
D03*
X1899925D02*
D03*
X1868429D02*
D03*
X1675515D02*
D03*
X797562D02*
D03*
X1053468D02*
D03*
X1021972D02*
D03*
X829058D02*
D03*
X3368428Y913142D02*
D03*
X3561342D02*
D03*
X3592838D02*
D03*
X3336932D02*
D03*
D102*
X2652087Y1456645D02*
D03*
X1805630D02*
D03*
X959173D02*
D03*
X3498543D02*
D03*
D103*
X2602087D02*
D03*
X2552087D02*
D03*
X2502087D02*
D03*
X2652087Y1192865D02*
D03*
X2602087D02*
D03*
X2552087D02*
D03*
X2502087D02*
D03*
X1755630Y1456645D02*
D03*
X1705630D02*
D03*
X1655630D02*
D03*
X1805630Y1192865D02*
D03*
X1755630D02*
D03*
X1705630D02*
D03*
X1655630D02*
D03*
X909173Y1456645D02*
D03*
X859173D02*
D03*
X809173D02*
D03*
X959173Y1192865D02*
D03*
X909173D02*
D03*
X859173D02*
D03*
X809173D02*
D03*
X3348543D02*
D03*
X3398543D02*
D03*
X3448543D02*
D03*
X3498543D02*
D03*
X3348543Y1456645D02*
D03*
X3398543Y1456645D02*
D03*
X3448543Y1456645D02*
D03*
D104*
X4497362Y2025346D02*
D03*
X4471772Y2025346D02*
D03*
X4446181Y2025346D02*
D03*
X4420591D02*
D03*
X4395000D02*
D03*
X4369409D02*
D03*
X4343819D02*
D03*
X4318228D02*
D03*
X4292638D02*
D03*
X4267047D02*
D03*
X4241457D02*
D03*
X4215866D02*
D03*
X4190276D02*
D03*
X4164685D02*
D03*
Y2242275D02*
D03*
X4190276D02*
D03*
X4215866D02*
D03*
X4241457D02*
D03*
X4267047D02*
D03*
X4292638D02*
D03*
X4318228D02*
D03*
X4343819D02*
D03*
X4369409D02*
D03*
X4395000D02*
D03*
X4420591D02*
D03*
X4446181D02*
D03*
X4471772Y2242275D02*
D03*
D105*
X4497362Y2242275D02*
D03*
D106*
X4506701Y2449590D02*
D03*
Y2359590D02*
D03*
X4396701Y2449590D02*
D03*
Y2359590D02*
D03*
D107*
X3275701Y1056070D02*
D03*
X737701Y979110D02*
D03*
X1584701Y1057070D02*
D03*
X4222756Y920228D02*
D03*
X2428701Y1063070D02*
D03*
D108*
X3275701Y991110D02*
D03*
X737701Y1044070D02*
D03*
X1584701Y992110D02*
D03*
X4222756Y985188D02*
D03*
X2428701Y998110D02*
D03*
D109*
X895882Y1680456D02*
D03*
X3435252D02*
D03*
X2588795D02*
D03*
X1742339D02*
D03*
D110*
X895173Y1807543D02*
D03*
X3434543D02*
D03*
X2588087D02*
D03*
X1741630D02*
D03*
D111*
X4527874Y1913338D02*
D03*
X4527874Y1803102D02*
D03*
D112*
X4344999Y1105858D02*
D03*
Y1046802D02*
D03*
Y1086172D02*
D03*
Y1066487D02*
D03*
Y1027117D02*
D03*
Y1007432D02*
D03*
Y1125543D02*
D03*
Y1145228D02*
D03*
D113*
Y979873D02*
D03*
Y1172787D02*
D03*
Y1204283D02*
D03*
Y948377D02*
D03*
D114*
X4175512Y1257826D02*
D03*
X4092835D02*
D03*
X4141039Y862590D02*
D03*
X4058362D02*
D03*
X4091362Y1661590D02*
D03*
X4174039D02*
D03*
X4092835Y1100346D02*
D03*
X4175512D02*
D03*
%TF.MD5,52a9d4d7831ca9737a39859e0c5baa61*%
M02*
