%TF.GenerationSoftware,Altium Limited,Altium Designer,23.4.1 (23)*%
G04 Layer_Color=0*
%FSLAX26Y26*%
%MOIN*%
%TF.SameCoordinates,7B234F99-2337-49EF-8028-3FC35EF94B5E*%
%TF.FilePolarity,Positive*%
%TF.FileFunction,Plated,1,2,PTH,Drill*%
%TF.Part,CustomerPanel*%
G01*
G75*
%TA.AperFunction,ComponentDrill*%
%ADD118C,0.055118*%
%ADD119C,0.055000*%
%ADD120C,0.039370*%
%ADD121O,0.027559X0.047244*%
%ADD122O,0.027559X0.066929*%
%ADD123O,0.027559X0.066929*%
%ADD124O,0.027559X0.047244*%
%ADD125O,0.047244X0.027559*%
%ADD126O,0.066929X0.027559*%
%ADD127O,0.066929X0.027559*%
%ADD128O,0.047244X0.027559*%
%TA.AperFunction,OtherDrill,Pad Free-2 (3477.48mil,297.197mil)*%
%ADD129C,0.102362*%
%TA.AperFunction,OtherDrill,Pad Free-2 (2631.023mil,297.196mil)*%
%ADD130C,0.102362*%
%TA.AperFunction,OtherDrill,Pad Free-2 (1784.567mil,297.196mil)*%
%ADD131C,0.102362*%
%TA.AperFunction,OtherDrill,Pad Free-2 (938.11mil,297.196mil)*%
%ADD132C,0.102362*%
%TA.AperFunction,ViaDrill,NotFilled*%
%ADD133C,0.011811*%
D118*
X153000Y540117D02*
D03*
D119*
Y740117D02*
D03*
D120*
X935354Y653496D02*
D03*
X3366457Y653495D02*
D03*
X2520000D02*
D03*
X1673543D02*
D03*
X827087D02*
D03*
X3474724D02*
D03*
X2628268Y653496D02*
D03*
X1781811D02*
D03*
D121*
X2901103Y494047D02*
D03*
X361733Y494047D02*
D03*
X2054646D02*
D03*
X1208189D02*
D03*
D122*
X2901103Y658614D02*
D03*
X361733Y658614D02*
D03*
X2054646D02*
D03*
X1208189D02*
D03*
D123*
X3241259D02*
D03*
X701889D02*
D03*
X2394803D02*
D03*
X1548346D02*
D03*
D124*
X3241260Y494047D02*
D03*
X701889Y494047D02*
D03*
X2394803D02*
D03*
X1548346D02*
D03*
D125*
X4149921Y685776D02*
D03*
D126*
X3985354D02*
D03*
D127*
Y1025933D02*
D03*
D128*
X4149921D02*
D03*
D129*
X3477480Y297197D02*
D03*
D130*
X2631023Y297196D02*
D03*
D131*
X1784567D02*
D03*
D132*
X938110D02*
D03*
D133*
X578995Y750831D02*
D03*
X4031532Y1907102D02*
D03*
X622070Y927986D02*
D03*
X261905Y1158022D02*
D03*
X4059091Y1907102D02*
D03*
X603251Y955794D02*
D03*
X281392Y1177509D02*
D03*
X671000Y1065118D02*
D03*
X633923Y953041D02*
D03*
X884000Y2208117D02*
D03*
X1424000Y752117D02*
D03*
X3988285Y1948665D02*
D03*
X3842496Y2295256D02*
D03*
X1219922Y2130339D02*
D03*
X3968946Y1929031D02*
D03*
X3815000Y2297117D02*
D03*
X1191683Y2131419D02*
D03*
X1369478Y1040118D02*
D03*
X1465493Y926707D02*
D03*
X1488984Y941117D02*
D03*
X1464678Y954988D02*
D03*
X1472000Y1022117D02*
D03*
X1502000Y1055118D02*
D03*
X2273940Y750831D02*
D03*
X2216467Y1039585D02*
D03*
X3898742Y2207268D02*
D03*
X3912493Y1917020D02*
D03*
X2310138Y954906D02*
D03*
X2074968Y2127117D02*
D03*
X3900644Y2234762D02*
D03*
X3885000Y1915118D02*
D03*
X2310957Y926000D02*
D03*
X2047409Y2127117D02*
D03*
X2334000Y941117D02*
D03*
X2317401Y1023978D02*
D03*
X2350343Y1052460D02*
D03*
X2891306Y2125583D02*
D03*
X2918861Y2125102D02*
D03*
X1731000Y2209117D02*
D03*
X2860000Y721117D02*
D03*
X2922251Y829677D02*
D03*
X3061031Y1041478D02*
D03*
X3164000Y1019117D02*
D03*
X3199000Y1054118D02*
D03*
X3159648Y953226D02*
D03*
X3173000Y929117D02*
D03*
X3147345Y918834D02*
D03*
X3115000Y755117D02*
D03*
X3839145Y805375D02*
D03*
X3819506Y827167D02*
D03*
X4164000Y1454118D02*
D03*
X4060590Y1566118D02*
D03*
X3793780Y1754063D02*
D03*
X3768573Y1742922D02*
D03*
X3818588Y1741529D02*
D03*
X3726000Y1746118D02*
D03*
X3816749Y1932200D02*
D03*
X3799000Y1911118D02*
D03*
X4008000Y2330086D02*
D03*
Y2302527D02*
D03*
X3618414Y2204677D02*
D03*
X3805000Y2192117D02*
D03*
X3740487Y2166605D02*
D03*
X3721000Y2147117D02*
D03*
X626346Y1023511D02*
D03*
X523445Y1038302D02*
D03*
X564630Y1032118D02*
D03*
X1411087D02*
D03*
X1340401Y1316432D02*
D03*
X2257543Y1032118D02*
D03*
X2186858Y1316432D02*
D03*
X222000Y991117D02*
D03*
X176268Y1432118D02*
D03*
X296114Y1432004D02*
D03*
X419346Y1165511D02*
D03*
X1265803D02*
D03*
X2112260D02*
D03*
X2581024Y1214519D02*
D03*
X2545591D02*
D03*
X2494166Y1441732D02*
D03*
X2439047D02*
D03*
X2466606D02*
D03*
X2521724D02*
D03*
Y1469291D02*
D03*
X2494166D02*
D03*
X2466606D02*
D03*
X2439047D02*
D03*
X2466606Y1496850D02*
D03*
X2439047D02*
D03*
X2521724D02*
D03*
X2494166D02*
D03*
Y1524409D02*
D03*
X2439047D02*
D03*
X2466606D02*
D03*
X2521724D02*
D03*
X2577087Y1375936D02*
D03*
X2618425Y1047196D02*
D03*
X2308260Y1268511D02*
D03*
X2159260Y753511D02*
D03*
X2746378Y1864125D02*
D03*
Y1834598D02*
D03*
Y1746015D02*
D03*
Y1805070D02*
D03*
Y1775543D02*
D03*
X2775906D02*
D03*
X2775905Y1805070D02*
D03*
X2775906Y1864125D02*
D03*
Y1834598D02*
D03*
X2805433D02*
D03*
Y1805070D02*
D03*
Y1893653D02*
D03*
Y1864125D02*
D03*
X2746378Y1952708D02*
D03*
X2746378Y2041291D02*
D03*
Y2011763D02*
D03*
Y1923180D02*
D03*
Y1893653D02*
D03*
Y1982236D02*
D03*
X2775905Y1952708D02*
D03*
X2746378Y2070818D02*
D03*
X2746378Y2159401D02*
D03*
Y2129873D02*
D03*
Y2100346D02*
D03*
X2775905Y2070818D02*
D03*
X2775906Y2129873D02*
D03*
Y1893653D02*
D03*
Y1982236D02*
D03*
Y1923180D02*
D03*
X2805433Y1952708D02*
D03*
Y1923180D02*
D03*
Y2011763D02*
D03*
Y1982236D02*
D03*
X2775906Y2041291D02*
D03*
Y2011763D02*
D03*
Y2100346D02*
D03*
X2805433Y2070818D02*
D03*
Y2041291D02*
D03*
Y2100346D02*
D03*
X2178150Y1447787D02*
D03*
Y1475346D02*
D03*
X2618425Y929086D02*
D03*
X2647953Y929086D02*
D03*
X2677480Y929086D02*
D03*
X2707008D02*
D03*
X2066000Y878117D02*
D03*
X2122362Y777511D02*
D03*
X2096772Y771606D02*
D03*
X2116457Y751921D02*
D03*
X2069000Y742117D02*
D03*
X2766063Y1017669D02*
D03*
Y1076724D02*
D03*
X2736535D02*
D03*
Y1047196D02*
D03*
X2766063Y1047196D02*
D03*
X2707008Y1017669D02*
D03*
X2736535D02*
D03*
X2677480D02*
D03*
X2647953D02*
D03*
X2327093Y777511D02*
D03*
X2352684Y771606D02*
D03*
X2332999Y751921D02*
D03*
X2766063Y988141D02*
D03*
X2707008D02*
D03*
X2736535D02*
D03*
X2766063Y958614D02*
D03*
X2736535D02*
D03*
X2677481D02*
D03*
X2707008D02*
D03*
X2766063Y929086D02*
D03*
X2736535D02*
D03*
X2677481Y988141D02*
D03*
X2618425Y1017669D02*
D03*
Y988141D02*
D03*
Y958614D02*
D03*
X2647953Y988141D02*
D03*
Y958614D02*
D03*
X2618425Y1076724D02*
D03*
X2707008D02*
D03*
X2677480D02*
D03*
X2647953D02*
D03*
X2677480Y1047196D02*
D03*
X2707008D02*
D03*
X2647953Y1047196D02*
D03*
X2775906Y2159401D02*
D03*
X2805433D02*
D03*
X2510157Y1214519D02*
D03*
Y1277511D02*
D03*
Y1246015D02*
D03*
X2805433Y2129873D02*
D03*
X2581024Y1277511D02*
D03*
X2545591D02*
D03*
X2581024Y1246015D02*
D03*
X2545591D02*
D03*
X2150591Y1475346D02*
D03*
X2123032D02*
D03*
X2150591Y1447787D02*
D03*
X2123032D02*
D03*
X2095472D02*
D03*
Y1420228D02*
D03*
X2123032D02*
D03*
X2150591D02*
D03*
X2178150D02*
D03*
X2150591Y1502905D02*
D03*
X2095472D02*
D03*
X2178150D02*
D03*
X2095472Y1475346D02*
D03*
X2123032Y1502905D02*
D03*
X2775906Y1746015D02*
D03*
X2805433Y1775543D02*
D03*
Y1746015D02*
D03*
X1699134Y1214519D02*
D03*
X1734567D02*
D03*
X1592591Y1469291D02*
D03*
X1620150Y1441732D02*
D03*
X1592591D02*
D03*
X1675268D02*
D03*
X1647709D02*
D03*
Y1469291D02*
D03*
X1620150D02*
D03*
X1675268D02*
D03*
X1620150Y1496850D02*
D03*
X1592591D02*
D03*
X1647709D02*
D03*
X1675268D02*
D03*
X1620150Y1524409D02*
D03*
X1592591D02*
D03*
X1647709D02*
D03*
X1675268D02*
D03*
X1730630Y1375936D02*
D03*
X1771968Y1047196D02*
D03*
X1461803Y1268511D02*
D03*
X1312803Y753511D02*
D03*
X1899921Y1864125D02*
D03*
Y1834598D02*
D03*
Y1746015D02*
D03*
Y1805070D02*
D03*
Y1775543D02*
D03*
X1929449D02*
D03*
X1929449Y1805070D02*
D03*
X1929449Y1864125D02*
D03*
Y1834598D02*
D03*
X1958976D02*
D03*
Y1805070D02*
D03*
Y1893653D02*
D03*
Y1864125D02*
D03*
X1899921Y1952708D02*
D03*
X1899921Y2041291D02*
D03*
Y2011763D02*
D03*
Y1923180D02*
D03*
Y1893653D02*
D03*
Y1982236D02*
D03*
X1929449Y1952708D02*
D03*
X1899921Y2070818D02*
D03*
X1899921Y2159401D02*
D03*
Y2129873D02*
D03*
Y2100346D02*
D03*
X1929449Y2070818D02*
D03*
X1929449Y2129873D02*
D03*
Y1893653D02*
D03*
Y1982236D02*
D03*
Y1923180D02*
D03*
X1958976Y1952708D02*
D03*
Y1923180D02*
D03*
Y2011763D02*
D03*
Y1982236D02*
D03*
X1929449Y2041291D02*
D03*
Y2011763D02*
D03*
Y2100346D02*
D03*
X1958976Y2070818D02*
D03*
Y2041291D02*
D03*
Y2100346D02*
D03*
X1331693Y1447787D02*
D03*
Y1475346D02*
D03*
X1771968Y929086D02*
D03*
X1801496Y929086D02*
D03*
X1831024Y929086D02*
D03*
X1860551D02*
D03*
X1801496Y958614D02*
D03*
X1506227Y771606D02*
D03*
X1801496Y988141D02*
D03*
X1771968D02*
D03*
Y958614D02*
D03*
X1486542Y751921D02*
D03*
X1890079Y958614D02*
D03*
Y929086D02*
D03*
X1831024Y958614D02*
D03*
X1919606Y929086D02*
D03*
X1919606Y988141D02*
D03*
Y958614D02*
D03*
X1860551Y988141D02*
D03*
X1831024D02*
D03*
X1890079D02*
D03*
X1860551Y958614D02*
D03*
X1771968Y1017669D02*
D03*
X1831024Y1047196D02*
D03*
X1860551D02*
D03*
X1831024Y1017669D02*
D03*
X1860551D02*
D03*
X1801496D02*
D03*
Y1047196D02*
D03*
X1919606Y1076724D02*
D03*
Y1017669D02*
D03*
Y1047196D02*
D03*
X1890079Y1017669D02*
D03*
Y1047196D02*
D03*
Y1076724D02*
D03*
X1860551D02*
D03*
X1831024D02*
D03*
X1801496D02*
D03*
X1771968D02*
D03*
X1207188Y742117D02*
D03*
X1480637Y777511D02*
D03*
X1275906D02*
D03*
X1230480Y836598D02*
D03*
X1250315Y771606D02*
D03*
X1270000Y751921D02*
D03*
X1958976Y2129873D02*
D03*
X1958977Y2159401D02*
D03*
X1929449D02*
D03*
Y1746015D02*
D03*
X1958976D02*
D03*
Y1775543D02*
D03*
X1249016Y1502905D02*
D03*
X1331693D02*
D03*
X1276575D02*
D03*
X1331693Y1420228D02*
D03*
X1304134Y1502905D02*
D03*
Y1475346D02*
D03*
Y1420228D02*
D03*
Y1447787D02*
D03*
X1276575Y1475346D02*
D03*
Y1447787D02*
D03*
Y1420228D02*
D03*
X1249016Y1475346D02*
D03*
Y1420228D02*
D03*
Y1447787D02*
D03*
X1663701Y1246015D02*
D03*
Y1277511D02*
D03*
Y1214519D02*
D03*
X1699134Y1277511D02*
D03*
Y1246015D02*
D03*
X1734567Y1277511D02*
D03*
Y1246015D02*
D03*
X852677Y1214519D02*
D03*
X888110D02*
D03*
X773693Y1441732D02*
D03*
X746134D02*
D03*
Y1469291D02*
D03*
X801252D02*
D03*
X773693D02*
D03*
Y1496850D02*
D03*
X746134D02*
D03*
Y1524409D02*
D03*
X801252D02*
D03*
X773693D02*
D03*
X801252Y1441732D02*
D03*
X828811D02*
D03*
Y1469291D02*
D03*
X801252Y1496850D02*
D03*
X828811Y1524409D02*
D03*
Y1496850D02*
D03*
X884173Y1375936D02*
D03*
X925512Y1047196D02*
D03*
X615346Y1268511D02*
D03*
X466346Y753511D02*
D03*
X1053465Y1864125D02*
D03*
Y1834598D02*
D03*
Y1746015D02*
D03*
Y1805070D02*
D03*
Y1775543D02*
D03*
X1082992D02*
D03*
X1082992Y1805070D02*
D03*
X1082992Y1864125D02*
D03*
Y1834598D02*
D03*
X1112520D02*
D03*
Y1805070D02*
D03*
Y1893653D02*
D03*
Y1864125D02*
D03*
X1053465Y1952708D02*
D03*
X1053465Y2041291D02*
D03*
Y2011763D02*
D03*
Y1923180D02*
D03*
Y1893653D02*
D03*
Y1982236D02*
D03*
X1082992Y1952708D02*
D03*
X1053465Y2070818D02*
D03*
X1053465Y2159401D02*
D03*
Y2129873D02*
D03*
Y2100346D02*
D03*
X1082992Y2070818D02*
D03*
X1082992Y2129873D02*
D03*
Y1893653D02*
D03*
Y1982236D02*
D03*
Y1923180D02*
D03*
X1112520Y1952708D02*
D03*
Y1923180D02*
D03*
Y2011763D02*
D03*
Y1982236D02*
D03*
X1082992Y2041291D02*
D03*
Y2011763D02*
D03*
Y2100346D02*
D03*
X1112520Y2070818D02*
D03*
Y2041291D02*
D03*
Y2100346D02*
D03*
X485236Y1475346D02*
D03*
Y1447787D02*
D03*
X925512Y929086D02*
D03*
X955039Y929086D02*
D03*
X1014095Y929086D02*
D03*
X984567D02*
D03*
X1082992Y2159401D02*
D03*
X1112520Y2129873D02*
D03*
X430118Y1447787D02*
D03*
Y1420228D02*
D03*
X485236Y1502905D02*
D03*
Y1420228D02*
D03*
X457677Y1502905D02*
D03*
Y1475346D02*
D03*
Y1420228D02*
D03*
Y1447787D02*
D03*
X430118Y1475346D02*
D03*
X1073150Y1047196D02*
D03*
X1043622Y929086D02*
D03*
Y958614D02*
D03*
Y988141D02*
D03*
X1073150Y1076724D02*
D03*
Y1017669D02*
D03*
Y988141D02*
D03*
Y958614D02*
D03*
X1073150Y929086D02*
D03*
X1043622Y1047196D02*
D03*
Y1076724D02*
D03*
Y1017669D02*
D03*
X430118Y1502905D02*
D03*
X1014095Y1076724D02*
D03*
Y1047196D02*
D03*
Y1017669D02*
D03*
Y988141D02*
D03*
X984567D02*
D03*
X984567Y1047196D02*
D03*
Y1076724D02*
D03*
Y1017669D02*
D03*
X1014095Y958614D02*
D03*
X984567D02*
D03*
X925512Y988141D02*
D03*
Y1017669D02*
D03*
Y958614D02*
D03*
X955039Y1047196D02*
D03*
Y1017669D02*
D03*
Y988141D02*
D03*
Y958614D02*
D03*
X888110Y1246015D02*
D03*
X852677D02*
D03*
X817244D02*
D03*
X888110Y1277511D02*
D03*
X852677D02*
D03*
X817244D02*
D03*
Y1214519D02*
D03*
X955039Y1076724D02*
D03*
X925512D02*
D03*
X1082992Y1746015D02*
D03*
X1112520Y1775543D02*
D03*
Y1746015D02*
D03*
X634180Y777511D02*
D03*
X640085Y751921D02*
D03*
X659770Y771606D02*
D03*
X403858Y771606D02*
D03*
X429449Y777511D02*
D03*
X373803Y870133D02*
D03*
X1112520Y2159401D02*
D03*
X423543Y751921D02*
D03*
X311000Y697117D02*
D03*
X402559Y1502905D02*
D03*
Y1447787D02*
D03*
Y1420228D02*
D03*
Y1475346D02*
D03*
X3423543Y1375936D02*
D03*
X2577087Y2213031D02*
D03*
X3033315Y1316432D02*
D03*
X3104000Y1032118D02*
D03*
X2969488Y1502905D02*
D03*
X2997047D02*
D03*
X2941929D02*
D03*
X2969488Y1475346D02*
D03*
X3024606Y1502905D02*
D03*
X2941929Y1475346D02*
D03*
X3024606D02*
D03*
X2997047D02*
D03*
Y1420228D02*
D03*
X3024606D02*
D03*
X2941929D02*
D03*
X3024606Y1447787D02*
D03*
X2969488Y1420228D02*
D03*
X2941929Y1447787D02*
D03*
X2997047D02*
D03*
X2969488D02*
D03*
X3313063Y1524409D02*
D03*
X3340622D02*
D03*
X3285504D02*
D03*
X3313063Y1496850D02*
D03*
X3368181Y1524409D02*
D03*
X3285504Y1496850D02*
D03*
X3368181D02*
D03*
X3340622D02*
D03*
Y1441732D02*
D03*
X3368181D02*
D03*
X3285504D02*
D03*
X3368181Y1469291D02*
D03*
X3313063Y1441732D02*
D03*
X3285504Y1469291D02*
D03*
X3340622D02*
D03*
X3313063D02*
D03*
X4040000Y1727537D02*
D03*
X3640000Y558117D02*
D03*
X3639000Y521117D02*
D03*
X3641000Y482118D02*
D03*
X3582268Y573385D02*
D03*
X3583000Y620117D02*
D03*
X3897000Y947117D02*
D03*
X3906732Y759401D02*
D03*
X4038000Y1167118D02*
D03*
X4020000Y1282118D02*
D03*
X3898937Y1741180D02*
D03*
X4032000Y1504118D02*
D03*
X3893399Y1559118D02*
D03*
X3783000Y1367118D02*
D03*
X3784000Y700117D02*
D03*
X3714000Y1515118D02*
D03*
X3895000Y1598118D02*
D03*
X3874000Y542117D02*
D03*
X3794472Y468385D02*
D03*
X3622362Y1746015D02*
D03*
X3651890D02*
D03*
Y1775543D02*
D03*
X3622362Y2159401D02*
D03*
X3651890Y2129873D02*
D03*
X3651890Y2159401D02*
D03*
X3494409Y988141D02*
D03*
X3464882Y958614D02*
D03*
Y988141D02*
D03*
X3494409Y958614D02*
D03*
X3464882Y1017669D02*
D03*
X3494409D02*
D03*
Y1076724D02*
D03*
Y1047196D02*
D03*
X3464882Y1076724D02*
D03*
X3199140Y771606D02*
D03*
X3179455Y751921D02*
D03*
X2962913D02*
D03*
X2968819Y777511D02*
D03*
X2943228Y771606D02*
D03*
X3173550Y777511D02*
D03*
X3392047Y1277511D02*
D03*
X3612520Y1017669D02*
D03*
X3553465D02*
D03*
X3523937Y958614D02*
D03*
X3553465Y988141D02*
D03*
Y958614D02*
D03*
X3582992D02*
D03*
Y988141D02*
D03*
X3612520D02*
D03*
X3582992Y929086D02*
D03*
X3612520D02*
D03*
X3612520Y958614D02*
D03*
X3523937Y988141D02*
D03*
X3582992Y1017669D02*
D03*
Y1047196D02*
D03*
X3553465Y1076724D02*
D03*
X3582992D02*
D03*
X3523937D02*
D03*
Y1017669D02*
D03*
Y1047196D02*
D03*
X3553465D02*
D03*
X3427480Y1277511D02*
D03*
X3356614D02*
D03*
X3392047Y1246015D02*
D03*
X3427480D02*
D03*
X3356614D02*
D03*
Y1214519D02*
D03*
X3612520Y1076724D02*
D03*
Y1047196D02*
D03*
X3553465Y929086D02*
D03*
X3523937D02*
D03*
X3494409Y929086D02*
D03*
X3464882Y929086D02*
D03*
X2958716Y1165511D02*
D03*
X3651890Y2100346D02*
D03*
Y2041291D02*
D03*
Y2070818D02*
D03*
X3622362Y2100346D02*
D03*
Y2011763D02*
D03*
Y2041291D02*
D03*
X3651890Y1982236D02*
D03*
Y2011763D02*
D03*
Y1923180D02*
D03*
Y1952708D02*
D03*
X3622362Y1923180D02*
D03*
Y1982236D02*
D03*
Y1893653D02*
D03*
Y2129873D02*
D03*
X3622362Y2070818D02*
D03*
X3592835Y2100346D02*
D03*
Y2129873D02*
D03*
Y2159401D02*
D03*
X3592835Y2070818D02*
D03*
X3622362Y1952708D02*
D03*
X3592835Y1982236D02*
D03*
Y1893653D02*
D03*
Y1923180D02*
D03*
Y2011763D02*
D03*
Y2041291D02*
D03*
X3592835Y1952708D02*
D03*
X3651890Y1864125D02*
D03*
Y1893653D02*
D03*
Y1805070D02*
D03*
Y1834598D02*
D03*
X3622362D02*
D03*
Y1864125D02*
D03*
X3622362Y1805070D02*
D03*
X3622362Y1775543D02*
D03*
X3592835D02*
D03*
Y1805070D02*
D03*
Y1746015D02*
D03*
Y1834598D02*
D03*
Y1864125D02*
D03*
X3005716Y753511D02*
D03*
X3154716Y1268511D02*
D03*
X3464882Y1047196D02*
D03*
X3427480Y1214519D02*
D03*
X3392047D02*
D03*
%TF.MD5,980e397214280c3601cdf8d7f9fb8a29*%
M02*
