%TF.GenerationSoftware,Altium Limited,Altium Designer,23.4.1 (23)*%
G04 Layer_Color=32896*
%FSLAX26Y26*%
%MOIN*%
%TF.SameCoordinates,9AE554A4-7581-43F1-91E0-74BCC9029391*%
%TF.FilePolarity,Positive*%
%TF.FileFunction,Legend,Bot*%
%TF.Part,CustomerPanel*%
G01*
G75*
%TA.AperFunction,NonConductor*%
%ADD69C,0.026691*%
G36*
X2348199Y2555991D02*
X2349691Y2554957D01*
X2350265Y2554498D01*
X2350725Y2554154D01*
X2351069Y2553924D01*
X2351184Y2553809D01*
X2353135Y2552547D01*
X2354169Y2552088D01*
X2355087Y2551628D01*
X2355776Y2551284D01*
X2356350Y2550939D01*
X2356809Y2550825D01*
X2356924Y2550710D01*
X2359220Y2549791D01*
X2360368Y2549447D01*
X2361401Y2549103D01*
X2362319Y2548758D01*
X2363008Y2548644D01*
X2363467Y2548414D01*
X2363582D01*
X2366108Y2547840D01*
X2367256Y2547495D01*
X2368289Y2547381D01*
X2369207Y2547151D01*
X2369896Y2547036D01*
X2370355Y2546921D01*
X2370470D01*
X2368519Y2536934D01*
X2366682Y2537278D01*
X2365075Y2537623D01*
X2364386Y2537738D01*
X2363927Y2537852D01*
X2363582Y2537967D01*
X2363467D01*
X2361516Y2538426D01*
X2360712Y2538656D01*
X2359909Y2538771D01*
X2359335Y2539000D01*
X2358875Y2539115D01*
X2358531Y2539230D01*
X2358416D01*
X2356579Y2539804D01*
X2355776Y2540034D01*
X2355087Y2540263D01*
X2354398Y2540493D01*
X2353939Y2540722D01*
X2353709Y2540837D01*
X2353595D01*
X2351987Y2541526D01*
X2350725Y2542100D01*
X2350265Y2542329D01*
X2349921Y2542559D01*
X2349806Y2542674D01*
X2349691D01*
Y2487914D01*
X2336375D01*
Y2557368D01*
X2346821D01*
X2348199Y2555991D01*
D02*
G37*
G36*
X2555987Y2523847D02*
X2576077Y2487914D01*
X2561153D01*
X2547951Y2513170D01*
X2547836D01*
X2534749Y2487914D01*
X2519825D01*
X2539915Y2523847D01*
X2521317Y2557368D01*
X2536127D01*
X2547836Y2534638D01*
X2547951D01*
X2559775Y2557368D01*
X2574585D01*
X2555987Y2523847D01*
D02*
G37*
G36*
X2415127Y2487914D02*
X2400777D01*
X2379425Y2557368D01*
X2394119D01*
X2405829Y2512137D01*
X2406403Y2509841D01*
X2406632Y2508808D01*
X2406862Y2507890D01*
X2406977Y2507086D01*
X2407091Y2506512D01*
X2407206Y2506168D01*
Y2506053D01*
X2407321Y2505134D01*
X2407551Y2504331D01*
X2407665Y2503642D01*
Y2503068D01*
X2407780Y2502609D01*
X2407895Y2502379D01*
Y2502264D01*
Y2502149D01*
X2408125D01*
X2408239Y2502609D01*
X2408354Y2503183D01*
X2408469Y2503642D01*
Y2503757D01*
X2408584Y2504675D01*
X2408699Y2505479D01*
X2408813Y2506053D01*
Y2506168D01*
Y2506282D01*
X2409043Y2507316D01*
X2409158Y2508234D01*
X2409273Y2508923D01*
X2409387Y2509037D01*
Y2509152D01*
X2409617Y2510300D01*
X2409847Y2511219D01*
X2409961Y2511907D01*
X2410076Y2512022D01*
Y2512137D01*
X2421786Y2557368D01*
X2436480D01*
X2415127Y2487914D01*
D02*
G37*
G36*
X3079016Y2487914D02*
X3065469D01*
X3057548Y2517303D01*
X3057089Y2519140D01*
X3056859Y2519829D01*
X3056745Y2520518D01*
X3056630Y2521092D01*
Y2521551D01*
X3056515Y2521780D01*
Y2521895D01*
X3056285Y2523273D01*
X3056056Y2524306D01*
X3055941Y2524880D01*
Y2525110D01*
X3055711D01*
Y2524765D01*
Y2524421D01*
X3055597Y2523388D01*
Y2522928D01*
X3055482Y2522584D01*
Y2522354D01*
Y2522240D01*
X3055137Y2520518D01*
X3054793Y2518910D01*
X3054563Y2518336D01*
X3054449Y2517762D01*
X3054334Y2517418D01*
Y2517303D01*
X3046298Y2487914D01*
X3032751D01*
X3017713Y2539689D01*
X3030915D01*
X3038262Y2507890D01*
X3038721Y2505823D01*
X3038836Y2504905D01*
X3039065Y2504216D01*
X3039180Y2503527D01*
Y2503068D01*
X3039295Y2502724D01*
Y2502609D01*
X3039410Y2501805D01*
Y2501116D01*
X3039525Y2500542D01*
Y2500198D01*
X3039639Y2499624D01*
Y2499509D01*
X3039754D01*
X3039869Y2499854D01*
X3039984Y2500313D01*
X3040213Y2501346D01*
X3040328Y2501805D01*
Y2502264D01*
X3040443Y2502494D01*
Y2502609D01*
X3040787Y2504446D01*
X3041132Y2506168D01*
X3041361Y2506856D01*
X3041476Y2507430D01*
X3041591Y2507775D01*
Y2507890D01*
X3049857Y2539689D01*
X3061911D01*
X3070291Y2507890D01*
X3070750Y2505823D01*
X3070980Y2504905D01*
X3071209Y2504216D01*
X3071324Y2503527D01*
Y2503068D01*
X3071439Y2502724D01*
Y2502609D01*
X3071554Y2501805D01*
X3071669Y2501116D01*
X3071783Y2500542D01*
X3071898Y2500198D01*
X3072013Y2499624D01*
Y2499509D01*
X3072243D01*
Y2499854D01*
Y2500313D01*
X3072357Y2501461D01*
X3072472Y2501920D01*
Y2502379D01*
X3072587Y2502724D01*
Y2502838D01*
X3072817Y2504790D01*
X3073046Y2505594D01*
X3073161Y2506397D01*
X3073276Y2506971D01*
X3073391Y2507430D01*
X3073505Y2507775D01*
Y2507890D01*
X3080967Y2539689D01*
X3094055D01*
X3079016Y2487914D01*
D02*
G37*
G36*
X2989472Y2540722D02*
X2991309Y2540493D01*
X2993031Y2540148D01*
X2994523Y2539804D01*
X2995786Y2539460D01*
X2996704Y2539115D01*
X2997278Y2538886D01*
X2997508Y2538771D01*
X2999115Y2537967D01*
X3000607Y2537049D01*
X3001870Y2536130D01*
X3003018Y2535327D01*
X3003822Y2534523D01*
X3004511Y2533834D01*
X3004970Y2533375D01*
X3005085Y2533260D01*
X3006118Y2531883D01*
X3007151Y2530390D01*
X3007955Y2529013D01*
X3008643Y2527635D01*
X3009103Y2526487D01*
X3009447Y2525454D01*
X3009677Y2524880D01*
X3009791Y2524765D01*
Y2524650D01*
X3010365Y2522814D01*
X3010710Y2520862D01*
X3011054Y2519025D01*
X3011169Y2517303D01*
X3011284Y2515926D01*
X3011399Y2514778D01*
Y2514318D01*
Y2513974D01*
Y2513859D01*
Y2513744D01*
X3011284Y2511563D01*
X3011169Y2509612D01*
X3010939Y2507775D01*
X3010595Y2506053D01*
X3010251Y2504790D01*
X3010021Y2503757D01*
X3009906Y2503068D01*
X3009791Y2502953D01*
Y2502838D01*
X3009103Y2501002D01*
X3008299Y2499394D01*
X3007381Y2497902D01*
X3006577Y2496639D01*
X3005888Y2495606D01*
X3005314Y2494917D01*
X3004855Y2494343D01*
X3004740Y2494228D01*
X3003477Y2492966D01*
X3002100Y2491818D01*
X3000722Y2490899D01*
X2999459Y2490096D01*
X2998311Y2489522D01*
X2997393Y2489062D01*
X2996819Y2488833D01*
X2996589Y2488718D01*
X2994753Y2488029D01*
X2992801Y2487570D01*
X2990964Y2487226D01*
X2989127Y2486996D01*
X2987635Y2486881D01*
X2986372Y2486766D01*
X2983273D01*
X2981206Y2486881D01*
X2979369Y2487111D01*
X2977762Y2487340D01*
X2976499Y2487455D01*
X2975466Y2487685D01*
X2974777Y2487800D01*
X2974548D01*
X2972711Y2488259D01*
X2971104Y2488603D01*
X2969726Y2489062D01*
X2968463Y2489522D01*
X2967430Y2489866D01*
X2966741Y2490210D01*
X2966282Y2490325D01*
X2966167Y2490440D01*
X2969956Y2500198D01*
X2972137Y2499280D01*
X2973285Y2498820D01*
X2974318Y2498591D01*
X2975237Y2498246D01*
X2975925Y2498017D01*
X2976385Y2497902D01*
X2976614D01*
X2979369Y2497328D01*
X2980747Y2497213D01*
X2981895Y2497098D01*
X2982813Y2496984D01*
X2984306D01*
X2986372Y2497098D01*
X2988324Y2497443D01*
X2989931Y2497902D01*
X2991309Y2498361D01*
X2992457Y2498820D01*
X2993260Y2499280D01*
X2993719Y2499624D01*
X2993949Y2499739D01*
X2995212Y2500887D01*
X2996245Y2502264D01*
X2997049Y2503757D01*
X2997737Y2505134D01*
X2998197Y2506397D01*
X2998426Y2507430D01*
X2998656Y2508119D01*
Y2508234D01*
Y2508349D01*
X2965364Y2512826D01*
X2965249Y2513630D01*
X2965134Y2514318D01*
Y2514778D01*
Y2515007D01*
Y2517303D01*
X2965249Y2519255D01*
X2965364Y2520977D01*
X2965593Y2522699D01*
X2965823Y2524076D01*
X2966167Y2525224D01*
X2966397Y2526143D01*
X2966512Y2526602D01*
X2966627Y2526832D01*
X2967201Y2528439D01*
X2967889Y2529816D01*
X2968693Y2531079D01*
X2969382Y2532227D01*
X2969956Y2533031D01*
X2970530Y2533720D01*
X2970874Y2534179D01*
X2970989Y2534294D01*
X2972022Y2535442D01*
X2973170Y2536360D01*
X2974318Y2537164D01*
X2975466Y2537852D01*
X2976385Y2538426D01*
X2977188Y2538771D01*
X2977647Y2539000D01*
X2977877Y2539115D01*
X2979484Y2539689D01*
X2981091Y2540148D01*
X2982699Y2540378D01*
X2984191Y2540608D01*
X2985454Y2540722D01*
X2986487Y2540837D01*
X2987405D01*
X2989472Y2540722D01*
D02*
G37*
G36*
X2828522D02*
X2830359Y2540493D01*
X2832081Y2540148D01*
X2833573Y2539804D01*
X2834836Y2539460D01*
X2835755Y2539115D01*
X2836329Y2538886D01*
X2836558Y2538771D01*
X2838165Y2537967D01*
X2839658Y2537049D01*
X2840921Y2536130D01*
X2842069Y2535327D01*
X2842872Y2534523D01*
X2843561Y2533834D01*
X2844020Y2533375D01*
X2844135Y2533260D01*
X2845168Y2531883D01*
X2846201Y2530390D01*
X2847005Y2529013D01*
X2847694Y2527635D01*
X2848153Y2526487D01*
X2848497Y2525454D01*
X2848727Y2524880D01*
X2848842Y2524765D01*
Y2524650D01*
X2849416Y2522814D01*
X2849760Y2520862D01*
X2850105Y2519025D01*
X2850219Y2517303D01*
X2850334Y2515926D01*
X2850449Y2514778D01*
Y2514318D01*
Y2513974D01*
Y2513859D01*
Y2513744D01*
X2850334Y2511563D01*
X2850219Y2509612D01*
X2849990Y2507775D01*
X2849645Y2506053D01*
X2849301Y2504790D01*
X2849071Y2503757D01*
X2848957Y2503068D01*
X2848842Y2502953D01*
Y2502838D01*
X2848153Y2501002D01*
X2847349Y2499394D01*
X2846431Y2497902D01*
X2845627Y2496639D01*
X2844939Y2495606D01*
X2844365Y2494917D01*
X2843905Y2494343D01*
X2843791Y2494228D01*
X2842528Y2492966D01*
X2841150Y2491818D01*
X2839773Y2490899D01*
X2838510Y2490096D01*
X2837362Y2489522D01*
X2836443Y2489062D01*
X2835869Y2488833D01*
X2835640Y2488718D01*
X2833803Y2488029D01*
X2831851Y2487570D01*
X2830015Y2487226D01*
X2828178Y2486996D01*
X2826685Y2486881D01*
X2825423Y2486766D01*
X2822323D01*
X2820257Y2486881D01*
X2818420Y2487111D01*
X2816813Y2487340D01*
X2815550Y2487455D01*
X2814517Y2487685D01*
X2813828Y2487800D01*
X2813598D01*
X2811761Y2488259D01*
X2810154Y2488603D01*
X2808777Y2489062D01*
X2807514Y2489522D01*
X2806481Y2489866D01*
X2805792Y2490210D01*
X2805333Y2490325D01*
X2805218Y2490440D01*
X2809006Y2500198D01*
X2811187Y2499280D01*
X2812335Y2498820D01*
X2813369Y2498591D01*
X2814287Y2498246D01*
X2814976Y2498017D01*
X2815435Y2497902D01*
X2815665D01*
X2818420Y2497328D01*
X2819797Y2497213D01*
X2820945Y2497098D01*
X2821864Y2496984D01*
X2823356D01*
X2825423Y2497098D01*
X2827374Y2497443D01*
X2828981Y2497902D01*
X2830359Y2498361D01*
X2831507Y2498820D01*
X2832311Y2499280D01*
X2832770Y2499624D01*
X2832999Y2499739D01*
X2834262Y2500887D01*
X2835295Y2502264D01*
X2836099Y2503757D01*
X2836788Y2505134D01*
X2837247Y2506397D01*
X2837477Y2507430D01*
X2837706Y2508119D01*
Y2508234D01*
Y2508349D01*
X2804414Y2512826D01*
X2804299Y2513630D01*
X2804185Y2514318D01*
Y2514778D01*
Y2515007D01*
Y2517303D01*
X2804299Y2519255D01*
X2804414Y2520977D01*
X2804644Y2522699D01*
X2804873Y2524076D01*
X2805218Y2525224D01*
X2805447Y2526143D01*
X2805562Y2526602D01*
X2805677Y2526832D01*
X2806251Y2528439D01*
X2806940Y2529816D01*
X2807743Y2531079D01*
X2808432Y2532227D01*
X2809006Y2533031D01*
X2809580Y2533720D01*
X2809925Y2534179D01*
X2810039Y2534294D01*
X2811073Y2535442D01*
X2812221Y2536360D01*
X2813369Y2537164D01*
X2814517Y2537852D01*
X2815435Y2538426D01*
X2816239Y2538771D01*
X2816698Y2539000D01*
X2816927Y2539115D01*
X2818535Y2539689D01*
X2820142Y2540148D01*
X2821749Y2540378D01*
X2823241Y2540608D01*
X2824504Y2540722D01*
X2825537Y2540837D01*
X2826456D01*
X2828522Y2540722D01*
D02*
G37*
G36*
X2774107D02*
X2775944Y2540493D01*
X2777666Y2540148D01*
X2779158Y2539804D01*
X2780421Y2539460D01*
X2781339Y2539115D01*
X2781913Y2538886D01*
X2782143Y2538771D01*
X2783750Y2537967D01*
X2785243Y2537049D01*
X2786505Y2536130D01*
X2787653Y2535327D01*
X2788457Y2534523D01*
X2789146Y2533834D01*
X2789605Y2533375D01*
X2789720Y2533260D01*
X2790753Y2531883D01*
X2791786Y2530390D01*
X2792590Y2529013D01*
X2793279Y2527635D01*
X2793738Y2526487D01*
X2794082Y2525454D01*
X2794312Y2524880D01*
X2794427Y2524765D01*
Y2524650D01*
X2795001Y2522814D01*
X2795345Y2520862D01*
X2795689Y2519025D01*
X2795804Y2517303D01*
X2795919Y2515926D01*
X2796034Y2514778D01*
Y2514318D01*
Y2513974D01*
Y2513859D01*
Y2513744D01*
X2795919Y2511563D01*
X2795804Y2509612D01*
X2795575Y2507775D01*
X2795230Y2506053D01*
X2794886Y2504790D01*
X2794656Y2503757D01*
X2794541Y2503068D01*
X2794427Y2502953D01*
Y2502838D01*
X2793738Y2501002D01*
X2792934Y2499394D01*
X2792016Y2497902D01*
X2791212Y2496639D01*
X2790523Y2495606D01*
X2789949Y2494917D01*
X2789490Y2494343D01*
X2789375Y2494228D01*
X2788113Y2492966D01*
X2786735Y2491818D01*
X2785357Y2490899D01*
X2784095Y2490096D01*
X2782947Y2489522D01*
X2782028Y2489062D01*
X2781454Y2488833D01*
X2781225Y2488718D01*
X2779388Y2488029D01*
X2777436Y2487570D01*
X2775599Y2487226D01*
X2773763Y2486996D01*
X2772270Y2486881D01*
X2771007Y2486766D01*
X2767908D01*
X2765841Y2486881D01*
X2764005Y2487111D01*
X2762397Y2487340D01*
X2761135Y2487455D01*
X2760101Y2487685D01*
X2759413Y2487800D01*
X2759183D01*
X2757346Y2488259D01*
X2755739Y2488603D01*
X2754361Y2489062D01*
X2753099Y2489522D01*
X2752065Y2489866D01*
X2751377Y2490210D01*
X2750917Y2490325D01*
X2750803Y2490440D01*
X2754591Y2500198D01*
X2756772Y2499280D01*
X2757920Y2498820D01*
X2758953Y2498591D01*
X2759872Y2498246D01*
X2760561Y2498017D01*
X2761020Y2497902D01*
X2761249D01*
X2764005Y2497328D01*
X2765382Y2497213D01*
X2766530Y2497098D01*
X2767449Y2496984D01*
X2768941D01*
X2771007Y2497098D01*
X2772959Y2497443D01*
X2774566Y2497902D01*
X2775944Y2498361D01*
X2777092Y2498820D01*
X2777895Y2499280D01*
X2778355Y2499624D01*
X2778584Y2499739D01*
X2779847Y2500887D01*
X2780880Y2502264D01*
X2781684Y2503757D01*
X2782373Y2505134D01*
X2782832Y2506397D01*
X2783061Y2507430D01*
X2783291Y2508119D01*
Y2508234D01*
Y2508349D01*
X2749999Y2512826D01*
X2749884Y2513630D01*
X2749769Y2514318D01*
Y2514778D01*
Y2515007D01*
Y2517303D01*
X2749884Y2519255D01*
X2749999Y2520977D01*
X2750229Y2522699D01*
X2750458Y2524076D01*
X2750803Y2525224D01*
X2751032Y2526143D01*
X2751147Y2526602D01*
X2751262Y2526832D01*
X2751836Y2528439D01*
X2752525Y2529816D01*
X2753328Y2531079D01*
X2754017Y2532227D01*
X2754591Y2533031D01*
X2755165Y2533720D01*
X2755509Y2534179D01*
X2755624Y2534294D01*
X2756657Y2535442D01*
X2757805Y2536360D01*
X2758953Y2537164D01*
X2760101Y2537852D01*
X2761020Y2538426D01*
X2761823Y2538771D01*
X2762283Y2539000D01*
X2762512Y2539115D01*
X2764119Y2539689D01*
X2765727Y2540148D01*
X2767334Y2540378D01*
X2768826Y2540608D01*
X2770089Y2540722D01*
X2771122Y2540837D01*
X2772041D01*
X2774107Y2540722D01*
D02*
G37*
G36*
X2665047D02*
X2666884Y2540493D01*
X2668606Y2540148D01*
X2670098Y2539804D01*
X2671361Y2539460D01*
X2672279Y2539115D01*
X2672853Y2538886D01*
X2673083Y2538771D01*
X2674690Y2537967D01*
X2676183Y2537049D01*
X2677445Y2536130D01*
X2678593Y2535327D01*
X2679397Y2534523D01*
X2680086Y2533834D01*
X2680545Y2533375D01*
X2680660Y2533260D01*
X2681693Y2531883D01*
X2682726Y2530390D01*
X2683530Y2529013D01*
X2684219Y2527635D01*
X2684678Y2526487D01*
X2685022Y2525454D01*
X2685252Y2524880D01*
X2685367Y2524765D01*
Y2524650D01*
X2685941Y2522814D01*
X2686285Y2520862D01*
X2686629Y2519025D01*
X2686744Y2517303D01*
X2686859Y2515926D01*
X2686974Y2514778D01*
Y2514318D01*
Y2513974D01*
Y2513859D01*
Y2513744D01*
X2686859Y2511563D01*
X2686744Y2509612D01*
X2686515Y2507775D01*
X2686170Y2506053D01*
X2685826Y2504790D01*
X2685596Y2503757D01*
X2685481Y2503068D01*
X2685367Y2502953D01*
Y2502838D01*
X2684678Y2501002D01*
X2683874Y2499394D01*
X2682956Y2497902D01*
X2682152Y2496639D01*
X2681463Y2495606D01*
X2680889Y2494917D01*
X2680430Y2494343D01*
X2680315Y2494228D01*
X2679053Y2492966D01*
X2677675Y2491818D01*
X2676297Y2490899D01*
X2675035Y2490096D01*
X2673887Y2489522D01*
X2672968Y2489062D01*
X2672394Y2488833D01*
X2672165Y2488718D01*
X2670328Y2488029D01*
X2668376Y2487570D01*
X2666539Y2487226D01*
X2664703Y2486996D01*
X2663210Y2486881D01*
X2661947Y2486766D01*
X2658848D01*
X2656781Y2486881D01*
X2654945Y2487111D01*
X2653337Y2487340D01*
X2652075Y2487455D01*
X2651041Y2487685D01*
X2650353Y2487800D01*
X2650123D01*
X2648286Y2488259D01*
X2646679Y2488603D01*
X2645301Y2489062D01*
X2644039Y2489522D01*
X2643005Y2489866D01*
X2642317Y2490210D01*
X2641857Y2490325D01*
X2641743Y2490440D01*
X2645531Y2500198D01*
X2647712Y2499280D01*
X2648860Y2498820D01*
X2649893Y2498591D01*
X2650812Y2498246D01*
X2651501Y2498017D01*
X2651960Y2497902D01*
X2652189D01*
X2654945Y2497328D01*
X2656322Y2497213D01*
X2657470Y2497098D01*
X2658389Y2496984D01*
X2659881D01*
X2661947Y2497098D01*
X2663899Y2497443D01*
X2665506Y2497902D01*
X2666884Y2498361D01*
X2668032Y2498820D01*
X2668835Y2499280D01*
X2669295Y2499624D01*
X2669524Y2499739D01*
X2670787Y2500887D01*
X2671820Y2502264D01*
X2672624Y2503757D01*
X2673313Y2505134D01*
X2673772Y2506397D01*
X2674001Y2507430D01*
X2674231Y2508119D01*
Y2508234D01*
Y2508349D01*
X2640939Y2512826D01*
X2640824Y2513630D01*
X2640709Y2514318D01*
Y2514778D01*
Y2515007D01*
Y2517303D01*
X2640824Y2519255D01*
X2640939Y2520977D01*
X2641169Y2522699D01*
X2641398Y2524076D01*
X2641743Y2525224D01*
X2641972Y2526143D01*
X2642087Y2526602D01*
X2642202Y2526832D01*
X2642776Y2528439D01*
X2643465Y2529816D01*
X2644268Y2531079D01*
X2644957Y2532227D01*
X2645531Y2533031D01*
X2646105Y2533720D01*
X2646449Y2534179D01*
X2646564Y2534294D01*
X2647597Y2535442D01*
X2648745Y2536360D01*
X2649893Y2537164D01*
X2651041Y2537852D01*
X2651960Y2538426D01*
X2652763Y2538771D01*
X2653223Y2539000D01*
X2653452Y2539115D01*
X2655059Y2539689D01*
X2656667Y2540148D01*
X2658274Y2540378D01*
X2659766Y2540608D01*
X2661029Y2540722D01*
X2662062Y2540837D01*
X2662981D01*
X2665047Y2540722D01*
D02*
G37*
G36*
X3185665Y2558517D02*
X3187502Y2558287D01*
X3189109Y2558172D01*
X3190487Y2557943D01*
X3191520Y2557713D01*
X3192209Y2557598D01*
X3192438D01*
X3194275Y2557139D01*
X3195997Y2556680D01*
X3197489Y2556220D01*
X3198867Y2555876D01*
X3200015Y2555417D01*
X3200819Y2555187D01*
X3201278Y2554958D01*
X3201507Y2554843D01*
Y2487914D01*
X3188305D01*
Y2514892D01*
X3187387Y2514778D01*
X3186469Y2514663D01*
X3185665Y2514548D01*
X3185435D01*
X3184058Y2514433D01*
X3181877D01*
X3179466Y2514548D01*
X3177170Y2514663D01*
X3175103Y2514892D01*
X3173381Y2515237D01*
X3172004Y2515581D01*
X3170971Y2515811D01*
X3170282Y2515926D01*
X3170052Y2516041D01*
X3168215Y2516729D01*
X3166608Y2517418D01*
X3165116Y2518222D01*
X3163853Y2518910D01*
X3162935Y2519485D01*
X3162131Y2520059D01*
X3161672Y2520403D01*
X3161557Y2520518D01*
X3160294Y2521666D01*
X3159261Y2522928D01*
X3158457Y2524077D01*
X3157654Y2525110D01*
X3157080Y2526143D01*
X3156735Y2526832D01*
X3156506Y2527291D01*
X3156391Y2527521D01*
X3155817Y2529013D01*
X3155358Y2530620D01*
X3155128Y2531998D01*
X3154899Y2533375D01*
X3154784Y2534523D01*
X3154669Y2535442D01*
Y2536016D01*
Y2536245D01*
X3154784Y2538082D01*
X3155013Y2539919D01*
X3155358Y2541526D01*
X3155702Y2543133D01*
X3156850Y2545889D01*
X3157424Y2547151D01*
X3158113Y2548184D01*
X3158802Y2549218D01*
X3159376Y2550136D01*
X3159950Y2550825D01*
X3160524Y2551399D01*
X3160868Y2551973D01*
X3161213Y2552317D01*
X3161442Y2552432D01*
X3161557Y2552547D01*
X3162935Y2553580D01*
X3164427Y2554613D01*
X3165919Y2555417D01*
X3167527Y2556106D01*
X3170856Y2557139D01*
X3174070Y2557828D01*
X3175563Y2558172D01*
X3176940Y2558287D01*
X3178203Y2558402D01*
X3179236Y2558517D01*
X3180155Y2558631D01*
X3183599D01*
X3185665Y2558517D01*
D02*
G37*
G36*
X2938615Y2540608D02*
X2940567Y2540493D01*
X2942289Y2540263D01*
X2943781Y2540034D01*
X2944929Y2539919D01*
X2945618Y2539689D01*
X2945848D01*
X2947799Y2539230D01*
X2949521Y2538886D01*
X2951129Y2538426D01*
X2952506Y2537967D01*
X2953539Y2537623D01*
X2954458Y2537278D01*
X2954917Y2537164D01*
X2955147Y2537049D01*
Y2487914D01*
X2942174D01*
Y2529128D01*
X2941141Y2529472D01*
X2940223Y2529702D01*
X2939419Y2529931D01*
X2939189D01*
X2937927Y2530161D01*
X2936779Y2530276D01*
X2934368D01*
X2933335Y2530161D01*
X2932301Y2530046D01*
X2931498Y2529931D01*
X2930694Y2529702D01*
X2930235Y2529587D01*
X2929891Y2529472D01*
X2929776D01*
X2927365Y2540378D01*
X2928398Y2540493D01*
X2929317D01*
X2930005Y2540608D01*
X2930350D01*
X2931613Y2540722D01*
X2932875Y2540837D01*
X2936319D01*
X2938615Y2540608D01*
D02*
G37*
G36*
X2894762Y2487914D02*
X2881560D01*
Y2517533D01*
X2860437D01*
Y2528668D01*
X2881560D01*
Y2546118D01*
X2858255D01*
Y2557368D01*
X2894762D01*
Y2487914D01*
D02*
G37*
G36*
X2614191Y2540608D02*
X2616142Y2540493D01*
X2617864Y2540263D01*
X2619357Y2540034D01*
X2620505Y2539919D01*
X2621193Y2539689D01*
X2621423D01*
X2623375Y2539230D01*
X2625097Y2538886D01*
X2626704Y2538426D01*
X2628081Y2537967D01*
X2629115Y2537623D01*
X2630033Y2537278D01*
X2630492Y2537164D01*
X2630722Y2537049D01*
Y2487914D01*
X2617749D01*
Y2529128D01*
X2616716Y2529472D01*
X2615798Y2529702D01*
X2614994Y2529931D01*
X2614765D01*
X2613502Y2530161D01*
X2612354Y2530276D01*
X2609943D01*
X2608910Y2530161D01*
X2607877Y2530046D01*
X2607073Y2529931D01*
X2606269Y2529702D01*
X2605810Y2529587D01*
X2605466Y2529472D01*
X2605351D01*
X2602940Y2540378D01*
X2603973Y2540493D01*
X2604892D01*
X2605581Y2540608D01*
X2605925D01*
X2607188Y2540722D01*
X2608451Y2540837D01*
X2611895D01*
X2614191Y2540608D01*
D02*
G37*
G36*
X2515577Y2514433D02*
Y2505019D01*
X2484467D01*
Y2487914D01*
X2472298D01*
Y2505019D01*
X2465410D01*
Y2514433D01*
X2472298D01*
Y2557368D01*
X2486648D01*
X2515577Y2514433D01*
D02*
G37*
G36*
X2309052Y2503412D02*
X2310085Y2503183D01*
X2310774Y2502953D01*
X2310889Y2502838D01*
X2311004D01*
X2312037Y2502264D01*
X2312841Y2501690D01*
X2313415Y2501231D01*
X2313644Y2501001D01*
X2314333Y2500198D01*
X2314907Y2499394D01*
X2315251Y2498706D01*
X2315366Y2498591D01*
Y2498476D01*
X2315711Y2497328D01*
X2315940Y2496295D01*
X2316055Y2495836D01*
Y2495606D01*
Y2495376D01*
Y2495262D01*
X2315940Y2493999D01*
X2315711Y2492965D01*
X2315481Y2492277D01*
X2315366Y2492162D01*
Y2492047D01*
X2314792Y2491014D01*
X2314218Y2490210D01*
X2313759Y2489636D01*
X2313644Y2489407D01*
X2312726Y2488718D01*
X2311922Y2488259D01*
X2311233Y2487914D01*
X2311119Y2487800D01*
X2311004D01*
X2309856Y2487455D01*
X2308823Y2487226D01*
X2308363Y2487111D01*
X2307789D01*
X2306527Y2487226D01*
X2305493Y2487455D01*
X2304805Y2487685D01*
X2304690Y2487800D01*
X2304575D01*
X2303542Y2488259D01*
X2302738Y2488833D01*
X2302164Y2489292D01*
X2301935Y2489407D01*
X2301131Y2490325D01*
X2300672Y2491129D01*
X2300327Y2491818D01*
X2300213Y2491932D01*
Y2492047D01*
X2299753Y2493195D01*
X2299639Y2494228D01*
X2299524Y2494688D01*
Y2494917D01*
Y2495147D01*
Y2495262D01*
X2299639Y2496524D01*
X2299868Y2497557D01*
X2300098Y2498246D01*
X2300213Y2498361D01*
Y2498476D01*
X2300672Y2499509D01*
X2301246Y2500313D01*
X2301705Y2500772D01*
X2301935Y2501001D01*
X2302853Y2501805D01*
X2303657Y2502379D01*
X2304345Y2502724D01*
X2304460Y2502838D01*
X2304575D01*
X2305723Y2503298D01*
X2306756Y2503412D01*
X2307215Y2503527D01*
X2307789D01*
X2309052Y2503412D01*
D02*
G37*
G36*
X3125969Y2540722D02*
X3127806Y2540493D01*
X3129528Y2540148D01*
X3131020Y2539804D01*
X3132283Y2539460D01*
X3133201Y2539115D01*
X3133775Y2538886D01*
X3134005Y2538771D01*
X3135612Y2537967D01*
X3136990Y2537049D01*
X3138253Y2536016D01*
X3139286Y2535097D01*
X3140204Y2534294D01*
X3140778Y2533605D01*
X3141237Y2533146D01*
X3141352Y2533031D01*
X3142385Y2531653D01*
X3143304Y2530161D01*
X3144107Y2528783D01*
X3144681Y2527406D01*
X3145141Y2526258D01*
X3145600Y2525339D01*
X3145715Y2524765D01*
X3145829Y2524651D01*
Y2524536D01*
X3146289Y2522699D01*
X3146633Y2520747D01*
X3146977Y2518910D01*
X3147092Y2517303D01*
X3147207Y2515811D01*
X3147322Y2514778D01*
Y2514318D01*
Y2513974D01*
Y2513859D01*
Y2513744D01*
X3147207Y2511678D01*
X3147092Y2509612D01*
X3146863Y2507775D01*
X3146518Y2506168D01*
X3146289Y2504905D01*
X3146059Y2503872D01*
X3145944Y2503183D01*
X3145829Y2503068D01*
Y2502953D01*
X3145255Y2501117D01*
X3144452Y2499509D01*
X3143763Y2498017D01*
X3143074Y2496754D01*
X3142385Y2495721D01*
X3141811Y2495032D01*
X3141467Y2494458D01*
X3141352Y2494343D01*
X3140204Y2493081D01*
X3138941Y2491932D01*
X3137679Y2491014D01*
X3136531Y2490211D01*
X3135497Y2489522D01*
X3134694Y2489062D01*
X3134235Y2488833D01*
X3134005Y2488718D01*
X3132283Y2488029D01*
X3130561Y2487570D01*
X3128839Y2487226D01*
X3127232Y2486996D01*
X3125969Y2486881D01*
X3124821Y2486767D01*
X3123903D01*
X3121836Y2486881D01*
X3119999Y2487111D01*
X3118277Y2487340D01*
X3116785Y2487800D01*
X3115637Y2488144D01*
X3114719Y2488374D01*
X3114145Y2488603D01*
X3113915Y2488718D01*
X3112308Y2489522D01*
X3110930Y2490440D01*
X3109667Y2491358D01*
X3108634Y2492277D01*
X3107716Y2493080D01*
X3107142Y2493769D01*
X3106683Y2494228D01*
X3106568Y2494343D01*
X3105535Y2495721D01*
X3104616Y2497213D01*
X3103813Y2498706D01*
X3103239Y2500083D01*
X3102665Y2501231D01*
X3102320Y2502150D01*
X3102205Y2502724D01*
X3102091Y2502953D01*
X3101517Y2504905D01*
X3101172Y2506742D01*
X3100828Y2508578D01*
X3100713Y2510300D01*
X3100598Y2511678D01*
X3100483Y2512826D01*
Y2513170D01*
Y2513515D01*
Y2513630D01*
Y2513744D01*
X3100598Y2515926D01*
X3100713Y2517877D01*
X3100943Y2519714D01*
X3101287Y2521321D01*
X3101631Y2522699D01*
X3101861Y2523732D01*
X3101976Y2524306D01*
X3102091Y2524536D01*
X3102665Y2526372D01*
X3103468Y2527980D01*
X3104157Y2529357D01*
X3104846Y2530620D01*
X3105535Y2531653D01*
X3106109Y2532457D01*
X3106453Y2532916D01*
X3106568Y2533031D01*
X3107716Y2534294D01*
X3108979Y2535442D01*
X3110241Y2536475D01*
X3111389Y2537278D01*
X3112423Y2537967D01*
X3113226Y2538426D01*
X3113685Y2538656D01*
X3113915Y2538771D01*
X3115637Y2539460D01*
X3117359Y2539919D01*
X3118966Y2540378D01*
X3120573Y2540608D01*
X3121836Y2540722D01*
X3122984Y2540837D01*
X3123903D01*
X3125969Y2540722D01*
D02*
G37*
G36*
X2710049Y2539115D02*
X2711082Y2539460D01*
X2712230Y2539689D01*
X2712689D01*
X2713033Y2539804D01*
X2713378D01*
X2714870Y2540034D01*
X2716133Y2540148D01*
X2717396D01*
X2719577Y2540034D01*
X2721529Y2539804D01*
X2723365Y2539574D01*
X2724858Y2539230D01*
X2726235Y2538771D01*
X2727154Y2538541D01*
X2727728Y2538312D01*
X2727957Y2538197D01*
X2729565Y2537393D01*
X2731057Y2536475D01*
X2732320Y2535556D01*
X2733468Y2534753D01*
X2734271Y2533949D01*
X2734960Y2533260D01*
X2735419Y2532801D01*
X2735534Y2532686D01*
X2736567Y2531309D01*
X2737601Y2529931D01*
X2738289Y2528554D01*
X2738978Y2527176D01*
X2739437Y2526028D01*
X2739897Y2525110D01*
X2740011Y2524536D01*
X2740126Y2524421D01*
Y2524306D01*
X2740585Y2522469D01*
X2740930Y2520518D01*
X2741274Y2518681D01*
X2741389Y2516959D01*
X2741504Y2515581D01*
X2741619Y2514433D01*
Y2513974D01*
Y2513630D01*
Y2513515D01*
Y2513400D01*
X2741504Y2511104D01*
X2741389Y2508923D01*
X2741045Y2506856D01*
X2740585Y2505020D01*
X2740126Y2503298D01*
X2739552Y2501690D01*
X2738978Y2500198D01*
X2738289Y2498820D01*
X2737715Y2497672D01*
X2737141Y2496639D01*
X2736567Y2495836D01*
X2736108Y2495032D01*
X2735649Y2494458D01*
X2735305Y2494114D01*
X2735190Y2493884D01*
X2735075Y2493769D01*
X2733812Y2492506D01*
X2732320Y2491473D01*
X2730827Y2490555D01*
X2729220Y2489751D01*
X2727613Y2489062D01*
X2726006Y2488488D01*
X2722906Y2487685D01*
X2721529Y2487340D01*
X2720151Y2487111D01*
X2718888Y2486996D01*
X2717855Y2486881D01*
X2717051Y2486766D01*
X2713607D01*
X2711541Y2486996D01*
X2709704Y2487111D01*
X2707982Y2487340D01*
X2706719Y2487570D01*
X2705686Y2487685D01*
X2704997Y2487914D01*
X2704768D01*
X2702931Y2488374D01*
X2701439Y2488718D01*
X2700061Y2489177D01*
X2698913Y2489522D01*
X2697995Y2489866D01*
X2697421Y2490210D01*
X2696961Y2490325D01*
X2696847Y2490440D01*
Y2563338D01*
X2710049D01*
Y2539115D01*
D02*
G37*
G36*
X2268183Y2558516D02*
X2270250Y2558172D01*
X2272087Y2557713D01*
X2273694Y2557253D01*
X2274957Y2556794D01*
X2275990Y2556335D01*
X2276564Y2555991D01*
X2276793Y2555876D01*
X2278401Y2554728D01*
X2279893Y2553465D01*
X2281156Y2552202D01*
X2282189Y2551054D01*
X2283107Y2549906D01*
X2283681Y2548988D01*
X2284141Y2548414D01*
X2284255Y2548299D01*
Y2548184D01*
X2285289Y2546347D01*
X2286092Y2544396D01*
X2286896Y2542444D01*
X2287470Y2540722D01*
X2287929Y2539115D01*
X2288273Y2537967D01*
X2288388Y2537508D01*
Y2537164D01*
X2288503Y2536934D01*
Y2536819D01*
X2288962Y2534294D01*
X2289307Y2531883D01*
X2289536Y2529472D01*
X2289651Y2527291D01*
X2289766Y2525454D01*
X2289881Y2524650D01*
Y2523961D01*
Y2523387D01*
Y2523043D01*
Y2522814D01*
Y2522699D01*
X2289766Y2519829D01*
X2289651Y2517188D01*
X2289421Y2514778D01*
X2289192Y2512711D01*
X2288962Y2510989D01*
X2288847Y2510186D01*
X2288733Y2509611D01*
X2288618Y2509152D01*
X2288503Y2508808D01*
Y2508578D01*
Y2508463D01*
X2287929Y2506053D01*
X2287240Y2503872D01*
X2286551Y2501920D01*
X2285863Y2500313D01*
X2285289Y2498935D01*
X2284715Y2497902D01*
X2284370Y2497213D01*
X2284255Y2497098D01*
Y2496983D01*
X2283107Y2495262D01*
X2281845Y2493769D01*
X2280582Y2492506D01*
X2279434Y2491358D01*
X2278401Y2490555D01*
X2277597Y2489866D01*
X2277023Y2489521D01*
X2276793Y2489407D01*
X2274957Y2488488D01*
X2273120Y2487914D01*
X2271283Y2487455D01*
X2269561Y2487111D01*
X2268069Y2486881D01*
X2266921Y2486766D01*
X2265887D01*
X2263591Y2486881D01*
X2261525Y2487226D01*
X2259688Y2487570D01*
X2258081Y2488144D01*
X2256818Y2488603D01*
X2255785Y2488948D01*
X2255211Y2489292D01*
X2254981Y2489407D01*
X2253374Y2490555D01*
X2251882Y2491703D01*
X2250619Y2492965D01*
X2249471Y2494228D01*
X2248667Y2495262D01*
X2247979Y2496180D01*
X2247634Y2496754D01*
X2247519Y2496983D01*
X2246486Y2498935D01*
X2245683Y2500887D01*
X2244879Y2502838D01*
X2244305Y2504560D01*
X2243846Y2506168D01*
X2243501Y2507316D01*
X2243387Y2507775D01*
Y2508119D01*
X2243272Y2508349D01*
Y2508463D01*
X2242813Y2510989D01*
X2242468Y2513400D01*
X2242239Y2515811D01*
X2242009Y2517992D01*
Y2519943D01*
X2241894Y2520747D01*
Y2521436D01*
Y2521895D01*
Y2522354D01*
Y2522584D01*
Y2522699D01*
Y2525454D01*
X2242124Y2528094D01*
X2242353Y2530505D01*
X2242583Y2532572D01*
X2242813Y2534408D01*
X2242927Y2535097D01*
X2243042Y2535671D01*
X2243157Y2536130D01*
Y2536475D01*
X2243272Y2536704D01*
Y2536819D01*
X2243846Y2539230D01*
X2244535Y2541411D01*
X2245223Y2543248D01*
X2245912Y2544970D01*
X2246486Y2546347D01*
X2247060Y2547381D01*
X2247405Y2547955D01*
X2247519Y2548184D01*
X2248667Y2549906D01*
X2249930Y2551514D01*
X2251193Y2552776D01*
X2252341Y2553924D01*
X2253374Y2554728D01*
X2254178Y2555417D01*
X2254752Y2555761D01*
X2254981Y2555876D01*
X2256818Y2556794D01*
X2258655Y2557483D01*
X2260492Y2557942D01*
X2262099Y2558287D01*
X2263591Y2558516D01*
X2264854Y2558631D01*
X2265887D01*
X2268183Y2558516D01*
D02*
G37*
G36*
X3039697Y2399978D02*
X3038434Y2399404D01*
X3037171Y2398944D01*
X3035794Y2398485D01*
X3034531Y2398141D01*
X3033498Y2397911D01*
X3032579Y2397682D01*
X3032005Y2397452D01*
X3031776D01*
X3028102Y2396763D01*
X3026380Y2396534D01*
X3024773Y2396419D01*
X3023395D01*
X3022362Y2396304D01*
X3021444D01*
X3019148Y2396419D01*
X3017081Y2396648D01*
X3015015Y2396993D01*
X3013178Y2397337D01*
X3011456Y2397911D01*
X3009849Y2398485D01*
X3008356Y2399059D01*
X3007094Y2399748D01*
X3005946Y2400437D01*
X3004912Y2401011D01*
X3003994Y2401585D01*
X3003305Y2402159D01*
X3002731Y2402503D01*
X3002387Y2402848D01*
X3002157Y2403077D01*
X3002042Y2403192D01*
X3000780Y2404570D01*
X2999746Y2406062D01*
X2998713Y2407784D01*
X2997910Y2409506D01*
X2997221Y2411228D01*
X2996647Y2413065D01*
X2995843Y2416509D01*
X2995499Y2418116D01*
X2995269Y2419723D01*
X2995154Y2421101D01*
X2995040Y2422249D01*
X2994925Y2423282D01*
Y2423971D01*
Y2424545D01*
Y2424660D01*
X2995040Y2426841D01*
X2995154Y2428792D01*
X2995499Y2430629D01*
X2995728Y2432236D01*
X2996073Y2433499D01*
X2996417Y2434418D01*
X2996532Y2434992D01*
X2996647Y2435221D01*
X2997336Y2436943D01*
X2998024Y2438436D01*
X2998828Y2439813D01*
X2999517Y2440961D01*
X3000206Y2441880D01*
X3000780Y2442568D01*
X3001124Y2443028D01*
X3001239Y2443142D01*
X3002387Y2444290D01*
X3003650Y2445324D01*
X3004798Y2446242D01*
X3005946Y2446931D01*
X3006979Y2447505D01*
X3007782Y2447849D01*
X3008242Y2448079D01*
X3008471Y2448194D01*
X3010078Y2448768D01*
X3011571Y2449227D01*
X3013178Y2449456D01*
X3014556Y2449686D01*
X3015704Y2449801D01*
X3016737Y2449916D01*
X3017540D01*
X3019262Y2449801D01*
X3020870Y2449686D01*
X3021558Y2449571D01*
X3022018Y2449456D01*
X3022362Y2449342D01*
X3022477D01*
X3024199Y2448997D01*
X3024888Y2448768D01*
X3025576Y2448538D01*
X3026036Y2448308D01*
X3026380Y2448194D01*
X3026610Y2448079D01*
X3026724D01*
Y2472876D01*
X3039697D01*
Y2399978D01*
D02*
G37*
G36*
X3094571Y2397452D02*
X3081599D01*
Y2437862D01*
X3080336Y2438436D01*
X3079188Y2438895D01*
X3078729Y2439010D01*
X3078384Y2439124D01*
X3078155Y2439239D01*
X3078040D01*
X3076548Y2439584D01*
X3075285Y2439698D01*
X3074711Y2439813D01*
X3074022D01*
X3072415Y2439698D01*
X3071037Y2439469D01*
X3069889Y2439124D01*
X3068856Y2438780D01*
X3068167Y2438321D01*
X3067593Y2437976D01*
X3067249Y2437747D01*
X3067134Y2437632D01*
X3066330Y2436714D01*
X3065642Y2435795D01*
X3065182Y2434647D01*
X3064953Y2433614D01*
X3064723Y2432696D01*
X3064608Y2431892D01*
Y2431433D01*
Y2431203D01*
Y2397452D01*
X3051521D01*
Y2432581D01*
Y2434073D01*
X3051751Y2435566D01*
X3052325Y2438206D01*
X3053128Y2440387D01*
X3054047Y2442224D01*
X3054965Y2443716D01*
X3055769Y2444750D01*
X3056343Y2445324D01*
X3056458Y2445553D01*
X3056572D01*
X3058639Y2447046D01*
X3060820Y2448194D01*
X3063231Y2448997D01*
X3065527Y2449456D01*
X3067478Y2449801D01*
X3068397Y2449916D01*
X3069200D01*
X3069774Y2450030D01*
X3070693D01*
X3072759Y2449916D01*
X3073792Y2449801D01*
X3074596Y2449686D01*
X3075400Y2449571D01*
X3075974Y2449456D01*
X3076318Y2449342D01*
X3076433D01*
X3078499Y2448768D01*
X3079303Y2448538D01*
X3080106Y2448194D01*
X3080680Y2447964D01*
X3081140Y2447849D01*
X3081484Y2447620D01*
X3081599D01*
Y2472876D01*
X3094571D01*
Y2397452D01*
D02*
G37*
G36*
X3191462Y2450145D02*
X3193299Y2450030D01*
X3194906Y2449801D01*
X3196284Y2449571D01*
X3197317Y2449342D01*
X3198006Y2449227D01*
X3198121Y2449112D01*
X3198236D01*
X3200072Y2448653D01*
X3201680Y2448194D01*
X3203172Y2447849D01*
X3204320Y2447390D01*
X3205353Y2447046D01*
X3206042Y2446816D01*
X3206501Y2446701D01*
X3206616Y2446586D01*
X3203402Y2437747D01*
X3202368Y2438206D01*
X3201335Y2438436D01*
X3200532Y2438665D01*
X3200417Y2438780D01*
X3200302D01*
X3198924Y2439239D01*
X3197776Y2439469D01*
X3197317Y2439698D01*
X3196973D01*
X3196743Y2439813D01*
X3196628D01*
X3195136Y2440158D01*
X3193988Y2440387D01*
X3193414D01*
X3193070Y2440502D01*
X3192725D01*
X3191233Y2440732D01*
X3189970Y2440847D01*
X3188822D01*
X3187215Y2440732D01*
X3185837Y2440617D01*
X3184689Y2440273D01*
X3183656Y2440043D01*
X3182852Y2439698D01*
X3182278Y2439354D01*
X3181934Y2439239D01*
X3181819Y2439124D01*
X3180901Y2438436D01*
X3180327Y2437517D01*
X3179868Y2436599D01*
X3179523Y2435680D01*
X3179294Y2434762D01*
X3179179Y2434073D01*
Y2433614D01*
Y2433385D01*
Y2430744D01*
X3181360Y2430629D01*
X3183426Y2430400D01*
X3185378Y2430170D01*
X3187100Y2429941D01*
X3188478Y2429826D01*
X3189626Y2429596D01*
X3190314Y2429481D01*
X3190544D01*
X3192496Y2429137D01*
X3194332Y2428678D01*
X3195940Y2428218D01*
X3197432Y2427759D01*
X3198580Y2427415D01*
X3199384Y2427070D01*
X3199958Y2426841D01*
X3200187Y2426726D01*
X3201680Y2426037D01*
X3203057Y2425119D01*
X3204205Y2424315D01*
X3205124Y2423512D01*
X3205927Y2422708D01*
X3206501Y2422134D01*
X3206846Y2421675D01*
X3206960Y2421560D01*
X3207764Y2420182D01*
X3208453Y2418805D01*
X3208912Y2417427D01*
X3209142Y2416050D01*
X3209371Y2414787D01*
X3209486Y2413869D01*
Y2413180D01*
Y2413065D01*
Y2412950D01*
X3209371Y2411458D01*
X3209256Y2410195D01*
X3208568Y2407669D01*
X3207649Y2405603D01*
X3206616Y2403881D01*
X3205583Y2402503D01*
X3204664Y2401470D01*
X3203976Y2400896D01*
X3203861Y2400666D01*
X3203746D01*
X3202598Y2399863D01*
X3201335Y2399174D01*
X3198580Y2398141D01*
X3195595Y2397337D01*
X3192725Y2396878D01*
X3191462Y2396648D01*
X3190200Y2396534D01*
X3189052Y2396419D01*
X3188133D01*
X3187330Y2396304D01*
X3184000D01*
X3181934Y2396534D01*
X3180097Y2396648D01*
X3178375Y2396878D01*
X3176998Y2397108D01*
X3175964Y2397222D01*
X3175276Y2397452D01*
X3175046D01*
X3173094Y2397911D01*
X3171487Y2398256D01*
X3170110Y2398715D01*
X3168847Y2399059D01*
X3167928Y2399404D01*
X3167354Y2399748D01*
X3166895Y2399863D01*
X3166780Y2399978D01*
Y2431892D01*
Y2433729D01*
X3167010Y2435336D01*
X3167240Y2436829D01*
X3167584Y2438321D01*
X3168043Y2439584D01*
X3168502Y2440732D01*
X3168962Y2441765D01*
X3169421Y2442683D01*
X3169995Y2443487D01*
X3170454Y2444176D01*
X3171372Y2445209D01*
X3171946Y2445783D01*
X3172061Y2446012D01*
X3172176D01*
X3174357Y2447505D01*
X3176883Y2448538D01*
X3179408Y2449342D01*
X3181819Y2449801D01*
X3184000Y2450145D01*
X3185034Y2450260D01*
X3185837D01*
X3186526Y2450375D01*
X3189511D01*
X3191462Y2450145D01*
D02*
G37*
G36*
X2710221Y2450145D02*
X2712058Y2450030D01*
X2713665Y2449801D01*
X2715042Y2449571D01*
X2716076Y2449342D01*
X2716764Y2449227D01*
X2716879Y2449112D01*
X2716994D01*
X2718831Y2448653D01*
X2720438Y2448194D01*
X2721930Y2447849D01*
X2723078Y2447390D01*
X2724112Y2447046D01*
X2724800Y2446816D01*
X2725260Y2446701D01*
X2725374Y2446586D01*
X2722160Y2437747D01*
X2721127Y2438206D01*
X2720094Y2438436D01*
X2719290Y2438665D01*
X2719175Y2438780D01*
X2719060D01*
X2717683Y2439239D01*
X2716535Y2439469D01*
X2716076Y2439698D01*
X2715731D01*
X2715502Y2439813D01*
X2715387D01*
X2713894Y2440158D01*
X2712746Y2440387D01*
X2712172D01*
X2711828Y2440502D01*
X2711484D01*
X2709991Y2440732D01*
X2708728Y2440846D01*
X2707580D01*
X2705973Y2440732D01*
X2704596Y2440617D01*
X2703448Y2440272D01*
X2702414Y2440043D01*
X2701611Y2439698D01*
X2701037Y2439354D01*
X2700692Y2439239D01*
X2700578Y2439124D01*
X2699659Y2438436D01*
X2699085Y2437517D01*
X2698626Y2436599D01*
X2698282Y2435680D01*
X2698052Y2434762D01*
X2697937Y2434073D01*
Y2433614D01*
Y2433384D01*
Y2430744D01*
X2700118Y2430629D01*
X2702185Y2430400D01*
X2704136Y2430170D01*
X2705858Y2429940D01*
X2707236Y2429826D01*
X2708384Y2429596D01*
X2709073Y2429481D01*
X2709302D01*
X2711254Y2429137D01*
X2713091Y2428678D01*
X2714698Y2428218D01*
X2716190Y2427759D01*
X2717338Y2427415D01*
X2718142Y2427070D01*
X2718716Y2426841D01*
X2718946Y2426726D01*
X2720438Y2426037D01*
X2721816Y2425119D01*
X2722964Y2424315D01*
X2723882Y2423512D01*
X2724686Y2422708D01*
X2725260Y2422134D01*
X2725604Y2421675D01*
X2725719Y2421560D01*
X2726522Y2420182D01*
X2727211Y2418805D01*
X2727670Y2417427D01*
X2727900Y2416050D01*
X2728130Y2414787D01*
X2728244Y2413868D01*
Y2413180D01*
Y2413065D01*
Y2412950D01*
X2728130Y2411458D01*
X2728015Y2410195D01*
X2727326Y2407669D01*
X2726408Y2405603D01*
X2725374Y2403881D01*
X2724341Y2402503D01*
X2723423Y2401470D01*
X2722734Y2400896D01*
X2722619Y2400666D01*
X2722504D01*
X2721356Y2399863D01*
X2720094Y2399174D01*
X2717338Y2398141D01*
X2714354Y2397337D01*
X2711484Y2396878D01*
X2710221Y2396648D01*
X2708958Y2396534D01*
X2707810Y2396419D01*
X2706892D01*
X2706088Y2396304D01*
X2702759D01*
X2700692Y2396534D01*
X2698856Y2396648D01*
X2697134Y2396878D01*
X2695756Y2397108D01*
X2694723Y2397222D01*
X2694034Y2397452D01*
X2693804D01*
X2691853Y2397911D01*
X2690246Y2398256D01*
X2688868Y2398715D01*
X2687605Y2399059D01*
X2686687Y2399404D01*
X2686113Y2399748D01*
X2685654Y2399863D01*
X2685539Y2399978D01*
Y2431892D01*
Y2433729D01*
X2685768Y2435336D01*
X2685998Y2436828D01*
X2686342Y2438321D01*
X2686802Y2439584D01*
X2687261Y2440732D01*
X2687720Y2441765D01*
X2688179Y2442683D01*
X2688753Y2443487D01*
X2689212Y2444176D01*
X2690131Y2445209D01*
X2690705Y2445783D01*
X2690820Y2446012D01*
X2690934D01*
X2693116Y2447505D01*
X2695641Y2448538D01*
X2698167Y2449342D01*
X2700578Y2449801D01*
X2702759Y2450145D01*
X2703792Y2450260D01*
X2704596D01*
X2705284Y2450375D01*
X2708269D01*
X2710221Y2450145D01*
D02*
G37*
G36*
X2431372Y2423052D02*
X2403820D01*
Y2434188D01*
X2431372D01*
Y2423052D01*
D02*
G37*
G36*
X2170661Y2468054D02*
X2172727Y2467824D01*
X2174564Y2467480D01*
X2176171Y2467021D01*
X2177434Y2466561D01*
X2178467Y2466217D01*
X2179156Y2465988D01*
X2179271Y2465873D01*
X2179386D01*
X2181222Y2464954D01*
X2182830Y2463921D01*
X2184322Y2462773D01*
X2185585Y2461740D01*
X2186618Y2460707D01*
X2187422Y2459903D01*
X2187881Y2459444D01*
X2188110Y2459214D01*
X2189373Y2457492D01*
X2190521Y2455541D01*
X2191554Y2453704D01*
X2192358Y2451867D01*
X2193047Y2450375D01*
X2193506Y2449112D01*
X2193736Y2448653D01*
X2193850Y2448308D01*
X2193965Y2448079D01*
Y2447964D01*
X2194654Y2445323D01*
X2195228Y2442683D01*
X2195572Y2440043D01*
X2195917Y2437517D01*
X2196032Y2435451D01*
Y2434532D01*
X2196146Y2433729D01*
Y2433155D01*
Y2432581D01*
Y2432351D01*
Y2432236D01*
X2196032Y2428907D01*
X2195802Y2425922D01*
X2195458Y2423167D01*
X2194998Y2420871D01*
X2194884Y2419838D01*
X2194654Y2418919D01*
X2194424Y2418116D01*
X2194310Y2417542D01*
X2194195Y2416968D01*
X2194080Y2416624D01*
X2193965Y2416394D01*
Y2416279D01*
X2193047Y2413868D01*
X2192128Y2411687D01*
X2191095Y2409850D01*
X2190177Y2408243D01*
X2189373Y2406865D01*
X2188684Y2405947D01*
X2188225Y2405373D01*
X2188110Y2405144D01*
X2186618Y2403536D01*
X2185126Y2402273D01*
X2183633Y2401126D01*
X2182370Y2400092D01*
X2181108Y2399403D01*
X2180189Y2398944D01*
X2179615Y2398600D01*
X2179386Y2398485D01*
X2177434Y2397796D01*
X2175597Y2397222D01*
X2173760Y2396878D01*
X2172038Y2396534D01*
X2170661Y2396419D01*
X2169513Y2396304D01*
X2168594D01*
X2165380Y2396419D01*
X2162510Y2396878D01*
X2159984Y2397452D01*
X2157688Y2398141D01*
X2155966Y2398829D01*
X2155163Y2399174D01*
X2154589Y2399403D01*
X2154130Y2399633D01*
X2153785Y2399863D01*
X2153556Y2399977D01*
X2153441D01*
X2157688Y2410998D01*
X2159066Y2410195D01*
X2160444Y2409621D01*
X2161018Y2409391D01*
X2161477Y2409162D01*
X2161706Y2409047D01*
X2161821D01*
X2163543Y2408702D01*
X2165265Y2408473D01*
X2165954Y2408358D01*
X2166987D01*
X2168250Y2408473D01*
X2169398Y2408588D01*
X2171464Y2409276D01*
X2173416Y2410195D01*
X2175023Y2411343D01*
X2176286Y2412491D01*
X2177204Y2413409D01*
X2177778Y2414098D01*
X2178008Y2414213D01*
Y2414327D01*
X2178697Y2415590D01*
X2179386Y2416853D01*
X2180419Y2419723D01*
X2181222Y2422708D01*
X2181682Y2425578D01*
X2181911Y2426956D01*
X2182026Y2428218D01*
X2182141Y2429366D01*
Y2430285D01*
X2182256Y2431088D01*
Y2431777D01*
Y2432122D01*
Y2432236D01*
Y2434418D01*
X2182026Y2436484D01*
X2181911Y2438321D01*
X2181567Y2440043D01*
X2181222Y2441765D01*
X2180878Y2443142D01*
X2180534Y2444520D01*
X2180074Y2445783D01*
X2179730Y2446816D01*
X2179386Y2447734D01*
X2179041Y2448538D01*
X2178697Y2449112D01*
X2178352Y2449571D01*
X2178238Y2450030D01*
X2178008Y2450145D01*
Y2450260D01*
X2177204Y2451293D01*
X2176286Y2452326D01*
X2175368Y2453130D01*
X2174449Y2453819D01*
X2172612Y2454852D01*
X2170890Y2455541D01*
X2169283Y2456000D01*
X2168135Y2456229D01*
X2167676Y2456344D01*
X2166987D01*
X2164921Y2456229D01*
X2164117Y2456115D01*
X2163314Y2456000D01*
X2162740Y2455770D01*
X2162166Y2455655D01*
X2161936Y2455541D01*
X2161821D01*
X2160214Y2454852D01*
X2158836Y2454278D01*
X2158377Y2454048D01*
X2158033Y2453819D01*
X2157803Y2453589D01*
X2157688D01*
X2153441Y2464380D01*
X2155966Y2465643D01*
X2158492Y2466561D01*
X2161018Y2467250D01*
X2163428Y2467709D01*
X2165495Y2467939D01*
X2166413Y2468054D01*
X2167102Y2468169D01*
X2168594D01*
X2170661Y2468054D01*
D02*
G37*
G36*
X3293405Y2460707D02*
Y2449227D01*
X3300063D01*
Y2439354D01*
X3293405D01*
Y2412950D01*
X3293290Y2410080D01*
X3292831Y2407669D01*
X3292257Y2405488D01*
X3291568Y2403766D01*
X3290994Y2402503D01*
X3290420Y2401585D01*
X3289961Y2401011D01*
X3289846Y2400781D01*
X3288354Y2399404D01*
X3286632Y2398485D01*
X3284795Y2397796D01*
X3282958Y2397222D01*
X3281236Y2396993D01*
X3279973Y2396878D01*
X3279399Y2396763D01*
X3278710D01*
X3276988Y2396878D01*
X3275611Y2396993D01*
X3275037D01*
X3274578Y2397108D01*
X3274233D01*
X3272741Y2397452D01*
X3271708Y2397682D01*
X3271134Y2397911D01*
X3270904Y2398026D01*
Y2408932D01*
X3271363Y2408702D01*
X3271937Y2408473D01*
X3272282Y2408358D01*
X3272511D01*
X3273315Y2408243D01*
X3273889Y2408128D01*
X3274578D01*
X3275496Y2408243D01*
X3276300Y2408358D01*
X3276988Y2408588D01*
X3277677Y2408817D01*
X3278136Y2409047D01*
X3278481Y2409162D01*
X3278710Y2409391D01*
X3278825D01*
X3279399Y2409965D01*
X3279858Y2410654D01*
X3280088Y2411343D01*
X3280318Y2412146D01*
X3280432Y2412835D01*
X3280547Y2413294D01*
Y2413754D01*
Y2413869D01*
Y2439354D01*
X3270904D01*
Y2449227D01*
X3280547D01*
Y2464495D01*
X3293405Y2460707D01*
D02*
G37*
G36*
X3126486D02*
Y2449227D01*
X3133144D01*
Y2439354D01*
X3126486D01*
Y2412950D01*
X3126371Y2410080D01*
X3125912Y2407669D01*
X3125338Y2405488D01*
X3124649Y2403766D01*
X3124075Y2402503D01*
X3123501Y2401585D01*
X3123042Y2401011D01*
X3122927Y2400781D01*
X3121434Y2399404D01*
X3119712Y2398485D01*
X3117876Y2397796D01*
X3116039Y2397222D01*
X3114317Y2396993D01*
X3113054Y2396878D01*
X3112480Y2396763D01*
X3111791D01*
X3110069Y2396878D01*
X3108692Y2396993D01*
X3108118D01*
X3107658Y2397108D01*
X3107314D01*
X3105822Y2397452D01*
X3104788Y2397682D01*
X3104214Y2397911D01*
X3103985Y2398026D01*
Y2408932D01*
X3104444Y2408702D01*
X3105018Y2408473D01*
X3105362Y2408358D01*
X3105592D01*
X3106396Y2408243D01*
X3106970Y2408128D01*
X3107658D01*
X3108577Y2408243D01*
X3109380Y2408358D01*
X3110069Y2408588D01*
X3110758Y2408817D01*
X3111217Y2409047D01*
X3111562Y2409162D01*
X3111791Y2409391D01*
X3111906D01*
X3112480Y2409965D01*
X3112939Y2410654D01*
X3113169Y2411343D01*
X3113398Y2412146D01*
X3113513Y2412835D01*
X3113628Y2413294D01*
Y2413754D01*
Y2413868D01*
Y2439354D01*
X3103985D01*
Y2449227D01*
X3113628D01*
Y2464495D01*
X3126486Y2460707D01*
D02*
G37*
G36*
X2599094Y2418001D02*
X2598980Y2416050D01*
X2598865Y2414328D01*
X2598520Y2412720D01*
X2598176Y2411343D01*
X2597946Y2410310D01*
X2597602Y2409391D01*
X2597487Y2408932D01*
X2597372Y2408702D01*
X2596569Y2407325D01*
X2595765Y2406062D01*
X2594962Y2404914D01*
X2594158Y2403881D01*
X2593469Y2403077D01*
X2592895Y2402503D01*
X2592436Y2402159D01*
X2592321Y2402044D01*
X2591058Y2401126D01*
X2589796Y2400207D01*
X2588533Y2399518D01*
X2587385Y2398944D01*
X2586352Y2398485D01*
X2585548Y2398141D01*
X2585089Y2398026D01*
X2584859Y2397911D01*
X2583252Y2397452D01*
X2581530Y2397108D01*
X2579923Y2396878D01*
X2578545Y2396763D01*
X2577282Y2396648D01*
X2576249Y2396534D01*
X2575446D01*
X2573609Y2396648D01*
X2571772Y2396763D01*
X2570165Y2396993D01*
X2568787Y2397222D01*
X2567639Y2397452D01*
X2566721Y2397682D01*
X2566262Y2397911D01*
X2566032D01*
X2564425Y2398485D01*
X2563047Y2399174D01*
X2561784Y2399863D01*
X2560636Y2400552D01*
X2559833Y2401126D01*
X2559144Y2401585D01*
X2558685Y2401929D01*
X2558570Y2402044D01*
X2557422Y2403077D01*
X2556389Y2404225D01*
X2555585Y2405373D01*
X2554782Y2406406D01*
X2554322Y2407325D01*
X2553863Y2408014D01*
X2553634Y2408588D01*
X2553519Y2408702D01*
X2552945Y2410310D01*
X2552486Y2411802D01*
X2552141Y2413409D01*
X2551912Y2414902D01*
X2551797Y2416164D01*
X2551682Y2417083D01*
Y2417772D01*
Y2418001D01*
Y2466906D01*
X2565228D01*
Y2417886D01*
X2565343Y2416279D01*
X2565688Y2414787D01*
X2566147Y2413639D01*
X2566721Y2412606D01*
X2567295Y2411687D01*
X2567754Y2411113D01*
X2568098Y2410769D01*
X2568213Y2410654D01*
X2569361Y2409736D01*
X2570509Y2409162D01*
X2571772Y2408702D01*
X2572920Y2408358D01*
X2573953Y2408128D01*
X2574757Y2408014D01*
X2575446D01*
X2576938Y2408128D01*
X2578316Y2408473D01*
X2579578Y2408817D01*
X2580612Y2409391D01*
X2581530Y2409850D01*
X2582104Y2410195D01*
X2582563Y2410539D01*
X2582678Y2410654D01*
X2583596Y2411687D01*
X2584285Y2412950D01*
X2584859Y2414098D01*
X2585204Y2415246D01*
X2585433Y2416279D01*
X2585548Y2417083D01*
Y2417657D01*
Y2417886D01*
Y2466906D01*
X2599094D01*
Y2418001D01*
D02*
G37*
G36*
X2985052Y2415476D02*
X2984937Y2413639D01*
X2984822Y2411917D01*
X2984593Y2410310D01*
X2984134Y2408817D01*
X2983789Y2407554D01*
X2983330Y2406292D01*
X2982756Y2405258D01*
X2982297Y2404340D01*
X2981723Y2403422D01*
X2981264Y2402733D01*
X2980804Y2402159D01*
X2980345Y2401700D01*
X2979771Y2401011D01*
X2979656Y2400781D01*
X2979542D01*
X2978394Y2399978D01*
X2977246Y2399289D01*
X2974720Y2398141D01*
X2971965Y2397452D01*
X2969324Y2396878D01*
X2966914Y2396534D01*
X2965880Y2396419D01*
X2964962D01*
X2964273Y2396304D01*
X2963240D01*
X2961059Y2396419D01*
X2960026D01*
X2959222Y2396534D01*
X2958418D01*
X2957844Y2396648D01*
X2957385D01*
X2955204Y2396878D01*
X2954286Y2396993D01*
X2953482Y2397108D01*
X2952793Y2397222D01*
X2952219D01*
X2951875Y2397337D01*
X2951760D01*
X2949808Y2397682D01*
X2948890Y2397911D01*
X2948201Y2398141D01*
X2947627Y2398256D01*
X2947053Y2398370D01*
X2946824Y2398485D01*
X2946709D01*
X2945102Y2399059D01*
X2943724Y2399518D01*
X2943265Y2399748D01*
X2942920Y2399863D01*
X2942691Y2399978D01*
X2942576D01*
Y2449227D01*
X2955663D01*
Y2408128D01*
X2956696Y2407784D01*
X2957730Y2407554D01*
X2958189Y2407440D01*
X2958533D01*
X2958763Y2407325D01*
X2958878D01*
X2960370Y2407095D01*
X2961748Y2406980D01*
X2963240D01*
X2964847Y2407095D01*
X2966110Y2407325D01*
X2967373Y2407784D01*
X2968291Y2408243D01*
X2969210Y2408817D01*
X2969898Y2409506D01*
X2970472Y2410310D01*
X2970932Y2411113D01*
X2971620Y2412606D01*
X2971965Y2413868D01*
Y2414328D01*
X2972080Y2414787D01*
Y2415016D01*
Y2415131D01*
Y2449227D01*
X2985052D01*
Y2415476D01*
D02*
G37*
G36*
X3241400Y2450260D02*
X3243237Y2450030D01*
X3244959Y2449686D01*
X3246452Y2449342D01*
X3247714Y2448997D01*
X3248633Y2448653D01*
X3249207Y2448423D01*
X3249436Y2448309D01*
X3251044Y2447505D01*
X3252536Y2446586D01*
X3253799Y2445668D01*
X3254947Y2444865D01*
X3255750Y2444061D01*
X3256439Y2443372D01*
X3256898Y2442913D01*
X3257013Y2442798D01*
X3258046Y2441421D01*
X3259080Y2439928D01*
X3259883Y2438550D01*
X3260572Y2437173D01*
X3261031Y2436025D01*
X3261376Y2434992D01*
X3261605Y2434418D01*
X3261720Y2434303D01*
Y2434188D01*
X3262294Y2432351D01*
X3262638Y2430400D01*
X3262983Y2428563D01*
X3263098Y2426841D01*
X3263212Y2425463D01*
X3263327Y2424315D01*
Y2423856D01*
Y2423512D01*
Y2423397D01*
Y2423282D01*
X3263212Y2421101D01*
X3263098Y2419149D01*
X3262868Y2417312D01*
X3262524Y2415590D01*
X3262179Y2414328D01*
X3261950Y2413294D01*
X3261835Y2412606D01*
X3261720Y2412491D01*
Y2412376D01*
X3261031Y2410539D01*
X3260228Y2408932D01*
X3259309Y2407440D01*
X3258506Y2406177D01*
X3257817Y2405144D01*
X3257243Y2404455D01*
X3256784Y2403881D01*
X3256669Y2403766D01*
X3255406Y2402503D01*
X3254028Y2401355D01*
X3252651Y2400437D01*
X3251388Y2399633D01*
X3250240Y2399059D01*
X3249322Y2398600D01*
X3248748Y2398370D01*
X3248518Y2398256D01*
X3246681Y2397567D01*
X3244730Y2397108D01*
X3242893Y2396763D01*
X3241056Y2396534D01*
X3239564Y2396419D01*
X3238301Y2396304D01*
X3235201D01*
X3233135Y2396419D01*
X3231298Y2396648D01*
X3229691Y2396878D01*
X3228428Y2396993D01*
X3227395Y2397222D01*
X3226706Y2397337D01*
X3226476D01*
X3224640Y2397796D01*
X3223032Y2398141D01*
X3221655Y2398600D01*
X3220392Y2399059D01*
X3219359Y2399404D01*
X3218670Y2399748D01*
X3218211Y2399863D01*
X3218096Y2399978D01*
X3221884Y2409736D01*
X3224066Y2408817D01*
X3225214Y2408358D01*
X3226247Y2408128D01*
X3227165Y2407784D01*
X3227854Y2407555D01*
X3228313Y2407440D01*
X3228543D01*
X3231298Y2406866D01*
X3232676Y2406751D01*
X3233824Y2406636D01*
X3234742Y2406521D01*
X3236234D01*
X3238301Y2406636D01*
X3240252Y2406981D01*
X3241860Y2407440D01*
X3243237Y2407899D01*
X3244385Y2408358D01*
X3245189Y2408817D01*
X3245648Y2409162D01*
X3245878Y2409276D01*
X3247140Y2410425D01*
X3248174Y2411802D01*
X3248977Y2413294D01*
X3249666Y2414672D01*
X3250125Y2415935D01*
X3250355Y2416968D01*
X3250584Y2417657D01*
Y2417772D01*
Y2417887D01*
X3217292Y2422364D01*
X3217178Y2423167D01*
X3217063Y2423856D01*
Y2424315D01*
Y2424545D01*
Y2426841D01*
X3217178Y2428793D01*
X3217292Y2430515D01*
X3217522Y2432236D01*
X3217752Y2433614D01*
X3218096Y2434762D01*
X3218326Y2435680D01*
X3218440Y2436140D01*
X3218555Y2436369D01*
X3219129Y2437977D01*
X3219818Y2439354D01*
X3220622Y2440617D01*
X3221310Y2441765D01*
X3221884Y2442568D01*
X3222458Y2443257D01*
X3222803Y2443716D01*
X3222918Y2443831D01*
X3223951Y2444979D01*
X3225099Y2445898D01*
X3226247Y2446701D01*
X3227395Y2447390D01*
X3228313Y2447964D01*
X3229117Y2448309D01*
X3229576Y2448538D01*
X3229806Y2448653D01*
X3231413Y2449227D01*
X3233020Y2449686D01*
X3234627Y2449916D01*
X3236120Y2450145D01*
X3237382Y2450260D01*
X3238416Y2450375D01*
X3239334D01*
X3241400Y2450260D01*
D02*
G37*
G36*
X2819970Y2450260D02*
X2821806Y2450030D01*
X2823528Y2449686D01*
X2825021Y2449342D01*
X2826284Y2448997D01*
X2827202Y2448653D01*
X2827776Y2448423D01*
X2828006Y2448308D01*
X2829613Y2447505D01*
X2831105Y2446586D01*
X2832368Y2445668D01*
X2833516Y2444864D01*
X2834320Y2444061D01*
X2835008Y2443372D01*
X2835468Y2442913D01*
X2835582Y2442798D01*
X2836616Y2441420D01*
X2837649Y2439928D01*
X2838452Y2438550D01*
X2839141Y2437173D01*
X2839600Y2436025D01*
X2839945Y2434992D01*
X2840174Y2434418D01*
X2840289Y2434303D01*
Y2434188D01*
X2840863Y2432351D01*
X2841208Y2430400D01*
X2841552Y2428563D01*
X2841667Y2426841D01*
X2841782Y2425463D01*
X2841896Y2424315D01*
Y2423856D01*
Y2423512D01*
Y2423397D01*
Y2423282D01*
X2841782Y2421101D01*
X2841667Y2419149D01*
X2841437Y2417312D01*
X2841093Y2415590D01*
X2840748Y2414328D01*
X2840519Y2413294D01*
X2840404Y2412606D01*
X2840289Y2412491D01*
Y2412376D01*
X2839600Y2410539D01*
X2838797Y2408932D01*
X2837878Y2407440D01*
X2837075Y2406177D01*
X2836386Y2405144D01*
X2835812Y2404455D01*
X2835353Y2403881D01*
X2835238Y2403766D01*
X2833975Y2402503D01*
X2832598Y2401355D01*
X2831220Y2400437D01*
X2829957Y2399633D01*
X2828809Y2399059D01*
X2827891Y2398600D01*
X2827317Y2398370D01*
X2827087Y2398256D01*
X2825250Y2397567D01*
X2823299Y2397108D01*
X2821462Y2396763D01*
X2819625Y2396534D01*
X2818133Y2396419D01*
X2816870Y2396304D01*
X2813770D01*
X2811704Y2396419D01*
X2809867Y2396648D01*
X2808260Y2396878D01*
X2806997Y2396993D01*
X2805964Y2397222D01*
X2805275Y2397337D01*
X2805046D01*
X2803209Y2397796D01*
X2801602Y2398141D01*
X2800224Y2398600D01*
X2798961Y2399059D01*
X2797928Y2399404D01*
X2797239Y2399748D01*
X2796780Y2399863D01*
X2796665Y2399978D01*
X2800454Y2409736D01*
X2802635Y2408817D01*
X2803783Y2408358D01*
X2804816Y2408128D01*
X2805734Y2407784D01*
X2806423Y2407554D01*
X2806882Y2407440D01*
X2807112D01*
X2809867Y2406866D01*
X2811245Y2406751D01*
X2812393Y2406636D01*
X2813311Y2406521D01*
X2814804D01*
X2816870Y2406636D01*
X2818822Y2406980D01*
X2820429Y2407440D01*
X2821806Y2407899D01*
X2822954Y2408358D01*
X2823758Y2408817D01*
X2824217Y2409162D01*
X2824447Y2409276D01*
X2825710Y2410424D01*
X2826743Y2411802D01*
X2827546Y2413294D01*
X2828235Y2414672D01*
X2828694Y2415935D01*
X2828924Y2416968D01*
X2829154Y2417657D01*
Y2417772D01*
Y2417886D01*
X2795862Y2422364D01*
X2795747Y2423167D01*
X2795632Y2423856D01*
Y2424315D01*
Y2424545D01*
Y2426841D01*
X2795747Y2428792D01*
X2795862Y2430514D01*
X2796091Y2432236D01*
X2796321Y2433614D01*
X2796665Y2434762D01*
X2796895Y2435680D01*
X2797010Y2436140D01*
X2797124Y2436369D01*
X2797698Y2437976D01*
X2798387Y2439354D01*
X2799191Y2440617D01*
X2799880Y2441765D01*
X2800454Y2442568D01*
X2801028Y2443257D01*
X2801372Y2443716D01*
X2801487Y2443831D01*
X2802520Y2444979D01*
X2803668Y2445898D01*
X2804816Y2446701D01*
X2805964Y2447390D01*
X2806882Y2447964D01*
X2807686Y2448308D01*
X2808145Y2448538D01*
X2808375Y2448653D01*
X2809982Y2449227D01*
X2811589Y2449686D01*
X2813196Y2449916D01*
X2814689Y2450145D01*
X2815952Y2450260D01*
X2816985Y2450375D01*
X2817903D01*
X2819970Y2450260D01*
D02*
G37*
G36*
X3154956Y2397452D02*
X3141869D01*
Y2472876D01*
X3154956D01*
Y2397452D01*
D02*
G37*
G36*
X2914335Y2450145D02*
X2916287Y2450030D01*
X2918009Y2449801D01*
X2919501Y2449571D01*
X2920649Y2449456D01*
X2921338Y2449227D01*
X2921568D01*
X2923519Y2448768D01*
X2925241Y2448423D01*
X2926848Y2447964D01*
X2928226Y2447505D01*
X2929259Y2447160D01*
X2930178Y2446816D01*
X2930637Y2446701D01*
X2930866Y2446586D01*
Y2397452D01*
X2917894D01*
Y2438665D01*
X2916861Y2439010D01*
X2915942Y2439239D01*
X2915139Y2439469D01*
X2914909D01*
X2913646Y2439698D01*
X2912498Y2439813D01*
X2910088D01*
X2909054Y2439698D01*
X2908021Y2439584D01*
X2907218Y2439469D01*
X2906414Y2439239D01*
X2905955Y2439124D01*
X2905610Y2439010D01*
X2905496D01*
X2903085Y2449916D01*
X2904118Y2450030D01*
X2905036D01*
X2905725Y2450145D01*
X2906070D01*
X2907332Y2450260D01*
X2908595Y2450375D01*
X2912039D01*
X2914335Y2450145D01*
D02*
G37*
G36*
X2878862D02*
X2880814Y2450030D01*
X2882536Y2449801D01*
X2883913Y2449571D01*
X2884946Y2449456D01*
X2885635Y2449227D01*
X2885865D01*
X2887702Y2448768D01*
X2889309Y2448423D01*
X2890916Y2447964D01*
X2892294Y2447505D01*
X2893327Y2447160D01*
X2894245Y2446816D01*
X2894704Y2446701D01*
X2894934Y2446586D01*
Y2397452D01*
X2881962D01*
Y2438665D01*
X2880814Y2439010D01*
X2879666Y2439239D01*
X2879206Y2439354D01*
X2878862Y2439469D01*
X2878518D01*
X2876910Y2439698D01*
X2875533Y2439813D01*
X2874155D01*
X2872548Y2439698D01*
X2871170Y2439469D01*
X2869908Y2439124D01*
X2868989Y2438780D01*
X2868186Y2438321D01*
X2867726Y2437976D01*
X2867382Y2437747D01*
X2867267Y2437632D01*
X2866464Y2436714D01*
X2865890Y2435795D01*
X2865545Y2434762D01*
X2865201Y2433729D01*
X2865086Y2432925D01*
X2864971Y2432236D01*
Y2431777D01*
Y2431548D01*
Y2397452D01*
X2851884D01*
Y2432810D01*
Y2434303D01*
X2852114Y2435795D01*
X2852688Y2438436D01*
X2853606Y2440617D01*
X2854524Y2442454D01*
X2855558Y2443946D01*
X2856476Y2444979D01*
X2857050Y2445553D01*
X2857165Y2445783D01*
X2857280D01*
X2858313Y2446586D01*
X2859576Y2447275D01*
X2862216Y2448423D01*
X2864971Y2449227D01*
X2867841Y2449801D01*
X2869104Y2450030D01*
X2870367Y2450145D01*
X2871400Y2450260D01*
X2872318D01*
X2873122Y2450375D01*
X2876681D01*
X2878862Y2450145D01*
D02*
G37*
G36*
X2769113D02*
X2771065Y2450030D01*
X2772787Y2449801D01*
X2774279Y2449571D01*
X2775427Y2449456D01*
X2776116Y2449227D01*
X2776346D01*
X2778297Y2448768D01*
X2780019Y2448423D01*
X2781626Y2447964D01*
X2783004Y2447505D01*
X2784037Y2447160D01*
X2784956Y2446816D01*
X2785415Y2446701D01*
X2785644Y2446586D01*
Y2397452D01*
X2772672D01*
Y2438665D01*
X2771639Y2439010D01*
X2770720Y2439239D01*
X2769917Y2439469D01*
X2769687D01*
X2768424Y2439698D01*
X2767276Y2439813D01*
X2764866D01*
X2763832Y2439698D01*
X2762799Y2439584D01*
X2761996Y2439469D01*
X2761192Y2439239D01*
X2760733Y2439124D01*
X2760388Y2439010D01*
X2760274D01*
X2757863Y2449916D01*
X2758896Y2450030D01*
X2759814D01*
X2760503Y2450145D01*
X2760848D01*
X2762110Y2450260D01*
X2763373Y2450375D01*
X2766817D01*
X2769113Y2450145D01*
D02*
G37*
G36*
X2673714Y2397452D02*
X2660627D01*
Y2472876D01*
X2673714D01*
Y2397452D01*
D02*
G37*
G36*
X2648573D02*
X2635486D01*
Y2472876D01*
X2648573D01*
Y2397452D01*
D02*
G37*
G36*
X2376038Y2468054D02*
X2377875Y2467824D01*
X2379482Y2467709D01*
X2380860Y2467480D01*
X2381893Y2467250D01*
X2382582Y2467135D01*
X2382811D01*
X2384648Y2466676D01*
X2386370Y2466217D01*
X2387862Y2465758D01*
X2389240Y2465414D01*
X2390388Y2464954D01*
X2391192Y2464725D01*
X2391651Y2464495D01*
X2391880Y2464380D01*
Y2397452D01*
X2378678D01*
Y2424430D01*
X2377760Y2424315D01*
X2376842Y2424200D01*
X2376038Y2424086D01*
X2375808D01*
X2374431Y2423971D01*
X2372250D01*
X2369839Y2424086D01*
X2367543Y2424200D01*
X2365476Y2424430D01*
X2363754Y2424774D01*
X2362377Y2425119D01*
X2361344Y2425348D01*
X2360655Y2425463D01*
X2360425Y2425578D01*
X2358588Y2426267D01*
X2356981Y2426956D01*
X2355489Y2427759D01*
X2354226Y2428448D01*
X2353308Y2429022D01*
X2352504Y2429596D01*
X2352045Y2429940D01*
X2351930Y2430055D01*
X2350667Y2431203D01*
X2349634Y2432466D01*
X2348830Y2433614D01*
X2348027Y2434647D01*
X2347453Y2435680D01*
X2347108Y2436369D01*
X2346879Y2436828D01*
X2346764Y2437058D01*
X2346190Y2438550D01*
X2345731Y2440157D01*
X2345501Y2441535D01*
X2345272Y2442913D01*
X2345157Y2444061D01*
X2345042Y2444979D01*
Y2445553D01*
Y2445783D01*
X2345157Y2447619D01*
X2345386Y2449456D01*
X2345731Y2451064D01*
X2346075Y2452671D01*
X2347223Y2455426D01*
X2347797Y2456689D01*
X2348486Y2457722D01*
X2349175Y2458755D01*
X2349749Y2459673D01*
X2350323Y2460362D01*
X2350897Y2460936D01*
X2351241Y2461510D01*
X2351586Y2461855D01*
X2351815Y2461970D01*
X2351930Y2462084D01*
X2353308Y2463117D01*
X2354800Y2464151D01*
X2356292Y2464954D01*
X2357900Y2465643D01*
X2361229Y2466676D01*
X2364443Y2467365D01*
X2365936Y2467709D01*
X2367313Y2467824D01*
X2368576Y2467939D01*
X2369609Y2468054D01*
X2370528Y2468169D01*
X2373972D01*
X2376038Y2468054D01*
D02*
G37*
G36*
X2234834D02*
X2236671Y2467824D01*
X2238278Y2467709D01*
X2239656Y2467480D01*
X2240689Y2467250D01*
X2241378Y2467135D01*
X2241607D01*
X2243444Y2466676D01*
X2245166Y2466217D01*
X2246658Y2465758D01*
X2248036Y2465414D01*
X2249184Y2464954D01*
X2249988Y2464725D01*
X2250447Y2464495D01*
X2250676Y2464380D01*
Y2397452D01*
X2237474D01*
Y2424430D01*
X2236556Y2424315D01*
X2235638Y2424200D01*
X2234834Y2424086D01*
X2234604D01*
X2233227Y2423971D01*
X2231046D01*
X2228635Y2424086D01*
X2226339Y2424200D01*
X2224272Y2424430D01*
X2222550Y2424774D01*
X2221173Y2425119D01*
X2220140Y2425348D01*
X2219451Y2425463D01*
X2219221Y2425578D01*
X2217384Y2426267D01*
X2215777Y2426956D01*
X2214285Y2427759D01*
X2213022Y2428448D01*
X2212104Y2429022D01*
X2211300Y2429596D01*
X2210841Y2429940D01*
X2210726Y2430055D01*
X2209463Y2431203D01*
X2208430Y2432466D01*
X2207626Y2433614D01*
X2206823Y2434647D01*
X2206249Y2435680D01*
X2205904Y2436369D01*
X2205675Y2436828D01*
X2205560Y2437058D01*
X2204986Y2438550D01*
X2204527Y2440157D01*
X2204297Y2441535D01*
X2204068Y2442913D01*
X2203953Y2444061D01*
X2203838Y2444979D01*
Y2445553D01*
Y2445783D01*
X2203953Y2447619D01*
X2204182Y2449456D01*
X2204527Y2451064D01*
X2204871Y2452671D01*
X2206019Y2455426D01*
X2206593Y2456689D01*
X2207282Y2457722D01*
X2207971Y2458755D01*
X2208545Y2459673D01*
X2209119Y2460362D01*
X2209693Y2460936D01*
X2210037Y2461510D01*
X2210382Y2461855D01*
X2210611Y2461970D01*
X2210726Y2462084D01*
X2212104Y2463117D01*
X2213596Y2464151D01*
X2215088Y2464954D01*
X2216696Y2465643D01*
X2220025Y2466676D01*
X2223239Y2467365D01*
X2224732Y2467709D01*
X2226109Y2467824D01*
X2227372Y2467939D01*
X2228405Y2468054D01*
X2229324Y2468169D01*
X2232768D01*
X2234834Y2468054D01*
D02*
G37*
G36*
X3326926Y2468054D02*
X3328763Y2467939D01*
X3330370Y2467710D01*
X3331748Y2467480D01*
X3332896Y2467136D01*
X3333700Y2466906D01*
X3334274Y2466791D01*
X3334503Y2466677D01*
X3335996Y2466102D01*
X3337373Y2465414D01*
X3338521Y2464725D01*
X3339554Y2464036D01*
X3340473Y2463347D01*
X3341047Y2462888D01*
X3341506Y2462544D01*
X3341621Y2462429D01*
X3342654Y2461396D01*
X3343572Y2460363D01*
X3344261Y2459215D01*
X3344950Y2458181D01*
X3345409Y2457378D01*
X3345754Y2456689D01*
X3345983Y2456115D01*
X3346098Y2456000D01*
X3346672Y2454508D01*
X3347016Y2453130D01*
X3347361Y2451638D01*
X3347476Y2450375D01*
X3347590Y2449227D01*
X3347705Y2448309D01*
Y2447735D01*
Y2447505D01*
X3347590Y2445668D01*
X3347361Y2443946D01*
X3347131Y2442454D01*
X3346672Y2441191D01*
X3346328Y2440158D01*
X3346098Y2439469D01*
X3345868Y2438895D01*
X3345754Y2438780D01*
X3344950Y2437517D01*
X3344032Y2436369D01*
X3343228Y2435451D01*
X3342424Y2434532D01*
X3341736Y2433844D01*
X3341162Y2433385D01*
X3340817Y2433040D01*
X3340702Y2432925D01*
X3338406Y2431318D01*
X3337373Y2430515D01*
X3336340Y2429941D01*
X3335536Y2429481D01*
X3334848Y2429137D01*
X3334388Y2428907D01*
X3334274Y2428793D01*
X3331748Y2427644D01*
X3330600Y2427070D01*
X3329682Y2426497D01*
X3328878Y2426152D01*
X3328304Y2425808D01*
X3327845Y2425578D01*
X3327730Y2425463D01*
X3326697Y2424889D01*
X3325664Y2424200D01*
X3324860Y2423626D01*
X3324171Y2423052D01*
X3323597Y2422479D01*
X3323138Y2422134D01*
X3322908Y2421905D01*
X3322794Y2421790D01*
X3322105Y2420986D01*
X3321646Y2420182D01*
X3321186Y2419379D01*
X3320957Y2418575D01*
X3320842Y2417887D01*
X3320727Y2417312D01*
Y2416968D01*
Y2416853D01*
X3320842Y2415476D01*
X3321186Y2414328D01*
X3321646Y2413294D01*
X3322105Y2412376D01*
X3322679Y2411687D01*
X3323138Y2411228D01*
X3323482Y2410884D01*
X3323597Y2410769D01*
X3324745Y2409965D01*
X3326008Y2409391D01*
X3327271Y2409047D01*
X3328419Y2408817D01*
X3329567Y2408588D01*
X3330485Y2408473D01*
X3331289D01*
X3333700Y2408588D01*
X3334848Y2408817D01*
X3335881Y2408932D01*
X3336684Y2409162D01*
X3337373Y2409276D01*
X3337832Y2409391D01*
X3337947D01*
X3340243Y2410195D01*
X3341276Y2410539D01*
X3342195Y2410884D01*
X3342998Y2411228D01*
X3343572Y2411458D01*
X3343917Y2411687D01*
X3344032D01*
X3348509Y2399978D01*
X3345524Y2398715D01*
X3344032Y2398256D01*
X3342769Y2397911D01*
X3341621Y2397567D01*
X3340817Y2397337D01*
X3340243Y2397222D01*
X3340014D01*
X3336570Y2396648D01*
X3334962Y2396534D01*
X3333585Y2396419D01*
X3332322Y2396304D01*
X3330600D01*
X3328534Y2396419D01*
X3326697Y2396534D01*
X3324975Y2396763D01*
X3323482Y2397108D01*
X3322334Y2397337D01*
X3321416Y2397567D01*
X3320842Y2397682D01*
X3320612Y2397796D01*
X3319005Y2398370D01*
X3317513Y2399059D01*
X3316250Y2399863D01*
X3315217Y2400552D01*
X3314298Y2401126D01*
X3313724Y2401700D01*
X3313265Y2402044D01*
X3313150Y2402159D01*
X3312002Y2403307D01*
X3311084Y2404455D01*
X3310280Y2405488D01*
X3309592Y2406521D01*
X3309132Y2407440D01*
X3308788Y2408128D01*
X3308558Y2408702D01*
X3308444Y2408817D01*
X3307870Y2410310D01*
X3307525Y2411802D01*
X3307181Y2413294D01*
X3307066Y2414672D01*
X3306951Y2415820D01*
X3306836Y2416738D01*
Y2417312D01*
Y2417542D01*
X3306951Y2419379D01*
X3307181Y2421101D01*
X3307525Y2422593D01*
X3307870Y2423741D01*
X3308214Y2424774D01*
X3308558Y2425578D01*
X3308788Y2426037D01*
X3308903Y2426152D01*
X3309706Y2427415D01*
X3310510Y2428563D01*
X3311314Y2429481D01*
X3312117Y2430400D01*
X3312921Y2431088D01*
X3313380Y2431548D01*
X3313839Y2431892D01*
X3313954Y2432007D01*
X3316250Y2433729D01*
X3317283Y2434418D01*
X3318316Y2435106D01*
X3319235Y2435566D01*
X3319924Y2435910D01*
X3320383Y2436140D01*
X3320498Y2436255D01*
X3323023Y2437517D01*
X3324171Y2438091D01*
X3325204Y2438665D01*
X3326008Y2439010D01*
X3326582Y2439354D01*
X3327041Y2439584D01*
X3327156Y2439698D01*
X3329222Y2440961D01*
X3330026Y2441650D01*
X3330830Y2442224D01*
X3331404Y2442683D01*
X3331863Y2443028D01*
X3332092Y2443257D01*
X3332207Y2443372D01*
X3332896Y2444176D01*
X3333355Y2444979D01*
X3333700Y2445783D01*
X3333929Y2446586D01*
X3334044Y2447275D01*
X3334159Y2447849D01*
Y2448194D01*
Y2448309D01*
X3334044Y2449571D01*
X3333814Y2450834D01*
X3333355Y2451753D01*
X3332896Y2452671D01*
X3332437Y2453245D01*
X3331978Y2453819D01*
X3331748Y2454048D01*
X3331633Y2454163D01*
X3330600Y2454967D01*
X3329452Y2455541D01*
X3328189Y2455885D01*
X3327041Y2456230D01*
X3326123Y2456345D01*
X3325204Y2456459D01*
X3324516D01*
X3322220Y2456345D01*
X3321186Y2456230D01*
X3320268Y2456115D01*
X3319464Y2455885D01*
X3318890Y2455771D01*
X3318546Y2455656D01*
X3318431D01*
X3316365Y2454967D01*
X3315446Y2454622D01*
X3314758Y2454278D01*
X3314069Y2453934D01*
X3313610Y2453704D01*
X3313265Y2453589D01*
X3313150Y2453474D01*
X3308903Y2464381D01*
X3311428Y2465643D01*
X3312691Y2466102D01*
X3313839Y2466447D01*
X3314758Y2466791D01*
X3315561Y2467021D01*
X3316020Y2467136D01*
X3316250D01*
X3319350Y2467710D01*
X3320842Y2467939D01*
X3322220Y2468054D01*
X3323368Y2468169D01*
X3325090D01*
X3326926Y2468054D01*
D02*
G37*
G36*
X2520112Y2468054D02*
X2521949Y2467939D01*
X2523556Y2467709D01*
X2524934Y2467480D01*
X2526082Y2467135D01*
X2526885Y2466906D01*
X2527459Y2466791D01*
X2527689Y2466676D01*
X2529181Y2466102D01*
X2530559Y2465414D01*
X2531707Y2464725D01*
X2532740Y2464036D01*
X2533658Y2463347D01*
X2534232Y2462888D01*
X2534692Y2462544D01*
X2534806Y2462429D01*
X2535840Y2461396D01*
X2536758Y2460362D01*
X2537447Y2459214D01*
X2538136Y2458181D01*
X2538595Y2457378D01*
X2538939Y2456689D01*
X2539169Y2456115D01*
X2539284Y2456000D01*
X2539858Y2454508D01*
X2540202Y2453130D01*
X2540546Y2451637D01*
X2540661Y2450375D01*
X2540776Y2449227D01*
X2540891Y2448308D01*
Y2447734D01*
Y2447505D01*
X2540776Y2445668D01*
X2540546Y2443946D01*
X2540317Y2442454D01*
X2539858Y2441191D01*
X2539513Y2440157D01*
X2539284Y2439469D01*
X2539054Y2438895D01*
X2538939Y2438780D01*
X2538136Y2437517D01*
X2537217Y2436369D01*
X2536414Y2435451D01*
X2535610Y2434532D01*
X2534921Y2433843D01*
X2534347Y2433384D01*
X2534003Y2433040D01*
X2533888Y2432925D01*
X2531592Y2431318D01*
X2530559Y2430514D01*
X2529526Y2429940D01*
X2528722Y2429481D01*
X2528033Y2429137D01*
X2527574Y2428907D01*
X2527459Y2428792D01*
X2524934Y2427644D01*
X2523786Y2427070D01*
X2522867Y2426496D01*
X2522064Y2426152D01*
X2521490Y2425807D01*
X2521030Y2425578D01*
X2520916Y2425463D01*
X2519882Y2424889D01*
X2518849Y2424200D01*
X2518046Y2423626D01*
X2517357Y2423052D01*
X2516783Y2422478D01*
X2516324Y2422134D01*
X2516094Y2421904D01*
X2515979Y2421789D01*
X2515290Y2420986D01*
X2514831Y2420182D01*
X2514372Y2419379D01*
X2514142Y2418575D01*
X2514028Y2417886D01*
X2513913Y2417312D01*
Y2416968D01*
Y2416853D01*
X2514028Y2415476D01*
X2514372Y2414327D01*
X2514831Y2413294D01*
X2515290Y2412376D01*
X2515864Y2411687D01*
X2516324Y2411228D01*
X2516668Y2410883D01*
X2516783Y2410769D01*
X2517931Y2409965D01*
X2519194Y2409391D01*
X2520456Y2409047D01*
X2521604Y2408817D01*
X2522752Y2408588D01*
X2523671Y2408473D01*
X2524474D01*
X2526885Y2408588D01*
X2528033Y2408817D01*
X2529066Y2408932D01*
X2529870Y2409162D01*
X2530559Y2409276D01*
X2531018Y2409391D01*
X2531133D01*
X2533429Y2410195D01*
X2534462Y2410539D01*
X2535380Y2410883D01*
X2536184Y2411228D01*
X2536758Y2411457D01*
X2537102Y2411687D01*
X2537217D01*
X2541694Y2399977D01*
X2538710Y2398715D01*
X2537217Y2398256D01*
X2535954Y2397911D01*
X2534806Y2397567D01*
X2534003Y2397337D01*
X2533429Y2397222D01*
X2533199D01*
X2529755Y2396648D01*
X2528148Y2396534D01*
X2526770Y2396419D01*
X2525508Y2396304D01*
X2523786D01*
X2521719Y2396419D01*
X2519882Y2396534D01*
X2518160Y2396763D01*
X2516668Y2397108D01*
X2515520Y2397337D01*
X2514602Y2397567D01*
X2514028Y2397682D01*
X2513798Y2397796D01*
X2512191Y2398370D01*
X2510698Y2399059D01*
X2509436Y2399863D01*
X2508402Y2400552D01*
X2507484Y2401126D01*
X2506910Y2401700D01*
X2506451Y2402044D01*
X2506336Y2402159D01*
X2505188Y2403307D01*
X2504270Y2404455D01*
X2503466Y2405488D01*
X2502777Y2406521D01*
X2502318Y2407439D01*
X2501974Y2408128D01*
X2501744Y2408702D01*
X2501629Y2408817D01*
X2501055Y2410309D01*
X2500711Y2411802D01*
X2500366Y2413294D01*
X2500252Y2414672D01*
X2500137Y2415820D01*
X2500022Y2416738D01*
Y2417312D01*
Y2417542D01*
X2500137Y2419379D01*
X2500366Y2421101D01*
X2500711Y2422593D01*
X2501055Y2423741D01*
X2501400Y2424774D01*
X2501744Y2425578D01*
X2501974Y2426037D01*
X2502088Y2426152D01*
X2502892Y2427415D01*
X2503696Y2428563D01*
X2504499Y2429481D01*
X2505303Y2430399D01*
X2506106Y2431088D01*
X2506566Y2431548D01*
X2507025Y2431892D01*
X2507140Y2432007D01*
X2509436Y2433729D01*
X2510469Y2434418D01*
X2511502Y2435106D01*
X2512420Y2435566D01*
X2513109Y2435910D01*
X2513568Y2436140D01*
X2513683Y2436254D01*
X2516209Y2437517D01*
X2517357Y2438091D01*
X2518390Y2438665D01*
X2519194Y2439010D01*
X2519768Y2439354D01*
X2520227Y2439584D01*
X2520342Y2439698D01*
X2522408Y2440961D01*
X2523212Y2441650D01*
X2524015Y2442224D01*
X2524589Y2442683D01*
X2525048Y2443028D01*
X2525278Y2443257D01*
X2525393Y2443372D01*
X2526082Y2444175D01*
X2526541Y2444979D01*
X2526885Y2445783D01*
X2527115Y2446586D01*
X2527230Y2447275D01*
X2527344Y2447849D01*
Y2448193D01*
Y2448308D01*
X2527230Y2449571D01*
X2527000Y2450834D01*
X2526541Y2451752D01*
X2526082Y2452671D01*
X2525622Y2453245D01*
X2525163Y2453819D01*
X2524934Y2454048D01*
X2524819Y2454163D01*
X2523786Y2454967D01*
X2522638Y2455541D01*
X2521375Y2455885D01*
X2520227Y2456229D01*
X2519308Y2456344D01*
X2518390Y2456459D01*
X2517701D01*
X2515405Y2456344D01*
X2514372Y2456229D01*
X2513454Y2456115D01*
X2512650Y2455885D01*
X2512076Y2455770D01*
X2511732Y2455655D01*
X2511617D01*
X2509550Y2454967D01*
X2508632Y2454622D01*
X2507943Y2454278D01*
X2507254Y2453934D01*
X2506795Y2453704D01*
X2506451Y2453589D01*
X2506336Y2453474D01*
X2502088Y2464380D01*
X2504614Y2465643D01*
X2505877Y2466102D01*
X2507025Y2466447D01*
X2507943Y2466791D01*
X2508747Y2467021D01*
X2509206Y2467135D01*
X2509436D01*
X2512535Y2467709D01*
X2514028Y2467939D01*
X2515405Y2468054D01*
X2516553Y2468169D01*
X2518275D01*
X2520112Y2468054D01*
D02*
G37*
G36*
X2472929Y2467939D02*
X2474881Y2467824D01*
X2476603Y2467595D01*
X2478095Y2467365D01*
X2479243Y2467250D01*
X2479932Y2467021D01*
X2480162D01*
X2482113Y2466561D01*
X2483835Y2466217D01*
X2485442Y2465758D01*
X2486820Y2465299D01*
X2487968Y2464954D01*
X2488772Y2464610D01*
X2489231Y2464495D01*
X2489460Y2464380D01*
Y2399977D01*
X2488083Y2399403D01*
X2486476Y2398944D01*
X2484983Y2398485D01*
X2483491Y2398026D01*
X2482113Y2397796D01*
X2481080Y2397567D01*
X2480391Y2397337D01*
X2480162D01*
X2477980Y2396993D01*
X2475799Y2396763D01*
X2473848Y2396534D01*
X2472011Y2396419D01*
X2470518D01*
X2469370Y2396304D01*
X2468337D01*
X2465812Y2396419D01*
X2463516Y2396534D01*
X2461334Y2396763D01*
X2459383Y2397108D01*
X2457546Y2397567D01*
X2455824Y2398026D01*
X2454332Y2398485D01*
X2452954Y2398944D01*
X2451691Y2399403D01*
X2450658Y2399863D01*
X2449854Y2400322D01*
X2449051Y2400781D01*
X2448477Y2401126D01*
X2448132Y2401355D01*
X2447903Y2401585D01*
X2447788D01*
X2446525Y2402618D01*
X2445492Y2403766D01*
X2444574Y2404914D01*
X2443770Y2406062D01*
X2443081Y2407325D01*
X2442507Y2408588D01*
X2441704Y2410883D01*
X2441130Y2413065D01*
X2441015Y2413983D01*
X2440900Y2414787D01*
X2440785Y2415361D01*
Y2415820D01*
Y2416164D01*
Y2416279D01*
Y2417657D01*
X2441015Y2418919D01*
X2441130Y2420068D01*
X2441359Y2420986D01*
X2441589Y2421789D01*
X2441818Y2422478D01*
X2441933Y2422823D01*
X2442048Y2422938D01*
X2442966Y2424889D01*
X2443540Y2425807D01*
X2444000Y2426496D01*
X2444459Y2427070D01*
X2444803Y2427530D01*
X2445033Y2427759D01*
X2445148Y2427874D01*
X2446525Y2429366D01*
X2447788Y2430514D01*
X2448362Y2430859D01*
X2448821Y2431203D01*
X2449051Y2431318D01*
X2449166Y2431433D01*
X2450773Y2432351D01*
X2452150Y2433040D01*
X2452724Y2433269D01*
X2453184Y2433384D01*
X2453413Y2433499D01*
X2453528D01*
Y2433729D01*
X2451921Y2434303D01*
X2450658Y2434877D01*
X2450199Y2435106D01*
X2449854Y2435336D01*
X2449625Y2435566D01*
X2449510D01*
X2448132Y2436713D01*
X2447099Y2437861D01*
X2446640Y2438321D01*
X2446296Y2438665D01*
X2446181Y2438895D01*
X2446066Y2439010D01*
X2445033Y2440617D01*
X2444229Y2442109D01*
X2443885Y2442683D01*
X2443655Y2443142D01*
X2443540Y2443487D01*
Y2443602D01*
X2442966Y2445553D01*
X2442852Y2446472D01*
X2442737Y2447275D01*
X2442622Y2448079D01*
Y2448653D01*
Y2448997D01*
Y2449112D01*
X2442737Y2450604D01*
X2442852Y2452097D01*
X2443081Y2453360D01*
X2443426Y2454508D01*
X2443770Y2455426D01*
X2444000Y2456115D01*
X2444114Y2456574D01*
X2444229Y2456689D01*
X2444918Y2457952D01*
X2445607Y2459099D01*
X2446410Y2460133D01*
X2447214Y2461051D01*
X2447903Y2461740D01*
X2448477Y2462199D01*
X2448936Y2462544D01*
X2449051Y2462658D01*
X2450314Y2463577D01*
X2451576Y2464380D01*
X2452954Y2465069D01*
X2454217Y2465643D01*
X2455365Y2466102D01*
X2456283Y2466447D01*
X2456857Y2466561D01*
X2456972Y2466676D01*
X2457087D01*
X2458924Y2467135D01*
X2460875Y2467595D01*
X2462827Y2467824D01*
X2464664Y2467939D01*
X2466156Y2468054D01*
X2467419Y2468169D01*
X2470863D01*
X2472929Y2467939D01*
D02*
G37*
G36*
X2320360D02*
X2322197Y2467824D01*
X2323804Y2467595D01*
X2325067Y2467365D01*
X2326100Y2467250D01*
X2326789Y2467021D01*
X2327018D01*
X2328855Y2466561D01*
X2330462Y2466217D01*
X2331840Y2465758D01*
X2332988Y2465299D01*
X2334021Y2464954D01*
X2334710Y2464610D01*
X2335169Y2464495D01*
X2335284Y2464380D01*
Y2399977D01*
X2334021Y2399403D01*
X2332644Y2398944D01*
X2331381Y2398485D01*
X2330003Y2398026D01*
X2328855Y2397796D01*
X2327937Y2397567D01*
X2327363Y2397337D01*
X2327133D01*
X2323345Y2396763D01*
X2321508Y2396534D01*
X2319786Y2396419D01*
X2318294D01*
X2317260Y2396304D01*
X2316227D01*
X2313587Y2396419D01*
X2311061Y2396648D01*
X2308765Y2397108D01*
X2306584Y2397682D01*
X2304518Y2398370D01*
X2302681Y2399174D01*
X2300959Y2399977D01*
X2299466Y2400896D01*
X2298089Y2401700D01*
X2296941Y2402503D01*
X2295908Y2403307D01*
X2295104Y2403995D01*
X2294415Y2404570D01*
X2293956Y2405029D01*
X2293726Y2405258D01*
X2293612Y2405373D01*
X2292119Y2407210D01*
X2290971Y2409162D01*
X2289823Y2411228D01*
X2288905Y2413409D01*
X2288101Y2415705D01*
X2287412Y2417886D01*
X2286953Y2420068D01*
X2286494Y2422249D01*
X2286150Y2424315D01*
X2285920Y2426152D01*
X2285690Y2427874D01*
X2285576Y2429366D01*
X2285461Y2430514D01*
Y2431433D01*
Y2432007D01*
Y2432236D01*
X2285576Y2435451D01*
X2285805Y2438436D01*
X2286264Y2441191D01*
X2286724Y2443831D01*
X2287298Y2446242D01*
X2287986Y2448423D01*
X2288790Y2450375D01*
X2289479Y2452211D01*
X2290282Y2453819D01*
X2291086Y2455196D01*
X2291775Y2456344D01*
X2292349Y2457263D01*
X2292808Y2458066D01*
X2293267Y2458526D01*
X2293497Y2458870D01*
X2293612Y2458985D01*
X2295219Y2460592D01*
X2296941Y2461970D01*
X2298663Y2463232D01*
X2300500Y2464265D01*
X2302451Y2465184D01*
X2304288Y2465988D01*
X2306125Y2466561D01*
X2307962Y2467021D01*
X2309569Y2467365D01*
X2311176Y2467709D01*
X2312554Y2467939D01*
X2313816Y2468054D01*
X2314850Y2468169D01*
X2318294D01*
X2320360Y2467939D01*
D02*
G37*
G36*
X2127266D02*
X2129218Y2467824D01*
X2130940Y2467595D01*
X2132432Y2467365D01*
X2133580Y2467250D01*
X2134269Y2467021D01*
X2134499D01*
X2136450Y2466561D01*
X2138172Y2466217D01*
X2139780Y2465758D01*
X2141157Y2465299D01*
X2142305Y2464954D01*
X2143109Y2464610D01*
X2143568Y2464495D01*
X2143798Y2464380D01*
Y2399977D01*
X2142420Y2399403D01*
X2140813Y2398944D01*
X2139320Y2398485D01*
X2137828Y2398026D01*
X2136450Y2397796D01*
X2135417Y2397567D01*
X2134728Y2397337D01*
X2134499D01*
X2132318Y2396993D01*
X2130136Y2396763D01*
X2128185Y2396534D01*
X2126348Y2396419D01*
X2124856D01*
X2123708Y2396304D01*
X2122674D01*
X2120149Y2396419D01*
X2117853Y2396534D01*
X2115672Y2396763D01*
X2113720Y2397108D01*
X2111883Y2397567D01*
X2110161Y2398026D01*
X2108669Y2398485D01*
X2107291Y2398944D01*
X2106028Y2399403D01*
X2104995Y2399863D01*
X2104192Y2400322D01*
X2103388Y2400781D01*
X2102814Y2401126D01*
X2102470Y2401355D01*
X2102240Y2401585D01*
X2102125D01*
X2100862Y2402618D01*
X2099829Y2403766D01*
X2098911Y2404914D01*
X2098107Y2406062D01*
X2097418Y2407325D01*
X2096844Y2408588D01*
X2096041Y2410883D01*
X2095467Y2413065D01*
X2095352Y2413983D01*
X2095237Y2414787D01*
X2095122Y2415361D01*
Y2415820D01*
Y2416164D01*
Y2416279D01*
Y2417657D01*
X2095352Y2418919D01*
X2095467Y2420068D01*
X2095696Y2420986D01*
X2095926Y2421789D01*
X2096156Y2422478D01*
X2096270Y2422823D01*
X2096385Y2422938D01*
X2097304Y2424889D01*
X2097878Y2425807D01*
X2098337Y2426496D01*
X2098796Y2427070D01*
X2099140Y2427530D01*
X2099370Y2427759D01*
X2099485Y2427874D01*
X2100862Y2429366D01*
X2102125Y2430514D01*
X2102699Y2430859D01*
X2103158Y2431203D01*
X2103388Y2431318D01*
X2103503Y2431433D01*
X2105110Y2432351D01*
X2106488Y2433040D01*
X2107062Y2433269D01*
X2107521Y2433384D01*
X2107750Y2433499D01*
X2107865D01*
Y2433729D01*
X2106258Y2434303D01*
X2104995Y2434877D01*
X2104536Y2435106D01*
X2104192Y2435336D01*
X2103962Y2435566D01*
X2103847D01*
X2102470Y2436713D01*
X2101436Y2437861D01*
X2100977Y2438321D01*
X2100633Y2438665D01*
X2100518Y2438895D01*
X2100403Y2439010D01*
X2099370Y2440617D01*
X2098566Y2442109D01*
X2098222Y2442683D01*
X2097992Y2443142D01*
X2097878Y2443487D01*
Y2443602D01*
X2097304Y2445553D01*
X2097189Y2446472D01*
X2097074Y2447275D01*
X2096959Y2448079D01*
Y2448653D01*
Y2448997D01*
Y2449112D01*
X2097074Y2450604D01*
X2097189Y2452097D01*
X2097418Y2453360D01*
X2097763Y2454508D01*
X2098107Y2455426D01*
X2098337Y2456115D01*
X2098452Y2456574D01*
X2098566Y2456689D01*
X2099255Y2457952D01*
X2099944Y2459099D01*
X2100748Y2460133D01*
X2101551Y2461051D01*
X2102240Y2461740D01*
X2102814Y2462199D01*
X2103273Y2462544D01*
X2103388Y2462658D01*
X2104651Y2463577D01*
X2105914Y2464380D01*
X2107291Y2465069D01*
X2108554Y2465643D01*
X2109702Y2466102D01*
X2110620Y2466447D01*
X2111194Y2466561D01*
X2111309Y2466676D01*
X2111424D01*
X2113261Y2467135D01*
X2115212Y2467595D01*
X2117164Y2467824D01*
X2119001Y2467939D01*
X2120493Y2468054D01*
X2121756Y2468169D01*
X2125200D01*
X2127266Y2467939D01*
D02*
G37*
G36*
X2779101Y2377592D02*
X2780938Y2377362D01*
X2782545Y2377247D01*
X2784037Y2377018D01*
X2785070Y2376788D01*
X2785759Y2376673D01*
X2785989D01*
X2787940Y2376329D01*
X2789777Y2375870D01*
X2791499Y2375410D01*
X2792877Y2374951D01*
X2794025Y2374607D01*
X2794943Y2374262D01*
X2795517Y2374033D01*
X2795747Y2373918D01*
X2791958Y2363701D01*
X2789318Y2364619D01*
X2788055Y2364964D01*
X2786907Y2365308D01*
X2785989Y2365538D01*
X2785185Y2365767D01*
X2784726Y2365882D01*
X2784496D01*
X2781626Y2366456D01*
X2780249Y2366571D01*
X2779101Y2366686D01*
X2778182Y2366800D01*
X2776805D01*
X2774853Y2366686D01*
X2773246Y2366456D01*
X2771868Y2366112D01*
X2770606Y2365767D01*
X2769687Y2365308D01*
X2769113Y2364964D01*
X2768654Y2364734D01*
X2768539Y2364619D01*
X2767621Y2363816D01*
X2766932Y2362782D01*
X2766358Y2361864D01*
X2766014Y2360946D01*
X2765784Y2360027D01*
X2765669Y2359338D01*
Y2358879D01*
Y2358764D01*
Y2357961D01*
X2765899Y2357157D01*
X2766358Y2355780D01*
X2766588Y2355206D01*
X2766817Y2354861D01*
X2766932Y2354632D01*
X2767047Y2354517D01*
X2768195Y2353254D01*
X2769343Y2352221D01*
X2769917Y2351762D01*
X2770376Y2351417D01*
X2770606Y2351302D01*
X2770720Y2351188D01*
X2772672Y2350154D01*
X2774509Y2349466D01*
X2775312Y2349121D01*
X2776001Y2348892D01*
X2776460Y2348777D01*
X2776575D01*
X2779216Y2348203D01*
X2780478Y2347973D01*
X2781741Y2347858D01*
X2782774Y2347744D01*
X2783578Y2347629D01*
X2784267D01*
Y2337986D01*
X2781626D01*
X2780134Y2337871D01*
X2778871Y2337756D01*
X2777723Y2337641D01*
X2776805Y2337412D01*
X2776001Y2337297D01*
X2775542Y2337182D01*
X2775427D01*
X2774164Y2336952D01*
X2772902Y2336608D01*
X2771868Y2336264D01*
X2770950Y2335919D01*
X2770261Y2335575D01*
X2769687Y2335345D01*
X2769343Y2335230D01*
X2769228Y2335116D01*
X2768310Y2334656D01*
X2767506Y2334082D01*
X2766702Y2333508D01*
X2766128Y2332934D01*
X2765669Y2332475D01*
X2765325Y2332131D01*
X2765210Y2331901D01*
X2765095Y2331786D01*
X2764636Y2330983D01*
X2764177Y2330179D01*
X2763832Y2328572D01*
X2763718Y2327998D01*
X2763603Y2327424D01*
Y2327080D01*
Y2326965D01*
X2763718Y2325358D01*
X2764177Y2323865D01*
X2764751Y2322602D01*
X2765325Y2321569D01*
X2766014Y2320766D01*
X2766588Y2320077D01*
X2767047Y2319732D01*
X2767162Y2319618D01*
X2768539Y2318699D01*
X2770146Y2318010D01*
X2771754Y2317551D01*
X2773361Y2317207D01*
X2774738Y2316977D01*
X2775886Y2316862D01*
X2778642D01*
X2780249Y2316977D01*
X2781741Y2317092D01*
X2783119Y2317207D01*
X2784267Y2317322D01*
X2785070Y2317436D01*
X2785644Y2317551D01*
X2785874D01*
X2787481Y2317896D01*
X2788859Y2318240D01*
X2790122Y2318584D01*
X2791270Y2318929D01*
X2792073Y2319273D01*
X2792762Y2319503D01*
X2793221Y2319732D01*
X2793336D01*
X2797469Y2309515D01*
X2795862Y2308941D01*
X2794140Y2308367D01*
X2792532Y2307908D01*
X2791040Y2307564D01*
X2789662Y2307219D01*
X2788629Y2307104D01*
X2787940Y2306875D01*
X2787711D01*
X2785644Y2306530D01*
X2783693Y2306301D01*
X2781741Y2306071D01*
X2780134Y2305956D01*
X2778756D01*
X2777608Y2305842D01*
X2776690D01*
X2774394Y2305956D01*
X2772213Y2306071D01*
X2770376Y2306301D01*
X2768654Y2306645D01*
X2767276Y2306875D01*
X2766358Y2307104D01*
X2765669Y2307219D01*
X2765440Y2307334D01*
X2763718Y2307908D01*
X2762110Y2308597D01*
X2760618Y2309286D01*
X2759470Y2309974D01*
X2758437Y2310663D01*
X2757748Y2311122D01*
X2757289Y2311467D01*
X2757174Y2311582D01*
X2755911Y2312615D01*
X2754878Y2313763D01*
X2753960Y2314911D01*
X2753271Y2315944D01*
X2752697Y2316862D01*
X2752238Y2317551D01*
X2752008Y2318125D01*
X2751893Y2318240D01*
X2751319Y2319732D01*
X2750860Y2321225D01*
X2750516Y2322717D01*
X2750286Y2324095D01*
X2750171Y2325243D01*
X2750056Y2326161D01*
Y2326735D01*
Y2326965D01*
Y2328228D01*
X2750286Y2329490D01*
X2750401Y2330524D01*
X2750630Y2331557D01*
X2750860Y2332246D01*
X2751090Y2332934D01*
X2751204Y2333279D01*
X2751319Y2333394D01*
X2752352Y2335345D01*
X2752812Y2336264D01*
X2753386Y2336952D01*
X2753845Y2337526D01*
X2754189Y2337986D01*
X2754419Y2338215D01*
X2754534Y2338330D01*
X2756026Y2339822D01*
X2757518Y2340970D01*
X2758092Y2341315D01*
X2758552Y2341659D01*
X2758896Y2341774D01*
X2759011Y2341889D01*
X2760848Y2342922D01*
X2761766Y2343266D01*
X2762570Y2343611D01*
X2763258Y2343840D01*
X2763832Y2344070D01*
X2764177Y2344185D01*
X2764292D01*
Y2344414D01*
X2762684Y2345218D01*
X2761192Y2346022D01*
X2760733Y2346251D01*
X2760274Y2346596D01*
X2760044Y2346710D01*
X2759929Y2346825D01*
X2758437Y2348088D01*
X2757174Y2349236D01*
X2756715Y2349695D01*
X2756370Y2350040D01*
X2756141Y2350269D01*
X2756026Y2350384D01*
X2754878Y2351876D01*
X2754074Y2353254D01*
X2753730Y2353828D01*
X2753500Y2354287D01*
X2753386Y2354632D01*
Y2354746D01*
X2752812Y2356583D01*
X2752582Y2358190D01*
X2752467Y2358879D01*
Y2359338D01*
Y2359683D01*
Y2359798D01*
X2752582Y2361290D01*
X2752697Y2362668D01*
X2753386Y2365308D01*
X2754189Y2367489D01*
X2755222Y2369326D01*
X2756256Y2370818D01*
X2757174Y2371852D01*
X2757863Y2372540D01*
X2757978Y2372770D01*
X2758092D01*
X2759240Y2373688D01*
X2760388Y2374377D01*
X2763144Y2375640D01*
X2765899Y2376558D01*
X2768654Y2377132D01*
X2769917Y2377247D01*
X2771065Y2377477D01*
X2772213Y2377592D01*
X2773131D01*
X2773935Y2377706D01*
X2777034D01*
X2779101Y2377592D01*
D02*
G37*
G36*
X2641570D02*
X2643292Y2377362D01*
X2644785Y2377247D01*
X2646162Y2377018D01*
X2647081Y2376788D01*
X2647770Y2376673D01*
X2647999D01*
X2649836Y2376329D01*
X2651558Y2375870D01*
X2653165Y2375410D01*
X2654543Y2374951D01*
X2655806Y2374607D01*
X2656609Y2374262D01*
X2657183Y2374033D01*
X2657413Y2373918D01*
X2653624Y2363701D01*
X2651099Y2364619D01*
X2649836Y2364964D01*
X2648803Y2365308D01*
X2647770Y2365538D01*
X2647081Y2365767D01*
X2646507Y2365882D01*
X2646392D01*
X2643522Y2366341D01*
X2642259Y2366456D01*
X2641226Y2366571D01*
X2640308Y2366686D01*
X2638930D01*
X2636634Y2366571D01*
X2634682Y2366226D01*
X2632960Y2365767D01*
X2631583Y2365193D01*
X2630435Y2364619D01*
X2629746Y2364160D01*
X2629172Y2363816D01*
X2629057Y2363701D01*
X2627909Y2362553D01*
X2627106Y2361290D01*
X2626417Y2360027D01*
X2626072Y2358764D01*
X2625843Y2357731D01*
X2625613Y2356813D01*
Y2356239D01*
Y2356009D01*
X2625728Y2354746D01*
X2625843Y2353598D01*
X2626187Y2352565D01*
X2626417Y2351647D01*
X2626761Y2350843D01*
X2627106Y2350269D01*
X2627220Y2349810D01*
X2627335Y2349695D01*
X2628598Y2347629D01*
X2629287Y2346710D01*
X2629861Y2345792D01*
X2630320Y2345103D01*
X2630779Y2344529D01*
X2631009Y2344185D01*
X2631124Y2344070D01*
X2660857Y2306990D01*
X2610460D01*
Y2317781D01*
X2638700D01*
X2620562Y2338215D01*
X2619414Y2339593D01*
X2618381Y2340741D01*
X2618036Y2341315D01*
X2617692Y2341659D01*
X2617577Y2341889D01*
X2617462Y2342004D01*
X2616314Y2343611D01*
X2615396Y2344988D01*
X2615052Y2345562D01*
X2614822Y2346022D01*
X2614592Y2346251D01*
Y2346366D01*
X2613789Y2348203D01*
X2613100Y2349695D01*
X2612870Y2350384D01*
X2612756Y2350843D01*
X2612641Y2351188D01*
Y2351302D01*
X2612182Y2353254D01*
X2612067Y2354172D01*
X2611952Y2354976D01*
X2611837Y2355665D01*
Y2356239D01*
Y2356583D01*
Y2356698D01*
X2611952Y2358535D01*
X2612067Y2360142D01*
X2612411Y2361749D01*
X2612870Y2363242D01*
X2613904Y2365882D01*
X2615166Y2368063D01*
X2615740Y2368982D01*
X2616429Y2369785D01*
X2617003Y2370474D01*
X2617462Y2371048D01*
X2617922Y2371507D01*
X2618151Y2371852D01*
X2618381Y2371966D01*
X2618496Y2372081D01*
X2619758Y2373114D01*
X2621251Y2373918D01*
X2622743Y2374722D01*
X2624236Y2375296D01*
X2627450Y2376329D01*
X2630550Y2377018D01*
X2632042Y2377247D01*
X2633420Y2377362D01*
X2634568Y2377592D01*
X2635716D01*
X2636519Y2377706D01*
X2639734D01*
X2641570Y2377592D01*
D02*
G37*
G36*
X2526541Y2377591D02*
X2528263Y2377362D01*
X2529755Y2377247D01*
X2531133Y2377017D01*
X2532051Y2376788D01*
X2532740Y2376673D01*
X2532970D01*
X2534806Y2376329D01*
X2536528Y2375869D01*
X2538136Y2375410D01*
X2539513Y2374951D01*
X2540776Y2374607D01*
X2541580Y2374262D01*
X2542154Y2374033D01*
X2542383Y2373918D01*
X2538595Y2363701D01*
X2536069Y2364619D01*
X2534806Y2364963D01*
X2533773Y2365308D01*
X2532740Y2365537D01*
X2532051Y2365767D01*
X2531477Y2365882D01*
X2531362D01*
X2528492Y2366341D01*
X2527230Y2366456D01*
X2526196Y2366571D01*
X2525278Y2366686D01*
X2523900D01*
X2521604Y2366571D01*
X2519653Y2366226D01*
X2517931Y2365767D01*
X2516553Y2365193D01*
X2515405Y2364619D01*
X2514716Y2364160D01*
X2514142Y2363816D01*
X2514028Y2363701D01*
X2512880Y2362553D01*
X2512076Y2361290D01*
X2511387Y2360027D01*
X2511043Y2358764D01*
X2510813Y2357731D01*
X2510584Y2356813D01*
Y2356239D01*
Y2356009D01*
X2510698Y2354746D01*
X2510813Y2353598D01*
X2511158Y2352565D01*
X2511387Y2351647D01*
X2511732Y2350843D01*
X2512076Y2350269D01*
X2512191Y2349810D01*
X2512306Y2349695D01*
X2513568Y2347629D01*
X2514257Y2346710D01*
X2514831Y2345792D01*
X2515290Y2345103D01*
X2515750Y2344529D01*
X2515979Y2344185D01*
X2516094Y2344070D01*
X2545827Y2306990D01*
X2495430D01*
Y2317781D01*
X2523671D01*
X2505532Y2338215D01*
X2504384Y2339593D01*
X2503351Y2340741D01*
X2503007Y2341315D01*
X2502662Y2341659D01*
X2502548Y2341889D01*
X2502433Y2342003D01*
X2501285Y2343611D01*
X2500366Y2344988D01*
X2500022Y2345562D01*
X2499792Y2346021D01*
X2499563Y2346251D01*
Y2346366D01*
X2498759Y2348203D01*
X2498070Y2349695D01*
X2497841Y2350384D01*
X2497726Y2350843D01*
X2497611Y2351188D01*
Y2351302D01*
X2497152Y2353254D01*
X2497037Y2354172D01*
X2496922Y2354976D01*
X2496808Y2355665D01*
Y2356239D01*
Y2356583D01*
Y2356698D01*
X2496922Y2358535D01*
X2497037Y2360142D01*
X2497382Y2361749D01*
X2497841Y2363242D01*
X2498874Y2365882D01*
X2500137Y2368063D01*
X2500711Y2368981D01*
X2501400Y2369785D01*
X2501974Y2370474D01*
X2502433Y2371048D01*
X2502892Y2371507D01*
X2503122Y2371852D01*
X2503351Y2371966D01*
X2503466Y2372081D01*
X2504729Y2373114D01*
X2506221Y2373918D01*
X2507714Y2374722D01*
X2509206Y2375296D01*
X2512420Y2376329D01*
X2515520Y2377017D01*
X2517012Y2377247D01*
X2518390Y2377362D01*
X2519538Y2377591D01*
X2520686D01*
X2521490Y2377706D01*
X2524704D01*
X2526541Y2377591D01*
D02*
G37*
G36*
X2467648D02*
X2469485Y2377362D01*
X2471092Y2377247D01*
X2472585Y2377017D01*
X2473618Y2376788D01*
X2474307Y2376673D01*
X2474536D01*
X2476488Y2376329D01*
X2478325Y2375869D01*
X2480047Y2375410D01*
X2481424Y2374951D01*
X2482572Y2374607D01*
X2483491Y2374262D01*
X2484065Y2374033D01*
X2484294Y2373918D01*
X2480506Y2363701D01*
X2477866Y2364619D01*
X2476603Y2364963D01*
X2475455Y2365308D01*
X2474536Y2365537D01*
X2473733Y2365767D01*
X2473274Y2365882D01*
X2473044D01*
X2470174Y2366456D01*
X2468796Y2366571D01*
X2467648Y2366686D01*
X2466730Y2366800D01*
X2465352D01*
X2463401Y2366686D01*
X2461794Y2366456D01*
X2460416Y2366111D01*
X2459153Y2365767D01*
X2458235Y2365308D01*
X2457661Y2364963D01*
X2457202Y2364734D01*
X2457087Y2364619D01*
X2456168Y2363816D01*
X2455480Y2362782D01*
X2454906Y2361864D01*
X2454561Y2360945D01*
X2454332Y2360027D01*
X2454217Y2359338D01*
Y2358879D01*
Y2358764D01*
Y2357961D01*
X2454446Y2357157D01*
X2454906Y2355780D01*
X2455135Y2355206D01*
X2455365Y2354861D01*
X2455480Y2354631D01*
X2455594Y2354517D01*
X2456742Y2353254D01*
X2457890Y2352221D01*
X2458464Y2351762D01*
X2458924Y2351417D01*
X2459153Y2351302D01*
X2459268Y2351188D01*
X2461220Y2350154D01*
X2463056Y2349465D01*
X2463860Y2349121D01*
X2464549Y2348892D01*
X2465008Y2348777D01*
X2465123D01*
X2467763Y2348203D01*
X2469026Y2347973D01*
X2470289Y2347858D01*
X2471322Y2347744D01*
X2472126Y2347629D01*
X2472814D01*
Y2337985D01*
X2470174D01*
X2468682Y2337871D01*
X2467419Y2337756D01*
X2466271Y2337641D01*
X2465352Y2337412D01*
X2464549Y2337297D01*
X2464090Y2337182D01*
X2463975D01*
X2462712Y2336952D01*
X2461449Y2336608D01*
X2460416Y2336264D01*
X2459498Y2335919D01*
X2458809Y2335575D01*
X2458235Y2335345D01*
X2457890Y2335230D01*
X2457776Y2335115D01*
X2456857Y2334656D01*
X2456054Y2334082D01*
X2455250Y2333508D01*
X2454676Y2332934D01*
X2454217Y2332475D01*
X2453872Y2332131D01*
X2453758Y2331901D01*
X2453643Y2331786D01*
X2453184Y2330983D01*
X2452724Y2330179D01*
X2452380Y2328572D01*
X2452265Y2327998D01*
X2452150Y2327424D01*
Y2327079D01*
Y2326965D01*
X2452265Y2325358D01*
X2452724Y2323865D01*
X2453298Y2322602D01*
X2453872Y2321569D01*
X2454561Y2320765D01*
X2455135Y2320077D01*
X2455594Y2319732D01*
X2455709Y2319617D01*
X2457087Y2318699D01*
X2458694Y2318010D01*
X2460301Y2317551D01*
X2461908Y2317207D01*
X2463286Y2316977D01*
X2464434Y2316862D01*
X2467189D01*
X2468796Y2316977D01*
X2470289Y2317092D01*
X2471666Y2317207D01*
X2472814Y2317322D01*
X2473618Y2317436D01*
X2474192Y2317551D01*
X2474422D01*
X2476029Y2317896D01*
X2477406Y2318240D01*
X2478669Y2318584D01*
X2479817Y2318929D01*
X2480621Y2319273D01*
X2481310Y2319503D01*
X2481769Y2319732D01*
X2481884D01*
X2486016Y2309515D01*
X2484409Y2308941D01*
X2482687Y2308367D01*
X2481080Y2307908D01*
X2479588Y2307564D01*
X2478210Y2307219D01*
X2477177Y2307104D01*
X2476488Y2306875D01*
X2476258D01*
X2474192Y2306530D01*
X2472240Y2306301D01*
X2470289Y2306071D01*
X2468682Y2305956D01*
X2467304D01*
X2466156Y2305841D01*
X2465238D01*
X2462942Y2305956D01*
X2460760Y2306071D01*
X2458924Y2306301D01*
X2457202Y2306645D01*
X2455824Y2306875D01*
X2454906Y2307104D01*
X2454217Y2307219D01*
X2453987Y2307334D01*
X2452265Y2307908D01*
X2450658Y2308597D01*
X2449166Y2309285D01*
X2448018Y2309974D01*
X2446984Y2310663D01*
X2446296Y2311122D01*
X2445836Y2311467D01*
X2445722Y2311581D01*
X2444459Y2312615D01*
X2443426Y2313763D01*
X2442507Y2314911D01*
X2441818Y2315944D01*
X2441244Y2316862D01*
X2440785Y2317551D01*
X2440556Y2318125D01*
X2440441Y2318240D01*
X2439867Y2319732D01*
X2439408Y2321225D01*
X2439063Y2322717D01*
X2438834Y2324095D01*
X2438719Y2325243D01*
X2438604Y2326161D01*
Y2326735D01*
Y2326965D01*
Y2328227D01*
X2438834Y2329490D01*
X2438948Y2330523D01*
X2439178Y2331557D01*
X2439408Y2332245D01*
X2439637Y2332934D01*
X2439752Y2333279D01*
X2439867Y2333394D01*
X2440900Y2335345D01*
X2441359Y2336264D01*
X2441933Y2336952D01*
X2442392Y2337526D01*
X2442737Y2337985D01*
X2442966Y2338215D01*
X2443081Y2338330D01*
X2444574Y2339822D01*
X2446066Y2340970D01*
X2446640Y2341315D01*
X2447099Y2341659D01*
X2447444Y2341774D01*
X2447558Y2341889D01*
X2449395Y2342922D01*
X2450314Y2343266D01*
X2451117Y2343611D01*
X2451806Y2343840D01*
X2452380Y2344070D01*
X2452724Y2344185D01*
X2452839D01*
Y2344414D01*
X2451232Y2345218D01*
X2449740Y2346021D01*
X2449280Y2346251D01*
X2448821Y2346595D01*
X2448592Y2346710D01*
X2448477Y2346825D01*
X2446984Y2348088D01*
X2445722Y2349236D01*
X2445262Y2349695D01*
X2444918Y2350039D01*
X2444688Y2350269D01*
X2444574Y2350384D01*
X2443426Y2351876D01*
X2442622Y2353254D01*
X2442278Y2353828D01*
X2442048Y2354287D01*
X2441933Y2354631D01*
Y2354746D01*
X2441359Y2356583D01*
X2441130Y2358190D01*
X2441015Y2358879D01*
Y2359338D01*
Y2359683D01*
Y2359798D01*
X2441130Y2361290D01*
X2441244Y2362668D01*
X2441933Y2365308D01*
X2442737Y2367489D01*
X2443770Y2369326D01*
X2444803Y2370818D01*
X2445722Y2371852D01*
X2446410Y2372540D01*
X2446525Y2372770D01*
X2446640D01*
X2447788Y2373688D01*
X2448936Y2374377D01*
X2451691Y2375640D01*
X2454446Y2376558D01*
X2457202Y2377132D01*
X2458464Y2377247D01*
X2459612Y2377477D01*
X2460760Y2377591D01*
X2461679D01*
X2462482Y2377706D01*
X2465582D01*
X2467648Y2377591D01*
D02*
G37*
G36*
X2943494Y2359683D02*
X2945331Y2359568D01*
X2946938Y2359338D01*
X2948316Y2359109D01*
X2949349Y2358879D01*
X2950038Y2358764D01*
X2950153Y2358650D01*
X2950268D01*
X2952104Y2358190D01*
X2953712Y2357731D01*
X2955204Y2357387D01*
X2956352Y2356928D01*
X2957385Y2356583D01*
X2958074Y2356354D01*
X2958533Y2356239D01*
X2958648Y2356124D01*
X2955434Y2347284D01*
X2954400Y2347744D01*
X2953367Y2347973D01*
X2952564Y2348203D01*
X2952449Y2348318D01*
X2952334D01*
X2950956Y2348777D01*
X2949808Y2349006D01*
X2949349Y2349236D01*
X2949005D01*
X2948775Y2349351D01*
X2948660D01*
X2947168Y2349695D01*
X2946020Y2349925D01*
X2945446D01*
X2945102Y2350040D01*
X2944757D01*
X2943265Y2350269D01*
X2942002Y2350384D01*
X2940854D01*
X2939247Y2350269D01*
X2937869Y2350154D01*
X2936721Y2349810D01*
X2935688Y2349580D01*
X2934884Y2349236D01*
X2934310Y2348892D01*
X2933966Y2348777D01*
X2933851Y2348662D01*
X2932933Y2347973D01*
X2932359Y2347055D01*
X2931900Y2346136D01*
X2931555Y2345218D01*
X2931326Y2344300D01*
X2931211Y2343611D01*
Y2343152D01*
Y2342922D01*
Y2340282D01*
X2933392Y2340167D01*
X2935458Y2339937D01*
X2937410Y2339708D01*
X2939132Y2339478D01*
X2940510Y2339363D01*
X2941658Y2339134D01*
X2942346Y2339019D01*
X2942576D01*
X2944528Y2338674D01*
X2946364Y2338215D01*
X2947972Y2337756D01*
X2949464Y2337297D01*
X2950612Y2336952D01*
X2951416Y2336608D01*
X2951990Y2336378D01*
X2952219Y2336264D01*
X2953712Y2335575D01*
X2955089Y2334656D01*
X2956237Y2333853D01*
X2957156Y2333049D01*
X2957959Y2332246D01*
X2958533Y2331672D01*
X2958878Y2331212D01*
X2958992Y2331098D01*
X2959796Y2329720D01*
X2960485Y2328342D01*
X2960944Y2326965D01*
X2961174Y2325587D01*
X2961403Y2324324D01*
X2961518Y2323406D01*
Y2322717D01*
Y2322602D01*
Y2322488D01*
X2961403Y2320995D01*
X2961288Y2319732D01*
X2960600Y2317207D01*
X2959681Y2315140D01*
X2958648Y2313418D01*
X2957615Y2312041D01*
X2956696Y2311008D01*
X2956008Y2310434D01*
X2955893Y2310204D01*
X2955778D01*
X2954630Y2309400D01*
X2953367Y2308712D01*
X2950612Y2307678D01*
X2947627Y2306875D01*
X2944757Y2306416D01*
X2943494Y2306186D01*
X2942232Y2306071D01*
X2941084Y2305956D01*
X2940165D01*
X2939362Y2305842D01*
X2936032D01*
X2933966Y2306071D01*
X2932129Y2306186D01*
X2930407Y2306416D01*
X2929030Y2306645D01*
X2927996Y2306760D01*
X2927308Y2306990D01*
X2927078D01*
X2925126Y2307449D01*
X2923519Y2307793D01*
X2922142Y2308252D01*
X2920879Y2308597D01*
X2919960Y2308941D01*
X2919386Y2309286D01*
X2918927Y2309400D01*
X2918812Y2309515D01*
Y2341430D01*
Y2343266D01*
X2919042Y2344874D01*
X2919272Y2346366D01*
X2919616Y2347858D01*
X2920075Y2349121D01*
X2920534Y2350269D01*
X2920994Y2351302D01*
X2921453Y2352221D01*
X2922027Y2353024D01*
X2922486Y2353713D01*
X2923404Y2354746D01*
X2923978Y2355320D01*
X2924093Y2355550D01*
X2924208D01*
X2926389Y2357042D01*
X2928915Y2358076D01*
X2931440Y2358879D01*
X2933851Y2359338D01*
X2936032Y2359683D01*
X2937066Y2359798D01*
X2937869D01*
X2938558Y2359912D01*
X2941543D01*
X2943494Y2359683D01*
D02*
G37*
G36*
X2735247Y2338904D02*
X2733066Y2339248D01*
X2732148D01*
X2731344Y2339363D01*
X2730655Y2339478D01*
X2729737D01*
X2727900Y2339593D01*
X2726982Y2339708D01*
X2722964D01*
X2721356Y2339593D01*
X2719864Y2339478D01*
X2718486Y2339248D01*
X2717453Y2339134D01*
X2716764Y2338904D01*
X2716190Y2338789D01*
X2716076D01*
X2714813Y2338445D01*
X2713550Y2337986D01*
X2712517Y2337641D01*
X2711713Y2337182D01*
X2711024Y2336838D01*
X2710565Y2336493D01*
X2710221Y2336378D01*
X2710106Y2336264D01*
X2709302Y2335690D01*
X2708614Y2335001D01*
X2707580Y2333738D01*
X2707236Y2333279D01*
X2707006Y2332820D01*
X2706777Y2332590D01*
Y2332475D01*
X2706088Y2330753D01*
X2705744Y2329146D01*
X2705629Y2328572D01*
Y2327998D01*
Y2327654D01*
Y2327539D01*
X2705744Y2325702D01*
X2706203Y2324210D01*
X2706892Y2322832D01*
X2707580Y2321684D01*
X2708269Y2320766D01*
X2708958Y2320192D01*
X2709417Y2319732D01*
X2709532Y2319618D01*
X2711024Y2318699D01*
X2712746Y2318010D01*
X2714468Y2317551D01*
X2716076Y2317207D01*
X2717568Y2316977D01*
X2718831Y2316862D01*
X2719864D01*
X2722849Y2316977D01*
X2724226Y2317092D01*
X2725604Y2317207D01*
X2726637Y2317322D01*
X2727441Y2317436D01*
X2728015Y2317551D01*
X2728244D01*
X2729737Y2317896D01*
X2731114Y2318240D01*
X2732377Y2318584D01*
X2733410Y2318929D01*
X2734329Y2319273D01*
X2734903Y2319503D01*
X2735362Y2319732D01*
X2735477D01*
X2739610Y2309515D01*
X2736395Y2308482D01*
X2734788Y2308023D01*
X2733296Y2307564D01*
X2732033Y2307334D01*
X2731114Y2307104D01*
X2730426Y2306875D01*
X2730196D01*
X2728244Y2306530D01*
X2726293Y2306301D01*
X2724456Y2306071D01*
X2722849Y2305956D01*
X2721471D01*
X2720438Y2305842D01*
X2719520D01*
X2717338Y2305956D01*
X2715387Y2306071D01*
X2713435Y2306301D01*
X2711828Y2306530D01*
X2710565Y2306760D01*
X2709532Y2306990D01*
X2708843Y2307219D01*
X2708614D01*
X2706777Y2307793D01*
X2705170Y2308482D01*
X2703677Y2309171D01*
X2702300Y2309860D01*
X2701266Y2310434D01*
X2700578Y2310893D01*
X2700004Y2311237D01*
X2699889Y2311352D01*
X2698626Y2312500D01*
X2697478Y2313648D01*
X2696445Y2314796D01*
X2695641Y2315829D01*
X2694952Y2316748D01*
X2694493Y2317551D01*
X2694264Y2318010D01*
X2694149Y2318240D01*
X2693460Y2319847D01*
X2693001Y2321454D01*
X2692542Y2323062D01*
X2692312Y2324669D01*
X2692197Y2325932D01*
X2692082Y2326965D01*
Y2327654D01*
Y2327768D01*
Y2327883D01*
X2692197Y2329720D01*
X2692427Y2331442D01*
X2692771Y2333049D01*
X2693116Y2334656D01*
X2693690Y2336034D01*
X2694264Y2337297D01*
X2694838Y2338445D01*
X2695526Y2339593D01*
X2696215Y2340511D01*
X2696789Y2341315D01*
X2697363Y2342004D01*
X2697937Y2342578D01*
X2698282Y2343037D01*
X2698626Y2343381D01*
X2698856Y2343496D01*
X2698970Y2343611D01*
X2700348Y2344644D01*
X2701840Y2345562D01*
X2703333Y2346251D01*
X2705055Y2346940D01*
X2708499Y2347973D01*
X2711828Y2348662D01*
X2713320Y2348892D01*
X2714813Y2349006D01*
X2716076Y2349236D01*
X2717224D01*
X2718257Y2349351D01*
X2721471D01*
X2719520Y2365652D01*
X2693575D01*
Y2376444D01*
X2731000D01*
X2735247Y2338904D01*
D02*
G37*
G36*
X2983330Y2359798D02*
X2984937Y2359683D01*
X2986430Y2359338D01*
X2987807Y2359109D01*
X2988840Y2358764D01*
X2989759Y2358420D01*
X2990218Y2358305D01*
X2990448Y2358190D01*
X2991940Y2357502D01*
X2993318Y2356698D01*
X2994580Y2355894D01*
X2995614Y2355091D01*
X2996532Y2354402D01*
X2997221Y2353828D01*
X2997680Y2353369D01*
X2997795Y2353254D01*
X2998943Y2351991D01*
X2999976Y2350499D01*
X3000894Y2349121D01*
X3001583Y2347858D01*
X3002157Y2346596D01*
X3002616Y2345677D01*
X3002846Y2345103D01*
X3002961Y2344988D01*
Y2344874D01*
X3003535Y2342922D01*
X3003994Y2340856D01*
X3004338Y2338789D01*
X3004568Y2336952D01*
X3004683Y2335345D01*
X3004798Y2333968D01*
Y2333508D01*
Y2333164D01*
Y2332934D01*
Y2332820D01*
X3004683Y2330294D01*
X3004453Y2327998D01*
X3004224Y2326046D01*
X3003879Y2324324D01*
X3003535Y2322832D01*
X3003190Y2321799D01*
X3003076Y2321110D01*
X3002961Y2320995D01*
Y2320880D01*
X3002157Y2319044D01*
X3001354Y2317436D01*
X3000435Y2315944D01*
X2999632Y2314796D01*
X2998943Y2313763D01*
X2998369Y2312959D01*
X2997910Y2312500D01*
X2997795Y2312385D01*
X2996532Y2311237D01*
X2995269Y2310204D01*
X2994006Y2309400D01*
X2992858Y2308712D01*
X2991940Y2308138D01*
X2991136Y2307793D01*
X2990677Y2307564D01*
X2990448Y2307449D01*
X2988840Y2306875D01*
X2987233Y2306530D01*
X2985856Y2306186D01*
X2984478Y2306071D01*
X2983330Y2305956D01*
X2982526Y2305842D01*
X2981723D01*
X2978853Y2305956D01*
X2976212Y2306416D01*
X2973916Y2306990D01*
X2971850Y2307564D01*
X2970243Y2308252D01*
X2969554Y2308482D01*
X2968980Y2308712D01*
X2968521Y2308941D01*
X2968176Y2309171D01*
X2968062Y2309286D01*
X2967947D01*
X2972080Y2319158D01*
X2973342Y2318355D01*
X2974605Y2317781D01*
X2975868Y2317436D01*
X2977131Y2317207D01*
X2978164Y2316977D01*
X2978968Y2316862D01*
X2979771D01*
X2981378Y2316977D01*
X2982871Y2317322D01*
X2983445Y2317551D01*
X2983904Y2317666D01*
X2984134Y2317781D01*
X2984248D01*
X2985741Y2318699D01*
X2986889Y2319618D01*
X2987348Y2320077D01*
X2987578Y2320421D01*
X2987807Y2320651D01*
X2987922Y2320766D01*
X2988955Y2322488D01*
X2989644Y2324095D01*
X2989988Y2324784D01*
X2990218Y2325358D01*
X2990333Y2325702D01*
Y2325817D01*
X2990907Y2328228D01*
X2991022Y2329490D01*
X2991136Y2330524D01*
X2991251Y2331557D01*
Y2332246D01*
Y2332705D01*
Y2332934D01*
X2991136Y2335804D01*
X2990677Y2338330D01*
X2990218Y2340396D01*
X2989529Y2342118D01*
X2988955Y2343381D01*
X2988381Y2344300D01*
X2988037Y2344874D01*
X2987922Y2345103D01*
X2986659Y2346481D01*
X2985282Y2347399D01*
X2983904Y2348088D01*
X2982641Y2348662D01*
X2981493Y2348892D01*
X2980575Y2349006D01*
X2980001Y2349121D01*
X2979771D01*
X2978164Y2349006D01*
X2976672Y2348777D01*
X2975294Y2348432D01*
X2974146Y2348088D01*
X2973342Y2347629D01*
X2972654Y2347284D01*
X2972194Y2347055D01*
X2972080Y2346940D01*
X2967947Y2356354D01*
X2970243Y2357502D01*
X2972539Y2358420D01*
X2974835Y2358994D01*
X2977016Y2359453D01*
X2978853Y2359683D01*
X2979656Y2359798D01*
X2980345Y2359912D01*
X2981723D01*
X2983330Y2359798D01*
D02*
G37*
G36*
X2854869Y2333508D02*
Y2324095D01*
X2823758D01*
Y2306990D01*
X2811589D01*
Y2324095D01*
X2804701D01*
Y2333508D01*
X2811589D01*
Y2376444D01*
X2825939D01*
X2854869Y2333508D01*
D02*
G37*
G36*
X2877370Y2358190D02*
X2878403Y2358535D01*
X2879551Y2358764D01*
X2880010D01*
X2880354Y2358879D01*
X2880699D01*
X2882191Y2359109D01*
X2883454Y2359224D01*
X2884717D01*
X2886898Y2359109D01*
X2888850Y2358879D01*
X2890686Y2358650D01*
X2892179Y2358305D01*
X2893556Y2357846D01*
X2894475Y2357616D01*
X2895049Y2357387D01*
X2895278Y2357272D01*
X2896886Y2356468D01*
X2898378Y2355550D01*
X2899641Y2354632D01*
X2900789Y2353828D01*
X2901592Y2353024D01*
X2902281Y2352336D01*
X2902740Y2351876D01*
X2902855Y2351762D01*
X2903888Y2350384D01*
X2904922Y2349006D01*
X2905610Y2347629D01*
X2906299Y2346251D01*
X2906758Y2345103D01*
X2907218Y2344185D01*
X2907332Y2343611D01*
X2907447Y2343496D01*
Y2343381D01*
X2907906Y2341544D01*
X2908251Y2339593D01*
X2908595Y2337756D01*
X2908710Y2336034D01*
X2908825Y2334656D01*
X2908940Y2333508D01*
Y2333049D01*
Y2332705D01*
Y2332590D01*
Y2332475D01*
X2908825Y2330179D01*
X2908710Y2327998D01*
X2908366Y2325932D01*
X2907906Y2324095D01*
X2907447Y2322373D01*
X2906873Y2320766D01*
X2906299Y2319273D01*
X2905610Y2317896D01*
X2905036Y2316748D01*
X2904462Y2315714D01*
X2903888Y2314911D01*
X2903429Y2314107D01*
X2902970Y2313533D01*
X2902626Y2313189D01*
X2902511Y2312959D01*
X2902396Y2312844D01*
X2901133Y2311582D01*
X2899641Y2310548D01*
X2898148Y2309630D01*
X2896541Y2308826D01*
X2894934Y2308138D01*
X2893327Y2307564D01*
X2890227Y2306760D01*
X2888850Y2306416D01*
X2887472Y2306186D01*
X2886209Y2306071D01*
X2885176Y2305956D01*
X2884372Y2305842D01*
X2880928D01*
X2878862Y2306071D01*
X2877025Y2306186D01*
X2875303Y2306416D01*
X2874040Y2306645D01*
X2873007Y2306760D01*
X2872318Y2306990D01*
X2872089D01*
X2870252Y2307449D01*
X2868760Y2307793D01*
X2867382Y2308252D01*
X2866234Y2308597D01*
X2865316Y2308941D01*
X2864742Y2309286D01*
X2864282Y2309400D01*
X2864168Y2309515D01*
Y2382413D01*
X2877370D01*
Y2358190D01*
D02*
G37*
G36*
X2577971Y2377592D02*
X2580038Y2377247D01*
X2581874Y2376788D01*
X2583482Y2376329D01*
X2584744Y2375870D01*
X2585778Y2375410D01*
X2586352Y2375066D01*
X2586581Y2374951D01*
X2588188Y2373803D01*
X2589681Y2372540D01*
X2590944Y2371278D01*
X2591977Y2370130D01*
X2592895Y2368982D01*
X2593469Y2368063D01*
X2593928Y2367489D01*
X2594043Y2367374D01*
Y2367260D01*
X2595076Y2365423D01*
X2595880Y2363471D01*
X2596684Y2361520D01*
X2597258Y2359798D01*
X2597717Y2358190D01*
X2598061Y2357042D01*
X2598176Y2356583D01*
Y2356239D01*
X2598291Y2356009D01*
Y2355894D01*
X2598750Y2353369D01*
X2599094Y2350958D01*
X2599324Y2348547D01*
X2599439Y2346366D01*
X2599554Y2344529D01*
X2599668Y2343726D01*
Y2343037D01*
Y2342463D01*
Y2342118D01*
Y2341889D01*
Y2341774D01*
X2599554Y2338904D01*
X2599439Y2336264D01*
X2599209Y2333853D01*
X2598980Y2331786D01*
X2598750Y2330064D01*
X2598635Y2329261D01*
X2598520Y2328687D01*
X2598406Y2328228D01*
X2598291Y2327883D01*
Y2327654D01*
Y2327539D01*
X2597717Y2325128D01*
X2597028Y2322947D01*
X2596339Y2320995D01*
X2595650Y2319388D01*
X2595076Y2318010D01*
X2594502Y2316977D01*
X2594158Y2316288D01*
X2594043Y2316174D01*
Y2316059D01*
X2592895Y2314337D01*
X2591632Y2312844D01*
X2590370Y2311582D01*
X2589222Y2310434D01*
X2588188Y2309630D01*
X2587385Y2308941D01*
X2586811Y2308597D01*
X2586581Y2308482D01*
X2584744Y2307564D01*
X2582908Y2306990D01*
X2581071Y2306530D01*
X2579349Y2306186D01*
X2577856Y2305956D01*
X2576708Y2305842D01*
X2575675D01*
X2573379Y2305956D01*
X2571313Y2306301D01*
X2569476Y2306645D01*
X2567869Y2307219D01*
X2566606Y2307678D01*
X2565573Y2308023D01*
X2564999Y2308367D01*
X2564769Y2308482D01*
X2563162Y2309630D01*
X2561670Y2310778D01*
X2560407Y2312041D01*
X2559259Y2313304D01*
X2558455Y2314337D01*
X2557766Y2315255D01*
X2557422Y2315829D01*
X2557307Y2316059D01*
X2556274Y2318010D01*
X2555470Y2319962D01*
X2554667Y2321914D01*
X2554093Y2323636D01*
X2553634Y2325243D01*
X2553289Y2326391D01*
X2553174Y2326850D01*
Y2327194D01*
X2553060Y2327424D01*
Y2327539D01*
X2552600Y2330064D01*
X2552256Y2332475D01*
X2552026Y2334886D01*
X2551797Y2337067D01*
Y2339019D01*
X2551682Y2339822D01*
Y2340511D01*
Y2340970D01*
Y2341430D01*
Y2341659D01*
Y2341774D01*
Y2344529D01*
X2551912Y2347170D01*
X2552141Y2349580D01*
X2552371Y2351647D01*
X2552600Y2353484D01*
X2552715Y2354172D01*
X2552830Y2354746D01*
X2552945Y2355206D01*
Y2355550D01*
X2553060Y2355780D01*
Y2355894D01*
X2553634Y2358305D01*
X2554322Y2360486D01*
X2555011Y2362323D01*
X2555700Y2364045D01*
X2556274Y2365423D01*
X2556848Y2366456D01*
X2557192Y2367030D01*
X2557307Y2367260D01*
X2558455Y2368982D01*
X2559718Y2370589D01*
X2560981Y2371852D01*
X2562129Y2373000D01*
X2563162Y2373803D01*
X2563966Y2374492D01*
X2564540Y2374836D01*
X2564769Y2374951D01*
X2566606Y2375870D01*
X2568443Y2376558D01*
X2570280Y2377018D01*
X2571887Y2377362D01*
X2573379Y2377592D01*
X2574642Y2377706D01*
X2575675D01*
X2577971Y2377592D01*
D02*
G37*
%LPC*%
G36*
X2988553Y2531309D02*
X2987750D01*
X2986028Y2531194D01*
X2984650Y2530850D01*
X2983387Y2530390D01*
X2982354Y2529816D01*
X2981436Y2529242D01*
X2980862Y2528783D01*
X2980517Y2528439D01*
X2980403Y2528324D01*
X2979484Y2527176D01*
X2978910Y2525798D01*
X2978451Y2524306D01*
X2978107Y2522928D01*
X2977877Y2521551D01*
X2977762Y2520518D01*
Y2519829D01*
Y2519714D01*
Y2519599D01*
X2999574Y2516614D01*
X2999345Y2519140D01*
X2998885Y2521321D01*
X2998426Y2523273D01*
X2997737Y2524765D01*
X2997163Y2526028D01*
X2996589Y2526832D01*
X2996245Y2527406D01*
X2996130Y2527520D01*
X2994867Y2528783D01*
X2993490Y2529702D01*
X2992112Y2530390D01*
X2990735Y2530850D01*
X2989587Y2531079D01*
X2988553Y2531309D01*
D02*
G37*
G36*
X2827604D02*
X2826800D01*
X2825078Y2531194D01*
X2823701Y2530850D01*
X2822438Y2530390D01*
X2821405Y2529816D01*
X2820486Y2529242D01*
X2819912Y2528783D01*
X2819568Y2528439D01*
X2819453Y2528324D01*
X2818535Y2527176D01*
X2817961Y2525798D01*
X2817501Y2524306D01*
X2817157Y2522928D01*
X2816927Y2521551D01*
X2816813Y2520518D01*
Y2519829D01*
Y2519714D01*
Y2519599D01*
X2838625Y2516614D01*
X2838395Y2519140D01*
X2837936Y2521321D01*
X2837477Y2523273D01*
X2836788Y2524765D01*
X2836214Y2526028D01*
X2835640Y2526832D01*
X2835295Y2527406D01*
X2835181Y2527520D01*
X2833918Y2528783D01*
X2832540Y2529702D01*
X2831163Y2530390D01*
X2829785Y2530850D01*
X2828637Y2531079D01*
X2827604Y2531309D01*
D02*
G37*
G36*
X2773189D02*
X2772385D01*
X2770663Y2531194D01*
X2769285Y2530850D01*
X2768023Y2530390D01*
X2766989Y2529816D01*
X2766071Y2529242D01*
X2765497Y2528783D01*
X2765153Y2528439D01*
X2765038Y2528324D01*
X2764119Y2527176D01*
X2763545Y2525798D01*
X2763086Y2524306D01*
X2762742Y2522928D01*
X2762512Y2521551D01*
X2762397Y2520518D01*
Y2519829D01*
Y2519714D01*
Y2519599D01*
X2784209Y2516614D01*
X2783980Y2519140D01*
X2783521Y2521321D01*
X2783061Y2523273D01*
X2782373Y2524765D01*
X2781799Y2526028D01*
X2781225Y2526832D01*
X2780880Y2527406D01*
X2780765Y2527520D01*
X2779503Y2528783D01*
X2778125Y2529702D01*
X2776747Y2530390D01*
X2775370Y2530850D01*
X2774222Y2531079D01*
X2773189Y2531309D01*
D02*
G37*
G36*
X2664129D02*
X2663325D01*
X2661603Y2531194D01*
X2660225Y2530850D01*
X2658963Y2530390D01*
X2657929Y2529816D01*
X2657011Y2529242D01*
X2656437Y2528783D01*
X2656093Y2528439D01*
X2655978Y2528324D01*
X2655059Y2527176D01*
X2654485Y2525798D01*
X2654026Y2524306D01*
X2653682Y2522928D01*
X2653452Y2521551D01*
X2653337Y2520518D01*
Y2519829D01*
Y2519714D01*
Y2519599D01*
X2675149Y2516614D01*
X2674920Y2519140D01*
X2674461Y2521321D01*
X2674001Y2523273D01*
X2673313Y2524765D01*
X2672739Y2526028D01*
X2672165Y2526832D01*
X2671820Y2527406D01*
X2671705Y2527520D01*
X2670443Y2528783D01*
X2669065Y2529702D01*
X2667687Y2530390D01*
X2666310Y2530850D01*
X2665162Y2531079D01*
X2664129Y2531309D01*
D02*
G37*
G36*
X3182565Y2548184D02*
X3181303D01*
X3178892Y2548070D01*
X3176825Y2547725D01*
X3175103Y2547151D01*
X3173496Y2546348D01*
X3172233Y2545429D01*
X3171200Y2544396D01*
X3170282Y2543363D01*
X3169593Y2542330D01*
X3169019Y2541182D01*
X3168560Y2540148D01*
X3168330Y2539115D01*
X3168101Y2538197D01*
X3167986Y2537508D01*
X3167871Y2536819D01*
Y2536475D01*
Y2536360D01*
X3167986Y2534409D01*
X3168445Y2532686D01*
X3169019Y2531194D01*
X3169708Y2530046D01*
X3170511Y2529013D01*
X3171085Y2528324D01*
X3171545Y2527865D01*
X3171659Y2527750D01*
X3173152Y2526717D01*
X3174874Y2525913D01*
X3176711Y2525454D01*
X3178433Y2524995D01*
X3180040Y2524765D01*
X3181417Y2524651D01*
X3183828D01*
X3184976Y2524765D01*
X3185895D01*
X3186813Y2524880D01*
X3187387Y2524995D01*
X3187961D01*
X3188191Y2525110D01*
X3188305D01*
Y2547151D01*
X3187272Y2547496D01*
X3186239Y2547725D01*
X3185895D01*
X3185550Y2547840D01*
X3185206D01*
X3183713Y2548070D01*
X3182565Y2548184D01*
D02*
G37*
G36*
X2484007Y2545888D02*
X2483778D01*
Y2545544D01*
Y2545200D01*
Y2544052D01*
X2483893Y2543592D01*
Y2543133D01*
Y2542789D01*
Y2542674D01*
X2484007Y2540722D01*
Y2539689D01*
Y2538771D01*
Y2537967D01*
Y2537393D01*
Y2536934D01*
Y2536819D01*
Y2514433D01*
X2504212D01*
X2488485Y2537967D01*
X2488025Y2538656D01*
X2487566Y2539345D01*
X2487337Y2539804D01*
X2487222Y2540034D01*
X2486763Y2540952D01*
X2486303Y2541756D01*
X2485959Y2542215D01*
X2485844Y2542444D01*
X2485385Y2543248D01*
X2485041Y2543937D01*
X2484811Y2544396D01*
X2484696Y2544511D01*
X2484352Y2545085D01*
X2484122Y2545544D01*
X2484007Y2545773D01*
Y2545888D01*
D02*
G37*
G36*
X3124132Y2530505D02*
X3123903D01*
X3122066Y2530276D01*
X3120573Y2529816D01*
X3119196Y2529128D01*
X3118163Y2528324D01*
X3117244Y2527406D01*
X3116670Y2526717D01*
X3116326Y2526258D01*
X3116211Y2526028D01*
X3115293Y2524306D01*
X3114719Y2522240D01*
X3114259Y2520288D01*
X3113915Y2518336D01*
X3113685Y2516614D01*
Y2515811D01*
X3113571Y2515122D01*
Y2514663D01*
Y2514204D01*
Y2513974D01*
Y2513859D01*
X3113685Y2511104D01*
X3114030Y2508693D01*
X3114374Y2506627D01*
X3114833Y2504905D01*
X3115407Y2503527D01*
X3115752Y2502494D01*
X3116096Y2501920D01*
X3116211Y2501690D01*
X3117244Y2500198D01*
X3118507Y2499165D01*
X3119770Y2498361D01*
X3121033Y2497902D01*
X3122181Y2497558D01*
X3123099Y2497443D01*
X3123673Y2497328D01*
X3123903D01*
X3125739Y2497558D01*
X3127347Y2498017D01*
X3128609Y2498706D01*
X3129757Y2499509D01*
X3130561Y2500313D01*
X3131250Y2501002D01*
X3131594Y2501461D01*
X3131709Y2501691D01*
X3132627Y2503527D01*
X3133201Y2505479D01*
X3133661Y2507545D01*
X3134005Y2509497D01*
X3134235Y2511219D01*
Y2511908D01*
X3134349Y2512597D01*
Y2513171D01*
Y2513515D01*
Y2513744D01*
Y2513859D01*
X3134235Y2516615D01*
X3133890Y2519025D01*
X3133546Y2521092D01*
X3132972Y2522928D01*
X3132513Y2524191D01*
X3132168Y2525224D01*
X3131824Y2525798D01*
X3131709Y2526028D01*
X3130561Y2527521D01*
X3129413Y2528669D01*
X3128035Y2529472D01*
X3126773Y2529931D01*
X3125625Y2530276D01*
X3124706Y2530390D01*
X3124132Y2530505D01*
D02*
G37*
G36*
X2716707Y2530276D02*
X2714870D01*
X2713722Y2530161D01*
X2713378Y2530046D01*
X2713033D01*
X2712804Y2529931D01*
X2712689D01*
X2711541Y2529702D01*
X2710623Y2529472D01*
X2710163Y2529357D01*
X2710049Y2529242D01*
Y2498017D01*
X2710852Y2497672D01*
X2711656Y2497443D01*
X2712345Y2497328D01*
X2712574Y2497213D01*
X2712689D01*
X2713952Y2497098D01*
X2715100Y2496984D01*
X2716133D01*
X2718199Y2497213D01*
X2720151Y2497672D01*
X2721643Y2498361D01*
X2723021Y2499165D01*
X2724054Y2499968D01*
X2724858Y2500657D01*
X2725317Y2501116D01*
X2725432Y2501346D01*
X2726465Y2503183D01*
X2727269Y2505134D01*
X2727843Y2507201D01*
X2728187Y2509152D01*
X2728417Y2510874D01*
X2728531Y2511678D01*
X2728646Y2512367D01*
Y2512826D01*
Y2513285D01*
Y2513515D01*
Y2513630D01*
X2728531Y2516270D01*
X2728187Y2518566D01*
X2727613Y2520632D01*
X2727039Y2522354D01*
X2726465Y2523732D01*
X2725891Y2524765D01*
X2725547Y2525339D01*
X2725432Y2525569D01*
X2724054Y2527176D01*
X2722562Y2528324D01*
X2721069Y2529128D01*
X2719577Y2529702D01*
X2718199Y2530046D01*
X2717166Y2530161D01*
X2716707Y2530276D01*
D02*
G37*
G36*
X2266347Y2548184D02*
X2265887D01*
X2264854Y2548070D01*
X2263936Y2547955D01*
X2263017Y2547610D01*
X2262329Y2547266D01*
X2261755Y2546921D01*
X2261295Y2546692D01*
X2261066Y2546462D01*
X2260951Y2546347D01*
X2260262Y2545544D01*
X2259573Y2544740D01*
X2258540Y2543018D01*
X2258081Y2542215D01*
X2257851Y2541641D01*
X2257622Y2541182D01*
Y2541067D01*
X2257163Y2539804D01*
X2256818Y2538426D01*
X2256474Y2537049D01*
X2256244Y2535786D01*
X2256015Y2534753D01*
X2255900Y2533834D01*
X2255785Y2533260D01*
Y2533031D01*
X2255326Y2529472D01*
X2255211Y2527750D01*
Y2526143D01*
X2255096Y2524765D01*
Y2523617D01*
Y2522928D01*
Y2522814D01*
Y2522699D01*
Y2520632D01*
X2255211Y2518681D01*
X2255326Y2516959D01*
X2255441Y2515466D01*
X2255555Y2514204D01*
X2255670Y2513170D01*
X2255785Y2512596D01*
Y2512367D01*
X2256015Y2510760D01*
X2256359Y2509152D01*
X2256589Y2507775D01*
X2256933Y2506627D01*
X2257163Y2505708D01*
X2257392Y2504905D01*
X2257507Y2504445D01*
X2257622Y2504331D01*
X2258081Y2503183D01*
X2258655Y2502149D01*
X2259229Y2501231D01*
X2259803Y2500542D01*
X2260262Y2499968D01*
X2260607Y2499509D01*
X2260836Y2499280D01*
X2260951Y2499165D01*
X2261755Y2498591D01*
X2262558Y2498131D01*
X2263362Y2497787D01*
X2264165Y2497557D01*
X2264854Y2497443D01*
X2265428Y2497328D01*
X2265887D01*
X2266921Y2497443D01*
X2267839Y2497672D01*
X2268757Y2497902D01*
X2269446Y2498246D01*
X2270020Y2498591D01*
X2270479Y2498935D01*
X2270709Y2499050D01*
X2270824Y2499165D01*
X2271513Y2499968D01*
X2272201Y2500772D01*
X2273349Y2502494D01*
X2273694Y2503183D01*
X2274038Y2503757D01*
X2274153Y2504216D01*
X2274268Y2504331D01*
X2275071Y2507086D01*
X2275416Y2508349D01*
X2275645Y2509611D01*
X2275875Y2510760D01*
X2275990Y2511563D01*
X2276105Y2512137D01*
Y2512367D01*
X2276449Y2515925D01*
X2276564Y2517762D01*
Y2519255D01*
X2276679Y2520632D01*
Y2521780D01*
Y2522469D01*
Y2522584D01*
Y2522699D01*
Y2524765D01*
X2276564Y2526717D01*
X2276449Y2528439D01*
X2276334Y2530046D01*
Y2531309D01*
X2276219Y2532227D01*
X2276105Y2532801D01*
Y2533031D01*
X2275875Y2534753D01*
X2275531Y2536245D01*
X2275301Y2537623D01*
X2274957Y2538771D01*
X2274727Y2539804D01*
X2274497Y2540493D01*
X2274268Y2540952D01*
Y2541067D01*
X2273694Y2542329D01*
X2273120Y2543363D01*
X2272546Y2544281D01*
X2271972Y2544970D01*
X2271513Y2545544D01*
X2271168Y2546003D01*
X2270939Y2546233D01*
X2270824Y2546347D01*
X2270020Y2546921D01*
X2269217Y2547381D01*
X2268298Y2547725D01*
X2267609Y2547955D01*
X2266921Y2548070D01*
X2266347Y2548184D01*
D02*
G37*
G36*
X3021214Y2439813D02*
X3020066D01*
X3018114Y2439584D01*
X3016278Y2439124D01*
X3014785Y2438436D01*
X3013637Y2437747D01*
X3012604Y2436943D01*
X3011915Y2436254D01*
X3011456Y2435795D01*
X3011341Y2435566D01*
X3010308Y2433844D01*
X3009504Y2431892D01*
X3008930Y2429940D01*
X3008471Y2427989D01*
X3008242Y2426267D01*
Y2425578D01*
X3008127Y2424889D01*
Y2424315D01*
Y2423971D01*
Y2423741D01*
Y2423626D01*
X3008242Y2420642D01*
X3008701Y2418001D01*
X3009160Y2415820D01*
X3009849Y2413983D01*
X3010423Y2412606D01*
X3010997Y2411572D01*
X3011456Y2410998D01*
X3011571Y2410769D01*
X3012948Y2409391D01*
X3014441Y2408358D01*
X3015933Y2407554D01*
X3017311Y2407095D01*
X3018688Y2406751D01*
X3019722Y2406636D01*
X3020410Y2406521D01*
X3021903D01*
X3023051Y2406636D01*
X3023510D01*
X3023854Y2406751D01*
X3024084D01*
X3025117Y2406980D01*
X3026036Y2407325D01*
X3026495Y2407440D01*
X3026724Y2407554D01*
Y2438550D01*
X3025691Y2438895D01*
X3024773Y2439239D01*
X3023969Y2439354D01*
X3023854Y2439469D01*
X3023740D01*
X3022362Y2439698D01*
X3021214Y2439813D01*
D02*
G37*
G36*
X3179753Y2422364D02*
X3179179D01*
Y2406636D01*
X3180097Y2406292D01*
X3181130Y2406062D01*
X3181590Y2405947D01*
X3182049D01*
X3182278Y2405832D01*
X3182393D01*
X3183886Y2405718D01*
X3185263Y2405603D01*
X3186526D01*
X3188363Y2405718D01*
X3189970Y2405947D01*
X3191348Y2406177D01*
X3192496Y2406636D01*
X3193414Y2406981D01*
X3193988Y2407210D01*
X3194447Y2407440D01*
X3194562Y2407555D01*
X3195480Y2408358D01*
X3196054Y2409276D01*
X3196514Y2410310D01*
X3196858Y2411228D01*
X3197088Y2412032D01*
X3197202Y2412720D01*
Y2413180D01*
Y2413294D01*
X3197088Y2414328D01*
X3196973Y2415246D01*
X3196743Y2416050D01*
X3196399Y2416624D01*
X3196169Y2417198D01*
X3195940Y2417542D01*
X3195825Y2417772D01*
X3195710Y2417887D01*
X3194447Y2419035D01*
X3193184Y2419838D01*
X3192610Y2420182D01*
X3192151Y2420412D01*
X3191922Y2420527D01*
X3191807D01*
X3189855Y2421216D01*
X3188133Y2421560D01*
X3187330Y2421675D01*
X3186756Y2421790D01*
X3186182D01*
X3183656Y2422019D01*
X3182508Y2422134D01*
X3181475Y2422249D01*
X3180556D01*
X3179753Y2422364D01*
D02*
G37*
G36*
X2698511Y2422364D02*
X2697937D01*
Y2406636D01*
X2698856Y2406292D01*
X2699889Y2406062D01*
X2700348Y2405947D01*
X2700807D01*
X2701037Y2405832D01*
X2701152D01*
X2702644Y2405718D01*
X2704022Y2405603D01*
X2705284D01*
X2707121Y2405718D01*
X2708728Y2405947D01*
X2710106Y2406177D01*
X2711254Y2406636D01*
X2712172Y2406980D01*
X2712746Y2407210D01*
X2713206Y2407440D01*
X2713320Y2407554D01*
X2714239Y2408358D01*
X2714813Y2409276D01*
X2715272Y2410310D01*
X2715616Y2411228D01*
X2715846Y2412032D01*
X2715961Y2412720D01*
Y2413180D01*
Y2413294D01*
X2715846Y2414328D01*
X2715731Y2415246D01*
X2715502Y2416050D01*
X2715157Y2416624D01*
X2714928Y2417198D01*
X2714698Y2417542D01*
X2714583Y2417772D01*
X2714468Y2417886D01*
X2713206Y2419034D01*
X2711943Y2419838D01*
X2711369Y2420182D01*
X2710910Y2420412D01*
X2710680Y2420527D01*
X2710565D01*
X2708614Y2421216D01*
X2706892Y2421560D01*
X2706088Y2421675D01*
X2705514Y2421790D01*
X2704940D01*
X2702414Y2422019D01*
X2701266Y2422134D01*
X2700233Y2422249D01*
X2699315D01*
X2698511Y2422364D01*
D02*
G37*
G36*
X3240482Y2440847D02*
X3239678D01*
X3237956Y2440732D01*
X3236579Y2440387D01*
X3235316Y2439928D01*
X3234283Y2439354D01*
X3233364Y2438780D01*
X3232790Y2438321D01*
X3232446Y2437977D01*
X3232331Y2437862D01*
X3231413Y2436714D01*
X3230839Y2435336D01*
X3230380Y2433844D01*
X3230035Y2432466D01*
X3229806Y2431088D01*
X3229691Y2430055D01*
Y2429367D01*
Y2429252D01*
Y2429137D01*
X3251503Y2426152D01*
X3251273Y2428678D01*
X3250814Y2430859D01*
X3250355Y2432811D01*
X3249666Y2434303D01*
X3249092Y2435566D01*
X3248518Y2436369D01*
X3248174Y2436943D01*
X3248059Y2437058D01*
X3246796Y2438321D01*
X3245418Y2439239D01*
X3244041Y2439928D01*
X3242663Y2440387D01*
X3241515Y2440617D01*
X3240482Y2440847D01*
D02*
G37*
G36*
X2819051Y2440846D02*
X2818248D01*
X2816526Y2440732D01*
X2815148Y2440387D01*
X2813885Y2439928D01*
X2812852Y2439354D01*
X2811934Y2438780D01*
X2811360Y2438321D01*
X2811015Y2437976D01*
X2810900Y2437862D01*
X2809982Y2436714D01*
X2809408Y2435336D01*
X2808949Y2433844D01*
X2808604Y2432466D01*
X2808375Y2431088D01*
X2808260Y2430055D01*
Y2429366D01*
Y2429252D01*
Y2429137D01*
X2830072Y2426152D01*
X2829842Y2428678D01*
X2829383Y2430859D01*
X2828924Y2432810D01*
X2828235Y2434303D01*
X2827661Y2435566D01*
X2827087Y2436369D01*
X2826743Y2436943D01*
X2826628Y2437058D01*
X2825365Y2438321D01*
X2823988Y2439239D01*
X2822610Y2439928D01*
X2821232Y2440387D01*
X2820084Y2440617D01*
X2819051Y2440846D01*
D02*
G37*
G36*
X2372938Y2457722D02*
X2371676D01*
X2369265Y2457607D01*
X2367198Y2457263D01*
X2365476Y2456689D01*
X2363869Y2455885D01*
X2362606Y2454967D01*
X2361573Y2453934D01*
X2360655Y2452900D01*
X2359966Y2451867D01*
X2359392Y2450719D01*
X2358933Y2449686D01*
X2358703Y2448653D01*
X2358474Y2447734D01*
X2358359Y2447046D01*
X2358244Y2446357D01*
Y2446012D01*
Y2445898D01*
X2358359Y2443946D01*
X2358818Y2442224D01*
X2359392Y2440731D01*
X2360081Y2439584D01*
X2360884Y2438550D01*
X2361458Y2437861D01*
X2361918Y2437402D01*
X2362032Y2437287D01*
X2363525Y2436254D01*
X2365247Y2435451D01*
X2367084Y2434992D01*
X2368806Y2434532D01*
X2370413Y2434303D01*
X2371790Y2434188D01*
X2374201D01*
X2375349Y2434303D01*
X2376268D01*
X2377186Y2434418D01*
X2377760Y2434532D01*
X2378334D01*
X2378564Y2434647D01*
X2378678D01*
Y2456689D01*
X2377645Y2457033D01*
X2376612Y2457263D01*
X2376268D01*
X2375923Y2457378D01*
X2375579D01*
X2374086Y2457607D01*
X2372938Y2457722D01*
D02*
G37*
G36*
X2231734D02*
X2230472D01*
X2228061Y2457607D01*
X2225994Y2457263D01*
X2224272Y2456689D01*
X2222665Y2455885D01*
X2221402Y2454967D01*
X2220369Y2453934D01*
X2219451Y2452900D01*
X2218762Y2451867D01*
X2218188Y2450719D01*
X2217729Y2449686D01*
X2217499Y2448653D01*
X2217270Y2447734D01*
X2217155Y2447046D01*
X2217040Y2446357D01*
Y2446012D01*
Y2445898D01*
X2217155Y2443946D01*
X2217614Y2442224D01*
X2218188Y2440731D01*
X2218877Y2439584D01*
X2219680Y2438550D01*
X2220254Y2437861D01*
X2220714Y2437402D01*
X2220828Y2437287D01*
X2222321Y2436254D01*
X2224043Y2435451D01*
X2225880Y2434992D01*
X2227602Y2434532D01*
X2229209Y2434303D01*
X2230586Y2434188D01*
X2232997D01*
X2234145Y2434303D01*
X2235064D01*
X2235982Y2434418D01*
X2236556Y2434532D01*
X2237130D01*
X2237360Y2434647D01*
X2237474D01*
Y2456689D01*
X2236441Y2457033D01*
X2235408Y2457263D01*
X2235064D01*
X2234719Y2457378D01*
X2234375D01*
X2232882Y2457607D01*
X2231734Y2457722D01*
D02*
G37*
G36*
X2469944Y2457837D02*
X2468567D01*
X2466156Y2457722D01*
X2464204Y2457378D01*
X2462482Y2457033D01*
X2461105Y2456574D01*
X2460072Y2456000D01*
X2459268Y2455655D01*
X2458809Y2455311D01*
X2458694Y2455196D01*
X2457661Y2454163D01*
X2456857Y2452900D01*
X2456283Y2451752D01*
X2455824Y2450490D01*
X2455594Y2449456D01*
X2455480Y2448653D01*
Y2448079D01*
Y2447849D01*
X2455594Y2446012D01*
X2455709Y2445209D01*
X2455939Y2444520D01*
X2456054Y2443946D01*
X2456283Y2443487D01*
X2456398Y2443257D01*
Y2443142D01*
X2457202Y2441765D01*
X2457890Y2440731D01*
X2458579Y2440043D01*
X2458694Y2439928D01*
X2458809Y2439813D01*
X2460072Y2439010D01*
X2461220Y2438550D01*
X2461794Y2438321D01*
X2462138Y2438206D01*
X2462368Y2438091D01*
X2462482D01*
X2463286Y2437861D01*
X2464204Y2437747D01*
X2466041Y2437632D01*
X2466845Y2437517D01*
X2476603D01*
Y2456689D01*
X2475570Y2457033D01*
X2474422Y2457263D01*
X2473962Y2457378D01*
X2473503Y2457492D01*
X2473159D01*
X2471437Y2457722D01*
X2469944Y2457837D01*
D02*
G37*
G36*
X2476603Y2427989D02*
X2466615D01*
X2465467Y2427874D01*
X2464549Y2427759D01*
X2463745D01*
X2463056Y2427644D01*
X2462597Y2427530D01*
X2462368Y2427415D01*
X2462253D01*
X2460760Y2426956D01*
X2459612Y2426381D01*
X2459153Y2426037D01*
X2458809Y2425922D01*
X2458579Y2425693D01*
X2458464D01*
X2456972Y2424545D01*
X2455939Y2423282D01*
X2455135Y2421904D01*
X2454676Y2420412D01*
X2454332Y2419149D01*
X2454217Y2418116D01*
X2454102Y2417427D01*
Y2417312D01*
Y2417198D01*
X2454217Y2415361D01*
X2454676Y2413639D01*
X2455480Y2412261D01*
X2456283Y2410998D01*
X2457431Y2409965D01*
X2458694Y2409162D01*
X2459957Y2408473D01*
X2461220Y2407899D01*
X2462597Y2407439D01*
X2463860Y2407095D01*
X2465123Y2406865D01*
X2466156Y2406636D01*
X2467074D01*
X2467878Y2406521D01*
X2468452D01*
X2470059Y2406636D01*
X2471552Y2406751D01*
X2472126D01*
X2472585Y2406865D01*
X2472929D01*
X2474422Y2407095D01*
X2475570Y2407439D01*
X2476029Y2407554D01*
X2476373D01*
X2476488Y2407669D01*
X2476603D01*
Y2427989D01*
D02*
G37*
G36*
X2316801Y2456689D02*
X2314161D01*
X2312898Y2456459D01*
X2311750Y2456229D01*
X2310832Y2456000D01*
X2310028Y2455770D01*
X2309454Y2455541D01*
X2308995Y2455426D01*
X2308880Y2455311D01*
X2307732Y2454737D01*
X2306699Y2454048D01*
X2305895Y2453360D01*
X2305092Y2452671D01*
X2304403Y2451982D01*
X2303944Y2451408D01*
X2303714Y2451064D01*
X2303599Y2450949D01*
X2302796Y2449801D01*
X2302107Y2448538D01*
X2301533Y2447160D01*
X2301074Y2446012D01*
X2300729Y2444864D01*
X2300500Y2444061D01*
X2300270Y2443487D01*
Y2443257D01*
X2299811Y2441420D01*
X2299581Y2439584D01*
X2299352Y2437747D01*
X2299122Y2436025D01*
Y2434532D01*
X2299007Y2433269D01*
Y2432810D01*
Y2432581D01*
Y2432351D01*
Y2432236D01*
Y2429825D01*
X2299237Y2427759D01*
X2299352Y2425807D01*
X2299581Y2424200D01*
X2299811Y2422823D01*
X2300040Y2421789D01*
X2300155Y2421215D01*
X2300270Y2420986D01*
X2300729Y2419379D01*
X2301303Y2417886D01*
X2301877Y2416624D01*
X2302336Y2415476D01*
X2302796Y2414557D01*
X2303255Y2413983D01*
X2303484Y2413524D01*
X2303599Y2413409D01*
X2304403Y2412376D01*
X2305321Y2411457D01*
X2306240Y2410769D01*
X2307043Y2410080D01*
X2307732Y2409621D01*
X2308306Y2409276D01*
X2308765Y2409162D01*
X2308880Y2409047D01*
X2310028Y2408588D01*
X2311176Y2408243D01*
X2312209Y2408014D01*
X2313242Y2407899D01*
X2314161Y2407784D01*
X2314850Y2407669D01*
X2316916D01*
X2318179Y2407784D01*
X2319327Y2408014D01*
X2320130Y2408128D01*
X2320819Y2408358D01*
X2321393Y2408473D01*
X2321623Y2408588D01*
X2321738D01*
Y2455770D01*
X2320819Y2456115D01*
X2319786Y2456344D01*
X2317720Y2456574D01*
X2316801Y2456689D01*
D02*
G37*
G36*
X2124282Y2457837D02*
X2122904D01*
X2120493Y2457722D01*
X2118542Y2457378D01*
X2116820Y2457033D01*
X2115442Y2456574D01*
X2114409Y2456000D01*
X2113605Y2455655D01*
X2113146Y2455311D01*
X2113031Y2455196D01*
X2111998Y2454163D01*
X2111194Y2452900D01*
X2110620Y2451752D01*
X2110161Y2450490D01*
X2109932Y2449456D01*
X2109817Y2448653D01*
Y2448079D01*
Y2447849D01*
X2109932Y2446012D01*
X2110046Y2445209D01*
X2110276Y2444520D01*
X2110391Y2443946D01*
X2110620Y2443487D01*
X2110735Y2443257D01*
Y2443142D01*
X2111539Y2441765D01*
X2112228Y2440731D01*
X2112916Y2440043D01*
X2113031Y2439928D01*
X2113146Y2439813D01*
X2114409Y2439010D01*
X2115557Y2438550D01*
X2116131Y2438321D01*
X2116475Y2438206D01*
X2116705Y2438091D01*
X2116820D01*
X2117623Y2437861D01*
X2118542Y2437747D01*
X2120378Y2437632D01*
X2121182Y2437517D01*
X2130940D01*
Y2456689D01*
X2129907Y2457033D01*
X2128759Y2457263D01*
X2128300Y2457378D01*
X2127840Y2457492D01*
X2127496D01*
X2125774Y2457722D01*
X2124282Y2457837D01*
D02*
G37*
G36*
X2130940Y2427989D02*
X2120952D01*
X2119804Y2427874D01*
X2118886Y2427759D01*
X2118082D01*
X2117394Y2427644D01*
X2116934Y2427530D01*
X2116705Y2427415D01*
X2116590D01*
X2115098Y2426956D01*
X2113950Y2426381D01*
X2113490Y2426037D01*
X2113146Y2425922D01*
X2112916Y2425693D01*
X2112802D01*
X2111309Y2424545D01*
X2110276Y2423282D01*
X2109472Y2421904D01*
X2109013Y2420412D01*
X2108669Y2419149D01*
X2108554Y2418116D01*
X2108439Y2417427D01*
Y2417312D01*
Y2417198D01*
X2108554Y2415361D01*
X2109013Y2413639D01*
X2109817Y2412261D01*
X2110620Y2410998D01*
X2111768Y2409965D01*
X2113031Y2409162D01*
X2114294Y2408473D01*
X2115557Y2407899D01*
X2116934Y2407439D01*
X2118197Y2407095D01*
X2119460Y2406865D01*
X2120493Y2406636D01*
X2121412D01*
X2122215Y2406521D01*
X2122789D01*
X2124396Y2406636D01*
X2125889Y2406751D01*
X2126463D01*
X2126922Y2406865D01*
X2127266D01*
X2128759Y2407095D01*
X2129907Y2407439D01*
X2130366Y2407554D01*
X2130710D01*
X2130825Y2407669D01*
X2130940D01*
Y2427989D01*
D02*
G37*
G36*
X2931785Y2331901D02*
X2931211D01*
Y2316174D01*
X2932129Y2315829D01*
X2933162Y2315600D01*
X2933622Y2315485D01*
X2934081D01*
X2934310Y2315370D01*
X2934425D01*
X2935918Y2315255D01*
X2937295Y2315140D01*
X2938558D01*
X2940395Y2315255D01*
X2942002Y2315485D01*
X2943380Y2315714D01*
X2944528Y2316174D01*
X2945446Y2316518D01*
X2946020Y2316748D01*
X2946479Y2316977D01*
X2946594Y2317092D01*
X2947512Y2317896D01*
X2948086Y2318814D01*
X2948546Y2319847D01*
X2948890Y2320766D01*
X2949120Y2321569D01*
X2949234Y2322258D01*
Y2322717D01*
Y2322832D01*
X2949120Y2323865D01*
X2949005Y2324784D01*
X2948775Y2325587D01*
X2948431Y2326161D01*
X2948201Y2326735D01*
X2947972Y2327080D01*
X2947857Y2327309D01*
X2947742Y2327424D01*
X2946479Y2328572D01*
X2945216Y2329376D01*
X2944642Y2329720D01*
X2944183Y2329950D01*
X2943954Y2330064D01*
X2943839D01*
X2941887Y2330753D01*
X2940165Y2331098D01*
X2939362Y2331212D01*
X2938788Y2331327D01*
X2938214D01*
X2935688Y2331557D01*
X2934540Y2331672D01*
X2933507Y2331786D01*
X2932588D01*
X2931785Y2331901D01*
D02*
G37*
G36*
X2823299Y2364964D02*
X2823069D01*
Y2364619D01*
Y2364275D01*
Y2363127D01*
X2823184Y2362668D01*
Y2362208D01*
Y2361864D01*
Y2361749D01*
X2823299Y2359798D01*
Y2358764D01*
Y2357846D01*
Y2357042D01*
Y2356468D01*
Y2356009D01*
Y2355894D01*
Y2333508D01*
X2843504D01*
X2827776Y2357042D01*
X2827317Y2357731D01*
X2826858Y2358420D01*
X2826628Y2358879D01*
X2826513Y2359109D01*
X2826054Y2360027D01*
X2825595Y2360831D01*
X2825250Y2361290D01*
X2825136Y2361520D01*
X2824676Y2362323D01*
X2824332Y2363012D01*
X2824102Y2363471D01*
X2823988Y2363586D01*
X2823643Y2364160D01*
X2823414Y2364619D01*
X2823299Y2364849D01*
Y2364964D01*
D02*
G37*
G36*
X2884028Y2349351D02*
X2882191D01*
X2881043Y2349236D01*
X2880699Y2349121D01*
X2880354D01*
X2880125Y2349006D01*
X2880010D01*
X2878862Y2348777D01*
X2877944Y2348547D01*
X2877484Y2348432D01*
X2877370Y2348318D01*
Y2317092D01*
X2878173Y2316748D01*
X2878977Y2316518D01*
X2879666Y2316403D01*
X2879895Y2316288D01*
X2880010D01*
X2881273Y2316174D01*
X2882421Y2316059D01*
X2883454D01*
X2885520Y2316288D01*
X2887472Y2316748D01*
X2888964Y2317436D01*
X2890342Y2318240D01*
X2891375Y2319044D01*
X2892179Y2319732D01*
X2892638Y2320192D01*
X2892753Y2320421D01*
X2893786Y2322258D01*
X2894590Y2324210D01*
X2895164Y2326276D01*
X2895508Y2328228D01*
X2895738Y2329950D01*
X2895852Y2330753D01*
X2895967Y2331442D01*
Y2331901D01*
Y2332360D01*
Y2332590D01*
Y2332705D01*
X2895852Y2335345D01*
X2895508Y2337641D01*
X2894934Y2339708D01*
X2894360Y2341430D01*
X2893786Y2342807D01*
X2893212Y2343840D01*
X2892868Y2344414D01*
X2892753Y2344644D01*
X2891375Y2346251D01*
X2889883Y2347399D01*
X2888390Y2348203D01*
X2886898Y2348777D01*
X2885520Y2349121D01*
X2884487Y2349236D01*
X2884028Y2349351D01*
D02*
G37*
G36*
X2576134Y2367260D02*
X2575675D01*
X2574642Y2367145D01*
X2573724Y2367030D01*
X2572805Y2366686D01*
X2572116Y2366341D01*
X2571542Y2365997D01*
X2571083Y2365767D01*
X2570854Y2365538D01*
X2570739Y2365423D01*
X2570050Y2364619D01*
X2569361Y2363816D01*
X2568328Y2362094D01*
X2567869Y2361290D01*
X2567639Y2360716D01*
X2567410Y2360257D01*
Y2360142D01*
X2566950Y2358879D01*
X2566606Y2357502D01*
X2566262Y2356124D01*
X2566032Y2354861D01*
X2565802Y2353828D01*
X2565688Y2352910D01*
X2565573Y2352336D01*
Y2352106D01*
X2565114Y2348547D01*
X2564999Y2346825D01*
Y2345218D01*
X2564884Y2343840D01*
Y2342692D01*
Y2342004D01*
Y2341889D01*
Y2341774D01*
Y2339708D01*
X2564999Y2337756D01*
X2565114Y2336034D01*
X2565228Y2334542D01*
X2565343Y2333279D01*
X2565458Y2332246D01*
X2565573Y2331672D01*
Y2331442D01*
X2565802Y2329835D01*
X2566147Y2328228D01*
X2566376Y2326850D01*
X2566721Y2325702D01*
X2566950Y2324784D01*
X2567180Y2323980D01*
X2567295Y2323521D01*
X2567410Y2323406D01*
X2567869Y2322258D01*
X2568443Y2321225D01*
X2569017Y2320306D01*
X2569591Y2319618D01*
X2570050Y2319044D01*
X2570394Y2318584D01*
X2570624Y2318355D01*
X2570739Y2318240D01*
X2571542Y2317666D01*
X2572346Y2317207D01*
X2573150Y2316862D01*
X2573953Y2316633D01*
X2574642Y2316518D01*
X2575216Y2316403D01*
X2575675D01*
X2576708Y2316518D01*
X2577627Y2316748D01*
X2578545Y2316977D01*
X2579234Y2317322D01*
X2579808Y2317666D01*
X2580267Y2318010D01*
X2580497Y2318125D01*
X2580612Y2318240D01*
X2581300Y2319044D01*
X2581989Y2319847D01*
X2583137Y2321569D01*
X2583482Y2322258D01*
X2583826Y2322832D01*
X2583941Y2323291D01*
X2584056Y2323406D01*
X2584859Y2326161D01*
X2585204Y2327424D01*
X2585433Y2328687D01*
X2585663Y2329835D01*
X2585778Y2330638D01*
X2585892Y2331212D01*
Y2331442D01*
X2586237Y2335001D01*
X2586352Y2336838D01*
Y2338330D01*
X2586466Y2339708D01*
Y2340856D01*
Y2341544D01*
Y2341659D01*
Y2341774D01*
Y2343840D01*
X2586352Y2345792D01*
X2586237Y2347514D01*
X2586122Y2349121D01*
Y2350384D01*
X2586007Y2351302D01*
X2585892Y2351876D01*
Y2352106D01*
X2585663Y2353828D01*
X2585318Y2355320D01*
X2585089Y2356698D01*
X2584744Y2357846D01*
X2584515Y2358879D01*
X2584285Y2359568D01*
X2584056Y2360027D01*
Y2360142D01*
X2583482Y2361405D01*
X2582908Y2362438D01*
X2582334Y2363356D01*
X2581760Y2364045D01*
X2581300Y2364619D01*
X2580956Y2365078D01*
X2580726Y2365308D01*
X2580612Y2365423D01*
X2579808Y2365997D01*
X2579004Y2366456D01*
X2578086Y2366800D01*
X2577397Y2367030D01*
X2576708Y2367145D01*
X2576134Y2367260D01*
D02*
G37*
%LPD*%
D69*
X3512793Y1148178D02*
G03*
X3450080Y1148178I-31356J68127D01*
G01*
X3451820Y1143771D02*
G03*
X3450080Y1148179I-3173J1295D01*
G01*
X3402374Y1031783D02*
G03*
X3406859Y1033654I1312J3167D01*
G01*
X3377952Y1041898D02*
G03*
X3374721Y1041570I-1311J-3166D01*
G01*
X3316669Y1005649D02*
G03*
X3321012Y1005234I2423J2423D01*
G01*
X3270364Y1055881D02*
G03*
X3270780Y1051537I2839J-1920D01*
G01*
X3306701Y1109590D02*
G03*
X3307029Y1112822I-2838J1920D01*
G01*
X3284938Y1166155D02*
G03*
X3282420Y1168209I-3167J-1312D01*
G01*
X3215971Y1183858D02*
G03*
X3218749Y1180492I3427J-0D01*
G01*
Y1252119D02*
G03*
X3215971Y1248753I649J-3365D01*
G01*
X3282420Y1264402D02*
G03*
X3284938Y1266456I-649J3365D01*
G01*
X3307029Y1319790D02*
G03*
X3306701Y1323021I-3166J1311D01*
G01*
X3270780Y1381074D02*
G03*
X3270364Y1376730I2423J-2424D01*
G01*
X3321012Y1427377D02*
G03*
X3316669Y1426962I-1920J-2838D01*
G01*
X3374721Y1391041D02*
G03*
X3377952Y1390713I1920J2838D01*
G01*
X3431286Y1412804D02*
G03*
X3433339Y1415321I-1312J3166D01*
G01*
X3448988Y1481771D02*
G03*
X3445623Y1478993I0J-3427D01*
G01*
X3517249D02*
G03*
X3513884Y1481771I-3365J-649D01*
G01*
X3529533Y1415321D02*
G03*
X3531587Y1412804I3365J650D01*
G01*
X3584919Y1390713D02*
G03*
X3588151Y1391041I1312J3167D01*
G01*
X3646203Y1426962D02*
G03*
X3641860Y1427377I-2423J-2423D01*
G01*
X3692508Y1376730D02*
G03*
X3692092Y1381074I-2839J1920D01*
G01*
X3656171Y1323021D02*
G03*
X3655844Y1319790I2839J-1920D01*
G01*
X3677934Y1266456D02*
G03*
X3680452Y1264402I3167J1311D01*
G01*
X3746901Y1248754D02*
G03*
X3744124Y1252119I-3427J0D01*
G01*
Y1180492D02*
G03*
X3746901Y1183858I-650J3365D01*
G01*
X3680452Y1168209D02*
G03*
X3677934Y1166155I650J-3365D01*
G01*
X3655844Y1112822D02*
G03*
X3656171Y1109590I3166J-1312D01*
G01*
X3692092Y1051537D02*
G03*
X3692508Y1055881I-2423J2424D01*
G01*
X3641860Y1005234D02*
G03*
X3646203Y1005649I1920J2838D01*
G01*
X3588151Y1041570D02*
G03*
X3584919Y1041898I-1921J-2839D01*
G01*
X3556014Y1033654D02*
G03*
X3560498Y1031783I3173J1295D01*
G01*
X3512792Y1148178D02*
G03*
X3511052Y1143770I1432J-3113D01*
G01*
X3406858Y1033654D02*
X3451820Y1143771D01*
X3377953Y1041898D02*
X3402374Y1031783D01*
X3321012Y1005234D02*
X3374721Y1041570D01*
X3270780Y1051537D02*
X3316668Y1005649D01*
X3270364Y1055881D02*
X3306701Y1109590D01*
X3284938Y1166155D02*
X3307029Y1112822D01*
X3218749Y1180492D02*
X3282420Y1168209D01*
X3215971Y1183858D02*
Y1248753D01*
X3218749Y1252119D02*
X3282420Y1264402D01*
X3284938Y1266456D02*
X3307029Y1319789D01*
X3270364Y1376730D02*
X3306701Y1323021D01*
X3270780Y1381074D02*
X3316668Y1426962D01*
X3321012Y1427377D02*
X3374721Y1391041D01*
X3377953Y1390713D02*
X3431286Y1412804D01*
X3433339Y1415321D02*
X3445623Y1478993D01*
X3448988Y1481771D02*
X3513884D01*
X3517249Y1478993D02*
X3529533Y1415321D01*
X3531587Y1412804D02*
X3584919Y1390713D01*
X3588152Y1391041D02*
X3641860Y1427377D01*
X3646204Y1426962D02*
X3692093Y1381074D01*
X3656171Y1323021D02*
X3692508Y1376730D01*
X3655844Y1319789D02*
X3677935Y1266456D01*
X3680452Y1264402D02*
X3744124Y1252119D01*
X3746901Y1183858D02*
Y1248753D01*
X3680452Y1168209D02*
X3744124Y1180492D01*
X3655844Y1112822D02*
X3677935Y1166155D01*
X3656171Y1109590D02*
X3692508Y1055881D01*
X3646204Y1005649D02*
X3692093Y1051537D01*
X3588152Y1041570D02*
X3641860Y1005234D01*
X3560498Y1031783D02*
X3584919Y1041898D01*
X3511052Y1143771D02*
X3556014Y1033654D01*
%TF.MD5,64cac2fc2c394bb9f921bf5ce4e36cee*%
M02*
