%TF.GenerationSoftware,Altium Limited,Altium Designer,23.4.1 (23)*%
G04 Layer_Color=8388736*
%FSLAX26Y26*%
%MOIN*%
%TF.SameCoordinates,7B234F99-2337-49EF-8028-3FC35EF94B5E*%
%TF.FilePolarity,Negative*%
%TF.FileFunction,Soldermask,Top*%
%TF.Part,CustomerPanel*%
G01*
G75*
%TA.AperFunction,FiducialPad,Global*%
%ADD70C,0.118110*%
%TA.AperFunction,ComponentPad*%
%ADD71R,0.074929X0.074929*%
%ADD72C,0.074929*%
%ADD73R,0.085000X0.085000*%
%ADD74O,0.047370X0.070992*%
%ADD75C,0.034575*%
%ADD76O,0.047370X0.090677*%
%ADD77O,0.070992X0.047370*%
%ADD78O,0.090677X0.047370*%
%TA.AperFunction,WasherPad*%
%ADD79C,0.008000*%
%TA.AperFunction,ViaPad*%
%ADD80C,0.114299*%
%TA.AperFunction,SMDPad,CuDef*%
%ADD88R,0.026898X0.082803*%
G04:AMPARAMS|DCode=89|XSize=82.803mil|YSize=26.898mil|CornerRadius=6.362mil|HoleSize=0mil|Usage=FLASHONLY|Rotation=270.000|XOffset=0mil|YOffset=0mil|HoleType=Round|Shape=RoundedRectangle|*
%AMROUNDEDRECTD89*
21,1,0.082803,0.014173,0,0,270.0*
21,1,0.070079,0.026898,0,0,270.0*
1,1,0.012724,-0.007087,-0.035039*
1,1,0.012724,-0.007087,0.035039*
1,1,0.012724,0.007087,0.035039*
1,1,0.012724,0.007087,-0.035039*
%
%ADD89ROUNDEDRECTD89*%
G04:AMPARAMS|DCode=90|XSize=31.622mil|YSize=82.803mil|CornerRadius=9.906mil|HoleSize=0mil|Usage=FLASHONLY|Rotation=90.000|XOffset=0mil|YOffset=0mil|HoleType=Round|Shape=RoundedRectangle|*
%AMROUNDEDRECTD90*
21,1,0.031622,0.062992,0,0,90.0*
21,1,0.011811,0.082803,0,0,90.0*
1,1,0.019811,0.031496,0.005906*
1,1,0.019811,0.031496,-0.005906*
1,1,0.019811,-0.031496,-0.005906*
1,1,0.019811,-0.031496,0.005906*
%
%ADD90ROUNDEDRECTD90*%
%ADD91R,0.082803X0.031622*%
G04:AMPARAMS|DCode=92|XSize=126.11mil|YSize=165.48mil|CornerRadius=0mil|HoleSize=0mil|Usage=FLASHONLY|Rotation=0.000|XOffset=0mil|YOffset=0mil|HoleType=Round|Shape=Octagon|*
%AMOCTAGOND92*
4,1,8,-0.031527,0.082740,0.031527,0.082740,0.063055,0.051213,0.063055,-0.051213,0.031527,-0.082740,-0.031527,-0.082740,-0.063055,-0.051213,-0.063055,0.051213,-0.031527,0.082740,0.0*
%
%ADD92OCTAGOND92*%

G04:AMPARAMS|DCode=93|XSize=31.622mil|YSize=82.803mil|CornerRadius=9.906mil|HoleSize=0mil|Usage=FLASHONLY|Rotation=0.000|XOffset=0mil|YOffset=0mil|HoleType=Round|Shape=RoundedRectangle|*
%AMROUNDEDRECTD93*
21,1,0.031622,0.062992,0,0,0.0*
21,1,0.011811,0.082803,0,0,0.0*
1,1,0.019811,0.005906,-0.031496*
1,1,0.019811,-0.005906,-0.031496*
1,1,0.019811,-0.005906,0.031496*
1,1,0.019811,0.005906,0.031496*
%
%ADD93ROUNDEDRECTD93*%
%ADD94R,0.031622X0.082803*%
%ADD95R,0.063118X0.055244*%
G04:AMPARAMS|DCode=96|XSize=65.087mil|YSize=45.402mil|CornerRadius=13.35mil|HoleSize=0mil|Usage=FLASHONLY|Rotation=0.000|XOffset=0mil|YOffset=0mil|HoleType=Round|Shape=RoundedRectangle|*
%AMROUNDEDRECTD96*
21,1,0.065087,0.018701,0,0,0.0*
21,1,0.038386,0.045402,0,0,0.0*
1,1,0.026701,0.019193,-0.009350*
1,1,0.026701,-0.019193,-0.009350*
1,1,0.026701,-0.019193,0.009350*
1,1,0.026701,0.019193,0.009350*
%
%ADD96ROUNDEDRECTD96*%
G04:AMPARAMS|DCode=97|XSize=47.37mil|YSize=43.433mil|CornerRadius=12.858mil|HoleSize=0mil|Usage=FLASHONLY|Rotation=0.000|XOffset=0mil|YOffset=0mil|HoleType=Round|Shape=RoundedRectangle|*
%AMROUNDEDRECTD97*
21,1,0.047370,0.017717,0,0,0.0*
21,1,0.021654,0.043433,0,0,0.0*
1,1,0.025716,0.010827,-0.008858*
1,1,0.025716,-0.010827,-0.008858*
1,1,0.025716,-0.010827,0.008858*
1,1,0.025716,0.010827,0.008858*
%
%ADD97ROUNDEDRECTD97*%
%ADD98R,0.045402X0.041465*%
G04:AMPARAMS|DCode=99|XSize=45.402mil|YSize=41.465mil|CornerRadius=12.366mil|HoleSize=0mil|Usage=FLASHONLY|Rotation=180.000|XOffset=0mil|YOffset=0mil|HoleType=Round|Shape=RoundedRectangle|*
%AMROUNDEDRECTD99*
21,1,0.045402,0.016732,0,0,180.0*
21,1,0.020669,0.041465,0,0,180.0*
1,1,0.024732,-0.010335,0.008366*
1,1,0.024732,0.010335,0.008366*
1,1,0.024732,0.010335,-0.008366*
1,1,0.024732,-0.010335,-0.008366*
%
%ADD99ROUNDEDRECTD99*%
%ADD100R,0.094614X0.130047*%
G04:AMPARAMS|DCode=101|XSize=67.055mil|YSize=67.843mil|CornerRadius=18.764mil|HoleSize=0mil|Usage=FLASHONLY|Rotation=0.000|XOffset=0mil|YOffset=0mil|HoleType=Round|Shape=RoundedRectangle|*
%AMROUNDEDRECTD101*
21,1,0.067055,0.030315,0,0,0.0*
21,1,0.029527,0.067843,0,0,0.0*
1,1,0.037528,0.014764,-0.015158*
1,1,0.037528,-0.014764,-0.015158*
1,1,0.037528,-0.014764,0.015158*
1,1,0.037528,0.014764,0.015158*
%
%ADD101ROUNDEDRECTD101*%
G04:AMPARAMS|DCode=102|XSize=78.866mil|YSize=59.181mil|CornerRadius=16.795mil|HoleSize=0mil|Usage=FLASHONLY|Rotation=270.000|XOffset=0mil|YOffset=0mil|HoleType=Round|Shape=RoundedRectangle|*
%AMROUNDEDRECTD102*
21,1,0.078866,0.025591,0,0,270.0*
21,1,0.045276,0.059181,0,0,270.0*
1,1,0.033590,-0.012795,-0.022638*
1,1,0.033590,-0.012795,0.022638*
1,1,0.033590,0.012795,0.022638*
1,1,0.033590,0.012795,-0.022638*
%
%ADD102ROUNDEDRECTD102*%
G04:AMPARAMS|DCode=103|XSize=47.37mil|YSize=43.433mil|CornerRadius=12.858mil|HoleSize=0mil|Usage=FLASHONLY|Rotation=270.000|XOffset=0mil|YOffset=0mil|HoleType=Round|Shape=RoundedRectangle|*
%AMROUNDEDRECTD103*
21,1,0.047370,0.017717,0,0,270.0*
21,1,0.021654,0.043433,0,0,270.0*
1,1,0.025716,-0.008858,-0.010827*
1,1,0.025716,-0.008858,0.010827*
1,1,0.025716,0.008858,0.010827*
1,1,0.025716,0.008858,-0.010827*
%
%ADD103ROUNDEDRECTD103*%
%ADD104R,0.145795X0.067055*%
G04:AMPARAMS|DCode=105|XSize=67.055mil|YSize=145.795mil|CornerRadius=18.764mil|HoleSize=0mil|Usage=FLASHONLY|Rotation=270.000|XOffset=0mil|YOffset=0mil|HoleType=Round|Shape=RoundedRectangle|*
%AMROUNDEDRECTD105*
21,1,0.067055,0.108268,0,0,270.0*
21,1,0.029527,0.145795,0,0,270.0*
1,1,0.037528,-0.054134,-0.014764*
1,1,0.037528,-0.054134,0.014764*
1,1,0.037528,0.054134,0.014764*
1,1,0.037528,0.054134,-0.014764*
%
%ADD105ROUNDEDRECTD105*%
%ADD106R,0.019811X0.065087*%
%ADD107R,0.031622X0.065087*%
%ADD108R,0.224535X0.480441*%
G04:AMPARAMS|DCode=109|XSize=78.866mil|YSize=59.181mil|CornerRadius=16.795mil|HoleSize=0mil|Usage=FLASHONLY|Rotation=180.000|XOffset=0mil|YOffset=0mil|HoleType=Round|Shape=RoundedRectangle|*
%AMROUNDEDRECTD109*
21,1,0.078866,0.025591,0,0,180.0*
21,1,0.045276,0.059181,0,0,180.0*
1,1,0.033590,-0.022638,0.012795*
1,1,0.033590,0.022638,0.012795*
1,1,0.033590,0.022638,-0.012795*
1,1,0.033590,-0.022638,-0.012795*
%
%ADD109ROUNDEDRECTD109*%
%TA.AperFunction,ConnectorPad*%
%ADD110R,0.065087X0.019811*%
%ADD111R,0.065087X0.031622*%
%TA.AperFunction,SMDPad,CuDef*%
G04:AMPARAMS|DCode=112|XSize=65.087mil|YSize=45.402mil|CornerRadius=13.35mil|HoleSize=0mil|Usage=FLASHONLY|Rotation=90.000|XOffset=0mil|YOffset=0mil|HoleType=Round|Shape=RoundedRectangle|*
%AMROUNDEDRECTD112*
21,1,0.065087,0.018701,0,0,90.0*
21,1,0.038386,0.045402,0,0,90.0*
1,1,0.026701,0.009350,0.019193*
1,1,0.026701,0.009350,-0.019193*
1,1,0.026701,-0.009350,-0.019193*
1,1,0.026701,-0.009350,0.019193*
%
%ADD112ROUNDEDRECTD112*%
D70*
X285748Y2257826D02*
D03*
X79000Y1182118D02*
D03*
X3691260Y762078D02*
D03*
D71*
X153000Y540117D02*
D03*
D72*
Y740117D02*
D03*
D73*
X935354Y653496D02*
D03*
X3366457Y653495D02*
D03*
X2520000D02*
D03*
X1673543D02*
D03*
X827087D02*
D03*
X3474724D02*
D03*
X2628268Y653496D02*
D03*
X1781811D02*
D03*
D74*
X2901103Y494047D02*
D03*
X3241260D02*
D03*
X701889Y494047D02*
D03*
X361733D02*
D03*
X2394803D02*
D03*
X2054646D02*
D03*
X1548346D02*
D03*
X1208189D02*
D03*
D75*
X2957405Y637747D02*
D03*
X3184957Y637747D02*
D03*
X645587Y637747D02*
D03*
X418035D02*
D03*
X4006220Y742078D02*
D03*
Y969630D02*
D03*
X2338501Y637747D02*
D03*
X2110948D02*
D03*
X1492044D02*
D03*
X1264492D02*
D03*
D76*
X2901103Y658614D02*
D03*
X3241259Y658614D02*
D03*
X701889D02*
D03*
X361733D02*
D03*
X2394803D02*
D03*
X2054646D02*
D03*
X1548346D02*
D03*
X1208189D02*
D03*
D77*
X4149921Y685776D02*
D03*
Y1025933D02*
D03*
D78*
X3985354Y685776D02*
D03*
Y1025933D02*
D03*
D79*
X3836559Y2602000D02*
D03*
X356984Y2601999D02*
D03*
D80*
X3477480Y297197D02*
D03*
X2631023Y297196D02*
D03*
X1784567D02*
D03*
X938110D02*
D03*
D88*
X4103661Y2021803D02*
D03*
D89*
X4078071Y2021802D02*
D03*
X4052480Y2021803D02*
D03*
X4026890D02*
D03*
X4001299D02*
D03*
X3975709D02*
D03*
X3950118D02*
D03*
X3924528D02*
D03*
X3898937D02*
D03*
X3873346D02*
D03*
X3847756D02*
D03*
X3822165D02*
D03*
X3796575D02*
D03*
X3770984D02*
D03*
Y1804873D02*
D03*
X3796575D02*
D03*
X3822165D02*
D03*
X3847756D02*
D03*
X3873346D02*
D03*
X3898937D02*
D03*
X3924528D02*
D03*
X3950118D02*
D03*
X3975709D02*
D03*
X4001299D02*
D03*
X4026890D02*
D03*
X4052480D02*
D03*
X4078071Y1804874D02*
D03*
X4103661Y1804873D02*
D03*
D90*
X919362Y1408070D02*
D03*
Y1458070D02*
D03*
Y1508070D02*
D03*
Y1558070D02*
D03*
X655583Y1408070D02*
D03*
Y1458070D02*
D03*
Y1508070D02*
D03*
X3194953D02*
D03*
Y1458070D02*
D03*
Y1408070D02*
D03*
X3458732Y1558070D02*
D03*
Y1508070D02*
D03*
Y1458070D02*
D03*
Y1408070D02*
D03*
X2612276D02*
D03*
Y1458070D02*
D03*
Y1508070D02*
D03*
Y1558070D02*
D03*
X2348496Y1408070D02*
D03*
Y1458070D02*
D03*
Y1508070D02*
D03*
X1765819Y1408070D02*
D03*
Y1458070D02*
D03*
Y1508070D02*
D03*
Y1558070D02*
D03*
X1502040Y1408070D02*
D03*
Y1458070D02*
D03*
Y1508070D02*
D03*
D91*
X655583Y1558070D02*
D03*
X3194953D02*
D03*
X2348496D02*
D03*
X1502040D02*
D03*
D92*
X787472Y1483070D02*
D03*
X3326843D02*
D03*
X2480386D02*
D03*
X1633929D02*
D03*
D93*
X415473Y972393D02*
D03*
X465473D02*
D03*
X515472D02*
D03*
X565472D02*
D03*
X415473Y1236172D02*
D03*
X465473D02*
D03*
X515472D02*
D03*
X3054843D02*
D03*
X3004843Y1236172D02*
D03*
X2954843Y1236172D02*
D03*
X3104843Y972393D02*
D03*
X3054842D02*
D03*
X3004843D02*
D03*
X2954843D02*
D03*
X2108386D02*
D03*
X2158386D02*
D03*
X2208386D02*
D03*
X2258386D02*
D03*
X2108386Y1236172D02*
D03*
X2158386D02*
D03*
X2208386D02*
D03*
X1261929Y972393D02*
D03*
X1311929D02*
D03*
X1361929D02*
D03*
X1411929D02*
D03*
X1261929Y1236172D02*
D03*
X1311929D02*
D03*
X1361929D02*
D03*
D94*
X565472D02*
D03*
X3104843D02*
D03*
X2258386D02*
D03*
X1411929D02*
D03*
D95*
X4003000Y2139117D02*
D03*
Y2229117D02*
D03*
X4113000Y2139117D02*
D03*
Y2229117D02*
D03*
D96*
X641079Y889750D02*
D03*
Y807073D02*
D03*
X3740472Y494047D02*
D03*
Y576724D02*
D03*
X3799528Y1616094D02*
D03*
Y1698771D02*
D03*
X3819213Y533417D02*
D03*
Y616094D02*
D03*
X3179000Y885456D02*
D03*
Y802779D02*
D03*
X2333992Y889750D02*
D03*
Y807073D02*
D03*
X1488000Y890456D02*
D03*
Y807779D02*
D03*
D97*
X694819Y946703D02*
D03*
Y1009695D02*
D03*
X3927480Y1698771D02*
D03*
Y1635779D02*
D03*
X3868425Y1698771D02*
D03*
X3868425Y1635779D02*
D03*
X3730630Y1688928D02*
D03*
Y1625936D02*
D03*
X4056000Y1686614D02*
D03*
Y1623621D02*
D03*
X3021968Y881842D02*
D03*
Y818850D02*
D03*
X2175512D02*
D03*
Y881842D02*
D03*
X1329055Y818850D02*
D03*
Y881842D02*
D03*
X482599Y818850D02*
D03*
Y881842D02*
D03*
X3081024Y881842D02*
D03*
Y818850D02*
D03*
X2234567Y818850D02*
D03*
Y881842D02*
D03*
X1388110Y818850D02*
D03*
Y881842D02*
D03*
X541654Y818850D02*
D03*
Y881842D02*
D03*
X3235173Y946703D02*
D03*
Y1009695D02*
D03*
X2388717Y946703D02*
D03*
Y1009695D02*
D03*
X1542260Y946703D02*
D03*
Y1009695D02*
D03*
D98*
X2882000Y770637D02*
D03*
X344000Y823598D02*
D03*
X1191000Y771637D02*
D03*
X3829055Y764716D02*
D03*
X2035000Y777637D02*
D03*
D99*
X2882000Y835598D02*
D03*
X344000Y758637D02*
D03*
X1191000Y836598D02*
D03*
X3829055Y699755D02*
D03*
X2035000Y842598D02*
D03*
D100*
X501472Y1587070D02*
D03*
X3040843D02*
D03*
X2194386D02*
D03*
X1347929D02*
D03*
D101*
X502181Y1459984D02*
D03*
X3041551D02*
D03*
X2195095D02*
D03*
X1348638D02*
D03*
D102*
X407000Y1353117D02*
D03*
X296763D02*
D03*
X3913701Y2129873D02*
D03*
X3803465Y2129873D02*
D03*
X2864882Y1348118D02*
D03*
X2975118D02*
D03*
X2017764Y1342118D02*
D03*
X2128000D02*
D03*
X1179882Y1339118D02*
D03*
X1290118D02*
D03*
D103*
X602677Y1635779D02*
D03*
X665669D02*
D03*
X3205039D02*
D03*
X3142047D02*
D03*
X2295591D02*
D03*
X2358583D02*
D03*
X1449134D02*
D03*
X1512126D02*
D03*
X4143496Y1505118D02*
D03*
X4080504D02*
D03*
X3201102Y1324755D02*
D03*
X3138110Y1324755D02*
D03*
X2291654Y1324755D02*
D03*
X2354646D02*
D03*
X1445197D02*
D03*
X1508189D02*
D03*
X598740D02*
D03*
X661732D02*
D03*
X3413701Y1332629D02*
D03*
X3476693D02*
D03*
X2630236D02*
D03*
X2567244D02*
D03*
X1783780D02*
D03*
X1720787D02*
D03*
X937323D02*
D03*
X874331D02*
D03*
X3051496Y1387747D02*
D03*
X3114488D02*
D03*
X2268032Y1387747D02*
D03*
X2205039D02*
D03*
X1421575D02*
D03*
X1358583D02*
D03*
X575118D02*
D03*
X512126D02*
D03*
D104*
X888110Y1159401D02*
D03*
X3949134Y1214519D02*
D03*
X3514095Y871999D02*
D03*
X2667638D02*
D03*
X1821181D02*
D03*
X974725D02*
D03*
X3427480Y1159401D02*
D03*
X2581024Y1159401D02*
D03*
X1734567D02*
D03*
D105*
X687323D02*
D03*
X3748347Y1214519D02*
D03*
X3313307Y871999D02*
D03*
X2466851D02*
D03*
X1620394D02*
D03*
X773937D02*
D03*
X3226693Y1159401D02*
D03*
X2380236Y1159401D02*
D03*
X1533780D02*
D03*
D106*
X3140082Y692669D02*
D03*
X3120397D02*
D03*
X3002287Y692669D02*
D03*
X3021972D02*
D03*
X3061342Y692669D02*
D03*
X3081027D02*
D03*
X3041657Y692669D02*
D03*
X3100712Y692669D02*
D03*
X561342Y692669D02*
D03*
X502287D02*
D03*
X541657D02*
D03*
X521972D02*
D03*
X482602D02*
D03*
X462917D02*
D03*
X581027D02*
D03*
X600712D02*
D03*
X2254255D02*
D03*
X2195200D02*
D03*
X2234570D02*
D03*
X2214885D02*
D03*
X2175515D02*
D03*
X2155830D02*
D03*
X2273940D02*
D03*
X2293625D02*
D03*
X1407799D02*
D03*
X1348744D02*
D03*
X1388114D02*
D03*
X1368429D02*
D03*
X1329059D02*
D03*
X1309373D02*
D03*
X1427484D02*
D03*
X1447169D02*
D03*
D107*
X2943232Y692669D02*
D03*
X3199137D02*
D03*
X3167641D02*
D03*
X2974728D02*
D03*
X435358Y692669D02*
D03*
X628271D02*
D03*
X659767D02*
D03*
X403862D02*
D03*
X2128271D02*
D03*
X2321184D02*
D03*
X2352681D02*
D03*
X2096775D02*
D03*
X1281814D02*
D03*
X1474728D02*
D03*
X1506224D02*
D03*
X1250318D02*
D03*
D108*
X568346Y1952708D02*
D03*
X928346D02*
D03*
X3467716Y1952708D02*
D03*
X3107716Y1952708D02*
D03*
X2261260Y1952708D02*
D03*
X2621260D02*
D03*
X1414803D02*
D03*
X1774803D02*
D03*
D109*
X4134173Y1582629D02*
D03*
X4134173Y1692866D02*
D03*
D110*
X3951299Y924755D02*
D03*
Y905070D02*
D03*
Y786960D02*
D03*
Y806645D02*
D03*
Y846015D02*
D03*
Y865700D02*
D03*
Y826330D02*
D03*
Y885385D02*
D03*
D111*
Y727905D02*
D03*
Y983810D02*
D03*
Y952314D02*
D03*
Y759401D02*
D03*
D112*
X3699134Y1037354D02*
D03*
X3781811D02*
D03*
X3664661Y642117D02*
D03*
X3747339D02*
D03*
X3780339Y1441118D02*
D03*
X3697661D02*
D03*
X3781811Y879873D02*
D03*
X3699134D02*
D03*
%TF.MD5,91331a77518a4627332e68d0f4b89dc7*%
M02*
