%TF.GenerationSoftware,Altium Limited,Altium Designer,23.4.1 (23)*%
G04 Layer_Color=8421504*
%FSLAX26Y26*%
%MOIN*%
%TF.SameCoordinates,9AE554A4-7581-43F1-91E0-74BCC9029391*%
%TF.FilePolarity,Positive*%
%TF.FileFunction,Paste,Top*%
%TF.Part,CustomerPanel*%
G01*
G75*
%TA.AperFunction,SMDPad,CuDef*%
G04:AMPARAMS|DCode=10|XSize=57.087mil|YSize=37.402mil|CornerRadius=9.35mil|HoleSize=0mil|Usage=FLASHONLY|Rotation=0.000|XOffset=0mil|YOffset=0mil|HoleType=Round|Shape=RoundedRectangle|*
%AMROUNDEDRECTD10*
21,1,0.057087,0.018701,0,0,0.0*
21,1,0.038386,0.037402,0,0,0.0*
1,1,0.018701,0.019193,-0.009350*
1,1,0.018701,-0.019193,-0.009350*
1,1,0.018701,-0.019193,0.009350*
1,1,0.018701,0.019193,0.009350*
%
%ADD10ROUNDEDRECTD10*%
G04:AMPARAMS|DCode=11|XSize=39.37mil|YSize=35.433mil|CornerRadius=8.858mil|HoleSize=0mil|Usage=FLASHONLY|Rotation=0.000|XOffset=0mil|YOffset=0mil|HoleType=Round|Shape=RoundedRectangle|*
%AMROUNDEDRECTD11*
21,1,0.039370,0.017717,0,0,0.0*
21,1,0.021654,0.035433,0,0,0.0*
1,1,0.017716,0.010827,-0.008858*
1,1,0.017716,-0.010827,-0.008858*
1,1,0.017716,-0.010827,0.008858*
1,1,0.017716,0.010827,0.008858*
%
%ADD11ROUNDEDRECTD11*%
G04:AMPARAMS|DCode=12|XSize=70.866mil|YSize=51.181mil|CornerRadius=12.795mil|HoleSize=0mil|Usage=FLASHONLY|Rotation=90.000|XOffset=0mil|YOffset=0mil|HoleType=Round|Shape=RoundedRectangle|*
%AMROUNDEDRECTD12*
21,1,0.070866,0.025591,0,0,90.0*
21,1,0.045276,0.051181,0,0,90.0*
1,1,0.025590,0.012795,0.022638*
1,1,0.025590,0.012795,-0.022638*
1,1,0.025590,-0.012795,-0.022638*
1,1,0.025590,-0.012795,0.022638*
%
%ADD12ROUNDEDRECTD12*%
G04:AMPARAMS|DCode=13|XSize=59.055mil|YSize=137.795mil|CornerRadius=14.764mil|HoleSize=0mil|Usage=FLASHONLY|Rotation=270.000|XOffset=0mil|YOffset=0mil|HoleType=Round|Shape=RoundedRectangle|*
%AMROUNDEDRECTD13*
21,1,0.059055,0.108268,0,0,270.0*
21,1,0.029527,0.137795,0,0,270.0*
1,1,0.029528,-0.054134,-0.014764*
1,1,0.029528,-0.054134,0.014764*
1,1,0.029528,0.054134,0.014764*
1,1,0.029528,0.054134,-0.014764*
%
%ADD13ROUNDEDRECTD13*%
%ADD14R,0.137795X0.059055*%
G04:AMPARAMS|DCode=15|XSize=118.11mil|YSize=157.48mil|CornerRadius=0mil|HoleSize=0mil|Usage=FLASHONLY|Rotation=0.000|XOffset=0mil|YOffset=0mil|HoleType=Round|Shape=Octagon|*
%AMOCTAGOND15*
4,1,8,-0.029527,0.078740,0.029527,0.078740,0.059055,0.049213,0.059055,-0.049213,0.029527,-0.078740,-0.029527,-0.078740,-0.059055,-0.049213,-0.059055,0.049213,-0.029527,0.078740,0.0*
%
%ADD15OCTAGOND15*%

%ADD16R,0.074803X0.023622*%
G04:AMPARAMS|DCode=17|XSize=23.622mil|YSize=74.803mil|CornerRadius=5.906mil|HoleSize=0mil|Usage=FLASHONLY|Rotation=90.000|XOffset=0mil|YOffset=0mil|HoleType=Round|Shape=RoundedRectangle|*
%AMROUNDEDRECTD17*
21,1,0.023622,0.062992,0,0,90.0*
21,1,0.011811,0.074803,0,0,90.0*
1,1,0.011811,0.031496,0.005906*
1,1,0.011811,0.031496,-0.005906*
1,1,0.011811,-0.031496,-0.005906*
1,1,0.011811,-0.031496,0.005906*
%
%ADD17ROUNDEDRECTD17*%
G04:AMPARAMS|DCode=18|XSize=39.37mil|YSize=35.433mil|CornerRadius=8.858mil|HoleSize=0mil|Usage=FLASHONLY|Rotation=90.000|XOffset=0mil|YOffset=0mil|HoleType=Round|Shape=RoundedRectangle|*
%AMROUNDEDRECTD18*
21,1,0.039370,0.017717,0,0,90.0*
21,1,0.021654,0.035433,0,0,90.0*
1,1,0.017716,0.008858,0.010827*
1,1,0.017716,0.008858,-0.010827*
1,1,0.017716,-0.008858,-0.010827*
1,1,0.017716,-0.008858,0.010827*
%
%ADD18ROUNDEDRECTD18*%
%ADD19R,0.216535X0.472441*%
%ADD20R,0.011811X0.057087*%
%ADD21R,0.023622X0.057087*%
%ADD22R,0.023622X0.074803*%
G04:AMPARAMS|DCode=23|XSize=23.622mil|YSize=74.803mil|CornerRadius=5.906mil|HoleSize=0mil|Usage=FLASHONLY|Rotation=0.000|XOffset=0mil|YOffset=0mil|HoleType=Round|Shape=RoundedRectangle|*
%AMROUNDEDRECTD23*
21,1,0.023622,0.062992,0,0,0.0*
21,1,0.011811,0.074803,0,0,0.0*
1,1,0.011811,0.005906,-0.031496*
1,1,0.011811,-0.005906,-0.031496*
1,1,0.011811,-0.005906,0.031496*
1,1,0.011811,0.005906,0.031496*
%
%ADD23ROUNDEDRECTD23*%
G04:AMPARAMS|DCode=24|XSize=74.803mil|YSize=18.898mil|CornerRadius=2.362mil|HoleSize=0mil|Usage=FLASHONLY|Rotation=270.000|XOffset=0mil|YOffset=0mil|HoleType=Round|Shape=RoundedRectangle|*
%AMROUNDEDRECTD24*
21,1,0.074803,0.014173,0,0,270.0*
21,1,0.070079,0.018898,0,0,270.0*
1,1,0.004724,-0.007087,-0.035039*
1,1,0.004724,-0.007087,0.035039*
1,1,0.004724,0.007087,0.035039*
1,1,0.004724,0.007087,-0.035039*
%
%ADD24ROUNDEDRECTD24*%
%ADD25R,0.018898X0.074803*%
%ADD26R,0.055118X0.047244*%
G04:AMPARAMS|DCode=27|XSize=37.402mil|YSize=33.465mil|CornerRadius=8.366mil|HoleSize=0mil|Usage=FLASHONLY|Rotation=180.000|XOffset=0mil|YOffset=0mil|HoleType=Round|Shape=RoundedRectangle|*
%AMROUNDEDRECTD27*
21,1,0.037402,0.016732,0,0,180.0*
21,1,0.020669,0.033465,0,0,180.0*
1,1,0.016732,-0.010335,0.008366*
1,1,0.016732,0.010335,0.008366*
1,1,0.016732,0.010335,-0.008366*
1,1,0.016732,-0.010335,-0.008366*
%
%ADD27ROUNDEDRECTD27*%
%ADD28R,0.037402X0.033465*%
G04:AMPARAMS|DCode=29|XSize=59.055mil|YSize=59.843mil|CornerRadius=14.764mil|HoleSize=0mil|Usage=FLASHONLY|Rotation=0.000|XOffset=0mil|YOffset=0mil|HoleType=Round|Shape=RoundedRectangle|*
%AMROUNDEDRECTD29*
21,1,0.059055,0.030315,0,0,0.0*
21,1,0.029527,0.059843,0,0,0.0*
1,1,0.029528,0.014764,-0.015158*
1,1,0.029528,-0.014764,-0.015158*
1,1,0.029528,-0.014764,0.015158*
1,1,0.029528,0.014764,0.015158*
%
%ADD29ROUNDEDRECTD29*%
%ADD30R,0.086614X0.122047*%
G04:AMPARAMS|DCode=31|XSize=70.866mil|YSize=51.181mil|CornerRadius=12.795mil|HoleSize=0mil|Usage=FLASHONLY|Rotation=180.000|XOffset=0mil|YOffset=0mil|HoleType=Round|Shape=RoundedRectangle|*
%AMROUNDEDRECTD31*
21,1,0.070866,0.025591,0,0,180.0*
21,1,0.045276,0.051181,0,0,180.0*
1,1,0.025590,-0.022638,0.012795*
1,1,0.025590,0.022638,0.012795*
1,1,0.025590,0.022638,-0.012795*
1,1,0.025590,-0.022638,-0.012795*
%
%ADD31ROUNDEDRECTD31*%
%TA.AperFunction,ConnectorPad*%
%ADD32R,0.057087X0.011811*%
%ADD33R,0.057087X0.023622*%
%TA.AperFunction,FiducialPad,Global*%
%ADD34C,0.059055*%
%TA.AperFunction,SMDPad,CuDef*%
G04:AMPARAMS|DCode=35|XSize=57.087mil|YSize=37.402mil|CornerRadius=9.35mil|HoleSize=0mil|Usage=FLASHONLY|Rotation=90.000|XOffset=0mil|YOffset=0mil|HoleType=Round|Shape=RoundedRectangle|*
%AMROUNDEDRECTD35*
21,1,0.057087,0.018701,0,0,90.0*
21,1,0.038386,0.037402,0,0,90.0*
1,1,0.018701,0.009350,0.019193*
1,1,0.018701,0.009350,-0.019193*
1,1,0.018701,-0.009350,-0.019193*
1,1,0.018701,-0.009350,0.019193*
%
%ADD35ROUNDEDRECTD35*%
D10*
X2727693Y1027545D02*
D03*
Y1110223D02*
D03*
X1881701Y1028251D02*
D03*
Y1110928D02*
D03*
X1034780Y1027545D02*
D03*
Y1110223D02*
D03*
X3572701Y1023251D02*
D03*
Y1105928D02*
D03*
X4212913Y836566D02*
D03*
Y753889D02*
D03*
X4134173Y797196D02*
D03*
Y714519D02*
D03*
X4193228Y1919244D02*
D03*
Y1836566D02*
D03*
D11*
X2782418Y1230168D02*
D03*
Y1167176D02*
D03*
X2628268Y1102314D02*
D03*
Y1039322D02*
D03*
X2569213Y1102314D02*
D03*
Y1039322D02*
D03*
X1935961Y1230168D02*
D03*
Y1167176D02*
D03*
X1781811Y1102314D02*
D03*
Y1039322D02*
D03*
X1722756Y1102314D02*
D03*
Y1039322D02*
D03*
X1088520Y1230168D02*
D03*
Y1167176D02*
D03*
X935355Y1102314D02*
D03*
Y1039322D02*
D03*
X876299Y1102314D02*
D03*
Y1039322D02*
D03*
X3628874Y1230168D02*
D03*
Y1167176D02*
D03*
X4321181Y1856251D02*
D03*
Y1919243D02*
D03*
X4262126Y1856251D02*
D03*
X4262126Y1919243D02*
D03*
X4124331Y1846409D02*
D03*
Y1909401D02*
D03*
X4449701Y1844094D02*
D03*
Y1907086D02*
D03*
X3415669Y1039322D02*
D03*
Y1102314D02*
D03*
X3474724Y1039322D02*
D03*
Y1102314D02*
D03*
D12*
X2521701Y1562590D02*
D03*
X2411465D02*
D03*
X1683819Y1559590D02*
D03*
X1573583D02*
D03*
X690464Y1573590D02*
D03*
X800700D02*
D03*
X3368819Y1568590D02*
D03*
X3258583D02*
D03*
X4197165Y2350346D02*
D03*
X4307402Y2350346D02*
D03*
D13*
X2773937Y1379873D02*
D03*
X2860551Y1092472D02*
D03*
X1927480Y1379873D02*
D03*
X2014095Y1092472D02*
D03*
X1081024Y1379873D02*
D03*
X1167638Y1092472D02*
D03*
X4142047Y1434992D02*
D03*
X3707008Y1092472D02*
D03*
X3620394Y1379873D02*
D03*
D14*
X2974724Y1379873D02*
D03*
X3061339Y1092472D02*
D03*
X2128268Y1379873D02*
D03*
X2214882Y1092472D02*
D03*
X1281811Y1379873D02*
D03*
X1368425Y1092472D02*
D03*
X4342835Y1434992D02*
D03*
X3907795Y1092472D02*
D03*
X3821181Y1379873D02*
D03*
D15*
X2874087Y1703543D02*
D03*
X2027630D02*
D03*
X1181173D02*
D03*
X3720543D02*
D03*
D16*
X2742197Y1778543D02*
D03*
X1895740D02*
D03*
X1049284D02*
D03*
X3588654D02*
D03*
D17*
X2742197Y1728543D02*
D03*
Y1678543D02*
D03*
Y1628543D02*
D03*
X3005977Y1778543D02*
D03*
Y1728543D02*
D03*
Y1678543D02*
D03*
Y1628543D02*
D03*
X1895740Y1728543D02*
D03*
Y1678543D02*
D03*
Y1628543D02*
D03*
X2159520Y1778543D02*
D03*
Y1728543D02*
D03*
Y1678543D02*
D03*
Y1628543D02*
D03*
X1049284Y1728543D02*
D03*
Y1678543D02*
D03*
Y1628543D02*
D03*
X1313063Y1778543D02*
D03*
Y1728543D02*
D03*
Y1678543D02*
D03*
Y1628543D02*
D03*
X3852433D02*
D03*
Y1678543D02*
D03*
Y1728543D02*
D03*
Y1778543D02*
D03*
X3588654Y1628543D02*
D03*
Y1678543D02*
D03*
Y1728543D02*
D03*
D18*
X2598740Y1608220D02*
D03*
X2661732D02*
D03*
X2960945Y1553102D02*
D03*
X3023937D02*
D03*
X2748347Y1545228D02*
D03*
X2685354D02*
D03*
X2752284Y1856251D02*
D03*
X2689291D02*
D03*
X1752284Y1608220D02*
D03*
X1815276D02*
D03*
X2114488Y1553102D02*
D03*
X2177480D02*
D03*
X1901890Y1545228D02*
D03*
X1838898D02*
D03*
X1905827Y1856251D02*
D03*
X1842835D02*
D03*
X905827Y1608220D02*
D03*
X968819D02*
D03*
X1268032Y1553102D02*
D03*
X1331024D02*
D03*
X1055433Y1545228D02*
D03*
X992441D02*
D03*
X1059370Y1856251D02*
D03*
X996378D02*
D03*
X3535748D02*
D03*
X3598740D02*
D03*
X4474205Y1725590D02*
D03*
X4537197D02*
D03*
X3531811Y1545228D02*
D03*
X3594803Y1545228D02*
D03*
X3870394Y1553102D02*
D03*
X3807401D02*
D03*
X3508189Y1608220D02*
D03*
X3445197D02*
D03*
D19*
X3014961Y2173181D02*
D03*
X2654961D02*
D03*
X2168504D02*
D03*
X1808504D02*
D03*
X1322047D02*
D03*
X962047D02*
D03*
X3501417Y2173180D02*
D03*
X3861417Y2173180D02*
D03*
D20*
X2687326Y913141D02*
D03*
X2667641D02*
D03*
X2549531D02*
D03*
X2569216D02*
D03*
X2608586D02*
D03*
X2628271D02*
D03*
X2588901D02*
D03*
X2647956D02*
D03*
X1840870D02*
D03*
X1821185D02*
D03*
X1703074D02*
D03*
X1722759D02*
D03*
X1762129D02*
D03*
X1781814D02*
D03*
X1742444D02*
D03*
X1801499D02*
D03*
X994413D02*
D03*
X974728D02*
D03*
X856618D02*
D03*
X876303D02*
D03*
X915673D02*
D03*
X935358D02*
D03*
X895988D02*
D03*
X955043D02*
D03*
X3494413Y913142D02*
D03*
X3435358Y913141D02*
D03*
X3474728Y913142D02*
D03*
X3455043D02*
D03*
X3415673Y913141D02*
D03*
X3395988D02*
D03*
X3514098Y913141D02*
D03*
X3533783D02*
D03*
D21*
X2490476D02*
D03*
X2746381D02*
D03*
X2714885D02*
D03*
X2521972D02*
D03*
X1644019D02*
D03*
X1899925D02*
D03*
X1868429D02*
D03*
X1675515D02*
D03*
X797562D02*
D03*
X1053468D02*
D03*
X1021972D02*
D03*
X829058D02*
D03*
X3368428Y913142D02*
D03*
X3561342D02*
D03*
X3592838D02*
D03*
X3336932D02*
D03*
D22*
X2652087Y1456645D02*
D03*
X1805630D02*
D03*
X959173D02*
D03*
X3498543D02*
D03*
D23*
X2602087D02*
D03*
X2552087D02*
D03*
X2502087D02*
D03*
X2652087Y1192865D02*
D03*
X2602087D02*
D03*
X2552087D02*
D03*
X2502087D02*
D03*
X1755630Y1456645D02*
D03*
X1705630D02*
D03*
X1655630D02*
D03*
X1805630Y1192865D02*
D03*
X1755630D02*
D03*
X1705630D02*
D03*
X1655630D02*
D03*
X909173Y1456645D02*
D03*
X859173D02*
D03*
X809173D02*
D03*
X959173Y1192865D02*
D03*
X909173D02*
D03*
X859173D02*
D03*
X809173D02*
D03*
X3348543D02*
D03*
X3398543D02*
D03*
X3448543D02*
D03*
X3498543D02*
D03*
X3348543Y1456645D02*
D03*
X3398543Y1456645D02*
D03*
X3448543Y1456645D02*
D03*
D24*
X4497362Y2025346D02*
D03*
X4471772Y2025346D02*
D03*
X4446181Y2025346D02*
D03*
X4420591D02*
D03*
X4395000D02*
D03*
X4369409D02*
D03*
X4343819D02*
D03*
X4318228D02*
D03*
X4292638D02*
D03*
X4267047D02*
D03*
X4241457D02*
D03*
X4215866D02*
D03*
X4190276D02*
D03*
X4164685D02*
D03*
Y2242275D02*
D03*
X4190276D02*
D03*
X4215866D02*
D03*
X4241457D02*
D03*
X4267047D02*
D03*
X4292638D02*
D03*
X4318228D02*
D03*
X4343819D02*
D03*
X4369409D02*
D03*
X4395000D02*
D03*
X4420591D02*
D03*
X4446181D02*
D03*
X4471772Y2242275D02*
D03*
D25*
X4497362Y2242275D02*
D03*
D26*
X4506701Y2449590D02*
D03*
Y2359590D02*
D03*
X4396701Y2449590D02*
D03*
Y2359590D02*
D03*
D27*
X3275701Y1056070D02*
D03*
X737701Y979110D02*
D03*
X1584701Y1057070D02*
D03*
X4222756Y920228D02*
D03*
X2428701Y1063070D02*
D03*
D28*
X3275701Y991110D02*
D03*
X737701Y1044070D02*
D03*
X1584701Y992110D02*
D03*
X4222756Y985188D02*
D03*
X2428701Y998110D02*
D03*
D29*
X895882Y1680456D02*
D03*
X3435252D02*
D03*
X2588795D02*
D03*
X1742339D02*
D03*
D30*
X895173Y1807543D02*
D03*
X3434543D02*
D03*
X2588087D02*
D03*
X1741630D02*
D03*
D31*
X4527874Y1913338D02*
D03*
X4527874Y1803102D02*
D03*
D32*
X4344999Y1105858D02*
D03*
Y1046802D02*
D03*
Y1086172D02*
D03*
Y1066487D02*
D03*
Y1027117D02*
D03*
Y1007432D02*
D03*
Y1125543D02*
D03*
Y1145228D02*
D03*
D33*
Y979873D02*
D03*
Y1172787D02*
D03*
Y1204283D02*
D03*
Y948377D02*
D03*
D34*
X679449Y2478299D02*
D03*
X472701Y1402590D02*
D03*
X4084961Y982551D02*
D03*
D35*
X4175512Y1257826D02*
D03*
X4092835D02*
D03*
X4141039Y862590D02*
D03*
X4058362D02*
D03*
X4091362Y1661590D02*
D03*
X4174039D02*
D03*
X4092835Y1100346D02*
D03*
X4175512D02*
D03*
%TF.MD5,43f9ed8d78befd989bb0fa7784793359*%
M02*
