%TF.GenerationSoftware,Altium Limited,Altium Designer,23.4.1 (23)*%
G04 Layer_Physical_Order=2*
G04 Layer_Color=16711680*
%FSLAX26Y26*%
%MOIN*%
%TF.SameCoordinates,9AE554A4-7581-43F1-91E0-74BCC9029391*%
%TF.FilePolarity,Positive*%
%TF.FileFunction,Copper,L2,Bot,Signal*%
%TF.Part,CustomerPanel*%
G01*
G75*
%TA.AperFunction,FiducialPad,Global*%
%ADD34C,0.059055*%
%TA.AperFunction,Conductor*%
%ADD36C,0.008000*%
%ADD37C,0.012000*%
%ADD38C,0.020000*%
%ADD39C,0.015000*%
%ADD40C,0.010000*%
%TA.AperFunction,ComponentPad*%
%ADD55R,0.083000X0.083000*%
%ADD56O,0.039370X0.062992*%
%ADD57C,0.026575*%
%ADD58O,0.039370X0.082677*%
%ADD59C,0.066929*%
%ADD60R,0.066929X0.066929*%
%ADD61O,0.062992X0.039370*%
%ADD62O,0.082677X0.039370*%
%TA.AperFunction,ViaPad*%
%ADD63C,0.106299*%
%ADD64C,0.017716*%
%ADD65C,0.019685*%
%TA.AperFunction,Conductor*%
%ADD66R,0.112050X0.118110*%
%ADD67R,0.137795X0.137795*%
%ADD68R,0.027669X0.102669*%
G36*
X1025271Y2608590D02*
X1038874Y2604945D01*
X1039403Y2604910D01*
X1039904Y2604740D01*
X1062992Y2601700D01*
D01*
X1067642Y2601088D01*
X1068039Y2601114D01*
X1068427Y2601024D01*
X1082416Y2600566D01*
X1082548Y2600588D01*
X1082678Y2600562D01*
X3683170Y2600562D01*
X3805433Y2478299D01*
X3803098Y2475964D01*
Y2399558D01*
Y2251921D01*
X3629921D01*
Y1650543D01*
X3761140Y1519323D01*
X3758308Y1515085D01*
X3754066Y1516842D01*
X3746564D01*
X3739633Y1513971D01*
X3736145Y1510484D01*
X3750315D01*
Y1485484D01*
X3736145D01*
X3739393Y1482236D01*
X3736145Y1478987D01*
X3750315D01*
Y1453987D01*
X3736145D01*
X3739393Y1450739D01*
X3736145Y1447492D01*
X3750315D01*
Y1434992D01*
X3762815D01*
Y1420822D01*
X3764921Y1422928D01*
X3768032Y1423816D01*
X3771142Y1422928D01*
X3773248Y1420822D01*
Y1434992D01*
X3798248D01*
Y1420822D01*
X3800354Y1422928D01*
X3803465Y1423816D01*
X3806575Y1422928D01*
X3810499Y1419004D01*
X3817430Y1416133D01*
X3824932D01*
X3826712Y1416870D01*
X3830869Y1414093D01*
Y1403495D01*
X3605517D01*
X3562563Y1446449D01*
Y1479466D01*
X3562602Y1479506D01*
X3565149Y1485655D01*
Y1492312D01*
X3562602Y1498462D01*
X3557895Y1503168D01*
X3551745Y1505716D01*
X3545089D01*
X3538939Y1503168D01*
X3534232Y1498462D01*
X3531685Y1492312D01*
Y1485655D01*
X3534232Y1479506D01*
X3534271Y1479466D01*
Y1464340D01*
X3529652Y1462426D01*
X3437992Y1554086D01*
Y1604129D01*
X3444882D01*
X3447954Y1604740D01*
X3450559Y1606480D01*
X3452299Y1609084D01*
X3452910Y1612157D01*
Y1749952D01*
X3452299Y1753024D01*
X3450559Y1755629D01*
X3447954Y1757369D01*
X3444882Y1757980D01*
X3437992D01*
Y2251921D01*
X3299508D01*
Y2311544D01*
X3315822Y2327858D01*
X3316352D01*
X3322502Y2330405D01*
X3327209Y2335112D01*
X3329756Y2341262D01*
Y2347918D01*
X3327209Y2354068D01*
X3322502Y2358775D01*
X3316352Y2361322D01*
X3309695D01*
X3303546Y2358775D01*
X3299909Y2355139D01*
X3295808Y2359240D01*
X3289658Y2361787D01*
X3283002D01*
X3276852Y2359240D01*
X3272145Y2354533D01*
X3269598Y2348383D01*
Y2345444D01*
X3260841Y2336688D01*
X3258217Y2332760D01*
X3257295Y2328127D01*
X3257295Y2328126D01*
Y2251921D01*
X3236690D01*
Y2409401D01*
X3236079Y2412473D01*
X3234338Y2415078D01*
X3231734Y2416818D01*
X3228662Y2417429D01*
X2992441D01*
X2989933Y2416930D01*
X2988781Y2417222D01*
X2985733Y2419318D01*
X2984972Y2424025D01*
X2987520Y2430175D01*
Y2436831D01*
X2984972Y2442981D01*
X2980265Y2447688D01*
X2974116Y2450235D01*
X2967459D01*
X2961309Y2447688D01*
X2956602Y2442981D01*
X2954055Y2436831D01*
Y2430175D01*
X2956602Y2424025D01*
X2956642Y2423986D01*
Y2251921D01*
X2783465D01*
Y1650543D01*
X2914684Y1519323D01*
X2911851Y1515085D01*
X2907609Y1516842D01*
X2900107D01*
X2893176Y1513971D01*
X2889689Y1510484D01*
X2903858D01*
Y1485484D01*
X2889689D01*
X2892937Y1482236D01*
X2889689Y1478987D01*
X2903858D01*
Y1453987D01*
X2889689D01*
X2892937Y1450739D01*
X2889689Y1447492D01*
X2903858D01*
Y1434992D01*
X2916358D01*
Y1420822D01*
X2918464Y1422928D01*
X2921575Y1423816D01*
X2924685Y1422928D01*
X2926791Y1420822D01*
Y1434992D01*
X2951791D01*
Y1420822D01*
X2953897Y1422928D01*
X2957008Y1423816D01*
X2960119Y1422928D01*
X2964042Y1419004D01*
X2970973Y1416133D01*
X2978476D01*
X2980255Y1416870D01*
X2984413Y1414093D01*
Y1403495D01*
X2742126D01*
X2716106Y1429515D01*
X2716106Y1479466D01*
X2716146Y1479506D01*
X2718693Y1485655D01*
Y1492312D01*
X2716146Y1498462D01*
X2711439Y1503168D01*
X2705289Y1505716D01*
X2698632D01*
X2692483Y1503168D01*
X2687776Y1498462D01*
X2685228Y1492312D01*
Y1485655D01*
X2687776Y1479506D01*
X2687815Y1479466D01*
Y1464340D01*
X2683195Y1462426D01*
X2591535Y1554086D01*
Y1604129D01*
X2598425D01*
X2601497Y1604740D01*
X2604102Y1606480D01*
X2605842Y1609084D01*
X2606454Y1612157D01*
Y1749952D01*
X2605842Y1753024D01*
X2604102Y1755629D01*
X2601497Y1757369D01*
X2598425Y1757980D01*
X2591535D01*
Y2251921D01*
X2453052D01*
Y2308544D01*
X2473268Y2328761D01*
X2473269Y2328761D01*
X2475893Y2332689D01*
X2476035Y2333401D01*
X2476045Y2333405D01*
X2480752Y2338112D01*
X2483299Y2344262D01*
Y2350918D01*
X2480752Y2357068D01*
X2476045Y2361775D01*
X2469895Y2364322D01*
X2463239D01*
X2457089Y2361775D01*
X2453772Y2358458D01*
X2450454Y2361775D01*
X2444305Y2364322D01*
X2437648D01*
X2431498Y2361775D01*
X2426791Y2357068D01*
X2424244Y2350918D01*
Y2347979D01*
X2414384Y2338119D01*
X2411760Y2334191D01*
X2410838Y2329559D01*
X2410838Y2329558D01*
Y2251921D01*
X2390233D01*
Y2409401D01*
X2389622Y2412473D01*
X2387882Y2415078D01*
X2385277Y2416818D01*
X2382205Y2417429D01*
X2145984D01*
X2144496Y2417133D01*
X2141075Y2420407D01*
X2140724Y2421093D01*
X2141433Y2422805D01*
Y2429462D01*
X2138886Y2435611D01*
X2134179Y2440318D01*
X2128029Y2442866D01*
X2121373D01*
X2115223Y2440318D01*
X2110516Y2435611D01*
X2107969Y2429462D01*
Y2422805D01*
X2110516Y2416655D01*
X2110555Y2416616D01*
Y2401419D01*
X2110185Y2399558D01*
Y2251921D01*
X1937008D01*
Y1650543D01*
X2068227Y1519323D01*
X2065395Y1515085D01*
X2061153Y1516842D01*
X2053651D01*
X2046719Y1513971D01*
X2043232Y1510484D01*
X2057402D01*
Y1485484D01*
X2043232D01*
X2046480Y1482236D01*
X2043232Y1478987D01*
X2057402D01*
Y1453987D01*
X2043232D01*
X2046480Y1450739D01*
X2043232Y1447492D01*
X2057402D01*
Y1434992D01*
X2069902D01*
Y1420822D01*
X2072008Y1422928D01*
X2075118Y1423816D01*
X2078229Y1422928D01*
X2080335Y1420822D01*
Y1434992D01*
X2105335D01*
Y1420822D01*
X2107441Y1422928D01*
X2110551Y1423816D01*
X2113662Y1422928D01*
X2117585Y1419004D01*
X2124517Y1416133D01*
X2132019D01*
X2133799Y1416870D01*
X2137956Y1414093D01*
Y1403495D01*
X1895669D01*
X1869650Y1429515D01*
X1869650Y1479466D01*
X1869689Y1479506D01*
X1872236Y1485655D01*
Y1492312D01*
X1869689Y1498462D01*
X1864982Y1503168D01*
X1858832Y1505716D01*
X1852176D01*
X1846026Y1503168D01*
X1841319Y1498462D01*
X1838772Y1492312D01*
Y1485655D01*
X1841319Y1479506D01*
X1841358Y1479466D01*
Y1464340D01*
X1836739Y1462426D01*
X1745079Y1554086D01*
Y1604129D01*
X1751968D01*
X1755041Y1604740D01*
X1757645Y1606480D01*
X1759386Y1609084D01*
X1759997Y1612157D01*
Y1749952D01*
X1759386Y1753024D01*
X1757645Y1755629D01*
X1755041Y1757369D01*
X1751968Y1757980D01*
X1745079D01*
Y2251921D01*
X1606595D01*
Y2319791D01*
X1610562Y2323759D01*
X1613187Y2327686D01*
X1613916Y2331354D01*
X1616641Y2334079D01*
X1616951D01*
X1623101Y2336626D01*
X1627808Y2341333D01*
X1630355Y2347483D01*
Y2354139D01*
X1627808Y2360289D01*
X1623101Y2364996D01*
X1616951Y2367543D01*
X1610295D01*
X1604145Y2364996D01*
X1603382Y2364233D01*
X1596508Y2364430D01*
X1594861Y2366076D01*
X1588712Y2368624D01*
X1582055D01*
X1575905Y2366076D01*
X1571198Y2361369D01*
X1568651Y2355220D01*
Y2348563D01*
X1570707Y2343601D01*
X1567928Y2340822D01*
X1565303Y2336895D01*
X1564381Y2332262D01*
X1564382Y2332261D01*
Y2251921D01*
X1543776D01*
Y2409401D01*
X1543165Y2412473D01*
X1541425Y2415078D01*
X1538820Y2416818D01*
X1535748Y2417429D01*
X1299528D01*
X1297636Y2417053D01*
X1294787Y2419517D01*
X1293864Y2421013D01*
X1294606Y2422805D01*
Y2429462D01*
X1292059Y2435611D01*
X1287352Y2440318D01*
X1281202Y2442866D01*
X1274546D01*
X1268396Y2440318D01*
X1263689Y2435611D01*
X1261142Y2429462D01*
Y2422805D01*
X1263689Y2416655D01*
X1263728Y2416616D01*
Y2251921D01*
X1062992D01*
X1062992Y1654479D01*
X1083219Y1634252D01*
X1199017Y1518455D01*
X1198346Y1512054D01*
X1196775Y1510484D01*
X1210945D01*
Y1485484D01*
X1196775D01*
X1200023Y1482236D01*
X1196775Y1478987D01*
X1210945D01*
Y1453987D01*
X1196775D01*
X1200023Y1450739D01*
X1196775Y1447492D01*
X1210945D01*
Y1434992D01*
X1223445D01*
Y1420822D01*
X1225551Y1422928D01*
X1228661Y1423816D01*
X1231772Y1422928D01*
X1233878Y1420822D01*
Y1434992D01*
X1258878D01*
Y1420822D01*
X1260984Y1422928D01*
X1264094Y1423816D01*
X1267205Y1422928D01*
X1271129Y1419004D01*
X1278060Y1416133D01*
X1285562D01*
X1287342Y1416870D01*
X1291499Y1414093D01*
Y1403495D01*
X1029041D01*
X1023193Y1409343D01*
X1023193Y1479466D01*
X1023232Y1479506D01*
X1025779Y1485655D01*
Y1492312D01*
X1023232Y1498462D01*
X1018525Y1503168D01*
X1012375Y1505716D01*
X1005719D01*
X999569Y1503168D01*
X998032Y1501631D01*
X994862Y1498462D01*
X992315Y1492312D01*
Y1485655D01*
X994862Y1479506D01*
X994901Y1479466D01*
X994902Y1405464D01*
D01*
Y1403495D01*
X699134D01*
Y1391397D01*
X697626Y1390046D01*
X694134Y1388971D01*
X692601Y1390486D01*
Y1396086D01*
X690054Y1402236D01*
X688795Y1403495D01*
X685347Y1406943D01*
X679197Y1409490D01*
X672541D01*
X666391Y1406943D01*
X662943Y1403495D01*
X661684Y1402236D01*
X659137Y1396086D01*
Y1391395D01*
X654446D01*
X648296Y1388848D01*
X643589Y1384141D01*
X641042Y1377991D01*
Y1371335D01*
X643589Y1365185D01*
X648296Y1360478D01*
X654446Y1357931D01*
X661102D01*
X662269Y1358414D01*
X699134Y1321548D01*
Y1229814D01*
X615701D01*
X608727Y1228427D01*
X602814Y1224476D01*
X598864Y1218564D01*
X597477Y1211590D01*
X598864Y1204616D01*
X602814Y1198703D01*
X608727Y1194753D01*
X615701Y1193366D01*
X699134D01*
Y974028D01*
X666698Y941592D01*
X663632Y937003D01*
X662555Y931590D01*
Y849286D01*
X662750Y848305D01*
X659578Y844440D01*
X413701D01*
Y1559747D01*
X401729Y1571719D01*
X401728Y2428771D01*
X401728Y2440031D01*
X404667Y2462357D01*
X410496Y2484110D01*
X419114Y2504916D01*
X430373Y2524418D01*
X444082Y2542284D01*
X460007Y2558209D01*
X477872Y2571917D01*
X497375Y2583177D01*
X518181Y2591794D01*
X539934Y2597623D01*
X562260Y2600562D01*
X573520Y2600562D01*
X573716Y2600601D01*
X573914Y2600572D01*
X579702Y2600856D01*
X580279Y2601000D01*
X580874D01*
X592229Y2603258D01*
X592960Y2603561D01*
X593735Y2603715D01*
X604430Y2608145D01*
X605088Y2608584D01*
X605101Y2608590D01*
X813933Y2608590D01*
X898322D01*
X898322Y2608590D01*
X1025271D01*
X1025271Y2608590D01*
D02*
G37*
G36*
X3799213Y1631842D02*
X3681102D01*
X3641732Y1671212D01*
Y2183023D01*
X3799213D01*
Y1631842D01*
D02*
G37*
G36*
X2952756D02*
X2834646D01*
X2795276Y1671212D01*
Y2183023D01*
X2952756D01*
Y1631842D01*
D02*
G37*
G36*
X2106299D02*
X1988189D01*
X1948819Y1671212D01*
Y2183023D01*
X2106299D01*
Y1631842D01*
D02*
G37*
G36*
X1259843D02*
X1141732D01*
X1102362Y1671212D01*
Y2183023D01*
X1259843D01*
Y1631842D01*
D02*
G37*
G36*
X1535748Y1068850D02*
X1464882Y997984D01*
X1429449Y962551D01*
X1286524D01*
X1285354Y962783D01*
X1285354Y962783D01*
X1082992D01*
Y962551D01*
X1004252Y962550D01*
Y962783D01*
X1000369D01*
X991460Y971692D01*
Y974631D01*
X988913Y980781D01*
X984206Y985488D01*
X978056Y988035D01*
X971399D01*
X965250Y985488D01*
X960543Y980781D01*
X957995Y974631D01*
Y967975D01*
X958520Y966708D01*
X955742Y962551D01*
X888602D01*
X876779Y974373D01*
Y977312D01*
X874232Y983462D01*
X869525Y988168D01*
X863375Y990716D01*
X856719D01*
X850569Y988168D01*
X845862Y983462D01*
X843315Y977312D01*
Y970655D01*
X843435Y970365D01*
X841047Y966780D01*
Y962551D01*
X807402D01*
X787717Y982236D01*
X787717Y1013979D01*
X787717Y1013979D01*
Y1090503D01*
X817244Y1120031D01*
X853487D01*
X865814Y1107704D01*
X865814Y1107703D01*
X871727Y1103753D01*
X878701Y1102366D01*
X1025985D01*
X1025985Y1102366D01*
X1032959Y1103753D01*
X1038871Y1107703D01*
X1050587Y1119419D01*
X1050587Y1119419D01*
X1050996Y1120031D01*
X1299528D01*
Y2328692D01*
Y2409401D01*
X1535748D01*
Y1068850D01*
D02*
G37*
G36*
X4075118D02*
X4004252Y997984D01*
X3968819Y962551D01*
X3825894D01*
X3824724Y962783D01*
X3824724Y962783D01*
X3622362D01*
Y962551D01*
X3543622Y962550D01*
Y962783D01*
X3539739D01*
X3530830Y971692D01*
Y974631D01*
X3528283Y980781D01*
X3523576Y985488D01*
X3517426Y988035D01*
X3510769D01*
X3504620Y985488D01*
X3499913Y980781D01*
X3497365Y974631D01*
Y967975D01*
X3497890Y966708D01*
X3495113Y962551D01*
X3427972D01*
X3416149Y974373D01*
Y977312D01*
X3413602Y983462D01*
X3408895Y988168D01*
X3402745Y990716D01*
X3396089D01*
X3389939Y988168D01*
X3385232Y983462D01*
X3382685Y977312D01*
Y970655D01*
X3382805Y970365D01*
X3380417Y966780D01*
Y962551D01*
X3346772D01*
X3327087Y982236D01*
X3327087Y1036369D01*
X3327339D01*
Y1037565D01*
X3330886Y1041112D01*
X3333433Y1047262D01*
Y1053918D01*
X3330886Y1060068D01*
X3327087Y1063867D01*
Y1090503D01*
X3356614Y1120031D01*
X3838898D01*
Y2328692D01*
Y2409401D01*
X4075118D01*
Y1068850D01*
D02*
G37*
G36*
X3228662D02*
X3157795Y997984D01*
X3122362Y962551D01*
X2979438D01*
X2978268Y962783D01*
X2978267Y962783D01*
X2775906D01*
Y962551D01*
X2697165Y962550D01*
Y962783D01*
X2693282D01*
X2684373Y971692D01*
Y974631D01*
X2681826Y980781D01*
X2677119Y985488D01*
X2670969Y988035D01*
X2664313D01*
X2658163Y985488D01*
X2653456Y980781D01*
X2650909Y974631D01*
Y967975D01*
X2651434Y966708D01*
X2648656Y962551D01*
X2581515D01*
X2569693Y974373D01*
Y977312D01*
X2567146Y983462D01*
X2562439Y988168D01*
X2556289Y990716D01*
X2549633D01*
X2543483Y988168D01*
X2538776Y983462D01*
X2536229Y977312D01*
Y970655D01*
X2536349Y970365D01*
X2533961Y966780D01*
Y962551D01*
X2500315D01*
X2480630Y982236D01*
X2480630Y1013979D01*
X2480630Y1013979D01*
Y1090503D01*
X2510157Y1120031D01*
X2992441D01*
Y2328692D01*
Y2409401D01*
X3228662D01*
Y1068850D01*
D02*
G37*
G36*
X2382205D02*
X2311339Y997984D01*
X2275905Y962551D01*
X2132981D01*
X2131811Y962783D01*
X2131811Y962783D01*
X1929449D01*
Y962551D01*
X1850709Y962550D01*
Y962783D01*
X1846826D01*
X1837917Y971692D01*
Y974631D01*
X1835369Y980781D01*
X1830662Y985488D01*
X1824513Y988035D01*
X1817856D01*
X1811706Y985488D01*
X1806999Y980781D01*
X1804452Y974631D01*
Y967975D01*
X1804977Y966708D01*
X1802199Y962551D01*
X1735058D01*
X1723236Y974373D01*
Y977312D01*
X1720689Y983462D01*
X1715982Y988168D01*
X1709832Y990716D01*
X1703176D01*
X1697026Y988168D01*
X1692319Y983462D01*
X1689772Y977312D01*
Y970655D01*
X1689892Y970365D01*
X1687504Y966780D01*
Y962551D01*
X1653858D01*
X1634173Y982236D01*
X1634173Y1013979D01*
X1634173Y1013979D01*
Y1026822D01*
X1634173Y1026822D01*
Y1036369D01*
X1634445D01*
Y1043671D01*
X1638366Y1047592D01*
X1640913Y1053742D01*
Y1060398D01*
X1638366Y1066548D01*
X1634173Y1070741D01*
Y1090503D01*
X1663701Y1120031D01*
X2145984D01*
Y2328692D01*
Y2409401D01*
X2382205D01*
Y1068850D01*
D02*
G37*
G36*
X4593673Y849370D02*
X4593672Y836669D01*
X4590356Y811488D01*
X4583783Y786956D01*
X4574064Y763490D01*
X4561365Y741495D01*
X4545903Y721345D01*
X4527944Y703386D01*
X4507794Y687925D01*
X4485799Y675226D01*
X4462334Y665506D01*
X4437801Y658933D01*
X4412620Y655618D01*
X4399921Y655618D01*
X4184267Y655618D01*
X4182353Y660237D01*
X4194703Y672587D01*
X4195502Y673783D01*
X4197651Y674673D01*
X4202358Y679380D01*
X4204905Y685529D01*
Y692186D01*
X4202358Y698336D01*
X4197651Y703043D01*
X4191501Y705590D01*
X4184845D01*
X4178695Y703043D01*
X4173988Y698336D01*
X4171441Y692186D01*
Y689335D01*
X4161652Y679547D01*
X4041414D01*
X4040419Y684547D01*
X4045383Y686603D01*
X4048870Y690090D01*
X4020531D01*
X4024019Y686603D01*
X4028982Y684547D01*
X4027988Y679547D01*
X3660907D01*
X3658441Y684547D01*
X3660890Y687738D01*
X3663881Y694959D01*
X3664811Y702020D01*
X3634961D01*
X3605110D01*
X3606039Y694959D01*
X3609030Y687738D01*
X3611479Y684547D01*
X3609013Y679547D01*
X3320750D01*
X3318285Y684547D01*
X3320733Y687738D01*
X3323724Y694959D01*
X3324654Y702019D01*
X3264953D01*
X3265883Y694959D01*
X3268874Y687738D01*
X3271322Y684547D01*
X3268857Y679547D01*
X2814451D01*
X2811985Y684547D01*
X2814434Y687738D01*
X2817425Y694959D01*
X2818354Y702019D01*
X2788504D01*
X2758653D01*
X2759583Y694959D01*
X2762574Y687738D01*
X2765022Y684547D01*
X2762557Y679547D01*
X2474294D01*
X2471828Y684547D01*
X2474277Y687738D01*
X2477268Y694959D01*
X2478197Y702019D01*
X2418496D01*
X2419426Y694959D01*
X2422417Y687738D01*
X2424866Y684547D01*
X2422400Y679547D01*
X1967994D01*
X1965528Y684547D01*
X1967977Y687738D01*
X1970968Y694959D01*
X1971898Y702019D01*
X1942047D01*
Y714519D01*
D01*
Y702019D01*
X1912197D01*
X1913126Y694959D01*
X1916117Y687738D01*
X1918566Y684547D01*
X1916100Y679547D01*
X1627837D01*
X1625371Y684547D01*
X1627820Y687738D01*
X1630811Y694959D01*
X1631741Y702019D01*
X1572040D01*
X1572969Y694959D01*
X1575960Y687738D01*
X1578409Y684547D01*
X1575943Y679547D01*
X1121537D01*
X1119072Y684547D01*
X1121520Y687738D01*
X1124511Y694959D01*
X1125441Y702019D01*
X1095590D01*
Y714519D01*
D01*
Y702019D01*
X1065740D01*
X1066669Y694959D01*
X1069660Y687738D01*
X1072109Y684547D01*
X1069643Y679547D01*
X893847D01*
Y743590D01*
X892770Y749003D01*
X889703Y753592D01*
X873404Y769892D01*
X871004Y771496D01*
X872521Y776496D01*
X1524830D01*
X1524831Y776496D01*
X1531805Y777883D01*
X1537717Y781833D01*
X1550250Y794366D01*
X2379700D01*
X2379701Y794366D01*
X2386675Y795753D01*
X2392587Y799703D01*
X2396701Y803817D01*
X2421814Y778704D01*
X2421814Y778703D01*
X2427727Y774753D01*
X2434701Y773366D01*
X2434701Y773366D01*
X3109700D01*
X3109701Y773366D01*
X3116675Y774753D01*
X3122587Y778703D01*
X3231857Y887973D01*
X3236477Y886060D01*
Y833590D01*
X3236477Y833590D01*
X3237864Y826616D01*
X3241814Y820703D01*
X3298814Y763704D01*
X3298814Y763703D01*
X3304727Y759753D01*
X3311701Y758366D01*
X3311701Y758366D01*
X3621664D01*
X3622658Y753366D01*
X3619990Y752260D01*
X3613789Y747502D01*
X3609030Y741301D01*
X3606039Y734080D01*
X3605110Y727020D01*
X3634961D01*
X3664811D01*
X3663881Y734080D01*
X3660890Y741301D01*
X3656132Y747502D01*
X3649931Y752260D01*
X3647262Y753366D01*
X3648257Y758366D01*
X3958700D01*
X3958701Y758366D01*
X3965675Y759753D01*
X3971587Y763703D01*
X3988855Y780971D01*
X3992805Y786884D01*
X3994193Y793858D01*
X3993248Y798605D01*
X3996508Y803605D01*
X4208122D01*
X4250969Y760759D01*
Y759262D01*
X4253516Y753112D01*
X4258223Y748405D01*
X4264373Y745858D01*
X4271029D01*
X4277179Y748405D01*
X4281886Y753112D01*
X4284433Y759262D01*
Y765918D01*
X4281886Y772068D01*
X4277179Y776775D01*
X4271029Y779322D01*
X4269532D01*
X4222841Y826013D01*
X4218582Y828859D01*
X4213559Y829858D01*
X4119275D01*
X4117361Y834477D01*
X4190587Y907703D01*
X4190587Y907703D01*
X4194538Y913616D01*
X4195925Y920590D01*
X4195925Y920590D01*
Y998604D01*
X4195925Y998605D01*
X4194538Y1005579D01*
X4190587Y1011491D01*
X4190587Y1011491D01*
X4189106Y1012972D01*
X4191019Y1017592D01*
X4214066D01*
X4215576Y1017892D01*
X4223327D01*
X4228468Y1015763D01*
X4235124D01*
X4241274Y1018310D01*
X4245981Y1023017D01*
X4248528Y1029167D01*
Y1035823D01*
X4245981Y1041973D01*
X4241274Y1046680D01*
X4235124Y1049227D01*
X4230851D01*
X4230433Y1049852D01*
Y1056508D01*
X4227886Y1062658D01*
X4223179Y1067365D01*
X4217029Y1069912D01*
X4210373D01*
X4204223Y1067365D01*
X4200702Y1063844D01*
X4193827D01*
Y1091869D01*
X4267477Y1165518D01*
X4272477Y1163447D01*
Y989157D01*
X4272476Y989157D01*
X4273864Y982183D01*
X4277814Y976270D01*
X4287097Y966987D01*
X4287098Y966987D01*
X4293010Y963036D01*
X4299984Y961649D01*
X4299985Y961649D01*
X4300433D01*
X4307407Y963036D01*
X4313320Y966987D01*
X4317270Y972899D01*
X4318657Y979873D01*
X4317270Y986847D01*
X4313320Y992760D01*
X4311967Y993664D01*
X4308925Y996705D01*
Y1167590D01*
X4307538Y1174564D01*
X4303587Y1180476D01*
X4297675Y1184427D01*
X4290701Y1185814D01*
X4289317Y1185539D01*
X4286918Y1187937D01*
X4285827Y1189943D01*
Y1255153D01*
X4344138Y1313464D01*
X4450985D01*
X4456008Y1314463D01*
X4460267Y1317308D01*
X4563730Y1420772D01*
X4566576Y1425031D01*
X4567575Y1430054D01*
Y1592472D01*
X4593673D01*
Y849370D01*
D02*
G37*
G36*
X891486Y925423D02*
X891487Y925423D01*
X895414Y922798D01*
X900047Y921877D01*
X1068740Y921877D01*
X1070951Y917393D01*
X1069660Y915710D01*
X1066669Y908489D01*
X1065649Y900740D01*
Y891586D01*
X1095590D01*
X1125532D01*
Y900740D01*
X1124511Y908489D01*
X1121520Y915710D01*
X1120229Y917393D01*
X1122441Y921877D01*
X1155757D01*
X1171413Y906221D01*
Y832740D01*
X1119902D01*
X1117897Y837740D01*
X1121520Y842462D01*
X1124511Y849683D01*
X1125532Y857433D01*
Y866586D01*
X1095590D01*
X1065649D01*
Y857433D01*
X1066669Y849683D01*
X1069660Y842462D01*
X1073284Y837740D01*
X1071279Y832740D01*
X1046137D01*
X1045143Y837740D01*
X1051275Y840280D01*
X1057228Y846233D01*
X1060449Y854010D01*
Y862429D01*
X1057228Y870207D01*
X1051275Y876159D01*
X1043497Y879381D01*
X1035079D01*
X1027301Y876159D01*
X1021348Y870207D01*
X1018127Y862429D01*
Y854010D01*
X1021348Y846233D01*
X1027301Y840280D01*
X1033433Y837740D01*
X1032439Y832740D01*
X930556D01*
X825050Y938246D01*
X826963Y942865D01*
X874044D01*
X891486Y925423D01*
D02*
G37*
G36*
X2584400D02*
X2584400Y925423D01*
X2588328Y922798D01*
X2592961Y921877D01*
X2761653Y921877D01*
X2763865Y917393D01*
X2762574Y915710D01*
X2759583Y908489D01*
X2758562Y900740D01*
Y891586D01*
X2788504D01*
X2818445D01*
Y900740D01*
X2817425Y908489D01*
X2814434Y915710D01*
X2813143Y917393D01*
X2815354Y921877D01*
X2848670D01*
X2864327Y906221D01*
Y832449D01*
X2812312D01*
X2810587Y837449D01*
X2814434Y842462D01*
X2817425Y849683D01*
X2818445Y857433D01*
Y866586D01*
X2788504D01*
X2758562D01*
Y857433D01*
X2759583Y849683D01*
X2762574Y842462D01*
X2766420Y837449D01*
X2764695Y832449D01*
X2738349D01*
X2737355Y837449D01*
X2744189Y840280D01*
X2750141Y846233D01*
X2753363Y854010D01*
Y862429D01*
X2750141Y870207D01*
X2744189Y876159D01*
X2736411Y879381D01*
X2727992D01*
X2720215Y876159D01*
X2714262Y870207D01*
X2711040Y862429D01*
Y854010D01*
X2714262Y846233D01*
X2720215Y840280D01*
X2727048Y837449D01*
X2726054Y832449D01*
X2611263D01*
X2505466Y938246D01*
X2507379Y942865D01*
X2566957D01*
X2584400Y925423D01*
D02*
G37*
G36*
X1737943D02*
X1737943Y925423D01*
X1741871Y922798D01*
X1746504Y921877D01*
X1915197Y921877D01*
X1917408Y917393D01*
X1916117Y915710D01*
X1913126Y908489D01*
X1912106Y900740D01*
Y891586D01*
X1942047D01*
X1971988D01*
Y900740D01*
X1970968Y908489D01*
X1967977Y915710D01*
X1966686Y917393D01*
X1968898Y921877D01*
X2002214D01*
X2017870Y906221D01*
Y830814D01*
X1964333D01*
X1962636Y835814D01*
X1963219Y836261D01*
X1967977Y842462D01*
X1970968Y849683D01*
X1971988Y857433D01*
Y866586D01*
X1942047D01*
X1912106D01*
Y857433D01*
X1913126Y849683D01*
X1916117Y842462D01*
X1920875Y836261D01*
X1921458Y835814D01*
X1919761Y830814D01*
X1624177D01*
X1622479Y835814D01*
X1623062Y836261D01*
X1627820Y842462D01*
X1630811Y849683D01*
X1631831Y857433D01*
Y866586D01*
X1601890D01*
Y879086D01*
X1589390D01*
Y927693D01*
X1588123Y927168D01*
X1585291Y931407D01*
X1596749Y942865D01*
X1720501D01*
X1737943Y925423D01*
D02*
G37*
G36*
X2591771Y814814D02*
X2589700Y809814D01*
X2442249D01*
X2414925Y837139D01*
Y847484D01*
X2419925Y848478D01*
X2422417Y842462D01*
X2427175Y836261D01*
X2433376Y831503D01*
X2435847Y830479D01*
Y879086D01*
X2448347D01*
Y891586D01*
X2478288D01*
Y900740D01*
X2477268Y908489D01*
X2474277Y915710D01*
X2469519Y921911D01*
X2463318Y926670D01*
X2456096Y929661D01*
X2450100Y930450D01*
X2447237Y935166D01*
X2447538Y935616D01*
X2448925Y942590D01*
X2453690Y942865D01*
X2463720D01*
X2591771Y814814D01*
D02*
G37*
G36*
X3430856Y925423D02*
X3430857Y925423D01*
X3434784Y922798D01*
X3439417Y921877D01*
X3608110Y921877D01*
X3610321Y917393D01*
X3609030Y915710D01*
X3606039Y908489D01*
X3605019Y900740D01*
Y891586D01*
X3634961D01*
X3664901D01*
Y900740D01*
X3663881Y908489D01*
X3660890Y915710D01*
X3659599Y917393D01*
X3661811Y921877D01*
X3695127D01*
X3710784Y906221D01*
Y829858D01*
X3656000D01*
X3654303Y834858D01*
X3656132Y836261D01*
X3660890Y842462D01*
X3663881Y849683D01*
X3664901Y857433D01*
Y866586D01*
X3634961D01*
X3605019D01*
Y857433D01*
X3606039Y849683D01*
X3609030Y842462D01*
X3613789Y836261D01*
X3615617Y834858D01*
X3613920Y829858D01*
X3443996D01*
X3335608Y938246D01*
X3337521Y942865D01*
X3413414D01*
X3430856Y925423D01*
D02*
G37*
G36*
X3352346Y884381D02*
X3350275Y879381D01*
X3346896D01*
X3339119Y876160D01*
X3333166Y870207D01*
X3329944Y862429D01*
Y854010D01*
X3333166Y846233D01*
X3339119Y840280D01*
X3346896Y837058D01*
X3355315D01*
X3363093Y840280D01*
X3369046Y846233D01*
X3372267Y854010D01*
Y857389D01*
X3377267Y859460D01*
X3429278Y807450D01*
X3433536Y804605D01*
X3438559Y803605D01*
X3953410D01*
X3955324Y798986D01*
X3951152Y794814D01*
X3319249D01*
X3291132Y822932D01*
X3293467Y827667D01*
X3294803Y827491D01*
X3302553Y828512D01*
X3309774Y831503D01*
X3315975Y836261D01*
X3320733Y842462D01*
X3323724Y849683D01*
X3324745Y857433D01*
Y866586D01*
X3294803D01*
Y891586D01*
X3324745D01*
Y900740D01*
X3324112Y905544D01*
X3328848Y907880D01*
X3352346Y884381D01*
D02*
G37*
G36*
X905722Y817563D02*
X903808Y812944D01*
X772579D01*
X761631Y823892D01*
X763819Y828775D01*
X770404Y831503D01*
X776605Y836261D01*
X781363Y842462D01*
X784355Y849683D01*
X785375Y857433D01*
Y866586D01*
X755433D01*
Y879086D01*
X742933D01*
Y927693D01*
X740463Y926670D01*
X734262Y921911D01*
X733049Y920331D01*
X728060Y920004D01*
X717587Y930476D01*
X711675Y934427D01*
X709476Y934864D01*
X707716Y940029D01*
X710000Y942865D01*
X780420D01*
X905722Y817563D01*
D02*
G37*
G36*
X408024Y838763D02*
X410628Y837023D01*
X413701Y836412D01*
X659578D01*
X659968Y836490D01*
X660365Y836451D01*
X661494Y836793D01*
X662650Y837023D01*
X662981Y837244D01*
X663362Y837360D01*
X665532Y838611D01*
X669563Y836385D01*
X669720Y836262D01*
X746111Y759871D01*
X744838Y754072D01*
X740463Y752260D01*
X734262Y747502D01*
X729504Y741301D01*
X726513Y734080D01*
X725583Y727019D01*
X785284D01*
X784355Y734080D01*
X781594Y740744D01*
X783144Y744913D01*
X783554Y745744D01*
X857542D01*
X865555Y737731D01*
Y672430D01*
X866632Y667017D01*
X869698Y662428D01*
X870644Y661482D01*
X868724Y656865D01*
X552963Y657765D01*
X545970Y658685D01*
X523267Y664768D01*
X501553Y673763D01*
X481199Y685514D01*
X462553Y699822D01*
X445933Y716441D01*
X431625Y735087D01*
X419874Y755442D01*
X410879Y777156D01*
X404796Y799859D01*
X401728Y823161D01*
X401729Y839870D01*
X404076Y840642D01*
X406729Y840702D01*
X408024Y838763D01*
D02*
G37*
%LPC*%
G36*
X570866Y2486496D02*
X557746Y2485204D01*
X545130Y2481377D01*
X533503Y2475162D01*
X523311Y2466798D01*
X514947Y2456607D01*
X508733Y2444980D01*
X504906Y2432364D01*
X503613Y2419243D01*
X504906Y2406123D01*
X508733Y2393507D01*
X514947Y2381880D01*
X523311Y2371688D01*
X533503Y2363325D01*
X545130Y2357110D01*
X557746Y2353283D01*
X570866Y2351990D01*
X583987Y2353283D01*
X596603Y2357110D01*
X608230Y2363325D01*
X618421Y2371688D01*
X626785Y2381880D01*
X633000Y2393507D01*
X636827Y2406123D01*
X638119Y2419243D01*
X636827Y2432364D01*
X633000Y2444980D01*
X626785Y2456607D01*
X618421Y2466798D01*
X608230Y2475162D01*
X596603Y2481377D01*
X583987Y2485204D01*
X570866Y2486496D01*
D02*
G37*
G36*
X571701Y1670814D02*
X571700Y1670814D01*
X569969D01*
X562995Y1669427D01*
X557082Y1665476D01*
X553132Y1659564D01*
X551744Y1652590D01*
X553132Y1645616D01*
X557082Y1639703D01*
X562995Y1635753D01*
X569969Y1634366D01*
X571243D01*
X571814Y1634252D01*
X571815Y1634252D01*
X689814D01*
X696788Y1635639D01*
X702701Y1639590D01*
X706651Y1645502D01*
X708039Y1652476D01*
X706651Y1659450D01*
X702701Y1665363D01*
X696788Y1669313D01*
X689814Y1670701D01*
X572272D01*
X571701Y1670814D01*
D02*
G37*
G36*
X905512Y1757980D02*
X767716D01*
X764644Y1757369D01*
X762040Y1755629D01*
X760299Y1753024D01*
X759688Y1749952D01*
Y1612157D01*
X760299Y1609084D01*
X762040Y1606480D01*
X764644Y1604740D01*
X767716Y1604129D01*
X905512D01*
X908584Y1604740D01*
X911189Y1606480D01*
X912929Y1609084D01*
X913540Y1612157D01*
Y1749952D01*
X912929Y1753024D01*
X911189Y1755629D01*
X908584Y1757369D01*
X905512Y1757980D01*
D02*
G37*
G36*
X3737815Y1422492D02*
X3736145D01*
X3737815Y1420822D01*
Y1422492D01*
D02*
G37*
G36*
X2891358D02*
X2889689D01*
X2891358Y1420822D01*
Y1422492D01*
D02*
G37*
G36*
X2044902D02*
X2043232D01*
X2044902Y1420822D01*
Y1422492D01*
D02*
G37*
G36*
X1198445D02*
X1196775D01*
X1198445Y1420822D01*
Y1422492D01*
D02*
G37*
G36*
X559201Y1002238D02*
Y973090D01*
X588349D01*
X587203Y977367D01*
X581481Y987278D01*
X573389Y995370D01*
X563477Y1001092D01*
X559201Y1002238D01*
D02*
G37*
G36*
X534201Y1002238D02*
X529924Y1001092D01*
X520013Y995370D01*
X511921Y987278D01*
X506198Y977367D01*
X505053Y973090D01*
X534201D01*
Y1002238D01*
D02*
G37*
G36*
Y948090D02*
X505052D01*
X506198Y943813D01*
X511921Y933902D01*
X520013Y925810D01*
X529924Y920087D01*
X534201Y918942D01*
Y948090D01*
D02*
G37*
G36*
X588349D02*
X559201D01*
Y918941D01*
X563477Y920087D01*
X573389Y925810D01*
X581481Y933902D01*
X587203Y943813D01*
X588349Y948090D01*
D02*
G37*
G36*
X4400708Y1276346D02*
X4391555D01*
Y1258905D01*
X4427661D01*
X4426638Y1261376D01*
X4421880Y1267577D01*
X4415679Y1272335D01*
X4408458Y1275326D01*
X4400708Y1276346D01*
D02*
G37*
G36*
X4366555D02*
X4357401D01*
X4349652Y1275326D01*
X4342431Y1272335D01*
X4336230Y1267577D01*
X4331471Y1261376D01*
X4330448Y1258905D01*
X4366555D01*
Y1276346D01*
D02*
G37*
G36*
X4556121Y1276256D02*
Y1258905D01*
X4582386D01*
X4581362Y1261376D01*
X4576604Y1267577D01*
X4570403Y1272335D01*
X4563182Y1275326D01*
X4556121Y1276256D01*
D02*
G37*
G36*
X4531121Y1276255D02*
X4524061Y1275326D01*
X4516840Y1272335D01*
X4510639Y1267577D01*
X4505881Y1261376D01*
X4504857Y1258905D01*
X4531121D01*
Y1276255D01*
D02*
G37*
G36*
Y1233905D02*
X4504858D01*
X4505881Y1231435D01*
X4510639Y1225234D01*
X4516840Y1220475D01*
X4524061Y1217484D01*
X4531121Y1216555D01*
Y1233905D01*
D02*
G37*
G36*
X4582386D02*
X4556121D01*
Y1216555D01*
X4563182Y1217484D01*
X4570403Y1220475D01*
X4576604Y1225234D01*
X4581362Y1231435D01*
X4582386Y1233905D01*
D02*
G37*
G36*
X4427662Y1233905D02*
X4391555D01*
Y1216464D01*
X4400708D01*
X4408458Y1217484D01*
X4415679Y1220475D01*
X4421880Y1225234D01*
X4426638Y1231435D01*
X4427662Y1233905D01*
D02*
G37*
G36*
X4366555D02*
X4330448D01*
X4331471Y1231435D01*
X4336230Y1225234D01*
X4342431Y1220475D01*
X4349652Y1217484D01*
X4357401Y1216464D01*
X4366555D01*
Y1233905D01*
D02*
G37*
G36*
X4404131Y1211264D02*
X4395712D01*
X4387934Y1208043D01*
X4381981Y1202090D01*
X4378760Y1194312D01*
Y1185894D01*
X4381981Y1178116D01*
X4387934Y1172163D01*
X4395712Y1168941D01*
X4404131D01*
X4411908Y1172163D01*
X4417861Y1178116D01*
X4421083Y1185894D01*
Y1194312D01*
X4417861Y1202090D01*
X4411908Y1208043D01*
X4404131Y1211264D01*
D02*
G37*
G36*
Y983712D02*
X4395712D01*
X4387934Y980490D01*
X4381981Y974538D01*
X4378760Y966760D01*
Y958341D01*
X4381981Y950563D01*
X4387934Y944611D01*
X4395712Y941389D01*
X4404131D01*
X4411908Y944611D01*
X4417861Y950563D01*
X4421083Y958341D01*
Y966760D01*
X4417861Y974538D01*
X4411908Y980490D01*
X4404131Y983712D01*
D02*
G37*
G36*
X4556121Y936099D02*
Y918749D01*
X4582386D01*
X4581362Y921219D01*
X4576604Y927420D01*
X4570403Y932178D01*
X4563182Y935169D01*
X4556121Y936099D01*
D02*
G37*
G36*
X4531121D02*
X4524061Y935169D01*
X4516840Y932178D01*
X4510639Y927420D01*
X4505881Y921219D01*
X4504858Y918749D01*
X4531121D01*
Y936099D01*
D02*
G37*
G36*
X4400708Y936189D02*
X4391555D01*
Y918748D01*
X4427662D01*
X4426638Y921219D01*
X4421880Y927420D01*
X4415679Y932178D01*
X4408458Y935169D01*
X4400708Y936189D01*
D02*
G37*
G36*
X4366555D02*
X4357401D01*
X4349652Y935169D01*
X4342431Y932178D01*
X4336230Y927420D01*
X4331471Y921219D01*
X4330448Y918748D01*
X4366555D01*
Y936189D01*
D02*
G37*
G36*
X4531121Y893749D02*
X4504857D01*
X4505881Y891278D01*
X4510639Y885077D01*
X4516840Y880318D01*
X4524061Y877327D01*
X4531121Y876398D01*
Y893749D01*
D02*
G37*
G36*
X4582386D02*
X4556121D01*
Y876398D01*
X4563182Y877327D01*
X4570403Y880318D01*
X4576604Y885077D01*
X4581362Y891278D01*
X4582386Y893749D01*
D02*
G37*
G36*
X4427661Y893748D02*
X4391555D01*
Y876307D01*
X4400708D01*
X4408458Y877327D01*
X4415679Y880318D01*
X4421880Y885077D01*
X4426638Y891278D01*
X4427661Y893748D01*
D02*
G37*
G36*
X4366555D02*
X4330448D01*
X4331471Y891278D01*
X4336230Y885077D01*
X4342431Y880318D01*
X4349652Y877327D01*
X4357401Y876307D01*
X4366555D01*
Y893748D01*
D02*
G37*
G36*
X4046201Y792759D02*
Y791090D01*
X4047870D01*
X4046201Y792759D01*
D02*
G37*
G36*
X4021201D02*
X4019531Y791090D01*
X4021201D01*
Y792759D01*
D02*
G37*
G36*
X4047870Y766090D02*
X4019531D01*
X4022452Y763169D01*
X4022549Y757797D01*
X4022019Y757577D01*
X4018531Y754090D01*
X4046870D01*
X4043949Y757011D01*
X4043852Y762383D01*
X4044383Y762603D01*
X4047870Y766090D01*
D02*
G37*
G36*
X3307303Y753284D02*
Y727019D01*
X3324654D01*
X3323724Y734080D01*
X3320733Y741301D01*
X3315975Y747502D01*
X3309774Y752260D01*
X3307303Y753284D01*
D02*
G37*
G36*
X3282303D02*
X3279833Y752260D01*
X3273632Y747502D01*
X3268874Y741301D01*
X3265883Y734080D01*
X3264953Y727019D01*
X3282303D01*
Y753284D01*
D02*
G37*
G36*
X2460847Y753284D02*
Y727019D01*
X2478197D01*
X2477268Y734080D01*
X2474277Y741301D01*
X2469519Y747502D01*
X2463318Y752260D01*
X2460847Y753284D01*
D02*
G37*
G36*
X2435847D02*
X2433376Y752260D01*
X2427175Y747502D01*
X2422417Y741301D01*
X2419426Y734080D01*
X2418496Y727019D01*
X2435847D01*
Y753284D01*
D02*
G37*
G36*
X1614390D02*
Y727019D01*
X1631741D01*
X1630811Y734080D01*
X1627820Y741301D01*
X1623062Y747502D01*
X1616861Y752260D01*
X1614390Y753284D01*
D02*
G37*
G36*
X1589390D02*
X1586920Y752260D01*
X1580719Y747502D01*
X1575960Y741301D01*
X1572969Y734080D01*
X1572040Y727019D01*
X1589390D01*
Y753284D01*
D02*
G37*
G36*
X2801004D02*
Y727019D01*
X2818354D01*
X2817425Y734080D01*
X2814434Y741301D01*
X2809675Y747502D01*
X2803474Y752260D01*
X2801004Y753284D01*
D02*
G37*
G36*
X1954547Y753284D02*
Y727019D01*
X1971898D01*
X1970968Y734080D01*
X1967977Y741301D01*
X1963219Y747502D01*
X1957018Y752260D01*
X1954547Y753284D01*
D02*
G37*
G36*
X1108090Y753284D02*
Y727019D01*
X1125441D01*
X1124511Y734080D01*
X1121520Y741301D01*
X1116762Y747502D01*
X1110561Y752260D01*
X1108090Y753284D01*
D02*
G37*
G36*
X1083090Y753283D02*
X1080620Y752260D01*
X1074419Y747502D01*
X1069660Y741301D01*
X1066669Y734080D01*
X1065740Y727019D01*
X1083090D01*
Y753283D01*
D02*
G37*
G36*
X1929547Y753283D02*
X1927076Y752260D01*
X1920875Y747502D01*
X1916117Y741301D01*
X1913126Y734080D01*
X1912197Y727019D01*
X1929547D01*
Y753283D01*
D02*
G37*
G36*
X2776004Y753284D02*
X2773533Y752260D01*
X2767332Y747502D01*
X2762574Y741301D01*
X2759583Y734080D01*
X2758653Y727019D01*
X2776004D01*
Y753284D01*
D02*
G37*
G36*
X4046870Y729090D02*
X4018531D01*
X4022019Y725603D01*
X4024966Y724382D01*
Y718970D01*
X4024019Y718577D01*
X4020531Y715090D01*
X4048870D01*
X4045383Y718577D01*
X4042435Y719798D01*
Y725210D01*
X4043383Y725603D01*
X4046870Y729090D01*
D02*
G37*
G36*
X1614390Y927693D02*
Y891586D01*
X1631831D01*
Y900740D01*
X1630811Y908489D01*
X1627820Y915710D01*
X1623062Y921911D01*
X1616861Y926670D01*
X1614390Y927693D01*
D02*
G37*
G36*
X1889954Y879381D02*
X1881535D01*
X1873758Y876159D01*
X1867805Y870207D01*
X1864583Y862429D01*
Y854010D01*
X1867805Y846233D01*
X1873758Y840280D01*
X1881535Y837058D01*
X1889954D01*
X1897732Y840280D01*
X1903685Y846233D01*
X1906906Y854010D01*
Y862429D01*
X1903685Y870207D01*
X1897732Y876159D01*
X1889954Y879381D01*
D02*
G37*
G36*
X1662402D02*
X1653983D01*
X1646205Y876159D01*
X1640253Y870207D01*
X1637031Y862429D01*
Y854010D01*
X1640253Y846233D01*
X1646205Y840280D01*
X1653983Y837058D01*
X1662402D01*
X1670179Y840280D01*
X1676132Y846233D01*
X1679354Y854010D01*
Y862429D01*
X1676132Y870207D01*
X1670179Y876159D01*
X1662402Y879381D01*
D02*
G37*
G36*
X2508858D02*
X2500440D01*
X2492662Y876159D01*
X2486709Y870207D01*
X2483488Y862429D01*
Y854010D01*
X2486709Y846233D01*
X2492662Y840280D01*
X2500440Y837058D01*
X2508858D01*
X2516636Y840280D01*
X2522589Y846233D01*
X2525811Y854010D01*
Y862429D01*
X2522589Y870207D01*
X2516636Y876159D01*
X2508858Y879381D01*
D02*
G37*
G36*
X2478288Y866586D02*
X2460847D01*
Y830479D01*
X2463318Y831503D01*
X2469519Y836261D01*
X2474277Y842462D01*
X2477268Y849683D01*
X2478288Y857433D01*
Y866586D01*
D02*
G37*
G36*
X3582867Y879381D02*
X3574449D01*
X3566671Y876160D01*
X3560718Y870207D01*
X3557497Y862429D01*
Y854011D01*
X3560718Y846233D01*
X3566671Y840280D01*
X3574449Y837058D01*
X3582867D01*
X3590645Y840280D01*
X3596598Y846233D01*
X3599820Y854011D01*
Y862429D01*
X3596598Y870207D01*
X3590645Y876160D01*
X3582867Y879381D01*
D02*
G37*
G36*
X767933Y927693D02*
Y891586D01*
X785375D01*
Y900740D01*
X784355Y908489D01*
X781363Y915710D01*
X776605Y921911D01*
X770404Y926670D01*
X767933Y927693D01*
D02*
G37*
G36*
X815945Y879381D02*
X807526D01*
X799749Y876159D01*
X793796Y870207D01*
X790574Y862429D01*
Y854010D01*
X793796Y846233D01*
X799749Y840280D01*
X807526Y837058D01*
X815945D01*
X823723Y840280D01*
X829676Y846233D01*
X832897Y854010D01*
Y862429D01*
X829676Y870207D01*
X823723Y876159D01*
X815945Y879381D01*
D02*
G37*
G36*
X590165Y804054D02*
X559201D01*
Y773090D01*
X590165D01*
Y804054D01*
D02*
G37*
G36*
X534201D02*
X503236D01*
Y773090D01*
X534201D01*
Y804054D01*
D02*
G37*
G36*
X590165Y748090D02*
X559201D01*
Y717125D01*
X590165D01*
Y748090D01*
D02*
G37*
G36*
X534201D02*
X503236D01*
Y717125D01*
X534201D01*
Y748090D01*
D02*
G37*
G36*
X785284Y702019D02*
X767933D01*
Y675755D01*
X770404Y676779D01*
X776605Y681537D01*
X781363Y687738D01*
X784355Y694959D01*
X785284Y702019D01*
D02*
G37*
G36*
X742933D02*
X725583D01*
X726513Y694959D01*
X729504Y687738D01*
X734262Y681537D01*
X740463Y676779D01*
X742933Y675755D01*
Y702019D01*
D02*
G37*
%LPD*%
D34*
X3927480Y2497984D02*
D03*
X4084961Y982551D02*
D03*
X570866Y2419243D02*
D03*
D36*
X960205Y1307464D02*
X1045632D01*
X931908Y1279167D02*
X960205Y1307464D01*
X1045632D02*
X1064418Y1288677D01*
X1018188Y1233447D02*
Y1242124D01*
X1020047Y1243984D01*
X917146Y1258774D02*
X931908Y1273537D01*
Y1279167D01*
X1797788Y1298590D02*
X1870788D01*
X1895788Y1273590D01*
X1778365Y1279167D02*
X1797788Y1298590D01*
X1763602Y1258774D02*
X1778365Y1273537D01*
Y1279167D01*
X2644244Y1298590D02*
X2717244D01*
X2742244Y1273590D01*
X2624822Y1279167D02*
X2644244Y1298590D01*
X2610059Y1258774D02*
X2624822Y1273537D01*
Y1279167D01*
X893437Y1169822D02*
X1000936D01*
X885982Y1151822D02*
X1001424D01*
X772185Y1291074D02*
X893437Y1169822D01*
X754185Y1283619D02*
X885982Y1151822D01*
X1009109Y1149843D02*
X1010968Y1147984D01*
X1002915Y1171801D02*
X1008621D01*
X1003403Y1149843D02*
X1009109D01*
X1008621Y1171801D02*
X1010480Y1173660D01*
X1000936Y1169822D02*
X1002915Y1171801D01*
X1001424Y1151822D02*
X1003403Y1149843D01*
X677728Y1385531D02*
Y1390899D01*
X772185Y1291074D02*
Y1291074D01*
X665000Y1372804D02*
X754185Y1283619D01*
Y1283619D02*
Y1283619D01*
X657774Y1374663D02*
X659633Y1372804D01*
X665000D01*
X677728Y1385531D02*
X772185Y1291074D01*
X675869Y1392758D02*
X677728Y1390899D01*
X1873661Y1264716D02*
X1875091D01*
X1897787Y1242020D01*
Y1195590D02*
Y1242020D01*
X1863787Y1274590D02*
X1873661Y1264716D01*
X1883787Y1181590D02*
X1897787Y1195590D01*
X1883669Y1160590D02*
X1883787Y1160708D01*
Y1181590D01*
X1826787Y1274590D02*
X1863787D01*
X1804787Y1252590D02*
X1826787Y1274590D01*
X2720118Y1264716D02*
X2721548D01*
X2744244Y1242020D01*
Y1195590D02*
Y1242020D01*
X2710244Y1274590D02*
X2720118Y1264716D01*
X2730244Y1181590D02*
X2744244Y1195590D01*
X2730126Y1160590D02*
X2730244Y1160708D01*
Y1181590D01*
X2673244Y1274590D02*
X2710244D01*
X2651244Y1252590D02*
X2673244Y1274590D01*
X4393701Y2188134D02*
X4428701Y2153134D01*
X4352156Y2519155D02*
X4367387Y2534385D01*
X4386156D01*
X4393701Y2188134D02*
Y2448322D01*
X4352156Y2489867D02*
Y2519155D01*
Y2489867D02*
X4393701Y2448322D01*
X4424906Y2149339D02*
X4428701Y2153134D01*
X4424906Y2126590D02*
Y2149339D01*
X4393842Y2514449D02*
X4395701Y2512590D01*
X4388092Y2514449D02*
X4393842D01*
X4411701Y2195590D02*
Y2455778D01*
X4370156Y2497323D02*
X4411701Y2455778D01*
X4370156Y2511699D02*
X4374842Y2516385D01*
X4386156D02*
X4388092Y2514449D01*
X4374842Y2516385D02*
X4386156D01*
X4370156Y2497323D02*
Y2511699D01*
X4411701Y2195590D02*
X4450496Y2156795D01*
Y2126590D02*
Y2156795D01*
X813047Y1294133D02*
Y1385984D01*
X902591Y1204590D02*
X989331D01*
X813047Y1294133D02*
X902591Y1204590D01*
X989331D02*
X1018188Y1233447D01*
X1659504Y1294133D02*
Y1385984D01*
X1749047Y1204590D02*
X1835787D01*
X1659504Y1294133D02*
X1749047Y1204590D01*
X1835787D02*
X1864645Y1233447D01*
Y1242124D02*
X1866504Y1243984D01*
X1864645Y1233447D02*
Y1242124D01*
X2711102Y1233447D02*
Y1242124D01*
X2712961Y1243984D01*
X2682244Y1204590D02*
X2711102Y1233447D01*
X2505961Y1294133D02*
X2595504Y1204590D01*
X2682244D01*
X2505961Y1294133D02*
Y1385984D01*
X2705102Y1171715D02*
X2706961Y1173574D01*
X2699352Y1149843D02*
X2705102D01*
X2697416Y1169779D02*
X2699352Y1171715D01*
X2422945Y1307772D02*
X2578938Y1151779D01*
X2440945Y1315228D02*
X2586394Y1169779D01*
X2697416Y1151779D02*
X2699352Y1149843D01*
X2578938Y1151779D02*
X2697416D01*
X2705102Y1149843D02*
X2706961Y1147984D01*
X2586394Y1169779D02*
X2697416D01*
X2699352Y1171715D02*
X2705102D01*
X2422945Y1307772D02*
Y2329559D01*
X2440976Y2347590D01*
X2440945Y1315228D02*
Y2313559D01*
X2464708Y2337322D01*
Y2345731D01*
X2466567Y2347590D01*
X2667641Y971303D02*
X2688268Y950677D01*
X3006163Y889774D02*
X3021969Y873968D01*
X2688268Y950677D02*
X2978268D01*
X3006163Y889774D02*
Y922782D01*
X2978268Y950677D02*
X3006163Y922782D01*
X2853685Y933984D02*
X2913701Y873968D01*
X2592961Y933984D02*
X2853685Y933984D01*
X2552961Y973984D02*
X2592961Y933984D01*
X1576488Y2332262D02*
X1584002Y2339775D01*
X1576488Y1307772D02*
Y2332262D01*
X1584002Y2339775D02*
Y2350510D01*
X1585383Y2351891D01*
X1732481Y1151779D02*
X1850959D01*
X1576488Y1307772D02*
X1732481Y1151779D01*
X1852896Y1149843D02*
X1858645D01*
X1850959Y1151779D02*
X1852896Y1149843D01*
X1858645D02*
X1860504Y1147984D01*
X1594488Y1315228D02*
Y2324806D01*
X1602002Y2332319D01*
Y2336561D01*
X1613623Y2348182D02*
Y2350811D01*
X1739937Y1169779D02*
X1850959D01*
X1594488Y1315228D02*
X1739937Y1169779D01*
X1602002Y2336561D02*
X1613623Y2348182D01*
X1850959Y1169779D02*
X1852896Y1171715D01*
X1858645D02*
X1860504Y1173574D01*
X1852896Y1171715D02*
X1858645D01*
X1821184Y971303D02*
X1841811Y950677D01*
X2159706Y889774D02*
X2175512Y873968D01*
X1841811Y950677D02*
X2131811D01*
X2159706Y889774D02*
Y922782D01*
X2131811Y950677D02*
X2159706Y922782D01*
X2007228Y933984D02*
X2067244Y873968D01*
X1746504Y933984D02*
X2007228Y933984D01*
X1706504Y973984D02*
X1746504Y933984D01*
X974728Y971303D02*
X995354Y950677D01*
X1313249Y889774D02*
X1329055Y873968D01*
X995354Y950677D02*
X1285354D01*
X1313249Y889774D02*
Y922782D01*
X1285354Y950677D02*
X1313249Y922782D01*
X1160772Y933984D02*
X1220787Y873968D01*
X900047Y933984D02*
X1160772Y933984D01*
X860047Y973984D02*
X900047Y933984D01*
X1151890Y2360188D02*
Y2409401D01*
X4294497Y2143449D02*
Y2149198D01*
X4292638Y2141590D02*
X4294497Y2143449D01*
Y2149198D02*
X4296433Y2151135D01*
Y2290858D01*
X4239701Y2428360D02*
X4258727Y2447385D01*
X4239701Y2347590D02*
Y2428360D01*
X4258727Y2447385D02*
X4284156D01*
X4239701Y2347590D02*
X4296433Y2290858D01*
X4286092Y2449322D02*
X4291842D01*
X4284156Y2447385D02*
X4286092Y2449322D01*
X4291842D02*
X4293701Y2451181D01*
X4314433Y2151135D02*
Y2298314D01*
X4316369Y2143449D02*
Y2149198D01*
Y2143449D02*
X4318228Y2141590D01*
X4314433Y2151135D02*
X4316369Y2149198D01*
X4257701Y2355046D02*
Y2420904D01*
X4284156Y2429385D02*
X4286092Y2427449D01*
X4266182Y2429385D02*
X4284156D01*
X4257701Y2420904D02*
X4266182Y2429385D01*
X4257701Y2355046D02*
X4314433Y2298314D01*
X4291842Y2427449D02*
X4293701Y2425590D01*
X4286092Y2427449D02*
X4291842D01*
X4347701Y2168624D02*
Y2432590D01*
Y2168624D02*
X4364718Y2151607D01*
X4212560Y2496714D02*
Y2502463D01*
X4214496Y2477604D02*
Y2494778D01*
X4212560Y2496714D02*
X4214496Y2494778D01*
X4210701Y2504322D02*
X4212560Y2502463D01*
X4229727Y2462374D02*
X4251266D01*
X4267482Y2478590D01*
X4214496Y2477604D02*
X4229727Y2462374D01*
X4301701Y2478590D02*
X4347701Y2432590D01*
X4267482Y2478590D02*
X4301701D01*
X4365701Y2181590D02*
Y2440046D01*
X4380112Y2169774D02*
X4382742D01*
X4365701Y2181590D02*
X4368296D01*
X4380112Y2169774D01*
X4232496Y2485060D02*
Y2491687D01*
X4234432Y2493624D01*
Y2500731D02*
X4236292Y2502590D01*
X4234432Y2493624D02*
Y2500731D01*
X4237182Y2480374D02*
X4243810D01*
X4232496Y2485060D02*
X4237182Y2480374D01*
X4309157Y2496590D02*
X4365701Y2440046D01*
X4243810Y2480374D02*
X4260026Y2496590D01*
X4309157D01*
X3352417Y1294133D02*
Y1385984D01*
X3441961Y1204590D02*
X3528701D01*
X3352417Y1294133D02*
X3441961Y1204590D01*
X3471278Y1273537D02*
Y1279167D01*
X3456516Y1258774D02*
X3471278Y1273537D01*
Y1279167D02*
X3490701Y1298590D01*
X3563701D02*
X3588701Y1273590D01*
X3490701Y1298590D02*
X3563701D01*
X3497701Y1252590D02*
X3519701Y1274590D01*
X3556701D01*
X3528701Y1204590D02*
X3557558Y1233447D01*
Y1242124D02*
X3559417Y1243984D01*
X3557558Y1233447D02*
Y1242124D01*
X3576701Y1160708D02*
Y1181590D01*
X3576583Y1160590D02*
X3576701Y1160708D01*
Y1181590D02*
X3590701Y1195590D01*
X3551558Y1171715D02*
X3553417Y1173574D01*
X3545809Y1171715D02*
X3551558D01*
X3543873Y1169779D02*
X3545809Y1171715D01*
X3543873Y1151779D02*
X3545809Y1149843D01*
X3432851Y1169779D02*
X3543873D01*
X3425395Y1151779D02*
X3543873D01*
X3545809Y1149843D02*
X3551558D01*
X3556701Y1274590D02*
X3566575Y1264716D01*
X3590701Y1195590D02*
Y1242020D01*
X3568005Y1264716D02*
X3590701Y1242020D01*
X3566575Y1264716D02*
X3568005D01*
X3269402Y1307772D02*
X3425395Y1151779D01*
X3269402Y2328127D02*
X3286330Y2345055D01*
X3269402Y1307772D02*
Y2328127D01*
X3287402Y2316559D02*
X3313024Y2342181D01*
X3287402Y1315228D02*
Y2316559D01*
Y1315228D02*
X3432851Y1169779D01*
X3313024Y2342181D02*
Y2344590D01*
X4195747Y2153203D02*
X4198074Y2150875D01*
Y2142495D02*
Y2150875D01*
X4195747Y2153203D02*
Y2156089D01*
X4198074Y2142495D02*
X4199933Y2140636D01*
X4189701Y2162134D02*
X4195747Y2156089D01*
X3551558Y1149843D02*
X3553417Y1147984D01*
X4207701Y2169590D02*
X4216186Y2161104D01*
X4217165D01*
X4189701Y2162134D02*
Y2319590D01*
X4207701Y2169590D02*
Y2327046D01*
X4173971Y2335320D02*
X4189701Y2319590D01*
X4173971Y2335320D02*
Y2335320D01*
X4145113Y2392372D02*
Y2395002D01*
Y2392372D02*
X4149178Y2388307D01*
X4133712Y2372841D02*
X4136450D01*
X4173971Y2335320D01*
X4149178Y2385569D02*
Y2388307D01*
X4191971Y2342776D02*
X4207701Y2327046D01*
X4191971Y2342776D02*
Y2342776D01*
X4149178Y2385569D02*
X4191971Y2342776D01*
X4129647Y2376906D02*
X4133712Y2372841D01*
X4127017Y2376906D02*
X4129647D01*
X3439417Y933984D02*
X3700142Y933984D01*
X3399417Y973984D02*
X3439417Y933984D01*
X3700142Y933984D02*
X3760157Y873968D01*
X1151890Y2409401D02*
X1210945Y2468456D01*
X3824724Y950677D02*
X3852619Y922782D01*
Y889774D02*
Y922782D01*
X3534724Y950677D02*
X3824724D01*
X3852619Y889774D02*
X3868425Y873968D01*
X3514098Y971303D02*
X3534724Y950677D01*
D37*
X2165669Y1273984D02*
X2176774D01*
X1994139Y1273984D02*
X2165669Y1273984D01*
X1855504Y1488984D02*
X1855504Y1387590D01*
X1969110Y1273984D01*
X1994139D01*
X2701961Y1488984D02*
X2701961Y1388590D01*
X2816567Y1273984D01*
X3023231D01*
X1009047Y1488984D02*
X1009047Y1403484D01*
X1138547Y1273984D01*
X1330317D01*
X3023231D02*
X3025786Y1276539D01*
X3027865D01*
X2124331Y1596409D02*
Y2399558D01*
X2124701Y2399928D02*
Y2426133D01*
X2124331Y2399558D02*
X2124701Y2399928D01*
X2176774Y1273984D02*
X2179329Y1276539D01*
X2181409D01*
X1624181Y1055523D02*
Y1057070D01*
X1620299Y1051641D02*
X1624181Y1055523D01*
X1620299Y1028188D02*
Y1051641D01*
X1277874Y1596409D02*
Y2426133D01*
X1330317Y1273984D02*
X1332872Y1276539D01*
X1334952D01*
X767504Y975787D02*
Y1090606D01*
X879701Y672430D02*
Y743590D01*
X766097Y759889D02*
X863401D01*
X924697Y818594D02*
X1268034D01*
X1268034Y818594D02*
X1410705D01*
X1268034Y818594D02*
X1268034Y818594D01*
X863401Y759889D02*
X879701Y743590D01*
Y672430D02*
X886730Y665401D01*
X720898Y975787D02*
X767504D01*
X924697Y818594D01*
X2970787Y1596409D02*
Y2433503D01*
X3817244Y1596409D02*
Y2399558D01*
X3825024Y2407338D02*
Y2415148D01*
X3817244Y2399558D02*
X3825024Y2407338D01*
Y2415148D02*
X3833151Y2423275D01*
X4014296D01*
X4192701Y2412590D02*
X4194701D01*
X4014296Y2423275D02*
X4017154Y2426133D01*
X4179158D02*
X4192701Y2412590D01*
X4017154Y2426133D02*
X4018701D01*
X4179158D01*
X3548417Y1440590D02*
Y1488984D01*
Y1440590D02*
X3715024Y1273984D01*
X3869687D01*
X886730Y665401D02*
X4167512D01*
X4184701Y682590D01*
X676701Y849286D02*
Y931590D01*
Y849286D02*
X766097Y759889D01*
X4121701Y1951590D02*
Y1954590D01*
Y1951590D02*
X4144701Y1928590D01*
X4196701D01*
X4220701Y1952590D01*
Y1969043D01*
X4215866Y1973878D02*
Y1975425D01*
Y1973878D02*
X4220701Y1969043D01*
X4342100Y1724590D02*
X4425701D01*
X4287100Y1779590D02*
X4342100Y1724590D01*
X676701Y931590D02*
X720898Y975787D01*
X1410705Y818594D02*
X1620299Y1028188D01*
X3872242Y1276539D02*
X3874322D01*
X3869687Y1273984D02*
X3872242Y1276539D01*
D38*
X1035551Y1160590D02*
X1037213D01*
X1052701Y1198590D02*
Y1262590D01*
X1037213Y1183102D02*
X1052701Y1198590D01*
X1029701Y1285590D02*
X1052701Y1262590D01*
X991331Y1285590D02*
X1029701D01*
X1037213Y1160590D02*
Y1183102D01*
X958331Y1252590D02*
X991331Y1285590D01*
X1037213Y1160590D02*
X1037701Y1160102D01*
Y1132306D02*
Y1160102D01*
X1025985Y1120590D02*
X1037701Y1132306D01*
X878701Y1120590D02*
X1025985D01*
X787701Y1211590D02*
X878701Y1120590D01*
X1734102Y1250725D02*
Y1536905D01*
Y1250725D02*
X1736870Y1247957D01*
Y1247702D02*
Y1247957D01*
Y1247702D02*
X1752530Y1232042D01*
X1784240D01*
X1804787Y1252590D01*
X2580559Y1250725D02*
Y1536905D01*
Y1250725D02*
X2583327Y1247957D01*
Y1247702D02*
Y1247957D01*
Y1247702D02*
X2598986Y1232042D01*
X2630696D01*
X2651244Y1252590D01*
X615701Y1211590D02*
X787701D01*
X571701Y1652590D02*
X571814Y1652476D01*
X569969Y1652590D02*
X571701D01*
X571814Y1652476D02*
X689814D01*
X2396701Y908590D02*
X2430701Y942590D01*
X2396701Y829590D02*
Y908590D01*
X2434701Y791590D02*
X3109701D01*
X2396701Y829590D02*
X2434701Y791590D01*
X2430701Y942590D02*
Y1069590D01*
X2459701Y1098590D01*
X1590701Y962590D02*
X1600888D01*
X1542701Y812590D02*
X2379701D01*
X1524831Y794720D02*
X1542701Y812590D01*
Y914590D01*
X717874Y841875D02*
X765030Y794720D01*
X1524831D01*
X704701Y917590D02*
X717874Y904416D01*
Y841875D02*
Y904416D01*
X3477153Y1232042D02*
X3497701Y1252590D01*
X3445443Y1232042D02*
X3477153D01*
X3429783Y1247702D02*
X3445443Y1232042D01*
X3429783Y1247702D02*
Y1247957D01*
X3427015Y1250725D02*
X3429783Y1247957D01*
X3427015Y1250725D02*
Y1536905D01*
X3109701Y791590D02*
X3254701Y936590D01*
X2379701Y812590D02*
X2396701Y829590D01*
X4432701Y1387590D02*
X4511575Y1466464D01*
Y1839716D01*
X4433701Y1917590D02*
X4511575Y1839716D01*
X4433701Y1917590D02*
Y1948009D01*
X3311701Y776590D02*
X3958701D01*
X3975968Y793858D01*
X3976701Y840590D02*
X4097701D01*
X4177701Y920590D01*
X4290701Y989157D02*
Y1167590D01*
Y989157D02*
X4299984Y979873D01*
X4300433D01*
X4431701Y1387590D02*
X4432701D01*
X4483701Y1571590D02*
Y1803821D01*
X4413701Y1502590D02*
X4414701D01*
X4483701Y1571590D01*
X4325869Y1961653D02*
X4483701Y1803821D01*
X4292638Y1961653D02*
X4325869D01*
X4177701Y920590D02*
Y998605D01*
X4126701Y1049604D02*
X4177701Y998605D01*
X4126701Y1049604D02*
Y1537590D01*
X4176701Y1587590D01*
X3254701Y936590D02*
Y938072D01*
Y833590D02*
Y936590D01*
Y833590D02*
X3311701Y776590D01*
X3254701Y938072D02*
X3259254Y942625D01*
X1542701Y914590D02*
X1590701Y962590D01*
D39*
X4415203Y1796409D02*
X4453307D01*
X4413023Y1798590D02*
X4415203Y1796409D01*
X4308701Y1798590D02*
X4413023D01*
X4107701Y1735590D02*
X4190701Y1818590D01*
X4288701D01*
X4308701Y1798590D01*
D40*
X2462701Y962448D02*
X2605826Y819323D01*
X3072574D01*
X3303400Y1050150D01*
X4555315Y1678228D02*
X4556181Y1677362D01*
X4554449Y1650235D02*
Y1902991D01*
Y1430054D02*
Y1650235D01*
X4556181Y1651968D02*
Y1677362D01*
X4554449Y1650235D02*
X4556181Y1651968D01*
X4450985Y1326590D02*
X4554449Y1430054D01*
X4338701Y1326590D02*
X4450985D01*
X4272701Y1189306D02*
Y1260590D01*
X4338701Y1326590D01*
X4210338Y2038590D02*
X4418850D01*
X4167480Y1995733D02*
X4210338Y2038590D01*
X4180701Y1097306D02*
X4272701Y1189306D01*
X4167480Y1974535D02*
Y1995733D01*
X4166162Y1973217D02*
X4167480Y1974535D01*
X4166162Y1965066D02*
Y1973217D01*
X4164685Y1963590D02*
X4166162Y1965066D01*
X4212224Y1051704D02*
X4213701Y1053180D01*
X4180701Y1056576D02*
X4186559Y1050718D01*
X4205782D02*
X4206768Y1051704D01*
X4180701Y1056576D02*
Y1097306D01*
X4206768Y1051704D02*
X4212224D01*
X4186559Y1050718D02*
X4205782D01*
X4442701Y1346590D02*
X4534449Y1438338D01*
X4330417Y1346590D02*
X4442701D01*
X4252701Y1197590D02*
Y1268874D01*
X4330417Y1346590D01*
X4187480Y1987448D02*
X4218622Y2018590D01*
X4410565D01*
X4187480Y1974535D02*
X4188799Y1973217D01*
X4187480Y1974535D02*
Y1987448D01*
X4188799Y1965066D02*
X4190276Y1963590D01*
X4188799Y1965066D02*
Y1973217D01*
X4160701Y1105590D02*
X4252701Y1197590D01*
X4230320Y1031018D02*
X4231796Y1032495D01*
X4214367Y1031018D02*
X4230320D01*
X4160701Y1048292D02*
X4178275Y1030718D01*
X4160701Y1048292D02*
Y1105590D01*
X4214066Y1030718D02*
X4214367Y1031018D01*
X4178275Y1030718D02*
X4214066D01*
X4418850Y2038590D02*
X4554449Y1902991D01*
X4410565Y2018590D02*
X4534449Y1894707D01*
Y1438338D02*
Y1894707D01*
X4213559Y816732D02*
X4267701Y762590D01*
X3438559Y816732D02*
X4213559D01*
X3314213Y941078D02*
X3438559Y816732D01*
X3316261Y1050150D02*
X3316701Y1050590D01*
X3315224Y1049113D02*
X3316261Y1050150D01*
X3315224Y1042714D02*
Y1049113D01*
X3314213Y1041702D02*
X3315224Y1042714D01*
X3314213Y941078D02*
Y1041702D01*
X3303400Y1050150D02*
X3316261D01*
D55*
X3021969Y873968D02*
D03*
X2913701Y873968D02*
D03*
X2175512Y873968D02*
D03*
X2067244Y873968D02*
D03*
X1329055Y873968D02*
D03*
X1220787Y873968D02*
D03*
X3760157D02*
D03*
X3868425D02*
D03*
D56*
X2448347Y714519D02*
D03*
X2788504D02*
D03*
X1601890D02*
D03*
X1942047D02*
D03*
X755433D02*
D03*
X1095590D02*
D03*
X3634960Y714519D02*
D03*
X3294803D02*
D03*
D57*
X2504649Y858220D02*
D03*
X2732202D02*
D03*
X1658192D02*
D03*
X1885745D02*
D03*
X811736D02*
D03*
X1039288D02*
D03*
X4399921Y1190103D02*
D03*
Y962551D02*
D03*
X3578658Y858220D02*
D03*
X3351106Y858220D02*
D03*
D58*
X2448347Y879086D02*
D03*
X2788504D02*
D03*
X1601890D02*
D03*
X1942047D02*
D03*
X755433D02*
D03*
X1095590D02*
D03*
X3634960D02*
D03*
X3294803Y879086D02*
D03*
D59*
X546701Y960590D02*
D03*
D60*
Y760590D02*
D03*
D61*
X4543622Y1246405D02*
D03*
Y906248D02*
D03*
D62*
X4379055Y1246405D02*
D03*
Y906248D02*
D03*
D63*
X3871181Y517669D02*
D03*
X3024724Y517669D02*
D03*
X2178268D02*
D03*
X1331811D02*
D03*
D64*
X1035551Y1160590D02*
D03*
X1064418Y1288677D02*
D03*
X1020047Y1243984D02*
D03*
X917146Y1258774D02*
D03*
X1895788Y1273590D02*
D03*
X1763602Y1258774D02*
D03*
X2742244Y1273590D02*
D03*
X2610059Y1258774D02*
D03*
X1010480Y1173660D02*
D03*
X1010968Y1147984D02*
D03*
X958331Y1252590D02*
D03*
X1883669Y1160590D02*
D03*
X1804787Y1252590D02*
D03*
X1734102Y1536905D02*
D03*
X2730126Y1160590D02*
D03*
X2651244Y1252590D02*
D03*
X2580559Y1536905D02*
D03*
X615701Y1211590D02*
D03*
X569969Y1652590D02*
D03*
X689814Y1652476D02*
D03*
X4395701Y2538180D02*
D03*
X4424906Y2126590D02*
D03*
X4395701Y2512590D02*
D03*
X4450496Y2126590D02*
D03*
X675869Y1392758D02*
D03*
X657774Y1374663D02*
D03*
X813047Y1385984D02*
D03*
X1866504Y1243984D02*
D03*
X1659504Y1385984D02*
D03*
X2505961D02*
D03*
X2712961Y1243984D02*
D03*
X2706961Y1147984D02*
D03*
X2974724Y1434992D02*
D03*
X2939291D02*
D03*
X2887866Y1662204D02*
D03*
X2832748D02*
D03*
X2860307D02*
D03*
X2915425D02*
D03*
Y1689763D02*
D03*
X2887866D02*
D03*
X2860307D02*
D03*
X2832748D02*
D03*
X2860307Y1717322D02*
D03*
X2832748D02*
D03*
X2915425D02*
D03*
X2887866D02*
D03*
Y1744881D02*
D03*
X2832748D02*
D03*
X2860307D02*
D03*
X2915425D02*
D03*
X2970787Y1596409D02*
D03*
X3012126Y1267669D02*
D03*
X2701961Y1488984D02*
D03*
X2440976Y2347590D02*
D03*
X2466567D02*
D03*
X2706961Y1173574D02*
D03*
X2667641Y971303D02*
D03*
X2552961Y973984D02*
D03*
X3140079Y2084598D02*
D03*
Y2055070D02*
D03*
Y1966487D02*
D03*
Y2025543D02*
D03*
Y1996015D02*
D03*
X3169606D02*
D03*
X3169606Y2025543D02*
D03*
X3169606Y2084598D02*
D03*
Y2055070D02*
D03*
X3199134D02*
D03*
Y2025543D02*
D03*
Y2114125D02*
D03*
Y2084598D02*
D03*
X3140079Y2173180D02*
D03*
X3140079Y2261763D02*
D03*
Y2232236D02*
D03*
Y2143653D02*
D03*
Y2114125D02*
D03*
Y2202708D02*
D03*
X3169606Y2173180D02*
D03*
X3140079Y2291291D02*
D03*
X3140079Y2379873D02*
D03*
Y2350346D02*
D03*
Y2320818D02*
D03*
X3169606Y2291291D02*
D03*
X3169606Y2350346D02*
D03*
Y2114125D02*
D03*
Y2202708D02*
D03*
Y2143653D02*
D03*
X3199134Y2173180D02*
D03*
Y2143653D02*
D03*
Y2232236D02*
D03*
Y2202708D02*
D03*
X3169606Y2261763D02*
D03*
Y2232236D02*
D03*
Y2320818D02*
D03*
X3199134Y2291291D02*
D03*
Y2261763D02*
D03*
Y2320818D02*
D03*
X2571850Y1668259D02*
D03*
Y1695818D02*
D03*
X3012126Y1149558D02*
D03*
X3041654Y1149558D02*
D03*
X3071181Y1149558D02*
D03*
X3100709D02*
D03*
X2459701Y1098590D02*
D03*
X2462701Y962590D02*
D03*
X3159764Y1238141D02*
D03*
Y1297196D02*
D03*
X3130236D02*
D03*
Y1267669D02*
D03*
X3159764Y1267669D02*
D03*
X3100709Y1238141D02*
D03*
X3130236D02*
D03*
X3071181D02*
D03*
X3041654D02*
D03*
X3159764Y1208613D02*
D03*
X3100709D02*
D03*
X3130236D02*
D03*
X3159764Y1179086D02*
D03*
X3130236D02*
D03*
X3071181D02*
D03*
X3100709D02*
D03*
X3159764Y1149558D02*
D03*
X3130236D02*
D03*
X3071181Y1208613D02*
D03*
X3012126Y1238141D02*
D03*
Y1208613D02*
D03*
Y1179086D02*
D03*
X3041654Y1208613D02*
D03*
Y1179086D02*
D03*
X3012126Y1297196D02*
D03*
X3100709D02*
D03*
X3071181D02*
D03*
X3041654D02*
D03*
X3071181Y1267669D02*
D03*
X3100709D02*
D03*
X3041654Y1267669D02*
D03*
X3169606Y2379873D02*
D03*
X3199134D02*
D03*
X2903858Y1434992D02*
D03*
Y1497984D02*
D03*
Y1466487D02*
D03*
X3199134Y2350346D02*
D03*
X2974724Y1497984D02*
D03*
X2939291D02*
D03*
X2974724Y1466487D02*
D03*
X2939291D02*
D03*
X2544291Y1695818D02*
D03*
X2516732D02*
D03*
X2544291Y1668259D02*
D03*
X2516732D02*
D03*
X2489173D02*
D03*
Y1640700D02*
D03*
X2516732D02*
D03*
X2544291D02*
D03*
X2571850D02*
D03*
X2544291Y1723377D02*
D03*
X2489173D02*
D03*
X2571850D02*
D03*
X2489173Y1695818D02*
D03*
X2516732Y1723377D02*
D03*
X3169606Y1966487D02*
D03*
X3199134Y1996015D02*
D03*
Y1966487D02*
D03*
X2092835Y1434992D02*
D03*
X2128268D02*
D03*
X1986292Y1689763D02*
D03*
X2013851Y1662204D02*
D03*
X1986292D02*
D03*
X2068969D02*
D03*
X2041410D02*
D03*
Y1689763D02*
D03*
X2013851D02*
D03*
X2068969D02*
D03*
X2013851Y1717322D02*
D03*
X1986292D02*
D03*
X2041410D02*
D03*
X2068969D02*
D03*
X2013851Y1744881D02*
D03*
X1986292D02*
D03*
X2041410D02*
D03*
X2068969D02*
D03*
X2124331Y1596409D02*
D03*
X2124701Y2426133D02*
D03*
X2165669Y1267669D02*
D03*
X1855504Y1488984D02*
D03*
X1585383Y2351891D02*
D03*
X1860504Y1147984D02*
D03*
X1613623Y2350811D02*
D03*
X1860504Y1173574D02*
D03*
X1821184Y971303D02*
D03*
X1706504Y973984D02*
D03*
X2293622Y2084598D02*
D03*
Y2055070D02*
D03*
Y1966487D02*
D03*
Y2025543D02*
D03*
Y1996015D02*
D03*
X2323150D02*
D03*
X2323150Y2025543D02*
D03*
X2323150Y2084598D02*
D03*
Y2055070D02*
D03*
X2352677D02*
D03*
Y2025543D02*
D03*
Y2114125D02*
D03*
Y2084598D02*
D03*
X2293622Y2173180D02*
D03*
X2293622Y2261763D02*
D03*
Y2232236D02*
D03*
Y2143653D02*
D03*
Y2114125D02*
D03*
Y2202708D02*
D03*
X2323150Y2173180D02*
D03*
X2293622Y2291291D02*
D03*
X2293622Y2379873D02*
D03*
Y2350346D02*
D03*
Y2320818D02*
D03*
X2323150Y2291291D02*
D03*
X2323150Y2350346D02*
D03*
Y2114125D02*
D03*
Y2202708D02*
D03*
Y2143653D02*
D03*
X2352677Y2173180D02*
D03*
Y2143653D02*
D03*
Y2232236D02*
D03*
Y2202708D02*
D03*
X2323150Y2261763D02*
D03*
Y2232236D02*
D03*
Y2320818D02*
D03*
X2352677Y2291291D02*
D03*
Y2261763D02*
D03*
Y2320818D02*
D03*
X1725394Y1668259D02*
D03*
Y1695818D02*
D03*
X2165669Y1149558D02*
D03*
X2195197Y1149558D02*
D03*
X2224724Y1149558D02*
D03*
X2254252D02*
D03*
X2195197Y1179086D02*
D03*
Y1208613D02*
D03*
X2165669D02*
D03*
Y1179086D02*
D03*
X2283780D02*
D03*
Y1149558D02*
D03*
X2224725Y1179086D02*
D03*
X2313307Y1149558D02*
D03*
X2313307Y1208613D02*
D03*
Y1179086D02*
D03*
X2254252Y1208613D02*
D03*
X2224725D02*
D03*
X2283780D02*
D03*
X2254252Y1179086D02*
D03*
X2165669Y1238141D02*
D03*
X2224724Y1267669D02*
D03*
X2254252D02*
D03*
X2224724Y1238141D02*
D03*
X2254252D02*
D03*
X2195197D02*
D03*
Y1267669D02*
D03*
X2313307Y1297196D02*
D03*
Y1238141D02*
D03*
Y1267669D02*
D03*
X2283780Y1238141D02*
D03*
Y1267669D02*
D03*
Y1297196D02*
D03*
X2254252D02*
D03*
X2224724D02*
D03*
X2195197D02*
D03*
X2165669D02*
D03*
X1600888Y962590D02*
D03*
X1624181Y1057070D02*
D03*
X2352677Y2350346D02*
D03*
X2352677Y2379873D02*
D03*
X2323150D02*
D03*
Y1966487D02*
D03*
X2352677D02*
D03*
Y1996015D02*
D03*
X1642717Y1723377D02*
D03*
X1725394D02*
D03*
X1670276D02*
D03*
X1725394Y1640700D02*
D03*
X1697835Y1723377D02*
D03*
Y1695818D02*
D03*
Y1640700D02*
D03*
Y1668259D02*
D03*
X1670276Y1695818D02*
D03*
Y1668259D02*
D03*
Y1640700D02*
D03*
X1642717Y1695818D02*
D03*
Y1640700D02*
D03*
Y1668259D02*
D03*
X2057402Y1466487D02*
D03*
Y1497984D02*
D03*
Y1434992D02*
D03*
X2092835Y1497984D02*
D03*
Y1466487D02*
D03*
X2128268Y1497984D02*
D03*
Y1466487D02*
D03*
X1246378Y1434992D02*
D03*
X1281811D02*
D03*
X1167394Y1662204D02*
D03*
X1139835D02*
D03*
Y1689763D02*
D03*
X1194953D02*
D03*
X1167394D02*
D03*
Y1717322D02*
D03*
X1139835D02*
D03*
Y1744881D02*
D03*
X1194953D02*
D03*
X1167394D02*
D03*
X1194953Y1662204D02*
D03*
X1222512D02*
D03*
Y1689763D02*
D03*
X1194953Y1717322D02*
D03*
X1222512Y1744881D02*
D03*
Y1717322D02*
D03*
X1277874Y1596409D02*
D03*
Y2426133D02*
D03*
X1319213Y1267669D02*
D03*
X1009047Y1488984D02*
D03*
X974728Y971303D02*
D03*
X860047Y973984D02*
D03*
X1447166Y2084598D02*
D03*
Y2055070D02*
D03*
Y1966487D02*
D03*
Y2025543D02*
D03*
Y1996015D02*
D03*
X1476693D02*
D03*
X1476693Y2025543D02*
D03*
X1476693Y2084598D02*
D03*
Y2055070D02*
D03*
X1506221D02*
D03*
Y2025543D02*
D03*
Y2114125D02*
D03*
Y2084598D02*
D03*
X1447165Y2173180D02*
D03*
X1447166Y2261763D02*
D03*
Y2232236D02*
D03*
Y2143653D02*
D03*
Y2114125D02*
D03*
Y2202708D02*
D03*
X1476693Y2173180D02*
D03*
X1447165Y2291291D02*
D03*
X1447166Y2379873D02*
D03*
Y2350346D02*
D03*
Y2320818D02*
D03*
X1476693Y2291291D02*
D03*
X1476693Y2350346D02*
D03*
Y2114125D02*
D03*
Y2202708D02*
D03*
Y2143653D02*
D03*
X1506221Y2173180D02*
D03*
Y2143653D02*
D03*
Y2232236D02*
D03*
Y2202708D02*
D03*
X1476693Y2261763D02*
D03*
Y2232236D02*
D03*
Y2320818D02*
D03*
X1506221Y2291291D02*
D03*
Y2261763D02*
D03*
Y2320818D02*
D03*
X878937Y1695818D02*
D03*
Y1668259D02*
D03*
X1319213Y1149558D02*
D03*
X1348740Y1149558D02*
D03*
X1407795Y1149558D02*
D03*
X1378268D02*
D03*
X1476693Y2379873D02*
D03*
X1506221Y2350346D02*
D03*
X823819Y1668259D02*
D03*
Y1640700D02*
D03*
X878937Y1723377D02*
D03*
Y1640700D02*
D03*
X851378Y1723377D02*
D03*
Y1695818D02*
D03*
Y1640700D02*
D03*
Y1668259D02*
D03*
X823819Y1695818D02*
D03*
X1466851Y1267669D02*
D03*
X1437323Y1149558D02*
D03*
Y1179086D02*
D03*
Y1208613D02*
D03*
X1466851Y1297196D02*
D03*
Y1238141D02*
D03*
Y1208613D02*
D03*
Y1179086D02*
D03*
X1466850Y1149558D02*
D03*
X1437323Y1267669D02*
D03*
Y1297196D02*
D03*
Y1238141D02*
D03*
X823819Y1723377D02*
D03*
X1407795Y1297196D02*
D03*
Y1267669D02*
D03*
Y1238141D02*
D03*
Y1208613D02*
D03*
X1378268D02*
D03*
X1378268Y1267669D02*
D03*
Y1297196D02*
D03*
Y1238141D02*
D03*
X1407795Y1179086D02*
D03*
X1378268D02*
D03*
X1319213Y1208613D02*
D03*
Y1238141D02*
D03*
Y1179086D02*
D03*
X1348740Y1267669D02*
D03*
Y1238141D02*
D03*
Y1208613D02*
D03*
Y1179086D02*
D03*
X1281811Y1466487D02*
D03*
X1246378D02*
D03*
X1210945D02*
D03*
X1281811Y1497984D02*
D03*
X1246378D02*
D03*
X1210945D02*
D03*
Y1434992D02*
D03*
X1348740Y1297196D02*
D03*
X1319213D02*
D03*
X1476693Y1966487D02*
D03*
X1506221Y1996015D02*
D03*
Y1966487D02*
D03*
X767504Y1090606D02*
D03*
X1506221Y2379873D02*
D03*
X704701Y917590D02*
D03*
X796260Y1723377D02*
D03*
Y1668259D02*
D03*
Y1640700D02*
D03*
Y1695818D02*
D03*
X3817244Y1596409D02*
D03*
X2970787Y2433503D02*
D03*
X4018701Y2426133D02*
D03*
X4194701Y2412590D02*
D03*
X4292638Y2141590D02*
D03*
X4293701Y2451181D02*
D03*
X4318228Y2141590D02*
D03*
X4293701Y2425590D02*
D03*
X4364718Y2151607D02*
D03*
X4210701Y2504322D02*
D03*
X4382742Y2169774D02*
D03*
X4236292Y2502590D02*
D03*
X3456516Y1258774D02*
D03*
X3427015Y1536905D02*
D03*
X3588701Y1273590D02*
D03*
X3497701Y1252590D02*
D03*
X3576583Y1160590D02*
D03*
X3553417Y1173574D02*
D03*
X3363189Y1723377D02*
D03*
X3390748D02*
D03*
X3335630D02*
D03*
X3363189Y1695818D02*
D03*
X3418307Y1723377D02*
D03*
X3335630Y1695818D02*
D03*
X3418307D02*
D03*
X3390748D02*
D03*
Y1640700D02*
D03*
X3418307D02*
D03*
X3335630D02*
D03*
X3418307Y1668259D02*
D03*
X3363189Y1640700D02*
D03*
X3335630Y1668259D02*
D03*
X3390748D02*
D03*
X3363189D02*
D03*
X3706764Y1744881D02*
D03*
X3734323D02*
D03*
X3679205D02*
D03*
X3706764Y1717322D02*
D03*
X3761882Y1744881D02*
D03*
X3679205Y1717322D02*
D03*
X3761882D02*
D03*
X3734323D02*
D03*
Y1662204D02*
D03*
X3761882D02*
D03*
X3679205D02*
D03*
X3761882Y1689763D02*
D03*
X3706764Y1662204D02*
D03*
X3679205Y1689763D02*
D03*
X3734323D02*
D03*
X3706764D02*
D03*
X4556181Y1679094D02*
D03*
X4164685Y1963590D02*
D03*
X4213701Y1053180D02*
D03*
X4190276Y1963590D02*
D03*
X4231796Y1032495D02*
D03*
X4433701Y1948009D02*
D03*
X4033701Y778590D02*
D03*
X4032701Y741590D02*
D03*
X4034701Y702590D02*
D03*
X3975968Y793858D02*
D03*
X3976701Y840590D02*
D03*
X4290701Y1167590D02*
D03*
X4300433Y979873D02*
D03*
X4431701Y1387590D02*
D03*
X4453307Y1796409D02*
D03*
X4413701Y1502590D02*
D03*
X4292638Y1961653D02*
D03*
X4121701Y1954590D02*
D03*
X4215866Y1975425D02*
D03*
X4425701Y1724590D02*
D03*
X4287100Y1779590D02*
D03*
X4176701Y1587590D02*
D03*
X4177701Y920590D02*
D03*
X4107701Y1735590D02*
D03*
X4288701Y1818590D02*
D03*
X3286330Y2345055D02*
D03*
X4199933Y2140636D02*
D03*
X3313024Y2344590D02*
D03*
X3553417Y1147984D02*
D03*
X4217165Y2161104D02*
D03*
X4145113Y2395002D02*
D03*
X4127017Y2376906D02*
D03*
X4267701Y762590D02*
D03*
X3259254Y942625D02*
D03*
X4188173Y688858D02*
D03*
X3316701Y1050590D02*
D03*
X4016063Y1966487D02*
D03*
X4045591D02*
D03*
Y1996015D02*
D03*
X4016063Y2379873D02*
D03*
X4045591Y2350346D02*
D03*
X4045591Y2379873D02*
D03*
X3888110Y1208613D02*
D03*
X3858583Y1179086D02*
D03*
Y1208613D02*
D03*
X3888110Y1179086D02*
D03*
X3858583Y1238141D02*
D03*
X3888110D02*
D03*
Y1297196D02*
D03*
Y1267669D02*
D03*
X3858583Y1297196D02*
D03*
X3785748Y1497984D02*
D03*
X4006220Y1238141D02*
D03*
X3947165D02*
D03*
X3917638Y1179086D02*
D03*
X3947165Y1208613D02*
D03*
Y1179086D02*
D03*
X3976693D02*
D03*
Y1208613D02*
D03*
X4006220D02*
D03*
X3976693Y1149558D02*
D03*
X4006220D02*
D03*
X4006220Y1179086D02*
D03*
X3917638Y1208613D02*
D03*
X3976693Y1238141D02*
D03*
Y1267669D02*
D03*
X3947165Y1297196D02*
D03*
X3976693D02*
D03*
X3917638D02*
D03*
Y1238141D02*
D03*
Y1267669D02*
D03*
X3947165D02*
D03*
X3821181Y1497984D02*
D03*
X3750315D02*
D03*
X3785748Y1466487D02*
D03*
X3821181D02*
D03*
X3750315D02*
D03*
Y1434992D02*
D03*
X4006220Y1297196D02*
D03*
Y1267669D02*
D03*
X3947165Y1149558D02*
D03*
X3917638D02*
D03*
X3888110Y1149558D02*
D03*
X3858583Y1149558D02*
D03*
X3559417Y1243984D02*
D03*
X3352417Y1385984D02*
D03*
X4045591Y2320818D02*
D03*
Y2261763D02*
D03*
Y2291291D02*
D03*
X4016063Y2320818D02*
D03*
Y2232236D02*
D03*
Y2261763D02*
D03*
X4045591Y2202708D02*
D03*
Y2232236D02*
D03*
Y2143653D02*
D03*
Y2173180D02*
D03*
X4016063Y2143653D02*
D03*
Y2202708D02*
D03*
Y2114125D02*
D03*
Y2350346D02*
D03*
X4016063Y2291291D02*
D03*
X3986535Y2320818D02*
D03*
Y2350346D02*
D03*
Y2379873D02*
D03*
X3986535Y2291291D02*
D03*
X4016063Y2173180D02*
D03*
X3986535Y2202708D02*
D03*
Y2114125D02*
D03*
Y2143653D02*
D03*
Y2232236D02*
D03*
Y2261763D02*
D03*
X3986535Y2173180D02*
D03*
X4045591Y2084598D02*
D03*
Y2114125D02*
D03*
Y2025543D02*
D03*
Y2055070D02*
D03*
X4016063D02*
D03*
Y2084598D02*
D03*
X4016063Y2025543D02*
D03*
X4016063Y1996015D02*
D03*
X3986535D02*
D03*
Y2025543D02*
D03*
Y1966487D02*
D03*
Y2055070D02*
D03*
Y2084598D02*
D03*
X3399417Y973984D02*
D03*
X3514098Y971303D02*
D03*
X3548417Y1488984D02*
D03*
X3858583Y1267669D02*
D03*
X3821181Y1434992D02*
D03*
X3785748D02*
D03*
D65*
X2516063Y997984D02*
D03*
X2490472Y992078D02*
D03*
X2510158Y972393D02*
D03*
X2720794Y997984D02*
D03*
X2746385Y992078D02*
D03*
X2726700Y972393D02*
D03*
X1899928Y992078D02*
D03*
X1880243Y972393D02*
D03*
X1874337Y997984D02*
D03*
X1669606D02*
D03*
X1644016Y992078D02*
D03*
X1663701Y972393D02*
D03*
X1027881Y997984D02*
D03*
X1033786Y972393D02*
D03*
X1053471Y992078D02*
D03*
X797559Y992078D02*
D03*
X823150Y997984D02*
D03*
X817244Y972393D02*
D03*
X3592841Y992078D02*
D03*
X3573156Y972393D02*
D03*
X3356614D02*
D03*
X3362520Y997984D02*
D03*
X3336929Y992078D02*
D03*
X3567251Y997984D02*
D03*
D66*
X2928387Y1462551D02*
D03*
X2081931D02*
D03*
X1235474D02*
D03*
X3774844D02*
D03*
D67*
X2529528Y1681054D02*
D03*
X1683071D02*
D03*
X836614D02*
D03*
X3375984D02*
D03*
D68*
X4033366Y739755D02*
D03*
%TF.MD5,0f430f1efb6edae70d9875ec6829ba3a*%
M02*
