%TF.GenerationSoftware,Altium Limited,Altium Designer,23.4.1 (23)*%
G04 Layer_Color=65535*
%FSLAX26Y26*%
%MOIN*%
%TF.SameCoordinates,9AE554A4-7581-43F1-91E0-74BCC9029391*%
%TF.FilePolarity,Positive*%
%TF.FileFunction,Legend,Top*%
%TF.Part,CustomerPanel*%
G01*
G75*
%TA.AperFunction,NonConductor*%
%ADD84C,0.009842*%
%ADD85C,0.023622*%
%ADD86C,0.007874*%
%ADD87C,0.003937*%
%ADD88C,0.010000*%
%ADD89C,0.005000*%
G36*
X737697Y1018020D02*
X749319Y1006398D01*
X749319Y1006020D01*
X726083D01*
X737697Y1018020D01*
D02*
G37*
G36*
X1584705Y1018159D02*
X1573083Y1029782D01*
Y1030159D01*
X1596319D01*
X1584705Y1018159D01*
D02*
G37*
G36*
X2428705Y1024159D02*
X2417083Y1035782D01*
Y1036159D01*
X2440319D01*
X2428705Y1024159D01*
D02*
G37*
G36*
X3275705Y1017159D02*
X3264083Y1028782D01*
Y1029159D01*
X3287319D01*
X3275705Y1017159D01*
D02*
G37*
G36*
X4222752Y959138D02*
X4234374Y947516D01*
X4234374Y947138D01*
X4211138D01*
X4222752Y959138D01*
D02*
G37*
G36*
X1376770Y2502742D02*
X1376655Y2502627D01*
X1376196Y2502512D01*
X1375621Y2502168D01*
X1374703Y2501823D01*
X1373555Y2501479D01*
X1372178Y2501020D01*
X1370685Y2500675D01*
X1368848Y2500216D01*
X1368619D01*
X1367930Y2499986D01*
X1366897Y2499872D01*
X1365634Y2499642D01*
X1363912Y2499412D01*
X1362075Y2499298D01*
X1360009Y2499068D01*
X1356565D01*
X1355761Y2499183D01*
X1354728Y2499298D01*
X1353465Y2499412D01*
X1352088Y2499642D01*
X1350710Y2499986D01*
X1347610Y2500790D01*
X1346003Y2501364D01*
X1344396Y2502053D01*
X1342789Y2502856D01*
X1341296Y2503775D01*
X1339804Y2504808D01*
X1338541Y2506071D01*
X1338426Y2506186D01*
X1338312Y2506415D01*
X1337967Y2506760D01*
X1337508Y2507334D01*
X1337049Y2508137D01*
X1336475Y2508941D01*
X1335901Y2509974D01*
X1335327Y2511122D01*
X1334638Y2512500D01*
X1334064Y2513992D01*
X1333490Y2515599D01*
X1333031Y2517321D01*
X1332572Y2519158D01*
X1332227Y2521224D01*
X1332112Y2523406D01*
X1331997Y2525702D01*
Y2525816D01*
Y2525931D01*
Y2526276D01*
Y2526735D01*
X1332112Y2527883D01*
X1332227Y2529260D01*
X1332342Y2530982D01*
X1332686Y2532819D01*
X1333031Y2534771D01*
X1333490Y2536608D01*
Y2536722D01*
X1333605Y2536837D01*
X1333719Y2537411D01*
X1334179Y2538330D01*
X1334638Y2539478D01*
X1335327Y2540855D01*
X1336015Y2542233D01*
X1337049Y2543610D01*
X1338082Y2544988D01*
X1338197Y2545103D01*
X1338656Y2545562D01*
X1339345Y2546251D01*
X1340148Y2547054D01*
X1341296Y2547858D01*
X1342559Y2548776D01*
X1344052Y2549695D01*
X1345659Y2550498D01*
X1345888Y2550613D01*
X1346462Y2550843D01*
X1347381Y2551072D01*
X1348758Y2551532D01*
X1350251Y2551876D01*
X1352088Y2552106D01*
X1354039Y2552335D01*
X1356220Y2552450D01*
X1357483D01*
X1358746Y2552335D01*
X1360238Y2552106D01*
X1360583D01*
X1360927Y2551991D01*
X1361386D01*
X1362534Y2551761D01*
X1363568Y2551417D01*
Y2575640D01*
X1376770D01*
Y2502742D01*
D02*
G37*
G36*
X1533701Y2536148D02*
X1553791Y2500216D01*
X1538867D01*
X1525780Y2525472D01*
X1525665D01*
X1512463Y2500216D01*
X1497539D01*
X1517629Y2536148D01*
X1499032Y2569670D01*
X1513841D01*
X1525665Y2546940D01*
X1525780D01*
X1537489Y2569670D01*
X1552299D01*
X1533701Y2536148D01*
D02*
G37*
G36*
X1466428Y2553024D02*
X1467691Y2552909D01*
X1468035D01*
X1468724Y2552794D01*
X1469643D01*
X1470676Y2552680D01*
X1468265Y2541774D01*
X1468150D01*
X1467806Y2541888D01*
X1467347Y2542003D01*
X1466543Y2542233D01*
X1465739Y2542348D01*
X1464706Y2542462D01*
X1463673Y2542577D01*
X1461262D01*
X1460114Y2542462D01*
X1458851Y2542233D01*
X1458622D01*
X1457818Y2542003D01*
X1456900Y2541774D01*
X1455867Y2541429D01*
Y2500216D01*
X1442894D01*
Y2549350D01*
X1443124Y2549465D01*
X1443583Y2549580D01*
X1444502Y2549924D01*
X1445535Y2550269D01*
X1446912Y2550728D01*
X1448520Y2551187D01*
X1450242Y2551532D01*
X1452193Y2551991D01*
X1452423D01*
X1453111Y2552220D01*
X1454259Y2552335D01*
X1455752Y2552565D01*
X1457474Y2552794D01*
X1459426Y2552909D01*
X1461722Y2553139D01*
X1465166D01*
X1466428Y2553024D01*
D02*
G37*
G36*
X1142004D02*
X1143266Y2552909D01*
X1143611D01*
X1144300Y2552794D01*
X1145218D01*
X1146251Y2552680D01*
X1143840Y2541774D01*
X1143726D01*
X1143381Y2541888D01*
X1142922Y2542003D01*
X1142118Y2542233D01*
X1141315Y2542348D01*
X1140282Y2542462D01*
X1139248Y2542577D01*
X1136838D01*
X1135689Y2542462D01*
X1134427Y2542233D01*
X1134197D01*
X1133393Y2542003D01*
X1132475Y2541774D01*
X1131442Y2541429D01*
Y2500216D01*
X1118469D01*
Y2549350D01*
X1118699Y2549465D01*
X1119158Y2549580D01*
X1120077Y2549924D01*
X1121110Y2550269D01*
X1122487Y2550728D01*
X1124095Y2551187D01*
X1125817Y2551532D01*
X1127768Y2551991D01*
X1127998D01*
X1128687Y2552220D01*
X1129835Y2552335D01*
X1131327Y2552565D01*
X1133049Y2552794D01*
X1135001Y2552909D01*
X1137297Y2553139D01*
X1140741D01*
X1142004Y2553024D01*
D02*
G37*
G36*
X894380Y2570818D02*
X895413Y2570703D01*
X896676Y2570588D01*
X898053Y2570474D01*
X899546Y2570129D01*
X902760Y2569440D01*
X906090Y2568407D01*
X907697Y2567718D01*
X909189Y2566915D01*
X910682Y2565881D01*
X912059Y2564848D01*
X912174Y2564733D01*
X912404Y2564619D01*
X912748Y2564274D01*
X913092Y2563700D01*
X913666Y2563126D01*
X914240Y2562438D01*
X914814Y2561519D01*
X915503Y2560486D01*
X916192Y2559453D01*
X916766Y2558190D01*
X917914Y2555435D01*
X918258Y2553827D01*
X918603Y2552220D01*
X918832Y2550383D01*
X918947Y2548547D01*
Y2548317D01*
Y2547743D01*
X918832Y2546825D01*
X918717Y2545677D01*
X918488Y2544299D01*
X918258Y2542921D01*
X917799Y2541314D01*
X917225Y2539822D01*
X917110Y2539592D01*
X916881Y2539133D01*
X916536Y2538444D01*
X915962Y2537411D01*
X915159Y2536378D01*
X914355Y2535230D01*
X913322Y2533967D01*
X912059Y2532819D01*
X911944Y2532704D01*
X911485Y2532360D01*
X910682Y2531786D01*
X909763Y2531212D01*
X908500Y2530523D01*
X907008Y2529720D01*
X905401Y2529031D01*
X903564Y2528342D01*
X903334Y2528227D01*
X902645Y2528112D01*
X901612Y2527883D01*
X900235Y2527538D01*
X898513Y2527194D01*
X896446Y2526964D01*
X894150Y2526849D01*
X891740Y2526735D01*
X889558D01*
X888181Y2526849D01*
X887951D01*
X887148Y2526964D01*
X886229Y2527079D01*
X885311Y2527194D01*
Y2500216D01*
X872109D01*
Y2567144D01*
X872338Y2567259D01*
X872798Y2567489D01*
X873601Y2567718D01*
X874749Y2568177D01*
X876127Y2568522D01*
X877619Y2568981D01*
X879341Y2569440D01*
X881178Y2569899D01*
X881408D01*
X882096Y2570014D01*
X883130Y2570244D01*
X884507Y2570474D01*
X886114Y2570588D01*
X887951Y2570818D01*
X890018Y2570933D01*
X893462D01*
X894380Y2570818D01*
D02*
G37*
G36*
X1040865Y2500216D02*
X1027318D01*
X1019282Y2529605D01*
Y2529720D01*
X1019168Y2530064D01*
X1019053Y2530638D01*
X1018823Y2531212D01*
X1018479Y2532819D01*
X1018134Y2534541D01*
Y2534656D01*
Y2534885D01*
X1018019Y2535230D01*
Y2535689D01*
X1017905Y2536722D01*
Y2537067D01*
Y2537411D01*
X1017675D01*
Y2537182D01*
X1017560Y2536608D01*
X1017331Y2535574D01*
X1017101Y2534197D01*
Y2534082D01*
X1016986Y2533852D01*
Y2533393D01*
X1016871Y2532819D01*
X1016757Y2532130D01*
X1016527Y2531441D01*
X1016068Y2529605D01*
X1008147Y2500216D01*
X994600D01*
X979562Y2551991D01*
X992649D01*
X1000111Y2520191D01*
Y2520076D01*
X1000226Y2519732D01*
X1000340Y2519273D01*
X1000455Y2518699D01*
X1000570Y2517895D01*
X1000799Y2517091D01*
X1001029Y2515140D01*
Y2515025D01*
X1001144Y2514681D01*
Y2514222D01*
X1001259Y2513762D01*
X1001374Y2512614D01*
Y2512155D01*
Y2511811D01*
X1001603D01*
Y2511925D01*
X1001718Y2512499D01*
X1001833Y2512844D01*
X1001947Y2513418D01*
X1002062Y2514107D01*
X1002177Y2514910D01*
Y2515025D01*
X1002292Y2515369D01*
Y2515829D01*
X1002407Y2516517D01*
X1002636Y2517206D01*
X1002866Y2518125D01*
X1003325Y2520191D01*
X1011706Y2551991D01*
X1023760D01*
X1032025Y2520191D01*
Y2520076D01*
X1032140Y2519732D01*
X1032255Y2519158D01*
X1032484Y2518469D01*
X1032829Y2516747D01*
X1033173Y2514910D01*
Y2514796D01*
X1033288Y2514566D01*
Y2514107D01*
X1033403Y2513648D01*
X1033632Y2512614D01*
X1033747Y2512155D01*
X1033862Y2511811D01*
X1033977D01*
Y2511925D01*
X1034091Y2512499D01*
Y2512844D01*
X1034206Y2513418D01*
Y2514107D01*
X1034321Y2514910D01*
Y2515025D01*
X1034436Y2515369D01*
Y2515829D01*
X1034551Y2516517D01*
X1034780Y2517206D01*
X1034895Y2518125D01*
X1035354Y2520191D01*
X1042701Y2551991D01*
X1055903D01*
X1040865Y2500216D01*
D02*
G37*
G36*
X1601318Y2526735D02*
X1608206D01*
Y2517321D01*
X1601318D01*
Y2500216D01*
X1589149D01*
Y2517321D01*
X1558039D01*
Y2526735D01*
X1586968Y2569670D01*
X1601318D01*
Y2526735D01*
D02*
G37*
G36*
X1215361Y2558420D02*
X1192056D01*
Y2540970D01*
X1213179D01*
Y2529834D01*
X1192056D01*
Y2500216D01*
X1178854D01*
Y2569670D01*
X1215361D01*
Y2558420D01*
D02*
G37*
G36*
X1412587Y2553024D02*
X1413850Y2552909D01*
X1415342Y2552680D01*
X1416949Y2552450D01*
X1418557Y2551991D01*
X1420164Y2551417D01*
X1420393Y2551302D01*
X1420853Y2551072D01*
X1421656Y2550728D01*
X1422575Y2550154D01*
X1423723Y2549465D01*
X1424871Y2548662D01*
X1426019Y2547743D01*
X1427052Y2546595D01*
X1427167Y2546480D01*
X1427511Y2546021D01*
X1428085Y2545332D01*
X1428659Y2544529D01*
X1429348Y2543381D01*
X1430151Y2542118D01*
X1430840Y2540740D01*
X1431414Y2539133D01*
X1431529Y2538904D01*
X1431644Y2538444D01*
X1431873Y2537526D01*
X1432218Y2536378D01*
X1432447Y2535000D01*
X1432677Y2533278D01*
X1432792Y2531556D01*
X1432907Y2529605D01*
Y2527309D01*
Y2527079D01*
Y2526620D01*
X1432792Y2525931D01*
X1432677Y2525128D01*
X1399385Y2520650D01*
Y2520536D01*
Y2520421D01*
X1399615Y2519732D01*
X1399844Y2518699D01*
X1400303Y2517436D01*
X1400992Y2516058D01*
X1401796Y2514566D01*
X1402829Y2513188D01*
X1404092Y2512040D01*
X1404322Y2511926D01*
X1404781Y2511581D01*
X1405584Y2511122D01*
X1406732Y2510663D01*
X1408110Y2510204D01*
X1409717Y2509744D01*
X1411669Y2509400D01*
X1413735Y2509285D01*
X1415227D01*
X1416146Y2509400D01*
X1417294Y2509515D01*
X1418671Y2509630D01*
X1421427Y2510204D01*
X1421656D01*
X1422116Y2510318D01*
X1422804Y2510548D01*
X1423723Y2510892D01*
X1424756Y2511122D01*
X1425904Y2511581D01*
X1428085Y2512500D01*
X1431873Y2502742D01*
X1431759Y2502627D01*
X1431300Y2502512D01*
X1430611Y2502168D01*
X1429578Y2501823D01*
X1428315Y2501364D01*
X1426937Y2500905D01*
X1425330Y2500560D01*
X1423493Y2500101D01*
X1423264D01*
X1422575Y2499986D01*
X1421542Y2499757D01*
X1420279Y2499642D01*
X1418671Y2499412D01*
X1416835Y2499183D01*
X1414768Y2499068D01*
X1411669D01*
X1410406Y2499183D01*
X1408914Y2499298D01*
X1407077Y2499527D01*
X1405240Y2499872D01*
X1403288Y2500331D01*
X1401451Y2501020D01*
X1401222Y2501134D01*
X1400648Y2501364D01*
X1399729Y2501823D01*
X1398582Y2502397D01*
X1397319Y2503201D01*
X1395941Y2504119D01*
X1394563Y2505267D01*
X1393301Y2506530D01*
X1393186Y2506645D01*
X1392727Y2507219D01*
X1392153Y2507908D01*
X1391464Y2508941D01*
X1390660Y2510204D01*
X1389742Y2511696D01*
X1388938Y2513303D01*
X1388249Y2515140D01*
Y2515255D01*
X1388135Y2515370D01*
X1388020Y2516058D01*
X1387790Y2517092D01*
X1387446Y2518354D01*
X1387101Y2520076D01*
X1386872Y2521913D01*
X1386757Y2523865D01*
X1386642Y2526046D01*
Y2526161D01*
Y2526276D01*
Y2526620D01*
Y2527079D01*
X1386757Y2528227D01*
X1386872Y2529605D01*
X1386987Y2531327D01*
X1387331Y2533164D01*
X1387676Y2535115D01*
X1388249Y2536952D01*
Y2537067D01*
X1388364Y2537182D01*
X1388594Y2537756D01*
X1388938Y2538789D01*
X1389398Y2539937D01*
X1390086Y2541314D01*
X1390890Y2542692D01*
X1391923Y2544184D01*
X1392956Y2545562D01*
X1393071Y2545677D01*
X1393530Y2546136D01*
X1394219Y2546825D01*
X1395023Y2547628D01*
X1396171Y2548432D01*
X1397434Y2549350D01*
X1398926Y2550269D01*
X1400533Y2551072D01*
X1400763Y2551187D01*
X1401337Y2551417D01*
X1402255Y2551761D01*
X1403518Y2552106D01*
X1405010Y2552450D01*
X1406732Y2552794D01*
X1408569Y2553024D01*
X1410636Y2553139D01*
X1411554D01*
X1412587Y2553024D01*
D02*
G37*
G36*
X1303527D02*
X1304790Y2552909D01*
X1306282Y2552680D01*
X1307889Y2552450D01*
X1309497Y2551991D01*
X1311104Y2551417D01*
X1311333Y2551302D01*
X1311793Y2551072D01*
X1312596Y2550728D01*
X1313515Y2550154D01*
X1314663Y2549465D01*
X1315811Y2548662D01*
X1316959Y2547743D01*
X1317992Y2546595D01*
X1318107Y2546480D01*
X1318451Y2546021D01*
X1319025Y2545332D01*
X1319599Y2544529D01*
X1320288Y2543381D01*
X1321091Y2542118D01*
X1321780Y2540740D01*
X1322354Y2539133D01*
X1322469Y2538904D01*
X1322584Y2538444D01*
X1322813Y2537526D01*
X1323158Y2536378D01*
X1323388Y2535000D01*
X1323617Y2533278D01*
X1323732Y2531556D01*
X1323847Y2529605D01*
Y2527309D01*
Y2527079D01*
Y2526620D01*
X1323732Y2525931D01*
X1323617Y2525128D01*
X1290325Y2520650D01*
Y2520536D01*
Y2520421D01*
X1290555Y2519732D01*
X1290784Y2518699D01*
X1291244Y2517436D01*
X1291932Y2516058D01*
X1292736Y2514566D01*
X1293769Y2513188D01*
X1295032Y2512040D01*
X1295262Y2511926D01*
X1295721Y2511581D01*
X1296524Y2511122D01*
X1297672Y2510663D01*
X1299050Y2510204D01*
X1300657Y2509744D01*
X1302609Y2509400D01*
X1304675Y2509285D01*
X1306168D01*
X1307086Y2509400D01*
X1308234Y2509515D01*
X1309611Y2509630D01*
X1312367Y2510204D01*
X1312596D01*
X1313055Y2510318D01*
X1313744Y2510548D01*
X1314663Y2510892D01*
X1315696Y2511122D01*
X1316844Y2511581D01*
X1319025Y2512500D01*
X1322813Y2502742D01*
X1322699Y2502627D01*
X1322239Y2502512D01*
X1321551Y2502168D01*
X1320517Y2501823D01*
X1319255Y2501364D01*
X1317877Y2500905D01*
X1316270Y2500560D01*
X1314433Y2500101D01*
X1314204D01*
X1313515Y2499986D01*
X1312482Y2499757D01*
X1311219Y2499642D01*
X1309611Y2499412D01*
X1307775Y2499183D01*
X1305708Y2499068D01*
X1302609D01*
X1301346Y2499183D01*
X1299853Y2499298D01*
X1298017Y2499527D01*
X1296180Y2499872D01*
X1294228Y2500331D01*
X1292391Y2501020D01*
X1292162Y2501134D01*
X1291588Y2501364D01*
X1290669Y2501823D01*
X1289522Y2502397D01*
X1288259Y2503201D01*
X1286881Y2504119D01*
X1285504Y2505267D01*
X1284241Y2506530D01*
X1284126Y2506645D01*
X1283667Y2507219D01*
X1283093Y2507908D01*
X1282404Y2508941D01*
X1281600Y2510204D01*
X1280682Y2511696D01*
X1279878Y2513303D01*
X1279189Y2515140D01*
Y2515255D01*
X1279075Y2515370D01*
X1278960Y2516058D01*
X1278730Y2517092D01*
X1278386Y2518354D01*
X1278042Y2520076D01*
X1277812Y2521913D01*
X1277697Y2523865D01*
X1277582Y2526046D01*
Y2526161D01*
Y2526276D01*
Y2526620D01*
Y2527079D01*
X1277697Y2528227D01*
X1277812Y2529605D01*
X1277927Y2531327D01*
X1278271Y2533164D01*
X1278616Y2535115D01*
X1279189Y2536952D01*
Y2537067D01*
X1279304Y2537182D01*
X1279534Y2537756D01*
X1279878Y2538789D01*
X1280338Y2539937D01*
X1281026Y2541314D01*
X1281830Y2542692D01*
X1282863Y2544184D01*
X1283896Y2545562D01*
X1284011Y2545677D01*
X1284470Y2546136D01*
X1285159Y2546825D01*
X1285963Y2547628D01*
X1287111Y2548432D01*
X1288373Y2549350D01*
X1289866Y2550269D01*
X1291473Y2551072D01*
X1291703Y2551187D01*
X1292277Y2551417D01*
X1293195Y2551761D01*
X1294458Y2552106D01*
X1295950Y2552450D01*
X1297672Y2552794D01*
X1299509Y2553024D01*
X1301575Y2553139D01*
X1302494D01*
X1303527Y2553024D01*
D02*
G37*
G36*
X1249112D02*
X1250375Y2552909D01*
X1251867Y2552680D01*
X1253474Y2552450D01*
X1255082Y2551991D01*
X1256689Y2551417D01*
X1256918Y2551302D01*
X1257378Y2551072D01*
X1258181Y2550728D01*
X1259100Y2550154D01*
X1260247Y2549465D01*
X1261396Y2548662D01*
X1262543Y2547743D01*
X1263577Y2546595D01*
X1263691Y2546480D01*
X1264036Y2546021D01*
X1264610Y2545332D01*
X1265184Y2544529D01*
X1265873Y2543381D01*
X1266676Y2542118D01*
X1267365Y2540740D01*
X1267939Y2539133D01*
X1268054Y2538904D01*
X1268169Y2538444D01*
X1268398Y2537526D01*
X1268743Y2536378D01*
X1268972Y2535000D01*
X1269202Y2533278D01*
X1269317Y2531556D01*
X1269431Y2529605D01*
Y2527309D01*
Y2527079D01*
Y2526620D01*
X1269317Y2525931D01*
X1269202Y2525128D01*
X1235910Y2520650D01*
Y2520536D01*
Y2520421D01*
X1236139Y2519732D01*
X1236369Y2518699D01*
X1236828Y2517436D01*
X1237517Y2516058D01*
X1238321Y2514566D01*
X1239354Y2513188D01*
X1240617Y2512040D01*
X1240846Y2511926D01*
X1241305Y2511581D01*
X1242109Y2511122D01*
X1243257Y2510663D01*
X1244635Y2510204D01*
X1246242Y2509744D01*
X1248194Y2509400D01*
X1250260Y2509285D01*
X1251752D01*
X1252671Y2509400D01*
X1253819Y2509515D01*
X1255196Y2509630D01*
X1257951Y2510204D01*
X1258181D01*
X1258640Y2510318D01*
X1259329Y2510548D01*
X1260247Y2510892D01*
X1261281Y2511122D01*
X1262429Y2511581D01*
X1264610Y2512500D01*
X1268398Y2502742D01*
X1268284Y2502627D01*
X1267824Y2502512D01*
X1267136Y2502168D01*
X1266102Y2501823D01*
X1264840Y2501364D01*
X1263462Y2500905D01*
X1261855Y2500560D01*
X1260018Y2500101D01*
X1259788D01*
X1259100Y2499986D01*
X1258066Y2499757D01*
X1256803Y2499642D01*
X1255196Y2499412D01*
X1253360Y2499183D01*
X1251293Y2499068D01*
X1248194D01*
X1246931Y2499183D01*
X1245438Y2499298D01*
X1243601Y2499527D01*
X1241765Y2499872D01*
X1239813Y2500331D01*
X1237976Y2501020D01*
X1237747Y2501134D01*
X1237173Y2501364D01*
X1236254Y2501823D01*
X1235106Y2502397D01*
X1233843Y2503201D01*
X1232466Y2504119D01*
X1231088Y2505267D01*
X1229825Y2506530D01*
X1229711Y2506645D01*
X1229252Y2507219D01*
X1228678Y2507908D01*
X1227989Y2508941D01*
X1227185Y2510204D01*
X1226267Y2511696D01*
X1225463Y2513303D01*
X1224774Y2515140D01*
Y2515255D01*
X1224659Y2515370D01*
X1224545Y2516058D01*
X1224315Y2517092D01*
X1223971Y2518354D01*
X1223626Y2520076D01*
X1223397Y2521913D01*
X1223282Y2523865D01*
X1223167Y2526046D01*
Y2526161D01*
Y2526276D01*
Y2526620D01*
Y2527079D01*
X1223282Y2528227D01*
X1223397Y2529605D01*
X1223512Y2531327D01*
X1223856Y2533164D01*
X1224200Y2535115D01*
X1224774Y2536952D01*
Y2537067D01*
X1224889Y2537182D01*
X1225119Y2537756D01*
X1225463Y2538789D01*
X1225922Y2539937D01*
X1226611Y2541314D01*
X1227415Y2542692D01*
X1228448Y2544184D01*
X1229481Y2545562D01*
X1229596Y2545677D01*
X1230055Y2546136D01*
X1230744Y2546825D01*
X1231547Y2547628D01*
X1232696Y2548432D01*
X1233958Y2549350D01*
X1235451Y2550269D01*
X1237058Y2551072D01*
X1237287Y2551187D01*
X1237861Y2551417D01*
X1238780Y2551761D01*
X1240043Y2552106D01*
X1241535Y2552450D01*
X1243257Y2552794D01*
X1245094Y2553024D01*
X1247160Y2553139D01*
X1248079D01*
X1249112Y2553024D01*
D02*
G37*
G36*
X1088162Y2553024D02*
X1089425Y2552909D01*
X1090918Y2552680D01*
X1092525Y2552450D01*
X1094132Y2551991D01*
X1095739Y2551417D01*
X1095969Y2551302D01*
X1096428Y2551072D01*
X1097232Y2550728D01*
X1098150Y2550154D01*
X1099298Y2549465D01*
X1100446Y2548662D01*
X1101594Y2547743D01*
X1102627Y2546595D01*
X1102742Y2546480D01*
X1103086Y2546021D01*
X1103660Y2545332D01*
X1104234Y2544529D01*
X1104923Y2543381D01*
X1105727Y2542118D01*
X1106416Y2540740D01*
X1106989Y2539133D01*
X1107104Y2538903D01*
X1107219Y2538444D01*
X1107449Y2537526D01*
X1107793Y2536378D01*
X1108023Y2535000D01*
X1108252Y2533278D01*
X1108367Y2531556D01*
X1108482Y2529605D01*
Y2527309D01*
Y2527079D01*
Y2526620D01*
X1108367Y2525931D01*
X1108252Y2525128D01*
X1074960Y2520650D01*
Y2520535D01*
Y2520421D01*
X1075190Y2519732D01*
X1075419Y2518699D01*
X1075879Y2517436D01*
X1076568Y2516058D01*
X1077371Y2514566D01*
X1078404Y2513188D01*
X1079667Y2512040D01*
X1079897Y2511925D01*
X1080356Y2511581D01*
X1081159Y2511122D01*
X1082307Y2510663D01*
X1083685Y2510204D01*
X1085292Y2509744D01*
X1087244Y2509400D01*
X1089310Y2509285D01*
X1090803D01*
X1091721Y2509400D01*
X1092869Y2509515D01*
X1094247Y2509630D01*
X1097002Y2510204D01*
X1097232D01*
X1097691Y2510318D01*
X1098380Y2510548D01*
X1099298Y2510892D01*
X1100331Y2511122D01*
X1101479Y2511581D01*
X1103660Y2512499D01*
X1107449Y2502742D01*
X1107334Y2502627D01*
X1106875Y2502512D01*
X1106186Y2502168D01*
X1105153Y2501823D01*
X1103890Y2501364D01*
X1102512Y2500905D01*
X1100905Y2500560D01*
X1099068Y2500101D01*
X1098839D01*
X1098150Y2499986D01*
X1097117Y2499757D01*
X1095854Y2499642D01*
X1094247Y2499412D01*
X1092410Y2499183D01*
X1090343Y2499068D01*
X1087244D01*
X1085981Y2499183D01*
X1084489Y2499298D01*
X1082652Y2499527D01*
X1080815Y2499872D01*
X1078863Y2500331D01*
X1077027Y2501019D01*
X1076797Y2501134D01*
X1076223Y2501364D01*
X1075305Y2501823D01*
X1074157Y2502397D01*
X1072894Y2503201D01*
X1071516Y2504119D01*
X1070139Y2505267D01*
X1068876Y2506530D01*
X1068761Y2506645D01*
X1068302Y2507219D01*
X1067728Y2507907D01*
X1067039Y2508941D01*
X1066236Y2510204D01*
X1065317Y2511696D01*
X1064514Y2513303D01*
X1063825Y2515140D01*
Y2515255D01*
X1063710Y2515369D01*
X1063595Y2516058D01*
X1063366Y2517091D01*
X1063021Y2518354D01*
X1062677Y2520076D01*
X1062447Y2521913D01*
X1062332Y2523865D01*
X1062217Y2526046D01*
Y2526161D01*
Y2526276D01*
Y2526620D01*
Y2527079D01*
X1062332Y2528227D01*
X1062447Y2529605D01*
X1062562Y2531327D01*
X1062906Y2533164D01*
X1063251Y2535115D01*
X1063825Y2536952D01*
Y2537067D01*
X1063939Y2537182D01*
X1064169Y2537756D01*
X1064514Y2538789D01*
X1064973Y2539937D01*
X1065661Y2541314D01*
X1066465Y2542692D01*
X1067498Y2544184D01*
X1068532Y2545562D01*
X1068646Y2545677D01*
X1069105Y2546136D01*
X1069794Y2546825D01*
X1070598Y2547628D01*
X1071746Y2548432D01*
X1073009Y2549350D01*
X1074501Y2550269D01*
X1076108Y2551072D01*
X1076338Y2551187D01*
X1076912Y2551417D01*
X1077830Y2551761D01*
X1079093Y2552106D01*
X1080585Y2552450D01*
X1082307Y2552794D01*
X1084144Y2553024D01*
X1086211Y2553139D01*
X1087129D01*
X1088162Y2553024D01*
D02*
G37*
G36*
X951780D02*
X953043Y2552909D01*
X954650Y2552680D01*
X956257Y2552220D01*
X957979Y2551761D01*
X959701Y2551072D01*
X959931Y2550957D01*
X960390Y2550728D01*
X961193Y2550269D01*
X962227Y2549580D01*
X963375Y2548776D01*
X964638Y2547743D01*
X965900Y2546595D01*
X967048Y2545332D01*
X967163Y2545218D01*
X967508Y2544758D01*
X968082Y2543955D01*
X968770Y2542921D01*
X969459Y2541659D01*
X970148Y2540281D01*
X970952Y2538674D01*
X971525Y2536837D01*
X971640Y2536608D01*
X971755Y2536034D01*
X971985Y2535000D01*
X972329Y2533623D01*
X972673Y2532015D01*
X972903Y2530179D01*
X973018Y2528227D01*
X973133Y2526046D01*
Y2525931D01*
Y2525816D01*
Y2525472D01*
Y2525128D01*
X973018Y2523979D01*
X972903Y2522602D01*
X972788Y2520880D01*
X972444Y2519043D01*
X972100Y2517206D01*
X971525Y2515255D01*
X971411Y2515025D01*
X971296Y2514451D01*
X970952Y2513533D01*
X970378Y2512385D01*
X969803Y2511007D01*
X969000Y2509515D01*
X968082Y2508022D01*
X967048Y2506645D01*
X966933Y2506530D01*
X966474Y2506071D01*
X965900Y2505382D01*
X964982Y2504578D01*
X963949Y2503660D01*
X962686Y2502742D01*
X961308Y2501823D01*
X959701Y2501019D01*
X959471Y2500905D01*
X958898Y2500675D01*
X957979Y2500445D01*
X956831Y2500101D01*
X955339Y2499642D01*
X953617Y2499412D01*
X951780Y2499183D01*
X949713Y2499068D01*
X948795D01*
X947647Y2499183D01*
X946384Y2499298D01*
X944777Y2499527D01*
X943055Y2499872D01*
X941333Y2500331D01*
X939611Y2501019D01*
X939381Y2501134D01*
X938922Y2501364D01*
X938119Y2501823D01*
X937086Y2502512D01*
X935938Y2503316D01*
X934675Y2504234D01*
X933412Y2505382D01*
X932264Y2506645D01*
X932149Y2506760D01*
X931805Y2507334D01*
X931231Y2508022D01*
X930542Y2509055D01*
X929853Y2510318D01*
X929164Y2511811D01*
X928361Y2513418D01*
X927787Y2515255D01*
Y2515369D01*
X927672Y2515484D01*
X927557Y2516173D01*
X927327Y2517206D01*
X927098Y2518469D01*
X926754Y2520076D01*
X926524Y2521913D01*
X926409Y2523979D01*
X926294Y2526046D01*
Y2526161D01*
Y2526276D01*
Y2526620D01*
Y2527079D01*
X926409Y2528112D01*
X926524Y2529605D01*
X926639Y2531212D01*
X926983Y2533049D01*
X927327Y2535000D01*
X927787Y2536837D01*
Y2536952D01*
X927902Y2537067D01*
X928016Y2537641D01*
X928476Y2538559D01*
X928935Y2539707D01*
X929509Y2541085D01*
X930312Y2542462D01*
X931231Y2543955D01*
X932264Y2545332D01*
X932379Y2545447D01*
X932838Y2545906D01*
X933412Y2546595D01*
X934330Y2547399D01*
X935364Y2548317D01*
X936626Y2549350D01*
X938004Y2550269D01*
X939611Y2551072D01*
X939841Y2551187D01*
X940415Y2551417D01*
X941333Y2551761D01*
X942596Y2552106D01*
X944088Y2552450D01*
X945810Y2552794D01*
X947647Y2553024D01*
X949713Y2553139D01*
X950632D01*
X951780Y2553024D01*
D02*
G37*
G36*
X2142884Y772480D02*
X2143966Y772381D01*
X2144262D01*
X2144852Y772283D01*
X2145639D01*
X2146525Y772184D01*
X2144458Y762837D01*
X2144360D01*
X2144065Y762935D01*
X2143671Y763033D01*
X2142982Y763230D01*
X2142294Y763328D01*
X2141408Y763427D01*
X2140522Y763525D01*
X2138456D01*
X2137472Y763427D01*
X2136390Y763230D01*
X2136193D01*
X2135504Y763033D01*
X2134717Y762837D01*
X2133831Y762541D01*
Y727216D01*
X2122712D01*
Y769331D01*
X2122909Y769429D01*
X2123302Y769528D01*
X2124090Y769823D01*
X2124975Y770118D01*
X2126156Y770512D01*
X2127534Y770905D01*
X2129010Y771201D01*
X2130682Y771594D01*
X2130879D01*
X2131470Y771791D01*
X2132454Y771889D01*
X2133733Y772086D01*
X2135209Y772283D01*
X2136881Y772381D01*
X2138849Y772578D01*
X2141802D01*
X2142884Y772480D01*
D02*
G37*
G36*
X2046649Y787732D02*
X2047534Y787633D01*
X2048617Y787535D01*
X2049798Y787437D01*
X2051077Y787141D01*
X2053832Y786551D01*
X2056686Y785665D01*
X2058063Y785075D01*
X2059342Y784386D01*
X2060622Y783500D01*
X2061802Y782615D01*
X2061901Y782516D01*
X2062097Y782418D01*
X2062393Y782123D01*
X2062688Y781631D01*
X2063180Y781139D01*
X2063672Y780548D01*
X2064164Y779761D01*
X2064754Y778876D01*
X2065345Y777990D01*
X2065837Y776908D01*
X2066821Y774546D01*
X2067116Y773168D01*
X2067411Y771791D01*
X2067608Y770216D01*
X2067706Y768642D01*
Y768445D01*
Y767953D01*
X2067608Y767166D01*
X2067510Y766182D01*
X2067313Y765001D01*
X2067116Y763821D01*
X2066722Y762443D01*
X2066230Y761164D01*
X2066132Y760967D01*
X2065935Y760573D01*
X2065640Y759983D01*
X2065148Y759097D01*
X2064459Y758212D01*
X2063770Y757228D01*
X2062885Y756145D01*
X2061802Y755161D01*
X2061704Y755063D01*
X2061310Y754768D01*
X2060622Y754276D01*
X2059834Y753784D01*
X2058752Y753193D01*
X2057473Y752505D01*
X2056095Y751914D01*
X2054521Y751324D01*
X2054324Y751225D01*
X2053733Y751127D01*
X2052848Y750930D01*
X2051667Y750635D01*
X2050191Y750340D01*
X2048420Y750143D01*
X2046452Y750044D01*
X2044386Y749946D01*
X2042516D01*
X2041335Y750044D01*
X2041138D01*
X2040449Y750143D01*
X2039662Y750241D01*
X2038875Y750340D01*
Y727216D01*
X2027559D01*
Y784583D01*
X2027756Y784681D01*
X2028149Y784878D01*
X2028838Y785075D01*
X2029822Y785468D01*
X2031003Y785764D01*
X2032282Y786157D01*
X2033758Y786551D01*
X2035333Y786944D01*
X2035530D01*
X2036120Y787043D01*
X2037005Y787240D01*
X2038186Y787437D01*
X2039564Y787535D01*
X2041138Y787732D01*
X2042909Y787830D01*
X2045861D01*
X2046649Y787732D01*
D02*
G37*
G36*
X2222981D02*
X2223769D01*
X2224753Y787633D01*
X2225737Y787437D01*
X2226819Y787338D01*
X2229181Y786846D01*
X2231542Y786059D01*
X2233904Y784976D01*
X2234888Y784386D01*
X2235872Y783599D01*
X2235970D01*
X2236069Y783402D01*
X2236659Y782812D01*
X2237446Y781926D01*
X2238332Y780647D01*
X2239218Y779072D01*
X2239906Y777203D01*
X2240497Y774940D01*
X2240595Y773759D01*
X2240693Y772480D01*
Y772381D01*
Y772086D01*
Y771692D01*
X2240595Y771102D01*
X2240398Y769725D01*
X2239906Y768150D01*
Y768052D01*
X2239808Y767756D01*
X2239611Y767363D01*
X2239316Y766871D01*
X2238627Y765690D01*
X2237643Y764411D01*
X2237545Y764312D01*
X2237348Y764116D01*
X2237053Y763821D01*
X2236659Y763427D01*
X2235577Y762443D01*
X2234298Y761361D01*
X2234199Y761262D01*
X2234002Y761164D01*
X2233609Y760869D01*
X2233215Y760672D01*
X2231936Y759983D01*
X2230558Y759294D01*
Y759097D01*
X2230657D01*
X2230952Y758999D01*
X2231444Y758802D01*
X2232034Y758605D01*
X2232723Y758310D01*
X2233510Y758015D01*
X2235085Y757129D01*
X2235183Y757031D01*
X2235478Y756933D01*
X2235872Y756637D01*
X2236364Y756342D01*
X2237643Y755358D01*
X2238922Y754079D01*
X2239021Y753981D01*
X2239218Y753784D01*
X2239513Y753390D01*
X2239906Y752898D01*
X2240398Y752308D01*
X2240792Y751520D01*
X2241677Y749848D01*
X2241776Y749749D01*
X2241874Y749454D01*
X2242071Y748864D01*
X2242268Y748273D01*
X2242465Y747388D01*
X2242563Y746502D01*
X2242760Y745420D01*
Y744337D01*
Y744140D01*
Y743649D01*
X2242662Y742861D01*
X2242563Y741877D01*
X2242366Y740697D01*
X2242071Y739417D01*
X2241677Y738138D01*
X2241186Y736859D01*
X2241087Y736760D01*
X2240890Y736269D01*
X2240497Y735678D01*
X2240005Y734891D01*
X2239414Y734005D01*
X2238627Y733021D01*
X2237742Y732037D01*
X2236659Y731152D01*
X2236561Y731053D01*
X2236167Y730758D01*
X2235577Y730365D01*
X2234691Y729774D01*
X2233707Y729184D01*
X2232428Y728593D01*
X2231050Y728003D01*
X2229574Y727511D01*
X2229378Y727413D01*
X2228787Y727314D01*
X2228000Y727117D01*
X2226819Y726920D01*
X2225343Y726625D01*
X2223769Y726428D01*
X2221899Y726330D01*
X2219931Y726232D01*
X2219144D01*
X2218160Y726330D01*
X2216979D01*
X2215602Y726428D01*
X2213929Y726625D01*
X2212256Y726822D01*
X2210485Y727117D01*
X2210288D01*
X2209698Y727314D01*
X2208812Y727413D01*
X2207631Y727708D01*
X2206352Y728003D01*
X2204974Y728396D01*
X2203498Y728889D01*
X2202121Y729380D01*
X2205663Y738138D01*
X2205762D01*
X2206155Y737941D01*
X2206745Y737745D01*
X2207434Y737449D01*
X2208418Y737154D01*
X2209501Y736859D01*
X2210682Y736564D01*
X2212059Y736269D01*
X2212256D01*
X2212748Y736170D01*
X2213437Y736072D01*
X2214421Y735973D01*
X2215602Y735875D01*
X2216881Y735777D01*
X2218258Y735678D01*
X2220620D01*
X2221604Y735777D01*
X2222785Y735973D01*
X2224162Y736269D01*
X2225540Y736662D01*
X2226918Y737253D01*
X2228098Y738040D01*
X2228197Y738138D01*
X2228590Y738433D01*
X2229082Y739024D01*
X2229673Y739712D01*
X2230165Y740598D01*
X2230657Y741681D01*
X2231050Y742960D01*
X2231149Y744337D01*
Y744436D01*
Y744731D01*
X2231050Y745223D01*
X2230952Y745715D01*
X2230657Y747092D01*
X2230263Y747781D01*
X2229869Y748470D01*
X2229771Y748568D01*
X2229673Y748765D01*
X2229378Y749061D01*
X2228984Y749454D01*
X2228492Y749946D01*
X2227803Y750438D01*
X2227114Y750930D01*
X2226327Y751324D01*
X2226229Y751422D01*
X2225934Y751520D01*
X2225441Y751717D01*
X2224851Y752013D01*
X2224064Y752308D01*
X2223178Y752603D01*
X2222096Y752898D01*
X2221014Y753095D01*
X2220915D01*
X2220521Y753193D01*
X2219833Y753292D01*
X2219046Y753489D01*
X2218061Y753587D01*
X2216979Y753685D01*
X2215700Y753784D01*
X2213437D01*
Y762049D01*
X2214027D01*
X2214716Y762148D01*
X2215602Y762246D01*
X2216684Y762345D01*
X2217766Y762541D01*
X2220030Y763033D01*
X2220128D01*
X2220521Y763132D01*
X2221112Y763328D01*
X2221801Y763624D01*
X2223375Y764214D01*
X2225048Y765100D01*
X2225146Y765198D01*
X2225343Y765297D01*
X2225737Y765592D01*
X2226229Y765985D01*
X2227213Y766871D01*
X2228197Y767953D01*
X2228295Y768052D01*
X2228394Y768249D01*
X2228590Y768544D01*
X2228787Y769036D01*
X2229181Y770216D01*
X2229378Y770905D01*
Y771594D01*
Y771692D01*
Y772086D01*
X2229279Y772677D01*
X2229082Y773464D01*
X2228787Y774251D01*
X2228295Y775038D01*
X2227705Y775924D01*
X2226918Y776612D01*
X2226819Y776711D01*
X2226425Y776908D01*
X2225934Y777203D01*
X2225146Y777596D01*
X2224064Y777892D01*
X2222883Y778187D01*
X2221506Y778384D01*
X2219833Y778482D01*
X2218652D01*
X2217865Y778384D01*
X2216881Y778285D01*
X2215700Y778187D01*
X2213240Y777695D01*
X2213043D01*
X2212649Y777596D01*
X2211961Y777400D01*
X2211173Y777203D01*
X2210189Y776908D01*
X2209107Y776612D01*
X2206844Y775825D01*
X2203597Y784583D01*
X2203794Y784681D01*
X2204285Y784878D01*
X2205073Y785173D01*
X2206057Y785468D01*
X2207238Y785862D01*
X2208713Y786256D01*
X2210288Y786649D01*
X2211961Y786944D01*
X2212157D01*
X2212748Y787043D01*
X2213633Y787240D01*
X2214913Y787437D01*
X2216290Y787535D01*
X2217865Y787732D01*
X2219636Y787830D01*
X2222293D01*
X2222981Y787732D01*
D02*
G37*
G36*
X2167484Y771594D02*
X2175749D01*
Y763132D01*
X2167484D01*
Y741287D01*
Y741188D01*
Y740795D01*
X2167582Y740401D01*
X2167681Y739811D01*
X2167878Y739122D01*
X2168074Y738532D01*
X2168468Y737941D01*
X2168960Y737449D01*
X2169058D01*
X2169255Y737253D01*
X2169550Y737154D01*
X2169944Y736957D01*
X2170534Y736760D01*
X2171125Y736564D01*
X2171814Y736465D01*
X2172601Y736367D01*
X2173191D01*
X2173683Y736465D01*
X2174372Y736564D01*
X2174569D01*
X2174864Y736662D01*
X2175356Y736859D01*
X2175749Y737056D01*
Y727708D01*
X2175553Y727609D01*
X2175061Y727413D01*
X2174175Y727216D01*
X2172896Y726920D01*
X2172601D01*
X2172207Y726822D01*
X2171715D01*
X2170534Y726724D01*
X2169058Y726625D01*
X2168468D01*
X2167976Y726724D01*
X2166894Y726822D01*
X2165418Y727019D01*
X2163843Y727511D01*
X2162269Y728101D01*
X2160793Y728889D01*
X2159514Y730069D01*
X2159415Y730266D01*
X2159021Y730758D01*
X2158530Y731545D01*
X2158037Y732628D01*
X2157447Y734104D01*
X2156955Y735973D01*
X2156561Y738040D01*
X2156463Y740500D01*
Y763132D01*
X2150756D01*
Y771594D01*
X2156463D01*
Y781434D01*
X2167484Y784681D01*
Y771594D01*
D02*
G37*
G36*
X2095849Y772480D02*
X2096931Y772381D01*
X2098309Y772184D01*
X2099686Y771791D01*
X2101162Y771397D01*
X2102638Y770807D01*
X2102835Y770708D01*
X2103229Y770512D01*
X2103918Y770118D01*
X2104803Y769528D01*
X2105787Y768839D01*
X2106869Y767953D01*
X2107952Y766969D01*
X2108936Y765887D01*
X2109034Y765788D01*
X2109329Y765395D01*
X2109822Y764706D01*
X2110412Y763821D01*
X2111002Y762738D01*
X2111593Y761557D01*
X2112282Y760180D01*
X2112773Y758605D01*
X2112872Y758409D01*
X2112970Y757917D01*
X2113167Y757031D01*
X2113462Y755850D01*
X2113758Y754472D01*
X2113954Y752898D01*
X2114053Y751225D01*
X2114151Y749356D01*
Y749257D01*
Y749159D01*
Y748864D01*
Y748568D01*
X2114053Y747585D01*
X2113954Y746404D01*
X2113856Y744928D01*
X2113561Y743353D01*
X2113265Y741779D01*
X2112773Y740106D01*
X2112675Y739909D01*
X2112577Y739417D01*
X2112282Y738630D01*
X2111789Y737646D01*
X2111298Y736465D01*
X2110609Y735186D01*
X2109822Y733907D01*
X2108936Y732726D01*
X2108838Y732628D01*
X2108444Y732234D01*
X2107952Y731644D01*
X2107165Y730955D01*
X2106279Y730168D01*
X2105197Y729380D01*
X2104016Y728593D01*
X2102638Y727904D01*
X2102441Y727806D01*
X2101950Y727609D01*
X2101162Y727413D01*
X2100178Y727117D01*
X2098899Y726724D01*
X2097423Y726527D01*
X2095849Y726330D01*
X2094077Y726232D01*
X2093290D01*
X2092306Y726330D01*
X2091224Y726428D01*
X2089846Y726625D01*
X2088370Y726920D01*
X2086894Y727314D01*
X2085418Y727904D01*
X2085222Y728003D01*
X2084828Y728200D01*
X2084139Y728593D01*
X2083253Y729184D01*
X2082269Y729872D01*
X2081187Y730660D01*
X2080105Y731644D01*
X2079121Y732726D01*
X2079022Y732824D01*
X2078727Y733317D01*
X2078235Y733907D01*
X2077645Y734793D01*
X2077054Y735875D01*
X2076464Y737154D01*
X2075775Y738532D01*
X2075283Y740106D01*
Y740205D01*
X2075185Y740303D01*
X2075086Y740893D01*
X2074890Y741779D01*
X2074693Y742861D01*
X2074398Y744239D01*
X2074201Y745813D01*
X2074102Y747585D01*
X2074004Y749356D01*
Y749454D01*
Y749553D01*
Y749848D01*
Y750241D01*
X2074102Y751127D01*
X2074201Y752406D01*
X2074299Y753784D01*
X2074594Y755358D01*
X2074890Y757031D01*
X2075283Y758605D01*
Y758704D01*
X2075381Y758802D01*
X2075480Y759294D01*
X2075874Y760081D01*
X2076267Y761065D01*
X2076759Y762246D01*
X2077448Y763427D01*
X2078235Y764706D01*
X2079121Y765887D01*
X2079219Y765985D01*
X2079613Y766379D01*
X2080105Y766969D01*
X2080892Y767658D01*
X2081778Y768445D01*
X2082860Y769331D01*
X2084041Y770118D01*
X2085418Y770807D01*
X2085615Y770905D01*
X2086107Y771102D01*
X2086894Y771397D01*
X2087977Y771692D01*
X2089256Y771988D01*
X2090732Y772283D01*
X2092306Y772480D01*
X2094077Y772578D01*
X2094865D01*
X2095849Y772480D01*
D02*
G37*
G36*
X2056882Y707732D02*
X2043795Y695924D01*
X2101950D01*
Y687167D01*
X2043795D01*
X2056882Y675359D01*
X2050289Y668766D01*
X2027461Y691595D01*
X2050289Y714325D01*
X2056882Y707732D01*
D02*
G37*
G36*
X498745Y1165691D02*
X500238Y1165576D01*
X501960Y1165347D01*
X505404Y1164658D01*
X505634D01*
X506207Y1164428D01*
X507011Y1164199D01*
X508159Y1163969D01*
X509307Y1163510D01*
X510570Y1163165D01*
X511718Y1162591D01*
X512866Y1162017D01*
X508618Y1151456D01*
X508503D01*
X508274Y1151685D01*
X507815Y1151915D01*
X507241Y1152145D01*
X506437Y1152489D01*
X505519Y1152719D01*
X504486Y1153063D01*
X503337Y1153407D01*
X503223D01*
X502764Y1153522D01*
X502075Y1153637D01*
X501271Y1153867D01*
X500123Y1153981D01*
X498860Y1154096D01*
X497483Y1154211D01*
X495301D01*
X494498Y1154096D01*
X493465Y1153981D01*
X492317Y1153867D01*
X490939Y1153637D01*
X489562Y1153178D01*
X488184Y1152719D01*
X488069Y1152604D01*
X487610Y1152489D01*
X486921Y1152145D01*
X486118Y1151685D01*
X485084Y1150997D01*
X484051Y1150308D01*
X483018Y1149275D01*
X481985Y1148241D01*
X481870Y1148127D01*
X481526Y1147667D01*
X481066Y1147093D01*
X480492Y1146175D01*
X479803Y1145027D01*
X479115Y1143764D01*
X478426Y1142272D01*
X477737Y1140665D01*
X477622Y1140435D01*
X477507Y1139861D01*
X477278Y1138943D01*
X477048Y1137680D01*
X476704Y1136073D01*
X476474Y1134236D01*
X476360Y1132169D01*
X476245Y1129873D01*
Y1129759D01*
Y1129644D01*
Y1129299D01*
Y1128840D01*
X476360Y1127692D01*
X476474Y1126200D01*
X476589Y1124478D01*
X476819Y1122756D01*
X477163Y1120919D01*
X477622Y1119082D01*
X477737Y1118853D01*
X477852Y1118279D01*
X478196Y1117475D01*
X478656Y1116442D01*
X479115Y1115179D01*
X479803Y1113916D01*
X480607Y1112653D01*
X481411Y1111391D01*
X481526Y1111276D01*
X481870Y1110931D01*
X482329Y1110357D01*
X483018Y1109669D01*
X483822Y1108865D01*
X484740Y1108176D01*
X485773Y1107373D01*
X486921Y1106799D01*
X487036Y1106684D01*
X487495Y1106569D01*
X488069Y1106339D01*
X488873Y1106110D01*
X489906Y1105765D01*
X490939Y1105536D01*
X492087Y1105421D01*
X493350Y1105306D01*
X494842D01*
X496335Y1105421D01*
X497827Y1105536D01*
X497942D01*
X498171Y1105651D01*
X498975Y1105765D01*
X499894Y1105995D01*
X500697Y1106339D01*
Y1125741D01*
X490135D01*
Y1136073D01*
X513440D01*
Y1097615D01*
X513325Y1097500D01*
X512981Y1097385D01*
X512292Y1097041D01*
X511488Y1096696D01*
X510340Y1096352D01*
X508963Y1095893D01*
X507470Y1095548D01*
X505634Y1095089D01*
X505404D01*
X504715Y1094859D01*
X503682Y1094745D01*
X502304Y1094515D01*
X500697Y1094285D01*
X498745Y1094171D01*
X496564Y1093941D01*
X493005D01*
X492432Y1094056D01*
X491628D01*
X489906Y1094285D01*
X487954Y1094515D01*
X485658Y1094974D01*
X483477Y1095548D01*
X481181Y1096352D01*
X481066D01*
X480952Y1096467D01*
X480607Y1096581D01*
X480263Y1096811D01*
X479115Y1097385D01*
X477737Y1098189D01*
X476130Y1099222D01*
X474523Y1100485D01*
X472801Y1101977D01*
X471193Y1103584D01*
X470964Y1103814D01*
X470505Y1104388D01*
X469816Y1105421D01*
X468897Y1106799D01*
X467864Y1108406D01*
X466831Y1110357D01*
X465798Y1112539D01*
X464880Y1114949D01*
Y1115064D01*
X464765Y1115294D01*
X464650Y1115638D01*
X464535Y1116097D01*
X464420Y1116786D01*
X464191Y1117475D01*
X463846Y1119312D01*
X463387Y1121493D01*
X463043Y1124019D01*
X462813Y1126889D01*
X462698Y1129873D01*
Y1129988D01*
Y1130218D01*
Y1130677D01*
Y1131251D01*
X462813Y1131940D01*
Y1132858D01*
X463043Y1134810D01*
X463272Y1137106D01*
X463617Y1139517D01*
X464191Y1142157D01*
X464994Y1144683D01*
Y1144797D01*
X465109Y1145027D01*
X465224Y1145371D01*
X465454Y1145831D01*
X466027Y1147093D01*
X466716Y1148586D01*
X467635Y1150423D01*
X468783Y1152259D01*
X470160Y1154211D01*
X471653Y1156048D01*
X471882Y1156277D01*
X472456Y1156851D01*
X473375Y1157655D01*
X474637Y1158688D01*
X476130Y1159836D01*
X477852Y1161099D01*
X479803Y1162247D01*
X481985Y1163280D01*
X482099D01*
X482214Y1163395D01*
X482559Y1163510D01*
X483018Y1163625D01*
X484281Y1164084D01*
X486003Y1164543D01*
X487954Y1165002D01*
X490250Y1165461D01*
X492776Y1165691D01*
X495416Y1165806D01*
X497368D01*
X498745Y1165691D01*
D02*
G37*
G36*
X577613Y1095089D02*
X566477D01*
X541566Y1136302D01*
X541451Y1136417D01*
X541336Y1136761D01*
X540992Y1137335D01*
X540533Y1138024D01*
X539729Y1139631D01*
X538811Y1141353D01*
Y1141468D01*
X538696Y1141698D01*
X538466Y1142157D01*
X538237Y1142616D01*
X537778Y1143649D01*
X537548Y1144109D01*
X537433Y1144453D01*
X537203D01*
Y1144338D01*
Y1144223D01*
Y1143879D01*
X537318Y1143535D01*
Y1142387D01*
Y1140894D01*
Y1140779D01*
Y1140550D01*
Y1139976D01*
X537433Y1139402D01*
Y1138598D01*
Y1137680D01*
Y1136532D01*
Y1135384D01*
Y1095089D01*
X525953D01*
Y1164543D01*
X537548D01*
X561885Y1124478D01*
X562000Y1124363D01*
X562115Y1124019D01*
X562345Y1123559D01*
X562689Y1122985D01*
X563493Y1121378D01*
X564296Y1119771D01*
Y1119656D01*
X564526Y1119427D01*
X564641Y1118967D01*
X564985Y1118508D01*
X565559Y1117360D01*
X566018Y1116212D01*
X566133D01*
Y1116442D01*
Y1117016D01*
Y1117475D01*
Y1118049D01*
X566018Y1118853D01*
Y1119656D01*
Y1119771D01*
Y1120115D01*
Y1120689D01*
Y1121378D01*
Y1122182D01*
Y1123215D01*
Y1124363D01*
Y1125626D01*
Y1164543D01*
X577613D01*
Y1095089D01*
D02*
G37*
G36*
X611938Y1165691D02*
X613201Y1165576D01*
X614579Y1165347D01*
X616186Y1165002D01*
X617793Y1164658D01*
X619630Y1164199D01*
X621467Y1163625D01*
X623303Y1162821D01*
X625255Y1161903D01*
X627092Y1160869D01*
X628814Y1159607D01*
X630536Y1158229D01*
X632143Y1156622D01*
X632258Y1156507D01*
X632487Y1156163D01*
X632947Y1155703D01*
X633406Y1154900D01*
X633980Y1153981D01*
X634669Y1152833D01*
X635472Y1151456D01*
X636276Y1149849D01*
X636965Y1148012D01*
X637768Y1146060D01*
X638457Y1143879D01*
X639031Y1141468D01*
X639490Y1138828D01*
X639949Y1136073D01*
X640179Y1133088D01*
X640294Y1129873D01*
Y1129644D01*
Y1129070D01*
Y1128151D01*
X640179Y1127003D01*
X640064Y1125511D01*
X639835Y1123789D01*
X639605Y1121952D01*
X639261Y1119886D01*
X638802Y1117705D01*
X638342Y1115523D01*
X637654Y1113342D01*
X636850Y1111046D01*
X635932Y1108865D01*
X634784Y1106799D01*
X633635Y1104847D01*
X632143Y1103010D01*
X632028Y1102895D01*
X631799Y1102666D01*
X631340Y1102207D01*
X630651Y1101633D01*
X629847Y1100944D01*
X628814Y1100140D01*
X627666Y1099337D01*
X626288Y1098533D01*
X624796Y1097615D01*
X623074Y1096811D01*
X621237Y1096007D01*
X619171Y1095319D01*
X616990Y1094745D01*
X614693Y1094285D01*
X612168Y1094056D01*
X609528Y1093941D01*
X608494D01*
X607461Y1094056D01*
X605969D01*
X604247Y1094171D01*
X602410Y1094400D01*
X598621Y1094974D01*
X598392D01*
X597818Y1095204D01*
X596899Y1095433D01*
X595751Y1095663D01*
X594374Y1096122D01*
X593111Y1096581D01*
X591734Y1097041D01*
X590471Y1097615D01*
Y1162017D01*
X590586Y1162132D01*
X591045Y1162247D01*
X591734Y1162591D01*
X592767Y1162936D01*
X593915Y1163395D01*
X595292Y1163854D01*
X596899Y1164199D01*
X598736Y1164658D01*
X598966D01*
X599655Y1164887D01*
X600688Y1165002D01*
X601951Y1165232D01*
X603558Y1165461D01*
X605395Y1165576D01*
X607461Y1165806D01*
X610905D01*
X611938Y1165691D01*
D02*
G37*
G36*
X3835797Y772480D02*
X3836880Y772381D01*
X3837175D01*
X3837765Y772283D01*
X3838552D01*
X3839438Y772185D01*
X3837372Y762837D01*
X3837273D01*
X3836978Y762935D01*
X3836584Y763034D01*
X3835896Y763230D01*
X3835207Y763329D01*
X3834321Y763427D01*
X3833436Y763525D01*
X3831369D01*
X3830385Y763427D01*
X3829303Y763230D01*
X3829106D01*
X3828417Y763034D01*
X3827630Y762837D01*
X3826744Y762542D01*
Y727216D01*
X3815625D01*
Y769331D01*
X3815822Y769429D01*
X3816216Y769528D01*
X3817003Y769823D01*
X3817888Y770118D01*
X3819069Y770512D01*
X3820447Y770905D01*
X3821923Y771201D01*
X3823596Y771594D01*
X3823792D01*
X3824383Y771791D01*
X3825367Y771889D01*
X3826646Y772086D01*
X3828122Y772283D01*
X3829795Y772381D01*
X3831763Y772578D01*
X3834715D01*
X3835797Y772480D01*
D02*
G37*
G36*
X3739562Y787732D02*
X3740448Y787634D01*
X3741530Y787535D01*
X3742711Y787437D01*
X3743990Y787141D01*
X3746745Y786551D01*
X3749599Y785665D01*
X3750976Y785075D01*
X3752256Y784386D01*
X3753535Y783501D01*
X3754716Y782615D01*
X3754814Y782517D01*
X3755011Y782418D01*
X3755306Y782123D01*
X3755601Y781631D01*
X3756093Y781139D01*
X3756585Y780549D01*
X3757077Y779761D01*
X3757668Y778876D01*
X3758258Y777990D01*
X3758750Y776908D01*
X3759734Y774546D01*
X3760029Y773169D01*
X3760324Y771791D01*
X3760521Y770217D01*
X3760620Y768642D01*
Y768446D01*
Y767953D01*
X3760521Y767166D01*
X3760423Y766182D01*
X3760226Y765001D01*
X3760029Y763821D01*
X3759636Y762443D01*
X3759144Y761164D01*
X3759045Y760967D01*
X3758848Y760573D01*
X3758553Y759983D01*
X3758061Y759097D01*
X3757372Y758212D01*
X3756684Y757228D01*
X3755798Y756145D01*
X3754716Y755162D01*
X3754617Y755063D01*
X3754224Y754768D01*
X3753535Y754276D01*
X3752748Y753784D01*
X3751665Y753193D01*
X3750386Y752505D01*
X3749008Y751914D01*
X3747434Y751324D01*
X3747237Y751226D01*
X3746647Y751127D01*
X3745761Y750930D01*
X3744580Y750635D01*
X3743104Y750340D01*
X3741333Y750143D01*
X3739365Y750045D01*
X3737299Y749946D01*
X3735429D01*
X3734248Y750045D01*
X3734052D01*
X3733363Y750143D01*
X3732576Y750241D01*
X3731788Y750340D01*
Y727216D01*
X3720472D01*
Y784583D01*
X3720669Y784682D01*
X3721063Y784878D01*
X3721752Y785075D01*
X3722736Y785469D01*
X3723916Y785764D01*
X3725196Y786158D01*
X3726672Y786551D01*
X3728246Y786945D01*
X3728443D01*
X3729033Y787043D01*
X3729919Y787240D01*
X3731100Y787437D01*
X3732477Y787535D01*
X3734052Y787732D01*
X3735823Y787830D01*
X3738775D01*
X3739562Y787732D01*
D02*
G37*
G36*
X3928096Y727216D02*
X3916682D01*
Y774153D01*
X3916584D01*
X3916485Y774054D01*
X3916190Y773857D01*
X3915796Y773661D01*
X3914714Y773169D01*
X3913336Y772578D01*
X3913238D01*
X3913041Y772480D01*
X3912648Y772283D01*
X3912057Y772086D01*
X3911467Y771889D01*
X3910778Y771693D01*
X3909204Y771201D01*
X3909105D01*
X3908810Y771102D01*
X3908416Y771004D01*
X3907924Y770807D01*
X3907236Y770709D01*
X3906547Y770512D01*
X3904874Y770118D01*
X3904776D01*
X3904480Y770020D01*
X3904087Y769922D01*
X3903496Y769823D01*
X3902119Y769528D01*
X3900544Y769233D01*
X3898872Y777793D01*
X3898970D01*
X3899364Y777892D01*
X3899954Y777990D01*
X3900741Y778187D01*
X3901627Y778285D01*
X3902611Y778581D01*
X3904776Y779073D01*
X3904874D01*
X3905268Y779269D01*
X3905858Y779368D01*
X3906645Y779663D01*
X3907531Y779958D01*
X3908515Y780254D01*
X3910483Y781041D01*
X3910581Y781139D01*
X3910975Y781237D01*
X3911467Y781533D01*
X3912057Y781828D01*
X3912844Y782221D01*
X3913730Y782615D01*
X3915403Y783697D01*
X3915501Y783796D01*
X3915796Y783993D01*
X3916190Y784288D01*
X3916682Y784682D01*
X3917961Y785567D01*
X3919142Y786748D01*
X3928096D01*
Y727216D01*
D02*
G37*
G36*
X3860397Y771594D02*
X3868663D01*
Y763132D01*
X3860397D01*
Y741287D01*
Y741189D01*
Y740795D01*
X3860496Y740402D01*
X3860594Y739811D01*
X3860791Y739122D01*
X3860988Y738532D01*
X3861381Y737942D01*
X3861873Y737449D01*
X3861972D01*
X3862168Y737253D01*
X3862464Y737154D01*
X3862857Y736957D01*
X3863448Y736761D01*
X3864038Y736564D01*
X3864727Y736466D01*
X3865514Y736367D01*
X3866104D01*
X3866596Y736466D01*
X3867285Y736564D01*
X3867482D01*
X3867777Y736662D01*
X3868269Y736859D01*
X3868663Y737056D01*
Y727708D01*
X3868466Y727610D01*
X3867974Y727413D01*
X3867088Y727216D01*
X3865809Y726921D01*
X3865514D01*
X3865120Y726822D01*
X3864628D01*
X3863448Y726724D01*
X3861972Y726625D01*
X3861381D01*
X3860889Y726724D01*
X3859807Y726822D01*
X3858331Y727019D01*
X3856756Y727511D01*
X3855182Y728101D01*
X3853706Y728889D01*
X3852427Y730069D01*
X3852328Y730266D01*
X3851935Y730758D01*
X3851443Y731545D01*
X3850951Y732628D01*
X3850360Y734104D01*
X3849868Y735973D01*
X3849475Y738040D01*
X3849376Y740500D01*
Y763132D01*
X3843669D01*
Y771594D01*
X3849376D01*
Y781434D01*
X3860397Y784682D01*
Y771594D01*
D02*
G37*
G36*
X3788762Y772480D02*
X3789844Y772381D01*
X3791222Y772185D01*
X3792600Y771791D01*
X3794076Y771398D01*
X3795552Y770807D01*
X3795748Y770709D01*
X3796142Y770512D01*
X3796831Y770118D01*
X3797716Y769528D01*
X3798700Y768839D01*
X3799783Y767953D01*
X3800865Y766970D01*
X3801849Y765887D01*
X3801948Y765789D01*
X3802243Y765395D01*
X3802735Y764706D01*
X3803325Y763821D01*
X3803916Y762738D01*
X3804506Y761558D01*
X3805195Y760180D01*
X3805687Y758606D01*
X3805785Y758409D01*
X3805884Y757917D01*
X3806080Y757031D01*
X3806376Y755850D01*
X3806671Y754473D01*
X3806868Y752898D01*
X3806966Y751226D01*
X3807064Y749356D01*
Y749258D01*
Y749159D01*
Y748864D01*
Y748569D01*
X3806966Y747585D01*
X3806868Y746404D01*
X3806769Y744928D01*
X3806474Y743354D01*
X3806179Y741779D01*
X3805687Y740106D01*
X3805588Y739909D01*
X3805490Y739418D01*
X3805195Y738630D01*
X3804703Y737646D01*
X3804211Y736466D01*
X3803522Y735186D01*
X3802735Y733907D01*
X3801849Y732726D01*
X3801751Y732628D01*
X3801357Y732234D01*
X3800865Y731644D01*
X3800078Y730955D01*
X3799192Y730168D01*
X3798110Y729381D01*
X3796929Y728593D01*
X3795552Y727905D01*
X3795355Y727806D01*
X3794863Y727610D01*
X3794076Y727413D01*
X3793092Y727117D01*
X3791812Y726724D01*
X3790336Y726527D01*
X3788762Y726330D01*
X3786991Y726232D01*
X3786204D01*
X3785220Y726330D01*
X3784137Y726429D01*
X3782760Y726625D01*
X3781284Y726921D01*
X3779808Y727314D01*
X3778332Y727905D01*
X3778135Y728003D01*
X3777741Y728200D01*
X3777052Y728593D01*
X3776167Y729184D01*
X3775183Y729873D01*
X3774100Y730660D01*
X3773018Y731644D01*
X3772034Y732726D01*
X3771936Y732825D01*
X3771640Y733317D01*
X3771148Y733907D01*
X3770558Y734793D01*
X3769968Y735875D01*
X3769377Y737154D01*
X3768688Y738532D01*
X3768196Y740106D01*
Y740205D01*
X3768098Y740303D01*
X3768000Y740894D01*
X3767803Y741779D01*
X3767606Y742861D01*
X3767311Y744239D01*
X3767114Y745813D01*
X3767016Y747585D01*
X3766917Y749356D01*
Y749454D01*
Y749553D01*
Y749848D01*
Y750241D01*
X3767016Y751127D01*
X3767114Y752406D01*
X3767212Y753784D01*
X3767508Y755358D01*
X3767803Y757031D01*
X3768196Y758606D01*
Y758704D01*
X3768295Y758802D01*
X3768393Y759294D01*
X3768787Y760082D01*
X3769180Y761066D01*
X3769672Y762246D01*
X3770361Y763427D01*
X3771148Y764706D01*
X3772034Y765887D01*
X3772132Y765986D01*
X3772526Y766379D01*
X3773018Y766970D01*
X3773805Y767658D01*
X3774691Y768446D01*
X3775773Y769331D01*
X3776954Y770118D01*
X3778332Y770807D01*
X3778528Y770905D01*
X3779020Y771102D01*
X3779808Y771398D01*
X3780890Y771693D01*
X3782169Y771988D01*
X3783645Y772283D01*
X3785220Y772480D01*
X3786991Y772578D01*
X3787778D01*
X3788762Y772480D01*
D02*
G37*
G36*
X3749796Y707733D02*
X3736708Y695925D01*
X3794863D01*
Y687167D01*
X3736708D01*
X3749796Y675359D01*
X3743203Y668766D01*
X3720374Y691595D01*
X3743203Y714326D01*
X3749796Y707733D01*
D02*
G37*
G36*
X2989341Y772480D02*
X2990423Y772381D01*
X2990718D01*
X2991309Y772283D01*
X2992096D01*
X2992981Y772184D01*
X2990915Y762837D01*
X2990817D01*
X2990521Y762935D01*
X2990128Y763033D01*
X2989439Y763230D01*
X2988750Y763328D01*
X2987865Y763427D01*
X2986979Y763525D01*
X2984913D01*
X2983929Y763427D01*
X2982846Y763230D01*
X2982649D01*
X2981961Y763033D01*
X2981173Y762837D01*
X2980288Y762541D01*
Y727216D01*
X2969169D01*
Y769331D01*
X2969365Y769429D01*
X2969759Y769528D01*
X2970546Y769823D01*
X2971432Y770118D01*
X2972613Y770512D01*
X2973990Y770905D01*
X2975466Y771201D01*
X2977139Y771594D01*
X2977336D01*
X2977926Y771791D01*
X2978910Y771889D01*
X2980189Y772086D01*
X2981665Y772283D01*
X2983338Y772381D01*
X2985306Y772578D01*
X2988258D01*
X2989341Y772480D01*
D02*
G37*
G36*
X2893105Y787732D02*
X2893991Y787633D01*
X2895073Y787535D01*
X2896254Y787437D01*
X2897533Y787141D01*
X2900289Y786551D01*
X2903142Y785665D01*
X2904520Y785075D01*
X2905799Y784386D01*
X2907078Y783500D01*
X2908259Y782615D01*
X2908357Y782516D01*
X2908554Y782418D01*
X2908849Y782123D01*
X2909145Y781631D01*
X2909637Y781139D01*
X2910129Y780548D01*
X2910621Y779761D01*
X2911211Y778876D01*
X2911801Y777990D01*
X2912293Y776908D01*
X2913277Y774546D01*
X2913573Y773168D01*
X2913868Y771791D01*
X2914065Y770216D01*
X2914163Y768642D01*
Y768445D01*
Y767953D01*
X2914065Y767166D01*
X2913966Y766182D01*
X2913769Y765001D01*
X2913573Y763821D01*
X2913179Y762443D01*
X2912687Y761164D01*
X2912589Y760967D01*
X2912392Y760573D01*
X2912097Y759983D01*
X2911605Y759097D01*
X2910916Y758212D01*
X2910227Y757228D01*
X2909341Y756145D01*
X2908259Y755161D01*
X2908161Y755063D01*
X2907767Y754768D01*
X2907078Y754276D01*
X2906291Y753784D01*
X2905209Y753193D01*
X2903929Y752505D01*
X2902552Y751914D01*
X2900977Y751324D01*
X2900781Y751225D01*
X2900190Y751127D01*
X2899305Y750930D01*
X2898124Y750635D01*
X2896648Y750340D01*
X2894877Y750143D01*
X2892909Y750044D01*
X2890842Y749946D01*
X2888973D01*
X2887792Y750044D01*
X2887595D01*
X2886906Y750143D01*
X2886119Y750241D01*
X2885332Y750340D01*
Y727216D01*
X2874016D01*
Y784583D01*
X2874213Y784681D01*
X2874606Y784878D01*
X2875295Y785075D01*
X2876279Y785468D01*
X2877460Y785764D01*
X2878739Y786157D01*
X2880215Y786551D01*
X2881789Y786944D01*
X2881986D01*
X2882577Y787043D01*
X2883462Y787240D01*
X2884643Y787437D01*
X2886021Y787535D01*
X2887595Y787732D01*
X2889366Y787830D01*
X2892318D01*
X2893105Y787732D01*
D02*
G37*
G36*
X3068159D02*
X3069143D01*
X3070127Y787535D01*
X3071308Y787437D01*
X3072587Y787240D01*
X3075244Y786649D01*
X3077999Y785764D01*
X3079278Y785272D01*
X3080557Y784583D01*
X3081837Y783894D01*
X3082919Y783009D01*
X3083017Y782910D01*
X3083214Y782812D01*
X3083411Y782516D01*
X3083805Y782123D01*
X3084198Y781631D01*
X3084690Y781040D01*
X3085281Y780352D01*
X3085773Y779564D01*
X3086855Y777695D01*
X3087741Y775432D01*
X3088134Y774153D01*
X3088429Y772775D01*
X3088528Y771397D01*
X3088626Y769823D01*
Y769725D01*
Y769429D01*
Y768937D01*
X3088528Y768347D01*
X3088429Y767658D01*
X3088331Y766871D01*
X3087937Y765198D01*
Y765100D01*
X3087839Y764804D01*
X3087741Y764411D01*
X3087544Y763821D01*
X3086953Y762541D01*
X3086265Y760967D01*
Y760869D01*
X3086068Y760672D01*
X3085871Y760278D01*
X3085576Y759786D01*
X3084789Y758605D01*
X3083805Y757228D01*
X3083706Y757129D01*
X3083608Y756933D01*
X3083313Y756637D01*
X3083017Y756145D01*
X3082132Y755161D01*
X3081148Y753981D01*
X3065601Y736465D01*
X3089807D01*
Y727216D01*
X3046609D01*
X3072095Y758999D01*
X3072193Y759097D01*
X3072390Y759393D01*
X3072784Y759885D01*
X3073177Y760475D01*
X3073669Y761262D01*
X3074260Y762049D01*
X3075342Y763821D01*
X3075441Y763919D01*
X3075539Y764312D01*
X3075834Y764804D01*
X3076129Y765493D01*
X3076326Y766280D01*
X3076621Y767166D01*
X3076720Y768150D01*
X3076818Y769232D01*
Y769429D01*
Y769921D01*
X3076621Y770708D01*
X3076425Y771594D01*
X3076129Y772677D01*
X3075539Y773759D01*
X3074850Y774841D01*
X3073866Y775825D01*
X3073768Y775924D01*
X3073276Y776219D01*
X3072685Y776612D01*
X3071701Y777105D01*
X3070521Y777596D01*
X3069045Y777990D01*
X3067372Y778285D01*
X3065404Y778384D01*
X3064223D01*
X3063436Y778285D01*
X3062550Y778187D01*
X3061468Y778088D01*
X3059008Y777695D01*
X3058909D01*
X3058417Y777596D01*
X3057827Y777400D01*
X3056941Y777203D01*
X3056056Y776908D01*
X3054973Y776612D01*
X3052809Y775825D01*
X3049561Y784583D01*
X3049758Y784681D01*
X3050250Y784878D01*
X3050939Y785173D01*
X3052021Y785468D01*
X3053202Y785862D01*
X3054580Y786256D01*
X3056056Y786649D01*
X3057630Y786944D01*
X3057827D01*
X3058417Y787043D01*
X3059205Y787240D01*
X3060385Y787437D01*
X3061665Y787535D01*
X3063141Y787732D01*
X3064715Y787830D01*
X3067470D01*
X3068159Y787732D01*
D02*
G37*
G36*
X3013941Y771594D02*
X3022206D01*
Y763132D01*
X3013941D01*
Y741287D01*
Y741188D01*
Y740795D01*
X3014039Y740401D01*
X3014137Y739811D01*
X3014334Y739122D01*
X3014531Y738532D01*
X3014925Y737941D01*
X3015417Y737449D01*
X3015515D01*
X3015712Y737253D01*
X3016007Y737154D01*
X3016401Y736957D01*
X3016991Y736760D01*
X3017581Y736564D01*
X3018270Y736465D01*
X3019057Y736367D01*
X3019648D01*
X3020140Y736465D01*
X3020829Y736564D01*
X3021025D01*
X3021321Y736662D01*
X3021813Y736859D01*
X3022206Y737056D01*
Y727708D01*
X3022009Y727609D01*
X3021517Y727413D01*
X3020632Y727216D01*
X3019353Y726920D01*
X3019057D01*
X3018664Y726822D01*
X3018172D01*
X3016991Y726724D01*
X3015515Y726625D01*
X3014925D01*
X3014433Y726724D01*
X3013350Y726822D01*
X3011874Y727019D01*
X3010300Y727511D01*
X3008725Y728101D01*
X3007249Y728889D01*
X3005970Y730069D01*
X3005872Y730266D01*
X3005478Y730758D01*
X3004986Y731545D01*
X3004494Y732628D01*
X3003904Y734104D01*
X3003412Y735973D01*
X3003018Y738040D01*
X3002920Y740500D01*
Y763132D01*
X2997213D01*
Y771594D01*
X3002920D01*
Y781434D01*
X3013941Y784681D01*
Y771594D01*
D02*
G37*
G36*
X2942305Y772480D02*
X2943388Y772381D01*
X2944765Y772184D01*
X2946143Y771791D01*
X2947619Y771397D01*
X2949095Y770807D01*
X2949292Y770708D01*
X2949685Y770512D01*
X2950374Y770118D01*
X2951260Y769528D01*
X2952244Y768839D01*
X2953326Y767953D01*
X2954409Y766969D01*
X2955393Y765887D01*
X2955491Y765788D01*
X2955786Y765395D01*
X2956278Y764706D01*
X2956869Y763821D01*
X2957459Y762738D01*
X2958049Y761557D01*
X2958738Y760180D01*
X2959230Y758605D01*
X2959329Y758409D01*
X2959427Y757917D01*
X2959624Y757031D01*
X2959919Y755850D01*
X2960214Y754472D01*
X2960411Y752898D01*
X2960509Y751225D01*
X2960608Y749356D01*
Y749257D01*
Y749159D01*
Y748864D01*
Y748568D01*
X2960509Y747585D01*
X2960411Y746404D01*
X2960313Y744928D01*
X2960017Y743353D01*
X2959722Y741779D01*
X2959230Y740106D01*
X2959132Y739909D01*
X2959033Y739417D01*
X2958738Y738630D01*
X2958246Y737646D01*
X2957754Y736465D01*
X2957065Y735186D01*
X2956278Y733907D01*
X2955393Y732726D01*
X2955294Y732628D01*
X2954901Y732234D01*
X2954409Y731644D01*
X2953621Y730955D01*
X2952736Y730168D01*
X2951653Y729380D01*
X2950473Y728593D01*
X2949095Y727904D01*
X2948898Y727806D01*
X2948406Y727609D01*
X2947619Y727413D01*
X2946635Y727117D01*
X2945356Y726724D01*
X2943880Y726527D01*
X2942305Y726330D01*
X2940534Y726232D01*
X2939747D01*
X2938763Y726330D01*
X2937681Y726428D01*
X2936303Y726625D01*
X2934827Y726920D01*
X2933351Y727314D01*
X2931875Y727904D01*
X2931678Y728003D01*
X2931285Y728200D01*
X2930596Y728593D01*
X2929710Y729184D01*
X2928726Y729872D01*
X2927644Y730660D01*
X2926561Y731644D01*
X2925577Y732726D01*
X2925479Y732824D01*
X2925184Y733317D01*
X2924692Y733907D01*
X2924101Y734793D01*
X2923511Y735875D01*
X2922921Y737154D01*
X2922232Y738532D01*
X2921740Y740106D01*
Y740205D01*
X2921641Y740303D01*
X2921543Y740893D01*
X2921346Y741779D01*
X2921149Y742861D01*
X2920854Y744239D01*
X2920657Y745813D01*
X2920559Y747585D01*
X2920461Y749356D01*
Y749454D01*
Y749553D01*
Y749848D01*
Y750241D01*
X2920559Y751127D01*
X2920657Y752406D01*
X2920756Y753784D01*
X2921051Y755358D01*
X2921346Y757031D01*
X2921740Y758605D01*
Y758704D01*
X2921838Y758802D01*
X2921937Y759294D01*
X2922330Y760081D01*
X2922724Y761065D01*
X2923216Y762246D01*
X2923905Y763427D01*
X2924692Y764706D01*
X2925577Y765887D01*
X2925676Y765985D01*
X2926069Y766379D01*
X2926561Y766969D01*
X2927349Y767658D01*
X2928234Y768445D01*
X2929317Y769331D01*
X2930497Y770118D01*
X2931875Y770807D01*
X2932072Y770905D01*
X2932564Y771102D01*
X2933351Y771397D01*
X2934433Y771692D01*
X2935713Y771988D01*
X2937189Y772283D01*
X2938763Y772480D01*
X2940534Y772578D01*
X2941321D01*
X2942305Y772480D01*
D02*
G37*
G36*
X2903339Y707732D02*
X2890252Y695924D01*
X2948406D01*
Y687167D01*
X2890252D01*
X2903339Y675359D01*
X2896746Y668766D01*
X2873917Y691595D01*
X2896746Y714325D01*
X2903339Y707732D01*
D02*
G37*
G36*
X1296427Y772480D02*
X1297510Y772381D01*
X1297805D01*
X1298395Y772283D01*
X1299182D01*
X1300068Y772184D01*
X1298002Y762837D01*
X1297903D01*
X1297608Y762935D01*
X1297214Y763033D01*
X1296526Y763230D01*
X1295837Y763328D01*
X1294951Y763427D01*
X1294066Y763525D01*
X1291999D01*
X1291015Y763427D01*
X1289933Y763230D01*
X1289736D01*
X1289047Y763033D01*
X1288260Y762837D01*
X1287374Y762541D01*
Y727216D01*
X1276255D01*
Y769331D01*
X1276452Y769429D01*
X1276846Y769528D01*
X1277633Y769823D01*
X1278518Y770118D01*
X1279699Y770512D01*
X1281077Y770905D01*
X1282553Y771201D01*
X1284226Y771594D01*
X1284422D01*
X1285013Y771791D01*
X1285997Y771889D01*
X1287276Y772086D01*
X1288752Y772283D01*
X1290425Y772381D01*
X1292393Y772578D01*
X1295345D01*
X1296427Y772480D01*
D02*
G37*
G36*
X1200192Y787732D02*
X1201078Y787633D01*
X1202160Y787535D01*
X1203341Y787437D01*
X1204620Y787141D01*
X1207375Y786551D01*
X1210229Y785665D01*
X1211606Y785075D01*
X1212886Y784386D01*
X1214165Y783500D01*
X1215346Y782615D01*
X1215444Y782516D01*
X1215641Y782418D01*
X1215936Y782123D01*
X1216231Y781631D01*
X1216723Y781139D01*
X1217215Y780548D01*
X1217707Y779761D01*
X1218298Y778876D01*
X1218888Y777990D01*
X1219380Y776908D01*
X1220364Y774546D01*
X1220659Y773168D01*
X1220954Y771791D01*
X1221151Y770216D01*
X1221250Y768642D01*
Y768445D01*
Y767953D01*
X1221151Y767166D01*
X1221053Y766182D01*
X1220856Y765001D01*
X1220659Y763821D01*
X1220266Y762443D01*
X1219774Y761164D01*
X1219675Y760967D01*
X1219478Y760573D01*
X1219183Y759983D01*
X1218691Y759097D01*
X1218002Y758212D01*
X1217314Y757228D01*
X1216428Y756145D01*
X1215346Y755161D01*
X1215247Y755063D01*
X1214854Y754768D01*
X1214165Y754276D01*
X1213378Y753784D01*
X1212295Y753193D01*
X1211016Y752505D01*
X1209638Y751914D01*
X1208064Y751324D01*
X1207867Y751225D01*
X1207277Y751127D01*
X1206391Y750930D01*
X1205210Y750635D01*
X1203734Y750340D01*
X1201963Y750143D01*
X1199995Y750044D01*
X1197929Y749946D01*
X1196059D01*
X1194878Y750044D01*
X1194682D01*
X1193993Y750143D01*
X1193206Y750241D01*
X1192418Y750340D01*
Y727216D01*
X1181102D01*
Y784583D01*
X1181299Y784681D01*
X1181693Y784878D01*
X1182382Y785075D01*
X1183366Y785468D01*
X1184546Y785764D01*
X1185826Y786157D01*
X1187302Y786551D01*
X1188876Y786944D01*
X1189073D01*
X1189663Y787043D01*
X1190549Y787240D01*
X1191730Y787437D01*
X1193107Y787535D01*
X1194682Y787732D01*
X1196453Y787830D01*
X1199405D01*
X1200192Y787732D01*
D02*
G37*
G36*
X1392859Y749946D02*
X1398763D01*
Y741877D01*
X1392859D01*
Y727216D01*
X1382429D01*
Y741877D01*
X1355762D01*
Y749946D01*
X1380559Y786748D01*
X1392859D01*
Y749946D01*
D02*
G37*
G36*
X1321027Y771594D02*
X1329293D01*
Y763132D01*
X1321027D01*
Y741287D01*
Y741188D01*
Y740795D01*
X1321126Y740401D01*
X1321224Y739811D01*
X1321421Y739122D01*
X1321618Y738532D01*
X1322011Y737941D01*
X1322503Y737449D01*
X1322602D01*
X1322798Y737253D01*
X1323094Y737154D01*
X1323487Y736957D01*
X1324078Y736760D01*
X1324668Y736564D01*
X1325357Y736465D01*
X1326144Y736367D01*
X1326734D01*
X1327226Y736465D01*
X1327915Y736564D01*
X1328112D01*
X1328407Y736662D01*
X1328899Y736859D01*
X1329293Y737056D01*
Y727708D01*
X1329096Y727609D01*
X1328604Y727413D01*
X1327718Y727216D01*
X1326439Y726920D01*
X1326144D01*
X1325750Y726822D01*
X1325258D01*
X1324078Y726724D01*
X1322602Y726625D01*
X1322011D01*
X1321519Y726724D01*
X1320437Y726822D01*
X1318961Y727019D01*
X1317386Y727511D01*
X1315812Y728101D01*
X1314336Y728889D01*
X1313057Y730069D01*
X1312958Y730266D01*
X1312565Y730758D01*
X1312073Y731545D01*
X1311581Y732628D01*
X1310990Y734104D01*
X1310498Y735973D01*
X1310105Y738040D01*
X1310006Y740500D01*
Y763132D01*
X1304299D01*
Y771594D01*
X1310006D01*
Y781434D01*
X1321027Y784681D01*
Y771594D01*
D02*
G37*
G36*
X1249392Y772480D02*
X1250474Y772381D01*
X1251852Y772184D01*
X1253230Y771791D01*
X1254706Y771397D01*
X1256182Y770807D01*
X1256378Y770708D01*
X1256772Y770512D01*
X1257461Y770118D01*
X1258346Y769528D01*
X1259330Y768839D01*
X1260413Y767953D01*
X1261495Y766969D01*
X1262479Y765887D01*
X1262578Y765788D01*
X1262873Y765395D01*
X1263365Y764706D01*
X1263955Y763821D01*
X1264546Y762738D01*
X1265136Y761557D01*
X1265825Y760180D01*
X1266317Y758605D01*
X1266415Y758409D01*
X1266514Y757917D01*
X1266710Y757031D01*
X1267006Y755850D01*
X1267301Y754472D01*
X1267498Y752898D01*
X1267596Y751225D01*
X1267694Y749356D01*
Y749257D01*
Y749159D01*
Y748864D01*
Y748568D01*
X1267596Y747585D01*
X1267498Y746404D01*
X1267399Y744928D01*
X1267104Y743353D01*
X1266809Y741779D01*
X1266317Y740106D01*
X1266218Y739909D01*
X1266120Y739417D01*
X1265825Y738630D01*
X1265333Y737646D01*
X1264841Y736465D01*
X1264152Y735186D01*
X1263365Y733907D01*
X1262479Y732726D01*
X1262381Y732628D01*
X1261987Y732234D01*
X1261495Y731644D01*
X1260708Y730955D01*
X1259822Y730168D01*
X1258740Y729380D01*
X1257559Y728593D01*
X1256182Y727904D01*
X1255985Y727806D01*
X1255493Y727609D01*
X1254706Y727413D01*
X1253722Y727117D01*
X1252442Y726724D01*
X1250966Y726527D01*
X1249392Y726330D01*
X1247621Y726232D01*
X1246834D01*
X1245850Y726330D01*
X1244767Y726428D01*
X1243390Y726625D01*
X1241914Y726920D01*
X1240438Y727314D01*
X1238962Y727904D01*
X1238765Y728003D01*
X1238371Y728200D01*
X1237682Y728593D01*
X1236797Y729184D01*
X1235813Y729872D01*
X1234730Y730660D01*
X1233648Y731644D01*
X1232664Y732726D01*
X1232566Y732824D01*
X1232270Y733317D01*
X1231778Y733907D01*
X1231188Y734793D01*
X1230598Y735875D01*
X1230007Y737154D01*
X1229318Y738532D01*
X1228826Y740106D01*
Y740205D01*
X1228728Y740303D01*
X1228630Y740893D01*
X1228433Y741779D01*
X1228236Y742861D01*
X1227941Y744239D01*
X1227744Y745813D01*
X1227646Y747585D01*
X1227547Y749356D01*
Y749454D01*
Y749553D01*
Y749848D01*
Y750241D01*
X1227646Y751127D01*
X1227744Y752406D01*
X1227842Y753784D01*
X1228138Y755358D01*
X1228433Y757031D01*
X1228826Y758605D01*
Y758704D01*
X1228925Y758802D01*
X1229023Y759294D01*
X1229417Y760081D01*
X1229810Y761065D01*
X1230302Y762246D01*
X1230991Y763427D01*
X1231778Y764706D01*
X1232664Y765887D01*
X1232762Y765985D01*
X1233156Y766379D01*
X1233648Y766969D01*
X1234435Y767658D01*
X1235321Y768445D01*
X1236403Y769331D01*
X1237584Y770118D01*
X1238962Y770807D01*
X1239158Y770905D01*
X1239650Y771102D01*
X1240438Y771397D01*
X1241520Y771692D01*
X1242799Y771988D01*
X1244275Y772283D01*
X1245850Y772480D01*
X1247621Y772578D01*
X1248408D01*
X1249392Y772480D01*
D02*
G37*
G36*
X1210426Y707732D02*
X1197338Y695924D01*
X1255493D01*
Y687167D01*
X1197338D01*
X1210426Y675359D01*
X1203833Y668766D01*
X1181004Y691595D01*
X1203833Y714325D01*
X1210426Y707732D01*
D02*
G37*
G36*
X4509694Y1637804D02*
X4467678D01*
X4467481D01*
X4466989D01*
X4466300Y1637706D01*
X4465414Y1637509D01*
X4464431Y1637214D01*
X4463447Y1636722D01*
X4462364Y1636131D01*
X4461479Y1635344D01*
X4461380Y1635245D01*
X4461085Y1634852D01*
X4460790Y1634360D01*
X4460396Y1633573D01*
X4459904Y1632687D01*
X4459609Y1631605D01*
X4459314Y1630424D01*
X4459215Y1629145D01*
Y1628554D01*
X4459314Y1627866D01*
X4459511Y1626980D01*
X4459806Y1625996D01*
X4460199Y1624914D01*
X4460691Y1623929D01*
X4461479Y1622946D01*
X4461577Y1622847D01*
X4461872Y1622552D01*
X4462364Y1622158D01*
X4463151Y1621666D01*
X4464037Y1621174D01*
X4465021Y1620781D01*
X4466300Y1620486D01*
X4467678Y1620387D01*
X4509694D01*
Y1608776D01*
X4467776D01*
X4467579D01*
X4466989D01*
X4466202Y1608874D01*
X4465119Y1608973D01*
X4463840Y1609169D01*
X4462462Y1609465D01*
X4461183Y1609858D01*
X4459806Y1610350D01*
X4459707Y1610449D01*
X4459215Y1610646D01*
X4458625Y1611039D01*
X4457838Y1611433D01*
X4456952Y1612121D01*
X4455968Y1612810D01*
X4454984Y1613696D01*
X4454099Y1614680D01*
X4454000Y1614778D01*
X4453705Y1615172D01*
X4453311Y1615762D01*
X4452819Y1616451D01*
X4452229Y1617435D01*
X4451639Y1618517D01*
X4451048Y1619698D01*
X4450556Y1621076D01*
Y1621273D01*
X4450359Y1621666D01*
X4450163Y1622454D01*
X4449966Y1623438D01*
X4449769Y1624618D01*
X4449572Y1625996D01*
X4449474Y1627570D01*
X4449375Y1629145D01*
Y1629833D01*
X4449474Y1630719D01*
X4449572Y1631802D01*
X4449671Y1632982D01*
X4449867Y1634360D01*
X4450163Y1635836D01*
X4450556Y1637214D01*
X4450654Y1637410D01*
X4450753Y1637804D01*
X4451048Y1638493D01*
X4451442Y1639378D01*
X4451934Y1640362D01*
X4452524Y1641445D01*
X4453311Y1642527D01*
X4454099Y1643610D01*
X4454197Y1643708D01*
X4454492Y1644101D01*
X4454984Y1644593D01*
X4455673Y1645184D01*
X4456559Y1645873D01*
X4457542Y1646562D01*
X4458625Y1647250D01*
X4459806Y1647939D01*
X4460002Y1648037D01*
X4460396Y1648136D01*
X4461183Y1648431D01*
X4462069Y1648628D01*
X4463250Y1648923D01*
X4464627Y1649218D01*
X4466103Y1649317D01*
X4467776Y1649415D01*
X4509694D01*
Y1637804D01*
D02*
G37*
G36*
X4492376Y1598050D02*
X4492475Y1597657D01*
X4492770Y1597165D01*
X4493065Y1596378D01*
X4493360Y1595393D01*
X4493754Y1594213D01*
X4494147Y1592934D01*
X4494541Y1591359D01*
Y1591162D01*
X4494738Y1590572D01*
X4494836Y1589686D01*
X4495033Y1588604D01*
X4495230Y1587128D01*
X4495328Y1585553D01*
X4495525Y1583881D01*
Y1580929D01*
X4495426Y1580240D01*
X4495328Y1579354D01*
X4495230Y1578272D01*
X4495033Y1577091D01*
X4494738Y1575910D01*
X4494049Y1573254D01*
X4493557Y1571876D01*
X4492967Y1570498D01*
X4492278Y1569121D01*
X4491392Y1567841D01*
X4490507Y1566562D01*
X4489424Y1565480D01*
X4489326Y1565381D01*
X4489129Y1565185D01*
X4488834Y1564988D01*
X4488342Y1564594D01*
X4487653Y1564201D01*
X4486964Y1563709D01*
X4486078Y1563118D01*
X4485095Y1562626D01*
X4483914Y1562134D01*
X4482635Y1561544D01*
X4481257Y1561052D01*
X4479781Y1560658D01*
X4478108Y1560265D01*
X4476337Y1559969D01*
X4474467Y1559871D01*
X4472499Y1559773D01*
X4472401D01*
X4472302D01*
X4472007D01*
X4471614D01*
X4470630Y1559871D01*
X4469449Y1559969D01*
X4467973Y1560068D01*
X4466399Y1560363D01*
X4464726Y1560658D01*
X4463151Y1561150D01*
X4462954Y1561249D01*
X4462462Y1561347D01*
X4461675Y1561741D01*
X4460691Y1562134D01*
X4459511Y1562626D01*
X4458330Y1563315D01*
X4457051Y1564102D01*
X4455870Y1565086D01*
X4455771Y1565185D01*
X4455378Y1565578D01*
X4454886Y1566169D01*
X4454197Y1566858D01*
X4453410Y1567841D01*
X4452721Y1568924D01*
X4451934Y1570203D01*
X4451245Y1571581D01*
X4451146Y1571777D01*
X4451048Y1572270D01*
X4450753Y1573057D01*
X4450458Y1574139D01*
X4450163Y1575418D01*
X4449966Y1576993D01*
X4449769Y1578666D01*
X4449671Y1580535D01*
Y1581716D01*
X4449769Y1582897D01*
X4449966Y1584176D01*
Y1584471D01*
X4450064Y1584766D01*
X4450163Y1585160D01*
X4450359Y1586144D01*
X4450654Y1587030D01*
X4432549D01*
Y1598149D01*
X4492278D01*
X4492376Y1598050D01*
D02*
G37*
G36*
X4460888Y1550228D02*
X4460790Y1550130D01*
X4460691Y1549834D01*
X4460494Y1549342D01*
X4460199Y1548752D01*
X4459904Y1547965D01*
X4459511Y1547079D01*
X4458822Y1545111D01*
Y1545013D01*
X4458723Y1544619D01*
X4458625Y1544029D01*
X4458428Y1543340D01*
X4458330Y1542553D01*
X4458133Y1541667D01*
X4458034Y1539797D01*
Y1539305D01*
X4458133Y1538715D01*
X4458231Y1538026D01*
X4458625Y1536452D01*
X4458920Y1535665D01*
X4459314Y1534976D01*
X4459412Y1534878D01*
X4459609Y1534681D01*
X4459904Y1534386D01*
X4460298Y1533992D01*
X4460790Y1533697D01*
X4461380Y1533401D01*
X4462069Y1533205D01*
X4462856Y1533106D01*
X4462954D01*
X4463250D01*
X4463742Y1533205D01*
X4464234Y1533303D01*
X4464824Y1533598D01*
X4465513Y1533893D01*
X4466103Y1534386D01*
X4466595Y1535074D01*
X4466694Y1535173D01*
X4466792Y1535468D01*
X4467087Y1535861D01*
X4467382Y1536452D01*
X4467776Y1537141D01*
X4468170Y1537928D01*
X4468563Y1538912D01*
X4468957Y1539994D01*
Y1540093D01*
X4469055Y1540388D01*
X4469252Y1540782D01*
X4469449Y1541372D01*
X4469744Y1542061D01*
X4470039Y1542749D01*
X4470728Y1544422D01*
Y1544521D01*
X4470925Y1544816D01*
X4471122Y1545209D01*
X4471417Y1545701D01*
X4472204Y1547079D01*
X4473188Y1548457D01*
X4473287Y1548555D01*
X4473483Y1548752D01*
X4473779Y1549146D01*
X4474172Y1549539D01*
X4474762Y1550031D01*
X4475353Y1550523D01*
X4476829Y1551507D01*
X4476927D01*
X4477222Y1551704D01*
X4477715Y1551901D01*
X4478403Y1552098D01*
X4479190Y1552294D01*
X4480175Y1552491D01*
X4481257Y1552590D01*
X4482438Y1552688D01*
X4482536D01*
X4482733D01*
X4483028D01*
X4483422Y1552590D01*
X4484504Y1552491D01*
X4485882Y1552196D01*
X4487358Y1551605D01*
X4488932Y1550917D01*
X4490507Y1549834D01*
X4491195Y1549244D01*
X4491884Y1548457D01*
Y1548358D01*
X4492081Y1548260D01*
X4492475Y1547669D01*
X4493065Y1546686D01*
X4493754Y1545308D01*
X4494344Y1543635D01*
X4494935Y1541569D01*
X4495328Y1539109D01*
X4495525Y1536353D01*
Y1534976D01*
X4495426Y1533992D01*
X4495328Y1532909D01*
X4495230Y1531729D01*
X4494738Y1529072D01*
Y1528875D01*
X4494639Y1528482D01*
X4494443Y1527793D01*
X4494147Y1526907D01*
X4493754Y1525923D01*
X4493360Y1524841D01*
X4492278Y1522676D01*
X4484602Y1526120D01*
X4484701Y1526218D01*
X4484799Y1526415D01*
X4484996Y1526907D01*
X4485291Y1527399D01*
X4485587Y1527989D01*
X4485882Y1528777D01*
X4486472Y1530351D01*
Y1530449D01*
X4486570Y1530745D01*
X4486669Y1531237D01*
X4486866Y1531729D01*
X4486964Y1532516D01*
X4487062Y1533205D01*
X4487161Y1534976D01*
Y1535468D01*
X4487062Y1535960D01*
X4486964Y1536649D01*
X4486570Y1538125D01*
X4486275Y1538912D01*
X4485783Y1539601D01*
X4485685Y1539699D01*
X4485587Y1539797D01*
X4485291Y1540093D01*
X4484898Y1540388D01*
X4483914Y1540880D01*
X4483225Y1541077D01*
X4482536Y1541175D01*
X4482438D01*
X4482339D01*
X4481749Y1541077D01*
X4480962Y1540880D01*
X4480175Y1540585D01*
X4480076Y1540486D01*
X4479682Y1540191D01*
X4479092Y1539699D01*
X4478600Y1539010D01*
X4478502Y1538813D01*
X4478207Y1538322D01*
X4477813Y1537633D01*
X4477321Y1536845D01*
Y1536747D01*
X4477222Y1536649D01*
X4477026Y1536058D01*
X4476730Y1535271D01*
X4476435Y1534287D01*
Y1534189D01*
X4476239Y1533893D01*
X4476140Y1533500D01*
X4475845Y1532909D01*
X4475550Y1532221D01*
X4475255Y1531532D01*
X4474566Y1529859D01*
Y1529761D01*
X4474369Y1529466D01*
X4474172Y1529072D01*
X4473975Y1528482D01*
X4473188Y1527202D01*
X4472106Y1525726D01*
X4472007Y1525628D01*
X4471810Y1525431D01*
X4471515Y1525037D01*
X4471122Y1524644D01*
X4470531Y1524152D01*
X4469941Y1523660D01*
X4468367Y1522676D01*
X4468268Y1522578D01*
X4467973Y1522479D01*
X4467481Y1522282D01*
X4466891Y1522085D01*
X4466103Y1521889D01*
X4465119Y1521692D01*
X4464037Y1521495D01*
X4462856D01*
X4462758D01*
X4462561D01*
X4462266D01*
X4461872Y1521593D01*
X4460691Y1521692D01*
X4459314Y1522085D01*
X4457739Y1522578D01*
X4456066Y1523365D01*
X4454394Y1524545D01*
X4453606Y1525234D01*
X4452918Y1526022D01*
Y1526120D01*
X4452721Y1526218D01*
X4452623Y1526514D01*
X4452327Y1526907D01*
X4452032Y1527301D01*
X4451737Y1527891D01*
X4451442Y1528580D01*
X4451048Y1529367D01*
X4450654Y1530253D01*
X4450359Y1531335D01*
X4450064Y1532418D01*
X4449769Y1533598D01*
X4449572Y1534976D01*
X4449375Y1536353D01*
X4449178Y1537830D01*
Y1540978D01*
X4449277Y1541962D01*
X4449375Y1543045D01*
X4449474Y1544324D01*
X4449966Y1547079D01*
Y1547276D01*
X4450163Y1547669D01*
X4450261Y1548358D01*
X4450556Y1549244D01*
X4450851Y1550326D01*
X4451343Y1551409D01*
X4452327Y1553869D01*
X4460888Y1550228D01*
D02*
G37*
G36*
X4582117Y1530597D02*
X4540100D01*
X4539903D01*
X4539411D01*
X4538722Y1530499D01*
X4537837Y1530302D01*
X4536853Y1530007D01*
X4535869Y1529515D01*
X4534787Y1528924D01*
X4533901Y1528137D01*
X4533802Y1528039D01*
X4533507Y1527645D01*
X4533212Y1527153D01*
X4532819Y1526366D01*
X4532327Y1525480D01*
X4532031Y1524398D01*
X4531736Y1523217D01*
X4531638Y1521938D01*
Y1521348D01*
X4531736Y1520659D01*
X4531933Y1519773D01*
X4532228Y1518789D01*
X4532622Y1517707D01*
X4533114Y1516723D01*
X4533901Y1515739D01*
X4533999Y1515640D01*
X4534294Y1515345D01*
X4534787Y1514951D01*
X4535574Y1514459D01*
X4536459Y1513967D01*
X4537443Y1513574D01*
X4538722Y1513279D01*
X4540100Y1513180D01*
X4582117D01*
Y1501569D01*
X4540199D01*
X4540002D01*
X4539411D01*
X4538624Y1501668D01*
X4537542Y1501766D01*
X4536262Y1501963D01*
X4534885Y1502258D01*
X4533606Y1502651D01*
X4532228Y1503143D01*
X4532130Y1503242D01*
X4531638Y1503439D01*
X4531047Y1503832D01*
X4530260Y1504226D01*
X4529374Y1504915D01*
X4528391Y1505603D01*
X4527407Y1506489D01*
X4526521Y1507473D01*
X4526422Y1507572D01*
X4526127Y1507965D01*
X4525734Y1508555D01*
X4525242Y1509244D01*
X4524651Y1510228D01*
X4524061Y1511311D01*
X4523471Y1512492D01*
X4522979Y1513869D01*
Y1514066D01*
X4522782Y1514459D01*
X4522585Y1515247D01*
X4522388Y1516231D01*
X4522191Y1517411D01*
X4521994Y1518789D01*
X4521896Y1520363D01*
X4521798Y1521938D01*
Y1522627D01*
X4521896Y1523512D01*
X4521994Y1524595D01*
X4522093Y1525775D01*
X4522290Y1527153D01*
X4522585Y1528629D01*
X4522979Y1530007D01*
X4523077Y1530204D01*
X4523175Y1530597D01*
X4523471Y1531286D01*
X4523864Y1532171D01*
X4524356Y1533156D01*
X4524947Y1534238D01*
X4525734Y1535320D01*
X4526521Y1536403D01*
X4526619Y1536501D01*
X4526914Y1536895D01*
X4527407Y1537387D01*
X4528095Y1537977D01*
X4528981Y1538666D01*
X4529965Y1539355D01*
X4531047Y1540043D01*
X4532228Y1540732D01*
X4532425Y1540831D01*
X4532819Y1540929D01*
X4533606Y1541224D01*
X4534491Y1541421D01*
X4535672Y1541716D01*
X4537050Y1542012D01*
X4538526Y1542110D01*
X4540199Y1542208D01*
X4582117D01*
Y1530597D01*
D02*
G37*
G36*
X4494541Y1510277D02*
X4504381D01*
X4507628Y1499257D01*
X4494541D01*
Y1490991D01*
X4486078D01*
Y1499257D01*
X4464234D01*
X4464135D01*
X4463742D01*
X4463348Y1499158D01*
X4462758Y1499060D01*
X4462069Y1498863D01*
X4461479Y1498666D01*
X4460888Y1498273D01*
X4460396Y1497781D01*
Y1497682D01*
X4460199Y1497486D01*
X4460101Y1497190D01*
X4459904Y1496797D01*
X4459707Y1496206D01*
X4459511Y1495616D01*
X4459412Y1494927D01*
X4459314Y1494140D01*
Y1493550D01*
X4459412Y1493057D01*
X4459511Y1492369D01*
Y1492172D01*
X4459609Y1491877D01*
X4459806Y1491385D01*
X4460002Y1490991D01*
X4450654D01*
X4450556Y1491188D01*
X4450359Y1491680D01*
X4450163Y1492565D01*
X4449867Y1493845D01*
Y1494140D01*
X4449769Y1494534D01*
Y1495025D01*
X4449671Y1496206D01*
X4449572Y1497682D01*
Y1498273D01*
X4449671Y1498765D01*
X4449769Y1499847D01*
X4449966Y1501323D01*
X4450458Y1502898D01*
X4451048Y1504472D01*
X4451835Y1505948D01*
X4453016Y1507227D01*
X4453213Y1507325D01*
X4453705Y1507719D01*
X4454492Y1508211D01*
X4455574Y1508703D01*
X4457051Y1509293D01*
X4458920Y1509785D01*
X4460986Y1510179D01*
X4463447Y1510277D01*
X4486078D01*
Y1515985D01*
X4494541D01*
Y1510277D01*
D02*
G37*
G36*
X4492376Y1482726D02*
X4492475Y1482332D01*
X4492770Y1481545D01*
X4493065Y1480659D01*
X4493458Y1479478D01*
X4493852Y1478101D01*
X4494147Y1476625D01*
X4494541Y1474952D01*
Y1474755D01*
X4494738Y1474165D01*
X4494836Y1473181D01*
X4495033Y1471901D01*
X4495230Y1470426D01*
X4495328Y1468753D01*
X4495525Y1466785D01*
Y1463833D01*
X4495426Y1462750D01*
X4495328Y1461668D01*
Y1461373D01*
X4495230Y1460782D01*
Y1459995D01*
X4495131Y1459110D01*
X4485783Y1461176D01*
Y1461274D01*
X4485882Y1461570D01*
X4485980Y1461963D01*
X4486177Y1462652D01*
X4486275Y1463341D01*
X4486374Y1464226D01*
X4486472Y1465112D01*
Y1467178D01*
X4486374Y1468162D01*
X4486177Y1469245D01*
Y1469441D01*
X4485980Y1470130D01*
X4485783Y1470918D01*
X4485488Y1471803D01*
X4450163D01*
Y1482922D01*
X4492278D01*
X4492376Y1482726D01*
D02*
G37*
G36*
X4534787Y1489171D02*
Y1489072D01*
X4534590Y1488777D01*
X4534393Y1488285D01*
X4534098Y1487596D01*
X4533802Y1486809D01*
X4533507Y1485924D01*
X4532819Y1483956D01*
Y1483857D01*
X4532720Y1483464D01*
X4532622Y1482873D01*
X4532425Y1482184D01*
X4532327Y1481299D01*
X4532130Y1480315D01*
X4532031Y1478248D01*
Y1477560D01*
X4532130Y1476772D01*
X4532327Y1475788D01*
X4532523Y1474804D01*
X4532819Y1473722D01*
X4533310Y1472639D01*
X4533999Y1471656D01*
X4534098Y1471557D01*
X4534393Y1471262D01*
X4534787Y1470868D01*
X4535377Y1470376D01*
X4536164Y1469983D01*
X4537050Y1469589D01*
X4538034Y1469294D01*
X4539215Y1469196D01*
X4539313D01*
X4539608D01*
X4540100Y1469294D01*
X4540690Y1469392D01*
X4541379Y1469589D01*
X4542068Y1469983D01*
X4542757Y1470376D01*
X4543446Y1470967D01*
X4543544Y1471065D01*
X4543741Y1471262D01*
X4544036Y1471656D01*
X4544528Y1472148D01*
X4545020Y1472738D01*
X4545512Y1473427D01*
X4546102Y1474312D01*
X4546595Y1475198D01*
X4546693Y1475296D01*
X4546890Y1475690D01*
X4547185Y1476182D01*
X4547480Y1476871D01*
X4547972Y1477658D01*
X4548464Y1478642D01*
X4549448Y1480807D01*
X4549547Y1480905D01*
X4549743Y1481299D01*
X4550038Y1481889D01*
X4550432Y1482578D01*
X4550924Y1483464D01*
X4551613Y1484349D01*
X4552990Y1486317D01*
X4553089Y1486416D01*
X4553384Y1486711D01*
X4553778Y1487203D01*
X4554368Y1487793D01*
X4555155Y1488482D01*
X4555943Y1489171D01*
X4556926Y1489958D01*
X4558009Y1490647D01*
X4558107Y1490745D01*
X4558599Y1490942D01*
X4559190Y1491139D01*
X4560075Y1491434D01*
X4561158Y1491828D01*
X4562437Y1492024D01*
X4563913Y1492221D01*
X4565487Y1492320D01*
X4565684D01*
X4566176D01*
X4566963Y1492221D01*
X4567947Y1492123D01*
X4569030Y1492024D01*
X4570309Y1491729D01*
X4571490Y1491434D01*
X4572769Y1490942D01*
X4572867Y1490843D01*
X4573359Y1490647D01*
X4573950Y1490351D01*
X4574639Y1489958D01*
X4575524Y1489368D01*
X4576508Y1488777D01*
X4577394Y1487990D01*
X4578279Y1487104D01*
X4578378Y1487006D01*
X4578673Y1486612D01*
X4579066Y1486120D01*
X4579657Y1485333D01*
X4580247Y1484447D01*
X4580838Y1483464D01*
X4581428Y1482283D01*
X4581920Y1481004D01*
X4582019Y1480807D01*
X4582117Y1480315D01*
X4582314Y1479626D01*
X4582609Y1478642D01*
X4582806Y1477461D01*
X4583002Y1476083D01*
X4583101Y1474509D01*
X4583199Y1472935D01*
Y1471459D01*
X4583101Y1470475D01*
X4583002Y1469294D01*
X4582806Y1468015D01*
X4582314Y1465358D01*
Y1465161D01*
X4582215Y1464767D01*
X4582019Y1464079D01*
X4581723Y1463292D01*
X4581428Y1462307D01*
X4581034Y1461225D01*
X4579952Y1459060D01*
X4570604Y1462701D01*
X4570703Y1462800D01*
X4570801Y1463095D01*
X4570998Y1463488D01*
X4571293Y1464079D01*
X4571588Y1464669D01*
X4571883Y1465456D01*
X4572474Y1467227D01*
Y1467326D01*
X4572572Y1467621D01*
X4572671Y1468113D01*
X4572867Y1468802D01*
X4572966Y1469589D01*
X4573064Y1470475D01*
X4573163Y1472443D01*
Y1473033D01*
X4573064Y1473820D01*
X4572966Y1474608D01*
X4572671Y1475591D01*
X4572375Y1476674D01*
X4571883Y1477658D01*
X4571194Y1478543D01*
X4571096Y1478642D01*
X4570899Y1478839D01*
X4570407Y1479232D01*
X4569915Y1479626D01*
X4569128Y1480020D01*
X4568341Y1480413D01*
X4567258Y1480610D01*
X4566176Y1480708D01*
X4566078D01*
X4565783D01*
X4565291Y1480610D01*
X4564700Y1480512D01*
X4564011Y1480315D01*
X4563323Y1480020D01*
X4562634Y1479626D01*
X4561945Y1479035D01*
X4561846Y1478937D01*
X4561650Y1478740D01*
X4561355Y1478347D01*
X4560961Y1477855D01*
X4560469Y1477166D01*
X4559878Y1476477D01*
X4558796Y1474706D01*
X4558698Y1474608D01*
X4558501Y1474214D01*
X4558206Y1473722D01*
X4557910Y1473033D01*
X4557418Y1472148D01*
X4556926Y1471164D01*
X4555844Y1468999D01*
X4555746Y1468900D01*
X4555549Y1468507D01*
X4555254Y1467916D01*
X4554860Y1467129D01*
X4554270Y1466244D01*
X4553679Y1465358D01*
X4552203Y1463390D01*
X4552105Y1463292D01*
X4551810Y1462898D01*
X4551416Y1462504D01*
X4550826Y1461815D01*
X4550038Y1461127D01*
X4549251Y1460438D01*
X4548267Y1459749D01*
X4547185Y1459060D01*
X4547087Y1458962D01*
X4546693Y1458765D01*
X4546004Y1458470D01*
X4545118Y1458175D01*
X4544135Y1457880D01*
X4542855Y1457584D01*
X4541379Y1457388D01*
X4539805Y1457289D01*
X4539608D01*
X4539116D01*
X4538329Y1457388D01*
X4537345Y1457486D01*
X4536164Y1457584D01*
X4534885Y1457880D01*
X4533606Y1458175D01*
X4532327Y1458667D01*
X4532228Y1458765D01*
X4531736Y1458962D01*
X4531146Y1459257D01*
X4530359Y1459651D01*
X4529473Y1460241D01*
X4528587Y1460930D01*
X4527603Y1461717D01*
X4526619Y1462701D01*
X4526521Y1462800D01*
X4526226Y1463193D01*
X4525734Y1463685D01*
X4525242Y1464472D01*
X4524651Y1465358D01*
X4523962Y1466440D01*
X4523372Y1467719D01*
X4522880Y1469097D01*
X4522782Y1469294D01*
X4522683Y1469786D01*
X4522486Y1470573D01*
X4522290Y1471557D01*
X4521994Y1472836D01*
X4521798Y1474312D01*
X4521699Y1475887D01*
X4521601Y1477658D01*
Y1479134D01*
X4521699Y1480216D01*
X4521798Y1481397D01*
X4521896Y1482775D01*
X4522388Y1485727D01*
Y1485924D01*
X4522486Y1486416D01*
X4522683Y1487104D01*
X4522979Y1488088D01*
X4523274Y1489171D01*
X4523667Y1490450D01*
X4524750Y1493008D01*
X4534787Y1489171D01*
D02*
G37*
G36*
X4474172Y1453599D02*
X4475353Y1453501D01*
X4476829Y1453402D01*
X4478403Y1453107D01*
X4480076Y1452812D01*
X4481650Y1452320D01*
X4481749D01*
X4481847Y1452222D01*
X4482339Y1452025D01*
X4483225Y1451729D01*
X4484209Y1451336D01*
X4485390Y1450745D01*
X4486570Y1450057D01*
X4487850Y1449171D01*
X4489030Y1448285D01*
X4489129Y1448187D01*
X4489523Y1447793D01*
X4490113Y1447203D01*
X4490802Y1446514D01*
X4491490Y1445530D01*
X4492278Y1444448D01*
X4493065Y1443169D01*
X4493754Y1441791D01*
X4493852Y1441594D01*
X4494049Y1441102D01*
X4494344Y1440315D01*
X4494639Y1439233D01*
X4494935Y1437954D01*
X4495230Y1436477D01*
X4495426Y1434903D01*
X4495525Y1433132D01*
Y1432345D01*
X4495426Y1431459D01*
X4495328Y1430377D01*
X4495131Y1429098D01*
X4494935Y1427720D01*
X4494541Y1426342D01*
X4494049Y1424965D01*
X4493950Y1424768D01*
X4493754Y1424374D01*
X4493458Y1423686D01*
X4492967Y1422898D01*
X4492376Y1421914D01*
X4491687Y1420930D01*
X4490900Y1419946D01*
X4489916Y1419061D01*
X4489818Y1418962D01*
X4489424Y1418667D01*
X4488834Y1418175D01*
X4488145Y1417683D01*
X4487161Y1417093D01*
X4486078Y1416404D01*
X4484898Y1415813D01*
X4483520Y1415322D01*
X4483323Y1415223D01*
X4482930Y1415125D01*
X4482142Y1414928D01*
X4481158Y1414633D01*
X4479978Y1414436D01*
X4478502Y1414239D01*
X4477026Y1414141D01*
X4475353Y1414042D01*
X4473385D01*
X4473188D01*
X4472794D01*
X4472204Y1414141D01*
X4471515Y1414239D01*
X4467678Y1442775D01*
X4467579D01*
X4467481D01*
X4466891Y1442578D01*
X4466005Y1442381D01*
X4464922Y1441988D01*
X4463742Y1441398D01*
X4462462Y1440709D01*
X4461282Y1439823D01*
X4460298Y1438741D01*
X4460199Y1438544D01*
X4459904Y1438150D01*
X4459511Y1437461D01*
X4459117Y1436477D01*
X4458723Y1435297D01*
X4458330Y1433919D01*
X4458034Y1432246D01*
X4457936Y1430475D01*
Y1429196D01*
X4458034Y1428409D01*
X4458133Y1427425D01*
X4458231Y1426244D01*
X4458723Y1423882D01*
Y1423686D01*
X4458822Y1423292D01*
X4459019Y1422701D01*
X4459314Y1421914D01*
X4459511Y1421029D01*
X4459904Y1420045D01*
X4460691Y1418175D01*
X4452327Y1414928D01*
X4452229Y1415026D01*
X4452131Y1415420D01*
X4451835Y1416010D01*
X4451540Y1416896D01*
X4451146Y1417978D01*
X4450753Y1419159D01*
X4450458Y1420537D01*
X4450064Y1422111D01*
Y1422308D01*
X4449966Y1422898D01*
X4449769Y1423784D01*
X4449671Y1424866D01*
X4449474Y1426244D01*
X4449277Y1427818D01*
X4449178Y1429590D01*
Y1432246D01*
X4449277Y1433329D01*
X4449375Y1434608D01*
X4449572Y1436182D01*
X4449867Y1437757D01*
X4450261Y1439429D01*
X4450851Y1441004D01*
X4450950Y1441201D01*
X4451146Y1441693D01*
X4451540Y1442480D01*
X4452032Y1443464D01*
X4452721Y1444546D01*
X4453508Y1445727D01*
X4454492Y1446908D01*
X4455574Y1447990D01*
X4455673Y1448089D01*
X4456165Y1448482D01*
X4456755Y1448974D01*
X4457641Y1449565D01*
X4458723Y1450254D01*
X4460002Y1451041D01*
X4461380Y1451729D01*
X4462954Y1452320D01*
X4463053D01*
X4463151Y1452418D01*
X4463742Y1452517D01*
X4464627Y1452714D01*
X4465710Y1453009D01*
X4467186Y1453304D01*
X4468760Y1453501D01*
X4470433Y1453599D01*
X4472302Y1453697D01*
X4472401D01*
X4472499D01*
X4472794D01*
X4473188D01*
X4474172Y1453599D01*
D02*
G37*
G36*
X4580051Y1448040D02*
X4580149Y1447646D01*
X4580444Y1446957D01*
X4580739Y1445973D01*
X4581133Y1444792D01*
X4581526Y1443415D01*
X4581822Y1441939D01*
X4582215Y1440266D01*
Y1440069D01*
X4582412Y1439479D01*
X4582511Y1438495D01*
X4582707Y1437216D01*
X4582904Y1435739D01*
X4583002Y1434067D01*
X4583199Y1432295D01*
Y1429343D01*
X4583101Y1428261D01*
X4583002Y1426982D01*
X4582904Y1425408D01*
X4582707Y1423735D01*
X4582314Y1422062D01*
X4581920Y1420487D01*
Y1420389D01*
X4581822Y1420291D01*
X4581723Y1419799D01*
X4581428Y1419012D01*
X4581034Y1418027D01*
X4580542Y1416945D01*
X4579952Y1415764D01*
X4579263Y1414682D01*
X4578476Y1413600D01*
X4578378Y1413501D01*
X4578083Y1413108D01*
X4577689Y1412616D01*
X4577099Y1412025D01*
X4576311Y1411336D01*
X4575426Y1410648D01*
X4574442Y1410057D01*
X4573359Y1409467D01*
X4573261Y1409368D01*
X4572867Y1409270D01*
X4572277Y1409073D01*
X4571490Y1408778D01*
X4570506Y1408483D01*
X4569423Y1408286D01*
X4568144Y1408188D01*
X4566865Y1408089D01*
X4566766D01*
X4566471D01*
X4565979D01*
X4565291Y1408188D01*
X4564602Y1408286D01*
X4563815Y1408384D01*
X4562142Y1408876D01*
X4562043D01*
X4561748Y1408975D01*
X4561355Y1409171D01*
X4560863Y1409467D01*
X4559583Y1410156D01*
X4558206Y1411041D01*
X4558107Y1411139D01*
X4557910Y1411238D01*
X4557615Y1411533D01*
X4557222Y1411927D01*
X4556238Y1412812D01*
X4555254Y1413993D01*
Y1414091D01*
X4555057Y1414288D01*
X4554860Y1414583D01*
X4554663Y1414977D01*
X4554171Y1416060D01*
X4553679Y1417437D01*
X4553483D01*
Y1417339D01*
X4553384Y1417142D01*
X4553286Y1416748D01*
X4553089Y1416256D01*
X4552498Y1415075D01*
X4551711Y1413698D01*
X4551613Y1413600D01*
X4551515Y1413403D01*
X4551219Y1413009D01*
X4550924Y1412517D01*
X4549940Y1411435D01*
X4548661Y1410254D01*
X4548562Y1410156D01*
X4548366Y1409959D01*
X4547972Y1409664D01*
X4547480Y1409270D01*
X4546890Y1408876D01*
X4546102Y1408384D01*
X4544430Y1407597D01*
X4544331Y1407499D01*
X4544036Y1407400D01*
X4543446Y1407204D01*
X4542757Y1407007D01*
X4541970Y1406810D01*
X4540986Y1406711D01*
X4539903Y1406515D01*
X4538722D01*
X4538624D01*
X4538329D01*
X4537935D01*
X4537443Y1406613D01*
X4536755Y1406711D01*
X4535967Y1406810D01*
X4534098Y1407302D01*
X4532130Y1407991D01*
X4531047Y1408483D01*
X4529965Y1409073D01*
X4528981Y1409762D01*
X4527997Y1410549D01*
X4527013Y1411435D01*
X4526127Y1412517D01*
Y1412616D01*
X4525931Y1412812D01*
X4525734Y1413108D01*
X4525439Y1413600D01*
X4525045Y1414288D01*
X4524651Y1414977D01*
X4524258Y1415863D01*
X4523864Y1416945D01*
X4523471Y1418126D01*
X4523077Y1419405D01*
X4522683Y1420881D01*
X4522290Y1422456D01*
X4521994Y1424128D01*
X4521798Y1425998D01*
X4521699Y1427966D01*
X4521601Y1430131D01*
Y1431016D01*
X4521699Y1432000D01*
Y1433280D01*
X4521798Y1434854D01*
X4521994Y1436527D01*
X4522191Y1438396D01*
X4522486Y1440266D01*
Y1440463D01*
X4522683Y1441053D01*
X4522880Y1441939D01*
X4523077Y1443120D01*
X4523471Y1444399D01*
X4523864Y1445678D01*
X4524258Y1447055D01*
X4524750Y1448236D01*
X4579952D01*
X4580051Y1448040D01*
D02*
G37*
G36*
X4465021Y1407449D02*
X4466103Y1407253D01*
X4467284Y1407056D01*
X4468465Y1406662D01*
X4469646Y1406072D01*
X4470827Y1405383D01*
X4470925Y1405285D01*
X4471319Y1404989D01*
X4471810Y1404497D01*
X4472499Y1403809D01*
X4473188Y1403022D01*
X4473877Y1402037D01*
X4474664Y1400857D01*
X4475255Y1399578D01*
X4475353Y1399381D01*
X4475550Y1398889D01*
X4475845Y1398200D01*
X4476140Y1397216D01*
X4476534Y1395937D01*
X4476927Y1394559D01*
X4477321Y1392985D01*
X4477616Y1391312D01*
Y1391115D01*
X4477715Y1390525D01*
X4477911Y1389541D01*
X4478010Y1388360D01*
X4478207Y1386884D01*
X4478403Y1385211D01*
X4478600Y1383440D01*
X4478699Y1381570D01*
X4480962D01*
X4481158D01*
X4481552D01*
X4482142Y1381669D01*
X4482930Y1381866D01*
X4483717Y1382161D01*
X4484504Y1382554D01*
X4485291Y1383046D01*
X4485882Y1383833D01*
X4485980Y1383932D01*
X4486078Y1384227D01*
X4486374Y1384719D01*
X4486669Y1385408D01*
X4486866Y1386293D01*
X4487161Y1387277D01*
X4487259Y1388458D01*
X4487358Y1389836D01*
Y1390820D01*
X4487259Y1391902D01*
X4487062Y1393181D01*
Y1393477D01*
X4486964Y1393772D01*
Y1394264D01*
X4486767Y1395248D01*
X4486472Y1396527D01*
Y1396626D01*
X4486374Y1396822D01*
Y1397118D01*
X4486177Y1397511D01*
X4485980Y1398495D01*
X4485587Y1399676D01*
Y1399774D01*
X4485488Y1399873D01*
X4485291Y1400562D01*
X4485095Y1401447D01*
X4484701Y1402333D01*
X4492278Y1405088D01*
X4492376Y1404989D01*
X4492475Y1404596D01*
X4492671Y1404005D01*
X4492967Y1403120D01*
X4493360Y1402136D01*
X4493655Y1400857D01*
X4494049Y1399479D01*
X4494443Y1397905D01*
Y1397806D01*
X4494541Y1397708D01*
X4494639Y1397118D01*
X4494836Y1396232D01*
X4495033Y1395051D01*
X4495230Y1393674D01*
X4495328Y1392099D01*
X4495525Y1390426D01*
Y1387868D01*
X4495426Y1387277D01*
Y1386589D01*
X4495328Y1385703D01*
X4495033Y1383833D01*
X4494639Y1381767D01*
X4493950Y1379602D01*
X4493065Y1377438D01*
X4491786Y1375568D01*
Y1375469D01*
X4491589Y1375371D01*
X4491097Y1374879D01*
X4490211Y1374092D01*
X4489621Y1373698D01*
X4488932Y1373206D01*
X4488145Y1372813D01*
X4487259Y1372419D01*
X4486275Y1372025D01*
X4485193Y1371632D01*
X4483914Y1371337D01*
X4482635Y1371140D01*
X4481257Y1370943D01*
X4479682D01*
X4452327D01*
X4452229Y1371042D01*
X4452131Y1371435D01*
X4451835Y1371927D01*
X4451540Y1372714D01*
X4451245Y1373797D01*
X4450851Y1374977D01*
X4450556Y1376355D01*
X4450163Y1378028D01*
Y1378225D01*
X4449966Y1378815D01*
X4449867Y1379701D01*
X4449671Y1380881D01*
X4449474Y1382358D01*
X4449375Y1383932D01*
X4449178Y1385703D01*
Y1388557D01*
X4449277Y1389245D01*
Y1390033D01*
X4449375Y1391017D01*
X4449474Y1392099D01*
X4449671Y1393181D01*
X4450064Y1395641D01*
X4450753Y1398200D01*
X4451639Y1400562D01*
X4452229Y1401644D01*
X4452918Y1402628D01*
Y1402726D01*
X4453114Y1402825D01*
X4453606Y1403415D01*
X4454492Y1404202D01*
X4455673Y1405088D01*
X4457149Y1405974D01*
X4458920Y1406761D01*
X4461085Y1407351D01*
X4462167Y1407449D01*
X4463447Y1407548D01*
X4463545D01*
X4463643D01*
X4464234D01*
X4465021Y1407449D01*
D02*
G37*
G36*
X4492376Y1360709D02*
X4492475Y1360316D01*
X4492770Y1359627D01*
X4493065Y1358643D01*
X4493458Y1357561D01*
X4493852Y1356183D01*
X4494147Y1354805D01*
X4494541Y1353231D01*
Y1353034D01*
X4494738Y1352444D01*
X4494836Y1351657D01*
X4495033Y1350476D01*
X4495230Y1349197D01*
X4495328Y1347622D01*
X4495525Y1346048D01*
Y1343391D01*
X4495426Y1342309D01*
X4495328Y1341128D01*
X4495131Y1339652D01*
X4494935Y1338176D01*
X4494541Y1336700D01*
X4494049Y1335322D01*
X4493950Y1335126D01*
X4493852Y1334732D01*
X4493557Y1334141D01*
X4493163Y1333354D01*
X4492179Y1331583D01*
X4491589Y1330796D01*
X4490998Y1330009D01*
X4491097Y1329910D01*
X4491294Y1329615D01*
X4491589Y1329123D01*
X4491983Y1328434D01*
X4492475Y1327549D01*
X4492967Y1326565D01*
X4493458Y1325384D01*
X4494049Y1324006D01*
X4494147Y1323810D01*
X4494246Y1323318D01*
X4494541Y1322530D01*
X4494836Y1321448D01*
X4495033Y1320070D01*
X4495328Y1318594D01*
X4495426Y1316921D01*
X4495525Y1315052D01*
Y1314363D01*
X4495426Y1313871D01*
Y1313182D01*
X4495328Y1312494D01*
X4495033Y1310821D01*
X4494541Y1308951D01*
X4493852Y1307082D01*
X4492868Y1305212D01*
X4491490Y1303539D01*
Y1303441D01*
X4491294Y1303342D01*
X4490802Y1302850D01*
X4489916Y1302161D01*
X4488735Y1301374D01*
X4487161Y1300686D01*
X4485390Y1299997D01*
X4483225Y1299505D01*
X4482044Y1299308D01*
X4480863D01*
X4450163D01*
Y1310624D01*
X4479682D01*
X4479781D01*
X4480175D01*
X4480765Y1310722D01*
X4481552Y1310821D01*
X4482339Y1311116D01*
X4483127Y1311411D01*
X4484012Y1311903D01*
X4484701Y1312592D01*
X4484799Y1312690D01*
X4484996Y1312887D01*
X4485291Y1313379D01*
X4485587Y1313969D01*
X4485882Y1314757D01*
X4486177Y1315642D01*
X4486374Y1316725D01*
X4486472Y1318004D01*
Y1318693D01*
X4486374Y1319381D01*
X4486177Y1320366D01*
X4485980Y1321350D01*
X4485587Y1322432D01*
X4484996Y1323514D01*
X4484307Y1324498D01*
X4450163D01*
Y1335814D01*
X4480175D01*
X4480273D01*
X4480667D01*
X4481158Y1335913D01*
X4481847Y1336110D01*
X4482635Y1336306D01*
X4483422Y1336700D01*
X4484110Y1337192D01*
X4484799Y1337881D01*
X4484898Y1337979D01*
X4485095Y1338274D01*
X4485291Y1338766D01*
X4485685Y1339357D01*
X4485980Y1340144D01*
X4486177Y1341128D01*
X4486374Y1342309D01*
X4486472Y1343588D01*
Y1344867D01*
X4486374Y1345753D01*
X4486275Y1346737D01*
X4486078Y1347721D01*
X4485783Y1348803D01*
X4485488Y1349787D01*
X4450163D01*
Y1360906D01*
X4492278D01*
X4492376Y1360709D01*
D02*
G37*
G36*
X617847Y1961157D02*
X618044Y1960763D01*
X618241Y1960074D01*
X618634Y1959090D01*
X618929Y1957909D01*
X619323Y1956630D01*
X619717Y1955154D01*
X620110Y1953580D01*
Y1953383D01*
X620209Y1952793D01*
X620405Y1951907D01*
X620602Y1950726D01*
X620701Y1949349D01*
X620898Y1947774D01*
X620996Y1946003D01*
Y1943051D01*
X620898Y1942264D01*
X620799Y1941378D01*
X620701Y1940296D01*
X620602Y1939115D01*
X620307Y1937836D01*
X619717Y1935081D01*
X618831Y1932227D01*
X618241Y1930849D01*
X617552Y1929570D01*
X616666Y1928291D01*
X615781Y1927110D01*
X615682Y1927012D01*
X615584Y1926815D01*
X615289Y1926520D01*
X614797Y1926225D01*
X614305Y1925733D01*
X613714Y1925241D01*
X612927Y1924749D01*
X612042Y1924158D01*
X611156Y1923568D01*
X610073Y1923076D01*
X607712Y1922092D01*
X606334Y1921797D01*
X604957Y1921501D01*
X603382Y1921305D01*
X601808Y1921206D01*
X601611D01*
X601119D01*
X600332Y1921305D01*
X599348Y1921403D01*
X598167Y1921600D01*
X596986Y1921797D01*
X595609Y1922190D01*
X594330Y1922682D01*
X594133Y1922781D01*
X593739Y1922977D01*
X593149Y1923273D01*
X592263Y1923765D01*
X591378Y1924453D01*
X590394Y1925142D01*
X589311Y1926028D01*
X588327Y1927110D01*
X588229Y1927209D01*
X587933Y1927602D01*
X587442Y1928291D01*
X586949Y1929078D01*
X586359Y1930161D01*
X585670Y1931440D01*
X585080Y1932817D01*
X584490Y1934392D01*
X584391Y1934589D01*
X584293Y1935179D01*
X584096Y1936065D01*
X583801Y1937245D01*
X583505Y1938721D01*
X583309Y1940493D01*
X583210Y1942461D01*
X583112Y1944527D01*
Y1946397D01*
X583210Y1947577D01*
Y1947774D01*
X583309Y1948463D01*
X583407Y1949250D01*
X583505Y1950037D01*
X560381D01*
Y1961353D01*
X617749D01*
X617847Y1961157D01*
D02*
G37*
G36*
X584293Y1914810D02*
X585572Y1914712D01*
X586949Y1914613D01*
X588524Y1914318D01*
X590197Y1914023D01*
X591771Y1913629D01*
X591870D01*
X591968Y1913531D01*
X592460Y1913433D01*
X593247Y1913039D01*
X594231Y1912645D01*
X595412Y1912153D01*
X596593Y1911465D01*
X597872Y1910677D01*
X599053Y1909792D01*
X599151Y1909693D01*
X599545Y1909300D01*
X600135Y1908808D01*
X600824Y1908021D01*
X601611Y1907135D01*
X602497Y1906053D01*
X603284Y1904872D01*
X603973Y1903494D01*
X604071Y1903297D01*
X604268Y1902805D01*
X604563Y1902018D01*
X604858Y1900936D01*
X605154Y1899657D01*
X605449Y1898181D01*
X605645Y1896606D01*
X605744Y1894835D01*
Y1894048D01*
X605645Y1893064D01*
X605547Y1891981D01*
X605350Y1890604D01*
X604957Y1889226D01*
X604563Y1887750D01*
X603973Y1886274D01*
X603874Y1886077D01*
X603678Y1885684D01*
X603284Y1884995D01*
X602693Y1884109D01*
X602005Y1883125D01*
X601119Y1882043D01*
X600135Y1880961D01*
X599053Y1879977D01*
X598954Y1879878D01*
X598561Y1879583D01*
X597872Y1879091D01*
X596986Y1878501D01*
X595904Y1877910D01*
X594723Y1877320D01*
X593346Y1876631D01*
X591771Y1876139D01*
X591574Y1876041D01*
X591082Y1875942D01*
X590197Y1875745D01*
X589016Y1875450D01*
X587638Y1875155D01*
X586064Y1874958D01*
X584391Y1874860D01*
X582521Y1874761D01*
X582423D01*
X582325D01*
X582029D01*
X581734D01*
X580750Y1874860D01*
X579569Y1874958D01*
X578093Y1875057D01*
X576519Y1875352D01*
X574945Y1875647D01*
X573272Y1876139D01*
X573075Y1876237D01*
X572583Y1876336D01*
X571796Y1876631D01*
X570812Y1877123D01*
X569631Y1877615D01*
X568352Y1878304D01*
X567073Y1879091D01*
X565892Y1879977D01*
X565793Y1880075D01*
X565400Y1880469D01*
X564809Y1880961D01*
X564121Y1881748D01*
X563333Y1882633D01*
X562546Y1883716D01*
X561759Y1884897D01*
X561070Y1886274D01*
X560972Y1886471D01*
X560775Y1886963D01*
X560578Y1887750D01*
X560283Y1888734D01*
X559889Y1890013D01*
X559693Y1891489D01*
X559496Y1893064D01*
X559398Y1894835D01*
Y1895622D01*
X559496Y1896606D01*
X559594Y1897689D01*
X559791Y1899066D01*
X560086Y1900542D01*
X560480Y1902018D01*
X561070Y1903494D01*
X561169Y1903691D01*
X561365Y1904085D01*
X561759Y1904773D01*
X562350Y1905659D01*
X563038Y1906643D01*
X563826Y1907725D01*
X564809Y1908808D01*
X565892Y1909792D01*
X565990Y1909890D01*
X566482Y1910185D01*
X567073Y1910677D01*
X567958Y1911268D01*
X569041Y1911858D01*
X570320Y1912449D01*
X571697Y1913137D01*
X573272Y1913629D01*
X573370D01*
X573469Y1913728D01*
X574059Y1913826D01*
X574945Y1914023D01*
X576027Y1914220D01*
X577405Y1914515D01*
X578979Y1914712D01*
X580750Y1914810D01*
X582521Y1914909D01*
X582620D01*
X582718D01*
X583014D01*
X583407D01*
X584293Y1914810D01*
D02*
G37*
G36*
X604760Y1858033D02*
X577503Y1851637D01*
X577405D01*
X577110Y1851539D01*
X576716Y1851441D01*
X576224Y1851342D01*
X575535Y1851244D01*
X574846Y1851047D01*
X573173Y1850850D01*
X573075D01*
X572780Y1850752D01*
X572386D01*
X571993Y1850653D01*
X571009Y1850555D01*
X570615D01*
X570320D01*
Y1850358D01*
X570418D01*
X570910Y1850260D01*
X571206Y1850161D01*
X571697Y1850063D01*
X572288Y1849965D01*
X572977Y1849866D01*
X573075D01*
X573370Y1849768D01*
X573764D01*
X574354Y1849669D01*
X574945Y1849473D01*
X575732Y1849276D01*
X577503Y1848882D01*
X604760Y1841699D01*
Y1831367D01*
X577503Y1824282D01*
X577405D01*
X577110Y1824184D01*
X576617Y1824085D01*
X576027Y1823889D01*
X574551Y1823593D01*
X572977Y1823298D01*
X572878D01*
X572682Y1823200D01*
X572288D01*
X571894Y1823101D01*
X571009Y1822905D01*
X570615Y1822806D01*
X570320Y1822708D01*
Y1822609D01*
X570418D01*
X570910Y1822511D01*
X571206D01*
X571697Y1822413D01*
X572288D01*
X572977Y1822314D01*
X573075D01*
X573370Y1822216D01*
X573764D01*
X574354Y1822117D01*
X574945Y1821921D01*
X575732Y1821822D01*
X577503Y1821429D01*
X604760Y1815131D01*
Y1803815D01*
X560381Y1816705D01*
Y1828317D01*
X585572Y1835205D01*
X585670D01*
X585966Y1835303D01*
X586457Y1835401D01*
X586949Y1835598D01*
X588327Y1835893D01*
X589803Y1836189D01*
X589902D01*
X590098D01*
X590394Y1836287D01*
X590787D01*
X591673Y1836385D01*
X591968D01*
X592263D01*
Y1836582D01*
X592066D01*
X591574Y1836681D01*
X590689Y1836877D01*
X589508Y1837074D01*
X589409D01*
X589213Y1837173D01*
X588819D01*
X588327Y1837271D01*
X587737Y1837369D01*
X587146Y1837566D01*
X585572Y1837960D01*
X560381Y1844749D01*
Y1856361D01*
X604760Y1869251D01*
Y1858033D01*
D02*
G37*
G36*
X584391Y1798305D02*
X585572Y1798206D01*
X587048Y1798108D01*
X588622Y1797813D01*
X590295Y1797517D01*
X591870Y1797025D01*
X591968D01*
X592066Y1796927D01*
X592558Y1796730D01*
X593444Y1796435D01*
X594428Y1796041D01*
X595609Y1795451D01*
X596789Y1794762D01*
X598069Y1793877D01*
X599250Y1792991D01*
X599348Y1792893D01*
X599741Y1792499D01*
X600332Y1791909D01*
X601021Y1791220D01*
X601710Y1790236D01*
X602497Y1789153D01*
X603284Y1787874D01*
X603973Y1786497D01*
X604071Y1786300D01*
X604268Y1785808D01*
X604563Y1785021D01*
X604858Y1783938D01*
X605154Y1782659D01*
X605449Y1781183D01*
X605645Y1779609D01*
X605744Y1777837D01*
Y1777050D01*
X605645Y1776165D01*
X605547Y1775082D01*
X605350Y1773803D01*
X605154Y1772425D01*
X604760Y1771048D01*
X604268Y1769670D01*
X604169Y1769473D01*
X603973Y1769080D01*
X603678Y1768391D01*
X603186Y1767604D01*
X602595Y1766620D01*
X601906Y1765636D01*
X601119Y1764652D01*
X600135Y1763766D01*
X600037Y1763668D01*
X599643Y1763373D01*
X599053Y1762881D01*
X598364Y1762389D01*
X597380Y1761798D01*
X596298Y1761109D01*
X595117Y1760519D01*
X593739Y1760027D01*
X593542Y1759929D01*
X593149Y1759830D01*
X592361Y1759633D01*
X591378Y1759338D01*
X590197Y1759141D01*
X588721Y1758945D01*
X587245Y1758846D01*
X585572Y1758748D01*
X583604D01*
X583407D01*
X583014D01*
X582423Y1758846D01*
X581734Y1758945D01*
X577897Y1787481D01*
X577798D01*
X577700D01*
X577110Y1787284D01*
X576224Y1787087D01*
X575141Y1786693D01*
X573961Y1786103D01*
X572682Y1785414D01*
X571501Y1784529D01*
X570517Y1783446D01*
X570418Y1783249D01*
X570123Y1782856D01*
X569730Y1782167D01*
X569336Y1781183D01*
X568942Y1780002D01*
X568549Y1778625D01*
X568254Y1776952D01*
X568155Y1775181D01*
Y1773901D01*
X568254Y1773114D01*
X568352Y1772130D01*
X568450Y1770949D01*
X568942Y1768588D01*
Y1768391D01*
X569041Y1767997D01*
X569237Y1767407D01*
X569533Y1766620D01*
X569730Y1765734D01*
X570123Y1764750D01*
X570910Y1762881D01*
X562546Y1759633D01*
X562448Y1759732D01*
X562350Y1760125D01*
X562054Y1760716D01*
X561759Y1761601D01*
X561365Y1762684D01*
X560972Y1763865D01*
X560677Y1765242D01*
X560283Y1766817D01*
Y1767013D01*
X560185Y1767604D01*
X559988Y1768489D01*
X559889Y1769572D01*
X559693Y1770949D01*
X559496Y1772524D01*
X559398Y1774295D01*
Y1776952D01*
X559496Y1778034D01*
X559594Y1779313D01*
X559791Y1780888D01*
X560086Y1782462D01*
X560480Y1784135D01*
X561070Y1785709D01*
X561169Y1785906D01*
X561365Y1786398D01*
X561759Y1787185D01*
X562251Y1788169D01*
X562940Y1789252D01*
X563727Y1790433D01*
X564711Y1791613D01*
X565793Y1792696D01*
X565892Y1792794D01*
X566384Y1793188D01*
X566974Y1793680D01*
X567860Y1794270D01*
X568942Y1794959D01*
X570221Y1795746D01*
X571599Y1796435D01*
X573173Y1797025D01*
X573272D01*
X573370Y1797124D01*
X573961Y1797222D01*
X574846Y1797419D01*
X575929Y1797714D01*
X577405Y1798009D01*
X578979Y1798206D01*
X580652Y1798305D01*
X582521Y1798403D01*
X582620D01*
X582718D01*
X583014D01*
X583407D01*
X584391Y1798305D01*
D02*
G37*
G36*
X602595Y1749990D02*
X602693Y1749597D01*
X602989Y1748809D01*
X603284Y1747924D01*
X603678Y1746743D01*
X604071Y1745365D01*
X604366Y1743889D01*
X604760Y1742217D01*
Y1742020D01*
X604957Y1741429D01*
X605055Y1740445D01*
X605252Y1739166D01*
X605449Y1737690D01*
X605547Y1736017D01*
X605744Y1734049D01*
Y1731097D01*
X605645Y1730015D01*
X605547Y1728933D01*
Y1728637D01*
X605449Y1728047D01*
Y1727260D01*
X605350Y1726374D01*
X596002Y1728441D01*
Y1728539D01*
X596101Y1728834D01*
X596199Y1729228D01*
X596396Y1729917D01*
X596494Y1730605D01*
X596593Y1731491D01*
X596691Y1732377D01*
Y1734443D01*
X596593Y1735427D01*
X596396Y1736509D01*
Y1736706D01*
X596199Y1737395D01*
X596002Y1738182D01*
X595707Y1739068D01*
X560381D01*
Y1750187D01*
X602497D01*
X602595Y1749990D01*
D02*
G37*
G36*
X619913Y1686817D02*
X560381D01*
Y1698429D01*
X619913D01*
Y1686817D01*
D02*
G37*
G36*
X602595Y1676092D02*
X602693Y1675698D01*
X602989Y1674911D01*
X603284Y1674025D01*
X603678Y1672845D01*
X604071Y1671467D01*
X604366Y1670089D01*
X604760Y1668515D01*
Y1668318D01*
X604957Y1667728D01*
X605055Y1666842D01*
X605252Y1665661D01*
X605449Y1664185D01*
X605547Y1662513D01*
X605744Y1660643D01*
Y1657593D01*
X605645Y1656904D01*
Y1656117D01*
X605547Y1655231D01*
X605449Y1654149D01*
X605252Y1653066D01*
X604760Y1650606D01*
X604071Y1648245D01*
X603087Y1645981D01*
X602497Y1644899D01*
X601808Y1644013D01*
Y1643915D01*
X601611Y1643817D01*
X601119Y1643325D01*
X600234Y1642537D01*
X598954Y1641652D01*
X597380Y1640865D01*
X595510Y1640077D01*
X593247Y1639585D01*
X591968Y1639389D01*
X590689D01*
X560381D01*
Y1650606D01*
X589606D01*
X589803D01*
X590197D01*
X590787Y1650705D01*
X591476Y1650803D01*
X592361Y1651098D01*
X593247Y1651393D01*
X594034Y1651885D01*
X594822Y1652574D01*
X594920Y1652673D01*
X595117Y1652968D01*
X595412Y1653361D01*
X595806Y1654050D01*
X596101Y1654837D01*
X596396Y1655920D01*
X596593Y1657101D01*
X596691Y1658478D01*
Y1659659D01*
X596593Y1660840D01*
X596396Y1662217D01*
Y1662513D01*
X596298Y1662808D01*
X596199Y1663201D01*
X596002Y1664185D01*
X595707Y1665169D01*
X560381D01*
Y1676289D01*
X602497D01*
X602595Y1676092D01*
D02*
G37*
G36*
Y1629155D02*
X602693Y1628761D01*
X602989Y1628269D01*
X603284Y1627482D01*
X603579Y1626498D01*
X603973Y1625317D01*
X604366Y1624038D01*
X604760Y1622464D01*
Y1622267D01*
X604957Y1621677D01*
X605055Y1620791D01*
X605252Y1619709D01*
X605449Y1618233D01*
X605547Y1616658D01*
X605744Y1614985D01*
Y1612033D01*
X605645Y1611345D01*
X605547Y1610459D01*
X605449Y1609377D01*
X605252Y1608196D01*
X604957Y1607015D01*
X604268Y1604358D01*
X603776Y1602981D01*
X603186Y1601603D01*
X602497Y1600225D01*
X601611Y1598946D01*
X600726Y1597667D01*
X599643Y1596585D01*
X599545Y1596486D01*
X599348Y1596289D01*
X599053Y1596093D01*
X598561Y1595699D01*
X597872Y1595305D01*
X597183Y1594813D01*
X596298Y1594223D01*
X595313Y1593731D01*
X594133Y1593239D01*
X592854Y1592649D01*
X591476Y1592157D01*
X590000Y1591763D01*
X588327Y1591369D01*
X586556Y1591074D01*
X584686Y1590976D01*
X582718Y1590877D01*
X582620D01*
X582521D01*
X582226D01*
X581833D01*
X580849Y1590976D01*
X579668Y1591074D01*
X578192Y1591173D01*
X576617Y1591468D01*
X574945Y1591763D01*
X573370Y1592255D01*
X573173Y1592353D01*
X572682Y1592452D01*
X571894Y1592845D01*
X570910Y1593239D01*
X569730Y1593731D01*
X568549Y1594420D01*
X567269Y1595207D01*
X566089Y1596191D01*
X565990Y1596289D01*
X565597Y1596683D01*
X565105Y1597273D01*
X564416Y1597962D01*
X563629Y1598946D01*
X562940Y1600029D01*
X562153Y1601308D01*
X561464Y1602685D01*
X561365Y1602882D01*
X561267Y1603374D01*
X560972Y1604161D01*
X560677Y1605244D01*
X560381Y1606523D01*
X560185Y1608097D01*
X559988Y1609770D01*
X559889Y1611640D01*
Y1612821D01*
X559988Y1614001D01*
X560185Y1615281D01*
Y1615576D01*
X560283Y1615871D01*
X560381Y1616265D01*
X560578Y1617249D01*
X560874Y1618134D01*
X542768D01*
Y1629253D01*
X602497D01*
X602595Y1629155D01*
D02*
G37*
G36*
X604760Y1571296D02*
X575535D01*
X575437D01*
X575240D01*
X574846Y1571197D01*
X574453D01*
X573370Y1570902D01*
X572091Y1570312D01*
X571402Y1569918D01*
X570713Y1569426D01*
X570123Y1568836D01*
X569631Y1568049D01*
X569237Y1567261D01*
X568844Y1566179D01*
X568647Y1565097D01*
X568549Y1563719D01*
Y1562440D01*
X568647Y1561259D01*
X568844Y1559980D01*
Y1559881D01*
X568942Y1559685D01*
Y1559389D01*
X569041Y1558996D01*
X569237Y1558110D01*
X569533Y1557225D01*
X604760D01*
Y1546007D01*
X562546D01*
Y1546105D01*
X562448Y1546302D01*
X562350Y1546597D01*
X562153Y1546991D01*
X561759Y1548172D01*
X561267Y1549549D01*
Y1549648D01*
X561169Y1549845D01*
X561070Y1550337D01*
X560972Y1550829D01*
X560775Y1551419D01*
X560578Y1552206D01*
X560283Y1553879D01*
Y1553977D01*
X560185Y1554273D01*
Y1554765D01*
X560086Y1555355D01*
X559988Y1556044D01*
X559889Y1556831D01*
X559693Y1558701D01*
Y1559094D01*
X559594Y1559586D01*
Y1560275D01*
X559496Y1560964D01*
Y1561849D01*
X559398Y1563719D01*
Y1564605D01*
X559496Y1565195D01*
Y1565982D01*
X559594Y1566868D01*
X559889Y1568934D01*
X560381Y1571197D01*
X560972Y1573559D01*
X561956Y1575724D01*
X562546Y1576708D01*
X563235Y1577692D01*
Y1577790D01*
X563432Y1577889D01*
X564022Y1578381D01*
X564416Y1578774D01*
X564908Y1579168D01*
X565498Y1579561D01*
X566285Y1580053D01*
X567073Y1580447D01*
X567958Y1580939D01*
X569041Y1581333D01*
X570123Y1581628D01*
X571402Y1582021D01*
X572780Y1582218D01*
X574256Y1582317D01*
X575830Y1582415D01*
X604760D01*
Y1571296D01*
D02*
G37*
G36*
X512461Y1530066D02*
X524269Y1543252D01*
X530861Y1536561D01*
X508131Y1513732D01*
X485302Y1536561D01*
X491895Y1543252D01*
X503703Y1530066D01*
Y1588122D01*
X512461D01*
Y1530066D01*
D02*
G37*
G36*
X604760Y1533018D02*
X614600D01*
X617847Y1521997D01*
X604760D01*
Y1513732D01*
X596298D01*
Y1521997D01*
X574453D01*
X574354D01*
X573961D01*
X573567Y1521899D01*
X572977Y1521801D01*
X572288Y1521604D01*
X571697Y1521407D01*
X571107Y1521013D01*
X570615Y1520521D01*
Y1520423D01*
X570418Y1520226D01*
X570320Y1519931D01*
X570123Y1519537D01*
X569926Y1518947D01*
X569730Y1518357D01*
X569631Y1517668D01*
X569533Y1516881D01*
Y1516290D01*
X569631Y1515798D01*
X569730Y1515109D01*
Y1514913D01*
X569828Y1514617D01*
X570025Y1514125D01*
X570221Y1513732D01*
X560874D01*
X560775Y1513929D01*
X560578Y1514421D01*
X560381Y1515306D01*
X560086Y1516585D01*
Y1516881D01*
X559988Y1517274D01*
Y1517766D01*
X559889Y1518947D01*
X559791Y1520423D01*
Y1521013D01*
X559889Y1521505D01*
X559988Y1522588D01*
X560185Y1524064D01*
X560677Y1525638D01*
X561267Y1527213D01*
X562054Y1528689D01*
X563235Y1529968D01*
X563432Y1530066D01*
X563924Y1530460D01*
X564711Y1530952D01*
X565793Y1531444D01*
X567269Y1532034D01*
X569139Y1532526D01*
X571206Y1532920D01*
X573665Y1533018D01*
X596298D01*
Y1538725D01*
X604760D01*
Y1533018D01*
D02*
G37*
G36*
X630337Y1222468D02*
X615987D01*
X594634Y1291922D01*
X609328D01*
X621038Y1246690D01*
Y1246576D01*
X621153Y1246461D01*
X621267Y1245772D01*
X621497Y1244854D01*
X621727Y1243706D01*
Y1243591D01*
X621841Y1243476D01*
X621956Y1242787D01*
X622071Y1241869D01*
X622301Y1240836D01*
Y1240721D01*
Y1240606D01*
X622415Y1240032D01*
X622530Y1239228D01*
X622645Y1238310D01*
Y1238195D01*
X622760Y1237736D01*
X622875Y1237162D01*
X622989Y1236703D01*
X623219D01*
Y1236818D01*
Y1236932D01*
X623334Y1237162D01*
X623449Y1237621D01*
Y1238195D01*
X623563Y1238884D01*
X623793Y1239688D01*
X623908Y1240606D01*
Y1240721D01*
X624023Y1241065D01*
X624137Y1241639D01*
X624252Y1242443D01*
X624482Y1243361D01*
X624711Y1244395D01*
X625285Y1246690D01*
X636995Y1291922D01*
X651689D01*
X630337Y1222468D01*
D02*
G37*
G36*
X457563Y1258745D02*
X472487D01*
Y1248527D01*
X457563D01*
Y1233029D01*
X446542D01*
Y1248527D01*
X431618D01*
Y1258745D01*
X446542D01*
Y1274243D01*
X457563D01*
Y1258745D01*
D02*
G37*
G36*
X582695Y1248986D02*
X589583D01*
Y1239573D01*
X582695D01*
Y1222468D01*
X570526D01*
Y1239573D01*
X539415D01*
Y1248986D01*
X568345Y1291922D01*
X582695D01*
Y1248986D01*
D02*
G37*
G36*
X504631Y1293070D02*
X505779D01*
X506927Y1292840D01*
X508304Y1292725D01*
X509797Y1292496D01*
X512896Y1291807D01*
X516111Y1290774D01*
X517603Y1290200D01*
X519095Y1289396D01*
X520588Y1288592D01*
X521851Y1287559D01*
X521965Y1287445D01*
X522195Y1287330D01*
X522425Y1286985D01*
X522884Y1286526D01*
X523343Y1285952D01*
X523917Y1285263D01*
X524606Y1284460D01*
X525180Y1283541D01*
X526443Y1281360D01*
X527476Y1278720D01*
X527935Y1277227D01*
X528279Y1275620D01*
X528394Y1274013D01*
X528509Y1272176D01*
Y1272061D01*
Y1271717D01*
Y1271143D01*
X528394Y1270454D01*
X528279Y1269650D01*
X528165Y1268732D01*
X527705Y1266781D01*
Y1266666D01*
X527591Y1266321D01*
X527476Y1265862D01*
X527246Y1265173D01*
X526557Y1263681D01*
X525754Y1261844D01*
Y1261729D01*
X525524Y1261500D01*
X525295Y1261041D01*
X524950Y1260466D01*
X524032Y1259089D01*
X522884Y1257482D01*
X522769Y1257367D01*
X522654Y1257137D01*
X522310Y1256793D01*
X521965Y1256219D01*
X520932Y1255071D01*
X519784Y1253693D01*
X501646Y1233259D01*
X529887D01*
Y1222468D01*
X479489D01*
X509223Y1259548D01*
X509337Y1259663D01*
X509567Y1260007D01*
X510026Y1260581D01*
X510485Y1261270D01*
X511059Y1262188D01*
X511748Y1263107D01*
X513011Y1265173D01*
X513126Y1265288D01*
X513241Y1265747D01*
X513585Y1266321D01*
X513929Y1267125D01*
X514159Y1268043D01*
X514503Y1269076D01*
X514618Y1270225D01*
X514733Y1271487D01*
Y1271717D01*
Y1272291D01*
X514503Y1273209D01*
X514274Y1274243D01*
X513929Y1275505D01*
X513241Y1276768D01*
X512437Y1278031D01*
X511289Y1279179D01*
X511174Y1279294D01*
X510600Y1279638D01*
X509911Y1280097D01*
X508763Y1280671D01*
X507386Y1281245D01*
X505664Y1281705D01*
X503712Y1282049D01*
X501416Y1282164D01*
X500039D01*
X499120Y1282049D01*
X498087Y1281934D01*
X496824Y1281819D01*
X493954Y1281360D01*
X493839D01*
X493265Y1281245D01*
X492577Y1281016D01*
X491543Y1280786D01*
X490510Y1280442D01*
X489247Y1280097D01*
X486722Y1279179D01*
X482933Y1289396D01*
X483163Y1289511D01*
X483737Y1289741D01*
X484541Y1290085D01*
X485803Y1290429D01*
X487181Y1290889D01*
X488788Y1291348D01*
X490510Y1291807D01*
X492347Y1292151D01*
X492577D01*
X493265Y1292266D01*
X494184Y1292496D01*
X495561Y1292725D01*
X497054Y1292840D01*
X498776Y1293070D01*
X500613Y1293185D01*
X503827D01*
X504631Y1293070D01*
D02*
G37*
%LPC*%
G36*
X1358746Y2542577D02*
X1356909D01*
X1356450Y2542462D01*
X1355417Y2542348D01*
X1354039Y2542003D01*
X1352547Y2541429D01*
X1351054Y2540626D01*
X1349562Y2539478D01*
X1348184Y2537870D01*
X1348070Y2537641D01*
X1347725Y2537067D01*
X1347151Y2536034D01*
X1346577Y2534656D01*
X1346003Y2532934D01*
X1345429Y2530868D01*
X1345085Y2528572D01*
X1344970Y2525931D01*
Y2525816D01*
Y2525587D01*
Y2525128D01*
Y2524668D01*
X1345085Y2523980D01*
X1345199Y2523176D01*
X1345429Y2521454D01*
X1345774Y2519502D01*
X1346348Y2517436D01*
X1347151Y2515484D01*
X1348184Y2513648D01*
X1348299Y2513418D01*
X1348758Y2512959D01*
X1349562Y2512270D01*
X1350595Y2511466D01*
X1351973Y2510663D01*
X1353465Y2509974D01*
X1355417Y2509515D01*
X1357483Y2509285D01*
X1358516D01*
X1359664Y2509400D01*
X1360927Y2509515D01*
X1361042D01*
X1361272Y2509630D01*
X1361960Y2509744D01*
X1362764Y2509974D01*
X1363568Y2510318D01*
Y2541544D01*
X1363453Y2541659D01*
X1362994Y2541774D01*
X1362075Y2542003D01*
X1360927Y2542233D01*
X1360812D01*
X1360583Y2542348D01*
X1360238D01*
X1359894Y2542462D01*
X1358746Y2542577D01*
D02*
G37*
G36*
X892313Y2560486D02*
X891051D01*
X889903Y2560371D01*
X888410Y2560142D01*
X888066D01*
X887721Y2560027D01*
X887377D01*
X886344Y2559797D01*
X885311Y2559453D01*
Y2537411D01*
X885426D01*
X885655Y2537296D01*
X886229D01*
X886803Y2537182D01*
X887721Y2537067D01*
X888640D01*
X889788Y2536952D01*
X892199D01*
X893576Y2537067D01*
X895183Y2537296D01*
X896905Y2537756D01*
X898742Y2538215D01*
X900464Y2539018D01*
X901957Y2540052D01*
X902072Y2540166D01*
X902531Y2540626D01*
X903105Y2541314D01*
X903908Y2542347D01*
X904597Y2543495D01*
X905171Y2544988D01*
X905630Y2546710D01*
X905745Y2548662D01*
Y2548776D01*
Y2549121D01*
X905630Y2549809D01*
X905515Y2550498D01*
X905286Y2551417D01*
X905056Y2552450D01*
X904597Y2553483D01*
X904023Y2554631D01*
X903334Y2555664D01*
X902416Y2556698D01*
X901383Y2557731D01*
X900120Y2558649D01*
X898513Y2559453D01*
X896791Y2560027D01*
X894724Y2560371D01*
X892313Y2560486D01*
D02*
G37*
G36*
X1589838Y2558190D02*
X1589609D01*
Y2558075D01*
X1589494Y2557846D01*
X1589264Y2557386D01*
X1588920Y2556812D01*
X1588805Y2556698D01*
X1588575Y2556238D01*
X1588231Y2555550D01*
X1587772Y2554746D01*
X1587657Y2554516D01*
X1587313Y2554057D01*
X1586853Y2553254D01*
X1586394Y2552335D01*
X1586280Y2552106D01*
X1586050Y2551646D01*
X1585591Y2550958D01*
X1585131Y2550269D01*
X1569404Y2526735D01*
X1589609D01*
Y2549121D01*
Y2549236D01*
Y2549695D01*
Y2550269D01*
Y2551072D01*
Y2551991D01*
Y2553024D01*
X1589724Y2554976D01*
Y2555090D01*
Y2555435D01*
Y2555894D01*
X1589838Y2556353D01*
Y2557501D01*
Y2557846D01*
Y2558190D01*
D02*
G37*
G36*
X1410291Y2543610D02*
X1409487D01*
X1408454Y2543381D01*
X1407306Y2543151D01*
X1405929Y2542692D01*
X1404551Y2542003D01*
X1403174Y2541085D01*
X1401911Y2539822D01*
X1401796Y2539707D01*
X1401451Y2539133D01*
X1400878Y2538330D01*
X1400303Y2537067D01*
X1399615Y2535574D01*
X1399156Y2533623D01*
X1398696Y2531442D01*
X1398467Y2528916D01*
X1420279Y2531901D01*
Y2532016D01*
Y2532130D01*
Y2532819D01*
X1420164Y2533852D01*
X1419934Y2535230D01*
X1419590Y2536608D01*
X1419131Y2538100D01*
X1418557Y2539478D01*
X1417638Y2540626D01*
X1417524Y2540740D01*
X1417179Y2541085D01*
X1416605Y2541544D01*
X1415687Y2542118D01*
X1414653Y2542692D01*
X1413391Y2543151D01*
X1412013Y2543496D01*
X1410291Y2543610D01*
D02*
G37*
G36*
X1301231D02*
X1300428D01*
X1299394Y2543381D01*
X1298246Y2543151D01*
X1296869Y2542692D01*
X1295491Y2542003D01*
X1294113Y2541085D01*
X1292851Y2539822D01*
X1292736Y2539707D01*
X1292391Y2539133D01*
X1291818Y2538330D01*
X1291244Y2537067D01*
X1290555Y2535574D01*
X1290095Y2533623D01*
X1289636Y2531442D01*
X1289407Y2528916D01*
X1311219Y2531901D01*
Y2532016D01*
Y2532130D01*
Y2532819D01*
X1311104Y2533852D01*
X1310874Y2535230D01*
X1310530Y2536608D01*
X1310071Y2538100D01*
X1309497Y2539478D01*
X1308578Y2540626D01*
X1308464Y2540740D01*
X1308119Y2541085D01*
X1307545Y2541544D01*
X1306627Y2542118D01*
X1305593Y2542692D01*
X1304331Y2543151D01*
X1302953Y2543496D01*
X1301231Y2543610D01*
D02*
G37*
G36*
X1246816D02*
X1246012D01*
X1244979Y2543381D01*
X1243831Y2543151D01*
X1242454Y2542692D01*
X1241076Y2542003D01*
X1239698Y2541085D01*
X1238436Y2539822D01*
X1238321Y2539707D01*
X1237976Y2539133D01*
X1237402Y2538330D01*
X1236828Y2537067D01*
X1236139Y2535574D01*
X1235680Y2533623D01*
X1235221Y2531442D01*
X1234992Y2528916D01*
X1256803Y2531901D01*
Y2532016D01*
Y2532130D01*
Y2532819D01*
X1256689Y2533852D01*
X1256459Y2535230D01*
X1256115Y2536608D01*
X1255656Y2538100D01*
X1255082Y2539478D01*
X1254163Y2540626D01*
X1254048Y2540740D01*
X1253704Y2541085D01*
X1253130Y2541544D01*
X1252211Y2542118D01*
X1251178Y2542692D01*
X1249916Y2543151D01*
X1248538Y2543496D01*
X1246816Y2543610D01*
D02*
G37*
G36*
X1085866Y2543610D02*
X1085063D01*
X1084030Y2543381D01*
X1082881Y2543151D01*
X1081504Y2542692D01*
X1080126Y2542003D01*
X1078749Y2541085D01*
X1077486Y2539822D01*
X1077371Y2539707D01*
X1077027Y2539133D01*
X1076453Y2538329D01*
X1075879Y2537067D01*
X1075190Y2535574D01*
X1074731Y2533623D01*
X1074272Y2531441D01*
X1074042Y2528916D01*
X1095854Y2531901D01*
Y2532015D01*
Y2532130D01*
Y2532819D01*
X1095739Y2533852D01*
X1095509Y2535230D01*
X1095165Y2536608D01*
X1094706Y2538100D01*
X1094132Y2539477D01*
X1093214Y2540626D01*
X1093099Y2540740D01*
X1092754Y2541085D01*
X1092180Y2541544D01*
X1091262Y2542118D01*
X1090229Y2542692D01*
X1088966Y2543151D01*
X1087588Y2543495D01*
X1085866Y2543610D01*
D02*
G37*
G36*
X949713Y2542807D02*
X949484D01*
X948910Y2542692D01*
X947991Y2542577D01*
X946843Y2542233D01*
X945581Y2541773D01*
X944203Y2540970D01*
X943055Y2539822D01*
X941907Y2538329D01*
X941792Y2538100D01*
X941448Y2537526D01*
X941104Y2536493D01*
X940644Y2535230D01*
X940070Y2533393D01*
X939726Y2531327D01*
X939381Y2528916D01*
X939267Y2526161D01*
Y2526046D01*
Y2525816D01*
Y2525472D01*
Y2524898D01*
X939381Y2524209D01*
Y2523520D01*
X939611Y2521798D01*
X939956Y2519847D01*
X940415Y2517780D01*
X940989Y2515829D01*
X941907Y2513992D01*
X942022Y2513762D01*
X942366Y2513303D01*
X943055Y2512614D01*
X943859Y2511811D01*
X945007Y2511007D01*
X946269Y2510318D01*
X947877Y2509859D01*
X949713Y2509630D01*
X949943D01*
X950517Y2509744D01*
X951436Y2509859D01*
X952583Y2510204D01*
X953846Y2510663D01*
X955109Y2511466D01*
X956372Y2512499D01*
X957405Y2513992D01*
X957520Y2514222D01*
X957864Y2514796D01*
X958209Y2515829D01*
X958783Y2517206D01*
X959242Y2518928D01*
X959586Y2520995D01*
X959931Y2523405D01*
X960045Y2526161D01*
Y2526276D01*
Y2526505D01*
Y2526964D01*
Y2527423D01*
X959931Y2528112D01*
Y2528916D01*
X959701Y2530638D01*
X959357Y2532590D01*
X958898Y2534541D01*
X958323Y2536608D01*
X957405Y2538329D01*
X957290Y2538559D01*
X956946Y2539018D01*
X956372Y2539707D01*
X955453Y2540626D01*
X954420Y2541429D01*
X953043Y2542118D01*
X951550Y2542577D01*
X949713Y2542807D01*
D02*
G37*
G36*
X2044878Y778876D02*
X2043795D01*
X2042811Y778777D01*
X2041532Y778581D01*
X2041237D01*
X2040941Y778482D01*
X2040646D01*
X2039761Y778285D01*
X2038875Y777990D01*
Y759097D01*
X2038974D01*
X2039170Y758999D01*
X2039662D01*
X2040154Y758900D01*
X2040941Y758802D01*
X2041729D01*
X2042713Y758704D01*
X2044779D01*
X2045960Y758802D01*
X2047338Y758999D01*
X2048814Y759393D01*
X2050388Y759786D01*
X2051864Y760475D01*
X2053143Y761361D01*
X2053242Y761459D01*
X2053635Y761852D01*
X2054127Y762443D01*
X2054816Y763328D01*
X2055406Y764312D01*
X2055898Y765592D01*
X2056292Y767068D01*
X2056390Y768740D01*
Y768839D01*
Y769134D01*
X2056292Y769725D01*
X2056193Y770315D01*
X2055997Y771102D01*
X2055800Y771988D01*
X2055406Y772873D01*
X2054914Y773857D01*
X2054324Y774743D01*
X2053537Y775629D01*
X2052651Y776514D01*
X2051569Y777301D01*
X2050191Y777990D01*
X2048715Y778482D01*
X2046944Y778777D01*
X2044878Y778876D01*
D02*
G37*
G36*
X2094077Y763722D02*
X2093881D01*
X2093389Y763624D01*
X2092602Y763525D01*
X2091617Y763230D01*
X2090535Y762837D01*
X2089354Y762148D01*
X2088370Y761164D01*
X2087386Y759885D01*
X2087288Y759688D01*
X2086993Y759196D01*
X2086698Y758310D01*
X2086304Y757228D01*
X2085812Y755653D01*
X2085517Y753882D01*
X2085222Y751816D01*
X2085123Y749454D01*
Y749356D01*
Y749159D01*
Y748864D01*
Y748372D01*
X2085222Y747781D01*
Y747191D01*
X2085418Y745715D01*
X2085713Y744042D01*
X2086107Y742271D01*
X2086599Y740598D01*
X2087386Y739024D01*
X2087485Y738827D01*
X2087780Y738433D01*
X2088370Y737843D01*
X2089059Y737154D01*
X2090043Y736465D01*
X2091126Y735875D01*
X2092503Y735481D01*
X2094077Y735284D01*
X2094274D01*
X2094766Y735383D01*
X2095553Y735481D01*
X2096537Y735777D01*
X2097620Y736170D01*
X2098702Y736859D01*
X2099785Y737745D01*
X2100670Y739024D01*
X2100769Y739221D01*
X2101064Y739712D01*
X2101359Y740598D01*
X2101851Y741779D01*
X2102245Y743255D01*
X2102540Y745026D01*
X2102835Y747092D01*
X2102934Y749454D01*
Y749553D01*
Y749749D01*
Y750143D01*
Y750537D01*
X2102835Y751127D01*
Y751816D01*
X2102638Y753292D01*
X2102343Y754965D01*
X2101950Y756637D01*
X2101457Y758409D01*
X2100670Y759885D01*
X2100572Y760081D01*
X2100277Y760475D01*
X2099785Y761065D01*
X2098997Y761852D01*
X2098112Y762541D01*
X2096931Y763132D01*
X2095652Y763525D01*
X2094077Y763722D01*
D02*
G37*
G36*
X611594Y1154326D02*
X608953D01*
X608035Y1154211D01*
X605969Y1153981D01*
X604936Y1153752D01*
X604017Y1153407D01*
Y1106225D01*
X604132D01*
X604361Y1106110D01*
X604936Y1105995D01*
X605624Y1105765D01*
X606428Y1105651D01*
X607576Y1105421D01*
X608839Y1105306D01*
X610905D01*
X611594Y1105421D01*
X612512Y1105536D01*
X613545Y1105651D01*
X614579Y1105880D01*
X615727Y1106225D01*
X616875Y1106684D01*
X616990Y1106799D01*
X617449Y1106913D01*
X618023Y1107258D01*
X618712Y1107717D01*
X619515Y1108406D01*
X620433Y1109095D01*
X621352Y1110013D01*
X622155Y1111046D01*
X622270Y1111161D01*
X622500Y1111620D01*
X622959Y1112194D01*
X623418Y1113113D01*
X623878Y1114261D01*
X624452Y1115523D01*
X625025Y1117016D01*
X625485Y1118623D01*
X625600Y1118853D01*
X625714Y1119427D01*
X625944Y1120460D01*
X626173Y1121837D01*
X626403Y1123445D01*
X626518Y1125396D01*
X626747Y1127463D01*
Y1129873D01*
Y1129988D01*
Y1130218D01*
Y1130447D01*
Y1130907D01*
X626633Y1132169D01*
Y1133662D01*
X626403Y1135384D01*
X626173Y1137221D01*
X625944Y1139057D01*
X625485Y1140894D01*
Y1141124D01*
X625255Y1141698D01*
X625025Y1142501D01*
X624681Y1143649D01*
X624222Y1144797D01*
X623648Y1146175D01*
X622959Y1147438D01*
X622155Y1148586D01*
X622041Y1148701D01*
X621811Y1149045D01*
X621352Y1149619D01*
X620663Y1150308D01*
X619860Y1150997D01*
X619056Y1151685D01*
X618023Y1152374D01*
X616875Y1152948D01*
X616760Y1153063D01*
X616301Y1153178D01*
X615727Y1153407D01*
X614923Y1153637D01*
X614005Y1153867D01*
X612857Y1154096D01*
X611594Y1154326D01*
D02*
G37*
G36*
X3737791Y778876D02*
X3736708D01*
X3735724Y778778D01*
X3734445Y778581D01*
X3734150D01*
X3733855Y778482D01*
X3733560D01*
X3732674Y778285D01*
X3731788Y777990D01*
Y759097D01*
X3731887D01*
X3732084Y758999D01*
X3732576D01*
X3733068Y758901D01*
X3733855Y758802D01*
X3734642D01*
X3735626Y758704D01*
X3737692D01*
X3738873Y758802D01*
X3740251Y758999D01*
X3741727Y759393D01*
X3743301Y759786D01*
X3744777Y760475D01*
X3746056Y761361D01*
X3746155Y761459D01*
X3746548Y761853D01*
X3747040Y762443D01*
X3747729Y763329D01*
X3748320Y764313D01*
X3748812Y765592D01*
X3749205Y767068D01*
X3749304Y768741D01*
Y768839D01*
Y769134D01*
X3749205Y769725D01*
X3749107Y770315D01*
X3748910Y771102D01*
X3748713Y771988D01*
X3748320Y772874D01*
X3747828Y773857D01*
X3747237Y774743D01*
X3746450Y775629D01*
X3745564Y776514D01*
X3744482Y777302D01*
X3743104Y777990D01*
X3741628Y778482D01*
X3739857Y778778D01*
X3737791Y778876D01*
D02*
G37*
G36*
X3786991Y763722D02*
X3786794D01*
X3786302Y763624D01*
X3785515Y763525D01*
X3784531Y763230D01*
X3783448Y762837D01*
X3782268Y762148D01*
X3781284Y761164D01*
X3780300Y759885D01*
X3780201Y759688D01*
X3779906Y759196D01*
X3779611Y758310D01*
X3779217Y757228D01*
X3778725Y755654D01*
X3778430Y753882D01*
X3778135Y751816D01*
X3778036Y749454D01*
Y749356D01*
Y749159D01*
Y748864D01*
Y748372D01*
X3778135Y747782D01*
Y747191D01*
X3778332Y745715D01*
X3778627Y744042D01*
X3779020Y742271D01*
X3779512Y740598D01*
X3780300Y739024D01*
X3780398Y738827D01*
X3780693Y738433D01*
X3781284Y737843D01*
X3781972Y737154D01*
X3782956Y736466D01*
X3784039Y735875D01*
X3785416Y735481D01*
X3786991Y735285D01*
X3787188D01*
X3787680Y735383D01*
X3788467Y735481D01*
X3789451Y735777D01*
X3790533Y736170D01*
X3791616Y736859D01*
X3792698Y737745D01*
X3793584Y739024D01*
X3793682Y739221D01*
X3793977Y739713D01*
X3794272Y740598D01*
X3794764Y741779D01*
X3795158Y743255D01*
X3795453Y745026D01*
X3795748Y747093D01*
X3795847Y749454D01*
Y749553D01*
Y749750D01*
Y750143D01*
Y750537D01*
X3795748Y751127D01*
Y751816D01*
X3795552Y753292D01*
X3795256Y754965D01*
X3794863Y756638D01*
X3794371Y758409D01*
X3793584Y759885D01*
X3793485Y760082D01*
X3793190Y760475D01*
X3792698Y761066D01*
X3791911Y761853D01*
X3791025Y762542D01*
X3789844Y763132D01*
X3788565Y763525D01*
X3786991Y763722D01*
D02*
G37*
G36*
X2891334Y778876D02*
X2890252D01*
X2889268Y778777D01*
X2887989Y778581D01*
X2887693D01*
X2887398Y778482D01*
X2887103D01*
X2886217Y778285D01*
X2885332Y777990D01*
Y759097D01*
X2885430D01*
X2885627Y758999D01*
X2886119D01*
X2886611Y758900D01*
X2887398Y758802D01*
X2888185D01*
X2889169Y758704D01*
X2891236D01*
X2892417Y758802D01*
X2893794Y758999D01*
X2895270Y759393D01*
X2896845Y759786D01*
X2898321Y760475D01*
X2899600Y761361D01*
X2899698Y761459D01*
X2900092Y761852D01*
X2900584Y762443D01*
X2901273Y763328D01*
X2901863Y764312D01*
X2902355Y765592D01*
X2902749Y767068D01*
X2902847Y768740D01*
Y768839D01*
Y769134D01*
X2902749Y769725D01*
X2902650Y770315D01*
X2902453Y771102D01*
X2902257Y771988D01*
X2901863Y772873D01*
X2901371Y773857D01*
X2900781Y774743D01*
X2899993Y775629D01*
X2899108Y776514D01*
X2898025Y777301D01*
X2896648Y777990D01*
X2895172Y778482D01*
X2893401Y778777D01*
X2891334Y778876D01*
D02*
G37*
G36*
X2940534Y763722D02*
X2940337D01*
X2939845Y763624D01*
X2939058Y763525D01*
X2938074Y763230D01*
X2936992Y762837D01*
X2935811Y762148D01*
X2934827Y761164D01*
X2933843Y759885D01*
X2933745Y759688D01*
X2933449Y759196D01*
X2933154Y758310D01*
X2932761Y757228D01*
X2932269Y755653D01*
X2931973Y753882D01*
X2931678Y751816D01*
X2931580Y749454D01*
Y749356D01*
Y749159D01*
Y748864D01*
Y748372D01*
X2931678Y747781D01*
Y747191D01*
X2931875Y745715D01*
X2932170Y744042D01*
X2932564Y742271D01*
X2933056Y740598D01*
X2933843Y739024D01*
X2933941Y738827D01*
X2934237Y738433D01*
X2934827Y737843D01*
X2935516Y737154D01*
X2936500Y736465D01*
X2937582Y735875D01*
X2938960Y735481D01*
X2940534Y735284D01*
X2940731D01*
X2941223Y735383D01*
X2942010Y735481D01*
X2942994Y735777D01*
X2944077Y736170D01*
X2945159Y736859D01*
X2946241Y737745D01*
X2947127Y739024D01*
X2947225Y739221D01*
X2947521Y739712D01*
X2947816Y740598D01*
X2948308Y741779D01*
X2948701Y743255D01*
X2948997Y745026D01*
X2949292Y747092D01*
X2949390Y749454D01*
Y749553D01*
Y749749D01*
Y750143D01*
Y750537D01*
X2949292Y751127D01*
Y751816D01*
X2949095Y753292D01*
X2948800Y754965D01*
X2948406Y756637D01*
X2947914Y758409D01*
X2947127Y759885D01*
X2947029Y760081D01*
X2946733Y760475D01*
X2946241Y761065D01*
X2945454Y761852D01*
X2944569Y762541D01*
X2943388Y763132D01*
X2942109Y763525D01*
X2940534Y763722D01*
D02*
G37*
G36*
X1198421Y778876D02*
X1197338D01*
X1196354Y778777D01*
X1195075Y778581D01*
X1194780D01*
X1194485Y778482D01*
X1194190D01*
X1193304Y778285D01*
X1192418Y777990D01*
Y759097D01*
X1192517D01*
X1192714Y758999D01*
X1193206D01*
X1193698Y758900D01*
X1194485Y758802D01*
X1195272D01*
X1196256Y758704D01*
X1198322D01*
X1199503Y758802D01*
X1200881Y758999D01*
X1202357Y759393D01*
X1203931Y759786D01*
X1205407Y760475D01*
X1206686Y761361D01*
X1206785Y761459D01*
X1207178Y761852D01*
X1207670Y762443D01*
X1208359Y763328D01*
X1208950Y764312D01*
X1209442Y765592D01*
X1209835Y767068D01*
X1209934Y768740D01*
Y768839D01*
Y769134D01*
X1209835Y769725D01*
X1209737Y770315D01*
X1209540Y771102D01*
X1209343Y771988D01*
X1208950Y772873D01*
X1208458Y773857D01*
X1207867Y774743D01*
X1207080Y775629D01*
X1206194Y776514D01*
X1205112Y777301D01*
X1203734Y777990D01*
X1202258Y778482D01*
X1200487Y778777D01*
X1198421Y778876D01*
D02*
G37*
G36*
X1383019Y776908D02*
X1382822D01*
Y776809D01*
X1382724Y776612D01*
X1382527Y776219D01*
X1382232Y775727D01*
X1382134Y775629D01*
X1381937Y775235D01*
X1381642Y774644D01*
X1381248Y773956D01*
X1381150Y773759D01*
X1380854Y773365D01*
X1380461Y772677D01*
X1380067Y771889D01*
X1379969Y771692D01*
X1379772Y771299D01*
X1379378Y770708D01*
X1378985Y770118D01*
X1365504Y749946D01*
X1382822D01*
Y769134D01*
Y769232D01*
Y769626D01*
Y770118D01*
Y770807D01*
Y771594D01*
Y772480D01*
X1382921Y774153D01*
Y774251D01*
Y774546D01*
Y774940D01*
X1383019Y775333D01*
Y776317D01*
Y776612D01*
Y776908D01*
D02*
G37*
G36*
X1247621Y763722D02*
X1247424D01*
X1246932Y763624D01*
X1246145Y763525D01*
X1245161Y763230D01*
X1244078Y762837D01*
X1242898Y762148D01*
X1241914Y761164D01*
X1240930Y759885D01*
X1240831Y759688D01*
X1240536Y759196D01*
X1240241Y758310D01*
X1239847Y757228D01*
X1239355Y755653D01*
X1239060Y753882D01*
X1238765Y751816D01*
X1238666Y749454D01*
Y749356D01*
Y749159D01*
Y748864D01*
Y748372D01*
X1238765Y747781D01*
Y747191D01*
X1238962Y745715D01*
X1239257Y744042D01*
X1239650Y742271D01*
X1240142Y740598D01*
X1240930Y739024D01*
X1241028Y738827D01*
X1241323Y738433D01*
X1241914Y737843D01*
X1242602Y737154D01*
X1243586Y736465D01*
X1244669Y735875D01*
X1246046Y735481D01*
X1247621Y735284D01*
X1247818D01*
X1248310Y735383D01*
X1249097Y735481D01*
X1250081Y735777D01*
X1251163Y736170D01*
X1252246Y736859D01*
X1253328Y737745D01*
X1254214Y739024D01*
X1254312Y739221D01*
X1254607Y739712D01*
X1254902Y740598D01*
X1255394Y741779D01*
X1255788Y743255D01*
X1256083Y745026D01*
X1256378Y747092D01*
X1256477Y749454D01*
Y749553D01*
Y749749D01*
Y750143D01*
Y750537D01*
X1256378Y751127D01*
Y751816D01*
X1256182Y753292D01*
X1255886Y754965D01*
X1255493Y756637D01*
X1255001Y758409D01*
X1254214Y759885D01*
X1254115Y760081D01*
X1253820Y760475D01*
X1253328Y761065D01*
X1252541Y761852D01*
X1251655Y762541D01*
X1250474Y763132D01*
X1249195Y763525D01*
X1247621Y763722D01*
D02*
G37*
G36*
X4485882Y1587030D02*
X4459019D01*
Y1586931D01*
X4458822Y1586439D01*
X4458625Y1585750D01*
X4458428Y1584766D01*
Y1584471D01*
X4458330Y1584176D01*
Y1583782D01*
X4458231Y1582798D01*
Y1581224D01*
X4458330Y1580732D01*
Y1580141D01*
X4458625Y1578666D01*
X4459215Y1577091D01*
X4459314Y1576993D01*
X4459412Y1576796D01*
X4459707Y1576402D01*
X4460002Y1575910D01*
X4460888Y1574828D01*
X4462167Y1573745D01*
X4462266Y1573647D01*
X4462561Y1573549D01*
X4462954Y1573254D01*
X4463447Y1572958D01*
X4464135Y1572663D01*
X4464922Y1572368D01*
X4466694Y1571777D01*
X4466792D01*
X4467186Y1571679D01*
X4467678Y1571581D01*
X4468465Y1571384D01*
X4469252Y1571285D01*
X4470236Y1571187D01*
X4472499Y1571089D01*
X4472598D01*
X4472794D01*
X4473188D01*
X4473582D01*
X4474172Y1571187D01*
X4474861D01*
X4476337Y1571384D01*
X4478010Y1571777D01*
X4479781Y1572270D01*
X4481552Y1572958D01*
X4483028Y1573844D01*
X4483225Y1573942D01*
X4483618Y1574336D01*
X4484209Y1575025D01*
X4484898Y1575910D01*
X4485587Y1576993D01*
X4486177Y1578370D01*
X4486570Y1579945D01*
X4486767Y1581814D01*
Y1582798D01*
X4486669Y1583782D01*
X4486472Y1584865D01*
Y1585062D01*
X4486374Y1585652D01*
X4486177Y1586341D01*
X4485882Y1587030D01*
D02*
G37*
G36*
X4474762Y1443562D02*
X4477321Y1424866D01*
X4477419D01*
X4477518D01*
X4478108D01*
X4478994Y1424965D01*
X4480175Y1425161D01*
X4481355Y1425457D01*
X4482635Y1425850D01*
X4483815Y1426342D01*
X4484799Y1427130D01*
X4484898Y1427228D01*
X4485193Y1427523D01*
X4485587Y1428015D01*
X4486078Y1428802D01*
X4486570Y1429688D01*
X4486964Y1430770D01*
X4487259Y1431951D01*
X4487358Y1433427D01*
Y1434116D01*
X4487161Y1435002D01*
X4486964Y1435986D01*
X4486570Y1437166D01*
X4485980Y1438347D01*
X4485193Y1439528D01*
X4484110Y1440610D01*
X4484012Y1440709D01*
X4483520Y1441004D01*
X4482831Y1441496D01*
X4481749Y1441988D01*
X4480470Y1442578D01*
X4478797Y1442972D01*
X4476927Y1443366D01*
X4474762Y1443562D01*
D02*
G37*
G36*
X4573359Y1437216D02*
X4556926D01*
Y1428851D01*
X4557025Y1428163D01*
X4557123Y1426588D01*
X4557222Y1425801D01*
X4557418Y1425112D01*
Y1425014D01*
X4557517Y1424817D01*
X4557615Y1424522D01*
X4557812Y1424030D01*
X4558206Y1423046D01*
X4558895Y1421964D01*
X4558993Y1421865D01*
X4559091Y1421767D01*
X4559682Y1421176D01*
X4560567Y1420586D01*
X4561748Y1419897D01*
X4561846D01*
X4562043Y1419799D01*
X4562437Y1419602D01*
X4562929Y1419504D01*
X4563519Y1419307D01*
X4564208Y1419208D01*
X4565783Y1419110D01*
X4565979D01*
X4566471D01*
X4567160Y1419208D01*
X4568046Y1419405D01*
X4569128Y1419799D01*
X4570112Y1420291D01*
X4571194Y1420979D01*
X4572080Y1421865D01*
X4572178Y1421964D01*
X4572474Y1422357D01*
X4572769Y1423046D01*
X4573261Y1423931D01*
X4573654Y1425112D01*
X4573950Y1426588D01*
X4574245Y1428261D01*
X4574343Y1430328D01*
Y1431508D01*
X4574245Y1432787D01*
X4574048Y1434264D01*
Y1434559D01*
X4573950Y1434952D01*
X4573851Y1435346D01*
X4573654Y1436330D01*
X4573359Y1437216D01*
D02*
G37*
G36*
X4548759D02*
X4531342D01*
Y1437117D01*
X4531244Y1437019D01*
Y1436724D01*
X4531146Y1436330D01*
X4530850Y1435346D01*
X4530654Y1434067D01*
Y1433772D01*
X4530555Y1433378D01*
Y1432886D01*
X4530457Y1431607D01*
X4530359Y1430229D01*
Y1429737D01*
X4530457Y1429048D01*
Y1428261D01*
X4530654Y1427376D01*
X4530850Y1426293D01*
X4531146Y1425211D01*
X4531539Y1424030D01*
X4532031Y1422947D01*
X4532622Y1421865D01*
X4533310Y1420783D01*
X4534196Y1419799D01*
X4535279Y1419110D01*
X4536459Y1418421D01*
X4537935Y1418027D01*
X4539510Y1417929D01*
X4539608D01*
X4539707D01*
X4540297Y1418027D01*
X4541182Y1418126D01*
X4542265Y1418421D01*
X4543544Y1418815D01*
X4544725Y1419504D01*
X4545807Y1420389D01*
X4546791Y1421668D01*
Y1421767D01*
X4546988Y1421964D01*
X4547087Y1422259D01*
X4547382Y1422652D01*
X4547874Y1423636D01*
X4548267Y1424916D01*
Y1425014D01*
X4548366Y1425211D01*
X4548464Y1425604D01*
X4548562Y1426195D01*
Y1426883D01*
X4548661Y1427671D01*
X4548759Y1428655D01*
Y1437216D01*
D02*
G37*
G36*
X4463742Y1397019D02*
X4463643D01*
X4463250D01*
X4462659Y1396921D01*
X4461971Y1396724D01*
X4461183Y1396429D01*
X4460298Y1396035D01*
X4459511Y1395543D01*
X4458822Y1394756D01*
X4458723Y1394658D01*
X4458526Y1394264D01*
X4458330Y1393772D01*
X4458034Y1392985D01*
X4457641Y1392001D01*
X4457444Y1390820D01*
X4457247Y1389442D01*
X4457149Y1387868D01*
Y1386785D01*
X4457247Y1385605D01*
X4457346Y1384325D01*
Y1384227D01*
X4457444Y1384030D01*
Y1383637D01*
X4457542Y1383243D01*
X4457739Y1382358D01*
X4458034Y1381570D01*
X4471515D01*
Y1382062D01*
X4471417Y1382751D01*
Y1383538D01*
X4471319Y1384424D01*
X4471220Y1385408D01*
X4471023Y1387573D01*
Y1388065D01*
X4470925Y1388557D01*
X4470827Y1389245D01*
X4470531Y1390722D01*
X4469941Y1392394D01*
Y1392493D01*
X4469842Y1392689D01*
X4469646Y1393083D01*
X4469350Y1393575D01*
X4468662Y1394658D01*
X4467678Y1395740D01*
X4467579Y1395838D01*
X4467382Y1395937D01*
X4467087Y1396133D01*
X4466595Y1396330D01*
X4466103Y1396626D01*
X4465414Y1396822D01*
X4464627Y1396921D01*
X4463742Y1397019D01*
D02*
G37*
G36*
X611156Y1950037D02*
X592263D01*
Y1949939D01*
X592165Y1949742D01*
Y1949250D01*
X592066Y1948758D01*
X591968Y1947971D01*
Y1947184D01*
X591870Y1946200D01*
Y1944133D01*
X591968Y1942953D01*
X592165Y1941575D01*
X592558Y1940099D01*
X592952Y1938525D01*
X593641Y1937049D01*
X594526Y1935769D01*
X594625Y1935671D01*
X595018Y1935277D01*
X595609Y1934785D01*
X596494Y1934097D01*
X597478Y1933506D01*
X598758Y1933014D01*
X600234Y1932621D01*
X601906Y1932522D01*
X602005D01*
X602300D01*
X602890Y1932621D01*
X603481Y1932719D01*
X604268Y1932916D01*
X605154Y1933113D01*
X606039Y1933506D01*
X607023Y1933998D01*
X607909Y1934589D01*
X608794Y1935376D01*
X609680Y1936261D01*
X610467Y1937344D01*
X611156Y1938721D01*
X611648Y1940197D01*
X611943Y1941969D01*
X612042Y1944035D01*
Y1945117D01*
X611943Y1946101D01*
X611746Y1947381D01*
Y1947676D01*
X611648Y1947971D01*
Y1948266D01*
X611451Y1949152D01*
X611156Y1950037D01*
D02*
G37*
G36*
X582620Y1903789D02*
X582521D01*
X582325D01*
X582029D01*
X581538D01*
X580947Y1903691D01*
X580357D01*
X578881Y1903494D01*
X577208Y1903199D01*
X575437Y1902805D01*
X573764Y1902313D01*
X572189Y1901526D01*
X571993Y1901428D01*
X571599Y1901133D01*
X571009Y1900542D01*
X570320Y1899853D01*
X569631Y1898869D01*
X569041Y1897787D01*
X568647Y1896409D01*
X568450Y1894835D01*
Y1894638D01*
X568549Y1894146D01*
X568647Y1893359D01*
X568942Y1892375D01*
X569336Y1891293D01*
X570025Y1890210D01*
X570910Y1889128D01*
X572189Y1888242D01*
X572386Y1888144D01*
X572878Y1887849D01*
X573764Y1887553D01*
X574945Y1887061D01*
X576421Y1886668D01*
X578192Y1886373D01*
X580258Y1886077D01*
X582620Y1885979D01*
X582718D01*
X582915D01*
X583309D01*
X583702D01*
X584293Y1886077D01*
X584981D01*
X586457Y1886274D01*
X588130Y1886569D01*
X589803Y1886963D01*
X591574Y1887455D01*
X593050Y1888242D01*
X593247Y1888341D01*
X593641Y1888636D01*
X594231Y1889128D01*
X595018Y1889915D01*
X595707Y1890801D01*
X596298Y1891981D01*
X596691Y1893261D01*
X596888Y1894835D01*
Y1895032D01*
X596789Y1895524D01*
X596691Y1896311D01*
X596396Y1897295D01*
X596002Y1898377D01*
X595313Y1899558D01*
X594330Y1900542D01*
X593050Y1901526D01*
X592854Y1901625D01*
X592361Y1901920D01*
X591476Y1902215D01*
X590394Y1902609D01*
X588819Y1903101D01*
X587048Y1903396D01*
X584981Y1903691D01*
X582620Y1903789D01*
D02*
G37*
G36*
X584981Y1788268D02*
X587540Y1769572D01*
X587638D01*
X587737D01*
X588327D01*
X589213Y1769670D01*
X590394Y1769867D01*
X591574Y1770162D01*
X592854Y1770556D01*
X594034Y1771048D01*
X595018Y1771835D01*
X595117Y1771933D01*
X595412Y1772229D01*
X595806Y1772721D01*
X596298Y1773508D01*
X596789Y1774393D01*
X597183Y1775476D01*
X597478Y1776657D01*
X597577Y1778133D01*
Y1778821D01*
X597380Y1779707D01*
X597183Y1780691D01*
X596789Y1781872D01*
X596199Y1783053D01*
X595412Y1784233D01*
X594330Y1785316D01*
X594231Y1785414D01*
X593739Y1785709D01*
X593050Y1786201D01*
X591968Y1786693D01*
X590689Y1787284D01*
X589016Y1787677D01*
X587146Y1788071D01*
X584981Y1788268D01*
D02*
G37*
G36*
X596101Y1618134D02*
X569237D01*
Y1618036D01*
X569041Y1617544D01*
X568844Y1616855D01*
X568647Y1615871D01*
Y1615576D01*
X568549Y1615281D01*
Y1614887D01*
X568450Y1613903D01*
Y1612329D01*
X568549Y1611837D01*
Y1611246D01*
X568844Y1609770D01*
X569434Y1608196D01*
X569533Y1608097D01*
X569631Y1607901D01*
X569926Y1607507D01*
X570221Y1607015D01*
X571107Y1605933D01*
X572386Y1604850D01*
X572485Y1604752D01*
X572780Y1604653D01*
X573173Y1604358D01*
X573665Y1604063D01*
X574354Y1603768D01*
X575141Y1603473D01*
X576913Y1602882D01*
X577011D01*
X577405Y1602784D01*
X577897Y1602685D01*
X578684Y1602489D01*
X579471Y1602390D01*
X580455Y1602292D01*
X582718Y1602193D01*
X582817D01*
X583014D01*
X583407D01*
X583801D01*
X584391Y1602292D01*
X585080D01*
X586556Y1602489D01*
X588229Y1602882D01*
X590000Y1603374D01*
X591771Y1604063D01*
X593247Y1604949D01*
X593444Y1605047D01*
X593837Y1605441D01*
X594428Y1606129D01*
X595117Y1607015D01*
X595806Y1608097D01*
X596396Y1609475D01*
X596789Y1611049D01*
X596986Y1612919D01*
Y1613903D01*
X596888Y1614887D01*
X596691Y1615969D01*
Y1616166D01*
X596593Y1616757D01*
X596396Y1617445D01*
X596101Y1618134D01*
D02*
G37*
G36*
X571215Y1280442D02*
X570985D01*
Y1280327D01*
X570870Y1280097D01*
X570641Y1279638D01*
X570296Y1279064D01*
X570181Y1278949D01*
X569952Y1278490D01*
X569607Y1277801D01*
X569148Y1276998D01*
X569033Y1276768D01*
X568689Y1276309D01*
X568230Y1275505D01*
X567771Y1274587D01*
X567656Y1274357D01*
X567426Y1273898D01*
X566967Y1273209D01*
X566508Y1272521D01*
X550780Y1248986D01*
X570985D01*
Y1271372D01*
Y1271487D01*
Y1271947D01*
Y1272521D01*
Y1273324D01*
Y1274243D01*
Y1275276D01*
X571100Y1277227D01*
Y1277342D01*
Y1277687D01*
Y1278146D01*
X571215Y1278605D01*
Y1279753D01*
Y1280097D01*
Y1280442D01*
D02*
G37*
%LPD*%
D84*
X2747118Y1812007D02*
G03*
X2747118Y1812007I-4921J0D01*
G01*
X2690473Y1456645D02*
G03*
X2690473Y1456645I-4921J0D01*
G01*
X1900662Y1812007D02*
G03*
X1900662Y1812007I-4921J0D01*
G01*
X1844016Y1456645D02*
G03*
X1844016Y1456645I-4921J0D01*
G01*
X1054205Y1812007D02*
G03*
X1054205Y1812007I-4921J0D01*
G01*
X997559Y1456645D02*
G03*
X997559Y1456645I-4921J0D01*
G01*
X3536929Y1456645D02*
G03*
X3536929Y1456645I-4921J0D01*
G01*
X3593575Y1812007D02*
G03*
X3593575Y1812007I-4921J0D01*
G01*
D85*
X2657795Y1364125D02*
G03*
X2657795Y1364125I-11811J0D01*
G01*
X1811339D02*
G03*
X1811339Y1364125I-11811J0D01*
G01*
X964882D02*
G03*
X964882Y1364125I-11811J0D01*
G01*
X3504252D02*
G03*
X3504252Y1364125I-11811J0D01*
G01*
D86*
X4516260Y2305267D02*
G03*
X4516260Y2305267I-3937J0D01*
G01*
X2795347Y1595275D02*
Y1811810D01*
X2952827Y1595275D02*
Y1811810D01*
X2795347D02*
X2952827D01*
X2795347Y1595275D02*
X2952827D01*
X2449134Y949164D02*
X2499134D01*
X2449134Y675542D02*
X2449135Y612157D01*
X2449134Y828692D02*
X2449134Y753889D01*
Y931054D02*
Y949164D01*
X2449135Y612157D02*
X2787715D01*
X2787716Y931054D02*
Y949164D01*
Y753889D02*
X2787717Y828692D01*
X2787715Y612157D02*
X2787716Y675542D01*
X2737716Y949164D02*
X2787716D01*
X2468819Y1403495D02*
X2685354D01*
X2468819Y1246015D02*
X2685354D01*
Y1403495D01*
X2468819Y1246015D02*
Y1403495D01*
X1948890Y1595275D02*
Y1811810D01*
X2106370Y1595275D02*
Y1811810D01*
X1948890D02*
X2106370D01*
X1948890Y1595275D02*
X2106370D01*
X1602678Y949164D02*
X1652678D01*
X1602678Y675542D02*
X1602679Y612157D01*
X1602677Y828692D02*
X1602678Y753889D01*
Y931054D02*
Y949164D01*
X1602679Y612157D02*
X1941258D01*
X1941260Y931054D02*
Y949164D01*
Y753889D02*
X1941260Y828692D01*
X1941258Y612157D02*
X1941260Y675542D01*
X1891260Y949164D02*
X1941260D01*
X1622362Y1403495D02*
X1838898D01*
X1622362Y1246015D02*
X1838898D01*
Y1403495D01*
X1622362Y1246015D02*
Y1403495D01*
X1102433Y1595275D02*
Y1811810D01*
X1259914Y1595275D02*
Y1811810D01*
X1102433D02*
X1259914D01*
X1102433Y1595275D02*
X1259914D01*
X756221Y949164D02*
X806221D01*
X756221Y675542D02*
X756222Y612157D01*
X756221Y828692D02*
X756221Y753889D01*
Y931054D02*
Y949164D01*
X756222Y612157D02*
X1094802D01*
X1094803Y931054D02*
Y949164D01*
Y753889D02*
X1094803Y828692D01*
X1094802Y612157D02*
X1094803Y675542D01*
X1044803Y949164D02*
X1094803D01*
X775906Y1403495D02*
X992441D01*
X775906Y1246015D02*
X992441D01*
Y1403495D01*
X775906Y1246015D02*
Y1403495D01*
X3315275D02*
X3315276Y1246015D01*
X3531811Y1246015D02*
Y1403495D01*
X3315276Y1246015D02*
X3531811Y1246015D01*
X3315275Y1403495D02*
X3531811D01*
X4308976Y1195618D02*
Y1245618D01*
X4582599D02*
X4645984Y1245617D01*
X4429449Y1245618D02*
X4504252Y1245618D01*
X4308976D02*
X4327087D01*
X4645984Y907037D02*
Y1245617D01*
X4308976Y907036D02*
X4327087D01*
X4429449Y907035D02*
X4504252Y907036D01*
X4582599D02*
X4645984Y907037D01*
X4308976Y907036D02*
Y957036D01*
X3584173Y949164D02*
X3634173Y949165D01*
X3634172Y612157D02*
X3634173Y675543D01*
X3634173Y753889D02*
X3634173Y828692D01*
X3634173Y931054D02*
Y949165D01*
X3295592Y612157D02*
X3634172D01*
X3295591Y949164D02*
X3295591Y931054D01*
X3295591Y828692D02*
X3295591Y753889D01*
X3295591Y675543D02*
X3295592Y612157D01*
X3295591Y949164D02*
X3345591Y949165D01*
X3641803Y1595275D02*
X3799284D01*
X3641803Y1811810D02*
X3799284D01*
Y1595275D02*
Y1811810D01*
X3641803Y1595275D02*
Y1811810D01*
D87*
X953244Y1862905D02*
G03*
X953244Y1862905I-1968J0D01*
G01*
X3492614D02*
G03*
X3492614Y1862905I-1968J0D01*
G01*
X2646157D02*
G03*
X2646157Y1862905I-1968J0D01*
G01*
X1799701D02*
G03*
X1799701Y1862905I-1968J0D01*
G01*
X3009544Y1275291D02*
Y1314661D01*
X2989858Y1294976D02*
X3029229D01*
X3096158Y987889D02*
Y1027259D01*
X3076473Y1007574D02*
X3115843D01*
X2163087Y1275291D02*
Y1314661D01*
X2143402Y1294976D02*
X2182772D01*
X2249701Y987889D02*
Y1027259D01*
X2230016Y1007574D02*
X2269386D01*
X1316630Y1275291D02*
Y1314661D01*
X1296945Y1294976D02*
X1336315D01*
X1403244Y987889D02*
Y1027259D01*
X1383559Y1007574D02*
X1422929D01*
X4421701Y2459590D02*
X4481701D01*
X4421701Y2349590D02*
X4481701D01*
X4381701Y2379590D02*
Y2429590D01*
X4521701Y2379590D02*
Y2429590D01*
X3264090Y1029144D02*
X3275705Y1018120D01*
X3287319Y1029144D01*
X3264083Y1029159D02*
X3287319D01*
X4357969Y1350094D02*
X4397339D01*
X4377654Y1369779D02*
X4377654Y1330409D01*
X3922929Y1007574D02*
X3962299D01*
X3942614Y987889D02*
Y1027259D01*
X737697Y1017060D02*
X749311Y1006036D01*
X726083D02*
X737697Y1017060D01*
X726083Y1006020D02*
X749319D01*
X1573091Y1030144D02*
X1584705Y1019120D01*
X1596319Y1030144D01*
X1573083Y1030159D02*
X1596319D01*
X4222752Y958178D02*
X4234366Y947154D01*
X4211138D02*
X4222752Y958178D01*
X4211138Y947138D02*
X4234374D01*
X2417090Y1036144D02*
X2428705Y1025120D01*
X2440319Y1036144D01*
X2417083Y1036159D02*
X2440319D01*
X3836315Y1294976D02*
X3875685D01*
X3856000Y1275291D02*
Y1314661D01*
D88*
X2716851Y1936960D02*
X2953071D01*
X2716851Y2409401D02*
X2953071D01*
X1870394Y1936960D02*
X2106614D01*
X1870394Y2409401D02*
X2106614D01*
X1023937Y1936960D02*
X1260158D01*
X1023937Y2409401D02*
X1260158D01*
X401031Y658228D02*
X696307D01*
X401031D02*
Y1051928D01*
X696307D01*
Y658228D02*
Y1051928D01*
X3563307Y2409401D02*
X3799528Y2409401D01*
X3563307Y1936960D02*
X3799527D01*
D89*
X4130236Y2029480D02*
Y2238141D01*
X4531811Y2238141D02*
X4531811Y2029480D01*
%TF.MD5,04dae32ec88b33a29a0531a69e637347*%
M02*
