%TF.GenerationSoftware,Altium Limited,Altium Designer,23.4.1 (23)*%
G04 Layer_Color=65535*
%FSLAX26Y26*%
%MOIN*%
%TF.SameCoordinates,7B234F99-2337-49EF-8028-3FC35EF94B5E*%
%TF.FilePolarity,Positive*%
%TF.FileFunction,Legend,Top*%
%TF.Part,CustomerPanel*%
G01*
G75*
%TA.AperFunction,NonConductor*%
%ADD82C,0.007874*%
%ADD83C,0.009842*%
%ADD84C,0.023622*%
%ADD85C,0.003937*%
%ADD86C,0.010000*%
%ADD87C,0.005000*%
G36*
X343996Y797548D02*
X355618Y785926D01*
X355618Y785548D01*
X332382D01*
X343996Y797548D01*
D02*
G37*
G36*
X1191004Y797687D02*
X1179382Y809309D01*
Y809687D01*
X1202618D01*
X1191004Y797687D01*
D02*
G37*
G36*
X2035004Y803687D02*
X2023382Y815309D01*
Y815687D01*
X2046618D01*
X2035004Y803687D01*
D02*
G37*
G36*
X2882004Y796687D02*
X2870382Y808309D01*
Y808687D01*
X2893618D01*
X2882004Y796687D01*
D02*
G37*
G36*
X3829051Y738666D02*
X3840673Y727044D01*
X3840673Y726666D01*
X3817437D01*
X3829051Y738666D01*
D02*
G37*
G36*
X902726Y552007D02*
X903809Y551909D01*
X904104D01*
X904694Y551811D01*
X905482D01*
X906367Y551712D01*
X904301Y542364D01*
X904202D01*
X903907Y542462D01*
X903514Y542561D01*
X902825Y542758D01*
X902136Y542856D01*
X901250Y542955D01*
X900365Y543053D01*
X898298D01*
X897314Y542955D01*
X896232Y542758D01*
X896035D01*
X895346Y542561D01*
X894559Y542364D01*
X893674Y542069D01*
Y506743D01*
X882554D01*
Y548859D01*
X882751Y548957D01*
X883145Y549055D01*
X883932Y549351D01*
X884818Y549646D01*
X885998Y550039D01*
X887376Y550433D01*
X888852Y550728D01*
X890525Y551122D01*
X890722D01*
X891312Y551318D01*
X892296Y551417D01*
X893575Y551614D01*
X895051Y551811D01*
X896724Y551909D01*
X898692Y552106D01*
X901644D01*
X902726Y552007D01*
D02*
G37*
G36*
X806491Y567259D02*
X807377Y567161D01*
X808459Y567062D01*
X809640Y566964D01*
X810919Y566669D01*
X813674Y566078D01*
X816528Y565193D01*
X817906Y564602D01*
X819185Y563914D01*
X820464Y563028D01*
X821645Y562143D01*
X821743Y562044D01*
X821940Y561946D01*
X822235Y561650D01*
X822530Y561159D01*
X823022Y560667D01*
X823514Y560076D01*
X824006Y559289D01*
X824597Y558403D01*
X825187Y557518D01*
X825679Y556435D01*
X826663Y554074D01*
X826958Y552696D01*
X827254Y551318D01*
X827450Y549744D01*
X827549Y548170D01*
Y547973D01*
Y547481D01*
X827450Y546694D01*
X827352Y545710D01*
X827155Y544529D01*
X826958Y543348D01*
X826565Y541971D01*
X826073Y540691D01*
X825974Y540495D01*
X825778Y540101D01*
X825482Y539510D01*
X824990Y538625D01*
X824302Y537739D01*
X823613Y536755D01*
X822727Y535673D01*
X821645Y534689D01*
X821546Y534591D01*
X821153Y534295D01*
X820464Y533803D01*
X819677Y533311D01*
X818594Y532721D01*
X817315Y532032D01*
X815938Y531442D01*
X814363Y530851D01*
X814166Y530753D01*
X813576Y530654D01*
X812690Y530458D01*
X811510Y530163D01*
X810034Y529867D01*
X808262Y529670D01*
X806294Y529572D01*
X804228Y529474D01*
X802358D01*
X801178Y529572D01*
X800981D01*
X800292Y529670D01*
X799505Y529769D01*
X798718Y529867D01*
Y506743D01*
X787402D01*
Y564111D01*
X787598Y564209D01*
X787992Y564406D01*
X788681Y564602D01*
X789665Y564996D01*
X790846Y565291D01*
X792125Y565685D01*
X793601Y566078D01*
X795175Y566472D01*
X795372D01*
X795962Y566571D01*
X796848Y566767D01*
X798029Y566964D01*
X799406Y567062D01*
X800981Y567259D01*
X802752Y567358D01*
X805704D01*
X806491Y567259D01*
D02*
G37*
G36*
X999158Y529474D02*
X1005062D01*
Y521405D01*
X999158D01*
Y506743D01*
X988728D01*
Y521405D01*
X962062D01*
Y529474D01*
X986858Y566275D01*
X999158D01*
Y529474D01*
D02*
G37*
G36*
X927326Y551122D02*
X935592D01*
Y542659D01*
X927326D01*
Y520814D01*
Y520716D01*
Y520322D01*
X927425Y519929D01*
X927523Y519338D01*
X927720Y518650D01*
X927917Y518059D01*
X928310Y517469D01*
X928802Y516977D01*
X928901D01*
X929098Y516780D01*
X929393Y516682D01*
X929786Y516485D01*
X930377Y516288D01*
X930967Y516091D01*
X931656Y515993D01*
X932443Y515894D01*
X933034D01*
X933526Y515993D01*
X934214Y516091D01*
X934411D01*
X934706Y516190D01*
X935198Y516386D01*
X935592Y516583D01*
Y507235D01*
X935395Y507137D01*
X934903Y506940D01*
X934018Y506743D01*
X932738Y506448D01*
X932443D01*
X932050Y506350D01*
X931558D01*
X930377Y506251D01*
X928901Y506153D01*
X928310D01*
X927818Y506251D01*
X926736Y506350D01*
X925260Y506546D01*
X923686Y507038D01*
X922111Y507629D01*
X920635Y508416D01*
X919356Y509597D01*
X919258Y509794D01*
X918864Y510286D01*
X918372Y511073D01*
X917880Y512155D01*
X917290Y513631D01*
X916798Y515501D01*
X916404Y517567D01*
X916306Y520027D01*
Y542659D01*
X910598D01*
Y551122D01*
X916306D01*
Y560962D01*
X927326Y564209D01*
Y551122D01*
D02*
G37*
G36*
X855691Y552007D02*
X856774Y551909D01*
X858151Y551712D01*
X859529Y551318D01*
X861005Y550925D01*
X862481Y550335D01*
X862678Y550236D01*
X863071Y550039D01*
X863760Y549646D01*
X864646Y549055D01*
X865630Y548366D01*
X866712Y547481D01*
X867794Y546497D01*
X868778Y545414D01*
X868877Y545316D01*
X869172Y544923D01*
X869664Y544234D01*
X870254Y543348D01*
X870845Y542266D01*
X871435Y541085D01*
X872124Y539707D01*
X872616Y538133D01*
X872714Y537936D01*
X872813Y537444D01*
X873010Y536558D01*
X873305Y535378D01*
X873600Y534000D01*
X873797Y532426D01*
X873895Y530753D01*
X873994Y528883D01*
Y528785D01*
Y528687D01*
Y528391D01*
Y528096D01*
X873895Y527112D01*
X873797Y525931D01*
X873698Y524455D01*
X873403Y522881D01*
X873108Y521307D01*
X872616Y519634D01*
X872518Y519437D01*
X872419Y518945D01*
X872124Y518158D01*
X871632Y517174D01*
X871140Y515993D01*
X870451Y514714D01*
X869664Y513434D01*
X868778Y512254D01*
X868680Y512155D01*
X868286Y511762D01*
X867794Y511171D01*
X867007Y510483D01*
X866122Y509695D01*
X865039Y508908D01*
X863858Y508121D01*
X862481Y507432D01*
X862284Y507334D01*
X861792Y507137D01*
X861005Y506940D01*
X860021Y506645D01*
X858742Y506251D01*
X857266Y506055D01*
X855691Y505858D01*
X853920Y505759D01*
X853133D01*
X852149Y505858D01*
X851066Y505956D01*
X849689Y506153D01*
X848213Y506448D01*
X846737Y506842D01*
X845261Y507432D01*
X845064Y507531D01*
X844670Y507727D01*
X843982Y508121D01*
X843096Y508711D01*
X842112Y509400D01*
X841030Y510187D01*
X839947Y511171D01*
X838963Y512254D01*
X838865Y512352D01*
X838570Y512844D01*
X838078Y513434D01*
X837487Y514320D01*
X836897Y515403D01*
X836306Y516682D01*
X835618Y518059D01*
X835126Y519634D01*
Y519732D01*
X835027Y519831D01*
X834929Y520421D01*
X834732Y521307D01*
X834535Y522389D01*
X834240Y523766D01*
X834043Y525341D01*
X833945Y527112D01*
X833846Y528883D01*
Y528982D01*
Y529080D01*
Y529375D01*
Y529769D01*
X833945Y530654D01*
X834043Y531934D01*
X834142Y533311D01*
X834437Y534886D01*
X834732Y536558D01*
X835126Y538133D01*
Y538231D01*
X835224Y538330D01*
X835322Y538822D01*
X835716Y539609D01*
X836110Y540593D01*
X836602Y541774D01*
X837290Y542955D01*
X838078Y544234D01*
X838963Y545414D01*
X839062Y545513D01*
X839455Y545907D01*
X839947Y546497D01*
X840734Y547186D01*
X841620Y547973D01*
X842702Y548859D01*
X843883Y549646D01*
X845261Y550335D01*
X845458Y550433D01*
X845950Y550630D01*
X846737Y550925D01*
X847819Y551220D01*
X849098Y551515D01*
X850574Y551811D01*
X852149Y552007D01*
X853920Y552106D01*
X854707D01*
X855691Y552007D01*
D02*
G37*
G36*
X816725Y487260D02*
X803638Y475452D01*
X861792D01*
Y466695D01*
X803638D01*
X816725Y454887D01*
X810132Y448294D01*
X787303Y471123D01*
X810132Y493853D01*
X816725Y487260D01*
D02*
G37*
G36*
X3442096Y552008D02*
X3443179Y551909D01*
X3443474D01*
X3444064Y551811D01*
X3444852D01*
X3445737Y551712D01*
X3443671Y542364D01*
X3443572D01*
X3443277Y542463D01*
X3442884Y542561D01*
X3442195Y542758D01*
X3441506Y542856D01*
X3440620Y542955D01*
X3439735Y543053D01*
X3437668D01*
X3436684Y542955D01*
X3435602Y542758D01*
X3435405D01*
X3434716Y542561D01*
X3433929Y542364D01*
X3433044Y542069D01*
Y506743D01*
X3421924D01*
Y548859D01*
X3422121Y548957D01*
X3422515Y549056D01*
X3423302Y549351D01*
X3424188Y549646D01*
X3425368Y550039D01*
X3426746Y550433D01*
X3428222Y550728D01*
X3429895Y551122D01*
X3430092D01*
X3430682Y551319D01*
X3431666Y551417D01*
X3432945Y551614D01*
X3434421Y551811D01*
X3436094Y551909D01*
X3438062Y552106D01*
X3441014D01*
X3442096Y552008D01*
D02*
G37*
G36*
X3345861Y567260D02*
X3346747Y567161D01*
X3347829Y567063D01*
X3349010Y566964D01*
X3350289Y566669D01*
X3353044Y566079D01*
X3355898Y565193D01*
X3357276Y564603D01*
X3358555Y563914D01*
X3359834Y563028D01*
X3361015Y562143D01*
X3361113Y562044D01*
X3361310Y561946D01*
X3361605Y561651D01*
X3361900Y561159D01*
X3362392Y560667D01*
X3362884Y560076D01*
X3363376Y559289D01*
X3363967Y558404D01*
X3364557Y557518D01*
X3365049Y556436D01*
X3366033Y554074D01*
X3366328Y552696D01*
X3366624Y551319D01*
X3366820Y549744D01*
X3366919Y548170D01*
Y547973D01*
Y547481D01*
X3366820Y546694D01*
X3366722Y545710D01*
X3366525Y544529D01*
X3366328Y543348D01*
X3365935Y541971D01*
X3365443Y540692D01*
X3365344Y540495D01*
X3365148Y540101D01*
X3364852Y539511D01*
X3364360Y538625D01*
X3363672Y537740D01*
X3362983Y536755D01*
X3362097Y535673D01*
X3361015Y534689D01*
X3360916Y534591D01*
X3360523Y534295D01*
X3359834Y533803D01*
X3359047Y533312D01*
X3357964Y532721D01*
X3356685Y532032D01*
X3355308Y531442D01*
X3353733Y530851D01*
X3353536Y530753D01*
X3352946Y530655D01*
X3352060Y530458D01*
X3350880Y530163D01*
X3349404Y529867D01*
X3347632Y529671D01*
X3345664Y529572D01*
X3343598Y529474D01*
X3341728D01*
X3340548Y529572D01*
X3340351D01*
X3339662Y529671D01*
X3338875Y529769D01*
X3338088Y529867D01*
Y506743D01*
X3326772D01*
Y564111D01*
X3326968Y564209D01*
X3327362Y564406D01*
X3328051Y564603D01*
X3329035Y564996D01*
X3330216Y565292D01*
X3331495Y565685D01*
X3332971Y566079D01*
X3334545Y566472D01*
X3334742D01*
X3335332Y566571D01*
X3336218Y566768D01*
X3337399Y566964D01*
X3338776Y567063D01*
X3340351Y567260D01*
X3342122Y567358D01*
X3345074D01*
X3345861Y567260D01*
D02*
G37*
G36*
X3534396Y506743D02*
X3522981D01*
Y553680D01*
X3522883D01*
X3522784Y553582D01*
X3522489Y553385D01*
X3522096Y553188D01*
X3521013Y552696D01*
X3519636Y552106D01*
X3519537D01*
X3519340Y552008D01*
X3518947Y551811D01*
X3518356Y551614D01*
X3517766Y551417D01*
X3517077Y551220D01*
X3515503Y550728D01*
X3515404D01*
X3515109Y550630D01*
X3514716Y550532D01*
X3514224Y550335D01*
X3513535Y550236D01*
X3512846Y550039D01*
X3511173Y549646D01*
X3511075D01*
X3510780Y549548D01*
X3510386Y549449D01*
X3509796Y549351D01*
X3508418Y549056D01*
X3506844Y548760D01*
X3505171Y557321D01*
X3505269D01*
X3505663Y557419D01*
X3506253Y557518D01*
X3507040Y557715D01*
X3507926Y557813D01*
X3508910Y558108D01*
X3511075Y558600D01*
X3511173D01*
X3511567Y558797D01*
X3512157Y558895D01*
X3512944Y559191D01*
X3513830Y559486D01*
X3514814Y559781D01*
X3516782Y560568D01*
X3516880Y560667D01*
X3517274Y560765D01*
X3517766Y561060D01*
X3518356Y561356D01*
X3519144Y561749D01*
X3520029Y562143D01*
X3521702Y563225D01*
X3521800Y563323D01*
X3522096Y563520D01*
X3522489Y563816D01*
X3522981Y564209D01*
X3524260Y565095D01*
X3525441Y566275D01*
X3534396D01*
Y506743D01*
D02*
G37*
G36*
X3466696Y551122D02*
X3474962D01*
Y542659D01*
X3466696D01*
Y520815D01*
Y520716D01*
Y520323D01*
X3466795Y519929D01*
X3466893Y519339D01*
X3467090Y518650D01*
X3467287Y518059D01*
X3467680Y517469D01*
X3468172Y516977D01*
X3468271D01*
X3468468Y516780D01*
X3468763Y516682D01*
X3469156Y516485D01*
X3469747Y516288D01*
X3470337Y516091D01*
X3471026Y515993D01*
X3471813Y515895D01*
X3472404D01*
X3472896Y515993D01*
X3473584Y516091D01*
X3473781D01*
X3474076Y516190D01*
X3474568Y516387D01*
X3474962Y516583D01*
Y507236D01*
X3474765Y507137D01*
X3474273Y506940D01*
X3473388Y506743D01*
X3472108Y506448D01*
X3471813D01*
X3471420Y506350D01*
X3470928D01*
X3469747Y506252D01*
X3468271Y506153D01*
X3467680D01*
X3467188Y506252D01*
X3466106Y506350D01*
X3464630Y506547D01*
X3463056Y507039D01*
X3461481Y507629D01*
X3460005Y508416D01*
X3458726Y509597D01*
X3458628Y509794D01*
X3458234Y510286D01*
X3457742Y511073D01*
X3457250Y512155D01*
X3456660Y513631D01*
X3456168Y515501D01*
X3455774Y517567D01*
X3455676Y520028D01*
Y542659D01*
X3449968D01*
Y551122D01*
X3455676D01*
Y560962D01*
X3466696Y564209D01*
Y551122D01*
D02*
G37*
G36*
X3395061Y552008D02*
X3396144Y551909D01*
X3397521Y551712D01*
X3398899Y551319D01*
X3400375Y550925D01*
X3401851Y550335D01*
X3402048Y550236D01*
X3402441Y550039D01*
X3403130Y549646D01*
X3404016Y549056D01*
X3405000Y548367D01*
X3406082Y547481D01*
X3407164Y546497D01*
X3408148Y545415D01*
X3408247Y545316D01*
X3408542Y544923D01*
X3409034Y544234D01*
X3409624Y543348D01*
X3410215Y542266D01*
X3410805Y541085D01*
X3411494Y539707D01*
X3411986Y538133D01*
X3412084Y537936D01*
X3412183Y537444D01*
X3412380Y536559D01*
X3412675Y535378D01*
X3412970Y534000D01*
X3413167Y532426D01*
X3413265Y530753D01*
X3413364Y528884D01*
Y528785D01*
Y528687D01*
Y528391D01*
Y528096D01*
X3413265Y527112D01*
X3413167Y525932D01*
X3413068Y524456D01*
X3412773Y522881D01*
X3412478Y521307D01*
X3411986Y519634D01*
X3411888Y519437D01*
X3411789Y518945D01*
X3411494Y518158D01*
X3411002Y517174D01*
X3410510Y515993D01*
X3409821Y514714D01*
X3409034Y513435D01*
X3408148Y512254D01*
X3408050Y512155D01*
X3407656Y511762D01*
X3407164Y511171D01*
X3406377Y510483D01*
X3405492Y509695D01*
X3404409Y508908D01*
X3403228Y508121D01*
X3401851Y507432D01*
X3401654Y507334D01*
X3401162Y507137D01*
X3400375Y506940D01*
X3399391Y506645D01*
X3398112Y506252D01*
X3396636Y506055D01*
X3395061Y505858D01*
X3393290Y505760D01*
X3392503D01*
X3391519Y505858D01*
X3390436Y505956D01*
X3389059Y506153D01*
X3387583Y506448D01*
X3386107Y506842D01*
X3384631Y507432D01*
X3384434Y507531D01*
X3384040Y507728D01*
X3383352Y508121D01*
X3382466Y508712D01*
X3381482Y509400D01*
X3380400Y510188D01*
X3379317Y511171D01*
X3378333Y512254D01*
X3378235Y512352D01*
X3377940Y512844D01*
X3377448Y513435D01*
X3376857Y514320D01*
X3376267Y515403D01*
X3375676Y516682D01*
X3374988Y518059D01*
X3374496Y519634D01*
Y519732D01*
X3374397Y519831D01*
X3374299Y520421D01*
X3374102Y521307D01*
X3373905Y522389D01*
X3373610Y523767D01*
X3373413Y525341D01*
X3373315Y527112D01*
X3373216Y528884D01*
Y528982D01*
Y529080D01*
Y529375D01*
Y529769D01*
X3373315Y530655D01*
X3373413Y531934D01*
X3373512Y533312D01*
X3373807Y534886D01*
X3374102Y536559D01*
X3374496Y538133D01*
Y538231D01*
X3374594Y538330D01*
X3374692Y538822D01*
X3375086Y539609D01*
X3375480Y540593D01*
X3375972Y541774D01*
X3376660Y542955D01*
X3377448Y544234D01*
X3378333Y545415D01*
X3378432Y545513D01*
X3378825Y545907D01*
X3379317Y546497D01*
X3380104Y547186D01*
X3380990Y547973D01*
X3382072Y548859D01*
X3383253Y549646D01*
X3384631Y550335D01*
X3384828Y550433D01*
X3385320Y550630D01*
X3386107Y550925D01*
X3387189Y551220D01*
X3388468Y551515D01*
X3389944Y551811D01*
X3391519Y552008D01*
X3393290Y552106D01*
X3394077D01*
X3395061Y552008D01*
D02*
G37*
G36*
X3356095Y487260D02*
X3343008Y475452D01*
X3401162D01*
Y466695D01*
X3343008D01*
X3356095Y454887D01*
X3349502Y448294D01*
X3326673Y471123D01*
X3349502Y493853D01*
X3356095Y487260D01*
D02*
G37*
G36*
X2595640Y552007D02*
X2596722Y551909D01*
X2597017D01*
X2597608Y551811D01*
X2598395D01*
X2599281Y551712D01*
X2597214Y542364D01*
X2597116D01*
X2596821Y542462D01*
X2596427Y542561D01*
X2595738Y542758D01*
X2595049Y542856D01*
X2594164Y542955D01*
X2593278Y543053D01*
X2591212D01*
X2590228Y542955D01*
X2589145Y542758D01*
X2588949D01*
X2588260Y542561D01*
X2587473Y542364D01*
X2586587Y542069D01*
Y506743D01*
X2575468D01*
Y548859D01*
X2575665Y548957D01*
X2576058Y549055D01*
X2576845Y549351D01*
X2577731Y549646D01*
X2578912Y550039D01*
X2580289Y550433D01*
X2581765Y550728D01*
X2583438Y551122D01*
X2583635D01*
X2584225Y551318D01*
X2585209Y551417D01*
X2586489Y551614D01*
X2587965Y551811D01*
X2589637Y551909D01*
X2591605Y552106D01*
X2594557D01*
X2595640Y552007D01*
D02*
G37*
G36*
X2499405Y567259D02*
X2500290Y567161D01*
X2501373Y567062D01*
X2502553Y566964D01*
X2503833Y566669D01*
X2506588Y566078D01*
X2509441Y565193D01*
X2510819Y564602D01*
X2512098Y563914D01*
X2513377Y563028D01*
X2514558Y562143D01*
X2514657Y562044D01*
X2514853Y561946D01*
X2515149Y561650D01*
X2515444Y561159D01*
X2515936Y560667D01*
X2516428Y560076D01*
X2516920Y559289D01*
X2517510Y558403D01*
X2518101Y557518D01*
X2518593Y556435D01*
X2519577Y554074D01*
X2519872Y552696D01*
X2520167Y551318D01*
X2520364Y549744D01*
X2520462Y548170D01*
Y547973D01*
Y547481D01*
X2520364Y546694D01*
X2520265Y545710D01*
X2520069Y544529D01*
X2519872Y543348D01*
X2519478Y541971D01*
X2518986Y540691D01*
X2518888Y540495D01*
X2518691Y540101D01*
X2518396Y539510D01*
X2517904Y538625D01*
X2517215Y537739D01*
X2516526Y536755D01*
X2515641Y535673D01*
X2514558Y534689D01*
X2514460Y534591D01*
X2514066Y534295D01*
X2513377Y533803D01*
X2512590Y533311D01*
X2511508Y532721D01*
X2510229Y532032D01*
X2508851Y531442D01*
X2507277Y530851D01*
X2507080Y530753D01*
X2506489Y530654D01*
X2505604Y530458D01*
X2504423Y530163D01*
X2502947Y529867D01*
X2501176Y529670D01*
X2499208Y529572D01*
X2497141Y529474D01*
X2495272D01*
X2494091Y529572D01*
X2493894D01*
X2493205Y529670D01*
X2492418Y529769D01*
X2491631Y529867D01*
Y506743D01*
X2480315D01*
Y564111D01*
X2480512Y564209D01*
X2480905Y564406D01*
X2481594Y564602D01*
X2482578Y564996D01*
X2483759Y565291D01*
X2485038Y565685D01*
X2486514Y566078D01*
X2488089Y566472D01*
X2488285D01*
X2488876Y566571D01*
X2489761Y566767D01*
X2490942Y566964D01*
X2492320Y567062D01*
X2493894Y567259D01*
X2495665Y567358D01*
X2498617D01*
X2499405Y567259D01*
D02*
G37*
G36*
X2674458D02*
X2675442D01*
X2676426Y567062D01*
X2677607Y566964D01*
X2678886Y566767D01*
X2681543Y566177D01*
X2684298Y565291D01*
X2685577Y564799D01*
X2686857Y564111D01*
X2688136Y563422D01*
X2689218Y562536D01*
X2689317Y562438D01*
X2689513Y562339D01*
X2689710Y562044D01*
X2690104Y561650D01*
X2690497Y561159D01*
X2690989Y560568D01*
X2691580Y559879D01*
X2692072Y559092D01*
X2693154Y557222D01*
X2694040Y554959D01*
X2694433Y553680D01*
X2694729Y552303D01*
X2694827Y550925D01*
X2694925Y549351D01*
Y549252D01*
Y548957D01*
Y548465D01*
X2694827Y547875D01*
X2694729Y547186D01*
X2694630Y546399D01*
X2694237Y544726D01*
Y544627D01*
X2694138Y544332D01*
X2694040Y543938D01*
X2693843Y543348D01*
X2693253Y542069D01*
X2692564Y540495D01*
Y540396D01*
X2692367Y540199D01*
X2692170Y539806D01*
X2691875Y539314D01*
X2691088Y538133D01*
X2690104Y536755D01*
X2690005Y536657D01*
X2689907Y536460D01*
X2689612Y536165D01*
X2689317Y535673D01*
X2688431Y534689D01*
X2687447Y533508D01*
X2671900Y515993D01*
X2696106D01*
Y506743D01*
X2652909D01*
X2678394Y538527D01*
X2678493Y538625D01*
X2678689Y538920D01*
X2679083Y539412D01*
X2679477Y540003D01*
X2679969Y540790D01*
X2680559Y541577D01*
X2681641Y543348D01*
X2681740Y543447D01*
X2681838Y543840D01*
X2682133Y544332D01*
X2682429Y545021D01*
X2682625Y545808D01*
X2682921Y546694D01*
X2683019Y547678D01*
X2683117Y548760D01*
Y548957D01*
Y549449D01*
X2682921Y550236D01*
X2682724Y551122D01*
X2682429Y552204D01*
X2681838Y553287D01*
X2681149Y554369D01*
X2680165Y555353D01*
X2680067Y555451D01*
X2679575Y555746D01*
X2678985Y556140D01*
X2678001Y556632D01*
X2676820Y557124D01*
X2675344Y557518D01*
X2673671Y557813D01*
X2671703Y557911D01*
X2670522D01*
X2669735Y557813D01*
X2668849Y557715D01*
X2667767Y557616D01*
X2665307Y557222D01*
X2665209D01*
X2664717Y557124D01*
X2664126Y556927D01*
X2663241Y556731D01*
X2662355Y556435D01*
X2661273Y556140D01*
X2659108Y555353D01*
X2655861Y564111D01*
X2656057Y564209D01*
X2656549Y564406D01*
X2657238Y564701D01*
X2658321Y564996D01*
X2659501Y565390D01*
X2660879Y565783D01*
X2662355Y566177D01*
X2663929Y566472D01*
X2664126D01*
X2664717Y566571D01*
X2665504Y566767D01*
X2666685Y566964D01*
X2667964Y567062D01*
X2669440Y567259D01*
X2671014Y567358D01*
X2673769D01*
X2674458Y567259D01*
D02*
G37*
G36*
X2620240Y551122D02*
X2628505D01*
Y542659D01*
X2620240D01*
Y520814D01*
Y520716D01*
Y520322D01*
X2620338Y519929D01*
X2620437Y519338D01*
X2620633Y518650D01*
X2620830Y518059D01*
X2621224Y517469D01*
X2621716Y516977D01*
X2621814D01*
X2622011Y516780D01*
X2622306Y516682D01*
X2622700Y516485D01*
X2623290Y516288D01*
X2623881Y516091D01*
X2624569Y515993D01*
X2625357Y515894D01*
X2625947D01*
X2626439Y515993D01*
X2627128Y516091D01*
X2627325D01*
X2627620Y516190D01*
X2628112Y516386D01*
X2628505Y516583D01*
Y507235D01*
X2628309Y507137D01*
X2627817Y506940D01*
X2626931Y506743D01*
X2625652Y506448D01*
X2625357D01*
X2624963Y506350D01*
X2624471D01*
X2623290Y506251D01*
X2621814Y506153D01*
X2621224D01*
X2620732Y506251D01*
X2619649Y506350D01*
X2618173Y506546D01*
X2616599Y507038D01*
X2615025Y507629D01*
X2613549Y508416D01*
X2612269Y509597D01*
X2612171Y509794D01*
X2611777Y510286D01*
X2611285Y511073D01*
X2610793Y512155D01*
X2610203Y513631D01*
X2609711Y515501D01*
X2609317Y517567D01*
X2609219Y520027D01*
Y542659D01*
X2603512D01*
Y551122D01*
X2609219D01*
Y560962D01*
X2620240Y564209D01*
Y551122D01*
D02*
G37*
G36*
X2548605Y552007D02*
X2549687Y551909D01*
X2551065Y551712D01*
X2552442Y551318D01*
X2553918Y550925D01*
X2555394Y550335D01*
X2555591Y550236D01*
X2555985Y550039D01*
X2556673Y549646D01*
X2557559Y549055D01*
X2558543Y548366D01*
X2559625Y547481D01*
X2560708Y546497D01*
X2561692Y545414D01*
X2561790Y545316D01*
X2562085Y544923D01*
X2562577Y544234D01*
X2563168Y543348D01*
X2563758Y542266D01*
X2564349Y541085D01*
X2565037Y539707D01*
X2565529Y538133D01*
X2565628Y537936D01*
X2565726Y537444D01*
X2565923Y536558D01*
X2566218Y535378D01*
X2566513Y534000D01*
X2566710Y532426D01*
X2566809Y530753D01*
X2566907Y528883D01*
Y528785D01*
Y528687D01*
Y528391D01*
Y528096D01*
X2566809Y527112D01*
X2566710Y525931D01*
X2566612Y524455D01*
X2566317Y522881D01*
X2566021Y521307D01*
X2565529Y519634D01*
X2565431Y519437D01*
X2565333Y518945D01*
X2565037Y518158D01*
X2564545Y517174D01*
X2564053Y515993D01*
X2563365Y514714D01*
X2562577Y513434D01*
X2561692Y512254D01*
X2561593Y512155D01*
X2561200Y511762D01*
X2560708Y511171D01*
X2559921Y510483D01*
X2559035Y509695D01*
X2557953Y508908D01*
X2556772Y508121D01*
X2555394Y507432D01*
X2555197Y507334D01*
X2554705Y507137D01*
X2553918Y506940D01*
X2552934Y506645D01*
X2551655Y506251D01*
X2550179Y506055D01*
X2548605Y505858D01*
X2546833Y505759D01*
X2546046D01*
X2545062Y505858D01*
X2543980Y505956D01*
X2542602Y506153D01*
X2541126Y506448D01*
X2539650Y506842D01*
X2538174Y507432D01*
X2537977Y507531D01*
X2537584Y507727D01*
X2536895Y508121D01*
X2536009Y508711D01*
X2535025Y509400D01*
X2533943Y510187D01*
X2532861Y511171D01*
X2531877Y512254D01*
X2531778Y512352D01*
X2531483Y512844D01*
X2530991Y513434D01*
X2530401Y514320D01*
X2529810Y515403D01*
X2529220Y516682D01*
X2528531Y518059D01*
X2528039Y519634D01*
Y519732D01*
X2527941Y519831D01*
X2527842Y520421D01*
X2527645Y521307D01*
X2527449Y522389D01*
X2527153Y523766D01*
X2526957Y525341D01*
X2526858Y527112D01*
X2526760Y528883D01*
Y528982D01*
Y529080D01*
Y529375D01*
Y529769D01*
X2526858Y530654D01*
X2526957Y531934D01*
X2527055Y533311D01*
X2527350Y534886D01*
X2527645Y536558D01*
X2528039Y538133D01*
Y538231D01*
X2528137Y538330D01*
X2528236Y538822D01*
X2528629Y539609D01*
X2529023Y540593D01*
X2529515Y541774D01*
X2530204Y542955D01*
X2530991Y544234D01*
X2531877Y545414D01*
X2531975Y545513D01*
X2532369Y545907D01*
X2532861Y546497D01*
X2533648Y547186D01*
X2534533Y547973D01*
X2535616Y548859D01*
X2536797Y549646D01*
X2538174Y550335D01*
X2538371Y550433D01*
X2538863Y550630D01*
X2539650Y550925D01*
X2540733Y551220D01*
X2542012Y551515D01*
X2543488Y551811D01*
X2545062Y552007D01*
X2546833Y552106D01*
X2547621D01*
X2548605Y552007D01*
D02*
G37*
G36*
X2509638Y487260D02*
X2496551Y475452D01*
X2554705D01*
Y466695D01*
X2496551D01*
X2509638Y454887D01*
X2503045Y448294D01*
X2480217Y471123D01*
X2503045Y493853D01*
X2509638Y487260D01*
D02*
G37*
G36*
X1749183Y552007D02*
X1750265Y551909D01*
X1750561D01*
X1751151Y551811D01*
X1751938D01*
X1752824Y551712D01*
X1750757Y542364D01*
X1750659D01*
X1750364Y542462D01*
X1749970Y542561D01*
X1749282Y542758D01*
X1748593Y542856D01*
X1747707Y542955D01*
X1746822Y543053D01*
X1744755D01*
X1743771Y542955D01*
X1742689Y542758D01*
X1742492D01*
X1741803Y542561D01*
X1741016Y542364D01*
X1740130Y542069D01*
Y506743D01*
X1729011D01*
Y548859D01*
X1729208Y548957D01*
X1729601Y549055D01*
X1730389Y549351D01*
X1731274Y549646D01*
X1732455Y550039D01*
X1733833Y550433D01*
X1735309Y550728D01*
X1736982Y551122D01*
X1737178D01*
X1737769Y551318D01*
X1738753Y551417D01*
X1740032Y551614D01*
X1741508Y551811D01*
X1743181Y551909D01*
X1745149Y552106D01*
X1748101D01*
X1749183Y552007D01*
D02*
G37*
G36*
X1652948Y567259D02*
X1653833Y567161D01*
X1654916Y567062D01*
X1656097Y566964D01*
X1657376Y566669D01*
X1660131Y566078D01*
X1662985Y565193D01*
X1664362Y564602D01*
X1665641Y563914D01*
X1666921Y563028D01*
X1668101Y562143D01*
X1668200Y562044D01*
X1668397Y561946D01*
X1668692Y561650D01*
X1668987Y561159D01*
X1669479Y560667D01*
X1669971Y560076D01*
X1670463Y559289D01*
X1671053Y558403D01*
X1671644Y557518D01*
X1672136Y556435D01*
X1673120Y554074D01*
X1673415Y552696D01*
X1673710Y551318D01*
X1673907Y549744D01*
X1674005Y548170D01*
Y547973D01*
Y547481D01*
X1673907Y546694D01*
X1673809Y545710D01*
X1673612Y544529D01*
X1673415Y543348D01*
X1673022Y541971D01*
X1672530Y540691D01*
X1672431Y540495D01*
X1672234Y540101D01*
X1671939Y539510D01*
X1671447Y538625D01*
X1670758Y537739D01*
X1670070Y536755D01*
X1669184Y535673D01*
X1668101Y534689D01*
X1668003Y534591D01*
X1667610Y534295D01*
X1666921Y533803D01*
X1666133Y533311D01*
X1665051Y532721D01*
X1663772Y532032D01*
X1662394Y531442D01*
X1660820Y530851D01*
X1660623Y530753D01*
X1660033Y530654D01*
X1659147Y530458D01*
X1657966Y530163D01*
X1656490Y529867D01*
X1654719Y529670D01*
X1652751Y529572D01*
X1650685Y529474D01*
X1648815D01*
X1647634Y529572D01*
X1647438D01*
X1646749Y529670D01*
X1645961Y529769D01*
X1645174Y529867D01*
Y506743D01*
X1633858D01*
Y564111D01*
X1634055Y564209D01*
X1634449Y564406D01*
X1635138Y564602D01*
X1636121Y564996D01*
X1637302Y565291D01*
X1638582Y565685D01*
X1640057Y566078D01*
X1641632Y566472D01*
X1641829D01*
X1642419Y566571D01*
X1643305Y566767D01*
X1644486Y566964D01*
X1645863Y567062D01*
X1647438Y567259D01*
X1649209Y567358D01*
X1652161D01*
X1652948Y567259D01*
D02*
G37*
G36*
X1829281D02*
X1830068D01*
X1831052Y567161D01*
X1832036Y566964D01*
X1833118Y566866D01*
X1835480Y566374D01*
X1837841Y565587D01*
X1840203Y564504D01*
X1841187Y563914D01*
X1842171Y563126D01*
X1842270D01*
X1842368Y562930D01*
X1842958Y562339D01*
X1843745Y561454D01*
X1844631Y560174D01*
X1845517Y558600D01*
X1846206Y556731D01*
X1846796Y554467D01*
X1846894Y553287D01*
X1846993Y552007D01*
Y551909D01*
Y551614D01*
Y551220D01*
X1846894Y550630D01*
X1846697Y549252D01*
X1846206Y547678D01*
Y547579D01*
X1846107Y547284D01*
X1845910Y546890D01*
X1845615Y546399D01*
X1844926Y545218D01*
X1843942Y543938D01*
X1843844Y543840D01*
X1843647Y543643D01*
X1843352Y543348D01*
X1842958Y542955D01*
X1841876Y541971D01*
X1840597Y540888D01*
X1840498Y540790D01*
X1840302Y540691D01*
X1839908Y540396D01*
X1839514Y540199D01*
X1838235Y539510D01*
X1836858Y538822D01*
Y538625D01*
X1836956D01*
X1837251Y538527D01*
X1837743Y538330D01*
X1838333Y538133D01*
X1839022Y537838D01*
X1839810Y537543D01*
X1841384Y536657D01*
X1841482Y536558D01*
X1841777Y536460D01*
X1842171Y536165D01*
X1842663Y535870D01*
X1843942Y534886D01*
X1845222Y533606D01*
X1845320Y533508D01*
X1845517Y533311D01*
X1845812Y532918D01*
X1846206Y532426D01*
X1846697Y531835D01*
X1847091Y531048D01*
X1847977Y529375D01*
X1848075Y529277D01*
X1848174Y528982D01*
X1848370Y528391D01*
X1848567Y527801D01*
X1848764Y526915D01*
X1848862Y526030D01*
X1849059Y524947D01*
Y523865D01*
Y523668D01*
Y523176D01*
X1848961Y522389D01*
X1848862Y521405D01*
X1848666Y520224D01*
X1848370Y518945D01*
X1847977Y517666D01*
X1847485Y516386D01*
X1847386Y516288D01*
X1847189Y515796D01*
X1846796Y515206D01*
X1846304Y514418D01*
X1845714Y513533D01*
X1844926Y512549D01*
X1844041Y511565D01*
X1842958Y510679D01*
X1842860Y510581D01*
X1842466Y510286D01*
X1841876Y509892D01*
X1840990Y509302D01*
X1840006Y508711D01*
X1838727Y508121D01*
X1837350Y507531D01*
X1835873Y507038D01*
X1835677Y506940D01*
X1835086Y506842D01*
X1834299Y506645D01*
X1833118Y506448D01*
X1831642Y506153D01*
X1830068Y505956D01*
X1828198Y505858D01*
X1826230Y505759D01*
X1825443D01*
X1824459Y505858D01*
X1823278D01*
X1821901Y505956D01*
X1820228Y506153D01*
X1818555Y506350D01*
X1816784Y506645D01*
X1816587D01*
X1815997Y506842D01*
X1815111Y506940D01*
X1813930Y507235D01*
X1812651Y507531D01*
X1811274Y507924D01*
X1809797Y508416D01*
X1808420Y508908D01*
X1811962Y517666D01*
X1812061D01*
X1812454Y517469D01*
X1813045Y517272D01*
X1813734Y516977D01*
X1814717Y516682D01*
X1815800Y516386D01*
X1816981Y516091D01*
X1818358Y515796D01*
X1818555D01*
X1819047Y515698D01*
X1819736Y515599D01*
X1820720Y515501D01*
X1821901Y515403D01*
X1823180Y515304D01*
X1824557Y515206D01*
X1826919D01*
X1827903Y515304D01*
X1829084Y515501D01*
X1830461Y515796D01*
X1831839Y516190D01*
X1833217Y516780D01*
X1834398Y517567D01*
X1834496Y517666D01*
X1834889Y517961D01*
X1835381Y518551D01*
X1835972Y519240D01*
X1836464Y520126D01*
X1836956Y521208D01*
X1837350Y522487D01*
X1837448Y523865D01*
Y523963D01*
Y524259D01*
X1837350Y524750D01*
X1837251Y525242D01*
X1836956Y526620D01*
X1836562Y527309D01*
X1836169Y527998D01*
X1836070Y528096D01*
X1835972Y528293D01*
X1835677Y528588D01*
X1835283Y528982D01*
X1834791Y529474D01*
X1834102Y529966D01*
X1833414Y530458D01*
X1832626Y530851D01*
X1832528Y530950D01*
X1832233Y531048D01*
X1831741Y531245D01*
X1831150Y531540D01*
X1830363Y531835D01*
X1829477Y532130D01*
X1828395Y532426D01*
X1827313Y532622D01*
X1827214D01*
X1826821Y532721D01*
X1826132Y532819D01*
X1825345Y533016D01*
X1824361Y533115D01*
X1823278Y533213D01*
X1821999Y533311D01*
X1819736D01*
Y541577D01*
X1820326D01*
X1821015Y541675D01*
X1821901Y541774D01*
X1822983Y541872D01*
X1824065Y542069D01*
X1826329Y542561D01*
X1826427D01*
X1826821Y542659D01*
X1827411Y542856D01*
X1828100Y543151D01*
X1829674Y543742D01*
X1831347Y544627D01*
X1831446Y544726D01*
X1831642Y544824D01*
X1832036Y545119D01*
X1832528Y545513D01*
X1833512Y546399D01*
X1834496Y547481D01*
X1834594Y547579D01*
X1834693Y547776D01*
X1834889Y548071D01*
X1835086Y548563D01*
X1835480Y549744D01*
X1835677Y550433D01*
Y551122D01*
Y551220D01*
Y551614D01*
X1835578Y552204D01*
X1835381Y552991D01*
X1835086Y553779D01*
X1834594Y554566D01*
X1834004Y555451D01*
X1833217Y556140D01*
X1833118Y556239D01*
X1832725Y556435D01*
X1832233Y556731D01*
X1831446Y557124D01*
X1830363Y557419D01*
X1829182Y557715D01*
X1827805Y557911D01*
X1826132Y558010D01*
X1824951D01*
X1824164Y557911D01*
X1823180Y557813D01*
X1821999Y557715D01*
X1819539Y557222D01*
X1819342D01*
X1818949Y557124D01*
X1818260Y556927D01*
X1817473Y556731D01*
X1816489Y556435D01*
X1815406Y556140D01*
X1813143Y555353D01*
X1809896Y564111D01*
X1810093Y564209D01*
X1810585Y564406D01*
X1811372Y564701D01*
X1812356Y564996D01*
X1813537Y565390D01*
X1815013Y565783D01*
X1816587Y566177D01*
X1818260Y566472D01*
X1818457D01*
X1819047Y566571D01*
X1819933Y566767D01*
X1821212Y566964D01*
X1822590Y567062D01*
X1824164Y567259D01*
X1825935Y567358D01*
X1828592D01*
X1829281Y567259D01*
D02*
G37*
G36*
X1773783Y551122D02*
X1782049D01*
Y542659D01*
X1773783D01*
Y520814D01*
Y520716D01*
Y520322D01*
X1773881Y519929D01*
X1773980Y519338D01*
X1774177Y518650D01*
X1774373Y518059D01*
X1774767Y517469D01*
X1775259Y516977D01*
X1775358D01*
X1775554Y516780D01*
X1775850Y516682D01*
X1776243Y516485D01*
X1776833Y516288D01*
X1777424Y516091D01*
X1778113Y515993D01*
X1778900Y515894D01*
X1779490D01*
X1779982Y515993D01*
X1780671Y516091D01*
X1780868D01*
X1781163Y516190D01*
X1781655Y516386D01*
X1782049Y516583D01*
Y507235D01*
X1781852Y507137D01*
X1781360Y506940D01*
X1780474Y506743D01*
X1779195Y506448D01*
X1778900D01*
X1778506Y506350D01*
X1778014D01*
X1776833Y506251D01*
X1775358Y506153D01*
X1774767D01*
X1774275Y506251D01*
X1773193Y506350D01*
X1771717Y506546D01*
X1770142Y507038D01*
X1768568Y507629D01*
X1767092Y508416D01*
X1765813Y509597D01*
X1765714Y509794D01*
X1765321Y510286D01*
X1764829Y511073D01*
X1764337Y512155D01*
X1763746Y513631D01*
X1763254Y515501D01*
X1762861Y517567D01*
X1762762Y520027D01*
Y542659D01*
X1757055D01*
Y551122D01*
X1762762D01*
Y560962D01*
X1773783Y564209D01*
Y551122D01*
D02*
G37*
G36*
X1702148Y552007D02*
X1703230Y551909D01*
X1704608Y551712D01*
X1705986Y551318D01*
X1707461Y550925D01*
X1708938Y550335D01*
X1709134Y550236D01*
X1709528Y550039D01*
X1710217Y549646D01*
X1711102Y549055D01*
X1712086Y548366D01*
X1713169Y547481D01*
X1714251Y546497D01*
X1715235Y545414D01*
X1715333Y545316D01*
X1715629Y544923D01*
X1716121Y544234D01*
X1716711Y543348D01*
X1717302Y542266D01*
X1717892Y541085D01*
X1718581Y539707D01*
X1719073Y538133D01*
X1719171Y537936D01*
X1719270Y537444D01*
X1719466Y536558D01*
X1719762Y535378D01*
X1720057Y534000D01*
X1720254Y532426D01*
X1720352Y530753D01*
X1720450Y528883D01*
Y528785D01*
Y528687D01*
Y528391D01*
Y528096D01*
X1720352Y527112D01*
X1720254Y525931D01*
X1720155Y524455D01*
X1719860Y522881D01*
X1719565Y521307D01*
X1719073Y519634D01*
X1718974Y519437D01*
X1718876Y518945D01*
X1718581Y518158D01*
X1718089Y517174D01*
X1717597Y515993D01*
X1716908Y514714D01*
X1716121Y513434D01*
X1715235Y512254D01*
X1715137Y512155D01*
X1714743Y511762D01*
X1714251Y511171D01*
X1713464Y510483D01*
X1712578Y509695D01*
X1711496Y508908D01*
X1710315Y508121D01*
X1708938Y507432D01*
X1708741Y507334D01*
X1708249Y507137D01*
X1707461Y506940D01*
X1706477Y506645D01*
X1705198Y506251D01*
X1703722Y506055D01*
X1702148Y505858D01*
X1700377Y505759D01*
X1699590D01*
X1698605Y505858D01*
X1697523Y505956D01*
X1696146Y506153D01*
X1694669Y506448D01*
X1693194Y506842D01*
X1691717Y507432D01*
X1691521Y507531D01*
X1691127Y507727D01*
X1690438Y508121D01*
X1689553Y508711D01*
X1688569Y509400D01*
X1687486Y510187D01*
X1686404Y511171D01*
X1685420Y512254D01*
X1685322Y512352D01*
X1685026Y512844D01*
X1684534Y513434D01*
X1683944Y514320D01*
X1683353Y515403D01*
X1682763Y516682D01*
X1682074Y518059D01*
X1681582Y519634D01*
Y519732D01*
X1681484Y519831D01*
X1681386Y520421D01*
X1681189Y521307D01*
X1680992Y522389D01*
X1680697Y523766D01*
X1680500Y525341D01*
X1680401Y527112D01*
X1680303Y528883D01*
Y528982D01*
Y529080D01*
Y529375D01*
Y529769D01*
X1680401Y530654D01*
X1680500Y531934D01*
X1680598Y533311D01*
X1680893Y534886D01*
X1681189Y536558D01*
X1681582Y538133D01*
Y538231D01*
X1681681Y538330D01*
X1681779Y538822D01*
X1682173Y539609D01*
X1682566Y540593D01*
X1683058Y541774D01*
X1683747Y542955D01*
X1684534Y544234D01*
X1685420Y545414D01*
X1685518Y545513D01*
X1685912Y545907D01*
X1686404Y546497D01*
X1687191Y547186D01*
X1688077Y547973D01*
X1689159Y548859D01*
X1690340Y549646D01*
X1691717Y550335D01*
X1691914Y550433D01*
X1692406Y550630D01*
X1693194Y550925D01*
X1694276Y551220D01*
X1695555Y551515D01*
X1697031Y551811D01*
X1698605Y552007D01*
X1700377Y552106D01*
X1701164D01*
X1702148Y552007D01*
D02*
G37*
G36*
X1663181Y487260D02*
X1650094Y475452D01*
X1708249D01*
Y466695D01*
X1650094D01*
X1663181Y454887D01*
X1656589Y448294D01*
X1633760Y471123D01*
X1656589Y493853D01*
X1663181Y487260D01*
D02*
G37*
G36*
X224146Y1740684D02*
X224343Y1740291D01*
X224540Y1739602D01*
X224934Y1738618D01*
X225229Y1737437D01*
X225622Y1736158D01*
X226016Y1734682D01*
X226410Y1733107D01*
Y1732911D01*
X226508Y1732320D01*
X226705Y1731435D01*
X226901Y1730254D01*
X227000Y1728876D01*
X227197Y1727302D01*
X227295Y1725531D01*
Y1722579D01*
X227197Y1721791D01*
X227098Y1720906D01*
X227000Y1719823D01*
X226901Y1718643D01*
X226606Y1717363D01*
X226016Y1714608D01*
X225130Y1711755D01*
X224540Y1710377D01*
X223851Y1709098D01*
X222965Y1707819D01*
X222080Y1706638D01*
X221982Y1706539D01*
X221883Y1706343D01*
X221588Y1706047D01*
X221096Y1705752D01*
X220604Y1705260D01*
X220013Y1704768D01*
X219226Y1704276D01*
X218341Y1703686D01*
X217455Y1703095D01*
X216373Y1702603D01*
X214011Y1701619D01*
X212633Y1701324D01*
X211256Y1701029D01*
X209681Y1700832D01*
X208107Y1700734D01*
X207910D01*
X207418D01*
X206631Y1700832D01*
X205647Y1700931D01*
X204466Y1701127D01*
X203286Y1701324D01*
X201908Y1701718D01*
X200629Y1702210D01*
X200432Y1702308D01*
X200038Y1702505D01*
X199448Y1702800D01*
X198562Y1703292D01*
X197677Y1703981D01*
X196693Y1704670D01*
X195610Y1705555D01*
X194626Y1706638D01*
X194528Y1706736D01*
X194233Y1707130D01*
X193741Y1707819D01*
X193249Y1708606D01*
X192658Y1709688D01*
X191970Y1710967D01*
X191379Y1712345D01*
X190789Y1713919D01*
X190690Y1714116D01*
X190592Y1714707D01*
X190395Y1715592D01*
X190100Y1716773D01*
X189805Y1718249D01*
X189608Y1720020D01*
X189510Y1721988D01*
X189411Y1724055D01*
Y1725924D01*
X189510Y1727105D01*
Y1727302D01*
X189608Y1727991D01*
X189706Y1728778D01*
X189805Y1729565D01*
X166681D01*
Y1740881D01*
X224048D01*
X224146Y1740684D01*
D02*
G37*
G36*
X190592Y1694338D02*
X191871Y1694239D01*
X193249Y1694141D01*
X194823Y1693846D01*
X196496Y1693551D01*
X198070Y1693157D01*
X198169D01*
X198267Y1693059D01*
X198759Y1692960D01*
X199546Y1692567D01*
X200530Y1692173D01*
X201711Y1691681D01*
X202892Y1690992D01*
X204171Y1690205D01*
X205352Y1689319D01*
X205450Y1689221D01*
X205844Y1688827D01*
X206434Y1688335D01*
X207123Y1687548D01*
X207910Y1686663D01*
X208796Y1685580D01*
X209583Y1684399D01*
X210272Y1683022D01*
X210370Y1682825D01*
X210567Y1682333D01*
X210862Y1681546D01*
X211157Y1680463D01*
X211453Y1679184D01*
X211748Y1677708D01*
X211945Y1676134D01*
X212043Y1674363D01*
Y1673575D01*
X211945Y1672591D01*
X211846Y1671509D01*
X211649Y1670131D01*
X211256Y1668754D01*
X210862Y1667278D01*
X210272Y1665802D01*
X210173Y1665605D01*
X209977Y1665211D01*
X209583Y1664523D01*
X208993Y1663637D01*
X208304Y1662653D01*
X207418Y1661571D01*
X206434Y1660488D01*
X205352Y1659504D01*
X205254Y1659406D01*
X204860Y1659111D01*
X204171Y1658619D01*
X203286Y1658028D01*
X202203Y1657438D01*
X201022Y1656847D01*
X199645Y1656159D01*
X198070Y1655667D01*
X197874Y1655568D01*
X197381Y1655470D01*
X196496Y1655273D01*
X195315Y1654978D01*
X193938Y1654683D01*
X192363Y1654486D01*
X190690Y1654387D01*
X188821Y1654289D01*
X188722D01*
X188624D01*
X188329D01*
X188034D01*
X187049Y1654387D01*
X185869Y1654486D01*
X184393Y1654584D01*
X182818Y1654879D01*
X181244Y1655175D01*
X179571Y1655667D01*
X179374Y1655765D01*
X178882Y1655863D01*
X178095Y1656159D01*
X177111Y1656651D01*
X175930Y1657143D01*
X174651Y1657831D01*
X173372Y1658619D01*
X172191Y1659504D01*
X172093Y1659603D01*
X171699Y1659996D01*
X171109Y1660488D01*
X170420Y1661275D01*
X169633Y1662161D01*
X168845Y1663243D01*
X168058Y1664424D01*
X167369Y1665802D01*
X167271Y1665999D01*
X167074Y1666491D01*
X166877Y1667278D01*
X166582Y1668262D01*
X166189Y1669541D01*
X165992Y1671017D01*
X165795Y1672591D01*
X165697Y1674363D01*
Y1675150D01*
X165795Y1676134D01*
X165893Y1677216D01*
X166090Y1678594D01*
X166386Y1680070D01*
X166779Y1681546D01*
X167369Y1683022D01*
X167468Y1683219D01*
X167665Y1683612D01*
X168058Y1684301D01*
X168649Y1685187D01*
X169338Y1686171D01*
X170125Y1687253D01*
X171109Y1688335D01*
X172191Y1689319D01*
X172290Y1689418D01*
X172781Y1689713D01*
X173372Y1690205D01*
X174257Y1690795D01*
X175340Y1691386D01*
X176619Y1691976D01*
X177997Y1692665D01*
X179571Y1693157D01*
X179669D01*
X179768Y1693255D01*
X180358Y1693354D01*
X181244Y1693551D01*
X182326Y1693747D01*
X183704Y1694043D01*
X185278Y1694239D01*
X187049Y1694338D01*
X188821Y1694436D01*
X188919D01*
X189018D01*
X189313D01*
X189706D01*
X190592Y1694338D01*
D02*
G37*
G36*
X211059Y1637561D02*
X183802Y1631165D01*
X183704D01*
X183409Y1631067D01*
X183015Y1630968D01*
X182523Y1630870D01*
X181834Y1630771D01*
X181145Y1630575D01*
X179473Y1630378D01*
X179374D01*
X179079Y1630279D01*
X178685D01*
X178292Y1630181D01*
X177308Y1630083D01*
X176914D01*
X176619D01*
Y1629886D01*
X176718D01*
X177209Y1629787D01*
X177505Y1629689D01*
X177997Y1629591D01*
X178587Y1629492D01*
X179276Y1629394D01*
X179374D01*
X179669Y1629295D01*
X180063D01*
X180654Y1629197D01*
X181244Y1629000D01*
X182031Y1628803D01*
X183802Y1628410D01*
X211059Y1621227D01*
Y1610895D01*
X183802Y1603810D01*
X183704D01*
X183409Y1603711D01*
X182917Y1603613D01*
X182326Y1603416D01*
X180850Y1603121D01*
X179276Y1602826D01*
X179178D01*
X178981Y1602727D01*
X178587D01*
X178194Y1602629D01*
X177308Y1602432D01*
X176914Y1602334D01*
X176619Y1602235D01*
Y1602137D01*
X176718D01*
X177209Y1602039D01*
X177505D01*
X177997Y1601940D01*
X178587D01*
X179276Y1601842D01*
X179374D01*
X179669Y1601743D01*
X180063D01*
X180654Y1601645D01*
X181244Y1601448D01*
X182031Y1601350D01*
X183802Y1600956D01*
X211059Y1594659D01*
Y1583343D01*
X166681Y1596233D01*
Y1607844D01*
X191871Y1614732D01*
X191970D01*
X192265Y1614831D01*
X192757Y1614929D01*
X193249Y1615126D01*
X194626Y1615421D01*
X196102Y1615716D01*
X196201D01*
X196398D01*
X196693Y1615815D01*
X197086D01*
X197972Y1615913D01*
X198267D01*
X198562D01*
Y1616110D01*
X198365D01*
X197874Y1616208D01*
X196988Y1616405D01*
X195807Y1616602D01*
X195709D01*
X195512Y1616700D01*
X195118D01*
X194626Y1616799D01*
X194036Y1616897D01*
X193446Y1617094D01*
X191871Y1617487D01*
X166681Y1624277D01*
Y1635888D01*
X211059Y1648779D01*
Y1637561D01*
D02*
G37*
G36*
X190690Y1577832D02*
X191871Y1577734D01*
X193347Y1577635D01*
X194922Y1577340D01*
X196594Y1577045D01*
X198169Y1576553D01*
X198267D01*
X198365Y1576455D01*
X198857Y1576258D01*
X199743Y1575963D01*
X200727Y1575569D01*
X201908Y1574979D01*
X203089Y1574290D01*
X204368Y1573404D01*
X205549Y1572519D01*
X205647Y1572420D01*
X206041Y1572027D01*
X206631Y1571436D01*
X207320Y1570747D01*
X208009Y1569763D01*
X208796Y1568681D01*
X209583Y1567402D01*
X210272Y1566024D01*
X210370Y1565827D01*
X210567Y1565335D01*
X210862Y1564548D01*
X211157Y1563466D01*
X211453Y1562187D01*
X211748Y1560711D01*
X211945Y1559136D01*
X212043Y1557365D01*
Y1556578D01*
X211945Y1555692D01*
X211846Y1554610D01*
X211649Y1553331D01*
X211453Y1551953D01*
X211059Y1550575D01*
X210567Y1549198D01*
X210469Y1549001D01*
X210272Y1548607D01*
X209977Y1547919D01*
X209485Y1547131D01*
X208894Y1546147D01*
X208206Y1545163D01*
X207418Y1544179D01*
X206434Y1543294D01*
X206336Y1543195D01*
X205942Y1542900D01*
X205352Y1542408D01*
X204663Y1541916D01*
X203679Y1541326D01*
X202597Y1540637D01*
X201416Y1540047D01*
X200038Y1539555D01*
X199841Y1539456D01*
X199448Y1539358D01*
X198661Y1539161D01*
X197677Y1538866D01*
X196496Y1538669D01*
X195020Y1538472D01*
X193544Y1538374D01*
X191871Y1538275D01*
X189903D01*
X189706D01*
X189313D01*
X188722Y1538374D01*
X188034Y1538472D01*
X184196Y1567008D01*
X184097D01*
X183999D01*
X183409Y1566811D01*
X182523Y1566615D01*
X181441Y1566221D01*
X180260Y1565631D01*
X178981Y1564942D01*
X177800Y1564056D01*
X176816Y1562974D01*
X176718Y1562777D01*
X176422Y1562383D01*
X176029Y1561695D01*
X175635Y1560711D01*
X175242Y1559530D01*
X174848Y1558152D01*
X174553Y1556479D01*
X174454Y1554708D01*
Y1553429D01*
X174553Y1552642D01*
X174651Y1551658D01*
X174750Y1550477D01*
X175242Y1548115D01*
Y1547919D01*
X175340Y1547525D01*
X175537Y1546935D01*
X175832Y1546147D01*
X176029Y1545262D01*
X176422Y1544278D01*
X177209Y1542408D01*
X168845Y1539161D01*
X168747Y1539259D01*
X168649Y1539653D01*
X168353Y1540243D01*
X168058Y1541129D01*
X167665Y1542211D01*
X167271Y1543392D01*
X166976Y1544770D01*
X166582Y1546344D01*
Y1546541D01*
X166484Y1547131D01*
X166287Y1548017D01*
X166189Y1549099D01*
X165992Y1550477D01*
X165795Y1552051D01*
X165697Y1553823D01*
Y1556479D01*
X165795Y1557562D01*
X165893Y1558841D01*
X166090Y1560415D01*
X166386Y1561990D01*
X166779Y1563663D01*
X167369Y1565237D01*
X167468Y1565434D01*
X167665Y1565926D01*
X168058Y1566713D01*
X168550Y1567697D01*
X169239Y1568779D01*
X170026Y1569960D01*
X171010Y1571141D01*
X172093Y1572223D01*
X172191Y1572322D01*
X172683Y1572715D01*
X173274Y1573207D01*
X174159Y1573798D01*
X175242Y1574487D01*
X176521Y1575274D01*
X177898Y1575963D01*
X179473Y1576553D01*
X179571D01*
X179669Y1576651D01*
X180260Y1576750D01*
X181145Y1576947D01*
X182228Y1577242D01*
X183704Y1577537D01*
X185278Y1577734D01*
X186951Y1577832D01*
X188821Y1577931D01*
X188919D01*
X189018D01*
X189313D01*
X189706D01*
X190690Y1577832D01*
D02*
G37*
G36*
X208894Y1529518D02*
X208993Y1529124D01*
X209288Y1528337D01*
X209583Y1527451D01*
X209977Y1526271D01*
X210370Y1524893D01*
X210666Y1523417D01*
X211059Y1521744D01*
Y1521547D01*
X211256Y1520957D01*
X211354Y1519973D01*
X211551Y1518694D01*
X211748Y1517218D01*
X211846Y1515545D01*
X212043Y1513577D01*
Y1510625D01*
X211945Y1509543D01*
X211846Y1508460D01*
Y1508165D01*
X211748Y1507575D01*
Y1506787D01*
X211649Y1505902D01*
X202302Y1507968D01*
Y1508067D01*
X202400Y1508362D01*
X202498Y1508755D01*
X202695Y1509444D01*
X202793Y1510133D01*
X202892Y1511019D01*
X202990Y1511904D01*
Y1513971D01*
X202892Y1514955D01*
X202695Y1516037D01*
Y1516234D01*
X202498Y1516923D01*
X202302Y1517710D01*
X202006Y1518595D01*
X166681D01*
Y1529715D01*
X208796D01*
X208894Y1529518D01*
D02*
G37*
G36*
X226213Y1466345D02*
X166681D01*
Y1477956D01*
X226213D01*
Y1466345D01*
D02*
G37*
G36*
X208894Y1455619D02*
X208993Y1455226D01*
X209288Y1454439D01*
X209583Y1453553D01*
X209977Y1452372D01*
X210370Y1450995D01*
X210666Y1449617D01*
X211059Y1448043D01*
Y1447846D01*
X211256Y1447255D01*
X211354Y1446370D01*
X211551Y1445189D01*
X211748Y1443713D01*
X211846Y1442040D01*
X212043Y1440171D01*
Y1437120D01*
X211945Y1436431D01*
Y1435644D01*
X211846Y1434759D01*
X211748Y1433676D01*
X211551Y1432594D01*
X211059Y1430134D01*
X210370Y1427772D01*
X209386Y1425509D01*
X208796Y1424427D01*
X208107Y1423541D01*
Y1423443D01*
X207910Y1423344D01*
X207418Y1422852D01*
X206533Y1422065D01*
X205254Y1421179D01*
X203679Y1420392D01*
X201810Y1419605D01*
X199546Y1419113D01*
X198267Y1418916D01*
X196988D01*
X166681D01*
Y1430134D01*
X195905D01*
X196102D01*
X196496D01*
X197086Y1430232D01*
X197775Y1430331D01*
X198661Y1430626D01*
X199546Y1430921D01*
X200333Y1431413D01*
X201121Y1432102D01*
X201219Y1432200D01*
X201416Y1432495D01*
X201711Y1432889D01*
X202105Y1433578D01*
X202400Y1434365D01*
X202695Y1435447D01*
X202892Y1436628D01*
X202990Y1438006D01*
Y1439187D01*
X202892Y1440367D01*
X202695Y1441745D01*
Y1442040D01*
X202597Y1442335D01*
X202498Y1442729D01*
X202302Y1443713D01*
X202006Y1444697D01*
X166681D01*
Y1455816D01*
X208796D01*
X208894Y1455619D01*
D02*
G37*
G36*
Y1408683D02*
X208993Y1408289D01*
X209288Y1407797D01*
X209583Y1407010D01*
X209878Y1406026D01*
X210272Y1404845D01*
X210666Y1403566D01*
X211059Y1401991D01*
Y1401795D01*
X211256Y1401204D01*
X211354Y1400319D01*
X211551Y1399236D01*
X211748Y1397760D01*
X211846Y1396186D01*
X212043Y1394513D01*
Y1391561D01*
X211945Y1390872D01*
X211846Y1389987D01*
X211748Y1388904D01*
X211551Y1387723D01*
X211256Y1386543D01*
X210567Y1383886D01*
X210075Y1382508D01*
X209485Y1381131D01*
X208796Y1379753D01*
X207910Y1378474D01*
X207025Y1377195D01*
X205942Y1376112D01*
X205844Y1376014D01*
X205647Y1375817D01*
X205352Y1375620D01*
X204860Y1375227D01*
X204171Y1374833D01*
X203482Y1374341D01*
X202597Y1373751D01*
X201613Y1373259D01*
X200432Y1372767D01*
X199153Y1372176D01*
X197775Y1371684D01*
X196299Y1371291D01*
X194626Y1370897D01*
X192855Y1370602D01*
X190986Y1370503D01*
X189018Y1370405D01*
X188919D01*
X188821D01*
X188525D01*
X188132D01*
X187148Y1370503D01*
X185967Y1370602D01*
X184491Y1370700D01*
X182917Y1370995D01*
X181244Y1371291D01*
X179669Y1371783D01*
X179473Y1371881D01*
X178981Y1371979D01*
X178194Y1372373D01*
X177209Y1372767D01*
X176029Y1373259D01*
X174848Y1373947D01*
X173569Y1374735D01*
X172388Y1375719D01*
X172290Y1375817D01*
X171896Y1376211D01*
X171404Y1376801D01*
X170715Y1377490D01*
X169928Y1378474D01*
X169239Y1379556D01*
X168452Y1380835D01*
X167763Y1382213D01*
X167665Y1382410D01*
X167566Y1382902D01*
X167271Y1383689D01*
X166976Y1384771D01*
X166681Y1386051D01*
X166484Y1387625D01*
X166287Y1389298D01*
X166189Y1391167D01*
Y1392348D01*
X166287Y1393529D01*
X166484Y1394808D01*
Y1395103D01*
X166582Y1395399D01*
X166681Y1395792D01*
X166877Y1396776D01*
X167173Y1397662D01*
X149067D01*
Y1408781D01*
X208796D01*
X208894Y1408683D01*
D02*
G37*
G36*
X211059Y1350823D02*
X181834D01*
X181736D01*
X181539D01*
X181145Y1350725D01*
X180752D01*
X179669Y1350430D01*
X178390Y1349839D01*
X177702Y1349446D01*
X177013Y1348954D01*
X176422Y1348363D01*
X175930Y1347576D01*
X175537Y1346789D01*
X175143Y1345707D01*
X174946Y1344624D01*
X174848Y1343247D01*
Y1341967D01*
X174946Y1340787D01*
X175143Y1339507D01*
Y1339409D01*
X175242Y1339212D01*
Y1338917D01*
X175340Y1338523D01*
X175537Y1337638D01*
X175832Y1336752D01*
X211059D01*
Y1325535D01*
X168845D01*
Y1325633D01*
X168747Y1325830D01*
X168649Y1326125D01*
X168452Y1326519D01*
X168058Y1327699D01*
X167566Y1329077D01*
Y1329175D01*
X167468Y1329372D01*
X167369Y1329864D01*
X167271Y1330356D01*
X167074Y1330947D01*
X166877Y1331734D01*
X166582Y1333407D01*
Y1333505D01*
X166484Y1333800D01*
Y1334292D01*
X166386Y1334883D01*
X166287Y1335571D01*
X166189Y1336359D01*
X165992Y1338228D01*
Y1338622D01*
X165893Y1339114D01*
Y1339803D01*
X165795Y1340491D01*
Y1341377D01*
X165697Y1343247D01*
Y1344132D01*
X165795Y1344723D01*
Y1345510D01*
X165893Y1346395D01*
X166189Y1348462D01*
X166681Y1350725D01*
X167271Y1353087D01*
X168255Y1355251D01*
X168845Y1356235D01*
X169534Y1357219D01*
Y1357318D01*
X169731Y1357416D01*
X170321Y1357908D01*
X170715Y1358302D01*
X171207Y1358695D01*
X171798Y1359089D01*
X172585Y1359581D01*
X173372Y1359975D01*
X174257Y1360467D01*
X175340Y1360860D01*
X176422Y1361155D01*
X177702Y1361549D01*
X179079Y1361746D01*
X180555Y1361844D01*
X182130Y1361943D01*
X211059D01*
Y1350823D01*
D02*
G37*
G36*
X118760Y1309594D02*
X130568Y1322779D01*
X137161Y1316088D01*
X114430Y1293259D01*
X91602Y1316088D01*
X98194Y1322779D01*
X110002Y1309594D01*
Y1367650D01*
X118760D01*
Y1309594D01*
D02*
G37*
G36*
X211059Y1312546D02*
X220899D01*
X224146Y1301525D01*
X211059D01*
Y1293259D01*
X202597D01*
Y1301525D01*
X180752D01*
X180654D01*
X180260D01*
X179866Y1301427D01*
X179276Y1301328D01*
X178587Y1301131D01*
X177997Y1300935D01*
X177406Y1300541D01*
X176914Y1300049D01*
Y1299951D01*
X176718Y1299754D01*
X176619Y1299459D01*
X176422Y1299065D01*
X176226Y1298475D01*
X176029Y1297884D01*
X175930Y1297195D01*
X175832Y1296408D01*
Y1295818D01*
X175930Y1295326D01*
X176029Y1294637D01*
Y1294440D01*
X176127Y1294145D01*
X176324Y1293653D01*
X176521Y1293259D01*
X167173D01*
X167074Y1293456D01*
X166877Y1293948D01*
X166681Y1294834D01*
X166386Y1296113D01*
Y1296408D01*
X166287Y1296802D01*
Y1297294D01*
X166189Y1298475D01*
X166090Y1299951D01*
Y1300541D01*
X166189Y1301033D01*
X166287Y1302115D01*
X166484Y1303591D01*
X166976Y1305166D01*
X167566Y1306740D01*
X168353Y1308216D01*
X169534Y1309495D01*
X169731Y1309594D01*
X170223Y1309987D01*
X171010Y1310479D01*
X172093Y1310971D01*
X173569Y1311562D01*
X175438Y1312054D01*
X177505Y1312447D01*
X179965Y1312546D01*
X202597D01*
Y1318253D01*
X211059D01*
Y1312546D01*
D02*
G37*
G36*
X4115994Y1417332D02*
X4073977D01*
X4073780D01*
X4073288D01*
X4072599Y1417233D01*
X4071714Y1417036D01*
X4070730Y1416741D01*
X4069746Y1416249D01*
X4068663Y1415659D01*
X4067778Y1414871D01*
X4067679Y1414773D01*
X4067384Y1414380D01*
X4067089Y1413888D01*
X4066695Y1413100D01*
X4066203Y1412215D01*
X4065908Y1411132D01*
X4065613Y1409951D01*
X4065515Y1408672D01*
Y1408082D01*
X4065613Y1407393D01*
X4065810Y1406507D01*
X4066105Y1405524D01*
X4066499Y1404441D01*
X4066990Y1403457D01*
X4067778Y1402473D01*
X4067876Y1402375D01*
X4068171Y1402080D01*
X4068663Y1401686D01*
X4069450Y1401194D01*
X4070336Y1400702D01*
X4071320Y1400308D01*
X4072599Y1400013D01*
X4073977Y1399915D01*
X4115994D01*
Y1388303D01*
X4074075D01*
X4073878D01*
X4073288D01*
X4072501Y1388402D01*
X4071419Y1388500D01*
X4070139Y1388697D01*
X4068762Y1388992D01*
X4067483Y1389386D01*
X4066105Y1389878D01*
X4066006Y1389976D01*
X4065515Y1390173D01*
X4064924Y1390567D01*
X4064137Y1390960D01*
X4063251Y1391649D01*
X4062267Y1392338D01*
X4061283Y1393224D01*
X4060398Y1394207D01*
X4060299Y1394306D01*
X4060004Y1394699D01*
X4059610Y1395290D01*
X4059119Y1395979D01*
X4058528Y1396963D01*
X4057938Y1398045D01*
X4057347Y1399226D01*
X4056855Y1400603D01*
Y1400800D01*
X4056659Y1401194D01*
X4056462Y1401981D01*
X4056265Y1402965D01*
X4056068Y1404146D01*
X4055871Y1405524D01*
X4055773Y1407098D01*
X4055675Y1408672D01*
Y1409361D01*
X4055773Y1410247D01*
X4055871Y1411329D01*
X4055970Y1412510D01*
X4056166Y1413888D01*
X4056462Y1415363D01*
X4056855Y1416741D01*
X4056954Y1416938D01*
X4057052Y1417332D01*
X4057347Y1418020D01*
X4057741Y1418906D01*
X4058233Y1419890D01*
X4058823Y1420972D01*
X4059610Y1422055D01*
X4060398Y1423137D01*
X4060496Y1423236D01*
X4060791Y1423629D01*
X4061283Y1424121D01*
X4061972Y1424711D01*
X4062858Y1425400D01*
X4063842Y1426089D01*
X4064924Y1426778D01*
X4066105Y1427467D01*
X4066302Y1427565D01*
X4066695Y1427664D01*
X4067483Y1427959D01*
X4068368Y1428156D01*
X4069549Y1428451D01*
X4070927Y1428746D01*
X4072403Y1428844D01*
X4074075Y1428943D01*
X4115994D01*
Y1417332D01*
D02*
G37*
G36*
X4098675Y1377578D02*
X4098774Y1377184D01*
X4099069Y1376692D01*
X4099364Y1375905D01*
X4099659Y1374921D01*
X4100053Y1373740D01*
X4100447Y1372461D01*
X4100840Y1370887D01*
Y1370690D01*
X4101037Y1370100D01*
X4101135Y1369214D01*
X4101332Y1368131D01*
X4101529Y1366656D01*
X4101627Y1365081D01*
X4101824Y1363408D01*
Y1360456D01*
X4101726Y1359767D01*
X4101627Y1358882D01*
X4101529Y1357800D01*
X4101332Y1356619D01*
X4101037Y1355438D01*
X4100348Y1352781D01*
X4099856Y1351403D01*
X4099266Y1350026D01*
X4098577Y1348648D01*
X4097691Y1347369D01*
X4096806Y1346090D01*
X4095723Y1345007D01*
X4095625Y1344909D01*
X4095428Y1344712D01*
X4095133Y1344515D01*
X4094641Y1344122D01*
X4093952Y1343728D01*
X4093263Y1343236D01*
X4092378Y1342646D01*
X4091394Y1342154D01*
X4090213Y1341662D01*
X4088934Y1341072D01*
X4087556Y1340580D01*
X4086080Y1340186D01*
X4084407Y1339792D01*
X4082636Y1339497D01*
X4080767Y1339399D01*
X4078798Y1339300D01*
X4078700D01*
X4078602D01*
X4078307D01*
X4077913D01*
X4076929Y1339399D01*
X4075748Y1339497D01*
X4074272Y1339595D01*
X4072698Y1339891D01*
X4071025Y1340186D01*
X4069450Y1340678D01*
X4069254Y1340776D01*
X4068762Y1340875D01*
X4067974Y1341268D01*
X4066990Y1341662D01*
X4065810Y1342154D01*
X4064629Y1342843D01*
X4063350Y1343630D01*
X4062169Y1344614D01*
X4062070Y1344712D01*
X4061677Y1345106D01*
X4061185Y1345696D01*
X4060496Y1346385D01*
X4059709Y1347369D01*
X4059020Y1348451D01*
X4058233Y1349731D01*
X4057544Y1351108D01*
X4057446Y1351305D01*
X4057347Y1351797D01*
X4057052Y1352584D01*
X4056757Y1353667D01*
X4056462Y1354946D01*
X4056265Y1356520D01*
X4056068Y1358193D01*
X4055970Y1360063D01*
Y1361244D01*
X4056068Y1362424D01*
X4056265Y1363704D01*
Y1363999D01*
X4056363Y1364294D01*
X4056462Y1364688D01*
X4056659Y1365671D01*
X4056954Y1366557D01*
X4038848D01*
Y1377676D01*
X4098577D01*
X4098675Y1377578D01*
D02*
G37*
G36*
X4067187Y1329755D02*
X4067089Y1329657D01*
X4066990Y1329362D01*
X4066794Y1328870D01*
X4066499Y1328280D01*
X4066203Y1327492D01*
X4065810Y1326607D01*
X4065121Y1324639D01*
Y1324540D01*
X4065023Y1324147D01*
X4064924Y1323556D01*
X4064727Y1322868D01*
X4064629Y1322080D01*
X4064432Y1321195D01*
X4064334Y1319325D01*
Y1318833D01*
X4064432Y1318243D01*
X4064530Y1317554D01*
X4064924Y1315979D01*
X4065219Y1315192D01*
X4065613Y1314504D01*
X4065711Y1314405D01*
X4065908Y1314208D01*
X4066203Y1313913D01*
X4066597Y1313520D01*
X4067089Y1313224D01*
X4067679Y1312929D01*
X4068368Y1312732D01*
X4069155Y1312634D01*
X4069254D01*
X4069549D01*
X4070041Y1312732D01*
X4070533Y1312831D01*
X4071123Y1313126D01*
X4071812Y1313421D01*
X4072403Y1313913D01*
X4072894Y1314602D01*
X4072993Y1314700D01*
X4073091Y1314995D01*
X4073387Y1315389D01*
X4073682Y1315979D01*
X4074075Y1316668D01*
X4074469Y1317456D01*
X4074863Y1318439D01*
X4075256Y1319522D01*
Y1319620D01*
X4075354Y1319916D01*
X4075551Y1320309D01*
X4075748Y1320899D01*
X4076043Y1321588D01*
X4076338Y1322277D01*
X4077027Y1323950D01*
Y1324048D01*
X4077224Y1324343D01*
X4077421Y1324737D01*
X4077716Y1325229D01*
X4078503Y1326607D01*
X4079487Y1327984D01*
X4079586Y1328083D01*
X4079782Y1328280D01*
X4080078Y1328673D01*
X4080471Y1329067D01*
X4081062Y1329559D01*
X4081652Y1330051D01*
X4083128Y1331035D01*
X4083227D01*
X4083522Y1331232D01*
X4084014Y1331428D01*
X4084702Y1331625D01*
X4085490Y1331822D01*
X4086474Y1332019D01*
X4087556Y1332117D01*
X4088737Y1332216D01*
X4088835D01*
X4089032D01*
X4089327D01*
X4089721Y1332117D01*
X4090803Y1332019D01*
X4092181Y1331724D01*
X4093657Y1331133D01*
X4095231Y1330444D01*
X4096806Y1329362D01*
X4097494Y1328772D01*
X4098183Y1327984D01*
Y1327886D01*
X4098380Y1327787D01*
X4098774Y1327197D01*
X4099364Y1326213D01*
X4100053Y1324835D01*
X4100643Y1323163D01*
X4101234Y1321096D01*
X4101627Y1318636D01*
X4101824Y1315881D01*
Y1314504D01*
X4101726Y1313520D01*
X4101627Y1312437D01*
X4101529Y1311256D01*
X4101037Y1308600D01*
Y1308403D01*
X4100939Y1308009D01*
X4100742Y1307320D01*
X4100447Y1306435D01*
X4100053Y1305451D01*
X4099659Y1304368D01*
X4098577Y1302204D01*
X4090902Y1305648D01*
X4091000Y1305746D01*
X4091099Y1305943D01*
X4091295Y1306435D01*
X4091590Y1306927D01*
X4091886Y1307517D01*
X4092181Y1308304D01*
X4092771Y1309879D01*
Y1309977D01*
X4092870Y1310272D01*
X4092968Y1310764D01*
X4093165Y1311256D01*
X4093263Y1312043D01*
X4093362Y1312732D01*
X4093460Y1314504D01*
Y1314995D01*
X4093362Y1315487D01*
X4093263Y1316176D01*
X4092870Y1317652D01*
X4092575Y1318439D01*
X4092082Y1319128D01*
X4091984Y1319227D01*
X4091886Y1319325D01*
X4091590Y1319620D01*
X4091197Y1319916D01*
X4090213Y1320408D01*
X4089524Y1320604D01*
X4088835Y1320703D01*
X4088737D01*
X4088639D01*
X4088048Y1320604D01*
X4087261Y1320408D01*
X4086474Y1320112D01*
X4086375Y1320014D01*
X4085982Y1319719D01*
X4085391Y1319227D01*
X4084899Y1318538D01*
X4084801Y1318341D01*
X4084506Y1317849D01*
X4084112Y1317160D01*
X4083620Y1316373D01*
Y1316275D01*
X4083522Y1316176D01*
X4083325Y1315586D01*
X4083030Y1314799D01*
X4082735Y1313815D01*
Y1313716D01*
X4082538Y1313421D01*
X4082439Y1313027D01*
X4082144Y1312437D01*
X4081849Y1311748D01*
X4081554Y1311060D01*
X4080865Y1309387D01*
Y1309288D01*
X4080668Y1308993D01*
X4080471Y1308600D01*
X4080274Y1308009D01*
X4079487Y1306730D01*
X4078405Y1305254D01*
X4078307Y1305156D01*
X4078110Y1304959D01*
X4077814Y1304565D01*
X4077421Y1304171D01*
X4076831Y1303679D01*
X4076240Y1303188D01*
X4074666Y1302204D01*
X4074567Y1302105D01*
X4074272Y1302007D01*
X4073780Y1301810D01*
X4073190Y1301613D01*
X4072403Y1301416D01*
X4071419Y1301219D01*
X4070336Y1301023D01*
X4069155D01*
X4069057D01*
X4068860D01*
X4068565D01*
X4068171Y1301121D01*
X4066990Y1301219D01*
X4065613Y1301613D01*
X4064039Y1302105D01*
X4062366Y1302892D01*
X4060693Y1304073D01*
X4059906Y1304762D01*
X4059217Y1305549D01*
Y1305648D01*
X4059020Y1305746D01*
X4058922Y1306041D01*
X4058626Y1306435D01*
X4058331Y1306828D01*
X4058036Y1307419D01*
X4057741Y1308108D01*
X4057347Y1308895D01*
X4056954Y1309780D01*
X4056659Y1310863D01*
X4056363Y1311945D01*
X4056068Y1313126D01*
X4055871Y1314504D01*
X4055675Y1315881D01*
X4055478Y1317357D01*
Y1320506D01*
X4055576Y1321490D01*
X4055675Y1322572D01*
X4055773Y1323851D01*
X4056265Y1326607D01*
Y1326803D01*
X4056462Y1327197D01*
X4056560Y1327886D01*
X4056855Y1328772D01*
X4057151Y1329854D01*
X4057642Y1330936D01*
X4058626Y1333396D01*
X4067187Y1329755D01*
D02*
G37*
G36*
X4188416Y1310125D02*
X4146399D01*
X4146203D01*
X4145711D01*
X4145022Y1310026D01*
X4144136Y1309830D01*
X4143152Y1309534D01*
X4142168Y1309042D01*
X4141086Y1308452D01*
X4140200Y1307665D01*
X4140102Y1307566D01*
X4139806Y1307173D01*
X4139511Y1306681D01*
X4139118Y1305893D01*
X4138626Y1305008D01*
X4138331Y1303926D01*
X4138035Y1302745D01*
X4137937Y1301466D01*
Y1300875D01*
X4138035Y1300186D01*
X4138232Y1299301D01*
X4138527Y1298317D01*
X4138921Y1297234D01*
X4139413Y1296250D01*
X4140200Y1295266D01*
X4140298Y1295168D01*
X4140594Y1294873D01*
X4141086Y1294479D01*
X4141873Y1293987D01*
X4142758Y1293495D01*
X4143743Y1293101D01*
X4145022Y1292806D01*
X4146399Y1292708D01*
X4188416D01*
Y1281097D01*
X4146498D01*
X4146301D01*
X4145711D01*
X4144923Y1281195D01*
X4143841Y1281293D01*
X4142562Y1281490D01*
X4141184Y1281785D01*
X4139905Y1282179D01*
X4138527Y1282671D01*
X4138429Y1282770D01*
X4137937Y1282966D01*
X4137346Y1283360D01*
X4136559Y1283754D01*
X4135674Y1284442D01*
X4134690Y1285131D01*
X4133706Y1286017D01*
X4132820Y1287001D01*
X4132722Y1287099D01*
X4132426Y1287493D01*
X4132033Y1288083D01*
X4131541Y1288772D01*
X4130950Y1289756D01*
X4130360Y1290838D01*
X4129770Y1292019D01*
X4129278Y1293397D01*
Y1293593D01*
X4129081Y1293987D01*
X4128884Y1294774D01*
X4128687Y1295758D01*
X4128490Y1296939D01*
X4128294Y1298317D01*
X4128195Y1299891D01*
X4128097Y1301466D01*
Y1302154D01*
X4128195Y1303040D01*
X4128294Y1304122D01*
X4128392Y1305303D01*
X4128589Y1306681D01*
X4128884Y1308157D01*
X4129278Y1309534D01*
X4129376Y1309731D01*
X4129475Y1310125D01*
X4129770Y1310813D01*
X4130163Y1311699D01*
X4130655Y1312683D01*
X4131246Y1313765D01*
X4132033Y1314848D01*
X4132820Y1315930D01*
X4132918Y1316029D01*
X4133214Y1316422D01*
X4133706Y1316914D01*
X4134395Y1317505D01*
X4135280Y1318194D01*
X4136264Y1318882D01*
X4137346Y1319571D01*
X4138527Y1320260D01*
X4138724Y1320358D01*
X4139118Y1320457D01*
X4139905Y1320752D01*
X4140791Y1320949D01*
X4141971Y1321244D01*
X4143349Y1321539D01*
X4144825Y1321638D01*
X4146498Y1321736D01*
X4188416D01*
Y1310125D01*
D02*
G37*
G36*
X4100840Y1289805D02*
X4110680D01*
X4113927Y1278784D01*
X4100840D01*
Y1270519D01*
X4092378D01*
Y1278784D01*
X4070533D01*
X4070434D01*
X4070041D01*
X4069647Y1278686D01*
X4069057Y1278588D01*
X4068368Y1278391D01*
X4067778Y1278194D01*
X4067187Y1277800D01*
X4066695Y1277308D01*
Y1277210D01*
X4066499Y1277013D01*
X4066400Y1276718D01*
X4066203Y1276324D01*
X4066006Y1275734D01*
X4065810Y1275143D01*
X4065711Y1274455D01*
X4065613Y1273668D01*
Y1273077D01*
X4065711Y1272585D01*
X4065810Y1271896D01*
Y1271699D01*
X4065908Y1271404D01*
X4066105Y1270912D01*
X4066302Y1270519D01*
X4056954D01*
X4056855Y1270716D01*
X4056659Y1271207D01*
X4056462Y1272093D01*
X4056166Y1273372D01*
Y1273668D01*
X4056068Y1274061D01*
Y1274553D01*
X4055970Y1275734D01*
X4055871Y1277210D01*
Y1277800D01*
X4055970Y1278292D01*
X4056068Y1279375D01*
X4056265Y1280851D01*
X4056757Y1282425D01*
X4057347Y1283999D01*
X4058135Y1285476D01*
X4059315Y1286755D01*
X4059512Y1286853D01*
X4060004Y1287247D01*
X4060791Y1287739D01*
X4061874Y1288231D01*
X4063350Y1288821D01*
X4065219Y1289313D01*
X4067286Y1289707D01*
X4069746Y1289805D01*
X4092378D01*
Y1295512D01*
X4100840D01*
Y1289805D01*
D02*
G37*
G36*
X4098675Y1262253D02*
X4098774Y1261860D01*
X4099069Y1261072D01*
X4099364Y1260187D01*
X4099758Y1259006D01*
X4100151Y1257628D01*
X4100447Y1256152D01*
X4100840Y1254479D01*
Y1254283D01*
X4101037Y1253692D01*
X4101135Y1252708D01*
X4101332Y1251429D01*
X4101529Y1249953D01*
X4101627Y1248280D01*
X4101824Y1246312D01*
Y1243360D01*
X4101726Y1242278D01*
X4101627Y1241196D01*
Y1240900D01*
X4101529Y1240310D01*
Y1239523D01*
X4101431Y1238637D01*
X4092082Y1240704D01*
Y1240802D01*
X4092181Y1241097D01*
X4092279Y1241491D01*
X4092476Y1242179D01*
X4092575Y1242868D01*
X4092673Y1243754D01*
X4092771Y1244639D01*
Y1246706D01*
X4092673Y1247690D01*
X4092476Y1248772D01*
Y1248969D01*
X4092279Y1249658D01*
X4092082Y1250445D01*
X4091787Y1251331D01*
X4056462D01*
Y1262450D01*
X4098577D01*
X4098675Y1262253D01*
D02*
G37*
G36*
X4141086Y1268698D02*
Y1268600D01*
X4140889Y1268305D01*
X4140692Y1267813D01*
X4140397Y1267124D01*
X4140102Y1266337D01*
X4139806Y1265451D01*
X4139118Y1263483D01*
Y1263385D01*
X4139019Y1262991D01*
X4138921Y1262401D01*
X4138724Y1261712D01*
X4138626Y1260826D01*
X4138429Y1259842D01*
X4138331Y1257776D01*
Y1257087D01*
X4138429Y1256300D01*
X4138626Y1255316D01*
X4138823Y1254332D01*
X4139118Y1253249D01*
X4139610Y1252167D01*
X4140298Y1251183D01*
X4140397Y1251085D01*
X4140692Y1250790D01*
X4141086Y1250396D01*
X4141676Y1249904D01*
X4142463Y1249510D01*
X4143349Y1249117D01*
X4144333Y1248822D01*
X4145514Y1248723D01*
X4145612D01*
X4145907D01*
X4146399Y1248822D01*
X4146990Y1248920D01*
X4147678Y1249117D01*
X4148367Y1249510D01*
X4149056Y1249904D01*
X4149745Y1250494D01*
X4149843Y1250593D01*
X4150040Y1250790D01*
X4150335Y1251183D01*
X4150827Y1251675D01*
X4151319Y1252265D01*
X4151811Y1252954D01*
X4152402Y1253840D01*
X4152894Y1254726D01*
X4152992Y1254824D01*
X4153189Y1255217D01*
X4153484Y1255709D01*
X4153779Y1256398D01*
X4154271Y1257186D01*
X4154763Y1258169D01*
X4155747Y1260334D01*
X4155846Y1260433D01*
X4156042Y1260826D01*
X4156338Y1261417D01*
X4156731Y1262105D01*
X4157223Y1262991D01*
X4157912Y1263877D01*
X4159290Y1265845D01*
X4159388Y1265943D01*
X4159683Y1266238D01*
X4160077Y1266730D01*
X4160667Y1267321D01*
X4161454Y1268009D01*
X4162242Y1268698D01*
X4163226Y1269486D01*
X4164308Y1270174D01*
X4164407Y1270273D01*
X4164899Y1270469D01*
X4165489Y1270666D01*
X4166374Y1270961D01*
X4167457Y1271355D01*
X4168736Y1271552D01*
X4170212Y1271749D01*
X4171787Y1271847D01*
X4171983D01*
X4172475D01*
X4173262Y1271749D01*
X4174247Y1271650D01*
X4175329Y1271552D01*
X4176608Y1271257D01*
X4177789Y1270961D01*
X4179068Y1270469D01*
X4179167Y1270371D01*
X4179658Y1270174D01*
X4180249Y1269879D01*
X4180938Y1269486D01*
X4181823Y1268895D01*
X4182807Y1268305D01*
X4183693Y1267517D01*
X4184578Y1266632D01*
X4184677Y1266534D01*
X4184972Y1266140D01*
X4185366Y1265648D01*
X4185956Y1264861D01*
X4186547Y1263975D01*
X4187137Y1262991D01*
X4187727Y1261810D01*
X4188219Y1260531D01*
X4188318Y1260334D01*
X4188416Y1259842D01*
X4188613Y1259153D01*
X4188908Y1258169D01*
X4189105Y1256989D01*
X4189302Y1255611D01*
X4189400Y1254037D01*
X4189498Y1252462D01*
Y1250986D01*
X4189400Y1250002D01*
X4189302Y1248822D01*
X4189105Y1247542D01*
X4188613Y1244886D01*
Y1244689D01*
X4188515Y1244295D01*
X4188318Y1243606D01*
X4188023Y1242819D01*
X4187727Y1241835D01*
X4187334Y1240753D01*
X4186251Y1238588D01*
X4176903Y1242229D01*
X4177002Y1242327D01*
X4177100Y1242622D01*
X4177297Y1243016D01*
X4177592Y1243606D01*
X4177887Y1244197D01*
X4178182Y1244984D01*
X4178773Y1246755D01*
Y1246853D01*
X4178871Y1247149D01*
X4178970Y1247641D01*
X4179167Y1248330D01*
X4179265Y1249117D01*
X4179363Y1250002D01*
X4179462Y1251970D01*
Y1252561D01*
X4179363Y1253348D01*
X4179265Y1254135D01*
X4178970Y1255119D01*
X4178675Y1256201D01*
X4178182Y1257186D01*
X4177494Y1258071D01*
X4177395Y1258169D01*
X4177199Y1258366D01*
X4176707Y1258760D01*
X4176215Y1259153D01*
X4175427Y1259547D01*
X4174640Y1259941D01*
X4173558Y1260138D01*
X4172475Y1260236D01*
X4172377D01*
X4172082D01*
X4171590Y1260138D01*
X4170999Y1260039D01*
X4170310Y1259842D01*
X4169622Y1259547D01*
X4168933Y1259153D01*
X4168244Y1258563D01*
X4168146Y1258465D01*
X4167949Y1258268D01*
X4167654Y1257874D01*
X4167260Y1257382D01*
X4166768Y1256694D01*
X4166178Y1256005D01*
X4165095Y1254234D01*
X4164997Y1254135D01*
X4164800Y1253742D01*
X4164505Y1253249D01*
X4164210Y1252561D01*
X4163718Y1251675D01*
X4163226Y1250691D01*
X4162143Y1248526D01*
X4162045Y1248428D01*
X4161848Y1248034D01*
X4161553Y1247444D01*
X4161159Y1246657D01*
X4160569Y1245771D01*
X4159979Y1244886D01*
X4158502Y1242918D01*
X4158404Y1242819D01*
X4158109Y1242426D01*
X4157715Y1242032D01*
X4157125Y1241343D01*
X4156338Y1240654D01*
X4155551Y1239966D01*
X4154566Y1239277D01*
X4153484Y1238588D01*
X4153386Y1238489D01*
X4152992Y1238293D01*
X4152303Y1237997D01*
X4151418Y1237702D01*
X4150434Y1237407D01*
X4149154Y1237112D01*
X4147678Y1236915D01*
X4146104Y1236817D01*
X4145907D01*
X4145415D01*
X4144628Y1236915D01*
X4143644Y1237014D01*
X4142463Y1237112D01*
X4141184Y1237407D01*
X4139905Y1237702D01*
X4138626Y1238194D01*
X4138527Y1238293D01*
X4138035Y1238489D01*
X4137445Y1238785D01*
X4136658Y1239178D01*
X4135772Y1239769D01*
X4134886Y1240457D01*
X4133903Y1241245D01*
X4132918Y1242229D01*
X4132820Y1242327D01*
X4132525Y1242721D01*
X4132033Y1243213D01*
X4131541Y1244000D01*
X4130950Y1244886D01*
X4130262Y1245968D01*
X4129671Y1247247D01*
X4129179Y1248625D01*
X4129081Y1248822D01*
X4128983Y1249313D01*
X4128786Y1250101D01*
X4128589Y1251085D01*
X4128294Y1252364D01*
X4128097Y1253840D01*
X4127998Y1255414D01*
X4127900Y1257186D01*
Y1258661D01*
X4127998Y1259744D01*
X4128097Y1260925D01*
X4128195Y1262302D01*
X4128687Y1265254D01*
Y1265451D01*
X4128786Y1265943D01*
X4128983Y1266632D01*
X4129278Y1267616D01*
X4129573Y1268698D01*
X4129967Y1269977D01*
X4131049Y1272536D01*
X4141086Y1268698D01*
D02*
G37*
G36*
X4080471Y1233127D02*
X4081652Y1233028D01*
X4083128Y1232930D01*
X4084702Y1232635D01*
X4086375Y1232340D01*
X4087950Y1231848D01*
X4088048D01*
X4088146Y1231749D01*
X4088639Y1231552D01*
X4089524Y1231257D01*
X4090508Y1230863D01*
X4091689Y1230273D01*
X4092870Y1229584D01*
X4094149Y1228699D01*
X4095330Y1227813D01*
X4095428Y1227715D01*
X4095822Y1227321D01*
X4096412Y1226731D01*
X4097101Y1226042D01*
X4097790Y1225058D01*
X4098577Y1223976D01*
X4099364Y1222696D01*
X4100053Y1221319D01*
X4100151Y1221122D01*
X4100348Y1220630D01*
X4100643Y1219843D01*
X4100939Y1218760D01*
X4101234Y1217481D01*
X4101529Y1216005D01*
X4101726Y1214431D01*
X4101824Y1212659D01*
Y1211872D01*
X4101726Y1210987D01*
X4101627Y1209904D01*
X4101431Y1208625D01*
X4101234Y1207247D01*
X4100840Y1205870D01*
X4100348Y1204492D01*
X4100250Y1204295D01*
X4100053Y1203902D01*
X4099758Y1203213D01*
X4099266Y1202426D01*
X4098675Y1201442D01*
X4097986Y1200458D01*
X4097199Y1199474D01*
X4096215Y1198588D01*
X4096117Y1198490D01*
X4095723Y1198195D01*
X4095133Y1197703D01*
X4094444Y1197211D01*
X4093460Y1196620D01*
X4092378Y1195931D01*
X4091197Y1195341D01*
X4089819Y1194849D01*
X4089622Y1194751D01*
X4089229Y1194652D01*
X4088442Y1194456D01*
X4087458Y1194160D01*
X4086277Y1193964D01*
X4084801Y1193767D01*
X4083325Y1193668D01*
X4081652Y1193570D01*
X4079684D01*
X4079487D01*
X4079094D01*
X4078503Y1193668D01*
X4077814Y1193767D01*
X4073977Y1222303D01*
X4073878D01*
X4073780D01*
X4073190Y1222106D01*
X4072304Y1221909D01*
X4071222Y1221515D01*
X4070041Y1220925D01*
X4068762Y1220236D01*
X4067581Y1219351D01*
X4066597Y1218268D01*
X4066499Y1218072D01*
X4066203Y1217678D01*
X4065810Y1216989D01*
X4065416Y1216005D01*
X4065023Y1214824D01*
X4064629Y1213447D01*
X4064334Y1211774D01*
X4064235Y1210003D01*
Y1208724D01*
X4064334Y1207936D01*
X4064432Y1206952D01*
X4064530Y1205772D01*
X4065023Y1203410D01*
Y1203213D01*
X4065121Y1202820D01*
X4065318Y1202229D01*
X4065613Y1201442D01*
X4065810Y1200556D01*
X4066203Y1199572D01*
X4066990Y1197703D01*
X4058626Y1194456D01*
X4058528Y1194554D01*
X4058430Y1194947D01*
X4058135Y1195538D01*
X4057839Y1196424D01*
X4057446Y1197506D01*
X4057052Y1198687D01*
X4056757Y1200064D01*
X4056363Y1201639D01*
Y1201835D01*
X4056265Y1202426D01*
X4056068Y1203312D01*
X4055970Y1204394D01*
X4055773Y1205772D01*
X4055576Y1207346D01*
X4055478Y1209117D01*
Y1211774D01*
X4055576Y1212856D01*
X4055675Y1214136D01*
X4055871Y1215710D01*
X4056166Y1217284D01*
X4056560Y1218957D01*
X4057151Y1220532D01*
X4057249Y1220728D01*
X4057446Y1221220D01*
X4057839Y1222007D01*
X4058331Y1222992D01*
X4059020Y1224074D01*
X4059807Y1225255D01*
X4060791Y1226436D01*
X4061874Y1227518D01*
X4061972Y1227616D01*
X4062464Y1228010D01*
X4063055Y1228502D01*
X4063940Y1229092D01*
X4065023Y1229781D01*
X4066302Y1230568D01*
X4067679Y1231257D01*
X4069254Y1231848D01*
X4069352D01*
X4069450Y1231946D01*
X4070041Y1232044D01*
X4070927Y1232241D01*
X4072009Y1232536D01*
X4073485Y1232832D01*
X4075059Y1233028D01*
X4076732Y1233127D01*
X4078602Y1233225D01*
X4078700D01*
X4078798D01*
X4079094D01*
X4079487D01*
X4080471Y1233127D01*
D02*
G37*
G36*
X4186350Y1227567D02*
X4186448Y1227174D01*
X4186743Y1226485D01*
X4187038Y1225501D01*
X4187432Y1224320D01*
X4187826Y1222942D01*
X4188121Y1221466D01*
X4188515Y1219793D01*
Y1219597D01*
X4188711Y1219006D01*
X4188810Y1218022D01*
X4189007Y1216743D01*
X4189203Y1215267D01*
X4189302Y1213594D01*
X4189498Y1211823D01*
Y1208871D01*
X4189400Y1207789D01*
X4189302Y1206509D01*
X4189203Y1204935D01*
X4189007Y1203262D01*
X4188613Y1201590D01*
X4188219Y1200015D01*
Y1199917D01*
X4188121Y1199818D01*
X4188023Y1199326D01*
X4187727Y1198539D01*
X4187334Y1197555D01*
X4186842Y1196473D01*
X4186251Y1195292D01*
X4185562Y1194209D01*
X4184775Y1193127D01*
X4184677Y1193029D01*
X4184382Y1192635D01*
X4183988Y1192143D01*
X4183398Y1191553D01*
X4182610Y1190864D01*
X4181725Y1190175D01*
X4180741Y1189585D01*
X4179658Y1188994D01*
X4179560Y1188896D01*
X4179167Y1188797D01*
X4178576Y1188601D01*
X4177789Y1188305D01*
X4176805Y1188010D01*
X4175722Y1187813D01*
X4174443Y1187715D01*
X4173164Y1187617D01*
X4173066D01*
X4172770D01*
X4172279D01*
X4171590Y1187715D01*
X4170901Y1187813D01*
X4170114Y1187912D01*
X4168441Y1188404D01*
X4168342D01*
X4168047Y1188502D01*
X4167654Y1188699D01*
X4167162Y1188994D01*
X4165882Y1189683D01*
X4164505Y1190569D01*
X4164407Y1190667D01*
X4164210Y1190765D01*
X4163914Y1191061D01*
X4163521Y1191454D01*
X4162537Y1192340D01*
X4161553Y1193521D01*
Y1193619D01*
X4161356Y1193816D01*
X4161159Y1194111D01*
X4160962Y1194505D01*
X4160471Y1195587D01*
X4159979Y1196965D01*
X4159782D01*
Y1196866D01*
X4159683Y1196669D01*
X4159585Y1196276D01*
X4159388Y1195784D01*
X4158798Y1194603D01*
X4158011Y1193226D01*
X4157912Y1193127D01*
X4157814Y1192930D01*
X4157519Y1192537D01*
X4157223Y1192045D01*
X4156239Y1190962D01*
X4154960Y1189782D01*
X4154862Y1189683D01*
X4154665Y1189486D01*
X4154271Y1189191D01*
X4153779Y1188797D01*
X4153189Y1188404D01*
X4152402Y1187912D01*
X4150729Y1187125D01*
X4150631Y1187026D01*
X4150335Y1186928D01*
X4149745Y1186731D01*
X4149056Y1186534D01*
X4148269Y1186338D01*
X4147285Y1186239D01*
X4146203Y1186042D01*
X4145022D01*
X4144923D01*
X4144628D01*
X4144234D01*
X4143743Y1186141D01*
X4143054Y1186239D01*
X4142266Y1186338D01*
X4140397Y1186830D01*
X4138429Y1187518D01*
X4137346Y1188010D01*
X4136264Y1188601D01*
X4135280Y1189290D01*
X4134296Y1190077D01*
X4133312Y1190962D01*
X4132426Y1192045D01*
Y1192143D01*
X4132230Y1192340D01*
X4132033Y1192635D01*
X4131738Y1193127D01*
X4131344Y1193816D01*
X4130950Y1194505D01*
X4130557Y1195390D01*
X4130163Y1196473D01*
X4129770Y1197653D01*
X4129376Y1198933D01*
X4128983Y1200409D01*
X4128589Y1201983D01*
X4128294Y1203656D01*
X4128097Y1205525D01*
X4127998Y1207494D01*
X4127900Y1209658D01*
Y1210544D01*
X4127998Y1211528D01*
Y1212807D01*
X4128097Y1214381D01*
X4128294Y1216054D01*
X4128490Y1217924D01*
X4128786Y1219793D01*
Y1219990D01*
X4128983Y1220581D01*
X4129179Y1221466D01*
X4129376Y1222647D01*
X4129770Y1223926D01*
X4130163Y1225206D01*
X4130557Y1226583D01*
X4131049Y1227764D01*
X4186251D01*
X4186350Y1227567D01*
D02*
G37*
G36*
X4071320Y1186977D02*
X4072403Y1186780D01*
X4073583Y1186583D01*
X4074764Y1186190D01*
X4075945Y1185600D01*
X4077126Y1184911D01*
X4077224Y1184812D01*
X4077618Y1184517D01*
X4078110Y1184025D01*
X4078798Y1183336D01*
X4079487Y1182549D01*
X4080176Y1181565D01*
X4080963Y1180384D01*
X4081554Y1179105D01*
X4081652Y1178908D01*
X4081849Y1178416D01*
X4082144Y1177727D01*
X4082439Y1176744D01*
X4082833Y1175464D01*
X4083227Y1174087D01*
X4083620Y1172512D01*
X4083915Y1170840D01*
Y1170643D01*
X4084014Y1170052D01*
X4084211Y1169068D01*
X4084309Y1167888D01*
X4084506Y1166411D01*
X4084702Y1164739D01*
X4084899Y1162967D01*
X4084998Y1161098D01*
X4087261D01*
X4087458D01*
X4087851D01*
X4088442Y1161196D01*
X4089229Y1161393D01*
X4090016Y1161688D01*
X4090803Y1162082D01*
X4091590Y1162574D01*
X4092181Y1163361D01*
X4092279Y1163459D01*
X4092378Y1163755D01*
X4092673Y1164247D01*
X4092968Y1164936D01*
X4093165Y1165821D01*
X4093460Y1166805D01*
X4093559Y1167986D01*
X4093657Y1169363D01*
Y1170348D01*
X4093559Y1171430D01*
X4093362Y1172709D01*
Y1173004D01*
X4093263Y1173300D01*
Y1173792D01*
X4093066Y1174775D01*
X4092771Y1176055D01*
Y1176153D01*
X4092673Y1176350D01*
Y1176645D01*
X4092476Y1177039D01*
X4092279Y1178023D01*
X4091886Y1179204D01*
Y1179302D01*
X4091787Y1179400D01*
X4091590Y1180089D01*
X4091394Y1180975D01*
X4091000Y1181860D01*
X4098577Y1184616D01*
X4098675Y1184517D01*
X4098774Y1184123D01*
X4098971Y1183533D01*
X4099266Y1182648D01*
X4099659Y1181664D01*
X4099954Y1180384D01*
X4100348Y1179007D01*
X4100742Y1177432D01*
Y1177334D01*
X4100840Y1177236D01*
X4100939Y1176645D01*
X4101135Y1175759D01*
X4101332Y1174579D01*
X4101529Y1173201D01*
X4101627Y1171627D01*
X4101824Y1169954D01*
Y1167396D01*
X4101726Y1166805D01*
Y1166116D01*
X4101627Y1165231D01*
X4101332Y1163361D01*
X4100939Y1161295D01*
X4100250Y1159130D01*
X4099364Y1156965D01*
X4098085Y1155095D01*
Y1154997D01*
X4097888Y1154899D01*
X4097396Y1154407D01*
X4096511Y1153620D01*
X4095920Y1153226D01*
X4095231Y1152734D01*
X4094444Y1152340D01*
X4093559Y1151947D01*
X4092575Y1151553D01*
X4091492Y1151159D01*
X4090213Y1150864D01*
X4088934Y1150668D01*
X4087556Y1150471D01*
X4085982D01*
X4058626D01*
X4058528Y1150569D01*
X4058430Y1150963D01*
X4058135Y1151455D01*
X4057839Y1152242D01*
X4057544Y1153324D01*
X4057151Y1154505D01*
X4056855Y1155883D01*
X4056462Y1157555D01*
Y1157752D01*
X4056265Y1158343D01*
X4056166Y1159228D01*
X4055970Y1160409D01*
X4055773Y1161885D01*
X4055675Y1163459D01*
X4055478Y1165231D01*
Y1168084D01*
X4055576Y1168773D01*
Y1169560D01*
X4055675Y1170544D01*
X4055773Y1171627D01*
X4055970Y1172709D01*
X4056363Y1175169D01*
X4057052Y1177727D01*
X4057938Y1180089D01*
X4058528Y1181171D01*
X4059217Y1182156D01*
Y1182254D01*
X4059414Y1182352D01*
X4059906Y1182943D01*
X4060791Y1183730D01*
X4061972Y1184616D01*
X4063448Y1185501D01*
X4065219Y1186288D01*
X4067384Y1186879D01*
X4068466Y1186977D01*
X4069746Y1187075D01*
X4069844D01*
X4069943D01*
X4070533D01*
X4071320Y1186977D01*
D02*
G37*
G36*
X4098675Y1140237D02*
X4098774Y1139843D01*
X4099069Y1139155D01*
X4099364Y1138171D01*
X4099758Y1137088D01*
X4100151Y1135711D01*
X4100447Y1134333D01*
X4100840Y1132759D01*
Y1132562D01*
X4101037Y1131972D01*
X4101135Y1131184D01*
X4101332Y1130004D01*
X4101529Y1128724D01*
X4101627Y1127150D01*
X4101824Y1125575D01*
Y1122919D01*
X4101726Y1121836D01*
X4101627Y1120656D01*
X4101431Y1119179D01*
X4101234Y1117704D01*
X4100840Y1116227D01*
X4100348Y1114850D01*
X4100250Y1114653D01*
X4100151Y1114259D01*
X4099856Y1113669D01*
X4099462Y1112882D01*
X4098479Y1111111D01*
X4097888Y1110323D01*
X4097298Y1109536D01*
X4097396Y1109438D01*
X4097593Y1109143D01*
X4097888Y1108651D01*
X4098282Y1107962D01*
X4098774Y1107076D01*
X4099266Y1106092D01*
X4099758Y1104911D01*
X4100348Y1103534D01*
X4100447Y1103337D01*
X4100545Y1102845D01*
X4100840Y1102058D01*
X4101135Y1100976D01*
X4101332Y1099598D01*
X4101627Y1098122D01*
X4101726Y1096449D01*
X4101824Y1094580D01*
Y1093891D01*
X4101726Y1093399D01*
Y1092710D01*
X4101627Y1092021D01*
X4101332Y1090348D01*
X4100840Y1088479D01*
X4100151Y1086609D01*
X4099167Y1084739D01*
X4097790Y1083067D01*
Y1082968D01*
X4097593Y1082870D01*
X4097101Y1082378D01*
X4096215Y1081689D01*
X4095035Y1080902D01*
X4093460Y1080213D01*
X4091689Y1079524D01*
X4089524Y1079032D01*
X4088343Y1078835D01*
X4087162D01*
X4056462D01*
Y1090151D01*
X4085982D01*
X4086080D01*
X4086474D01*
X4087064Y1090250D01*
X4087851Y1090348D01*
X4088639Y1090643D01*
X4089426Y1090939D01*
X4090311Y1091431D01*
X4091000Y1092120D01*
X4091099Y1092218D01*
X4091295Y1092415D01*
X4091590Y1092907D01*
X4091886Y1093497D01*
X4092181Y1094284D01*
X4092476Y1095170D01*
X4092673Y1096252D01*
X4092771Y1097532D01*
Y1098220D01*
X4092673Y1098909D01*
X4092476Y1099893D01*
X4092279Y1100877D01*
X4091886Y1101959D01*
X4091295Y1103042D01*
X4090606Y1104026D01*
X4056462D01*
Y1115342D01*
X4086474D01*
X4086572D01*
X4086966D01*
X4087458Y1115440D01*
X4088146Y1115637D01*
X4088934Y1115834D01*
X4089721Y1116227D01*
X4090410Y1116719D01*
X4091099Y1117408D01*
X4091197Y1117507D01*
X4091394Y1117802D01*
X4091590Y1118294D01*
X4091984Y1118884D01*
X4092279Y1119671D01*
X4092476Y1120656D01*
X4092673Y1121836D01*
X4092771Y1123116D01*
Y1124395D01*
X4092673Y1125280D01*
X4092575Y1126264D01*
X4092378Y1127248D01*
X4092082Y1128331D01*
X4091787Y1129315D01*
X4056462D01*
Y1140434D01*
X4098577D01*
X4098675Y1140237D01*
D02*
G37*
G36*
X105045Y945219D02*
X106537Y945104D01*
X108259Y944874D01*
X111703Y944185D01*
X111933D01*
X112507Y943956D01*
X113310Y943726D01*
X114458Y943497D01*
X115606Y943037D01*
X116869Y942693D01*
X118017Y942119D01*
X119165Y941545D01*
X114918Y930983D01*
X114803D01*
X114573Y931213D01*
X114114Y931443D01*
X113540Y931672D01*
X112736Y932017D01*
X111818Y932246D01*
X110785Y932591D01*
X109637Y932935D01*
X109522D01*
X109063Y933050D01*
X108374Y933165D01*
X107570Y933394D01*
X106422Y933509D01*
X105159Y933624D01*
X103782Y933739D01*
X101601D01*
X100797Y933624D01*
X99764Y933509D01*
X98616Y933394D01*
X97238Y933165D01*
X95861Y932705D01*
X94483Y932246D01*
X94368Y932131D01*
X93909Y932017D01*
X93220Y931672D01*
X92417Y931213D01*
X91383Y930524D01*
X90350Y929835D01*
X89317Y928802D01*
X88284Y927769D01*
X88169Y927654D01*
X87825Y927195D01*
X87365Y926621D01*
X86791Y925703D01*
X86103Y924555D01*
X85414Y923292D01*
X84725Y921799D01*
X84036Y920192D01*
X83921Y919963D01*
X83807Y919389D01*
X83577Y918470D01*
X83347Y917207D01*
X83003Y915600D01*
X82773Y913763D01*
X82659Y911697D01*
X82544Y909401D01*
Y909286D01*
Y909171D01*
Y908827D01*
Y908368D01*
X82659Y907220D01*
X82773Y905727D01*
X82888Y904005D01*
X83118Y902283D01*
X83462Y900447D01*
X83921Y898610D01*
X84036Y898380D01*
X84151Y897806D01*
X84496Y897003D01*
X84955Y895969D01*
X85414Y894707D01*
X86103Y893444D01*
X86906Y892181D01*
X87710Y890918D01*
X87825Y890803D01*
X88169Y890459D01*
X88628Y889885D01*
X89317Y889196D01*
X90121Y888393D01*
X91039Y887704D01*
X92072Y886900D01*
X93220Y886326D01*
X93335Y886211D01*
X93794Y886097D01*
X94368Y885867D01*
X95172Y885637D01*
X96205Y885293D01*
X97238Y885063D01*
X98386Y884949D01*
X99649Y884834D01*
X101141D01*
X102634Y884949D01*
X104126Y885063D01*
X104241D01*
X104471Y885178D01*
X105274Y885293D01*
X106193Y885523D01*
X106996Y885867D01*
Y905268D01*
X96435D01*
Y915600D01*
X119739D01*
Y877142D01*
X119624Y877027D01*
X119280Y876913D01*
X118591Y876568D01*
X117787Y876224D01*
X116639Y875879D01*
X115262Y875420D01*
X113769Y875076D01*
X111933Y874617D01*
X111703D01*
X111014Y874387D01*
X109981Y874272D01*
X108603Y874043D01*
X106996Y873813D01*
X105045Y873698D01*
X102864Y873469D01*
X99305D01*
X98731Y873583D01*
X97927D01*
X96205Y873813D01*
X94254Y874043D01*
X91957Y874502D01*
X89776Y875076D01*
X87480Y875879D01*
X87365D01*
X87251Y875994D01*
X86906Y876109D01*
X86562Y876339D01*
X85414Y876913D01*
X84036Y877716D01*
X82429Y878749D01*
X80822Y880012D01*
X79100Y881505D01*
X77493Y883112D01*
X77263Y883341D01*
X76804Y883915D01*
X76115Y884949D01*
X75197Y886326D01*
X74163Y887933D01*
X73130Y889885D01*
X72097Y892066D01*
X71179Y894477D01*
Y894592D01*
X71064Y894821D01*
X70949Y895166D01*
X70834Y895625D01*
X70719Y896314D01*
X70490Y897003D01*
X70145Y898839D01*
X69686Y901021D01*
X69342Y903546D01*
X69112Y906416D01*
X68998Y909401D01*
Y909516D01*
Y909745D01*
Y910205D01*
Y910779D01*
X69112Y911467D01*
Y912386D01*
X69342Y914337D01*
X69572Y916633D01*
X69916Y919044D01*
X70490Y921685D01*
X71293Y924210D01*
Y924325D01*
X71408Y924555D01*
X71523Y924899D01*
X71753Y925358D01*
X72327Y926621D01*
X73016Y928113D01*
X73934Y929950D01*
X75082Y931787D01*
X76460Y933739D01*
X77952Y935575D01*
X78181Y935805D01*
X78755Y936379D01*
X79674Y937183D01*
X80937Y938216D01*
X82429Y939364D01*
X84151Y940627D01*
X86103Y941775D01*
X88284Y942808D01*
X88399D01*
X88513Y942923D01*
X88858Y943037D01*
X89317Y943152D01*
X90580Y943611D01*
X92302Y944071D01*
X94254Y944530D01*
X96549Y944989D01*
X99075Y945219D01*
X101716Y945333D01*
X103667D01*
X105045Y945219D01*
D02*
G37*
G36*
X183912Y874617D02*
X172777D01*
X147865Y915830D01*
X147750Y915945D01*
X147636Y916289D01*
X147291Y916863D01*
X146832Y917552D01*
X146028Y919159D01*
X145110Y920881D01*
Y920996D01*
X144995Y921225D01*
X144766Y921685D01*
X144536Y922144D01*
X144077Y923177D01*
X143847Y923636D01*
X143732Y923981D01*
X143503D01*
Y923866D01*
Y923751D01*
Y923407D01*
X143618Y923062D01*
Y921914D01*
Y920422D01*
Y920307D01*
Y920077D01*
Y919503D01*
X143732Y918929D01*
Y918126D01*
Y917207D01*
Y916059D01*
Y914911D01*
Y874617D01*
X132252D01*
Y944071D01*
X143847D01*
X168185Y904005D01*
X168299Y903891D01*
X168414Y903546D01*
X168644Y903087D01*
X168988Y902513D01*
X169792Y900906D01*
X170595Y899299D01*
Y899184D01*
X170825Y898954D01*
X170940Y898495D01*
X171284Y898036D01*
X171858Y896888D01*
X172317Y895740D01*
X172432D01*
Y895969D01*
Y896543D01*
Y897003D01*
Y897577D01*
X172317Y898380D01*
Y899184D01*
Y899299D01*
Y899643D01*
Y900217D01*
Y900906D01*
Y901709D01*
Y902743D01*
Y903891D01*
Y905153D01*
Y944071D01*
X183912D01*
Y874617D01*
D02*
G37*
G36*
X218238Y945219D02*
X219500Y945104D01*
X220878Y944874D01*
X222485Y944530D01*
X224092Y944185D01*
X225929Y943726D01*
X227766Y943152D01*
X229603Y942349D01*
X231554Y941430D01*
X233391Y940397D01*
X235113Y939134D01*
X236835Y937757D01*
X238442Y936149D01*
X238557Y936035D01*
X238787Y935690D01*
X239246Y935231D01*
X239705Y934427D01*
X240279Y933509D01*
X240968Y932361D01*
X241772Y930983D01*
X242575Y929376D01*
X243264Y927539D01*
X244067Y925588D01*
X244756Y923407D01*
X245330Y920996D01*
X245790Y918355D01*
X246249Y915600D01*
X246478Y912615D01*
X246593Y909401D01*
Y909171D01*
Y908597D01*
Y907679D01*
X246478Y906531D01*
X246363Y905039D01*
X246134Y903317D01*
X245904Y901480D01*
X245560Y899413D01*
X245101Y897232D01*
X244642Y895051D01*
X243953Y892870D01*
X243149Y890574D01*
X242231Y888393D01*
X241083Y886326D01*
X239935Y884375D01*
X238442Y882538D01*
X238327Y882423D01*
X238098Y882193D01*
X237639Y881734D01*
X236950Y881160D01*
X236146Y880471D01*
X235113Y879668D01*
X233965Y878864D01*
X232588Y878061D01*
X231095Y877142D01*
X229373Y876339D01*
X227536Y875535D01*
X225470Y874846D01*
X223289Y874272D01*
X220993Y873813D01*
X218467Y873583D01*
X215827Y873469D01*
X214793D01*
X213760Y873583D01*
X212268D01*
X210546Y873698D01*
X208709Y873928D01*
X204921Y874502D01*
X204691D01*
X204117Y874731D01*
X203199Y874961D01*
X202051Y875191D01*
X200673Y875650D01*
X199410Y876109D01*
X198033Y876568D01*
X196770Y877142D01*
Y941545D01*
X196885Y941660D01*
X197344Y941775D01*
X198033Y942119D01*
X199066Y942463D01*
X200214Y942923D01*
X201591Y943382D01*
X203199Y943726D01*
X205036Y944185D01*
X205265D01*
X205954Y944415D01*
X206987Y944530D01*
X208250Y944759D01*
X209857Y944989D01*
X211694Y945104D01*
X213760Y945333D01*
X217204D01*
X218238Y945219D01*
D02*
G37*
G36*
X236636Y1001995D02*
X222286D01*
X200933Y1071449D01*
X215627D01*
X227337Y1026218D01*
Y1026103D01*
X227452Y1025988D01*
X227567Y1025300D01*
X227796Y1024381D01*
X228026Y1023233D01*
Y1023119D01*
X228141Y1023004D01*
X228255Y1022315D01*
X228370Y1021396D01*
X228600Y1020363D01*
Y1020249D01*
Y1020134D01*
X228715Y1019560D01*
X228829Y1018756D01*
X228944Y1017838D01*
Y1017723D01*
X229059Y1017264D01*
X229174Y1016690D01*
X229289Y1016231D01*
X229518D01*
Y1016345D01*
Y1016460D01*
X229633Y1016690D01*
X229748Y1017149D01*
Y1017723D01*
X229863Y1018412D01*
X230092Y1019215D01*
X230207Y1020134D01*
Y1020249D01*
X230322Y1020593D01*
X230437Y1021167D01*
X230551Y1021971D01*
X230781Y1022889D01*
X231011Y1023922D01*
X231585Y1026218D01*
X243294Y1071449D01*
X257989D01*
X236636Y1001995D01*
D02*
G37*
G36*
X63862Y1038272D02*
X78786D01*
Y1028055D01*
X63862D01*
Y1012557D01*
X52841D01*
Y1028055D01*
X37917D01*
Y1038272D01*
X52841D01*
Y1053770D01*
X63862D01*
Y1038272D01*
D02*
G37*
G36*
X188994Y1028514D02*
X195882D01*
Y1019101D01*
X188994D01*
Y1001995D01*
X176825D01*
Y1019101D01*
X145714D01*
Y1028514D01*
X174644Y1071449D01*
X188994D01*
Y1028514D01*
D02*
G37*
G36*
X110930Y1072597D02*
X112078D01*
X113226Y1072368D01*
X114603Y1072253D01*
X116096Y1072023D01*
X119195Y1071334D01*
X122410Y1070301D01*
X123902Y1069727D01*
X125395Y1068924D01*
X126887Y1068120D01*
X128150Y1067087D01*
X128265Y1066972D01*
X128494Y1066857D01*
X128724Y1066513D01*
X129183Y1066054D01*
X129642Y1065480D01*
X130216Y1064791D01*
X130905Y1063987D01*
X131479Y1063069D01*
X132742Y1060888D01*
X133775Y1058247D01*
X134234Y1056755D01*
X134579Y1055148D01*
X134693Y1053541D01*
X134808Y1051704D01*
Y1051589D01*
Y1051245D01*
Y1050670D01*
X134693Y1049982D01*
X134579Y1049178D01*
X134464Y1048260D01*
X134005Y1046308D01*
Y1046193D01*
X133890Y1045849D01*
X133775Y1045390D01*
X133545Y1044701D01*
X132857Y1043208D01*
X132053Y1041372D01*
Y1041257D01*
X131823Y1041027D01*
X131594Y1040568D01*
X131249Y1039994D01*
X130331Y1038617D01*
X129183Y1037009D01*
X129068Y1036895D01*
X128953Y1036665D01*
X128609Y1036321D01*
X128265Y1035746D01*
X127231Y1034599D01*
X126083Y1033221D01*
X107945Y1012787D01*
X136186D01*
Y1001995D01*
X85789D01*
X115522Y1039076D01*
X115637Y1039190D01*
X115866Y1039535D01*
X116325Y1040109D01*
X116785Y1040798D01*
X117359Y1041716D01*
X118047Y1042634D01*
X119310Y1044701D01*
X119425Y1044816D01*
X119540Y1045275D01*
X119884Y1045849D01*
X120229Y1046652D01*
X120458Y1047571D01*
X120803Y1048604D01*
X120917Y1049752D01*
X121032Y1051015D01*
Y1051245D01*
Y1051819D01*
X120803Y1052737D01*
X120573Y1053770D01*
X120229Y1055033D01*
X119540Y1056296D01*
X118736Y1057559D01*
X117588Y1058707D01*
X117473Y1058821D01*
X116899Y1059166D01*
X116211Y1059625D01*
X115063Y1060199D01*
X113685Y1060773D01*
X111963Y1061232D01*
X110011Y1061576D01*
X107715Y1061691D01*
X106338D01*
X105419Y1061576D01*
X104386Y1061462D01*
X103123Y1061347D01*
X100253Y1060888D01*
X100139D01*
X99565Y1060773D01*
X98876Y1060543D01*
X97843Y1060314D01*
X96809Y1059969D01*
X95547Y1059625D01*
X93021Y1058707D01*
X89233Y1068924D01*
X89462Y1069039D01*
X90036Y1069268D01*
X90840Y1069612D01*
X92103Y1069957D01*
X93480Y1070416D01*
X95087Y1070875D01*
X96809Y1071334D01*
X98646Y1071679D01*
X98876D01*
X99565Y1071794D01*
X100483Y1072023D01*
X101861Y1072253D01*
X103353Y1072368D01*
X105075Y1072597D01*
X106912Y1072712D01*
X110126D01*
X110930Y1072597D01*
D02*
G37*
G36*
X983069Y2282269D02*
X982954Y2282154D01*
X982495Y2282040D01*
X981921Y2281695D01*
X981002Y2281351D01*
X979854Y2281006D01*
X978477Y2280547D01*
X976984Y2280203D01*
X975148Y2279744D01*
X974918D01*
X974229Y2279514D01*
X973196Y2279399D01*
X971933Y2279170D01*
X970211Y2278940D01*
X968374Y2278825D01*
X966308Y2278596D01*
X962864D01*
X962060Y2278710D01*
X961027Y2278825D01*
X959764Y2278940D01*
X958387Y2279170D01*
X957009Y2279514D01*
X953909Y2280318D01*
X952302Y2280892D01*
X950695Y2281580D01*
X949088Y2282384D01*
X947596Y2283302D01*
X946103Y2284336D01*
X944840Y2285598D01*
X944726Y2285713D01*
X944611Y2285943D01*
X944266Y2286287D01*
X943807Y2286861D01*
X943348Y2287665D01*
X942774Y2288468D01*
X942200Y2289502D01*
X941626Y2290650D01*
X940937Y2292027D01*
X940363Y2293520D01*
X939789Y2295127D01*
X939330Y2296849D01*
X938871Y2298686D01*
X938526Y2300752D01*
X938412Y2302933D01*
X938297Y2305229D01*
Y2305344D01*
Y2305459D01*
Y2305803D01*
Y2306262D01*
X938412Y2307410D01*
X938526Y2308788D01*
X938641Y2310510D01*
X938986Y2312347D01*
X939330Y2314298D01*
X939789Y2316135D01*
Y2316250D01*
X939904Y2316365D01*
X940019Y2316939D01*
X940478Y2317857D01*
X940937Y2319005D01*
X941626Y2320383D01*
X942315Y2321760D01*
X943348Y2323138D01*
X944381Y2324516D01*
X944496Y2324630D01*
X944955Y2325090D01*
X945644Y2325778D01*
X946447Y2326582D01*
X947596Y2327386D01*
X948858Y2328304D01*
X950351Y2329222D01*
X951958Y2330026D01*
X952188Y2330141D01*
X952761Y2330370D01*
X953680Y2330600D01*
X955058Y2331059D01*
X956550Y2331404D01*
X958387Y2331633D01*
X960338Y2331863D01*
X962519Y2331978D01*
X963782D01*
X965045Y2331863D01*
X966538Y2331633D01*
X966882D01*
X967226Y2331518D01*
X967686D01*
X968833Y2331289D01*
X969867Y2330944D01*
Y2355167D01*
X983069D01*
Y2282269D01*
D02*
G37*
G36*
X1140000Y2315676D02*
X1160090Y2279744D01*
X1145166D01*
X1132079Y2305000D01*
X1131964D01*
X1118762Y2279744D01*
X1103838D01*
X1123928Y2315676D01*
X1105331Y2349198D01*
X1120140D01*
X1131964Y2326467D01*
X1132079D01*
X1143789Y2349198D01*
X1158598D01*
X1140000Y2315676D01*
D02*
G37*
G36*
X1072727Y2332552D02*
X1073990Y2332437D01*
X1074335D01*
X1075024Y2332322D01*
X1075942D01*
X1076975Y2332207D01*
X1074564Y2321301D01*
X1074449D01*
X1074105Y2321416D01*
X1073646Y2321531D01*
X1072842Y2321760D01*
X1072039Y2321875D01*
X1071005Y2321990D01*
X1069972Y2322105D01*
X1067562D01*
X1066414Y2321990D01*
X1065151Y2321760D01*
X1064921D01*
X1064118Y2321531D01*
X1063199Y2321301D01*
X1062166Y2320957D01*
Y2279744D01*
X1049194D01*
Y2328878D01*
X1049423Y2328993D01*
X1049882Y2329108D01*
X1050801Y2329452D01*
X1051834Y2329796D01*
X1053211Y2330256D01*
X1054819Y2330715D01*
X1056541Y2331059D01*
X1058492Y2331518D01*
X1058722D01*
X1059411Y2331748D01*
X1060559Y2331863D01*
X1062051Y2332092D01*
X1063773Y2332322D01*
X1065725Y2332437D01*
X1068021Y2332666D01*
X1071465D01*
X1072727Y2332552D01*
D02*
G37*
G36*
X748303D02*
X749566Y2332437D01*
X749910D01*
X750599Y2332322D01*
X751517D01*
X752550Y2332207D01*
X750139Y2321301D01*
X750025D01*
X749680Y2321416D01*
X749221Y2321531D01*
X748418Y2321760D01*
X747614Y2321875D01*
X746581Y2321990D01*
X745548Y2322105D01*
X743137D01*
X741989Y2321990D01*
X740726Y2321760D01*
X740496D01*
X739693Y2321531D01*
X738774Y2321301D01*
X737741Y2320957D01*
Y2279744D01*
X724769D01*
Y2328878D01*
X724998Y2328993D01*
X725457Y2329108D01*
X726376Y2329452D01*
X727409Y2329796D01*
X728787Y2330256D01*
X730394Y2330715D01*
X732116Y2331059D01*
X734067Y2331518D01*
X734297D01*
X734986Y2331748D01*
X736134Y2331863D01*
X737626Y2332092D01*
X739348Y2332322D01*
X741300Y2332437D01*
X743596Y2332666D01*
X747040D01*
X748303Y2332552D01*
D02*
G37*
G36*
X500679Y2350345D02*
X501712Y2350231D01*
X502975Y2350116D01*
X504353Y2350001D01*
X505845Y2349657D01*
X509060Y2348968D01*
X512389Y2347935D01*
X513996Y2347246D01*
X515488Y2346442D01*
X516981Y2345409D01*
X518358Y2344376D01*
X518473Y2344261D01*
X518703Y2344146D01*
X519047Y2343802D01*
X519391Y2343228D01*
X519966Y2342654D01*
X520539Y2341965D01*
X521114Y2341047D01*
X521802Y2340014D01*
X522491Y2338980D01*
X523065Y2337718D01*
X524213Y2334962D01*
X524558Y2333355D01*
X524902Y2331748D01*
X525131Y2329911D01*
X525246Y2328074D01*
Y2327845D01*
Y2327271D01*
X525131Y2326352D01*
X525017Y2325204D01*
X524787Y2323827D01*
X524558Y2322449D01*
X524098Y2320842D01*
X523524Y2319349D01*
X523409Y2319120D01*
X523180Y2318661D01*
X522836Y2317972D01*
X522261Y2316939D01*
X521458Y2315905D01*
X520654Y2314758D01*
X519621Y2313495D01*
X518358Y2312347D01*
X518244Y2312232D01*
X517784Y2311887D01*
X516981Y2311314D01*
X516062Y2310740D01*
X514799Y2310051D01*
X513307Y2309247D01*
X511700Y2308558D01*
X509863Y2307869D01*
X509634Y2307755D01*
X508945Y2307640D01*
X507911Y2307410D01*
X506534Y2307066D01*
X504812Y2306722D01*
X502745Y2306492D01*
X500450Y2306377D01*
X498039Y2306262D01*
X495858D01*
X494480Y2306377D01*
X494250D01*
X493447Y2306492D01*
X492528Y2306607D01*
X491610Y2306722D01*
Y2279744D01*
X478408D01*
Y2346672D01*
X478637Y2346787D01*
X479097Y2347016D01*
X479900Y2347246D01*
X481048Y2347705D01*
X482426Y2348050D01*
X483918Y2348509D01*
X485640Y2348968D01*
X487477Y2349427D01*
X487707D01*
X488396Y2349542D01*
X489429Y2349771D01*
X490806Y2350001D01*
X492413Y2350116D01*
X494250Y2350345D01*
X496317Y2350460D01*
X499761D01*
X500679Y2350345D01*
D02*
G37*
G36*
X647164Y2279744D02*
X633617D01*
X625582Y2309132D01*
Y2309247D01*
X625467Y2309591D01*
X625352Y2310166D01*
X625122Y2310740D01*
X624778Y2312347D01*
X624433Y2314069D01*
Y2314184D01*
Y2314413D01*
X624319Y2314758D01*
Y2315217D01*
X624204Y2316250D01*
Y2316594D01*
Y2316939D01*
X623974D01*
Y2316709D01*
X623860Y2316135D01*
X623630Y2315102D01*
X623400Y2313724D01*
Y2313610D01*
X623285Y2313380D01*
Y2312921D01*
X623171Y2312347D01*
X623056Y2311658D01*
X622826Y2310969D01*
X622367Y2309132D01*
X614446Y2279744D01*
X600899D01*
X585861Y2331518D01*
X598948D01*
X606410Y2299719D01*
Y2299604D01*
X606525Y2299260D01*
X606639Y2298800D01*
X606754Y2298226D01*
X606869Y2297423D01*
X607099Y2296619D01*
X607328Y2294668D01*
Y2294553D01*
X607443Y2294208D01*
Y2293749D01*
X607558Y2293290D01*
X607673Y2292142D01*
Y2291683D01*
Y2291338D01*
X607902D01*
Y2291453D01*
X608017Y2292027D01*
X608132Y2292372D01*
X608247Y2292945D01*
X608361Y2293634D01*
X608476Y2294438D01*
Y2294553D01*
X608591Y2294897D01*
Y2295356D01*
X608706Y2296045D01*
X608936Y2296734D01*
X609165Y2297652D01*
X609624Y2299719D01*
X618005Y2331518D01*
X630059D01*
X638324Y2299719D01*
Y2299604D01*
X638439Y2299260D01*
X638554Y2298686D01*
X638784Y2297997D01*
X639128Y2296275D01*
X639472Y2294438D01*
Y2294323D01*
X639587Y2294093D01*
Y2293634D01*
X639702Y2293175D01*
X639932Y2292142D01*
X640046Y2291683D01*
X640161Y2291338D01*
X640276D01*
Y2291453D01*
X640391Y2292027D01*
Y2292372D01*
X640505Y2292945D01*
Y2293634D01*
X640620Y2294438D01*
Y2294553D01*
X640735Y2294897D01*
Y2295356D01*
X640850Y2296045D01*
X641080Y2296734D01*
X641194Y2297652D01*
X641654Y2299719D01*
X649001Y2331518D01*
X662203D01*
X647164Y2279744D01*
D02*
G37*
G36*
X1207618Y2306262D02*
X1214505D01*
Y2296849D01*
X1207618D01*
Y2279744D01*
X1195449D01*
Y2296849D01*
X1164338D01*
Y2306262D01*
X1193267Y2349198D01*
X1207618D01*
Y2306262D01*
D02*
G37*
G36*
X821660Y2337947D02*
X798356D01*
Y2320498D01*
X819479D01*
Y2309362D01*
X798356D01*
Y2279744D01*
X785154D01*
Y2349198D01*
X821660D01*
Y2337947D01*
D02*
G37*
G36*
X1018886Y2332552D02*
X1020149Y2332437D01*
X1021641Y2332207D01*
X1023249Y2331978D01*
X1024856Y2331518D01*
X1026463Y2330944D01*
X1026693Y2330830D01*
X1027152Y2330600D01*
X1027956Y2330256D01*
X1028874Y2329682D01*
X1030022Y2328993D01*
X1031170Y2328189D01*
X1032318Y2327271D01*
X1033351Y2326123D01*
X1033466Y2326008D01*
X1033810Y2325549D01*
X1034384Y2324860D01*
X1034958Y2324056D01*
X1035647Y2322908D01*
X1036451Y2321646D01*
X1037139Y2320268D01*
X1037714Y2318661D01*
X1037828Y2318431D01*
X1037943Y2317972D01*
X1038173Y2317054D01*
X1038517Y2315906D01*
X1038747Y2314528D01*
X1038976Y2312806D01*
X1039091Y2311084D01*
X1039206Y2309132D01*
Y2306836D01*
Y2306607D01*
Y2306148D01*
X1039091Y2305459D01*
X1038976Y2304655D01*
X1005684Y2300178D01*
Y2300063D01*
Y2299948D01*
X1005914Y2299260D01*
X1006144Y2298226D01*
X1006603Y2296964D01*
X1007292Y2295586D01*
X1008095Y2294094D01*
X1009128Y2292716D01*
X1010391Y2291568D01*
X1010621Y2291453D01*
X1011080Y2291109D01*
X1011884Y2290650D01*
X1013032Y2290190D01*
X1014409Y2289731D01*
X1016016Y2289272D01*
X1017968Y2288928D01*
X1020034Y2288813D01*
X1021527D01*
X1022445Y2288928D01*
X1023593Y2289042D01*
X1024971Y2289157D01*
X1027726Y2289731D01*
X1027956D01*
X1028415Y2289846D01*
X1029103Y2290076D01*
X1030022Y2290420D01*
X1031055Y2290650D01*
X1032203Y2291109D01*
X1034384Y2292027D01*
X1038173Y2282269D01*
X1038058Y2282154D01*
X1037599Y2282040D01*
X1036910Y2281695D01*
X1035877Y2281351D01*
X1034614Y2280892D01*
X1033236Y2280432D01*
X1031629Y2280088D01*
X1029792Y2279629D01*
X1029563D01*
X1028874Y2279514D01*
X1027841Y2279284D01*
X1026578Y2279170D01*
X1024971Y2278940D01*
X1023134Y2278710D01*
X1021067Y2278596D01*
X1017968D01*
X1016705Y2278710D01*
X1015213Y2278825D01*
X1013376Y2279055D01*
X1011539Y2279399D01*
X1009587Y2279858D01*
X1007751Y2280547D01*
X1007521Y2280662D01*
X1006947Y2280892D01*
X1006029Y2281351D01*
X1004881Y2281925D01*
X1003618Y2282728D01*
X1002240Y2283647D01*
X1000863Y2284795D01*
X999600Y2286058D01*
X999485Y2286172D01*
X999026Y2286746D01*
X998452Y2287435D01*
X997763Y2288468D01*
X996960Y2289731D01*
X996041Y2291224D01*
X995237Y2292831D01*
X994549Y2294668D01*
Y2294782D01*
X994434Y2294897D01*
X994319Y2295586D01*
X994090Y2296619D01*
X993745Y2297882D01*
X993401Y2299604D01*
X993171Y2301441D01*
X993056Y2303392D01*
X992942Y2305574D01*
Y2305688D01*
Y2305803D01*
Y2306148D01*
Y2306607D01*
X993056Y2307755D01*
X993171Y2309132D01*
X993286Y2310854D01*
X993630Y2312691D01*
X993975Y2314643D01*
X994549Y2316480D01*
Y2316594D01*
X994663Y2316709D01*
X994893Y2317283D01*
X995237Y2318316D01*
X995697Y2319464D01*
X996385Y2320842D01*
X997189Y2322220D01*
X998222Y2323712D01*
X999255Y2325090D01*
X999370Y2325204D01*
X999830Y2325664D01*
X1000518Y2326352D01*
X1001322Y2327156D01*
X1002470Y2327960D01*
X1003733Y2328878D01*
X1005225Y2329796D01*
X1006832Y2330600D01*
X1007062Y2330715D01*
X1007636Y2330944D01*
X1008554Y2331289D01*
X1009817Y2331633D01*
X1011309Y2331978D01*
X1013032Y2332322D01*
X1014868Y2332552D01*
X1016935Y2332666D01*
X1017853D01*
X1018886Y2332552D01*
D02*
G37*
G36*
X909826D02*
X911089Y2332437D01*
X912582Y2332207D01*
X914189Y2331978D01*
X915796Y2331518D01*
X917403Y2330944D01*
X917633Y2330830D01*
X918092Y2330600D01*
X918895Y2330256D01*
X919814Y2329682D01*
X920962Y2328993D01*
X922110Y2328189D01*
X923258Y2327271D01*
X924291Y2326123D01*
X924406Y2326008D01*
X924750Y2325549D01*
X925324Y2324860D01*
X925898Y2324056D01*
X926587Y2322908D01*
X927391Y2321646D01*
X928080Y2320268D01*
X928654Y2318661D01*
X928768Y2318431D01*
X928883Y2317972D01*
X929113Y2317054D01*
X929457Y2315906D01*
X929687Y2314528D01*
X929916Y2312806D01*
X930031Y2311084D01*
X930146Y2309132D01*
Y2306836D01*
Y2306607D01*
Y2306148D01*
X930031Y2305459D01*
X929916Y2304655D01*
X896624Y2300178D01*
Y2300063D01*
Y2299948D01*
X896854Y2299260D01*
X897083Y2298226D01*
X897543Y2296964D01*
X898231Y2295586D01*
X899035Y2294094D01*
X900068Y2292716D01*
X901331Y2291568D01*
X901561Y2291453D01*
X902020Y2291109D01*
X902823Y2290650D01*
X903971Y2290190D01*
X905349Y2289731D01*
X906956Y2289272D01*
X908908Y2288928D01*
X910974Y2288813D01*
X912467D01*
X913385Y2288928D01*
X914533Y2289042D01*
X915911Y2289157D01*
X918666Y2289731D01*
X918895D01*
X919355Y2289846D01*
X920043Y2290076D01*
X920962Y2290420D01*
X921995Y2290650D01*
X923143Y2291109D01*
X925324Y2292027D01*
X929113Y2282269D01*
X928998Y2282154D01*
X928539Y2282040D01*
X927850Y2281695D01*
X926817Y2281351D01*
X925554Y2280892D01*
X924176Y2280432D01*
X922569Y2280088D01*
X920732Y2279629D01*
X920503D01*
X919814Y2279514D01*
X918781Y2279284D01*
X917518Y2279170D01*
X915911Y2278940D01*
X914074Y2278710D01*
X912008Y2278596D01*
X908908D01*
X907645Y2278710D01*
X906153Y2278825D01*
X904316Y2279055D01*
X902479Y2279399D01*
X900528Y2279858D01*
X898691Y2280547D01*
X898461Y2280662D01*
X897887Y2280892D01*
X896969Y2281351D01*
X895821Y2281925D01*
X894558Y2282728D01*
X893180Y2283647D01*
X891803Y2284795D01*
X890540Y2286058D01*
X890425Y2286172D01*
X889966Y2286746D01*
X889392Y2287435D01*
X888703Y2288468D01*
X887899Y2289731D01*
X886981Y2291224D01*
X886178Y2292831D01*
X885489Y2294668D01*
Y2294782D01*
X885374Y2294897D01*
X885259Y2295586D01*
X885029Y2296619D01*
X884685Y2297882D01*
X884341Y2299604D01*
X884111Y2301441D01*
X883996Y2303392D01*
X883881Y2305574D01*
Y2305688D01*
Y2305803D01*
Y2306148D01*
Y2306607D01*
X883996Y2307755D01*
X884111Y2309132D01*
X884226Y2310854D01*
X884570Y2312691D01*
X884915Y2314643D01*
X885489Y2316480D01*
Y2316594D01*
X885604Y2316709D01*
X885833Y2317283D01*
X886178Y2318316D01*
X886637Y2319464D01*
X887326Y2320842D01*
X888129Y2322220D01*
X889162Y2323712D01*
X890196Y2325090D01*
X890310Y2325204D01*
X890769Y2325664D01*
X891458Y2326352D01*
X892262Y2327156D01*
X893410Y2327960D01*
X894673Y2328878D01*
X896165Y2329796D01*
X897772Y2330600D01*
X898002Y2330715D01*
X898576Y2330944D01*
X899494Y2331289D01*
X900757Y2331633D01*
X902250Y2331978D01*
X903971Y2332322D01*
X905808Y2332552D01*
X907875Y2332666D01*
X908793D01*
X909826Y2332552D01*
D02*
G37*
G36*
X855411D02*
X856674Y2332437D01*
X858166Y2332207D01*
X859774Y2331978D01*
X861381Y2331518D01*
X862988Y2330944D01*
X863217Y2330830D01*
X863677Y2330600D01*
X864480Y2330256D01*
X865399Y2329682D01*
X866547Y2328993D01*
X867695Y2328189D01*
X868843Y2327271D01*
X869876Y2326123D01*
X869991Y2326008D01*
X870335Y2325549D01*
X870909Y2324860D01*
X871483Y2324056D01*
X872172Y2322908D01*
X872976Y2321646D01*
X873664Y2320268D01*
X874238Y2318661D01*
X874353Y2318431D01*
X874468Y2317972D01*
X874697Y2317054D01*
X875042Y2315906D01*
X875271Y2314528D01*
X875501Y2312806D01*
X875616Y2311084D01*
X875731Y2309132D01*
Y2306836D01*
Y2306607D01*
Y2306148D01*
X875616Y2305459D01*
X875501Y2304655D01*
X842209Y2300178D01*
Y2300063D01*
Y2299948D01*
X842439Y2299260D01*
X842668Y2298226D01*
X843128Y2296964D01*
X843816Y2295586D01*
X844620Y2294094D01*
X845653Y2292716D01*
X846916Y2291568D01*
X847145Y2291453D01*
X847605Y2291109D01*
X848408Y2290650D01*
X849556Y2290190D01*
X850934Y2289731D01*
X852541Y2289272D01*
X854493Y2288928D01*
X856559Y2288813D01*
X858052D01*
X858970Y2288928D01*
X860118Y2289042D01*
X861495Y2289157D01*
X864251Y2289731D01*
X864480D01*
X864939Y2289846D01*
X865628Y2290076D01*
X866547Y2290420D01*
X867580Y2290650D01*
X868728Y2291109D01*
X870909Y2292027D01*
X874697Y2282269D01*
X874583Y2282154D01*
X874124Y2282040D01*
X873435Y2281695D01*
X872402Y2281351D01*
X871139Y2280892D01*
X869761Y2280432D01*
X868154Y2280088D01*
X866317Y2279629D01*
X866087D01*
X865399Y2279514D01*
X864365Y2279284D01*
X863103Y2279170D01*
X861495Y2278940D01*
X859659Y2278710D01*
X857592Y2278596D01*
X854493D01*
X853230Y2278710D01*
X851737Y2278825D01*
X849901Y2279055D01*
X848064Y2279399D01*
X846112Y2279858D01*
X844275Y2280547D01*
X844046Y2280662D01*
X843472Y2280892D01*
X842553Y2281351D01*
X841405Y2281925D01*
X840143Y2282728D01*
X838765Y2283647D01*
X837388Y2284795D01*
X836125Y2286058D01*
X836010Y2286172D01*
X835551Y2286746D01*
X834977Y2287435D01*
X834288Y2288468D01*
X833484Y2289731D01*
X832566Y2291224D01*
X831762Y2292831D01*
X831073Y2294668D01*
Y2294782D01*
X830959Y2294897D01*
X830844Y2295586D01*
X830614Y2296619D01*
X830270Y2297882D01*
X829926Y2299604D01*
X829696Y2301441D01*
X829581Y2303392D01*
X829466Y2305574D01*
Y2305688D01*
Y2305803D01*
Y2306148D01*
Y2306607D01*
X829581Y2307755D01*
X829696Y2309132D01*
X829811Y2310854D01*
X830155Y2312691D01*
X830500Y2314643D01*
X831073Y2316480D01*
Y2316594D01*
X831188Y2316709D01*
X831418Y2317283D01*
X831762Y2318316D01*
X832221Y2319464D01*
X832910Y2320842D01*
X833714Y2322220D01*
X834747Y2323712D01*
X835780Y2325090D01*
X835895Y2325204D01*
X836354Y2325664D01*
X837043Y2326352D01*
X837847Y2327156D01*
X838995Y2327960D01*
X840258Y2328878D01*
X841750Y2329796D01*
X843357Y2330600D01*
X843587Y2330715D01*
X844161Y2330944D01*
X845079Y2331289D01*
X846342Y2331633D01*
X847834Y2331978D01*
X849556Y2332322D01*
X851393Y2332552D01*
X853460Y2332666D01*
X854378D01*
X855411Y2332552D01*
D02*
G37*
G36*
X694462Y2332552D02*
X695724Y2332437D01*
X697217Y2332207D01*
X698824Y2331977D01*
X700431Y2331518D01*
X702038Y2330944D01*
X702268Y2330829D01*
X702727Y2330600D01*
X703531Y2330256D01*
X704449Y2329682D01*
X705597Y2328993D01*
X706745Y2328189D01*
X707893Y2327271D01*
X708926Y2326123D01*
X709041Y2326008D01*
X709385Y2325549D01*
X709960Y2324860D01*
X710534Y2324056D01*
X711222Y2322908D01*
X712026Y2321646D01*
X712715Y2320268D01*
X713289Y2318661D01*
X713404Y2318431D01*
X713518Y2317972D01*
X713748Y2317053D01*
X714092Y2315905D01*
X714322Y2314528D01*
X714552Y2312806D01*
X714666Y2311084D01*
X714781Y2309132D01*
Y2306836D01*
Y2306607D01*
Y2306148D01*
X714666Y2305459D01*
X714552Y2304655D01*
X681260Y2300178D01*
Y2300063D01*
Y2299948D01*
X681489Y2299260D01*
X681719Y2298226D01*
X682178Y2296963D01*
X682867Y2295586D01*
X683670Y2294093D01*
X684703Y2292716D01*
X685966Y2291568D01*
X686196Y2291453D01*
X686655Y2291109D01*
X687459Y2290649D01*
X688607Y2290190D01*
X689984Y2289731D01*
X691591Y2289272D01*
X693543Y2288927D01*
X695610Y2288813D01*
X697102D01*
X698020Y2288927D01*
X699168Y2289042D01*
X700546Y2289157D01*
X703301Y2289731D01*
X703531D01*
X703990Y2289846D01*
X704679Y2290075D01*
X705597Y2290420D01*
X706630Y2290649D01*
X707778Y2291109D01*
X709960Y2292027D01*
X713748Y2282269D01*
X713633Y2282154D01*
X713174Y2282039D01*
X712485Y2281695D01*
X711452Y2281351D01*
X710189Y2280892D01*
X708812Y2280432D01*
X707204Y2280088D01*
X705367Y2279629D01*
X705138D01*
X704449Y2279514D01*
X703416Y2279284D01*
X702153Y2279169D01*
X700546Y2278940D01*
X698709Y2278710D01*
X696643Y2278595D01*
X693543D01*
X692280Y2278710D01*
X690788Y2278825D01*
X688951Y2279055D01*
X687114Y2279399D01*
X685163Y2279858D01*
X683326Y2280547D01*
X683096Y2280662D01*
X682522Y2280892D01*
X681604Y2281351D01*
X680456Y2281925D01*
X679193Y2282728D01*
X677816Y2283647D01*
X676438Y2284795D01*
X675175Y2286057D01*
X675060Y2286172D01*
X674601Y2286746D01*
X674027Y2287435D01*
X673338Y2288468D01*
X672535Y2289731D01*
X671616Y2291224D01*
X670813Y2292831D01*
X670124Y2294668D01*
Y2294782D01*
X670009Y2294897D01*
X669894Y2295586D01*
X669665Y2296619D01*
X669320Y2297882D01*
X668976Y2299604D01*
X668746Y2301441D01*
X668631Y2303392D01*
X668517Y2305573D01*
Y2305688D01*
Y2305803D01*
Y2306148D01*
Y2306607D01*
X668631Y2307755D01*
X668746Y2309132D01*
X668861Y2310854D01*
X669206Y2312691D01*
X669550Y2314643D01*
X670124Y2316479D01*
Y2316594D01*
X670239Y2316709D01*
X670468Y2317283D01*
X670813Y2318316D01*
X671272Y2319464D01*
X671961Y2320842D01*
X672764Y2322220D01*
X673798Y2323712D01*
X674831Y2325090D01*
X674946Y2325204D01*
X675405Y2325664D01*
X676093Y2326352D01*
X676897Y2327156D01*
X678045Y2327959D01*
X679308Y2328878D01*
X680800Y2329796D01*
X682408Y2330600D01*
X682637Y2330715D01*
X683211Y2330944D01*
X684130Y2331289D01*
X685392Y2331633D01*
X686885Y2331977D01*
X688607Y2332322D01*
X690443Y2332552D01*
X692510Y2332666D01*
X693428D01*
X694462Y2332552D01*
D02*
G37*
G36*
X558079D02*
X559342Y2332437D01*
X560949Y2332207D01*
X562556Y2331748D01*
X564278Y2331289D01*
X566000Y2330600D01*
X566230Y2330485D01*
X566689Y2330256D01*
X567493Y2329796D01*
X568526Y2329108D01*
X569674Y2328304D01*
X570937Y2327271D01*
X572199Y2326123D01*
X573347Y2324860D01*
X573462Y2324745D01*
X573807Y2324286D01*
X574381Y2323482D01*
X575069Y2322449D01*
X575758Y2321186D01*
X576447Y2319809D01*
X577251Y2318202D01*
X577825Y2316365D01*
X577939Y2316135D01*
X578054Y2315561D01*
X578284Y2314528D01*
X578628Y2313150D01*
X578973Y2311543D01*
X579202Y2309706D01*
X579317Y2307755D01*
X579432Y2305573D01*
Y2305459D01*
Y2305344D01*
Y2304999D01*
Y2304655D01*
X579317Y2303507D01*
X579202Y2302130D01*
X579087Y2300407D01*
X578743Y2298571D01*
X578399Y2296734D01*
X577825Y2294782D01*
X577710Y2294553D01*
X577595Y2293979D01*
X577251Y2293060D01*
X576677Y2291912D01*
X576103Y2290535D01*
X575299Y2289042D01*
X574381Y2287550D01*
X573347Y2286172D01*
X573233Y2286057D01*
X572774Y2285598D01*
X572199Y2284910D01*
X571281Y2284106D01*
X570248Y2283188D01*
X568985Y2282269D01*
X567607Y2281351D01*
X566000Y2280547D01*
X565771Y2280432D01*
X565197Y2280203D01*
X564278Y2279973D01*
X563130Y2279629D01*
X561638Y2279169D01*
X559916Y2278940D01*
X558079Y2278710D01*
X556013Y2278595D01*
X555094D01*
X553946Y2278710D01*
X552683Y2278825D01*
X551076Y2279055D01*
X549354Y2279399D01*
X547632Y2279858D01*
X545910Y2280547D01*
X545681Y2280662D01*
X545221Y2280892D01*
X544418Y2281351D01*
X543385Y2282039D01*
X542237Y2282843D01*
X540974Y2283762D01*
X539711Y2284910D01*
X538563Y2286172D01*
X538448Y2286287D01*
X538104Y2286861D01*
X537530Y2287550D01*
X536841Y2288583D01*
X536152Y2289846D01*
X535463Y2291338D01*
X534660Y2292945D01*
X534086Y2294782D01*
Y2294897D01*
X533971Y2295012D01*
X533856Y2295701D01*
X533627Y2296734D01*
X533397Y2297997D01*
X533053Y2299604D01*
X532823Y2301441D01*
X532708Y2303507D01*
X532593Y2305573D01*
Y2305688D01*
Y2305803D01*
Y2306148D01*
Y2306607D01*
X532708Y2307640D01*
X532823Y2309132D01*
X532938Y2310740D01*
X533282Y2312576D01*
X533627Y2314528D01*
X534086Y2316365D01*
Y2316479D01*
X534201Y2316594D01*
X534316Y2317168D01*
X534775Y2318087D01*
X535234Y2319235D01*
X535808Y2320612D01*
X536611Y2321990D01*
X537530Y2323482D01*
X538563Y2324860D01*
X538678Y2324975D01*
X539137Y2325434D01*
X539711Y2326123D01*
X540630Y2326926D01*
X541663Y2327845D01*
X542926Y2328878D01*
X544303Y2329796D01*
X545910Y2330600D01*
X546140Y2330715D01*
X546714Y2330944D01*
X547632Y2331289D01*
X548895Y2331633D01*
X550388Y2331977D01*
X552110Y2332322D01*
X553946Y2332552D01*
X556013Y2332666D01*
X556931D01*
X558079Y2332552D01*
D02*
G37*
%LPC*%
G36*
X804720Y558403D02*
X803638D01*
X802654Y558305D01*
X801374Y558108D01*
X801079D01*
X800784Y558010D01*
X800489D01*
X799603Y557813D01*
X798718Y557518D01*
Y538625D01*
X798816D01*
X799013Y538527D01*
X799505D01*
X799997Y538428D01*
X800784Y538330D01*
X801571D01*
X802555Y538231D01*
X804622D01*
X805802Y538330D01*
X807180Y538527D01*
X808656Y538920D01*
X810230Y539314D01*
X811706Y540003D01*
X812986Y540888D01*
X813084Y540986D01*
X813478Y541380D01*
X813970Y541971D01*
X814658Y542856D01*
X815249Y543840D01*
X815741Y545119D01*
X816134Y546595D01*
X816233Y548268D01*
Y548366D01*
Y548662D01*
X816134Y549252D01*
X816036Y549842D01*
X815839Y550630D01*
X815642Y551515D01*
X815249Y552401D01*
X814757Y553385D01*
X814166Y554270D01*
X813379Y555156D01*
X812494Y556042D01*
X811411Y556829D01*
X810034Y557518D01*
X808558Y558010D01*
X806786Y558305D01*
X804720Y558403D01*
D02*
G37*
G36*
X989318Y556435D02*
X989122D01*
Y556337D01*
X989023Y556140D01*
X988826Y555746D01*
X988531Y555255D01*
X988433Y555156D01*
X988236Y554763D01*
X987941Y554172D01*
X987547Y553483D01*
X987449Y553287D01*
X987154Y552893D01*
X986760Y552204D01*
X986366Y551417D01*
X986268Y551220D01*
X986071Y550827D01*
X985678Y550236D01*
X985284Y549646D01*
X971803Y529474D01*
X989122D01*
Y548662D01*
Y548760D01*
Y549154D01*
Y549646D01*
Y550335D01*
Y551122D01*
Y552007D01*
X989220Y553680D01*
Y553779D01*
Y554074D01*
Y554467D01*
X989318Y554861D01*
Y555845D01*
Y556140D01*
Y556435D01*
D02*
G37*
G36*
X853920Y543250D02*
X853723D01*
X853231Y543151D01*
X852444Y543053D01*
X851460Y542758D01*
X850378Y542364D01*
X849197Y541675D01*
X848213Y540691D01*
X847229Y539412D01*
X847130Y539215D01*
X846835Y538723D01*
X846540Y537838D01*
X846146Y536755D01*
X845654Y535181D01*
X845359Y533410D01*
X845064Y531343D01*
X844966Y528982D01*
Y528883D01*
Y528687D01*
Y528391D01*
Y527899D01*
X845064Y527309D01*
Y526718D01*
X845261Y525242D01*
X845556Y523570D01*
X845950Y521798D01*
X846442Y520126D01*
X847229Y518551D01*
X847327Y518355D01*
X847622Y517961D01*
X848213Y517370D01*
X848902Y516682D01*
X849886Y515993D01*
X850968Y515403D01*
X852346Y515009D01*
X853920Y514812D01*
X854117D01*
X854609Y514910D01*
X855396Y515009D01*
X856380Y515304D01*
X857462Y515698D01*
X858545Y516386D01*
X859627Y517272D01*
X860513Y518551D01*
X860611Y518748D01*
X860906Y519240D01*
X861202Y520126D01*
X861694Y521307D01*
X862087Y522783D01*
X862382Y524554D01*
X862678Y526620D01*
X862776Y528982D01*
Y529080D01*
Y529277D01*
Y529670D01*
Y530064D01*
X862678Y530654D01*
Y531343D01*
X862481Y532819D01*
X862186Y534492D01*
X861792Y536165D01*
X861300Y537936D01*
X860513Y539412D01*
X860414Y539609D01*
X860119Y540003D01*
X859627Y540593D01*
X858840Y541380D01*
X857954Y542069D01*
X856774Y542659D01*
X855494Y543053D01*
X853920Y543250D01*
D02*
G37*
G36*
X3344090Y558404D02*
X3343008D01*
X3342024Y558305D01*
X3340744Y558108D01*
X3340449D01*
X3340154Y558010D01*
X3339859D01*
X3338973Y557813D01*
X3338088Y557518D01*
Y538625D01*
X3338186D01*
X3338383Y538527D01*
X3338875D01*
X3339367Y538428D01*
X3340154Y538330D01*
X3340941D01*
X3341925Y538231D01*
X3343992D01*
X3345172Y538330D01*
X3346550Y538527D01*
X3348026Y538920D01*
X3349600Y539314D01*
X3351076Y540003D01*
X3352356Y540888D01*
X3352454Y540987D01*
X3352848Y541380D01*
X3353340Y541971D01*
X3354028Y542856D01*
X3354619Y543840D01*
X3355111Y545120D01*
X3355504Y546596D01*
X3355603Y548268D01*
Y548367D01*
Y548662D01*
X3355504Y549252D01*
X3355406Y549843D01*
X3355209Y550630D01*
X3355012Y551515D01*
X3354619Y552401D01*
X3354127Y553385D01*
X3353536Y554271D01*
X3352749Y555156D01*
X3351864Y556042D01*
X3350781Y556829D01*
X3349404Y557518D01*
X3347928Y558010D01*
X3346156Y558305D01*
X3344090Y558404D01*
D02*
G37*
G36*
X3393290Y543250D02*
X3393093D01*
X3392601Y543152D01*
X3391814Y543053D01*
X3390830Y542758D01*
X3389748Y542364D01*
X3388567Y541676D01*
X3387583Y540692D01*
X3386599Y539412D01*
X3386500Y539216D01*
X3386205Y538723D01*
X3385910Y537838D01*
X3385516Y536755D01*
X3385024Y535181D01*
X3384729Y533410D01*
X3384434Y531343D01*
X3384336Y528982D01*
Y528884D01*
Y528687D01*
Y528391D01*
Y527899D01*
X3384434Y527309D01*
Y526719D01*
X3384631Y525243D01*
X3384926Y523570D01*
X3385320Y521799D01*
X3385812Y520126D01*
X3386599Y518552D01*
X3386697Y518355D01*
X3386992Y517961D01*
X3387583Y517371D01*
X3388272Y516682D01*
X3389256Y515993D01*
X3390338Y515403D01*
X3391716Y515009D01*
X3393290Y514812D01*
X3393487D01*
X3393979Y514911D01*
X3394766Y515009D01*
X3395750Y515304D01*
X3396832Y515698D01*
X3397915Y516387D01*
X3398997Y517272D01*
X3399883Y518552D01*
X3399981Y518748D01*
X3400276Y519240D01*
X3400572Y520126D01*
X3401064Y521307D01*
X3401457Y522783D01*
X3401752Y524554D01*
X3402048Y526620D01*
X3402146Y528982D01*
Y529080D01*
Y529277D01*
Y529671D01*
Y530064D01*
X3402048Y530655D01*
Y531343D01*
X3401851Y532819D01*
X3401556Y534492D01*
X3401162Y536165D01*
X3400670Y537936D01*
X3399883Y539412D01*
X3399784Y539609D01*
X3399489Y540003D01*
X3398997Y540593D01*
X3398210Y541380D01*
X3397324Y542069D01*
X3396144Y542659D01*
X3394864Y543053D01*
X3393290Y543250D01*
D02*
G37*
G36*
X2497633Y558403D02*
X2496551D01*
X2495567Y558305D01*
X2494288Y558108D01*
X2493993D01*
X2493697Y558010D01*
X2493402D01*
X2492517Y557813D01*
X2491631Y557518D01*
Y538625D01*
X2491729D01*
X2491926Y538527D01*
X2492418D01*
X2492910Y538428D01*
X2493697Y538330D01*
X2494485D01*
X2495469Y538231D01*
X2497535D01*
X2498716Y538330D01*
X2500093Y538527D01*
X2501569Y538920D01*
X2503144Y539314D01*
X2504620Y540003D01*
X2505899Y540888D01*
X2505997Y540986D01*
X2506391Y541380D01*
X2506883Y541971D01*
X2507572Y542856D01*
X2508162Y543840D01*
X2508654Y545119D01*
X2509048Y546595D01*
X2509146Y548268D01*
Y548366D01*
Y548662D01*
X2509048Y549252D01*
X2508949Y549842D01*
X2508753Y550630D01*
X2508556Y551515D01*
X2508162Y552401D01*
X2507670Y553385D01*
X2507080Y554270D01*
X2506293Y555156D01*
X2505407Y556042D01*
X2504325Y556829D01*
X2502947Y557518D01*
X2501471Y558010D01*
X2499700Y558305D01*
X2497633Y558403D01*
D02*
G37*
G36*
X2546833Y543250D02*
X2546637D01*
X2546145Y543151D01*
X2545357Y543053D01*
X2544373Y542758D01*
X2543291Y542364D01*
X2542110Y541675D01*
X2541126Y540691D01*
X2540142Y539412D01*
X2540044Y539215D01*
X2539749Y538723D01*
X2539453Y537838D01*
X2539060Y536755D01*
X2538568Y535181D01*
X2538273Y533410D01*
X2537977Y531343D01*
X2537879Y528982D01*
Y528883D01*
Y528687D01*
Y528391D01*
Y527899D01*
X2537977Y527309D01*
Y526718D01*
X2538174Y525242D01*
X2538469Y523570D01*
X2538863Y521798D01*
X2539355Y520126D01*
X2540142Y518551D01*
X2540241Y518355D01*
X2540536Y517961D01*
X2541126Y517370D01*
X2541815Y516682D01*
X2542799Y515993D01*
X2543881Y515403D01*
X2545259Y515009D01*
X2546833Y514812D01*
X2547030D01*
X2547522Y514910D01*
X2548309Y515009D01*
X2549293Y515304D01*
X2550376Y515698D01*
X2551458Y516386D01*
X2552541Y517272D01*
X2553426Y518551D01*
X2553525Y518748D01*
X2553820Y519240D01*
X2554115Y520126D01*
X2554607Y521307D01*
X2555001Y522783D01*
X2555296Y524554D01*
X2555591Y526620D01*
X2555689Y528982D01*
Y529080D01*
Y529277D01*
Y529670D01*
Y530064D01*
X2555591Y530654D01*
Y531343D01*
X2555394Y532819D01*
X2555099Y534492D01*
X2554705Y536165D01*
X2554213Y537936D01*
X2553426Y539412D01*
X2553328Y539609D01*
X2553033Y540003D01*
X2552541Y540593D01*
X2551753Y541380D01*
X2550868Y542069D01*
X2549687Y542659D01*
X2548408Y543053D01*
X2546833Y543250D01*
D02*
G37*
G36*
X1651177Y558403D02*
X1650094D01*
X1649110Y558305D01*
X1647831Y558108D01*
X1647536D01*
X1647241Y558010D01*
X1646946D01*
X1646060Y557813D01*
X1645174Y557518D01*
Y538625D01*
X1645273D01*
X1645469Y538527D01*
X1645961D01*
X1646454Y538428D01*
X1647241Y538330D01*
X1648028D01*
X1649012Y538231D01*
X1651078D01*
X1652259Y538330D01*
X1653637Y538527D01*
X1655113Y538920D01*
X1656687Y539314D01*
X1658163Y540003D01*
X1659442Y540888D01*
X1659541Y540986D01*
X1659934Y541380D01*
X1660426Y541971D01*
X1661115Y542856D01*
X1661706Y543840D01*
X1662197Y545119D01*
X1662591Y546595D01*
X1662689Y548268D01*
Y548366D01*
Y548662D01*
X1662591Y549252D01*
X1662493Y549842D01*
X1662296Y550630D01*
X1662099Y551515D01*
X1661706Y552401D01*
X1661214Y553385D01*
X1660623Y554270D01*
X1659836Y555156D01*
X1658950Y556042D01*
X1657868Y556829D01*
X1656490Y557518D01*
X1655014Y558010D01*
X1653243Y558305D01*
X1651177Y558403D01*
D02*
G37*
G36*
X1700377Y543250D02*
X1700180D01*
X1699688Y543151D01*
X1698901Y543053D01*
X1697917Y542758D01*
X1696834Y542364D01*
X1695653Y541675D01*
X1694669Y540691D01*
X1693686Y539412D01*
X1693587Y539215D01*
X1693292Y538723D01*
X1692997Y537838D01*
X1692603Y536755D01*
X1692111Y535181D01*
X1691816Y533410D01*
X1691521Y531343D01*
X1691422Y528982D01*
Y528883D01*
Y528687D01*
Y528391D01*
Y527899D01*
X1691521Y527309D01*
Y526718D01*
X1691717Y525242D01*
X1692013Y523570D01*
X1692406Y521798D01*
X1692898Y520126D01*
X1693686Y518551D01*
X1693784Y518355D01*
X1694079Y517961D01*
X1694669Y517370D01*
X1695358Y516682D01*
X1696342Y515993D01*
X1697425Y515403D01*
X1698802Y515009D01*
X1700377Y514812D01*
X1700573D01*
X1701065Y514910D01*
X1701853Y515009D01*
X1702837Y515304D01*
X1703919Y515698D01*
X1705002Y516386D01*
X1706084Y517272D01*
X1706969Y518551D01*
X1707068Y518748D01*
X1707363Y519240D01*
X1707658Y520126D01*
X1708150Y521307D01*
X1708544Y522783D01*
X1708839Y524554D01*
X1709134Y526620D01*
X1709233Y528982D01*
Y529080D01*
Y529277D01*
Y529670D01*
Y530064D01*
X1709134Y530654D01*
Y531343D01*
X1708938Y532819D01*
X1708642Y534492D01*
X1708249Y536165D01*
X1707757Y537936D01*
X1706969Y539412D01*
X1706871Y539609D01*
X1706576Y540003D01*
X1706084Y540593D01*
X1705297Y541380D01*
X1704411Y542069D01*
X1703230Y542659D01*
X1701951Y543053D01*
X1700377Y543250D01*
D02*
G37*
G36*
X217455Y1729565D02*
X198562D01*
Y1729467D01*
X198464Y1729270D01*
Y1728778D01*
X198365Y1728286D01*
X198267Y1727499D01*
Y1726711D01*
X198169Y1725727D01*
Y1723661D01*
X198267Y1722480D01*
X198464Y1721103D01*
X198857Y1719627D01*
X199251Y1718052D01*
X199940Y1716576D01*
X200826Y1715297D01*
X200924Y1715199D01*
X201317Y1714805D01*
X201908Y1714313D01*
X202793Y1713624D01*
X203778Y1713034D01*
X205057Y1712542D01*
X206533Y1712148D01*
X208206Y1712050D01*
X208304D01*
X208599D01*
X209190Y1712148D01*
X209780Y1712247D01*
X210567Y1712443D01*
X211453Y1712640D01*
X212338Y1713034D01*
X213322Y1713526D01*
X214208Y1714116D01*
X215094Y1714903D01*
X215979Y1715789D01*
X216766Y1716871D01*
X217455Y1718249D01*
X217947Y1719725D01*
X218242Y1721496D01*
X218341Y1723563D01*
Y1724645D01*
X218242Y1725629D01*
X218046Y1726908D01*
Y1727203D01*
X217947Y1727499D01*
Y1727794D01*
X217750Y1728679D01*
X217455Y1729565D01*
D02*
G37*
G36*
X188919Y1683317D02*
X188821D01*
X188624D01*
X188329D01*
X187837D01*
X187246Y1683219D01*
X186656D01*
X185180Y1683022D01*
X183507Y1682727D01*
X181736Y1682333D01*
X180063Y1681841D01*
X178489Y1681054D01*
X178292Y1680955D01*
X177898Y1680660D01*
X177308Y1680070D01*
X176619Y1679381D01*
X175930Y1678397D01*
X175340Y1677315D01*
X174946Y1675937D01*
X174750Y1674363D01*
Y1674166D01*
X174848Y1673674D01*
X174946Y1672887D01*
X175242Y1671903D01*
X175635Y1670820D01*
X176324Y1669738D01*
X177209Y1668655D01*
X178489Y1667770D01*
X178685Y1667671D01*
X179178Y1667376D01*
X180063Y1667081D01*
X181244Y1666589D01*
X182720Y1666195D01*
X184491Y1665900D01*
X186558Y1665605D01*
X188919Y1665507D01*
X189018D01*
X189214D01*
X189608D01*
X190001D01*
X190592Y1665605D01*
X191281D01*
X192757Y1665802D01*
X194429Y1666097D01*
X196102Y1666491D01*
X197874Y1666983D01*
X199350Y1667770D01*
X199546Y1667868D01*
X199940Y1668163D01*
X200530Y1668655D01*
X201317Y1669443D01*
X202006Y1670328D01*
X202597Y1671509D01*
X202990Y1672788D01*
X203187Y1674363D01*
Y1674559D01*
X203089Y1675051D01*
X202990Y1675839D01*
X202695Y1676823D01*
X202302Y1677905D01*
X201613Y1679086D01*
X200629Y1680070D01*
X199350Y1681054D01*
X199153Y1681152D01*
X198661Y1681447D01*
X197775Y1681743D01*
X196693Y1682136D01*
X195118Y1682628D01*
X193347Y1682923D01*
X191281Y1683219D01*
X188919Y1683317D01*
D02*
G37*
G36*
X191281Y1567795D02*
X193839Y1549099D01*
X193938D01*
X194036D01*
X194626D01*
X195512Y1549198D01*
X196693Y1549395D01*
X197874Y1549690D01*
X199153Y1550083D01*
X200333Y1550575D01*
X201317Y1551363D01*
X201416Y1551461D01*
X201711Y1551756D01*
X202105Y1552248D01*
X202597Y1553035D01*
X203089Y1553921D01*
X203482Y1555003D01*
X203778Y1556184D01*
X203876Y1557660D01*
Y1558349D01*
X203679Y1559235D01*
X203482Y1560219D01*
X203089Y1561399D01*
X202498Y1562580D01*
X201711Y1563761D01*
X200629Y1564843D01*
X200530Y1564942D01*
X200038Y1565237D01*
X199350Y1565729D01*
X198267Y1566221D01*
X196988Y1566811D01*
X195315Y1567205D01*
X193446Y1567599D01*
X191281Y1567795D01*
D02*
G37*
G36*
X202400Y1397662D02*
X175537D01*
Y1397563D01*
X175340Y1397071D01*
X175143Y1396383D01*
X174946Y1395399D01*
Y1395103D01*
X174848Y1394808D01*
Y1394415D01*
X174750Y1393431D01*
Y1391856D01*
X174848Y1391364D01*
Y1390774D01*
X175143Y1389298D01*
X175733Y1387723D01*
X175832Y1387625D01*
X175930Y1387428D01*
X176226Y1387035D01*
X176521Y1386543D01*
X177406Y1385460D01*
X178685Y1384378D01*
X178784Y1384279D01*
X179079Y1384181D01*
X179473Y1383886D01*
X179965Y1383591D01*
X180654Y1383295D01*
X181441Y1383000D01*
X183212Y1382410D01*
X183310D01*
X183704Y1382311D01*
X184196Y1382213D01*
X184983Y1382016D01*
X185770Y1381918D01*
X186754Y1381819D01*
X189018Y1381721D01*
X189116D01*
X189313D01*
X189706D01*
X190100D01*
X190690Y1381819D01*
X191379D01*
X192855Y1382016D01*
X194528Y1382410D01*
X196299Y1382902D01*
X198070Y1383591D01*
X199546Y1384476D01*
X199743Y1384575D01*
X200137Y1384968D01*
X200727Y1385657D01*
X201416Y1386543D01*
X202105Y1387625D01*
X202695Y1389003D01*
X203089Y1390577D01*
X203286Y1392447D01*
Y1393431D01*
X203187Y1394415D01*
X202990Y1395497D01*
Y1395694D01*
X202892Y1396284D01*
X202695Y1396973D01*
X202400Y1397662D01*
D02*
G37*
G36*
X4092181Y1366557D02*
X4065318D01*
Y1366459D01*
X4065121Y1365967D01*
X4064924Y1365278D01*
X4064727Y1364294D01*
Y1363999D01*
X4064629Y1363704D01*
Y1363310D01*
X4064530Y1362326D01*
Y1360752D01*
X4064629Y1360259D01*
Y1359669D01*
X4064924Y1358193D01*
X4065515Y1356619D01*
X4065613Y1356520D01*
X4065711Y1356323D01*
X4066006Y1355930D01*
X4066302Y1355438D01*
X4067187Y1354355D01*
X4068466Y1353273D01*
X4068565Y1353175D01*
X4068860Y1353076D01*
X4069254Y1352781D01*
X4069746Y1352486D01*
X4070434Y1352191D01*
X4071222Y1351896D01*
X4072993Y1351305D01*
X4073091D01*
X4073485Y1351207D01*
X4073977Y1351108D01*
X4074764Y1350911D01*
X4075551Y1350813D01*
X4076535Y1350715D01*
X4078798Y1350616D01*
X4078897D01*
X4079094D01*
X4079487D01*
X4079881D01*
X4080471Y1350715D01*
X4081160D01*
X4082636Y1350911D01*
X4084309Y1351305D01*
X4086080Y1351797D01*
X4087851Y1352486D01*
X4089327Y1353371D01*
X4089524Y1353470D01*
X4089918Y1353863D01*
X4090508Y1354552D01*
X4091197Y1355438D01*
X4091886Y1356520D01*
X4092476Y1357898D01*
X4092870Y1359472D01*
X4093066Y1361342D01*
Y1362326D01*
X4092968Y1363310D01*
X4092771Y1364392D01*
Y1364589D01*
X4092673Y1365179D01*
X4092476Y1365868D01*
X4092181Y1366557D01*
D02*
G37*
G36*
X4081062Y1223090D02*
X4083620Y1204394D01*
X4083718D01*
X4083817D01*
X4084407D01*
X4085293Y1204492D01*
X4086474Y1204689D01*
X4087655Y1204984D01*
X4088934Y1205378D01*
X4090115Y1205870D01*
X4091099Y1206657D01*
X4091197Y1206755D01*
X4091492Y1207051D01*
X4091886Y1207543D01*
X4092378Y1208330D01*
X4092870Y1209216D01*
X4093263Y1210298D01*
X4093559Y1211479D01*
X4093657Y1212955D01*
Y1213643D01*
X4093460Y1214529D01*
X4093263Y1215513D01*
X4092870Y1216694D01*
X4092279Y1217875D01*
X4091492Y1219055D01*
X4090410Y1220138D01*
X4090311Y1220236D01*
X4089819Y1220532D01*
X4089131Y1221024D01*
X4088048Y1221515D01*
X4086769Y1222106D01*
X4085096Y1222499D01*
X4083227Y1222893D01*
X4081062Y1223090D01*
D02*
G37*
G36*
X4179658Y1216743D02*
X4163226D01*
Y1208379D01*
X4163324Y1207690D01*
X4163422Y1206116D01*
X4163521Y1205329D01*
X4163718Y1204640D01*
Y1204542D01*
X4163816Y1204345D01*
X4163914Y1204050D01*
X4164111Y1203557D01*
X4164505Y1202573D01*
X4165194Y1201491D01*
X4165292Y1201393D01*
X4165391Y1201294D01*
X4165981Y1200704D01*
X4166867Y1200113D01*
X4168047Y1199425D01*
X4168146D01*
X4168342Y1199326D01*
X4168736Y1199130D01*
X4169228Y1199031D01*
X4169819Y1198834D01*
X4170507Y1198736D01*
X4172082Y1198638D01*
X4172279D01*
X4172770D01*
X4173459Y1198736D01*
X4174345Y1198933D01*
X4175427Y1199326D01*
X4176411Y1199818D01*
X4177494Y1200507D01*
X4178379Y1201393D01*
X4178478Y1201491D01*
X4178773Y1201885D01*
X4179068Y1202573D01*
X4179560Y1203459D01*
X4179954Y1204640D01*
X4180249Y1206116D01*
X4180544Y1207789D01*
X4180642Y1209855D01*
Y1211036D01*
X4180544Y1212315D01*
X4180347Y1213791D01*
Y1214086D01*
X4180249Y1214480D01*
X4180150Y1214873D01*
X4179954Y1215858D01*
X4179658Y1216743D01*
D02*
G37*
G36*
X4155059D02*
X4137642D01*
Y1216645D01*
X4137543Y1216546D01*
Y1216251D01*
X4137445Y1215858D01*
X4137150Y1214873D01*
X4136953Y1213594D01*
Y1213299D01*
X4136855Y1212906D01*
Y1212414D01*
X4136756Y1211134D01*
X4136658Y1209757D01*
Y1209265D01*
X4136756Y1208576D01*
Y1207789D01*
X4136953Y1206903D01*
X4137150Y1205821D01*
X4137445Y1204738D01*
X4137838Y1203557D01*
X4138331Y1202475D01*
X4138921Y1201393D01*
X4139610Y1200310D01*
X4140495Y1199326D01*
X4141578Y1198638D01*
X4142758Y1197949D01*
X4144234Y1197555D01*
X4145809Y1197457D01*
X4145907D01*
X4146006D01*
X4146596Y1197555D01*
X4147482Y1197653D01*
X4148564Y1197949D01*
X4149843Y1198342D01*
X4151024Y1199031D01*
X4152106Y1199917D01*
X4153091Y1201196D01*
Y1201294D01*
X4153287Y1201491D01*
X4153386Y1201786D01*
X4153681Y1202180D01*
X4154173Y1203164D01*
X4154566Y1204443D01*
Y1204542D01*
X4154665Y1204738D01*
X4154763Y1205132D01*
X4154862Y1205722D01*
Y1206411D01*
X4154960Y1207198D01*
X4155059Y1208182D01*
Y1216743D01*
D02*
G37*
G36*
X4070041Y1176547D02*
X4069943D01*
X4069549D01*
X4068959Y1176448D01*
X4068270Y1176252D01*
X4067483Y1175956D01*
X4066597Y1175563D01*
X4065810Y1175071D01*
X4065121Y1174284D01*
X4065023Y1174185D01*
X4064826Y1173792D01*
X4064629Y1173300D01*
X4064334Y1172512D01*
X4063940Y1171528D01*
X4063743Y1170348D01*
X4063546Y1168970D01*
X4063448Y1167396D01*
Y1166313D01*
X4063546Y1165132D01*
X4063645Y1163853D01*
Y1163755D01*
X4063743Y1163558D01*
Y1163164D01*
X4063842Y1162771D01*
X4064039Y1161885D01*
X4064334Y1161098D01*
X4077814D01*
Y1161590D01*
X4077716Y1162279D01*
Y1163066D01*
X4077618Y1163951D01*
X4077519Y1164936D01*
X4077323Y1167100D01*
Y1167592D01*
X4077224Y1168084D01*
X4077126Y1168773D01*
X4076831Y1170249D01*
X4076240Y1171922D01*
Y1172020D01*
X4076142Y1172217D01*
X4075945Y1172611D01*
X4075650Y1173103D01*
X4074961Y1174185D01*
X4073977Y1175267D01*
X4073878Y1175366D01*
X4073682Y1175464D01*
X4073387Y1175661D01*
X4072894Y1175858D01*
X4072403Y1176153D01*
X4071714Y1176350D01*
X4070927Y1176448D01*
X4070041Y1176547D01*
D02*
G37*
G36*
X217893Y933853D02*
X215253D01*
X214334Y933739D01*
X212268Y933509D01*
X211235Y933279D01*
X210316Y932935D01*
Y885752D01*
X210431D01*
X210661Y885637D01*
X211235Y885523D01*
X211923Y885293D01*
X212727Y885178D01*
X213875Y884949D01*
X215138Y884834D01*
X217204D01*
X217893Y884949D01*
X218811Y885063D01*
X219845Y885178D01*
X220878Y885408D01*
X222026Y885752D01*
X223174Y886211D01*
X223289Y886326D01*
X223748Y886441D01*
X224322Y886785D01*
X225011Y887245D01*
X225814Y887933D01*
X226733Y888622D01*
X227651Y889541D01*
X228455Y890574D01*
X228570Y890689D01*
X228799Y891148D01*
X229258Y891722D01*
X229718Y892640D01*
X230177Y893788D01*
X230751Y895051D01*
X231325Y896543D01*
X231784Y898151D01*
X231899Y898380D01*
X232013Y898954D01*
X232243Y899987D01*
X232473Y901365D01*
X232702Y902972D01*
X232817Y904924D01*
X233047Y906990D01*
Y909401D01*
Y909516D01*
Y909745D01*
Y909975D01*
Y910434D01*
X232932Y911697D01*
Y913189D01*
X232702Y914911D01*
X232473Y916748D01*
X232243Y918585D01*
X231784Y920422D01*
Y920651D01*
X231554Y921225D01*
X231325Y922029D01*
X230980Y923177D01*
X230521Y924325D01*
X229947Y925703D01*
X229258Y926965D01*
X228455Y928113D01*
X228340Y928228D01*
X228110Y928573D01*
X227651Y929147D01*
X226962Y929835D01*
X226159Y930524D01*
X225355Y931213D01*
X224322Y931902D01*
X223174Y932476D01*
X223059Y932591D01*
X222600Y932705D01*
X222026Y932935D01*
X221222Y933165D01*
X220304Y933394D01*
X219156Y933624D01*
X217893Y933853D01*
D02*
G37*
G36*
X177514Y1059969D02*
X177284D01*
Y1059854D01*
X177169Y1059625D01*
X176940Y1059166D01*
X176595Y1058592D01*
X176481Y1058477D01*
X176251Y1058018D01*
X175907Y1057329D01*
X175447Y1056525D01*
X175333Y1056296D01*
X174988Y1055836D01*
X174529Y1055033D01*
X174070Y1054114D01*
X173955Y1053885D01*
X173725Y1053426D01*
X173266Y1052737D01*
X172807Y1052048D01*
X157079Y1028514D01*
X177284D01*
Y1050900D01*
Y1051015D01*
Y1051474D01*
Y1052048D01*
Y1052852D01*
Y1053770D01*
Y1054803D01*
X177399Y1056755D01*
Y1056870D01*
Y1057214D01*
Y1057673D01*
X177514Y1058132D01*
Y1059281D01*
Y1059625D01*
Y1059969D01*
D02*
G37*
G36*
X965045Y2322105D02*
X963208D01*
X962749Y2321990D01*
X961716Y2321875D01*
X960338Y2321531D01*
X958846Y2320957D01*
X957354Y2320153D01*
X955861Y2319005D01*
X954484Y2317398D01*
X954369Y2317168D01*
X954024Y2316594D01*
X953450Y2315561D01*
X952876Y2314184D01*
X952302Y2312462D01*
X951728Y2310395D01*
X951384Y2308099D01*
X951269Y2305459D01*
Y2305344D01*
Y2305114D01*
Y2304655D01*
Y2304196D01*
X951384Y2303507D01*
X951499Y2302704D01*
X951728Y2300982D01*
X952073Y2299030D01*
X952647Y2296964D01*
X953450Y2295012D01*
X954484Y2293175D01*
X954598Y2292946D01*
X955058Y2292486D01*
X955861Y2291798D01*
X956894Y2290994D01*
X958272Y2290190D01*
X959764Y2289502D01*
X961716Y2289042D01*
X963782Y2288813D01*
X964816D01*
X965963Y2288928D01*
X967226Y2289042D01*
X967341D01*
X967571Y2289157D01*
X968260Y2289272D01*
X969063Y2289502D01*
X969867Y2289846D01*
Y2321072D01*
X969752Y2321186D01*
X969293Y2321301D01*
X968374Y2321531D01*
X967226Y2321760D01*
X967111D01*
X966882Y2321875D01*
X966538D01*
X966193Y2321990D01*
X965045Y2322105D01*
D02*
G37*
G36*
X498613Y2340014D02*
X497350D01*
X496202Y2339899D01*
X494709Y2339669D01*
X494365D01*
X494021Y2339554D01*
X493676D01*
X492643Y2339325D01*
X491610Y2338980D01*
Y2316939D01*
X491725D01*
X491954Y2316824D01*
X492528D01*
X493102Y2316709D01*
X494021Y2316594D01*
X494939D01*
X496087Y2316479D01*
X498498D01*
X499875Y2316594D01*
X501483Y2316824D01*
X503205Y2317283D01*
X505041Y2317742D01*
X506764Y2318546D01*
X508256Y2319579D01*
X508371Y2319694D01*
X508830Y2320153D01*
X509404Y2320842D01*
X510207Y2321875D01*
X510896Y2323023D01*
X511470Y2324515D01*
X511930Y2326238D01*
X512044Y2328189D01*
Y2328304D01*
Y2328648D01*
X511930Y2329337D01*
X511815Y2330026D01*
X511585Y2330944D01*
X511356Y2331977D01*
X510896Y2333011D01*
X510322Y2334159D01*
X509634Y2335192D01*
X508715Y2336225D01*
X507682Y2337258D01*
X506419Y2338177D01*
X504812Y2338980D01*
X503090Y2339554D01*
X501024Y2339899D01*
X498613Y2340014D01*
D02*
G37*
G36*
X1196138Y2337718D02*
X1195908D01*
Y2337603D01*
X1195793Y2337373D01*
X1195563Y2336914D01*
X1195219Y2336340D01*
X1195104Y2336225D01*
X1194875Y2335766D01*
X1194530Y2335077D01*
X1194071Y2334274D01*
X1193956Y2334044D01*
X1193612Y2333585D01*
X1193153Y2332781D01*
X1192694Y2331863D01*
X1192579Y2331633D01*
X1192349Y2331174D01*
X1191890Y2330485D01*
X1191431Y2329796D01*
X1175703Y2306262D01*
X1195908D01*
Y2328648D01*
Y2328763D01*
Y2329222D01*
Y2329796D01*
Y2330600D01*
Y2331518D01*
Y2332552D01*
X1196023Y2334503D01*
Y2334618D01*
Y2334962D01*
Y2335422D01*
X1196138Y2335881D01*
Y2337029D01*
Y2337373D01*
Y2337718D01*
D02*
G37*
G36*
X1016590Y2323138D02*
X1015787D01*
X1014754Y2322908D01*
X1013606Y2322679D01*
X1012228Y2322220D01*
X1010850Y2321531D01*
X1009473Y2320612D01*
X1008210Y2319350D01*
X1008095Y2319235D01*
X1007751Y2318661D01*
X1007177Y2317857D01*
X1006603Y2316594D01*
X1005914Y2315102D01*
X1005455Y2313150D01*
X1004995Y2310969D01*
X1004766Y2308444D01*
X1026578Y2311428D01*
Y2311543D01*
Y2311658D01*
Y2312347D01*
X1026463Y2313380D01*
X1026234Y2314758D01*
X1025889Y2316135D01*
X1025430Y2317628D01*
X1024856Y2319005D01*
X1023938Y2320153D01*
X1023823Y2320268D01*
X1023478Y2320612D01*
X1022904Y2321072D01*
X1021986Y2321646D01*
X1020953Y2322220D01*
X1019690Y2322679D01*
X1018312Y2323023D01*
X1016590Y2323138D01*
D02*
G37*
G36*
X907530D02*
X906727D01*
X905693Y2322908D01*
X904545Y2322679D01*
X903168Y2322220D01*
X901790Y2321531D01*
X900413Y2320612D01*
X899150Y2319350D01*
X899035Y2319235D01*
X898691Y2318661D01*
X898117Y2317857D01*
X897543Y2316594D01*
X896854Y2315102D01*
X896395Y2313150D01*
X895936Y2310969D01*
X895706Y2308444D01*
X917518Y2311428D01*
Y2311543D01*
Y2311658D01*
Y2312347D01*
X917403Y2313380D01*
X917173Y2314758D01*
X916829Y2316135D01*
X916370Y2317628D01*
X915796Y2319005D01*
X914878Y2320153D01*
X914763Y2320268D01*
X914418Y2320612D01*
X913844Y2321072D01*
X912926Y2321646D01*
X911893Y2322220D01*
X910630Y2322679D01*
X909252Y2323023D01*
X907530Y2323138D01*
D02*
G37*
G36*
X853115D02*
X852312D01*
X851278Y2322908D01*
X850130Y2322679D01*
X848753Y2322220D01*
X847375Y2321531D01*
X845997Y2320612D01*
X844735Y2319350D01*
X844620Y2319235D01*
X844275Y2318661D01*
X843702Y2317857D01*
X843128Y2316594D01*
X842439Y2315102D01*
X841980Y2313150D01*
X841520Y2310969D01*
X841291Y2308444D01*
X863103Y2311428D01*
Y2311543D01*
Y2311658D01*
Y2312347D01*
X862988Y2313380D01*
X862758Y2314758D01*
X862414Y2316135D01*
X861955Y2317628D01*
X861381Y2319005D01*
X860462Y2320153D01*
X860347Y2320268D01*
X860003Y2320612D01*
X859429Y2321072D01*
X858511Y2321646D01*
X857477Y2322220D01*
X856215Y2322679D01*
X854837Y2323023D01*
X853115Y2323138D01*
D02*
G37*
G36*
X692165Y2323138D02*
X691362D01*
X690329Y2322908D01*
X689181Y2322679D01*
X687803Y2322220D01*
X686426Y2321531D01*
X685048Y2320612D01*
X683785Y2319349D01*
X683670Y2319235D01*
X683326Y2318661D01*
X682752Y2317857D01*
X682178Y2316594D01*
X681489Y2315102D01*
X681030Y2313150D01*
X680571Y2310969D01*
X680341Y2308443D01*
X702153Y2311428D01*
Y2311543D01*
Y2311658D01*
Y2312347D01*
X702038Y2313380D01*
X701809Y2314758D01*
X701464Y2316135D01*
X701005Y2317628D01*
X700431Y2319005D01*
X699513Y2320153D01*
X699398Y2320268D01*
X699053Y2320612D01*
X698480Y2321072D01*
X697561Y2321646D01*
X696528Y2322220D01*
X695265Y2322679D01*
X693888Y2323023D01*
X692165Y2323138D01*
D02*
G37*
G36*
X556013Y2322334D02*
X555783D01*
X555209Y2322220D01*
X554291Y2322105D01*
X553143Y2321760D01*
X551880Y2321301D01*
X550502Y2320497D01*
X549354Y2319349D01*
X548206Y2317857D01*
X548091Y2317628D01*
X547747Y2317053D01*
X547403Y2316020D01*
X546943Y2314758D01*
X546370Y2312921D01*
X546025Y2310854D01*
X545681Y2308443D01*
X545566Y2305688D01*
Y2305573D01*
Y2305344D01*
Y2304999D01*
Y2304425D01*
X545681Y2303737D01*
Y2303048D01*
X545910Y2301326D01*
X546255Y2299374D01*
X546714Y2297308D01*
X547288Y2295356D01*
X548206Y2293519D01*
X548321Y2293290D01*
X548665Y2292831D01*
X549354Y2292142D01*
X550158Y2291338D01*
X551306Y2290535D01*
X552569Y2289846D01*
X554176Y2289387D01*
X556013Y2289157D01*
X556242D01*
X556816Y2289272D01*
X557735Y2289387D01*
X558883Y2289731D01*
X560145Y2290190D01*
X561408Y2290994D01*
X562671Y2292027D01*
X563704Y2293519D01*
X563819Y2293749D01*
X564163Y2294323D01*
X564508Y2295356D01*
X565082Y2296734D01*
X565541Y2298456D01*
X565885Y2300522D01*
X566230Y2302933D01*
X566345Y2305688D01*
Y2305803D01*
Y2306033D01*
Y2306492D01*
Y2306951D01*
X566230Y2307640D01*
Y2308443D01*
X566000Y2310166D01*
X565656Y2312117D01*
X565197Y2314069D01*
X564623Y2316135D01*
X563704Y2317857D01*
X563590Y2318087D01*
X563245Y2318546D01*
X562671Y2319235D01*
X561753Y2320153D01*
X560720Y2320957D01*
X559342Y2321646D01*
X557850Y2322105D01*
X556013Y2322334D01*
D02*
G37*
%LPD*%
D82*
X4122559Y2084795D02*
G03*
X4122559Y2084795I-3937J0D01*
G01*
X708732Y1374803D02*
X866213D01*
X708732Y1591338D02*
X866213D01*
Y1374803D02*
Y1591338D01*
X708732Y1374803D02*
Y1591338D01*
X382205Y1025543D02*
Y1183023D01*
X598740Y1025543D02*
Y1183023D01*
X382205Y1025543D02*
X598740D01*
X382205Y1183023D02*
X598740D01*
X2901890Y728692D02*
X2951890Y728692D01*
X2901890Y455070D02*
X2901891Y391684D01*
X2901890Y608220D02*
X2901890Y533417D01*
X2901890Y728692D02*
X2901890Y710582D01*
X2901891Y391684D02*
X3240471D01*
X3240472Y710582D02*
Y728692D01*
X3240472Y533417D02*
X3240472Y608220D01*
X3240471Y391684D02*
X3240472Y455070D01*
X3190472Y728692D02*
X3240472Y728692D01*
X651102Y728692D02*
X701102D01*
X701101Y391684D02*
X701102Y455070D01*
Y533417D02*
X701102Y608220D01*
X701102Y710582D02*
Y728692D01*
X362521Y391684D02*
X701101D01*
X362520Y710582D02*
Y728692D01*
X362520Y608220D02*
X362520Y533417D01*
Y455070D02*
X362521Y391684D01*
X362520Y728692D02*
X412520D01*
X2921575Y1183023D02*
X3138110D01*
X2921575Y1025543D02*
X3138110Y1025543D01*
Y1183023D01*
X2921575D02*
X2921575Y1025543D01*
X2075118Y1025543D02*
Y1183023D01*
X2291654Y1025543D02*
Y1183023D01*
X2075118Y1025543D02*
X2291654D01*
X2075118Y1183023D02*
X2291654D01*
X1228661Y1025543D02*
Y1183023D01*
X1445197Y1025543D02*
Y1183023D01*
X1228661Y1025543D02*
X1445197D01*
X1228661Y1183023D02*
X1445197D01*
X3915276Y686563D02*
Y736563D01*
X4188898Y686563D02*
X4252283Y686564D01*
X4035748Y686563D02*
X4110551Y686563D01*
X3915276D02*
X3933386D01*
X4252283Y686564D02*
Y1025144D01*
X3915276Y1025145D02*
X3933386D01*
X4035748Y1025146D02*
X4110551Y1025145D01*
X4188898D02*
X4252283Y1025144D01*
X3915276Y975145D02*
Y1025145D01*
X2344015Y728692D02*
X2394015D01*
X2394014Y391684D02*
X2394015Y455070D01*
Y533417D02*
X2394016Y608220D01*
X2394015Y710582D02*
Y728692D01*
X2055435Y391684D02*
X2394014D01*
X2055434Y710582D02*
Y728692D01*
X2055433Y608220D02*
X2055434Y533417D01*
Y455070D02*
X2055435Y391684D01*
X2055434Y728692D02*
X2105434D01*
X1497559D02*
X1547559D01*
X1547558Y391684D02*
X1547559Y455070D01*
Y533417D02*
X1547559Y608220D01*
X1547559Y710582D02*
Y728692D01*
X1208978Y391684D02*
X1547558D01*
X1208977Y710582D02*
Y728692D01*
X1208976Y608220D02*
X1208977Y533417D01*
Y455070D02*
X1208978Y391684D01*
X1208977Y728692D02*
X1258977D01*
X3248102Y1374803D02*
Y1591338D01*
X3405583Y1374803D02*
Y1591338D01*
X3248102D02*
X3405583D01*
X3248102Y1374803D02*
X3405583D01*
X2401646D02*
X2559126D01*
X2401646Y1591338D02*
X2559126D01*
Y1374803D02*
Y1591338D01*
X2401646Y1374803D02*
Y1591338D01*
X1555189Y1374803D02*
X1712669D01*
X1555189Y1591338D02*
X1712669D01*
Y1374803D02*
Y1591338D01*
X1555189Y1374803D02*
Y1591338D01*
D83*
X660504Y1591535D02*
G03*
X660504Y1591535I-4921J0D01*
G01*
X603858Y1236172D02*
G03*
X603858Y1236172I-4921J0D01*
G01*
X3143228Y1236172D02*
G03*
X3143228Y1236172I-4921J0D01*
G01*
X2296772Y1236172D02*
G03*
X2296772Y1236172I-4921J0D01*
G01*
X1450315D02*
G03*
X1450315Y1236172I-4921J0D01*
G01*
X3199874Y1591535D02*
G03*
X3199874Y1591535I-4921J0D01*
G01*
X2353418Y1591535D02*
G03*
X2353418Y1591535I-4921J0D01*
G01*
X1506961D02*
G03*
X1506961Y1591535I-4921J0D01*
G01*
D84*
X571181Y1143653D02*
G03*
X571181Y1143653I-11811J0D01*
G01*
X3110551D02*
G03*
X3110551Y1143653I-11811J0D01*
G01*
X2264095D02*
G03*
X2264095Y1143653I-11811J0D01*
G01*
X1417638D02*
G03*
X1417638Y1143653I-11811J0D01*
G01*
D85*
X559543Y1642432D02*
G03*
X559543Y1642432I-1968J0D01*
G01*
X3098913D02*
G03*
X3098913Y1642432I-1968J0D01*
G01*
X2252457D02*
G03*
X2252457Y1642432I-1968J0D01*
G01*
X1406000D02*
G03*
X1406000Y1642432I-1968J0D01*
G01*
X4128000Y2159117D02*
Y2209117D01*
X3988000Y2159117D02*
Y2209117D01*
X4028000Y2129117D02*
X4088000D01*
X4028000Y2239117D02*
X4088000D01*
X2870382Y808687D02*
X2893618D01*
X2882004Y797648D02*
X2893618Y808671D01*
X2870390D02*
X2882004Y797648D01*
X903244Y1074503D02*
X942614D01*
X922929Y1054818D02*
Y1094188D01*
X3983953Y1149306D02*
X3983953Y1109936D01*
X3964268Y1129621D02*
X4003638D01*
X3548914Y767417D02*
Y806787D01*
X3529228Y787102D02*
X3568599D01*
X2682772D02*
X2722142D01*
X2702457Y767417D02*
Y806787D01*
X1836315Y787102D02*
X1875685D01*
X1856000Y767417D02*
Y806787D01*
X989858Y787102D02*
X1029229D01*
X1009543Y767417D02*
Y806787D01*
X332382Y785548D02*
X355618D01*
X332382Y785564D02*
X343996Y796587D01*
X355610Y785564D01*
X1179382Y809687D02*
X1202618D01*
X1191004Y798648D02*
X1202618Y809671D01*
X1179390D02*
X1191004Y798648D01*
X3817437Y726666D02*
X3840673D01*
X3817437Y726682D02*
X3829051Y737705D01*
X3840665Y726682D01*
X2023382Y815687D02*
X2046618D01*
X2035004Y804648D02*
X2046618Y815671D01*
X2023390D02*
X2035004Y804648D01*
X3462299Y1054818D02*
Y1094188D01*
X3442614Y1074503D02*
X3481984D01*
X2596158Y1074503D02*
X2635528D01*
X2615843Y1054818D02*
Y1094188D01*
X1749701Y1074503D02*
X1789071D01*
X1769386Y1054818D02*
Y1094188D01*
D86*
X302606Y437755D02*
Y831456D01*
X7331D02*
X302606D01*
X7331Y437755D02*
Y831456D01*
Y437755D02*
X302606D01*
X630236Y2188929D02*
X866457D01*
X630236Y1716488D02*
X866457D01*
X3169606D02*
X3405827D01*
X3169606Y2188929D02*
X3405827Y2188928D01*
X2323150Y2188929D02*
X2559370D01*
X2323150Y1716488D02*
X2559370D01*
X1476693Y2188929D02*
X1712913D01*
X1476693Y1716488D02*
X1712913D01*
D87*
X4138110Y2017669D02*
X4138110Y1809007D01*
X3736535Y1809007D02*
Y2017668D01*
%TF.MD5,2ad2f28e2cee9564b3337c3dff3169c3*%
M02*
