%TF.GenerationSoftware,Altium Limited,Altium Designer,23.4.1 (23)*%
G04 Layer_Color=0*
%FSLAX26Y26*%
%MOIN*%
%TF.SameCoordinates,7B234F99-2337-49EF-8028-3FC35EF94B5E*%
%TF.FilePolarity,Positive*%
%TF.FileFunction,NonPlated,1,2,NPTH,Drill*%
%TF.Part,CustomerPanel*%
G01*
G75*
%TA.AperFunction,ComponentDrill*%
%ADD114C,0.026575*%
%ADD115C,0.026575*%
%TA.AperFunction,OtherDrill,Pad Free-3 (3836.559mil,2602mil)*%
%ADD116C,0.125984*%
%TA.AperFunction,OtherDrill,Pad Free-3 (356.984mil,2601.999mil)*%
%ADD117C,0.125984*%
G36*
X-90842Y444591D02*
X-95197Y448947D01*
X-100833Y459901D01*
X-102854Y472054D01*
X-101069Y484243D01*
X-95647Y495305D01*
X-87107Y504183D01*
X-76264Y510031D01*
X-64154Y512288D01*
X-58043Y511514D01*
Y511514D01*
X-63157Y523706D01*
X-70918Y548984D01*
X-76135Y574906D01*
X-78756Y601218D01*
X-78756Y614439D01*
X-78756Y619625D01*
X-76072Y629642D01*
X-70887Y638623D01*
X-63554Y645956D01*
X-54574Y651141D01*
X-44557Y653825D01*
X-34186Y653825D01*
X-24169Y651141D01*
X-15188Y645956D01*
X-7855Y638623D01*
X-2670Y629642D01*
X14Y619625D01*
Y614440D01*
X415Y602190D01*
X3613Y577898D01*
X9954Y554232D01*
X19330Y531596D01*
X31581Y510377D01*
X46496Y490939D01*
X63821Y473614D01*
X83259Y458699D01*
X104478Y446448D01*
X127114Y437072D01*
X150780Y430731D01*
X175071Y427533D01*
X187322Y427132D01*
X191201D01*
X198810Y425618D01*
X205978Y422649D01*
X212429Y418339D01*
X217915Y412853D01*
X222225Y406402D01*
X225194Y399235D01*
X226707Y391625D01*
Y387746D01*
Y383867D01*
X225194Y376258D01*
X222225Y369091D01*
X217915Y362640D01*
X212429Y357154D01*
X205978Y352844D01*
X198810Y349875D01*
X191201Y348361D01*
X187322D01*
D01*
X21703D01*
X17823D01*
X10214Y349875D01*
X3047Y352844D01*
X-3404Y357154D01*
X-6147Y359897D01*
Y359897D01*
X-90842Y444591D01*
D02*
G37*
G36*
X-78756Y2208298D02*
Y2203113D01*
X-76072Y2193096D01*
X-70887Y2184115D01*
X-63554Y2176783D01*
X-54573Y2171597D01*
X-44557Y2168914D01*
X-34186Y2168913D01*
X-24169Y2171597D01*
X-15189Y2176782D01*
X-7856Y2184115D01*
X-2671Y2193096D01*
X14Y2203113D01*
Y2208298D01*
X14Y2208298D01*
X398Y2220055D01*
X3466Y2243367D01*
X9550Y2266079D01*
X18546Y2287803D01*
X30299Y2308168D01*
X44609Y2326825D01*
X61232Y2343455D01*
X79882Y2357773D01*
X100242Y2369536D01*
X121962Y2378541D01*
X144672Y2384635D01*
X167983Y2387713D01*
X179739Y2388103D01*
X179739Y2388103D01*
X179970Y2388103D01*
X185769Y2388118D01*
X197139Y2390402D01*
X207849Y2394854D01*
X217488Y2401303D01*
X225689Y2409504D01*
X232138Y2419143D01*
X236589Y2429853D01*
X238873Y2441224D01*
X238887Y2447023D01*
X238887D01*
X238888Y2447260D01*
X238888Y2601999D01*
X239252Y2611265D01*
X242151Y2629568D01*
X247877Y2647193D01*
X256290Y2663704D01*
X267183Y2678697D01*
X280286Y2691800D01*
X295279Y2702693D01*
X311790Y2711106D01*
X329415Y2716832D01*
X347718Y2719731D01*
X366250D01*
X384553Y2716832D01*
X402177Y2711106D01*
X418689Y2702693D01*
X433681Y2691800D01*
X446785Y2678697D01*
X457677Y2663704D01*
X466091Y2647193D01*
X471817Y2629568D01*
X474716Y2611265D01*
X475080Y2601999D01*
Y2587980D01*
X478740Y2560181D01*
X485997Y2533097D01*
X496727Y2507193D01*
X510746Y2482910D01*
X527815Y2460665D01*
X547642Y2440839D01*
X569886Y2423770D01*
X594169Y2409750D01*
X620074Y2399020D01*
X647157Y2391763D01*
X674956Y2388103D01*
X688976D01*
X688976D01*
X720473D01*
X724352D01*
X731961Y2389617D01*
X739128Y2392586D01*
X745579Y2396896D01*
X751065Y2402382D01*
X755375Y2408832D01*
X758344Y2416000D01*
X759858Y2423609D01*
Y2427488D01*
Y2431367D01*
X758344Y2438977D01*
X755375Y2446144D01*
X751065Y2452595D01*
X745579Y2458081D01*
X739128Y2462391D01*
X731961Y2465360D01*
X724352Y2466873D01*
X720473D01*
D01*
X688977D01*
X680139Y2467163D01*
X662615Y2469470D01*
X645542Y2474044D01*
X629212Y2480808D01*
X613904Y2489646D01*
X599882Y2500406D01*
X587383Y2512904D01*
X576623Y2526927D01*
X567785Y2542234D01*
X561021Y2558564D01*
X556447Y2575637D01*
X554139Y2593161D01*
X553850Y2601999D01*
X553850Y2614902D01*
X550482Y2640488D01*
X543803Y2665416D01*
X533927Y2689258D01*
X521024Y2711607D01*
X505313Y2732081D01*
X487065Y2750329D01*
X466592Y2766039D01*
X444243Y2778942D01*
X420400Y2788818D01*
X395473Y2795497D01*
X369887Y2798866D01*
X344081Y2798866D01*
X318495Y2795497D01*
X293568Y2788818D01*
X269725Y2778942D01*
X247376Y2766039D01*
X226902Y2750329D01*
X208654Y2732081D01*
X192944Y2711607D01*
X180041Y2689258D01*
X170165Y2665416D01*
X163486Y2640489D01*
X160117Y2614903D01*
Y2601999D01*
X160118Y2602000D01*
X160117Y2466122D01*
X148067Y2465201D01*
X124243Y2461120D01*
X100904Y2454834D01*
X78253Y2446399D01*
X56488Y2435888D01*
X35798Y2423392D01*
X16363Y2409022D01*
X-1646Y2392901D01*
X-18073Y2375171D01*
X-32775Y2355985D01*
X-45624Y2335512D01*
X-56506Y2313930D01*
X-65328Y2291427D01*
X-72013Y2268199D01*
X-76502Y2244449D01*
X-78757Y2220384D01*
X-78756Y2208298D01*
D01*
D02*
G37*
G36*
X3799212Y348361D02*
X4183022Y348361D01*
X4186901D01*
X4194510Y349875D01*
X4201677Y352844D01*
X4208128Y357154D01*
X4210871Y359897D01*
X4210871Y359897D01*
X4279818Y428844D01*
X4282561Y431586D01*
X4286871Y438037D01*
X4289840Y445205D01*
X4291354Y452814D01*
X4291353Y456693D01*
X4291354Y460487D01*
X4289905Y467937D01*
X4287060Y474972D01*
X4282925Y481336D01*
X4277651Y486793D01*
X4271432Y491142D01*
X4264497Y494224D01*
X4257102Y495926D01*
X4253310Y496055D01*
Y496055D01*
X4257391Y503646D01*
X4264605Y519301D01*
X4270846Y535369D01*
X4276088Y551789D01*
X4280312Y568501D01*
X4283502Y585440D01*
X4285647Y602543D01*
X4286738Y619746D01*
X4286754Y628364D01*
X4286754Y628364D01*
X4286756Y628897D01*
X4286756Y634082D01*
X4284072Y644098D01*
X4278887Y653079D01*
X4271555Y660412D01*
X4262575Y665597D01*
X4252559Y668282D01*
X4242189Y668282D01*
X4232172Y665599D01*
X4223191Y660415D01*
X4215858Y653083D01*
X4210672Y644104D01*
X4207986Y634087D01*
X4207986Y628903D01*
X4207986Y628903D01*
X4207984Y628523D01*
X4207529Y615343D01*
X4204044Y589214D01*
X4197182Y563761D01*
X4187060Y539421D01*
X4173852Y516608D01*
X4157782Y495711D01*
X4139124Y477089D01*
X4118198Y461057D01*
X4095361Y447891D01*
X4071002Y437814D01*
X4045537Y430999D01*
X4019401Y427562D01*
X4006220Y427132D01*
X4006220D01*
X4006195D01*
X3799212Y427132D01*
X3794027D01*
X3784010Y424447D01*
X3775029Y419262D01*
X3767696Y411930D01*
X3762511Y402949D01*
X3759827Y392932D01*
Y382561D01*
X3762511Y372544D01*
X3767696Y363563D01*
X3775029Y356231D01*
X3784010Y351045D01*
X3794027Y348361D01*
X3799212D01*
D01*
D02*
G37*
G36*
X3460630Y2388103D02*
X3455445D01*
X3445428Y2390787D01*
X3436447Y2395972D01*
X3429114Y2403305D01*
X3423929Y2412286D01*
X3421245Y2422303D01*
Y2432673D01*
X3423929Y2442690D01*
X3429114Y2451671D01*
X3436447Y2459004D01*
X3445428Y2464189D01*
X3455445Y2466874D01*
X3460630D01*
D01*
X3504566D01*
X3513404Y2467162D01*
X3530928Y2469469D01*
X3548001Y2474044D01*
X3564331Y2480807D01*
X3579638Y2489644D01*
X3593661Y2500404D01*
X3606159Y2512902D01*
X3616919Y2526925D01*
X3625757Y2542232D01*
X3632521Y2558561D01*
X3637096Y2575634D01*
X3639403Y2593158D01*
X3639692Y2601996D01*
D01*
X3639693Y2602162D01*
X3639703Y2615061D01*
X3643091Y2640638D01*
X3649787Y2665554D01*
X3659677Y2689382D01*
X3672593Y2711717D01*
X3688312Y2732175D01*
X3706566Y2750407D01*
X3727044Y2766101D01*
X3749394Y2778989D01*
X3773235Y2788850D01*
X3798159Y2795515D01*
X3823740Y2798871D01*
X3849540Y2798861D01*
X3875118Y2795483D01*
X3900036Y2788797D01*
X3923869Y2778917D01*
X3946209Y2766011D01*
X3966673Y2750300D01*
X3984913Y2732053D01*
X4000615Y2711582D01*
X4013512Y2689237D01*
X4023383Y2665400D01*
X4030059Y2640479D01*
X4033425Y2614899D01*
Y2602000D01*
D01*
Y2466161D01*
X4046183Y2465238D01*
X4071414Y2461015D01*
X4096139Y2454451D01*
X4120143Y2445605D01*
X4143214Y2434553D01*
X4165151Y2421393D01*
X4185762Y2406240D01*
X4204866Y2389226D01*
X4222295Y2370500D01*
X4237898Y2350227D01*
X4251536Y2328584D01*
X4263092Y2305761D01*
X4272463Y2281957D01*
X4279568Y2257382D01*
X4284343Y2232250D01*
X4286749Y2206781D01*
X4286756Y2193990D01*
X4286756Y2193990D01*
X4286756Y2193842D01*
Y2188893D01*
X4284308Y2179304D01*
X4279563Y2170619D01*
X4272818Y2163377D01*
X4264490Y2158028D01*
X4255099Y2154907D01*
X4245227Y2154205D01*
X4235488Y2155968D01*
X4226488Y2160084D01*
X4218786Y2166300D01*
X4212861Y2174227D01*
X4209081Y2183374D01*
X4208382Y2188272D01*
X4208283Y2188964D01*
X4208134Y2190354D01*
X4208035Y2191747D01*
X4207986Y2193144D01*
Y2193843D01*
D01*
X4207986Y2193923D01*
X4207566Y2206609D01*
X4204248Y2231764D01*
X4197681Y2256272D01*
X4187975Y2279715D01*
X4175296Y2301693D01*
X4159862Y2321832D01*
X4141934Y2339786D01*
X4121819Y2355251D01*
X4099859Y2367963D01*
X4076431Y2377704D01*
X4051932Y2384308D01*
X4026782Y2387663D01*
X4014097Y2388102D01*
D01*
X4013724Y2388103D01*
X4007906Y2388103D01*
X3996494Y2390373D01*
X3985744Y2394825D01*
X3976070Y2401290D01*
X3967842Y2409517D01*
X3961378Y2419192D01*
X3956925Y2429941D01*
X3954655Y2441353D01*
Y2447171D01*
D01*
Y2602000D01*
X3954291Y2611263D01*
X3951393Y2629563D01*
X3945669Y2647184D01*
X3937259Y2663693D01*
X3926371Y2678684D01*
X3913272Y2691787D01*
X3898285Y2702680D01*
X3881779Y2711095D01*
X3864160Y2716825D01*
X3845861Y2719729D01*
X3827333Y2719735D01*
X3809033Y2716843D01*
X3791410Y2711125D01*
X3774898Y2702720D01*
X3759904Y2691837D01*
X3746796Y2678742D01*
X3735898Y2663759D01*
X3727478Y2647255D01*
X3721742Y2629638D01*
X3718833Y2611340D01*
X3718463Y2602076D01*
Y2602077D01*
X3718463Y2601902D01*
X3718456Y2587887D01*
X3714787Y2560097D01*
X3707522Y2533024D01*
X3696786Y2507131D01*
X3682764Y2482860D01*
X3665694Y2460626D01*
X3645869Y2440810D01*
X3623628Y2423750D01*
X3599351Y2409738D01*
X3573452Y2399014D01*
X3546376Y2391761D01*
X3518585Y2388103D01*
X3504570D01*
D01*
X3460630D01*
D02*
G37*
G36*
X735386Y297196D02*
Y283987D01*
X738814Y257793D01*
X745612Y232265D01*
X755665Y207835D01*
X768804Y184916D01*
X784805Y163895D01*
X803399Y145129D01*
X824271Y128934D01*
X847067Y115585D01*
X871404Y105306D01*
X896868Y98272D01*
X923030Y94603D01*
X936238Y94481D01*
D01*
X937008Y94473D01*
X3476876D01*
X3490188Y94433D01*
X3516595Y97837D01*
X3542330Y104664D01*
X3566951Y114798D01*
X3590035Y128065D01*
X3611187Y144236D01*
X3630041Y163035D01*
X3646276Y184138D01*
X3659611Y207182D01*
X3669819Y231773D01*
X3676722Y257488D01*
X3680204Y283884D01*
Y297197D01*
X3680204Y297197D01*
X3680204Y360498D01*
X3682815Y363222D01*
X3686906Y369562D01*
X3689719Y376565D01*
X3691152Y383974D01*
X3691152Y387747D01*
X3691152Y387747D01*
Y391646D01*
X3689623Y399293D01*
X3686624Y406492D01*
X3682271Y412963D01*
X3676735Y418455D01*
X3670229Y422755D01*
X3663006Y425695D01*
X3655346Y427162D01*
X3651447Y427130D01*
X3646521Y427130D01*
X3636859Y425208D01*
X3627757Y421438D01*
X3619566Y415965D01*
X3612599Y408999D01*
X3607126Y400808D01*
X3603356Y391706D01*
X3601434Y382043D01*
Y377118D01*
Y377118D01*
X3601434Y297197D01*
X3601169Y289099D01*
X3599058Y273043D01*
X3594871Y257399D01*
X3588681Y242434D01*
X3580592Y228404D01*
X3570744Y215548D01*
X3559303Y204086D01*
X3546466Y194213D01*
X3532451Y186098D01*
X3517498Y179880D01*
X3501861Y175664D01*
X3485809Y173523D01*
X3477712Y173243D01*
Y173243D01*
X3477008Y173243D01*
X3468921Y173538D01*
X3452892Y175706D01*
X3437282Y179941D01*
X3422357Y186174D01*
X3408369Y194297D01*
X3395559Y204172D01*
X3384144Y215631D01*
X3374318Y228479D01*
X3366248Y242497D01*
X3360073Y257446D01*
X3355896Y273072D01*
X3353790Y289109D01*
X3353526Y297197D01*
Y297197D01*
Y376797D01*
X3353525Y377119D01*
Y382033D01*
X3351612Y391672D01*
X3347860Y400755D01*
X3342412Y408934D01*
X3335476Y415896D01*
X3327318Y421375D01*
X3318250Y425163D01*
X3308618Y427112D01*
X3303704Y427131D01*
Y427131D01*
X3303423Y427132D01*
X2805311Y427132D01*
X2804990Y427130D01*
X2800065Y427130D01*
X2790402Y425208D01*
X2781301Y421438D01*
X2773109Y415965D01*
X2766143Y408999D01*
X2760670Y400808D01*
X2756900Y391706D01*
X2754978Y382044D01*
Y377118D01*
Y377118D01*
X2754977Y297196D01*
X2754713Y289111D01*
X2752608Y273078D01*
X2748434Y257456D01*
X2742262Y242510D01*
X2734196Y228494D01*
X2724375Y215648D01*
X2712965Y204190D01*
X2700160Y194314D01*
X2686178Y186190D01*
X2671258Y179954D01*
X2655654Y175714D01*
X2639630Y173542D01*
X2631546Y173243D01*
D01*
X2630501Y173243D01*
X2622417Y173541D01*
X2606393Y175714D01*
X2590789Y179954D01*
X2575869Y186189D01*
X2561887Y194314D01*
X2549082Y204190D01*
X2537672Y215648D01*
X2527851Y228494D01*
X2519785Y242510D01*
X2513613Y257456D01*
X2509438Y273078D01*
X2507333Y289111D01*
X2507069Y297196D01*
Y297196D01*
Y376797D01*
X2507068Y377119D01*
Y382032D01*
X2505155Y391672D01*
X2501403Y400755D01*
X2495955Y408934D01*
X2489020Y415896D01*
X2480862Y421375D01*
X2471794Y425162D01*
X2462162Y427112D01*
X2457248Y427131D01*
Y427131D01*
X2457055Y427132D01*
X1958854D01*
X1958534Y427130D01*
X1953608Y427130D01*
X1943946Y425208D01*
X1934844Y421438D01*
X1926653Y415965D01*
X1919686Y408999D01*
X1914213Y400808D01*
X1910443Y391706D01*
X1908521Y382044D01*
Y377118D01*
Y377118D01*
X1908521Y297196D01*
X1908257Y289111D01*
X1906152Y273078D01*
X1901977Y257456D01*
X1895805Y242510D01*
X1887739Y228494D01*
X1877918Y215648D01*
X1866508Y204190D01*
X1853703Y194314D01*
X1839722Y186190D01*
X1824802Y179954D01*
X1809197Y175714D01*
X1793173Y173542D01*
X1785089Y173243D01*
D01*
X1784044Y173243D01*
X1775960Y173541D01*
X1759937Y175714D01*
X1744332Y179954D01*
X1729412Y186189D01*
X1715430Y194314D01*
X1702626Y204190D01*
X1691216Y215648D01*
X1681394Y228494D01*
X1673328Y242510D01*
X1667156Y257456D01*
X1662982Y273078D01*
X1660877Y289111D01*
X1660613Y297196D01*
Y297196D01*
Y376797D01*
X1660611Y377119D01*
Y382032D01*
X1658699Y391672D01*
X1654947Y400755D01*
X1649499Y408934D01*
X1642563Y415896D01*
X1634405Y421375D01*
X1625337Y425162D01*
X1615705Y427112D01*
X1610791Y427131D01*
Y427131D01*
X1610599Y427132D01*
X1112397D01*
X1112077Y427130D01*
X1107151Y427130D01*
X1097489Y425208D01*
X1088387Y421438D01*
X1080196Y415965D01*
X1073230Y408999D01*
X1067756Y400808D01*
X1063986Y391706D01*
X1062064Y382044D01*
Y377118D01*
Y377118D01*
Y297196D01*
X1061800Y289111D01*
X1059695Y273078D01*
X1055521Y257456D01*
X1049348Y242510D01*
X1041283Y228494D01*
X1031461Y215648D01*
X1020051Y204190D01*
X1007246Y194314D01*
X993265Y186189D01*
X978345Y179954D01*
X962740Y175714D01*
X946716Y173541D01*
X938632Y173243D01*
D01*
X937588Y173243D01*
X929504Y173541D01*
X913480Y175714D01*
X897875Y179954D01*
X882955Y186189D01*
X868974Y194314D01*
X856169Y204190D01*
X844759Y215648D01*
X834937Y228494D01*
X826872Y242510D01*
X820699Y257456D01*
X816525Y273078D01*
X814420Y289111D01*
X814156Y297196D01*
Y297196D01*
Y377118D01*
X814155Y377304D01*
X814137Y382206D01*
X812198Y391818D01*
X808429Y400869D01*
X802974Y409017D01*
X796041Y415950D01*
X787894Y421404D01*
X778842Y425173D01*
X769231Y427113D01*
X764328Y427131D01*
X764329Y427131D01*
X764142Y427132D01*
X338582D01*
X333397D01*
X323380Y424447D01*
X314399Y419262D01*
X307067Y411929D01*
X301881Y402948D01*
X299197Y392932D01*
Y382561D01*
X301881Y372544D01*
X307067Y363563D01*
X314399Y356230D01*
X323380Y351045D01*
X333397Y348361D01*
X338582D01*
D01*
X735386D01*
Y297196D01*
D02*
G37*
G36*
X877953Y2388103D02*
X872767D01*
X862750Y2390787D01*
X853769Y2395972D01*
X846437Y2403305D01*
X841251Y2412286D01*
X838567Y2422303D01*
Y2432673D01*
X841251Y2442690D01*
X846437Y2451671D01*
X853769Y2459004D01*
X862750Y2464189D01*
X872767Y2466873D01*
X877953D01*
D01*
X3303150Y2466874D01*
X3307029D01*
X3314638Y2465360D01*
X3321806Y2462391D01*
X3328256Y2458081D01*
X3333742Y2452595D01*
X3338052Y2446144D01*
X3341021Y2438977D01*
X3342535Y2431367D01*
Y2427488D01*
Y2423609D01*
X3341021Y2416000D01*
X3338052Y2408832D01*
X3333742Y2402382D01*
X3328256Y2396896D01*
X3321806Y2392586D01*
X3314638Y2389617D01*
X3307029Y2388103D01*
X3303150D01*
D01*
X877953Y2388103D01*
D02*
G37*
D114*
X2957405Y637747D02*
D03*
X3184957Y637747D02*
D03*
X645587Y637747D02*
D03*
X418035D02*
D03*
X2338501D02*
D03*
X2110948D02*
D03*
X1492044D02*
D03*
X1264492D02*
D03*
D115*
X4006220Y742078D02*
D03*
Y969630D02*
D03*
D116*
X3836559Y2602000D02*
D03*
D117*
X356984Y2601999D02*
D03*
%TF.MD5,e16a06e4b05fd7db830a84947cfcfb52*%
M02*
