%TF.GenerationSoftware,Altium Limited,Altium Designer,23.4.1 (23)*%
G04 Layer_Color=8421504*
%FSLAX26Y26*%
%MOIN*%
%TF.SameCoordinates,7B234F99-2337-49EF-8028-3FC35EF94B5E*%
%TF.FilePolarity,Positive*%
%TF.FileFunction,Paste,Top*%
%TF.Part,CustomerPanel*%
G01*
G75*
%TA.AperFunction,SMDPad,CuDef*%
%ADD10R,0.018898X0.074803*%
G04:AMPARAMS|DCode=11|XSize=74.803mil|YSize=18.898mil|CornerRadius=2.362mil|HoleSize=0mil|Usage=FLASHONLY|Rotation=270.000|XOffset=0mil|YOffset=0mil|HoleType=Round|Shape=RoundedRectangle|*
%AMROUNDEDRECTD11*
21,1,0.074803,0.014173,0,0,270.0*
21,1,0.070079,0.018898,0,0,270.0*
1,1,0.004724,-0.007087,-0.035039*
1,1,0.004724,-0.007087,0.035039*
1,1,0.004724,0.007087,0.035039*
1,1,0.004724,0.007087,-0.035039*
%
%ADD11ROUNDEDRECTD11*%
G04:AMPARAMS|DCode=12|XSize=23.622mil|YSize=74.803mil|CornerRadius=5.906mil|HoleSize=0mil|Usage=FLASHONLY|Rotation=90.000|XOffset=0mil|YOffset=0mil|HoleType=Round|Shape=RoundedRectangle|*
%AMROUNDEDRECTD12*
21,1,0.023622,0.062992,0,0,90.0*
21,1,0.011811,0.074803,0,0,90.0*
1,1,0.011811,0.031496,0.005906*
1,1,0.011811,0.031496,-0.005906*
1,1,0.011811,-0.031496,-0.005906*
1,1,0.011811,-0.031496,0.005906*
%
%ADD12ROUNDEDRECTD12*%
%ADD13R,0.074803X0.023622*%
G04:AMPARAMS|DCode=14|XSize=118.11mil|YSize=157.48mil|CornerRadius=0mil|HoleSize=0mil|Usage=FLASHONLY|Rotation=0.000|XOffset=0mil|YOffset=0mil|HoleType=Round|Shape=Octagon|*
%AMOCTAGOND14*
4,1,8,-0.029527,0.078740,0.029527,0.078740,0.059055,0.049213,0.059055,-0.049213,0.029527,-0.078740,-0.029527,-0.078740,-0.059055,-0.049213,-0.059055,0.049213,-0.029527,0.078740,0.0*
%
%ADD14OCTAGOND14*%

G04:AMPARAMS|DCode=15|XSize=23.622mil|YSize=74.803mil|CornerRadius=5.906mil|HoleSize=0mil|Usage=FLASHONLY|Rotation=0.000|XOffset=0mil|YOffset=0mil|HoleType=Round|Shape=RoundedRectangle|*
%AMROUNDEDRECTD15*
21,1,0.023622,0.062992,0,0,0.0*
21,1,0.011811,0.074803,0,0,0.0*
1,1,0.011811,0.005906,-0.031496*
1,1,0.011811,-0.005906,-0.031496*
1,1,0.011811,-0.005906,0.031496*
1,1,0.011811,0.005906,0.031496*
%
%ADD15ROUNDEDRECTD15*%
%ADD16R,0.023622X0.074803*%
%ADD17R,0.055118X0.047244*%
G04:AMPARAMS|DCode=18|XSize=57.087mil|YSize=37.402mil|CornerRadius=9.35mil|HoleSize=0mil|Usage=FLASHONLY|Rotation=0.000|XOffset=0mil|YOffset=0mil|HoleType=Round|Shape=RoundedRectangle|*
%AMROUNDEDRECTD18*
21,1,0.057087,0.018701,0,0,0.0*
21,1,0.038386,0.037402,0,0,0.0*
1,1,0.018701,0.019193,-0.009350*
1,1,0.018701,-0.019193,-0.009350*
1,1,0.018701,-0.019193,0.009350*
1,1,0.018701,0.019193,0.009350*
%
%ADD18ROUNDEDRECTD18*%
G04:AMPARAMS|DCode=19|XSize=39.37mil|YSize=35.433mil|CornerRadius=8.858mil|HoleSize=0mil|Usage=FLASHONLY|Rotation=0.000|XOffset=0mil|YOffset=0mil|HoleType=Round|Shape=RoundedRectangle|*
%AMROUNDEDRECTD19*
21,1,0.039370,0.017717,0,0,0.0*
21,1,0.021654,0.035433,0,0,0.0*
1,1,0.017716,0.010827,-0.008858*
1,1,0.017716,-0.010827,-0.008858*
1,1,0.017716,-0.010827,0.008858*
1,1,0.017716,0.010827,0.008858*
%
%ADD19ROUNDEDRECTD19*%
%ADD20R,0.037402X0.033465*%
G04:AMPARAMS|DCode=21|XSize=37.402mil|YSize=33.465mil|CornerRadius=8.366mil|HoleSize=0mil|Usage=FLASHONLY|Rotation=180.000|XOffset=0mil|YOffset=0mil|HoleType=Round|Shape=RoundedRectangle|*
%AMROUNDEDRECTD21*
21,1,0.037402,0.016732,0,0,180.0*
21,1,0.020669,0.033465,0,0,180.0*
1,1,0.016732,-0.010335,0.008366*
1,1,0.016732,0.010335,0.008366*
1,1,0.016732,0.010335,-0.008366*
1,1,0.016732,-0.010335,-0.008366*
%
%ADD21ROUNDEDRECTD21*%
%ADD22R,0.086614X0.122047*%
G04:AMPARAMS|DCode=23|XSize=59.055mil|YSize=59.843mil|CornerRadius=14.764mil|HoleSize=0mil|Usage=FLASHONLY|Rotation=0.000|XOffset=0mil|YOffset=0mil|HoleType=Round|Shape=RoundedRectangle|*
%AMROUNDEDRECTD23*
21,1,0.059055,0.030315,0,0,0.0*
21,1,0.029527,0.059843,0,0,0.0*
1,1,0.029528,0.014764,-0.015158*
1,1,0.029528,-0.014764,-0.015158*
1,1,0.029528,-0.014764,0.015158*
1,1,0.029528,0.014764,0.015158*
%
%ADD23ROUNDEDRECTD23*%
G04:AMPARAMS|DCode=24|XSize=70.866mil|YSize=51.181mil|CornerRadius=12.795mil|HoleSize=0mil|Usage=FLASHONLY|Rotation=270.000|XOffset=0mil|YOffset=0mil|HoleType=Round|Shape=RoundedRectangle|*
%AMROUNDEDRECTD24*
21,1,0.070866,0.025591,0,0,270.0*
21,1,0.045276,0.051181,0,0,270.0*
1,1,0.025590,-0.012795,-0.022638*
1,1,0.025590,-0.012795,0.022638*
1,1,0.025590,0.012795,0.022638*
1,1,0.025590,0.012795,-0.022638*
%
%ADD24ROUNDEDRECTD24*%
G04:AMPARAMS|DCode=25|XSize=39.37mil|YSize=35.433mil|CornerRadius=8.858mil|HoleSize=0mil|Usage=FLASHONLY|Rotation=270.000|XOffset=0mil|YOffset=0mil|HoleType=Round|Shape=RoundedRectangle|*
%AMROUNDEDRECTD25*
21,1,0.039370,0.017717,0,0,270.0*
21,1,0.021654,0.035433,0,0,270.0*
1,1,0.017716,-0.008858,-0.010827*
1,1,0.017716,-0.008858,0.010827*
1,1,0.017716,0.008858,0.010827*
1,1,0.017716,0.008858,-0.010827*
%
%ADD25ROUNDEDRECTD25*%
%ADD26R,0.137795X0.059055*%
G04:AMPARAMS|DCode=27|XSize=59.055mil|YSize=137.795mil|CornerRadius=14.764mil|HoleSize=0mil|Usage=FLASHONLY|Rotation=270.000|XOffset=0mil|YOffset=0mil|HoleType=Round|Shape=RoundedRectangle|*
%AMROUNDEDRECTD27*
21,1,0.059055,0.108268,0,0,270.0*
21,1,0.029527,0.137795,0,0,270.0*
1,1,0.029528,-0.054134,-0.014764*
1,1,0.029528,-0.054134,0.014764*
1,1,0.029528,0.054134,0.014764*
1,1,0.029528,0.054134,-0.014764*
%
%ADD27ROUNDEDRECTD27*%
%ADD28R,0.011811X0.057087*%
%ADD29R,0.023622X0.057087*%
%ADD30R,0.216535X0.472441*%
G04:AMPARAMS|DCode=31|XSize=70.866mil|YSize=51.181mil|CornerRadius=12.795mil|HoleSize=0mil|Usage=FLASHONLY|Rotation=180.000|XOffset=0mil|YOffset=0mil|HoleType=Round|Shape=RoundedRectangle|*
%AMROUNDEDRECTD31*
21,1,0.070866,0.025591,0,0,180.0*
21,1,0.045276,0.051181,0,0,180.0*
1,1,0.025590,-0.022638,0.012795*
1,1,0.025590,0.022638,0.012795*
1,1,0.025590,0.022638,-0.012795*
1,1,0.025590,-0.022638,-0.012795*
%
%ADD31ROUNDEDRECTD31*%
%TA.AperFunction,ConnectorPad*%
%ADD32R,0.057087X0.011811*%
%ADD33R,0.057087X0.023622*%
%TA.AperFunction,FiducialPad,Global*%
%ADD34C,0.059055*%
%TA.AperFunction,SMDPad,CuDef*%
G04:AMPARAMS|DCode=35|XSize=57.087mil|YSize=37.402mil|CornerRadius=9.35mil|HoleSize=0mil|Usage=FLASHONLY|Rotation=90.000|XOffset=0mil|YOffset=0mil|HoleType=Round|Shape=RoundedRectangle|*
%AMROUNDEDRECTD35*
21,1,0.057087,0.018701,0,0,90.0*
21,1,0.038386,0.037402,0,0,90.0*
1,1,0.018701,0.009350,0.019193*
1,1,0.018701,0.009350,-0.019193*
1,1,0.018701,-0.009350,-0.019193*
1,1,0.018701,-0.009350,0.019193*
%
%ADD35ROUNDEDRECTD35*%
D10*
X4103661Y2021803D02*
D03*
D11*
X4078071Y2021802D02*
D03*
X4052480Y2021803D02*
D03*
X4026890D02*
D03*
X4001299D02*
D03*
X3975709D02*
D03*
X3950118D02*
D03*
X3924528D02*
D03*
X3898937D02*
D03*
X3873346D02*
D03*
X3847756D02*
D03*
X3822165D02*
D03*
X3796575D02*
D03*
X3770984D02*
D03*
Y1804873D02*
D03*
X3796575D02*
D03*
X3822165D02*
D03*
X3847756D02*
D03*
X3873346D02*
D03*
X3898937D02*
D03*
X3924528D02*
D03*
X3950118D02*
D03*
X3975709D02*
D03*
X4001299D02*
D03*
X4026890D02*
D03*
X4052480D02*
D03*
X4078071Y1804874D02*
D03*
X4103661Y1804873D02*
D03*
D12*
X919362Y1408070D02*
D03*
Y1458070D02*
D03*
Y1508070D02*
D03*
Y1558070D02*
D03*
X655583Y1408070D02*
D03*
Y1458070D02*
D03*
Y1508070D02*
D03*
X3194953D02*
D03*
Y1458070D02*
D03*
Y1408070D02*
D03*
X3458732Y1558070D02*
D03*
Y1508070D02*
D03*
Y1458070D02*
D03*
Y1408070D02*
D03*
X2612276D02*
D03*
Y1458070D02*
D03*
Y1508070D02*
D03*
Y1558070D02*
D03*
X2348496Y1408070D02*
D03*
Y1458070D02*
D03*
Y1508070D02*
D03*
X1765819Y1408070D02*
D03*
Y1458070D02*
D03*
Y1508070D02*
D03*
Y1558070D02*
D03*
X1502040Y1408070D02*
D03*
Y1458070D02*
D03*
Y1508070D02*
D03*
D13*
X655583Y1558070D02*
D03*
X3194953D02*
D03*
X2348496D02*
D03*
X1502040D02*
D03*
D14*
X787472Y1483070D02*
D03*
X3326843D02*
D03*
X2480386D02*
D03*
X1633929D02*
D03*
D15*
X415473Y972393D02*
D03*
X465473D02*
D03*
X515472D02*
D03*
X565472D02*
D03*
X415473Y1236172D02*
D03*
X465473D02*
D03*
X515472D02*
D03*
X3054843D02*
D03*
X3004843Y1236172D02*
D03*
X2954843Y1236172D02*
D03*
X3104843Y972393D02*
D03*
X3054842D02*
D03*
X3004843D02*
D03*
X2954843D02*
D03*
X2108386D02*
D03*
X2158386D02*
D03*
X2208386D02*
D03*
X2258386D02*
D03*
X2108386Y1236172D02*
D03*
X2158386D02*
D03*
X2208386D02*
D03*
X1261929Y972393D02*
D03*
X1311929D02*
D03*
X1361929D02*
D03*
X1411929D02*
D03*
X1261929Y1236172D02*
D03*
X1311929D02*
D03*
X1361929D02*
D03*
D16*
X565472D02*
D03*
X3104843D02*
D03*
X2258386D02*
D03*
X1411929D02*
D03*
D17*
X4003000Y2139117D02*
D03*
Y2229117D02*
D03*
X4113000Y2139117D02*
D03*
Y2229117D02*
D03*
D18*
X641079Y889750D02*
D03*
Y807073D02*
D03*
X3740472Y494047D02*
D03*
Y576724D02*
D03*
X3799528Y1616094D02*
D03*
Y1698771D02*
D03*
X3819213Y533417D02*
D03*
Y616094D02*
D03*
X3179000Y885456D02*
D03*
Y802779D02*
D03*
X2333992Y889750D02*
D03*
Y807073D02*
D03*
X1488000Y890456D02*
D03*
Y807779D02*
D03*
D19*
X694819Y946703D02*
D03*
Y1009695D02*
D03*
X3927480Y1698771D02*
D03*
Y1635779D02*
D03*
X3868425Y1698771D02*
D03*
X3868425Y1635779D02*
D03*
X3730630Y1688928D02*
D03*
Y1625936D02*
D03*
X4056000Y1686614D02*
D03*
Y1623621D02*
D03*
X3021968Y881842D02*
D03*
Y818850D02*
D03*
X2175512D02*
D03*
Y881842D02*
D03*
X1329055Y818850D02*
D03*
Y881842D02*
D03*
X482599Y818850D02*
D03*
Y881842D02*
D03*
X3081024Y881842D02*
D03*
Y818850D02*
D03*
X2234567Y818850D02*
D03*
Y881842D02*
D03*
X1388110Y818850D02*
D03*
Y881842D02*
D03*
X541654Y818850D02*
D03*
Y881842D02*
D03*
X3235173Y946703D02*
D03*
Y1009695D02*
D03*
X2388717Y946703D02*
D03*
Y1009695D02*
D03*
X1542260Y946703D02*
D03*
Y1009695D02*
D03*
D20*
X2882000Y770637D02*
D03*
X344000Y823598D02*
D03*
X1191000Y771637D02*
D03*
X3829055Y764716D02*
D03*
X2035000Y777637D02*
D03*
D21*
X2882000Y835598D02*
D03*
X344000Y758637D02*
D03*
X1191000Y836598D02*
D03*
X3829055Y699755D02*
D03*
X2035000Y842598D02*
D03*
D22*
X501472Y1587070D02*
D03*
X3040843D02*
D03*
X2194386D02*
D03*
X1347929D02*
D03*
D23*
X502181Y1459984D02*
D03*
X3041551D02*
D03*
X2195095D02*
D03*
X1348638D02*
D03*
D24*
X407000Y1353117D02*
D03*
X296763D02*
D03*
X3913701Y2129873D02*
D03*
X3803465Y2129873D02*
D03*
X2864882Y1348118D02*
D03*
X2975118D02*
D03*
X2017764Y1342118D02*
D03*
X2128000D02*
D03*
X1179882Y1339118D02*
D03*
X1290118D02*
D03*
D25*
X602677Y1635779D02*
D03*
X665669D02*
D03*
X3205039D02*
D03*
X3142047D02*
D03*
X2295591D02*
D03*
X2358583D02*
D03*
X1449134D02*
D03*
X1512126D02*
D03*
X4143496Y1505118D02*
D03*
X4080504D02*
D03*
X3201102Y1324755D02*
D03*
X3138110Y1324755D02*
D03*
X2291654Y1324755D02*
D03*
X2354646D02*
D03*
X1445197D02*
D03*
X1508189D02*
D03*
X598740D02*
D03*
X661732D02*
D03*
X3413701Y1332629D02*
D03*
X3476693D02*
D03*
X2630236D02*
D03*
X2567244D02*
D03*
X1783780D02*
D03*
X1720787D02*
D03*
X937323D02*
D03*
X874331D02*
D03*
X3051496Y1387747D02*
D03*
X3114488D02*
D03*
X2268032Y1387747D02*
D03*
X2205039D02*
D03*
X1421575D02*
D03*
X1358583D02*
D03*
X575118D02*
D03*
X512126D02*
D03*
D26*
X888110Y1159401D02*
D03*
X3949134Y1214519D02*
D03*
X3514095Y871999D02*
D03*
X2667638D02*
D03*
X1821181D02*
D03*
X974725D02*
D03*
X3427480Y1159401D02*
D03*
X2581024Y1159401D02*
D03*
X1734567D02*
D03*
D27*
X687323D02*
D03*
X3748347Y1214519D02*
D03*
X3313307Y871999D02*
D03*
X2466851D02*
D03*
X1620394D02*
D03*
X773937D02*
D03*
X3226693Y1159401D02*
D03*
X2380236Y1159401D02*
D03*
X1533780D02*
D03*
D28*
X3140082Y692669D02*
D03*
X3120397D02*
D03*
X3002287Y692669D02*
D03*
X3021972D02*
D03*
X3061342Y692669D02*
D03*
X3081027D02*
D03*
X3041657Y692669D02*
D03*
X3100712Y692669D02*
D03*
X561342Y692669D02*
D03*
X502287D02*
D03*
X541657D02*
D03*
X521972D02*
D03*
X482602D02*
D03*
X462917D02*
D03*
X581027D02*
D03*
X600712D02*
D03*
X2254255D02*
D03*
X2195200D02*
D03*
X2234570D02*
D03*
X2214885D02*
D03*
X2175515D02*
D03*
X2155830D02*
D03*
X2273940D02*
D03*
X2293625D02*
D03*
X1407799D02*
D03*
X1348744D02*
D03*
X1388114D02*
D03*
X1368429D02*
D03*
X1329059D02*
D03*
X1309373D02*
D03*
X1427484D02*
D03*
X1447169D02*
D03*
D29*
X2943232Y692669D02*
D03*
X3199137D02*
D03*
X3167641D02*
D03*
X2974728D02*
D03*
X435358Y692669D02*
D03*
X628271D02*
D03*
X659767D02*
D03*
X403862D02*
D03*
X2128271D02*
D03*
X2321184D02*
D03*
X2352681D02*
D03*
X2096775D02*
D03*
X1281814D02*
D03*
X1474728D02*
D03*
X1506224D02*
D03*
X1250318D02*
D03*
D30*
X568346Y1952708D02*
D03*
X928346D02*
D03*
X3467716Y1952708D02*
D03*
X3107716Y1952708D02*
D03*
X2261260Y1952708D02*
D03*
X2621260D02*
D03*
X1414803D02*
D03*
X1774803D02*
D03*
D31*
X4134173Y1582629D02*
D03*
X4134173Y1692866D02*
D03*
D32*
X3951299Y924755D02*
D03*
Y905070D02*
D03*
Y786960D02*
D03*
Y806645D02*
D03*
Y846015D02*
D03*
Y865700D02*
D03*
Y826330D02*
D03*
Y885385D02*
D03*
D33*
Y727905D02*
D03*
Y983810D02*
D03*
Y952314D02*
D03*
Y759401D02*
D03*
D34*
X285748Y2257826D02*
D03*
X79000Y1182118D02*
D03*
X3691260Y762078D02*
D03*
D35*
X3699134Y1037354D02*
D03*
X3781811D02*
D03*
X3664661Y642117D02*
D03*
X3747339D02*
D03*
X3780339Y1441118D02*
D03*
X3697661D02*
D03*
X3781811Y879873D02*
D03*
X3699134D02*
D03*
%TF.MD5,56116b18776f5ea9a1f5eb407ae8efdc*%
M02*
