M48
;Layer_Color=9474304
;FILE_FORMAT=2:5
INCH
;TYPE=PLATED
T2F00S00C0.02756
%
G90
G05
T02
X0324126Y0048421G85Y0050389
X0324126Y0063893G85Y0067830
X0400504Y0068578G85X0396567
X0415976Y0068578G85X0414008
X0415976Y0102593G85X0414008
X0400504Y0102593G85X0396567
X0290110Y0063893G85Y0067830
X0290110Y0048421G85Y0050389
X0239480Y0048420G85Y0050389
X0239480Y0063893G85Y0067830
X0205465Y0063893G85Y0067830
X0205465Y0048420G85Y0050389
X0154835Y0048420G85Y0050389
X0154835Y0063893G85Y0067830
X0120819Y0063893G85Y0067830
X0120819Y0048420G85Y0050389
X0070189Y0048420G85Y0050389
X0070189Y0063893G85Y0067830
X0036173Y0063893G85Y0067830
X0036173Y0048420G85Y0050389
M30
