%TF.GenerationSoftware,Altium Limited,Altium Designer,23.11.1 (41)*%
G04 Layer_Color=0*
%FSLAX26Y26*%
%MOIN*%
%TF.SameCoordinates,F82F4D49-2E87-4C35-BC9D-0006C00306D8*%
%TF.FilePolarity,Positive*%
%TF.FileFunction,Profile,NP*%
%TF.Part,CustomerPanel*%
G01*
G75*
%TA.AperFunction,Profile*%
%ADD166C,0.001000*%
G36*
X909449Y1640310D02*
X1006655D01*
X1010534D01*
X1018143Y1641823D01*
X1025311Y1644792D01*
X1031762Y1649103D01*
X1034505Y1651845D01*
X1034505Y1651846D01*
X1266575Y1883917D01*
X1269318Y1886659D01*
X1273629Y1893110D01*
X1276597Y1900278D01*
X1278111Y1907887D01*
X1278111Y1911766D01*
X1278111Y1911766D01*
Y2002452D01*
X1301103Y2025444D01*
X1849112D01*
X1852991D01*
X1860600Y2026957D01*
X1867768Y2029926D01*
X1874218Y2034236D01*
X1876961Y2036979D01*
X1876961Y2036979D01*
X1889741Y2049759D01*
X1964532D01*
X2067870Y1946421D01*
Y1881472D01*
X1989415Y1803016D01*
X1986672Y1800273D01*
X1982362Y1793822D01*
X1979393Y1786655D01*
X1977879Y1779046D01*
X1977879Y1771287D01*
X1979393Y1763678D01*
X1982362Y1756511D01*
X1986672Y1750060D01*
X1989415Y1747317D01*
D01*
X2240822Y1495910D01*
X2243565Y1493167D01*
X2250016Y1488857D01*
X2257184Y1485888D01*
X2264793Y1484374D01*
X2272551Y1484374D01*
X2280160Y1485888D01*
X2287328Y1488857D01*
X2293778Y1493167D01*
X2296521Y1495910D01*
X2296521D01*
X2374977Y1574365D01*
X2439926D01*
X2543264Y1471027D01*
Y1396236D01*
X2501022Y1353993D01*
X2497356Y1350327D01*
X2492171Y1341346D01*
X2489486Y1331329D01*
X2489486Y1320959D01*
X2492171Y1310942D01*
X2497356Y1301961D01*
X2504689Y1294628D01*
X2513669Y1289443D01*
X2523686Y1286759D01*
X2534057Y1286759D01*
X2544074Y1289443D01*
X2553055Y1294628D01*
X2556721Y1298294D01*
X2556721D01*
X2879387Y1620960D01*
X2882130Y1623703D01*
X2886440Y1630154D01*
X2889409Y1637321D01*
X2890922Y1644930D01*
X2890922Y1648810D01*
X2890922Y1654652D01*
X2887530Y1665833D01*
X2881039Y1675548D01*
X2872007Y1682961D01*
X2861212Y1687432D01*
X2849584Y1688578D01*
X2838124Y1686298D01*
X2827819Y1680790D01*
X2823688Y1676659D01*
Y1676659D01*
X2621939Y1474910D01*
X2621581Y1482169D01*
X2618221Y1496310D01*
X2612329Y1509598D01*
X2604106Y1521583D01*
X2598967Y1526722D01*
X2598967D01*
X2495621Y1630068D01*
X2490136Y1635553D01*
X2477237Y1644172D01*
X2462904Y1650109D01*
X2447688Y1653135D01*
X2439932D01*
X2439932Y1653135D01*
X2374971Y1653135D01*
X2367214Y1653135D01*
X2351999Y1650109D01*
X2337666Y1644172D01*
X2324767Y1635553D01*
X2319282Y1630068D01*
Y1630068D01*
X2268672Y1579458D01*
X2072963Y1775167D01*
X2123573Y1825777D01*
X2129058Y1831262D01*
X2137677Y1844161D01*
X2143614Y1858493D01*
X2146640Y1873709D01*
Y1881466D01*
X2146641Y1881466D01*
X2146641Y1946426D01*
Y1954183D01*
X2143614Y1969399D01*
X2137677Y1983731D01*
X2129058Y1996630D01*
X2123573Y2002115D01*
X2123573Y2002115D01*
X2020227Y2105462D01*
X2014742Y2110947D01*
X2001843Y2119566D01*
X1987510Y2125502D01*
X1972295Y2128529D01*
X1964538D01*
X1964538Y2128529D01*
X1889735Y2128529D01*
X1881978Y2128529D01*
X1866763Y2125502D01*
X1852430Y2119566D01*
X1839531Y2110947D01*
X1834046Y2105462D01*
Y2105462D01*
X1832798Y2104214D01*
X1301097Y2104214D01*
X1293340Y2104214D01*
X1278125Y2101187D01*
X1263792Y2095251D01*
X1250893Y2086632D01*
X1245408Y2081147D01*
Y2081147D01*
X1222408Y2058147D01*
X1216923Y2052662D01*
X1208304Y2039763D01*
X1202367Y2025430D01*
X1199341Y2010215D01*
Y2002458D01*
Y2002458D01*
Y1928080D01*
X990341Y1719080D01*
X909449D01*
X904264D01*
X894247Y1716396D01*
X885266Y1711211D01*
X877933Y1703878D01*
X872748Y1694897D01*
X870064Y1684880D01*
Y1674510D01*
X872748Y1664493D01*
X877933Y1655512D01*
X885266Y1648179D01*
X894247Y1642994D01*
X904264Y1640310D01*
X909449D01*
D01*
D02*
G37*
G36*
X1197821Y417323D02*
Y471457D01*
Y476271D01*
X1199692Y485715D01*
X1203364Y494616D01*
X1208696Y502633D01*
X1215485Y509461D01*
X1223471Y514839D01*
X1232350Y518561D01*
X1241784Y520487D01*
X1246598Y520515D01*
X1246598Y520515D01*
X1246880Y520516D01*
X1980995D01*
X1981003Y520540D01*
X2134779Y981870D01*
X2135502Y984038D01*
X2137439Y988178D01*
X2139842Y992066D01*
X2142678Y995649D01*
X2144294Y997265D01*
X2144294Y997265D01*
X2337294Y1190265D01*
X2341425Y1194396D01*
X2351729Y1199904D01*
X2363189Y1202184D01*
X2374818Y1201038D01*
X2385613Y1196567D01*
X2394645Y1189154D01*
X2401136Y1179439D01*
X2404528Y1168258D01*
X2404528Y1162416D01*
X2404528Y1158536D01*
X2403015Y1150927D01*
X2400046Y1143760D01*
X2395736Y1137309D01*
X2392993Y1134566D01*
X2392993D01*
X2206567Y948141D01*
X2055731Y495630D01*
X2053784Y489783D01*
X2048120Y478836D01*
X2040822Y468903D01*
X2032067Y460226D01*
X2022070Y453017D01*
X2011072Y447451D01*
X1999343Y443663D01*
X1987168Y441746D01*
X1981005Y441746D01*
X1981005D01*
X1276591D01*
Y417323D01*
Y412138D01*
X1273907Y402121D01*
X1268722Y393140D01*
X1261389Y385807D01*
X1252408Y380622D01*
X1242391Y377938D01*
X1232020D01*
X1222004Y380622D01*
X1213023Y385807D01*
X1205690Y393140D01*
X1200505Y402121D01*
X1197821Y412138D01*
Y417323D01*
D01*
D02*
G37*
G36*
X314945Y708661D02*
Y1353062D01*
Y1360818D01*
X317971Y1376034D01*
X323908Y1390367D01*
X332527Y1403266D01*
X338012Y1408751D01*
X338012Y1408751D01*
X569571Y1640310D01*
X308567D01*
X303382D01*
X293365Y1642994D01*
X284384Y1648179D01*
X277051Y1655512D01*
X271866Y1664493D01*
X269182Y1674510D01*
Y1684880D01*
X271866Y1694897D01*
X277051Y1703878D01*
X284384Y1711211D01*
X293365Y1716396D01*
X303382Y1719080D01*
X308567D01*
D01*
X680963D01*
X684842D01*
X692451Y1717567D01*
X699619Y1714598D01*
X706070Y1710287D01*
X711556Y1704802D01*
X715866Y1698351D01*
X718835Y1691183D01*
X720348Y1683574D01*
Y1679695D01*
X720348Y1675816D01*
X718835Y1668208D01*
X715866Y1661041D01*
X711557Y1654591D01*
X706072Y1649105D01*
X699622Y1644794D01*
X692456Y1641825D01*
X684848Y1640311D01*
X680969Y1640310D01*
Y1640310D01*
X393715Y1353056D01*
Y708661D01*
Y703476D01*
X391031Y693459D01*
X385846Y684478D01*
X378513Y677145D01*
X369532Y671960D01*
X359515Y669276D01*
X349144D01*
X339128Y671960D01*
X330147Y677145D01*
X322814Y684478D01*
X317629Y693459D01*
X314945Y703476D01*
Y708661D01*
D01*
D02*
G37*
G36*
Y4000D02*
Y-1185D01*
X317629Y-11202D01*
X322814Y-20183D01*
X330147Y-27516D01*
X339128Y-32701D01*
X349144Y-35385D01*
X359515D01*
X369532Y-32701D01*
X378513Y-27516D01*
X385846Y-20183D01*
X391031Y-11202D01*
X393715Y-1185D01*
Y4000D01*
D01*
Y305292D01*
X592563Y-39358D01*
X595143Y-43830D01*
X601428Y-52025D01*
X608728Y-59329D01*
X616920Y-65617D01*
X625863Y-70781D01*
X635403Y-74734D01*
X645378Y-77408D01*
X655616Y-78756D01*
X660779D01*
D01*
X1197821D01*
Y-446000D01*
Y-451185D01*
X1200505Y-461202D01*
X1205690Y-470183D01*
X1213023Y-477516D01*
X1222004Y-482701D01*
X1232021Y-485385D01*
X1242391D01*
X1252408Y-482701D01*
X1261389Y-477516D01*
X1268722Y-470183D01*
X1273907Y-461202D01*
X1276591Y-451185D01*
Y-446000D01*
D01*
Y186500D01*
Y191685D01*
X1273907Y201702D01*
X1268722Y210683D01*
X1261389Y218016D01*
X1252408Y223201D01*
X1242391Y225885D01*
X1232021D01*
X1222004Y223201D01*
X1213023Y218016D01*
X1205690Y210683D01*
X1200505Y201702D01*
X1197821Y191685D01*
Y186500D01*
D01*
Y14D01*
X660788D01*
X393715Y462913D01*
Y478500D01*
Y483685D01*
X391031Y493702D01*
X385846Y502683D01*
X378513Y510016D01*
X369532Y515201D01*
X359515Y517885D01*
X349144D01*
X339128Y515201D01*
X330147Y510016D01*
X322814Y502683D01*
X317629Y493702D01*
X314945Y483685D01*
Y478500D01*
D01*
Y4000D01*
D02*
G37*
D166*
X0Y-391000D02*
X2795276D01*
Y2279000D01*
X0D01*
Y-391000D01*
%TF.MD5,ac6b3b6522d2205fce045b9bfc388a34*%
M02*
