%TF.GenerationSoftware,Altium Limited,Altium Designer,23.11.1 (41)*%
G04 Layer_Color=0*
%FSLAX26Y26*%
%MOIN*%
%TF.SameCoordinates,4DC999CF-56CA-410E-BBFC-AE2E78030286*%
%TF.FilePolarity,Positive*%
%TF.FileFunction,NonPlated,1,4,NPTH,Drill*%
%TF.Part,CustomerPanel*%
G01*
G75*
%TA.AperFunction,ComponentDrill*%
%ADD166C,0.026575*%
G36*
X325484Y423551D02*
X322906Y428019D01*
X318960Y437553D01*
X316291Y447520D01*
X314945Y457750D01*
Y462909D01*
D01*
Y478500D01*
Y483685D01*
X317629Y493702D01*
X322814Y502683D01*
X330147Y510016D01*
X339128Y515201D01*
X349144Y517885D01*
X359515D01*
X369532Y515201D01*
X378513Y510016D01*
X385846Y502683D01*
X391031Y493702D01*
X393715Y483685D01*
Y478500D01*
D01*
Y462913D01*
X660788Y14D01*
X1197821D01*
Y186500D01*
Y191685D01*
X1200505Y201702D01*
X1205690Y210683D01*
X1213023Y218016D01*
X1222004Y223201D01*
X1232021Y225885D01*
X1242391D01*
X1252408Y223201D01*
X1261389Y218016D01*
X1268722Y210683D01*
X1273907Y201702D01*
X1276591Y191685D01*
Y186500D01*
D01*
Y0D01*
Y-7757D01*
X1273564Y-22972D01*
X1267627Y-37305D01*
X1259008Y-50204D01*
X1248039Y-61174D01*
X1235140Y-69793D01*
X1220807Y-75730D01*
X1205591Y-78756D01*
X1197835D01*
D01*
X660779D01*
X655616D01*
X645378Y-77408D01*
X635403Y-74734D01*
X625863Y-70781D01*
X616920Y-65617D01*
X608728Y-59329D01*
X601428Y-52025D01*
X595143Y-43830D01*
X592563Y-39358D01*
D01*
X325484Y423551D01*
D02*
G37*
G36*
X314945Y635500D02*
Y1353062D01*
Y1360818D01*
X317971Y1376034D01*
X323908Y1390367D01*
X332527Y1403266D01*
X338012Y1408751D01*
X338012Y1408751D01*
X625274Y1696013D01*
X630759Y1701498D01*
X643658Y1710117D01*
X657991Y1716053D01*
X673206Y1719080D01*
X680963D01*
X680963Y1719080D01*
X712500D01*
X716379D01*
X723988Y1717567D01*
X731156Y1714598D01*
X737606Y1710287D01*
X743092Y1704802D01*
X747403Y1698351D01*
X750371Y1691183D01*
X751885Y1683574D01*
Y1679695D01*
Y1675816D01*
X750371Y1668207D01*
X747403Y1661039D01*
X743092Y1654589D01*
X737606Y1649103D01*
X731156Y1644792D01*
X723988Y1641823D01*
X716379Y1640310D01*
X712500D01*
D01*
X680969D01*
X393715Y1353056D01*
Y635500D01*
Y630315D01*
X391031Y620298D01*
X385846Y611317D01*
X378513Y603984D01*
X369532Y598799D01*
X359515Y596115D01*
X349144D01*
X339128Y598799D01*
X330147Y603984D01*
X322814Y611317D01*
X317629Y620298D01*
X314945Y630315D01*
Y635500D01*
D01*
D02*
G37*
G36*
X869500Y1640310D02*
X1006655D01*
X1010534D01*
X1018143Y1641823D01*
X1025311Y1644792D01*
X1031762Y1649103D01*
X1034505Y1651845D01*
X1034505Y1651846D01*
X1266575Y1883917D01*
X1269318Y1886659D01*
X1273629Y1893110D01*
X1276597Y1900278D01*
X1278111Y1907887D01*
X1278111Y1911766D01*
X1278111Y1911766D01*
Y2002452D01*
X1301103Y2025444D01*
X1849112D01*
X1852991D01*
X1860600Y2026957D01*
X1867768Y2029926D01*
X1874218Y2034236D01*
X1876961Y2036979D01*
X1876961Y2036979D01*
X1889741Y2049759D01*
X1964532D01*
X2067870Y1946421D01*
Y1881472D01*
X1989415Y1803016D01*
X1986672Y1800273D01*
X1982362Y1793822D01*
X1979393Y1786655D01*
X1977879Y1779046D01*
X1977879Y1771287D01*
X1979393Y1763678D01*
X1982362Y1756511D01*
X1986672Y1750060D01*
X1989415Y1747317D01*
D01*
X2240822Y1495910D01*
X2243565Y1493167D01*
X2250016Y1488857D01*
X2257184Y1485888D01*
X2264793Y1484374D01*
X2272551Y1484374D01*
X2280160Y1485888D01*
X2287328Y1488857D01*
X2293778Y1493167D01*
X2296521Y1495910D01*
X2296521D01*
X2374977Y1574365D01*
X2439926D01*
X2543264Y1471027D01*
Y1396236D01*
X2501022Y1353993D01*
X2497356Y1350327D01*
X2492171Y1341346D01*
X2489486Y1331329D01*
X2489486Y1320959D01*
X2492171Y1310942D01*
X2497356Y1301961D01*
X2504689Y1294628D01*
X2513669Y1289443D01*
X2523686Y1286759D01*
X2534057Y1286759D01*
X2544074Y1289443D01*
X2553055Y1294628D01*
X2556721Y1298294D01*
X2556721D01*
X2598967Y1340541D01*
X2604452Y1346025D01*
X2613071Y1358925D01*
X2619008Y1373257D01*
X2622034Y1388473D01*
Y1396230D01*
X2622034Y1396230D01*
X2622034Y1471033D01*
Y1478789D01*
X2619008Y1494005D01*
X2613071Y1508338D01*
X2604452Y1521237D01*
X2598967Y1526722D01*
X2598967Y1526722D01*
X2495621Y1630068D01*
X2490136Y1635553D01*
X2477237Y1644172D01*
X2462904Y1650109D01*
X2447688Y1653135D01*
X2439932D01*
X2439932Y1653135D01*
X2374971Y1653135D01*
X2367214Y1653135D01*
X2351999Y1650109D01*
X2337666Y1644172D01*
X2324767Y1635553D01*
X2319282Y1630068D01*
Y1630068D01*
X2268672Y1579458D01*
X2072963Y1775167D01*
X2123573Y1825777D01*
X2129058Y1831262D01*
X2137677Y1844161D01*
X2143614Y1858493D01*
X2146640Y1873709D01*
Y1881466D01*
X2146641Y1881466D01*
X2146641Y1946426D01*
Y1954183D01*
X2143614Y1969399D01*
X2137677Y1983731D01*
X2129058Y1996630D01*
X2123573Y2002115D01*
X2123573Y2002115D01*
X2020227Y2105462D01*
X2014742Y2110947D01*
X2001843Y2119566D01*
X1987510Y2125502D01*
X1972295Y2128529D01*
X1964538D01*
X1964538Y2128529D01*
X1889735Y2128529D01*
X1881978Y2128529D01*
X1866763Y2125502D01*
X1852430Y2119566D01*
X1839531Y2110947D01*
X1834046Y2105462D01*
Y2105462D01*
X1832798Y2104214D01*
X1301097Y2104214D01*
X1293340Y2104214D01*
X1278125Y2101187D01*
X1263792Y2095251D01*
X1250893Y2086632D01*
X1245408Y2081147D01*
Y2081147D01*
X1222408Y2058147D01*
X1216923Y2052662D01*
X1208304Y2039763D01*
X1202367Y2025430D01*
X1199341Y2010215D01*
Y2002458D01*
Y2002458D01*
Y1928080D01*
X990341Y1719080D01*
X869500D01*
X864315D01*
X854298Y1716396D01*
X845317Y1711211D01*
X837984Y1703878D01*
X832799Y1694897D01*
X830115Y1684880D01*
Y1674510D01*
X832799Y1664493D01*
X837984Y1655512D01*
X845317Y1648179D01*
X854298Y1642994D01*
X864315Y1640310D01*
X869500D01*
D01*
D02*
G37*
G36*
X1197821Y343500D02*
Y471457D01*
Y476271D01*
X1199692Y485715D01*
X1203364Y494616D01*
X1208696Y502633D01*
X1215485Y509461D01*
X1223471Y514839D01*
X1232350Y518561D01*
X1241784Y520487D01*
X1246598Y520515D01*
X1246598Y520515D01*
X1246880Y520516D01*
X1980995D01*
X1981003Y520540D01*
X2134779Y981870D01*
X2135502Y984038D01*
X2137439Y988178D01*
X2139842Y992066D01*
X2142678Y995649D01*
X2144294Y997265D01*
X2144294Y997265D01*
X2390006Y1242978D01*
X2394137Y1247109D01*
X2404442Y1252617D01*
X2415902Y1254896D01*
X2427530Y1253751D01*
X2438325Y1249280D01*
X2447358Y1241867D01*
X2453849Y1232152D01*
X2457241Y1220970D01*
X2457241Y1215128D01*
X2457241Y1211249D01*
X2455727Y1203640D01*
X2452758Y1196472D01*
X2448448Y1190022D01*
X2445705Y1187279D01*
X2445705D01*
X2206567Y948141D01*
X2055731Y495630D01*
X2053784Y489783D01*
X2048120Y478836D01*
X2040822Y468903D01*
X2032067Y460226D01*
X2022070Y453017D01*
X2011072Y447451D01*
X1999343Y443663D01*
X1987168Y441746D01*
X1981005Y441746D01*
X1981005D01*
X1276591D01*
Y343500D01*
Y338315D01*
X1273907Y328298D01*
X1268722Y319317D01*
X1261389Y311984D01*
X1252408Y306799D01*
X1242391Y304115D01*
X1232020D01*
X1222004Y306799D01*
X1213023Y311984D01*
X1205690Y319317D01*
X1200505Y328298D01*
X1197821Y338315D01*
Y343500D01*
D01*
D02*
G37*
D166*
X1882868Y1550266D02*
D03*
X2043772Y1389363D02*
D03*
%TF.MD5,000dccc479399904d7248badc6a8d771*%
M02*
