%TF.GenerationSoftware,Altium Limited,Altium Designer,23.11.1 (41)*%
G04 Layer_Color=128*
%FSLAX26Y26*%
%MOIN*%
%TF.SameCoordinates,A059C263-CE59-4A5C-BE38-7B1504CAFB6E*%
%TF.FilePolarity,Positive*%
%TF.FileFunction,Paste,Bot*%
%TF.Part,CustomerPanel*%
G01*
G75*
%TA.AperFunction,SMDPad,CuDef*%
G04:AMPARAMS|DCode=10|XSize=39.37mil|YSize=35.433mil|CornerRadius=8.858mil|HoleSize=0mil|Usage=FLASHONLY|Rotation=270.000|XOffset=0mil|YOffset=0mil|HoleType=Round|Shape=RoundedRectangle|*
%AMROUNDEDRECTD10*
21,1,0.039370,0.017717,0,0,270.0*
21,1,0.021654,0.035433,0,0,270.0*
1,1,0.017716,-0.008858,-0.010827*
1,1,0.017716,-0.008858,0.010827*
1,1,0.017716,0.008858,0.010827*
1,1,0.017716,0.008858,-0.010827*
%
%ADD10ROUNDEDRECTD10*%
G04:AMPARAMS|DCode=11|XSize=39.37mil|YSize=35.433mil|CornerRadius=8.858mil|HoleSize=0mil|Usage=FLASHONLY|Rotation=0.000|XOffset=0mil|YOffset=0mil|HoleType=Round|Shape=RoundedRectangle|*
%AMROUNDEDRECTD11*
21,1,0.039370,0.017717,0,0,0.0*
21,1,0.021654,0.035433,0,0,0.0*
1,1,0.017716,0.010827,-0.008858*
1,1,0.017716,-0.010827,-0.008858*
1,1,0.017716,-0.010827,0.008858*
1,1,0.017716,0.010827,0.008858*
%
%ADD11ROUNDEDRECTD11*%
G04:AMPARAMS|DCode=12|XSize=70.866mil|YSize=51.181mil|CornerRadius=12.795mil|HoleSize=0mil|Usage=FLASHONLY|Rotation=270.000|XOffset=0mil|YOffset=0mil|HoleType=Round|Shape=RoundedRectangle|*
%AMROUNDEDRECTD12*
21,1,0.070866,0.025591,0,0,270.0*
21,1,0.045276,0.051181,0,0,270.0*
1,1,0.025590,-0.012795,-0.022638*
1,1,0.025590,-0.012795,0.022638*
1,1,0.025590,0.012795,0.022638*
1,1,0.025590,0.012795,-0.022638*
%
%ADD12ROUNDEDRECTD12*%
G04:AMPARAMS|DCode=29|XSize=39.37mil|YSize=35.433mil|CornerRadius=8.858mil|HoleSize=0mil|Usage=FLASHONLY|Rotation=135.000|XOffset=0mil|YOffset=0mil|HoleType=Round|Shape=RoundedRectangle|*
%AMROUNDEDRECTD29*
21,1,0.039370,0.017717,0,0,135.0*
21,1,0.021654,0.035433,0,0,135.0*
1,1,0.017716,-0.001392,0.013920*
1,1,0.017716,0.013920,-0.001392*
1,1,0.017716,0.001392,-0.013920*
1,1,0.017716,-0.013920,0.001392*
%
%ADD29ROUNDEDRECTD29*%
%TA.AperFunction,FiducialPad,Global*%
%ADD30C,0.059055*%
%TA.AperFunction,SMDPad,CuDef*%
G04:AMPARAMS|DCode=57|XSize=71.653mil|YSize=50mil|CornerRadius=12.5mil|HoleSize=0mil|Usage=FLASHONLY|Rotation=135.000|XOffset=0mil|YOffset=0mil|HoleType=Round|Shape=RoundedRectangle|*
%AMROUNDEDRECTD57*
21,1,0.071653,0.025000,0,0,135.0*
21,1,0.046654,0.050000,0,0,135.0*
1,1,0.025000,-0.007656,0.025333*
1,1,0.025000,0.025333,-0.007656*
1,1,0.025000,0.007656,-0.025333*
1,1,0.025000,-0.025333,0.007656*
%
%ADD57ROUNDEDRECTD57*%
G04:AMPARAMS|DCode=58|XSize=13.78mil|YSize=64.331mil|CornerRadius=3.445mil|HoleSize=0mil|Usage=FLASHONLY|Rotation=90.000|XOffset=0mil|YOffset=0mil|HoleType=Round|Shape=RoundedRectangle|*
%AMROUNDEDRECTD58*
21,1,0.013780,0.057441,0,0,90.0*
21,1,0.006890,0.064331,0,0,90.0*
1,1,0.006890,0.028721,0.003445*
1,1,0.006890,0.028721,-0.003445*
1,1,0.006890,-0.028721,-0.003445*
1,1,0.006890,-0.028721,0.003445*
%
%ADD58ROUNDEDRECTD58*%
G04:AMPARAMS|DCode=59|XSize=90.551mil|YSize=59.055mil|CornerRadius=14.764mil|HoleSize=0mil|Usage=FLASHONLY|Rotation=180.000|XOffset=0mil|YOffset=0mil|HoleType=Round|Shape=RoundedRectangle|*
%AMROUNDEDRECTD59*
21,1,0.090551,0.029527,0,0,180.0*
21,1,0.061024,0.059055,0,0,180.0*
1,1,0.029528,-0.030512,0.014764*
1,1,0.029528,0.030512,0.014764*
1,1,0.029528,0.030512,-0.014764*
1,1,0.029528,-0.030512,-0.014764*
%
%ADD59ROUNDEDRECTD59*%
G04:AMPARAMS|DCode=60|XSize=11.811mil|YSize=45.276mil|CornerRadius=2.953mil|HoleSize=0mil|Usage=FLASHONLY|Rotation=180.000|XOffset=0mil|YOffset=0mil|HoleType=Round|Shape=RoundedRectangle|*
%AMROUNDEDRECTD60*
21,1,0.011811,0.039370,0,0,180.0*
21,1,0.005905,0.045276,0,0,180.0*
1,1,0.005906,-0.002953,0.019685*
1,1,0.005906,0.002953,0.019685*
1,1,0.005906,0.002953,-0.019685*
1,1,0.005906,-0.002953,-0.019685*
%
%ADD60ROUNDEDRECTD60*%
G04:AMPARAMS|DCode=61|XSize=13.78mil|YSize=64.331mil|CornerRadius=3.445mil|HoleSize=0mil|Usage=FLASHONLY|Rotation=180.000|XOffset=0mil|YOffset=0mil|HoleType=Round|Shape=RoundedRectangle|*
%AMROUNDEDRECTD61*
21,1,0.013780,0.057441,0,0,180.0*
21,1,0.006890,0.064331,0,0,180.0*
1,1,0.006890,-0.003445,0.028721*
1,1,0.006890,0.003445,0.028721*
1,1,0.006890,0.003445,-0.028721*
1,1,0.006890,-0.003445,-0.028721*
%
%ADD61ROUNDEDRECTD61*%
G04:AMPARAMS|DCode=62|XSize=90.551mil|YSize=59.055mil|CornerRadius=14.764mil|HoleSize=0mil|Usage=FLASHONLY|Rotation=270.000|XOffset=0mil|YOffset=0mil|HoleType=Round|Shape=RoundedRectangle|*
%AMROUNDEDRECTD62*
21,1,0.090551,0.029527,0,0,270.0*
21,1,0.061024,0.059055,0,0,270.0*
1,1,0.029528,-0.014764,-0.030512*
1,1,0.029528,-0.014764,0.030512*
1,1,0.029528,0.014764,0.030512*
1,1,0.029528,0.014764,-0.030512*
%
%ADD62ROUNDEDRECTD62*%
G04:AMPARAMS|DCode=63|XSize=11.811mil|YSize=45.276mil|CornerRadius=2.953mil|HoleSize=0mil|Usage=FLASHONLY|Rotation=270.000|XOffset=0mil|YOffset=0mil|HoleType=Round|Shape=RoundedRectangle|*
%AMROUNDEDRECTD63*
21,1,0.011811,0.039370,0,0,270.0*
21,1,0.005905,0.045276,0,0,270.0*
1,1,0.005906,-0.019685,-0.002953*
1,1,0.005906,-0.019685,0.002953*
1,1,0.005906,0.019685,0.002953*
1,1,0.005906,0.019685,-0.002953*
%
%ADD63ROUNDEDRECTD63*%
%ADD64R,0.027559X0.051181*%
G04:AMPARAMS|DCode=65|XSize=27.559mil|YSize=51.181mil|CornerRadius=6.89mil|HoleSize=0mil|Usage=FLASHONLY|Rotation=180.000|XOffset=0mil|YOffset=0mil|HoleType=Round|Shape=RoundedRectangle|*
%AMROUNDEDRECTD65*
21,1,0.027559,0.037401,0,0,180.0*
21,1,0.013780,0.051181,0,0,180.0*
1,1,0.013780,-0.006890,0.018701*
1,1,0.013780,0.006890,0.018701*
1,1,0.013780,0.006890,-0.018701*
1,1,0.013780,-0.006890,-0.018701*
%
%ADD65ROUNDEDRECTD65*%
%ADD66R,0.062992X0.084646*%
G04:AMPARAMS|DCode=67|XSize=62.992mil|YSize=84.646mil|CornerRadius=15.748mil|HoleSize=0mil|Usage=FLASHONLY|Rotation=0.000|XOffset=0mil|YOffset=0mil|HoleType=Round|Shape=RoundedRectangle|*
%AMROUNDEDRECTD67*
21,1,0.062992,0.053150,0,0,0.0*
21,1,0.031496,0.084646,0,0,0.0*
1,1,0.031496,0.015748,-0.026575*
1,1,0.031496,-0.015748,-0.026575*
1,1,0.031496,-0.015748,0.026575*
1,1,0.031496,0.015748,0.026575*
%
%ADD67ROUNDEDRECTD67*%
G04:AMPARAMS|DCode=68|XSize=151.575mil|YSize=84.646mil|CornerRadius=21.161mil|HoleSize=0mil|Usage=FLASHONLY|Rotation=0.000|XOffset=0mil|YOffset=0mil|HoleType=Round|Shape=RoundedRectangle|*
%AMROUNDEDRECTD68*
21,1,0.151575,0.042323,0,0,0.0*
21,1,0.109252,0.084646,0,0,0.0*
1,1,0.042323,0.054626,-0.021162*
1,1,0.042323,-0.054626,-0.021162*
1,1,0.042323,-0.054626,0.021162*
1,1,0.042323,0.054626,0.021162*
%
%ADD68ROUNDEDRECTD68*%
G04:AMPARAMS|DCode=69|XSize=55.118mil|YSize=47.244mil|CornerRadius=0mil|HoleSize=0mil|Usage=FLASHONLY|Rotation=225.000|XOffset=0mil|YOffset=0mil|HoleType=Round|Shape=Rectangle|*
%AMROTATEDRECTD69*
4,1,4,0.002784,0.036191,0.036191,0.002784,-0.002784,-0.036191,-0.036191,-0.002784,0.002784,0.036191,0.0*
%
%ADD69ROTATEDRECTD69*%

G04:AMPARAMS|DCode=70|XSize=90.551mil|YSize=125.984mil|CornerRadius=11.319mil|HoleSize=0mil|Usage=FLASHONLY|Rotation=180.000|XOffset=0mil|YOffset=0mil|HoleType=Round|Shape=RoundedRectangle|*
%AMROUNDEDRECTD70*
21,1,0.090551,0.103347,0,0,180.0*
21,1,0.067913,0.125984,0,0,180.0*
1,1,0.022638,-0.033957,0.051673*
1,1,0.022638,0.033957,0.051673*
1,1,0.022638,0.033957,-0.051673*
1,1,0.022638,-0.033957,-0.051673*
%
%ADD70ROUNDEDRECTD70*%
G04:AMPARAMS|DCode=71|XSize=23.622mil|YSize=57.087mil|CornerRadius=5.906mil|HoleSize=0mil|Usage=FLASHONLY|Rotation=90.000|XOffset=0mil|YOffset=0mil|HoleType=Round|Shape=RoundedRectangle|*
%AMROUNDEDRECTD71*
21,1,0.023622,0.045276,0,0,90.0*
21,1,0.011811,0.057087,0,0,90.0*
1,1,0.011811,0.022638,0.005906*
1,1,0.011811,0.022638,-0.005906*
1,1,0.011811,-0.022638,-0.005906*
1,1,0.011811,-0.022638,0.005906*
%
%ADD71ROUNDEDRECTD71*%
%ADD72R,0.057087X0.023622*%
G04:AMPARAMS|DCode=73|XSize=11.811mil|YSize=57.087mil|CornerRadius=0mil|HoleSize=0mil|Usage=FLASHONLY|Rotation=315.000|XOffset=0mil|YOffset=0mil|HoleType=Round|Shape=Rectangle|*
%AMROTATEDRECTD73*
4,1,4,-0.024359,-0.016007,0.016007,0.024359,0.024359,0.016007,-0.016007,-0.024359,-0.024359,-0.016007,0.0*
%
%ADD73ROTATEDRECTD73*%

G04:AMPARAMS|DCode=74|XSize=23.622mil|YSize=57.087mil|CornerRadius=0mil|HoleSize=0mil|Usage=FLASHONLY|Rotation=315.000|XOffset=0mil|YOffset=0mil|HoleType=Round|Shape=Rectangle|*
%AMROTATEDRECTD74*
4,1,4,-0.028535,-0.011832,0.011832,0.028535,0.028535,0.011832,-0.011832,-0.028535,-0.028535,-0.011832,0.0*
%
%ADD74ROTATEDRECTD74*%

%ADD75R,0.078740X0.157480*%
G04:AMPARAMS|DCode=76|XSize=35.433mil|YSize=31.496mil|CornerRadius=0mil|HoleSize=0mil|Usage=FLASHONLY|Rotation=135.000|XOffset=0mil|YOffset=0mil|HoleType=Round|Shape=Rectangle|*
%AMROTATEDRECTD76*
4,1,4,0.023663,-0.001392,0.001392,-0.023663,-0.023663,0.001392,-0.001392,0.023663,0.023663,-0.001392,0.0*
%
%ADD76ROTATEDRECTD76*%

G04:AMPARAMS|DCode=77|XSize=39.37mil|YSize=35.433mil|CornerRadius=8.858mil|HoleSize=0mil|Usage=FLASHONLY|Rotation=225.000|XOffset=0mil|YOffset=0mil|HoleType=Round|Shape=RoundedRectangle|*
%AMROUNDEDRECTD77*
21,1,0.039370,0.017717,0,0,225.0*
21,1,0.021654,0.035433,0,0,225.0*
1,1,0.017716,-0.013920,-0.001392*
1,1,0.017716,0.001392,0.013920*
1,1,0.017716,0.013920,0.001392*
1,1,0.017716,-0.001392,-0.013920*
%
%ADD77ROUNDEDRECTD77*%
%ADD78R,0.051181X0.027559*%
G04:AMPARAMS|DCode=79|XSize=27.559mil|YSize=51.181mil|CornerRadius=6.89mil|HoleSize=0mil|Usage=FLASHONLY|Rotation=270.000|XOffset=0mil|YOffset=0mil|HoleType=Round|Shape=RoundedRectangle|*
%AMROUNDEDRECTD79*
21,1,0.027559,0.037401,0,0,270.0*
21,1,0.013780,0.051181,0,0,270.0*
1,1,0.013780,-0.018701,-0.006890*
1,1,0.013780,-0.018701,0.006890*
1,1,0.013780,0.018701,0.006890*
1,1,0.013780,0.018701,-0.006890*
%
%ADD79ROUNDEDRECTD79*%
%ADD80R,0.157480X0.078740*%
D10*
X483205Y1362000D02*
D03*
X546197D02*
D03*
X845388Y1588458D02*
D03*
X782396D02*
D03*
X1614173Y1015748D02*
D03*
X1677165D02*
D03*
X1274089Y1522214D02*
D03*
X1211097D02*
D03*
X1211097Y1463159D02*
D03*
X1274089D02*
D03*
X1042396Y1526458D02*
D03*
X1105389D02*
D03*
X2106270Y1299773D02*
D03*
X2043278D02*
D03*
X1988160Y1236781D02*
D03*
X1925168D02*
D03*
X1791310Y957253D02*
D03*
X1854302D02*
D03*
X1972412D02*
D03*
X1909420D02*
D03*
X694853Y587174D02*
D03*
X631861D02*
D03*
X590205Y810000D02*
D03*
X653197D02*
D03*
X591389Y882795D02*
D03*
X654381D02*
D03*
D11*
X1303150Y665354D02*
D03*
Y728346D02*
D03*
X811528Y870926D02*
D03*
Y807933D02*
D03*
X1029892Y1396954D02*
D03*
Y1333962D02*
D03*
X2045247Y1242686D02*
D03*
Y1179694D02*
D03*
X2106270Y1240718D02*
D03*
Y1177726D02*
D03*
X909420Y53710D02*
D03*
Y116702D02*
D03*
X633829Y500560D02*
D03*
Y437568D02*
D03*
X572701Y963504D02*
D03*
Y1026496D02*
D03*
X430701Y1003504D02*
D03*
Y1066496D02*
D03*
D12*
X1240129Y1669852D02*
D03*
X1129892D02*
D03*
D29*
X549430Y1261729D02*
D03*
X593972Y1306271D02*
D03*
X896991Y1253880D02*
D03*
X941534Y1298422D02*
D03*
X753163Y1490729D02*
D03*
X708621Y1446187D02*
D03*
X760460Y1045893D02*
D03*
X715918Y1001351D02*
D03*
D30*
X2324948Y960332D02*
D03*
X1349727Y227159D02*
D03*
X784144Y1746072D02*
D03*
D57*
X600452Y1579751D02*
D03*
X518606Y1497905D02*
D03*
X690529Y1536986D02*
D03*
X608683Y1455140D02*
D03*
D58*
X622480Y735252D02*
D03*
X1199488Y676575D02*
D03*
D59*
X635591Y684409D02*
D03*
X1212598Y625732D02*
D03*
D60*
X674921Y649819D02*
D03*
X648701D02*
D03*
X622480Y649819D02*
D03*
X596260D02*
D03*
X674921Y751000D02*
D03*
X648701D02*
D03*
X622480D02*
D03*
X596260D02*
D03*
X1251929Y591142D02*
D03*
X1225709D02*
D03*
X1199488D02*
D03*
X1173268D02*
D03*
X1251929Y692323D02*
D03*
X1225709Y692323D02*
D03*
X1199488D02*
D03*
X1173268Y692323D02*
D03*
D61*
X444858Y874890D02*
D03*
D62*
X495701Y888000D02*
D03*
D63*
X530291Y927331D02*
D03*
Y901110D02*
D03*
Y874890D02*
D03*
Y848669D02*
D03*
X429110Y927331D02*
D03*
X429110Y901110D02*
D03*
Y874890D02*
D03*
X429110Y848669D02*
D03*
D64*
X685010Y329300D02*
D03*
D65*
X722412Y329300D02*
D03*
X759814Y329300D02*
D03*
Y234812D02*
D03*
X722412Y234812D02*
D03*
X685010Y234812D02*
D03*
D66*
X1842520Y621063D02*
D03*
D67*
X1751968Y621063D02*
D03*
X1661417Y621063D02*
D03*
D68*
X1751968Y851378D02*
D03*
D69*
X789497Y1121442D02*
D03*
X853136Y1057802D02*
D03*
X867279Y1199224D02*
D03*
X930918Y1135584D02*
D03*
D70*
X1864144Y1098986D02*
D03*
D71*
X1752924Y1020245D02*
D03*
Y1059616D02*
D03*
Y1098986D02*
D03*
Y1138356D02*
D03*
Y1177726D02*
D03*
X1975365Y1020245D02*
D03*
Y1059616D02*
D03*
Y1098986D02*
D03*
Y1138356D02*
D03*
D72*
Y1177726D02*
D03*
D73*
X1833161Y1410098D02*
D03*
X1791403Y1451856D02*
D03*
X1819242Y1424017D02*
D03*
X1805322Y1437936D02*
D03*
X1777483Y1465775D02*
D03*
X1763564Y1479695D02*
D03*
X1847081Y1396178D02*
D03*
X1861000Y1382259D02*
D03*
D74*
X1744077Y1499182D02*
D03*
X1880487Y1362772D02*
D03*
X1902758Y1340500D02*
D03*
X1721806Y1521453D02*
D03*
D75*
X787893Y90458D02*
D03*
X657892D02*
D03*
D76*
X962405Y1232971D02*
D03*
X1001380Y1271945D02*
D03*
D77*
X744163Y1203187D02*
D03*
X699621Y1247729D02*
D03*
X798566Y1455902D02*
D03*
X843108Y1411360D02*
D03*
X749354Y1406689D02*
D03*
X793896Y1362147D02*
D03*
X719043Y1090064D02*
D03*
X674501Y1134607D02*
D03*
X617493Y1095106D02*
D03*
X662035Y1050563D02*
D03*
D78*
X458633Y480875D02*
D03*
D79*
Y518277D02*
D03*
Y555678D02*
D03*
X553121D02*
D03*
Y518277D02*
D03*
Y480875D02*
D03*
D80*
X525892Y244458D02*
D03*
Y374458D02*
D03*
%TF.MD5,18116c5476f6c09b1f1e240aaa1a7d4d*%
M02*
