%TF.GenerationSoftware,Altium Limited,Altium Designer,23.11.1 (41)*%
G04 Layer_Color=128*
%FSLAX26Y26*%
%MOIN*%
%TF.SameCoordinates,4DC999CF-56CA-410E-BBFC-AE2E78030286*%
%TF.FilePolarity,Positive*%
%TF.FileFunction,Paste,Bot*%
%TF.Part,CustomerPanel*%
G01*
G75*
%TA.AperFunction,SMDPad,CuDef*%
G04:AMPARAMS|DCode=14|XSize=39.37mil|YSize=35.433mil|CornerRadius=8.858mil|HoleSize=0mil|Usage=FLASHONLY|Rotation=90.000|XOffset=0mil|YOffset=0mil|HoleType=Round|Shape=RoundedRectangle|*
%AMROUNDEDRECTD14*
21,1,0.039370,0.017717,0,0,90.0*
21,1,0.021654,0.035433,0,0,90.0*
1,1,0.017716,0.008858,0.010827*
1,1,0.017716,0.008858,-0.010827*
1,1,0.017716,-0.008858,-0.010827*
1,1,0.017716,-0.008858,0.010827*
%
%ADD14ROUNDEDRECTD14*%
%ADD25R,0.031496X0.035433*%
%TA.AperFunction,FiducialPad,Global*%
%ADD26C,0.059055*%
%TA.AperFunction,SMDPad,CuDef*%
G04:AMPARAMS|DCode=27|XSize=70.866mil|YSize=51.181mil|CornerRadius=12.795mil|HoleSize=0mil|Usage=FLASHONLY|Rotation=270.000|XOffset=0mil|YOffset=0mil|HoleType=Round|Shape=RoundedRectangle|*
%AMROUNDEDRECTD27*
21,1,0.070866,0.025591,0,0,270.0*
21,1,0.045276,0.051181,0,0,270.0*
1,1,0.025590,-0.012795,-0.022638*
1,1,0.025590,-0.012795,0.022638*
1,1,0.025590,0.012795,0.022638*
1,1,0.025590,0.012795,-0.022638*
%
%ADD27ROUNDEDRECTD27*%
G04:AMPARAMS|DCode=28|XSize=39.37mil|YSize=35.433mil|CornerRadius=8.858mil|HoleSize=0mil|Usage=FLASHONLY|Rotation=180.000|XOffset=0mil|YOffset=0mil|HoleType=Round|Shape=RoundedRectangle|*
%AMROUNDEDRECTD28*
21,1,0.039370,0.017717,0,0,180.0*
21,1,0.021654,0.035433,0,0,180.0*
1,1,0.017716,-0.010827,0.008858*
1,1,0.017716,0.010827,0.008858*
1,1,0.017716,0.010827,-0.008858*
1,1,0.017716,-0.010827,-0.008858*
%
%ADD28ROUNDEDRECTD28*%
G04:AMPARAMS|DCode=29|XSize=70.866mil|YSize=51.181mil|CornerRadius=12.795mil|HoleSize=0mil|Usage=FLASHONLY|Rotation=180.000|XOffset=0mil|YOffset=0mil|HoleType=Round|Shape=RoundedRectangle|*
%AMROUNDEDRECTD29*
21,1,0.070866,0.025591,0,0,180.0*
21,1,0.045276,0.051181,0,0,180.0*
1,1,0.025590,-0.022638,0.012795*
1,1,0.025590,0.022638,0.012795*
1,1,0.025590,0.022638,-0.012795*
1,1,0.025590,-0.022638,-0.012795*
%
%ADD29ROUNDEDRECTD29*%
G04:AMPARAMS|DCode=36|XSize=39.37mil|YSize=35.433mil|CornerRadius=8.858mil|HoleSize=0mil|Usage=FLASHONLY|Rotation=225.000|XOffset=0mil|YOffset=0mil|HoleType=Round|Shape=RoundedRectangle|*
%AMROUNDEDRECTD36*
21,1,0.039370,0.017717,0,0,225.0*
21,1,0.021654,0.035433,0,0,225.0*
1,1,0.017716,-0.013920,-0.001392*
1,1,0.017716,0.001392,0.013920*
1,1,0.017716,0.013920,0.001392*
1,1,0.017716,-0.001392,-0.013920*
%
%ADD36ROUNDEDRECTD36*%
G04:AMPARAMS|DCode=38|XSize=39.37mil|YSize=35.433mil|CornerRadius=8.858mil|HoleSize=0mil|Usage=FLASHONLY|Rotation=162.000|XOffset=0mil|YOffset=0mil|HoleType=Round|Shape=RoundedRectangle|*
%AMROUNDEDRECTD38*
21,1,0.039370,0.017717,0,0,162.0*
21,1,0.021654,0.035433,0,0,162.0*
1,1,0.017716,-0.007560,0.011771*
1,1,0.017716,0.013034,0.005079*
1,1,0.017716,0.007560,-0.011771*
1,1,0.017716,-0.013034,-0.005079*
%
%ADD38ROUNDEDRECTD38*%
%ADD64R,0.084646X0.062992*%
G04:AMPARAMS|DCode=65|XSize=62.992mil|YSize=84.646mil|CornerRadius=15.748mil|HoleSize=0mil|Usage=FLASHONLY|Rotation=90.000|XOffset=0mil|YOffset=0mil|HoleType=Round|Shape=RoundedRectangle|*
%AMROUNDEDRECTD65*
21,1,0.062992,0.053150,0,0,90.0*
21,1,0.031496,0.084646,0,0,90.0*
1,1,0.031496,0.026575,0.015748*
1,1,0.031496,0.026575,-0.015748*
1,1,0.031496,-0.026575,-0.015748*
1,1,0.031496,-0.026575,0.015748*
%
%ADD65ROUNDEDRECTD65*%
G04:AMPARAMS|DCode=66|XSize=151.575mil|YSize=84.646mil|CornerRadius=21.161mil|HoleSize=0mil|Usage=FLASHONLY|Rotation=90.000|XOffset=0mil|YOffset=0mil|HoleType=Round|Shape=RoundedRectangle|*
%AMROUNDEDRECTD66*
21,1,0.151575,0.042323,0,0,90.0*
21,1,0.109252,0.084646,0,0,90.0*
1,1,0.042323,0.021162,0.054626*
1,1,0.042323,0.021162,-0.054626*
1,1,0.042323,-0.021162,-0.054626*
1,1,0.042323,-0.021162,0.054626*
%
%ADD66ROUNDEDRECTD66*%
G04:AMPARAMS|DCode=67|XSize=11.811mil|YSize=45.276mil|CornerRadius=2.953mil|HoleSize=0mil|Usage=FLASHONLY|Rotation=170.000|XOffset=0mil|YOffset=0mil|HoleType=Round|Shape=RoundedRectangle|*
%AMROUNDEDRECTD67*
21,1,0.011811,0.039370,0,0,170.0*
21,1,0.005905,0.045276,0,0,170.0*
1,1,0.005906,0.000510,0.019899*
1,1,0.005906,0.006326,0.018873*
1,1,0.005906,-0.000510,-0.019899*
1,1,0.005906,-0.006326,-0.018873*
%
%ADD67ROUNDEDRECTD67*%
G04:AMPARAMS|DCode=68|XSize=90.551mil|YSize=59.055mil|CornerRadius=14.764mil|HoleSize=0mil|Usage=FLASHONLY|Rotation=170.000|XOffset=0mil|YOffset=0mil|HoleType=Round|Shape=RoundedRectangle|*
%AMROUNDEDRECTD68*
21,1,0.090551,0.029527,0,0,170.0*
21,1,0.061024,0.059055,0,0,170.0*
1,1,0.029528,-0.027485,0.019838*
1,1,0.029528,0.032612,0.009241*
1,1,0.029528,0.027485,-0.019838*
1,1,0.029528,-0.032612,-0.009241*
%
%ADD68ROUNDEDRECTD68*%
G04:AMPARAMS|DCode=69|XSize=13.78mil|YSize=64.331mil|CornerRadius=3.445mil|HoleSize=0mil|Usage=FLASHONLY|Rotation=80.000|XOffset=0mil|YOffset=0mil|HoleType=Round|Shape=RoundedRectangle|*
%AMROUNDEDRECTD69*
21,1,0.013780,0.057441,0,0,80.0*
21,1,0.006890,0.064331,0,0,80.0*
1,1,0.006890,0.028883,-0.001595*
1,1,0.006890,0.027686,-0.008380*
1,1,0.006890,-0.028883,0.001595*
1,1,0.006890,-0.027686,0.008380*
%
%ADD69ROUNDEDRECTD69*%
G04:AMPARAMS|DCode=70|XSize=47.244mil|YSize=31.496mil|CornerRadius=7.874mil|HoleSize=0mil|Usage=FLASHONLY|Rotation=0.000|XOffset=0mil|YOffset=0mil|HoleType=Round|Shape=RoundedRectangle|*
%AMROUNDEDRECTD70*
21,1,0.047244,0.015748,0,0,0.0*
21,1,0.031496,0.031496,0,0,0.0*
1,1,0.015748,0.015748,-0.007874*
1,1,0.015748,-0.015748,-0.007874*
1,1,0.015748,-0.015748,0.007874*
1,1,0.015748,0.015748,0.007874*
%
%ADD70ROUNDEDRECTD70*%
%ADD71R,0.047244X0.031496*%
G04:AMPARAMS|DCode=72|XSize=90.551mil|YSize=125.984mil|CornerRadius=11.319mil|HoleSize=0mil|Usage=FLASHONLY|Rotation=45.000|XOffset=0mil|YOffset=0mil|HoleType=Round|Shape=RoundedRectangle|*
%AMROUNDEDRECTD72*
21,1,0.090551,0.103347,0,0,45.0*
21,1,0.067913,0.125984,0,0,45.0*
1,1,0.022638,0.060550,-0.012527*
1,1,0.022638,0.012527,-0.060550*
1,1,0.022638,-0.060550,0.012527*
1,1,0.022638,-0.012527,0.060550*
%
%ADD72ROUNDEDRECTD72*%
G04:AMPARAMS|DCode=73|XSize=23.622mil|YSize=57.087mil|CornerRadius=5.906mil|HoleSize=0mil|Usage=FLASHONLY|Rotation=315.000|XOffset=0mil|YOffset=0mil|HoleType=Round|Shape=RoundedRectangle|*
%AMROUNDEDRECTD73*
21,1,0.023622,0.045276,0,0,315.0*
21,1,0.011811,0.057087,0,0,315.0*
1,1,0.011811,-0.011832,-0.020183*
1,1,0.011811,-0.020183,-0.011832*
1,1,0.011811,0.011832,0.020183*
1,1,0.011811,0.020183,0.011832*
%
%ADD73ROUNDEDRECTD73*%
G04:AMPARAMS|DCode=74|XSize=23.622mil|YSize=57.087mil|CornerRadius=0mil|HoleSize=0mil|Usage=FLASHONLY|Rotation=315.000|XOffset=0mil|YOffset=0mil|HoleType=Round|Shape=Rectangle|*
%AMROTATEDRECTD74*
4,1,4,-0.028535,-0.011832,0.011832,0.028535,0.028535,0.011832,-0.011832,-0.028535,-0.028535,-0.011832,0.0*
%
%ADD74ROTATEDRECTD74*%

G04:AMPARAMS|DCode=75|XSize=11.811mil|YSize=57.087mil|CornerRadius=0mil|HoleSize=0mil|Usage=FLASHONLY|Rotation=315.000|XOffset=0mil|YOffset=0mil|HoleType=Round|Shape=Rectangle|*
%AMROTATEDRECTD75*
4,1,4,-0.024359,-0.016007,0.016007,0.024359,0.024359,0.016007,-0.016007,-0.024359,-0.024359,-0.016007,0.0*
%
%ADD75ROTATEDRECTD75*%

%ADD76R,0.157480X0.078740*%
G04:AMPARAMS|DCode=77|XSize=70.866mil|YSize=51.181mil|CornerRadius=12.795mil|HoleSize=0mil|Usage=FLASHONLY|Rotation=70.000|XOffset=0mil|YOffset=0mil|HoleType=Round|Shape=RoundedRectangle|*
%AMROUNDEDRECTD77*
21,1,0.070866,0.025591,0,0,70.0*
21,1,0.045276,0.051181,0,0,70.0*
1,1,0.025590,0.019766,0.016896*
1,1,0.025590,0.004281,-0.025649*
1,1,0.025590,-0.019766,-0.016896*
1,1,0.025590,-0.004281,0.025649*
%
%ADD77ROUNDEDRECTD77*%
G04:AMPARAMS|DCode=78|XSize=27.559mil|YSize=51.181mil|CornerRadius=6.89mil|HoleSize=0mil|Usage=FLASHONLY|Rotation=180.000|XOffset=0mil|YOffset=0mil|HoleType=Round|Shape=RoundedRectangle|*
%AMROUNDEDRECTD78*
21,1,0.027559,0.037401,0,0,180.0*
21,1,0.013780,0.051181,0,0,180.0*
1,1,0.013780,-0.006890,0.018701*
1,1,0.013780,0.006890,0.018701*
1,1,0.013780,0.006890,-0.018701*
1,1,0.013780,-0.006890,-0.018701*
%
%ADD78ROUNDEDRECTD78*%
%ADD79R,0.027559X0.051181*%
G04:AMPARAMS|DCode=80|XSize=11.811mil|YSize=45.276mil|CornerRadius=2.953mil|HoleSize=0mil|Usage=FLASHONLY|Rotation=270.000|XOffset=0mil|YOffset=0mil|HoleType=Round|Shape=RoundedRectangle|*
%AMROUNDEDRECTD80*
21,1,0.011811,0.039370,0,0,270.0*
21,1,0.005905,0.045276,0,0,270.0*
1,1,0.005906,-0.019685,-0.002953*
1,1,0.005906,-0.019685,0.002953*
1,1,0.005906,0.019685,0.002953*
1,1,0.005906,0.019685,-0.002953*
%
%ADD80ROUNDEDRECTD80*%
G04:AMPARAMS|DCode=81|XSize=90.551mil|YSize=59.055mil|CornerRadius=14.764mil|HoleSize=0mil|Usage=FLASHONLY|Rotation=270.000|XOffset=0mil|YOffset=0mil|HoleType=Round|Shape=RoundedRectangle|*
%AMROUNDEDRECTD81*
21,1,0.090551,0.029527,0,0,270.0*
21,1,0.061024,0.059055,0,0,270.0*
1,1,0.029528,-0.014764,-0.030512*
1,1,0.029528,-0.014764,0.030512*
1,1,0.029528,0.014764,0.030512*
1,1,0.029528,0.014764,-0.030512*
%
%ADD81ROUNDEDRECTD81*%
G04:AMPARAMS|DCode=82|XSize=13.78mil|YSize=64.331mil|CornerRadius=3.445mil|HoleSize=0mil|Usage=FLASHONLY|Rotation=180.000|XOffset=0mil|YOffset=0mil|HoleType=Round|Shape=RoundedRectangle|*
%AMROUNDEDRECTD82*
21,1,0.013780,0.057441,0,0,180.0*
21,1,0.006890,0.064331,0,0,180.0*
1,1,0.006890,-0.003445,0.028721*
1,1,0.006890,0.003445,0.028721*
1,1,0.006890,0.003445,-0.028721*
1,1,0.006890,-0.003445,-0.028721*
%
%ADD82ROUNDEDRECTD82*%
G04:AMPARAMS|DCode=83|XSize=11.811mil|YSize=45.276mil|CornerRadius=2.953mil|HoleSize=0mil|Usage=FLASHONLY|Rotation=225.000|XOffset=0mil|YOffset=0mil|HoleType=Round|Shape=RoundedRectangle|*
%AMROUNDEDRECTD83*
21,1,0.011811,0.039370,0,0,225.0*
21,1,0.005905,0.045276,0,0,225.0*
1,1,0.005906,-0.016007,0.011832*
1,1,0.005906,-0.011832,0.016007*
1,1,0.005906,0.016007,-0.011832*
1,1,0.005906,0.011832,-0.016007*
%
%ADD83ROUNDEDRECTD83*%
G04:AMPARAMS|DCode=84|XSize=90.551mil|YSize=59.055mil|CornerRadius=14.764mil|HoleSize=0mil|Usage=FLASHONLY|Rotation=225.000|XOffset=0mil|YOffset=0mil|HoleType=Round|Shape=RoundedRectangle|*
%AMROUNDEDRECTD84*
21,1,0.090551,0.029527,0,0,225.0*
21,1,0.061024,0.059055,0,0,225.0*
1,1,0.029528,-0.032015,-0.011136*
1,1,0.029528,0.011136,0.032015*
1,1,0.029528,0.032015,0.011136*
1,1,0.029528,-0.011136,-0.032015*
%
%ADD84ROUNDEDRECTD84*%
G04:AMPARAMS|DCode=85|XSize=13.78mil|YSize=64.331mil|CornerRadius=3.445mil|HoleSize=0mil|Usage=FLASHONLY|Rotation=135.000|XOffset=0mil|YOffset=0mil|HoleType=Round|Shape=RoundedRectangle|*
%AMROUNDEDRECTD85*
21,1,0.013780,0.057441,0,0,135.0*
21,1,0.006890,0.064331,0,0,135.0*
1,1,0.006890,0.017872,0.022744*
1,1,0.006890,0.022744,0.017872*
1,1,0.006890,-0.017872,-0.022744*
1,1,0.006890,-0.022744,-0.017872*
%
%ADD85ROUNDEDRECTD85*%
G04:AMPARAMS|DCode=86|XSize=39.37mil|YSize=35.433mil|CornerRadius=8.858mil|HoleSize=0mil|Usage=FLASHONLY|Rotation=150.000|XOffset=0mil|YOffset=0mil|HoleType=Round|Shape=RoundedRectangle|*
%AMROUNDEDRECTD86*
21,1,0.039370,0.017717,0,0,150.0*
21,1,0.021654,0.035433,0,0,150.0*
1,1,0.017716,-0.004947,0.013085*
1,1,0.017716,0.013806,0.002258*
1,1,0.017716,0.004947,-0.013085*
1,1,0.017716,-0.013806,-0.002258*
%
%ADD86ROUNDEDRECTD86*%
G04:AMPARAMS|DCode=87|XSize=39.37mil|YSize=35.433mil|CornerRadius=8.858mil|HoleSize=0mil|Usage=FLASHONLY|Rotation=252.000|XOffset=0mil|YOffset=0mil|HoleType=Round|Shape=RoundedRectangle|*
%AMROUNDEDRECTD87*
21,1,0.039370,0.017717,0,0,252.0*
21,1,0.021654,0.035433,0,0,252.0*
1,1,0.017716,-0.011771,-0.007560*
1,1,0.017716,-0.005079,0.013034*
1,1,0.017716,0.011771,0.007560*
1,1,0.017716,0.005079,-0.013034*
%
%ADD87ROUNDEDRECTD87*%
D14*
X1323302Y1522214D02*
D03*
X1386294D02*
D03*
X1386294Y1463159D02*
D03*
X1323302D02*
D03*
X1442913Y1338583D02*
D03*
X1379921D02*
D03*
X668409Y1027000D02*
D03*
X731402Y1027000D02*
D03*
X665354Y383858D02*
D03*
X602362D02*
D03*
X665354Y324803D02*
D03*
X602362D02*
D03*
X812992Y383858D02*
D03*
X750000D02*
D03*
X824931Y525396D02*
D03*
X761939D02*
D03*
X1704725Y698819D02*
D03*
X1767717D02*
D03*
X1324803Y1338583D02*
D03*
X1261811D02*
D03*
X1106409Y1636000D02*
D03*
X1169401D02*
D03*
X891732Y620079D02*
D03*
X828740D02*
D03*
X1576772Y698819D02*
D03*
X1639764D02*
D03*
X1649606Y925197D02*
D03*
X1586614D02*
D03*
X1383858Y1397638D02*
D03*
X1320866D02*
D03*
X807402Y1347000D02*
D03*
X744409Y1347000D02*
D03*
X946850Y1279528D02*
D03*
X1009842D02*
D03*
X946850Y1338583D02*
D03*
X1009842D02*
D03*
X675197Y452756D02*
D03*
X612205D02*
D03*
X1862205Y856299D02*
D03*
X1925197D02*
D03*
X1383858Y1584646D02*
D03*
X1320866D02*
D03*
X1383858Y1643701D02*
D03*
X1320866D02*
D03*
D25*
X565346Y547000D02*
D03*
X620465D02*
D03*
D26*
X2437152Y960332D02*
D03*
X1461932Y227159D02*
D03*
X896349Y1785442D02*
D03*
D27*
X1788024Y1851000D02*
D03*
X1677787D02*
D03*
X450787Y1112205D02*
D03*
X561024D02*
D03*
D28*
X505906Y858268D02*
D03*
Y795276D02*
D03*
X574803Y677165D02*
D03*
X574803Y740157D02*
D03*
X879921Y734378D02*
D03*
X879921Y797370D02*
D03*
X1696850Y812992D02*
D03*
Y875984D02*
D03*
X1500000Y858268D02*
D03*
Y795276D02*
D03*
X446850D02*
D03*
Y858268D02*
D03*
X574803Y858268D02*
D03*
Y795276D02*
D03*
X1027559Y169291D02*
D03*
Y106299D02*
D03*
X809905Y1232504D02*
D03*
Y1295496D02*
D03*
X1303150Y667323D02*
D03*
Y730315D02*
D03*
D29*
X1785433Y887795D02*
D03*
Y777559D02*
D03*
D36*
X2028177Y1123398D02*
D03*
X1983634Y1167940D02*
D03*
D38*
X2073173Y905045D02*
D03*
X2092638Y964955D02*
D03*
D64*
X906496Y277559D02*
D03*
D65*
X906496Y187008D02*
D03*
X906496Y96457D02*
D03*
D66*
X676181Y187008D02*
D03*
D67*
X1906261Y1025106D02*
D03*
X1932083Y1020553D02*
D03*
X1957906Y1016000D02*
D03*
X1983727Y1011447D02*
D03*
X1888691Y925462D02*
D03*
X1914513Y920909D02*
D03*
X1940335Y916356D02*
D03*
X1966158Y911803D02*
D03*
D68*
X1933431Y952698D02*
D03*
D69*
X1929349Y1005044D02*
D03*
D70*
X497693Y1328740D02*
D03*
X1421260Y917512D02*
D03*
D71*
X497693Y1190945D02*
D03*
X1421260Y779717D02*
D03*
D72*
X2192905Y1230000D02*
D03*
D73*
X2215872Y1364322D02*
D03*
X2243711Y1336484D02*
D03*
X2271550Y1308645D02*
D03*
X2299389Y1280806D02*
D03*
X2327228Y1252967D02*
D03*
X2058583Y1207033D02*
D03*
X2086422Y1179194D02*
D03*
X2114261Y1151355D02*
D03*
X2142100Y1123516D02*
D03*
D74*
X2169939Y1095678D02*
D03*
X1834010Y1521453D02*
D03*
X2014963Y1340500D02*
D03*
X1992692Y1362772D02*
D03*
X1856282Y1499182D02*
D03*
D75*
X1973205Y1382259D02*
D03*
X1959285Y1396178D02*
D03*
X1875769Y1479695D02*
D03*
X1889688Y1465775D02*
D03*
X1917527Y1437936D02*
D03*
X1945366Y1410098D02*
D03*
X1903608Y1451856D02*
D03*
X1931446Y1424017D02*
D03*
D76*
X635905Y1210000D02*
D03*
Y1340000D02*
D03*
D77*
X1318111Y1877851D02*
D03*
X1421700Y1840149D02*
D03*
D78*
X1561024Y769685D02*
D03*
X1598425D02*
D03*
X1635827D02*
D03*
Y864173D02*
D03*
X1598425D02*
D03*
D79*
X1561024D02*
D03*
D80*
X1370315Y655669D02*
D03*
Y681890D02*
D03*
Y708110D02*
D03*
Y734331D02*
D03*
X1471496Y655669D02*
D03*
Y681890D02*
D03*
Y708110D02*
D03*
Y734331D02*
D03*
D81*
X1436906Y695000D02*
D03*
D82*
X1386063Y681890D02*
D03*
D83*
X1868008Y698276D02*
D03*
X1886549Y716816D02*
D03*
X1905089Y735357D02*
D03*
X1923630Y753898D02*
D03*
X1939554Y626730D02*
D03*
X1958094Y645270D02*
D03*
X1976635Y663811D02*
D03*
X1995176Y682352D02*
D03*
D84*
X1942906Y679000D02*
D03*
D85*
X1897684Y705681D02*
D03*
D86*
X1832158Y1009724D02*
D03*
X1863654Y1064276D02*
D03*
D87*
X2028860Y766267D02*
D03*
X1968951Y785733D02*
D03*
%TF.MD5,7e7da5f571cf2fa280fd10e7def60515*%
M02*
