%TF.GenerationSoftware,Altium Limited,Altium Designer,23.11.1 (41)*%
G04 Layer_Physical_Order=4*
G04 Layer_Color=16711680*
%FSLAX26Y26*%
%MOIN*%
%TF.SameCoordinates,A059C263-CE59-4A5C-BE38-7B1504CAFB6E*%
%TF.FilePolarity,Positive*%
%TF.FileFunction,Copper,L4,Bot,Signal*%
%TF.Part,CustomerPanel*%
G01*
G75*
%TA.AperFunction,SMDPad,CuDef*%
G04:AMPARAMS|DCode=10|XSize=39.37mil|YSize=35.433mil|CornerRadius=8.858mil|HoleSize=0mil|Usage=FLASHONLY|Rotation=270.000|XOffset=0mil|YOffset=0mil|HoleType=Round|Shape=RoundedRectangle|*
%AMROUNDEDRECTD10*
21,1,0.039370,0.017717,0,0,270.0*
21,1,0.021654,0.035433,0,0,270.0*
1,1,0.017716,-0.008858,-0.010827*
1,1,0.017716,-0.008858,0.010827*
1,1,0.017716,0.008858,0.010827*
1,1,0.017716,0.008858,-0.010827*
%
%ADD10ROUNDEDRECTD10*%
G04:AMPARAMS|DCode=11|XSize=39.37mil|YSize=35.433mil|CornerRadius=8.858mil|HoleSize=0mil|Usage=FLASHONLY|Rotation=0.000|XOffset=0mil|YOffset=0mil|HoleType=Round|Shape=RoundedRectangle|*
%AMROUNDEDRECTD11*
21,1,0.039370,0.017717,0,0,0.0*
21,1,0.021654,0.035433,0,0,0.0*
1,1,0.017716,0.010827,-0.008858*
1,1,0.017716,-0.010827,-0.008858*
1,1,0.017716,-0.010827,0.008858*
1,1,0.017716,0.010827,0.008858*
%
%ADD11ROUNDEDRECTD11*%
G04:AMPARAMS|DCode=12|XSize=70.866mil|YSize=51.181mil|CornerRadius=12.795mil|HoleSize=0mil|Usage=FLASHONLY|Rotation=270.000|XOffset=0mil|YOffset=0mil|HoleType=Round|Shape=RoundedRectangle|*
%AMROUNDEDRECTD12*
21,1,0.070866,0.025591,0,0,270.0*
21,1,0.045276,0.051181,0,0,270.0*
1,1,0.025590,-0.012795,-0.022638*
1,1,0.025590,-0.012795,0.022638*
1,1,0.025590,0.012795,0.022638*
1,1,0.025590,0.012795,-0.022638*
%
%ADD12ROUNDEDRECTD12*%
G04:AMPARAMS|DCode=29|XSize=39.37mil|YSize=35.433mil|CornerRadius=8.858mil|HoleSize=0mil|Usage=FLASHONLY|Rotation=135.000|XOffset=0mil|YOffset=0mil|HoleType=Round|Shape=RoundedRectangle|*
%AMROUNDEDRECTD29*
21,1,0.039370,0.017717,0,0,135.0*
21,1,0.021654,0.035433,0,0,135.0*
1,1,0.017716,-0.001392,0.013920*
1,1,0.017716,0.013920,-0.001392*
1,1,0.017716,0.001392,-0.013920*
1,1,0.017716,-0.013920,0.001392*
%
%ADD29ROUNDEDRECTD29*%
%TA.AperFunction,FiducialPad,Global*%
%ADD30C,0.059055*%
%TA.AperFunction,Conductor*%
%ADD31C,0.025000*%
%ADD32C,0.008000*%
%ADD33C,0.012000*%
%ADD34C,0.050000*%
%ADD35C,0.010000*%
%ADD37C,0.040000*%
%ADD38C,0.020000*%
%TA.AperFunction,ComponentPad*%
%ADD39C,0.054000*%
%ADD40C,0.066929*%
%ADD41R,0.066929X0.066929*%
%ADD42C,0.070866*%
%ADD43R,0.070866X0.070866*%
%ADD44C,0.060000*%
%ADD45R,0.059000X0.059000*%
%ADD46R,0.059000X0.059000*%
%ADD47C,0.059370*%
%ADD48R,0.059370X0.059370*%
%ADD49R,0.059370X0.059370*%
G04:AMPARAMS|DCode=50|XSize=39.37mil|YSize=62.992mil|CornerRadius=0mil|HoleSize=0mil|Usage=FLASHONLY|Rotation=135.000|XOffset=0mil|YOffset=0mil|HoleType=Round|Shape=Round|*
%AMOVALD50*
21,1,0.023622,0.039370,0.000000,0.000000,225.0*
1,1,0.039370,0.008352,0.008352*
1,1,0.039370,-0.008352,-0.008352*
%
%ADD50OVALD50*%

%ADD51C,0.026575*%
G04:AMPARAMS|DCode=52|XSize=39.37mil|YSize=82.677mil|CornerRadius=0mil|HoleSize=0mil|Usage=FLASHONLY|Rotation=135.000|XOffset=0mil|YOffset=0mil|HoleType=Round|Shape=Round|*
%AMOVALD52*
21,1,0.043307,0.039370,0.000000,0.000000,225.0*
1,1,0.039370,0.015311,0.015311*
1,1,0.039370,-0.015311,-0.015311*
%
%ADD52OVALD52*%

%TA.AperFunction,ViaPad*%
%ADD53C,0.059055*%
%ADD54C,0.017716*%
%ADD55C,0.019685*%
%TA.AperFunction,SMDPad,CuDef*%
G04:AMPARAMS|DCode=57|XSize=71.653mil|YSize=50mil|CornerRadius=12.5mil|HoleSize=0mil|Usage=FLASHONLY|Rotation=135.000|XOffset=0mil|YOffset=0mil|HoleType=Round|Shape=RoundedRectangle|*
%AMROUNDEDRECTD57*
21,1,0.071653,0.025000,0,0,135.0*
21,1,0.046654,0.050000,0,0,135.0*
1,1,0.025000,-0.007656,0.025333*
1,1,0.025000,0.025333,-0.007656*
1,1,0.025000,0.007656,-0.025333*
1,1,0.025000,-0.025333,0.007656*
%
%ADD57ROUNDEDRECTD57*%
G04:AMPARAMS|DCode=58|XSize=13.78mil|YSize=64.331mil|CornerRadius=3.445mil|HoleSize=0mil|Usage=FLASHONLY|Rotation=90.000|XOffset=0mil|YOffset=0mil|HoleType=Round|Shape=RoundedRectangle|*
%AMROUNDEDRECTD58*
21,1,0.013780,0.057441,0,0,90.0*
21,1,0.006890,0.064331,0,0,90.0*
1,1,0.006890,0.028721,0.003445*
1,1,0.006890,0.028721,-0.003445*
1,1,0.006890,-0.028721,-0.003445*
1,1,0.006890,-0.028721,0.003445*
%
%ADD58ROUNDEDRECTD58*%
G04:AMPARAMS|DCode=59|XSize=90.551mil|YSize=59.055mil|CornerRadius=14.764mil|HoleSize=0mil|Usage=FLASHONLY|Rotation=180.000|XOffset=0mil|YOffset=0mil|HoleType=Round|Shape=RoundedRectangle|*
%AMROUNDEDRECTD59*
21,1,0.090551,0.029527,0,0,180.0*
21,1,0.061024,0.059055,0,0,180.0*
1,1,0.029528,-0.030512,0.014764*
1,1,0.029528,0.030512,0.014764*
1,1,0.029528,0.030512,-0.014764*
1,1,0.029528,-0.030512,-0.014764*
%
%ADD59ROUNDEDRECTD59*%
G04:AMPARAMS|DCode=60|XSize=11.811mil|YSize=45.276mil|CornerRadius=2.953mil|HoleSize=0mil|Usage=FLASHONLY|Rotation=180.000|XOffset=0mil|YOffset=0mil|HoleType=Round|Shape=RoundedRectangle|*
%AMROUNDEDRECTD60*
21,1,0.011811,0.039370,0,0,180.0*
21,1,0.005905,0.045276,0,0,180.0*
1,1,0.005906,-0.002953,0.019685*
1,1,0.005906,0.002953,0.019685*
1,1,0.005906,0.002953,-0.019685*
1,1,0.005906,-0.002953,-0.019685*
%
%ADD60ROUNDEDRECTD60*%
G04:AMPARAMS|DCode=61|XSize=13.78mil|YSize=64.331mil|CornerRadius=3.445mil|HoleSize=0mil|Usage=FLASHONLY|Rotation=180.000|XOffset=0mil|YOffset=0mil|HoleType=Round|Shape=RoundedRectangle|*
%AMROUNDEDRECTD61*
21,1,0.013780,0.057441,0,0,180.0*
21,1,0.006890,0.064331,0,0,180.0*
1,1,0.006890,-0.003445,0.028721*
1,1,0.006890,0.003445,0.028721*
1,1,0.006890,0.003445,-0.028721*
1,1,0.006890,-0.003445,-0.028721*
%
%ADD61ROUNDEDRECTD61*%
G04:AMPARAMS|DCode=62|XSize=90.551mil|YSize=59.055mil|CornerRadius=14.764mil|HoleSize=0mil|Usage=FLASHONLY|Rotation=270.000|XOffset=0mil|YOffset=0mil|HoleType=Round|Shape=RoundedRectangle|*
%AMROUNDEDRECTD62*
21,1,0.090551,0.029527,0,0,270.0*
21,1,0.061024,0.059055,0,0,270.0*
1,1,0.029528,-0.014764,-0.030512*
1,1,0.029528,-0.014764,0.030512*
1,1,0.029528,0.014764,0.030512*
1,1,0.029528,0.014764,-0.030512*
%
%ADD62ROUNDEDRECTD62*%
G04:AMPARAMS|DCode=63|XSize=11.811mil|YSize=45.276mil|CornerRadius=2.953mil|HoleSize=0mil|Usage=FLASHONLY|Rotation=270.000|XOffset=0mil|YOffset=0mil|HoleType=Round|Shape=RoundedRectangle|*
%AMROUNDEDRECTD63*
21,1,0.011811,0.039370,0,0,270.0*
21,1,0.005905,0.045276,0,0,270.0*
1,1,0.005906,-0.019685,-0.002953*
1,1,0.005906,-0.019685,0.002953*
1,1,0.005906,0.019685,0.002953*
1,1,0.005906,0.019685,-0.002953*
%
%ADD63ROUNDEDRECTD63*%
%ADD64R,0.027559X0.051181*%
G04:AMPARAMS|DCode=65|XSize=27.559mil|YSize=51.181mil|CornerRadius=6.89mil|HoleSize=0mil|Usage=FLASHONLY|Rotation=180.000|XOffset=0mil|YOffset=0mil|HoleType=Round|Shape=RoundedRectangle|*
%AMROUNDEDRECTD65*
21,1,0.027559,0.037401,0,0,180.0*
21,1,0.013780,0.051181,0,0,180.0*
1,1,0.013780,-0.006890,0.018701*
1,1,0.013780,0.006890,0.018701*
1,1,0.013780,0.006890,-0.018701*
1,1,0.013780,-0.006890,-0.018701*
%
%ADD65ROUNDEDRECTD65*%
%ADD66R,0.062992X0.084646*%
G04:AMPARAMS|DCode=67|XSize=62.992mil|YSize=84.646mil|CornerRadius=15.748mil|HoleSize=0mil|Usage=FLASHONLY|Rotation=0.000|XOffset=0mil|YOffset=0mil|HoleType=Round|Shape=RoundedRectangle|*
%AMROUNDEDRECTD67*
21,1,0.062992,0.053150,0,0,0.0*
21,1,0.031496,0.084646,0,0,0.0*
1,1,0.031496,0.015748,-0.026575*
1,1,0.031496,-0.015748,-0.026575*
1,1,0.031496,-0.015748,0.026575*
1,1,0.031496,0.015748,0.026575*
%
%ADD67ROUNDEDRECTD67*%
G04:AMPARAMS|DCode=68|XSize=151.575mil|YSize=84.646mil|CornerRadius=21.161mil|HoleSize=0mil|Usage=FLASHONLY|Rotation=0.000|XOffset=0mil|YOffset=0mil|HoleType=Round|Shape=RoundedRectangle|*
%AMROUNDEDRECTD68*
21,1,0.151575,0.042323,0,0,0.0*
21,1,0.109252,0.084646,0,0,0.0*
1,1,0.042323,0.054626,-0.021162*
1,1,0.042323,-0.054626,-0.021162*
1,1,0.042323,-0.054626,0.021162*
1,1,0.042323,0.054626,0.021162*
%
%ADD68ROUNDEDRECTD68*%
G04:AMPARAMS|DCode=69|XSize=55.118mil|YSize=47.244mil|CornerRadius=0mil|HoleSize=0mil|Usage=FLASHONLY|Rotation=225.000|XOffset=0mil|YOffset=0mil|HoleType=Round|Shape=Rectangle|*
%AMROTATEDRECTD69*
4,1,4,0.002784,0.036191,0.036191,0.002784,-0.002784,-0.036191,-0.036191,-0.002784,0.002784,0.036191,0.0*
%
%ADD69ROTATEDRECTD69*%

G04:AMPARAMS|DCode=70|XSize=90.551mil|YSize=125.984mil|CornerRadius=11.319mil|HoleSize=0mil|Usage=FLASHONLY|Rotation=180.000|XOffset=0mil|YOffset=0mil|HoleType=Round|Shape=RoundedRectangle|*
%AMROUNDEDRECTD70*
21,1,0.090551,0.103347,0,0,180.0*
21,1,0.067913,0.125984,0,0,180.0*
1,1,0.022638,-0.033957,0.051673*
1,1,0.022638,0.033957,0.051673*
1,1,0.022638,0.033957,-0.051673*
1,1,0.022638,-0.033957,-0.051673*
%
%ADD70ROUNDEDRECTD70*%
G04:AMPARAMS|DCode=71|XSize=23.622mil|YSize=57.087mil|CornerRadius=5.906mil|HoleSize=0mil|Usage=FLASHONLY|Rotation=90.000|XOffset=0mil|YOffset=0mil|HoleType=Round|Shape=RoundedRectangle|*
%AMROUNDEDRECTD71*
21,1,0.023622,0.045276,0,0,90.0*
21,1,0.011811,0.057087,0,0,90.0*
1,1,0.011811,0.022638,0.005906*
1,1,0.011811,0.022638,-0.005906*
1,1,0.011811,-0.022638,-0.005906*
1,1,0.011811,-0.022638,0.005906*
%
%ADD71ROUNDEDRECTD71*%
%ADD72R,0.057087X0.023622*%
G04:AMPARAMS|DCode=73|XSize=11.811mil|YSize=57.087mil|CornerRadius=0mil|HoleSize=0mil|Usage=FLASHONLY|Rotation=315.000|XOffset=0mil|YOffset=0mil|HoleType=Round|Shape=Rectangle|*
%AMROTATEDRECTD73*
4,1,4,-0.024359,-0.016007,0.016007,0.024359,0.024359,0.016007,-0.016007,-0.024359,-0.024359,-0.016007,0.0*
%
%ADD73ROTATEDRECTD73*%

G04:AMPARAMS|DCode=74|XSize=23.622mil|YSize=57.087mil|CornerRadius=0mil|HoleSize=0mil|Usage=FLASHONLY|Rotation=315.000|XOffset=0mil|YOffset=0mil|HoleType=Round|Shape=Rectangle|*
%AMROTATEDRECTD74*
4,1,4,-0.028535,-0.011832,0.011832,0.028535,0.028535,0.011832,-0.011832,-0.028535,-0.028535,-0.011832,0.0*
%
%ADD74ROTATEDRECTD74*%

%ADD75R,0.078740X0.157480*%
G04:AMPARAMS|DCode=76|XSize=35.433mil|YSize=31.496mil|CornerRadius=0mil|HoleSize=0mil|Usage=FLASHONLY|Rotation=135.000|XOffset=0mil|YOffset=0mil|HoleType=Round|Shape=Rectangle|*
%AMROTATEDRECTD76*
4,1,4,0.023663,-0.001392,0.001392,-0.023663,-0.023663,0.001392,-0.001392,0.023663,0.023663,-0.001392,0.0*
%
%ADD76ROTATEDRECTD76*%

G04:AMPARAMS|DCode=77|XSize=39.37mil|YSize=35.433mil|CornerRadius=8.858mil|HoleSize=0mil|Usage=FLASHONLY|Rotation=225.000|XOffset=0mil|YOffset=0mil|HoleType=Round|Shape=RoundedRectangle|*
%AMROUNDEDRECTD77*
21,1,0.039370,0.017717,0,0,225.0*
21,1,0.021654,0.035433,0,0,225.0*
1,1,0.017716,-0.013920,-0.001392*
1,1,0.017716,0.001392,0.013920*
1,1,0.017716,0.013920,0.001392*
1,1,0.017716,-0.001392,-0.013920*
%
%ADD77ROUNDEDRECTD77*%
%ADD78R,0.051181X0.027559*%
G04:AMPARAMS|DCode=79|XSize=27.559mil|YSize=51.181mil|CornerRadius=6.89mil|HoleSize=0mil|Usage=FLASHONLY|Rotation=270.000|XOffset=0mil|YOffset=0mil|HoleType=Round|Shape=RoundedRectangle|*
%AMROUNDEDRECTD79*
21,1,0.027559,0.037401,0,0,270.0*
21,1,0.013780,0.051181,0,0,270.0*
1,1,0.013780,-0.018701,-0.006890*
1,1,0.013780,-0.018701,0.006890*
1,1,0.013780,0.018701,0.006890*
1,1,0.013780,0.018701,-0.006890*
%
%ADD79ROUNDEDRECTD79*%
%ADD80R,0.157480X0.078740*%
%TA.AperFunction,Conductor*%
%ADD81R,0.181000X0.046000*%
%ADD82R,0.068898X0.094488*%
%ADD83R,0.062992X0.141732*%
%ADD84R,0.062992X0.286323*%
%ADD85R,0.051032X0.088000*%
%ADD86R,0.088583X0.063370*%
G36*
X2149577Y1463159D02*
X2041439Y1355020D01*
X2041067Y1355175D01*
X2033962D01*
X2027399Y1352456D01*
X2022375Y1347432D01*
X2019656Y1340869D01*
Y1333764D01*
X2019811Y1333392D01*
X1972412Y1285993D01*
X1919263D01*
X1889735Y1315521D01*
X1891749Y1317444D01*
X1878170Y1331023D01*
X1918279Y1371132D01*
X1918942Y1370468D01*
X1927134Y1367075D01*
X1936000D01*
X1944192Y1370468D01*
X1950461Y1376738D01*
X1953854Y1384929D01*
Y1393796D01*
X1950461Y1401987D01*
X1944192Y1408257D01*
X1936000Y1411650D01*
X1927134D01*
X1925523Y1410983D01*
X1920904Y1412896D01*
X1919896Y1415329D01*
X1914872Y1420353D01*
X1908309Y1423072D01*
X1901204D01*
X1900868Y1422933D01*
X1900753Y1423010D01*
X1895680Y1424019D01*
X1889505D01*
X1884433Y1423010D01*
X1880133Y1420137D01*
X1878175Y1418178D01*
X1855161Y1441192D01*
X1868863Y1454893D01*
X1871736Y1459193D01*
X1875265Y1462722D01*
X1878138Y1467022D01*
X1879147Y1472094D01*
Y1490202D01*
X1878138Y1495275D01*
X1875265Y1499575D01*
X1862461Y1512379D01*
X1858160Y1515252D01*
X1853088Y1516261D01*
X1832940D01*
X1828777Y1517986D01*
X1821673D01*
X1815109Y1515267D01*
X1810085Y1510243D01*
X1807367Y1503680D01*
Y1496575D01*
X1807733Y1495691D01*
X1803660Y1492969D01*
X1803408Y1492945D01*
X1785340Y1511013D01*
X1772993Y1523360D01*
X1774907Y1527979D01*
X1775097D01*
X1783288Y1531372D01*
X1789558Y1537642D01*
X1792951Y1545833D01*
Y1554700D01*
X1789558Y1562891D01*
X1783288Y1569161D01*
X1775097Y1572554D01*
X1766230D01*
X1758039Y1569161D01*
X1751769Y1562891D01*
X1748376Y1554700D01*
Y1545833D01*
X1751769Y1537642D01*
X1752437Y1536974D01*
X1712328Y1496865D01*
X1696849Y1512344D01*
X1694835Y1510421D01*
X1672892Y1532363D01*
Y1536300D01*
X1671892Y1537300D01*
Y1694135D01*
X1696215Y1718458D01*
X1697632D01*
X1706788Y1720911D01*
X1714997Y1725651D01*
X1721699Y1732353D01*
X1726439Y1740562D01*
X1728892Y1749718D01*
Y1751135D01*
X1765719Y1787962D01*
X1824774D01*
X2149577Y1463159D01*
D02*
G37*
G36*
X1666892Y1846458D02*
Y1779370D01*
X1664085Y1776562D01*
X1659346Y1768353D01*
X1656892Y1759197D01*
Y1749718D01*
X1659346Y1740562D01*
X1664085Y1732353D01*
X1666892Y1729546D01*
Y1702112D01*
X1665404Y1700624D01*
X1663415Y1697647D01*
X1662716Y1694135D01*
Y1675000D01*
Y1537300D01*
X1663415Y1533789D01*
X1663716Y1533338D01*
Y1532363D01*
X1664415Y1528852D01*
X1666404Y1525875D01*
X1681600Y1510678D01*
X1680543Y1509621D01*
X1709974Y1480190D01*
X1709974Y1480190D01*
X1709974Y1480190D01*
X1712328Y1476004D01*
Y1449458D01*
X1714391D01*
Y1444404D01*
X1717109Y1437841D01*
X1722133Y1432817D01*
X1728697Y1430098D01*
X1735801D01*
X1739487Y1427148D01*
X1739753Y1425574D01*
X1737034Y1419010D01*
Y1411906D01*
X1739753Y1405342D01*
X1744776Y1400318D01*
X1751340Y1397600D01*
X1758445D01*
X1764066Y1399928D01*
X1767829Y1398780D01*
X1769583Y1397822D01*
X1769637Y1397553D01*
X1772510Y1393252D01*
X1788477Y1377285D01*
X1792777Y1374412D01*
X1794339Y1374102D01*
X1797481Y1368620D01*
X1797034Y1367542D01*
Y1360438D01*
X1799753Y1353874D01*
X1804776Y1348851D01*
X1811340Y1346132D01*
X1818445D01*
X1825008Y1348851D01*
X1830032Y1353874D01*
X1833599Y1350908D01*
X1842491Y1342017D01*
Y1171376D01*
X1830188D01*
X1822260Y1169799D01*
X1815539Y1165308D01*
X1811048Y1158587D01*
X1809471Y1150659D01*
Y1142599D01*
X1804851Y1140686D01*
X1799107Y1146430D01*
X1794476Y1149525D01*
X1789281Y1150558D01*
X1786308Y1155007D01*
X1785510Y1155541D01*
Y1160541D01*
X1786308Y1161074D01*
X1789602Y1166004D01*
X1790759Y1171820D01*
Y1183631D01*
X1789602Y1189447D01*
X1786308Y1194378D01*
X1781378Y1197672D01*
X1775562Y1198829D01*
X1730286D01*
X1724470Y1197672D01*
X1719540Y1194378D01*
X1717951Y1192000D01*
X1684270D01*
X1684032Y1192574D01*
X1679008Y1197597D01*
X1672445Y1200316D01*
X1665340D01*
X1658776Y1197597D01*
X1653753Y1192574D01*
X1651034Y1186010D01*
Y1178906D01*
X1653753Y1172342D01*
X1658776Y1167318D01*
X1665340Y1164600D01*
X1670158D01*
X1670250Y1164538D01*
X1675713Y1163451D01*
X1717951D01*
X1719540Y1161074D01*
X1720338Y1160541D01*
Y1155541D01*
X1719540Y1155007D01*
X1716245Y1150077D01*
X1715089Y1144261D01*
Y1132450D01*
X1716245Y1126634D01*
X1719540Y1121704D01*
X1720338Y1121171D01*
Y1116170D01*
X1719540Y1115637D01*
X1717270Y1112240D01*
X1694868D01*
X1693809Y1114796D01*
X1688786Y1119820D01*
X1682222Y1122539D01*
X1675118D01*
X1668554Y1119820D01*
X1663530Y1114796D01*
X1660812Y1108233D01*
Y1101865D01*
X1658830Y1100393D01*
X1656192Y1099414D01*
X1655008Y1100597D01*
X1648445Y1103316D01*
X1641340D01*
X1634776Y1100597D01*
X1629753Y1095574D01*
X1627034Y1089010D01*
Y1081906D01*
X1629753Y1075342D01*
X1634776Y1070318D01*
X1641340Y1067600D01*
X1644006D01*
X1661362Y1050243D01*
X1663373Y1048899D01*
X1662317Y1043591D01*
X1661339Y1043397D01*
X1655432Y1039450D01*
X1651485Y1033543D01*
X1650099Y1026575D01*
Y1020907D01*
X1645699Y1018556D01*
X1641240Y1020814D01*
Y1026575D01*
X1639854Y1033543D01*
X1635907Y1039450D01*
X1629999Y1043397D01*
X1623032Y1044783D01*
X1605315D01*
X1598347Y1043397D01*
X1592440Y1039450D01*
X1588493Y1033543D01*
X1587107Y1026575D01*
Y1004921D01*
X1588493Y997953D01*
X1592440Y992046D01*
X1598347Y988099D01*
X1605315Y986713D01*
X1623032D01*
X1629999Y988099D01*
X1630723Y988582D01*
X1633634Y984224D01*
X1647610Y970249D01*
X1652572Y966933D01*
X1658425Y965769D01*
X1661493D01*
X1671273Y955989D01*
X1673837Y949799D01*
X1678861Y944775D01*
X1685424Y942056D01*
X1692529D01*
X1699092Y944775D01*
X1704116Y949799D01*
X1706835Y956362D01*
Y960263D01*
X1711835Y962334D01*
X1726903Y947265D01*
Y933260D01*
X1725018Y931376D01*
X1722299Y924812D01*
Y917708D01*
X1725018Y911144D01*
X1728201Y907961D01*
X1726130Y902961D01*
X1697342D01*
X1689469Y901924D01*
X1682132Y898885D01*
X1675831Y894051D01*
X1670996Y887750D01*
X1667957Y880413D01*
X1666921Y872539D01*
Y830216D01*
X1667957Y822343D01*
X1670996Y815006D01*
X1675831Y808705D01*
X1682132Y803870D01*
X1689469Y800831D01*
X1697342Y799795D01*
X1711296D01*
Y722038D01*
X1710488Y720088D01*
Y712983D01*
X1711046Y711636D01*
X1706709Y707298D01*
X1702090Y709212D01*
Y711033D01*
X1702898Y712983D01*
Y720088D01*
X1702090Y722038D01*
Y724409D01*
X1701391Y727921D01*
X1699402Y730898D01*
X1696425Y732887D01*
X1692913Y733586D01*
X1690542D01*
X1688591Y734394D01*
X1681487D01*
X1679537Y733586D01*
X1666920D01*
X1664969Y734394D01*
X1657865D01*
X1655915Y733586D01*
X1643298D01*
X1641348Y734394D01*
X1634243D01*
X1632293Y733586D01*
X1629921D01*
X1626410Y732887D01*
X1623433Y730898D01*
X1621443Y727921D01*
X1620745Y724409D01*
Y722038D01*
X1619937Y720088D01*
Y712983D01*
X1620745Y711033D01*
Y698416D01*
X1619937Y696466D01*
Y689361D01*
X1620745Y687411D01*
Y649188D01*
X1620437Y647638D01*
Y621026D01*
X1566900Y567489D01*
X1476349D01*
X1355929Y687909D01*
X1357947Y690928D01*
X1358956Y696000D01*
Y752000D01*
X1357947Y757072D01*
X1355073Y761372D01*
X1336559Y779887D01*
Y782552D01*
X1333840Y789116D01*
X1328817Y794139D01*
X1322253Y796858D01*
X1315149D01*
X1310126Y794778D01*
X1306867Y798840D01*
X1311235Y806404D01*
X1313892Y816323D01*
Y826592D01*
X1311235Y836511D01*
X1306100Y845404D01*
X1298839Y852666D01*
X1289946Y857800D01*
X1280027Y860458D01*
X1269758D01*
X1259839Y857800D01*
X1258226Y856869D01*
X1239714Y875381D01*
Y887266D01*
X1244333Y889179D01*
X1247610Y885903D01*
X1257742Y880053D01*
X1269043Y877025D01*
X1280742D01*
X1292043Y880053D01*
X1302175Y885903D01*
X1310447Y894175D01*
X1316297Y904307D01*
X1319325Y915608D01*
Y927308D01*
X1316297Y938608D01*
X1310447Y948740D01*
X1302175Y957013D01*
X1292043Y962863D01*
X1280742Y965891D01*
X1269043D01*
X1257742Y962863D01*
X1247610Y957013D01*
X1240447Y949851D01*
X1238337Y948894D01*
X1234034Y949556D01*
X1224892Y958698D01*
Y1137250D01*
X1242265Y1154622D01*
X1245138Y1158922D01*
X1246147Y1163995D01*
Y1335808D01*
X1245138Y1340880D01*
X1242265Y1345181D01*
X1230073Y1357372D01*
X1291201Y1418500D01*
X1280197Y1429504D01*
X1282110Y1434124D01*
X1282948D01*
X1289916Y1435510D01*
X1295823Y1439457D01*
X1299770Y1445364D01*
X1301156Y1452332D01*
Y1473986D01*
X1299770Y1480953D01*
X1295823Y1486861D01*
X1291261Y1489908D01*
X1291014Y1490763D01*
Y1494609D01*
X1291261Y1495464D01*
X1295823Y1498512D01*
X1299770Y1504419D01*
X1301156Y1511387D01*
Y1533041D01*
X1299770Y1540008D01*
X1295823Y1545916D01*
X1289915Y1549863D01*
X1282947Y1551249D01*
X1265231D01*
X1258263Y1549863D01*
X1252356Y1545916D01*
X1248409Y1540008D01*
X1247023Y1533041D01*
Y1511387D01*
X1248409Y1504419D01*
X1252356Y1498512D01*
X1256917Y1495464D01*
X1257164Y1494609D01*
Y1490764D01*
X1256917Y1489908D01*
X1252356Y1486861D01*
X1248409Y1480953D01*
X1247023Y1473986D01*
Y1469211D01*
X1242403Y1467297D01*
X1238164Y1471537D01*
Y1473986D01*
X1236778Y1480953D01*
X1232831Y1486861D01*
X1228269Y1489908D01*
X1228022Y1490763D01*
Y1494609D01*
X1228269Y1495464D01*
X1232831Y1498512D01*
X1236777Y1504419D01*
X1238164Y1511387D01*
Y1533041D01*
X1236777Y1540008D01*
X1232831Y1545916D01*
X1226923Y1549863D01*
X1219955Y1551249D01*
X1206197D01*
X1201930Y1555515D01*
X1203559Y1559448D01*
Y1566552D01*
X1200840Y1573116D01*
X1195817Y1578139D01*
X1189253Y1580858D01*
X1182149D01*
X1175585Y1578139D01*
X1170561Y1573116D01*
X1167843Y1566552D01*
Y1566365D01*
X1162843Y1564294D01*
X1134764Y1592372D01*
X1130464Y1595246D01*
X1125392Y1596255D01*
X1113446D01*
X1110937Y1598764D01*
Y1686414D01*
X1089559Y1707791D01*
Y1713410D01*
X1086840Y1719974D01*
X1081817Y1724998D01*
X1075253Y1727716D01*
X1069634D01*
X1057751Y1739600D01*
Y1746010D01*
X1055032Y1752574D01*
X1050008Y1757597D01*
X1047496Y1758638D01*
X1046323Y1764536D01*
X1171569Y1889781D01*
X1173309Y1892386D01*
X1173522Y1893458D01*
X1619892D01*
X1666892Y1846458D01*
D02*
G37*
G36*
X906740Y854961D02*
X906537Y848092D01*
X904561Y846116D01*
X901843Y839552D01*
Y832448D01*
X904561Y825884D01*
X909585Y820861D01*
X916149Y818142D01*
X923253D01*
X929817Y820861D01*
X934840Y825884D01*
X935655Y826046D01*
X1011047Y750654D01*
X1086585Y675115D01*
Y507504D01*
X1081216Y502135D01*
X1079476Y499530D01*
X1078865Y496458D01*
Y173000D01*
X1005214D01*
X1003143Y178000D01*
X1008848Y183705D01*
X1013941Y192526D01*
X1016577Y202365D01*
Y212551D01*
X1013941Y222390D01*
X1008848Y231211D01*
X1001645Y238414D01*
X992824Y243507D01*
X982985Y246143D01*
X972799D01*
X962961Y243507D01*
X954139Y238414D01*
X946937Y231211D01*
X941844Y222390D01*
X939207Y212551D01*
Y202365D01*
X941844Y192526D01*
X942712Y191022D01*
X924689Y173000D01*
X836263D01*
Y178198D01*
X751792D01*
X749119Y183198D01*
X751882Y187332D01*
X753550Y195721D01*
X757815Y199911D01*
X766703D01*
X772903Y201144D01*
X778159Y204656D01*
X781671Y209912D01*
X782904Y216112D01*
Y253513D01*
X781671Y259713D01*
X779225Y263375D01*
X779312Y263663D01*
X784336Y268686D01*
X787054Y275250D01*
Y282354D01*
X784336Y288918D01*
X779312Y293942D01*
X778644Y294218D01*
X778332Y297391D01*
X778519Y299682D01*
X781671Y304400D01*
X782904Y310600D01*
Y314007D01*
X804066D01*
X866997Y251075D01*
X869561Y244884D01*
X874585Y239861D01*
X881149Y237142D01*
X888253D01*
X894817Y239861D01*
X899840Y244884D01*
X902559Y251448D01*
Y258552D01*
X899840Y265116D01*
X897814Y267142D01*
X899885Y272142D01*
X901253D01*
X907817Y274861D01*
X912840Y279884D01*
X915559Y286448D01*
Y293552D01*
X912840Y300116D01*
X907817Y305139D01*
X901253Y307858D01*
X894149D01*
X887585Y305139D01*
X882561Y300116D01*
X879843Y293552D01*
Y288558D01*
X874843Y286487D01*
X821215Y340115D01*
X816253Y343430D01*
X810400Y344594D01*
X782904D01*
Y348001D01*
X781671Y354201D01*
X778159Y359457D01*
X772903Y362969D01*
X766703Y364202D01*
X752924D01*
X746724Y362969D01*
X741468Y359457D01*
X737956Y354201D01*
X736723Y348001D01*
Y310600D01*
X737956Y304400D01*
X741468Y299144D01*
X746724Y295632D01*
X751907Y294601D01*
X753025Y291840D01*
X753121Y289399D01*
X752850Y289217D01*
X748999Y285366D01*
X745684Y280405D01*
X744520Y274552D01*
Y268011D01*
X743193Y266938D01*
X740214Y265332D01*
X735502Y268481D01*
X729302Y269714D01*
X715522D01*
X709322Y268481D01*
X704067Y264969D01*
X699690Y267419D01*
X698100Y268481D01*
X691900Y269714D01*
X678121D01*
X671921Y268481D01*
X666665Y264969D01*
X664062Y261073D01*
X630927D01*
X622538Y259404D01*
X618633Y256795D01*
X613633Y259467D01*
Y292828D01*
X545651D01*
Y324458D01*
X546989Y326088D01*
X613633D01*
Y407937D01*
X618633Y411371D01*
X623003Y410502D01*
X644656D01*
X651624Y411888D01*
X657531Y415835D01*
X661478Y421742D01*
X662864Y428710D01*
Y446426D01*
X661478Y453394D01*
X657531Y459302D01*
X651624Y463249D01*
X648745Y463821D01*
X646298Y469112D01*
X646639Y469721D01*
X648600Y471310D01*
X676995D01*
X684565Y472307D01*
X691620Y475229D01*
X697678Y479877D01*
X702326Y485935D01*
X705248Y492990D01*
X706245Y500560D01*
X705248Y508131D01*
X702326Y515185D01*
X697678Y521243D01*
X691620Y525892D01*
X684565Y528814D01*
X676995Y529811D01*
X633829D01*
X626259Y528814D01*
X623393Y527627D01*
X623003D01*
X616035Y526241D01*
X610128Y522294D01*
X606476Y516828D01*
X602330Y516282D01*
X595276Y513360D01*
X593023Y511631D01*
X588023Y514097D01*
Y525167D01*
X586789Y531366D01*
X583277Y536622D01*
Y537333D01*
X586789Y542589D01*
X588023Y548789D01*
Y562568D01*
X586789Y568768D01*
X583277Y574024D01*
X578021Y577536D01*
X572718Y578591D01*
X570826Y580870D01*
X569451Y583769D01*
X570751Y586906D01*
Y594010D01*
X568032Y600574D01*
X563008Y605597D01*
X556445Y608316D01*
X549340D01*
X542777Y605597D01*
X537753Y600574D01*
X535034Y594010D01*
Y586906D01*
X536333Y583769D01*
X535493Y581573D01*
X533101Y578507D01*
X528220Y577536D01*
X522964Y574024D01*
X519452Y568768D01*
X518219Y562568D01*
Y548789D01*
X519452Y542589D01*
X519592Y542379D01*
X517679Y537760D01*
X515114Y537250D01*
X508002Y532498D01*
X490530Y515025D01*
X485778Y507913D01*
X484931Y503655D01*
X424042D01*
Y458096D01*
X464650D01*
Y439551D01*
X464650Y439551D01*
X465737Y434088D01*
X466843Y432433D01*
Y428134D01*
X467318Y426985D01*
X464541Y422828D01*
X438152D01*
Y326088D01*
X438152D01*
X438867Y325217D01*
X438716Y324458D01*
Y292828D01*
X438152D01*
Y246081D01*
X433533Y244168D01*
X407452Y270249D01*
Y552455D01*
X412452Y555796D01*
X415340Y554600D01*
X416880D01*
X419065Y552415D01*
X423365Y549542D01*
X423731Y549469D01*
Y548789D01*
X424964Y542589D01*
X428476Y537333D01*
X433732Y533821D01*
X439932Y532587D01*
X477333D01*
X483533Y533821D01*
X488789Y537333D01*
X492301Y542589D01*
X493534Y548789D01*
Y562568D01*
X492301Y568768D01*
X488789Y574024D01*
X483533Y577536D01*
X477333Y578769D01*
X439932D01*
X435937Y577975D01*
X434032Y582574D01*
X429008Y587597D01*
X422445Y590316D01*
X415340D01*
X412452Y589120D01*
X407452Y592461D01*
Y897751D01*
X421892Y912191D01*
X448795D01*
X451708Y912770D01*
X456708Y909734D01*
Y857488D01*
X458552Y848216D01*
X463804Y840355D01*
X471665Y835103D01*
X480937Y833259D01*
X510464D01*
X511826Y833530D01*
X514056D01*
X517513Y828529D01*
X516565Y823764D01*
X517346Y819836D01*
X513496Y814836D01*
X457349D01*
Y737466D01*
X534719D01*
Y791052D01*
X539338Y792966D01*
X540506Y791799D01*
X546790Y787599D01*
X554204Y786125D01*
X568731D01*
X574379Y782351D01*
X581346Y780965D01*
X599063D01*
X606031Y782351D01*
X611938Y786298D01*
X615885Y792205D01*
X617271Y799173D01*
Y820827D01*
X615885Y827795D01*
X611938Y833702D01*
X611643Y835184D01*
X613132Y837412D01*
X614607Y844825D01*
Y861314D01*
X617070Y865000D01*
X618456Y871968D01*
Y893621D01*
X617070Y900589D01*
X613123Y906497D01*
X607215Y910444D01*
X600247Y911830D01*
X582531D01*
X575563Y910444D01*
X569656Y906497D01*
X567163Y902766D01*
X562576Y903956D01*
X562130Y904232D01*
X561236Y908727D01*
X558594Y912680D01*
Y915761D01*
X561236Y919714D01*
X562163Y924378D01*
Y930283D01*
X561934Y931438D01*
X565795Y936438D01*
X583528D01*
X590495Y937824D01*
X596403Y941771D01*
X600350Y947678D01*
X600861Y950249D01*
X610851D01*
X615923Y951258D01*
X620223Y954131D01*
X638092Y972000D01*
X656461D01*
X659802Y967000D01*
X658798Y964574D01*
Y957470D01*
X661516Y950906D01*
X666540Y945883D01*
X673104Y943164D01*
X680208D01*
X686772Y945883D01*
X691795Y950906D01*
X694514Y957470D01*
Y961202D01*
X705312Y972000D01*
X708261D01*
X710342Y970609D01*
X717310Y969223D01*
X724278Y970609D01*
X726359Y972000D01*
X789701D01*
X906740Y854961D01*
D02*
G37*
%LPC*%
G36*
X1397632Y1790458D02*
X1388153D01*
X1378997Y1788005D01*
X1370788Y1783265D01*
X1364085Y1776563D01*
X1359346Y1768354D01*
X1356893Y1759198D01*
Y1749719D01*
X1359346Y1740563D01*
X1364085Y1732354D01*
X1370788Y1725651D01*
X1378997Y1720912D01*
X1388153Y1718458D01*
X1397632D01*
X1406788Y1720912D01*
X1414997Y1725651D01*
X1421700Y1732354D01*
X1426439Y1740563D01*
X1428893Y1749719D01*
Y1759198D01*
X1426439Y1768354D01*
X1421700Y1776563D01*
X1414997Y1783265D01*
X1406788Y1788005D01*
X1397632Y1790458D01*
D02*
G37*
G36*
X1297632D02*
X1288153D01*
X1278997Y1788005D01*
X1270788Y1783265D01*
X1264085Y1776563D01*
X1259346Y1768354D01*
X1256892Y1759198D01*
Y1749719D01*
X1259346Y1740563D01*
X1264085Y1732354D01*
X1270788Y1725651D01*
X1278997Y1720912D01*
X1288153Y1718458D01*
X1297632D01*
X1306788Y1720912D01*
X1314997Y1725651D01*
X1321700Y1732354D01*
X1326439Y1740563D01*
X1328892Y1749719D01*
Y1759198D01*
X1326439Y1768354D01*
X1321700Y1776563D01*
X1314997Y1783265D01*
X1306788Y1788005D01*
X1297632Y1790458D01*
D02*
G37*
G36*
X1597632Y1790458D02*
X1588153D01*
X1578997Y1788005D01*
X1570788Y1783265D01*
X1564085Y1776562D01*
X1559346Y1768353D01*
X1556893Y1759197D01*
Y1749718D01*
X1559346Y1740562D01*
X1564085Y1732353D01*
X1570788Y1725651D01*
X1578997Y1720911D01*
X1588153Y1718458D01*
X1597632D01*
X1606788Y1720911D01*
X1614997Y1725651D01*
X1621700Y1732353D01*
X1626439Y1740562D01*
X1628893Y1749718D01*
Y1759197D01*
X1626439Y1768353D01*
X1621700Y1776562D01*
X1614997Y1783265D01*
X1606788Y1788005D01*
X1597632Y1790458D01*
D02*
G37*
G36*
X1497632Y1790458D02*
X1488153D01*
X1478997Y1788005D01*
X1470788Y1783265D01*
X1464085Y1776562D01*
X1459346Y1768353D01*
X1456893Y1759197D01*
Y1749718D01*
X1459346Y1740562D01*
X1464085Y1732353D01*
X1470788Y1725651D01*
X1478997Y1720911D01*
X1488153Y1718458D01*
X1497632D01*
X1506788Y1720911D01*
X1514997Y1725651D01*
X1521700Y1732353D01*
X1526439Y1740562D01*
X1528893Y1749718D01*
Y1759197D01*
X1526439Y1768353D01*
X1521700Y1776562D01*
X1514997Y1783265D01*
X1506788Y1788005D01*
X1497632Y1790458D01*
D02*
G37*
G36*
X1197632D02*
X1188153D01*
X1178997Y1788005D01*
X1170788Y1783265D01*
X1164085Y1776562D01*
X1159346Y1768353D01*
X1156892Y1759197D01*
Y1749718D01*
X1159346Y1740562D01*
X1164085Y1732353D01*
X1170788Y1725651D01*
X1172895Y1724435D01*
Y1715165D01*
X1174563Y1706776D01*
X1179315Y1699664D01*
X1201877Y1677102D01*
X1205111Y1674941D01*
Y1647214D01*
X1206803Y1638710D01*
X1211620Y1631500D01*
X1218829Y1626683D01*
X1227333Y1624992D01*
X1252924D01*
X1261428Y1626683D01*
X1268637Y1631500D01*
X1273455Y1638710D01*
X1275146Y1647214D01*
Y1675000D01*
Y1692489D01*
X1273455Y1700994D01*
X1268637Y1708203D01*
X1261428Y1713020D01*
X1252924Y1714712D01*
X1227333D01*
X1226446Y1714535D01*
X1218048Y1722934D01*
D01*
X1216737Y1724245D01*
Y1727391D01*
X1218048Y1728702D01*
X1221700Y1732353D01*
X1226439Y1740562D01*
X1228892Y1749718D01*
Y1759197D01*
X1226439Y1768353D01*
X1221700Y1776562D01*
X1214997Y1783265D01*
X1206788Y1788005D01*
X1197632Y1790458D01*
D02*
G37*
G36*
X1498027Y1693458D02*
X1487758D01*
X1477839Y1690800D01*
X1468946Y1685666D01*
X1461685Y1678405D01*
X1459719Y1675000D01*
X1456550Y1669512D01*
X1453893Y1659593D01*
Y1649324D01*
X1456550Y1639405D01*
X1461685Y1630512D01*
X1468946Y1623251D01*
X1477839Y1618116D01*
X1487758Y1615458D01*
X1498027D01*
X1507946Y1618116D01*
X1516839Y1623251D01*
X1524100Y1630512D01*
X1529235Y1639405D01*
X1531893Y1649324D01*
Y1659593D01*
X1529235Y1669512D01*
X1526066Y1675000D01*
X1524100Y1678405D01*
X1516839Y1685666D01*
X1507946Y1690800D01*
X1498027Y1693458D01*
D02*
G37*
G36*
X1398027D02*
X1387758D01*
X1377839Y1690800D01*
X1368946Y1685666D01*
X1361685Y1678405D01*
X1359719Y1675000D01*
X1356550Y1669512D01*
X1353892Y1659593D01*
Y1649324D01*
X1356550Y1639405D01*
X1361685Y1630512D01*
X1368946Y1623251D01*
X1377839Y1618116D01*
X1387758Y1615458D01*
X1398027D01*
X1407946Y1618116D01*
X1416839Y1623251D01*
X1424100Y1630512D01*
X1429235Y1639405D01*
X1431892Y1649324D01*
Y1659593D01*
X1429235Y1669512D01*
X1426066Y1675000D01*
X1424100Y1678405D01*
X1416839Y1685666D01*
X1407946Y1690800D01*
X1398027Y1693458D01*
D02*
G37*
G36*
X1598027Y1593458D02*
X1587758D01*
X1577839Y1590801D01*
X1568946Y1585666D01*
X1561685Y1578405D01*
X1556550Y1569512D01*
X1553892Y1559593D01*
Y1549324D01*
X1556550Y1539405D01*
X1561685Y1530512D01*
X1568946Y1523251D01*
X1577839Y1518116D01*
X1587758Y1515458D01*
X1598027D01*
X1607946Y1518116D01*
X1616839Y1523251D01*
X1624100Y1530512D01*
X1629235Y1539405D01*
X1631892Y1549324D01*
Y1559593D01*
X1629235Y1569512D01*
X1624100Y1578405D01*
X1616839Y1585666D01*
X1607946Y1590801D01*
X1598027Y1593458D01*
D02*
G37*
G36*
X1398027Y1593458D02*
X1387758D01*
X1377839Y1590800D01*
X1368946Y1585666D01*
X1361685Y1578405D01*
X1356550Y1569512D01*
X1353892Y1559593D01*
Y1549324D01*
X1356550Y1539405D01*
X1361685Y1530512D01*
X1368946Y1523251D01*
X1377839Y1518116D01*
X1387758Y1515458D01*
X1398027D01*
X1407946Y1518116D01*
X1416839Y1523251D01*
X1424100Y1530512D01*
X1429235Y1539405D01*
X1431892Y1549324D01*
Y1559593D01*
X1429235Y1569512D01*
X1424100Y1578405D01*
X1416839Y1585666D01*
X1407946Y1590800D01*
X1398027Y1593458D01*
D02*
G37*
G36*
X1498027Y1593458D02*
X1487758D01*
X1477839Y1590800D01*
X1468946Y1585666D01*
X1461685Y1578405D01*
X1456550Y1569512D01*
X1453893Y1559592D01*
Y1549324D01*
X1456550Y1539405D01*
X1461685Y1530512D01*
X1468946Y1523250D01*
X1477839Y1518116D01*
X1487758Y1515458D01*
X1498027D01*
X1507946Y1518116D01*
X1516839Y1523250D01*
X1524100Y1530512D01*
X1529235Y1539405D01*
X1531893Y1549324D01*
Y1559592D01*
X1529235Y1569512D01*
X1524100Y1578405D01*
X1516839Y1585666D01*
X1507946Y1590800D01*
X1498027Y1593458D01*
D02*
G37*
G36*
X1598027Y1493458D02*
X1587758D01*
X1577839Y1490801D01*
X1568946Y1485666D01*
X1561685Y1478405D01*
X1556550Y1469512D01*
X1553892Y1459593D01*
Y1449458D01*
D01*
Y1449324D01*
X1556550Y1439405D01*
X1561685Y1430512D01*
X1568946Y1423251D01*
X1577839Y1418116D01*
X1587758Y1415458D01*
X1598027D01*
X1607946Y1418116D01*
X1616839Y1423251D01*
X1624100Y1430512D01*
X1629235Y1439405D01*
X1631892Y1449324D01*
Y1449458D01*
Y1459593D01*
X1629235Y1469512D01*
X1624100Y1478405D01*
X1616839Y1485666D01*
X1607946Y1490801D01*
X1598027Y1493458D01*
D02*
G37*
G36*
X1498027D02*
X1487758D01*
X1477839Y1490801D01*
X1468946Y1485666D01*
X1461685Y1478405D01*
X1456550Y1469512D01*
X1453893Y1459593D01*
Y1449458D01*
D01*
Y1449324D01*
X1456550Y1439405D01*
X1461685Y1430512D01*
X1468946Y1423251D01*
X1477839Y1418116D01*
X1487758Y1415458D01*
X1498027D01*
X1507946Y1418116D01*
X1516839Y1423251D01*
X1524100Y1430512D01*
X1529235Y1439405D01*
X1531893Y1449324D01*
Y1449458D01*
Y1459593D01*
X1529235Y1469512D01*
X1524100Y1478405D01*
X1516839Y1485666D01*
X1507946Y1490801D01*
X1498027Y1493458D01*
D02*
G37*
G36*
X1398027Y1493458D02*
X1387758D01*
X1377839Y1490800D01*
X1368946Y1485666D01*
X1361685Y1478405D01*
X1356550Y1469512D01*
X1353892Y1459593D01*
Y1449458D01*
D01*
Y1449324D01*
X1356550Y1439405D01*
X1361685Y1430512D01*
X1368946Y1423251D01*
X1377839Y1418116D01*
X1387758Y1415458D01*
X1398027D01*
X1407946Y1418116D01*
X1416839Y1423251D01*
X1424100Y1430512D01*
X1429235Y1439405D01*
X1431892Y1449324D01*
Y1449458D01*
Y1459593D01*
X1429235Y1469512D01*
X1424100Y1478405D01*
X1416839Y1485666D01*
X1407946Y1490800D01*
X1398027Y1493458D01*
D02*
G37*
G36*
X1431392Y1392958D02*
X1354392D01*
Y1315958D01*
X1431392D01*
Y1392958D01*
D02*
G37*
G36*
X1631392Y1392958D02*
X1554392D01*
Y1315958D01*
X1631392D01*
Y1392958D01*
D02*
G37*
G36*
X1531393D02*
X1454393D01*
Y1315958D01*
X1531393D01*
Y1392958D01*
D02*
G37*
G36*
X1597632Y1290458D02*
X1588153D01*
X1578997Y1288005D01*
X1570788Y1283265D01*
X1564085Y1276563D01*
X1559346Y1268354D01*
X1556892Y1259198D01*
Y1249719D01*
X1559346Y1240563D01*
X1564085Y1232354D01*
X1570788Y1225651D01*
X1578997Y1220912D01*
X1588153Y1218458D01*
X1597632D01*
X1606788Y1220912D01*
X1614997Y1225651D01*
X1621700Y1232354D01*
X1626439Y1240563D01*
X1628892Y1249719D01*
Y1259198D01*
X1626439Y1268354D01*
X1621700Y1276563D01*
X1614997Y1283265D01*
X1606788Y1288005D01*
X1597632Y1290458D01*
D02*
G37*
G36*
X1797632Y1290458D02*
X1788153D01*
X1778997Y1288005D01*
X1770788Y1283265D01*
X1764085Y1276563D01*
X1759346Y1268354D01*
X1756892Y1259198D01*
Y1249719D01*
X1759346Y1240563D01*
X1764085Y1232354D01*
X1770788Y1225651D01*
X1778997Y1220911D01*
X1788153Y1218458D01*
X1797632D01*
X1806788Y1220911D01*
X1814997Y1225651D01*
X1821700Y1232354D01*
X1826439Y1240563D01*
X1828892Y1249719D01*
Y1259198D01*
X1826439Y1268354D01*
X1821700Y1276563D01*
X1814997Y1283265D01*
X1806788Y1288005D01*
X1797632Y1290458D01*
D02*
G37*
G36*
X1297632D02*
X1288153D01*
X1278997Y1288005D01*
X1270788Y1283265D01*
X1264085Y1276563D01*
X1259346Y1268354D01*
X1256892Y1259198D01*
Y1249719D01*
X1259346Y1240563D01*
X1264085Y1232354D01*
X1270788Y1225651D01*
X1278997Y1220911D01*
X1288153Y1218458D01*
X1297632D01*
X1306788Y1220911D01*
X1314997Y1225651D01*
X1321700Y1232354D01*
X1326439Y1240563D01*
X1328892Y1249719D01*
Y1259198D01*
X1326439Y1268354D01*
X1321700Y1276563D01*
X1314997Y1283265D01*
X1306788Y1288005D01*
X1297632Y1290458D01*
D02*
G37*
G36*
X1497632Y1290458D02*
X1488153D01*
X1478997Y1288005D01*
X1470788Y1283265D01*
X1464085Y1276562D01*
X1459346Y1268353D01*
X1456893Y1259197D01*
Y1249718D01*
X1459346Y1240562D01*
X1464085Y1232353D01*
X1470788Y1225651D01*
X1478997Y1220911D01*
X1488153Y1218458D01*
X1497632D01*
X1506788Y1220911D01*
X1514997Y1225651D01*
X1521700Y1232353D01*
X1526439Y1240562D01*
X1528893Y1249718D01*
Y1259197D01*
X1526439Y1268353D01*
X1521700Y1276562D01*
X1514997Y1283265D01*
X1506788Y1288005D01*
X1497632Y1290458D01*
D02*
G37*
G36*
X1397632D02*
X1388153D01*
X1378997Y1288005D01*
X1370788Y1283265D01*
X1364085Y1276562D01*
X1359346Y1268353D01*
X1356893Y1259197D01*
Y1249718D01*
X1359346Y1240562D01*
X1364085Y1232353D01*
X1370788Y1225651D01*
X1378997Y1220911D01*
X1388153Y1218458D01*
X1397632D01*
X1406788Y1220911D01*
X1414997Y1225651D01*
X1421700Y1232353D01*
X1426439Y1240562D01*
X1428893Y1249718D01*
Y1259197D01*
X1426439Y1268353D01*
X1421700Y1276562D01*
X1414997Y1283265D01*
X1406788Y1288005D01*
X1397632Y1290458D01*
D02*
G37*
G36*
X1697632Y1290458D02*
X1688153D01*
X1678997Y1288005D01*
X1670788Y1283265D01*
X1664085Y1276562D01*
X1659346Y1268353D01*
X1656892Y1259197D01*
Y1249718D01*
X1659346Y1240562D01*
X1664085Y1232353D01*
X1670788Y1225651D01*
X1678997Y1220911D01*
X1688153Y1218458D01*
X1697632D01*
X1706788Y1220911D01*
X1714997Y1225651D01*
X1721699Y1232353D01*
X1726439Y1240562D01*
X1728892Y1249718D01*
Y1259197D01*
X1726439Y1268353D01*
X1721699Y1276562D01*
X1714997Y1283265D01*
X1706788Y1288005D01*
X1697632Y1290458D01*
D02*
G37*
G36*
X1424413Y1167196D02*
X1410232D01*
X1396323Y1164429D01*
X1383222Y1159003D01*
X1371430Y1151124D01*
X1361403Y1141096D01*
X1353524Y1129305D01*
X1348097Y1116203D01*
X1345331Y1102295D01*
Y1088113D01*
X1348097Y1074205D01*
X1353524Y1061103D01*
X1361403Y1049312D01*
X1371430Y1039284D01*
X1383222Y1031406D01*
X1396323Y1025979D01*
X1410232Y1023212D01*
X1424413D01*
X1438322Y1025979D01*
X1451424Y1031406D01*
X1463215Y1039284D01*
X1473243Y1049312D01*
X1481121Y1061103D01*
X1486548Y1074205D01*
X1489315Y1088113D01*
Y1102295D01*
X1486548Y1116203D01*
X1481121Y1129305D01*
X1473243Y1141096D01*
X1463215Y1151124D01*
X1451424Y1159003D01*
X1438322Y1164429D01*
X1424413Y1167196D01*
D02*
G37*
G36*
X1519325Y965891D02*
X1430459D01*
Y877025D01*
X1519325D01*
Y965891D01*
D02*
G37*
G36*
X1380742D02*
X1369043D01*
X1357742Y962863D01*
X1347610Y957013D01*
X1339337Y948740D01*
X1333487Y938608D01*
X1330459Y927308D01*
Y915608D01*
X1333487Y904307D01*
X1339337Y894175D01*
X1347610Y885903D01*
X1357742Y880053D01*
X1369043Y877025D01*
X1380742D01*
X1392043Y880053D01*
X1402175Y885903D01*
X1410448Y894175D01*
X1416297Y904307D01*
X1419325Y915608D01*
Y927308D01*
X1416297Y938608D01*
X1410448Y948740D01*
X1402175Y957013D01*
X1392043Y962863D01*
X1380742Y965891D01*
D02*
G37*
G36*
X1513392Y859958D02*
X1436392D01*
Y782958D01*
X1513392D01*
Y859958D01*
D02*
G37*
G36*
X1380027Y860458D02*
X1369758D01*
X1359839Y857800D01*
X1350946Y852666D01*
X1343685Y845404D01*
X1338550Y836511D01*
X1335892Y826592D01*
Y816323D01*
X1338550Y806404D01*
X1343685Y797511D01*
X1350946Y790250D01*
X1359839Y785116D01*
X1369758Y782458D01*
X1380027D01*
X1389946Y785116D01*
X1398839Y790250D01*
X1406100Y797511D01*
X1411235Y806404D01*
X1413892Y816323D01*
Y826592D01*
X1411235Y836511D01*
X1406100Y845404D01*
X1398839Y852666D01*
X1389946Y857800D01*
X1380027Y860458D01*
D02*
G37*
G36*
X774877Y932946D02*
X697507D01*
Y896049D01*
X680965D01*
X680062Y900589D01*
X676115Y906497D01*
X670207Y910444D01*
X663240Y911830D01*
X645523D01*
X638555Y910444D01*
X632648Y906497D01*
X628701Y900589D01*
X627315Y893621D01*
Y871968D01*
X628701Y865000D01*
X632648Y859093D01*
X638555Y855146D01*
X645523Y853760D01*
X663240D01*
X670207Y855146D01*
X676115Y859093D01*
X680062Y865000D01*
X680965Y869540D01*
X697507D01*
Y855576D01*
X774877D01*
Y857671D01*
X783367D01*
X783879Y855099D01*
X787826Y849192D01*
X793733Y845245D01*
X800701Y843859D01*
X822354D01*
X829322Y845245D01*
X835230Y849192D01*
X839177Y855099D01*
X840562Y862067D01*
Y879784D01*
X839177Y886752D01*
X835230Y892659D01*
X829322Y896606D01*
X822354Y897992D01*
X800701D01*
X793733Y896606D01*
X787826Y892659D01*
X783879Y886752D01*
X783367Y884180D01*
X774877D01*
Y932946D01*
D02*
G37*
G36*
X677874Y782872D02*
X671969D01*
X667305Y781944D01*
X663351Y779303D01*
X660709Y775349D01*
X659782Y770685D01*
Y731315D01*
X660361Y728403D01*
X657324Y723403D01*
X605079D01*
X595807Y721558D01*
X587946Y716306D01*
X582694Y708445D01*
X582510Y707521D01*
X520948D01*
X519787Y708681D01*
X510966Y713774D01*
X501127Y716411D01*
X490941D01*
X481102Y713774D01*
X472281Y708681D01*
X465078Y701479D01*
X459985Y692657D01*
X457349Y682819D01*
Y672633D01*
X459985Y662794D01*
X465078Y653972D01*
X472281Y646770D01*
X481102Y641677D01*
X490941Y639041D01*
X501127D01*
X510966Y641677D01*
X519787Y646770D01*
X526990Y653972D01*
X532083Y662794D01*
X532320Y663678D01*
X581120D01*
Y630134D01*
X582048Y625470D01*
X584690Y621516D01*
X588643Y618875D01*
X593307Y617947D01*
X599213D01*
X603876Y618875D01*
X605802Y620161D01*
X609370Y621108D01*
X612938Y620161D01*
X614324Y619236D01*
X614390Y619063D01*
X614717Y616450D01*
X614559Y613837D01*
X610128Y610876D01*
X606181Y604969D01*
X604795Y598001D01*
Y576348D01*
X606181Y569380D01*
X610128Y563472D01*
X616035Y559525D01*
X623003Y558139D01*
X625003D01*
X636222Y546920D01*
X643333Y542168D01*
X651722Y540500D01*
X659019D01*
X667408Y542168D01*
X674520Y546920D01*
X679272Y554032D01*
X680940Y562421D01*
X679272Y570810D01*
X674520Y577922D01*
X667408Y582673D01*
X661245Y583899D01*
X658927Y586217D01*
Y598001D01*
X657541Y604969D01*
X653594Y610876D01*
X650495Y612947D01*
X651496Y617266D01*
X651930Y618002D01*
X656317Y618875D01*
X660271Y621516D01*
X663351D01*
X667305Y618875D01*
X671969Y617947D01*
X677874D01*
X682538Y618875D01*
X686492Y621516D01*
X689133Y625470D01*
X690061Y630134D01*
Y668285D01*
X690332Y669646D01*
Y699173D01*
X688487Y708445D01*
X685404Y713061D01*
X687008Y718196D01*
X687777Y718882D01*
X689183Y719263D01*
X691585Y716861D01*
X698149Y714142D01*
X705253D01*
X711817Y716861D01*
X716840Y721884D01*
X719559Y728448D01*
Y735552D01*
X716840Y742116D01*
X711817Y747139D01*
X705253Y749858D01*
X698149D01*
X695257Y748661D01*
X693213Y750027D01*
X690061Y750654D01*
Y770685D01*
X689133Y775349D01*
X686491Y779303D01*
X682538Y781944D01*
X677874Y782872D01*
D02*
G37*
G36*
X952603Y664388D02*
X938422D01*
X924513Y661621D01*
X911411Y656194D01*
X899620Y648315D01*
X889592Y638288D01*
X881714Y626496D01*
X876287Y613395D01*
X873520Y599486D01*
Y585305D01*
X876287Y571396D01*
X881714Y558294D01*
X889592Y546503D01*
X899620Y536476D01*
X911411Y528597D01*
X924513Y523170D01*
X938422Y520403D01*
X952603D01*
X966511Y523170D01*
X979613Y528597D01*
X991404Y536476D01*
X1001432Y546503D01*
X1009311Y558294D01*
X1014737Y571396D01*
X1017504Y585305D01*
Y599486D01*
X1014737Y613395D01*
X1009311Y626496D01*
X1001432Y638288D01*
X991404Y648315D01*
X979613Y656194D01*
X966511Y661621D01*
X952603Y664388D01*
D02*
G37*
G36*
X707790Y363891D02*
X662231D01*
Y322765D01*
X658877Y320524D01*
X658570Y320217D01*
X657159D01*
X650595Y317498D01*
X645572Y312475D01*
X642853Y305911D01*
Y298807D01*
X645572Y292243D01*
X650595Y287219D01*
X657159Y284501D01*
X664264D01*
X670827Y287219D01*
X675851Y292243D01*
X676751Y294416D01*
X677231D01*
X678709Y294710D01*
X707790D01*
Y363891D01*
D02*
G37*
%LPD*%
D10*
X483205Y1362000D02*
D03*
X546197D02*
D03*
X845388Y1588458D02*
D03*
X782396D02*
D03*
X1614173Y1015748D02*
D03*
X1677165D02*
D03*
X1274089Y1522214D02*
D03*
X1211097D02*
D03*
X1211097Y1463159D02*
D03*
X1274089D02*
D03*
X1042396Y1526458D02*
D03*
X1105389D02*
D03*
X2106270Y1299773D02*
D03*
X2043278D02*
D03*
X1988160Y1236781D02*
D03*
X1925168D02*
D03*
X1791310Y957253D02*
D03*
X1854302D02*
D03*
X1972412D02*
D03*
X1909420D02*
D03*
X694853Y587174D02*
D03*
X631861D02*
D03*
X590205Y810000D02*
D03*
X653197D02*
D03*
X591389Y882795D02*
D03*
X654381D02*
D03*
D11*
X1303150Y665354D02*
D03*
Y728346D02*
D03*
X811528Y870926D02*
D03*
Y807933D02*
D03*
X1029892Y1396954D02*
D03*
Y1333962D02*
D03*
X2045247Y1242686D02*
D03*
Y1179694D02*
D03*
X2106270Y1240718D02*
D03*
Y1177726D02*
D03*
X909420Y53710D02*
D03*
Y116702D02*
D03*
X633829Y500560D02*
D03*
Y437568D02*
D03*
X572701Y963504D02*
D03*
Y1026496D02*
D03*
X430701Y1003504D02*
D03*
Y1066496D02*
D03*
D12*
X1240129Y1669852D02*
D03*
X1129892D02*
D03*
D29*
X549430Y1261729D02*
D03*
X593972Y1306271D02*
D03*
X896991Y1253880D02*
D03*
X941534Y1298422D02*
D03*
X753163Y1490729D02*
D03*
X708621Y1446187D02*
D03*
X760460Y1045893D02*
D03*
X715918Y1001351D02*
D03*
D30*
X2324948Y960332D02*
D03*
X1349727Y227159D02*
D03*
X784144Y1746072D02*
D03*
D31*
X513209Y685600D02*
X635591D01*
X495701Y888000D02*
Y984479D01*
X496034Y984812D01*
X1219701Y749000D02*
X1270701D01*
X1286138Y733563D01*
X1297933D02*
X1303150Y728346D01*
X1286138Y733563D02*
X1297933D01*
X630927Y239152D02*
X683731D01*
X685010Y237872D01*
Y156946D02*
Y237872D01*
X505701Y455000D02*
X506030Y455329D01*
Y499524D01*
X523503Y516997D01*
X551841D01*
X553121Y518277D01*
X554400Y519556D01*
X554408Y459942D02*
X564231Y469765D01*
X525892Y374458D02*
X527538D01*
X554408Y401328D01*
Y459942D01*
X695337Y281903D02*
X707389D01*
X695151Y281716D02*
X695337Y281903D01*
X707389D02*
X721133Y295647D01*
Y328021D02*
X722412Y329300D01*
X721133Y295647D02*
Y328021D01*
X631861Y587174D02*
X637078Y581958D01*
Y577066D02*
Y581958D01*
Y577066D02*
X651722Y562421D01*
X659019D01*
X723692Y203659D02*
X731629Y195721D01*
X722412Y234812D02*
X723692Y233533D01*
Y203659D02*
Y233533D01*
X909420Y53710D02*
X914637Y58926D01*
X927786D01*
X977892Y109033D01*
X787893Y80580D02*
Y90458D01*
Y80580D02*
X814763Y53710D01*
X909420D01*
X657892Y129828D02*
X685010Y156946D01*
X657892Y90458D02*
Y129828D01*
X505335Y677726D02*
X513209Y685600D01*
X496034Y677726D02*
X505335D01*
X1645799Y1529052D02*
Y1732963D01*
X1607482Y1808458D02*
X1644392Y1771547D01*
Y1734369D02*
Y1771547D01*
Y1734369D02*
X1645799Y1732963D01*
X1653892Y1518594D02*
Y1520958D01*
X1645799Y1529052D02*
X1653892Y1520958D01*
Y1518594D02*
X1703892Y1468594D01*
Y1458997D02*
Y1468594D01*
X1146893Y1808458D02*
X1607482D01*
X1092893Y1754458D02*
X1146893Y1808458D01*
X1125415Y1674329D02*
X1129892Y1669852D01*
X1125415Y1674329D02*
Y1721936D01*
X1092893Y1754458D02*
X1125415Y1721936D01*
X1240129Y1669852D02*
Y1679534D01*
X1227061Y1692602D02*
X1240129Y1679534D01*
X1217378Y1692602D02*
X1227061D01*
X1194816Y1715165D02*
X1217378Y1692602D01*
X1194816Y1715165D02*
Y1752535D01*
X1192892Y1754458D02*
X1194816Y1752535D01*
D32*
X432791Y1337696D02*
Y1365090D01*
X414791Y1372546D02*
X490316Y1448071D01*
X414791Y1337696D02*
Y1372546D01*
X432791Y1365090D02*
X497772Y1430071D01*
X432791Y1337696D02*
X437149Y1333338D01*
X410433Y1330709D02*
Y1333338D01*
X414791Y1337696D01*
X497772Y1430071D02*
X533328D01*
X490316Y1448071D02*
X525872D01*
X585701Y1530000D02*
X588330D01*
X592330Y1526000D01*
X655817D01*
X1843579Y1481148D02*
X1844034D01*
X1834034Y1471604D02*
X1843579Y1481148D01*
X1834034Y1467929D02*
Y1471604D01*
X1828762Y1462657D02*
X1834034Y1467929D01*
X1828762Y1462478D02*
Y1462657D01*
X1816358Y1393294D02*
X1833161Y1410098D01*
X1815255Y1393294D02*
X1816358D01*
X1808619Y1386658D02*
X1815255Y1393294D01*
X1805322Y1439039D02*
X1828762Y1462478D01*
X1805322Y1437936D02*
Y1439039D01*
X1788519Y1421133D02*
X1805322Y1437936D01*
X1781883Y1402625D02*
X1797850Y1386658D01*
X1788519Y1420030D02*
Y1421133D01*
X1797850Y1386658D02*
X1808619D01*
X1781883Y1413394D02*
X1788519Y1420030D01*
X1781883Y1402625D02*
Y1413394D01*
X1828104Y1503007D02*
X1853088D01*
X1859490Y1465692D02*
X1865892Y1472094D01*
Y1490202D01*
X1859490Y1464266D02*
Y1465692D01*
X1853088Y1503007D02*
X1865892Y1490202D01*
X1825225Y1493083D02*
Y1500128D01*
X1828104Y1503007D01*
X1816034Y1483892D02*
X1825225Y1493083D01*
X1816034Y1475384D02*
Y1483892D01*
X1819242Y1424017D02*
X1859490Y1464266D01*
X1791403Y1451856D02*
X1792505D01*
X1816034Y1475384D01*
X565377Y1462120D02*
X601703D01*
X518606Y1497905D02*
X529514Y1486996D01*
Y1460429D02*
Y1486996D01*
Y1460429D02*
X530558Y1459385D01*
X601703Y1462120D02*
X608683Y1455140D01*
X530558Y1452758D02*
Y1459385D01*
X525872Y1448071D02*
X530558Y1452758D01*
X533328Y1430071D02*
X565377Y1462120D01*
X509701Y1407000D02*
X547701D01*
X483205Y1362000D02*
X490544Y1369340D01*
Y1387844D01*
X509701Y1407000D01*
X437149Y1330709D02*
Y1333338D01*
X551514Y1540656D02*
X561356D01*
X600452Y1579751D01*
X549686Y1538828D02*
X551514Y1540656D01*
X655817Y1526000D02*
X666803Y1536986D01*
X690529D01*
X595188Y1477077D02*
X599591Y1481480D01*
X547827Y1536969D02*
X549686Y1538828D01*
X547701Y1407000D02*
X559701Y1419000D01*
X429110Y927331D02*
X430701Y928921D01*
Y1003504D01*
X623665Y871223D02*
Y902676D01*
Y871223D02*
X623678Y871210D01*
X623665Y902676D02*
X654798Y933808D01*
X674921Y739686D02*
X676827Y737781D01*
X688140D01*
X674921Y739686D02*
Y751000D01*
X688140Y737781D02*
X692062Y733859D01*
X699842D01*
X701701Y732000D01*
X1318701Y779000D02*
X1345701Y752000D01*
Y696000D02*
Y752000D01*
X1325694Y675993D02*
X1345701Y696000D01*
X1313788Y675993D02*
X1325694D01*
X1303150Y665354D02*
X1313788Y675993D01*
X1265148Y679104D02*
X1276151Y668101D01*
X1300403D02*
X1303150Y665354D01*
X1251929Y681009D02*
Y692323D01*
Y681009D02*
X1253835Y679104D01*
X1265148D01*
X1276151Y668101D02*
X1300403D01*
X1197380Y1540528D02*
X1215695Y1522214D01*
X1197380Y1540528D02*
Y1541320D01*
X1187450Y1551251D02*
X1197380Y1541320D01*
X1185701Y1563000D02*
X1187450Y1561251D01*
Y1551251D02*
Y1561251D01*
X1209192Y1463159D02*
X1211097D01*
X1274089D02*
Y1522214D01*
X1274089Y1522214D02*
X1274089Y1522214D01*
X1236050Y1425119D02*
X1274089Y1463159D01*
X1236050Y1424000D02*
Y1425119D01*
X1232893Y1163995D02*
Y1335808D01*
X1160892Y1407808D02*
Y1523458D01*
Y1407808D02*
X1232893Y1335808D01*
X1192893Y1254458D02*
Y1343953D01*
X1171034Y1302958D02*
X1172803Y1304727D01*
X1139993Y1396853D02*
X1192893Y1343953D01*
X1172803Y1304727D02*
Y1340001D01*
X1090794Y1564000D02*
X1120350D01*
X1041885Y1640324D02*
X1099209Y1583000D01*
X1125392D01*
X1089979Y1563186D02*
X1090794Y1564000D01*
X1125392Y1583000D02*
X1179892Y1528499D01*
X674968Y1134076D02*
X676621Y1135729D01*
X960701Y1155119D02*
Y1160041D01*
X930918Y1135584D02*
X941166D01*
X960701Y1155119D01*
Y1160041D02*
X970115Y1169455D01*
Y1169586D01*
X1083477Y1189848D02*
Y1192714D01*
Y1189848D02*
Y1189848D01*
X1677165Y1015748D02*
X1740158Y952756D01*
Y921260D02*
Y952756D01*
X1179892Y1492458D02*
Y1528499D01*
X654798Y933808D02*
Y980059D01*
X660643Y985905D01*
Y1049171D01*
X676656Y962089D02*
X715918Y1001351D01*
X676656Y961022D02*
Y962089D01*
X809781Y1073999D02*
Y1073999D01*
Y1073999D02*
X825682Y1058098D01*
X823999Y1056415D02*
X825682Y1058098D01*
X430701Y1003504D02*
X459197Y1032000D01*
X512701D01*
X541466Y1003235D01*
Y993044D02*
X543120Y991390D01*
X541466Y993044D02*
Y1003235D01*
X543120Y988761D02*
Y991390D01*
X538719Y984360D02*
X543120Y988761D01*
X626257Y1036444D02*
X637294Y1025406D01*
X572701Y963504D02*
X610851D01*
X637294Y989948D01*
X660643Y1049171D02*
X662035Y1050563D01*
X626257Y1036444D02*
Y1058226D01*
X637294Y989948D02*
Y1025406D01*
X615436Y999002D02*
Y1023223D01*
X606701Y1031958D02*
X615436Y1023223D01*
X606701Y1031958D02*
Y1062711D01*
X623345Y1079355D01*
X654373Y1086341D02*
X672481D01*
X626257Y1058226D02*
X654373Y1086341D01*
X672481D02*
X673743Y1085079D01*
X676621D01*
X869510Y788809D02*
X878428D01*
X812774Y807933D02*
X846842Y773866D01*
Y769859D02*
X848701Y768000D01*
X869510Y788809D01*
X846842Y769859D02*
Y773866D01*
X811528Y807933D02*
X812774D01*
X654381Y882795D02*
X724725D01*
X736192Y894261D01*
X572701Y1026496D02*
Y1060661D01*
X568346Y1065016D02*
X572701Y1060661D01*
X568346Y1065016D02*
Y1067645D01*
X759527Y870926D02*
X811528D01*
X736192Y894261D02*
X759527Y870926D01*
X1060223Y1287128D02*
X1092892Y1254458D01*
X1029892Y1333962D02*
X1031861D01*
X1060223Y1305600D01*
Y1287128D02*
Y1305600D01*
X674968Y1112796D02*
Y1134076D01*
Y1112796D02*
X676621Y1111142D01*
Y1085079D02*
Y1111142D01*
Y1085079D02*
X715808Y1045893D01*
X760460D01*
Y1032847D02*
Y1045893D01*
X1156701Y997000D02*
X1157878Y995823D01*
X1169022D01*
X1226459Y938386D01*
X721163Y1091187D02*
X740306Y1110329D01*
Y1134872D01*
X791643Y1186209D01*
X804643D01*
X804892Y1186458D01*
X1879507Y1191120D02*
X1925168Y1236781D01*
X1879230Y1191120D02*
X1879507D01*
X1678670Y1104680D02*
X1684365Y1098986D01*
X1678670Y1104680D02*
X1678670D01*
X811528Y870926D02*
X815591D01*
X1125701Y870649D02*
Y951000D01*
X1226459Y869891D02*
Y938386D01*
Y869891D02*
X1274892Y821458D01*
X1125701Y870649D02*
X1174892Y821458D01*
X1134892Y1090036D02*
Y1177546D01*
X974892Y921458D02*
X1065160Y1011725D01*
X1085433Y931998D02*
Y1016535D01*
X1232893Y1163995D01*
X1065160Y1011725D02*
Y1020304D01*
X1134892Y1090036D01*
X1115850Y1396954D02*
X1172803Y1340001D01*
X1124892Y1279026D02*
Y1316458D01*
Y1279026D02*
X1132892Y1271026D01*
X1139993Y1396853D02*
Y1496358D01*
X1029892Y1396954D02*
X1115850D01*
X1901231Y1405214D02*
X1904756D01*
X1895680Y1410764D02*
X1901231Y1405214D01*
X1861000Y1382259D02*
X1889505Y1410764D01*
X1895680D01*
X452524Y561787D02*
X458633Y555678D01*
X428437Y561787D02*
X452524D01*
X418892Y571332D02*
X428437Y561787D01*
X418892Y571332D02*
Y572458D01*
X552892Y555907D02*
X553121Y555678D01*
X552892Y555907D02*
Y590458D01*
X1132892Y1232144D02*
Y1271026D01*
X1126034Y1225286D02*
X1132892Y1232144D01*
X1126034Y1186404D02*
X1134892Y1177546D01*
X1126034Y1186404D02*
Y1225286D01*
X1074892Y921458D02*
X1085433Y931998D01*
X1042396Y1553962D02*
X1053892Y1565458D01*
X1042396Y1526458D02*
Y1553962D01*
X1925892Y1003773D02*
Y1085458D01*
Y1003773D02*
X1972412Y957253D01*
X1120350Y1564000D02*
X1160892Y1523458D01*
X1179892Y1492458D02*
X1209192Y1463159D01*
X845679Y148244D02*
Y152244D01*
X834576Y137142D02*
X845679Y148244D01*
Y152244D02*
X847538Y154104D01*
X909420Y116702D02*
X912167Y119449D01*
Y141732D01*
X977892Y207458D01*
X787893Y90458D02*
Y101772D01*
X823263Y137142D01*
X834576D01*
X851749Y1056415D02*
X853136Y1057802D01*
X823999Y1056415D02*
X851749D01*
X1925892Y1085458D02*
X1939420Y1098986D01*
X1975365D01*
X1684365D02*
X1752924D01*
X1670735Y1059616D02*
X1752924D01*
X1644892Y1085458D02*
X1670735Y1059616D01*
X1752924Y991119D02*
Y1020245D01*
X1754892Y1415458D02*
Y1430761D01*
X1777483Y1464673D02*
Y1465775D01*
X1754044Y1441233D02*
X1777483Y1464673D01*
X1754044Y1431609D02*
Y1441233D01*
Y1431609D02*
X1754892Y1430761D01*
X1814892Y1363990D02*
X1847081Y1396178D01*
X1732249Y1448380D02*
X1763564Y1479695D01*
X1732249Y1447957D02*
Y1448380D01*
X861033Y1617098D02*
X862892Y1618957D01*
X861033Y1608700D02*
Y1617098D01*
X1384192Y1463159D02*
X1392892Y1454458D01*
X1122578Y1513772D02*
X1139993Y1496358D01*
X743866Y1278458D02*
X755064Y1289657D01*
X757694D01*
X1105389Y1526458D02*
X1118074Y1513772D01*
X1122578D01*
X674892Y1412458D02*
X708621Y1446187D01*
X648892Y1412458D02*
X674892D01*
X753163Y1490729D02*
X772892Y1510458D01*
X786892D01*
X807034Y1531316D02*
X807892D01*
X782396Y1555954D02*
X807034Y1531316D01*
X782396Y1555954D02*
Y1588458D01*
X676621Y1135729D02*
X685163D01*
X718892Y1169458D01*
X845388Y1593056D02*
X861033Y1608700D01*
X845388Y1588458D02*
Y1593056D01*
X862892Y1618957D02*
X862944D01*
X911892Y1361458D02*
X941534Y1331817D01*
Y1298422D02*
Y1331817D01*
X699621Y1247729D02*
X730350Y1278458D01*
X743866D01*
X816102Y1250400D02*
X867279Y1199224D01*
X800950Y1250400D02*
X816102D01*
X799091Y1252259D02*
X800950Y1250400D01*
X720751Y1179775D02*
X744163Y1203187D01*
X720751Y1171317D02*
Y1179775D01*
X718892Y1169458D02*
X720751Y1171317D01*
X811067Y1339804D02*
X896991Y1253880D01*
X843108Y1411360D02*
X866892Y1387576D01*
X793896Y1362147D02*
X813653Y1342390D01*
X896524Y1253413D02*
X896991Y1253880D01*
X896524Y1228469D02*
Y1253413D01*
X867279Y1199224D02*
X896524Y1228469D01*
X789497Y1121442D02*
X792281Y1124226D01*
X820030D01*
X822814Y1121442D01*
X857876D01*
X911892Y1175458D01*
D33*
X483205Y1361593D02*
Y1362000D01*
X471706Y1350094D02*
X483205Y1361593D01*
X457795Y1350094D02*
X471706D01*
X456701Y1349000D02*
X457795Y1350094D01*
X759814Y329300D02*
X810400D01*
X884701Y255000D01*
X411526Y1251174D02*
X444899Y1217801D01*
X1667828Y981063D02*
X1688976Y959914D01*
X1644449Y995039D02*
X1658425Y981063D01*
X1622674Y1008324D02*
Y1026217D01*
Y1008324D02*
X1625672Y1005326D01*
X1658425Y981063D02*
X1667828D01*
X1625672Y1005326D02*
X1637419D01*
X1644449Y998296D01*
Y995039D02*
Y998296D01*
X411526Y1251174D02*
Y1261035D01*
X410433Y1262129D02*
X411526Y1261035D01*
X430701Y1066496D02*
Y1203602D01*
X444899Y1217801D01*
X515719Y313426D02*
X525892Y303253D01*
Y244458D02*
Y303253D01*
X663434Y303453D02*
X669691Y309710D01*
X661805Y303453D02*
X663434D01*
X660711Y302359D02*
X661805Y303453D01*
X763665Y278403D02*
X768797D01*
X759814Y274552D02*
X763665Y278403D01*
X768797D02*
X769196Y278802D01*
X669691Y309710D02*
X677231D01*
X759814Y234812D02*
Y274552D01*
X685010Y317489D02*
Y329300D01*
X677231Y309710D02*
X685010Y317489D01*
X2003908Y1177726D02*
X2005877Y1175757D01*
X1975365Y1177726D02*
X2003908D01*
X2005877Y1175757D02*
X2045247D01*
X2062337Y1190879D02*
Y1194816D01*
X2045247Y1175757D02*
X2047215D01*
X2062337Y1190879D01*
Y1194816D02*
X2104302Y1236781D01*
X2106270D01*
X2106270Y1254497D02*
X2106270Y1254497D01*
Y1236781D02*
Y1254497D01*
X2106270Y1254497D02*
Y1295836D01*
X1956624Y1334796D02*
X1965697Y1343869D01*
X1983577D01*
X1992650Y1334796D01*
X2006286D01*
X2043278Y1297804D01*
Y1295836D02*
Y1297804D01*
D34*
X1251940Y597017D02*
X1261782Y587174D01*
X1338554D01*
D35*
X600356Y437332D02*
X600474Y437450D01*
X633711D02*
X633829Y437568D01*
X600474Y437450D02*
X633711D01*
X478924Y439551D02*
X484701Y433774D01*
Y431686D02*
Y433774D01*
X478924Y439551D02*
Y472096D01*
X470145Y480875D02*
X478924Y472096D01*
X458633Y480875D02*
X470145D01*
X481701Y1194000D02*
X549430Y1261729D01*
X481701Y1178000D02*
Y1194000D01*
X1975365Y1138356D02*
X2082056D01*
X2097135Y1168591D02*
X2106270Y1177726D01*
X2097135Y1153435D02*
Y1168591D01*
X2082056Y1138356D02*
X2097135Y1153435D01*
X2026893Y1065458D02*
X2028892D01*
X2019176Y1073175D02*
X2026893Y1065458D01*
X2004766Y1073175D02*
X2019176D01*
X1998908Y1067317D02*
X2004766Y1073175D01*
X1991607Y1059616D02*
X1998908Y1066917D01*
X1975365Y1059616D02*
X1991607D01*
X1998908Y1066917D02*
Y1067317D01*
X2009076Y1024642D02*
X2022892Y1038458D01*
X1979761Y1024642D02*
X2009076D01*
X1975365Y1020245D02*
X1979761Y1024642D01*
X1668892Y1182458D02*
X1670980D01*
X1675713Y1177726D01*
X1752924D01*
X452820Y512464D02*
X458633Y518277D01*
X1848892Y1314458D02*
Y1331177D01*
Y1314458D02*
X1891892Y1271458D01*
X1953483D01*
X1988160Y1236781D01*
X1994065Y1242686D02*
X2045247D01*
X1988160Y1236781D02*
X1994065Y1242686D01*
X1854302Y957253D02*
X1909420D01*
X1791310D02*
X1801645Y967588D01*
Y977548D01*
X1801892Y977796D01*
Y1123458D01*
X1789013Y1136337D02*
X1801892Y1123458D01*
X1754943Y1136337D02*
X1789013D01*
X1752924Y1138356D02*
X1754943Y1136337D01*
D37*
X597369Y475497D02*
X609901Y488029D01*
X621298D01*
X633829Y500560D01*
X676995D01*
X564231Y469765D02*
X569963Y475497D01*
X597369D01*
D38*
X550451Y1366254D02*
X576582D01*
X595892Y1385564D01*
X546197Y1362000D02*
X550451Y1366254D01*
X554204Y805497D02*
X585702D01*
X590205Y810000D01*
X535937Y823764D02*
X554204Y805497D01*
X591414Y811209D02*
Y843430D01*
X591389Y882795D02*
X595235Y878949D01*
Y844825D02*
Y878949D01*
X882739Y1491008D02*
X987892Y1385855D01*
Y1293561D02*
Y1385855D01*
Y1293561D02*
X1001380Y1280074D01*
X1066842Y1088508D02*
X1071093Y1084257D01*
X593695Y1306548D02*
X593972Y1306271D01*
X593695Y1306548D02*
Y1317461D01*
X606999Y1330765D01*
Y1374458D01*
X1083477Y1147495D02*
Y1189848D01*
X1066842Y1088508D02*
Y1130860D01*
X1083477Y1147495D01*
X1751968Y851378D02*
X1871079D01*
X1911701Y892000D01*
X606999Y1374458D02*
X717122D01*
X597045Y1384411D02*
X606999Y1374458D01*
X849031Y1492343D02*
X854607Y1497919D01*
X838288Y1481600D02*
X849031Y1492343D01*
X1083477Y1189848D02*
X1083477D01*
X1001380Y1271945D02*
X1083477Y1189848D01*
X1782892Y1323458D02*
X1790892Y1315458D01*
X1703892Y1402458D02*
X1782892Y1323458D01*
X1854302Y957253D02*
Y1089143D01*
X1864144Y1098986D01*
X1849175Y952127D02*
X1854302Y957253D01*
X1790892Y1315458D02*
X1833174D01*
X1703892Y1402458D02*
Y1458997D01*
X1833174Y1315458D02*
X1848892Y1331177D01*
X1880487Y1362772D01*
X1703892Y1458997D02*
X1744077Y1499182D01*
X1001380Y1271945D02*
Y1280074D01*
X845388Y1538773D02*
X854607Y1529555D01*
X835177Y1481600D02*
X838288D01*
X845388Y1538773D02*
Y1588458D01*
X809479Y1455902D02*
X835177Y1481600D01*
X849031Y1492343D02*
X855769D01*
X798566Y1455902D02*
X809479D01*
X854607Y1497919D02*
Y1529555D01*
X855769Y1492343D02*
X857104Y1491008D01*
X882739D01*
X749354Y1406689D02*
X798566Y1455902D01*
X941534Y1298422D02*
X942926Y1297030D01*
Y1286117D02*
Y1297030D01*
X941534Y1284725D02*
X942926Y1286117D01*
X941534Y1258350D02*
Y1284725D01*
Y1258350D02*
X962405Y1237478D01*
Y1232971D02*
Y1237478D01*
X789892Y1282458D02*
Y1301688D01*
X717122Y1374458D02*
X789892Y1301688D01*
X765892Y1258458D02*
X789892Y1282458D01*
X765892Y1227680D02*
Y1258458D01*
X744163Y1203187D02*
Y1205951D01*
X765892Y1227680D01*
X717122Y1374458D02*
X749354Y1406689D01*
D39*
X1092893Y1754458D02*
D03*
X1692892Y1754458D02*
D03*
Y1254458D02*
D03*
X1592892Y1254458D02*
D03*
X1492893Y1254458D02*
D03*
X1392893D02*
D03*
X1292892Y1254458D02*
D03*
X1192893Y1254458D02*
D03*
X1192892Y1754458D02*
D03*
X1792892Y1754458D02*
D03*
Y1254458D02*
D03*
X1292892Y1754458D02*
D03*
X1392893D02*
D03*
X1592893Y1754458D02*
D03*
X1492893Y1754458D02*
D03*
X1092892Y1454458D02*
D03*
Y1254458D02*
D03*
X1092893Y1354458D02*
D03*
D40*
X1338554Y587174D02*
D03*
D41*
X1538554D02*
D03*
D42*
X974892Y921458D02*
D03*
X1074892D02*
D03*
X1174892D02*
D03*
X1274892D02*
D03*
X1374892D02*
D03*
D43*
X1474892D02*
D03*
D44*
X1174892Y821458D02*
D03*
X1274892D02*
D03*
X1374892D02*
D03*
X1592892Y1454458D02*
D03*
Y1554458D02*
D03*
X1392892Y1654458D02*
D03*
X1392892Y1554458D02*
D03*
Y1454458D02*
D03*
X1492893Y1654458D02*
D03*
Y1554458D02*
D03*
Y1454458D02*
D03*
D45*
X1474892Y821458D02*
D03*
D46*
X1592892Y1354458D02*
D03*
X1392892Y1354458D02*
D03*
X1492893Y1354458D02*
D03*
D47*
X1271255Y1949127D02*
D03*
X1369680D02*
D03*
X1468105D02*
D03*
X977892Y207458D02*
D03*
Y305883D02*
D03*
X736192Y795836D02*
D03*
X496034Y984812D02*
D03*
Y677726D02*
D03*
D48*
X1566530Y1949127D02*
D03*
D49*
X977892Y109033D02*
D03*
X736192Y894261D02*
D03*
X496034Y1083237D02*
D03*
Y776151D02*
D03*
D50*
X2072990Y1451162D02*
D03*
X1832463Y1691690D02*
D03*
D51*
X1931567Y1389363D02*
D03*
X1770663Y1550266D02*
D03*
D52*
X1956624Y1334796D02*
D03*
X1716097Y1575323D02*
D03*
D53*
X2326743Y1449009D02*
D03*
X1834617Y1945442D02*
D03*
X945512Y592395D02*
D03*
X1417323Y1095204D02*
D03*
D54*
X456701Y1349000D02*
D03*
X585701Y1530000D02*
D03*
X637701Y1616000D02*
D03*
X676701Y1623592D02*
D03*
X1844034Y1481148D02*
D03*
X2157892Y1375458D02*
D03*
X1825225Y1500128D02*
D03*
X2157892Y1402175D02*
D03*
X410433Y1330709D02*
D03*
X437149D02*
D03*
X549686Y1538828D02*
D03*
X559701Y1419000D02*
D03*
X448701Y1472000D02*
D03*
X424701Y271000D02*
D03*
X581497Y751299D02*
D03*
X430701Y715000D02*
D03*
X535937Y823764D02*
D03*
X701701Y732000D02*
D03*
X881842Y425458D02*
D03*
X902892Y354458D02*
D03*
X897701Y290000D02*
D03*
X884701Y255000D02*
D03*
X853892Y349458D02*
D03*
X919701Y836000D02*
D03*
X1200787Y757874D02*
D03*
X1171260D02*
D03*
X1318701Y779000D02*
D03*
X1118081Y590647D02*
D03*
X1230315Y757874D02*
D03*
Y738189D02*
D03*
X1200787D02*
D03*
X1171260D02*
D03*
X1668892Y1182458D02*
D03*
X948671Y1385679D02*
D03*
X1071093Y1084257D02*
D03*
X630512Y239152D02*
D03*
X636783Y348790D02*
D03*
X600356Y437332D02*
D03*
X499701Y160000D02*
D03*
X537701Y105000D02*
D03*
X484701Y431686D02*
D03*
X505701Y455000D02*
D03*
X472441Y292686D02*
D03*
X1185701Y1563000D02*
D03*
X1171034Y1302958D02*
D03*
X1236050Y1424000D02*
D03*
X1071701Y1709858D02*
D03*
X974701Y1677000D02*
D03*
X1089979Y1563186D02*
D03*
X1041885Y1640324D02*
D03*
X481701Y1178000D02*
D03*
X444371Y1217273D02*
D03*
X456701Y1151000D02*
D03*
X483701Y1286000D02*
D03*
X1842520Y692913D02*
D03*
X1818898D02*
D03*
X1866142D02*
D03*
X1891874Y646000D02*
D03*
X1094701Y1108000D02*
D03*
X970115Y1169586D02*
D03*
X1147892Y1195458D02*
D03*
X1685039Y716535D02*
D03*
X1637795D02*
D03*
X1661417D02*
D03*
X1637795Y692913D02*
D03*
X1661417D02*
D03*
X1685039D02*
D03*
X1775591Y716535D02*
D03*
X1751968D02*
D03*
X1728347D02*
D03*
Y692913D02*
D03*
X1751968D02*
D03*
X1775591D02*
D03*
X1818898Y716535D02*
D03*
X1842520D02*
D03*
X1866142D02*
D03*
X1740158Y921260D02*
D03*
X1688976Y959914D02*
D03*
X933162Y1604403D02*
D03*
X813701Y1616000D02*
D03*
X1045814Y1188113D02*
D03*
X575701Y923000D02*
D03*
X676656Y961022D02*
D03*
X922952Y960828D02*
D03*
X809781Y1073999D02*
D03*
X543120Y991390D02*
D03*
X410433Y1262129D02*
D03*
X848701Y768000D02*
D03*
X684701Y833000D02*
D03*
X1007482Y1211781D02*
D03*
X991701Y1066000D02*
D03*
X804892Y1186458D02*
D03*
X1156701Y997000D02*
D03*
X1879230Y1191120D02*
D03*
X1678670Y1104680D02*
D03*
X1911701Y892000D02*
D03*
X2115701Y1114379D02*
D03*
X2028892Y1065458D02*
D03*
X2022892Y1038458D02*
D03*
X1125701Y951000D02*
D03*
X545346Y1090645D02*
D03*
X568346Y1067645D02*
D03*
X484827Y1147781D02*
D03*
X528543Y1150591D02*
D03*
X604012Y1165928D02*
D03*
X1124892Y1316458D02*
D03*
X1143576Y1338316D02*
D03*
X615436Y999002D02*
D03*
X852892Y814458D02*
D03*
X418892Y572458D02*
D03*
X678892Y502458D02*
D03*
X695151Y281716D02*
D03*
X660711Y302359D02*
D03*
X769196Y278802D02*
D03*
X486192Y313426D02*
D03*
X503908Y583458D02*
D03*
X552892Y590458D02*
D03*
X659019Y562421D02*
D03*
X1053892Y1565458D02*
D03*
X1905962Y994797D02*
D03*
X997762Y1494027D02*
D03*
X978843Y1512891D02*
D03*
X1039892Y1742458D02*
D03*
X574892Y62458D02*
D03*
X847538Y154104D02*
D03*
X857892Y104458D02*
D03*
X731629Y195721D02*
D03*
X560278Y156072D02*
D03*
X515719Y313426D02*
D03*
X2144010Y1233135D02*
D03*
X1644892Y1085458D02*
D03*
X1749892Y985458D02*
D03*
X1754892Y1415458D02*
D03*
X1904756Y1405214D02*
D03*
X1782892Y1323458D02*
D03*
X1814892Y1363990D02*
D03*
X2089892Y1339458D02*
D03*
X1732249Y1447957D02*
D03*
X2037514Y1337316D02*
D03*
X862892Y1618957D02*
D03*
X757694Y1289657D02*
D03*
X786892Y1510458D02*
D03*
X807892Y1531316D02*
D03*
X868892Y1319458D02*
D03*
X595892Y1385564D02*
D03*
X911892Y1361458D02*
D03*
X799091Y1252259D02*
D03*
X718892Y1169458D02*
D03*
X648892Y1412458D02*
D03*
X883892Y1343458D02*
D03*
X866892Y1387576D02*
D03*
X813653Y1342390D02*
D03*
X911892Y1175458D02*
D03*
D55*
X1842491Y1055678D02*
D03*
X1885798D02*
D03*
X1842491Y1098986D02*
D03*
X1885798D02*
D03*
X1842491Y1142293D02*
D03*
X1885798D02*
D03*
D57*
X600452Y1579751D02*
D03*
X518606Y1497905D02*
D03*
X690529Y1536986D02*
D03*
X608683Y1455140D02*
D03*
D58*
X622480Y735252D02*
D03*
X1199488Y676575D02*
D03*
D59*
X635591Y684409D02*
D03*
X1212598Y625732D02*
D03*
D60*
X674921Y649819D02*
D03*
X648701D02*
D03*
X622480Y649819D02*
D03*
X596260D02*
D03*
X674921Y751000D02*
D03*
X648701D02*
D03*
X622480D02*
D03*
X596260D02*
D03*
X1251929Y591142D02*
D03*
X1225709D02*
D03*
X1199488D02*
D03*
X1173268D02*
D03*
X1251929Y692323D02*
D03*
X1225709Y692323D02*
D03*
X1199488D02*
D03*
X1173268Y692323D02*
D03*
D61*
X444858Y874890D02*
D03*
D62*
X495701Y888000D02*
D03*
D63*
X530291Y927331D02*
D03*
Y901110D02*
D03*
Y874890D02*
D03*
Y848669D02*
D03*
X429110Y927331D02*
D03*
X429110Y901110D02*
D03*
Y874890D02*
D03*
X429110Y848669D02*
D03*
D64*
X685010Y329300D02*
D03*
D65*
X722412Y329300D02*
D03*
X759814Y329300D02*
D03*
Y234812D02*
D03*
X722412Y234812D02*
D03*
X685010Y234812D02*
D03*
D66*
X1842520Y621063D02*
D03*
D67*
X1751968Y621063D02*
D03*
X1661417Y621063D02*
D03*
D68*
X1751968Y851378D02*
D03*
D69*
X789497Y1121442D02*
D03*
X853136Y1057802D02*
D03*
X867279Y1199224D02*
D03*
X930918Y1135584D02*
D03*
D70*
X1864144Y1098986D02*
D03*
D71*
X1752924Y1020245D02*
D03*
Y1059616D02*
D03*
Y1098986D02*
D03*
Y1138356D02*
D03*
Y1177726D02*
D03*
X1975365Y1020245D02*
D03*
Y1059616D02*
D03*
Y1098986D02*
D03*
Y1138356D02*
D03*
D72*
Y1177726D02*
D03*
D73*
X1833161Y1410098D02*
D03*
X1791403Y1451856D02*
D03*
X1819242Y1424017D02*
D03*
X1805322Y1437936D02*
D03*
X1777483Y1465775D02*
D03*
X1763564Y1479695D02*
D03*
X1847081Y1396178D02*
D03*
X1861000Y1382259D02*
D03*
D74*
X1744077Y1499182D02*
D03*
X1880487Y1362772D02*
D03*
X1902758Y1340500D02*
D03*
X1721806Y1521453D02*
D03*
D75*
X787893Y90458D02*
D03*
X657892D02*
D03*
D76*
X962405Y1232971D02*
D03*
X1001380Y1271945D02*
D03*
D77*
X744163Y1203187D02*
D03*
X699621Y1247729D02*
D03*
X798566Y1455902D02*
D03*
X843108Y1411360D02*
D03*
X749354Y1406689D02*
D03*
X793896Y1362147D02*
D03*
X719043Y1090064D02*
D03*
X674501Y1134607D02*
D03*
X617493Y1095106D02*
D03*
X662035Y1050563D02*
D03*
D78*
X458633Y480875D02*
D03*
D79*
Y518277D02*
D03*
Y555678D02*
D03*
X553121D02*
D03*
Y518277D02*
D03*
Y480875D02*
D03*
D80*
X525892Y244458D02*
D03*
Y374458D02*
D03*
D81*
X1263201Y592000D02*
D03*
D82*
X1195866Y728346D02*
D03*
D83*
X1661417Y653543D02*
D03*
X1842520D02*
D03*
D84*
X1751968Y725839D02*
D03*
D85*
X554408Y441458D02*
D03*
D86*
X492184Y292773D02*
D03*
%TF.MD5,d7edc268ed045a157c5b62b4d5bf2ffc*%
M02*
