%TF.GenerationSoftware,Altium Limited,Altium Designer,23.11.1 (41)*%
G04 Layer_Color=0*
%FSLAX26Y26*%
%MOIN*%
%TF.SameCoordinates,A059C263-CE59-4A5C-BE38-7B1504CAFB6E*%
%TF.FilePolarity,Positive*%
%TF.FileFunction,NonPlated,1,4,NPTH,Drill*%
%TF.Part,CustomerPanel*%
G01*
G75*
%TA.AperFunction,ComponentDrill*%
%ADD157C,0.026575*%
G36*
X314945Y1279528D02*
Y1640310D01*
X216535D01*
X211350D01*
X201333Y1642994D01*
X192352Y1648179D01*
X185019Y1655512D01*
X179834Y1664493D01*
X177150Y1674510D01*
Y1684880D01*
X179834Y1694897D01*
X185019Y1703878D01*
X192352Y1711211D01*
X201333Y1716396D01*
X211350Y1719080D01*
X216535D01*
D01*
X708662D01*
X712541D01*
X720150Y1717567D01*
X727317Y1714598D01*
X733768Y1710287D01*
X739254Y1704802D01*
X743564Y1698351D01*
X746533Y1691183D01*
X748047Y1683574D01*
Y1679695D01*
Y1675816D01*
X746533Y1668207D01*
X743564Y1661039D01*
X739254Y1654589D01*
X733768Y1649103D01*
X727317Y1644792D01*
X720150Y1641823D01*
X712541Y1640310D01*
X708662D01*
D01*
X568764D01*
X393715Y1465261D01*
Y1279528D01*
Y1274342D01*
X391031Y1264325D01*
X385846Y1255344D01*
X378513Y1248012D01*
X369532Y1242826D01*
X359515Y1240142D01*
X349144D01*
X339128Y1242826D01*
X330147Y1248012D01*
X322814Y1255344D01*
X317629Y1264325D01*
X314945Y1274342D01*
Y1279528D01*
D01*
D02*
G37*
G36*
X480358Y-39358D02*
X457690Y-68D01*
X457649Y3D01*
X325484Y229074D01*
X322906Y233543D01*
X318960Y243076D01*
X316291Y253043D01*
X314945Y263273D01*
Y268432D01*
D01*
Y1141732D01*
Y1146917D01*
X317629Y1156934D01*
X322814Y1165915D01*
X330147Y1173248D01*
X339128Y1178433D01*
X349144Y1181117D01*
X359515D01*
X369532Y1178433D01*
X378513Y1173248D01*
X385846Y1165915D01*
X391031Y1156934D01*
X393715Y1146917D01*
Y1141732D01*
D01*
Y268436D01*
X525837Y39438D01*
X525878Y39368D01*
X548583Y14D01*
X1086878D01*
Y480150D01*
Y484029D01*
X1088392Y491638D01*
X1091361Y498806D01*
X1095671Y505256D01*
X1098414Y507999D01*
Y507999D01*
X1099395Y508980D01*
X1102138Y511723D01*
X1108589Y516034D01*
X1115756Y519002D01*
X1123366Y520516D01*
X1127245D01*
D01*
X1653543D01*
X1657422D01*
X1665032Y519002D01*
X1672199Y516034D01*
X1678650Y511723D01*
X1684136Y506237D01*
X1688446Y499787D01*
X1691415Y492619D01*
X1692928Y485010D01*
Y481131D01*
Y477252D01*
X1691415Y469643D01*
X1688446Y462475D01*
X1684136Y456024D01*
X1678650Y450538D01*
X1672199Y446228D01*
X1665032Y443259D01*
X1657422Y441746D01*
X1653543D01*
D01*
X1165649D01*
Y0D01*
Y-7757D01*
X1162622Y-22972D01*
X1156685Y-37305D01*
X1148066Y-50204D01*
X1137097Y-61174D01*
X1124197Y-69793D01*
X1109865Y-75730D01*
X1094649Y-78756D01*
X1086892D01*
D01*
X548575D01*
X543411D01*
X533173Y-77408D01*
X523198Y-74734D01*
X513658Y-70781D01*
X504715Y-65617D01*
X496524Y-59329D01*
X489223Y-52025D01*
X482939Y-43830D01*
X480358Y-39358D01*
D01*
D02*
G37*
G36*
X2128208Y1093384D02*
X2124541Y1089717D01*
X2119356Y1080736D01*
X2116672Y1070719D01*
X2116672Y1060349D01*
X2119356Y1050332D01*
X2124541Y1041351D01*
X2131874Y1034018D01*
X2140855Y1028833D01*
X2150872Y1026149D01*
X2161242Y1026149D01*
X2171259Y1028833D01*
X2180240Y1034018D01*
X2183907Y1037685D01*
X2183907D01*
X2486762Y1340541D01*
X2491901Y1345679D01*
X2500125Y1357665D01*
X2506016Y1370952D01*
X2509376Y1385093D01*
X2509734Y1392352D01*
X2509734Y1392352D01*
X2827027Y1075059D01*
X2831158Y1070928D01*
X2841463Y1065420D01*
X2852923Y1063140D01*
X2864551Y1064285D01*
X2875346Y1068757D01*
X2884378Y1076169D01*
X2890870Y1085885D01*
X2894262Y1097066D01*
X2894262Y1102908D01*
X2894262Y1106787D01*
X2892748Y1114397D01*
X2889779Y1121564D01*
X2885469Y1128015D01*
X2882726Y1130758D01*
X2882726Y1130758D01*
X2485648Y1527836D01*
X2481982Y1531503D01*
X2473001Y1536688D01*
X2462984Y1539372D01*
X2452613Y1539372D01*
X2442597Y1536688D01*
X2433615Y1531503D01*
X2426283Y1524170D01*
X2421097Y1515189D01*
X2418413Y1505172D01*
X2418414Y1494802D01*
X2421097Y1484785D01*
X2426283Y1475804D01*
X2429949Y1472137D01*
D01*
X2431059Y1471027D01*
Y1396236D01*
X2128208Y1093384D01*
D02*
G37*
G36*
X866142Y1640310D02*
X894450D01*
X898329D01*
X905938Y1641823D01*
X913106Y1644792D01*
X919557Y1649103D01*
X922300Y1651845D01*
X922300Y1651846D01*
X1154371Y1883917D01*
X1157114Y1886659D01*
X1161424Y1893110D01*
X1164393Y1900278D01*
X1165906Y1907887D01*
X1165906Y1911766D01*
X1165906Y1911766D01*
Y2002452D01*
X1188898Y2025444D01*
X1736907D01*
X1740786D01*
X1748395Y2026957D01*
X1755563Y2029926D01*
X1762014Y2034236D01*
X1764757Y2036979D01*
X1764757Y2036979D01*
X1777536Y2049759D01*
X1852328D01*
X1865838Y2036248D01*
X1869969Y2032117D01*
X1880274Y2026609D01*
X1891734Y2024330D01*
X1903362Y2025475D01*
X1914157Y2029946D01*
X1923189Y2037359D01*
X1929681Y2047074D01*
X1933072Y2058256D01*
X1933072Y2064098D01*
X1933072Y2067977D01*
X1931559Y2075586D01*
X1928590Y2082754D01*
X1924280Y2089204D01*
X1921537Y2091947D01*
X1921537Y2091947D01*
X1908022Y2105462D01*
X1902537Y2110947D01*
X1889638Y2119566D01*
X1875305Y2125502D01*
X1860090Y2128529D01*
X1852333D01*
X1852333Y2128529D01*
X1777530Y2128529D01*
X1769773Y2128529D01*
X1754558Y2125502D01*
X1740225Y2119566D01*
X1727326Y2110947D01*
X1721841Y2105462D01*
Y2105462D01*
X1720593Y2104214D01*
X1188892Y2104214D01*
X1181136Y2104214D01*
X1165920Y2101187D01*
X1151587Y2095251D01*
X1138688Y2086632D01*
X1133203Y2081147D01*
Y2081147D01*
X1110203Y2058147D01*
X1104718Y2052662D01*
X1096100Y2039763D01*
X1090163Y2025430D01*
X1087136Y2010215D01*
Y2002458D01*
Y2002458D01*
Y1928080D01*
X878136Y1719080D01*
X866142D01*
X860956D01*
X850939Y1716396D01*
X841958Y1711211D01*
X834626Y1703878D01*
X829441Y1694897D01*
X826756Y1684880D01*
Y1674510D01*
X829441Y1664493D01*
X834626Y1655512D01*
X841958Y1648179D01*
X850939Y1642994D01*
X860956Y1640310D01*
X866142D01*
D01*
D02*
G37*
G36*
X1877210Y1747317D02*
X1874467Y1750060D01*
X1870157Y1756511D01*
X1867188Y1763678D01*
X1865675Y1771287D01*
X1865675Y1779046D01*
X1867188Y1786655D01*
X1870157Y1793822D01*
X1874467Y1800273D01*
X1877210Y1803016D01*
Y1803016D01*
X1955666Y1881472D01*
Y1946421D01*
X1952000Y1950087D01*
X1946816Y1959069D01*
X1944134Y1969085D01*
X1944135Y1979455D01*
X1946820Y1989471D01*
X1952005Y1998451D01*
X1959339Y2005783D01*
X1968319Y2010968D01*
X1978336Y2013651D01*
X1988706Y2013651D01*
X1998722Y2010966D01*
X2007703Y2005782D01*
X2011369Y2002115D01*
X2011369Y2002115D01*
X2016854Y1996630D01*
X2025473Y1983731D01*
X2031409Y1969399D01*
X2034436Y1954183D01*
Y1946426D01*
X2034436Y1946426D01*
X2034436Y1881466D01*
X2034436Y1873709D01*
X2031409Y1858493D01*
X2025473Y1844161D01*
X2016854Y1831262D01*
X2011369Y1825777D01*
X2011369D01*
X1960759Y1775167D01*
X2156467Y1579458D01*
X2207077Y1630068D01*
X2212562Y1635553D01*
X2225461Y1644172D01*
X2239794Y1650109D01*
X2255010Y1653135D01*
X2262766D01*
X2262766Y1653135D01*
X2327727Y1653135D01*
X2335484D01*
X2350699Y1650109D01*
X2365032Y1644172D01*
X2377931Y1635553D01*
X2383416Y1630068D01*
X2386159Y1627325D01*
X2390469Y1620874D01*
X2393438Y1613707D01*
X2394952Y1606098D01*
Y1602219D01*
Y1596377D01*
X2391560Y1585196D01*
X2385069Y1575481D01*
X2376038Y1568069D01*
X2365244Y1563597D01*
X2353617Y1562451D01*
X2342157Y1564729D01*
X2331853Y1570235D01*
X2327721Y1574365D01*
D01*
X2262772D01*
X2184317Y1495910D01*
X2181574Y1493167D01*
X2175123Y1488857D01*
X2167955Y1485888D01*
X2160346Y1484374D01*
X2152588Y1484374D01*
X2144979Y1485888D01*
X2137811Y1488857D01*
X2131361Y1493167D01*
X2128618Y1495910D01*
D01*
X1877210Y1747317D01*
D02*
G37*
G36*
X1811024Y441746D02*
X1805838D01*
X1795822Y444430D01*
X1786841Y449615D01*
X1779508Y456948D01*
X1774322Y465929D01*
X1771639Y475946D01*
Y486316D01*
X1774322Y496333D01*
X1779508Y505314D01*
X1786841Y512647D01*
X1795822Y517832D01*
X1805838Y520516D01*
X1811024D01*
D01*
X1868790D01*
X1868798Y520540D01*
X2014956Y959015D01*
X2016427Y963426D01*
X2021340Y971319D01*
X2027956Y977852D01*
X2035911Y982665D01*
X2044768Y985493D01*
X2054040Y986182D01*
X2063218Y984692D01*
X2071797Y981107D01*
X2079305Y975623D01*
X2085330Y968542D01*
X2089541Y960252D01*
X2091706Y951210D01*
Y946561D01*
Y944976D01*
X2091451Y941816D01*
X2090943Y938687D01*
X2090186Y935609D01*
X2089684Y934106D01*
X2089684D01*
X1951821Y520516D01*
X2283465D01*
X2287344D01*
X2294953Y519002D01*
X2302120Y516034D01*
X2308571Y511723D01*
X2314057Y506237D01*
X2318367Y499787D01*
X2321336Y492619D01*
X2322850Y485010D01*
Y481131D01*
Y477252D01*
X2321336Y469643D01*
X2318367Y462475D01*
X2314057Y456024D01*
X2308571Y450538D01*
X2302120Y446228D01*
X2294953Y443259D01*
X2287344Y441746D01*
X2283465D01*
D01*
X1811024D01*
D02*
G37*
D157*
X1931567Y1389363D02*
D03*
X1770663Y1550266D02*
D03*
%TF.MD5,b480ae67c3a77001f08be37c596fb457*%
M02*
