%TF.GenerationSoftware,Altium Limited,Altium Designer,23.11.1 (41)*%
G04 Layer_Color=32896*
%FSLAX26Y26*%
%MOIN*%
%TF.SameCoordinates,A059C263-CE59-4A5C-BE38-7B1504CAFB6E*%
%TF.FilePolarity,Positive*%
%TF.FileFunction,Legend,Bot*%
%TF.Part,CustomerPanel*%
G01*
G75*
%TA.AperFunction,NonConductor*%
%ADD87C,0.019685*%
%ADD88C,0.008000*%
%ADD89C,0.003937*%
%ADD90C,0.009842*%
%ADD91C,0.007874*%
G36*
X1265456Y1585393D02*
X1272333Y1573092D01*
X1267224D01*
X1262705Y1581738D01*
X1262665D01*
X1258185Y1573092D01*
X1253076D01*
X1259954Y1585393D01*
X1253587Y1596869D01*
X1258657D01*
X1262665Y1589087D01*
X1262705D01*
X1266752Y1596869D01*
X1271822D01*
X1265456Y1585393D01*
D02*
G37*
G36*
X1288289Y1593017D02*
X1283219D01*
Y1573092D01*
X1278582D01*
Y1593017D01*
X1273591D01*
Y1596869D01*
X1288289D01*
Y1593017D01*
D02*
G37*
G36*
X1225566Y1573092D02*
X1212911D01*
Y1576944D01*
X1221046D01*
Y1583232D01*
X1213697D01*
Y1587044D01*
X1221046D01*
Y1593017D01*
X1212911D01*
Y1596869D01*
X1225566D01*
Y1573092D01*
D02*
G37*
G36*
X1209217D02*
X1197191D01*
Y1576944D01*
X1204580D01*
Y1596869D01*
X1209217D01*
Y1573092D01*
D02*
G37*
G36*
X1236059Y1597262D02*
X1236688Y1597222D01*
X1237238Y1597144D01*
X1237710Y1597065D01*
X1238103Y1596947D01*
X1238378Y1596869D01*
X1238574Y1596829D01*
X1238653Y1596790D01*
X1239164Y1596593D01*
X1239635Y1596358D01*
X1240028Y1596122D01*
X1240382Y1595886D01*
X1240697Y1595650D01*
X1240893Y1595493D01*
X1241050Y1595375D01*
X1241090Y1595336D01*
X1241443Y1594982D01*
X1241758Y1594629D01*
X1241993Y1594236D01*
X1242229Y1593882D01*
X1242386Y1593607D01*
X1242504Y1593371D01*
X1242583Y1593174D01*
X1242622Y1593135D01*
X1242819Y1592624D01*
X1242937Y1592153D01*
X1243054Y1591642D01*
X1243094Y1591209D01*
X1243133Y1590816D01*
X1243172Y1590502D01*
Y1590305D01*
Y1590227D01*
X1243133Y1589598D01*
X1243054Y1589009D01*
X1242976Y1588498D01*
X1242819Y1588065D01*
X1242701Y1587712D01*
X1242622Y1587476D01*
X1242544Y1587279D01*
X1242504Y1587240D01*
X1242229Y1586808D01*
X1241915Y1586415D01*
X1241640Y1586100D01*
X1241365Y1585786D01*
X1241129Y1585550D01*
X1240932Y1585393D01*
X1240814Y1585275D01*
X1240775Y1585236D01*
X1239989Y1584686D01*
X1239635Y1584410D01*
X1239282Y1584214D01*
X1239007Y1584057D01*
X1238771Y1583939D01*
X1238614Y1583860D01*
X1238574Y1583821D01*
X1237710Y1583428D01*
X1237317Y1583232D01*
X1237002Y1583035D01*
X1236727Y1582917D01*
X1236531Y1582799D01*
X1236373Y1582721D01*
X1236334Y1582681D01*
X1235980Y1582485D01*
X1235627Y1582249D01*
X1235352Y1582053D01*
X1235116Y1581856D01*
X1234919Y1581659D01*
X1234762Y1581542D01*
X1234684Y1581463D01*
X1234644Y1581424D01*
X1234409Y1581149D01*
X1234251Y1580873D01*
X1234094Y1580598D01*
X1234015Y1580323D01*
X1233976Y1580088D01*
X1233937Y1579891D01*
Y1579773D01*
Y1579734D01*
X1233976Y1579262D01*
X1234094Y1578869D01*
X1234251Y1578515D01*
X1234409Y1578201D01*
X1234605Y1577965D01*
X1234762Y1577808D01*
X1234880Y1577690D01*
X1234919Y1577651D01*
X1235312Y1577376D01*
X1235745Y1577179D01*
X1236177Y1577061D01*
X1236570Y1576983D01*
X1236963Y1576904D01*
X1237277Y1576865D01*
X1237553D01*
X1238378Y1576904D01*
X1238771Y1576983D01*
X1239124Y1577022D01*
X1239400Y1577101D01*
X1239635Y1577140D01*
X1239793Y1577179D01*
X1239832D01*
X1240618Y1577454D01*
X1240972Y1577572D01*
X1241286Y1577690D01*
X1241561Y1577808D01*
X1241758Y1577887D01*
X1241876Y1577965D01*
X1241915D01*
X1243447Y1573957D01*
X1242426Y1573524D01*
X1241915Y1573367D01*
X1241483Y1573249D01*
X1241090Y1573131D01*
X1240814Y1573053D01*
X1240618Y1573014D01*
X1240539D01*
X1239360Y1572817D01*
X1238810Y1572778D01*
X1238339Y1572738D01*
X1237906Y1572699D01*
X1237317D01*
X1236609Y1572738D01*
X1235980Y1572778D01*
X1235391Y1572856D01*
X1234880Y1572974D01*
X1234487Y1573053D01*
X1234173Y1573131D01*
X1233976Y1573171D01*
X1233898Y1573210D01*
X1233347Y1573407D01*
X1232836Y1573642D01*
X1232404Y1573917D01*
X1232051Y1574153D01*
X1231736Y1574350D01*
X1231540Y1574546D01*
X1231382Y1574664D01*
X1231343Y1574703D01*
X1230950Y1575096D01*
X1230636Y1575489D01*
X1230361Y1575843D01*
X1230125Y1576197D01*
X1229968Y1576511D01*
X1229850Y1576747D01*
X1229771Y1576944D01*
X1229732Y1576983D01*
X1229535Y1577494D01*
X1229417Y1578005D01*
X1229300Y1578515D01*
X1229260Y1578987D01*
X1229221Y1579380D01*
X1229182Y1579695D01*
Y1579891D01*
Y1579970D01*
X1229221Y1580598D01*
X1229300Y1581188D01*
X1229417Y1581699D01*
X1229535Y1582092D01*
X1229653Y1582446D01*
X1229771Y1582721D01*
X1229850Y1582878D01*
X1229889Y1582917D01*
X1230164Y1583349D01*
X1230439Y1583742D01*
X1230714Y1584057D01*
X1230989Y1584371D01*
X1231264Y1584607D01*
X1231422Y1584764D01*
X1231579Y1584882D01*
X1231618Y1584921D01*
X1232404Y1585511D01*
X1232758Y1585747D01*
X1233112Y1585983D01*
X1233426Y1586140D01*
X1233662Y1586258D01*
X1233819Y1586336D01*
X1233858Y1586376D01*
X1234723Y1586808D01*
X1235116Y1587004D01*
X1235470Y1587201D01*
X1235745Y1587319D01*
X1235941Y1587437D01*
X1236098Y1587515D01*
X1236138Y1587554D01*
X1236845Y1587987D01*
X1237120Y1588223D01*
X1237395Y1588419D01*
X1237592Y1588576D01*
X1237749Y1588694D01*
X1237828Y1588773D01*
X1237867Y1588812D01*
X1238103Y1589087D01*
X1238260Y1589362D01*
X1238378Y1589637D01*
X1238456Y1589912D01*
X1238496Y1590148D01*
X1238535Y1590345D01*
Y1590463D01*
Y1590502D01*
X1238496Y1590934D01*
X1238417Y1591367D01*
X1238260Y1591681D01*
X1238103Y1591995D01*
X1237946Y1592192D01*
X1237788Y1592388D01*
X1237710Y1592467D01*
X1237670Y1592506D01*
X1237317Y1592781D01*
X1236924Y1592978D01*
X1236491Y1593096D01*
X1236098Y1593214D01*
X1235784Y1593253D01*
X1235470Y1593292D01*
X1235234D01*
X1234448Y1593253D01*
X1234094Y1593214D01*
X1233780Y1593174D01*
X1233505Y1593096D01*
X1233308Y1593056D01*
X1233190Y1593017D01*
X1233151D01*
X1232444Y1592781D01*
X1232129Y1592664D01*
X1231893Y1592546D01*
X1231658Y1592428D01*
X1231500Y1592349D01*
X1231382Y1592310D01*
X1231343Y1592271D01*
X1229889Y1596004D01*
X1230754Y1596436D01*
X1231186Y1596593D01*
X1231579Y1596711D01*
X1231893Y1596829D01*
X1232168Y1596908D01*
X1232326Y1596947D01*
X1232404D01*
X1233465Y1597144D01*
X1233976Y1597222D01*
X1234448Y1597262D01*
X1234841Y1597301D01*
X1235430D01*
X1236059Y1597262D01*
D02*
G37*
G36*
X1468358Y1851771D02*
X1463917D01*
Y1865604D01*
X1463484Y1865801D01*
X1463091Y1865958D01*
X1462934Y1865997D01*
X1462816Y1866037D01*
X1462738Y1866076D01*
X1462698D01*
X1462187Y1866194D01*
X1461755Y1866233D01*
X1461559Y1866272D01*
X1461323D01*
X1460773Y1866233D01*
X1460301Y1866155D01*
X1459908Y1866037D01*
X1459554Y1865919D01*
X1459319Y1865762D01*
X1459122Y1865644D01*
X1459004Y1865565D01*
X1458965Y1865526D01*
X1458690Y1865211D01*
X1458454Y1864897D01*
X1458297Y1864504D01*
X1458218Y1864150D01*
X1458139Y1863836D01*
X1458100Y1863561D01*
Y1863403D01*
Y1863325D01*
Y1851771D01*
X1453620D01*
Y1863796D01*
Y1864307D01*
X1453699Y1864818D01*
X1453895Y1865722D01*
X1454170Y1866469D01*
X1454485Y1867098D01*
X1454799Y1867609D01*
X1455074Y1867962D01*
X1455271Y1868159D01*
X1455310Y1868237D01*
X1455349D01*
X1456057Y1868748D01*
X1456803Y1869141D01*
X1457629Y1869416D01*
X1458415Y1869574D01*
X1459083Y1869691D01*
X1459397Y1869731D01*
X1459672D01*
X1459869Y1869770D01*
X1460183D01*
X1460890Y1869731D01*
X1461244Y1869691D01*
X1461519Y1869652D01*
X1461794Y1869613D01*
X1461991Y1869574D01*
X1462109Y1869534D01*
X1462148D01*
X1462855Y1869338D01*
X1463131Y1869259D01*
X1463406Y1869141D01*
X1463602Y1869063D01*
X1463759Y1869023D01*
X1463877Y1868945D01*
X1463917D01*
Y1877591D01*
X1468358D01*
Y1851771D01*
D02*
G37*
G36*
X1357649Y1875076D02*
X1358160Y1874722D01*
X1358357Y1874565D01*
X1358514Y1874447D01*
X1358632Y1874368D01*
X1358671Y1874329D01*
X1359339Y1873897D01*
X1359693Y1873739D01*
X1360007Y1873582D01*
X1360243Y1873464D01*
X1360440Y1873346D01*
X1360597Y1873307D01*
X1360636Y1873268D01*
X1361422Y1872953D01*
X1361815Y1872835D01*
X1362169Y1872718D01*
X1362483Y1872600D01*
X1362719Y1872560D01*
X1362876Y1872482D01*
X1362916D01*
X1363780Y1872285D01*
X1364173Y1872167D01*
X1364527Y1872128D01*
X1364841Y1872050D01*
X1365077Y1872010D01*
X1365234Y1871971D01*
X1365274D01*
X1364605Y1868552D01*
X1363977Y1868670D01*
X1363427Y1868788D01*
X1363191Y1868827D01*
X1363034Y1868866D01*
X1362916Y1868906D01*
X1362876D01*
X1362208Y1869063D01*
X1361933Y1869141D01*
X1361658Y1869181D01*
X1361461Y1869259D01*
X1361304Y1869299D01*
X1361186Y1869338D01*
X1361147D01*
X1360518Y1869534D01*
X1360243Y1869613D01*
X1360007Y1869691D01*
X1359772Y1869770D01*
X1359614Y1869849D01*
X1359536Y1869888D01*
X1359496D01*
X1358946Y1870124D01*
X1358514Y1870320D01*
X1358357Y1870399D01*
X1358239Y1870477D01*
X1358200Y1870517D01*
X1358160D01*
Y1851771D01*
X1353601D01*
Y1875547D01*
X1357178D01*
X1357649Y1875076D01*
D02*
G37*
G36*
X1329000Y1875075D02*
X1329511Y1874722D01*
X1329707Y1874565D01*
X1329864Y1874447D01*
X1329982Y1874368D01*
X1330022Y1874329D01*
X1330690Y1873897D01*
X1331043Y1873739D01*
X1331358Y1873582D01*
X1331593Y1873464D01*
X1331790Y1873346D01*
X1331947Y1873307D01*
X1331986Y1873268D01*
X1332773Y1872953D01*
X1333166Y1872835D01*
X1333519Y1872717D01*
X1333834Y1872600D01*
X1334069Y1872560D01*
X1334227Y1872482D01*
X1334266D01*
X1335130Y1872285D01*
X1335524Y1872167D01*
X1335877Y1872128D01*
X1336192Y1872049D01*
X1336427Y1872010D01*
X1336585Y1871971D01*
X1336624D01*
X1335956Y1868552D01*
X1335327Y1868670D01*
X1334777Y1868787D01*
X1334541Y1868827D01*
X1334384Y1868866D01*
X1334266Y1868905D01*
X1334227D01*
X1333559Y1869063D01*
X1333283Y1869141D01*
X1333008Y1869180D01*
X1332812Y1869259D01*
X1332655Y1869298D01*
X1332537Y1869338D01*
X1332497D01*
X1331869Y1869534D01*
X1331593Y1869613D01*
X1331358Y1869691D01*
X1331122Y1869770D01*
X1330965Y1869849D01*
X1330886Y1869888D01*
X1330847D01*
X1330297Y1870124D01*
X1329864Y1870320D01*
X1329707Y1870399D01*
X1329589Y1870477D01*
X1329550Y1870517D01*
X1329511D01*
Y1851771D01*
X1324952D01*
Y1875547D01*
X1328528D01*
X1329000Y1875075D01*
D02*
G37*
G36*
X1425599Y1869809D02*
X1426228Y1869770D01*
X1426778Y1869691D01*
X1427250Y1869613D01*
X1427603Y1869534D01*
X1427839Y1869495D01*
X1427879Y1869456D01*
X1427918D01*
X1428547Y1869299D01*
X1429097Y1869141D01*
X1429608Y1869023D01*
X1430001Y1868866D01*
X1430354Y1868748D01*
X1430590Y1868670D01*
X1430747Y1868630D01*
X1430787Y1868591D01*
X1429686Y1865565D01*
X1429333Y1865722D01*
X1428979Y1865801D01*
X1428704Y1865879D01*
X1428665Y1865919D01*
X1428625D01*
X1428154Y1866076D01*
X1427761Y1866155D01*
X1427603Y1866233D01*
X1427486D01*
X1427407Y1866272D01*
X1427368D01*
X1426857Y1866390D01*
X1426464Y1866469D01*
X1426267D01*
X1426149Y1866508D01*
X1426031D01*
X1425521Y1866587D01*
X1425088Y1866626D01*
X1424695D01*
X1424145Y1866587D01*
X1423673Y1866547D01*
X1423280Y1866430D01*
X1422927Y1866351D01*
X1422652Y1866233D01*
X1422455Y1866115D01*
X1422337Y1866076D01*
X1422298Y1866037D01*
X1421984Y1865801D01*
X1421787Y1865486D01*
X1421630Y1865172D01*
X1421512Y1864858D01*
X1421433Y1864543D01*
X1421394Y1864307D01*
Y1864150D01*
Y1864072D01*
Y1863168D01*
X1422141Y1863128D01*
X1422848Y1863050D01*
X1423516Y1862971D01*
X1424106Y1862893D01*
X1424577Y1862853D01*
X1424970Y1862775D01*
X1425206Y1862735D01*
X1425285D01*
X1425953Y1862618D01*
X1426582Y1862460D01*
X1427132Y1862303D01*
X1427643Y1862146D01*
X1428036Y1862028D01*
X1428311Y1861910D01*
X1428507Y1861832D01*
X1428586Y1861792D01*
X1429097Y1861556D01*
X1429568Y1861242D01*
X1429961Y1860967D01*
X1430276Y1860692D01*
X1430551Y1860417D01*
X1430747Y1860220D01*
X1430865Y1860063D01*
X1430905Y1860024D01*
X1431180Y1859552D01*
X1431416Y1859081D01*
X1431573Y1858609D01*
X1431651Y1858137D01*
X1431730Y1857705D01*
X1431769Y1857391D01*
Y1857155D01*
Y1857116D01*
Y1857076D01*
X1431730Y1856565D01*
X1431691Y1856133D01*
X1431455Y1855268D01*
X1431140Y1854561D01*
X1430787Y1853972D01*
X1430433Y1853500D01*
X1430119Y1853146D01*
X1429883Y1852950D01*
X1429843Y1852871D01*
X1429804D01*
X1429411Y1852596D01*
X1428979Y1852360D01*
X1428036Y1852006D01*
X1427014Y1851731D01*
X1426031Y1851574D01*
X1425599Y1851496D01*
X1425167Y1851456D01*
X1424774Y1851417D01*
X1424459D01*
X1424184Y1851378D01*
X1423045D01*
X1422337Y1851456D01*
X1421708Y1851496D01*
X1421119Y1851574D01*
X1420647Y1851653D01*
X1420294Y1851692D01*
X1420058Y1851771D01*
X1419979D01*
X1419311Y1851928D01*
X1418761Y1852046D01*
X1418289Y1852203D01*
X1417857Y1852321D01*
X1417543Y1852439D01*
X1417346Y1852557D01*
X1417189Y1852596D01*
X1417150Y1852635D01*
Y1863561D01*
Y1864189D01*
X1417228Y1864740D01*
X1417307Y1865251D01*
X1417425Y1865762D01*
X1417582Y1866194D01*
X1417739Y1866587D01*
X1417896Y1866940D01*
X1418053Y1867255D01*
X1418250Y1867530D01*
X1418407Y1867766D01*
X1418722Y1868120D01*
X1418918Y1868316D01*
X1418957Y1868395D01*
X1418997D01*
X1419743Y1868906D01*
X1420608Y1869259D01*
X1421473Y1869534D01*
X1422298Y1869691D01*
X1423045Y1869809D01*
X1423398Y1869849D01*
X1423673D01*
X1423909Y1869888D01*
X1424931D01*
X1425599Y1869809D01*
D02*
G37*
G36*
X1544639Y1860535D02*
X1535207D01*
Y1864347D01*
X1544639D01*
Y1860535D01*
D02*
G37*
G36*
X1380561Y1851771D02*
X1375649D01*
X1368339Y1875547D01*
X1373369D01*
X1377378Y1860063D01*
X1377574Y1859277D01*
X1377653Y1858923D01*
X1377732Y1858609D01*
X1377771Y1858334D01*
X1377810Y1858137D01*
X1377850Y1858019D01*
Y1857980D01*
X1377889Y1857666D01*
X1377967Y1857391D01*
X1378007Y1857155D01*
Y1856958D01*
X1378046Y1856801D01*
X1378085Y1856723D01*
Y1856683D01*
Y1856644D01*
X1378164D01*
X1378203Y1856801D01*
X1378243Y1856998D01*
X1378282Y1857155D01*
Y1857194D01*
X1378321Y1857508D01*
X1378361Y1857784D01*
X1378400Y1857980D01*
Y1858019D01*
Y1858059D01*
X1378478Y1858412D01*
X1378518Y1858727D01*
X1378557Y1858963D01*
X1378596Y1859002D01*
Y1859041D01*
X1378675Y1859434D01*
X1378754Y1859749D01*
X1378793Y1859984D01*
X1378832Y1860024D01*
Y1860063D01*
X1382841Y1875547D01*
X1387871D01*
X1380561Y1851771D01*
D02*
G37*
G36*
X1442695Y1869849D02*
X1443323Y1869770D01*
X1443913Y1869652D01*
X1444424Y1869534D01*
X1444856Y1869416D01*
X1445170Y1869299D01*
X1445367Y1869220D01*
X1445446Y1869181D01*
X1445996Y1868906D01*
X1446507Y1868591D01*
X1446939Y1868277D01*
X1447332Y1868002D01*
X1447607Y1867726D01*
X1447843Y1867491D01*
X1448000Y1867333D01*
X1448039Y1867294D01*
X1448393Y1866823D01*
X1448747Y1866312D01*
X1449022Y1865840D01*
X1449258Y1865369D01*
X1449415Y1864976D01*
X1449533Y1864622D01*
X1449611Y1864425D01*
X1449651Y1864386D01*
Y1864347D01*
X1449847Y1863718D01*
X1449965Y1863050D01*
X1450083Y1862421D01*
X1450122Y1861832D01*
X1450162Y1861360D01*
X1450201Y1860967D01*
Y1860810D01*
Y1860692D01*
Y1860652D01*
Y1860613D01*
X1450162Y1859867D01*
X1450122Y1859198D01*
X1450044Y1858570D01*
X1449926Y1857980D01*
X1449808Y1857548D01*
X1449729Y1857194D01*
X1449690Y1856958D01*
X1449651Y1856919D01*
Y1856880D01*
X1449415Y1856251D01*
X1449140Y1855701D01*
X1448825Y1855190D01*
X1448550Y1854757D01*
X1448314Y1854404D01*
X1448118Y1854168D01*
X1447961Y1853972D01*
X1447921Y1853932D01*
X1447489Y1853500D01*
X1447018Y1853107D01*
X1446546Y1852793D01*
X1446114Y1852517D01*
X1445721Y1852321D01*
X1445406Y1852164D01*
X1445210Y1852085D01*
X1445131Y1852046D01*
X1444502Y1851810D01*
X1443834Y1851653D01*
X1443206Y1851535D01*
X1442577Y1851456D01*
X1442066Y1851417D01*
X1441633Y1851378D01*
X1440572D01*
X1439865Y1851417D01*
X1439236Y1851496D01*
X1438686Y1851574D01*
X1438254Y1851613D01*
X1437900Y1851692D01*
X1437664Y1851731D01*
X1437586D01*
X1436957Y1851889D01*
X1436407Y1852006D01*
X1435935Y1852164D01*
X1435503Y1852321D01*
X1435149Y1852439D01*
X1434913Y1852557D01*
X1434756Y1852596D01*
X1434717Y1852635D01*
X1436014Y1855976D01*
X1436760Y1855661D01*
X1437153Y1855504D01*
X1437507Y1855426D01*
X1437821Y1855308D01*
X1438057Y1855229D01*
X1438214Y1855190D01*
X1438293D01*
X1439236Y1854993D01*
X1439708Y1854954D01*
X1440101Y1854915D01*
X1440415Y1854875D01*
X1440926D01*
X1441633Y1854915D01*
X1442302Y1855033D01*
X1442852Y1855190D01*
X1443323Y1855347D01*
X1443716Y1855504D01*
X1443992Y1855661D01*
X1444149Y1855779D01*
X1444227Y1855819D01*
X1444660Y1856212D01*
X1445013Y1856683D01*
X1445288Y1857194D01*
X1445524Y1857666D01*
X1445681Y1858098D01*
X1445760Y1858452D01*
X1445839Y1858688D01*
Y1858727D01*
Y1858766D01*
X1434442Y1860299D01*
X1434402Y1860574D01*
X1434363Y1860810D01*
Y1860967D01*
Y1861045D01*
Y1861832D01*
X1434402Y1862500D01*
X1434442Y1863089D01*
X1434520Y1863679D01*
X1434599Y1864150D01*
X1434717Y1864543D01*
X1434795Y1864858D01*
X1434835Y1865015D01*
X1434874Y1865093D01*
X1435070Y1865644D01*
X1435306Y1866115D01*
X1435581Y1866547D01*
X1435817Y1866940D01*
X1436014Y1867216D01*
X1436210Y1867451D01*
X1436328Y1867609D01*
X1436367Y1867648D01*
X1436721Y1868041D01*
X1437114Y1868355D01*
X1437507Y1868630D01*
X1437900Y1868866D01*
X1438214Y1869063D01*
X1438489Y1869181D01*
X1438647Y1869259D01*
X1438725Y1869299D01*
X1439275Y1869495D01*
X1439826Y1869652D01*
X1440376Y1869731D01*
X1440887Y1869809D01*
X1441319Y1869849D01*
X1441673Y1869888D01*
X1441987D01*
X1442695Y1869849D01*
D02*
G37*
G36*
X1579026Y1875940D02*
X1579655Y1875862D01*
X1580205Y1875822D01*
X1580677Y1875744D01*
X1581031Y1875665D01*
X1581266Y1875626D01*
X1581345D01*
X1581974Y1875469D01*
X1582563Y1875311D01*
X1583074Y1875154D01*
X1583546Y1875036D01*
X1583939Y1874879D01*
X1584214Y1874801D01*
X1584371Y1874722D01*
X1584450Y1874683D01*
Y1851771D01*
X1579930D01*
Y1861006D01*
X1579616Y1860967D01*
X1579301Y1860928D01*
X1579026Y1860888D01*
X1578948D01*
X1578476Y1860849D01*
X1577729D01*
X1576904Y1860888D01*
X1576118Y1860928D01*
X1575411Y1861006D01*
X1574821Y1861124D01*
X1574350Y1861242D01*
X1573996Y1861321D01*
X1573760Y1861360D01*
X1573681Y1861399D01*
X1573053Y1861635D01*
X1572503Y1861871D01*
X1571992Y1862146D01*
X1571559Y1862382D01*
X1571245Y1862578D01*
X1570970Y1862775D01*
X1570813Y1862893D01*
X1570773Y1862932D01*
X1570341Y1863325D01*
X1569987Y1863757D01*
X1569712Y1864150D01*
X1569437Y1864504D01*
X1569241Y1864858D01*
X1569123Y1865093D01*
X1569044Y1865251D01*
X1569005Y1865329D01*
X1568808Y1865840D01*
X1568651Y1866390D01*
X1568572Y1866862D01*
X1568494Y1867333D01*
X1568455Y1867726D01*
X1568415Y1868041D01*
Y1868237D01*
Y1868316D01*
X1568455Y1868945D01*
X1568533Y1869574D01*
X1568651Y1870124D01*
X1568769Y1870674D01*
X1569162Y1871617D01*
X1569359Y1872050D01*
X1569594Y1872403D01*
X1569830Y1872757D01*
X1570027Y1873071D01*
X1570223Y1873307D01*
X1570420Y1873504D01*
X1570537Y1873700D01*
X1570655Y1873818D01*
X1570734Y1873857D01*
X1570773Y1873897D01*
X1571245Y1874250D01*
X1571756Y1874604D01*
X1572267Y1874879D01*
X1572817Y1875115D01*
X1573957Y1875469D01*
X1575057Y1875704D01*
X1575568Y1875822D01*
X1576040Y1875862D01*
X1576472Y1875901D01*
X1576825Y1875940D01*
X1577140Y1875979D01*
X1578319D01*
X1579026Y1875940D01*
D02*
G37*
G36*
X1532338Y1871696D02*
X1527268D01*
Y1851771D01*
X1522631D01*
Y1871696D01*
X1517640D01*
Y1875547D01*
X1532338D01*
Y1871696D01*
D02*
G37*
G36*
X1476925Y1851771D02*
X1472445D01*
Y1877591D01*
X1476925D01*
Y1851771D01*
D02*
G37*
G36*
X1344248Y1857076D02*
X1344602Y1856998D01*
X1344838Y1856919D01*
X1344877Y1856880D01*
X1344916D01*
X1345270Y1856683D01*
X1345545Y1856487D01*
X1345742Y1856330D01*
X1345820Y1856251D01*
X1346056Y1855976D01*
X1346252Y1855701D01*
X1346370Y1855465D01*
X1346410Y1855426D01*
Y1855386D01*
X1346527Y1854993D01*
X1346606Y1854640D01*
X1346645Y1854482D01*
Y1854404D01*
Y1854325D01*
Y1854286D01*
X1346606Y1853854D01*
X1346527Y1853500D01*
X1346449Y1853264D01*
X1346410Y1853225D01*
Y1853186D01*
X1346213Y1852832D01*
X1346017Y1852557D01*
X1345859Y1852360D01*
X1345820Y1852282D01*
X1345506Y1852046D01*
X1345231Y1851889D01*
X1344995Y1851771D01*
X1344956Y1851731D01*
X1344916D01*
X1344523Y1851613D01*
X1344169Y1851535D01*
X1344012Y1851496D01*
X1343816D01*
X1343383Y1851535D01*
X1343030Y1851613D01*
X1342794Y1851692D01*
X1342755Y1851731D01*
X1342715D01*
X1342362Y1851889D01*
X1342087Y1852085D01*
X1341890Y1852242D01*
X1341812Y1852282D01*
X1341536Y1852596D01*
X1341379Y1852871D01*
X1341261Y1853107D01*
X1341222Y1853146D01*
Y1853186D01*
X1341065Y1853579D01*
X1341025Y1853932D01*
X1340986Y1854089D01*
Y1854168D01*
Y1854247D01*
Y1854286D01*
X1341025Y1854718D01*
X1341104Y1855072D01*
X1341183Y1855308D01*
X1341222Y1855347D01*
Y1855386D01*
X1341379Y1855740D01*
X1341576Y1856015D01*
X1341733Y1856172D01*
X1341812Y1856251D01*
X1342126Y1856526D01*
X1342401Y1856723D01*
X1342637Y1856840D01*
X1342676Y1856880D01*
X1342715D01*
X1343108Y1857037D01*
X1343462Y1857076D01*
X1343619Y1857116D01*
X1343816D01*
X1344248Y1857076D01*
D02*
G37*
G36*
X1559966Y1875901D02*
X1560595Y1875862D01*
X1561145Y1875783D01*
X1561577Y1875704D01*
X1561931Y1875665D01*
X1562167Y1875586D01*
X1562245D01*
X1562874Y1875429D01*
X1563424Y1875311D01*
X1563896Y1875154D01*
X1564289Y1874997D01*
X1564642Y1874879D01*
X1564878Y1874761D01*
X1565035Y1874722D01*
X1565075Y1874683D01*
Y1852635D01*
X1564642Y1852439D01*
X1564171Y1852282D01*
X1563739Y1852124D01*
X1563267Y1851967D01*
X1562874Y1851889D01*
X1562560Y1851810D01*
X1562363Y1851731D01*
X1562284D01*
X1560988Y1851535D01*
X1560359Y1851456D01*
X1559769Y1851417D01*
X1559258D01*
X1558905Y1851378D01*
X1558551D01*
X1557647Y1851417D01*
X1556783Y1851496D01*
X1555996Y1851653D01*
X1555250Y1851849D01*
X1554542Y1852085D01*
X1553914Y1852360D01*
X1553324Y1852635D01*
X1552813Y1852950D01*
X1552342Y1853225D01*
X1551949Y1853500D01*
X1551595Y1853775D01*
X1551320Y1854011D01*
X1551084Y1854207D01*
X1550927Y1854364D01*
X1550848Y1854443D01*
X1550809Y1854482D01*
X1550298Y1855111D01*
X1549905Y1855779D01*
X1549512Y1856487D01*
X1549198Y1857233D01*
X1548922Y1858019D01*
X1548687Y1858766D01*
X1548530Y1859513D01*
X1548372Y1860259D01*
X1548254Y1860967D01*
X1548176Y1861596D01*
X1548097Y1862185D01*
X1548058Y1862696D01*
X1548019Y1863089D01*
Y1863403D01*
Y1863600D01*
Y1863679D01*
X1548058Y1864779D01*
X1548137Y1865801D01*
X1548294Y1866744D01*
X1548451Y1867648D01*
X1548647Y1868473D01*
X1548883Y1869220D01*
X1549158Y1869888D01*
X1549394Y1870517D01*
X1549669Y1871067D01*
X1549944Y1871539D01*
X1550180Y1871932D01*
X1550377Y1872246D01*
X1550534Y1872521D01*
X1550691Y1872678D01*
X1550770Y1872796D01*
X1550809Y1872835D01*
X1551359Y1873386D01*
X1551949Y1873857D01*
X1552538Y1874290D01*
X1553167Y1874643D01*
X1553835Y1874958D01*
X1554464Y1875233D01*
X1555093Y1875429D01*
X1555721Y1875586D01*
X1556272Y1875704D01*
X1556822Y1875822D01*
X1557293Y1875901D01*
X1557726Y1875940D01*
X1558079Y1875979D01*
X1559258D01*
X1559966Y1875901D01*
D02*
G37*
G36*
X1507933Y1869849D02*
X1508561Y1869770D01*
X1509151Y1869652D01*
X1509662Y1869534D01*
X1510094Y1869416D01*
X1510409Y1869299D01*
X1510605Y1869220D01*
X1510684Y1869181D01*
X1511234Y1868906D01*
X1511705Y1868591D01*
X1512138Y1868237D01*
X1512491Y1867923D01*
X1512806Y1867648D01*
X1513002Y1867412D01*
X1513159Y1867255D01*
X1513199Y1867216D01*
X1513553Y1866744D01*
X1513867Y1866233D01*
X1514142Y1865762D01*
X1514339Y1865290D01*
X1514496Y1864897D01*
X1514653Y1864582D01*
X1514692Y1864386D01*
X1514732Y1864347D01*
Y1864307D01*
X1514889Y1863679D01*
X1515007Y1863011D01*
X1515124Y1862382D01*
X1515164Y1861832D01*
X1515203Y1861321D01*
X1515242Y1860967D01*
Y1860810D01*
Y1860692D01*
Y1860652D01*
Y1860613D01*
X1515203Y1859906D01*
X1515164Y1859198D01*
X1515085Y1858570D01*
X1514967Y1858019D01*
X1514889Y1857587D01*
X1514810Y1857233D01*
X1514771Y1856998D01*
X1514732Y1856958D01*
Y1856919D01*
X1514535Y1856290D01*
X1514260Y1855740D01*
X1514024Y1855229D01*
X1513788Y1854797D01*
X1513553Y1854443D01*
X1513356Y1854207D01*
X1513238Y1854011D01*
X1513199Y1853972D01*
X1512806Y1853539D01*
X1512373Y1853146D01*
X1511941Y1852832D01*
X1511548Y1852557D01*
X1511195Y1852321D01*
X1510919Y1852164D01*
X1510762Y1852085D01*
X1510684Y1852046D01*
X1510094Y1851810D01*
X1509505Y1851653D01*
X1508915Y1851535D01*
X1508365Y1851456D01*
X1507933Y1851417D01*
X1507540Y1851378D01*
X1507225D01*
X1506518Y1851417D01*
X1505889Y1851496D01*
X1505300Y1851574D01*
X1504789Y1851731D01*
X1504396Y1851849D01*
X1504081Y1851928D01*
X1503885Y1852006D01*
X1503806Y1852046D01*
X1503256Y1852321D01*
X1502784Y1852635D01*
X1502352Y1852950D01*
X1501998Y1853264D01*
X1501684Y1853539D01*
X1501487Y1853775D01*
X1501330Y1853932D01*
X1501291Y1853972D01*
X1500937Y1854443D01*
X1500623Y1854954D01*
X1500348Y1855465D01*
X1500151Y1855937D01*
X1499955Y1856330D01*
X1499837Y1856644D01*
X1499797Y1856840D01*
X1499758Y1856919D01*
X1499562Y1857587D01*
X1499444Y1858216D01*
X1499326Y1858845D01*
X1499287Y1859434D01*
X1499247Y1859906D01*
X1499208Y1860299D01*
Y1860417D01*
Y1860535D01*
Y1860574D01*
Y1860613D01*
X1499247Y1861360D01*
X1499287Y1862028D01*
X1499365Y1862657D01*
X1499483Y1863207D01*
X1499601Y1863679D01*
X1499680Y1864032D01*
X1499719Y1864229D01*
X1499758Y1864307D01*
X1499955Y1864936D01*
X1500230Y1865486D01*
X1500466Y1865958D01*
X1500701Y1866390D01*
X1500937Y1866744D01*
X1501134Y1867019D01*
X1501252Y1867176D01*
X1501291Y1867216D01*
X1501684Y1867648D01*
X1502116Y1868041D01*
X1502549Y1868395D01*
X1502941Y1868670D01*
X1503295Y1868906D01*
X1503570Y1869063D01*
X1503727Y1869141D01*
X1503806Y1869181D01*
X1504396Y1869416D01*
X1504985Y1869574D01*
X1505535Y1869731D01*
X1506085Y1869809D01*
X1506518Y1869849D01*
X1506911Y1869888D01*
X1507225D01*
X1507933Y1869849D01*
D02*
G37*
G36*
X1489108D02*
X1489737Y1869770D01*
X1490326Y1869652D01*
X1490837Y1869534D01*
X1491269Y1869416D01*
X1491584Y1869299D01*
X1491780Y1869220D01*
X1491859Y1869181D01*
X1492409Y1868906D01*
X1492881Y1868591D01*
X1493313Y1868237D01*
X1493667Y1867923D01*
X1493981Y1867648D01*
X1494178Y1867412D01*
X1494335Y1867255D01*
X1494374Y1867216D01*
X1494728Y1866744D01*
X1495042Y1866233D01*
X1495317Y1865762D01*
X1495514Y1865290D01*
X1495671Y1864897D01*
X1495828Y1864582D01*
X1495868Y1864386D01*
X1495907Y1864347D01*
Y1864307D01*
X1496064Y1863679D01*
X1496182Y1863011D01*
X1496300Y1862382D01*
X1496339Y1861832D01*
X1496378Y1861321D01*
X1496418Y1860967D01*
Y1860810D01*
Y1860692D01*
Y1860652D01*
Y1860613D01*
X1496378Y1859906D01*
X1496339Y1859198D01*
X1496261Y1858570D01*
X1496143Y1858019D01*
X1496064Y1857587D01*
X1495985Y1857233D01*
X1495946Y1856998D01*
X1495907Y1856958D01*
Y1856919D01*
X1495710Y1856290D01*
X1495435Y1855740D01*
X1495199Y1855229D01*
X1494964Y1854797D01*
X1494728Y1854443D01*
X1494531Y1854207D01*
X1494413Y1854011D01*
X1494374Y1853972D01*
X1493981Y1853539D01*
X1493549Y1853146D01*
X1493117Y1852832D01*
X1492724Y1852557D01*
X1492370Y1852321D01*
X1492095Y1852164D01*
X1491938Y1852085D01*
X1491859Y1852046D01*
X1491269Y1851810D01*
X1490680Y1851653D01*
X1490090Y1851535D01*
X1489540Y1851456D01*
X1489108Y1851417D01*
X1488715Y1851378D01*
X1488400D01*
X1487693Y1851417D01*
X1487064Y1851496D01*
X1486475Y1851574D01*
X1485964Y1851731D01*
X1485571Y1851849D01*
X1485256Y1851928D01*
X1485060Y1852006D01*
X1484981Y1852046D01*
X1484431Y1852321D01*
X1483960Y1852635D01*
X1483527Y1852950D01*
X1483174Y1853264D01*
X1482859Y1853539D01*
X1482663Y1853775D01*
X1482505Y1853932D01*
X1482466Y1853972D01*
X1482112Y1854443D01*
X1481798Y1854954D01*
X1481523Y1855465D01*
X1481326Y1855937D01*
X1481130Y1856330D01*
X1481012Y1856644D01*
X1480973Y1856840D01*
X1480934Y1856919D01*
X1480737Y1857587D01*
X1480619Y1858216D01*
X1480501Y1858845D01*
X1480462Y1859434D01*
X1480423Y1859906D01*
X1480383Y1860299D01*
Y1860417D01*
Y1860535D01*
Y1860574D01*
Y1860613D01*
X1480423Y1861360D01*
X1480462Y1862028D01*
X1480541Y1862657D01*
X1480658Y1863207D01*
X1480776Y1863679D01*
X1480855Y1864032D01*
X1480894Y1864229D01*
X1480934Y1864307D01*
X1481130Y1864936D01*
X1481405Y1865486D01*
X1481641Y1865958D01*
X1481877Y1866390D01*
X1482112Y1866744D01*
X1482309Y1867019D01*
X1482427Y1867176D01*
X1482466Y1867216D01*
X1482859Y1867648D01*
X1483292Y1868041D01*
X1483724Y1868395D01*
X1484117Y1868670D01*
X1484470Y1868906D01*
X1484746Y1869063D01*
X1484903Y1869141D01*
X1484981Y1869181D01*
X1485571Y1869416D01*
X1486160Y1869574D01*
X1486711Y1869731D01*
X1487261Y1869809D01*
X1487693Y1869849D01*
X1488086Y1869888D01*
X1488400D01*
X1489108Y1869849D01*
D02*
G37*
G36*
X1402962Y1869299D02*
X1403316Y1869416D01*
X1403709Y1869495D01*
X1403866D01*
X1403984Y1869534D01*
X1404102D01*
X1404613Y1869613D01*
X1405045Y1869652D01*
X1405477D01*
X1406224Y1869613D01*
X1406892Y1869534D01*
X1407521Y1869456D01*
X1408032Y1869338D01*
X1408504Y1869181D01*
X1408818Y1869102D01*
X1409014Y1869023D01*
X1409093Y1868984D01*
X1409643Y1868709D01*
X1410154Y1868395D01*
X1410586Y1868080D01*
X1410979Y1867805D01*
X1411255Y1867530D01*
X1411490Y1867294D01*
X1411648Y1867137D01*
X1411687Y1867098D01*
X1412041Y1866626D01*
X1412394Y1866155D01*
X1412630Y1865683D01*
X1412866Y1865211D01*
X1413023Y1864818D01*
X1413180Y1864504D01*
X1413220Y1864307D01*
X1413259Y1864268D01*
Y1864229D01*
X1413416Y1863600D01*
X1413534Y1862932D01*
X1413652Y1862303D01*
X1413691Y1861714D01*
X1413730Y1861242D01*
X1413770Y1860849D01*
Y1860692D01*
Y1860574D01*
Y1860535D01*
Y1860495D01*
X1413730Y1859709D01*
X1413691Y1858963D01*
X1413573Y1858255D01*
X1413416Y1857626D01*
X1413259Y1857037D01*
X1413062Y1856487D01*
X1412866Y1855976D01*
X1412630Y1855504D01*
X1412434Y1855111D01*
X1412237Y1854757D01*
X1412041Y1854482D01*
X1411883Y1854207D01*
X1411726Y1854011D01*
X1411608Y1853893D01*
X1411569Y1853814D01*
X1411530Y1853775D01*
X1411097Y1853343D01*
X1410586Y1852989D01*
X1410076Y1852675D01*
X1409525Y1852399D01*
X1408975Y1852164D01*
X1408425Y1851967D01*
X1407364Y1851692D01*
X1406892Y1851574D01*
X1406421Y1851496D01*
X1405988Y1851456D01*
X1405635Y1851417D01*
X1405360Y1851378D01*
X1404181D01*
X1403473Y1851456D01*
X1402844Y1851496D01*
X1402255Y1851574D01*
X1401823Y1851653D01*
X1401469Y1851692D01*
X1401233Y1851771D01*
X1401155D01*
X1400526Y1851928D01*
X1400015Y1852046D01*
X1399543Y1852203D01*
X1399150Y1852321D01*
X1398836Y1852439D01*
X1398639Y1852557D01*
X1398482Y1852596D01*
X1398443Y1852635D01*
Y1877591D01*
X1402962D01*
Y1869299D01*
D02*
G37*
G36*
X1474351Y1844972D02*
X1474980Y1844893D01*
X1475530Y1844854D01*
X1476041Y1844775D01*
X1476394Y1844697D01*
X1476630Y1844657D01*
X1476709D01*
X1477377Y1844540D01*
X1478006Y1844382D01*
X1478595Y1844225D01*
X1479067Y1844068D01*
X1479460Y1843950D01*
X1479774Y1843832D01*
X1479971Y1843754D01*
X1480049Y1843714D01*
X1478752Y1840216D01*
X1477849Y1840531D01*
X1477416Y1840649D01*
X1477023Y1840767D01*
X1476709Y1840845D01*
X1476434Y1840924D01*
X1476276Y1840963D01*
X1476198D01*
X1475215Y1841160D01*
X1474744Y1841199D01*
X1474351Y1841238D01*
X1474036Y1841278D01*
X1473565D01*
X1472897Y1841238D01*
X1472347Y1841160D01*
X1471875Y1841042D01*
X1471443Y1840924D01*
X1471128Y1840767D01*
X1470932Y1840649D01*
X1470774Y1840570D01*
X1470735Y1840531D01*
X1470421Y1840256D01*
X1470185Y1839902D01*
X1469988Y1839588D01*
X1469871Y1839273D01*
X1469792Y1838959D01*
X1469753Y1838723D01*
Y1838566D01*
Y1838527D01*
Y1838252D01*
X1469831Y1837976D01*
X1469988Y1837505D01*
X1470067Y1837308D01*
X1470146Y1837190D01*
X1470185Y1837112D01*
X1470224Y1837072D01*
X1470617Y1836640D01*
X1471010Y1836286D01*
X1471207Y1836129D01*
X1471364Y1836011D01*
X1471443Y1835972D01*
X1471482Y1835933D01*
X1472150Y1835579D01*
X1472779Y1835343D01*
X1473054Y1835225D01*
X1473290Y1835147D01*
X1473447Y1835108D01*
X1473486D01*
X1474390Y1834911D01*
X1474822Y1834832D01*
X1475255Y1834793D01*
X1475608Y1834754D01*
X1475883Y1834715D01*
X1476119D01*
Y1831413D01*
X1475215D01*
X1474705Y1831374D01*
X1474272Y1831335D01*
X1473879Y1831295D01*
X1473565Y1831217D01*
X1473290Y1831178D01*
X1473132Y1831138D01*
X1473093D01*
X1472661Y1831060D01*
X1472229Y1830942D01*
X1471875Y1830824D01*
X1471561Y1830706D01*
X1471325Y1830588D01*
X1471128Y1830509D01*
X1471010Y1830470D01*
X1470971Y1830431D01*
X1470657Y1830274D01*
X1470381Y1830077D01*
X1470106Y1829881D01*
X1469910Y1829684D01*
X1469753Y1829527D01*
X1469635Y1829409D01*
X1469595Y1829330D01*
X1469556Y1829291D01*
X1469399Y1829016D01*
X1469242Y1828741D01*
X1469124Y1828191D01*
X1469085Y1827994D01*
X1469045Y1827798D01*
Y1827680D01*
Y1827640D01*
X1469085Y1827090D01*
X1469242Y1826579D01*
X1469438Y1826147D01*
X1469635Y1825793D01*
X1469871Y1825518D01*
X1470067Y1825283D01*
X1470224Y1825165D01*
X1470264Y1825125D01*
X1470735Y1824811D01*
X1471285Y1824575D01*
X1471836Y1824418D01*
X1472386Y1824300D01*
X1472857Y1824221D01*
X1473250Y1824182D01*
X1474194D01*
X1474744Y1824221D01*
X1475255Y1824261D01*
X1475726Y1824300D01*
X1476119Y1824339D01*
X1476394Y1824379D01*
X1476591Y1824418D01*
X1476669D01*
X1477220Y1824536D01*
X1477691Y1824654D01*
X1478124Y1824772D01*
X1478517Y1824889D01*
X1478792Y1825007D01*
X1479027Y1825086D01*
X1479185Y1825165D01*
X1479224D01*
X1480639Y1821667D01*
X1480089Y1821470D01*
X1479499Y1821274D01*
X1478949Y1821117D01*
X1478438Y1820999D01*
X1477966Y1820881D01*
X1477613Y1820842D01*
X1477377Y1820763D01*
X1477298D01*
X1476591Y1820645D01*
X1475923Y1820566D01*
X1475255Y1820488D01*
X1474705Y1820449D01*
X1474233D01*
X1473840Y1820409D01*
X1473525D01*
X1472739Y1820449D01*
X1471993Y1820488D01*
X1471364Y1820566D01*
X1470774Y1820684D01*
X1470303Y1820763D01*
X1469988Y1820842D01*
X1469753Y1820881D01*
X1469674Y1820920D01*
X1469085Y1821117D01*
X1468534Y1821352D01*
X1468024Y1821588D01*
X1467630Y1821824D01*
X1467277Y1822060D01*
X1467041Y1822217D01*
X1466884Y1822335D01*
X1466844Y1822374D01*
X1466412Y1822728D01*
X1466059Y1823121D01*
X1465744Y1823514D01*
X1465508Y1823868D01*
X1465312Y1824182D01*
X1465155Y1824418D01*
X1465076Y1824614D01*
X1465037Y1824654D01*
X1464840Y1825165D01*
X1464683Y1825676D01*
X1464565Y1826186D01*
X1464486Y1826658D01*
X1464447Y1827051D01*
X1464408Y1827365D01*
Y1827562D01*
Y1827640D01*
Y1828073D01*
X1464486Y1828505D01*
X1464526Y1828859D01*
X1464604Y1829213D01*
X1464683Y1829448D01*
X1464762Y1829684D01*
X1464801Y1829802D01*
X1464840Y1829841D01*
X1465194Y1830509D01*
X1465351Y1830824D01*
X1465548Y1831060D01*
X1465705Y1831256D01*
X1465823Y1831413D01*
X1465901Y1831492D01*
X1465941Y1831531D01*
X1466451Y1832042D01*
X1466962Y1832435D01*
X1467159Y1832553D01*
X1467316Y1832671D01*
X1467434Y1832710D01*
X1467473Y1832749D01*
X1468102Y1833103D01*
X1468417Y1833221D01*
X1468692Y1833339D01*
X1468927Y1833418D01*
X1469124Y1833496D01*
X1469242Y1833535D01*
X1469281D01*
Y1833614D01*
X1468731Y1833889D01*
X1468220Y1834164D01*
X1468063Y1834243D01*
X1467906Y1834361D01*
X1467827Y1834400D01*
X1467788Y1834439D01*
X1467277Y1834872D01*
X1466844Y1835265D01*
X1466687Y1835422D01*
X1466569Y1835540D01*
X1466491Y1835618D01*
X1466451Y1835658D01*
X1466059Y1836169D01*
X1465783Y1836640D01*
X1465666Y1836837D01*
X1465587Y1836994D01*
X1465548Y1837112D01*
Y1837151D01*
X1465351Y1837780D01*
X1465273Y1838330D01*
X1465233Y1838566D01*
Y1838723D01*
Y1838841D01*
Y1838880D01*
X1465273Y1839391D01*
X1465312Y1839863D01*
X1465548Y1840767D01*
X1465823Y1841513D01*
X1466176Y1842142D01*
X1466530Y1842653D01*
X1466844Y1843007D01*
X1467080Y1843243D01*
X1467120Y1843321D01*
X1467159D01*
X1467552Y1843636D01*
X1467945Y1843871D01*
X1468888Y1844304D01*
X1469831Y1844618D01*
X1470774Y1844815D01*
X1471207Y1844854D01*
X1471600Y1844932D01*
X1471993Y1844972D01*
X1472307D01*
X1472582Y1845011D01*
X1473643D01*
X1474351Y1844972D01*
D02*
G37*
G36*
X1427269D02*
X1427859Y1844893D01*
X1428370Y1844854D01*
X1428841Y1844775D01*
X1429156Y1844697D01*
X1429392Y1844657D01*
X1429470D01*
X1430099Y1844540D01*
X1430688Y1844382D01*
X1431239Y1844225D01*
X1431710Y1844068D01*
X1432143Y1843950D01*
X1432418Y1843832D01*
X1432614Y1843754D01*
X1432693Y1843714D01*
X1431396Y1840216D01*
X1430531Y1840531D01*
X1430099Y1840649D01*
X1429745Y1840767D01*
X1429392Y1840845D01*
X1429156Y1840924D01*
X1428959Y1840963D01*
X1428920D01*
X1427938Y1841120D01*
X1427505Y1841160D01*
X1427151Y1841199D01*
X1426837Y1841238D01*
X1426366D01*
X1425580Y1841199D01*
X1424911Y1841081D01*
X1424322Y1840924D01*
X1423850Y1840727D01*
X1423457Y1840531D01*
X1423222Y1840374D01*
X1423025Y1840256D01*
X1422986Y1840216D01*
X1422593Y1839823D01*
X1422318Y1839391D01*
X1422082Y1838959D01*
X1421964Y1838527D01*
X1421885Y1838173D01*
X1421807Y1837859D01*
Y1837662D01*
Y1837583D01*
X1421846Y1837151D01*
X1421885Y1836758D01*
X1422003Y1836404D01*
X1422082Y1836090D01*
X1422200Y1835815D01*
X1422318Y1835618D01*
X1422357Y1835461D01*
X1422396Y1835422D01*
X1422829Y1834715D01*
X1423064Y1834400D01*
X1423261Y1834086D01*
X1423418Y1833850D01*
X1423575Y1833653D01*
X1423654Y1833535D01*
X1423693Y1833496D01*
X1433872Y1820802D01*
X1416619D01*
Y1824496D01*
X1426287D01*
X1420078Y1831492D01*
X1419685Y1831964D01*
X1419331Y1832357D01*
X1419213Y1832553D01*
X1419095Y1832671D01*
X1419056Y1832749D01*
X1419016Y1832789D01*
X1418623Y1833339D01*
X1418309Y1833811D01*
X1418191Y1834007D01*
X1418112Y1834164D01*
X1418034Y1834243D01*
Y1834282D01*
X1417759Y1834911D01*
X1417523Y1835422D01*
X1417444Y1835658D01*
X1417405Y1835815D01*
X1417366Y1835933D01*
Y1835972D01*
X1417209Y1836640D01*
X1417169Y1836955D01*
X1417130Y1837230D01*
X1417091Y1837466D01*
Y1837662D01*
Y1837780D01*
Y1837819D01*
X1417130Y1838448D01*
X1417169Y1838998D01*
X1417287Y1839548D01*
X1417444Y1840059D01*
X1417798Y1840963D01*
X1418230Y1841710D01*
X1418427Y1842024D01*
X1418663Y1842299D01*
X1418859Y1842535D01*
X1419016Y1842732D01*
X1419174Y1842889D01*
X1419252Y1843007D01*
X1419331Y1843046D01*
X1419370Y1843085D01*
X1419802Y1843439D01*
X1420313Y1843714D01*
X1420824Y1843989D01*
X1421335Y1844186D01*
X1422436Y1844540D01*
X1423497Y1844775D01*
X1424007Y1844854D01*
X1424479Y1844893D01*
X1424872Y1844972D01*
X1425265D01*
X1425540Y1845011D01*
X1426641D01*
X1427269Y1844972D01*
D02*
G37*
G36*
X1387891D02*
X1388480Y1844893D01*
X1388991Y1844854D01*
X1389463Y1844775D01*
X1389777Y1844697D01*
X1390013Y1844657D01*
X1390092D01*
X1390720Y1844540D01*
X1391310Y1844382D01*
X1391860Y1844225D01*
X1392332Y1844068D01*
X1392764Y1843950D01*
X1393039Y1843832D01*
X1393236Y1843754D01*
X1393314Y1843714D01*
X1392017Y1840216D01*
X1391153Y1840531D01*
X1390720Y1840649D01*
X1390367Y1840767D01*
X1390013Y1840845D01*
X1389777Y1840924D01*
X1389581Y1840963D01*
X1389541D01*
X1388559Y1841120D01*
X1388127Y1841160D01*
X1387773Y1841199D01*
X1387458Y1841238D01*
X1386987D01*
X1386201Y1841199D01*
X1385533Y1841081D01*
X1384943Y1840924D01*
X1384472Y1840727D01*
X1384079Y1840531D01*
X1383843Y1840374D01*
X1383646Y1840256D01*
X1383607Y1840216D01*
X1383214Y1839823D01*
X1382939Y1839391D01*
X1382703Y1838959D01*
X1382585Y1838527D01*
X1382507Y1838173D01*
X1382428Y1837859D01*
Y1837662D01*
Y1837583D01*
X1382467Y1837151D01*
X1382507Y1836758D01*
X1382625Y1836404D01*
X1382703Y1836090D01*
X1382821Y1835815D01*
X1382939Y1835618D01*
X1382978Y1835461D01*
X1383018Y1835422D01*
X1383450Y1834715D01*
X1383686Y1834400D01*
X1383882Y1834086D01*
X1384039Y1833850D01*
X1384197Y1833653D01*
X1384275Y1833535D01*
X1384314Y1833496D01*
X1394493Y1820802D01*
X1377241D01*
Y1824496D01*
X1386908D01*
X1380699Y1831492D01*
X1380306Y1831964D01*
X1379952Y1832357D01*
X1379834Y1832553D01*
X1379716Y1832671D01*
X1379677Y1832749D01*
X1379638Y1832789D01*
X1379245Y1833339D01*
X1378930Y1833811D01*
X1378812Y1834007D01*
X1378734Y1834164D01*
X1378655Y1834243D01*
Y1834282D01*
X1378380Y1834911D01*
X1378144Y1835422D01*
X1378066Y1835658D01*
X1378026Y1835815D01*
X1377987Y1835933D01*
Y1835972D01*
X1377830Y1836640D01*
X1377791Y1836955D01*
X1377751Y1837230D01*
X1377712Y1837466D01*
Y1837662D01*
Y1837780D01*
Y1837819D01*
X1377751Y1838448D01*
X1377791Y1838998D01*
X1377909Y1839548D01*
X1378066Y1840059D01*
X1378419Y1840963D01*
X1378852Y1841710D01*
X1379048Y1842024D01*
X1379284Y1842299D01*
X1379481Y1842535D01*
X1379638Y1842732D01*
X1379795Y1842889D01*
X1379874Y1843007D01*
X1379952Y1843046D01*
X1379992Y1843085D01*
X1380424Y1843439D01*
X1380935Y1843714D01*
X1381446Y1843989D01*
X1381957Y1844186D01*
X1383057Y1844540D01*
X1384118Y1844775D01*
X1384629Y1844854D01*
X1385101Y1844893D01*
X1385494Y1844972D01*
X1385887D01*
X1386162Y1845011D01*
X1387262D01*
X1387891Y1844972D01*
D02*
G37*
G36*
X1367730D02*
X1368359Y1844893D01*
X1368909Y1844854D01*
X1369420Y1844775D01*
X1369774Y1844697D01*
X1370009Y1844657D01*
X1370088D01*
X1370756Y1844540D01*
X1371385Y1844382D01*
X1371974Y1844225D01*
X1372446Y1844068D01*
X1372839Y1843950D01*
X1373153Y1843832D01*
X1373350Y1843754D01*
X1373428Y1843714D01*
X1372131Y1840216D01*
X1371228Y1840531D01*
X1370795Y1840649D01*
X1370402Y1840767D01*
X1370088Y1840845D01*
X1369813Y1840924D01*
X1369656Y1840963D01*
X1369577D01*
X1368594Y1841160D01*
X1368123Y1841199D01*
X1367730Y1841238D01*
X1367416Y1841278D01*
X1366944D01*
X1366276Y1841238D01*
X1365726Y1841160D01*
X1365254Y1841042D01*
X1364822Y1840924D01*
X1364507Y1840767D01*
X1364311Y1840649D01*
X1364154Y1840570D01*
X1364114Y1840531D01*
X1363800Y1840256D01*
X1363564Y1839902D01*
X1363368Y1839588D01*
X1363250Y1839273D01*
X1363171Y1838959D01*
X1363132Y1838723D01*
Y1838566D01*
Y1838527D01*
Y1838252D01*
X1363210Y1837976D01*
X1363368Y1837505D01*
X1363446Y1837308D01*
X1363525Y1837190D01*
X1363564Y1837112D01*
X1363603Y1837072D01*
X1363996Y1836640D01*
X1364389Y1836286D01*
X1364586Y1836129D01*
X1364743Y1836011D01*
X1364822Y1835972D01*
X1364861Y1835933D01*
X1365529Y1835579D01*
X1366158Y1835343D01*
X1366433Y1835225D01*
X1366669Y1835147D01*
X1366826Y1835108D01*
X1366865D01*
X1367769Y1834911D01*
X1368201Y1834832D01*
X1368634Y1834793D01*
X1368987Y1834754D01*
X1369263Y1834715D01*
X1369498D01*
Y1831413D01*
X1368594D01*
X1368084Y1831374D01*
X1367651Y1831335D01*
X1367258Y1831295D01*
X1366944Y1831217D01*
X1366669Y1831178D01*
X1366512Y1831138D01*
X1366472D01*
X1366040Y1831060D01*
X1365608Y1830942D01*
X1365254Y1830824D01*
X1364940Y1830706D01*
X1364704Y1830588D01*
X1364507Y1830509D01*
X1364389Y1830470D01*
X1364350Y1830431D01*
X1364036Y1830274D01*
X1363761Y1830077D01*
X1363486Y1829881D01*
X1363289Y1829684D01*
X1363132Y1829527D01*
X1363014Y1829409D01*
X1362975Y1829330D01*
X1362935Y1829291D01*
X1362778Y1829016D01*
X1362621Y1828741D01*
X1362503Y1828191D01*
X1362464Y1827994D01*
X1362424Y1827798D01*
Y1827680D01*
Y1827640D01*
X1362464Y1827090D01*
X1362621Y1826579D01*
X1362817Y1826147D01*
X1363014Y1825793D01*
X1363250Y1825518D01*
X1363446Y1825283D01*
X1363603Y1825165D01*
X1363643Y1825125D01*
X1364114Y1824811D01*
X1364665Y1824575D01*
X1365215Y1824418D01*
X1365765Y1824300D01*
X1366236Y1824221D01*
X1366630Y1824182D01*
X1367573D01*
X1368123Y1824221D01*
X1368634Y1824261D01*
X1369105Y1824300D01*
X1369498Y1824339D01*
X1369774Y1824379D01*
X1369970Y1824418D01*
X1370049D01*
X1370599Y1824536D01*
X1371070Y1824654D01*
X1371503Y1824772D01*
X1371896Y1824889D01*
X1372171Y1825007D01*
X1372407Y1825086D01*
X1372564Y1825165D01*
X1372603D01*
X1374018Y1821667D01*
X1373468Y1821470D01*
X1372878Y1821274D01*
X1372328Y1821117D01*
X1371817Y1820999D01*
X1371345Y1820881D01*
X1370992Y1820842D01*
X1370756Y1820763D01*
X1370677D01*
X1369970Y1820645D01*
X1369302Y1820566D01*
X1368634Y1820488D01*
X1368084Y1820449D01*
X1367612D01*
X1367219Y1820409D01*
X1366905D01*
X1366119Y1820449D01*
X1365372Y1820488D01*
X1364743Y1820566D01*
X1364154Y1820684D01*
X1363682Y1820763D01*
X1363368Y1820842D01*
X1363132Y1820881D01*
X1363053Y1820920D01*
X1362464Y1821117D01*
X1361914Y1821352D01*
X1361403Y1821588D01*
X1361010Y1821824D01*
X1360656Y1822060D01*
X1360420Y1822217D01*
X1360263Y1822335D01*
X1360224Y1822374D01*
X1359791Y1822728D01*
X1359438Y1823121D01*
X1359123Y1823514D01*
X1358887Y1823868D01*
X1358691Y1824182D01*
X1358534Y1824418D01*
X1358455Y1824614D01*
X1358416Y1824654D01*
X1358219Y1825165D01*
X1358062Y1825676D01*
X1357944Y1826186D01*
X1357866Y1826658D01*
X1357826Y1827051D01*
X1357787Y1827365D01*
Y1827562D01*
Y1827640D01*
Y1828073D01*
X1357866Y1828505D01*
X1357905Y1828859D01*
X1357984Y1829213D01*
X1358062Y1829448D01*
X1358141Y1829684D01*
X1358180Y1829802D01*
X1358219Y1829841D01*
X1358573Y1830509D01*
X1358730Y1830824D01*
X1358927Y1831060D01*
X1359084Y1831256D01*
X1359202Y1831413D01*
X1359280Y1831492D01*
X1359320Y1831531D01*
X1359831Y1832042D01*
X1360341Y1832435D01*
X1360538Y1832553D01*
X1360695Y1832671D01*
X1360813Y1832710D01*
X1360852Y1832749D01*
X1361481Y1833103D01*
X1361796Y1833221D01*
X1362071Y1833339D01*
X1362306Y1833418D01*
X1362503Y1833496D01*
X1362621Y1833535D01*
X1362660D01*
Y1833614D01*
X1362110Y1833889D01*
X1361599Y1834164D01*
X1361442Y1834243D01*
X1361285Y1834361D01*
X1361206Y1834400D01*
X1361167Y1834439D01*
X1360656Y1834872D01*
X1360224Y1835265D01*
X1360066Y1835422D01*
X1359948Y1835540D01*
X1359870Y1835618D01*
X1359831Y1835658D01*
X1359438Y1836169D01*
X1359162Y1836640D01*
X1359045Y1836837D01*
X1358966Y1836994D01*
X1358927Y1837112D01*
Y1837151D01*
X1358730Y1837780D01*
X1358652Y1838330D01*
X1358612Y1838566D01*
Y1838723D01*
Y1838841D01*
Y1838880D01*
X1358652Y1839391D01*
X1358691Y1839863D01*
X1358927Y1840767D01*
X1359202Y1841513D01*
X1359555Y1842142D01*
X1359909Y1842653D01*
X1360224Y1843007D01*
X1360459Y1843243D01*
X1360499Y1843321D01*
X1360538D01*
X1360931Y1843636D01*
X1361324Y1843871D01*
X1362267Y1844304D01*
X1363210Y1844618D01*
X1364154Y1844815D01*
X1364586Y1844854D01*
X1364979Y1844932D01*
X1365372Y1844972D01*
X1365686D01*
X1365961Y1845011D01*
X1367023D01*
X1367730Y1844972D01*
D02*
G37*
G36*
X1530628Y1838841D02*
X1531257Y1838802D01*
X1531807Y1838723D01*
X1532279Y1838645D01*
X1532633Y1838566D01*
X1532869Y1838527D01*
X1532908Y1838487D01*
X1532947D01*
X1533576Y1838330D01*
X1534126Y1838173D01*
X1534637Y1838055D01*
X1535030Y1837898D01*
X1535384Y1837780D01*
X1535620Y1837701D01*
X1535777Y1837662D01*
X1535816Y1837623D01*
X1534716Y1834597D01*
X1534362Y1834754D01*
X1534008Y1834832D01*
X1533733Y1834911D01*
X1533694Y1834950D01*
X1533655D01*
X1533183Y1835108D01*
X1532790Y1835186D01*
X1532633Y1835265D01*
X1532515D01*
X1532436Y1835304D01*
X1532397D01*
X1531886Y1835422D01*
X1531493Y1835501D01*
X1531296D01*
X1531179Y1835540D01*
X1531061D01*
X1530550Y1835618D01*
X1530118Y1835658D01*
X1529725D01*
X1529174Y1835618D01*
X1528703Y1835579D01*
X1528310Y1835461D01*
X1527956Y1835383D01*
X1527681Y1835265D01*
X1527484Y1835147D01*
X1527367Y1835108D01*
X1527327Y1835068D01*
X1527013Y1834832D01*
X1526816Y1834518D01*
X1526659Y1834204D01*
X1526541Y1833889D01*
X1526463Y1833575D01*
X1526423Y1833339D01*
Y1833182D01*
Y1833103D01*
Y1832199D01*
X1527170Y1832160D01*
X1527877Y1832081D01*
X1528545Y1832003D01*
X1529135Y1831924D01*
X1529607Y1831885D01*
X1530000Y1831806D01*
X1530235Y1831767D01*
X1530314D01*
X1530982Y1831649D01*
X1531611Y1831492D01*
X1532161Y1831335D01*
X1532672Y1831178D01*
X1533065Y1831060D01*
X1533340Y1830942D01*
X1533537Y1830863D01*
X1533615Y1830824D01*
X1534126Y1830588D01*
X1534598Y1830274D01*
X1534991Y1829998D01*
X1535305Y1829723D01*
X1535580Y1829448D01*
X1535777Y1829252D01*
X1535895Y1829095D01*
X1535934Y1829055D01*
X1536209Y1828584D01*
X1536445Y1828112D01*
X1536602Y1827640D01*
X1536681Y1827169D01*
X1536759Y1826737D01*
X1536799Y1826422D01*
Y1826186D01*
Y1826147D01*
Y1826108D01*
X1536759Y1825597D01*
X1536720Y1825165D01*
X1536484Y1824300D01*
X1536170Y1823593D01*
X1535816Y1823003D01*
X1535462Y1822532D01*
X1535148Y1822178D01*
X1534912Y1821981D01*
X1534873Y1821903D01*
X1534833D01*
X1534440Y1821628D01*
X1534008Y1821392D01*
X1533065Y1821038D01*
X1532043Y1820763D01*
X1531061Y1820606D01*
X1530628Y1820527D01*
X1530196Y1820488D01*
X1529803Y1820449D01*
X1529489D01*
X1529214Y1820409D01*
X1528074D01*
X1527367Y1820488D01*
X1526738Y1820527D01*
X1526148Y1820606D01*
X1525677Y1820684D01*
X1525323Y1820724D01*
X1525087Y1820802D01*
X1525008D01*
X1524340Y1820959D01*
X1523790Y1821077D01*
X1523319Y1821235D01*
X1522886Y1821352D01*
X1522572Y1821470D01*
X1522375Y1821588D01*
X1522218Y1821628D01*
X1522179Y1821667D01*
Y1832592D01*
Y1833221D01*
X1522257Y1833771D01*
X1522336Y1834282D01*
X1522454Y1834793D01*
X1522611Y1835225D01*
X1522768Y1835618D01*
X1522926Y1835972D01*
X1523083Y1836286D01*
X1523279Y1836562D01*
X1523437Y1836797D01*
X1523751Y1837151D01*
X1523947Y1837348D01*
X1523987Y1837426D01*
X1524026D01*
X1524773Y1837937D01*
X1525637Y1838291D01*
X1526502Y1838566D01*
X1527327Y1838723D01*
X1528074Y1838841D01*
X1528428Y1838880D01*
X1528703D01*
X1528938Y1838920D01*
X1529960D01*
X1530628Y1838841D01*
D02*
G37*
G36*
X1459338Y1831728D02*
X1458591Y1831846D01*
X1458277D01*
X1458002Y1831885D01*
X1457766Y1831924D01*
X1457452D01*
X1456823Y1831964D01*
X1456509Y1832003D01*
X1455133D01*
X1454583Y1831964D01*
X1454072Y1831924D01*
X1453600Y1831846D01*
X1453247Y1831806D01*
X1453011Y1831728D01*
X1452814Y1831688D01*
X1452775D01*
X1452343Y1831571D01*
X1451910Y1831413D01*
X1451557Y1831295D01*
X1451282Y1831138D01*
X1451046Y1831020D01*
X1450889Y1830902D01*
X1450771Y1830863D01*
X1450732Y1830824D01*
X1450456Y1830627D01*
X1450221Y1830391D01*
X1449867Y1829959D01*
X1449749Y1829802D01*
X1449670Y1829645D01*
X1449592Y1829566D01*
Y1829527D01*
X1449356Y1828937D01*
X1449238Y1828387D01*
X1449199Y1828191D01*
Y1827994D01*
Y1827876D01*
Y1827837D01*
X1449238Y1827208D01*
X1449395Y1826697D01*
X1449631Y1826226D01*
X1449867Y1825833D01*
X1450103Y1825518D01*
X1450339Y1825322D01*
X1450496Y1825165D01*
X1450535Y1825125D01*
X1451046Y1824811D01*
X1451635Y1824575D01*
X1452225Y1824418D01*
X1452775Y1824300D01*
X1453286Y1824221D01*
X1453718Y1824182D01*
X1454072D01*
X1455094Y1824221D01*
X1455565Y1824261D01*
X1456037Y1824300D01*
X1456391Y1824339D01*
X1456666Y1824379D01*
X1456862Y1824418D01*
X1456941D01*
X1457452Y1824536D01*
X1457923Y1824654D01*
X1458356Y1824772D01*
X1458709Y1824889D01*
X1459024Y1825007D01*
X1459220Y1825086D01*
X1459378Y1825165D01*
X1459417D01*
X1460832Y1821667D01*
X1459731Y1821313D01*
X1459181Y1821156D01*
X1458670Y1820999D01*
X1458238Y1820920D01*
X1457923Y1820842D01*
X1457688Y1820763D01*
X1457609D01*
X1456941Y1820645D01*
X1456273Y1820566D01*
X1455644Y1820488D01*
X1455094Y1820449D01*
X1454622D01*
X1454268Y1820409D01*
X1453954D01*
X1453207Y1820449D01*
X1452539Y1820488D01*
X1451871Y1820566D01*
X1451321Y1820645D01*
X1450889Y1820724D01*
X1450535Y1820802D01*
X1450299Y1820881D01*
X1450221D01*
X1449592Y1821077D01*
X1449042Y1821313D01*
X1448531Y1821549D01*
X1448059Y1821785D01*
X1447705Y1821981D01*
X1447470Y1822139D01*
X1447273Y1822256D01*
X1447234Y1822296D01*
X1446802Y1822689D01*
X1446409Y1823082D01*
X1446055Y1823475D01*
X1445780Y1823828D01*
X1445544Y1824143D01*
X1445387Y1824418D01*
X1445308Y1824575D01*
X1445269Y1824654D01*
X1445033Y1825204D01*
X1444876Y1825754D01*
X1444719Y1826304D01*
X1444640Y1826854D01*
X1444601Y1827287D01*
X1444561Y1827640D01*
Y1827876D01*
Y1827916D01*
Y1827955D01*
X1444601Y1828584D01*
X1444679Y1829173D01*
X1444797Y1829723D01*
X1444915Y1830274D01*
X1445112Y1830745D01*
X1445308Y1831178D01*
X1445505Y1831571D01*
X1445740Y1831964D01*
X1445976Y1832278D01*
X1446173Y1832553D01*
X1446369Y1832789D01*
X1446566Y1832985D01*
X1446684Y1833142D01*
X1446802Y1833260D01*
X1446880Y1833300D01*
X1446919Y1833339D01*
X1447391Y1833693D01*
X1447902Y1834007D01*
X1448413Y1834243D01*
X1449002Y1834479D01*
X1450181Y1834832D01*
X1451321Y1835068D01*
X1451832Y1835147D01*
X1452343Y1835186D01*
X1452775Y1835265D01*
X1453168D01*
X1453522Y1835304D01*
X1454622D01*
X1453954Y1840885D01*
X1445072D01*
Y1844579D01*
X1457884D01*
X1459338Y1831728D01*
D02*
G37*
G36*
X1544265Y1838880D02*
X1544816Y1838841D01*
X1545327Y1838723D01*
X1545798Y1838645D01*
X1546152Y1838527D01*
X1546466Y1838409D01*
X1546623Y1838369D01*
X1546702Y1838330D01*
X1547213Y1838094D01*
X1547685Y1837819D01*
X1548117Y1837544D01*
X1548471Y1837269D01*
X1548785Y1837033D01*
X1549021Y1836837D01*
X1549178Y1836679D01*
X1549217Y1836640D01*
X1549610Y1836208D01*
X1549964Y1835697D01*
X1550278Y1835225D01*
X1550514Y1834793D01*
X1550711Y1834361D01*
X1550868Y1834046D01*
X1550947Y1833850D01*
X1550986Y1833811D01*
Y1833771D01*
X1551182Y1833103D01*
X1551340Y1832396D01*
X1551457Y1831688D01*
X1551536Y1831060D01*
X1551575Y1830509D01*
X1551615Y1830038D01*
Y1829881D01*
Y1829763D01*
Y1829684D01*
Y1829645D01*
X1551575Y1828780D01*
X1551497Y1827994D01*
X1551418Y1827326D01*
X1551300Y1826737D01*
X1551182Y1826226D01*
X1551064Y1825872D01*
X1551025Y1825636D01*
X1550986Y1825597D01*
Y1825558D01*
X1550711Y1824929D01*
X1550436Y1824379D01*
X1550121Y1823868D01*
X1549846Y1823475D01*
X1549610Y1823121D01*
X1549414Y1822846D01*
X1549257Y1822689D01*
X1549217Y1822649D01*
X1548785Y1822256D01*
X1548353Y1821903D01*
X1547920Y1821628D01*
X1547527Y1821392D01*
X1547213Y1821195D01*
X1546938Y1821077D01*
X1546781Y1820999D01*
X1546702Y1820959D01*
X1546152Y1820763D01*
X1545602Y1820645D01*
X1545130Y1820527D01*
X1544659Y1820488D01*
X1544265Y1820449D01*
X1543990Y1820409D01*
X1543715D01*
X1542733Y1820449D01*
X1541829Y1820606D01*
X1541043Y1820802D01*
X1540335Y1820999D01*
X1539785Y1821235D01*
X1539550Y1821313D01*
X1539353Y1821392D01*
X1539196Y1821470D01*
X1539078Y1821549D01*
X1539039Y1821588D01*
X1538999D01*
X1540414Y1824968D01*
X1540846Y1824693D01*
X1541279Y1824496D01*
X1541711Y1824379D01*
X1542143Y1824300D01*
X1542497Y1824221D01*
X1542772Y1824182D01*
X1543047D01*
X1543597Y1824221D01*
X1544108Y1824339D01*
X1544305Y1824418D01*
X1544462Y1824457D01*
X1544541Y1824496D01*
X1544580D01*
X1545091Y1824811D01*
X1545484Y1825125D01*
X1545641Y1825283D01*
X1545720Y1825400D01*
X1545798Y1825479D01*
X1545838Y1825518D01*
X1546191Y1826108D01*
X1546427Y1826658D01*
X1546545Y1826894D01*
X1546623Y1827090D01*
X1546663Y1827208D01*
Y1827247D01*
X1546859Y1828073D01*
X1546899Y1828505D01*
X1546938Y1828859D01*
X1546977Y1829213D01*
Y1829448D01*
Y1829605D01*
Y1829684D01*
X1546938Y1830667D01*
X1546781Y1831531D01*
X1546623Y1832239D01*
X1546388Y1832828D01*
X1546191Y1833260D01*
X1545995Y1833575D01*
X1545877Y1833771D01*
X1545838Y1833850D01*
X1545405Y1834322D01*
X1544934Y1834636D01*
X1544462Y1834872D01*
X1544030Y1835068D01*
X1543637Y1835147D01*
X1543322Y1835186D01*
X1543126Y1835225D01*
X1543047D01*
X1542497Y1835186D01*
X1541986Y1835108D01*
X1541514Y1834990D01*
X1541121Y1834872D01*
X1540846Y1834715D01*
X1540611Y1834597D01*
X1540453Y1834518D01*
X1540414Y1834479D01*
X1538999Y1837701D01*
X1539785Y1838094D01*
X1540571Y1838409D01*
X1541357Y1838605D01*
X1542104Y1838762D01*
X1542733Y1838841D01*
X1543008Y1838880D01*
X1543244Y1838920D01*
X1543715D01*
X1544265Y1838880D01*
D02*
G37*
G36*
X1500289Y1829881D02*
Y1826658D01*
X1489639D01*
Y1820802D01*
X1485473D01*
Y1826658D01*
X1483115D01*
Y1829881D01*
X1485473D01*
Y1844579D01*
X1490385D01*
X1500289Y1829881D01*
D02*
G37*
G36*
X1507992Y1838330D02*
X1508345Y1838448D01*
X1508738Y1838527D01*
X1508896D01*
X1509013Y1838566D01*
X1509131D01*
X1509642Y1838645D01*
X1510074Y1838684D01*
X1510507D01*
X1511254Y1838645D01*
X1511922Y1838566D01*
X1512550Y1838487D01*
X1513061Y1838369D01*
X1513533Y1838212D01*
X1513847Y1838134D01*
X1514044Y1838055D01*
X1514122Y1838016D01*
X1514673Y1837741D01*
X1515184Y1837426D01*
X1515616Y1837112D01*
X1516009Y1836837D01*
X1516284Y1836562D01*
X1516520Y1836326D01*
X1516677Y1836169D01*
X1516716Y1836129D01*
X1517070Y1835658D01*
X1517424Y1835186D01*
X1517659Y1834715D01*
X1517895Y1834243D01*
X1518052Y1833850D01*
X1518210Y1833535D01*
X1518249Y1833339D01*
X1518288Y1833300D01*
Y1833260D01*
X1518445Y1832632D01*
X1518563Y1831964D01*
X1518681Y1831335D01*
X1518720Y1830745D01*
X1518760Y1830274D01*
X1518799Y1829881D01*
Y1829723D01*
Y1829605D01*
Y1829566D01*
Y1829527D01*
X1518760Y1828741D01*
X1518720Y1827994D01*
X1518603Y1827287D01*
X1518445Y1826658D01*
X1518288Y1826069D01*
X1518092Y1825518D01*
X1517895Y1825007D01*
X1517659Y1824536D01*
X1517463Y1824143D01*
X1517266Y1823789D01*
X1517070Y1823514D01*
X1516913Y1823239D01*
X1516755Y1823042D01*
X1516638Y1822925D01*
X1516598Y1822846D01*
X1516559Y1822807D01*
X1516127Y1822374D01*
X1515616Y1822021D01*
X1515105Y1821706D01*
X1514555Y1821431D01*
X1514005Y1821195D01*
X1513454Y1820999D01*
X1512393Y1820724D01*
X1511922Y1820606D01*
X1511450Y1820527D01*
X1511018Y1820488D01*
X1510664Y1820449D01*
X1510389Y1820409D01*
X1509210D01*
X1508503Y1820488D01*
X1507874Y1820527D01*
X1507284Y1820606D01*
X1506852Y1820684D01*
X1506498Y1820724D01*
X1506262Y1820802D01*
X1506184D01*
X1505555Y1820959D01*
X1505044Y1821077D01*
X1504572Y1821235D01*
X1504179Y1821352D01*
X1503865Y1821470D01*
X1503669Y1821588D01*
X1503511Y1821628D01*
X1503472Y1821667D01*
Y1846622D01*
X1507992D01*
Y1838330D01*
D02*
G37*
G36*
X1405497Y1844972D02*
X1406205Y1844854D01*
X1406833Y1844697D01*
X1407384Y1844540D01*
X1407816Y1844382D01*
X1408170Y1844225D01*
X1408366Y1844107D01*
X1408445Y1844068D01*
X1408995Y1843675D01*
X1409506Y1843243D01*
X1409938Y1842810D01*
X1410292Y1842417D01*
X1410606Y1842024D01*
X1410803Y1841710D01*
X1410960Y1841513D01*
X1410999Y1841474D01*
Y1841435D01*
X1411353Y1840806D01*
X1411628Y1840138D01*
X1411903Y1839470D01*
X1412100Y1838880D01*
X1412257Y1838330D01*
X1412375Y1837937D01*
X1412414Y1837780D01*
Y1837662D01*
X1412453Y1837583D01*
Y1837544D01*
X1412611Y1836679D01*
X1412728Y1835854D01*
X1412807Y1835029D01*
X1412846Y1834282D01*
X1412886Y1833653D01*
X1412925Y1833378D01*
Y1833142D01*
Y1832946D01*
Y1832828D01*
Y1832749D01*
Y1832710D01*
X1412886Y1831728D01*
X1412846Y1830824D01*
X1412768Y1829998D01*
X1412689Y1829291D01*
X1412611Y1828702D01*
X1412571Y1828427D01*
X1412532Y1828230D01*
X1412493Y1828073D01*
X1412453Y1827955D01*
Y1827876D01*
Y1827837D01*
X1412257Y1827012D01*
X1412021Y1826265D01*
X1411785Y1825597D01*
X1411549Y1825047D01*
X1411353Y1824575D01*
X1411156Y1824221D01*
X1411039Y1823986D01*
X1410999Y1823946D01*
Y1823907D01*
X1410606Y1823318D01*
X1410174Y1822807D01*
X1409742Y1822374D01*
X1409349Y1821981D01*
X1408995Y1821706D01*
X1408720Y1821470D01*
X1408523Y1821352D01*
X1408445Y1821313D01*
X1407816Y1820999D01*
X1407187Y1820802D01*
X1406558Y1820645D01*
X1405969Y1820527D01*
X1405458Y1820449D01*
X1405065Y1820409D01*
X1404711D01*
X1403925Y1820449D01*
X1403218Y1820566D01*
X1402589Y1820684D01*
X1402039Y1820881D01*
X1401607Y1821038D01*
X1401253Y1821156D01*
X1401056Y1821274D01*
X1400978Y1821313D01*
X1400428Y1821706D01*
X1399917Y1822099D01*
X1399484Y1822532D01*
X1399091Y1822964D01*
X1398816Y1823318D01*
X1398580Y1823632D01*
X1398463Y1823828D01*
X1398423Y1823907D01*
X1398070Y1824575D01*
X1397794Y1825243D01*
X1397519Y1825911D01*
X1397323Y1826501D01*
X1397166Y1827051D01*
X1397048Y1827444D01*
X1397008Y1827601D01*
Y1827719D01*
X1396969Y1827798D01*
Y1827837D01*
X1396812Y1828702D01*
X1396694Y1829527D01*
X1396615Y1830352D01*
X1396537Y1831099D01*
Y1831767D01*
X1396497Y1832042D01*
Y1832278D01*
Y1832435D01*
Y1832592D01*
Y1832671D01*
Y1832710D01*
Y1833653D01*
X1396576Y1834557D01*
X1396655Y1835383D01*
X1396733Y1836090D01*
X1396812Y1836719D01*
X1396851Y1836955D01*
X1396890Y1837151D01*
X1396930Y1837308D01*
Y1837426D01*
X1396969Y1837505D01*
Y1837544D01*
X1397166Y1838369D01*
X1397401Y1839116D01*
X1397637Y1839745D01*
X1397873Y1840334D01*
X1398070Y1840806D01*
X1398266Y1841160D01*
X1398384Y1841356D01*
X1398423Y1841435D01*
X1398816Y1842024D01*
X1399248Y1842574D01*
X1399681Y1843007D01*
X1400074Y1843400D01*
X1400428Y1843675D01*
X1400703Y1843911D01*
X1400899Y1844029D01*
X1400978Y1844068D01*
X1401607Y1844382D01*
X1402235Y1844618D01*
X1402864Y1844775D01*
X1403414Y1844893D01*
X1403925Y1844972D01*
X1404358Y1845011D01*
X1404711D01*
X1405497Y1844972D01*
D02*
G37*
G36*
X1328901Y1490125D02*
X1329901Y1490075D01*
X1330801Y1489925D01*
X1331651Y1489725D01*
X1332451Y1489525D01*
X1333201Y1489275D01*
X1333851Y1488975D01*
X1334501Y1488725D01*
X1335001Y1488475D01*
X1335501Y1488175D01*
X1335901Y1487925D01*
X1336251Y1487725D01*
X1336501Y1487525D01*
X1336701Y1487425D01*
X1336801Y1487325D01*
X1336851Y1487275D01*
X1337451Y1486725D01*
X1337951Y1486175D01*
X1338401Y1485575D01*
X1338801Y1484975D01*
X1339101Y1484425D01*
X1339401Y1483875D01*
X1339801Y1482775D01*
X1340001Y1481875D01*
X1340101Y1481475D01*
X1340151Y1481125D01*
X1340201Y1480875D01*
Y1479925D01*
X1340101Y1479325D01*
X1339851Y1478275D01*
X1339451Y1477275D01*
X1339051Y1476375D01*
X1338601Y1475675D01*
X1338401Y1475375D01*
X1338201Y1475125D01*
X1338051Y1474925D01*
X1337951Y1474775D01*
X1337901Y1474675D01*
X1337851Y1474625D01*
X1348051Y1476325D01*
Y1488675D01*
X1352501D01*
Y1473275D01*
X1332951Y1470225D01*
X1332401Y1473825D01*
X1333001Y1474175D01*
X1333551Y1474575D01*
X1334001Y1474925D01*
X1334401Y1475325D01*
X1334701Y1475675D01*
X1334951Y1475925D01*
X1335051Y1476125D01*
X1335101Y1476175D01*
X1335451Y1476775D01*
X1335701Y1477325D01*
X1335851Y1477875D01*
X1336001Y1478375D01*
X1336051Y1478825D01*
X1336101Y1479125D01*
Y1479975D01*
X1336001Y1480475D01*
X1335751Y1481425D01*
X1335401Y1482225D01*
X1335001Y1482925D01*
X1334551Y1483475D01*
X1334201Y1483875D01*
X1333951Y1484125D01*
X1333901Y1484225D01*
X1333851D01*
X1332951Y1484875D01*
X1331901Y1485325D01*
X1330851Y1485675D01*
X1329851Y1485875D01*
X1328951Y1486025D01*
X1328551Y1486075D01*
X1328201D01*
X1327951Y1486125D01*
X1327751D01*
X1327601D01*
X1327551D01*
X1326001Y1486025D01*
X1324651Y1485825D01*
X1323451Y1485475D01*
X1322951Y1485325D01*
X1322501Y1485125D01*
X1322101Y1484925D01*
X1321701Y1484775D01*
X1321401Y1484575D01*
X1321151Y1484425D01*
X1320951Y1484325D01*
X1320801Y1484225D01*
X1320751Y1484125D01*
X1320701D01*
X1320251Y1483775D01*
X1319901Y1483375D01*
X1319551Y1482975D01*
X1319301Y1482575D01*
X1318851Y1481775D01*
X1318551Y1481075D01*
X1318401Y1480425D01*
X1318301Y1479925D01*
X1318251Y1479725D01*
Y1479475D01*
X1318351Y1478675D01*
X1318551Y1477925D01*
X1318801Y1477275D01*
X1319151Y1476725D01*
X1319451Y1476275D01*
X1319751Y1475925D01*
X1319951Y1475725D01*
X1320001Y1475625D01*
X1320751Y1475075D01*
X1321601Y1474625D01*
X1322451Y1474275D01*
X1323351Y1474025D01*
X1324101Y1473825D01*
X1324451Y1473725D01*
X1324751Y1473675D01*
X1325001Y1473625D01*
X1325201Y1473575D01*
X1325301D01*
X1325351D01*
X1325001Y1469575D01*
X1324101Y1469675D01*
X1323251Y1469825D01*
X1322451Y1469975D01*
X1321651Y1470225D01*
X1321001Y1470475D01*
X1320351Y1470725D01*
X1319751Y1470975D01*
X1319251Y1471275D01*
X1318751Y1471525D01*
X1318351Y1471775D01*
X1318001Y1472025D01*
X1317701Y1472225D01*
X1317501Y1472425D01*
X1317351Y1472575D01*
X1317251Y1472625D01*
X1317201Y1472675D01*
X1316701Y1473225D01*
X1316301Y1473775D01*
X1315901Y1474325D01*
X1315601Y1474925D01*
X1315101Y1476075D01*
X1314751Y1477175D01*
X1314551Y1478075D01*
X1314501Y1478525D01*
X1314451Y1478875D01*
X1314401Y1479125D01*
Y1479525D01*
X1314451Y1480425D01*
X1314551Y1481275D01*
X1314751Y1482025D01*
X1315001Y1482775D01*
X1315301Y1483475D01*
X1315651Y1484125D01*
X1316001Y1484675D01*
X1316401Y1485225D01*
X1316751Y1485675D01*
X1317101Y1486125D01*
X1317451Y1486475D01*
X1317751Y1486725D01*
X1318001Y1486975D01*
X1318201Y1487125D01*
X1318301Y1487225D01*
X1318351Y1487275D01*
X1319101Y1487775D01*
X1319901Y1488225D01*
X1320701Y1488625D01*
X1321501Y1488975D01*
X1322301Y1489225D01*
X1323101Y1489475D01*
X1324601Y1489825D01*
X1325301Y1489925D01*
X1325901Y1490025D01*
X1326501Y1490075D01*
X1326951Y1490125D01*
X1327351Y1490175D01*
X1327651D01*
X1327851D01*
X1327901D01*
X1328901Y1490125D01*
D02*
G37*
G36*
X1325351Y1461775D02*
X1326301Y1461225D01*
X1327251Y1460675D01*
X1328051Y1460125D01*
X1328751Y1459675D01*
X1329351Y1459225D01*
X1329801Y1458875D01*
X1330101Y1458675D01*
X1330201Y1458575D01*
X1330601Y1458175D01*
X1330951Y1457775D01*
X1331651Y1456875D01*
X1331901Y1456525D01*
X1332101Y1456225D01*
X1332251Y1456025D01*
X1332301Y1455925D01*
X1332651Y1457425D01*
X1333101Y1458725D01*
X1333651Y1459875D01*
X1334251Y1460775D01*
X1334501Y1461175D01*
X1334801Y1461475D01*
X1335001Y1461775D01*
X1335251Y1462025D01*
X1335401Y1462175D01*
X1335551Y1462325D01*
X1335601Y1462425D01*
X1335651D01*
X1336201Y1462825D01*
X1336751Y1463175D01*
X1337901Y1463725D01*
X1339051Y1464125D01*
X1340151Y1464375D01*
X1341151Y1464575D01*
X1341551Y1464625D01*
X1341951D01*
X1342251Y1464675D01*
X1342451D01*
X1342601D01*
X1342651D01*
X1343851Y1464625D01*
X1344901Y1464475D01*
X1345901Y1464225D01*
X1346701Y1464025D01*
X1347401Y1463775D01*
X1347901Y1463525D01*
X1348101Y1463475D01*
X1348251Y1463375D01*
X1348301Y1463325D01*
X1348351D01*
X1349201Y1462825D01*
X1349951Y1462275D01*
X1350551Y1461675D01*
X1351051Y1461175D01*
X1351451Y1460675D01*
X1351701Y1460325D01*
X1351851Y1460075D01*
X1351901Y1459975D01*
X1352101Y1459575D01*
X1352251Y1459125D01*
X1352551Y1458125D01*
X1352751Y1457075D01*
X1352851Y1456025D01*
X1352951Y1455075D01*
Y1454625D01*
X1353001Y1454275D01*
Y1439825D01*
X1315051D01*
Y1443925D01*
X1331901D01*
Y1449425D01*
X1331801Y1450025D01*
X1331701Y1450575D01*
X1331601Y1451025D01*
X1331501Y1451425D01*
X1331401Y1451675D01*
X1331351Y1451825D01*
X1331301Y1451875D01*
X1331051Y1452325D01*
X1330751Y1452725D01*
X1330401Y1453125D01*
X1330001Y1453475D01*
X1329701Y1453775D01*
X1329401Y1454025D01*
X1329201Y1454175D01*
X1329151Y1454225D01*
X1328801Y1454475D01*
X1328401Y1454725D01*
X1327501Y1455325D01*
X1326451Y1455925D01*
X1325451Y1456525D01*
X1324451Y1457075D01*
X1324051Y1457275D01*
X1323651Y1457475D01*
X1323351Y1457625D01*
X1323101Y1457775D01*
X1322951Y1457825D01*
X1322901Y1457875D01*
X1315051Y1462025D01*
Y1467225D01*
X1325351Y1461775D01*
D02*
G37*
G36*
X1328126Y1547800D02*
X1352676D01*
Y1544650D01*
X1328126Y1530500D01*
X1323826D01*
Y1544000D01*
X1314726D01*
Y1547800D01*
X1323826D01*
Y1552000D01*
X1328126D01*
Y1547800D01*
D02*
G37*
G36*
X1325026Y1523950D02*
X1325976Y1523400D01*
X1326926Y1522850D01*
X1327726Y1522300D01*
X1328426Y1521850D01*
X1329026Y1521400D01*
X1329476Y1521050D01*
X1329776Y1520850D01*
X1329876Y1520750D01*
X1330276Y1520350D01*
X1330626Y1519950D01*
X1331326Y1519050D01*
X1331576Y1518700D01*
X1331776Y1518400D01*
X1331926Y1518200D01*
X1331976Y1518100D01*
X1332326Y1519600D01*
X1332776Y1520900D01*
X1333326Y1522050D01*
X1333926Y1522950D01*
X1334176Y1523350D01*
X1334476Y1523650D01*
X1334676Y1523950D01*
X1334926Y1524200D01*
X1335076Y1524350D01*
X1335226Y1524500D01*
X1335276Y1524600D01*
X1335326D01*
X1335876Y1525000D01*
X1336426Y1525350D01*
X1337576Y1525900D01*
X1338726Y1526300D01*
X1339826Y1526550D01*
X1340826Y1526750D01*
X1341226Y1526800D01*
X1341626D01*
X1341926Y1526850D01*
X1342126D01*
X1342276D01*
X1342326D01*
X1343526Y1526800D01*
X1344576Y1526650D01*
X1345576Y1526400D01*
X1346376Y1526200D01*
X1347076Y1525950D01*
X1347576Y1525700D01*
X1347776Y1525650D01*
X1347926Y1525550D01*
X1347976Y1525500D01*
X1348026D01*
X1348876Y1525000D01*
X1349626Y1524450D01*
X1350226Y1523850D01*
X1350726Y1523350D01*
X1351126Y1522850D01*
X1351376Y1522500D01*
X1351526Y1522250D01*
X1351576Y1522150D01*
X1351776Y1521750D01*
X1351926Y1521300D01*
X1352226Y1520300D01*
X1352426Y1519250D01*
X1352526Y1518200D01*
X1352626Y1517250D01*
Y1516800D01*
X1352676Y1516450D01*
Y1502000D01*
X1314726D01*
Y1506100D01*
X1331576D01*
Y1511600D01*
X1331476Y1512200D01*
X1331376Y1512750D01*
X1331276Y1513200D01*
X1331176Y1513600D01*
X1331076Y1513850D01*
X1331026Y1514000D01*
X1330976Y1514050D01*
X1330726Y1514500D01*
X1330426Y1514900D01*
X1330076Y1515300D01*
X1329676Y1515650D01*
X1329376Y1515950D01*
X1329076Y1516200D01*
X1328876Y1516350D01*
X1328826Y1516400D01*
X1328476Y1516650D01*
X1328076Y1516900D01*
X1327176Y1517500D01*
X1326126Y1518100D01*
X1325126Y1518700D01*
X1324126Y1519250D01*
X1323726Y1519450D01*
X1323326Y1519650D01*
X1323026Y1519800D01*
X1322776Y1519950D01*
X1322626Y1520000D01*
X1322576Y1520050D01*
X1314726Y1524200D01*
Y1529400D01*
X1325026Y1523950D01*
D02*
G37*
%LPC*%
G36*
X1421591Y1860299D02*
X1421394D01*
Y1854915D01*
X1421708Y1854797D01*
X1422062Y1854718D01*
X1422219Y1854679D01*
X1422377D01*
X1422455Y1854640D01*
X1422494D01*
X1423005Y1854600D01*
X1423477Y1854561D01*
X1423909D01*
X1424538Y1854600D01*
X1425088Y1854679D01*
X1425560Y1854757D01*
X1425953Y1854915D01*
X1426267Y1855033D01*
X1426464Y1855111D01*
X1426621Y1855190D01*
X1426660Y1855229D01*
X1426975Y1855504D01*
X1427171Y1855819D01*
X1427328Y1856172D01*
X1427446Y1856487D01*
X1427525Y1856762D01*
X1427564Y1856998D01*
Y1857155D01*
Y1857194D01*
X1427525Y1857548D01*
X1427486Y1857862D01*
X1427407Y1858137D01*
X1427289Y1858334D01*
X1427210Y1858530D01*
X1427132Y1858648D01*
X1427092Y1858727D01*
X1427053Y1858766D01*
X1426621Y1859159D01*
X1426189Y1859434D01*
X1425992Y1859552D01*
X1425835Y1859631D01*
X1425756Y1859670D01*
X1425717D01*
X1425049Y1859906D01*
X1424459Y1860024D01*
X1424184Y1860063D01*
X1423988Y1860102D01*
X1423791D01*
X1422927Y1860181D01*
X1422534Y1860220D01*
X1422180Y1860259D01*
X1421866D01*
X1421591Y1860299D01*
D02*
G37*
G36*
X1442380Y1866626D02*
X1442105D01*
X1441516Y1866587D01*
X1441044Y1866469D01*
X1440612Y1866312D01*
X1440258Y1866115D01*
X1439944Y1865919D01*
X1439747Y1865762D01*
X1439629Y1865644D01*
X1439590Y1865604D01*
X1439275Y1865211D01*
X1439079Y1864740D01*
X1438922Y1864229D01*
X1438804Y1863757D01*
X1438725Y1863286D01*
X1438686Y1862932D01*
Y1862696D01*
Y1862657D01*
Y1862618D01*
X1446153Y1861596D01*
X1446074Y1862460D01*
X1445917Y1863207D01*
X1445760Y1863875D01*
X1445524Y1864386D01*
X1445328Y1864818D01*
X1445131Y1865093D01*
X1445013Y1865290D01*
X1444974Y1865329D01*
X1444542Y1865762D01*
X1444070Y1866076D01*
X1443599Y1866312D01*
X1443127Y1866469D01*
X1442734Y1866547D01*
X1442380Y1866626D01*
D02*
G37*
G36*
X1577965Y1872403D02*
X1577533D01*
X1576708Y1872364D01*
X1576000Y1872246D01*
X1575411Y1872050D01*
X1574861Y1871774D01*
X1574428Y1871460D01*
X1574074Y1871106D01*
X1573760Y1870753D01*
X1573524Y1870399D01*
X1573328Y1870006D01*
X1573171Y1869652D01*
X1573092Y1869299D01*
X1573013Y1868984D01*
X1572974Y1868748D01*
X1572935Y1868513D01*
Y1868395D01*
Y1868355D01*
X1572974Y1867687D01*
X1573131Y1867098D01*
X1573328Y1866587D01*
X1573564Y1866194D01*
X1573839Y1865840D01*
X1574035Y1865604D01*
X1574192Y1865447D01*
X1574232Y1865408D01*
X1574743Y1865054D01*
X1575332Y1864779D01*
X1575961Y1864622D01*
X1576550Y1864465D01*
X1577101Y1864386D01*
X1577572Y1864347D01*
X1578398D01*
X1578791Y1864386D01*
X1579105D01*
X1579419Y1864425D01*
X1579616Y1864465D01*
X1579812D01*
X1579891Y1864504D01*
X1579930D01*
Y1872050D01*
X1579576Y1872167D01*
X1579223Y1872246D01*
X1579105D01*
X1578987Y1872285D01*
X1578869D01*
X1578358Y1872364D01*
X1577965Y1872403D01*
D02*
G37*
G36*
X1558747Y1872050D02*
X1557844D01*
X1557411Y1871971D01*
X1557018Y1871892D01*
X1556704Y1871814D01*
X1556429Y1871735D01*
X1556232Y1871657D01*
X1556075Y1871617D01*
X1556036Y1871578D01*
X1555643Y1871381D01*
X1555289Y1871146D01*
X1555014Y1870910D01*
X1554739Y1870674D01*
X1554503Y1870438D01*
X1554346Y1870242D01*
X1554267Y1870124D01*
X1554228Y1870084D01*
X1553953Y1869691D01*
X1553717Y1869259D01*
X1553521Y1868788D01*
X1553363Y1868395D01*
X1553245Y1868002D01*
X1553167Y1867726D01*
X1553088Y1867530D01*
Y1867451D01*
X1552931Y1866823D01*
X1552852Y1866194D01*
X1552774Y1865565D01*
X1552695Y1864976D01*
Y1864465D01*
X1552656Y1864032D01*
Y1863875D01*
Y1863796D01*
Y1863718D01*
Y1863679D01*
Y1862853D01*
X1552735Y1862146D01*
X1552774Y1861478D01*
X1552852Y1860928D01*
X1552931Y1860456D01*
X1553010Y1860102D01*
X1553049Y1859906D01*
X1553088Y1859827D01*
X1553245Y1859277D01*
X1553442Y1858766D01*
X1553639Y1858334D01*
X1553796Y1857941D01*
X1553953Y1857626D01*
X1554110Y1857430D01*
X1554189Y1857273D01*
X1554228Y1857233D01*
X1554503Y1856880D01*
X1554818Y1856565D01*
X1555132Y1856330D01*
X1555407Y1856094D01*
X1555643Y1855937D01*
X1555839Y1855819D01*
X1555996Y1855779D01*
X1556036Y1855740D01*
X1556429Y1855583D01*
X1556822Y1855465D01*
X1557176Y1855386D01*
X1557529Y1855347D01*
X1557844Y1855308D01*
X1558079Y1855268D01*
X1558787D01*
X1559219Y1855308D01*
X1559612Y1855386D01*
X1559887Y1855426D01*
X1560123Y1855504D01*
X1560320Y1855543D01*
X1560398Y1855583D01*
X1560437D01*
Y1871735D01*
X1560123Y1871853D01*
X1559769Y1871932D01*
X1559062Y1872010D01*
X1558747Y1872050D01*
D02*
G37*
G36*
X1507304Y1866351D02*
X1507225D01*
X1506596Y1866272D01*
X1506085Y1866115D01*
X1505614Y1865879D01*
X1505260Y1865604D01*
X1504946Y1865290D01*
X1504749Y1865054D01*
X1504631Y1864897D01*
X1504592Y1864818D01*
X1504278Y1864229D01*
X1504081Y1863521D01*
X1503924Y1862853D01*
X1503806Y1862185D01*
X1503727Y1861596D01*
Y1861321D01*
X1503688Y1861085D01*
Y1860928D01*
Y1860770D01*
Y1860692D01*
Y1860652D01*
X1503727Y1859709D01*
X1503845Y1858884D01*
X1503963Y1858177D01*
X1504120Y1857587D01*
X1504317Y1857116D01*
X1504435Y1856762D01*
X1504553Y1856565D01*
X1504592Y1856487D01*
X1504946Y1855976D01*
X1505378Y1855622D01*
X1505810Y1855347D01*
X1506243Y1855190D01*
X1506636Y1855072D01*
X1506950Y1855033D01*
X1507147Y1854993D01*
X1507225D01*
X1507854Y1855072D01*
X1508404Y1855229D01*
X1508836Y1855465D01*
X1509229Y1855740D01*
X1509505Y1856015D01*
X1509740Y1856251D01*
X1509858Y1856408D01*
X1509898Y1856487D01*
X1510212Y1857116D01*
X1510409Y1857784D01*
X1510566Y1858491D01*
X1510684Y1859159D01*
X1510762Y1859749D01*
Y1859984D01*
X1510802Y1860220D01*
Y1860417D01*
Y1860535D01*
Y1860613D01*
Y1860652D01*
X1510762Y1861596D01*
X1510644Y1862421D01*
X1510526Y1863128D01*
X1510330Y1863757D01*
X1510173Y1864189D01*
X1510055Y1864543D01*
X1509937Y1864740D01*
X1509898Y1864818D01*
X1509505Y1865329D01*
X1509112Y1865722D01*
X1508640Y1865997D01*
X1508208Y1866155D01*
X1507815Y1866272D01*
X1507500Y1866312D01*
X1507304Y1866351D01*
D02*
G37*
G36*
X1488479D02*
X1488400D01*
X1487772Y1866272D01*
X1487261Y1866115D01*
X1486789Y1865879D01*
X1486436Y1865604D01*
X1486121Y1865290D01*
X1485925Y1865054D01*
X1485807Y1864897D01*
X1485767Y1864818D01*
X1485453Y1864229D01*
X1485256Y1863521D01*
X1485099Y1862853D01*
X1484981Y1862185D01*
X1484903Y1861596D01*
Y1861321D01*
X1484863Y1861085D01*
Y1860928D01*
Y1860770D01*
Y1860692D01*
Y1860652D01*
X1484903Y1859709D01*
X1485021Y1858884D01*
X1485139Y1858177D01*
X1485296Y1857587D01*
X1485492Y1857116D01*
X1485610Y1856762D01*
X1485728Y1856565D01*
X1485767Y1856487D01*
X1486121Y1855976D01*
X1486553Y1855622D01*
X1486986Y1855347D01*
X1487418Y1855190D01*
X1487811Y1855072D01*
X1488125Y1855033D01*
X1488322Y1854993D01*
X1488400D01*
X1489029Y1855072D01*
X1489580Y1855229D01*
X1490012Y1855465D01*
X1490405Y1855740D01*
X1490680Y1856015D01*
X1490916Y1856251D01*
X1491034Y1856408D01*
X1491073Y1856487D01*
X1491387Y1857116D01*
X1491584Y1857784D01*
X1491741Y1858491D01*
X1491859Y1859159D01*
X1491938Y1859749D01*
Y1859984D01*
X1491977Y1860220D01*
Y1860417D01*
Y1860535D01*
Y1860613D01*
Y1860652D01*
X1491938Y1861596D01*
X1491820Y1862421D01*
X1491702Y1863128D01*
X1491505Y1863757D01*
X1491348Y1864189D01*
X1491230Y1864543D01*
X1491112Y1864740D01*
X1491073Y1864818D01*
X1490680Y1865329D01*
X1490287Y1865722D01*
X1489815Y1865997D01*
X1489383Y1866155D01*
X1488990Y1866272D01*
X1488676Y1866312D01*
X1488479Y1866351D01*
D02*
G37*
G36*
X1405242Y1866272D02*
X1404613D01*
X1404220Y1866233D01*
X1404102Y1866194D01*
X1403984D01*
X1403906Y1866155D01*
X1403866D01*
X1403473Y1866076D01*
X1403159Y1865997D01*
X1403002Y1865958D01*
X1402962Y1865919D01*
Y1855229D01*
X1403237Y1855111D01*
X1403513Y1855033D01*
X1403748Y1854993D01*
X1403827Y1854954D01*
X1403866D01*
X1404299Y1854915D01*
X1404691Y1854875D01*
X1405045D01*
X1405753Y1854954D01*
X1406421Y1855111D01*
X1406932Y1855347D01*
X1407403Y1855622D01*
X1407757Y1855897D01*
X1408032Y1856133D01*
X1408189Y1856290D01*
X1408228Y1856369D01*
X1408582Y1856998D01*
X1408857Y1857666D01*
X1409054Y1858373D01*
X1409172Y1859041D01*
X1409250Y1859631D01*
X1409290Y1859906D01*
X1409329Y1860142D01*
Y1860299D01*
Y1860456D01*
Y1860535D01*
Y1860574D01*
X1409290Y1861478D01*
X1409172Y1862264D01*
X1408975Y1862971D01*
X1408779Y1863561D01*
X1408582Y1864032D01*
X1408386Y1864386D01*
X1408268Y1864582D01*
X1408228Y1864661D01*
X1407757Y1865211D01*
X1407246Y1865604D01*
X1406735Y1865879D01*
X1406224Y1866076D01*
X1405753Y1866194D01*
X1405399Y1866233D01*
X1405242Y1866272D01*
D02*
G37*
G36*
X1526620Y1829330D02*
X1526423D01*
Y1823946D01*
X1526738Y1823828D01*
X1527091Y1823750D01*
X1527249Y1823710D01*
X1527406D01*
X1527484Y1823671D01*
X1527524D01*
X1528035Y1823632D01*
X1528506Y1823593D01*
X1528938D01*
X1529567Y1823632D01*
X1530118Y1823710D01*
X1530589Y1823789D01*
X1530982Y1823946D01*
X1531296Y1824064D01*
X1531493Y1824143D01*
X1531650Y1824221D01*
X1531689Y1824261D01*
X1532004Y1824536D01*
X1532200Y1824850D01*
X1532358Y1825204D01*
X1532476Y1825518D01*
X1532554Y1825793D01*
X1532593Y1826029D01*
Y1826186D01*
Y1826226D01*
X1532554Y1826579D01*
X1532515Y1826894D01*
X1532436Y1827169D01*
X1532318Y1827365D01*
X1532240Y1827562D01*
X1532161Y1827680D01*
X1532122Y1827758D01*
X1532082Y1827798D01*
X1531650Y1828191D01*
X1531218Y1828466D01*
X1531021Y1828584D01*
X1530864Y1828662D01*
X1530786Y1828702D01*
X1530746D01*
X1530078Y1828937D01*
X1529489Y1829055D01*
X1529214Y1829095D01*
X1529017Y1829134D01*
X1528821D01*
X1527956Y1829213D01*
X1527563Y1829252D01*
X1527209Y1829291D01*
X1526895D01*
X1526620Y1829330D01*
D02*
G37*
G36*
X1489481Y1840649D02*
X1489403D01*
Y1840531D01*
Y1840413D01*
Y1840020D01*
X1489442Y1839863D01*
Y1839706D01*
Y1839588D01*
Y1839548D01*
X1489481Y1838880D01*
Y1838527D01*
Y1838212D01*
Y1837937D01*
Y1837741D01*
Y1837583D01*
Y1837544D01*
Y1829881D01*
X1496398D01*
X1491014Y1837937D01*
X1490857Y1838173D01*
X1490700Y1838409D01*
X1490621Y1838566D01*
X1490582Y1838645D01*
X1490425Y1838959D01*
X1490267Y1839234D01*
X1490149Y1839391D01*
X1490110Y1839470D01*
X1489953Y1839745D01*
X1489835Y1839981D01*
X1489756Y1840138D01*
X1489717Y1840177D01*
X1489599Y1840374D01*
X1489521Y1840531D01*
X1489481Y1840610D01*
Y1840649D01*
D02*
G37*
G36*
X1510271Y1835304D02*
X1509642D01*
X1509249Y1835265D01*
X1509131Y1835225D01*
X1509013D01*
X1508935Y1835186D01*
X1508896D01*
X1508503Y1835108D01*
X1508188Y1835029D01*
X1508031Y1834990D01*
X1507992Y1834950D01*
Y1824261D01*
X1508267Y1824143D01*
X1508542Y1824064D01*
X1508778Y1824025D01*
X1508856Y1823986D01*
X1508896D01*
X1509328Y1823946D01*
X1509721Y1823907D01*
X1510074D01*
X1510782Y1823986D01*
X1511450Y1824143D01*
X1511961Y1824379D01*
X1512432Y1824654D01*
X1512786Y1824929D01*
X1513061Y1825165D01*
X1513218Y1825322D01*
X1513258Y1825400D01*
X1513611Y1826029D01*
X1513887Y1826697D01*
X1514083Y1827405D01*
X1514201Y1828073D01*
X1514280Y1828662D01*
X1514319Y1828937D01*
X1514358Y1829173D01*
Y1829330D01*
Y1829488D01*
Y1829566D01*
Y1829605D01*
X1514319Y1830509D01*
X1514201Y1831295D01*
X1514005Y1832003D01*
X1513808Y1832592D01*
X1513611Y1833064D01*
X1513415Y1833418D01*
X1513297Y1833614D01*
X1513258Y1833693D01*
X1512786Y1834243D01*
X1512275Y1834636D01*
X1511764Y1834911D01*
X1511254Y1835108D01*
X1510782Y1835225D01*
X1510428Y1835265D01*
X1510271Y1835304D01*
D02*
G37*
G36*
X1404868Y1841435D02*
X1404711D01*
X1404358Y1841396D01*
X1404043Y1841356D01*
X1403729Y1841238D01*
X1403493Y1841120D01*
X1403296Y1841003D01*
X1403139Y1840924D01*
X1403061Y1840845D01*
X1403021Y1840806D01*
X1402785Y1840531D01*
X1402550Y1840256D01*
X1402196Y1839666D01*
X1402039Y1839391D01*
X1401960Y1839195D01*
X1401882Y1839037D01*
Y1838998D01*
X1401724Y1838566D01*
X1401607Y1838094D01*
X1401489Y1837623D01*
X1401410Y1837190D01*
X1401331Y1836837D01*
X1401292Y1836522D01*
X1401253Y1836326D01*
Y1836247D01*
X1401096Y1835029D01*
X1401056Y1834439D01*
Y1833889D01*
X1401017Y1833418D01*
Y1833025D01*
Y1832789D01*
Y1832749D01*
Y1832710D01*
Y1832003D01*
X1401056Y1831335D01*
X1401096Y1830745D01*
X1401135Y1830234D01*
X1401174Y1829802D01*
X1401214Y1829448D01*
X1401253Y1829252D01*
Y1829173D01*
X1401331Y1828623D01*
X1401449Y1828073D01*
X1401528Y1827601D01*
X1401646Y1827208D01*
X1401724Y1826894D01*
X1401803Y1826619D01*
X1401842Y1826461D01*
X1401882Y1826422D01*
X1402039Y1826029D01*
X1402235Y1825676D01*
X1402432Y1825361D01*
X1402628Y1825125D01*
X1402785Y1824929D01*
X1402903Y1824772D01*
X1402982Y1824693D01*
X1403021Y1824654D01*
X1403296Y1824457D01*
X1403572Y1824300D01*
X1403847Y1824182D01*
X1404122Y1824103D01*
X1404358Y1824064D01*
X1404554Y1824025D01*
X1404711D01*
X1405065Y1824064D01*
X1405379Y1824143D01*
X1405694Y1824221D01*
X1405929Y1824339D01*
X1406126Y1824457D01*
X1406283Y1824575D01*
X1406362Y1824614D01*
X1406401Y1824654D01*
X1406637Y1824929D01*
X1406873Y1825204D01*
X1407266Y1825793D01*
X1407384Y1826029D01*
X1407502Y1826226D01*
X1407541Y1826383D01*
X1407580Y1826422D01*
X1407855Y1827365D01*
X1407973Y1827798D01*
X1408052Y1828230D01*
X1408130Y1828623D01*
X1408170Y1828898D01*
X1408209Y1829095D01*
Y1829173D01*
X1408327Y1830391D01*
X1408366Y1831020D01*
Y1831531D01*
X1408405Y1832003D01*
Y1832396D01*
Y1832632D01*
Y1832671D01*
Y1832710D01*
Y1833418D01*
X1408366Y1834086D01*
X1408327Y1834675D01*
X1408287Y1835225D01*
Y1835658D01*
X1408248Y1835972D01*
X1408209Y1836169D01*
Y1836247D01*
X1408130Y1836837D01*
X1408012Y1837348D01*
X1407934Y1837819D01*
X1407816Y1838212D01*
X1407737Y1838566D01*
X1407659Y1838802D01*
X1407580Y1838959D01*
Y1838998D01*
X1407384Y1839430D01*
X1407187Y1839784D01*
X1406991Y1840099D01*
X1406794Y1840334D01*
X1406637Y1840531D01*
X1406519Y1840688D01*
X1406440Y1840767D01*
X1406401Y1840806D01*
X1406126Y1841003D01*
X1405851Y1841160D01*
X1405536Y1841278D01*
X1405301Y1841356D01*
X1405065Y1841396D01*
X1404868Y1841435D01*
D02*
G37*
G36*
X1343101Y1460425D02*
X1342901D01*
X1342751D01*
X1342651D01*
X1342601D01*
X1341901Y1460375D01*
X1341201Y1460275D01*
X1340601Y1460125D01*
X1340101Y1459975D01*
X1339701Y1459825D01*
X1339351Y1459675D01*
X1339151Y1459575D01*
X1339101Y1459525D01*
X1338601Y1459175D01*
X1338151Y1458775D01*
X1337751Y1458375D01*
X1337451Y1457975D01*
X1337201Y1457625D01*
X1337051Y1457375D01*
X1336951Y1457175D01*
X1336901Y1457125D01*
X1336701Y1456525D01*
X1336551Y1455825D01*
X1336401Y1455075D01*
X1336351Y1454375D01*
X1336301Y1453725D01*
X1336251Y1453225D01*
Y1443925D01*
X1348801D01*
Y1453725D01*
X1348751Y1454875D01*
X1348551Y1455925D01*
X1348301Y1456775D01*
X1348001Y1457475D01*
X1347651Y1458025D01*
X1347401Y1458425D01*
X1347201Y1458625D01*
X1347151Y1458725D01*
X1346501Y1459275D01*
X1345751Y1459725D01*
X1345001Y1460025D01*
X1344251Y1460225D01*
X1343601Y1460325D01*
X1343101Y1460425D01*
D02*
G37*
G36*
X1345176Y1544000D02*
X1328126D01*
Y1534200D01*
X1345176Y1544000D01*
D02*
G37*
G36*
X1342776Y1522600D02*
X1342576D01*
X1342426D01*
X1342326D01*
X1342276D01*
X1341576Y1522550D01*
X1340876Y1522450D01*
X1340276Y1522300D01*
X1339776Y1522150D01*
X1339376Y1522000D01*
X1339026Y1521850D01*
X1338826Y1521750D01*
X1338776Y1521700D01*
X1338276Y1521350D01*
X1337826Y1520950D01*
X1337426Y1520550D01*
X1337126Y1520150D01*
X1336876Y1519800D01*
X1336726Y1519550D01*
X1336626Y1519350D01*
X1336576Y1519300D01*
X1336376Y1518700D01*
X1336226Y1518000D01*
X1336076Y1517250D01*
X1336026Y1516550D01*
X1335976Y1515900D01*
X1335926Y1515400D01*
Y1506100D01*
X1348476D01*
Y1515900D01*
X1348426Y1517050D01*
X1348226Y1518100D01*
X1347976Y1518950D01*
X1347676Y1519650D01*
X1347326Y1520200D01*
X1347076Y1520600D01*
X1346876Y1520800D01*
X1346826Y1520900D01*
X1346176Y1521450D01*
X1345426Y1521900D01*
X1344676Y1522200D01*
X1343926Y1522400D01*
X1343276Y1522500D01*
X1342776Y1522600D01*
D02*
G37*
%LPD*%
D87*
X1965523Y1946426D02*
G03*
X1962640Y1953387I-9844J0D01*
G01*
X1777530Y2059616D02*
G03*
X1770579Y2056742I0J-9844D01*
G01*
X568759Y1650168D02*
G03*
X561807Y1647293I0J-9844D01*
G01*
X1965523Y1946426D02*
G03*
X1962649Y1953378I-9844J0D01*
G01*
X386732Y1472218D02*
G03*
X383857Y1465266I6969J-6952D01*
G01*
X540049Y-4919D02*
G03*
X548575Y-9844I8526J4919D01*
G01*
X2438043Y1389278D02*
G03*
X2440917Y1396230I-6969J6952D01*
G01*
X2034202Y985578D02*
G03*
X2035253Y986489I-5900J7879D01*
G01*
X1158932Y2009418D02*
G03*
X1156049Y2002458I6960J-6960D01*
G01*
X1770579Y2056742D02*
G03*
X1770561Y2056724I6952J-6969D01*
G01*
X561807Y1647293D02*
G03*
X561789Y1647276I6952J-6969D01*
G01*
X1962649Y1953378D02*
G03*
X1962631Y1953396I-6969J-6952D01*
G01*
X540049Y-4919D02*
G03*
X548575Y-9844I8526J4919D01*
G01*
X2035253Y986489D02*
G03*
X2035271Y986506I-6952J6969D01*
G01*
X1188892Y2035301D02*
G03*
X1181941Y2032427I0J-9844D01*
G01*
X1158941Y2009427D02*
G03*
X1158923Y2009409I6952J-6969D01*
G01*
X1777530Y2059616D02*
G03*
X1770570Y2056733I0J-9844D01*
G01*
X1859294D02*
G03*
X1852333Y2059616I-6960J-6960D01*
G01*
X568759Y1650168D02*
G03*
X561798Y1647284I0J-9844D01*
G01*
X1962631Y1874497D02*
G03*
X1962649Y1874514I-6952J6969D01*
G01*
X1086892Y-9844D02*
G03*
X1096736Y0I0J9844D01*
G01*
X2262766Y1584223D02*
G03*
X2255815Y1581348I0J-9844D01*
G01*
X1181941Y2032427D02*
G03*
X1181923Y2032409I6952J-6969D01*
G01*
X1859303Y2056724D02*
G03*
X1859285Y2056742I-6969J-6952D01*
G01*
X1962649Y1874514D02*
G03*
X1965523Y1881466I-6969J6952D01*
G01*
X2334687Y1581340D02*
G03*
X2327727Y1584223I-6960J-6960D01*
G01*
X2440917Y1471033D02*
G03*
X2438043Y1477984I-9844J0D01*
G01*
X1158923Y2009409D02*
G03*
X1156049Y2002458I6969J-6952D01*
G01*
X2255815Y1581348D02*
G03*
X2255797Y1581331I6952J-6969D01*
G01*
X2334696D02*
G03*
X2334679Y1581348I-6969J-6952D01*
G01*
X2438043Y1477984D02*
G03*
X2438025Y1478002I-6969J-6952D01*
G01*
X1868800Y510659D02*
G03*
X1878139Y517389I0J9844D01*
G01*
X1188892Y2035301D02*
G03*
X1181932Y2032418I0J-9844D01*
G01*
X1859285Y2056742D02*
G03*
X1852333Y2059616I-6952J-6969D01*
G01*
X386740Y1472227D02*
G03*
X383857Y1465266I6960J-6960D01*
G01*
Y268432D02*
G03*
X385175Y263513I9844J0D01*
G01*
X1086892Y-9844D02*
G03*
X1096736Y0I0J9844D01*
G01*
X2262766Y1584223D02*
G03*
X2255806Y1581340I0J-9844D01*
G01*
X2440917Y1471033D02*
G03*
X2438034Y1477993I-9844J0D01*
G01*
X1868800Y510659D02*
G03*
X1878139Y517389I0J9844D01*
G01*
X2438034Y1389269D02*
G03*
X2440917Y1396230I-6960J6960D01*
G01*
X386749Y1472236D02*
G03*
X386732Y1472218I6952J-6969D01*
G01*
X1962640Y1874505D02*
G03*
X1965523Y1881466I-6960J6960D01*
G01*
X383857Y268432D02*
G03*
X385175Y263513I9844J0D01*
G01*
X2334679Y1581348D02*
G03*
X2327727Y1584223I-6952J-6969D01*
G01*
X2438025Y1389261D02*
G03*
X2438043Y1389278I-6952J6969D01*
G01*
X2034202Y985578D02*
G03*
X2035262Y986497I-5900J7879D01*
G01*
X1158941Y2009427D02*
X1181923Y2032409D01*
X1749138Y2035301D02*
X1770561Y2056724D01*
X561798Y1647284D02*
X561807Y1647293D01*
X1859303Y2056724D02*
X1962631Y1953396D01*
X1965523Y1881466D02*
Y1946426D01*
X1962631Y1874497D02*
X1962640Y1874505D01*
X2438034Y1389269D02*
X2438043Y1389278D01*
X1181923Y2032409D02*
X1181932Y2032418D01*
X1777530Y2059616D02*
X1852333D01*
X568759Y1650168D02*
X906681D01*
X1962640Y1874505D02*
X1962649Y1874514D01*
X1863301Y1775167D02*
X2156467Y1482001D01*
X548575Y-9844D02*
X1086892D01*
X2255797Y1581331D02*
X2255806Y1581340D01*
X2262766Y1584223D02*
X2327727D01*
X1096736Y492381D02*
X1115014Y510659D01*
X2438034Y1477993D02*
X2438043Y1477984D01*
X1770561Y2056724D02*
X1770570Y2056733D01*
X906681Y1650168D02*
X1156049Y1899535D01*
X1859294Y2056733D02*
X1859303Y2056724D01*
X386732Y1472218D02*
X386740Y1472227D01*
X2255806Y1581340D02*
X2255815Y1581348D01*
X2438025Y1478002D02*
X2438034Y1477993D01*
X2440917Y1396230D02*
Y1471033D01*
X1181932Y2032418D02*
X1181941Y2032427D01*
X1770570Y2056733D02*
X1770579Y2056742D01*
X1859285D02*
X1859294Y2056733D01*
X2035253Y986489D02*
X2035262Y986497D01*
X386740Y1472227D02*
X386749Y1472236D01*
X385175Y263513D02*
X540049Y-4919D01*
X2334696Y1581331D02*
X2438025Y1478002D01*
X1115014Y510659D02*
X1868800D01*
X2035262Y986497D02*
X2035271Y986506D01*
X1158923Y2009409D02*
X1158932Y2009418D01*
X386749Y1472236D02*
X561789Y1647276D01*
X383857Y268432D02*
Y1465266D01*
X1096736Y0D02*
Y492381D01*
X2334687Y1581340D02*
X2334696Y1581331D01*
X1158932Y2009418D02*
X1158941Y2009427D01*
X1156049Y1899535D02*
Y2002458D01*
X561789Y1647276D02*
X561798Y1647284D01*
X1962640Y1953387D02*
X1962649Y1953378D01*
X1863301Y1775167D02*
X1962631Y1874497D01*
X2334679Y1581348D02*
X2334687Y1581340D01*
X2035271Y986506D02*
X2438025Y1389261D01*
X1188892Y2035301D02*
X1749138D01*
X1962631Y1953396D02*
X1962640Y1953387D01*
X2156467Y1482001D02*
X2255797Y1581331D01*
X2438025Y1389261D02*
X2438034Y1389269D01*
X1878139Y517389D02*
X2034202Y985578D01*
D88*
X1535433Y1095204D02*
G03*
X1417323Y1213314I-118110J0D01*
G01*
X1178839D02*
G03*
X1130816Y1196974I0J-78740D01*
G01*
X1417323Y977094D02*
G03*
X1535433Y1095204I0J118110D01*
G01*
X1187297Y977094D02*
G03*
X1109323Y909312I0J-78740D01*
G01*
X922791Y1036878D02*
G03*
X877865Y959716I72035J-93600D01*
G01*
X828551Y608833D02*
G03*
X1062473Y575958I116961J-16438D01*
G01*
X1386773Y1213314D02*
X1532225Y1067863D01*
X1330205Y1213314D02*
X1514885Y1028634D01*
X1273636Y1213314D02*
X1487066Y999884D01*
X1217068Y1213314D02*
X1448970Y981413D01*
X1447177Y1209479D02*
X1531598Y1125059D01*
X1431457Y977942D02*
X1534584Y1081070D01*
X1178839Y1213314D02*
X1417323D01*
X1162264Y1211550D02*
X1396720Y977094D01*
X1124857Y1192388D02*
X1340151Y977094D01*
X1092890Y1167787D02*
X1283583Y977094D01*
X1187297D02*
X1417323D01*
X1060923Y1143185D02*
X1227014Y977094D01*
X1317471D02*
X1509468Y1169091D01*
X1317471Y977094D02*
X1509468Y1169091D01*
X1204334Y977094D02*
X1438619Y1211379D01*
X1260902Y977094D02*
X1479458Y1195649D01*
X1374040Y977094D02*
X1529404Y1132458D01*
X1028956Y1118583D02*
X1171955Y975585D01*
X996990Y1093982D02*
X1134343Y956628D01*
X965023Y1069380D02*
X1112242Y922161D01*
X1062473Y575958D02*
X1109323Y909312D01*
X995439Y485357D02*
X1052551Y542468D01*
X965022Y1069380D02*
X1112242Y922160D01*
X864322Y863356D02*
X1214280Y1213314D01*
X855072Y797537D02*
X1270849Y1213314D01*
X845822Y731718D02*
X1327417Y1213314D01*
X836572Y665900D02*
X1383986Y1213314D01*
X922791Y1036878D02*
X1130816Y1196974D01*
X933056Y1044778D02*
X1104295Y873538D01*
X873572Y929175D02*
X1153535Y1209138D01*
X896411Y1008581D02*
X931110Y1043281D01*
X903315Y1017950D02*
X1097325Y823940D01*
X883103Y981594D02*
X1090354Y774342D01*
X874235Y933893D02*
X1083383Y724745D01*
X867265Y884295D02*
X1076413Y675146D01*
X860294Y834697D02*
X1069442Y625549D01*
X855869Y515492D02*
X1086370Y745992D01*
X855869Y515492D02*
X1086370Y745992D01*
X827676Y600436D02*
X1104870Y877630D01*
X834870Y551062D02*
X1095620Y811811D01*
X886837Y489891D02*
X1077120Y680174D01*
X928964Y475450D02*
X1067869Y614355D01*
X853324Y785099D02*
X1062472Y575951D01*
X846353Y735501D02*
X1048060Y533794D01*
X828551Y608833D02*
X877865Y959716D01*
X839383Y685903D02*
X1022479Y502807D01*
X832412Y636305D02*
X986931Y481786D01*
X827667Y584481D02*
X937598Y474551D01*
D89*
X572598Y781118D02*
G03*
X572598Y781118I-1968J0D01*
G01*
X400961Y823039D02*
G03*
X400961Y823039I-1968J0D01*
G01*
X1149606Y722441D02*
G03*
X1149606Y722441I-1968J0D01*
G01*
X800103Y1146191D02*
X842530Y1188617D01*
X877885Y1068409D02*
X920312Y1110835D01*
X892027Y1195688D02*
X927383Y1160333D01*
X793032Y1096693D02*
X828388Y1061338D01*
D90*
X654499Y329300D02*
G03*
X654499Y329300I-4921J0D01*
G01*
X1905512Y641378D02*
G03*
X1905512Y641378I-4921J0D01*
G01*
X1980286Y1211190D02*
G03*
X1980286Y1211190I-4921J0D01*
G01*
X463554Y445442D02*
G03*
X463554Y445442I-4921J0D01*
G01*
D91*
X661389Y276151D02*
Y287962D01*
X783436Y276151D02*
Y287962D01*
X661389D02*
X783436D01*
X661389Y276151D02*
X783436D01*
X1797215Y1000560D02*
X1931074D01*
X1797215Y1197411D02*
X1931074D01*
X1797215Y1000560D02*
Y1197411D01*
X1931074Y1000560D02*
Y1197411D01*
X1871159Y1321155D02*
X1906514Y1285800D01*
X2099994Y1479280D02*
X2144814Y1524101D01*
X1991701Y1370987D02*
X2044595Y1423881D01*
X1906514Y1285800D02*
X1919320Y1298606D01*
X1905402Y1763513D02*
X2144814Y1524101D01*
X1667101Y1525214D02*
X1679907Y1538020D01*
X1752287Y1610401D02*
X1805181Y1663294D01*
X1860581Y1718694D02*
X1905402Y1763513D01*
X1667101Y1525214D02*
X1702456Y1489858D01*
X702892Y15458D02*
X742892Y15458D01*
X702892Y165458D02*
X742892Y165458D01*
X499971Y457253D02*
X511782D01*
X499971Y579300D02*
X511782D01*
X499971Y457253D02*
Y579300D01*
X511782Y457253D02*
Y579300D01*
X450892Y289458D02*
Y329458D01*
X600892Y289458D02*
Y329458D01*
X1182701Y1554000D02*
X1304701D01*
Y1431000D02*
Y1554000D01*
X1182701Y1431000D02*
X1304701D01*
X1182701D02*
Y1554000D01*
%TF.MD5,7c2175947097eaefb68c870ac26e518a*%
M02*
