%TF.GenerationSoftware,Altium Limited,Altium Designer,23.11.1 (41)*%
G04 Layer_Physical_Order=3*
G04 Layer_Color=16440176*
%FSLAX26Y26*%
%MOIN*%
%TF.SameCoordinates,A059C263-CE59-4A5C-BE38-7B1504CAFB6E*%
%TF.FilePolarity,Positive*%
%TF.FileFunction,Copper,L3,Inr,Signal*%
%TF.Part,CustomerPanel*%
G01*
G75*
%TA.AperFunction,Conductor*%
%ADD31C,0.025000*%
%ADD32C,0.008000*%
%ADD33C,0.012000*%
%ADD35C,0.010000*%
%ADD38C,0.020000*%
%TA.AperFunction,ComponentPad*%
%ADD39C,0.054000*%
%ADD40C,0.066929*%
%ADD41R,0.066929X0.066929*%
%ADD42C,0.070866*%
%ADD43R,0.070866X0.070866*%
%ADD44C,0.060000*%
%ADD45R,0.059000X0.059000*%
%ADD46R,0.059000X0.059000*%
%ADD47C,0.059370*%
%ADD48R,0.059370X0.059370*%
%ADD49R,0.059370X0.059370*%
G04:AMPARAMS|DCode=50|XSize=39.37mil|YSize=62.992mil|CornerRadius=0mil|HoleSize=0mil|Usage=FLASHONLY|Rotation=135.000|XOffset=0mil|YOffset=0mil|HoleType=Round|Shape=Round|*
%AMOVALD50*
21,1,0.023622,0.039370,0.000000,0.000000,225.0*
1,1,0.039370,0.008352,0.008352*
1,1,0.039370,-0.008352,-0.008352*
%
%ADD50OVALD50*%

%ADD51C,0.026575*%
G04:AMPARAMS|DCode=52|XSize=39.37mil|YSize=82.677mil|CornerRadius=0mil|HoleSize=0mil|Usage=FLASHONLY|Rotation=135.000|XOffset=0mil|YOffset=0mil|HoleType=Round|Shape=Round|*
%AMOVALD52*
21,1,0.043307,0.039370,0.000000,0.000000,225.0*
1,1,0.039370,0.015311,0.015311*
1,1,0.039370,-0.015311,-0.015311*
%
%ADD52OVALD52*%

%TA.AperFunction,ViaPad*%
%ADD53C,0.059055*%
%ADD54C,0.017716*%
%ADD55C,0.019685*%
G36*
X1711280Y722000D02*
X1710488Y720088D01*
Y712983D01*
X1713207Y706420D01*
X1714902Y704725D01*
X1713207Y703029D01*
X1710488Y696466D01*
Y689361D01*
X1713207Y682798D01*
X1718231Y677774D01*
X1724794Y675055D01*
X1731899D01*
X1738462Y677774D01*
X1740158Y679469D01*
X1741853Y677774D01*
X1748416Y675055D01*
X1755521D01*
X1762084Y677774D01*
X1763780Y679469D01*
X1765475Y677774D01*
X1767954Y676747D01*
X1801701Y643000D01*
Y528530D01*
X1110937D01*
X1110937Y528530D01*
X1107864Y527919D01*
X1105260Y526178D01*
X1105260Y526178D01*
X1081216Y502135D01*
X1079476Y499530D01*
X1078865Y496458D01*
Y14000D01*
X984701D01*
X903701Y95000D01*
Y273156D01*
X907817Y274861D01*
X912840Y279884D01*
X915559Y286448D01*
Y293552D01*
X912840Y300116D01*
X910956Y302001D01*
Y328737D01*
X909947Y333810D01*
X909917Y333854D01*
X911368Y338639D01*
X913008Y339318D01*
X918032Y344342D01*
X920751Y350906D01*
Y358010D01*
X918032Y364574D01*
X913008Y369597D01*
X906445Y372316D01*
X903701D01*
Y384255D01*
X913073Y393627D01*
X915947Y397928D01*
X916956Y403000D01*
Y467000D01*
X915947Y472072D01*
X913073Y476373D01*
X903701Y485745D01*
Y528445D01*
X908110Y530802D01*
X911411Y528597D01*
X924513Y523170D01*
X938422Y520403D01*
X952603D01*
X966511Y523170D01*
X979613Y528597D01*
X991404Y536476D01*
X1001432Y546503D01*
X1009311Y558294D01*
X1014737Y571396D01*
X1017504Y585305D01*
Y599486D01*
X1014737Y613395D01*
X1009311Y626496D01*
X1001432Y638288D01*
X991404Y648315D01*
X990852Y648685D01*
X990361Y653661D01*
X1063701Y727000D01*
X1157194D01*
X1161144Y723049D01*
X1167708Y720331D01*
X1174812D01*
X1181376Y723049D01*
X1185326Y727000D01*
X1186721D01*
X1190671Y723049D01*
X1197235Y720331D01*
X1204340D01*
X1210903Y723049D01*
X1214854Y727000D01*
X1216249D01*
X1220199Y723049D01*
X1226763Y720331D01*
X1233867D01*
X1240431Y723049D01*
X1244381Y727000D01*
X1707939D01*
X1711280Y722000D01*
D02*
G37*
G36*
X655903Y997745D02*
X740211D01*
X845205Y892751D01*
Y869242D01*
X846214Y864169D01*
X849087Y859869D01*
X864701Y844255D01*
Y699745D01*
X828328Y663372D01*
X825455Y659072D01*
X824446Y654000D01*
Y562255D01*
D01*
Y533000D01*
X825455Y527928D01*
X828328Y523628D01*
X882892Y469063D01*
Y400937D01*
X871662Y389706D01*
X868788Y385406D01*
X867779Y380333D01*
Y345404D01*
X868788Y340332D01*
X871662Y336031D01*
X882892Y324801D01*
Y300447D01*
X882561Y300116D01*
X879843Y293552D01*
Y286448D01*
X882561Y279884D01*
X882892Y279553D01*
Y272858D01*
X881149D01*
X874585Y270139D01*
X869561Y265116D01*
X866843Y258552D01*
Y251448D01*
X869561Y244884D01*
X870598Y243847D01*
Y138793D01*
X853967Y122162D01*
X847777Y119597D01*
X842753Y114574D01*
X840034Y108010D01*
Y100906D01*
X842753Y94342D01*
X847777Y89318D01*
X854340Y86600D01*
X861445D01*
X868008Y89318D01*
X873032Y94342D01*
X875251Y99699D01*
X877892Y101139D01*
X882892Y98367D01*
Y90192D01*
X800729Y8028D01*
X553211D01*
X401729Y270582D01*
Y549000D01*
Y557295D01*
D01*
D01*
X406729Y559366D01*
X408776Y557318D01*
X415340Y554600D01*
X422445D01*
X429008Y557318D01*
X434032Y562342D01*
X436751Y568906D01*
Y576010D01*
X434032Y582574D01*
X429008Y587597D01*
X422445Y590316D01*
X415340D01*
X408776Y587597D01*
X406729Y585549D01*
X401729Y587621D01*
D01*
Y621028D01*
Y923043D01*
X406348Y924956D01*
X511469Y819836D01*
X509397Y814836D01*
X457349D01*
Y737466D01*
X534719D01*
Y803392D01*
X535937Y804392D01*
X543350Y805866D01*
X549635Y810066D01*
X553835Y816350D01*
X555309Y823764D01*
X553835Y831177D01*
X549635Y837462D01*
X544399Y842698D01*
X541385Y844712D01*
X430947Y955151D01*
Y998000D01*
X455411D01*
X458455Y994033D01*
X457349Y989905D01*
Y979719D01*
X459985Y969880D01*
X465078Y961059D01*
X472281Y953856D01*
X481102Y948764D01*
X490941Y946127D01*
X501127D01*
X510966Y948764D01*
X519787Y953856D01*
X526990Y961059D01*
X532083Y969880D01*
X532730Y972296D01*
X537214Y974507D01*
X539568Y973532D01*
X546672D01*
X553236Y976251D01*
X558260Y981275D01*
X560978Y987838D01*
Y994943D01*
X563021Y998000D01*
X597578D01*
Y995449D01*
X600297Y988886D01*
X605320Y983862D01*
X611884Y981144D01*
X614549D01*
X623446Y972247D01*
Y797000D01*
X624455Y791928D01*
X627328Y787628D01*
X683843Y731113D01*
Y728448D01*
X686561Y721884D01*
X691585Y716861D01*
X698149Y714142D01*
X705253D01*
X711817Y716861D01*
X716840Y721884D01*
X719559Y728448D01*
Y735552D01*
X716840Y742116D01*
X711817Y747139D01*
X705253Y749858D01*
X702588D01*
X649956Y802490D01*
Y977737D01*
X648947Y982809D01*
X646073Y987110D01*
X639802Y993380D01*
X641716Y998000D01*
X654623D01*
X655903Y997745D01*
D02*
G37*
%LPC*%
G36*
X1121634Y608505D02*
X1114529D01*
X1107966Y605786D01*
X1102942Y600763D01*
X1100223Y594199D01*
Y587095D01*
X1102942Y580531D01*
X1107966Y575507D01*
X1114529Y572789D01*
X1121634D01*
X1128197Y575507D01*
X1133221Y580531D01*
X1135940Y587095D01*
Y594199D01*
X1133221Y600763D01*
X1128197Y605786D01*
X1121634Y608505D01*
D02*
G37*
G36*
X1581018Y629639D02*
X1496089D01*
Y544710D01*
X1581018D01*
Y629639D01*
D02*
G37*
G36*
X1344144D02*
X1332963D01*
X1322163Y626745D01*
X1312480Y621154D01*
X1304574Y613248D01*
X1298983Y603565D01*
X1296089Y592765D01*
Y581584D01*
X1298983Y570784D01*
X1304574Y561101D01*
X1312480Y553194D01*
X1322163Y547604D01*
X1332963Y544710D01*
X1344144D01*
X1354945Y547604D01*
X1364628Y553194D01*
X1372534Y561101D01*
X1378124Y570784D01*
X1381018Y581584D01*
Y592765D01*
X1378124Y603565D01*
X1372534Y613248D01*
X1364628Y621154D01*
X1354945Y626745D01*
X1344144Y629639D01*
D02*
G37*
G36*
X982985Y344568D02*
X972799D01*
X962961Y341932D01*
X954139Y336839D01*
X946937Y329636D01*
X941844Y320815D01*
X939207Y310976D01*
Y300790D01*
X941844Y290951D01*
X946937Y282130D01*
X954139Y274928D01*
X962961Y269834D01*
X972799Y267198D01*
X982985D01*
X992824Y269834D01*
X1001645Y274928D01*
X1008848Y282130D01*
X1013941Y290951D01*
X1016577Y300790D01*
Y310976D01*
X1013941Y320815D01*
X1008848Y329636D01*
X1001645Y336839D01*
X992824Y341932D01*
X982985Y344568D01*
D02*
G37*
G36*
Y246143D02*
X972799D01*
X962961Y243507D01*
X954139Y238414D01*
X946937Y231211D01*
X941844Y222390D01*
X939207Y212551D01*
Y202365D01*
X941844Y192526D01*
X946937Y183705D01*
X954139Y176502D01*
X962961Y171409D01*
X972799Y168773D01*
X982985D01*
X992824Y171409D01*
X1001645Y176502D01*
X1008848Y183705D01*
X1013941Y192526D01*
X1016577Y202365D01*
Y212551D01*
X1013941Y222390D01*
X1008848Y231211D01*
X1001645Y238414D01*
X992824Y243507D01*
X982985Y246143D01*
D02*
G37*
G36*
X680208Y978880D02*
X673104D01*
X666540Y976162D01*
X661516Y971138D01*
X658798Y964574D01*
Y957470D01*
X661516Y950906D01*
X666540Y945883D01*
X673104Y943164D01*
X680208D01*
X686772Y945883D01*
X691795Y950906D01*
X694514Y957470D01*
Y964574D01*
X691795Y971138D01*
X686772Y976162D01*
X680208Y978880D01*
D02*
G37*
G36*
X774877Y932946D02*
X697507D01*
Y855576D01*
X774877D01*
Y932946D01*
D02*
G37*
G36*
X501127Y716411D02*
X490941D01*
X481102Y713774D01*
X472281Y708681D01*
X465078Y701479D01*
X459985Y692657D01*
X457349Y682819D01*
Y672633D01*
X457995Y670223D01*
D01*
X459985Y662794D01*
X465078Y653972D01*
X472281Y646770D01*
X481102Y641677D01*
X490941Y639041D01*
X501127D01*
X510966Y641677D01*
X519787Y646770D01*
X526990Y653972D01*
X532083Y662794D01*
X534719Y672633D01*
Y682819D01*
X532083Y692657D01*
X526990Y701479D01*
X519787Y708681D01*
X510966Y713774D01*
X501127Y716411D01*
D02*
G37*
G36*
X662571Y580279D02*
X655467D01*
X648903Y577561D01*
X643880Y572537D01*
X641161Y565973D01*
Y558869D01*
X643178Y554000D01*
D01*
X643880Y552305D01*
X648903Y547282D01*
X655467Y544563D01*
X662571D01*
X669135Y547282D01*
X674159Y552305D01*
X674861Y554000D01*
D01*
X676877Y558869D01*
Y565973D01*
X674159Y572537D01*
X669135Y577561D01*
X662571Y580279D01*
D02*
G37*
G36*
X682445Y520316D02*
X675340D01*
X668777Y517597D01*
X663753Y512574D01*
X661034Y506010D01*
Y498906D01*
X663753Y492342D01*
X668777Y487318D01*
X675340Y484600D01*
X682445D01*
X689008Y487318D01*
X694032Y492342D01*
X696751Y498906D01*
Y506010D01*
X694032Y512574D01*
X689008Y517597D01*
X682445Y520316D01*
D02*
G37*
G36*
X556445Y608316D02*
X549340D01*
X542777Y605597D01*
X537753Y600574D01*
X535034Y594010D01*
Y586906D01*
X537753Y580342D01*
X538638Y579457D01*
Y549000D01*
Y516707D01*
X539647Y511635D01*
X542520Y507335D01*
X592109Y457746D01*
X591134Y452842D01*
X590240Y452471D01*
X587898Y450130D01*
X581240D01*
X578363Y453007D01*
X573732Y456101D01*
X568270Y457188D01*
X568269Y457188D01*
X525941D01*
X525941Y457188D01*
X525362Y457073D01*
X523559Y458552D01*
X520840Y465116D01*
X515817Y470139D01*
X509253Y472858D01*
X502149D01*
X495585Y470139D01*
X490561Y465116D01*
X487843Y458552D01*
Y454164D01*
X487842Y451448D01*
X483223Y449544D01*
X481149D01*
X474585Y446826D01*
X469561Y441802D01*
X466843Y435238D01*
Y428134D01*
X469561Y421570D01*
X474585Y416547D01*
X481149Y413828D01*
X488253D01*
X494817Y416547D01*
X496137Y417867D01*
X515168D01*
X515169Y417867D01*
X520631Y418954D01*
X525263Y422048D01*
X531853Y428639D01*
X562357D01*
X566404Y424592D01*
X571035Y421498D01*
X576497Y420412D01*
X581960Y421498D01*
X582084Y421581D01*
X591715D01*
X596803Y419474D01*
X603908D01*
X610471Y422192D01*
X615495Y427216D01*
X615865Y428110D01*
X620769Y429085D01*
X755465Y294389D01*
Y290327D01*
X754057Y288918D01*
X751338Y282354D01*
Y275250D01*
X754057Y268686D01*
X759080Y263663D01*
X765644Y260944D01*
X772748D01*
X779312Y263663D01*
X784336Y268686D01*
X787054Y275250D01*
Y282354D01*
X784336Y288918D01*
X781975Y291279D01*
Y299880D01*
X780966Y304952D01*
X778092Y309252D01*
X565147Y522198D01*
Y549000D01*
Y577457D01*
X568032Y580342D01*
X570751Y586906D01*
Y594010D01*
X568032Y600574D01*
X563008Y605597D01*
X556445Y608316D01*
D02*
G37*
G36*
X519271Y331285D02*
X512167D01*
X505603Y328566D01*
X500955Y323918D01*
X496308Y328566D01*
X489744Y331285D01*
X482639D01*
X476076Y328566D01*
X471052Y323542D01*
X468333Y316979D01*
Y310315D01*
X462325Y307826D01*
X457301Y302802D01*
X454583Y296239D01*
Y289134D01*
X457301Y282570D01*
X462325Y277547D01*
X468889Y274828D01*
X475993D01*
X482557Y277547D01*
X487580Y282570D01*
X490299Y289134D01*
Y295798D01*
X496308Y298287D01*
X500955Y302935D01*
X505603Y298287D01*
X512167Y295568D01*
X519271D01*
X525835Y298287D01*
X530859Y303310D01*
X533577Y309874D01*
Y316979D01*
X530859Y323542D01*
X525835Y328566D01*
X519271Y331285D01*
D02*
G37*
G36*
X664264Y320217D02*
X657159D01*
X650595Y317498D01*
X645572Y312475D01*
X642853Y305911D01*
Y298807D01*
X645572Y292243D01*
X650595Y287219D01*
X657159Y284501D01*
X664264D01*
X670827Y287219D01*
X675851Y292243D01*
X678569Y298807D01*
Y305911D01*
X675851Y312475D01*
X670827Y317498D01*
X664264Y320217D01*
D02*
G37*
G36*
X634064Y257010D02*
X626960D01*
X620396Y254291D01*
X615373Y249268D01*
X612654Y242704D01*
Y235600D01*
X615373Y229036D01*
X620396Y224012D01*
X626960Y221294D01*
X634064D01*
X640628Y224012D01*
X645652Y229036D01*
X648370Y235600D01*
Y242704D01*
X645652Y249268D01*
X640628Y254291D01*
X634064Y257010D01*
D02*
G37*
G36*
X735181Y213579D02*
X728077D01*
X721513Y210861D01*
X716490Y205837D01*
X713771Y199273D01*
Y192169D01*
X716490Y185605D01*
X721513Y180582D01*
X728077Y177863D01*
X735181D01*
X741745Y180582D01*
X746769Y185605D01*
X749487Y192169D01*
Y199273D01*
X746769Y205837D01*
X741745Y210861D01*
X735181Y213579D01*
D02*
G37*
G36*
X563831Y173930D02*
X556726D01*
X550162Y171212D01*
X545139Y166188D01*
X542420Y159624D01*
Y152520D01*
X545139Y145956D01*
X550162Y140933D01*
X556726Y138214D01*
X563831D01*
X570394Y140933D01*
X575418Y145956D01*
X578136Y152520D01*
Y159624D01*
X575418Y166188D01*
X570394Y171212D01*
X563831Y173930D01*
D02*
G37*
G36*
X851090Y171962D02*
X843986D01*
X837422Y169243D01*
X832399Y164220D01*
X829680Y157656D01*
Y150551D01*
X832399Y143988D01*
X837422Y138964D01*
X843986Y136245D01*
X851090D01*
X857654Y138964D01*
X862678Y143988D01*
X865396Y150551D01*
Y157656D01*
X862678Y164220D01*
X857654Y169243D01*
X851090Y171962D01*
D02*
G37*
G36*
X578445Y80316D02*
X571340D01*
X564777Y77597D01*
X559753Y72574D01*
X557034Y66010D01*
Y58906D01*
X559753Y52342D01*
X564777Y47318D01*
X571340Y44600D01*
X578445D01*
X585008Y47318D01*
X590032Y52342D01*
X592751Y58906D01*
Y66010D01*
X590032Y72574D01*
X585008Y77597D01*
X578445Y80316D01*
D02*
G37*
%LPD*%
D31*
X1071093Y1084257D02*
X1114280Y1041070D01*
X1071093Y1084257D02*
X1071093D01*
X1255280Y1041070D02*
X1374892Y921458D01*
X1114280Y1041070D02*
X1255280D01*
D32*
X667647Y1601734D02*
X781967D01*
X637701Y1616000D02*
X653381D01*
X667647Y1601734D01*
X781967D02*
X843701Y1540000D01*
X1870705Y1495458D02*
X1914437D01*
X1864756Y1501407D02*
X1870705Y1495458D01*
X1914437D02*
X2030078Y1379816D01*
X1858129Y1501407D02*
X1864756D01*
X1845893Y1489171D02*
X1858129Y1501407D01*
X2030078Y1379816D02*
X2150905D01*
X2155263Y1375458D02*
X2157892D01*
X2150905Y1379816D02*
X2155263Y1375458D01*
X1872212Y1519407D02*
X1878161Y1513458D01*
X1850673Y1519407D02*
X1872212D01*
X1878161Y1513458D02*
X1921892D01*
X1833250Y1501983D02*
X1850673Y1519407D01*
X2155263Y1402175D02*
X2157892D01*
X2150905Y1397816D02*
X2155263Y1402175D01*
X2037534Y1397816D02*
X2150905D01*
X1921892Y1513458D02*
X2037534Y1397816D01*
X636701Y797000D02*
X701701Y732000D01*
X636701Y797000D02*
Y977737D01*
X615436Y999002D02*
X636701Y977737D01*
X837701Y654000D02*
X886201Y702500D01*
X837701Y533000D02*
X903701Y467000D01*
X837701Y533000D02*
Y654000D01*
X903701Y403000D02*
Y467000D01*
X881034Y380333D02*
X903701Y403000D01*
X881034Y345404D02*
Y380333D01*
X897701Y290000D02*
Y328737D01*
X881034Y345404D02*
X897701Y328737D01*
X875459Y880271D02*
X918716Y837015D01*
X918701Y837000D02*
X919701Y836000D01*
X957777Y870079D02*
X1661513D01*
X1712694Y921260D01*
X926459Y901396D02*
X957777Y870079D01*
X1636041Y1149606D02*
X1668892Y1182458D01*
X1473473Y1172196D02*
X1496063Y1149606D01*
X1636041D01*
X1668892Y1182458D02*
X1724928D01*
X1385432Y1172196D02*
X1473473D01*
X1362842Y1149606D02*
X1385432Y1172196D01*
X1129921Y1149606D02*
X1362842D01*
X948671Y1330856D02*
X1129921Y1149606D01*
X948671Y1330856D02*
Y1385679D01*
X1249893Y1197458D02*
X1361196D01*
X1368237Y1180458D02*
X1377976Y1190196D01*
X1361196Y1197458D02*
X1370934Y1207196D01*
X1490667Y1180458D02*
X1630892D01*
X1480929Y1190196D02*
X1490667Y1180458D01*
X1377976Y1190196D02*
X1480929D01*
X1370934Y1207196D02*
X1402199D01*
X1162892Y1180458D02*
X1368237D01*
X1402199Y1207196D02*
X1432893Y1237889D01*
X1630892Y1180458D02*
X1659892Y1209458D01*
X948671Y1385679D02*
X948819Y1385827D01*
X768720Y279278D02*
Y299880D01*
X551892Y516707D02*
Y589458D01*
Y516707D02*
X768720Y299880D01*
X1148701Y1600000D02*
X1185701Y1563000D01*
X1021701Y1600000D02*
X1148701D01*
X1153622Y1316458D02*
X1179134Y1341970D01*
Y1440450D01*
X1124892Y1316458D02*
X1153622D01*
X997762Y1494027D02*
X998876D01*
X1007307Y1502458D02*
X1117126D01*
X998876Y1494027D02*
X1007307Y1502458D01*
X1196134Y1323567D02*
Y1447492D01*
X1241701Y1249081D02*
Y1278000D01*
X1196134Y1323567D02*
X1241701Y1278000D01*
X1103626Y1540000D02*
X1196134Y1447492D01*
X843701Y1540000D02*
X1103626D01*
X1039892Y1701808D02*
Y1742458D01*
Y1701808D02*
X1053701Y1688000D01*
X1085830D01*
X1073559Y1708000D02*
X1582701D01*
X1078789Y1671000D02*
X1119789Y1630000D01*
X974701Y1677000D02*
X1025059D01*
X1085830Y1688000D02*
X1119372Y1654458D01*
X1031059Y1671000D02*
X1078789D01*
X1071701Y1709858D02*
X1073559Y1708000D01*
X1025059Y1677000D02*
X1031059Y1671000D01*
X1119789Y1630000D02*
X1317351D01*
X1119372Y1654458D02*
X1392892D01*
X462969Y1138727D02*
Y1142103D01*
X475773Y1125922D02*
X518074D01*
X519895Y1127743D01*
X462969Y1138727D02*
X475773Y1125922D01*
X456701Y1148371D02*
Y1151000D01*
Y1148371D02*
X462969Y1142103D01*
X444371Y1183059D02*
Y1217273D01*
X434842Y965858D02*
Y1173530D01*
X444371Y1183059D01*
X434842Y965858D02*
X489701Y911000D01*
X1026439Y1161911D02*
X1040790D01*
X1094701Y1108000D01*
X1244701D02*
X1333489Y1019212D01*
X1094701Y1108000D02*
X1244701D01*
X1147892Y1195458D02*
X1162892Y1180458D01*
X858459Y869242D02*
X886201Y841500D01*
Y702500D02*
Y841500D01*
X1712694Y921260D02*
X1740158D01*
X1333489Y1019212D02*
X1881547D01*
X1905962Y994797D01*
X1003701Y1582000D02*
X1021701Y1600000D01*
X813701Y1616000D02*
X847701Y1582000D01*
X1003701D01*
X1276324Y1214458D02*
X1309461D01*
X1241701Y1249081D02*
X1276324Y1214458D01*
X1309461D02*
X1346701Y1251698D01*
Y1308267D01*
X1192893Y1254458D02*
X1249893Y1197458D01*
X1346701Y1308267D02*
X1392892Y1354458D01*
X1450393Y1311958D02*
Y1389343D01*
X1463508Y1402458D01*
X858459Y869242D02*
Y898242D01*
X655903Y1011000D02*
X745701D01*
X639779Y1051166D02*
X729576D01*
X875459Y880271D02*
Y905283D01*
X745701Y1011000D02*
X858459Y898242D01*
X729576Y1051166D02*
X875459Y905283D01*
X604012Y1165928D02*
X686939D01*
X926459Y926408D01*
X945768Y960828D02*
X983940Y999000D01*
X926459Y901396D02*
Y926408D01*
X922952Y960828D02*
X945768D01*
X528543Y1150591D02*
X530403Y1148732D01*
X539160Y1127743D02*
X655903Y1011000D01*
X530403Y1148732D02*
X542213D01*
X639779Y1051166D01*
X489701Y911000D02*
X560701D01*
X1317351Y1630000D02*
X1392892Y1554458D01*
X1582701Y1708000D02*
X1663701Y1627000D01*
Y1283649D02*
Y1627000D01*
Y1283649D02*
X1692892Y1254458D01*
X868892Y1319458D02*
X1026439Y1161911D01*
X1866241Y1190611D02*
X1878722D01*
X1879230Y1191120D01*
X1678670Y1104680D02*
X1681115D01*
X1767034Y1190600D01*
X1154701Y999000D02*
X1156701Y997000D01*
X983940Y999000D02*
X1154701D01*
X519895Y1127743D02*
X539160D01*
X1767034Y1190600D02*
X1866229D01*
X1866241Y1190611D01*
X1143576Y1338316D02*
Y1382775D01*
X1117892Y1408458D02*
X1143576Y1382775D01*
X1117126Y1502458D02*
X1179134Y1440450D01*
X768720Y279278D02*
X769196Y278802D01*
X551892Y589458D02*
X552892Y590458D01*
X1010892Y1408458D02*
X1117892D01*
X965892Y1453458D02*
X1010892Y1408458D01*
X965892Y1499940D02*
X978843Y1512891D01*
X965892Y1453458D02*
Y1499940D01*
X1790579Y1252144D02*
X1792892Y1254458D01*
X1758579Y1252144D02*
X1790579D01*
X1715892Y1209458D02*
X1758579Y1252144D01*
X1659892Y1209458D02*
X1715892D01*
X1724928Y1182458D02*
X1755928Y1213458D01*
X1809875D01*
X1732249Y1407189D02*
X1869638Y1269800D01*
X1732249Y1407189D02*
Y1447957D01*
X1869638Y1269800D02*
X1969998D01*
X1809875Y1213458D02*
X1831875Y1235458D01*
X2143892D01*
X1816752Y1355260D02*
X1885212Y1286800D01*
X1816752Y1355260D02*
Y1362131D01*
X1885212Y1286800D02*
X1956086D01*
X1814892Y1363990D02*
X1816752Y1362131D01*
X2073892Y1355458D02*
X2089892Y1339458D01*
X2050285Y1355458D02*
X2073892D01*
X2046569Y1359175D02*
X2050285Y1355458D01*
X2028460Y1359175D02*
X2046569D01*
X1956086Y1286800D02*
X2028460Y1359175D01*
X1969998Y1269800D02*
X2037514Y1337316D01*
X1510892Y1402458D02*
X1535893Y1427458D01*
X1463508Y1402458D02*
X1510892D01*
X1492893Y1654458D02*
X1599892D01*
X1635892Y1618458D01*
Y1297458D02*
Y1618458D01*
X1592892Y1254458D02*
X1635892Y1297458D01*
X1535893Y1427458D02*
Y1511458D01*
X1492893Y1254458D02*
X1592892D01*
X1592892Y1254458D01*
X1432893Y1256458D02*
X1492893Y1316458D01*
X1432893Y1237889D02*
Y1256458D01*
X1492893Y1316458D02*
Y1354458D01*
X1392893Y1254458D02*
X1450393Y1311958D01*
X1446466Y1409458D02*
X1460474Y1423465D01*
X1461900D01*
X1492893Y1454458D01*
X1347892Y1409458D02*
X1446466D01*
X1492893Y1554458D02*
X1535893Y1511458D01*
X1292892Y1254458D02*
Y1354458D01*
X1347892Y1409458D01*
D33*
X464701Y1322000D02*
Y1341000D01*
X456701Y1349000D02*
X464701Y1341000D01*
X448701Y1306000D02*
X464701Y1322000D01*
X410623Y1275922D02*
X440701Y1306000D01*
X410433Y1262129D02*
X410623Y1262320D01*
X440701Y1306000D02*
X448701D01*
X410623Y1262320D02*
Y1275922D01*
X884701Y255000D02*
X885795Y253906D01*
Y249864D02*
X885892Y249766D01*
X885795Y249864D02*
Y253906D01*
X885892Y132458D02*
Y249766D01*
X857892Y104458D02*
X885892Y132458D01*
D35*
X577667Y435855D02*
X598879D01*
X600356Y437332D01*
X576497Y434686D02*
X577667Y435855D01*
X485156Y432142D02*
X515169D01*
X484701Y431686D02*
X485156Y432142D01*
X515169D02*
X525941Y442913D01*
X568270D01*
X576497Y434686D01*
D38*
X530701Y829000D02*
X535937Y823764D01*
X529701Y829000D02*
X530701D01*
X411574Y947126D02*
X529701Y829000D01*
X411574Y947126D02*
Y1223873D01*
X473701Y1286000D02*
X483701D01*
X411574Y1223873D02*
X473701Y1286000D01*
X1911701Y892000D02*
X1953701Y934000D01*
Y1079000D01*
X1989080Y1114379D01*
X2115701D01*
X641701Y1311000D02*
X769701Y1439000D01*
X483701Y1286000D02*
X508701Y1311000D01*
X641701D01*
X769701Y1439000D02*
X887701D01*
X911892Y1414808D01*
Y1361458D02*
Y1414808D01*
D39*
X1092893Y1754458D02*
D03*
X1692892Y1754458D02*
D03*
Y1254458D02*
D03*
X1592892Y1254458D02*
D03*
X1492893Y1254458D02*
D03*
X1392893D02*
D03*
X1292892Y1254458D02*
D03*
X1192893Y1254458D02*
D03*
X1192892Y1754458D02*
D03*
X1792892Y1754458D02*
D03*
Y1254458D02*
D03*
X1292892Y1754458D02*
D03*
X1392893D02*
D03*
X1592893Y1754458D02*
D03*
X1492893Y1754458D02*
D03*
X1092892Y1454458D02*
D03*
Y1254458D02*
D03*
X1092893Y1354458D02*
D03*
D40*
X1338554Y587174D02*
D03*
D41*
X1538554D02*
D03*
D42*
X974892Y921458D02*
D03*
X1074892D02*
D03*
X1174892D02*
D03*
X1274892D02*
D03*
X1374892D02*
D03*
D43*
X1474892D02*
D03*
D44*
X1174892Y821458D02*
D03*
X1274892D02*
D03*
X1374892D02*
D03*
X1592892Y1454458D02*
D03*
Y1554458D02*
D03*
X1392892Y1654458D02*
D03*
X1392892Y1554458D02*
D03*
Y1454458D02*
D03*
X1492893Y1654458D02*
D03*
Y1554458D02*
D03*
Y1454458D02*
D03*
D45*
X1474892Y821458D02*
D03*
D46*
X1592892Y1354458D02*
D03*
X1392892Y1354458D02*
D03*
X1492893Y1354458D02*
D03*
D47*
X1271255Y1949127D02*
D03*
X1369680D02*
D03*
X1468105D02*
D03*
X977892Y207458D02*
D03*
Y305883D02*
D03*
X736192Y795836D02*
D03*
X496034Y984812D02*
D03*
Y677726D02*
D03*
D48*
X1566530Y1949127D02*
D03*
D49*
X977892Y109033D02*
D03*
X736192Y894261D02*
D03*
X496034Y1083237D02*
D03*
Y776151D02*
D03*
D50*
X2072990Y1451162D02*
D03*
X1832463Y1691690D02*
D03*
D51*
X1931567Y1389363D02*
D03*
X1770663Y1550266D02*
D03*
D52*
X1956624Y1334796D02*
D03*
X1716097Y1575323D02*
D03*
D53*
X2326743Y1449009D02*
D03*
X1834617Y1945442D02*
D03*
X945512Y592395D02*
D03*
X1417323Y1095204D02*
D03*
D54*
X456701Y1349000D02*
D03*
X585701Y1530000D02*
D03*
X637701Y1616000D02*
D03*
X676701Y1623592D02*
D03*
X1844034Y1481148D02*
D03*
X2157892Y1375458D02*
D03*
X1825225Y1500128D02*
D03*
X2157892Y1402175D02*
D03*
X410433Y1330709D02*
D03*
X437149D02*
D03*
X549686Y1538828D02*
D03*
X559701Y1419000D02*
D03*
X448701Y1472000D02*
D03*
X424701Y271000D02*
D03*
X581497Y751299D02*
D03*
X430701Y715000D02*
D03*
X535937Y823764D02*
D03*
X701701Y732000D02*
D03*
X881842Y425458D02*
D03*
X902892Y354458D02*
D03*
X897701Y290000D02*
D03*
X884701Y255000D02*
D03*
X853892Y349458D02*
D03*
X919701Y836000D02*
D03*
X1200787Y757874D02*
D03*
X1171260D02*
D03*
X1318701Y779000D02*
D03*
X1118081Y590647D02*
D03*
X1230315Y757874D02*
D03*
Y738189D02*
D03*
X1200787D02*
D03*
X1171260D02*
D03*
X1668892Y1182458D02*
D03*
X948671Y1385679D02*
D03*
X1071093Y1084257D02*
D03*
X630512Y239152D02*
D03*
X636783Y348790D02*
D03*
X600356Y437332D02*
D03*
X499701Y160000D02*
D03*
X537701Y105000D02*
D03*
X484701Y431686D02*
D03*
X505701Y455000D02*
D03*
X472441Y292686D02*
D03*
X1185701Y1563000D02*
D03*
X1171034Y1302958D02*
D03*
X1236050Y1424000D02*
D03*
X1071701Y1709858D02*
D03*
X974701Y1677000D02*
D03*
X1089979Y1563186D02*
D03*
X1041885Y1640324D02*
D03*
X481701Y1178000D02*
D03*
X444371Y1217273D02*
D03*
X456701Y1151000D02*
D03*
X483701Y1286000D02*
D03*
X1842520Y692913D02*
D03*
X1818898D02*
D03*
X1866142D02*
D03*
X1891874Y646000D02*
D03*
X1094701Y1108000D02*
D03*
X970115Y1169586D02*
D03*
X1147892Y1195458D02*
D03*
X1685039Y716535D02*
D03*
X1637795D02*
D03*
X1661417D02*
D03*
X1637795Y692913D02*
D03*
X1661417D02*
D03*
X1685039D02*
D03*
X1775591Y716535D02*
D03*
X1751968D02*
D03*
X1728347D02*
D03*
Y692913D02*
D03*
X1751968D02*
D03*
X1775591D02*
D03*
X1818898Y716535D02*
D03*
X1842520D02*
D03*
X1866142D02*
D03*
X1740158Y921260D02*
D03*
X1688976Y959914D02*
D03*
X933162Y1604403D02*
D03*
X813701Y1616000D02*
D03*
X1045814Y1188113D02*
D03*
X575701Y923000D02*
D03*
X676656Y961022D02*
D03*
X922952Y960828D02*
D03*
X809781Y1073999D02*
D03*
X543120Y991390D02*
D03*
X410433Y1262129D02*
D03*
X848701Y768000D02*
D03*
X684701Y833000D02*
D03*
X1007482Y1211781D02*
D03*
X991701Y1066000D02*
D03*
X804892Y1186458D02*
D03*
X1156701Y997000D02*
D03*
X1879230Y1191120D02*
D03*
X1678670Y1104680D02*
D03*
X1911701Y892000D02*
D03*
X2115701Y1114379D02*
D03*
X2028892Y1065458D02*
D03*
X2022892Y1038458D02*
D03*
X1125701Y951000D02*
D03*
X545346Y1090645D02*
D03*
X568346Y1067645D02*
D03*
X484827Y1147781D02*
D03*
X528543Y1150591D02*
D03*
X604012Y1165928D02*
D03*
X1124892Y1316458D02*
D03*
X1143576Y1338316D02*
D03*
X615436Y999002D02*
D03*
X852892Y814458D02*
D03*
X418892Y572458D02*
D03*
X678892Y502458D02*
D03*
X695151Y281716D02*
D03*
X660711Y302359D02*
D03*
X769196Y278802D02*
D03*
X486192Y313426D02*
D03*
X503908Y583458D02*
D03*
X552892Y590458D02*
D03*
X659019Y562421D02*
D03*
X1053892Y1565458D02*
D03*
X1905962Y994797D02*
D03*
X997762Y1494027D02*
D03*
X978843Y1512891D02*
D03*
X1039892Y1742458D02*
D03*
X574892Y62458D02*
D03*
X847538Y154104D02*
D03*
X857892Y104458D02*
D03*
X731629Y195721D02*
D03*
X560278Y156072D02*
D03*
X515719Y313426D02*
D03*
X2144010Y1233135D02*
D03*
X1644892Y1085458D02*
D03*
X1749892Y985458D02*
D03*
X1754892Y1415458D02*
D03*
X1904756Y1405214D02*
D03*
X1782892Y1323458D02*
D03*
X1814892Y1363990D02*
D03*
X2089892Y1339458D02*
D03*
X1732249Y1447957D02*
D03*
X2037514Y1337316D02*
D03*
X862892Y1618957D02*
D03*
X757694Y1289657D02*
D03*
X786892Y1510458D02*
D03*
X807892Y1531316D02*
D03*
X868892Y1319458D02*
D03*
X595892Y1385564D02*
D03*
X911892Y1361458D02*
D03*
X799091Y1252259D02*
D03*
X718892Y1169458D02*
D03*
X648892Y1412458D02*
D03*
X883892Y1343458D02*
D03*
X866892Y1387576D02*
D03*
X813653Y1342390D02*
D03*
X911892Y1175458D02*
D03*
D55*
X1842491Y1055678D02*
D03*
X1885798D02*
D03*
X1842491Y1098986D02*
D03*
X1885798D02*
D03*
X1842491Y1142293D02*
D03*
X1885798D02*
D03*
%TF.MD5,62e999b33285215a58e39fc675dfc515*%
M02*
