%TF.GenerationSoftware,Altium Limited,Altium Designer,23.11.1 (41)*%
G04 Layer_Physical_Order=2*
G04 Layer_Color=36540*
%FSLAX26Y26*%
%MOIN*%
%TF.SameCoordinates,4DC999CF-56CA-410E-BBFC-AE2E78030286*%
%TF.FilePolarity,Positive*%
%TF.FileFunction,Copper,L2,Inr,Signal*%
%TF.Part,CustomerPanel*%
G01*
G75*
%TA.AperFunction,Conductor*%
%ADD39C,0.020000*%
%ADD40C,0.008000*%
%ADD42C,0.012000*%
%ADD44C,0.050000*%
%TA.AperFunction,ComponentPad*%
%ADD45C,0.054000*%
%ADD46P,0.094652X4X296.0*%
%ADD47C,0.066929*%
%ADD48C,0.070866*%
%ADD49R,0.070866X0.070866*%
%ADD50R,0.059000X0.059000*%
%ADD51C,0.060000*%
%ADD52R,0.059370X0.059370*%
%ADD53C,0.059370*%
%ADD54R,0.059370X0.059370*%
G04:AMPARAMS|DCode=55|XSize=39.37mil|YSize=62.992mil|CornerRadius=0mil|HoleSize=0mil|Usage=FLASHONLY|Rotation=315.000|XOffset=0mil|YOffset=0mil|HoleType=Round|Shape=Round|*
%AMOVALD55*
21,1,0.023622,0.039370,0.000000,0.000000,45.0*
1,1,0.039370,-0.008352,-0.008352*
1,1,0.039370,0.008352,0.008352*
%
%ADD55OVALD55*%

%ADD56C,0.026575*%
G04:AMPARAMS|DCode=57|XSize=39.37mil|YSize=82.677mil|CornerRadius=0mil|HoleSize=0mil|Usage=FLASHONLY|Rotation=315.000|XOffset=0mil|YOffset=0mil|HoleType=Round|Shape=Round|*
%AMOVALD57*
21,1,0.043307,0.039370,0.000000,0.000000,45.0*
1,1,0.039370,-0.015311,-0.015311*
1,1,0.039370,0.015311,0.015311*
%
%ADD57OVALD57*%

%ADD58R,0.059000X0.059000*%
%TA.AperFunction,ViaPad*%
%ADD59C,0.196850*%
%ADD60C,0.059055*%
%ADD61C,0.019685*%
%ADD62C,0.017716*%
G36*
X1862706Y2012430D02*
X1854943Y2001745D01*
X1847267Y1986679D01*
X1842041Y1970598D01*
X1839396Y1953897D01*
Y1936988D01*
X1842041Y1920287D01*
X1847267Y1904205D01*
X1854943Y1889139D01*
X1864882Y1875459D01*
X1876839Y1863503D01*
X1890518Y1853564D01*
X1905584Y1845887D01*
X1921666Y1840662D01*
X1938367Y1838017D01*
X1955276D01*
X1971977Y1840662D01*
X1988059Y1845887D01*
X2003125Y1853564D01*
X2016804Y1863503D01*
X2028761Y1875459D01*
X2038700Y1889139D01*
X2046376Y1904205D01*
X2051602Y1920287D01*
X2054247Y1936988D01*
X2059247Y1939497D01*
X2059857Y1939090D01*
Y1884791D01*
X1955909Y1780843D01*
X1954169Y1778239D01*
X1953558Y1775167D01*
X1954169Y1772094D01*
X1955909Y1769490D01*
X1955909Y1769489D01*
X2262011Y1463388D01*
X2084617Y1285993D01*
X2057196D01*
X2056868Y1290993D01*
X2061006Y1291538D01*
X2067983Y1294428D01*
X2073976Y1299026D01*
X2076456Y1301507D01*
X2077704Y1301671D01*
X2085975Y1305097D01*
X2093078Y1310547D01*
X2209444Y1426913D01*
X2214894Y1434016D01*
X2218320Y1442287D01*
X2218721Y1445333D01*
X2221493Y1452026D01*
X2222479Y1459514D01*
X2221493Y1467002D01*
X2218603Y1473980D01*
X2214005Y1479973D01*
X2208013Y1484570D01*
X2201035Y1487461D01*
X2193546Y1488447D01*
X2186058Y1487461D01*
X2179365Y1484688D01*
X2176319Y1484287D01*
X2168048Y1480861D01*
X2160946Y1475412D01*
X2071059Y1385525D01*
X2066059Y1387596D01*
Y1393796D01*
X2062666Y1401987D01*
X2056397Y1408257D01*
X2048205Y1411650D01*
X2039339D01*
X2031147Y1408257D01*
X2024878Y1401987D01*
X2021484Y1393796D01*
Y1384929D01*
X2024878Y1376738D01*
X2031147Y1370468D01*
X2039339Y1367075D01*
X2045538D01*
X2047610Y1362075D01*
X2044580Y1359045D01*
X2039130Y1351943D01*
X2035704Y1343672D01*
X2035539Y1342424D01*
X2033059Y1339943D01*
X2028461Y1333951D01*
X2025571Y1326973D01*
X2024585Y1319485D01*
X2025571Y1311996D01*
X2028461Y1305018D01*
X2033059Y1299026D01*
X2039051Y1294428D01*
X2046029Y1291538D01*
X2050166Y1290993D01*
X2049839Y1285993D01*
X1956133D01*
X1880196Y1361930D01*
Y1374962D01*
X1881415Y1375467D01*
X1886439Y1380490D01*
X1889157Y1387054D01*
Y1394159D01*
X1886439Y1400722D01*
X1881415Y1405746D01*
X1874851Y1408465D01*
X1867747D01*
X1861183Y1405746D01*
X1857941Y1402503D01*
X1854698Y1405746D01*
X1848135Y1408465D01*
X1841030D01*
X1835820Y1406306D01*
X1805678Y1436448D01*
X1768716Y1473409D01*
X1765832Y1478405D01*
X1758571Y1485666D01*
X1753997Y1488307D01*
Y1520610D01*
X1758571Y1523251D01*
X1765832Y1530512D01*
X1770967Y1539405D01*
X1773625Y1549324D01*
Y1559593D01*
X1770967Y1569512D01*
X1765832Y1578405D01*
X1758571Y1585666D01*
X1749678Y1590801D01*
X1739759Y1593458D01*
X1729490D01*
X1719571Y1590801D01*
X1710678Y1585666D01*
X1705199Y1580187D01*
X1700199Y1582258D01*
Y1604178D01*
X1699035Y1610030D01*
X1695720Y1614992D01*
X1671039Y1639673D01*
X1673625Y1649324D01*
Y1659593D01*
X1670967Y1669512D01*
X1665832Y1678405D01*
X1658571Y1685666D01*
X1649678Y1690800D01*
X1641792Y1692913D01*
X1639759Y1693458D01*
X1629490D01*
X1627457Y1692913D01*
X1619571Y1690800D01*
X1610678Y1685666D01*
X1603417Y1678405D01*
X1598283Y1669512D01*
X1595625Y1659593D01*
Y1653572D01*
X1590625Y1651501D01*
X1568716Y1673410D01*
X1565832Y1678405D01*
X1558571Y1685666D01*
X1553576Y1688550D01*
X1549213Y1692913D01*
X1541792D01*
X1539759Y1693458D01*
X1529490D01*
X1527457Y1692913D01*
X1175197D01*
X1135827Y1732284D01*
Y1741834D01*
X1283774Y1889781D01*
X1285514Y1892386D01*
X1286125Y1895458D01*
Y1999133D01*
X1304422Y2017430D01*
X1860159D01*
X1862706Y2012430D01*
D02*
G37*
%LPC*%
G36*
X1717420Y1987812D02*
X1640050D01*
Y1910442D01*
X1717420D01*
Y1987812D01*
D02*
G37*
G36*
X1585403D02*
X1575217D01*
X1565378Y1985176D01*
X1556557Y1980083D01*
X1549354Y1972880D01*
X1544261Y1964059D01*
X1541625Y1954220D01*
Y1953845D01*
D01*
Y1944034D01*
X1544261Y1934195D01*
X1549354Y1925374D01*
X1556557Y1918171D01*
X1565378Y1913079D01*
X1575217Y1910442D01*
X1585403D01*
X1595242Y1913079D01*
X1604063Y1918171D01*
X1611265Y1925374D01*
X1616359Y1934195D01*
X1618995Y1944034D01*
Y1954220D01*
X1616359Y1964059D01*
X1611265Y1972880D01*
X1604063Y1980083D01*
X1595242Y1985176D01*
X1585403Y1987812D01*
D02*
G37*
G36*
X1486977D02*
X1476791D01*
X1466953Y1985176D01*
X1458131Y1980083D01*
X1450929Y1972880D01*
X1445836Y1964059D01*
X1443199Y1954220D01*
Y1944034D01*
X1445836Y1934195D01*
X1450929Y1925374D01*
X1458131Y1918171D01*
X1466953Y1913079D01*
X1476791Y1910442D01*
X1486977D01*
X1496816Y1913079D01*
X1505638Y1918171D01*
X1512840Y1925374D01*
X1517933Y1934195D01*
X1520569Y1944034D01*
Y1954220D01*
X1517933Y1964059D01*
X1512840Y1972880D01*
X1505638Y1980083D01*
X1496816Y1985176D01*
X1486977Y1987812D01*
D02*
G37*
G36*
X1388552D02*
X1378366D01*
X1368527Y1985176D01*
X1359706Y1980083D01*
X1352504Y1972880D01*
X1347411Y1964059D01*
X1344774Y1954220D01*
Y1944034D01*
X1347411Y1934195D01*
X1352504Y1925374D01*
X1359706Y1918171D01*
X1368527Y1913079D01*
X1378366Y1910442D01*
X1388552D01*
X1398391Y1913079D01*
X1407212Y1918171D01*
X1414415Y1925374D01*
X1419508Y1934195D01*
X1422144Y1944034D01*
Y1954220D01*
X1419508Y1964059D01*
X1414415Y1972880D01*
X1407212Y1980083D01*
X1398391Y1985176D01*
X1388552Y1987812D01*
D02*
G37*
G36*
X1509837Y1790458D02*
X1500358D01*
X1491202Y1788005D01*
X1482993Y1783265D01*
X1476290Y1776563D01*
X1471551Y1768354D01*
X1469097Y1759198D01*
Y1749719D01*
X1471551Y1740563D01*
X1476290Y1732354D01*
X1482993Y1725651D01*
X1491202Y1720912D01*
X1500358Y1718458D01*
X1509837D01*
X1518993Y1720912D01*
X1523958Y1723778D01*
D01*
X1527202Y1725651D01*
X1533904Y1732354D01*
X1538644Y1740563D01*
X1541097Y1749719D01*
Y1759198D01*
X1538644Y1768354D01*
X1533904Y1776563D01*
X1527202Y1783265D01*
X1518993Y1788005D01*
X1509837Y1790458D01*
D02*
G37*
G36*
X1409837D02*
X1400358D01*
X1391202Y1788005D01*
X1382993Y1783265D01*
X1376290Y1776563D01*
X1371551Y1768354D01*
X1369097Y1759198D01*
Y1749719D01*
X1371551Y1740563D01*
X1376290Y1732354D01*
X1382993Y1725651D01*
X1391202Y1720912D01*
X1400358Y1718458D01*
X1409837D01*
X1418993Y1720912D01*
X1427202Y1725651D01*
X1433904Y1732354D01*
X1438644Y1740563D01*
X1441097Y1749719D01*
Y1759198D01*
X1438644Y1768354D01*
X1433904Y1776563D01*
X1427202Y1783265D01*
X1418993Y1788005D01*
X1409837Y1790458D01*
D02*
G37*
G36*
X1909837Y1790458D02*
X1900358D01*
X1891202Y1788005D01*
X1882993Y1783265D01*
X1876290Y1776563D01*
X1871551Y1768354D01*
X1869097Y1759198D01*
Y1749719D01*
X1871551Y1740563D01*
X1876290Y1732354D01*
X1882993Y1725651D01*
X1891202Y1720911D01*
X1900358Y1718458D01*
X1909837D01*
X1918993Y1720911D01*
X1927202Y1725651D01*
X1933904Y1732354D01*
X1938644Y1740563D01*
X1941097Y1749719D01*
Y1759198D01*
X1938644Y1768354D01*
X1933904Y1776563D01*
X1927202Y1783265D01*
X1918993Y1788005D01*
X1909837Y1790458D01*
D02*
G37*
G36*
X1809837Y1790458D02*
X1800358D01*
X1791202Y1788005D01*
X1782993Y1783265D01*
X1776290Y1776562D01*
X1771551Y1768353D01*
X1769097Y1759197D01*
Y1749718D01*
X1771551Y1740562D01*
X1776290Y1732353D01*
X1782993Y1725651D01*
X1791202Y1720911D01*
X1800358Y1718458D01*
X1809837D01*
X1818993Y1720911D01*
X1827202Y1725651D01*
X1833904Y1732353D01*
X1838644Y1740562D01*
X1841097Y1749718D01*
Y1759197D01*
X1838644Y1768353D01*
X1833904Y1776562D01*
X1827202Y1783265D01*
X1818993Y1788005D01*
X1809837Y1790458D01*
D02*
G37*
G36*
X1709837D02*
X1700358D01*
X1691202Y1788005D01*
X1682993Y1783265D01*
X1676290Y1776562D01*
X1671551Y1768353D01*
X1669097Y1759197D01*
Y1749718D01*
X1671551Y1740562D01*
X1676290Y1732353D01*
X1682993Y1725651D01*
X1691202Y1720911D01*
X1700358Y1718458D01*
X1709837D01*
X1718993Y1720911D01*
X1727202Y1725651D01*
X1733904Y1732353D01*
X1738644Y1740562D01*
X1741097Y1749718D01*
Y1759197D01*
X1738644Y1768353D01*
X1733904Y1776562D01*
X1727202Y1783265D01*
X1718993Y1788005D01*
X1709837Y1790458D01*
D02*
G37*
G36*
X1609837Y1790458D02*
X1600358D01*
X1591202Y1788005D01*
X1582993Y1783265D01*
X1576290Y1776562D01*
X1571551Y1768353D01*
X1569097Y1759197D01*
Y1749718D01*
X1571551Y1740562D01*
X1576290Y1732353D01*
X1582993Y1725651D01*
X1591202Y1720911D01*
X1600358Y1718458D01*
X1609837D01*
X1618993Y1720911D01*
X1627202Y1725651D01*
X1633904Y1732353D01*
X1638644Y1740562D01*
X1641097Y1749718D01*
Y1759197D01*
X1638644Y1768353D01*
X1633904Y1776562D01*
X1627202Y1783265D01*
X1618993Y1788005D01*
X1609837Y1790458D01*
D02*
G37*
G36*
X1309837D02*
X1300358D01*
X1291202Y1788005D01*
X1282993Y1783265D01*
X1276290Y1776562D01*
X1271551Y1768353D01*
X1269097Y1759197D01*
Y1749718D01*
X1271551Y1740562D01*
X1276290Y1732353D01*
X1282993Y1725651D01*
X1291202Y1720911D01*
X1300358Y1718458D01*
X1309837D01*
X1318993Y1720911D01*
X1327202Y1725651D01*
X1333904Y1732353D01*
X1338644Y1740562D01*
X1341097Y1749718D01*
Y1759197D01*
X1338644Y1768353D01*
X1333904Y1776562D01*
X1327202Y1783265D01*
X1318993Y1788005D01*
X1309837Y1790458D01*
D02*
G37*
G36*
X1953019Y1728974D02*
X1945531Y1727988D01*
X1938553Y1725098D01*
X1932561Y1720500D01*
X1915858Y1703796D01*
X1911260Y1697804D01*
X1908370Y1690826D01*
X1907384Y1683338D01*
X1908370Y1675850D01*
X1911260Y1668872D01*
X1915858Y1662880D01*
X1921850Y1658282D01*
X1928828Y1655391D01*
X1936316Y1654405D01*
X1943804Y1655391D01*
X1950782Y1658282D01*
X1956774Y1662880D01*
X1973478Y1679583D01*
X1978076Y1685575D01*
X1980966Y1692553D01*
X1981952Y1700041D01*
X1980966Y1707530D01*
X1978076Y1714507D01*
X1973478Y1720500D01*
X1967486Y1725098D01*
X1960508Y1727988D01*
X1953019Y1728974D01*
D02*
G37*
G36*
X1843613Y1619567D02*
X1836124Y1618581D01*
X1829147Y1615691D01*
X1823154Y1611093D01*
X1792532Y1580470D01*
X1787934Y1574478D01*
X1785043Y1567500D01*
X1784057Y1560012D01*
X1785043Y1552524D01*
X1787934Y1545546D01*
X1792532Y1539553D01*
X1798524Y1534956D01*
X1805502Y1532065D01*
X1812990Y1531079D01*
X1820478Y1532065D01*
X1827456Y1534956D01*
X1833448Y1539553D01*
X1864071Y1570176D01*
X1868669Y1576168D01*
X1871560Y1583146D01*
X1872545Y1590635D01*
X1871559Y1598123D01*
X1868669Y1605101D01*
X1864071Y1611093D01*
X1858079Y1615691D01*
X1851101Y1618581D01*
X1843613Y1619567D01*
D02*
G37*
G36*
X1887301Y1572554D02*
X1878435D01*
X1870243Y1569161D01*
X1863974Y1562891D01*
X1860581Y1554700D01*
Y1545833D01*
X1863974Y1537642D01*
X1870243Y1531372D01*
X1878435Y1527979D01*
X1887301D01*
X1895493Y1531372D01*
X1901762Y1537642D01*
X1905155Y1545833D01*
Y1554700D01*
X1901762Y1562891D01*
X1895493Y1569161D01*
X1887301Y1572554D01*
D02*
G37*
G36*
X1937458Y1528858D02*
X1930353D01*
X1923790Y1526139D01*
X1918766Y1521116D01*
X1916047Y1514552D01*
Y1507448D01*
X1918766Y1500884D01*
X1923790Y1495861D01*
X1930353Y1493142D01*
X1937458D01*
X1944021Y1495861D01*
X1949045Y1500884D01*
X1951764Y1507448D01*
Y1514552D01*
X1949045Y1521116D01*
X1944021Y1526139D01*
X1937458Y1528858D01*
D02*
G37*
G36*
X2004458Y1457858D02*
X1997353D01*
X1990790Y1455139D01*
X1985766Y1450116D01*
X1983047Y1443552D01*
Y1436448D01*
X1985766Y1429884D01*
X1990790Y1424861D01*
X1997353Y1422142D01*
X2004458D01*
X2011021Y1424861D01*
X2016045Y1429884D01*
X2018764Y1436448D01*
Y1443552D01*
X2016045Y1450116D01*
X2011021Y1455139D01*
X2004458Y1457858D01*
D02*
G37*
%LPD*%
D39*
X1734625Y1454458D02*
Y1554458D01*
Y1354458D02*
Y1454458D01*
D40*
X1142508Y500000D02*
X1143707Y501199D01*
X1037906Y500000D02*
X1142508D01*
X807622Y1003837D02*
X808591Y1002868D01*
X834686D01*
X816726Y1028955D02*
X817597Y1029825D01*
X637019Y953010D02*
X658841D01*
X661877Y949974D02*
X720932D01*
X658841Y953010D02*
X661877Y949974D01*
X708482Y857921D02*
X729573D01*
X522100Y1087435D02*
X765989D01*
X513905Y1093000D02*
X516535D01*
X522100Y1087435D01*
X765989D02*
X771851Y1081573D01*
X849783D02*
X890210Y1122000D01*
X780905Y1103431D02*
Y1105000D01*
X771851Y1081573D02*
X849783D01*
X780905Y1105000D02*
X865291Y1189386D01*
X729573Y857921D02*
X734135Y853358D01*
X835493D01*
X718905Y568000D02*
X882905D01*
X987905Y463000D01*
X885993Y534000D02*
X980993Y439000D01*
X622905Y534000D02*
X885993D01*
X737905Y599000D02*
X938905D01*
X835493Y853358D02*
X835851Y853717D01*
X1056189D01*
X1079906Y830000D01*
X618689Y847217D02*
X664189D01*
X561905Y904000D02*
X618689Y847217D01*
X701406Y810000D02*
X887965D01*
X664189Y847217D02*
X701406Y810000D01*
X915993Y793000D02*
X938851Y770142D01*
X898947Y776000D02*
X954418Y720529D01*
X887965Y810000D02*
X907965Y830000D01*
X682464Y780858D02*
X687322Y776000D01*
X645905Y759000D02*
X891905D01*
X687322Y776000D02*
X898947D01*
X694364Y793000D02*
X915993D01*
X662006Y825358D02*
X694364Y793000D01*
X891905Y759000D02*
X947376Y703529D01*
X422906Y943000D02*
X474906D01*
X637047Y780858D01*
X682464D01*
X873764Y916142D02*
X1197778D01*
X1198329Y916692D01*
X1205200D02*
X1207059Y918552D01*
X1198329Y916692D02*
X1205200D01*
X898851Y959858D02*
X1109371D01*
X1128459Y947837D01*
X848862Y941044D02*
X873764Y916142D01*
X834686Y1002868D02*
X879971Y1048153D01*
X817597Y1029825D02*
X836188D01*
X861971Y1055609D01*
X410433Y841736D02*
Y844365D01*
X843442Y703529D02*
X874905D01*
X907965Y830000D02*
X961905D01*
X625405Y825358D02*
X662006D01*
X1013001Y1185142D02*
X1020056Y1192196D01*
X980810Y1185142D02*
X1013001D01*
X1015676Y1211858D02*
X1574082D01*
X859588D02*
X978135D01*
X987851Y1202142D02*
X1005960D01*
X978135Y1211858D02*
X987851Y1202142D01*
X1020056Y1192196D02*
X1569703D01*
X973755D02*
X980810Y1185142D01*
X870839Y1192196D02*
X973755D01*
X1005960Y1202142D02*
X1015676Y1211858D01*
X965376Y703529D02*
X977905Y691000D01*
X947376Y703529D02*
X965376D01*
X1035435D02*
X1144778D01*
X924435Y654000D02*
X985864D01*
X874905Y703529D02*
X924435Y654000D01*
X877905Y675000D02*
X918905Y634000D01*
X989905D01*
X844905Y675000D02*
X877905D01*
X991864Y660000D02*
X991905D01*
X985864Y654000D02*
X991864Y660000D01*
X991905D02*
X1035435Y703529D01*
X989905Y634000D02*
X998905Y643000D01*
X998947D01*
X1030947Y675000D01*
X1119906D01*
X954418Y720529D02*
X1151820D01*
X938851Y770142D02*
X956960D01*
X1151820Y720529D02*
X1155814Y716535D01*
X956960Y770142D02*
X957818Y771000D01*
X982905D01*
X414906Y1042000D02*
X463906Y1091000D01*
Y1273000D01*
X512905Y1322000D01*
X586905D01*
X646496Y1381591D01*
X946850D01*
X417906Y987000D02*
X433906Y1003000D01*
X708905D01*
X749003Y962902D01*
X882818Y938000D02*
X907905D01*
X849905Y984760D02*
X873949D01*
X857916Y962902D02*
X882818Y938000D01*
X873949Y984760D02*
X898851Y959858D01*
X749003Y962902D02*
X857916D01*
X887155Y1081537D02*
Y1088032D01*
X907192Y1069623D02*
X909051Y1071482D01*
X887155Y1088032D02*
X889014Y1089891D01*
X900697Y1069623D02*
X907192D01*
X865291Y1189386D02*
X868028D01*
X890210Y1122000D02*
X1405906D01*
X1574082Y1211858D02*
X1582941Y1203000D01*
X868028Y1189386D02*
X870839Y1192196D01*
X1569703D02*
X1575899Y1186000D01*
X858974Y1211244D02*
X859588Y1211858D01*
X1753639Y1203000D02*
X1805097Y1254458D01*
X1582941Y1203000D02*
X1753639D01*
X879971Y1048153D02*
Y1048898D01*
X861971Y1055609D02*
Y1056354D01*
X887155Y1081537D01*
X879971Y1048898D02*
X900697Y1069623D01*
X779136Y891770D02*
X912278D01*
X720932Y949974D02*
X779136Y891770D01*
X1405906Y1122000D02*
X1457102Y1173196D01*
X1119906Y675000D02*
X1185906Y609000D01*
X1197906D01*
X1238906Y650000D01*
X1155814Y716535D02*
X1191441D01*
X1144778Y703529D02*
X1184307Y664000D01*
X547905Y609000D02*
X622905Y534000D01*
X980993Y439000D02*
X1050185D01*
X1081776Y470591D01*
X938905Y599000D02*
X1037906Y500000D01*
X1079906Y830000D02*
X1126455D01*
X1127748Y946709D02*
X1128459Y947419D01*
Y947837D01*
X1457102Y1173196D02*
X1559004D01*
X1662906Y1037000D02*
Y1069295D01*
X1559004Y1173196D02*
X1662906Y1069295D01*
X1760681Y1186000D02*
X1766681Y1192000D01*
X1805906D01*
X1575899Y1186000D02*
X1760681D01*
X1124890Y875984D02*
X1145890D01*
X1158906Y889000D01*
X1728764D01*
X1796906Y957142D01*
X1119906Y743000D02*
X1142906Y766000D01*
X1240578Y966327D02*
X1562583D01*
X1124906Y1082000D02*
X1240578Y966327D01*
X2211854Y1113420D02*
X2212273Y1113000D01*
X1548085Y1001327D02*
X1561899Y1015142D01*
X1864097Y1033150D02*
Y1270026D01*
X1562583Y966327D02*
X1575255Y979000D01*
X1876906D01*
X1820633Y1015142D02*
X1846097Y1040606D01*
Y1277482D01*
X1828089Y997142D02*
X1864097Y1033150D01*
X1569355Y997142D02*
X1828089D01*
X1555541Y983327D02*
X1569355Y997142D01*
X1561899Y1015142D02*
X1820633D01*
X1296505Y1007169D02*
X1302347Y1001327D01*
X1280415Y997682D02*
X1280536D01*
X1302347Y1001327D02*
X1548085D01*
X1294891Y983327D02*
X1555541D01*
X1280536Y997682D02*
X1294891Y983327D01*
X1275556Y1002540D02*
X1280415Y997682D01*
X1876906Y979000D02*
X2010906Y1113000D01*
X1296505Y1007169D02*
Y1014116D01*
X1864097Y1270026D02*
X1866941Y1272870D01*
X1846097Y1277482D02*
X1848941Y1280326D01*
X2205823Y1113420D02*
X2211854D01*
X2205403Y1113000D02*
X2205823Y1113420D01*
X2010906Y1113000D02*
X2205403D01*
X2212273D02*
X2214553Y1115279D01*
X1848941Y1280326D02*
Y1383619D01*
X1866941Y1272870D02*
Y1383619D01*
X1871299Y1387977D02*
Y1390606D01*
X1866941Y1383619D02*
X1871299Y1387977D01*
X1272927Y1002540D02*
X1275556D01*
X1142906Y766000D02*
X1889906D01*
X1919906Y796000D01*
D42*
X1796906Y957142D02*
X1881917D01*
X1893775Y969000D02*
X1988906D01*
X1881917Y957142D02*
X1893775Y969000D01*
X1988906D02*
X1998906Y979000D01*
X1627401Y1547235D02*
X1634625Y1554458D01*
X1579625Y1528893D02*
X1597966Y1547235D01*
X1505097Y1254458D02*
Y1265823D01*
X1597966Y1547235D02*
X1627401D01*
X1579625Y1319245D02*
Y1528893D01*
X1517235Y1277961D02*
Y1281960D01*
X1505097Y1265823D02*
X1517235Y1277961D01*
Y1281960D02*
X1535628Y1300352D01*
X1560732D01*
X1579625Y1319245D01*
X1684906Y1282145D02*
Y1604178D01*
X1634625Y1654458D02*
X1684906Y1604178D01*
X1605097Y1254458D02*
X1705097D01*
X1705097Y1254458D01*
Y1261953D01*
X1684906Y1282145D02*
X1705097Y1261953D01*
D44*
X2068829Y1334796D02*
X2185195Y1451162D01*
D45*
X1205097Y1354458D02*
D03*
X1205097Y1254458D02*
D03*
Y1454458D02*
D03*
X1605097Y1754458D02*
D03*
X1705097Y1754458D02*
D03*
X1505097Y1754458D02*
D03*
X1405097D02*
D03*
X1905097Y1254458D02*
D03*
Y1754458D02*
D03*
X1305097Y1754458D02*
D03*
X1305097Y1254458D02*
D03*
X1405097Y1254458D02*
D03*
X1505097Y1254458D02*
D03*
X1605097D02*
D03*
X1705097Y1254458D02*
D03*
X1805097Y1254458D02*
D03*
Y1754458D02*
D03*
X1205097Y1754458D02*
D03*
D46*
X2067082Y1042450D02*
D03*
D47*
X2001968Y853346D02*
D03*
D48*
X594882Y1441732D02*
D03*
X694882Y1441732D02*
D03*
X794882Y1441732D02*
D03*
X894882D02*
D03*
X994882D02*
D03*
D49*
X1094882D02*
D03*
D50*
X1634625Y1354458D02*
D03*
X1734625D02*
D03*
X1534625Y1354458D02*
D03*
D51*
X1634625Y1454458D02*
D03*
Y1554458D02*
D03*
Y1654458D02*
D03*
X1734625Y1554458D02*
D03*
Y1454458D02*
D03*
X994882Y1541732D02*
D03*
X894882Y1541732D02*
D03*
X794882Y1541732D02*
D03*
X1534625Y1454458D02*
D03*
Y1554458D02*
D03*
X1534625Y1654458D02*
D03*
D52*
X1678735Y1949127D02*
D03*
X742126Y451772D02*
D03*
X1480315Y599409D02*
D03*
X1785433D02*
D03*
D53*
X1580310Y1949127D02*
D03*
X1481884D02*
D03*
X1383459D02*
D03*
X1126968Y216535D02*
D03*
Y314961D02*
D03*
X840551Y451772D02*
D03*
X1578740Y599409D02*
D03*
X1883858D02*
D03*
D54*
X1126968Y118110D02*
D03*
D55*
X1944668Y1691690D02*
D03*
X2185195Y1451162D02*
D03*
D56*
X1882868Y1550266D02*
D03*
X2043772Y1389363D02*
D03*
D57*
X1828301Y1575323D02*
D03*
X2068829Y1334796D02*
D03*
D58*
X1094882Y1541732D02*
D03*
D59*
X2438948Y1449009D02*
D03*
X1946822Y1945442D02*
D03*
D60*
X1057717Y592395D02*
D03*
X1529527Y1095204D02*
D03*
D61*
X2177594Y1275934D02*
D03*
X2146971Y1245311D02*
D03*
X2208217D02*
D03*
X2177594Y1214689D02*
D03*
X2238840D02*
D03*
X2208217Y1184066D02*
D03*
D62*
X1143707Y501199D02*
D03*
X807622Y1003837D02*
D03*
X816726Y1028955D02*
D03*
X637019Y953010D02*
D03*
X708482Y857921D02*
D03*
X747909Y1065577D02*
D03*
X780905Y1103431D02*
D03*
X696047Y1059000D02*
D03*
X697735Y883067D02*
D03*
X601905Y267000D02*
D03*
X691929Y322000D02*
D03*
X844905Y831858D02*
D03*
X919668Y981717D02*
D03*
X683775Y735045D02*
D03*
X596124Y705300D02*
D03*
X676764Y569000D02*
D03*
X656905Y504000D02*
D03*
X718905Y568000D02*
D03*
X534130Y827225D02*
D03*
X412664Y904067D02*
D03*
X410433Y841736D02*
D03*
X752073Y623311D02*
D03*
X843442Y703529D02*
D03*
X795422Y641652D02*
D03*
X848905Y736340D02*
D03*
X625405Y825358D02*
D03*
X606905Y747642D02*
D03*
X536345Y773843D02*
D03*
X561905Y904000D02*
D03*
X996905Y1224000D02*
D03*
X977905Y691000D02*
D03*
X947905Y792000D02*
D03*
X961905Y830000D02*
D03*
X645905Y759000D02*
D03*
X633905Y735000D02*
D03*
X414906Y1042000D02*
D03*
X946850Y1381591D02*
D03*
X417906Y987000D02*
D03*
X849905Y984760D02*
D03*
X907905Y938000D02*
D03*
X909051Y1071482D02*
D03*
X889014Y1089891D02*
D03*
X929905Y1238000D02*
D03*
X844905Y96000D02*
D03*
X780905Y1314000D02*
D03*
X838905Y1261000D02*
D03*
X858974Y1211244D02*
D03*
X518620Y1290567D02*
D03*
X539905Y1205000D02*
D03*
X532905Y1363000D02*
D03*
X505906Y448000D02*
D03*
X422906Y519000D02*
D03*
X848862Y941044D02*
D03*
X871905Y1343000D02*
D03*
X987905Y463000D02*
D03*
X861378Y650000D02*
D03*
X1081776Y470591D02*
D03*
X1207059Y918552D02*
D03*
X1172171Y819000D02*
D03*
X1126455Y830000D02*
D03*
X1127748Y946709D02*
D03*
X1184308Y664000D02*
D03*
X658905Y716000D02*
D03*
X603994Y895912D02*
D03*
X912278Y891770D02*
D03*
X982905Y771000D02*
D03*
X1071338Y220000D02*
D03*
X422906Y943000D02*
D03*
X972905Y207000D02*
D03*
X427906Y681000D02*
D03*
X547905Y609000D02*
D03*
X513905Y1093000D02*
D03*
X1805906Y1192000D02*
D03*
X1124890Y875984D02*
D03*
X1191441Y716535D02*
D03*
X1119906Y743000D02*
D03*
X1124906Y1082000D02*
D03*
X1796906Y957142D02*
D03*
X2214553Y1115279D02*
D03*
X1086906Y1241000D02*
D03*
X737905Y599000D02*
D03*
X844905Y675000D02*
D03*
X1223047Y1398000D02*
D03*
X1238906Y650000D02*
D03*
X1284906Y1597000D02*
D03*
X1300906Y1305000D02*
D03*
X1358541Y1361942D02*
D03*
X1435152Y1409000D02*
D03*
X1346864Y1428959D02*
D03*
X1227906Y1516000D02*
D03*
X1288205Y1643701D02*
D03*
X434126Y1167791D02*
D03*
X1662906Y1037000D02*
D03*
X1673906Y729000D02*
D03*
X1950787Y1303150D02*
D03*
X1970535Y1295276D02*
D03*
X1871299Y1390606D02*
D03*
X1272927Y1002540D02*
D03*
X1291819Y1021432D02*
D03*
X1844583Y1390606D02*
D03*
X2185905Y1330000D02*
D03*
X2259905Y1386000D02*
D03*
X1933906Y1511000D02*
D03*
X2000906Y1440000D02*
D03*
X1834125Y1431686D02*
D03*
X1478417Y1337583D02*
D03*
X1919906Y796000D02*
D03*
X1384906Y619000D02*
D03*
X1815906Y698819D02*
D03*
X1748284Y812992D02*
D03*
X1536906Y722000D02*
D03*
X1689906Y940000D02*
D03*
X1461906Y925197D02*
D03*
X1998906Y979000D02*
D03*
X1830125Y1455308D02*
D03*
X1814377Y1439560D02*
D03*
X1966535Y1318898D02*
D03*
X2157905Y1048000D02*
D03*
X2359905Y1293000D02*
D03*
X2292905Y1390000D02*
D03*
%TF.MD5,705e19d61bb3a97c1ca63dcde955890f*%
M02*
