%TF.GenerationSoftware,Altium Limited,Altium Designer,23.11.1 (41)*%
G04 Layer_Color=32896*
%FSLAX26Y26*%
%MOIN*%
%TF.SameCoordinates,F82F4D49-2E87-4C35-BC9D-0006C00306D8*%
%TF.FilePolarity,Positive*%
%TF.FileFunction,Legend,Bot*%
%TF.Part,CustomerPanel*%
G01*
G75*
%TA.AperFunction,NonConductor*%
%ADD88C,0.003937*%
%ADD89C,0.009842*%
%ADD90C,0.007874*%
%ADD91C,0.008000*%
G36*
X1258888Y1534518D02*
X1278813D01*
Y1529881D01*
X1258888D01*
Y1524890D01*
X1255037D01*
Y1539588D01*
X1258888D01*
Y1534518D01*
D02*
G37*
G36*
X1278813Y1518523D02*
X1270167Y1514004D01*
Y1513964D01*
X1278813Y1509484D01*
Y1504375D01*
X1266513Y1511253D01*
X1255037Y1504886D01*
Y1509956D01*
X1262818Y1513964D01*
Y1514004D01*
X1255037Y1518052D01*
Y1523121D01*
X1266513Y1516755D01*
X1278813Y1523632D01*
Y1518523D01*
D02*
G37*
G36*
X1278381Y1493725D02*
X1278538Y1493214D01*
X1278656Y1492782D01*
X1278774Y1492389D01*
X1278853Y1492114D01*
X1278892Y1491917D01*
Y1491839D01*
X1279089Y1490659D01*
X1279128Y1490109D01*
X1279167Y1489638D01*
X1279206Y1489205D01*
Y1488616D01*
X1279167Y1487909D01*
X1279128Y1487280D01*
X1279049Y1486690D01*
X1278931Y1486179D01*
X1278853Y1485786D01*
X1278774Y1485472D01*
X1278735Y1485275D01*
X1278696Y1485197D01*
X1278499Y1484647D01*
X1278263Y1484136D01*
X1277988Y1483703D01*
X1277752Y1483350D01*
X1277556Y1483035D01*
X1277359Y1482839D01*
X1277241Y1482682D01*
X1277202Y1482642D01*
X1276809Y1482249D01*
X1276416Y1481935D01*
X1276062Y1481660D01*
X1275709Y1481424D01*
X1275394Y1481267D01*
X1275159Y1481149D01*
X1274962Y1481070D01*
X1274923Y1481031D01*
X1274412Y1480834D01*
X1273901Y1480717D01*
X1273390Y1480599D01*
X1272918Y1480559D01*
X1272525Y1480520D01*
X1272211Y1480481D01*
X1272014D01*
X1271936D01*
X1271307Y1480520D01*
X1270718Y1480599D01*
X1270207Y1480717D01*
X1269814Y1480834D01*
X1269460Y1480952D01*
X1269185Y1481070D01*
X1269028Y1481149D01*
X1268988Y1481188D01*
X1268556Y1481463D01*
X1268163Y1481738D01*
X1267849Y1482014D01*
X1267534Y1482289D01*
X1267299Y1482564D01*
X1267141Y1482721D01*
X1267023Y1482878D01*
X1266984Y1482917D01*
X1266395Y1483703D01*
X1266159Y1484057D01*
X1265923Y1484411D01*
X1265766Y1484725D01*
X1265648Y1484961D01*
X1265569Y1485118D01*
X1265530Y1485158D01*
X1265098Y1486022D01*
X1264901Y1486415D01*
X1264705Y1486769D01*
X1264587Y1487044D01*
X1264469Y1487240D01*
X1264390Y1487398D01*
X1264351Y1487437D01*
X1263919Y1488144D01*
X1263683Y1488419D01*
X1263486Y1488695D01*
X1263329Y1488891D01*
X1263211Y1489048D01*
X1263133Y1489127D01*
X1263093Y1489166D01*
X1262818Y1489402D01*
X1262543Y1489559D01*
X1262268Y1489677D01*
X1261993Y1489756D01*
X1261757Y1489795D01*
X1261561Y1489834D01*
X1261443D01*
X1261403D01*
X1260971Y1489795D01*
X1260539Y1489716D01*
X1260225Y1489559D01*
X1259910Y1489402D01*
X1259714Y1489245D01*
X1259517Y1489088D01*
X1259438Y1489009D01*
X1259399Y1488970D01*
X1259124Y1488616D01*
X1258928Y1488223D01*
X1258810Y1487791D01*
X1258692Y1487398D01*
X1258652Y1487083D01*
X1258613Y1486769D01*
Y1486533D01*
X1258652Y1485747D01*
X1258692Y1485393D01*
X1258731Y1485079D01*
X1258810Y1484804D01*
X1258849Y1484607D01*
X1258888Y1484489D01*
Y1484450D01*
X1259124Y1483743D01*
X1259242Y1483428D01*
X1259360Y1483193D01*
X1259478Y1482957D01*
X1259556Y1482800D01*
X1259596Y1482682D01*
X1259635Y1482642D01*
X1255901Y1481188D01*
X1255469Y1482053D01*
X1255312Y1482485D01*
X1255194Y1482878D01*
X1255076Y1483193D01*
X1254998Y1483468D01*
X1254958Y1483625D01*
Y1483703D01*
X1254762Y1484764D01*
X1254683Y1485275D01*
X1254644Y1485747D01*
X1254605Y1486140D01*
Y1486729D01*
X1254644Y1487358D01*
X1254683Y1487987D01*
X1254762Y1488537D01*
X1254840Y1489009D01*
X1254958Y1489402D01*
X1255037Y1489677D01*
X1255076Y1489873D01*
X1255116Y1489952D01*
X1255312Y1490463D01*
X1255548Y1490935D01*
X1255784Y1491328D01*
X1256019Y1491681D01*
X1256255Y1491996D01*
X1256412Y1492192D01*
X1256530Y1492349D01*
X1256570Y1492389D01*
X1256923Y1492742D01*
X1257277Y1493057D01*
X1257670Y1493293D01*
X1258024Y1493528D01*
X1258299Y1493686D01*
X1258535Y1493803D01*
X1258731Y1493882D01*
X1258770Y1493921D01*
X1259281Y1494118D01*
X1259753Y1494236D01*
X1260264Y1494354D01*
X1260696Y1494393D01*
X1261089Y1494432D01*
X1261403Y1494472D01*
X1261600D01*
X1261679D01*
X1262307Y1494432D01*
X1262897Y1494354D01*
X1263408Y1494275D01*
X1263840Y1494118D01*
X1264194Y1494000D01*
X1264430Y1493921D01*
X1264626Y1493843D01*
X1264665Y1493803D01*
X1265098Y1493528D01*
X1265491Y1493214D01*
X1265805Y1492939D01*
X1266120Y1492664D01*
X1266355Y1492428D01*
X1266513Y1492232D01*
X1266630Y1492114D01*
X1266670Y1492074D01*
X1267220Y1491288D01*
X1267495Y1490935D01*
X1267691Y1490581D01*
X1267849Y1490306D01*
X1267967Y1490070D01*
X1268045Y1489913D01*
X1268084Y1489873D01*
X1268477Y1489009D01*
X1268674Y1488616D01*
X1268870Y1488302D01*
X1268988Y1488026D01*
X1269106Y1487830D01*
X1269185Y1487673D01*
X1269224Y1487633D01*
X1269421Y1487280D01*
X1269657Y1486926D01*
X1269853Y1486651D01*
X1270050Y1486415D01*
X1270246Y1486219D01*
X1270364Y1486061D01*
X1270443Y1485983D01*
X1270482Y1485944D01*
X1270757Y1485708D01*
X1271032Y1485551D01*
X1271307Y1485393D01*
X1271582Y1485315D01*
X1271818Y1485275D01*
X1272014Y1485236D01*
X1272132D01*
X1272172D01*
X1272643Y1485275D01*
X1273036Y1485393D01*
X1273390Y1485551D01*
X1273704Y1485708D01*
X1273940Y1485904D01*
X1274097Y1486061D01*
X1274215Y1486179D01*
X1274255Y1486219D01*
X1274530Y1486612D01*
X1274726Y1487044D01*
X1274844Y1487476D01*
X1274923Y1487869D01*
X1275001Y1488262D01*
X1275041Y1488577D01*
Y1488852D01*
X1275001Y1489677D01*
X1274923Y1490070D01*
X1274883Y1490424D01*
X1274805Y1490699D01*
X1274765Y1490935D01*
X1274726Y1491092D01*
Y1491131D01*
X1274451Y1491917D01*
X1274333Y1492271D01*
X1274215Y1492585D01*
X1274097Y1492860D01*
X1274019Y1493057D01*
X1273940Y1493175D01*
Y1493214D01*
X1277949Y1494747D01*
X1278381Y1493725D01*
D02*
G37*
G36*
X1278813Y1464211D02*
X1274962D01*
Y1472346D01*
X1268674D01*
Y1464997D01*
X1264862D01*
Y1472346D01*
X1258888D01*
Y1464211D01*
X1255037D01*
Y1476865D01*
X1278813D01*
Y1464211D01*
D02*
G37*
G36*
Y1448491D02*
X1274962D01*
Y1455879D01*
X1255037D01*
Y1460516D01*
X1278813D01*
Y1448491D01*
D02*
G37*
G36*
X1441106Y1490125D02*
X1442106Y1490075D01*
X1443006Y1489925D01*
X1443856Y1489725D01*
X1444656Y1489525D01*
X1445406Y1489275D01*
X1446056Y1488975D01*
X1446706Y1488725D01*
X1447206Y1488475D01*
X1447706Y1488175D01*
X1448106Y1487925D01*
X1448456Y1487725D01*
X1448706Y1487525D01*
X1448906Y1487425D01*
X1449006Y1487325D01*
X1449056Y1487275D01*
X1449656Y1486725D01*
X1450156Y1486175D01*
X1450606Y1485575D01*
X1451006Y1484975D01*
X1451306Y1484425D01*
X1451606Y1483875D01*
X1452006Y1482775D01*
X1452206Y1481875D01*
X1452306Y1481475D01*
X1452356Y1481125D01*
X1452406Y1480875D01*
Y1479925D01*
X1452306Y1479325D01*
X1452056Y1478275D01*
X1451656Y1477275D01*
X1451256Y1476375D01*
X1450806Y1475675D01*
X1450606Y1475375D01*
X1450406Y1475125D01*
X1450256Y1474925D01*
X1450156Y1474775D01*
X1450106Y1474675D01*
X1450056Y1474625D01*
X1460256Y1476325D01*
Y1488675D01*
X1464706D01*
Y1473275D01*
X1445156Y1470225D01*
X1444606Y1473825D01*
X1445206Y1474175D01*
X1445756Y1474575D01*
X1446206Y1474925D01*
X1446606Y1475325D01*
X1446906Y1475675D01*
X1447156Y1475925D01*
X1447256Y1476125D01*
X1447306Y1476175D01*
X1447656Y1476775D01*
X1447906Y1477325D01*
X1448056Y1477875D01*
X1448206Y1478375D01*
X1448256Y1478825D01*
X1448306Y1479125D01*
Y1479975D01*
X1448206Y1480475D01*
X1447956Y1481425D01*
X1447606Y1482225D01*
X1447206Y1482925D01*
X1446756Y1483475D01*
X1446406Y1483875D01*
X1446156Y1484125D01*
X1446106Y1484225D01*
X1446056D01*
X1445156Y1484875D01*
X1444106Y1485325D01*
X1443056Y1485675D01*
X1442056Y1485875D01*
X1441156Y1486025D01*
X1440756Y1486075D01*
X1440406D01*
X1440156Y1486125D01*
X1439956D01*
X1439806D01*
X1439756D01*
X1438206Y1486025D01*
X1436856Y1485825D01*
X1435656Y1485475D01*
X1435156Y1485325D01*
X1434706Y1485125D01*
X1434306Y1484925D01*
X1433906Y1484775D01*
X1433606Y1484575D01*
X1433356Y1484425D01*
X1433156Y1484325D01*
X1433006Y1484225D01*
X1432956Y1484125D01*
X1432906D01*
X1432456Y1483775D01*
X1432106Y1483375D01*
X1431756Y1482975D01*
X1431506Y1482575D01*
X1431056Y1481775D01*
X1430756Y1481075D01*
X1430606Y1480425D01*
X1430506Y1479925D01*
X1430456Y1479725D01*
Y1479475D01*
X1430556Y1478675D01*
X1430756Y1477925D01*
X1431006Y1477275D01*
X1431356Y1476725D01*
X1431656Y1476275D01*
X1431956Y1475925D01*
X1432156Y1475725D01*
X1432206Y1475625D01*
X1432956Y1475075D01*
X1433806Y1474625D01*
X1434656Y1474275D01*
X1435556Y1474025D01*
X1436306Y1473825D01*
X1436656Y1473725D01*
X1436956Y1473675D01*
X1437206Y1473625D01*
X1437406Y1473575D01*
X1437506D01*
X1437556D01*
X1437206Y1469575D01*
X1436306Y1469675D01*
X1435456Y1469825D01*
X1434656Y1469975D01*
X1433856Y1470225D01*
X1433206Y1470475D01*
X1432556Y1470725D01*
X1431956Y1470975D01*
X1431456Y1471275D01*
X1430956Y1471525D01*
X1430556Y1471775D01*
X1430206Y1472025D01*
X1429906Y1472225D01*
X1429706Y1472425D01*
X1429556Y1472575D01*
X1429456Y1472625D01*
X1429406Y1472675D01*
X1428906Y1473225D01*
X1428506Y1473775D01*
X1428106Y1474325D01*
X1427806Y1474925D01*
X1427306Y1476075D01*
X1426956Y1477175D01*
X1426756Y1478075D01*
X1426706Y1478525D01*
X1426656Y1478875D01*
X1426606Y1479125D01*
Y1479525D01*
X1426656Y1480425D01*
X1426756Y1481275D01*
X1426956Y1482025D01*
X1427206Y1482775D01*
X1427506Y1483475D01*
X1427856Y1484125D01*
X1428206Y1484675D01*
X1428606Y1485225D01*
X1428956Y1485675D01*
X1429306Y1486125D01*
X1429656Y1486475D01*
X1429956Y1486725D01*
X1430206Y1486975D01*
X1430406Y1487125D01*
X1430506Y1487225D01*
X1430556Y1487275D01*
X1431306Y1487775D01*
X1432106Y1488225D01*
X1432906Y1488625D01*
X1433706Y1488975D01*
X1434506Y1489225D01*
X1435306Y1489475D01*
X1436806Y1489825D01*
X1437506Y1489925D01*
X1438106Y1490025D01*
X1438706Y1490075D01*
X1439156Y1490125D01*
X1439556Y1490175D01*
X1439856D01*
X1440056D01*
X1440106D01*
X1441106Y1490125D01*
D02*
G37*
G36*
X1437556Y1461775D02*
X1438506Y1461225D01*
X1439456Y1460675D01*
X1440256Y1460125D01*
X1440956Y1459675D01*
X1441556Y1459225D01*
X1442006Y1458875D01*
X1442306Y1458675D01*
X1442406Y1458575D01*
X1442806Y1458175D01*
X1443156Y1457775D01*
X1443856Y1456875D01*
X1444106Y1456525D01*
X1444306Y1456225D01*
X1444456Y1456025D01*
X1444506Y1455925D01*
X1444856Y1457425D01*
X1445306Y1458725D01*
X1445856Y1459875D01*
X1446456Y1460775D01*
X1446706Y1461175D01*
X1447006Y1461475D01*
X1447206Y1461775D01*
X1447456Y1462025D01*
X1447606Y1462175D01*
X1447756Y1462325D01*
X1447806Y1462425D01*
X1447856D01*
X1448406Y1462825D01*
X1448956Y1463175D01*
X1450106Y1463725D01*
X1451256Y1464125D01*
X1452356Y1464375D01*
X1453356Y1464575D01*
X1453756Y1464625D01*
X1454156D01*
X1454456Y1464675D01*
X1454656D01*
X1454806D01*
X1454856D01*
X1456056Y1464625D01*
X1457106Y1464475D01*
X1458106Y1464225D01*
X1458906Y1464025D01*
X1459606Y1463775D01*
X1460106Y1463525D01*
X1460306Y1463475D01*
X1460456Y1463375D01*
X1460506Y1463325D01*
X1460556D01*
X1461406Y1462825D01*
X1462156Y1462275D01*
X1462756Y1461675D01*
X1463256Y1461175D01*
X1463656Y1460675D01*
X1463906Y1460325D01*
X1464056Y1460075D01*
X1464106Y1459975D01*
X1464306Y1459575D01*
X1464456Y1459125D01*
X1464756Y1458125D01*
X1464956Y1457075D01*
X1465056Y1456025D01*
X1465156Y1455075D01*
Y1454625D01*
X1465206Y1454275D01*
Y1439825D01*
X1427256D01*
Y1443925D01*
X1444106D01*
Y1449425D01*
X1444006Y1450025D01*
X1443906Y1450575D01*
X1443806Y1451025D01*
X1443706Y1451425D01*
X1443606Y1451675D01*
X1443556Y1451825D01*
X1443506Y1451875D01*
X1443256Y1452325D01*
X1442956Y1452725D01*
X1442606Y1453125D01*
X1442206Y1453475D01*
X1441906Y1453775D01*
X1441606Y1454025D01*
X1441406Y1454175D01*
X1441356Y1454225D01*
X1441006Y1454475D01*
X1440606Y1454725D01*
X1439706Y1455325D01*
X1438656Y1455925D01*
X1437656Y1456525D01*
X1436656Y1457075D01*
X1436256Y1457275D01*
X1435856Y1457475D01*
X1435556Y1457625D01*
X1435306Y1457775D01*
X1435156Y1457825D01*
X1435106Y1457875D01*
X1427256Y1462025D01*
Y1467225D01*
X1437556Y1461775D01*
D02*
G37*
G36*
X1440331Y1547800D02*
X1464881D01*
Y1544650D01*
X1440331Y1530500D01*
X1436031D01*
Y1544000D01*
X1426931D01*
Y1547800D01*
X1436031D01*
Y1552000D01*
X1440331D01*
Y1547800D01*
D02*
G37*
G36*
X1437231Y1523950D02*
X1438181Y1523400D01*
X1439131Y1522850D01*
X1439931Y1522300D01*
X1440631Y1521850D01*
X1441231Y1521400D01*
X1441681Y1521050D01*
X1441981Y1520850D01*
X1442081Y1520750D01*
X1442481Y1520350D01*
X1442831Y1519950D01*
X1443531Y1519050D01*
X1443781Y1518700D01*
X1443981Y1518400D01*
X1444131Y1518200D01*
X1444181Y1518100D01*
X1444531Y1519600D01*
X1444981Y1520900D01*
X1445531Y1522050D01*
X1446131Y1522950D01*
X1446381Y1523350D01*
X1446681Y1523650D01*
X1446881Y1523950D01*
X1447131Y1524200D01*
X1447281Y1524350D01*
X1447431Y1524500D01*
X1447481Y1524600D01*
X1447531D01*
X1448081Y1525000D01*
X1448631Y1525350D01*
X1449781Y1525900D01*
X1450931Y1526300D01*
X1452031Y1526550D01*
X1453031Y1526750D01*
X1453431Y1526800D01*
X1453831D01*
X1454131Y1526850D01*
X1454331D01*
X1454481D01*
X1454531D01*
X1455731Y1526800D01*
X1456781Y1526650D01*
X1457781Y1526400D01*
X1458581Y1526200D01*
X1459281Y1525950D01*
X1459781Y1525700D01*
X1459981Y1525650D01*
X1460131Y1525550D01*
X1460181Y1525500D01*
X1460231D01*
X1461081Y1525000D01*
X1461831Y1524450D01*
X1462431Y1523850D01*
X1462931Y1523350D01*
X1463331Y1522850D01*
X1463581Y1522500D01*
X1463731Y1522250D01*
X1463781Y1522150D01*
X1463981Y1521750D01*
X1464131Y1521300D01*
X1464431Y1520300D01*
X1464631Y1519250D01*
X1464731Y1518200D01*
X1464831Y1517250D01*
Y1516800D01*
X1464881Y1516450D01*
Y1502000D01*
X1426931D01*
Y1506100D01*
X1443781D01*
Y1511600D01*
X1443681Y1512200D01*
X1443581Y1512750D01*
X1443481Y1513200D01*
X1443381Y1513600D01*
X1443281Y1513850D01*
X1443231Y1514000D01*
X1443181Y1514050D01*
X1442931Y1514500D01*
X1442631Y1514900D01*
X1442281Y1515300D01*
X1441881Y1515650D01*
X1441581Y1515950D01*
X1441281Y1516200D01*
X1441081Y1516350D01*
X1441031Y1516400D01*
X1440681Y1516650D01*
X1440281Y1516900D01*
X1439381Y1517500D01*
X1438331Y1518100D01*
X1437331Y1518700D01*
X1436331Y1519250D01*
X1435931Y1519450D01*
X1435531Y1519650D01*
X1435231Y1519800D01*
X1434981Y1519950D01*
X1434831Y1520000D01*
X1434781Y1520050D01*
X1426931Y1524200D01*
Y1529400D01*
X1437231Y1523950D01*
D02*
G37*
%LPC*%
G36*
X1455306Y1460425D02*
X1455106D01*
X1454956D01*
X1454856D01*
X1454806D01*
X1454106Y1460375D01*
X1453406Y1460275D01*
X1452806Y1460125D01*
X1452306Y1459975D01*
X1451906Y1459825D01*
X1451556Y1459675D01*
X1451356Y1459575D01*
X1451306Y1459525D01*
X1450806Y1459175D01*
X1450356Y1458775D01*
X1449956Y1458375D01*
X1449656Y1457975D01*
X1449406Y1457625D01*
X1449256Y1457375D01*
X1449156Y1457175D01*
X1449106Y1457125D01*
X1448906Y1456525D01*
X1448756Y1455825D01*
X1448606Y1455075D01*
X1448556Y1454375D01*
X1448506Y1453725D01*
X1448456Y1453225D01*
Y1443925D01*
X1461006D01*
Y1453725D01*
X1460956Y1454875D01*
X1460756Y1455925D01*
X1460506Y1456775D01*
X1460206Y1457475D01*
X1459856Y1458025D01*
X1459606Y1458425D01*
X1459406Y1458625D01*
X1459356Y1458725D01*
X1458706Y1459275D01*
X1457956Y1459725D01*
X1457206Y1460025D01*
X1456456Y1460225D01*
X1455806Y1460325D01*
X1455306Y1460425D01*
D02*
G37*
G36*
X1457381Y1544000D02*
X1440331D01*
Y1534200D01*
X1457381Y1544000D01*
D02*
G37*
G36*
X1454981Y1522600D02*
X1454781D01*
X1454631D01*
X1454531D01*
X1454481D01*
X1453781Y1522550D01*
X1453081Y1522450D01*
X1452481Y1522300D01*
X1451981Y1522150D01*
X1451581Y1522000D01*
X1451231Y1521850D01*
X1451031Y1521750D01*
X1450981Y1521700D01*
X1450481Y1521350D01*
X1450031Y1520950D01*
X1449631Y1520550D01*
X1449331Y1520150D01*
X1449081Y1519800D01*
X1448931Y1519550D01*
X1448831Y1519350D01*
X1448781Y1519300D01*
X1448581Y1518700D01*
X1448431Y1518000D01*
X1448281Y1517250D01*
X1448231Y1516550D01*
X1448181Y1515900D01*
X1448131Y1515400D01*
Y1506100D01*
X1460681D01*
Y1515900D01*
X1460631Y1517050D01*
X1460431Y1518100D01*
X1460181Y1518950D01*
X1459881Y1519650D01*
X1459531Y1520200D01*
X1459281Y1520600D01*
X1459081Y1520800D01*
X1459031Y1520900D01*
X1458381Y1521450D01*
X1457631Y1521900D01*
X1456881Y1522200D01*
X1456131Y1522400D01*
X1455481Y1522500D01*
X1454981Y1522600D01*
D02*
G37*
%LPD*%
D88*
X2441336Y1575760D02*
G03*
X2439932Y1576349I-1404J-1381D01*
G01*
X2441324Y1575772D02*
G03*
X2439932Y1576349I-1393J-1393D01*
G01*
X2069854Y1946426D02*
G03*
X2069266Y1947830I-1970J0D01*
G01*
X2069854Y1946426D02*
G03*
X2069277Y1947819I-1970J0D01*
G01*
X2545248Y1471033D02*
G03*
X2544671Y1472425I-1970J0D01*
G01*
X2374971Y1576349D02*
G03*
X2373579Y1575772I0J-1970D01*
G01*
X2374971Y1576349D02*
G03*
X2373567Y1575760I0J-1970D01*
G01*
X1965942Y2051154D02*
G03*
X1964538Y2051742I-1404J-1381D01*
G01*
X1965931Y2051166D02*
G03*
X1964538Y2051742I-1393J-1393D01*
G01*
X2069277Y1880073D02*
G03*
X2069854Y1881466I-1393J1393D01*
G01*
X2069266Y1880062D02*
G03*
X2069854Y1881466I-1381J1404D01*
G01*
X2545248Y1471033D02*
G03*
X2544659Y1472437I-1970J0D01*
G01*
Y1394826D02*
G03*
X2545248Y1396230I-1381J1404D01*
G01*
X2544671Y1394837D02*
G03*
X2545248Y1396230I-1393J1393D01*
G01*
X2140506Y991488D02*
G03*
X2141899Y992065I0J1970D01*
G01*
X2140506Y991488D02*
G03*
X2141910Y992077I0J1970D01*
G01*
X1981005Y518533D02*
G03*
X1982877Y519890I0J1970D01*
G01*
X1981005Y518533D02*
G03*
X1982873Y519879I0J1970D01*
G01*
X1889735Y2051742D02*
G03*
X1888342Y2051166I0J-1970D01*
G01*
X1889735Y2051742D02*
G03*
X1888331Y2051154I0J-1970D01*
G01*
X1301097Y2027427D02*
G03*
X1299705Y2026851I0J-1970D01*
G01*
X1301097Y2027427D02*
G03*
X1299693Y2026839I0J-1970D01*
G01*
X1276705Y2003851D02*
G03*
X1276128Y2002458I1393J-1393D01*
G01*
X1276716Y2003862D02*
G03*
X1276128Y2002458I1381J-1404D01*
G01*
X680963Y1642293D02*
G03*
X679571Y1641717I0J-1970D01*
G01*
X680963Y1642293D02*
G03*
X679559Y1641705I0J-1970D01*
G01*
X1246880Y518532D02*
G03*
X1246908Y518533I0J1970D01*
G01*
X1246880Y518532D02*
G03*
X1199804Y471457I-0J-47076D01*
G01*
X1197835Y-1970D02*
G03*
X1199804Y0I0J1970D01*
G01*
X1197835Y-1970D02*
G03*
X1199804Y0I0J1970D01*
G01*
X392320Y1354466D02*
G03*
X391731Y1353062I1381J-1404D01*
G01*
X392308Y1354454D02*
G03*
X391731Y1353062I1393J-1393D01*
G01*
X659074Y-984D02*
G03*
X660779Y-1970I1706J984D01*
G01*
X659067Y-972D02*
G03*
X660779Y-1970I1713J972D01*
G01*
X391731Y462909D02*
G03*
X392002Y461913I1970J0D01*
G01*
X391731Y462909D02*
G03*
X391995Y461925I1970J0D01*
G01*
X391731Y635500D02*
Y1353062D01*
Y462909D02*
Y478500D01*
X869500Y1642293D02*
X1022148D01*
X680963D02*
X712500D01*
X1199804Y343500D02*
Y471457D01*
X1199804Y0D02*
Y186500D01*
X2502425Y1352591D02*
X2544659Y1394826D01*
X2141910Y992077D02*
X2391409Y1241575D01*
X1704500Y2027427D02*
X1864604D01*
X1301097D02*
X1547500D01*
X2374971Y1576349D02*
X2439932D01*
X2069854Y1881466D02*
Y1946426D01*
X2441324Y1575772D02*
X2441336Y1575760D01*
X2544659Y1472437D01*
X2544671Y1472425D01*
X1965931Y2051166D02*
X1965942Y2051154D01*
X2069266Y1947830D01*
X2069277Y1947819D01*
X1889735Y2051742D02*
X1964538D01*
X2069266Y1880062D02*
X2069277Y1880073D01*
X1964370Y1775167D02*
X2069266Y1880062D01*
X2545248Y1396230D02*
Y1471033D01*
X2373567Y1575760D02*
X2373579Y1575772D01*
X2268672Y1470865D02*
X2373567Y1575760D01*
X2544659Y1394826D02*
X2544671Y1394837D01*
X2141899Y992065D02*
X2141910Y992077D01*
X1964370Y1775167D02*
X2268672Y1470865D01*
X1982877Y519890D02*
X2140076Y991488D01*
X1982873Y519879D02*
X1982877Y519890D01*
X2140076Y991488D02*
X2140506D01*
X1888331Y2051154D02*
X1888342Y2051166D01*
X1864604Y2027427D02*
X1888331Y2051154D01*
X1299693Y2026839D02*
X1299705Y2026851D01*
X1276716Y2003862D02*
X1299693Y2026839D01*
X1276705Y2003851D02*
X1276716Y2003862D01*
X1276128Y1896274D02*
Y2002458D01*
X1022148Y1642293D02*
X1276128Y1896274D01*
X1246908Y518533D02*
X1981005D01*
X1246880D02*
X1246908D01*
X660779Y-1970D02*
X1197835D01*
X679559Y1641705D02*
X679571Y1641717D01*
X392320Y1354466D02*
X679559Y1641705D01*
X392308Y1354454D02*
X392320Y1354466D01*
X391995Y461925D02*
X392002Y461913D01*
X659067Y-972D01*
X659074Y-984D01*
X1888219Y1059217D02*
G03*
X1888219Y1059217I-1968J0D01*
G01*
X1342165Y630039D02*
G03*
X1342165Y630039I-1968J0D01*
G01*
X1830557Y701449D02*
G03*
X1830557Y701449I-1968J0D01*
G01*
D89*
X891102Y335630D02*
G03*
X891102Y335630I-4921J0D01*
G01*
X2198523Y1072014D02*
G03*
X2198523Y1072014I-4921J0D01*
G01*
X1530512Y864173D02*
G03*
X1530512Y864173I-4921J0D01*
G01*
D90*
X546443Y1174842D02*
G03*
X546443Y1174842I-3749J0D01*
G01*
X1470009Y763614D02*
G03*
X1470009Y763614I-3749J0D01*
G01*
X2075982Y1252271D02*
X2170634Y1346923D01*
X2215177Y1113077D02*
X2309829Y1207729D01*
X2170634Y1346923D02*
X2309829Y1207729D01*
X2075982Y1252271D02*
X2215177Y1113077D01*
X1779305Y1525214D02*
X1814661Y1489858D01*
X1972785Y1718694D02*
X2017607Y1763513D01*
X1864492Y1610401D02*
X1917386Y1663294D01*
X1779305Y1525214D02*
X1792111Y1538020D01*
X2017607Y1763513D02*
X2257019Y1524101D01*
X2018719Y1285800D02*
X2031525Y1298606D01*
X2103906Y1370987D02*
X2156800Y1423881D01*
X2212199Y1479280D02*
X2257019Y1524101D01*
X1983364Y1321155D02*
X2018719Y1285800D01*
X560905Y1255000D02*
X560906Y1295000D01*
X710905Y1255000D02*
Y1295000D01*
X1537402Y811024D02*
X1659449D01*
X1537402Y822835D02*
X1659449D01*
Y811024D02*
Y822835D01*
X1537402Y811024D02*
Y822835D01*
X1294906Y1554000D02*
X1416906D01*
Y1431000D02*
Y1554000D01*
X1294906Y1431000D02*
X1416906D01*
X1294906D02*
Y1554000D01*
D91*
X940756Y608833D02*
G03*
X1174678Y575958I116961J-16438D01*
G01*
X1034995Y1036878D02*
G03*
X990069Y959716I72035J-93600D01*
G01*
X1299501Y977094D02*
G03*
X1221527Y909312I0J-78740D01*
G01*
X1529527Y977094D02*
G03*
X1647638Y1095204I0J118110D01*
G01*
X1291044Y1213314D02*
G03*
X1243021Y1196974I0J-78740D01*
G01*
X1647638Y1095204D02*
G03*
X1529527Y1213314I-118110J0D01*
G01*
X939872Y584481D02*
X1049803Y474551D01*
X944617Y636305D02*
X1099136Y481786D01*
X951587Y685903D02*
X1134684Y502807D01*
X940756Y608833D02*
X990069Y959716D01*
X958558Y735501D02*
X1160264Y533794D01*
X965529Y785099D02*
X1174677Y575951D01*
X1041169Y475450D02*
X1180074Y614355D01*
X999041Y489891D02*
X1189324Y680174D01*
X947075Y551062D02*
X1207825Y811811D01*
X939881Y600436D02*
X1217075Y877630D01*
X968074Y515492D02*
X1198574Y745992D01*
X968074Y515492D02*
X1198574Y745992D01*
X972499Y834697D02*
X1181647Y625549D01*
X979470Y884295D02*
X1188618Y675146D01*
X986440Y933893D02*
X1195588Y724745D01*
X995308Y981594D02*
X1202559Y774342D01*
X1015520Y1017950D02*
X1209529Y823940D01*
X1008615Y1008581D02*
X1043314Y1043281D01*
X985777Y929175D02*
X1265740Y1209138D01*
X1045260Y1044778D02*
X1216500Y873538D01*
X1034995Y1036878D02*
X1243021Y1196974D01*
X948776Y665900D02*
X1496191Y1213314D01*
X958026Y731718D02*
X1439622Y1213314D01*
X967277Y797537D02*
X1383054Y1213314D01*
X976527Y863356D02*
X1326485Y1213314D01*
X1077227Y1069380D02*
X1224446Y922160D01*
X1107644Y485357D02*
X1164755Y542468D01*
X1174678Y575958D02*
X1221527Y909312D01*
X1077227Y1069380D02*
X1224447Y922161D01*
X1109194Y1093982D02*
X1246548Y956628D01*
X1141161Y1118583D02*
X1284160Y975585D01*
X1486244Y977094D02*
X1641609Y1132458D01*
X1373107Y977094D02*
X1591663Y1195649D01*
X1316539Y977094D02*
X1550823Y1211379D01*
X1429676Y977094D02*
X1621673Y1169091D01*
X1429676Y977094D02*
X1621673Y1169091D01*
X1173128Y1143185D02*
X1339219Y977094D01*
X1299501D02*
X1529527D01*
X1205095Y1167787D02*
X1395787Y977094D01*
X1237062Y1192388D02*
X1452356Y977094D01*
X1274468Y1211550D02*
X1508925Y977094D01*
X1291044Y1213314D02*
X1529527D01*
X1543661Y977942D02*
X1646789Y1081070D01*
X1559382Y1209479D02*
X1643802Y1125059D01*
X1329273Y1213314D02*
X1561174Y981413D01*
X1385841Y1213314D02*
X1599271Y999884D01*
X1442410Y1213314D02*
X1627090Y1028634D01*
X1498978Y1213314D02*
X1644429Y1067863D01*
%TF.MD5,2bfc8bd0663a6d3f847f2fdf1287edb1*%
M02*
