%TF.GenerationSoftware,Altium Limited,Altium Designer,23.11.1 (41)*%
G04 Layer_Color=16711935*
%FSLAX26Y26*%
%MOIN*%
%TF.SameCoordinates,A059C263-CE59-4A5C-BE38-7B1504CAFB6E*%
%TF.FilePolarity,Negative*%
%TF.FileFunction,Soldermask,Bot*%
%TF.Part,CustomerPanel*%
G01*
G75*
%TA.AperFunction,SMDPad,CuDef*%
G04:AMPARAMS|DCode=92|XSize=79.653mil|YSize=58mil|CornerRadius=16.5mil|HoleSize=0mil|Usage=FLASHONLY|Rotation=135.000|XOffset=0mil|YOffset=0mil|HoleType=Round|Shape=RoundedRectangle|*
%AMROUNDEDRECTD92*
21,1,0.079653,0.025000,0,0,135.0*
21,1,0.046654,0.058000,0,0,135.0*
1,1,0.033000,-0.007656,0.025333*
1,1,0.033000,0.025333,-0.007656*
1,1,0.033000,0.007656,-0.025333*
1,1,0.033000,-0.025333,0.007656*
%
%ADD92ROUNDEDRECTD92*%
G04:AMPARAMS|DCode=93|XSize=21.779mil|YSize=72.331mil|CornerRadius=7.445mil|HoleSize=0mil|Usage=FLASHONLY|Rotation=90.000|XOffset=0mil|YOffset=0mil|HoleType=Round|Shape=RoundedRectangle|*
%AMROUNDEDRECTD93*
21,1,0.021779,0.057441,0,0,90.0*
21,1,0.006890,0.072331,0,0,90.0*
1,1,0.014890,0.028721,0.003445*
1,1,0.014890,0.028721,-0.003445*
1,1,0.014890,-0.028721,-0.003445*
1,1,0.014890,-0.028721,0.003445*
%
%ADD93ROUNDEDRECTD93*%
G04:AMPARAMS|DCode=94|XSize=98.551mil|YSize=67.055mil|CornerRadius=18.764mil|HoleSize=0mil|Usage=FLASHONLY|Rotation=180.000|XOffset=0mil|YOffset=0mil|HoleType=Round|Shape=RoundedRectangle|*
%AMROUNDEDRECTD94*
21,1,0.098551,0.029527,0,0,180.0*
21,1,0.061024,0.067055,0,0,180.0*
1,1,0.037528,-0.030512,0.014764*
1,1,0.037528,0.030512,0.014764*
1,1,0.037528,0.030512,-0.014764*
1,1,0.037528,-0.030512,-0.014764*
%
%ADD94ROUNDEDRECTD94*%
G04:AMPARAMS|DCode=95|XSize=19.811mil|YSize=53.276mil|CornerRadius=6.953mil|HoleSize=0mil|Usage=FLASHONLY|Rotation=180.000|XOffset=0mil|YOffset=0mil|HoleType=Round|Shape=RoundedRectangle|*
%AMROUNDEDRECTD95*
21,1,0.019811,0.039370,0,0,180.0*
21,1,0.005905,0.053276,0,0,180.0*
1,1,0.013906,-0.002953,0.019685*
1,1,0.013906,0.002953,0.019685*
1,1,0.013906,0.002953,-0.019685*
1,1,0.013906,-0.002953,-0.019685*
%
%ADD95ROUNDEDRECTD95*%
G04:AMPARAMS|DCode=96|XSize=21.779mil|YSize=72.331mil|CornerRadius=7.445mil|HoleSize=0mil|Usage=FLASHONLY|Rotation=180.000|XOffset=0mil|YOffset=0mil|HoleType=Round|Shape=RoundedRectangle|*
%AMROUNDEDRECTD96*
21,1,0.021779,0.057441,0,0,180.0*
21,1,0.006890,0.072331,0,0,180.0*
1,1,0.014890,-0.003445,0.028721*
1,1,0.014890,0.003445,0.028721*
1,1,0.014890,0.003445,-0.028721*
1,1,0.014890,-0.003445,-0.028721*
%
%ADD96ROUNDEDRECTD96*%
G04:AMPARAMS|DCode=97|XSize=98.551mil|YSize=67.055mil|CornerRadius=18.764mil|HoleSize=0mil|Usage=FLASHONLY|Rotation=270.000|XOffset=0mil|YOffset=0mil|HoleType=Round|Shape=RoundedRectangle|*
%AMROUNDEDRECTD97*
21,1,0.098551,0.029527,0,0,270.0*
21,1,0.061024,0.067055,0,0,270.0*
1,1,0.037528,-0.014764,-0.030512*
1,1,0.037528,-0.014764,0.030512*
1,1,0.037528,0.014764,0.030512*
1,1,0.037528,0.014764,-0.030512*
%
%ADD97ROUNDEDRECTD97*%
G04:AMPARAMS|DCode=98|XSize=19.811mil|YSize=53.276mil|CornerRadius=6.953mil|HoleSize=0mil|Usage=FLASHONLY|Rotation=270.000|XOffset=0mil|YOffset=0mil|HoleType=Round|Shape=RoundedRectangle|*
%AMROUNDEDRECTD98*
21,1,0.019811,0.039370,0,0,270.0*
21,1,0.005905,0.053276,0,0,270.0*
1,1,0.013906,-0.019685,-0.002953*
1,1,0.013906,-0.019685,0.002953*
1,1,0.013906,0.019685,0.002953*
1,1,0.013906,0.019685,-0.002953*
%
%ADD98ROUNDEDRECTD98*%
G04:AMPARAMS|DCode=99|XSize=47.37mil|YSize=43.433mil|CornerRadius=12.858mil|HoleSize=0mil|Usage=FLASHONLY|Rotation=315.000|XOffset=0mil|YOffset=0mil|HoleType=Round|Shape=RoundedRectangle|*
%AMROUNDEDRECTD99*
21,1,0.047370,0.017717,0,0,315.0*
21,1,0.021654,0.043433,0,0,315.0*
1,1,0.025716,0.001392,-0.013920*
1,1,0.025716,-0.013920,0.001392*
1,1,0.025716,-0.001392,0.013920*
1,1,0.025716,0.013920,-0.001392*
%
%ADD99ROUNDEDRECTD99*%
%ADD100R,0.035559X0.059181*%
G04:AMPARAMS|DCode=101|XSize=35.559mil|YSize=59.181mil|CornerRadius=10.89mil|HoleSize=0mil|Usage=FLASHONLY|Rotation=180.000|XOffset=0mil|YOffset=0mil|HoleType=Round|Shape=RoundedRectangle|*
%AMROUNDEDRECTD101*
21,1,0.035559,0.037401,0,0,180.0*
21,1,0.013780,0.059181,0,0,180.0*
1,1,0.021780,-0.006890,0.018701*
1,1,0.021780,0.006890,0.018701*
1,1,0.021780,0.006890,-0.018701*
1,1,0.021780,-0.006890,-0.018701*
%
%ADD101ROUNDEDRECTD101*%
%ADD102R,0.070992X0.092646*%
G04:AMPARAMS|DCode=103|XSize=70.992mil|YSize=92.646mil|CornerRadius=19.748mil|HoleSize=0mil|Usage=FLASHONLY|Rotation=0.000|XOffset=0mil|YOffset=0mil|HoleType=Round|Shape=RoundedRectangle|*
%AMROUNDEDRECTD103*
21,1,0.070992,0.053150,0,0,0.0*
21,1,0.031496,0.092646,0,0,0.0*
1,1,0.039496,0.015748,-0.026575*
1,1,0.039496,-0.015748,-0.026575*
1,1,0.039496,-0.015748,0.026575*
1,1,0.039496,0.015748,0.026575*
%
%ADD103ROUNDEDRECTD103*%
G04:AMPARAMS|DCode=104|XSize=159.575mil|YSize=92.646mil|CornerRadius=25.161mil|HoleSize=0mil|Usage=FLASHONLY|Rotation=0.000|XOffset=0mil|YOffset=0mil|HoleType=Round|Shape=RoundedRectangle|*
%AMROUNDEDRECTD104*
21,1,0.159575,0.042323,0,0,0.0*
21,1,0.109252,0.092646,0,0,0.0*
1,1,0.050323,0.054626,-0.021162*
1,1,0.050323,-0.054626,-0.021162*
1,1,0.050323,-0.054626,0.021162*
1,1,0.050323,0.054626,0.021162*
%
%ADD104ROUNDEDRECTD104*%
G04:AMPARAMS|DCode=105|XSize=63.118mil|YSize=55.244mil|CornerRadius=0mil|HoleSize=0mil|Usage=FLASHONLY|Rotation=225.000|XOffset=0mil|YOffset=0mil|HoleType=Round|Shape=Rectangle|*
%AMROTATEDRECTD105*
4,1,4,0.002784,0.041847,0.041847,0.002784,-0.002784,-0.041847,-0.041847,-0.002784,0.002784,0.041847,0.0*
%
%ADD105ROTATEDRECTD105*%

G04:AMPARAMS|DCode=106|XSize=47.37mil|YSize=43.433mil|CornerRadius=12.858mil|HoleSize=0mil|Usage=FLASHONLY|Rotation=180.000|XOffset=0mil|YOffset=0mil|HoleType=Round|Shape=RoundedRectangle|*
%AMROUNDEDRECTD106*
21,1,0.047370,0.017717,0,0,180.0*
21,1,0.021654,0.043433,0,0,180.0*
1,1,0.025716,-0.010827,0.008858*
1,1,0.025716,0.010827,0.008858*
1,1,0.025716,0.010827,-0.008858*
1,1,0.025716,-0.010827,-0.008858*
%
%ADD106ROUNDEDRECTD106*%
%TA.AperFunction,FiducialPad,Global*%
%ADD107C,0.118110*%
%TA.AperFunction,SMDPad,CuDef*%
G04:AMPARAMS|DCode=108|XSize=98.551mil|YSize=133.984mil|CornerRadius=15.319mil|HoleSize=0mil|Usage=FLASHONLY|Rotation=180.000|XOffset=0mil|YOffset=0mil|HoleType=Round|Shape=RoundedRectangle|*
%AMROUNDEDRECTD108*
21,1,0.098551,0.103347,0,0,180.0*
21,1,0.067913,0.133984,0,0,180.0*
1,1,0.030638,-0.033957,0.051673*
1,1,0.030638,0.033957,0.051673*
1,1,0.030638,0.033957,-0.051673*
1,1,0.030638,-0.033957,-0.051673*
%
%ADD108ROUNDEDRECTD108*%
G04:AMPARAMS|DCode=109|XSize=31.622mil|YSize=65.087mil|CornerRadius=9.906mil|HoleSize=0mil|Usage=FLASHONLY|Rotation=90.000|XOffset=0mil|YOffset=0mil|HoleType=Round|Shape=RoundedRectangle|*
%AMROUNDEDRECTD109*
21,1,0.031622,0.045276,0,0,90.0*
21,1,0.011811,0.065087,0,0,90.0*
1,1,0.019811,0.022638,0.005906*
1,1,0.019811,0.022638,-0.005906*
1,1,0.019811,-0.022638,-0.005906*
1,1,0.019811,-0.022638,0.005906*
%
%ADD109ROUNDEDRECTD109*%
%ADD110R,0.065087X0.031622*%
G04:AMPARAMS|DCode=111|XSize=19.811mil|YSize=65.087mil|CornerRadius=0mil|HoleSize=0mil|Usage=FLASHONLY|Rotation=315.000|XOffset=0mil|YOffset=0mil|HoleType=Round|Shape=Rectangle|*
%AMROTATEDRECTD111*
4,1,4,-0.030016,-0.016007,0.016007,0.030016,0.030016,0.016007,-0.016007,-0.030016,-0.030016,-0.016007,0.0*
%
%ADD111ROTATEDRECTD111*%

G04:AMPARAMS|DCode=112|XSize=31.622mil|YSize=65.087mil|CornerRadius=0mil|HoleSize=0mil|Usage=FLASHONLY|Rotation=315.000|XOffset=0mil|YOffset=0mil|HoleType=Round|Shape=Rectangle|*
%AMROTATEDRECTD112*
4,1,4,-0.034192,-0.011832,0.011832,0.034192,0.034192,0.011832,-0.011832,-0.034192,-0.034192,-0.011832,0.0*
%
%ADD112ROTATEDRECTD112*%

%ADD113R,0.086740X0.165480*%
G04:AMPARAMS|DCode=114|XSize=43.433mil|YSize=39.496mil|CornerRadius=0mil|HoleSize=0mil|Usage=FLASHONLY|Rotation=135.000|XOffset=0mil|YOffset=0mil|HoleType=Round|Shape=Rectangle|*
%AMROTATEDRECTD114*
4,1,4,0.029320,-0.001392,0.001392,-0.029320,-0.029320,0.001392,-0.001392,0.029320,0.029320,-0.001392,0.0*
%
%ADD114ROTATEDRECTD114*%

G04:AMPARAMS|DCode=115|XSize=47.37mil|YSize=43.433mil|CornerRadius=12.858mil|HoleSize=0mil|Usage=FLASHONLY|Rotation=90.000|XOffset=0mil|YOffset=0mil|HoleType=Round|Shape=RoundedRectangle|*
%AMROUNDEDRECTD115*
21,1,0.047370,0.017717,0,0,90.0*
21,1,0.021654,0.043433,0,0,90.0*
1,1,0.025716,0.008858,0.010827*
1,1,0.025716,0.008858,-0.010827*
1,1,0.025716,-0.008858,-0.010827*
1,1,0.025716,-0.008858,0.010827*
%
%ADD115ROUNDEDRECTD115*%
G04:AMPARAMS|DCode=116|XSize=47.37mil|YSize=43.433mil|CornerRadius=12.858mil|HoleSize=0mil|Usage=FLASHONLY|Rotation=225.000|XOffset=0mil|YOffset=0mil|HoleType=Round|Shape=RoundedRectangle|*
%AMROUNDEDRECTD116*
21,1,0.047370,0.017717,0,0,225.0*
21,1,0.021654,0.043433,0,0,225.0*
1,1,0.025716,-0.013920,-0.001392*
1,1,0.025716,0.001392,0.013920*
1,1,0.025716,0.013920,0.001392*
1,1,0.025716,-0.001392,-0.013920*
%
%ADD116ROUNDEDRECTD116*%
G04:AMPARAMS|DCode=117|XSize=78.866mil|YSize=59.181mil|CornerRadius=16.795mil|HoleSize=0mil|Usage=FLASHONLY|Rotation=90.000|XOffset=0mil|YOffset=0mil|HoleType=Round|Shape=RoundedRectangle|*
%AMROUNDEDRECTD117*
21,1,0.078866,0.025591,0,0,90.0*
21,1,0.045276,0.059181,0,0,90.0*
1,1,0.033590,0.012795,0.022638*
1,1,0.033590,0.012795,-0.022638*
1,1,0.033590,-0.012795,-0.022638*
1,1,0.033590,-0.012795,0.022638*
%
%ADD117ROUNDEDRECTD117*%
%ADD118R,0.059181X0.035559*%
G04:AMPARAMS|DCode=119|XSize=35.559mil|YSize=59.181mil|CornerRadius=10.89mil|HoleSize=0mil|Usage=FLASHONLY|Rotation=270.000|XOffset=0mil|YOffset=0mil|HoleType=Round|Shape=RoundedRectangle|*
%AMROUNDEDRECTD119*
21,1,0.035559,0.037401,0,0,270.0*
21,1,0.013780,0.059181,0,0,270.0*
1,1,0.021780,-0.018701,-0.006890*
1,1,0.021780,-0.018701,0.006890*
1,1,0.021780,0.018701,0.006890*
1,1,0.021780,0.018701,-0.006890*
%
%ADD119ROUNDEDRECTD119*%
%ADD120R,0.165480X0.086740*%
%TA.AperFunction,ComponentPad*%
%ADD121C,0.062000*%
%ADD122C,0.074929*%
%ADD123R,0.074929X0.074929*%
%ADD124C,0.072866*%
%ADD125R,0.072866X0.072866*%
%ADD126R,0.061000X0.061000*%
%ADD127R,0.061000X0.061000*%
%ADD128C,0.067370*%
%ADD129R,0.067370X0.067370*%
%ADD130R,0.067370X0.067370*%
G04:AMPARAMS|DCode=131|XSize=47.37mil|YSize=70.992mil|CornerRadius=0mil|HoleSize=0mil|Usage=FLASHONLY|Rotation=135.000|XOffset=0mil|YOffset=0mil|HoleType=Round|Shape=Round|*
%AMOVALD131*
21,1,0.023622,0.047370,0.000000,0.000000,225.0*
1,1,0.047370,0.008352,0.008352*
1,1,0.047370,-0.008352,-0.008352*
%
%ADD131OVALD131*%

%ADD132C,0.034575*%
G04:AMPARAMS|DCode=133|XSize=47.37mil|YSize=90.677mil|CornerRadius=0mil|HoleSize=0mil|Usage=FLASHONLY|Rotation=135.000|XOffset=0mil|YOffset=0mil|HoleType=Round|Shape=Round|*
%AMOVALD133*
21,1,0.043307,0.047370,0.000000,0.000000,225.0*
1,1,0.047370,0.015311,0.015311*
1,1,0.047370,-0.015311,-0.015311*
%
%ADD133OVALD133*%

%TA.AperFunction,ViaPad*%
%ADD134C,0.067055*%
%ADD135C,0.015748*%
D92*
X600452Y1579751D02*
D03*
X518606Y1497905D02*
D03*
X690529Y1536986D02*
D03*
X608683Y1455140D02*
D03*
D93*
X622480Y735252D02*
D03*
X1199488Y676575D02*
D03*
D94*
X635591Y684409D02*
D03*
X1212598Y625732D02*
D03*
D95*
X674921Y649819D02*
D03*
X648701D02*
D03*
X622480Y649819D02*
D03*
X596260D02*
D03*
X674921Y751000D02*
D03*
X648701D02*
D03*
X622480D02*
D03*
X596260D02*
D03*
X1251929Y591142D02*
D03*
X1225709D02*
D03*
X1199488D02*
D03*
X1173268D02*
D03*
X1251929Y692323D02*
D03*
X1225709Y692323D02*
D03*
X1199488D02*
D03*
X1173268Y692323D02*
D03*
D96*
X444858Y874890D02*
D03*
D97*
X495701Y888000D02*
D03*
D98*
X530291Y927331D02*
D03*
Y901110D02*
D03*
Y874890D02*
D03*
Y848669D02*
D03*
X429110Y927331D02*
D03*
X429110Y901110D02*
D03*
Y874890D02*
D03*
X429110Y848669D02*
D03*
D99*
X549430Y1261729D02*
D03*
X593972Y1306271D02*
D03*
X896991Y1253880D02*
D03*
X941534Y1298422D02*
D03*
X753163Y1490729D02*
D03*
X708621Y1446187D02*
D03*
X760460Y1045893D02*
D03*
X715918Y1001351D02*
D03*
D100*
X685010Y329300D02*
D03*
D101*
X722412Y329300D02*
D03*
X759814Y329300D02*
D03*
Y234812D02*
D03*
X722412Y234812D02*
D03*
X685010Y234812D02*
D03*
D102*
X1842520Y621063D02*
D03*
D103*
X1751968Y621063D02*
D03*
X1661417Y621063D02*
D03*
D104*
X1751968Y851378D02*
D03*
D105*
X789497Y1121442D02*
D03*
X853136Y1057802D02*
D03*
X867279Y1199224D02*
D03*
X930918Y1135584D02*
D03*
D106*
X1303150Y665354D02*
D03*
Y728346D02*
D03*
X811528Y870926D02*
D03*
Y807933D02*
D03*
X1029892Y1396954D02*
D03*
Y1333962D02*
D03*
X2045247Y1242686D02*
D03*
Y1179694D02*
D03*
X2106270Y1240718D02*
D03*
Y1177726D02*
D03*
X909420Y53710D02*
D03*
Y116702D02*
D03*
X633829Y500560D02*
D03*
Y437568D02*
D03*
X572701Y963504D02*
D03*
Y1026496D02*
D03*
X430701Y1003504D02*
D03*
Y1066496D02*
D03*
D107*
X2324948Y960332D02*
D03*
X1349727Y227159D02*
D03*
X784144Y1746072D02*
D03*
D108*
X1864144Y1098986D02*
D03*
D109*
X1752924Y1020245D02*
D03*
Y1059616D02*
D03*
Y1098986D02*
D03*
Y1138356D02*
D03*
Y1177726D02*
D03*
X1975365Y1020245D02*
D03*
Y1059616D02*
D03*
Y1098986D02*
D03*
Y1138356D02*
D03*
D110*
Y1177726D02*
D03*
D111*
X1833161Y1410098D02*
D03*
X1791403Y1451856D02*
D03*
X1819242Y1424017D02*
D03*
X1805322Y1437936D02*
D03*
X1777483Y1465775D02*
D03*
X1763564Y1479695D02*
D03*
X1847081Y1396178D02*
D03*
X1861000Y1382259D02*
D03*
D112*
X1744077Y1499182D02*
D03*
X1880487Y1362772D02*
D03*
X1902758Y1340500D02*
D03*
X1721806Y1521453D02*
D03*
D113*
X787893Y90458D02*
D03*
X657892D02*
D03*
D114*
X962405Y1232971D02*
D03*
X1001380Y1271945D02*
D03*
D115*
X483205Y1362000D02*
D03*
X546197D02*
D03*
X845388Y1588458D02*
D03*
X782396D02*
D03*
X1614173Y1015748D02*
D03*
X1677165D02*
D03*
X1274089Y1522214D02*
D03*
X1211097D02*
D03*
X1211097Y1463159D02*
D03*
X1274089D02*
D03*
X1042396Y1526458D02*
D03*
X1105389D02*
D03*
X2106270Y1299773D02*
D03*
X2043278D02*
D03*
X1988160Y1236781D02*
D03*
X1925168D02*
D03*
X1791310Y957253D02*
D03*
X1854302D02*
D03*
X1972412D02*
D03*
X1909420D02*
D03*
X694853Y587174D02*
D03*
X631861D02*
D03*
X590205Y810000D02*
D03*
X653197D02*
D03*
X591389Y882795D02*
D03*
X654381D02*
D03*
D116*
X744163Y1203187D02*
D03*
X699621Y1247729D02*
D03*
X798566Y1455902D02*
D03*
X843108Y1411360D02*
D03*
X749354Y1406689D02*
D03*
X793896Y1362147D02*
D03*
X719043Y1090064D02*
D03*
X674501Y1134607D02*
D03*
X617493Y1095106D02*
D03*
X662035Y1050563D02*
D03*
D117*
X1240129Y1669852D02*
D03*
X1129892D02*
D03*
D118*
X458633Y480875D02*
D03*
D119*
Y518277D02*
D03*
Y555678D02*
D03*
X553121D02*
D03*
Y518277D02*
D03*
Y480875D02*
D03*
D120*
X525892Y244458D02*
D03*
Y374458D02*
D03*
D121*
X1092893Y1754458D02*
D03*
X1692892Y1754458D02*
D03*
Y1254458D02*
D03*
X1592892Y1254458D02*
D03*
X1492893Y1254458D02*
D03*
X1392893D02*
D03*
X1292892Y1254458D02*
D03*
X1192893Y1254458D02*
D03*
X1192892Y1754458D02*
D03*
X1792892Y1754458D02*
D03*
Y1254458D02*
D03*
X1292892Y1754458D02*
D03*
X1392893D02*
D03*
X1592893Y1754458D02*
D03*
X1492893Y1754458D02*
D03*
X1092892Y1454458D02*
D03*
Y1254458D02*
D03*
X1092893Y1354458D02*
D03*
X1174892Y821458D02*
D03*
X1274892D02*
D03*
X1374892D02*
D03*
X1592892Y1454458D02*
D03*
Y1554458D02*
D03*
X1392892Y1654458D02*
D03*
X1392892Y1554458D02*
D03*
Y1454458D02*
D03*
X1492893Y1654458D02*
D03*
Y1554458D02*
D03*
Y1454458D02*
D03*
D122*
X1338554Y587174D02*
D03*
D123*
X1538554D02*
D03*
D124*
X974892Y921458D02*
D03*
X1074892D02*
D03*
X1174892D02*
D03*
X1274892D02*
D03*
X1374892D02*
D03*
D125*
X1474892D02*
D03*
D126*
Y821458D02*
D03*
D127*
X1592892Y1354458D02*
D03*
X1392892Y1354458D02*
D03*
X1492893Y1354458D02*
D03*
D128*
X1271255Y1949127D02*
D03*
X1369680D02*
D03*
X1468105D02*
D03*
X977892Y207458D02*
D03*
Y305883D02*
D03*
X736192Y795836D02*
D03*
X496034Y984812D02*
D03*
Y677726D02*
D03*
D129*
X1566530Y1949127D02*
D03*
D130*
X977892Y109033D02*
D03*
X736192Y894261D02*
D03*
X496034Y1083237D02*
D03*
Y776151D02*
D03*
D131*
X2072990Y1451162D02*
D03*
X1832463Y1691690D02*
D03*
D132*
X1931567Y1389363D02*
D03*
X1770663Y1550266D02*
D03*
D133*
X1956624Y1334796D02*
D03*
X1716097Y1575323D02*
D03*
D134*
X2326743Y1449009D02*
D03*
X1834617Y1945442D02*
D03*
X945512Y592395D02*
D03*
X1417323Y1095204D02*
D03*
D135*
X456701Y1349000D02*
D03*
X585701Y1530000D02*
D03*
X637701Y1616000D02*
D03*
X676701Y1623592D02*
D03*
X2157892Y1375458D02*
D03*
Y1402175D02*
D03*
X410433Y1330709D02*
D03*
X437149D02*
D03*
X549686Y1538828D02*
D03*
X559701Y1419000D02*
D03*
X448701Y1472000D02*
D03*
X424701Y271000D02*
D03*
X581497Y751299D02*
D03*
X430701Y715000D02*
D03*
X535937Y823764D02*
D03*
X701701Y732000D02*
D03*
X881842Y425458D02*
D03*
X902892Y354458D02*
D03*
X897701Y290000D02*
D03*
X884701Y255000D02*
D03*
X853892Y349458D02*
D03*
X919701Y836000D02*
D03*
X1200787Y757874D02*
D03*
X1171260D02*
D03*
X1318701Y779000D02*
D03*
X1118081Y590647D02*
D03*
X1230315Y757874D02*
D03*
Y738189D02*
D03*
X1200787D02*
D03*
X1171260D02*
D03*
X1668892Y1182458D02*
D03*
X948671Y1385679D02*
D03*
X1071093Y1084257D02*
D03*
X630512Y239152D02*
D03*
X636783Y348790D02*
D03*
X600356Y437332D02*
D03*
X499701Y160000D02*
D03*
X537701Y105000D02*
D03*
X484701Y431686D02*
D03*
X505701Y455000D02*
D03*
X472441Y292686D02*
D03*
X1185701Y1563000D02*
D03*
X1171034Y1302958D02*
D03*
X1236050Y1424000D02*
D03*
X1071701Y1709858D02*
D03*
X974701Y1677000D02*
D03*
X1089979Y1563186D02*
D03*
X1041885Y1640324D02*
D03*
X481701Y1178000D02*
D03*
X444371Y1217273D02*
D03*
X456701Y1151000D02*
D03*
X483701Y1286000D02*
D03*
X1842520Y692913D02*
D03*
X1818898D02*
D03*
X1866142D02*
D03*
X1891874Y646000D02*
D03*
X1842491Y1055678D02*
D03*
X1885798D02*
D03*
X1842491Y1098986D02*
D03*
X1885798D02*
D03*
X1842491Y1142293D02*
D03*
X1885798D02*
D03*
X1094701Y1108000D02*
D03*
X970115Y1169586D02*
D03*
X1147892Y1195458D02*
D03*
X1685039Y716535D02*
D03*
X1637795D02*
D03*
X1661417D02*
D03*
X1637795Y692913D02*
D03*
X1661417D02*
D03*
X1685039D02*
D03*
X1775591Y716535D02*
D03*
X1751968D02*
D03*
X1728347D02*
D03*
Y692913D02*
D03*
X1751968D02*
D03*
X1775591D02*
D03*
X1818898Y716535D02*
D03*
X1842520D02*
D03*
X1866142D02*
D03*
X1740158Y921260D02*
D03*
X1688976Y959914D02*
D03*
X933162Y1604403D02*
D03*
X813701Y1616000D02*
D03*
X1045814Y1188113D02*
D03*
X575701Y923000D02*
D03*
X676656Y961022D02*
D03*
X922952Y960828D02*
D03*
X809781Y1073999D02*
D03*
X543120Y991390D02*
D03*
X410433Y1262129D02*
D03*
X848701Y768000D02*
D03*
X684701Y833000D02*
D03*
X1007482Y1211781D02*
D03*
X991701Y1066000D02*
D03*
X804892Y1186458D02*
D03*
X1156701Y997000D02*
D03*
X1879230Y1191120D02*
D03*
X1678670Y1104680D02*
D03*
X1911701Y892000D02*
D03*
X2115701Y1114379D02*
D03*
X2028892Y1065458D02*
D03*
X2022892Y1038458D02*
D03*
X1125701Y951000D02*
D03*
X545346Y1090645D02*
D03*
X568346Y1067645D02*
D03*
X484827Y1147781D02*
D03*
X528543Y1150591D02*
D03*
X604012Y1165928D02*
D03*
X1124892Y1316458D02*
D03*
X1143576Y1338316D02*
D03*
X615436Y999002D02*
D03*
X852892Y814458D02*
D03*
X418892Y572458D02*
D03*
X678892Y502458D02*
D03*
X695151Y281716D02*
D03*
X660711Y302359D02*
D03*
X769196Y278802D02*
D03*
X486192Y313426D02*
D03*
X503908Y583458D02*
D03*
X552892Y590458D02*
D03*
X659019Y562421D02*
D03*
X1053892Y1565458D02*
D03*
X1905962Y994797D02*
D03*
X997762Y1494027D02*
D03*
X978843Y1512891D02*
D03*
X1039892Y1742458D02*
D03*
X574892Y62458D02*
D03*
X847538Y154104D02*
D03*
X857892Y104458D02*
D03*
X731629Y195721D02*
D03*
X560278Y156072D02*
D03*
X515719Y313426D02*
D03*
X2144010Y1233135D02*
D03*
X1644892Y1085458D02*
D03*
X1749892Y985458D02*
D03*
X1782892Y1323458D02*
D03*
X2089892Y1339458D02*
D03*
X2037514Y1337316D02*
D03*
X862892Y1618957D02*
D03*
X757694Y1289657D02*
D03*
X786892Y1510458D02*
D03*
X807892Y1531316D02*
D03*
X868892Y1319458D02*
D03*
X595892Y1385564D02*
D03*
X911892Y1361458D02*
D03*
X799091Y1252259D02*
D03*
X718892Y1169458D02*
D03*
X648892Y1412458D02*
D03*
X883892Y1343458D02*
D03*
X866892Y1387576D02*
D03*
X813653Y1342390D02*
D03*
X911892Y1175458D02*
D03*
%TF.MD5,cb7b450358ff6701e9344ab76c4c9d1a*%
M02*
