%TF.GenerationSoftware,Altium Limited,Altium Designer,23.4.1 (23)*%
G04 Layer_Physical_Order=4*
G04 Layer_Color=16711680*
%FSLAX26Y26*%
%MOIN*%
%TF.SameCoordinates,1F395C4B-4EE4-4E32-9856-E664E5071CD5*%
%TF.FilePolarity,Positive*%
%TF.FileFunction,Copper,L4,Bot,Signal*%
%TF.Part,CustomerPanel*%
G01*
G75*
%TA.AperFunction,SMDPad,CuDef*%
G04:AMPARAMS|DCode=11|XSize=39.37mil|YSize=35.433mil|CornerRadius=8.858mil|HoleSize=0mil|Usage=FLASHONLY|Rotation=0.000|XOffset=0mil|YOffset=0mil|HoleType=Round|Shape=RoundedRectangle|*
%AMROUNDEDRECTD11*
21,1,0.039370,0.017717,0,0,0.0*
21,1,0.021654,0.035433,0,0,0.0*
1,1,0.017716,0.010827,-0.008858*
1,1,0.017716,-0.010827,-0.008858*
1,1,0.017716,-0.010827,0.008858*
1,1,0.017716,0.010827,0.008858*
%
%ADD11ROUNDEDRECTD11*%
G04:AMPARAMS|DCode=13|XSize=39.37mil|YSize=35.433mil|CornerRadius=8.858mil|HoleSize=0mil|Usage=FLASHONLY|Rotation=315.000|XOffset=0mil|YOffset=0mil|HoleType=Round|Shape=RoundedRectangle|*
%AMROUNDEDRECTD13*
21,1,0.039370,0.017717,0,0,315.0*
21,1,0.021654,0.035433,0,0,315.0*
1,1,0.017716,0.001392,-0.013920*
1,1,0.017716,-0.013920,0.001392*
1,1,0.017716,-0.001392,0.013920*
1,1,0.017716,0.013920,-0.001392*
%
%ADD13ROUNDEDRECTD13*%
G04:AMPARAMS|DCode=14|XSize=39.37mil|YSize=35.433mil|CornerRadius=8.858mil|HoleSize=0mil|Usage=FLASHONLY|Rotation=90.000|XOffset=0mil|YOffset=0mil|HoleType=Round|Shape=RoundedRectangle|*
%AMROUNDEDRECTD14*
21,1,0.039370,0.017717,0,0,90.0*
21,1,0.021654,0.035433,0,0,90.0*
1,1,0.017716,0.008858,0.010827*
1,1,0.017716,0.008858,-0.010827*
1,1,0.017716,-0.008858,-0.010827*
1,1,0.017716,-0.008858,0.010827*
%
%ADD14ROUNDEDRECTD14*%
%ADD15R,0.039370X0.023622*%
G04:AMPARAMS|DCode=16|XSize=23.622mil|YSize=39.37mil|CornerRadius=5.906mil|HoleSize=0mil|Usage=FLASHONLY|Rotation=90.000|XOffset=0mil|YOffset=0mil|HoleType=Round|Shape=RoundedRectangle|*
%AMROUNDEDRECTD16*
21,1,0.023622,0.027559,0,0,90.0*
21,1,0.011811,0.039370,0,0,90.0*
1,1,0.011811,0.013780,0.005906*
1,1,0.011811,0.013780,-0.005906*
1,1,0.011811,-0.013780,-0.005906*
1,1,0.011811,-0.013780,0.005906*
%
%ADD16ROUNDEDRECTD16*%
G04:AMPARAMS|DCode=21|XSize=70.866mil|YSize=51.181mil|CornerRadius=12.795mil|HoleSize=0mil|Usage=FLASHONLY|Rotation=270.000|XOffset=0mil|YOffset=0mil|HoleType=Round|Shape=RoundedRectangle|*
%AMROUNDEDRECTD21*
21,1,0.070866,0.025591,0,0,270.0*
21,1,0.045276,0.051181,0,0,270.0*
1,1,0.025590,-0.012795,-0.022638*
1,1,0.025590,-0.012795,0.022638*
1,1,0.025590,0.012795,0.022638*
1,1,0.025590,0.012795,-0.022638*
%
%ADD21ROUNDEDRECTD21*%
%TA.AperFunction,FiducialPad,Global*%
%ADD26C,0.059055*%
%TA.AperFunction,Conductor*%
%ADD29C,0.008000*%
%ADD30C,0.012000*%
%ADD32C,0.010000*%
%ADD33C,0.050000*%
%ADD34C,0.025000*%
%ADD35C,0.040000*%
%ADD36C,0.020000*%
%TA.AperFunction,ComponentPad*%
%ADD37R,0.059370X0.059370*%
%ADD38C,0.059370*%
%ADD39C,0.054000*%
%ADD40R,0.059370X0.059370*%
%ADD41R,0.070866X0.070866*%
%ADD42C,0.070866*%
%ADD43R,0.059000X0.059000*%
%ADD44C,0.060000*%
%ADD45R,0.066929X0.066929*%
%ADD46C,0.066929*%
%TA.AperFunction,ViaPad*%
%ADD47C,0.059055*%
%TA.AperFunction,ComponentPad*%
%ADD48R,0.059000X0.059000*%
G04:AMPARAMS|DCode=49|XSize=39.37mil|YSize=62.992mil|CornerRadius=0mil|HoleSize=0mil|Usage=FLASHONLY|Rotation=315.000|XOffset=0mil|YOffset=0mil|HoleType=Round|Shape=Round|*
%AMOVALD49*
21,1,0.023622,0.039370,0.000000,0.000000,45.0*
1,1,0.039370,-0.008352,-0.008352*
1,1,0.039370,0.008352,0.008352*
%
%ADD49OVALD49*%

%ADD50C,0.026575*%
G04:AMPARAMS|DCode=51|XSize=39.37mil|YSize=82.677mil|CornerRadius=0mil|HoleSize=0mil|Usage=FLASHONLY|Rotation=315.000|XOffset=0mil|YOffset=0mil|HoleType=Round|Shape=Round|*
%AMOVALD51*
21,1,0.043307,0.039370,0.000000,0.000000,45.0*
1,1,0.039370,-0.015311,-0.015311*
1,1,0.039370,0.015311,0.015311*
%
%ADD51OVALD51*%

%TA.AperFunction,ViaPad*%
%ADD52C,0.017716*%
%ADD53C,0.019685*%
%TA.AperFunction,SMDPad,CuDef*%
G04:AMPARAMS|DCode=55|XSize=151.575mil|YSize=84.646mil|CornerRadius=21.161mil|HoleSize=0mil|Usage=FLASHONLY|Rotation=0.000|XOffset=0mil|YOffset=0mil|HoleType=Round|Shape=RoundedRectangle|*
%AMROUNDEDRECTD55*
21,1,0.151575,0.042323,0,0,0.0*
21,1,0.109252,0.084646,0,0,0.0*
1,1,0.042323,0.054626,-0.021162*
1,1,0.042323,-0.054626,-0.021162*
1,1,0.042323,-0.054626,0.021162*
1,1,0.042323,0.054626,0.021162*
%
%ADD55ROUNDEDRECTD55*%
G04:AMPARAMS|DCode=56|XSize=62.992mil|YSize=84.646mil|CornerRadius=15.748mil|HoleSize=0mil|Usage=FLASHONLY|Rotation=0.000|XOffset=0mil|YOffset=0mil|HoleType=Round|Shape=RoundedRectangle|*
%AMROUNDEDRECTD56*
21,1,0.062992,0.053150,0,0,0.0*
21,1,0.031496,0.084646,0,0,0.0*
1,1,0.031496,0.015748,-0.026575*
1,1,0.031496,-0.015748,-0.026575*
1,1,0.031496,-0.015748,0.026575*
1,1,0.031496,0.015748,0.026575*
%
%ADD56ROUNDEDRECTD56*%
%ADD57R,0.062992X0.084646*%
G04:AMPARAMS|DCode=58|XSize=39.37mil|YSize=35.433mil|CornerRadius=8.858mil|HoleSize=0mil|Usage=FLASHONLY|Rotation=45.000|XOffset=0mil|YOffset=0mil|HoleType=Round|Shape=RoundedRectangle|*
%AMROUNDEDRECTD58*
21,1,0.039370,0.017717,0,0,45.0*
21,1,0.021654,0.035433,0,0,45.0*
1,1,0.017716,0.013920,0.001392*
1,1,0.017716,-0.001392,-0.013920*
1,1,0.017716,-0.013920,-0.001392*
1,1,0.017716,0.001392,0.013920*
%
%ADD58ROUNDEDRECTD58*%
%ADD59R,0.157480X0.078740*%
G04:AMPARAMS|DCode=60|XSize=27.559mil|YSize=51.181mil|CornerRadius=6.89mil|HoleSize=0mil|Usage=FLASHONLY|Rotation=270.000|XOffset=0mil|YOffset=0mil|HoleType=Round|Shape=RoundedRectangle|*
%AMROUNDEDRECTD60*
21,1,0.027559,0.037401,0,0,270.0*
21,1,0.013780,0.051181,0,0,270.0*
1,1,0.013780,-0.018701,-0.006890*
1,1,0.013780,-0.018701,0.006890*
1,1,0.013780,0.018701,0.006890*
1,1,0.013780,0.018701,-0.006890*
%
%ADD60ROUNDEDRECTD60*%
%ADD61R,0.051181X0.027559*%
%ADD62R,0.078740X0.157480*%
G04:AMPARAMS|DCode=63|XSize=27.559mil|YSize=51.181mil|CornerRadius=6.89mil|HoleSize=0mil|Usage=FLASHONLY|Rotation=180.000|XOffset=0mil|YOffset=0mil|HoleType=Round|Shape=RoundedRectangle|*
%AMROUNDEDRECTD63*
21,1,0.027559,0.037401,0,0,180.0*
21,1,0.013780,0.051181,0,0,180.0*
1,1,0.013780,-0.006890,0.018701*
1,1,0.013780,0.006890,0.018701*
1,1,0.013780,0.006890,-0.018701*
1,1,0.013780,-0.006890,-0.018701*
%
%ADD63ROUNDEDRECTD63*%
%ADD64R,0.027559X0.051181*%
G04:AMPARAMS|DCode=65|XSize=35.433mil|YSize=31.496mil|CornerRadius=0mil|HoleSize=0mil|Usage=FLASHONLY|Rotation=135.000|XOffset=0mil|YOffset=0mil|HoleType=Round|Shape=Rectangle|*
%AMROTATEDRECTD65*
4,1,4,0.023663,-0.001392,0.001392,-0.023663,-0.023663,0.001392,-0.001392,0.023663,0.023663,-0.001392,0.0*
%
%ADD65ROTATEDRECTD65*%

%ADD66R,0.057087X0.023622*%
G04:AMPARAMS|DCode=67|XSize=23.622mil|YSize=57.087mil|CornerRadius=5.906mil|HoleSize=0mil|Usage=FLASHONLY|Rotation=90.000|XOffset=0mil|YOffset=0mil|HoleType=Round|Shape=RoundedRectangle|*
%AMROUNDEDRECTD67*
21,1,0.023622,0.045276,0,0,90.0*
21,1,0.011811,0.057087,0,0,90.0*
1,1,0.011811,0.022638,0.005906*
1,1,0.011811,0.022638,-0.005906*
1,1,0.011811,-0.022638,-0.005906*
1,1,0.011811,-0.022638,0.005906*
%
%ADD67ROUNDEDRECTD67*%
G04:AMPARAMS|DCode=68|XSize=90.551mil|YSize=125.984mil|CornerRadius=11.319mil|HoleSize=0mil|Usage=FLASHONLY|Rotation=180.000|XOffset=0mil|YOffset=0mil|HoleType=Round|Shape=RoundedRectangle|*
%AMROUNDEDRECTD68*
21,1,0.090551,0.103347,0,0,180.0*
21,1,0.067913,0.125984,0,0,180.0*
1,1,0.022638,-0.033957,0.051673*
1,1,0.022638,0.033957,0.051673*
1,1,0.022638,0.033957,-0.051673*
1,1,0.022638,-0.033957,-0.051673*
%
%ADD68ROUNDEDRECTD68*%
G04:AMPARAMS|DCode=69|XSize=55.118mil|YSize=47.244mil|CornerRadius=0mil|HoleSize=0mil|Usage=FLASHONLY|Rotation=45.000|XOffset=0mil|YOffset=0mil|HoleType=Round|Shape=Rectangle|*
%AMROTATEDRECTD69*
4,1,4,-0.002784,-0.036191,-0.036191,-0.002784,0.002784,0.036191,0.036191,0.002784,-0.002784,-0.036191,0.0*
%
%ADD69ROTATEDRECTD69*%

G04:AMPARAMS|DCode=70|XSize=11.811mil|YSize=57.087mil|CornerRadius=0mil|HoleSize=0mil|Usage=FLASHONLY|Rotation=315.000|XOffset=0mil|YOffset=0mil|HoleType=Round|Shape=Rectangle|*
%AMROTATEDRECTD70*
4,1,4,-0.024359,-0.016007,0.016007,0.024359,0.024359,0.016007,-0.016007,-0.024359,-0.024359,-0.016007,0.0*
%
%ADD70ROTATEDRECTD70*%

G04:AMPARAMS|DCode=71|XSize=23.622mil|YSize=57.087mil|CornerRadius=0mil|HoleSize=0mil|Usage=FLASHONLY|Rotation=315.000|XOffset=0mil|YOffset=0mil|HoleType=Round|Shape=Rectangle|*
%AMROTATEDRECTD71*
4,1,4,-0.028535,-0.011832,0.011832,0.028535,0.028535,0.011832,-0.011832,-0.028535,-0.028535,-0.011832,0.0*
%
%ADD71ROTATEDRECTD71*%

%TA.AperFunction,Conductor*%
%ADD72R,0.062992X0.141732*%
%ADD73R,0.062992X0.286323*%
%ADD74R,0.051032X0.088000*%
%ADD75R,0.088583X0.063370*%
G36*
X1273192Y1846458D02*
Y1779370D01*
X1270384Y1776562D01*
X1265645Y1768353D01*
X1263192Y1759197D01*
Y1749718D01*
X1265645Y1740562D01*
X1270384Y1732353D01*
X1271280Y1731458D01*
X1269685Y1727607D01*
Y1697502D01*
X1269015Y1694135D01*
Y1537300D01*
X1269714Y1533789D01*
X1270015Y1533338D01*
Y1532363D01*
X1270714Y1528852D01*
X1272703Y1525875D01*
X1287899Y1510678D01*
X1286842Y1509621D01*
X1316273Y1480190D01*
X1316273Y1480190D01*
X1316273Y1480190D01*
X1318628Y1476004D01*
Y1449458D01*
X1320690D01*
Y1444404D01*
X1323409Y1437841D01*
X1328432Y1432817D01*
X1334996Y1430098D01*
X1342100D01*
X1345786Y1427148D01*
X1346052Y1425574D01*
X1343333Y1419010D01*
Y1411906D01*
X1346052Y1405342D01*
X1351076Y1400318D01*
X1357639Y1397600D01*
X1364744D01*
X1370366Y1399928D01*
X1374128Y1398780D01*
X1375882Y1397822D01*
X1375936Y1397553D01*
X1378809Y1393252D01*
X1394776Y1377285D01*
X1399076Y1374412D01*
X1400638Y1374102D01*
X1403780Y1368620D01*
X1403333Y1367542D01*
Y1360438D01*
X1406052Y1353874D01*
X1411076Y1348851D01*
X1417639Y1346132D01*
X1424744D01*
X1431307Y1348851D01*
X1436331Y1353874D01*
X1439898Y1350908D01*
X1448790Y1342017D01*
Y1171376D01*
X1436487D01*
X1428559Y1169799D01*
X1421838Y1165308D01*
X1417347Y1158587D01*
X1415770Y1150659D01*
Y1142599D01*
X1411150Y1140686D01*
X1405406Y1146430D01*
X1400775Y1149525D01*
X1395580Y1150558D01*
X1392607Y1155007D01*
X1391809Y1155541D01*
Y1160541D01*
X1392607Y1161074D01*
X1395902Y1166004D01*
X1397059Y1171820D01*
Y1183631D01*
X1395902Y1189447D01*
X1392607Y1194378D01*
X1387677Y1197672D01*
X1381861Y1198829D01*
X1336585D01*
X1330770Y1197672D01*
X1325839Y1194378D01*
X1324251Y1192000D01*
X1290569D01*
X1290331Y1192574D01*
X1285307Y1197597D01*
X1278744Y1200316D01*
X1271639D01*
X1265076Y1197597D01*
X1260052Y1192574D01*
X1257333Y1186010D01*
Y1178906D01*
X1260052Y1172342D01*
X1265076Y1167318D01*
X1271639Y1164600D01*
X1276457D01*
X1276549Y1164538D01*
X1282012Y1163451D01*
X1324251D01*
X1325839Y1161074D01*
X1326637Y1160541D01*
Y1155541D01*
X1325839Y1155007D01*
X1322545Y1150077D01*
X1321388Y1144261D01*
Y1132450D01*
X1322545Y1126634D01*
X1325839Y1121704D01*
X1326637Y1121171D01*
Y1116170D01*
X1325839Y1115637D01*
X1323569Y1112240D01*
X1301167D01*
X1300109Y1114796D01*
X1295085Y1119820D01*
X1288521Y1122539D01*
X1281417D01*
X1274853Y1119820D01*
X1269830Y1114796D01*
X1267111Y1108233D01*
Y1101865D01*
X1265129Y1100393D01*
X1262491Y1099414D01*
X1261307Y1100597D01*
X1254744Y1103316D01*
X1247639D01*
X1241076Y1100597D01*
X1236052Y1095574D01*
X1233333Y1089010D01*
Y1081906D01*
X1236052Y1075342D01*
X1241076Y1070318D01*
X1247639Y1067600D01*
X1250305D01*
X1267661Y1050243D01*
X1269672Y1048899D01*
X1268616Y1043591D01*
X1267638Y1043397D01*
X1261731Y1039450D01*
X1257784Y1033543D01*
X1256398Y1026575D01*
Y1020907D01*
X1251999Y1018556D01*
X1247539Y1020814D01*
Y1026575D01*
X1246153Y1033543D01*
X1242206Y1039450D01*
X1236299Y1043397D01*
X1229331Y1044783D01*
X1211614D01*
X1204646Y1043397D01*
X1198739Y1039450D01*
X1194792Y1033543D01*
X1193406Y1026575D01*
Y1004921D01*
X1194792Y997953D01*
X1198739Y992046D01*
X1204646Y988099D01*
X1211614Y986713D01*
X1229331D01*
X1236299Y988099D01*
X1237022Y988582D01*
X1239934Y984224D01*
X1253909Y970249D01*
X1258871Y966933D01*
X1264724Y965769D01*
X1267792D01*
X1277572Y955989D01*
X1280136Y949799D01*
X1285160Y944775D01*
X1291723Y942056D01*
X1298828D01*
X1305391Y944775D01*
X1310415Y949799D01*
X1313134Y956362D01*
Y960263D01*
X1318134Y962334D01*
X1333202Y947265D01*
Y933260D01*
X1331317Y931376D01*
X1328599Y924812D01*
Y917708D01*
X1331317Y911144D01*
X1334500Y907961D01*
X1332429Y902961D01*
X1303642D01*
X1295768Y901924D01*
X1288431Y898885D01*
X1282130Y894051D01*
X1277296Y887750D01*
X1274257Y880413D01*
X1273220Y872539D01*
Y830216D01*
X1274257Y822343D01*
X1277296Y815006D01*
X1282130Y808705D01*
X1288431Y803870D01*
X1295768Y800831D01*
X1303642Y799795D01*
X1317595D01*
Y722038D01*
X1316787Y720088D01*
Y712983D01*
X1317346Y711636D01*
X1313008Y707298D01*
X1308389Y709212D01*
Y711033D01*
X1309197Y712983D01*
Y720088D01*
X1308389Y722038D01*
Y724409D01*
X1307690Y727921D01*
X1305701Y730898D01*
X1302724Y732887D01*
X1299213Y733586D01*
X1296841D01*
X1294891Y734394D01*
X1287786D01*
X1285836Y733586D01*
X1273219D01*
X1271269Y734394D01*
X1264164D01*
X1262214Y733586D01*
X1249597D01*
X1247647Y734394D01*
X1240542D01*
X1238592Y733586D01*
X1236220D01*
X1232709Y732887D01*
X1229732Y730898D01*
X1227743Y727921D01*
X1227044Y724409D01*
Y722038D01*
X1226236Y720088D01*
Y712983D01*
X1227044Y711033D01*
Y698416D01*
X1226236Y696466D01*
Y689361D01*
X1227044Y687411D01*
Y649188D01*
X1226736Y647638D01*
Y621026D01*
X1173199Y567489D01*
X1082648D01*
X1053106Y597032D01*
X1052649Y599330D01*
X1048702Y605237D01*
X1042795Y609184D01*
X1040496Y609641D01*
X1035316Y614821D01*
X1037455Y619754D01*
X1042795Y620816D01*
X1048702Y624763D01*
X1052649Y630670D01*
X1054035Y637638D01*
Y655354D01*
X1052649Y662322D01*
X1048702Y668229D01*
X1042795Y672176D01*
X1035827Y673562D01*
X1014173D01*
X1012513Y673232D01*
X978332Y707413D01*
X980245Y712033D01*
X985349D01*
Y753655D01*
X927979D01*
X927979Y753655D01*
Y753655D01*
X923309Y754877D01*
X901356Y776830D01*
X897056Y779704D01*
X896086Y779897D01*
X895918Y785028D01*
X896245Y785116D01*
X905138Y790250D01*
X912399Y797511D01*
X917534Y806404D01*
X920192Y816323D01*
Y826592D01*
X917534Y836511D01*
X912399Y845404D01*
X905138Y852666D01*
X896245Y857800D01*
X886326Y860458D01*
X876057D01*
X866138Y857800D01*
X864525Y856869D01*
X846013Y875381D01*
Y887266D01*
X850633Y889179D01*
X853909Y885903D01*
X864041Y880053D01*
X875342Y877025D01*
X887041D01*
X898342Y880053D01*
X908474Y885903D01*
X916747Y894175D01*
X922596Y904307D01*
X925625Y915608D01*
Y927308D01*
X922596Y938608D01*
X916747Y948740D01*
X908474Y957013D01*
X898342Y962863D01*
X887041Y965891D01*
X875342D01*
X864041Y962863D01*
X853909Y957013D01*
X846746Y949851D01*
X844637Y948894D01*
X840333Y949556D01*
X831192Y958698D01*
Y1137250D01*
X848564Y1154622D01*
X851438Y1158922D01*
X852447Y1163995D01*
Y1271027D01*
X851438Y1276099D01*
X848564Y1280399D01*
X843946Y1285017D01*
Y1301212D01*
X916137Y1373403D01*
X970615Y1427881D01*
X975245Y1423251D01*
X984138Y1418116D01*
X994057Y1415458D01*
X1004326D01*
X1014245Y1418116D01*
X1023138Y1423251D01*
X1030399Y1430512D01*
X1035534Y1439405D01*
X1038192Y1449324D01*
Y1459593D01*
X1035534Y1469512D01*
X1030399Y1478405D01*
X1023138Y1485666D01*
X1014245Y1490800D01*
X1004326Y1493458D01*
X994057D01*
X988219Y1491894D01*
X984252Y1494938D01*
Y1513979D01*
X988219Y1517023D01*
X994057Y1515458D01*
X1004326D01*
X1014245Y1518116D01*
X1023138Y1523251D01*
X1030399Y1530512D01*
X1035534Y1539405D01*
X1038192Y1549324D01*
Y1559593D01*
X1035534Y1569512D01*
X1030399Y1578405D01*
X1023138Y1585666D01*
X1014245Y1590800D01*
X1004326Y1593458D01*
X994057D01*
X988219Y1591894D01*
X984252Y1594938D01*
Y1613979D01*
X988219Y1617023D01*
X994057Y1615458D01*
X1004326D01*
X1014245Y1618116D01*
X1023138Y1623251D01*
X1030399Y1630512D01*
X1035534Y1639405D01*
X1038192Y1649324D01*
Y1659593D01*
X1035534Y1669512D01*
X1030399Y1678405D01*
X1023138Y1685666D01*
X1014245Y1690800D01*
X1004326Y1693458D01*
X994057D01*
X988219Y1691894D01*
X984252Y1694938D01*
Y1716015D01*
X989252Y1719852D01*
X994452Y1718458D01*
X1003931D01*
X1013087Y1720912D01*
X1021296Y1725651D01*
X1027999Y1732354D01*
X1032738Y1740563D01*
X1035192Y1749719D01*
Y1759198D01*
X1032738Y1768354D01*
X1027999Y1776563D01*
X1021296Y1783265D01*
X1013087Y1788005D01*
X1003931Y1790458D01*
X994452D01*
X985296Y1788005D01*
X977087Y1783265D01*
X970385Y1776563D01*
X965645Y1768354D01*
X963192Y1759198D01*
Y1749719D01*
X965645Y1740563D01*
X970385Y1732354D01*
X971661Y1731077D01*
X969748Y1726458D01*
X928636D01*
X926722Y1731077D01*
X927999Y1732354D01*
X932738Y1740563D01*
X935192Y1749719D01*
Y1759198D01*
X932738Y1768354D01*
X927999Y1776563D01*
X921296Y1783265D01*
X913087Y1788005D01*
X903931Y1790458D01*
X894452D01*
X885296Y1788005D01*
X877087Y1783265D01*
X870385Y1776563D01*
X865645Y1768354D01*
X863192Y1759198D01*
Y1749719D01*
X865645Y1740563D01*
X870385Y1732354D01*
X871661Y1731077D01*
X869747Y1726458D01*
X829174D01*
X827103Y1731458D01*
X827999Y1732353D01*
X832738Y1740562D01*
X835192Y1749718D01*
Y1759197D01*
X832738Y1768353D01*
X827999Y1776562D01*
X821296Y1783265D01*
X813087Y1788005D01*
X803931Y1790458D01*
X794452D01*
X785296Y1788005D01*
X777087Y1783265D01*
X770385Y1776562D01*
X765645Y1768353D01*
X763192Y1759197D01*
Y1749718D01*
X765645Y1740562D01*
X770385Y1732353D01*
X771661Y1731077D01*
X769747Y1726458D01*
X682519D01*
X681552Y1726858D01*
X676791D01*
X664050Y1739600D01*
Y1746010D01*
X661331Y1752574D01*
X656308Y1757597D01*
X653796Y1758638D01*
X652622Y1764536D01*
X777868Y1889781D01*
X779608Y1892386D01*
X779822Y1893458D01*
X1226192D01*
X1273192Y1846458D01*
D02*
G37*
G36*
X1755877Y1463159D02*
X1647738Y1355020D01*
X1647366Y1355175D01*
X1640262D01*
X1633698Y1352456D01*
X1628674Y1347432D01*
X1625956Y1340869D01*
Y1333764D01*
X1626110Y1333392D01*
X1578711Y1285993D01*
X1525562D01*
X1496034Y1315521D01*
X1498048Y1317444D01*
X1484469Y1331023D01*
X1524578Y1371132D01*
X1525242Y1370468D01*
X1533433Y1367075D01*
X1542300D01*
X1550491Y1370468D01*
X1556761Y1376738D01*
X1560154Y1384929D01*
Y1393796D01*
X1556761Y1401987D01*
X1550491Y1408257D01*
X1542300Y1411650D01*
X1533433D01*
X1531822Y1410983D01*
X1527203Y1412896D01*
X1526195Y1415329D01*
X1521172Y1420353D01*
X1514608Y1423072D01*
X1507504D01*
X1507168Y1422933D01*
X1507052Y1423010D01*
X1501980Y1424019D01*
X1495804D01*
X1490732Y1423010D01*
X1486432Y1420137D01*
X1484474Y1418178D01*
X1461460Y1441192D01*
X1475162Y1454893D01*
X1478035Y1459193D01*
X1481564Y1462722D01*
X1484437Y1467022D01*
X1485446Y1472094D01*
Y1490202D01*
X1484437Y1495275D01*
X1481564Y1499575D01*
X1468760Y1512379D01*
X1464460Y1515252D01*
X1459387Y1516261D01*
X1439239D01*
X1435076Y1517986D01*
X1427972D01*
X1421408Y1515267D01*
X1416385Y1510243D01*
X1413666Y1503680D01*
Y1496575D01*
X1414032Y1495691D01*
X1409960Y1492969D01*
X1409707Y1492945D01*
X1391639Y1511013D01*
X1379292Y1523360D01*
X1381206Y1527979D01*
X1381396D01*
X1389587Y1531372D01*
X1395857Y1537642D01*
X1399250Y1545833D01*
Y1554700D01*
X1395857Y1562891D01*
X1389587Y1569161D01*
X1381396Y1572554D01*
X1372529D01*
X1364338Y1569161D01*
X1358068Y1562891D01*
X1354675Y1554700D01*
Y1545833D01*
X1358068Y1537642D01*
X1358736Y1536974D01*
X1318627Y1496865D01*
X1303148Y1512344D01*
X1301134Y1510421D01*
X1279192Y1532363D01*
Y1536300D01*
X1278192Y1537300D01*
Y1694135D01*
X1302515Y1718458D01*
X1303931D01*
X1313087Y1720911D01*
X1321296Y1725651D01*
X1327999Y1732353D01*
X1332738Y1740562D01*
X1335192Y1749718D01*
Y1751135D01*
X1372018Y1787962D01*
X1431073D01*
X1755877Y1463159D01*
D02*
G37*
G36*
X692885Y675115D02*
Y658518D01*
X687819Y653452D01*
X684946Y649152D01*
X683937Y644080D01*
Y577458D01*
X684946Y572385D01*
X687819Y568085D01*
X692885Y563020D01*
Y507504D01*
X687515Y502135D01*
X685775Y499530D01*
X685164Y496458D01*
Y257458D01*
X388419D01*
X387970Y259713D01*
X385524Y263375D01*
X385611Y263663D01*
X390635Y268686D01*
X393353Y275250D01*
Y282354D01*
X390635Y288918D01*
X385611Y293942D01*
X384944Y294218D01*
X384631Y297391D01*
X384818Y299682D01*
X387970Y304400D01*
X389204Y310600D01*
Y348001D01*
X387970Y354201D01*
X385179Y358378D01*
Y390266D01*
X385940Y392102D01*
Y399206D01*
X383221Y405770D01*
X378197Y410794D01*
X371634Y413512D01*
X364529D01*
X357966Y410794D01*
X352942Y405770D01*
X350223Y399206D01*
Y392102D01*
X352942Y385538D01*
X354591Y383889D01*
Y363281D01*
X353023Y362969D01*
X347767Y359457D01*
X344255Y354201D01*
X343022Y348001D01*
Y310600D01*
X344255Y304400D01*
X347767Y299144D01*
X353023Y295632D01*
X358207Y294601D01*
X359324Y291840D01*
X359421Y289399D01*
X359149Y289217D01*
X355298Y285366D01*
X351983Y280405D01*
X350819Y274552D01*
Y268011D01*
X349493Y266938D01*
X346513Y265332D01*
X341801Y268481D01*
X335601Y269714D01*
X321822D01*
X315622Y268481D01*
X310366Y264969D01*
X305989Y267419D01*
X304399Y268481D01*
X298199Y269714D01*
X284420D01*
X278220Y268481D01*
X272964Y264969D01*
X269452Y259713D01*
X269004Y257458D01*
X249191D01*
X219932Y286718D01*
Y292828D01*
X213821D01*
X185181Y321468D01*
X187095Y326088D01*
X219932D01*
Y407937D01*
X224932Y411371D01*
X229302Y410502D01*
X250955D01*
X257923Y411888D01*
X263830Y415835D01*
X267777Y421742D01*
X269163Y428710D01*
Y446426D01*
X267777Y453394D01*
X263830Y459302D01*
X257923Y463249D01*
X250955Y464635D01*
X244516D01*
X242014Y469635D01*
X243268Y471310D01*
X283294D01*
X290865Y472307D01*
X297919Y475229D01*
X303977Y479877D01*
X308625Y485935D01*
X311548Y492990D01*
X312544Y500560D01*
X311548Y508131D01*
X308625Y515185D01*
X303977Y521243D01*
X297919Y525892D01*
X290865Y528814D01*
X283294Y529811D01*
X231737D01*
X227535Y534315D01*
X227986Y536583D01*
Y539545D01*
X226317Y547934D01*
X221924Y554509D01*
X222607Y556538D01*
X224403Y559114D01*
X229302Y558139D01*
X231302D01*
X242521Y546920D01*
X249633Y542168D01*
X258022Y540500D01*
X265318D01*
X273707Y542168D01*
X280819Y546920D01*
X285571Y554032D01*
X287240Y562421D01*
X285571Y570810D01*
X280819Y577922D01*
X273707Y582673D01*
X267544Y583899D01*
X265227Y586217D01*
Y598001D01*
X263841Y604969D01*
X259894Y610876D01*
X253986Y614823D01*
X247018Y616209D01*
X229302D01*
X222334Y614823D01*
X216427Y610876D01*
X212480Y604969D01*
X211094Y598001D01*
Y576348D01*
X212480Y569380D01*
X215748Y564488D01*
X213427Y560340D01*
X213154Y560056D01*
X206065Y561466D01*
X199322Y560125D01*
X196105Y561697D01*
X195242Y562317D01*
X194146Y563452D01*
X193089Y568768D01*
X189577Y574024D01*
X184321Y577536D01*
X179018Y578591D01*
X177125Y580870D01*
X175751Y583769D01*
X177050Y586906D01*
Y594010D01*
X174331Y600574D01*
X169308Y605597D01*
X162744Y608316D01*
X155639D01*
X149076Y605597D01*
X144052Y600574D01*
X141333Y594010D01*
Y586906D01*
X142633Y583769D01*
X141792Y581573D01*
X139400Y578507D01*
X134519Y577536D01*
X129263Y574024D01*
X125751Y568768D01*
X124518Y562568D01*
Y548789D01*
X125751Y542589D01*
X129263Y537333D01*
Y536622D01*
X125751Y531366D01*
X124518Y525167D01*
Y511387D01*
X125751Y505187D01*
X126814Y503597D01*
X129065Y499576D01*
X126814Y495555D01*
X125751Y493965D01*
X124518Y487765D01*
Y473986D01*
X125751Y467786D01*
X126015Y467391D01*
Y422828D01*
X84937D01*
X83307Y426544D01*
X83109Y427533D01*
X87969Y432393D01*
X90687Y438956D01*
Y446061D01*
X87969Y452625D01*
X87498Y453096D01*
X88055Y458096D01*
X99522D01*
Y503655D01*
X30341D01*
Y482841D01*
X25722Y480928D01*
X13751Y492899D01*
Y552455D01*
X18751Y555796D01*
X21639Y554600D01*
X23179D01*
X25364Y552415D01*
X29664Y549542D01*
X30030Y549469D01*
Y548789D01*
X31263Y542589D01*
X34775Y537333D01*
X40031Y533821D01*
X46231Y532587D01*
X83632D01*
X89832Y533821D01*
X95088Y537333D01*
X98600Y542589D01*
X99834Y548789D01*
Y562568D01*
X98600Y568768D01*
X95088Y574024D01*
X89832Y577536D01*
X83632Y578769D01*
X46231D01*
X42236Y577975D01*
X40331Y582574D01*
X35307Y587597D01*
X28744Y590316D01*
X21639D01*
X18751Y589120D01*
X13751Y592461D01*
Y802751D01*
X112591Y901591D01*
X159929D01*
Y933120D01*
X164929Y937083D01*
X168173Y936438D01*
X189827D01*
X196795Y937824D01*
X202702Y941771D01*
X206649Y947678D01*
X207160Y950249D01*
X217150D01*
X222222Y951258D01*
X226523Y954131D01*
X244391Y972000D01*
X262761D01*
X266101Y967000D01*
X265097Y964574D01*
Y957470D01*
X267816Y950906D01*
X272839Y945883D01*
X279403Y943164D01*
X286507D01*
X293071Y945883D01*
X298095Y950906D01*
X300813Y957470D01*
Y961202D01*
X311611Y972000D01*
X314560D01*
X316641Y970609D01*
X323609Y969223D01*
X330577Y970609D01*
X332658Y972000D01*
X396000D01*
X692885Y675115D01*
D02*
G37*
%LPC*%
G36*
X1203931Y1790458D02*
X1194452D01*
X1185296Y1788005D01*
X1177087Y1783265D01*
X1170385Y1776562D01*
X1165645Y1768353D01*
X1163192Y1759197D01*
Y1749718D01*
X1165645Y1740562D01*
X1170385Y1732353D01*
X1177087Y1725651D01*
X1185296Y1720911D01*
X1194452Y1718458D01*
X1203931D01*
X1213087Y1720911D01*
X1221296Y1725651D01*
X1227999Y1732353D01*
X1232738Y1740562D01*
X1235192Y1749718D01*
Y1759197D01*
X1232738Y1768353D01*
X1227999Y1776562D01*
X1221296Y1783265D01*
X1213087Y1788005D01*
X1203931Y1790458D01*
D02*
G37*
G36*
X1103931Y1790458D02*
X1094452D01*
X1085296Y1788005D01*
X1077087Y1783265D01*
X1070385Y1776562D01*
X1065645Y1768353D01*
X1063192Y1759197D01*
Y1749718D01*
X1065645Y1740562D01*
X1070385Y1732353D01*
X1077087Y1725651D01*
X1085296Y1720911D01*
X1094452Y1718458D01*
X1103931D01*
X1113087Y1720911D01*
X1121296Y1725651D01*
X1127999Y1732353D01*
X1132738Y1740562D01*
X1135192Y1749718D01*
Y1759197D01*
X1132738Y1768353D01*
X1127999Y1776562D01*
X1121296Y1783265D01*
X1113087Y1788005D01*
X1103931Y1790458D01*
D02*
G37*
G36*
X1104326Y1693458D02*
X1094057D01*
X1084138Y1690800D01*
X1075245Y1685666D01*
X1067984Y1678405D01*
X1062850Y1669512D01*
X1060192Y1659593D01*
Y1649324D01*
X1062850Y1639405D01*
X1067984Y1630512D01*
X1075245Y1623251D01*
X1084138Y1618116D01*
X1094057Y1615458D01*
X1104326D01*
X1114245Y1618116D01*
X1123138Y1623251D01*
X1130399Y1630512D01*
X1135534Y1639405D01*
X1138192Y1649324D01*
Y1659593D01*
X1135534Y1669512D01*
X1130399Y1678405D01*
X1123138Y1685666D01*
X1114245Y1690800D01*
X1104326Y1693458D01*
D02*
G37*
G36*
X1204326Y1593458D02*
X1194057D01*
X1184138Y1590801D01*
X1175245Y1585666D01*
X1167984Y1578405D01*
X1162850Y1569512D01*
X1160192Y1559593D01*
Y1549324D01*
X1162850Y1539405D01*
X1167984Y1530512D01*
X1175245Y1523251D01*
X1184138Y1518116D01*
X1194057Y1515458D01*
X1204326D01*
X1214245Y1518116D01*
X1223138Y1523251D01*
X1230399Y1530512D01*
X1235534Y1539405D01*
X1238192Y1549324D01*
Y1559593D01*
X1235534Y1569512D01*
X1230399Y1578405D01*
X1223138Y1585666D01*
X1214245Y1590801D01*
X1204326Y1593458D01*
D02*
G37*
G36*
X1104326Y1593458D02*
X1094057D01*
X1084138Y1590800D01*
X1075245Y1585666D01*
X1067984Y1578405D01*
X1062850Y1569512D01*
X1060192Y1559592D01*
Y1549324D01*
X1062850Y1539405D01*
X1067984Y1530512D01*
X1075245Y1523250D01*
X1084138Y1518116D01*
X1094057Y1515458D01*
X1104326D01*
X1114245Y1518116D01*
X1123138Y1523250D01*
X1130399Y1530512D01*
X1135534Y1539405D01*
X1138192Y1549324D01*
Y1559592D01*
X1135534Y1569512D01*
X1130399Y1578405D01*
X1123138Y1585666D01*
X1114245Y1590800D01*
X1104326Y1593458D01*
D02*
G37*
G36*
X1204326Y1493458D02*
X1194057D01*
X1184138Y1490801D01*
X1175245Y1485666D01*
X1167984Y1478405D01*
X1162850Y1469512D01*
X1160192Y1459593D01*
Y1449324D01*
X1162850Y1439405D01*
X1167984Y1430512D01*
X1175245Y1423251D01*
X1184138Y1418116D01*
X1194057Y1415458D01*
X1204326D01*
X1214245Y1418116D01*
X1223138Y1423251D01*
X1230399Y1430512D01*
X1235534Y1439405D01*
X1238192Y1449324D01*
Y1459593D01*
X1235534Y1469512D01*
X1230399Y1478405D01*
X1223138Y1485666D01*
X1214245Y1490801D01*
X1204326Y1493458D01*
D02*
G37*
G36*
X1104326D02*
X1094057D01*
X1084138Y1490801D01*
X1075245Y1485666D01*
X1067984Y1478405D01*
X1062850Y1469512D01*
X1060192Y1459593D01*
Y1449324D01*
X1062850Y1439405D01*
X1067984Y1430512D01*
X1075245Y1423251D01*
X1084138Y1418116D01*
X1094057Y1415458D01*
X1104326D01*
X1114245Y1418116D01*
X1123138Y1423251D01*
X1130399Y1430512D01*
X1135534Y1439405D01*
X1138192Y1449324D01*
Y1459593D01*
X1135534Y1469512D01*
X1130399Y1478405D01*
X1123138Y1485666D01*
X1114245Y1490801D01*
X1104326Y1493458D01*
D02*
G37*
G36*
X1037692Y1392958D02*
X960692D01*
Y1315958D01*
X1037692D01*
Y1392958D01*
D02*
G37*
G36*
X1237692Y1392958D02*
X1160692D01*
Y1315958D01*
X1237692D01*
Y1392958D01*
D02*
G37*
G36*
X1137692D02*
X1060692D01*
Y1315958D01*
X1137692D01*
Y1392958D01*
D02*
G37*
G36*
X1203931Y1290458D02*
X1194452D01*
X1185296Y1288005D01*
X1177087Y1283265D01*
X1170385Y1276563D01*
X1165645Y1268354D01*
X1163192Y1259198D01*
Y1249719D01*
X1165645Y1240563D01*
X1170385Y1232354D01*
X1177087Y1225651D01*
X1185296Y1220912D01*
X1194452Y1218458D01*
X1203931D01*
X1213087Y1220912D01*
X1221296Y1225651D01*
X1227999Y1232354D01*
X1232738Y1240563D01*
X1235192Y1249719D01*
Y1259198D01*
X1232738Y1268354D01*
X1227999Y1276563D01*
X1221296Y1283265D01*
X1213087Y1288005D01*
X1203931Y1290458D01*
D02*
G37*
G36*
X1403931Y1290458D02*
X1394452D01*
X1385296Y1288005D01*
X1377087Y1283265D01*
X1370385Y1276563D01*
X1365645Y1268354D01*
X1363192Y1259198D01*
Y1249719D01*
X1365645Y1240563D01*
X1370385Y1232354D01*
X1377087Y1225651D01*
X1385296Y1220911D01*
X1394452Y1218458D01*
X1403931D01*
X1413087Y1220911D01*
X1421296Y1225651D01*
X1427999Y1232354D01*
X1432738Y1240563D01*
X1435192Y1249719D01*
Y1259198D01*
X1432738Y1268354D01*
X1427999Y1276563D01*
X1421296Y1283265D01*
X1413087Y1288005D01*
X1403931Y1290458D01*
D02*
G37*
G36*
X903931D02*
X894452D01*
X885296Y1288005D01*
X877087Y1283265D01*
X870385Y1276563D01*
X865645Y1268354D01*
X863192Y1259198D01*
Y1249719D01*
X865645Y1240563D01*
X870385Y1232354D01*
X877087Y1225651D01*
X885296Y1220911D01*
X894452Y1218458D01*
X903931D01*
X913087Y1220911D01*
X921296Y1225651D01*
X927999Y1232354D01*
X932738Y1240563D01*
X935192Y1249719D01*
Y1259198D01*
X932738Y1268354D01*
X927999Y1276563D01*
X921296Y1283265D01*
X913087Y1288005D01*
X903931Y1290458D01*
D02*
G37*
G36*
X1103931Y1290458D02*
X1094452D01*
X1085296Y1288005D01*
X1077087Y1283265D01*
X1070385Y1276562D01*
X1065645Y1268353D01*
X1063192Y1259197D01*
Y1249718D01*
X1065645Y1240562D01*
X1070385Y1232353D01*
X1077087Y1225651D01*
X1085296Y1220911D01*
X1094452Y1218458D01*
X1103931D01*
X1113087Y1220911D01*
X1121296Y1225651D01*
X1127999Y1232353D01*
X1132738Y1240562D01*
X1135192Y1249718D01*
Y1259197D01*
X1132738Y1268353D01*
X1127999Y1276562D01*
X1121296Y1283265D01*
X1113087Y1288005D01*
X1103931Y1290458D01*
D02*
G37*
G36*
X1003931D02*
X994452D01*
X985296Y1288005D01*
X977087Y1283265D01*
X970385Y1276562D01*
X965645Y1268353D01*
X963192Y1259197D01*
Y1249718D01*
X965645Y1240562D01*
X970385Y1232353D01*
X977087Y1225651D01*
X985296Y1220911D01*
X994452Y1218458D01*
X1003931D01*
X1013087Y1220911D01*
X1021296Y1225651D01*
X1027999Y1232353D01*
X1032738Y1240562D01*
X1035192Y1249718D01*
Y1259197D01*
X1032738Y1268353D01*
X1027999Y1276562D01*
X1021296Y1283265D01*
X1013087Y1288005D01*
X1003931Y1290458D01*
D02*
G37*
G36*
X1303931Y1290458D02*
X1294452D01*
X1285296Y1288005D01*
X1277087Y1283265D01*
X1270384Y1276562D01*
X1265645Y1268353D01*
X1263192Y1259197D01*
Y1249718D01*
X1265645Y1240562D01*
X1270384Y1232353D01*
X1277087Y1225651D01*
X1285296Y1220911D01*
X1294452Y1218458D01*
X1303931D01*
X1313087Y1220911D01*
X1321296Y1225651D01*
X1327999Y1232353D01*
X1332738Y1240562D01*
X1335192Y1249718D01*
Y1259197D01*
X1332738Y1268353D01*
X1327999Y1276562D01*
X1321296Y1283265D01*
X1313087Y1288005D01*
X1303931Y1290458D01*
D02*
G37*
G36*
X1030713Y1167196D02*
X1016531D01*
X1002623Y1164429D01*
X989521Y1159003D01*
X977730Y1151124D01*
X967702Y1141096D01*
X959823Y1129305D01*
X954397Y1116203D01*
X951630Y1102295D01*
Y1088113D01*
X954397Y1074205D01*
X959823Y1061103D01*
X967702Y1049312D01*
X977730Y1039284D01*
X989521Y1031406D01*
X1002623Y1025979D01*
X1016531Y1023212D01*
X1030713D01*
X1044621Y1025979D01*
X1057723Y1031406D01*
X1069514Y1039284D01*
X1079542Y1049312D01*
X1087420Y1061103D01*
X1092847Y1074205D01*
X1095614Y1088113D01*
Y1102295D01*
X1092847Y1116203D01*
X1087420Y1129305D01*
X1079542Y1141096D01*
X1069514Y1151124D01*
X1057723Y1159003D01*
X1044621Y1164429D01*
X1030713Y1167196D01*
D02*
G37*
G36*
X1125625Y965891D02*
X1036759D01*
Y877025D01*
X1125625D01*
Y965891D01*
D02*
G37*
G36*
X987041D02*
X975342D01*
X964041Y962863D01*
X953909Y957013D01*
X945636Y948740D01*
X939787Y938608D01*
X936759Y927308D01*
Y915608D01*
X939787Y904307D01*
X945636Y894175D01*
X953909Y885903D01*
X964041Y880053D01*
X975342Y877025D01*
X987041D01*
X998342Y880053D01*
X1008474Y885903D01*
X1016747Y894175D01*
X1022597Y904307D01*
X1025625Y915608D01*
Y927308D01*
X1022597Y938608D01*
X1016747Y948740D01*
X1008474Y957013D01*
X998342Y962863D01*
X987041Y965891D01*
D02*
G37*
G36*
X1119692Y859958D02*
X1042692D01*
Y782958D01*
X1119692D01*
Y859958D01*
D02*
G37*
G36*
X986326Y860458D02*
X976057D01*
X966138Y857800D01*
X957245Y852666D01*
X949984Y845404D01*
X944849Y836511D01*
X942192Y826592D01*
Y816323D01*
X944849Y806404D01*
X949984Y797511D01*
X957245Y790250D01*
X966138Y785116D01*
X976057Y782458D01*
X986326D01*
X996245Y785116D01*
X1005138Y790250D01*
X1012399Y797511D01*
X1017534Y806404D01*
X1020192Y816323D01*
Y826592D01*
X1017534Y836511D01*
X1012399Y845404D01*
X1005138Y852666D01*
X996245Y857800D01*
X986326Y860458D01*
D02*
G37*
G36*
X381176Y932946D02*
X303806D01*
Y896049D01*
X287264D01*
X286361Y900589D01*
X282414Y906497D01*
X276507Y910444D01*
X269539Y911830D01*
X251822D01*
X244854Y910444D01*
X238947Y906497D01*
X235000Y900589D01*
X233614Y893621D01*
Y871968D01*
X235000Y865000D01*
X238947Y859093D01*
X244854Y855146D01*
X251822Y853760D01*
X269539D01*
X276507Y855146D01*
X282414Y859093D01*
X286361Y865000D01*
X287264Y869540D01*
X303806D01*
Y855576D01*
X381176D01*
Y857671D01*
X389666D01*
X390178Y855099D01*
X394125Y849192D01*
X400032Y845245D01*
X407000Y843859D01*
X428654D01*
X435622Y845245D01*
X441529Y849192D01*
X445476Y855099D01*
X446862Y862067D01*
Y879784D01*
X445476Y886752D01*
X441529Y892659D01*
X435622Y896606D01*
X428654Y897992D01*
X407000D01*
X400032Y896606D01*
X394125Y892659D01*
X390178Y886752D01*
X389666Y884180D01*
X381176D01*
Y932946D01*
D02*
G37*
G36*
X206547Y911830D02*
X188830D01*
X181862Y910444D01*
X175955Y906497D01*
X172008Y900589D01*
X170622Y893621D01*
Y880018D01*
X163231Y872627D01*
X159032Y866343D01*
X157557Y858929D01*
Y831944D01*
X159032Y824530D01*
X163231Y818245D01*
X169438Y812039D01*
Y799173D01*
X170824Y792205D01*
X174771Y786298D01*
X180678Y782351D01*
X187646Y780965D01*
X205362D01*
X212330Y782351D01*
X218237Y786298D01*
X222184Y792205D01*
X223570Y799173D01*
Y820827D01*
X222184Y827795D01*
X218237Y833702D01*
X212330Y837649D01*
X205362Y839035D01*
X197234D01*
X196301Y839968D01*
Y850905D01*
X199156Y853760D01*
X206547D01*
X213515Y855146D01*
X219422Y859093D01*
X223369Y865000D01*
X224755Y871968D01*
Y893621D01*
X223369Y900589D01*
X219422Y906497D01*
X213515Y910444D01*
X206547Y911830D01*
D02*
G37*
G36*
X141018Y814836D02*
X63648D01*
Y737466D01*
X141018D01*
Y814836D01*
D02*
G37*
G36*
X287946Y773493D02*
X280841D01*
X274278Y770774D01*
X269254Y765751D01*
X266536Y759187D01*
Y757455D01*
X264543Y755463D01*
X261670Y751163D01*
X260661Y746090D01*
Y743812D01*
X258688D01*
Y702190D01*
X316058D01*
Y743812D01*
X304238D01*
X300897Y748812D01*
X302252Y752083D01*
Y759187D01*
X299533Y765751D01*
X294510Y770774D01*
X287946Y773493D01*
D02*
G37*
G36*
X107426Y716411D02*
X97240D01*
X87401Y713774D01*
X78580Y708681D01*
X71378Y701479D01*
X66285Y692657D01*
X63648Y682819D01*
Y672633D01*
X66285Y662794D01*
X71378Y653972D01*
X78580Y646770D01*
X87401Y641677D01*
X97240Y639041D01*
X107426D01*
X117265Y641677D01*
X126086Y646770D01*
X133289Y653972D01*
X138382Y662794D01*
X138619Y663678D01*
X192885D01*
X196998Y664497D01*
X206664D01*
X212480Y665653D01*
X217410Y668948D01*
X220705Y673878D01*
X221862Y679694D01*
Y691505D01*
X220705Y697321D01*
X217410Y702251D01*
X212480Y705546D01*
X206664Y706703D01*
X196998D01*
X192885Y707521D01*
X127247D01*
X126086Y708681D01*
X117265Y713774D01*
X107426Y716411D01*
D02*
G37*
G36*
X558902Y664388D02*
X544721D01*
X530812Y661621D01*
X517710Y656194D01*
X505919Y648315D01*
X495891Y638288D01*
X488013Y626496D01*
X482586Y613395D01*
X479819Y599486D01*
Y585305D01*
X482586Y571396D01*
X488013Y558294D01*
X495891Y546503D01*
X505919Y536476D01*
X517710Y528597D01*
X530812Y523170D01*
X544721Y520403D01*
X558902D01*
X572811Y523170D01*
X585912Y528597D01*
X597704Y536476D01*
X607731Y546503D01*
X615610Y558294D01*
X621037Y571396D01*
X623803Y585305D01*
Y599486D01*
X621037Y613395D01*
X615610Y626496D01*
X607731Y638288D01*
X597704Y648315D01*
X585912Y656194D01*
X572811Y661621D01*
X558902Y664388D01*
D02*
G37*
G36*
X315744Y432316D02*
X308639D01*
X302076Y429597D01*
X297052Y424574D01*
X294333Y418010D01*
Y410906D01*
X297052Y404342D01*
X302076Y399318D01*
X308639Y396600D01*
X315744D01*
X322308Y399318D01*
X327331Y404342D01*
X330050Y410906D01*
Y418010D01*
X327331Y424574D01*
X322308Y429597D01*
X315744Y432316D01*
D02*
G37*
G36*
X314089Y363891D02*
X268530D01*
Y322765D01*
X265176Y320524D01*
X264869Y320217D01*
X263458D01*
X256895Y317498D01*
X251871Y312475D01*
X249152Y305911D01*
Y298807D01*
X251871Y292243D01*
X256895Y287219D01*
X263458Y284501D01*
X270563D01*
X277126Y287219D01*
X282150Y292243D01*
X283050Y294416D01*
X283530D01*
X285008Y294710D01*
X314089D01*
Y363891D01*
D02*
G37*
%LPD*%
D11*
X37000Y1066496D02*
D03*
Y1003504D02*
D03*
X1025000Y583504D02*
D03*
Y646496D02*
D03*
X179000Y1026496D02*
D03*
Y963504D02*
D03*
X417827Y807933D02*
D03*
Y870926D02*
D03*
X240129Y437568D02*
D03*
Y500560D02*
D03*
X515719Y116702D02*
D03*
Y53710D02*
D03*
X1712570Y1177726D02*
D03*
Y1240718D02*
D03*
X1651546Y1179694D02*
D03*
Y1242686D02*
D03*
X636192Y1333962D02*
D03*
Y1396954D02*
D03*
D13*
X322217Y1001351D02*
D03*
X366759Y1045893D02*
D03*
X314921Y1446187D02*
D03*
X359463Y1490729D02*
D03*
X135921Y1450187D02*
D03*
X180463Y1494729D02*
D03*
X203345Y1426375D02*
D03*
X158803Y1381833D02*
D03*
X133463Y1541729D02*
D03*
X88921Y1497187D02*
D03*
X547833Y1298422D02*
D03*
X503291Y1253880D02*
D03*
D14*
X1283465Y1015748D02*
D03*
X1220472D02*
D03*
X260680Y882795D02*
D03*
X197688D02*
D03*
X259496Y810000D02*
D03*
X196504D02*
D03*
X238160Y587174D02*
D03*
X301152D02*
D03*
X1649577Y1299773D02*
D03*
X1712570D02*
D03*
X1515719Y957253D02*
D03*
X1578711D02*
D03*
X1531467Y1236781D02*
D03*
X1594459D02*
D03*
X1460601Y957253D02*
D03*
X1397609D02*
D03*
X711688Y1526458D02*
D03*
X648696D02*
D03*
X388695Y1588458D02*
D03*
X451688D02*
D03*
X911389Y1463159D02*
D03*
X848396D02*
D03*
X848396Y1522214D02*
D03*
X911388D02*
D03*
D15*
X287373Y723001D02*
D03*
X956664Y732844D02*
D03*
X763751Y559615D02*
D03*
X131244Y922402D02*
D03*
D16*
X192885Y685600D02*
D03*
X287373Y648198D02*
D03*
X956664Y658041D02*
D03*
X862176Y695442D02*
D03*
X763751Y634418D02*
D03*
X858239Y597017D02*
D03*
X131244Y847598D02*
D03*
X36756Y885000D02*
D03*
D21*
X736192Y1669852D02*
D03*
X846428D02*
D03*
D26*
X956026Y227159D02*
D03*
X1931247Y960332D02*
D03*
X390444Y1746072D02*
D03*
D29*
X567000Y1155119D02*
Y1160041D01*
X537217Y1135584D02*
X547465D01*
X567000Y1155119D01*
Y1160041D02*
X576414Y1169455D01*
Y1169586D01*
X163291Y1414750D02*
X165150Y1416609D01*
X158803Y1381833D02*
Y1399773D01*
X163291Y1404262D01*
Y1414750D01*
X689776Y1189848D02*
Y1192714D01*
Y1189848D02*
Y1189848D01*
X281267Y1134076D02*
X282921Y1135729D01*
X1283465Y1015748D02*
X1346457Y952756D01*
Y921260D02*
Y952756D01*
X822786Y1522214D02*
X848396D01*
X811000Y1534000D02*
X822786Y1522214D01*
X581000Y1677000D02*
X657130D01*
X715865Y1618264D01*
X786192Y1492458D02*
Y1528499D01*
X715865Y1618264D02*
X720468D01*
X738733Y1600000D01*
X702650Y1585858D02*
X728833D01*
X786192Y1528499D01*
X648184Y1640324D02*
X702650Y1585858D01*
X702585Y1564000D02*
X726649D01*
X738733Y1600000D02*
X944733D01*
X999192Y1654458D01*
X229964Y902676D02*
X261097Y933808D01*
Y980059D01*
X266942Y985905D01*
Y1049171D01*
X282955Y962089D02*
X322217Y1001351D01*
X282955Y961022D02*
Y962089D01*
X416080Y1073999D02*
Y1073999D01*
Y1073999D02*
X431981Y1058098D01*
X430298Y1056415D02*
X431981Y1058098D01*
X37000Y1003504D02*
X65496Y1032000D01*
X119000D01*
X147765Y1003235D01*
Y993044D02*
X149419Y991390D01*
X147765Y993044D02*
Y1003235D01*
X149419Y988761D02*
Y991390D01*
X145018Y984360D02*
X149419Y988761D01*
X145018Y967131D02*
Y984360D01*
X138244Y960357D02*
X145018Y967131D01*
X138244Y922402D02*
Y960357D01*
X232556Y1036444D02*
X243594Y1025406D01*
X179000Y963504D02*
X217150D01*
X243594Y989948D01*
X266942Y1049171D02*
X268334Y1050563D01*
X232556Y1036444D02*
Y1058226D01*
X243594Y989948D02*
Y1025406D01*
X221735Y999002D02*
Y1023223D01*
X213000Y1031958D02*
X221735Y1023223D01*
X213000Y1031958D02*
Y1062711D01*
X229645Y1079355D01*
X260672Y1086341D02*
X278780D01*
X232556Y1058226D02*
X260672Y1086341D01*
X278780D02*
X280042Y1085079D01*
X282921D01*
X475809Y788809D02*
X484727D01*
X419073Y807933D02*
X453141Y773866D01*
Y769859D02*
X455000Y768000D01*
X475809Y788809D01*
X453141Y769859D02*
Y773866D01*
X417827Y807933D02*
X419073D01*
X260680Y882795D02*
X331024D01*
X342491Y894261D01*
X229964Y863441D02*
Y902676D01*
Y863441D02*
X230000Y863405D01*
X179000Y1026496D02*
Y1060661D01*
X174645Y1065016D02*
X179000Y1060661D01*
X174645Y1065016D02*
Y1067645D01*
X365826Y870926D02*
X417827D01*
X342491Y894261D02*
X365826Y870926D01*
X666522Y1287128D02*
X699192Y1254458D01*
X636192Y1333962D02*
X638160D01*
X666522Y1305600D01*
Y1287128D02*
Y1305600D01*
X281267Y1112796D02*
Y1134076D01*
Y1112796D02*
X282921Y1111142D01*
Y1085079D02*
Y1111142D01*
Y1085079D02*
X322107Y1045893D01*
X366759D01*
Y1032847D02*
Y1045893D01*
X763000Y997000D02*
X764177Y995823D01*
X775321D01*
X832758Y938386D01*
X327463Y1091187D02*
X346605Y1110329D01*
Y1134872D01*
X397943Y1186209D01*
X410943D01*
X411192Y1186458D01*
X956664Y710336D02*
X1020504Y646496D01*
X956664Y710336D02*
Y732844D01*
X1020504Y646496D02*
X1025000D01*
X1485806Y1191120D02*
X1531467Y1236781D01*
X1485530Y1191120D02*
X1485806D01*
X1284969Y1104680D02*
X1290664Y1098986D01*
X1284969Y1104680D02*
X1284969D01*
X39090Y1337696D02*
X43448Y1333338D01*
X16732D02*
X21090Y1337696D01*
X43448Y1330709D02*
Y1333338D01*
X21090Y1337696D02*
Y1395084D01*
X16732Y1330709D02*
Y1333338D01*
X417827Y870926D02*
X421890D01*
X732000Y870649D02*
Y951000D01*
X832758Y869891D02*
Y938386D01*
Y869891D02*
X881192Y821458D01*
X732000Y870649D02*
X781192Y821458D01*
X741192Y1090036D02*
Y1177546D01*
X581192Y921458D02*
X671459Y1011725D01*
X691732Y931998D02*
Y1016535D01*
X839192Y1163995D02*
Y1271027D01*
X691732Y1016535D02*
X839192Y1163995D01*
X671459Y1011725D02*
Y1020304D01*
X741192Y1090036D01*
X779102Y1303588D02*
Y1340001D01*
X746292Y1396853D02*
X801591Y1341554D01*
X779102Y1303588D02*
X779732Y1302958D01*
X799192Y1291505D02*
X801591Y1293904D01*
Y1341554D01*
X799192Y1254458D02*
Y1291505D01*
X722149Y1396954D02*
X779102Y1340001D01*
X731192Y1279026D02*
Y1316458D01*
Y1279026D02*
X739192Y1271026D01*
X746292Y1396853D02*
Y1496358D01*
X636192Y1396954D02*
X722149D01*
X21090Y1395084D02*
X93101Y1467095D01*
X39090Y1387629D02*
X105829Y1454368D01*
X39090Y1337696D02*
Y1387629D01*
X93101Y1467095D02*
Y1473723D01*
X88921Y1497187D02*
X92172Y1493936D01*
X112457Y1454368D02*
X113386Y1453438D01*
X92172Y1474652D02*
X93101Y1473723D01*
X92172Y1474652D02*
Y1493936D01*
X113386Y1453438D02*
X132669D01*
X105829Y1454368D02*
X112457D01*
X1507530Y1405214D02*
X1511056D01*
X1501980Y1410764D02*
X1507530Y1405214D01*
X1467299Y1382259D02*
X1495804Y1410764D01*
X1501980D01*
X1431524Y1493083D02*
Y1500128D01*
X1434403Y1503007D01*
X273916Y730812D02*
Y746090D01*
X283461Y755635D01*
X284394D01*
X281727Y723001D02*
X287373D01*
X273916Y730812D02*
X281727Y723001D01*
X58823Y561787D02*
X64932Y555678D01*
X34736Y561787D02*
X58823D01*
X25192Y571332D02*
X34736Y561787D01*
X25192Y571332D02*
Y572458D01*
X159192Y555907D02*
X159420Y555678D01*
X159192Y555907D02*
Y590458D01*
X724381Y671269D02*
Y728647D01*
X763192Y767458D01*
X891983D01*
X926597Y732844D01*
X956664D01*
X697192Y644080D02*
X724381Y671269D01*
X697192Y577458D02*
Y644080D01*
Y577458D02*
X715034Y559615D01*
X763751D01*
X212192Y1526458D02*
Y1542458D01*
X180463Y1494729D02*
X212192Y1526458D01*
X141833Y1541729D02*
X163192Y1563087D01*
Y1565458D01*
X133463Y1541729D02*
X141833D01*
X739192Y1232144D02*
Y1271026D01*
X732333Y1225286D02*
X739192Y1232144D01*
X732333Y1186404D02*
X741192Y1177546D01*
X732333Y1186404D02*
Y1225286D01*
X830692Y1279527D02*
Y1397958D01*
Y1279527D02*
X839192Y1271027D01*
X681192Y921458D02*
X691732Y931998D01*
X648696Y1553962D02*
X660192Y1565458D01*
X648696Y1526458D02*
Y1553962D01*
X1532192Y1003773D02*
Y1085458D01*
Y1003773D02*
X1578711Y957253D01*
X767192Y1461458D02*
X830692Y1397958D01*
X767192Y1461458D02*
Y1523458D01*
X726649Y1564000D02*
X767192Y1523458D01*
X786192Y1492458D02*
X815491Y1463159D01*
X848396D01*
X451978Y148244D02*
Y152244D01*
X440875Y137142D02*
X451978Y148244D01*
Y152244D02*
X453837Y154104D01*
X515719Y116702D02*
X518466Y119449D01*
Y141732D01*
X584192Y207458D01*
X394192Y90458D02*
Y101772D01*
X429562Y137142D01*
X440875D01*
X1459387Y1503007D02*
X1472192Y1490202D01*
Y1472094D02*
Y1490202D01*
X1465790Y1465692D02*
X1472192Y1472094D01*
X1434403Y1503007D02*
X1459387D01*
X1465790Y1464266D02*
Y1465692D01*
X1422333Y1483892D02*
X1431524Y1493083D01*
X1425541Y1424017D02*
X1465790Y1464266D01*
X1422333Y1475384D02*
Y1483892D01*
X1398804Y1451856D02*
X1422333Y1475384D01*
X1397702Y1451856D02*
X1398804D01*
X132669Y1453438D02*
X135921Y1450187D01*
X1449878Y1481148D02*
X1450333D01*
X1440333Y1471604D02*
X1449878Y1481148D01*
X1440333Y1467929D02*
Y1471604D01*
X1435061Y1462657D02*
X1440333Y1467929D01*
X1435061Y1462478D02*
Y1462657D01*
X1421554Y1393294D02*
X1422657D01*
X1439460Y1410098D01*
X1411621Y1439039D02*
X1435061Y1462478D01*
X1411621Y1437936D02*
Y1439039D01*
X1394818Y1420030D02*
Y1421133D01*
X1411621Y1437936D01*
X1388182Y1413394D02*
X1394818Y1420030D01*
X1414918Y1386658D02*
X1421554Y1393294D01*
X1404149Y1386658D02*
X1414918D01*
X1388182Y1402625D02*
Y1413394D01*
Y1402625D02*
X1404149Y1386658D01*
X458048Y1056415D02*
X459435Y1057802D01*
X430298Y1056415D02*
X458048D01*
X1532192Y1085458D02*
X1545719Y1098986D01*
X1581664D01*
X1290664D02*
X1359223D01*
X1277034Y1059616D02*
X1359223D01*
X1251192Y1085458D02*
X1277034Y1059616D01*
X1359223Y991119D02*
Y1020245D01*
X1361192Y1415458D02*
Y1430761D01*
X1383783Y1464673D02*
Y1465775D01*
X1360343Y1441233D02*
X1383783Y1464673D01*
X1360343Y1431609D02*
Y1441233D01*
Y1431609D02*
X1361192Y1430761D01*
X1421192Y1363990D02*
X1453380Y1396178D01*
X1338548Y1448380D02*
X1369863Y1479695D01*
X1338548Y1447957D02*
Y1448380D01*
X467332Y1617098D02*
X469192Y1618957D01*
X467332Y1608700D02*
Y1617098D01*
X911389Y1463159D02*
X990491D01*
X999192Y1454458D01*
X911388Y1463159D02*
Y1522214D01*
Y1463159D02*
X911389Y1463159D01*
X728878Y1513772D02*
X746292Y1496358D01*
X350165Y1278458D02*
X361363Y1289657D01*
X363993D01*
X711688Y1526458D02*
X724374Y1513772D01*
X728878D01*
X281192Y1412458D02*
X314921Y1446187D01*
X255192Y1412458D02*
X281192D01*
X359463Y1490729D02*
X379192Y1510458D01*
X393192D01*
X413333Y1531316D02*
X414192D01*
X388695Y1555954D02*
X413333Y1531316D01*
X388695Y1555954D02*
Y1588458D01*
X282921Y1135729D02*
X291463D01*
X325192Y1169458D01*
X451688Y1593056D02*
X467332Y1608700D01*
X451688Y1588458D02*
Y1593056D01*
X469192Y1618957D02*
X469243D01*
X202192Y1385564D02*
Y1403040D01*
X202877Y1403726D01*
X518192Y1361458D02*
X547833Y1331817D01*
Y1298422D02*
Y1331817D01*
X305921Y1247729D02*
X336649Y1278458D01*
X350165D01*
X422401Y1250400D02*
X473578Y1199224D01*
X407249Y1250400D02*
X422401D01*
X405390Y1252259D02*
X407249Y1250400D01*
X327051Y1179775D02*
X350463Y1203187D01*
X327051Y1171317D02*
Y1179775D01*
X325192Y1169458D02*
X327051Y1171317D01*
X417366Y1339804D02*
X503291Y1253880D01*
X449408Y1411360D02*
X473192Y1387576D01*
X400195Y1362147D02*
X419952Y1342390D01*
X502824Y1253413D02*
X503291Y1253880D01*
X502824Y1228469D02*
Y1253413D01*
X473578Y1199224D02*
X502824Y1228469D01*
X395796Y1121442D02*
X398580Y1124226D01*
X426330D01*
X429113Y1121442D01*
X464176D01*
X518192Y1175458D01*
D30*
X1274127Y981063D02*
X1295276Y959914D01*
X1250748Y995039D02*
X1264724Y981063D01*
X1228973Y1008324D02*
Y1026217D01*
Y1008324D02*
X1231971Y1005326D01*
X1264724Y981063D02*
X1274127D01*
X1231971Y1005326D02*
X1243718D01*
X1250748Y998296D01*
Y995039D02*
Y998296D01*
X17826Y1251174D02*
X51199Y1217801D01*
X17826Y1251174D02*
Y1261035D01*
X16732Y1262129D02*
X17826Y1261035D01*
X37000Y1066496D02*
Y1203602D01*
X51199Y1217801D01*
X43756Y926235D02*
X102333Y984812D01*
X43756Y885000D02*
Y926235D01*
X956664Y658041D02*
X964538D01*
X970349Y652230D01*
Y644356D02*
Y652230D01*
Y644356D02*
X1013079Y601625D01*
Y595003D02*
Y601625D01*
Y595003D02*
X1024578Y583504D01*
X1025000D01*
X122018Y313426D02*
X132192Y303253D01*
Y244458D02*
Y303253D01*
X269733Y303453D02*
X275990Y309710D01*
X268104Y303453D02*
X269733D01*
X267010Y302359D02*
X268104Y303453D01*
X369964Y278403D02*
X375096D01*
X366113Y274552D02*
X369964Y278403D01*
X375096D02*
X375495Y278802D01*
X275990Y309710D02*
X283530D01*
X366113Y234812D02*
Y274552D01*
X291310Y317489D02*
Y329300D01*
X283530Y309710D02*
X291310Y317489D01*
X366113Y329300D02*
X369885Y333073D01*
Y392303D01*
X368081Y394107D02*
X369885Y392303D01*
X368081Y394107D02*
Y395654D01*
X1610207Y1177726D02*
X1612176Y1175757D01*
X1581664Y1177726D02*
X1610207D01*
X1612176Y1175757D02*
X1651546D01*
X1668636Y1190879D02*
Y1194816D01*
X1651546Y1175757D02*
X1653514D01*
X1668636Y1190879D01*
Y1194816D02*
X1710601Y1236781D01*
X1712570D01*
X1712570Y1254497D02*
X1712570Y1254497D01*
Y1236781D02*
Y1254497D01*
X1712570Y1254497D02*
Y1295836D01*
X1562923Y1334796D02*
X1571996Y1343869D01*
X1589876D01*
X1598949Y1334796D01*
X1612586D01*
X1649577Y1297804D01*
Y1295836D02*
Y1297804D01*
D32*
X1581664Y1138356D02*
X1688356D01*
X1703435Y1168591D02*
X1712570Y1177726D01*
X1703435Y1153435D02*
Y1168591D01*
X1688356Y1138356D02*
X1703435Y1153435D01*
X1633192Y1065458D02*
X1635192D01*
X1625475Y1073175D02*
X1633192Y1065458D01*
X1611065Y1073175D02*
X1625475D01*
X1605207Y1067317D02*
X1611065Y1073175D01*
X1597906Y1059616D02*
X1605207Y1066917D01*
X1581664Y1059616D02*
X1597906D01*
X1605207Y1066917D02*
Y1067317D01*
X1615376Y1024642D02*
X1629192Y1038458D01*
X1586061Y1024642D02*
X1615376D01*
X1581664Y1020245D02*
X1586061Y1024642D01*
X64932Y480875D02*
X72829Y472978D01*
Y442509D02*
Y472978D01*
X206655Y434056D02*
X208131Y435533D01*
X238093D02*
X240129Y437568D01*
X208131Y435533D02*
X238093D01*
X1275192Y1182458D02*
X1277280D01*
X1282012Y1177726D01*
X1359223D01*
X59119Y512464D02*
X64932Y518277D01*
X1455192Y1314458D02*
Y1331177D01*
Y1314458D02*
X1498192Y1271458D01*
X1559782D01*
X1594459Y1236781D01*
X1600365Y1242686D02*
X1651546D01*
X1594459Y1236781D02*
X1600365Y1242686D01*
X1460601Y957253D02*
X1515719D01*
X1397609D02*
X1407944Y967588D01*
Y977548D01*
X1408192Y977796D01*
Y1123458D01*
X1395313Y1136337D02*
X1408192Y1123458D01*
X1361242Y1136337D02*
X1395313D01*
X1359223Y1138356D02*
X1361242Y1136337D01*
D33*
X858239Y597017D02*
Y691505D01*
X862176Y695442D01*
X868081Y587174D02*
X944853D01*
X858239Y597017D02*
X868081Y587174D01*
D34*
X160707Y459942D02*
X170530Y469765D01*
X132192Y374458D02*
X133837D01*
X160707Y401328D01*
Y459942D01*
X189038Y519556D02*
X206065Y536583D01*
Y539545D01*
X160700Y519556D02*
X189038D01*
X301637Y281903D02*
X313688D01*
X301450Y281716D02*
X301637Y281903D01*
X313688D02*
X327432Y295647D01*
Y328021D02*
X328711Y329300D01*
X327432Y295647D02*
Y328021D01*
X238160Y587174D02*
X243377Y581958D01*
Y577066D02*
Y581958D01*
Y577066D02*
X258022Y562421D01*
X265318D01*
X159420Y518277D02*
X160700Y519556D01*
X757255Y634418D02*
X763751D01*
X756566Y633730D02*
X757255Y634418D01*
X756566Y622832D02*
Y633730D01*
X724381Y590647D02*
X756566Y622832D01*
X763751Y707017D02*
X798676Y741942D01*
X763751Y634418D02*
Y707017D01*
X798676Y741942D02*
X881437D01*
X910192Y713187D01*
Y704513D02*
Y713187D01*
Y704513D02*
X949479Y665226D01*
Y658730D02*
Y665226D01*
Y658730D02*
X950168Y658041D01*
X956664D01*
X245050Y234812D02*
X291310D01*
X329991Y203659D02*
X337928Y195721D01*
X328711Y234812D02*
X329991Y233533D01*
Y203659D02*
Y233533D01*
X515719Y53710D02*
X520936Y58926D01*
X534085D01*
X584192Y109033D01*
X394192Y80580D02*
Y90458D01*
Y80580D02*
X421062Y53710D01*
X515719D01*
X291310Y156946D02*
Y234812D01*
X264192Y129828D02*
X291310Y156946D01*
X264192Y90458D02*
Y129828D01*
X119508Y685600D02*
X192885D01*
X111634Y677726D02*
X119508Y685600D01*
X102333Y677726D02*
X111634D01*
X1252098Y1529052D02*
Y1732963D01*
X1213781Y1808458D02*
X1250692Y1771547D01*
Y1734369D02*
Y1771547D01*
Y1734369D02*
X1252098Y1732963D01*
X1260192Y1518594D02*
Y1520958D01*
X1252098Y1529052D02*
X1260192Y1520958D01*
Y1518594D02*
X1310192Y1468594D01*
Y1458997D02*
Y1468594D01*
X753192Y1808458D02*
X1213781D01*
X699192Y1754458D02*
X753192Y1808458D01*
X731714Y1674329D02*
X736192Y1669852D01*
X731714Y1674329D02*
Y1721936D01*
X699192Y1754458D02*
X731714Y1721936D01*
X846428Y1669852D02*
Y1679534D01*
X833360Y1692602D02*
X846428Y1679534D01*
X823677Y1692602D02*
X833360D01*
X801115Y1715165D02*
X823677Y1692602D01*
X801115Y1715165D02*
Y1752535D01*
X799192Y1754458D02*
X801115Y1752535D01*
D35*
X170530Y469765D02*
X176262Y475497D01*
X228732Y500560D02*
X283294D01*
X176262Y475497D02*
X203668D01*
X228732Y500560D01*
D36*
X689776Y1147495D02*
Y1189848D01*
X673142Y1088508D02*
Y1130860D01*
Y1088508D02*
X678192Y1083458D01*
X673142Y1130860D02*
X689776Y1147495D01*
X1358268Y851378D02*
X1477378D01*
X1518000Y892000D01*
X213298Y1374458D02*
X323421D01*
X203345Y1384411D02*
X213298Y1374458D01*
X203345Y1426375D02*
X204737Y1424983D01*
X203345Y1412678D02*
X204737Y1414070D01*
Y1424983D01*
X203345Y1384411D02*
Y1412678D01*
X455330Y1492343D02*
X460906Y1497919D01*
X444587Y1481600D02*
X455330Y1492343D01*
X689776Y1189848D02*
X689776D01*
X607679Y1271945D02*
X689776Y1189848D01*
X176929Y858929D02*
X189972Y871972D01*
Y875078D01*
X197688Y882795D01*
X176929Y831944D02*
X188787Y820085D01*
Y817717D02*
Y820085D01*
X176929Y831944D02*
Y844000D01*
Y858929D01*
X188787Y817717D02*
X196504Y810000D01*
X1389192Y1323458D02*
X1397192Y1315458D01*
X1310192Y1402458D02*
X1389192Y1323458D01*
X1460601Y957253D02*
Y1089143D01*
X1470444Y1098986D01*
X1455475Y952127D02*
X1460601Y957253D01*
X1397192Y1315458D02*
X1439473D01*
X1310192Y1402458D02*
Y1458997D01*
X1439473Y1315458D02*
X1455192Y1331177D01*
X1486786Y1362772D01*
X1310192Y1458997D02*
X1350376Y1499182D01*
X594192Y1293561D02*
X607679Y1280074D01*
X489039Y1491008D02*
X594192Y1385855D01*
X607679Y1271945D02*
Y1280074D01*
X594192Y1293561D02*
Y1385855D01*
X451688Y1538773D02*
X460906Y1529555D01*
X441476Y1481600D02*
X444587D01*
X451688Y1538773D02*
Y1588458D01*
X415778Y1455902D02*
X441476Y1481600D01*
X455330Y1492343D02*
X462069D01*
X404865Y1455902D02*
X415778D01*
X460906Y1497919D02*
Y1529555D01*
X462069Y1492343D02*
X463403Y1491008D01*
X489039D01*
X355653Y1406689D02*
X404865Y1455902D01*
X547833Y1298422D02*
X549225Y1297030D01*
Y1286117D02*
Y1297030D01*
X547833Y1284725D02*
X549225Y1286117D01*
X547833Y1258350D02*
Y1284725D01*
Y1258350D02*
X568704Y1237478D01*
Y1232971D02*
Y1237478D01*
X396192Y1282458D02*
Y1301688D01*
X323421Y1374458D02*
X396192Y1301688D01*
X372192Y1258458D02*
X396192Y1282458D01*
X372192Y1227680D02*
Y1258458D01*
X350463Y1203187D02*
Y1205951D01*
X372192Y1227680D01*
X323421Y1374458D02*
X355653Y1406689D01*
D37*
X1172829Y1949127D02*
D03*
D38*
X1074404D02*
D03*
X975979D02*
D03*
X877554D02*
D03*
X102333Y677726D02*
D03*
Y984812D02*
D03*
X584192Y305883D02*
D03*
Y207458D02*
D03*
X342491Y795836D02*
D03*
D39*
X699192Y1354458D02*
D03*
X699192Y1254458D02*
D03*
Y1454458D02*
D03*
X1099192Y1754458D02*
D03*
X1199192Y1754458D02*
D03*
X999192Y1754458D02*
D03*
X899192D02*
D03*
X1399192Y1254458D02*
D03*
Y1754458D02*
D03*
X799192Y1754458D02*
D03*
X799192Y1254458D02*
D03*
X899192Y1254458D02*
D03*
X999192Y1254458D02*
D03*
X1099192D02*
D03*
X1199192Y1254458D02*
D03*
X1299192Y1254458D02*
D03*
Y1754458D02*
D03*
X699192Y1754458D02*
D03*
D40*
X102333Y776151D02*
D03*
Y1083237D02*
D03*
X584192Y109033D02*
D03*
X342491Y894261D02*
D03*
D41*
X1081192Y921458D02*
D03*
D42*
X981192D02*
D03*
X881192D02*
D03*
X781192D02*
D03*
X681192D02*
D03*
X581192D02*
D03*
D43*
X1081192Y821458D02*
D03*
D44*
X981192D02*
D03*
X881192D02*
D03*
X781192D02*
D03*
X1199192Y1554458D02*
D03*
Y1454458D02*
D03*
X1099192D02*
D03*
Y1554458D02*
D03*
Y1654458D02*
D03*
X999192Y1454458D02*
D03*
Y1554458D02*
D03*
X999192Y1654458D02*
D03*
D45*
X1144853Y587174D02*
D03*
D46*
X944853D02*
D03*
D47*
X1933042Y1449009D02*
D03*
X1440916Y1945442D02*
D03*
X551811Y592395D02*
D03*
X1023622Y1095204D02*
D03*
D48*
X1199192Y1354458D02*
D03*
X1099192D02*
D03*
X999192Y1354458D02*
D03*
D49*
X1438762Y1691690D02*
D03*
X1679289Y1451162D02*
D03*
D50*
X1376963Y1550266D02*
D03*
X1537866Y1389363D02*
D03*
D51*
X1322396Y1575323D02*
D03*
X1562923Y1334796D02*
D03*
D52*
X701000Y1108000D02*
D03*
X576414Y1169586D02*
D03*
X754192Y1195458D02*
D03*
X165150Y1416609D02*
D03*
X1291339Y716535D02*
D03*
X1244094D02*
D03*
X1267716D02*
D03*
X1244094Y692913D02*
D03*
X1267716D02*
D03*
X1291339D02*
D03*
X1381890Y716535D02*
D03*
X1358268D02*
D03*
X1334646D02*
D03*
Y692913D02*
D03*
X1358268D02*
D03*
X1381890D02*
D03*
X447000Y210000D02*
D03*
X1472441Y692913D02*
D03*
X1448819D02*
D03*
X1425197D02*
D03*
Y716535D02*
D03*
X1448819D02*
D03*
X1472441D02*
D03*
X1346457Y921260D02*
D03*
X1295276Y959914D02*
D03*
X539461Y1604403D02*
D03*
X201000Y1619000D02*
D03*
X811000Y1534000D02*
D03*
X420000Y1616000D02*
D03*
X283000Y1622000D02*
D03*
X581000Y1677000D02*
D03*
X648184Y1640324D02*
D03*
X702585Y1564000D02*
D03*
X652113Y1188113D02*
D03*
X678000Y1709000D02*
D03*
X150000Y886000D02*
D03*
X176929Y844000D02*
D03*
X282955Y961022D02*
D03*
X529251Y960828D02*
D03*
X416080Y1073999D02*
D03*
X71000Y1377000D02*
D03*
X149419Y991390D02*
D03*
X16732Y1262129D02*
D03*
X51199Y1217801D02*
D03*
X455000Y768000D02*
D03*
X291000Y833000D02*
D03*
X613781Y1211781D02*
D03*
X598000Y1066000D02*
D03*
X411192Y1186458D02*
D03*
X763000Y997000D02*
D03*
X1485530Y1191120D02*
D03*
X1284969Y1104680D02*
D03*
X1518000Y892000D02*
D03*
X1722000Y1114379D02*
D03*
X1635192Y1065458D02*
D03*
X1629192Y1038458D02*
D03*
X90000Y1286000D02*
D03*
X43448Y1330709D02*
D03*
X77690Y1172044D02*
D03*
X732000Y951000D02*
D03*
X151645Y1090645D02*
D03*
X174645Y1067645D02*
D03*
X91126Y1147781D02*
D03*
X134843Y1150591D02*
D03*
X210311Y1165928D02*
D03*
X779732Y1302958D02*
D03*
X731192Y1316458D02*
D03*
X749875Y1338316D02*
D03*
X221735Y999002D02*
D03*
X16732Y1330709D02*
D03*
X1431524Y1500128D02*
D03*
X459192Y814458D02*
D03*
X284394Y755635D02*
D03*
X25192Y572458D02*
D03*
X206065Y539545D02*
D03*
X206655Y434056D02*
D03*
X285192Y502458D02*
D03*
X312192Y414458D02*
D03*
X301450Y281716D02*
D03*
X267010Y302359D02*
D03*
X375495Y278802D02*
D03*
X244192Y363458D02*
D03*
X92491Y313426D02*
D03*
X110207Y583458D02*
D03*
X72829Y442509D02*
D03*
X159192Y590458D02*
D03*
X265318Y562421D02*
D03*
X724381Y671269D02*
D03*
X460192Y349458D02*
D03*
X489192Y425458D02*
D03*
X509192Y354458D02*
D03*
X910192Y704513D02*
D03*
X724381Y590647D02*
D03*
X212192Y1542458D02*
D03*
X163192Y1565458D02*
D03*
X660192D02*
D03*
X678192Y1083458D02*
D03*
X1512261Y994797D02*
D03*
X1275192Y1182458D02*
D03*
X604062Y1494027D02*
D03*
X585143Y1512891D02*
D03*
X646192Y1742458D02*
D03*
X245050Y234812D02*
D03*
X181192Y62458D02*
D03*
X368081Y395654D02*
D03*
X453837Y154104D02*
D03*
X464192Y104458D02*
D03*
X337928Y195721D02*
D03*
X166577Y156072D02*
D03*
X122018Y313426D02*
D03*
X62963D02*
D03*
X1764192Y1402175D02*
D03*
X1450333Y1481148D02*
D03*
X1764192Y1375458D02*
D03*
X1750310Y1233135D02*
D03*
X1251192Y1085458D02*
D03*
X1356192Y985458D02*
D03*
X1361192Y1415458D02*
D03*
X1511056Y1405214D02*
D03*
X1389192Y1323458D02*
D03*
X1421192Y1363990D02*
D03*
X1696192Y1339458D02*
D03*
X1338548Y1447957D02*
D03*
X1643814Y1337316D02*
D03*
X469192Y1618957D02*
D03*
X363993Y1289657D02*
D03*
X393192Y1510458D02*
D03*
X414192Y1531316D02*
D03*
X475192Y1319458D02*
D03*
X202192Y1385564D02*
D03*
X518192Y1361458D02*
D03*
X405390Y1252259D02*
D03*
X325192Y1169458D02*
D03*
X255192Y1412458D02*
D03*
X490192Y1343458D02*
D03*
X473192Y1387576D02*
D03*
X419952Y1342390D02*
D03*
X518192Y1175458D02*
D03*
D53*
X1492097Y1142293D02*
D03*
X1448790D02*
D03*
X1492097Y1098986D02*
D03*
X1448790D02*
D03*
X1492097Y1055678D02*
D03*
X1448790D02*
D03*
D55*
X1358268Y851378D02*
D03*
D56*
X1267716Y621063D02*
D03*
X1358268Y621063D02*
D03*
D57*
X1448819Y621063D02*
D03*
D58*
X280800Y1134607D02*
D03*
X325342Y1090064D02*
D03*
X268334Y1050563D02*
D03*
X223792Y1095106D02*
D03*
X400195Y1362147D02*
D03*
X355653Y1406689D02*
D03*
X449408Y1411360D02*
D03*
X404865Y1455902D02*
D03*
X305921Y1247729D02*
D03*
X350463Y1203187D02*
D03*
D59*
X132192Y374458D02*
D03*
Y244458D02*
D03*
D60*
X159420Y480875D02*
D03*
Y518277D02*
D03*
Y555678D02*
D03*
X64932D02*
D03*
Y518277D02*
D03*
D61*
Y480875D02*
D03*
D62*
X264192Y90458D02*
D03*
X394192D02*
D03*
D63*
X291310Y234812D02*
D03*
X328711Y234812D02*
D03*
X366113Y234812D02*
D03*
Y329300D02*
D03*
X328711Y329300D02*
D03*
D64*
X291310Y329300D02*
D03*
D65*
X607679Y1271945D02*
D03*
X568704Y1232971D02*
D03*
D66*
X1581664Y1177726D02*
D03*
D67*
Y1138356D02*
D03*
Y1098986D02*
D03*
Y1059616D02*
D03*
Y1020245D02*
D03*
X1359223Y1177726D02*
D03*
Y1138356D02*
D03*
Y1098986D02*
D03*
Y1059616D02*
D03*
Y1020245D02*
D03*
D68*
X1470444Y1098986D02*
D03*
D69*
X537217Y1135584D02*
D03*
X473578Y1199224D02*
D03*
X459435Y1057802D02*
D03*
X395796Y1121442D02*
D03*
D70*
X1467299Y1382259D02*
D03*
X1453380Y1396178D02*
D03*
X1369863Y1479695D02*
D03*
X1383783Y1465775D02*
D03*
X1411621Y1437936D02*
D03*
X1425541Y1424017D02*
D03*
X1397702Y1451856D02*
D03*
X1439460Y1410098D02*
D03*
D71*
X1328105Y1521453D02*
D03*
X1509057Y1340500D02*
D03*
X1486786Y1362772D02*
D03*
X1350376Y1499182D02*
D03*
D72*
X1267716Y653543D02*
D03*
X1448819D02*
D03*
D73*
X1358268Y725839D02*
D03*
D74*
X160707Y441458D02*
D03*
D75*
X98483Y292773D02*
D03*
%TF.MD5,44599ac2c834454caf6b755d858f6765*%
M02*
