%TF.GenerationSoftware,Altium Limited,Altium Designer,23.4.1 (23)*%
G04 Layer_Physical_Order=1*
G04 Layer_Color=255*
%FSLAX26Y26*%
%MOIN*%
%TF.SameCoordinates,1F395C4B-4EE4-4E32-9856-E664E5071CD5*%
%TF.FilePolarity,Positive*%
%TF.FileFunction,Copper,L1,Top,Signal*%
%TF.Part,CustomerPanel*%
G01*
G75*
%TA.AperFunction,SMDPad,CuDef*%
%ADD10C,0.039000*%
G04:AMPARAMS|DCode=11|XSize=39.37mil|YSize=35.433mil|CornerRadius=8.858mil|HoleSize=0mil|Usage=FLASHONLY|Rotation=0.000|XOffset=0mil|YOffset=0mil|HoleType=Round|Shape=RoundedRectangle|*
%AMROUNDEDRECTD11*
21,1,0.039370,0.017717,0,0,0.0*
21,1,0.021654,0.035433,0,0,0.0*
1,1,0.017716,0.010827,-0.008858*
1,1,0.017716,-0.010827,-0.008858*
1,1,0.017716,-0.010827,0.008858*
1,1,0.017716,0.010827,0.008858*
%
%ADD11ROUNDEDRECTD11*%
G04:AMPARAMS|DCode=12|XSize=58.071mil|YSize=11.811mil|CornerRadius=2.953mil|HoleSize=0mil|Usage=FLASHONLY|Rotation=225.000|XOffset=0mil|YOffset=0mil|HoleType=Round|Shape=RoundedRectangle|*
%AMROUNDEDRECTD12*
21,1,0.058071,0.005905,0,0,225.0*
21,1,0.052165,0.011811,0,0,225.0*
1,1,0.005906,-0.020531,-0.016355*
1,1,0.005906,0.016355,0.020531*
1,1,0.005906,0.020531,0.016355*
1,1,0.005906,-0.016355,-0.020531*
%
%ADD12ROUNDEDRECTD12*%
G04:AMPARAMS|DCode=13|XSize=39.37mil|YSize=35.433mil|CornerRadius=8.858mil|HoleSize=0mil|Usage=FLASHONLY|Rotation=315.000|XOffset=0mil|YOffset=0mil|HoleType=Round|Shape=RoundedRectangle|*
%AMROUNDEDRECTD13*
21,1,0.039370,0.017717,0,0,315.0*
21,1,0.021654,0.035433,0,0,315.0*
1,1,0.017716,0.001392,-0.013920*
1,1,0.017716,-0.013920,0.001392*
1,1,0.017716,-0.001392,0.013920*
1,1,0.017716,0.013920,-0.001392*
%
%ADD13ROUNDEDRECTD13*%
G04:AMPARAMS|DCode=14|XSize=39.37mil|YSize=35.433mil|CornerRadius=8.858mil|HoleSize=0mil|Usage=FLASHONLY|Rotation=90.000|XOffset=0mil|YOffset=0mil|HoleType=Round|Shape=RoundedRectangle|*
%AMROUNDEDRECTD14*
21,1,0.039370,0.017717,0,0,90.0*
21,1,0.021654,0.035433,0,0,90.0*
1,1,0.017716,0.008858,0.010827*
1,1,0.017716,0.008858,-0.010827*
1,1,0.017716,-0.008858,-0.010827*
1,1,0.017716,-0.008858,0.010827*
%
%ADD14ROUNDEDRECTD14*%
%ADD15R,0.039370X0.023622*%
G04:AMPARAMS|DCode=16|XSize=23.622mil|YSize=39.37mil|CornerRadius=5.906mil|HoleSize=0mil|Usage=FLASHONLY|Rotation=90.000|XOffset=0mil|YOffset=0mil|HoleType=Round|Shape=RoundedRectangle|*
%AMROUNDEDRECTD16*
21,1,0.023622,0.027559,0,0,90.0*
21,1,0.011811,0.039370,0,0,90.0*
1,1,0.011811,0.013780,0.005906*
1,1,0.011811,0.013780,-0.005906*
1,1,0.011811,-0.013780,-0.005906*
1,1,0.011811,-0.013780,0.005906*
%
%ADD16ROUNDEDRECTD16*%
G04:AMPARAMS|DCode=17|XSize=47.244mil|YSize=31.496mil|CornerRadius=7.874mil|HoleSize=0mil|Usage=FLASHONLY|Rotation=90.000|XOffset=0mil|YOffset=0mil|HoleType=Round|Shape=RoundedRectangle|*
%AMROUNDEDRECTD17*
21,1,0.047244,0.015748,0,0,90.0*
21,1,0.031496,0.031496,0,0,90.0*
1,1,0.015748,0.007874,0.015748*
1,1,0.015748,0.007874,-0.015748*
1,1,0.015748,-0.007874,-0.015748*
1,1,0.015748,-0.007874,0.015748*
%
%ADD17ROUNDEDRECTD17*%
%ADD18R,0.031496X0.047244*%
%ADD19R,0.033465X0.037402*%
G04:AMPARAMS|DCode=20|XSize=37.402mil|YSize=33.465mil|CornerRadius=8.366mil|HoleSize=0mil|Usage=FLASHONLY|Rotation=270.000|XOffset=0mil|YOffset=0mil|HoleType=Round|Shape=RoundedRectangle|*
%AMROUNDEDRECTD20*
21,1,0.037402,0.016732,0,0,270.0*
21,1,0.020669,0.033465,0,0,270.0*
1,1,0.016732,-0.008366,-0.010335*
1,1,0.016732,-0.008366,0.010335*
1,1,0.016732,0.008366,0.010335*
1,1,0.016732,0.008366,-0.010335*
%
%ADD20ROUNDEDRECTD20*%
G04:AMPARAMS|DCode=21|XSize=70.866mil|YSize=51.181mil|CornerRadius=12.795mil|HoleSize=0mil|Usage=FLASHONLY|Rotation=270.000|XOffset=0mil|YOffset=0mil|HoleType=Round|Shape=RoundedRectangle|*
%AMROUNDEDRECTD21*
21,1,0.070866,0.025591,0,0,270.0*
21,1,0.045276,0.051181,0,0,270.0*
1,1,0.025590,-0.012795,-0.022638*
1,1,0.025590,-0.012795,0.022638*
1,1,0.025590,0.012795,0.022638*
1,1,0.025590,0.012795,-0.022638*
%
%ADD21ROUNDEDRECTD21*%
G04:AMPARAMS|DCode=22|XSize=58.071mil|YSize=11.811mil|CornerRadius=0mil|HoleSize=0mil|Usage=FLASHONLY|Rotation=135.000|XOffset=0mil|YOffset=0mil|HoleType=Round|Shape=Rectangle|*
%AMROTATEDRECTD22*
4,1,4,0.024707,-0.016355,0.016355,-0.024707,-0.024707,0.016355,-0.016355,0.024707,0.024707,-0.016355,0.0*
%
%ADD22ROTATEDRECTD22*%

G04:AMPARAMS|DCode=23|XSize=58.071mil|YSize=11.811mil|CornerRadius=0mil|HoleSize=0mil|Usage=FLASHONLY|Rotation=135.000|XOffset=0mil|YOffset=0mil|HoleType=Round|Shape=Round|*
%AMOVALD23*
21,1,0.046260,0.011811,0.000000,0.000000,135.0*
1,1,0.011811,0.016355,-0.016355*
1,1,0.011811,-0.016355,0.016355*
%
%ADD23OVALD23*%

G04:AMPARAMS|DCode=24|XSize=58.071mil|YSize=11.811mil|CornerRadius=2.953mil|HoleSize=0mil|Usage=FLASHONLY|Rotation=135.000|XOffset=0mil|YOffset=0mil|HoleType=Round|Shape=RoundedRectangle|*
%AMROUNDEDRECTD24*
21,1,0.058071,0.005905,0,0,135.0*
21,1,0.052165,0.011811,0,0,135.0*
1,1,0.005906,-0.016355,0.020531*
1,1,0.005906,0.020531,-0.016355*
1,1,0.005906,0.016355,-0.020531*
1,1,0.005906,-0.020531,0.016355*
%
%ADD24ROUNDEDRECTD24*%
%ADD25R,0.047244X0.039370*%
%TA.AperFunction,FiducialPad,Global*%
%ADD26C,0.059055*%
%TA.AperFunction,SMDPad,CuDef*%
G04:AMPARAMS|DCode=27|XSize=59.055mil|YSize=137.795mil|CornerRadius=14.764mil|HoleSize=0mil|Usage=FLASHONLY|Rotation=225.000|XOffset=0mil|YOffset=0mil|HoleType=Round|Shape=RoundedRectangle|*
%AMROUNDEDRECTD27*
21,1,0.059055,0.108268,0,0,225.0*
21,1,0.029527,0.137795,0,0,225.0*
1,1,0.029528,-0.048718,0.027839*
1,1,0.029528,-0.027839,0.048718*
1,1,0.029528,0.048718,-0.027839*
1,1,0.029528,0.027839,-0.048718*
%
%ADD27ROUNDEDRECTD27*%
G04:AMPARAMS|DCode=28|XSize=59.055mil|YSize=137.795mil|CornerRadius=0mil|HoleSize=0mil|Usage=FLASHONLY|Rotation=225.000|XOffset=0mil|YOffset=0mil|HoleType=Round|Shape=Rectangle|*
%AMROTATEDRECTD28*
4,1,4,-0.027839,0.069597,0.069597,-0.027839,0.027839,-0.069597,-0.069597,0.027839,-0.027839,0.069597,0.0*
%
%ADD28ROTATEDRECTD28*%

%TA.AperFunction,Conductor*%
%ADD29C,0.008000*%
%ADD30C,0.012000*%
%ADD31C,0.017000*%
%ADD32C,0.010000*%
%ADD33C,0.050000*%
%ADD34C,0.025000*%
%ADD35C,0.040000*%
%ADD36C,0.020000*%
%TA.AperFunction,ComponentPad*%
%ADD37R,0.059370X0.059370*%
%ADD38C,0.059370*%
%ADD39C,0.054000*%
%ADD40R,0.059370X0.059370*%
%ADD41R,0.070866X0.070866*%
%ADD42C,0.070866*%
%ADD43R,0.059000X0.059000*%
%ADD44C,0.060000*%
%ADD45R,0.066929X0.066929*%
%ADD46C,0.066929*%
%TA.AperFunction,ViaPad*%
%ADD47C,0.059055*%
%TA.AperFunction,ComponentPad*%
%ADD48R,0.059000X0.059000*%
G04:AMPARAMS|DCode=49|XSize=39.37mil|YSize=62.992mil|CornerRadius=0mil|HoleSize=0mil|Usage=FLASHONLY|Rotation=315.000|XOffset=0mil|YOffset=0mil|HoleType=Round|Shape=Round|*
%AMOVALD49*
21,1,0.023622,0.039370,0.000000,0.000000,45.0*
1,1,0.039370,-0.008352,-0.008352*
1,1,0.039370,0.008352,0.008352*
%
%ADD49OVALD49*%

%ADD50C,0.026575*%
G04:AMPARAMS|DCode=51|XSize=39.37mil|YSize=82.677mil|CornerRadius=0mil|HoleSize=0mil|Usage=FLASHONLY|Rotation=315.000|XOffset=0mil|YOffset=0mil|HoleType=Round|Shape=Round|*
%AMOVALD51*
21,1,0.043307,0.039370,0.000000,0.000000,45.0*
1,1,0.039370,-0.015311,-0.015311*
1,1,0.039370,0.015311,0.015311*
%
%ADD51OVALD51*%

%TA.AperFunction,ViaPad*%
%ADD52C,0.017716*%
%ADD53C,0.019685*%
G36*
X1452999Y1783839D02*
X1450004Y1780843D01*
X1448263Y1778239D01*
X1447652Y1775167D01*
X1448263Y1772094D01*
X1450004Y1769490D01*
X1450004Y1769489D01*
X1736192Y1483302D01*
Y1397600D01*
X1736191Y1262159D01*
X1687939D01*
Y1206757D01*
X1736191D01*
Y1181203D01*
X1722481Y1167492D01*
X1708169D01*
Y1176181D01*
X1706783Y1183149D01*
X1702836Y1189056D01*
X1696929Y1193003D01*
X1689961Y1194389D01*
X1668307D01*
X1661339Y1193003D01*
X1655432Y1189056D01*
X1652317Y1184395D01*
X1652011Y1184284D01*
X1647786Y1184125D01*
X1646762Y1184395D01*
X1643893Y1188687D01*
X1637986Y1192634D01*
X1631018Y1194020D01*
X1609365D01*
X1602397Y1192634D01*
X1596490Y1188687D01*
X1592543Y1182780D01*
X1591157Y1175812D01*
Y1170370D01*
X1586157Y1168868D01*
X1582667Y1171200D01*
X1580466Y1171637D01*
X1579841Y1174780D01*
X1575893Y1180687D01*
X1569986Y1184634D01*
X1563018Y1186020D01*
X1551706D01*
X1547619Y1191020D01*
X1547989Y1192884D01*
Y1223703D01*
X1548522Y1223809D01*
X1554429Y1227756D01*
X1558376Y1233663D01*
X1559762Y1240631D01*
Y1262285D01*
X1558376Y1269253D01*
X1554429Y1275160D01*
X1548522Y1279107D01*
X1541554Y1280493D01*
X1523837D01*
X1516869Y1279107D01*
X1510962Y1275160D01*
X1507015Y1269253D01*
X1505629Y1262285D01*
Y1240631D01*
X1507015Y1233663D01*
X1510962Y1227756D01*
X1516869Y1223809D01*
X1517402Y1223703D01*
Y1199219D01*
X1508388Y1190205D01*
X1503388Y1192276D01*
Y1194672D01*
X1500669Y1201236D01*
X1495646Y1206259D01*
X1489082Y1208978D01*
X1481977D01*
X1475414Y1206259D01*
X1470390Y1201236D01*
X1467671Y1194672D01*
Y1187568D01*
X1470390Y1181004D01*
X1475414Y1175980D01*
X1481977Y1173262D01*
X1489082D01*
X1495646Y1175980D01*
X1497213Y1177547D01*
X1502213Y1175476D01*
Y1052290D01*
X1491573Y1041651D01*
X1491573Y1041650D01*
X1476186Y1026263D01*
X1472870Y1021302D01*
X1471706Y1015449D01*
Y948209D01*
X1472870Y942356D01*
X1476186Y937394D01*
X1502898Y910682D01*
Y902153D01*
X1502861Y902116D01*
X1500142Y895552D01*
Y888448D01*
X1502861Y881884D01*
X1502898Y881847D01*
Y853143D01*
X1485570D01*
Y795773D01*
X1550814D01*
Y853143D01*
X1533486D01*
Y882719D01*
X1535858Y888448D01*
Y895552D01*
X1533486Y901281D01*
Y917017D01*
X1532321Y922870D01*
X1529006Y927832D01*
X1502294Y954544D01*
Y975096D01*
X1506451Y977874D01*
X1508709Y976938D01*
X1515813D01*
X1521343Y979229D01*
X1521471Y979203D01*
X1538701D01*
X1538819Y979085D01*
X1543119Y976212D01*
X1548192Y975203D01*
X1554239D01*
Y959773D01*
X1608785D01*
X1611709Y955717D01*
X1482338Y567604D01*
X1447191Y532458D01*
X785928Y532458D01*
X726192D01*
X722264Y528530D01*
X717236D01*
X717236Y528530D01*
X714164Y527919D01*
X711559Y526178D01*
X711559Y526178D01*
X687515Y502135D01*
X685775Y499530D01*
X685164Y496458D01*
Y491430D01*
X660192Y466458D01*
Y283458D01*
X629192Y252458D01*
X450192Y252458D01*
X392192Y310458D01*
Y352458D01*
X367287D01*
X363183Y357458D01*
X363652Y359812D01*
Y377210D01*
X364529Y377796D01*
X371634D01*
X378197Y380515D01*
X383221Y385538D01*
X385940Y392102D01*
Y399206D01*
X383221Y405770D01*
X378197Y410794D01*
X371634Y413512D01*
X364529D01*
X357966Y410794D01*
X352942Y405770D01*
X350223Y399206D01*
X349749Y398817D01*
X345444Y399674D01*
X340520D01*
X334113Y406081D01*
Y414458D01*
X332444Y422847D01*
X327692Y429959D01*
X320580Y434710D01*
X312192Y436379D01*
X303803Y434710D01*
X296691Y429959D01*
X291939Y422847D01*
X290270Y414458D01*
Y397001D01*
X291939Y388612D01*
X296691Y381501D01*
X309519Y368673D01*
Y359812D01*
X309987Y357458D01*
X305884Y352458D01*
X231192D01*
Y456127D01*
X269877D01*
Y459499D01*
X271483D01*
X279053Y460496D01*
X286108Y463418D01*
X292166Y468066D01*
X305875Y481775D01*
X310523Y487833D01*
X313445Y494887D01*
X314442Y502458D01*
X313445Y510028D01*
X310523Y517083D01*
X305875Y523141D01*
X299817Y527789D01*
X292762Y530711D01*
X288747Y531240D01*
X287346Y536468D01*
X289567Y538172D01*
X295017Y545274D01*
X298443Y553545D01*
X299612Y562421D01*
Y681331D01*
X298443Y690207D01*
X295017Y698478D01*
X289567Y705580D01*
X231192Y763956D01*
Y804192D01*
X259000Y832000D01*
Y941000D01*
X268361Y950361D01*
X272839Y945883D01*
X279403Y943164D01*
X286507D01*
X293071Y945883D01*
X298095Y950906D01*
X300813Y957470D01*
Y964574D01*
X298095Y971138D01*
X293616Y975616D01*
X313246Y995246D01*
X393000Y1075000D01*
X448000Y1075000D01*
X461690Y1088690D01*
X467901Y1087830D01*
X469954Y1084756D01*
X475861Y1080809D01*
X482829Y1079423D01*
X500546D01*
X507514Y1080809D01*
X513421Y1084756D01*
X517368Y1090663D01*
X518754Y1097631D01*
Y1116779D01*
X545129Y1143154D01*
X556366D01*
X561439Y1144163D01*
X565739Y1147036D01*
X571142Y1152440D01*
X572862Y1151728D01*
X579966D01*
X586530Y1154446D01*
X591553Y1159470D01*
X594272Y1166034D01*
Y1173138D01*
X593560Y1174858D01*
X594250Y1175548D01*
X597124Y1179848D01*
X598133Y1184920D01*
Y1198874D01*
X597124Y1203946D01*
X594250Y1208246D01*
X565395Y1237101D01*
X561095Y1239975D01*
X556023Y1240984D01*
X555712D01*
X547082Y1249614D01*
X547522Y1254091D01*
X551698Y1258267D01*
X554340Y1262221D01*
X555268Y1266884D01*
X554340Y1271548D01*
X551698Y1275502D01*
X514812Y1312388D01*
X510858Y1315030D01*
X509168Y1315366D01*
X495704Y1328830D01*
X491404Y1331704D01*
X487406Y1332499D01*
X486000Y1333905D01*
Y1357000D01*
X495714Y1366714D01*
X498318Y1365754D01*
X500333Y1364262D01*
Y1357906D01*
X503052Y1351342D01*
X504937Y1349457D01*
Y1343275D01*
X505946Y1338203D01*
X508819Y1333903D01*
X518262Y1324460D01*
X518598Y1322770D01*
X521240Y1318816D01*
X558126Y1281930D01*
X562080Y1279288D01*
X566744Y1278361D01*
X571408Y1279288D01*
X575361Y1281930D01*
X579296Y1285865D01*
X584513Y1286048D01*
X622385Y1248176D01*
Y1208217D01*
X620882Y1206715D01*
X618009Y1202415D01*
X617000Y1197342D01*
Y1165745D01*
X447510Y996255D01*
X431230D01*
X426157Y995246D01*
X421857Y992372D01*
X362431Y932946D01*
X303806D01*
Y855576D01*
X381176D01*
Y914201D01*
X436720Y969745D01*
X453000D01*
X458072Y970754D01*
X462373Y973628D01*
X639627Y1150882D01*
X642500Y1155182D01*
X643510Y1160255D01*
Y1191852D01*
X645012Y1193354D01*
X647885Y1197655D01*
X648894Y1202727D01*
Y1253667D01*
X647885Y1258739D01*
X645012Y1263039D01*
X613407Y1294644D01*
X615053Y1300069D01*
X616285Y1300314D01*
X620585Y1303187D01*
X622744Y1305346D01*
X625190Y1306980D01*
X625200Y1306991D01*
X632327D01*
X667592Y1271726D01*
X665645Y1268353D01*
X663192Y1259197D01*
Y1249718D01*
X665645Y1240562D01*
X670385Y1232353D01*
X677087Y1225651D01*
X685296Y1220911D01*
X694452Y1218458D01*
X697000D01*
Y1154695D01*
X692381Y1152782D01*
X687269Y1157894D01*
X681361Y1161841D01*
X674394Y1163227D01*
X667426Y1161841D01*
X661518Y1157894D01*
X648991Y1145366D01*
X645044Y1139459D01*
X643658Y1132491D01*
X645044Y1125523D01*
X648991Y1119616D01*
X664302Y1104305D01*
X666069Y1103124D01*
X666398Y1102382D01*
X666381Y1096902D01*
X663052Y1093574D01*
X660333Y1087010D01*
Y1079906D01*
X663052Y1073342D01*
X664937Y1071457D01*
Y1062887D01*
X653662Y1051611D01*
X649715Y1045704D01*
X648724Y1040724D01*
X573360Y965360D01*
X564041Y962863D01*
X553909Y957013D01*
X551354Y954457D01*
X547133Y957260D01*
X547109Y957284D01*
Y964380D01*
X544390Y970944D01*
X539367Y975967D01*
X532803Y978686D01*
X525698D01*
X519135Y975967D01*
X514111Y970944D01*
X511392Y964380D01*
Y957276D01*
X514111Y950712D01*
X519135Y945688D01*
X525698Y942970D01*
X532803D01*
X537703Y944999D01*
X541184Y941029D01*
X539787Y938608D01*
X537290Y929290D01*
X536822Y928822D01*
X537076Y928491D01*
X536759Y927308D01*
Y915608D01*
X539787Y904307D01*
X545636Y894175D01*
X553909Y885903D01*
X564041Y880053D01*
X575342Y877025D01*
X587041D01*
X598342Y880053D01*
X608474Y885903D01*
X616747Y894175D01*
X622597Y904307D01*
X625625Y915608D01*
Y927308D01*
X625308Y928491D01*
X628351Y932458D01*
X634032D01*
X637076Y928491D01*
X636759Y927308D01*
Y915608D01*
X639787Y904307D01*
X645636Y894175D01*
X653909Y885903D01*
X664041Y880053D01*
X675342Y877025D01*
X687041D01*
X698342Y880053D01*
X708474Y885903D01*
X716747Y894175D01*
X722597Y904307D01*
X725625Y915608D01*
Y927308D01*
X725308Y928491D01*
X728351Y932458D01*
X734032D01*
X737076Y928491D01*
X736759Y927308D01*
Y915608D01*
X739787Y904307D01*
X745636Y894175D01*
X753909Y885903D01*
X764041Y880053D01*
X775342Y877025D01*
X787041D01*
X798342Y880053D01*
X805192Y884008D01*
X808474Y885903D01*
X816747Y894175D01*
X822597Y904307D01*
X825625Y915608D01*
Y927308D01*
X822597Y938608D01*
X816747Y948740D01*
X808474Y957013D01*
X798342Y962863D01*
X794446Y963907D01*
Y971059D01*
X797104Y975037D01*
X798113Y980110D01*
Y1212223D01*
X797867Y1213458D01*
X801883Y1218458D01*
X803931D01*
X813087Y1220912D01*
X821296Y1225651D01*
X827999Y1232354D01*
X832738Y1240563D01*
X835192Y1249719D01*
Y1259198D01*
X832738Y1268354D01*
X827999Y1276563D01*
X821296Y1283265D01*
X813087Y1288005D01*
X803931Y1290458D01*
X799021D01*
X795955Y1295458D01*
X797591Y1299406D01*
Y1306510D01*
X794872Y1313074D01*
X789848Y1318098D01*
X783284Y1320816D01*
X780453D01*
X780211Y1355696D01*
X783734Y1359244D01*
X788357D01*
X796861Y1360935D01*
X804071Y1365752D01*
X808888Y1372962D01*
X810579Y1381466D01*
Y1426741D01*
X808888Y1435245D01*
X804071Y1442455D01*
X796861Y1447272D01*
X792562Y1448127D01*
Y1453222D01*
X794228Y1454335D01*
X799045Y1461544D01*
X800737Y1470048D01*
Y1513510D01*
X804199Y1516498D01*
X805513Y1516943D01*
X807448Y1516142D01*
X814552D01*
X821116Y1518861D01*
X826139Y1523884D01*
X828858Y1530448D01*
Y1537552D01*
X826139Y1544116D01*
X821116Y1549139D01*
X814552Y1551858D01*
X807448D01*
X800884Y1549139D01*
X795861Y1544116D01*
X793215Y1537728D01*
X792803Y1536933D01*
X788307Y1534994D01*
X787019Y1535855D01*
X782084Y1536836D01*
Y1543691D01*
X780864Y1549826D01*
Y1557686D01*
X781052Y1558631D01*
Y1603907D01*
X779360Y1612411D01*
X778418Y1613820D01*
X777235Y1784268D01*
X782206Y1788458D01*
X855633D01*
Y1783603D01*
X857301Y1775214D01*
X862053Y1768102D01*
X864833Y1765323D01*
X863192Y1759198D01*
Y1749719D01*
X865645Y1740563D01*
X870385Y1732354D01*
X877087Y1725651D01*
X885296Y1720912D01*
X894452Y1718458D01*
X903931D01*
X913087Y1720912D01*
X921296Y1725651D01*
X927999Y1732354D01*
X932738Y1740563D01*
X935192Y1749719D01*
Y1759198D01*
X932738Y1768354D01*
X927999Y1776563D01*
X921296Y1783265D01*
X920963Y1783458D01*
X922302Y1788458D01*
X954058D01*
Y1783603D01*
X955726Y1775214D01*
X960478Y1768102D01*
X964500Y1764080D01*
X963192Y1759198D01*
Y1749719D01*
X965645Y1740563D01*
X970385Y1732354D01*
X977087Y1725651D01*
X985296Y1720912D01*
X994452Y1718458D01*
X1003931D01*
X1013087Y1720912D01*
X1021296Y1725651D01*
X1027999Y1732354D01*
X1032738Y1740563D01*
X1035192Y1749719D01*
Y1759198D01*
X1032738Y1768354D01*
X1027999Y1776563D01*
X1021296Y1783265D01*
X1020963Y1783458D01*
X1022303Y1788458D01*
X1052483D01*
Y1783603D01*
X1054152Y1775214D01*
X1058904Y1768102D01*
X1064167Y1762838D01*
X1063192Y1759197D01*
Y1749718D01*
X1065645Y1740562D01*
X1070385Y1732353D01*
X1077087Y1725651D01*
X1085296Y1720911D01*
X1094452Y1718458D01*
X1103931D01*
X1113087Y1720911D01*
X1121296Y1725651D01*
X1127999Y1732353D01*
X1132738Y1740562D01*
X1135192Y1749718D01*
Y1759197D01*
X1132738Y1768353D01*
X1127999Y1776562D01*
X1121296Y1783265D01*
X1120962Y1783458D01*
X1122302Y1788458D01*
X1150908D01*
Y1783603D01*
X1152577Y1775214D01*
X1157329Y1768102D01*
X1163835Y1761596D01*
X1163192Y1759197D01*
Y1749718D01*
X1165645Y1740562D01*
X1170385Y1732353D01*
X1177087Y1725651D01*
X1185296Y1720911D01*
X1194452Y1718458D01*
X1203931D01*
X1213087Y1720911D01*
X1221296Y1725651D01*
X1227999Y1732353D01*
X1232738Y1740562D01*
X1235192Y1749718D01*
Y1759197D01*
X1232738Y1768353D01*
X1227999Y1776562D01*
X1221296Y1783265D01*
X1220962Y1783458D01*
X1222302Y1788458D01*
X1276081D01*
X1277421Y1783458D01*
X1277087Y1783265D01*
X1270384Y1776562D01*
X1265645Y1768353D01*
X1263192Y1759197D01*
Y1749718D01*
X1265645Y1740562D01*
X1270384Y1732353D01*
X1277087Y1725651D01*
X1285296Y1720911D01*
X1294452Y1718458D01*
X1303931D01*
X1313087Y1720911D01*
X1321296Y1725651D01*
X1327999Y1732353D01*
X1332738Y1740562D01*
X1335192Y1749718D01*
Y1759197D01*
X1332738Y1768353D01*
X1327999Y1776562D01*
X1321296Y1783265D01*
X1320962Y1783458D01*
X1322302Y1788458D01*
X1451085D01*
X1452999Y1783839D01*
D02*
G37*
%LPC*%
G36*
X1104326Y1693458D02*
X1094057D01*
X1084138Y1690800D01*
X1075245Y1685666D01*
X1067984Y1678405D01*
X1062850Y1669512D01*
X1060192Y1659593D01*
Y1649324D01*
X1062850Y1639405D01*
X1067984Y1630512D01*
X1075245Y1623251D01*
X1084138Y1618116D01*
X1094057Y1615458D01*
X1104326D01*
X1114245Y1618116D01*
X1123138Y1623251D01*
X1130399Y1630512D01*
X1135534Y1639405D01*
X1138192Y1649324D01*
Y1659593D01*
X1135534Y1669512D01*
X1130399Y1678405D01*
X1123138Y1685666D01*
X1114245Y1690800D01*
X1104326Y1693458D01*
D02*
G37*
G36*
X1004326D02*
X994057D01*
X984138Y1690800D01*
X975245Y1685666D01*
X967984Y1678405D01*
X962849Y1669512D01*
X960192Y1659593D01*
Y1649324D01*
X962849Y1639405D01*
X967984Y1630512D01*
X975245Y1623251D01*
X984138Y1618116D01*
X994057Y1615458D01*
X1004326D01*
X1014245Y1618116D01*
X1023138Y1623251D01*
X1030399Y1630512D01*
X1035534Y1639405D01*
X1038192Y1649324D01*
Y1659593D01*
X1035534Y1669512D01*
X1030399Y1678405D01*
X1023138Y1685666D01*
X1014245Y1690800D01*
X1004326Y1693458D01*
D02*
G37*
G36*
X1381396Y1572554D02*
X1372529D01*
X1364338Y1569161D01*
X1358068Y1562891D01*
X1354675Y1554700D01*
Y1545833D01*
X1358068Y1537642D01*
X1364338Y1531372D01*
X1372529Y1527979D01*
X1381396D01*
X1389587Y1531372D01*
X1395857Y1537642D01*
X1399250Y1545833D01*
Y1554700D01*
X1395857Y1562891D01*
X1389587Y1569161D01*
X1381396Y1572554D01*
D02*
G37*
G36*
X1204326Y1593458D02*
X1194057D01*
X1184138Y1590801D01*
X1175245Y1585666D01*
X1167984Y1578405D01*
X1162850Y1569512D01*
X1160192Y1559593D01*
Y1549324D01*
X1162850Y1539405D01*
X1167984Y1530512D01*
X1175245Y1523251D01*
X1184138Y1518116D01*
X1194057Y1515458D01*
X1204326D01*
X1214245Y1518116D01*
X1223138Y1523251D01*
X1230399Y1530512D01*
X1235534Y1539405D01*
X1238192Y1549324D01*
Y1559593D01*
X1235534Y1569512D01*
X1230399Y1578405D01*
X1223138Y1585666D01*
X1214245Y1590801D01*
X1204326Y1593458D01*
D02*
G37*
G36*
X1004326Y1593458D02*
X994057D01*
X984138Y1590800D01*
X975245Y1585666D01*
X967984Y1578405D01*
X962850Y1569512D01*
X960192Y1559593D01*
Y1549324D01*
X962850Y1539405D01*
X967984Y1530512D01*
X975245Y1523251D01*
X984138Y1518116D01*
X994057Y1515458D01*
X1004326D01*
X1014245Y1518116D01*
X1023138Y1523251D01*
X1030399Y1530512D01*
X1035534Y1539405D01*
X1038192Y1549324D01*
Y1559593D01*
X1035534Y1569512D01*
X1030399Y1578405D01*
X1023138Y1585666D01*
X1014245Y1590800D01*
X1004326Y1593458D01*
D02*
G37*
G36*
X1104326Y1593458D02*
X1094057D01*
X1084138Y1590800D01*
X1075245Y1585666D01*
X1067984Y1578405D01*
X1062850Y1569512D01*
X1060192Y1559592D01*
Y1549324D01*
X1062850Y1539405D01*
X1067984Y1530512D01*
X1075245Y1523250D01*
X1084138Y1518116D01*
X1094057Y1515458D01*
X1104326D01*
X1114245Y1518116D01*
X1123138Y1523250D01*
X1130399Y1530512D01*
X1135534Y1539405D01*
X1138192Y1549324D01*
Y1559592D01*
X1135534Y1569512D01*
X1130399Y1578405D01*
X1123138Y1585666D01*
X1114245Y1590800D01*
X1104326Y1593458D01*
D02*
G37*
G36*
X1547058Y1527644D02*
X1518190Y1498776D01*
X1516406Y1497407D01*
X1501364Y1482365D01*
X1493303D01*
X1484428Y1481197D01*
X1476157Y1477771D01*
X1472520Y1474980D01*
X1469331Y1476908D01*
X1468191Y1477961D01*
Y1484701D01*
X1465473Y1491264D01*
X1460449Y1496288D01*
X1453886Y1499007D01*
X1449382D01*
Y1503680D01*
X1446664Y1510243D01*
X1441640Y1515267D01*
X1435076Y1517986D01*
X1427972D01*
X1421408Y1515267D01*
X1416385Y1510243D01*
X1413666Y1503680D01*
Y1496575D01*
X1416385Y1490012D01*
X1421408Y1484988D01*
X1427972Y1482269D01*
X1432475D01*
Y1477596D01*
X1435194Y1471033D01*
X1440217Y1466009D01*
X1446781Y1463290D01*
X1452952D01*
X1454745Y1460675D01*
X1455404Y1458671D01*
X1441874Y1445141D01*
X1436425Y1438039D01*
X1432999Y1429768D01*
X1431830Y1420892D01*
Y1384325D01*
X1426830Y1380984D01*
X1424744Y1381848D01*
X1417639D01*
X1411076Y1379130D01*
X1406052Y1374106D01*
X1403333Y1367542D01*
Y1360438D01*
X1403688Y1359582D01*
X1402432Y1357703D01*
X1399819Y1355857D01*
X1398067Y1356583D01*
X1389192Y1357751D01*
X1380316Y1356583D01*
X1372045Y1353157D01*
X1364943Y1347707D01*
X1359493Y1340605D01*
X1356067Y1332334D01*
X1354898Y1323458D01*
X1356067Y1314582D01*
X1359493Y1306311D01*
X1364943Y1299209D01*
X1367269Y1296883D01*
X1374371Y1291433D01*
X1378367Y1289778D01*
X1378732Y1284215D01*
X1377087Y1283265D01*
X1370385Y1276563D01*
X1365645Y1268354D01*
X1363192Y1259198D01*
Y1249719D01*
X1365645Y1240563D01*
X1370385Y1232354D01*
X1377087Y1225651D01*
X1385296Y1220911D01*
X1394452Y1218458D01*
X1403931D01*
X1413087Y1220911D01*
X1421296Y1225651D01*
X1427999Y1232354D01*
X1432738Y1240563D01*
X1435192Y1249719D01*
Y1259198D01*
X1432738Y1268354D01*
X1427999Y1276563D01*
X1422723Y1281838D01*
X1424741Y1286838D01*
X1438944D01*
X1447820Y1288007D01*
X1456091Y1291433D01*
X1463193Y1296883D01*
X1490373Y1324062D01*
X1495823Y1331165D01*
X1499248Y1339436D01*
X1500417Y1348311D01*
Y1384879D01*
X1505417Y1388219D01*
X1507504Y1387355D01*
X1514608D01*
X1515579Y1386706D01*
Y1384929D01*
X1518972Y1376738D01*
X1525242Y1370468D01*
X1533433Y1367075D01*
X1542300D01*
X1550491Y1370468D01*
X1556761Y1376738D01*
X1560154Y1384929D01*
Y1393796D01*
X1556761Y1401987D01*
X1560359Y1405371D01*
X1602736Y1362994D01*
X1657222Y1417480D01*
X1547058Y1527644D01*
D02*
G37*
G36*
X1204326Y1493458D02*
X1194057D01*
X1184138Y1490801D01*
X1175245Y1485666D01*
X1167984Y1478405D01*
X1162850Y1469512D01*
X1160192Y1459593D01*
Y1449324D01*
X1162850Y1439405D01*
X1167984Y1430512D01*
X1175245Y1423251D01*
X1184138Y1418116D01*
X1194057Y1415458D01*
X1204326D01*
X1214245Y1418116D01*
X1223138Y1423251D01*
X1230399Y1430512D01*
X1235534Y1439405D01*
X1238192Y1449324D01*
Y1459593D01*
X1235534Y1469512D01*
X1230399Y1478405D01*
X1223138Y1485666D01*
X1214245Y1490801D01*
X1204326Y1493458D01*
D02*
G37*
G36*
X1104326D02*
X1094057D01*
X1084138Y1490801D01*
X1075245Y1485666D01*
X1067984Y1478405D01*
X1062850Y1469512D01*
X1060192Y1459593D01*
Y1449324D01*
X1062850Y1439405D01*
X1067984Y1430512D01*
X1075245Y1423251D01*
X1084138Y1418116D01*
X1094057Y1415458D01*
X1104326D01*
X1114245Y1418116D01*
X1123138Y1423251D01*
X1130399Y1430512D01*
X1135534Y1439405D01*
X1138192Y1449324D01*
Y1459593D01*
X1135534Y1469512D01*
X1130399Y1478405D01*
X1123138Y1485666D01*
X1114245Y1490801D01*
X1104326Y1493458D01*
D02*
G37*
G36*
X1004326Y1493458D02*
X994057D01*
X984138Y1490800D01*
X975245Y1485666D01*
X967984Y1478405D01*
X962850Y1469512D01*
X960192Y1459593D01*
Y1449324D01*
X962850Y1439405D01*
X967984Y1430512D01*
X975245Y1423251D01*
X984138Y1418116D01*
X994057Y1415458D01*
X1004326D01*
X1014245Y1418116D01*
X1023138Y1423251D01*
X1030399Y1430512D01*
X1035534Y1439405D01*
X1038192Y1449324D01*
Y1459593D01*
X1035534Y1469512D01*
X1030399Y1478405D01*
X1023138Y1485666D01*
X1014245Y1490800D01*
X1004326Y1493458D01*
D02*
G37*
G36*
X1342100Y1465815D02*
X1334996D01*
X1328432Y1463096D01*
X1323409Y1458072D01*
X1320690Y1451509D01*
Y1444404D01*
X1323409Y1437841D01*
X1328432Y1432817D01*
X1334996Y1430098D01*
X1342100D01*
X1344499Y1431092D01*
X1347331Y1426853D01*
X1346052Y1425574D01*
X1343333Y1419010D01*
Y1411906D01*
X1346052Y1405342D01*
X1351076Y1400318D01*
X1357639Y1397600D01*
X1364744D01*
X1371307Y1400318D01*
X1376331Y1405342D01*
X1379050Y1411906D01*
Y1419010D01*
X1376331Y1425574D01*
X1371307Y1430597D01*
X1364744Y1433316D01*
X1357639D01*
X1355241Y1432322D01*
X1352408Y1436561D01*
X1353688Y1437841D01*
X1356406Y1444404D01*
Y1451509D01*
X1353688Y1458072D01*
X1348664Y1463096D01*
X1342100Y1465815D01*
D02*
G37*
G36*
X1037692Y1392958D02*
X960692D01*
Y1315958D01*
X1037692D01*
Y1392958D01*
D02*
G37*
G36*
X1237692Y1392958D02*
X1160692D01*
Y1315958D01*
X1237692D01*
Y1392958D01*
D02*
G37*
G36*
X1137692D02*
X1060692D01*
Y1315958D01*
X1137692D01*
Y1392958D01*
D02*
G37*
G36*
X1699744Y1357316D02*
X1692639D01*
X1686076Y1354597D01*
X1681052Y1349574D01*
X1678333Y1343010D01*
Y1335906D01*
X1681005Y1329456D01*
X1679322Y1328484D01*
X1674016Y1323178D01*
X1670264Y1316679D01*
X1668322Y1309430D01*
Y1301926D01*
X1670264Y1294678D01*
X1674016Y1288179D01*
X1679322Y1282873D01*
X1685821Y1279121D01*
X1693069Y1277178D01*
X1700574D01*
X1707822Y1279121D01*
X1714321Y1282873D01*
X1719627Y1288179D01*
X1723379Y1294678D01*
X1725322Y1301926D01*
Y1309430D01*
X1723379Y1316679D01*
X1719627Y1323178D01*
X1714321Y1328484D01*
X1711621Y1330043D01*
X1714050Y1335906D01*
Y1343010D01*
X1711331Y1349574D01*
X1706307Y1354597D01*
X1699744Y1357316D01*
D02*
G37*
G36*
X1203931Y1290458D02*
X1194452D01*
X1185296Y1288005D01*
X1177087Y1283265D01*
X1170385Y1276563D01*
X1165645Y1268354D01*
X1163192Y1259198D01*
Y1249719D01*
X1165645Y1240563D01*
X1170385Y1232354D01*
X1177087Y1225651D01*
X1185296Y1220912D01*
X1194452Y1218458D01*
X1203931D01*
X1213087Y1220912D01*
X1221296Y1225651D01*
X1227999Y1232354D01*
X1232738Y1240563D01*
X1235192Y1249719D01*
Y1259198D01*
X1232738Y1268354D01*
X1227999Y1276563D01*
X1221296Y1283265D01*
X1213087Y1288005D01*
X1203931Y1290458D01*
D02*
G37*
G36*
X903931Y1290458D02*
X894452D01*
X885296Y1288005D01*
X877087Y1283265D01*
X870385Y1276563D01*
X865645Y1268354D01*
X863192Y1259198D01*
Y1249719D01*
X865645Y1240563D01*
X870385Y1232354D01*
X877087Y1225651D01*
X885296Y1220911D01*
X894452Y1218458D01*
X903931D01*
X913087Y1220911D01*
X921296Y1225651D01*
X927999Y1232354D01*
X932738Y1240563D01*
X935192Y1249719D01*
Y1259198D01*
X932738Y1268354D01*
X927999Y1276563D01*
X921296Y1283265D01*
X913087Y1288005D01*
X903931Y1290458D01*
D02*
G37*
G36*
X1103931Y1290458D02*
X1094452D01*
X1085296Y1288005D01*
X1077087Y1283265D01*
X1070385Y1276562D01*
X1065645Y1268353D01*
X1063192Y1259197D01*
Y1249718D01*
X1065645Y1240562D01*
X1070385Y1232353D01*
X1077087Y1225651D01*
X1085296Y1220911D01*
X1094452Y1218458D01*
X1103931D01*
X1113087Y1220911D01*
X1121296Y1225651D01*
X1127999Y1232353D01*
X1132738Y1240562D01*
X1135192Y1249718D01*
Y1259197D01*
X1132738Y1268353D01*
X1127999Y1276562D01*
X1121296Y1283265D01*
X1113087Y1288005D01*
X1103931Y1290458D01*
D02*
G37*
G36*
X1003931D02*
X994452D01*
X985296Y1288005D01*
X977087Y1283265D01*
X970385Y1276562D01*
X965645Y1268353D01*
X963192Y1259197D01*
Y1249718D01*
X965645Y1240562D01*
X970385Y1232353D01*
X977087Y1225651D01*
X985296Y1220911D01*
X994452Y1218458D01*
X1003931D01*
X1013087Y1220911D01*
X1021296Y1225651D01*
X1027999Y1232353D01*
X1032738Y1240562D01*
X1035192Y1249718D01*
Y1259197D01*
X1032738Y1268353D01*
X1027999Y1276562D01*
X1021296Y1283265D01*
X1013087Y1288005D01*
X1003931Y1290458D01*
D02*
G37*
G36*
X1303931Y1290458D02*
X1294452D01*
X1285296Y1288005D01*
X1277087Y1283265D01*
X1270384Y1276562D01*
X1265645Y1268353D01*
X1263192Y1259197D01*
Y1249718D01*
X1265645Y1240562D01*
X1270384Y1232353D01*
X1277087Y1225651D01*
X1285296Y1220911D01*
X1294452Y1218458D01*
X1303931D01*
X1313087Y1220911D01*
X1321296Y1225651D01*
X1327999Y1232353D01*
X1332738Y1240562D01*
X1335192Y1249718D01*
Y1259197D01*
X1332738Y1268353D01*
X1327999Y1276562D01*
X1321296Y1283265D01*
X1313087Y1288005D01*
X1303931Y1290458D01*
D02*
G37*
G36*
X1647366Y1355175D02*
X1640262D01*
X1633698Y1352456D01*
X1628674Y1347432D01*
X1625956Y1340869D01*
Y1338327D01*
X1622944Y1333958D01*
X1615439D01*
X1608191Y1332016D01*
X1601692Y1328264D01*
X1596386Y1322957D01*
X1592634Y1316458D01*
X1590692Y1309210D01*
Y1301706D01*
X1592634Y1294457D01*
X1596386Y1287958D01*
X1598852Y1285493D01*
X1596781Y1280493D01*
X1586829D01*
X1579861Y1279107D01*
X1573954Y1275160D01*
X1570007Y1269253D01*
X1568621Y1262285D01*
Y1240631D01*
X1570007Y1233663D01*
X1573954Y1227756D01*
X1579861Y1223809D01*
X1586829Y1222423D01*
X1604546D01*
X1605373Y1222588D01*
X1607345Y1221270D01*
X1612807Y1220184D01*
X1623422D01*
X1623987Y1217347D01*
X1627825Y1211603D01*
X1633569Y1207765D01*
X1640345Y1206417D01*
X1657078D01*
X1663853Y1207765D01*
X1669598Y1211603D01*
X1673436Y1217347D01*
X1674784Y1224123D01*
Y1244793D01*
X1673436Y1251568D01*
X1669598Y1257313D01*
X1663853Y1261151D01*
X1657078Y1262499D01*
X1640345D01*
X1633569Y1261151D01*
X1627825Y1257313D01*
X1627754Y1257207D01*
X1622754Y1258724D01*
Y1262285D01*
X1621368Y1269253D01*
X1619561Y1271958D01*
X1622233Y1276958D01*
X1622944D01*
X1630192Y1278900D01*
X1636691Y1282652D01*
X1641997Y1287958D01*
X1645749Y1294457D01*
X1647692Y1301706D01*
Y1309210D01*
X1646423Y1313944D01*
X1651327Y1318848D01*
X1653406Y1321960D01*
X1653930Y1322177D01*
X1658953Y1327200D01*
X1661672Y1333764D01*
Y1340869D01*
X1658953Y1347432D01*
X1653930Y1352456D01*
X1647366Y1355175D01*
D02*
G37*
G36*
X1278744Y1200316D02*
X1271639D01*
X1265076Y1197597D01*
X1260052Y1192574D01*
X1257333Y1186010D01*
Y1178906D01*
X1260052Y1172342D01*
X1265076Y1167318D01*
X1271639Y1164600D01*
X1278744D01*
X1285307Y1167318D01*
X1290331Y1172342D01*
X1293050Y1178906D01*
Y1186010D01*
X1290331Y1192574D01*
X1285307Y1197597D01*
X1278744Y1200316D01*
D02*
G37*
G36*
X1288521Y1122539D02*
X1281417D01*
X1274853Y1119820D01*
X1269830Y1114796D01*
X1267111Y1108233D01*
Y1101865D01*
X1265129Y1100393D01*
X1262491Y1099414D01*
X1261307Y1100597D01*
X1254744Y1103316D01*
X1247639D01*
X1241076Y1100597D01*
X1236052Y1095574D01*
X1233333Y1089010D01*
Y1081906D01*
X1236052Y1075342D01*
X1241076Y1070318D01*
X1247639Y1067600D01*
X1254744D01*
X1261307Y1070318D01*
X1266331Y1075342D01*
X1269050Y1081906D01*
Y1088273D01*
X1271032Y1089746D01*
X1273669Y1090725D01*
X1274853Y1089541D01*
X1281417Y1086822D01*
X1288521D01*
X1295085Y1089541D01*
X1300109Y1094564D01*
X1302827Y1101128D01*
Y1108233D01*
X1300109Y1114796D01*
X1295085Y1119820D01*
X1288521Y1122539D01*
D02*
G37*
G36*
X1023622Y1210860D02*
X1005529Y1209436D01*
X987882Y1205199D01*
X971115Y1198254D01*
X955641Y1188771D01*
X941841Y1176985D01*
X930055Y1163185D01*
X920572Y1147711D01*
X913627Y1130944D01*
X909390Y1113296D01*
X907966Y1095204D01*
X909390Y1077111D01*
X913627Y1059464D01*
X920572Y1042697D01*
X930055Y1027223D01*
X941841Y1013423D01*
X955641Y1001637D01*
X971115Y992154D01*
X987882Y985209D01*
X1005529Y980972D01*
X1023622Y979548D01*
X1041715Y980972D01*
X1059362Y985209D01*
X1076129Y992154D01*
X1091603Y1001637D01*
X1105403Y1013423D01*
X1117189Y1027223D01*
X1126672Y1042697D01*
X1133617Y1059464D01*
X1137854Y1077111D01*
X1139278Y1095204D01*
X1137854Y1113296D01*
X1133617Y1130944D01*
X1126672Y1147711D01*
X1117189Y1163185D01*
X1105403Y1176985D01*
X1091603Y1188771D01*
X1076129Y1198254D01*
X1059362Y1205199D01*
X1041715Y1209436D01*
X1023622Y1210860D01*
D02*
G37*
G36*
X1370018Y1128028D02*
X1348365D01*
X1341397Y1126642D01*
X1335490Y1122695D01*
X1331543Y1116788D01*
X1330157Y1109820D01*
Y1092104D01*
X1331543Y1085136D01*
X1335490Y1079228D01*
X1341397Y1075282D01*
X1345937Y1074378D01*
Y1000459D01*
X1341052Y995574D01*
X1338333Y989010D01*
Y981906D01*
X1341052Y975342D01*
X1346076Y970318D01*
X1352639Y967600D01*
X1359744D01*
X1366307Y970318D01*
X1371331Y975342D01*
X1374050Y981906D01*
Y989010D01*
X1372446Y992881D01*
Y1074378D01*
X1376986Y1075282D01*
X1382893Y1079228D01*
X1386841Y1085136D01*
X1388226Y1092104D01*
Y1109820D01*
X1386841Y1116788D01*
X1382893Y1122695D01*
X1376986Y1126642D01*
X1370018Y1128028D01*
D02*
G37*
G36*
X987041Y965891D02*
X975342D01*
X964041Y962863D01*
X953909Y957013D01*
X945636Y948740D01*
X939787Y938608D01*
X936759Y927308D01*
Y915608D01*
X939787Y904307D01*
X945636Y894175D01*
X953909Y885903D01*
X964041Y880053D01*
X975342Y877025D01*
X987041D01*
X998342Y880053D01*
X1008474Y885903D01*
X1016747Y894175D01*
X1022597Y904307D01*
X1025625Y915608D01*
Y927308D01*
X1022597Y938608D01*
X1016747Y948740D01*
X1008474Y957013D01*
X998342Y962863D01*
X987041Y965891D01*
D02*
G37*
G36*
X887041D02*
X875342D01*
X864041Y962863D01*
X853909Y957013D01*
X845636Y948740D01*
X839787Y938608D01*
X836759Y927308D01*
Y915608D01*
X839787Y904307D01*
X845636Y894175D01*
X853909Y885903D01*
X864041Y880053D01*
X875342Y877025D01*
X887041D01*
X898342Y880053D01*
X908474Y885903D01*
X916747Y894175D01*
X922596Y904307D01*
X925625Y915608D01*
Y927308D01*
X922596Y938608D01*
X916747Y948740D01*
X908474Y957013D01*
X898342Y962863D01*
X887041Y965891D01*
D02*
G37*
G36*
X1350009Y939118D02*
X1342905D01*
X1336341Y936399D01*
X1331317Y931376D01*
X1328599Y924812D01*
Y917708D01*
X1331317Y911144D01*
X1333202Y909259D01*
Y875569D01*
X1295346Y837713D01*
X1259475D01*
Y853143D01*
X1194231D01*
Y795773D01*
X1259475D01*
Y811203D01*
X1300836D01*
X1305908Y812212D01*
X1310208Y815085D01*
X1355829Y860706D01*
X1358703Y865006D01*
X1359711Y870079D01*
Y909259D01*
X1361596Y911144D01*
X1364315Y917708D01*
Y924812D01*
X1361596Y931376D01*
X1356573Y936399D01*
X1350009Y939118D01*
D02*
G37*
G36*
X986326Y860458D02*
X976057D01*
X966138Y857800D01*
X957245Y852666D01*
X949984Y845404D01*
X944849Y836511D01*
X942192Y826592D01*
Y816323D01*
X944849Y806404D01*
X949984Y797511D01*
X957245Y790250D01*
X966138Y785116D01*
X976057Y782458D01*
X986326D01*
X996245Y785116D01*
X1005138Y790250D01*
X1012399Y797511D01*
X1017534Y806404D01*
X1020192Y816323D01*
Y826592D01*
X1017534Y836511D01*
X1012399Y845404D01*
X1005138Y852666D01*
X996245Y857800D01*
X986326Y860458D01*
D02*
G37*
G36*
X886326D02*
X876057D01*
X866138Y857800D01*
X857245Y852666D01*
X849984Y845404D01*
X844849Y836511D01*
X842192Y826592D01*
Y816323D01*
X844849Y806404D01*
X849984Y797511D01*
X857245Y790250D01*
X866138Y785116D01*
X876057Y782458D01*
X886326D01*
X896245Y785116D01*
X905138Y790250D01*
X912399Y797511D01*
X917534Y806404D01*
X920192Y816323D01*
Y826592D01*
X917534Y836511D01*
X912399Y845404D01*
X905138Y852666D01*
X896245Y857800D01*
X886326Y860458D01*
D02*
G37*
G36*
X786326D02*
X776057D01*
X766138Y857800D01*
X757245Y852666D01*
X749984Y845404D01*
X744849Y836511D01*
X742192Y826592D01*
Y816323D01*
X744849Y806404D01*
X749984Y797511D01*
X757245Y790250D01*
X766138Y785116D01*
X776057Y782458D01*
X786326D01*
X796245Y785116D01*
X805138Y790250D01*
D01*
X812399Y797511D01*
X817534Y806404D01*
X820192Y816323D01*
Y826592D01*
X817534Y836511D01*
X812399Y845404D01*
X805572Y852231D01*
X805138Y852666D01*
X796245Y857800D01*
X786326Y860458D01*
D02*
G37*
G36*
X287946Y773493D02*
X280841D01*
X274278Y770774D01*
X269254Y765751D01*
X266536Y759187D01*
Y752083D01*
X269254Y745519D01*
X274278Y740495D01*
X280841Y737777D01*
X287946D01*
X294510Y740495D01*
X299533Y745519D01*
X302252Y752083D01*
Y759187D01*
X299533Y765751D01*
X294510Y770774D01*
X287946Y773493D01*
D02*
G37*
G36*
X1385442Y734394D02*
X1378338D01*
X1371774Y731675D01*
X1370079Y729980D01*
X1368384Y731675D01*
X1361820Y734394D01*
X1354716D01*
X1348152Y731675D01*
X1346457Y729980D01*
X1344762Y731675D01*
X1338198Y734394D01*
X1331093D01*
X1324530Y731675D01*
X1319506Y726651D01*
X1316787Y720088D01*
Y712983D01*
X1319506Y706420D01*
X1321201Y704725D01*
X1319506Y703029D01*
X1316787Y696466D01*
Y689361D01*
X1319506Y682798D01*
X1324530Y677774D01*
X1331093Y675055D01*
X1338198D01*
X1344762Y677774D01*
X1346457Y679469D01*
X1348152Y677774D01*
X1354716Y675055D01*
X1361820D01*
X1368384Y677774D01*
X1370079Y679469D01*
X1371774Y677774D01*
X1378338Y675055D01*
X1385442D01*
X1392006Y677774D01*
X1397029Y682798D01*
X1399748Y689361D01*
Y696466D01*
X1397029Y703029D01*
X1395334Y704725D01*
X1397029Y706420D01*
X1399748Y712983D01*
Y720088D01*
X1397029Y726651D01*
X1392006Y731675D01*
X1385442Y734394D01*
D02*
G37*
G36*
X1294891Y734394D02*
X1287786D01*
X1281223Y731675D01*
X1279527Y729980D01*
X1277832Y731675D01*
X1271269Y734394D01*
X1264164D01*
X1257601Y731675D01*
X1255906Y729980D01*
X1254210Y731675D01*
X1247647Y734394D01*
X1240542D01*
X1233979Y731675D01*
X1228955Y726651D01*
X1226236Y720088D01*
Y712983D01*
X1228955Y706419D01*
X1230650Y704724D01*
X1228955Y703029D01*
X1226236Y696466D01*
Y689361D01*
X1228955Y682798D01*
X1233979Y677774D01*
X1240542Y675055D01*
X1247647D01*
X1254210Y677774D01*
X1255906Y679469D01*
X1257601Y677774D01*
X1264164Y675055D01*
X1271269D01*
X1277832Y677774D01*
X1279527Y679469D01*
X1281223Y677774D01*
X1287786Y675055D01*
X1294891D01*
X1301454Y677774D01*
X1306478Y682798D01*
X1309197Y689361D01*
Y696466D01*
X1306478Y703029D01*
X1304783Y704724D01*
X1306478Y706419D01*
X1309197Y712983D01*
Y720088D01*
X1306478Y726651D01*
X1301454Y731675D01*
X1294891Y734394D01*
D02*
G37*
G36*
X727933Y689127D02*
X720828D01*
X714265Y686408D01*
X709241Y681385D01*
X706522Y674821D01*
Y667717D01*
X709241Y661153D01*
X710164Y660230D01*
X708805Y655230D01*
X695696D01*
Y613608D01*
X753066D01*
Y655230D01*
X739956D01*
X738597Y660230D01*
X739520Y661153D01*
X742239Y667717D01*
Y674821D01*
X739520Y681385D01*
X734496Y686408D01*
X727933Y689127D01*
D02*
G37*
G36*
X1187318Y629639D02*
X1102389D01*
Y544710D01*
X1187318D01*
Y629639D01*
D02*
G37*
G36*
X818869Y631310D02*
X809993Y630142D01*
D01*
X801722Y626716D01*
X794620Y621266D01*
X789170Y614164D01*
X785744Y605893D01*
X784575Y597017D01*
X785744Y588141D01*
X789170Y579870D01*
X793442Y574303D01*
X794620Y572768D01*
X804462Y562925D01*
X811565Y557475D01*
X819836Y554049D01*
X828711Y552881D01*
X919322D01*
X928462Y547604D01*
X939262Y544710D01*
X950444D01*
X961244Y547604D01*
X970927Y553194D01*
X978833Y561101D01*
X984424Y570784D01*
X987317Y581584D01*
Y592765D01*
X984424Y603565D01*
X978833Y613248D01*
X970927Y621154D01*
X961244Y626745D01*
X950444Y629639D01*
X939262D01*
X928462Y626745D01*
X919322Y621468D01*
X842855D01*
X836015Y626716D01*
X827745Y630142D01*
X818869Y631310D01*
D02*
G37*
G36*
X551811Y708051D02*
X533719Y706627D01*
X516072Y702391D01*
X499305Y695446D01*
X483831Y685963D01*
X470030Y674176D01*
X458244Y660376D01*
X448761Y644902D01*
X441816Y628135D01*
X437579Y610488D01*
X436156Y592395D01*
X437579Y574303D01*
X441816Y556656D01*
X448761Y539889D01*
X458244Y524415D01*
X470030Y510615D01*
X483831Y498828D01*
X499305Y489346D01*
X516072Y482400D01*
X533719Y478164D01*
X551811Y476740D01*
X569904Y478164D01*
X587551Y482400D01*
X604318Y489346D01*
X619792Y498828D01*
X633592Y510615D01*
X645379Y524415D01*
X654861Y539889D01*
X661806Y556656D01*
X666043Y574303D01*
X667467Y592395D01*
X666043Y610488D01*
X661806Y628135D01*
X654861Y644902D01*
X645379Y660376D01*
X633592Y674176D01*
X619792Y685963D01*
X604318Y695446D01*
X587551Y702391D01*
X569904Y706627D01*
X551811Y708051D01*
D02*
G37*
%LPD*%
D10*
X110000Y1489000D02*
D03*
X55000Y1271000D02*
D03*
X130000Y1348000D02*
D03*
X44000Y1433000D02*
D03*
X619000Y1577000D02*
D03*
X234000Y1576000D02*
D03*
X1619192Y1305458D02*
D03*
X1696822Y1305678D02*
D03*
D11*
X1679134Y1167323D02*
D03*
Y1104331D02*
D03*
X210601Y274182D02*
D03*
Y211190D02*
D03*
X279499Y93080D02*
D03*
Y156072D02*
D03*
X200758Y93080D02*
D03*
Y156072D02*
D03*
X53121Y476938D02*
D03*
X53121Y539930D02*
D03*
X1359192Y1163954D02*
D03*
Y1100962D02*
D03*
X1552192Y1095962D02*
D03*
Y1158954D02*
D03*
X1620192Y1103962D02*
D03*
Y1166954D02*
D03*
D12*
X272668Y1283240D02*
D03*
X592147Y1435685D02*
D03*
X578227Y1449605D02*
D03*
X564308Y1463524D02*
D03*
X550389Y1477444D02*
D03*
X536469Y1491363D02*
D03*
X522550Y1505282D02*
D03*
X508630Y1519202D02*
D03*
X494711Y1533121D02*
D03*
X480791Y1547041D02*
D03*
X466872Y1560960D02*
D03*
X452952Y1574880D02*
D03*
X439033Y1588799D02*
D03*
X203071Y1352837D02*
D03*
X216990Y1338917D02*
D03*
X230910Y1324998D02*
D03*
X244829Y1311079D02*
D03*
X258749Y1297159D02*
D03*
X286587Y1269320D02*
D03*
X300507Y1255401D02*
D03*
X314426Y1241481D02*
D03*
X328346Y1227562D02*
D03*
X342265Y1213642D02*
D03*
X356185Y1199723D02*
D03*
D13*
X680456Y1037344D02*
D03*
X724998Y1081887D02*
D03*
X675785Y1131099D02*
D03*
X631243Y1086557D02*
D03*
X590463Y1236729D02*
D03*
X545920Y1192187D02*
D03*
D14*
X143672Y404852D02*
D03*
X80680Y404851D02*
D03*
X399577Y154104D02*
D03*
X336585D02*
D03*
X399577Y95049D02*
D03*
X336585D02*
D03*
Y35993D02*
D03*
X399577Y35993D02*
D03*
X336585Y370639D02*
D03*
X399577Y370639D02*
D03*
X336585Y311584D02*
D03*
X399577D02*
D03*
X110207Y478907D02*
D03*
X173200D02*
D03*
X110207Y537962D02*
D03*
X173199D02*
D03*
X281467Y35993D02*
D03*
X218475D02*
D03*
X428696Y1108458D02*
D03*
X491688D02*
D03*
X1595688Y1251458D02*
D03*
X1532696D02*
D03*
D15*
X724381Y634419D02*
D03*
D16*
Y559615D02*
D03*
X818869Y597017D02*
D03*
D17*
X407452Y232844D02*
D03*
X382924Y488749D02*
D03*
D18*
X269656Y232844D02*
D03*
X245129Y488749D02*
D03*
D19*
X1713672Y1234458D02*
D03*
D20*
X1648711D02*
D03*
D21*
X726349Y1669852D02*
D03*
X836585D02*
D03*
X746034Y1581269D02*
D03*
X856270D02*
D03*
X765719Y1492686D02*
D03*
X875955D02*
D03*
X775562Y1404104D02*
D03*
X885798D02*
D03*
D22*
X439033Y1199723D02*
D03*
D23*
X452952Y1213642D02*
D03*
D24*
X466872Y1227562D02*
D03*
X480791Y1241481D02*
D03*
X494711Y1255401D02*
D03*
X508630Y1269320D02*
D03*
X522550Y1283240D02*
D03*
X536469Y1297159D02*
D03*
X550389Y1311079D02*
D03*
X564308Y1324998D02*
D03*
X578227Y1338917D02*
D03*
X592147Y1352837D02*
D03*
X356185Y1588799D02*
D03*
X342265Y1574880D02*
D03*
X328346Y1560960D02*
D03*
X314426Y1547041D02*
D03*
X300507Y1533121D02*
D03*
X286587Y1519202D02*
D03*
X272668Y1505282D02*
D03*
X258749Y1491363D02*
D03*
X244829Y1477444D02*
D03*
X230910Y1463524D02*
D03*
X216990Y1449605D02*
D03*
X203071Y1435685D02*
D03*
D25*
X1295522Y988458D02*
D03*
X1586861D02*
D03*
X1226853Y824458D02*
D03*
X1518192D02*
D03*
D26*
X1931247Y960332D02*
D03*
X956026Y227159D02*
D03*
X390444Y1746072D02*
D03*
D27*
X1432919Y1587297D02*
D03*
D28*
X1574897Y1445319D02*
D03*
D29*
X676843Y1131099D02*
X699942Y1108000D01*
X675785Y1131099D02*
X676843D01*
X699942Y1108000D02*
X701000D01*
X698885D02*
X724998Y1081887D01*
X556023Y1227729D02*
X584878Y1198874D01*
Y1184920D02*
Y1198874D01*
X569543Y1169586D02*
X576414D01*
X556366Y1156409D02*
X584878Y1184920D01*
X754192Y1195458D02*
Y1197061D01*
X740244Y1211008D02*
X754192Y1197061D01*
X110000Y1489000D02*
X205434D01*
X230910Y1463524D01*
X55000Y1271000D02*
X58274Y1274274D01*
Y1296274D01*
X75000Y1313000D01*
X163234D01*
X203071Y1352837D01*
X234000Y1543951D02*
X272668Y1505282D01*
X234000Y1543951D02*
Y1576000D01*
X1300836Y824458D02*
X1346457Y870079D01*
Y921260D01*
X1226853Y824458D02*
X1300836D01*
X508630Y1519202D02*
X554973Y1565545D01*
X555557D01*
X604112Y1638142D02*
X617528D01*
X548515Y1582545D02*
X604112Y1638142D01*
X555557Y1565545D02*
X600012Y1610000D01*
X516295Y1582545D02*
X548515D01*
X480791Y1547041D02*
X516295Y1582545D01*
X600012Y1610000D02*
X652000D01*
X511957Y1606045D02*
Y1617957D01*
X549142Y1655142D02*
X590054D01*
X511957Y1617957D02*
X549142Y1655142D01*
X466872Y1560960D02*
X511957Y1606045D01*
X247325Y1614142D02*
X314426Y1547041D01*
X208488Y1614142D02*
X247325D01*
X203629Y1619000D02*
X208488Y1614142D01*
X201000Y1619000D02*
X203629D01*
X402549Y1598549D02*
X420000Y1616000D01*
X379000Y1549000D02*
X402549Y1572549D01*
Y1598549D01*
X368145Y1549000D02*
X379000D01*
X342265Y1574880D02*
X368145Y1549000D01*
X283000Y1606306D02*
X328346Y1560960D01*
X283000Y1606306D02*
Y1622000D01*
X617193Y1682281D02*
Y1713460D01*
X646192Y1742458D01*
X617528Y1638142D02*
X619711Y1640324D01*
X590054Y1655142D02*
X617193Y1682281D01*
X619711Y1640324D02*
X648184D01*
X680608Y1542023D02*
X702585Y1564000D01*
X617093Y1575093D02*
X619000Y1577000D01*
X592360Y1575093D02*
X617093D01*
X522550Y1505282D02*
X592360Y1575093D01*
X652000Y1610000D02*
X670043Y1628043D01*
X140748Y1255665D02*
X170018Y1284935D01*
Y1291945D01*
X216990Y1338917D01*
X630255Y1197342D02*
X635639Y1202727D01*
Y1253667D01*
X453000Y983000D02*
X630255Y1160255D01*
X564308Y1324998D02*
X635639Y1253667D01*
X630255Y1160255D02*
Y1197342D01*
X677502Y1708502D02*
X678000Y1709000D01*
X665000Y1708502D02*
X677502D01*
X660314Y1703816D02*
X665000Y1708502D01*
X660314Y1697686D02*
Y1703816D01*
Y1697686D02*
X670043Y1687957D01*
Y1628043D02*
Y1687957D01*
X416080Y1076628D02*
X417978Y1078526D01*
X416080Y1073999D02*
Y1076628D01*
X149419Y993419D02*
X161192Y1005192D01*
X188192D01*
X149419Y991390D02*
Y993419D01*
X439000Y783000D02*
X440000D01*
X455000Y768000D02*
X490000Y803000D01*
Y958027D01*
X440000Y783000D02*
X455000Y768000D01*
X342491Y894261D02*
X431230Y983000D01*
X453000D01*
X491688Y1108458D02*
X539639Y1156409D01*
X556366D01*
X613781Y1211781D02*
Y1211869D01*
X590463Y1235187D02*
Y1236729D01*
Y1235187D02*
X613781Y1211869D01*
X598000Y1066000D02*
X618557Y1086557D01*
X631243D01*
X619710Y1320245D02*
X637817D01*
X611961Y1337245D02*
X645726D01*
X699192Y1254458D02*
Y1258871D01*
X611212Y1312560D02*
X615005Y1316353D01*
X611197Y1336481D02*
X611961Y1337245D01*
X637817Y1320245D02*
X699192Y1258871D01*
X604585Y1312560D02*
X611212D01*
X679514Y1303458D02*
X713279D01*
X615817Y1316353D02*
X619710Y1320245D01*
X645726Y1337245D02*
X679514Y1303458D01*
X615005Y1316353D02*
X615817D01*
X592147Y1352837D02*
X608502Y1336481D01*
X578227Y1338917D02*
X578228D01*
X608502Y1336481D02*
X611197D01*
X578228Y1338917D02*
X604585Y1312560D01*
X151645Y1090645D02*
X157044Y1096044D01*
X1679134Y1104331D02*
X1711331D01*
X1721379Y1114379D01*
X1722000D01*
X1735427Y1136237D02*
X1826192Y1227002D01*
X1683732Y1167323D02*
X1696817Y1154237D01*
X1727971D01*
X1600311Y1136237D02*
X1735427D01*
X1577594Y1158954D02*
X1600311Y1136237D01*
X1552192Y1158954D02*
X1577594D01*
X1620192Y1166954D02*
X1624789D01*
X1638200Y1153543D01*
X1660757D01*
X1674536Y1167323D01*
X1683732D01*
X1727971Y1154237D02*
X1808192Y1234458D01*
X140748Y1231299D02*
Y1255665D01*
X86341Y1176892D02*
X140748Y1231299D01*
X77690Y1172044D02*
X80320D01*
X85167Y1176892D01*
X188192Y1005192D02*
Y1025622D01*
X202858Y1040289D01*
Y1102074D01*
X784858Y980110D02*
Y1212223D01*
X781192Y921458D02*
Y976443D01*
X784858Y980110D01*
X757874Y1239207D02*
X784858Y1212223D01*
X157044Y1096044D02*
Y1167615D01*
X174645Y1067645D02*
Y1161175D01*
X257470Y1244000D01*
X157044Y1167615D02*
X272668Y1283240D01*
X261267Y1244000D02*
X286587Y1269320D01*
X257470Y1244000D02*
X261267D01*
X91126Y1150234D02*
X103994Y1163102D01*
X134843Y1150591D02*
Y1173253D01*
X91126Y1147781D02*
Y1150234D01*
X221735Y999002D02*
Y1096002D01*
X202858Y1102074D02*
X229050Y1128266D01*
X221735Y1096002D02*
X248192Y1122458D01*
X210311Y1165928D02*
X210349D01*
X299821Y1255401D01*
X229050Y1154404D02*
X262887Y1188241D01*
X229050Y1128266D02*
Y1154404D01*
X248192Y1147408D02*
X328346Y1227562D01*
X248192Y1122458D02*
Y1147408D01*
X262887Y1188241D02*
Y1189942D01*
X299821Y1255401D02*
X300507D01*
X262887Y1189942D02*
X314426Y1241481D01*
X134843Y1173253D02*
X258749Y1297159D01*
X85167Y1176892D02*
X86341D01*
X749875Y1336771D02*
Y1338316D01*
Y1336771D02*
X757874Y1328772D01*
Y1239207D02*
Y1328772D01*
X740244Y1211008D02*
Y1276493D01*
X713279Y1303458D02*
X740244Y1276493D01*
X103994Y1163102D02*
Y1170244D01*
X244829Y1311079D01*
X591817Y1491033D02*
X598438D01*
X564308Y1463524D02*
X591817Y1491033D01*
X598438D02*
X601432Y1494027D01*
X604062D01*
X37513Y523662D02*
X53451Y539600D01*
X25192Y572458D02*
X40435Y557215D01*
Y552616D02*
X53121Y539930D01*
X40435Y552616D02*
Y557215D01*
X724381Y634419D02*
Y671269D01*
X214051Y1536061D02*
X258749Y1491363D01*
X214051Y1536061D02*
Y1540599D01*
X212192Y1542458D02*
X214051Y1540599D01*
X165051Y1557222D02*
Y1563599D01*
X163192Y1565458D02*
X165051Y1563599D01*
Y1557222D02*
X244829Y1477444D01*
X678192Y1039609D02*
X680456Y1037344D01*
X678192Y1039609D02*
Y1083458D01*
X631243Y1086557D02*
Y1094636D01*
X616192Y1109687D02*
X631243Y1094636D01*
X550222Y1227729D02*
X556023D01*
X1512261Y994797D02*
X1514120Y992938D01*
X1520991D01*
X1521471Y992458D01*
X1544192D01*
X1548192Y988458D01*
X1586861D01*
X616317Y1442458D02*
X654623D01*
X699192Y1354458D02*
Y1397889D01*
X654623Y1442458D02*
X699192Y1397889D01*
X592147Y1435685D02*
X606271Y1449809D01*
X608966D01*
X616317Y1442458D01*
X623085Y1478458D02*
X674665D01*
X550389Y1477790D02*
X585143Y1512544D01*
X563284Y1521945D02*
X583361Y1542023D01*
X585143Y1512544D02*
Y1512891D01*
X578227Y1449605D02*
X579330D01*
X601894Y1472169D01*
X563284Y1518178D02*
Y1521945D01*
X601894Y1472169D02*
X616796D01*
X536469Y1491363D02*
X563284Y1518178D01*
X583361Y1542023D02*
X680608D01*
X616796Y1472169D02*
X623085Y1478458D01*
X550389Y1477444D02*
Y1477790D01*
X536469Y1491363D02*
Y1491363D01*
X698664Y1454458D02*
X699192D01*
X674665Y1478458D02*
X698664Y1454458D01*
X399577Y154104D02*
X453837D01*
X368192Y122718D02*
X399577Y154104D01*
X368192Y67599D02*
Y122718D01*
X336585Y35993D02*
X368192Y67599D01*
X11874Y429852D02*
X23126Y418600D01*
X37513Y522355D02*
Y523662D01*
X11874Y496715D02*
X37513Y522355D01*
X11874Y429852D02*
Y496715D01*
X23126Y418600D02*
X79428D01*
X80680Y417883D02*
Y419851D01*
X1771179Y1397816D02*
X1792506D01*
X1811050Y1379272D01*
Y1360055D02*
X1826192Y1344914D01*
Y1227002D02*
Y1344914D01*
X1811050Y1360055D02*
Y1379272D01*
X1771179Y1379816D02*
X1785050D01*
X1766821Y1375458D02*
X1771179Y1379816D01*
X1785050D02*
X1793050Y1371816D01*
X1764192Y1375458D02*
X1766821D01*
X1793050Y1352600D02*
X1808192Y1337458D01*
Y1234458D02*
Y1337458D01*
X1793050Y1352600D02*
Y1371816D01*
X417978Y1078526D02*
Y1097740D01*
X428696Y1108458D01*
X1359192Y991087D02*
Y1100962D01*
X1356192Y988087D02*
X1359192Y991087D01*
X1356192Y985458D02*
Y988087D01*
X1619192Y1305458D02*
X1641955Y1328221D01*
Y1335457D01*
X1643814Y1337316D01*
X1696192Y1306308D02*
X1696822Y1305678D01*
X1696192Y1306308D02*
Y1339458D01*
X439033Y1588799D02*
X469192Y1618957D01*
X393192Y1510458D02*
X409878Y1493772D01*
X455361D01*
X416051Y1537978D02*
X452952Y1574880D01*
X416051Y1533175D02*
Y1537978D01*
X414192Y1531316D02*
X416051Y1533175D01*
X455361Y1493772D02*
X494711Y1533121D01*
X413051Y1196317D02*
X426398Y1209664D01*
X411192Y1186458D02*
X413051Y1188317D01*
Y1196317D01*
X429092Y1209664D02*
X439033Y1199723D01*
X426398Y1209664D02*
X429092D01*
X382183Y1252458D02*
X405192D01*
X475192Y1319458D02*
X486331D01*
X522550Y1283240D01*
X536469Y1297159D02*
Y1297180D01*
X490192Y1343458D02*
X536469Y1297180D01*
X202192Y1417870D02*
X210191Y1425870D01*
X202192Y1385564D02*
Y1417870D01*
X203071Y1435685D02*
X210191Y1428565D01*
Y1425870D02*
Y1428565D01*
X518192Y1343275D02*
X550389Y1311079D01*
X518192Y1343275D02*
Y1361458D01*
X405192Y1252458D02*
X405390Y1252259D01*
X343368Y1213642D02*
X382183Y1252458D01*
X325192Y1169458D02*
X325920D01*
X356185Y1199723D01*
X216990Y1449605D02*
X254137Y1412458D01*
X342265Y1213642D02*
X343368D01*
X534920Y1191530D02*
Y1192187D01*
X518192Y1175458D02*
X518848D01*
X534920Y1191530D01*
Y1192187D02*
X545920D01*
X573764Y1234030D02*
Y1259865D01*
X508630Y1269320D02*
X550222Y1227729D01*
X536469Y1297159D02*
X573764Y1259865D01*
X494711Y1255401D02*
X545920Y1204191D01*
Y1192187D02*
Y1204191D01*
D30*
X1487000Y1015449D02*
X1502387Y1030836D01*
X1502387D01*
X1487000Y948209D02*
Y1015449D01*
X1502387Y1030836D02*
X1517506Y1045955D01*
X1518192Y824458D02*
Y892000D01*
Y917017D01*
X1487000Y948209D02*
X1518192Y917017D01*
X1517506Y1177695D02*
X1532696Y1192884D01*
X1517506Y1045955D02*
Y1177695D01*
X1532696Y1192884D02*
Y1251458D01*
X44000Y1433000D02*
X44016Y1432984D01*
Y1403984D02*
Y1432984D01*
Y1403984D02*
X71000Y1377000D01*
X241186Y301265D02*
X265917D01*
X214104Y274182D02*
X241186Y301265D01*
X210601Y274182D02*
X214104D01*
X265917Y301265D02*
X267010Y302359D01*
X143672Y335080D02*
Y404852D01*
X122018Y313426D02*
X143672Y335080D01*
X207050Y47418D02*
X218475Y35993D01*
X196232Y47418D02*
X207050D01*
X181192Y62458D02*
X196232Y47418D01*
X200337Y93080D02*
X200758D01*
X187073Y79816D02*
X200337Y93080D01*
X187073Y79395D02*
Y79816D01*
X182285Y74607D02*
X187073Y79395D01*
X182285Y63552D02*
Y74607D01*
X181192Y62458D02*
X182285Y63552D01*
X454782Y95049D02*
X464192Y104458D01*
X399577Y95049D02*
X454782D01*
X399577D02*
X399577Y95048D01*
Y35993D02*
Y95048D01*
X279499Y93080D02*
X334617D01*
X336585Y95049D01*
X281467Y35993D02*
Y36415D01*
X268204Y49678D02*
X281467Y36415D01*
X267782Y49678D02*
X268204D01*
X244814Y72647D02*
X267782Y49678D01*
X265814Y142809D02*
X279077Y156072D01*
X244814Y72647D02*
Y121387D01*
X279077Y156072D02*
X279499D01*
X265814Y142387D02*
Y142809D01*
X244814Y121387D02*
X265814Y142387D01*
D31*
X130000Y1348000D02*
X167565Y1385564D01*
X202192D01*
D32*
X1295276Y959914D02*
Y988211D01*
X1295522Y988458D01*
X1620192Y1103842D02*
X1635192Y1088842D01*
Y1065458D02*
Y1088842D01*
X1620192Y1103842D02*
Y1103962D01*
X1609696Y1038458D02*
X1629192D01*
X1552192Y1095962D02*
X1609696Y1038458D01*
X1295522Y1058789D02*
X1301192Y1064458D01*
X1295522Y988458D02*
Y1058789D01*
X1612807Y1234458D02*
X1648711D01*
X1595807Y1251458D02*
X1612807Y1234458D01*
X1595688Y1251458D02*
X1595807D01*
X1713672Y1234458D02*
X1748987D01*
X1750310Y1233135D01*
X1359192Y1163954D02*
X1427129D01*
X1448790Y1142293D01*
X1531467Y1298942D02*
X1562923Y1330398D01*
Y1334796D01*
D33*
X170499Y776151D02*
X197440Y749210D01*
X265318Y681331D01*
Y562421D02*
Y681331D01*
X102333Y776151D02*
X170499D01*
X828711Y587174D02*
X944853D01*
X818869Y597017D02*
X828711Y587174D01*
X1438944Y1321132D02*
X1466124Y1348311D01*
X1547058Y1473158D02*
X1557015Y1463201D01*
X1540655Y1473158D02*
X1547058D01*
X1515569Y1448072D02*
X1540655Y1473158D01*
X1391518Y1321132D02*
X1438944D01*
X1493303Y1448072D02*
X1515569D01*
X1466124Y1420892D02*
X1493303Y1448072D01*
X1466124Y1348311D02*
Y1420892D01*
X1389192Y1323458D02*
X1391518Y1321132D01*
D34*
X173200Y537962D02*
X174782Y539545D01*
X206065D01*
X312192Y397001D02*
Y414458D01*
X331369Y375856D02*
X336585Y370639D01*
X331369Y375856D02*
Y377824D01*
X312192Y397001D02*
X331369Y377824D01*
X297369Y285797D02*
Y344281D01*
Y285797D02*
X301450Y281716D01*
X278192Y363458D02*
X297369Y344281D01*
X244192Y363458D02*
X278192D01*
X337746Y241206D02*
X345137Y248596D01*
X337746Y195903D02*
Y241206D01*
X336585Y309615D02*
X341802Y304399D01*
Y297234D02*
Y304399D01*
Y297234D02*
X345137Y293899D01*
Y248596D02*
Y293899D01*
X337746Y195903D02*
X337928Y195721D01*
X336585Y309615D02*
Y370639D01*
X110207Y537962D02*
Y583458D01*
Y478907D02*
Y537962D01*
X53121Y476938D02*
X55089Y478907D01*
X110207D01*
X173199Y537962D02*
X173200Y537962D01*
Y478907D02*
Y537962D01*
X724381Y590647D02*
X746738D01*
X797549Y641458D01*
X724381Y559615D02*
Y590647D01*
X229045Y227666D02*
X266408D01*
X210601Y211190D02*
X212570D01*
X229045Y227666D01*
X266408D02*
X269656Y230914D01*
Y232844D01*
X166577Y156072D02*
X200758D01*
X1199192Y1754458D02*
Y1757240D01*
X1172829Y1783603D02*
Y1949127D01*
Y1783603D02*
X1199192Y1757240D01*
X1099192Y1754458D02*
Y1758815D01*
X1074404Y1783603D02*
Y1949127D01*
Y1783603D02*
X1099192Y1758815D01*
X999192Y1754458D02*
Y1760390D01*
X975979Y1783603D02*
Y1949127D01*
Y1783603D02*
X999192Y1760390D01*
X899192Y1754458D02*
Y1761965D01*
X877554Y1783603D02*
Y1949127D01*
Y1783603D02*
X899192Y1761965D01*
X836585Y1669852D02*
Y1679534D01*
X823517Y1692602D02*
X836585Y1679534D01*
X814019Y1692602D02*
X823517D01*
X799192Y1707429D02*
X814019Y1692602D01*
X799192Y1707429D02*
Y1754458D01*
X850714Y1586825D02*
X856270Y1581269D01*
X850714Y1586825D02*
Y1645721D01*
X836585Y1659849D02*
X850714Y1645721D01*
X836585Y1659849D02*
Y1669852D01*
X863047Y1505594D02*
X875955Y1492686D01*
X863047Y1505594D02*
Y1529044D01*
X861827Y1530264D02*
X863047Y1529044D01*
X861827Y1530264D02*
Y1575713D01*
X856270Y1581269D02*
X861827Y1575713D01*
X880877Y1409025D02*
X885798Y1404104D01*
X880877Y1409025D02*
Y1487765D01*
X875955Y1492686D02*
X880877Y1487765D01*
X765719Y1492686D02*
X770640Y1487765D01*
Y1409025D02*
Y1487765D01*
Y1409025D02*
X775562Y1404104D01*
X746034Y1581269D02*
X758942Y1568361D01*
Y1544911D02*
Y1568361D01*
Y1544911D02*
X760163Y1543691D01*
Y1498243D02*
Y1543691D01*
Y1498243D02*
X765719Y1492686D01*
X726349Y1669852D02*
X739257Y1656943D01*
Y1633494D02*
Y1656943D01*
Y1633494D02*
X740478Y1632274D01*
Y1586825D02*
Y1632274D01*
Y1586825D02*
X746034Y1581269D01*
X699192Y1751371D02*
Y1754458D01*
Y1751371D02*
X725249Y1725313D01*
Y1670951D02*
Y1725313D01*
Y1670951D02*
X726349Y1669852D01*
D35*
X271483Y488749D02*
X285192Y502458D01*
X245129Y488749D02*
X271483D01*
D36*
X399577Y311584D02*
X403514Y307647D01*
Y246466D02*
Y307647D01*
X407452Y232844D02*
Y242529D01*
X403514Y246466D02*
X407452Y242529D01*
X399577Y311584D02*
Y370639D01*
X281467Y154104D02*
X336585D01*
X279499Y156072D02*
X281467Y154104D01*
X344302Y163789D02*
X351145D01*
X362861Y175505D02*
Y176470D01*
X379180Y192789D02*
X384522D01*
X401703Y209970D01*
X362861Y176470D02*
X379180Y192789D01*
X401703Y209970D02*
Y227096D01*
X407452Y232844D01*
X351145Y163789D02*
X362861Y175505D01*
X1179192Y1068458D02*
Y1072458D01*
X1085909Y975175D02*
X1179192Y1068458D01*
X1081192Y921458D02*
X1085909Y926175D01*
Y975175D01*
X1081192Y821458D02*
Y921458D01*
D37*
X1172829Y1949127D02*
D03*
D38*
X1074404D02*
D03*
X975979D02*
D03*
X877554D02*
D03*
X102333Y677726D02*
D03*
Y984812D02*
D03*
X584192Y305883D02*
D03*
Y207458D02*
D03*
X342491Y795836D02*
D03*
D39*
X699192Y1354458D02*
D03*
X699192Y1254458D02*
D03*
Y1454458D02*
D03*
X1099192Y1754458D02*
D03*
X1199192Y1754458D02*
D03*
X999192Y1754458D02*
D03*
X899192D02*
D03*
X1399192Y1254458D02*
D03*
Y1754458D02*
D03*
X799192Y1754458D02*
D03*
X799192Y1254458D02*
D03*
X899192Y1254458D02*
D03*
X999192Y1254458D02*
D03*
X1099192D02*
D03*
X1199192Y1254458D02*
D03*
X1299192Y1254458D02*
D03*
Y1754458D02*
D03*
X699192Y1754458D02*
D03*
D40*
X102333Y776151D02*
D03*
Y1083237D02*
D03*
X584192Y109033D02*
D03*
X342491Y894261D02*
D03*
D41*
X1081192Y921458D02*
D03*
D42*
X981192D02*
D03*
X881192D02*
D03*
X781192D02*
D03*
X681192D02*
D03*
X581192D02*
D03*
D43*
X1081192Y821458D02*
D03*
D44*
X981192D02*
D03*
X881192D02*
D03*
X781192D02*
D03*
X1199192Y1554458D02*
D03*
Y1454458D02*
D03*
X1099192D02*
D03*
Y1554458D02*
D03*
Y1654458D02*
D03*
X999192Y1454458D02*
D03*
Y1554458D02*
D03*
X999192Y1654458D02*
D03*
D45*
X1144853Y587174D02*
D03*
D46*
X944853D02*
D03*
D47*
X1933042Y1449009D02*
D03*
X1440916Y1945442D02*
D03*
X551811Y592395D02*
D03*
X1023622Y1095204D02*
D03*
D48*
X1199192Y1354458D02*
D03*
X1099192D02*
D03*
X999192Y1354458D02*
D03*
D49*
X1438762Y1691690D02*
D03*
X1679289Y1451162D02*
D03*
D50*
X1376963Y1550266D02*
D03*
X1537866Y1389363D02*
D03*
D51*
X1322396Y1575323D02*
D03*
X1562923Y1334796D02*
D03*
D52*
X701000Y1108000D02*
D03*
X576414Y1169586D02*
D03*
X754192Y1195458D02*
D03*
X165150Y1416609D02*
D03*
X1291339Y716535D02*
D03*
X1244094D02*
D03*
X1267716D02*
D03*
X1244094Y692913D02*
D03*
X1267716D02*
D03*
X1291339D02*
D03*
X1381890Y716535D02*
D03*
X1358268D02*
D03*
X1334646D02*
D03*
Y692913D02*
D03*
X1358268D02*
D03*
X1381890D02*
D03*
X447000Y210000D02*
D03*
X1472441Y692913D02*
D03*
X1448819D02*
D03*
X1425197D02*
D03*
Y716535D02*
D03*
X1448819D02*
D03*
X1472441D02*
D03*
X1346457Y921260D02*
D03*
X1295276Y959914D02*
D03*
X539461Y1604403D02*
D03*
X201000Y1619000D02*
D03*
X811000Y1534000D02*
D03*
X420000Y1616000D02*
D03*
X283000Y1622000D02*
D03*
X581000Y1677000D02*
D03*
X648184Y1640324D02*
D03*
X702585Y1564000D02*
D03*
X652113Y1188113D02*
D03*
X678000Y1709000D02*
D03*
X150000Y886000D02*
D03*
X176929Y844000D02*
D03*
X282955Y961022D02*
D03*
X529251Y960828D02*
D03*
X416080Y1073999D02*
D03*
X71000Y1377000D02*
D03*
X149419Y991390D02*
D03*
X16732Y1262129D02*
D03*
X51199Y1217801D02*
D03*
X455000Y768000D02*
D03*
X291000Y833000D02*
D03*
X613781Y1211781D02*
D03*
X598000Y1066000D02*
D03*
X411192Y1186458D02*
D03*
X763000Y997000D02*
D03*
X1485530Y1191120D02*
D03*
X1284969Y1104680D02*
D03*
X1518000Y892000D02*
D03*
X1722000Y1114379D02*
D03*
X1635192Y1065458D02*
D03*
X1629192Y1038458D02*
D03*
X90000Y1286000D02*
D03*
X43448Y1330709D02*
D03*
X77690Y1172044D02*
D03*
X732000Y951000D02*
D03*
X151645Y1090645D02*
D03*
X174645Y1067645D02*
D03*
X91126Y1147781D02*
D03*
X134843Y1150591D02*
D03*
X210311Y1165928D02*
D03*
X779732Y1302958D02*
D03*
X731192Y1316458D02*
D03*
X749875Y1338316D02*
D03*
X221735Y999002D02*
D03*
X16732Y1330709D02*
D03*
X1431524Y1500128D02*
D03*
X459192Y814458D02*
D03*
X284394Y755635D02*
D03*
X25192Y572458D02*
D03*
X206065Y539545D02*
D03*
X206655Y434056D02*
D03*
X285192Y502458D02*
D03*
X312192Y414458D02*
D03*
X301450Y281716D02*
D03*
X267010Y302359D02*
D03*
X375495Y278802D02*
D03*
X244192Y363458D02*
D03*
X92491Y313426D02*
D03*
X110207Y583458D02*
D03*
X72829Y442509D02*
D03*
X159192Y590458D02*
D03*
X265318Y562421D02*
D03*
X724381Y671269D02*
D03*
X460192Y349458D02*
D03*
X489192Y425458D02*
D03*
X509192Y354458D02*
D03*
X910192Y704513D02*
D03*
X724381Y590647D02*
D03*
X212192Y1542458D02*
D03*
X163192Y1565458D02*
D03*
X660192D02*
D03*
X678192Y1083458D02*
D03*
X1512261Y994797D02*
D03*
X1275192Y1182458D02*
D03*
X604062Y1494027D02*
D03*
X585143Y1512891D02*
D03*
X646192Y1742458D02*
D03*
X245050Y234812D02*
D03*
X181192Y62458D02*
D03*
X368081Y395654D02*
D03*
X453837Y154104D02*
D03*
X464192Y104458D02*
D03*
X337928Y195721D02*
D03*
X166577Y156072D02*
D03*
X122018Y313426D02*
D03*
X62963D02*
D03*
X1764192Y1402175D02*
D03*
X1450333Y1481148D02*
D03*
X1764192Y1375458D02*
D03*
X1750310Y1233135D02*
D03*
X1251192Y1085458D02*
D03*
X1356192Y985458D02*
D03*
X1361192Y1415458D02*
D03*
X1511056Y1405214D02*
D03*
X1389192Y1323458D02*
D03*
X1421192Y1363990D02*
D03*
X1696192Y1339458D02*
D03*
X1338548Y1447957D02*
D03*
X1643814Y1337316D02*
D03*
X469192Y1618957D02*
D03*
X363993Y1289657D02*
D03*
X393192Y1510458D02*
D03*
X414192Y1531316D02*
D03*
X475192Y1319458D02*
D03*
X202192Y1385564D02*
D03*
X518192Y1361458D02*
D03*
X405390Y1252259D02*
D03*
X325192Y1169458D02*
D03*
X255192Y1412458D02*
D03*
X490192Y1343458D02*
D03*
X473192Y1387576D02*
D03*
X419952Y1342390D02*
D03*
X518192Y1175458D02*
D03*
D53*
X1492097Y1142293D02*
D03*
X1448790D02*
D03*
X1492097Y1098986D02*
D03*
X1448790D02*
D03*
X1492097Y1055678D02*
D03*
X1448790D02*
D03*
%TF.MD5,d5a2931ac4ba04b70a13a10cdf2c4302*%
M02*
