%TF.GenerationSoftware,Altium Limited,Altium Designer,23.4.1 (23)*%
G04 Layer_Physical_Order=2*
G04 Layer_Color=36540*
%FSLAX26Y26*%
%MOIN*%
%TF.SameCoordinates,1F395C4B-4EE4-4E32-9856-E664E5071CD5*%
%TF.FilePolarity,Positive*%
%TF.FileFunction,Copper,L2,Inr,Signal*%
%TF.Part,CustomerPanel*%
G01*
G75*
%TA.AperFunction,Conductor*%
%ADD29C,0.008000*%
%ADD30C,0.012000*%
%ADD33C,0.050000*%
%ADD34C,0.025000*%
%TA.AperFunction,ComponentPad*%
%ADD37R,0.059370X0.059370*%
%ADD38C,0.059370*%
%ADD39C,0.054000*%
%ADD40R,0.059370X0.059370*%
%ADD41R,0.070866X0.070866*%
%ADD42C,0.070866*%
%ADD43R,0.059000X0.059000*%
%ADD44C,0.060000*%
%ADD45R,0.066929X0.066929*%
%ADD46C,0.066929*%
%TA.AperFunction,ViaPad*%
%ADD47C,0.059055*%
%TA.AperFunction,ComponentPad*%
%ADD48R,0.059000X0.059000*%
G04:AMPARAMS|DCode=49|XSize=39.37mil|YSize=62.992mil|CornerRadius=0mil|HoleSize=0mil|Usage=FLASHONLY|Rotation=315.000|XOffset=0mil|YOffset=0mil|HoleType=Round|Shape=Round|*
%AMOVALD49*
21,1,0.023622,0.039370,0.000000,0.000000,45.0*
1,1,0.039370,-0.008352,-0.008352*
1,1,0.039370,0.008352,0.008352*
%
%ADD49OVALD49*%

%ADD50C,0.026575*%
G04:AMPARAMS|DCode=51|XSize=39.37mil|YSize=82.677mil|CornerRadius=0mil|HoleSize=0mil|Usage=FLASHONLY|Rotation=315.000|XOffset=0mil|YOffset=0mil|HoleType=Round|Shape=Round|*
%AMOVALD51*
21,1,0.043307,0.039370,0.000000,0.000000,45.0*
1,1,0.039370,-0.015311,-0.015311*
1,1,0.039370,0.015311,0.015311*
%
%ADD51OVALD51*%

%TA.AperFunction,ViaPad*%
%ADD52C,0.017716*%
%ADD53C,0.019685*%
%TA.AperFunction,Conductor*%
%ADD54R,0.074000X0.112000*%
G36*
X877238Y1784411D02*
X877087Y1783265D01*
X870385Y1776563D01*
X865645Y1768354D01*
X863192Y1759198D01*
Y1749719D01*
X865645Y1740563D01*
X870385Y1732354D01*
X877087Y1725651D01*
X885296Y1720912D01*
X894192Y1718528D01*
Y1530458D01*
X735404Y1371670D01*
X730447Y1372323D01*
X727999Y1376563D01*
X721296Y1383265D01*
X713087Y1388005D01*
X703931Y1390458D01*
X694452D01*
X685296Y1388005D01*
X677087Y1383265D01*
X670385Y1376563D01*
X665645Y1368354D01*
X663192Y1359198D01*
Y1349719D01*
X665645Y1340563D01*
X670385Y1332354D01*
X677087Y1325651D01*
X681327Y1323203D01*
X681980Y1318246D01*
X658192Y1294458D01*
Y1141192D01*
X567113Y1050113D01*
X309726D01*
X216209Y1143630D01*
X217382Y1149528D01*
X220427Y1150789D01*
X225451Y1155813D01*
X228169Y1162376D01*
Y1169481D01*
X225451Y1176044D01*
X220427Y1181068D01*
X213863Y1183787D01*
X206759D01*
X200195Y1181068D01*
X195172Y1176044D01*
X193911Y1173000D01*
X188012Y1171827D01*
X128434Y1231405D01*
X124134Y1234278D01*
X119062Y1235287D01*
X110713D01*
X87563Y1258437D01*
Y1268142D01*
X93552D01*
X100116Y1270861D01*
X105139Y1275884D01*
X107858Y1282448D01*
Y1289552D01*
X105139Y1296116D01*
X100116Y1301139D01*
X93552Y1303858D01*
X86448D01*
X79884Y1301139D01*
X74861Y1296116D01*
X74172Y1294453D01*
X69268Y1293477D01*
X52345Y1310400D01*
Y1315064D01*
X53564Y1315569D01*
X58588Y1320593D01*
X61306Y1327157D01*
Y1334261D01*
X58588Y1340825D01*
X53564Y1345848D01*
X47001Y1348567D01*
X39896D01*
X33332Y1345848D01*
X30090Y1342606D01*
X26848Y1345848D01*
X20284Y1348567D01*
X13180D01*
X12185Y1348155D01*
X8028Y1350933D01*
Y1461941D01*
X177912Y1631825D01*
X182667Y1631389D01*
X185051Y1627161D01*
X183142Y1622552D01*
Y1615448D01*
X185861Y1608884D01*
X190884Y1603861D01*
X197448Y1601142D01*
X204552D01*
X211116Y1603861D01*
X216139Y1608884D01*
X218858Y1615448D01*
Y1622552D01*
X216893Y1627296D01*
X219492Y1632296D01*
X262523D01*
X265864Y1627296D01*
X265142Y1625552D01*
Y1618448D01*
X267861Y1611884D01*
X272884Y1606861D01*
X279448Y1604142D01*
X286552D01*
X293116Y1606861D01*
X295001Y1608745D01*
X337510D01*
X361486Y1584769D01*
X365786Y1581896D01*
X370858Y1580887D01*
X498288D01*
X503360Y1581896D01*
X507660Y1584769D01*
X537372Y1614482D01*
D01*
D01*
X537666Y1614921D01*
X581887Y1659142D01*
X584552D01*
X591116Y1661861D01*
X596139Y1666884D01*
X598858Y1673448D01*
Y1680552D01*
X596139Y1687116D01*
X591116Y1692139D01*
X588416Y1693258D01*
X587243Y1699156D01*
X624114Y1736027D01*
X630012Y1734854D01*
X631052Y1732342D01*
X636076Y1727318D01*
X642639Y1724600D01*
X649744D01*
X656308Y1727318D01*
X661331Y1732342D01*
X662704Y1735657D01*
X668267Y1736021D01*
X670385Y1732353D01*
X671634Y1731104D01*
X670460Y1725207D01*
X667884Y1724139D01*
X662861Y1719116D01*
X660142Y1712552D01*
Y1705448D01*
X662861Y1698884D01*
X667884Y1693861D01*
X674448Y1691142D01*
X681552D01*
X688116Y1693861D01*
X693139Y1698884D01*
X695858Y1705448D01*
Y1712552D01*
X695483Y1713458D01*
X698824Y1718458D01*
X703931D01*
X713087Y1720911D01*
X721296Y1725651D01*
X727999Y1732353D01*
X732738Y1740562D01*
X735192Y1749718D01*
Y1759197D01*
X732738Y1768353D01*
X727999Y1776562D01*
X721296Y1783265D01*
X713087Y1788005D01*
X703931Y1790458D01*
X694452D01*
X685296Y1788005D01*
X680247Y1785090D01*
X677177Y1789091D01*
X710545Y1822458D01*
X839192D01*
X877238Y1784411D01*
D02*
G37*
G36*
X1803121Y1398198D02*
Y1236781D01*
X1740129Y1173789D01*
X1724380D01*
X1633908Y1083316D01*
X1631639D01*
X1625076Y1080597D01*
X1620052Y1075574D01*
X1617333Y1069010D01*
Y1066742D01*
X1610207Y1059615D01*
X1559026Y1008434D01*
X1523879D01*
X1522377Y1009936D01*
X1515813Y1012655D01*
X1508709D01*
X1502145Y1009936D01*
X1500644Y1008434D01*
X1456664D01*
X1425168Y1039930D01*
Y1142926D01*
X1465116Y1182873D01*
X1470020Y1181898D01*
X1470390Y1181004D01*
X1475414Y1175980D01*
X1481977Y1173262D01*
X1489082D01*
X1495646Y1175980D01*
X1500669Y1181004D01*
X1503388Y1187568D01*
Y1194672D01*
X1500669Y1201236D01*
X1495646Y1206259D01*
X1494752Y1206630D01*
X1493776Y1211534D01*
X1499564Y1217322D01*
X1502438Y1221622D01*
X1503446Y1226694D01*
Y1318996D01*
X1688947Y1504497D01*
X1696822D01*
X1803121Y1398198D01*
D02*
G37*
G36*
X119226Y1116550D02*
X123526Y1113677D01*
X128598Y1112668D01*
X143368D01*
X143667Y1112049D01*
X141529Y1105784D01*
X136506Y1100761D01*
X133787Y1094197D01*
Y1087093D01*
X136506Y1080529D01*
X138390Y1078644D01*
Y1029355D01*
X139399Y1024283D01*
X142273Y1019982D01*
X148006Y1014249D01*
X145935Y1009249D01*
X145867D01*
X139303Y1006530D01*
X139139Y1006366D01*
X134182Y1007019D01*
X133289Y1008565D01*
X126086Y1015768D01*
X117265Y1020861D01*
X107426Y1023497D01*
X97240D01*
X87401Y1020861D01*
X78580Y1015768D01*
X71378Y1008565D01*
X66285Y999744D01*
X63648Y989905D01*
Y979719D01*
X66285Y969880D01*
X71378Y961059D01*
X78580Y953856D01*
X87401Y948764D01*
X97240Y946127D01*
X107426D01*
X117265Y948764D01*
X126086Y953856D01*
X133289Y961059D01*
X138382Y969880D01*
X139029Y972296D01*
X143514Y974507D01*
X145867Y973532D01*
X152971D01*
X159535Y976251D01*
X164559Y981275D01*
X166231Y985312D01*
X171231Y984317D01*
Y894475D01*
X166231Y893481D01*
X165139Y896116D01*
X160116Y901139D01*
X153552Y903858D01*
X146448D01*
X139884Y901139D01*
X134861Y896116D01*
X132142Y889552D01*
Y882448D01*
X134861Y875884D01*
X139884Y870861D01*
X146448Y868142D01*
X153552D01*
X160116Y870861D01*
X165139Y875884D01*
X166231Y878519D01*
X171231Y877525D01*
Y860969D01*
X166813Y859139D01*
X161790Y854116D01*
X159071Y847552D01*
Y840448D01*
X161790Y833884D01*
X166813Y828861D01*
X171231Y827031D01*
Y734812D01*
Y610207D01*
X166231Y606872D01*
X162744Y608316D01*
X155639D01*
X149076Y605597D01*
X144052Y600574D01*
X141333Y594010D01*
Y586906D01*
X144052Y580342D01*
X149076Y575318D01*
X155639Y572600D01*
X162744D01*
X166231Y574044D01*
X171231Y570709D01*
Y294458D01*
X13751D01*
X13751Y552455D01*
X18751Y555796D01*
X21639Y554600D01*
X28744D01*
X35307Y557318D01*
X40331Y562342D01*
X43050Y568906D01*
Y576010D01*
X40331Y582574D01*
X35307Y587597D01*
X28744Y590316D01*
X21639D01*
X18751Y589120D01*
X13751Y592461D01*
X13751Y1089751D01*
X51000Y1127000D01*
X108776D01*
X119226Y1116550D01*
D02*
G37*
G36*
X953406Y779229D02*
X958856Y772127D01*
X997274Y733709D01*
X1004376Y728259D01*
X1012647Y724833D01*
X1021523Y723664D01*
X1124775D01*
X1133651Y724833D01*
X1141921Y728259D01*
X1143808Y729707D01*
X1156943D01*
X1220192Y666458D01*
Y532458D01*
X764192D01*
X760264Y528530D01*
X717236D01*
X717236Y528530D01*
X714164Y527919D01*
X711559Y526178D01*
X711559Y526178D01*
X687515Y502135D01*
X685775Y499530D01*
X685164Y496458D01*
Y453430D01*
X575278Y343545D01*
X569260Y341932D01*
X560438Y336839D01*
X553236Y329636D01*
X548143Y320815D01*
X546530Y314797D01*
X538192Y306458D01*
X284642D01*
X282150Y312475D01*
X277126Y317498D01*
X270563Y320217D01*
X263458D01*
X256895Y317498D01*
X251871Y312475D01*
X249379Y306458D01*
X185192D01*
Y426141D01*
X190192Y427136D01*
X191515Y423940D01*
X196539Y418916D01*
X203102Y416198D01*
X210207D01*
X216771Y418916D01*
X221794Y423940D01*
X224513Y430504D01*
Y437608D01*
X221794Y444172D01*
X216771Y449195D01*
X210207Y451914D01*
X203102D01*
X196539Y449195D01*
X191515Y444172D01*
X190192Y440976D01*
X185192Y441971D01*
Y732458D01*
X240192Y787458D01*
X304686D01*
X306442Y780904D01*
X311535Y772083D01*
X318738Y764880D01*
X327559Y759787D01*
X337398Y757151D01*
X347584D01*
X357423Y759787D01*
X366244Y764880D01*
X373447Y772083D01*
X378539Y780904D01*
X380296Y787458D01*
X442670D01*
X443581Y785680D01*
X444202Y782458D01*
X439861Y778116D01*
X437142Y771552D01*
Y764448D01*
X439861Y757884D01*
X444884Y752861D01*
X451448Y750142D01*
X458552D01*
X465116Y752861D01*
X470139Y757884D01*
X472858Y764448D01*
Y771552D01*
X470139Y778116D01*
X465798Y782458D01*
X466419Y785680D01*
X467330Y787458D01*
X762081D01*
X766138Y785116D01*
X776057Y782458D01*
X786326D01*
X796245Y785116D01*
X800302Y787458D01*
X862081D01*
X866138Y785116D01*
X876057Y782458D01*
X886326D01*
X896245Y785116D01*
X900302Y787458D01*
X949998D01*
X953406Y779229D01*
D02*
G37*
%LPC*%
G36*
X651736Y1658182D02*
X644632D01*
X638068Y1655463D01*
X633045Y1650440D01*
X630326Y1643876D01*
Y1636772D01*
X633045Y1630208D01*
X638068Y1625184D01*
X644632Y1622466D01*
X651736D01*
X658300Y1625184D01*
X663324Y1630208D01*
X666042Y1636772D01*
Y1643876D01*
X663324Y1650440D01*
X658300Y1655463D01*
X651736Y1658182D01*
D02*
G37*
G36*
X166744Y1583316D02*
X159639D01*
X153076Y1580597D01*
X148052Y1575574D01*
X145333Y1569010D01*
Y1561906D01*
X148052Y1555342D01*
X153076Y1550318D01*
X159639Y1547600D01*
X166744D01*
X173308Y1550318D01*
X178331Y1555342D01*
X181050Y1561906D01*
Y1569010D01*
X178331Y1575574D01*
X173308Y1580597D01*
X166744Y1583316D01*
D02*
G37*
G36*
X706137Y1581858D02*
X699033D01*
X692469Y1579140D01*
X687446Y1574116D01*
X684727Y1567552D01*
Y1560448D01*
X687446Y1553884D01*
X692469Y1548861D01*
X699033Y1546142D01*
X706137D01*
X712701Y1548861D01*
X717725Y1553884D01*
X720443Y1560448D01*
Y1567552D01*
X717725Y1574116D01*
X712701Y1579140D01*
X706137Y1581858D01*
D02*
G37*
G36*
X215744Y1560316D02*
X208639D01*
X202076Y1557597D01*
X197052Y1552574D01*
X194333Y1546010D01*
Y1538906D01*
X197052Y1532342D01*
X202076Y1527318D01*
X208639Y1524600D01*
X215744D01*
X222308Y1527318D01*
X227331Y1532342D01*
X230050Y1538906D01*
Y1546010D01*
X227331Y1552574D01*
X222308Y1557597D01*
X215744Y1560316D01*
D02*
G37*
G36*
X814552Y1551858D02*
X807448D01*
X800884Y1549139D01*
X795861Y1544116D01*
X793142Y1537552D01*
Y1530448D01*
X795861Y1523884D01*
X800884Y1518861D01*
X807448Y1516142D01*
X814552D01*
X821116Y1518861D01*
X826139Y1523884D01*
X828858Y1530448D01*
Y1537552D01*
X826139Y1544116D01*
X821116Y1549139D01*
X814552Y1551858D01*
D02*
G37*
G36*
X396744Y1528316D02*
X389639D01*
X383076Y1525597D01*
X378052Y1520574D01*
X375333Y1514010D01*
Y1506906D01*
X378052Y1500342D01*
X383076Y1495318D01*
X389639Y1492600D01*
X396744D01*
X403308Y1495318D01*
X408331Y1500342D01*
X411050Y1506906D01*
Y1514010D01*
X408331Y1520574D01*
X403308Y1525597D01*
X396744Y1528316D01*
D02*
G37*
G36*
X588695Y1530750D02*
X581590D01*
X575027Y1528031D01*
X570003Y1523007D01*
X567284Y1516444D01*
Y1509339D01*
X570003Y1502775D01*
X575027Y1497752D01*
X581590Y1495033D01*
X586203D01*
Y1490475D01*
X588922Y1483912D01*
X593946Y1478888D01*
X600509Y1476169D01*
X607614D01*
X614177Y1478888D01*
X619201Y1483912D01*
X621920Y1490475D01*
Y1497580D01*
X619201Y1504143D01*
X614177Y1509167D01*
X607614Y1511886D01*
X603001D01*
Y1516444D01*
X600282Y1523007D01*
X595259Y1528031D01*
X588695Y1530750D01*
D02*
G37*
G36*
X703931Y1490458D02*
X694452D01*
X685296Y1488005D01*
X677087Y1483265D01*
X670385Y1476563D01*
X665645Y1468354D01*
X663192Y1459198D01*
Y1449719D01*
X665645Y1440563D01*
X670385Y1432354D01*
X677087Y1425651D01*
X685296Y1420911D01*
X694452Y1418458D01*
X703931D01*
X713087Y1420911D01*
X721296Y1425651D01*
X727999Y1432354D01*
X732738Y1440563D01*
X735192Y1449719D01*
Y1459198D01*
X732738Y1468354D01*
X727999Y1476563D01*
X721296Y1483265D01*
X713087Y1488005D01*
X703931Y1490458D01*
D02*
G37*
G36*
X205744Y1403423D02*
X198639D01*
X192076Y1400704D01*
X187052Y1395680D01*
X184333Y1389117D01*
Y1382012D01*
X187052Y1375449D01*
X192076Y1370425D01*
X198639Y1367706D01*
X205744D01*
X212308Y1370425D01*
X217331Y1375449D01*
X220050Y1382012D01*
Y1389117D01*
X217331Y1395680D01*
X212308Y1400704D01*
X205744Y1403423D01*
D02*
G37*
G36*
X521744Y1379316D02*
X514639D01*
X508076Y1376597D01*
X503052Y1371574D01*
X500333Y1365010D01*
Y1357906D01*
X503052Y1351342D01*
X508076Y1346318D01*
X514639Y1343600D01*
X521744D01*
X528308Y1346318D01*
X533331Y1351342D01*
X536050Y1357906D01*
Y1365010D01*
X533331Y1371574D01*
X528308Y1376597D01*
X521744Y1379316D01*
D02*
G37*
G36*
X478744Y1337316D02*
X471639D01*
X465076Y1334597D01*
X460052Y1329574D01*
X457333Y1323010D01*
Y1315906D01*
X460052Y1309342D01*
X465076Y1304318D01*
X471639Y1301600D01*
X478744D01*
X485308Y1304318D01*
X490331Y1309342D01*
X493050Y1315906D01*
Y1323010D01*
X490331Y1329574D01*
X485308Y1334597D01*
X478744Y1337316D01*
D02*
G37*
G36*
X414744Y1204316D02*
X407639D01*
X401076Y1201597D01*
X396052Y1196574D01*
X393333Y1190010D01*
Y1182906D01*
X396052Y1176342D01*
X401076Y1171318D01*
X407639Y1168600D01*
X414744D01*
X421308Y1171318D01*
X426331Y1176342D01*
X429050Y1182906D01*
Y1190010D01*
X426331Y1196574D01*
X421308Y1201597D01*
X414744Y1204316D01*
D02*
G37*
G36*
X521744Y1193316D02*
X514639D01*
X508076Y1190597D01*
X503052Y1185574D01*
X500333Y1179010D01*
Y1171906D01*
X503052Y1165342D01*
X508076Y1160318D01*
X514639Y1157600D01*
X521744D01*
X528308Y1160318D01*
X533331Y1165342D01*
X536050Y1171906D01*
Y1179010D01*
X533331Y1185574D01*
X528308Y1190597D01*
X521744Y1193316D01*
D02*
G37*
G36*
X579966Y1187444D02*
X572862D01*
X566298Y1184725D01*
X561274Y1179702D01*
X558556Y1173138D01*
Y1166034D01*
X561274Y1159470D01*
X566298Y1154446D01*
X572862Y1151728D01*
X579966D01*
X586530Y1154446D01*
X591553Y1159470D01*
X594272Y1166034D01*
Y1173138D01*
X591553Y1179702D01*
X586530Y1184725D01*
X579966Y1187444D01*
D02*
G37*
G36*
X328744Y1187316D02*
X321639D01*
X315076Y1184597D01*
X310052Y1179574D01*
X307333Y1173010D01*
Y1165906D01*
X310052Y1159342D01*
X315076Y1154318D01*
X321639Y1151600D01*
X328744D01*
X335308Y1154318D01*
X340331Y1159342D01*
X343050Y1165906D01*
Y1173010D01*
X340331Y1179574D01*
X335308Y1184597D01*
X328744Y1187316D01*
D02*
G37*
G36*
X1767744Y1420033D02*
X1760639D01*
X1754076Y1417314D01*
X1749052Y1412291D01*
X1746333Y1405727D01*
Y1398622D01*
X1749052Y1392059D01*
X1752295Y1388816D01*
X1749052Y1385574D01*
X1746333Y1379010D01*
Y1371906D01*
X1749052Y1365342D01*
X1754076Y1360319D01*
X1760639Y1357600D01*
X1767744D01*
X1774308Y1360319D01*
X1779331Y1365342D01*
X1782050Y1371906D01*
Y1379010D01*
X1779331Y1385574D01*
X1776089Y1388816D01*
X1779331Y1392059D01*
X1782050Y1398622D01*
Y1405727D01*
X1779331Y1412291D01*
X1774308Y1417314D01*
X1767744Y1420033D01*
D02*
G37*
G36*
X1699744Y1357316D02*
X1692639D01*
X1686076Y1354597D01*
X1681052Y1349574D01*
X1678333Y1343010D01*
Y1335906D01*
X1681052Y1329342D01*
X1686076Y1324318D01*
X1692639Y1321600D01*
X1699744D01*
X1706307Y1324318D01*
X1711331Y1329342D01*
X1714050Y1335906D01*
Y1343010D01*
X1711331Y1349574D01*
X1706307Y1354597D01*
X1699744Y1357316D01*
D02*
G37*
G36*
X1647366Y1355175D02*
X1640262D01*
X1633698Y1352456D01*
X1628674Y1347432D01*
X1625956Y1340869D01*
Y1333764D01*
X1628674Y1327200D01*
X1633698Y1322177D01*
X1640262Y1319458D01*
X1647366D01*
X1653930Y1322177D01*
X1658953Y1327200D01*
X1661672Y1333764D01*
Y1340869D01*
X1658953Y1347432D01*
X1653930Y1352456D01*
X1647366Y1355175D01*
D02*
G37*
G36*
X1753862Y1250993D02*
X1746757D01*
X1740194Y1248275D01*
X1735170Y1243251D01*
X1732451Y1236687D01*
Y1229583D01*
X1735170Y1223019D01*
X1740194Y1217996D01*
X1746757Y1215277D01*
X1753862D01*
X1760426Y1217996D01*
X1765449Y1223019D01*
X1768168Y1229583D01*
Y1236687D01*
X1765449Y1243251D01*
X1760426Y1248275D01*
X1753862Y1250993D01*
D02*
G37*
G36*
X107426Y716411D02*
X97240D01*
X87401Y713774D01*
X78580Y708681D01*
X71378Y701479D01*
X66285Y692657D01*
X63648Y682819D01*
Y672633D01*
X66285Y662794D01*
X71378Y653972D01*
X78580Y646770D01*
X87401Y641677D01*
X97240Y639041D01*
X107426D01*
X117265Y641677D01*
X126086Y646770D01*
X133289Y653972D01*
X138382Y662794D01*
X141018Y672633D01*
Y682819D01*
X138382Y692657D01*
X133289Y701479D01*
X126086Y708681D01*
X117265Y713774D01*
X107426Y716411D01*
D02*
G37*
G36*
X113760Y601316D02*
X106655D01*
X100091Y598597D01*
X95068Y593574D01*
X92349Y587010D01*
Y579906D01*
X95068Y573342D01*
X100091Y568318D01*
X106655Y565600D01*
X113760D01*
X120323Y568318D01*
X125347Y573342D01*
X128065Y579906D01*
Y587010D01*
X125347Y593574D01*
X120323Y598597D01*
X113760Y601316D01*
D02*
G37*
G36*
X76381Y460367D02*
X69277D01*
X62713Y457648D01*
X57690Y452625D01*
X54971Y446061D01*
Y438956D01*
X57690Y432393D01*
X62713Y427369D01*
X69277Y424650D01*
X76381D01*
X82945Y427369D01*
X87969Y432393D01*
X90687Y438956D01*
Y446061D01*
X87969Y452625D01*
X82945Y457648D01*
X76381Y460367D01*
D02*
G37*
G36*
X287946Y773493D02*
X280841D01*
X274278Y770774D01*
X269254Y765751D01*
X266536Y759187D01*
Y752083D01*
X269254Y745519D01*
X274278Y740495D01*
X280841Y737777D01*
X287946D01*
X294510Y740495D01*
X299533Y745519D01*
X302252Y752083D01*
Y759187D01*
X299533Y765751D01*
X294510Y770774D01*
X287946Y773493D01*
D02*
G37*
G36*
X913744Y722371D02*
X906639D01*
X900076Y719653D01*
X895052Y714629D01*
X892333Y708065D01*
Y700961D01*
X895052Y694397D01*
X900076Y689374D01*
X906639Y686655D01*
X913744D01*
X920308Y689374D01*
X925331Y694397D01*
X928050Y700961D01*
Y708065D01*
X925331Y714629D01*
X920308Y719653D01*
X913744Y722371D01*
D02*
G37*
G36*
X727933Y689127D02*
X720828D01*
X714265Y686408D01*
X709241Y681385D01*
X706522Y674821D01*
Y667717D01*
X709241Y661153D01*
X714265Y656129D01*
X720828Y653411D01*
X727933D01*
X734496Y656129D01*
X739520Y661153D01*
X742239Y667717D01*
Y674821D01*
X739520Y681385D01*
X734496Y686408D01*
X727933Y689127D01*
D02*
G37*
G36*
Y608505D02*
X720828D01*
X714265Y605786D01*
X709241Y600763D01*
X706522Y594199D01*
Y587095D01*
X709241Y580531D01*
X714265Y575507D01*
X720828Y572789D01*
X727933D01*
X734496Y575507D01*
X739520Y580531D01*
X742239Y587095D01*
Y594199D01*
X739520Y600763D01*
X734496Y605786D01*
X727933Y608505D01*
D02*
G37*
G36*
X950444Y629639D02*
X939262D01*
X928462Y626745D01*
X918779Y621154D01*
X910873Y613248D01*
X905282Y603565D01*
X902389Y592765D01*
Y581584D01*
X905282Y570784D01*
X910873Y561101D01*
X918779Y553194D01*
X928462Y547604D01*
X939262Y544710D01*
X950444D01*
X961244Y547604D01*
X970927Y553194D01*
X978833Y561101D01*
X984424Y570784D01*
X987317Y581584D01*
Y592765D01*
X984424Y603565D01*
X978833Y613248D01*
X970927Y621154D01*
X961244Y626745D01*
X950444Y629639D01*
D02*
G37*
G36*
X268871Y580279D02*
X261766D01*
X255202Y577561D01*
X250179Y572537D01*
X247460Y565973D01*
Y558869D01*
X250179Y552305D01*
X255202Y547282D01*
X261766Y544563D01*
X268871D01*
X275434Y547282D01*
X280458Y552305D01*
X283177Y558869D01*
Y565973D01*
X280458Y572537D01*
X275434Y577561D01*
X268871Y580279D01*
D02*
G37*
G36*
X558902Y664388D02*
X544721D01*
X530812Y661621D01*
X517710Y656194D01*
X505919Y648315D01*
X495891Y638288D01*
X488013Y626496D01*
X482586Y613395D01*
X479819Y599486D01*
Y585305D01*
X482586Y571396D01*
X488013Y558294D01*
X495891Y546503D01*
X505919Y536476D01*
X517710Y528597D01*
X530812Y523170D01*
X544721Y520403D01*
X558902D01*
X572811Y523170D01*
X585912Y528597D01*
X597704Y536476D01*
X607731Y546503D01*
X615610Y558294D01*
X621037Y571396D01*
X623803Y585305D01*
Y599486D01*
X621037Y613395D01*
X615610Y626496D01*
X607731Y638288D01*
X597704Y648315D01*
X585912Y656194D01*
X572811Y661621D01*
X558902Y664388D01*
D02*
G37*
G36*
X288744Y520316D02*
X281639D01*
X275076Y517597D01*
X270052Y512574D01*
X267333Y506010D01*
Y498906D01*
X270052Y492342D01*
X275076Y487318D01*
X281639Y484600D01*
X288744D01*
X295308Y487318D01*
X300331Y492342D01*
X303050Y498906D01*
Y506010D01*
X300331Y512574D01*
X295308Y517597D01*
X288744Y520316D01*
D02*
G37*
G36*
X492744Y443316D02*
X485639D01*
X479076Y440597D01*
X474052Y435574D01*
X471333Y429010D01*
Y421906D01*
X474052Y415342D01*
X479076Y410318D01*
X485639Y407600D01*
X492744D01*
X499308Y410318D01*
X504331Y415342D01*
X507050Y421906D01*
Y429010D01*
X504331Y435574D01*
X499308Y440597D01*
X492744Y443316D01*
D02*
G37*
G36*
X371634Y413512D02*
X364529D01*
X357966Y410794D01*
X352942Y405770D01*
X350223Y399206D01*
Y392102D01*
X352942Y385538D01*
X357966Y380515D01*
X364529Y377796D01*
X371634D01*
X378197Y380515D01*
X383221Y385538D01*
X385940Y392102D01*
Y399206D01*
X383221Y405770D01*
X378197Y410794D01*
X371634Y413512D01*
D02*
G37*
G36*
X247744Y381316D02*
X240639D01*
X234076Y378597D01*
X229052Y373574D01*
X226333Y367010D01*
Y359906D01*
X229052Y353342D01*
X234076Y348318D01*
X240639Y345600D01*
X247744D01*
X254308Y348318D01*
X259331Y353342D01*
X262050Y359906D01*
Y367010D01*
X259331Y373574D01*
X254308Y378597D01*
X247744Y381316D01*
D02*
G37*
G36*
X512744Y372316D02*
X505639D01*
X499076Y369597D01*
X494052Y364574D01*
X491333Y358010D01*
Y350906D01*
X494052Y344342D01*
X499076Y339318D01*
X505639Y336600D01*
X512744D01*
X519308Y339318D01*
X524331Y344342D01*
X527050Y350906D01*
Y358010D01*
X524331Y364574D01*
X519308Y369597D01*
X512744Y372316D01*
D02*
G37*
G36*
X463744Y367316D02*
X456639D01*
X450076Y364597D01*
X445052Y359574D01*
X442333Y353010D01*
Y345906D01*
X445052Y339342D01*
X450076Y334318D01*
X456639Y331600D01*
X463744D01*
X470308Y334318D01*
X475331Y339342D01*
X478050Y345906D01*
Y353010D01*
X475331Y359574D01*
X470308Y364597D01*
X463744Y367316D01*
D02*
G37*
%LPD*%
D29*
X283149Y960828D02*
X529251D01*
X282184Y1001816D02*
X705225D01*
X304236Y1036858D02*
X779510D01*
X189749Y1069251D02*
X274184Y984816D01*
X489362Y982880D02*
X700120D01*
X119062Y1222033D02*
X304236Y1036858D01*
X705225Y1001816D02*
X732632Y974409D01*
X296780Y1018858D02*
X772054D01*
X158077Y1125922D02*
X282184Y1001816D01*
X487426Y984816D02*
X489362Y982880D01*
X156701Y1158938D02*
X296780Y1018858D01*
X274184Y984816D02*
X487426D01*
X447000Y210000D02*
X449542Y207458D01*
X584192D01*
X844737Y1007409D02*
X1221409D01*
X837282Y989409D02*
X1228865D01*
X826284Y1000407D02*
X837282Y989409D01*
X1228865D02*
X1471698Y1232242D01*
X833740Y1018407D02*
X844737Y1007409D01*
X1221409D02*
X1453698Y1239698D01*
X370858Y1594142D02*
X498288D01*
X528000Y1623854D01*
Y1624000D01*
X581000Y1677000D01*
X343000Y1622000D02*
X370858Y1594142D01*
X283000Y1622000D02*
X343000D01*
X282955Y959971D02*
Y962139D01*
X282659D02*
X282955D01*
X228109Y952891D02*
X273411D01*
X282659Y962139D01*
X56308Y1243604D02*
Y1262236D01*
X39090Y1304910D02*
Y1323721D01*
Y1304910D02*
X74308Y1269692D01*
X21090Y1297454D02*
Y1323721D01*
X74308Y1249779D02*
Y1269692D01*
X21090Y1297454D02*
X56308Y1262236D01*
Y1243604D02*
X95880Y1204033D01*
X74308Y1249779D02*
X102055Y1222033D01*
X119062D01*
X95880Y1204033D02*
X111606D01*
X143190Y1172449D01*
X537000Y1127000D02*
X598000Y1066000D01*
X1356192Y1092694D02*
X1490192Y1226694D01*
X1356192Y985458D02*
Y1092694D01*
X1471698Y1232242D02*
Y1421601D01*
X1453698Y1239698D02*
Y1414145D01*
X1490192Y1226694D02*
Y1384458D01*
X1263111Y1113734D02*
X1348192Y1198815D01*
X1263111Y1100006D02*
Y1113734D01*
X1348192Y1198815D02*
Y1402458D01*
X1251192Y1088087D02*
X1263111Y1100006D01*
X1251192Y1085458D02*
Y1088087D01*
X16732Y1328079D02*
X21090Y1323721D01*
X43448Y1328079D02*
Y1330709D01*
X39090Y1323721D02*
X43448Y1328079D01*
X16732D02*
Y1330709D01*
X797961Y1018407D02*
X833740D01*
X790505Y1000407D02*
X826284D01*
X772054Y1018858D02*
X790505Y1000407D01*
X779510Y1036858D02*
X797961Y1018407D01*
X828240Y974409D02*
X881192Y921458D01*
X732632Y974409D02*
X828240D01*
X700120Y982880D02*
X732000Y951000D01*
X151645Y1029355D02*
X228109Y952891D01*
X151645Y1029355D02*
Y1090645D01*
X128598Y1125922D02*
X158077D01*
X176251Y1069251D02*
X189749D01*
X174645Y1067645D02*
X176251Y1069251D01*
X106740Y1147781D02*
X128598Y1125922D01*
X91126Y1147781D02*
X106740D01*
X156701Y1158938D02*
Y1159645D01*
X143897Y1172449D02*
X156701Y1159645D01*
X143190Y1172449D02*
X143897D01*
X1415009Y1452834D02*
X1453698Y1414145D01*
X1433009Y1460290D02*
X1471698Y1421601D01*
X1433009Y1460290D02*
Y1471604D01*
X1442817Y1481412D01*
X1415009Y1452834D02*
Y1479060D01*
X1427051Y1493025D02*
X1431524Y1497498D01*
Y1500128D01*
X1415009Y1479060D02*
X1427051Y1491102D01*
Y1493025D01*
X1348192Y1402458D02*
X1361192Y1415458D01*
X1510947Y1405214D02*
X1511056D01*
X1490192Y1384458D02*
X1510947Y1405214D01*
D30*
X270192Y62458D02*
X375495Y167762D01*
Y278802D01*
X181192Y62458D02*
X270192D01*
D33*
X1361000Y732000D02*
Y751000D01*
X1349000Y763000D02*
X1361000Y751000D01*
X1124775Y757958D02*
X1130817Y764000D01*
X1320711Y763000D02*
X1349000D01*
X983105Y796376D02*
Y819545D01*
Y796376D02*
X1021523Y757958D01*
X1124775D01*
X1130817Y764000D02*
X1319711D01*
X1320711Y763000D01*
X981192Y821458D02*
X983105Y819545D01*
X981192Y821458D02*
Y921458D01*
D34*
X716000Y1165933D02*
Y1202677D01*
X670642Y1120575D02*
X716000Y1165933D01*
X670642Y1091008D02*
X678192Y1083458D01*
X670642Y1091008D02*
Y1120575D01*
X716000Y1202677D02*
X750692Y1237369D01*
X779102Y1302958D02*
X779732D01*
X750692Y1274547D02*
X779102Y1302958D01*
X750692Y1237369D02*
Y1274547D01*
X779732Y1302958D02*
X1119281D01*
X341495Y199288D02*
Y306154D01*
X337928Y195721D02*
X341495Y199288D01*
X329192Y318458D02*
X341495Y306154D01*
X337928Y194856D02*
Y195721D01*
X299144Y156072D02*
X337928Y194856D01*
X166577Y156072D02*
X299144D01*
X1119281Y1302958D02*
X1119781Y1302458D01*
X1147191D02*
X1199192Y1354458D01*
X1119781Y1302458D02*
X1147191D01*
X1199192Y1354458D02*
Y1454458D01*
Y1554458D01*
Y1654458D02*
X1299192Y1754458D01*
X1199192Y1554458D02*
Y1654458D01*
D37*
X1172829Y1949127D02*
D03*
D38*
X1074404D02*
D03*
X975979D02*
D03*
X877554D02*
D03*
X102333Y677726D02*
D03*
Y984812D02*
D03*
X584192Y305883D02*
D03*
Y207458D02*
D03*
X342491Y795836D02*
D03*
D39*
X699192Y1354458D02*
D03*
X699192Y1254458D02*
D03*
Y1454458D02*
D03*
X1099192Y1754458D02*
D03*
X1199192Y1754458D02*
D03*
X999192Y1754458D02*
D03*
X899192D02*
D03*
X1399192Y1254458D02*
D03*
Y1754458D02*
D03*
X799192Y1754458D02*
D03*
X799192Y1254458D02*
D03*
X899192Y1254458D02*
D03*
X999192Y1254458D02*
D03*
X1099192D02*
D03*
X1199192Y1254458D02*
D03*
X1299192Y1254458D02*
D03*
Y1754458D02*
D03*
X699192Y1754458D02*
D03*
D40*
X102333Y776151D02*
D03*
Y1083237D02*
D03*
X584192Y109033D02*
D03*
X342491Y894261D02*
D03*
D41*
X1081192Y921458D02*
D03*
D42*
X981192D02*
D03*
X881192D02*
D03*
X781192D02*
D03*
X681192D02*
D03*
X581192D02*
D03*
D43*
X1081192Y821458D02*
D03*
D44*
X981192D02*
D03*
X881192D02*
D03*
X781192D02*
D03*
X1199192Y1554458D02*
D03*
Y1454458D02*
D03*
X1099192D02*
D03*
Y1554458D02*
D03*
Y1654458D02*
D03*
X999192Y1454458D02*
D03*
Y1554458D02*
D03*
X999192Y1654458D02*
D03*
D45*
X1144853Y587174D02*
D03*
D46*
X944853D02*
D03*
D47*
X1933042Y1449009D02*
D03*
X1440916Y1945442D02*
D03*
X551811Y592395D02*
D03*
X1023622Y1095204D02*
D03*
D48*
X1199192Y1354458D02*
D03*
X1099192D02*
D03*
X999192Y1354458D02*
D03*
D49*
X1438762Y1691690D02*
D03*
X1679289Y1451162D02*
D03*
D50*
X1376963Y1550266D02*
D03*
X1537866Y1389363D02*
D03*
D51*
X1322396Y1575323D02*
D03*
X1562923Y1334796D02*
D03*
D52*
X701000Y1108000D02*
D03*
X576414Y1169586D02*
D03*
X754192Y1195458D02*
D03*
X165150Y1416609D02*
D03*
X1291339Y716535D02*
D03*
X1244094D02*
D03*
X1267716D02*
D03*
X1244094Y692913D02*
D03*
X1267716D02*
D03*
X1291339D02*
D03*
X1381890Y716535D02*
D03*
X1358268D02*
D03*
X1334646D02*
D03*
Y692913D02*
D03*
X1358268D02*
D03*
X1381890D02*
D03*
X447000Y210000D02*
D03*
X1472441Y692913D02*
D03*
X1448819D02*
D03*
X1425197D02*
D03*
Y716535D02*
D03*
X1448819D02*
D03*
X1472441D02*
D03*
X1346457Y921260D02*
D03*
X1295276Y959914D02*
D03*
X539461Y1604403D02*
D03*
X201000Y1619000D02*
D03*
X811000Y1534000D02*
D03*
X420000Y1616000D02*
D03*
X283000Y1622000D02*
D03*
X581000Y1677000D02*
D03*
X648184Y1640324D02*
D03*
X702585Y1564000D02*
D03*
X652113Y1188113D02*
D03*
X678000Y1709000D02*
D03*
X150000Y886000D02*
D03*
X176929Y844000D02*
D03*
X282955Y961022D02*
D03*
X529251Y960828D02*
D03*
X416080Y1073999D02*
D03*
X71000Y1377000D02*
D03*
X149419Y991390D02*
D03*
X16732Y1262129D02*
D03*
X51199Y1217801D02*
D03*
X455000Y768000D02*
D03*
X291000Y833000D02*
D03*
X613781Y1211781D02*
D03*
X598000Y1066000D02*
D03*
X411192Y1186458D02*
D03*
X763000Y997000D02*
D03*
X1485530Y1191120D02*
D03*
X1284969Y1104680D02*
D03*
X1518000Y892000D02*
D03*
X1722000Y1114379D02*
D03*
X1635192Y1065458D02*
D03*
X1629192Y1038458D02*
D03*
X90000Y1286000D02*
D03*
X43448Y1330709D02*
D03*
X77690Y1172044D02*
D03*
X732000Y951000D02*
D03*
X151645Y1090645D02*
D03*
X174645Y1067645D02*
D03*
X91126Y1147781D02*
D03*
X134843Y1150591D02*
D03*
X210311Y1165928D02*
D03*
X779732Y1302958D02*
D03*
X731192Y1316458D02*
D03*
X749875Y1338316D02*
D03*
X221735Y999002D02*
D03*
X16732Y1330709D02*
D03*
X1431524Y1500128D02*
D03*
X459192Y814458D02*
D03*
X284394Y755635D02*
D03*
X25192Y572458D02*
D03*
X206065Y539545D02*
D03*
X206655Y434056D02*
D03*
X285192Y502458D02*
D03*
X312192Y414458D02*
D03*
X301450Y281716D02*
D03*
X267010Y302359D02*
D03*
X375495Y278802D02*
D03*
X244192Y363458D02*
D03*
X92491Y313426D02*
D03*
X110207Y583458D02*
D03*
X72829Y442509D02*
D03*
X159192Y590458D02*
D03*
X265318Y562421D02*
D03*
X724381Y671269D02*
D03*
X460192Y349458D02*
D03*
X489192Y425458D02*
D03*
X509192Y354458D02*
D03*
X910192Y704513D02*
D03*
X724381Y590647D02*
D03*
X212192Y1542458D02*
D03*
X163192Y1565458D02*
D03*
X660192D02*
D03*
X678192Y1083458D02*
D03*
X1512261Y994797D02*
D03*
X1275192Y1182458D02*
D03*
X604062Y1494027D02*
D03*
X585143Y1512891D02*
D03*
X646192Y1742458D02*
D03*
X245050Y234812D02*
D03*
X181192Y62458D02*
D03*
X368081Y395654D02*
D03*
X453837Y154104D02*
D03*
X464192Y104458D02*
D03*
X337928Y195721D02*
D03*
X166577Y156072D02*
D03*
X122018Y313426D02*
D03*
X62963D02*
D03*
X1764192Y1402175D02*
D03*
X1450333Y1481148D02*
D03*
X1764192Y1375458D02*
D03*
X1750310Y1233135D02*
D03*
X1251192Y1085458D02*
D03*
X1356192Y985458D02*
D03*
X1361192Y1415458D02*
D03*
X1511056Y1405214D02*
D03*
X1389192Y1323458D02*
D03*
X1421192Y1363990D02*
D03*
X1696192Y1339458D02*
D03*
X1338548Y1447957D02*
D03*
X1643814Y1337316D02*
D03*
X469192Y1618957D02*
D03*
X363993Y1289657D02*
D03*
X393192Y1510458D02*
D03*
X414192Y1531316D02*
D03*
X475192Y1319458D02*
D03*
X202192Y1385564D02*
D03*
X518192Y1361458D02*
D03*
X405390Y1252259D02*
D03*
X325192Y1169458D02*
D03*
X255192Y1412458D02*
D03*
X490192Y1343458D02*
D03*
X473192Y1387576D02*
D03*
X419952Y1342390D02*
D03*
X518192Y1175458D02*
D03*
D53*
X1492097Y1142293D02*
D03*
X1448790D02*
D03*
X1492097Y1098986D02*
D03*
X1448790D02*
D03*
X1492097Y1055678D02*
D03*
X1448790D02*
D03*
D54*
X1361000Y732000D02*
D03*
%TF.MD5,e69dd0aa65d4ad7c2de78ba5a65e0957*%
M02*
