%TF.GenerationSoftware,Altium Limited,Altium Designer,23.4.1 (23)*%
G04 Layer_Color=8421504*
%FSLAX26Y26*%
%MOIN*%
%TF.SameCoordinates,1F395C4B-4EE4-4E32-9856-E664E5071CD5*%
%TF.FilePolarity,Positive*%
%TF.FileFunction,Paste,Top*%
%TF.Part,CustomerPanel*%
G01*
G75*
%TA.AperFunction,SMDPad,CuDef*%
G04:AMPARAMS|DCode=11|XSize=39.37mil|YSize=35.433mil|CornerRadius=8.858mil|HoleSize=0mil|Usage=FLASHONLY|Rotation=0.000|XOffset=0mil|YOffset=0mil|HoleType=Round|Shape=RoundedRectangle|*
%AMROUNDEDRECTD11*
21,1,0.039370,0.017717,0,0,0.0*
21,1,0.021654,0.035433,0,0,0.0*
1,1,0.017716,0.010827,-0.008858*
1,1,0.017716,-0.010827,-0.008858*
1,1,0.017716,-0.010827,0.008858*
1,1,0.017716,0.010827,0.008858*
%
%ADD11ROUNDEDRECTD11*%
G04:AMPARAMS|DCode=12|XSize=58.071mil|YSize=11.811mil|CornerRadius=2.953mil|HoleSize=0mil|Usage=FLASHONLY|Rotation=225.000|XOffset=0mil|YOffset=0mil|HoleType=Round|Shape=RoundedRectangle|*
%AMROUNDEDRECTD12*
21,1,0.058071,0.005905,0,0,225.0*
21,1,0.052165,0.011811,0,0,225.0*
1,1,0.005906,-0.020531,-0.016355*
1,1,0.005906,0.016355,0.020531*
1,1,0.005906,0.020531,0.016355*
1,1,0.005906,-0.016355,-0.020531*
%
%ADD12ROUNDEDRECTD12*%
G04:AMPARAMS|DCode=13|XSize=39.37mil|YSize=35.433mil|CornerRadius=8.858mil|HoleSize=0mil|Usage=FLASHONLY|Rotation=315.000|XOffset=0mil|YOffset=0mil|HoleType=Round|Shape=RoundedRectangle|*
%AMROUNDEDRECTD13*
21,1,0.039370,0.017717,0,0,315.0*
21,1,0.021654,0.035433,0,0,315.0*
1,1,0.017716,0.001392,-0.013920*
1,1,0.017716,-0.013920,0.001392*
1,1,0.017716,-0.001392,0.013920*
1,1,0.017716,0.013920,-0.001392*
%
%ADD13ROUNDEDRECTD13*%
G04:AMPARAMS|DCode=14|XSize=39.37mil|YSize=35.433mil|CornerRadius=8.858mil|HoleSize=0mil|Usage=FLASHONLY|Rotation=90.000|XOffset=0mil|YOffset=0mil|HoleType=Round|Shape=RoundedRectangle|*
%AMROUNDEDRECTD14*
21,1,0.039370,0.017717,0,0,90.0*
21,1,0.021654,0.035433,0,0,90.0*
1,1,0.017716,0.008858,0.010827*
1,1,0.017716,0.008858,-0.010827*
1,1,0.017716,-0.008858,-0.010827*
1,1,0.017716,-0.008858,0.010827*
%
%ADD14ROUNDEDRECTD14*%
%ADD15R,0.039370X0.023622*%
G04:AMPARAMS|DCode=16|XSize=23.622mil|YSize=39.37mil|CornerRadius=5.906mil|HoleSize=0mil|Usage=FLASHONLY|Rotation=90.000|XOffset=0mil|YOffset=0mil|HoleType=Round|Shape=RoundedRectangle|*
%AMROUNDEDRECTD16*
21,1,0.023622,0.027559,0,0,90.0*
21,1,0.011811,0.039370,0,0,90.0*
1,1,0.011811,0.013780,0.005906*
1,1,0.011811,0.013780,-0.005906*
1,1,0.011811,-0.013780,-0.005906*
1,1,0.011811,-0.013780,0.005906*
%
%ADD16ROUNDEDRECTD16*%
G04:AMPARAMS|DCode=17|XSize=47.244mil|YSize=31.496mil|CornerRadius=7.874mil|HoleSize=0mil|Usage=FLASHONLY|Rotation=90.000|XOffset=0mil|YOffset=0mil|HoleType=Round|Shape=RoundedRectangle|*
%AMROUNDEDRECTD17*
21,1,0.047244,0.015748,0,0,90.0*
21,1,0.031496,0.031496,0,0,90.0*
1,1,0.015748,0.007874,0.015748*
1,1,0.015748,0.007874,-0.015748*
1,1,0.015748,-0.007874,-0.015748*
1,1,0.015748,-0.007874,0.015748*
%
%ADD17ROUNDEDRECTD17*%
%ADD18R,0.031496X0.047244*%
%ADD19R,0.033465X0.037402*%
G04:AMPARAMS|DCode=20|XSize=37.402mil|YSize=33.465mil|CornerRadius=8.366mil|HoleSize=0mil|Usage=FLASHONLY|Rotation=270.000|XOffset=0mil|YOffset=0mil|HoleType=Round|Shape=RoundedRectangle|*
%AMROUNDEDRECTD20*
21,1,0.037402,0.016732,0,0,270.0*
21,1,0.020669,0.033465,0,0,270.0*
1,1,0.016732,-0.008366,-0.010335*
1,1,0.016732,-0.008366,0.010335*
1,1,0.016732,0.008366,0.010335*
1,1,0.016732,0.008366,-0.010335*
%
%ADD20ROUNDEDRECTD20*%
G04:AMPARAMS|DCode=21|XSize=70.866mil|YSize=51.181mil|CornerRadius=12.795mil|HoleSize=0mil|Usage=FLASHONLY|Rotation=270.000|XOffset=0mil|YOffset=0mil|HoleType=Round|Shape=RoundedRectangle|*
%AMROUNDEDRECTD21*
21,1,0.070866,0.025591,0,0,270.0*
21,1,0.045276,0.051181,0,0,270.0*
1,1,0.025590,-0.012795,-0.022638*
1,1,0.025590,-0.012795,0.022638*
1,1,0.025590,0.012795,0.022638*
1,1,0.025590,0.012795,-0.022638*
%
%ADD21ROUNDEDRECTD21*%
G04:AMPARAMS|DCode=22|XSize=58.071mil|YSize=11.811mil|CornerRadius=0mil|HoleSize=0mil|Usage=FLASHONLY|Rotation=135.000|XOffset=0mil|YOffset=0mil|HoleType=Round|Shape=Rectangle|*
%AMROTATEDRECTD22*
4,1,4,0.024707,-0.016355,0.016355,-0.024707,-0.024707,0.016355,-0.016355,0.024707,0.024707,-0.016355,0.0*
%
%ADD22ROTATEDRECTD22*%

G04:AMPARAMS|DCode=23|XSize=58.071mil|YSize=11.811mil|CornerRadius=0mil|HoleSize=0mil|Usage=FLASHONLY|Rotation=135.000|XOffset=0mil|YOffset=0mil|HoleType=Round|Shape=Round|*
%AMOVALD23*
21,1,0.046260,0.011811,0.000000,0.000000,135.0*
1,1,0.011811,0.016355,-0.016355*
1,1,0.011811,-0.016355,0.016355*
%
%ADD23OVALD23*%

G04:AMPARAMS|DCode=24|XSize=58.071mil|YSize=11.811mil|CornerRadius=2.953mil|HoleSize=0mil|Usage=FLASHONLY|Rotation=135.000|XOffset=0mil|YOffset=0mil|HoleType=Round|Shape=RoundedRectangle|*
%AMROUNDEDRECTD24*
21,1,0.058071,0.005905,0,0,135.0*
21,1,0.052165,0.011811,0,0,135.0*
1,1,0.005906,-0.016355,0.020531*
1,1,0.005906,0.020531,-0.016355*
1,1,0.005906,0.016355,-0.020531*
1,1,0.005906,-0.020531,0.016355*
%
%ADD24ROUNDEDRECTD24*%
%ADD25R,0.047244X0.039370*%
%TA.AperFunction,FiducialPad,Global*%
%ADD26C,0.059055*%
%TA.AperFunction,SMDPad,CuDef*%
G04:AMPARAMS|DCode=27|XSize=59.055mil|YSize=137.795mil|CornerRadius=14.764mil|HoleSize=0mil|Usage=FLASHONLY|Rotation=225.000|XOffset=0mil|YOffset=0mil|HoleType=Round|Shape=RoundedRectangle|*
%AMROUNDEDRECTD27*
21,1,0.059055,0.108268,0,0,225.0*
21,1,0.029527,0.137795,0,0,225.0*
1,1,0.029528,-0.048718,0.027839*
1,1,0.029528,-0.027839,0.048718*
1,1,0.029528,0.048718,-0.027839*
1,1,0.029528,0.027839,-0.048718*
%
%ADD27ROUNDEDRECTD27*%
G04:AMPARAMS|DCode=28|XSize=59.055mil|YSize=137.795mil|CornerRadius=0mil|HoleSize=0mil|Usage=FLASHONLY|Rotation=225.000|XOffset=0mil|YOffset=0mil|HoleType=Round|Shape=Rectangle|*
%AMROTATEDRECTD28*
4,1,4,-0.027839,0.069597,0.069597,-0.027839,0.027839,-0.069597,-0.069597,0.027839,-0.027839,0.069597,0.0*
%
%ADD28ROTATEDRECTD28*%

D11*
X1679134Y1167323D02*
D03*
Y1104331D02*
D03*
X210601Y274182D02*
D03*
Y211190D02*
D03*
X279499Y93080D02*
D03*
Y156072D02*
D03*
X200758Y93080D02*
D03*
Y156072D02*
D03*
X53121Y476938D02*
D03*
X53121Y539930D02*
D03*
X1359192Y1163954D02*
D03*
Y1100962D02*
D03*
X1552192Y1095962D02*
D03*
Y1158954D02*
D03*
X1620192Y1103962D02*
D03*
Y1166954D02*
D03*
D12*
X272668Y1283240D02*
D03*
X592147Y1435685D02*
D03*
X578227Y1449605D02*
D03*
X564308Y1463524D02*
D03*
X550389Y1477444D02*
D03*
X536469Y1491363D02*
D03*
X522550Y1505282D02*
D03*
X508630Y1519202D02*
D03*
X494711Y1533121D02*
D03*
X480791Y1547041D02*
D03*
X466872Y1560960D02*
D03*
X452952Y1574880D02*
D03*
X439033Y1588799D02*
D03*
X203071Y1352837D02*
D03*
X216990Y1338917D02*
D03*
X230910Y1324998D02*
D03*
X244829Y1311079D02*
D03*
X258749Y1297159D02*
D03*
X286587Y1269320D02*
D03*
X300507Y1255401D02*
D03*
X314426Y1241481D02*
D03*
X328346Y1227562D02*
D03*
X342265Y1213642D02*
D03*
X356185Y1199723D02*
D03*
D13*
X680456Y1037344D02*
D03*
X724998Y1081887D02*
D03*
X675785Y1131099D02*
D03*
X631243Y1086557D02*
D03*
X590463Y1236729D02*
D03*
X545920Y1192187D02*
D03*
D14*
X143672Y404852D02*
D03*
X80680Y404851D02*
D03*
X399577Y154104D02*
D03*
X336585D02*
D03*
X399577Y95049D02*
D03*
X336585D02*
D03*
Y35993D02*
D03*
X399577Y35993D02*
D03*
X336585Y370639D02*
D03*
X399577Y370639D02*
D03*
X336585Y311584D02*
D03*
X399577D02*
D03*
X110207Y478907D02*
D03*
X173200D02*
D03*
X110207Y537962D02*
D03*
X173199D02*
D03*
X281467Y35993D02*
D03*
X218475D02*
D03*
X428696Y1108458D02*
D03*
X491688D02*
D03*
X1595688Y1251458D02*
D03*
X1532696D02*
D03*
D15*
X724381Y634419D02*
D03*
D16*
Y559615D02*
D03*
X818869Y597017D02*
D03*
D17*
X407452Y232844D02*
D03*
X382924Y488749D02*
D03*
D18*
X269656Y232844D02*
D03*
X245129Y488749D02*
D03*
D19*
X1713672Y1234458D02*
D03*
D20*
X1648711D02*
D03*
D21*
X726349Y1669852D02*
D03*
X836585D02*
D03*
X746034Y1581269D02*
D03*
X856270D02*
D03*
X765719Y1492686D02*
D03*
X875955D02*
D03*
X775562Y1404104D02*
D03*
X885798D02*
D03*
D22*
X439033Y1199723D02*
D03*
D23*
X452952Y1213642D02*
D03*
D24*
X466872Y1227562D02*
D03*
X480791Y1241481D02*
D03*
X494711Y1255401D02*
D03*
X508630Y1269320D02*
D03*
X522550Y1283240D02*
D03*
X536469Y1297159D02*
D03*
X550389Y1311079D02*
D03*
X564308Y1324998D02*
D03*
X578227Y1338917D02*
D03*
X592147Y1352837D02*
D03*
X356185Y1588799D02*
D03*
X342265Y1574880D02*
D03*
X328346Y1560960D02*
D03*
X314426Y1547041D02*
D03*
X300507Y1533121D02*
D03*
X286587Y1519202D02*
D03*
X272668Y1505282D02*
D03*
X258749Y1491363D02*
D03*
X244829Y1477444D02*
D03*
X230910Y1463524D02*
D03*
X216990Y1449605D02*
D03*
X203071Y1435685D02*
D03*
D25*
X1295522Y988458D02*
D03*
X1586861D02*
D03*
X1226853Y824458D02*
D03*
X1518192D02*
D03*
D26*
X1931247Y960332D02*
D03*
X956026Y227159D02*
D03*
X390444Y1746072D02*
D03*
D27*
X1432919Y1587297D02*
D03*
D28*
X1574897Y1445319D02*
D03*
%TF.MD5,6a0a0f268bf5e5f68865c6fdf88cb9e6*%
M02*
