%TF.GenerationSoftware,Altium Limited,Altium Designer,23.4.1 (23)*%
G04 Layer_Color=128*
%FSLAX26Y26*%
%MOIN*%
%TF.SameCoordinates,059DD823-1BA3-4B86-995A-778C5C10D4F7*%
%TF.FilePolarity,Positive*%
%TF.FileFunction,Paste,Bot*%
%TF.Part,CustomerPanel*%
G01*
G75*
%TA.AperFunction,SMDPad,CuDef*%
G04:AMPARAMS|DCode=23|XSize=70.866mil|YSize=51.181mil|CornerRadius=12.795mil|HoleSize=0mil|Usage=FLASHONLY|Rotation=270.000|XOffset=0mil|YOffset=0mil|HoleType=Round|Shape=RoundedRectangle|*
%AMROUNDEDRECTD23*
21,1,0.070866,0.025591,0,0,270.0*
21,1,0.045276,0.051181,0,0,270.0*
1,1,0.025590,-0.012795,-0.022638*
1,1,0.025590,-0.012795,0.022638*
1,1,0.025590,0.012795,0.022638*
1,1,0.025590,0.012795,-0.022638*
%
%ADD23ROUNDEDRECTD23*%
G04:AMPARAMS|DCode=24|XSize=39.37mil|YSize=35.433mil|CornerRadius=8.858mil|HoleSize=0mil|Usage=FLASHONLY|Rotation=270.000|XOffset=0mil|YOffset=0mil|HoleType=Round|Shape=RoundedRectangle|*
%AMROUNDEDRECTD24*
21,1,0.039370,0.017717,0,0,270.0*
21,1,0.021654,0.035433,0,0,270.0*
1,1,0.017716,-0.008858,-0.010827*
1,1,0.017716,-0.008858,0.010827*
1,1,0.017716,0.008858,0.010827*
1,1,0.017716,0.008858,-0.010827*
%
%ADD24ROUNDEDRECTD24*%
G04:AMPARAMS|DCode=27|XSize=39.37mil|YSize=35.433mil|CornerRadius=8.858mil|HoleSize=0mil|Usage=FLASHONLY|Rotation=135.000|XOffset=0mil|YOffset=0mil|HoleType=Round|Shape=RoundedRectangle|*
%AMROUNDEDRECTD27*
21,1,0.039370,0.017717,0,0,135.0*
21,1,0.021654,0.035433,0,0,135.0*
1,1,0.017716,-0.001392,0.013920*
1,1,0.017716,0.013920,-0.001392*
1,1,0.017716,0.001392,-0.013920*
1,1,0.017716,-0.013920,0.001392*
%
%ADD27ROUNDEDRECTD27*%
%TA.AperFunction,FiducialPad,Global*%
%ADD28C,0.059055*%
%TA.AperFunction,SMDPad,CuDef*%
G04:AMPARAMS|DCode=29|XSize=39.37mil|YSize=35.433mil|CornerRadius=8.858mil|HoleSize=0mil|Usage=FLASHONLY|Rotation=180.000|XOffset=0mil|YOffset=0mil|HoleType=Round|Shape=RoundedRectangle|*
%AMROUNDEDRECTD29*
21,1,0.039370,0.017717,0,0,180.0*
21,1,0.021654,0.035433,0,0,180.0*
1,1,0.017716,-0.010827,0.008858*
1,1,0.017716,0.010827,0.008858*
1,1,0.017716,0.010827,-0.008858*
1,1,0.017716,-0.010827,-0.008858*
%
%ADD29ROUNDEDRECTD29*%
G04:AMPARAMS|DCode=30|XSize=23.622mil|YSize=39.37mil|CornerRadius=5.906mil|HoleSize=0mil|Usage=FLASHONLY|Rotation=90.000|XOffset=0mil|YOffset=0mil|HoleType=Round|Shape=RoundedRectangle|*
%AMROUNDEDRECTD30*
21,1,0.023622,0.027559,0,0,90.0*
21,1,0.011811,0.039370,0,0,90.0*
1,1,0.011811,0.013780,0.005906*
1,1,0.011811,0.013780,-0.005906*
1,1,0.011811,-0.013780,-0.005906*
1,1,0.011811,-0.013780,0.005906*
%
%ADD30ROUNDEDRECTD30*%
%ADD31R,0.039370X0.023622*%
%ADD58R,0.027559X0.051181*%
G04:AMPARAMS|DCode=59|XSize=27.559mil|YSize=51.181mil|CornerRadius=6.89mil|HoleSize=0mil|Usage=FLASHONLY|Rotation=180.000|XOffset=0mil|YOffset=0mil|HoleType=Round|Shape=RoundedRectangle|*
%AMROUNDEDRECTD59*
21,1,0.027559,0.037401,0,0,180.0*
21,1,0.013780,0.051181,0,0,180.0*
1,1,0.013780,-0.006890,0.018701*
1,1,0.013780,0.006890,0.018701*
1,1,0.013780,0.006890,-0.018701*
1,1,0.013780,-0.006890,-0.018701*
%
%ADD59ROUNDEDRECTD59*%
%ADD60R,0.062992X0.084646*%
G04:AMPARAMS|DCode=61|XSize=62.992mil|YSize=84.646mil|CornerRadius=15.748mil|HoleSize=0mil|Usage=FLASHONLY|Rotation=0.000|XOffset=0mil|YOffset=0mil|HoleType=Round|Shape=RoundedRectangle|*
%AMROUNDEDRECTD61*
21,1,0.062992,0.053150,0,0,0.0*
21,1,0.031496,0.084646,0,0,0.0*
1,1,0.031496,0.015748,-0.026575*
1,1,0.031496,-0.015748,-0.026575*
1,1,0.031496,-0.015748,0.026575*
1,1,0.031496,0.015748,0.026575*
%
%ADD61ROUNDEDRECTD61*%
G04:AMPARAMS|DCode=62|XSize=151.575mil|YSize=84.646mil|CornerRadius=21.161mil|HoleSize=0mil|Usage=FLASHONLY|Rotation=0.000|XOffset=0mil|YOffset=0mil|HoleType=Round|Shape=RoundedRectangle|*
%AMROUNDEDRECTD62*
21,1,0.151575,0.042323,0,0,0.0*
21,1,0.109252,0.084646,0,0,0.0*
1,1,0.042323,0.054626,-0.021162*
1,1,0.042323,-0.054626,-0.021162*
1,1,0.042323,-0.054626,0.021162*
1,1,0.042323,0.054626,0.021162*
%
%ADD62ROUNDEDRECTD62*%
G04:AMPARAMS|DCode=63|XSize=55.118mil|YSize=47.244mil|CornerRadius=0mil|HoleSize=0mil|Usage=FLASHONLY|Rotation=225.000|XOffset=0mil|YOffset=0mil|HoleType=Round|Shape=Rectangle|*
%AMROTATEDRECTD63*
4,1,4,0.002784,0.036191,0.036191,0.002784,-0.002784,-0.036191,-0.036191,-0.002784,0.002784,0.036191,0.0*
%
%ADD63ROTATEDRECTD63*%

G04:AMPARAMS|DCode=64|XSize=90.551mil|YSize=125.984mil|CornerRadius=11.319mil|HoleSize=0mil|Usage=FLASHONLY|Rotation=180.000|XOffset=0mil|YOffset=0mil|HoleType=Round|Shape=RoundedRectangle|*
%AMROUNDEDRECTD64*
21,1,0.090551,0.103347,0,0,180.0*
21,1,0.067913,0.125984,0,0,180.0*
1,1,0.022638,-0.033957,0.051673*
1,1,0.022638,0.033957,0.051673*
1,1,0.022638,0.033957,-0.051673*
1,1,0.022638,-0.033957,-0.051673*
%
%ADD64ROUNDEDRECTD64*%
G04:AMPARAMS|DCode=65|XSize=23.622mil|YSize=57.087mil|CornerRadius=5.906mil|HoleSize=0mil|Usage=FLASHONLY|Rotation=90.000|XOffset=0mil|YOffset=0mil|HoleType=Round|Shape=RoundedRectangle|*
%AMROUNDEDRECTD65*
21,1,0.023622,0.045276,0,0,90.0*
21,1,0.011811,0.057087,0,0,90.0*
1,1,0.011811,0.022638,0.005906*
1,1,0.011811,0.022638,-0.005906*
1,1,0.011811,-0.022638,-0.005906*
1,1,0.011811,-0.022638,0.005906*
%
%ADD65ROUNDEDRECTD65*%
%ADD66R,0.057087X0.023622*%
G04:AMPARAMS|DCode=67|XSize=11.811mil|YSize=57.087mil|CornerRadius=0mil|HoleSize=0mil|Usage=FLASHONLY|Rotation=315.000|XOffset=0mil|YOffset=0mil|HoleType=Round|Shape=Rectangle|*
%AMROTATEDRECTD67*
4,1,4,-0.024359,-0.016007,0.016007,0.024359,0.024359,0.016007,-0.016007,-0.024359,-0.024359,-0.016007,0.0*
%
%ADD67ROTATEDRECTD67*%

G04:AMPARAMS|DCode=68|XSize=23.622mil|YSize=57.087mil|CornerRadius=0mil|HoleSize=0mil|Usage=FLASHONLY|Rotation=315.000|XOffset=0mil|YOffset=0mil|HoleType=Round|Shape=Rectangle|*
%AMROTATEDRECTD68*
4,1,4,-0.028535,-0.011832,0.011832,0.028535,0.028535,0.011832,-0.011832,-0.028535,-0.028535,-0.011832,0.0*
%
%ADD68ROTATEDRECTD68*%

%ADD69R,0.078740X0.157480*%
G04:AMPARAMS|DCode=70|XSize=35.433mil|YSize=31.496mil|CornerRadius=0mil|HoleSize=0mil|Usage=FLASHONLY|Rotation=135.000|XOffset=0mil|YOffset=0mil|HoleType=Round|Shape=Rectangle|*
%AMROTATEDRECTD70*
4,1,4,0.023663,-0.001392,0.001392,-0.023663,-0.023663,0.001392,-0.001392,0.023663,0.023663,-0.001392,0.0*
%
%ADD70ROTATEDRECTD70*%

G04:AMPARAMS|DCode=71|XSize=39.37mil|YSize=35.433mil|CornerRadius=8.858mil|HoleSize=0mil|Usage=FLASHONLY|Rotation=225.000|XOffset=0mil|YOffset=0mil|HoleType=Round|Shape=RoundedRectangle|*
%AMROUNDEDRECTD71*
21,1,0.039370,0.017717,0,0,225.0*
21,1,0.021654,0.035433,0,0,225.0*
1,1,0.017716,-0.013920,-0.001392*
1,1,0.017716,0.001392,0.013920*
1,1,0.017716,0.013920,0.001392*
1,1,0.017716,-0.001392,-0.013920*
%
%ADD71ROUNDEDRECTD71*%
%ADD72R,0.051181X0.027559*%
G04:AMPARAMS|DCode=73|XSize=27.559mil|YSize=51.181mil|CornerRadius=6.89mil|HoleSize=0mil|Usage=FLASHONLY|Rotation=270.000|XOffset=0mil|YOffset=0mil|HoleType=Round|Shape=RoundedRectangle|*
%AMROUNDEDRECTD73*
21,1,0.027559,0.037401,0,0,270.0*
21,1,0.013780,0.051181,0,0,270.0*
1,1,0.013780,-0.018701,-0.006890*
1,1,0.013780,-0.018701,0.006890*
1,1,0.013780,0.018701,0.006890*
1,1,0.013780,0.018701,-0.006890*
%
%ADD73ROUNDEDRECTD73*%
%ADD74R,0.157480X0.078740*%
D23*
X1240129Y1669852D02*
D03*
X1129892D02*
D03*
D24*
X845388Y1588458D02*
D03*
X782396D02*
D03*
X1614173Y1015748D02*
D03*
X1677165D02*
D03*
X1274089Y1522214D02*
D03*
X1211097D02*
D03*
X1211097Y1463159D02*
D03*
X1274089D02*
D03*
X1042396Y1526458D02*
D03*
X1105389D02*
D03*
X2106270Y1299773D02*
D03*
X2043278D02*
D03*
X1988160Y1236781D02*
D03*
X1925168D02*
D03*
X1791310Y957253D02*
D03*
X1854302D02*
D03*
X1972412D02*
D03*
X1909420D02*
D03*
X694853Y587174D02*
D03*
X631861D02*
D03*
X590205Y810000D02*
D03*
X653197D02*
D03*
X591389Y882795D02*
D03*
X654381D02*
D03*
D27*
X549430Y1261729D02*
D03*
X593972Y1306271D02*
D03*
X552503Y1381833D02*
D03*
X597045Y1426375D02*
D03*
X896991Y1253880D02*
D03*
X941534Y1298422D02*
D03*
X482621Y1497187D02*
D03*
X527163Y1541729D02*
D03*
X574163Y1494729D02*
D03*
X529621Y1450187D02*
D03*
X753163Y1490729D02*
D03*
X708621Y1446187D02*
D03*
X760460Y1045893D02*
D03*
X715918Y1001351D02*
D03*
D28*
X2324948Y960332D02*
D03*
X1349727Y227159D02*
D03*
X784144Y1746072D02*
D03*
D29*
X1418701Y646496D02*
D03*
Y583504D02*
D03*
X811528Y870926D02*
D03*
Y807933D02*
D03*
X1029892Y1396954D02*
D03*
Y1333962D02*
D03*
X2045247Y1242686D02*
D03*
Y1179694D02*
D03*
X2106270Y1240718D02*
D03*
Y1177726D02*
D03*
X909420Y53710D02*
D03*
Y116702D02*
D03*
X633829Y500560D02*
D03*
Y437568D02*
D03*
X572701Y963504D02*
D03*
Y1026496D02*
D03*
X430701Y1003504D02*
D03*
Y1066496D02*
D03*
D30*
X1255877Y695442D02*
D03*
X1350365Y658041D02*
D03*
X430457Y885000D02*
D03*
X524945Y847598D02*
D03*
X681073Y648198D02*
D03*
X586585Y685600D02*
D03*
X1251940Y597017D02*
D03*
X1157451Y634418D02*
D03*
D31*
X1350365Y732844D02*
D03*
X524945Y922402D02*
D03*
X681073Y723001D02*
D03*
X1157451Y559615D02*
D03*
D58*
X685010Y329300D02*
D03*
D59*
X722412Y329300D02*
D03*
X759814Y329300D02*
D03*
Y234812D02*
D03*
X722412Y234812D02*
D03*
X685010Y234812D02*
D03*
D60*
X1842520Y621063D02*
D03*
D61*
X1751968Y621063D02*
D03*
X1661417Y621063D02*
D03*
D62*
X1751968Y851378D02*
D03*
D63*
X789497Y1121442D02*
D03*
X853136Y1057802D02*
D03*
X867279Y1199224D02*
D03*
X930918Y1135584D02*
D03*
D64*
X1864144Y1098986D02*
D03*
D65*
X1752924Y1020245D02*
D03*
Y1059616D02*
D03*
Y1098986D02*
D03*
Y1138356D02*
D03*
Y1177726D02*
D03*
X1975365Y1020245D02*
D03*
Y1059616D02*
D03*
Y1098986D02*
D03*
Y1138356D02*
D03*
D66*
Y1177726D02*
D03*
D67*
X1833161Y1410098D02*
D03*
X1791403Y1451856D02*
D03*
X1819242Y1424017D02*
D03*
X1805322Y1437936D02*
D03*
X1777483Y1465775D02*
D03*
X1763564Y1479695D02*
D03*
X1847081Y1396178D02*
D03*
X1861000Y1382259D02*
D03*
D68*
X1744077Y1499182D02*
D03*
X1880487Y1362772D02*
D03*
X1902758Y1340500D02*
D03*
X1721806Y1521453D02*
D03*
D69*
X787893Y90458D02*
D03*
X657892D02*
D03*
D70*
X962405Y1232971D02*
D03*
X1001380Y1271945D02*
D03*
D71*
X744163Y1203187D02*
D03*
X699621Y1247729D02*
D03*
X798566Y1455902D02*
D03*
X843108Y1411360D02*
D03*
X749354Y1406689D02*
D03*
X793896Y1362147D02*
D03*
X719043Y1090064D02*
D03*
X674501Y1134607D02*
D03*
X617493Y1095106D02*
D03*
X662035Y1050563D02*
D03*
D72*
X458633Y480875D02*
D03*
D73*
Y518277D02*
D03*
Y555678D02*
D03*
X553121D02*
D03*
Y518277D02*
D03*
Y480875D02*
D03*
D74*
X525892Y244458D02*
D03*
Y374458D02*
D03*
%TF.MD5,e3e109bb05b0e9a60a93a1eb4e82d8e4*%
M02*
