%TF.GenerationSoftware,Altium Limited,Altium Designer,23.4.1 (23)*%
G04 Layer_Color=32896*
%FSLAX26Y26*%
%MOIN*%
%TF.SameCoordinates,1F395C4B-4EE4-4E32-9856-E664E5071CD5*%
%TF.FilePolarity,Positive*%
%TF.FileFunction,Legend,Bot*%
%TF.Part,CustomerPanel*%
G01*
G75*
%TA.AperFunction,NonConductor*%
%ADD76C,0.009842*%
%ADD77C,0.008000*%
%ADD78C,0.007874*%
%ADD79C,0.003937*%
G36*
X899755Y1585393D02*
X906632Y1573092D01*
X901523D01*
X897004Y1581738D01*
X896964D01*
X892484Y1573092D01*
X887375D01*
X894253Y1585393D01*
X887886Y1596869D01*
X892956D01*
X896964Y1589087D01*
X897004D01*
X901052Y1596869D01*
X906121D01*
X899755Y1585393D01*
D02*
G37*
G36*
X922588Y1593017D02*
X917518D01*
Y1573092D01*
X912881D01*
Y1593017D01*
X907890D01*
Y1596869D01*
X922588D01*
Y1593017D01*
D02*
G37*
G36*
X859865Y1573092D02*
X847211D01*
Y1576944D01*
X855346D01*
Y1583232D01*
X847997D01*
Y1587044D01*
X855346D01*
Y1593017D01*
X847211D01*
Y1596869D01*
X859865D01*
Y1573092D01*
D02*
G37*
G36*
X843516D02*
X831491D01*
Y1576944D01*
X838879D01*
Y1596869D01*
X843516D01*
Y1573092D01*
D02*
G37*
G36*
X870358Y1597262D02*
X870987Y1597222D01*
X871537Y1597144D01*
X872009Y1597065D01*
X872402Y1596947D01*
X872677Y1596869D01*
X872874Y1596829D01*
X872952Y1596790D01*
X873463Y1596593D01*
X873935Y1596358D01*
X874328Y1596122D01*
X874681Y1595886D01*
X874996Y1595650D01*
X875192Y1595493D01*
X875349Y1595375D01*
X875389Y1595336D01*
X875742Y1594982D01*
X876057Y1594629D01*
X876293Y1594236D01*
X876528Y1593882D01*
X876686Y1593607D01*
X876803Y1593371D01*
X876882Y1593174D01*
X876921Y1593135D01*
X877118Y1592624D01*
X877236Y1592153D01*
X877354Y1591642D01*
X877393Y1591209D01*
X877432Y1590816D01*
X877472Y1590502D01*
Y1590305D01*
Y1590227D01*
X877432Y1589598D01*
X877354Y1589009D01*
X877275Y1588498D01*
X877118Y1588065D01*
X877000Y1587712D01*
X876921Y1587476D01*
X876843Y1587279D01*
X876803Y1587240D01*
X876528Y1586808D01*
X876214Y1586415D01*
X875939Y1586100D01*
X875664Y1585786D01*
X875428Y1585550D01*
X875231Y1585393D01*
X875114Y1585275D01*
X875074Y1585236D01*
X874288Y1584686D01*
X873935Y1584410D01*
X873581Y1584214D01*
X873306Y1584057D01*
X873070Y1583939D01*
X872913Y1583860D01*
X872874Y1583821D01*
X872009Y1583428D01*
X871616Y1583232D01*
X871302Y1583035D01*
X871026Y1582917D01*
X870830Y1582799D01*
X870673Y1582721D01*
X870633Y1582681D01*
X870280Y1582485D01*
X869926Y1582249D01*
X869651Y1582053D01*
X869415Y1581856D01*
X869219Y1581659D01*
X869061Y1581542D01*
X868983Y1581463D01*
X868943Y1581424D01*
X868708Y1581149D01*
X868551Y1580873D01*
X868393Y1580598D01*
X868315Y1580323D01*
X868275Y1580088D01*
X868236Y1579891D01*
Y1579773D01*
Y1579734D01*
X868275Y1579262D01*
X868393Y1578869D01*
X868551Y1578515D01*
X868708Y1578201D01*
X868904Y1577965D01*
X869061Y1577808D01*
X869179Y1577690D01*
X869219Y1577651D01*
X869612Y1577376D01*
X870044Y1577179D01*
X870476Y1577061D01*
X870869Y1576983D01*
X871262Y1576904D01*
X871577Y1576865D01*
X871852D01*
X872677Y1576904D01*
X873070Y1576983D01*
X873424Y1577022D01*
X873699Y1577101D01*
X873935Y1577140D01*
X874092Y1577179D01*
X874131D01*
X874917Y1577454D01*
X875271Y1577572D01*
X875585Y1577690D01*
X875860Y1577808D01*
X876057Y1577887D01*
X876175Y1577965D01*
X876214D01*
X877747Y1573957D01*
X876725Y1573524D01*
X876214Y1573367D01*
X875782Y1573249D01*
X875389Y1573131D01*
X875114Y1573053D01*
X874917Y1573014D01*
X874838D01*
X873659Y1572817D01*
X873109Y1572778D01*
X872638Y1572738D01*
X872205Y1572699D01*
X871616D01*
X870909Y1572738D01*
X870280Y1572778D01*
X869690Y1572856D01*
X869179Y1572974D01*
X868786Y1573053D01*
X868472Y1573131D01*
X868275Y1573171D01*
X868197Y1573210D01*
X867647Y1573407D01*
X867136Y1573642D01*
X866703Y1573917D01*
X866350Y1574153D01*
X866035Y1574350D01*
X865839Y1574546D01*
X865682Y1574664D01*
X865642Y1574703D01*
X865249Y1575096D01*
X864935Y1575489D01*
X864660Y1575843D01*
X864424Y1576197D01*
X864267Y1576511D01*
X864149Y1576747D01*
X864070Y1576944D01*
X864031Y1576983D01*
X863835Y1577494D01*
X863717Y1578005D01*
X863599Y1578515D01*
X863559Y1578987D01*
X863520Y1579380D01*
X863481Y1579695D01*
Y1579891D01*
Y1579970D01*
X863520Y1580598D01*
X863599Y1581188D01*
X863717Y1581699D01*
X863835Y1582092D01*
X863952Y1582446D01*
X864070Y1582721D01*
X864149Y1582878D01*
X864188Y1582917D01*
X864463Y1583349D01*
X864738Y1583742D01*
X865014Y1584057D01*
X865289Y1584371D01*
X865564Y1584607D01*
X865721Y1584764D01*
X865878Y1584882D01*
X865917Y1584921D01*
X866703Y1585511D01*
X867057Y1585747D01*
X867411Y1585983D01*
X867725Y1586140D01*
X867961Y1586258D01*
X868118Y1586336D01*
X868158Y1586376D01*
X869022Y1586808D01*
X869415Y1587004D01*
X869769Y1587201D01*
X870044Y1587319D01*
X870240Y1587437D01*
X870398Y1587515D01*
X870437Y1587554D01*
X871144Y1587987D01*
X871419Y1588223D01*
X871694Y1588419D01*
X871891Y1588576D01*
X872048Y1588694D01*
X872127Y1588773D01*
X872166Y1588812D01*
X872402Y1589087D01*
X872559Y1589362D01*
X872677Y1589637D01*
X872756Y1589912D01*
X872795Y1590148D01*
X872834Y1590345D01*
Y1590463D01*
Y1590502D01*
X872795Y1590934D01*
X872716Y1591367D01*
X872559Y1591681D01*
X872402Y1591995D01*
X872245Y1592192D01*
X872087Y1592388D01*
X872009Y1592467D01*
X871970Y1592506D01*
X871616Y1592781D01*
X871223Y1592978D01*
X870791Y1593096D01*
X870398Y1593214D01*
X870083Y1593253D01*
X869769Y1593292D01*
X869533D01*
X868747Y1593253D01*
X868393Y1593214D01*
X868079Y1593174D01*
X867804Y1593096D01*
X867607Y1593056D01*
X867489Y1593017D01*
X867450D01*
X866743Y1592781D01*
X866428Y1592664D01*
X866192Y1592546D01*
X865957Y1592428D01*
X865799Y1592349D01*
X865682Y1592310D01*
X865642Y1592271D01*
X864188Y1596004D01*
X865053Y1596436D01*
X865485Y1596593D01*
X865878Y1596711D01*
X866192Y1596829D01*
X866468Y1596908D01*
X866625Y1596947D01*
X866703D01*
X867764Y1597144D01*
X868275Y1597222D01*
X868747Y1597262D01*
X869140Y1597301D01*
X869730D01*
X870358Y1597262D01*
D02*
G37*
G36*
X1140622Y1851771D02*
X1136181D01*
Y1865604D01*
X1135749Y1865801D01*
X1135356Y1865958D01*
X1135198Y1865997D01*
X1135081Y1866037D01*
X1135002Y1866076D01*
X1134963D01*
X1134452Y1866194D01*
X1134019Y1866233D01*
X1133823Y1866272D01*
X1133587D01*
X1133037Y1866233D01*
X1132565Y1866155D01*
X1132172Y1866037D01*
X1131819Y1865919D01*
X1131583Y1865762D01*
X1131386Y1865644D01*
X1131268Y1865565D01*
X1131229Y1865526D01*
X1130954Y1865211D01*
X1130718Y1864897D01*
X1130561Y1864504D01*
X1130482Y1864150D01*
X1130404Y1863836D01*
X1130364Y1863561D01*
Y1863403D01*
Y1863325D01*
Y1851771D01*
X1125884D01*
Y1863796D01*
Y1864307D01*
X1125963Y1864818D01*
X1126159Y1865722D01*
X1126435Y1866469D01*
X1126749Y1867098D01*
X1127063Y1867609D01*
X1127338Y1867962D01*
X1127535Y1868159D01*
X1127574Y1868237D01*
X1127613D01*
X1128321Y1868748D01*
X1129068Y1869141D01*
X1129893Y1869416D01*
X1130679Y1869574D01*
X1131347Y1869691D01*
X1131661Y1869731D01*
X1131937D01*
X1132133Y1869770D01*
X1132447D01*
X1133155Y1869731D01*
X1133508Y1869691D01*
X1133784Y1869652D01*
X1134059Y1869613D01*
X1134255Y1869574D01*
X1134373Y1869534D01*
X1134412D01*
X1135120Y1869338D01*
X1135395Y1869259D01*
X1135670Y1869141D01*
X1135867Y1869063D01*
X1136024Y1869023D01*
X1136142Y1868945D01*
X1136181D01*
Y1877591D01*
X1140622D01*
Y1851771D01*
D02*
G37*
G36*
X930917Y1875075D02*
X931428Y1874722D01*
X931624Y1874565D01*
X931782Y1874447D01*
X931899Y1874368D01*
X931939Y1874329D01*
X932607Y1873897D01*
X932961Y1873739D01*
X933275Y1873582D01*
X933511Y1873464D01*
X933707Y1873346D01*
X933865Y1873307D01*
X933904Y1873268D01*
X934690Y1872953D01*
X935083Y1872835D01*
X935437Y1872717D01*
X935751Y1872600D01*
X935987Y1872560D01*
X936144Y1872482D01*
X936183D01*
X937048Y1872285D01*
X937441Y1872167D01*
X937794Y1872128D01*
X938109Y1872049D01*
X938345Y1872010D01*
X938502Y1871971D01*
X938541D01*
X937873Y1868552D01*
X937244Y1868670D01*
X936694Y1868787D01*
X936458Y1868827D01*
X936301Y1868866D01*
X936183Y1868905D01*
X936144D01*
X935476Y1869063D01*
X935201Y1869141D01*
X934926Y1869180D01*
X934729Y1869259D01*
X934572Y1869298D01*
X934454Y1869338D01*
X934415D01*
X933786Y1869534D01*
X933511Y1869613D01*
X933275Y1869691D01*
X933039Y1869770D01*
X932882Y1869849D01*
X932803Y1869888D01*
X932764D01*
X932214Y1870124D01*
X931782Y1870320D01*
X931624Y1870399D01*
X931506Y1870477D01*
X931467Y1870517D01*
X931428D01*
Y1851771D01*
X926869D01*
Y1875547D01*
X930445D01*
X930917Y1875075D01*
D02*
G37*
G36*
X1173791Y1869809D02*
X1174420Y1869770D01*
X1174970Y1869691D01*
X1175442Y1869613D01*
X1175795Y1869534D01*
X1176031Y1869495D01*
X1176070Y1869456D01*
X1176110D01*
X1176738Y1869299D01*
X1177289Y1869141D01*
X1177800Y1869023D01*
X1178193Y1868866D01*
X1178546Y1868748D01*
X1178782Y1868670D01*
X1178939Y1868630D01*
X1178979Y1868591D01*
X1177878Y1865565D01*
X1177524Y1865722D01*
X1177171Y1865801D01*
X1176896Y1865879D01*
X1176856Y1865919D01*
X1176817D01*
X1176345Y1866076D01*
X1175953Y1866155D01*
X1175795Y1866233D01*
X1175677D01*
X1175599Y1866272D01*
X1175560D01*
X1175049Y1866390D01*
X1174656Y1866469D01*
X1174459D01*
X1174341Y1866508D01*
X1174223D01*
X1173712Y1866587D01*
X1173280Y1866626D01*
X1172887D01*
X1172337Y1866587D01*
X1171865Y1866547D01*
X1171472Y1866430D01*
X1171119Y1866351D01*
X1170843Y1866233D01*
X1170647Y1866115D01*
X1170529Y1866076D01*
X1170490Y1866037D01*
X1170175Y1865801D01*
X1169979Y1865486D01*
X1169822Y1865172D01*
X1169704Y1864858D01*
X1169625Y1864543D01*
X1169586Y1864307D01*
Y1864150D01*
Y1864072D01*
Y1863168D01*
X1170333Y1863128D01*
X1171040Y1863050D01*
X1171708Y1862971D01*
X1172298Y1862893D01*
X1172769Y1862853D01*
X1173162Y1862775D01*
X1173398Y1862735D01*
X1173477D01*
X1174145Y1862618D01*
X1174774Y1862460D01*
X1175324Y1862303D01*
X1175835Y1862146D01*
X1176228Y1862028D01*
X1176503Y1861910D01*
X1176699Y1861832D01*
X1176778Y1861792D01*
X1177289Y1861556D01*
X1177760Y1861242D01*
X1178153Y1860967D01*
X1178468Y1860692D01*
X1178743Y1860417D01*
X1178939Y1860220D01*
X1179057Y1860063D01*
X1179097Y1860024D01*
X1179372Y1859552D01*
X1179607Y1859081D01*
X1179765Y1858609D01*
X1179843Y1858137D01*
X1179922Y1857705D01*
X1179961Y1857391D01*
Y1857155D01*
Y1857116D01*
Y1857076D01*
X1179922Y1856565D01*
X1179882Y1856133D01*
X1179647Y1855268D01*
X1179332Y1854561D01*
X1178979Y1853972D01*
X1178625Y1853500D01*
X1178311Y1853146D01*
X1178075Y1852950D01*
X1178035Y1852871D01*
X1177996D01*
X1177603Y1852596D01*
X1177171Y1852360D01*
X1176228Y1852006D01*
X1175206Y1851731D01*
X1174223Y1851574D01*
X1173791Y1851496D01*
X1173359Y1851456D01*
X1172966Y1851417D01*
X1172651D01*
X1172376Y1851378D01*
X1171236D01*
X1170529Y1851456D01*
X1169900Y1851496D01*
X1169311Y1851574D01*
X1168839Y1851653D01*
X1168486Y1851692D01*
X1168250Y1851771D01*
X1168171D01*
X1167503Y1851928D01*
X1166953Y1852046D01*
X1166481Y1852203D01*
X1166049Y1852321D01*
X1165735Y1852439D01*
X1165538Y1852557D01*
X1165381Y1852596D01*
X1165341Y1852635D01*
Y1863561D01*
Y1864189D01*
X1165420Y1864740D01*
X1165499Y1865251D01*
X1165617Y1865762D01*
X1165774Y1866194D01*
X1165931Y1866587D01*
X1166088Y1866940D01*
X1166245Y1867255D01*
X1166442Y1867530D01*
X1166599Y1867766D01*
X1166914Y1868120D01*
X1167110Y1868316D01*
X1167149Y1868395D01*
X1167189D01*
X1167935Y1868906D01*
X1168800Y1869259D01*
X1169665Y1869534D01*
X1170490Y1869691D01*
X1171236Y1869809D01*
X1171590Y1869849D01*
X1171865D01*
X1172101Y1869888D01*
X1173123D01*
X1173791Y1869809D01*
D02*
G37*
G36*
X1021189Y1860535D02*
X1011757D01*
Y1864347D01*
X1021189D01*
Y1860535D01*
D02*
G37*
G36*
X953829Y1851771D02*
X948916D01*
X941607Y1875547D01*
X946637Y1875547D01*
X950646Y1860063D01*
X950842Y1859277D01*
X950921Y1858923D01*
X950999Y1858609D01*
X951039Y1858334D01*
X951078Y1858137D01*
X951117Y1858019D01*
Y1857980D01*
X951157Y1857666D01*
X951235Y1857391D01*
X951274Y1857155D01*
Y1856958D01*
X951314Y1856801D01*
X951353Y1856723D01*
Y1856683D01*
Y1856644D01*
X951432D01*
X951471Y1856801D01*
X951510Y1856998D01*
X951549Y1857155D01*
Y1857194D01*
X951589Y1857508D01*
X951628Y1857784D01*
X951667Y1857980D01*
Y1858019D01*
Y1858059D01*
X951746Y1858412D01*
X951785Y1858727D01*
X951825Y1858963D01*
X951864Y1859002D01*
Y1859041D01*
X951942Y1859434D01*
X952021Y1859749D01*
X952060Y1859984D01*
X952100Y1860024D01*
Y1860063D01*
X956108Y1875547D01*
X961139D01*
X953829Y1851771D01*
D02*
G37*
G36*
X1208689Y1873425D02*
Y1869495D01*
X1210969D01*
Y1866115D01*
X1208689D01*
Y1857076D01*
X1208650Y1856094D01*
X1208493Y1855268D01*
X1208296Y1854522D01*
X1208061Y1853932D01*
X1207864Y1853500D01*
X1207668Y1853186D01*
X1207510Y1852989D01*
X1207471Y1852910D01*
X1206960Y1852439D01*
X1206371Y1852124D01*
X1205742Y1851889D01*
X1205113Y1851692D01*
X1204524Y1851613D01*
X1204091Y1851574D01*
X1203895Y1851535D01*
X1203659D01*
X1203070Y1851574D01*
X1202598Y1851613D01*
X1202401D01*
X1202244Y1851653D01*
X1202126D01*
X1201615Y1851771D01*
X1201262Y1851849D01*
X1201065Y1851928D01*
X1200987Y1851967D01*
Y1855701D01*
X1201144Y1855622D01*
X1201340Y1855543D01*
X1201458Y1855504D01*
X1201537D01*
X1201812Y1855465D01*
X1202008Y1855426D01*
X1202244D01*
X1202559Y1855465D01*
X1202834Y1855504D01*
X1203070Y1855583D01*
X1203305Y1855661D01*
X1203463Y1855740D01*
X1203580Y1855779D01*
X1203659Y1855858D01*
X1203698D01*
X1203895Y1856054D01*
X1204052Y1856290D01*
X1204131Y1856526D01*
X1204209Y1856801D01*
X1204248Y1857037D01*
X1204288Y1857194D01*
Y1857351D01*
Y1857391D01*
Y1866115D01*
X1200987D01*
Y1869495D01*
X1204288D01*
Y1874722D01*
X1208689Y1873425D01*
D02*
G37*
G36*
X1151547D02*
Y1869495D01*
X1153827D01*
Y1866115D01*
X1151547D01*
Y1857076D01*
X1151508Y1856094D01*
X1151351Y1855268D01*
X1151154Y1854522D01*
X1150918Y1853932D01*
X1150722Y1853500D01*
X1150525Y1853186D01*
X1150368Y1852989D01*
X1150329Y1852910D01*
X1149818Y1852439D01*
X1149228Y1852124D01*
X1148600Y1851889D01*
X1147971Y1851692D01*
X1147381Y1851613D01*
X1146949Y1851574D01*
X1146753Y1851535D01*
X1146517D01*
X1145927Y1851574D01*
X1145456Y1851613D01*
X1145259D01*
X1145102Y1851653D01*
X1144984D01*
X1144473Y1851771D01*
X1144120Y1851849D01*
X1143923Y1851928D01*
X1143844Y1851967D01*
Y1855701D01*
X1144002Y1855622D01*
X1144198Y1855543D01*
X1144316Y1855504D01*
X1144395D01*
X1144670Y1855465D01*
X1144866Y1855426D01*
X1145102D01*
X1145416Y1855465D01*
X1145691Y1855504D01*
X1145927Y1855583D01*
X1146163Y1855661D01*
X1146320Y1855740D01*
X1146438Y1855779D01*
X1146517Y1855858D01*
X1146556D01*
X1146753Y1856054D01*
X1146910Y1856290D01*
X1146988Y1856526D01*
X1147067Y1856801D01*
X1147106Y1857037D01*
X1147146Y1857194D01*
Y1857351D01*
Y1857391D01*
Y1866115D01*
X1143844D01*
Y1869495D01*
X1147146D01*
Y1874722D01*
X1151547Y1873425D01*
D02*
G37*
G36*
X1101597Y1857941D02*
X1101558Y1857312D01*
X1101518Y1856723D01*
X1101440Y1856172D01*
X1101283Y1855661D01*
X1101165Y1855229D01*
X1101007Y1854797D01*
X1100811Y1854443D01*
X1100654Y1854129D01*
X1100457Y1853814D01*
X1100300Y1853579D01*
X1100143Y1853382D01*
X1099986Y1853225D01*
X1099789Y1852989D01*
X1099750Y1852910D01*
X1099710D01*
X1099318Y1852635D01*
X1098925Y1852399D01*
X1098060Y1852006D01*
X1097117Y1851771D01*
X1096213Y1851574D01*
X1095388Y1851456D01*
X1095034Y1851417D01*
X1094719D01*
X1094484Y1851378D01*
X1094130D01*
X1093383Y1851417D01*
X1093030D01*
X1092754Y1851456D01*
X1092479D01*
X1092283Y1851496D01*
X1092126D01*
X1091379Y1851574D01*
X1091064Y1851613D01*
X1090789Y1851653D01*
X1090554Y1851692D01*
X1090357D01*
X1090239Y1851731D01*
X1090200D01*
X1089532Y1851849D01*
X1089217Y1851928D01*
X1088982Y1852006D01*
X1088785Y1852046D01*
X1088589Y1852085D01*
X1088510Y1852124D01*
X1088471D01*
X1087920Y1852321D01*
X1087449Y1852478D01*
X1087292Y1852557D01*
X1087174Y1852596D01*
X1087095Y1852635D01*
X1087056D01*
Y1869495D01*
X1091536D01*
Y1855426D01*
X1091890Y1855308D01*
X1092244Y1855229D01*
X1092401Y1855190D01*
X1092519D01*
X1092597Y1855150D01*
X1092637D01*
X1093147Y1855072D01*
X1093619Y1855033D01*
X1094130D01*
X1094680Y1855072D01*
X1095112Y1855150D01*
X1095545Y1855308D01*
X1095859Y1855465D01*
X1096174Y1855661D01*
X1096409Y1855897D01*
X1096606Y1856172D01*
X1096763Y1856447D01*
X1096999Y1856958D01*
X1097117Y1857391D01*
Y1857548D01*
X1097156Y1857705D01*
Y1857784D01*
Y1857823D01*
Y1869495D01*
X1101597D01*
Y1857941D01*
D02*
G37*
G36*
X1190887Y1869849D02*
X1191515Y1869770D01*
X1192105Y1869652D01*
X1192616Y1869534D01*
X1193048Y1869416D01*
X1193362Y1869299D01*
X1193559Y1869220D01*
X1193638Y1869181D01*
X1194188Y1868906D01*
X1194699Y1868591D01*
X1195131Y1868277D01*
X1195524Y1868002D01*
X1195799Y1867726D01*
X1196035Y1867491D01*
X1196192Y1867333D01*
X1196231Y1867294D01*
X1196585Y1866823D01*
X1196939Y1866312D01*
X1197214Y1865840D01*
X1197450Y1865369D01*
X1197607Y1864976D01*
X1197725Y1864622D01*
X1197803Y1864425D01*
X1197843Y1864386D01*
Y1864347D01*
X1198039Y1863718D01*
X1198157Y1863050D01*
X1198275Y1862421D01*
X1198314Y1861832D01*
X1198353Y1861360D01*
X1198393Y1860967D01*
Y1860810D01*
Y1860692D01*
Y1860652D01*
Y1860613D01*
X1198353Y1859867D01*
X1198314Y1859198D01*
X1198236Y1858570D01*
X1198118Y1857980D01*
X1198000Y1857548D01*
X1197921Y1857194D01*
X1197882Y1856958D01*
X1197843Y1856919D01*
Y1856880D01*
X1197607Y1856251D01*
X1197332Y1855701D01*
X1197017Y1855190D01*
X1196742Y1854757D01*
X1196506Y1854404D01*
X1196310Y1854168D01*
X1196153Y1853972D01*
X1196113Y1853932D01*
X1195681Y1853500D01*
X1195209Y1853107D01*
X1194738Y1852793D01*
X1194306Y1852517D01*
X1193913Y1852321D01*
X1193598Y1852164D01*
X1193402Y1852085D01*
X1193323Y1852046D01*
X1192694Y1851810D01*
X1192026Y1851653D01*
X1191397Y1851535D01*
X1190769Y1851456D01*
X1190258Y1851417D01*
X1189825Y1851378D01*
X1188764D01*
X1188057Y1851417D01*
X1187428Y1851496D01*
X1186878Y1851574D01*
X1186446Y1851613D01*
X1186092Y1851692D01*
X1185856Y1851731D01*
X1185777D01*
X1185149Y1851889D01*
X1184599Y1852006D01*
X1184127Y1852164D01*
X1183695Y1852321D01*
X1183341Y1852439D01*
X1183105Y1852557D01*
X1182948Y1852596D01*
X1182909Y1852635D01*
X1184206Y1855976D01*
X1184952Y1855661D01*
X1185345Y1855504D01*
X1185699Y1855426D01*
X1186013Y1855308D01*
X1186249Y1855229D01*
X1186406Y1855190D01*
X1186485D01*
X1187428Y1854993D01*
X1187900Y1854954D01*
X1188293Y1854915D01*
X1188607Y1854875D01*
X1189118D01*
X1189825Y1854915D01*
X1190494Y1855033D01*
X1191044Y1855190D01*
X1191515Y1855347D01*
X1191908Y1855504D01*
X1192183Y1855661D01*
X1192341Y1855779D01*
X1192419Y1855819D01*
X1192851Y1856212D01*
X1193205Y1856683D01*
X1193480Y1857194D01*
X1193716Y1857666D01*
X1193873Y1858098D01*
X1193952Y1858452D01*
X1194031Y1858688D01*
Y1858727D01*
Y1858766D01*
X1182633Y1860299D01*
X1182594Y1860574D01*
X1182555Y1860810D01*
Y1860967D01*
Y1861045D01*
Y1861832D01*
X1182594Y1862500D01*
X1182633Y1863089D01*
X1182712Y1863679D01*
X1182791Y1864150D01*
X1182909Y1864543D01*
X1182987Y1864858D01*
X1183026Y1865015D01*
X1183066Y1865093D01*
X1183262Y1865644D01*
X1183498Y1866115D01*
X1183773Y1866547D01*
X1184009Y1866940D01*
X1184206Y1867216D01*
X1184402Y1867451D01*
X1184520Y1867609D01*
X1184559Y1867648D01*
X1184913Y1868041D01*
X1185306Y1868355D01*
X1185699Y1868630D01*
X1186092Y1868866D01*
X1186406Y1869063D01*
X1186681Y1869181D01*
X1186839Y1869259D01*
X1186917Y1869299D01*
X1187467Y1869495D01*
X1188018Y1869652D01*
X1188568Y1869731D01*
X1189079Y1869809D01*
X1189511Y1869849D01*
X1189865Y1869888D01*
X1190179D01*
X1190887Y1869849D01*
D02*
G37*
G36*
X1045083D02*
X1045712Y1869770D01*
X1046302Y1869652D01*
X1046813Y1869534D01*
X1047245Y1869416D01*
X1047559Y1869299D01*
X1047756Y1869220D01*
X1047834Y1869181D01*
X1048385Y1868906D01*
X1048896Y1868591D01*
X1049328Y1868277D01*
X1049721Y1868002D01*
X1049996Y1867726D01*
X1050232Y1867491D01*
X1050389Y1867333D01*
X1050428Y1867294D01*
X1050782Y1866823D01*
X1051136Y1866312D01*
X1051411Y1865840D01*
X1051647Y1865369D01*
X1051804Y1864976D01*
X1051922Y1864622D01*
X1052000Y1864425D01*
X1052040Y1864386D01*
Y1864347D01*
X1052236Y1863718D01*
X1052354Y1863050D01*
X1052472Y1862421D01*
X1052511Y1861832D01*
X1052551Y1861360D01*
X1052590Y1860967D01*
Y1860810D01*
Y1860692D01*
Y1860652D01*
Y1860613D01*
X1052551Y1859867D01*
X1052511Y1859198D01*
X1052433Y1858570D01*
X1052315Y1857980D01*
X1052197Y1857548D01*
X1052118Y1857194D01*
X1052079Y1856958D01*
X1052040Y1856919D01*
Y1856880D01*
X1051804Y1856251D01*
X1051529Y1855701D01*
X1051214Y1855190D01*
X1050939Y1854757D01*
X1050703Y1854404D01*
X1050507Y1854168D01*
X1050350Y1853972D01*
X1050310Y1853932D01*
X1049878Y1853500D01*
X1049407Y1853107D01*
X1048935Y1852793D01*
X1048503Y1852517D01*
X1048110Y1852321D01*
X1047795Y1852164D01*
X1047599Y1852085D01*
X1047520Y1852046D01*
X1046891Y1851810D01*
X1046223Y1851653D01*
X1045594Y1851535D01*
X1044966Y1851456D01*
X1044455Y1851417D01*
X1044022Y1851378D01*
X1042961D01*
X1042254Y1851417D01*
X1041625Y1851496D01*
X1041075Y1851574D01*
X1040643Y1851613D01*
X1040289Y1851692D01*
X1040053Y1851731D01*
X1039975D01*
X1039346Y1851889D01*
X1038795Y1852006D01*
X1038324Y1852164D01*
X1037892Y1852321D01*
X1037538Y1852439D01*
X1037302Y1852557D01*
X1037145Y1852596D01*
X1037106Y1852635D01*
X1038402Y1855976D01*
X1039149Y1855661D01*
X1039542Y1855504D01*
X1039896Y1855426D01*
X1040210Y1855308D01*
X1040446Y1855229D01*
X1040603Y1855190D01*
X1040682D01*
X1041625Y1854993D01*
X1042097Y1854954D01*
X1042490Y1854915D01*
X1042804Y1854875D01*
X1043315D01*
X1044022Y1854915D01*
X1044690Y1855033D01*
X1045241Y1855190D01*
X1045712Y1855347D01*
X1046105Y1855504D01*
X1046380Y1855661D01*
X1046538Y1855779D01*
X1046616Y1855819D01*
X1047049Y1856212D01*
X1047402Y1856683D01*
X1047677Y1857194D01*
X1047913Y1857666D01*
X1048070Y1858098D01*
X1048149Y1858452D01*
X1048227Y1858688D01*
Y1858727D01*
Y1858766D01*
X1036831Y1860299D01*
X1036791Y1860574D01*
X1036752Y1860810D01*
Y1860967D01*
Y1861045D01*
Y1861832D01*
X1036791Y1862500D01*
X1036831Y1863089D01*
X1036909Y1863679D01*
X1036988Y1864150D01*
X1037106Y1864543D01*
X1037184Y1864858D01*
X1037224Y1865015D01*
X1037263Y1865093D01*
X1037459Y1865644D01*
X1037695Y1866115D01*
X1037970Y1866547D01*
X1038206Y1866940D01*
X1038402Y1867216D01*
X1038599Y1867451D01*
X1038717Y1867609D01*
X1038756Y1867648D01*
X1039110Y1868041D01*
X1039503Y1868355D01*
X1039896Y1868630D01*
X1040289Y1868866D01*
X1040603Y1869063D01*
X1040878Y1869181D01*
X1041036Y1869259D01*
X1041114Y1869299D01*
X1041664Y1869495D01*
X1042215Y1869652D01*
X1042765Y1869731D01*
X1043276Y1869809D01*
X1043708Y1869849D01*
X1044062Y1869888D01*
X1044376D01*
X1045083Y1869849D01*
D02*
G37*
G36*
X1161294Y1851771D02*
X1156813D01*
Y1877591D01*
X1161294D01*
Y1851771D01*
D02*
G37*
G36*
X1077388Y1869809D02*
X1078056Y1869770D01*
X1078646Y1869691D01*
X1079157Y1869613D01*
X1079550Y1869574D01*
X1079785Y1869495D01*
X1079864D01*
X1080532Y1869338D01*
X1081122Y1869220D01*
X1081672Y1869063D01*
X1082143Y1868906D01*
X1082497Y1868788D01*
X1082812Y1868670D01*
X1082969Y1868630D01*
X1083047Y1868591D01*
Y1851771D01*
X1078606D01*
Y1865879D01*
X1078253Y1865997D01*
X1077938Y1866076D01*
X1077663Y1866155D01*
X1077585D01*
X1077152Y1866233D01*
X1076759Y1866272D01*
X1075934D01*
X1075580Y1866233D01*
X1075227Y1866194D01*
X1074951Y1866155D01*
X1074676Y1866076D01*
X1074519Y1866037D01*
X1074401Y1865997D01*
X1074362D01*
X1073537Y1869731D01*
X1073890Y1869770D01*
X1074205D01*
X1074441Y1869809D01*
X1074559D01*
X1074991Y1869849D01*
X1075423Y1869888D01*
X1076602D01*
X1077388Y1869809D01*
D02*
G37*
G36*
X1065244D02*
X1065912Y1869770D01*
X1066502Y1869691D01*
X1066974Y1869613D01*
X1067327Y1869574D01*
X1067563Y1869495D01*
X1067642D01*
X1068271Y1869338D01*
X1068821Y1869220D01*
X1069371Y1869063D01*
X1069842Y1868906D01*
X1070196Y1868788D01*
X1070511Y1868670D01*
X1070668Y1868630D01*
X1070746Y1868591D01*
Y1851771D01*
X1066305D01*
Y1865879D01*
X1065912Y1865997D01*
X1065520Y1866076D01*
X1065362Y1866115D01*
X1065244Y1866155D01*
X1065127D01*
X1064576Y1866233D01*
X1064105Y1866272D01*
X1063633D01*
X1063083Y1866233D01*
X1062611Y1866155D01*
X1062179Y1866037D01*
X1061865Y1865919D01*
X1061590Y1865762D01*
X1061432Y1865644D01*
X1061314Y1865565D01*
X1061275Y1865526D01*
X1061000Y1865211D01*
X1060803Y1864897D01*
X1060686Y1864543D01*
X1060568Y1864189D01*
X1060528Y1863914D01*
X1060489Y1863679D01*
Y1863521D01*
Y1863443D01*
Y1851771D01*
X1056009D01*
Y1863875D01*
Y1864386D01*
X1056088Y1864897D01*
X1056284Y1865801D01*
X1056598Y1866547D01*
X1056913Y1867176D01*
X1057266Y1867687D01*
X1057581Y1868041D01*
X1057777Y1868237D01*
X1057817Y1868316D01*
X1057856D01*
X1058210Y1868591D01*
X1058642Y1868827D01*
X1059546Y1869220D01*
X1060489Y1869495D01*
X1061472Y1869691D01*
X1061904Y1869770D01*
X1062336Y1869809D01*
X1062690Y1869849D01*
X1063004D01*
X1063279Y1869888D01*
X1064498D01*
X1065244Y1869809D01*
D02*
G37*
G36*
X1027674D02*
X1028342Y1869770D01*
X1028931Y1869691D01*
X1029442Y1869613D01*
X1029835Y1869574D01*
X1030071Y1869495D01*
X1030149D01*
X1030818Y1869338D01*
X1031407Y1869220D01*
X1031957Y1869063D01*
X1032429Y1868906D01*
X1032783Y1868788D01*
X1033097Y1868670D01*
X1033254Y1868630D01*
X1033333Y1868591D01*
Y1851771D01*
X1028892D01*
Y1865879D01*
X1028538Y1865997D01*
X1028224Y1866076D01*
X1027949Y1866155D01*
X1027870D01*
X1027438Y1866233D01*
X1027045Y1866272D01*
X1026219D01*
X1025866Y1866233D01*
X1025512Y1866194D01*
X1025237Y1866155D01*
X1024962Y1866076D01*
X1024805Y1866037D01*
X1024687Y1865997D01*
X1024648D01*
X1023822Y1869731D01*
X1024176Y1869770D01*
X1024490D01*
X1024726Y1869809D01*
X1024844D01*
X1025276Y1869849D01*
X1025709Y1869888D01*
X1026888D01*
X1027674Y1869809D01*
D02*
G37*
G36*
X1002246Y1875940D02*
X1002875Y1875862D01*
X1003426Y1875822D01*
X1003897Y1875744D01*
X1004251Y1875665D01*
X1004487Y1875626D01*
X1004565D01*
X1005194Y1875469D01*
X1005784Y1875311D01*
X1006294Y1875154D01*
X1006766Y1875036D01*
X1007159Y1874879D01*
X1007434Y1874801D01*
X1007591Y1874722D01*
X1007670Y1874683D01*
Y1851771D01*
X1003150D01*
Y1861006D01*
X1002836Y1860967D01*
X1002522Y1860928D01*
X1002246Y1860888D01*
X1002168D01*
X1001696Y1860849D01*
X1000950D01*
X1000124Y1860888D01*
X999338Y1860928D01*
X998631Y1861006D01*
X998041Y1861124D01*
X997570Y1861242D01*
X997216Y1861321D01*
X996980Y1861360D01*
X996902Y1861399D01*
X996273Y1861635D01*
X995723Y1861871D01*
X995212Y1862146D01*
X994779Y1862382D01*
X994465Y1862578D01*
X994190Y1862775D01*
X994033Y1862893D01*
X993994Y1862932D01*
X993561Y1863325D01*
X993207Y1863757D01*
X992932Y1864150D01*
X992657Y1864504D01*
X992461Y1864858D01*
X992343Y1865093D01*
X992264Y1865251D01*
X992225Y1865329D01*
X992029Y1865840D01*
X991871Y1866390D01*
X991793Y1866862D01*
X991714Y1867333D01*
X991675Y1867726D01*
X991635Y1868041D01*
Y1868237D01*
Y1868316D01*
X991675Y1868945D01*
X991753Y1869574D01*
X991871Y1870124D01*
X991989Y1870674D01*
X992382Y1871617D01*
X992579Y1872050D01*
X992814Y1872403D01*
X993050Y1872757D01*
X993247Y1873071D01*
X993443Y1873307D01*
X993640Y1873504D01*
X993758Y1873700D01*
X993876Y1873818D01*
X993954Y1873857D01*
X993994Y1873897D01*
X994465Y1874250D01*
X994976Y1874604D01*
X995487Y1874879D01*
X996037Y1875115D01*
X997177Y1875469D01*
X998277Y1875704D01*
X998788Y1875822D01*
X999260Y1875862D01*
X999692Y1875901D01*
X1000046Y1875940D01*
X1000360Y1875979D01*
X1001539D01*
X1002246Y1875940D01*
D02*
G37*
G36*
X917516Y1857076D02*
X917869Y1856997D01*
X918105Y1856919D01*
X918144Y1856880D01*
X918184D01*
X918538Y1856683D01*
X918813Y1856487D01*
X919009Y1856329D01*
X919088Y1856251D01*
X919323Y1855976D01*
X919520Y1855701D01*
X919638Y1855465D01*
X919677Y1855426D01*
Y1855386D01*
X919795Y1854993D01*
X919874Y1854639D01*
X919913Y1854482D01*
Y1854404D01*
Y1854325D01*
Y1854286D01*
X919874Y1853853D01*
X919795Y1853500D01*
X919716Y1853264D01*
X919677Y1853225D01*
Y1853185D01*
X919481Y1852832D01*
X919284Y1852557D01*
X919127Y1852360D01*
X919088Y1852282D01*
X918773Y1852046D01*
X918498Y1851889D01*
X918262Y1851771D01*
X918223Y1851731D01*
X918184D01*
X917791Y1851613D01*
X917437Y1851535D01*
X917280Y1851495D01*
X917083D01*
X916651Y1851535D01*
X916297Y1851613D01*
X916062Y1851692D01*
X916022Y1851731D01*
X915983D01*
X915629Y1851889D01*
X915354Y1852085D01*
X915158Y1852242D01*
X915079Y1852282D01*
X914804Y1852596D01*
X914647Y1852871D01*
X914529Y1853107D01*
X914490Y1853146D01*
Y1853185D01*
X914332Y1853578D01*
X914293Y1853932D01*
X914254Y1854089D01*
Y1854168D01*
Y1854246D01*
Y1854286D01*
X914293Y1854718D01*
X914372Y1855072D01*
X914450Y1855308D01*
X914490Y1855347D01*
Y1855386D01*
X914647Y1855740D01*
X914843Y1856015D01*
X915000Y1856172D01*
X915079Y1856251D01*
X915394Y1856526D01*
X915669Y1856722D01*
X915904Y1856840D01*
X915944Y1856880D01*
X915983D01*
X916376Y1857037D01*
X916730Y1857076D01*
X916887Y1857115D01*
X917083D01*
X917516Y1857076D01*
D02*
G37*
G36*
X1220165Y1875940D02*
X1220794Y1875901D01*
X1221344Y1875822D01*
X1221816Y1875744D01*
X1222209Y1875626D01*
X1222484Y1875547D01*
X1222680Y1875508D01*
X1222759Y1875469D01*
X1223270Y1875272D01*
X1223741Y1875036D01*
X1224134Y1874801D01*
X1224488Y1874565D01*
X1224802Y1874329D01*
X1224999Y1874172D01*
X1225156Y1874054D01*
X1225195Y1874014D01*
X1225549Y1873661D01*
X1225863Y1873307D01*
X1226099Y1872914D01*
X1226335Y1872560D01*
X1226492Y1872285D01*
X1226610Y1872050D01*
X1226689Y1871853D01*
X1226728Y1871814D01*
X1226925Y1871303D01*
X1227043Y1870831D01*
X1227160Y1870320D01*
X1227200Y1869888D01*
X1227239Y1869495D01*
X1227278Y1869181D01*
Y1868984D01*
Y1868906D01*
X1227239Y1868277D01*
X1227160Y1867687D01*
X1227082Y1867176D01*
X1226925Y1866744D01*
X1226807Y1866390D01*
X1226728Y1866155D01*
X1226649Y1865958D01*
X1226610Y1865919D01*
X1226335Y1865486D01*
X1226021Y1865093D01*
X1225746Y1864779D01*
X1225470Y1864465D01*
X1225235Y1864229D01*
X1225038Y1864072D01*
X1224920Y1863954D01*
X1224881Y1863914D01*
X1224095Y1863364D01*
X1223741Y1863089D01*
X1223388Y1862893D01*
X1223112Y1862735D01*
X1222877Y1862618D01*
X1222719Y1862539D01*
X1222680Y1862500D01*
X1221816Y1862107D01*
X1221423Y1861910D01*
X1221108Y1861714D01*
X1220833Y1861596D01*
X1220637Y1861478D01*
X1220479Y1861399D01*
X1220440Y1861360D01*
X1220086Y1861163D01*
X1219733Y1860928D01*
X1219458Y1860731D01*
X1219222Y1860535D01*
X1219025Y1860338D01*
X1218868Y1860220D01*
X1218790Y1860142D01*
X1218750Y1860102D01*
X1218514Y1859827D01*
X1218357Y1859552D01*
X1218200Y1859277D01*
X1218121Y1859002D01*
X1218082Y1858766D01*
X1218043Y1858570D01*
Y1858452D01*
Y1858412D01*
X1218082Y1857941D01*
X1218200Y1857548D01*
X1218357Y1857194D01*
X1218514Y1856880D01*
X1218711Y1856644D01*
X1218868Y1856487D01*
X1218986Y1856369D01*
X1219025Y1856330D01*
X1219418Y1856054D01*
X1219851Y1855858D01*
X1220283Y1855740D01*
X1220676Y1855661D01*
X1221069Y1855583D01*
X1221383Y1855543D01*
X1221658D01*
X1222484Y1855583D01*
X1222877Y1855661D01*
X1223230Y1855701D01*
X1223505Y1855779D01*
X1223741Y1855819D01*
X1223899Y1855858D01*
X1223938D01*
X1224724Y1856133D01*
X1225078Y1856251D01*
X1225392Y1856369D01*
X1225667Y1856487D01*
X1225863Y1856565D01*
X1225981Y1856644D01*
X1226021D01*
X1227553Y1852635D01*
X1226532Y1852203D01*
X1226021Y1852046D01*
X1225588Y1851928D01*
X1225195Y1851810D01*
X1224920Y1851731D01*
X1224724Y1851692D01*
X1224645D01*
X1223466Y1851496D01*
X1222916Y1851456D01*
X1222444Y1851417D01*
X1222012Y1851378D01*
X1221423D01*
X1220715Y1851417D01*
X1220086Y1851456D01*
X1219497Y1851535D01*
X1218986Y1851653D01*
X1218593Y1851731D01*
X1218279Y1851810D01*
X1218082Y1851849D01*
X1218004Y1851889D01*
X1217453Y1852085D01*
X1216942Y1852321D01*
X1216510Y1852596D01*
X1216156Y1852832D01*
X1215842Y1853028D01*
X1215646Y1853225D01*
X1215488Y1853343D01*
X1215449Y1853382D01*
X1215056Y1853775D01*
X1214742Y1854168D01*
X1214466Y1854522D01*
X1214231Y1854875D01*
X1214073Y1855190D01*
X1213956Y1855426D01*
X1213877Y1855622D01*
X1213838Y1855661D01*
X1213641Y1856172D01*
X1213523Y1856683D01*
X1213405Y1857194D01*
X1213366Y1857666D01*
X1213327Y1858059D01*
X1213287Y1858373D01*
Y1858570D01*
Y1858648D01*
X1213327Y1859277D01*
X1213405Y1859867D01*
X1213523Y1860377D01*
X1213641Y1860770D01*
X1213759Y1861124D01*
X1213877Y1861399D01*
X1213956Y1861556D01*
X1213995Y1861596D01*
X1214270Y1862028D01*
X1214545Y1862421D01*
X1214820Y1862735D01*
X1215095Y1863050D01*
X1215370Y1863286D01*
X1215528Y1863443D01*
X1215685Y1863561D01*
X1215724Y1863600D01*
X1216510Y1864189D01*
X1216864Y1864425D01*
X1217217Y1864661D01*
X1217532Y1864818D01*
X1217768Y1864936D01*
X1217925Y1865015D01*
X1217964Y1865054D01*
X1218829Y1865486D01*
X1219222Y1865683D01*
X1219575Y1865879D01*
X1219851Y1865997D01*
X1220047Y1866115D01*
X1220204Y1866194D01*
X1220244Y1866233D01*
X1220951Y1866665D01*
X1221226Y1866901D01*
X1221501Y1867098D01*
X1221698Y1867255D01*
X1221855Y1867373D01*
X1221934Y1867451D01*
X1221973Y1867491D01*
X1222209Y1867766D01*
X1222366Y1868041D01*
X1222484Y1868316D01*
X1222562Y1868591D01*
X1222602Y1868827D01*
X1222641Y1869023D01*
Y1869141D01*
Y1869181D01*
X1222602Y1869613D01*
X1222523Y1870045D01*
X1222366Y1870360D01*
X1222209Y1870674D01*
X1222051Y1870870D01*
X1221894Y1871067D01*
X1221816Y1871146D01*
X1221776Y1871185D01*
X1221423Y1871460D01*
X1221030Y1871657D01*
X1220597Y1871774D01*
X1220204Y1871892D01*
X1219890Y1871932D01*
X1219575Y1871971D01*
X1219340D01*
X1218554Y1871932D01*
X1218200Y1871892D01*
X1217886Y1871853D01*
X1217611Y1871774D01*
X1217414Y1871735D01*
X1217296Y1871696D01*
X1217257D01*
X1216549Y1871460D01*
X1216235Y1871342D01*
X1215999Y1871224D01*
X1215763Y1871106D01*
X1215606Y1871028D01*
X1215488Y1870988D01*
X1215449Y1870949D01*
X1213995Y1874683D01*
X1214860Y1875115D01*
X1215292Y1875272D01*
X1215685Y1875390D01*
X1215999Y1875508D01*
X1216274Y1875586D01*
X1216431Y1875626D01*
X1216510D01*
X1217571Y1875822D01*
X1218082Y1875901D01*
X1218554Y1875940D01*
X1218947Y1875979D01*
X1219536D01*
X1220165Y1875940D01*
D02*
G37*
G36*
X1115981Y1875901D02*
X1116649Y1875862D01*
X1117238Y1875783D01*
X1117749Y1875704D01*
X1118142Y1875665D01*
X1118378Y1875586D01*
X1118457D01*
X1119125Y1875429D01*
X1119714Y1875311D01*
X1120264Y1875154D01*
X1120736Y1874997D01*
X1121129Y1874879D01*
X1121404Y1874761D01*
X1121561Y1874722D01*
X1121640Y1874683D01*
Y1852635D01*
X1121168Y1852439D01*
X1120618Y1852282D01*
X1120107Y1852124D01*
X1119596Y1851967D01*
X1119125Y1851889D01*
X1118771Y1851810D01*
X1118535Y1851731D01*
X1118457D01*
X1117710Y1851613D01*
X1116963Y1851535D01*
X1116295Y1851456D01*
X1115666Y1851417D01*
X1115155D01*
X1114762Y1851378D01*
X1114409D01*
X1113544Y1851417D01*
X1112758Y1851456D01*
X1112011Y1851535D01*
X1111343Y1851653D01*
X1110715Y1851810D01*
X1110125Y1851967D01*
X1109614Y1852124D01*
X1109142Y1852282D01*
X1108710Y1852439D01*
X1108357Y1852596D01*
X1108081Y1852753D01*
X1107806Y1852910D01*
X1107610Y1853028D01*
X1107492Y1853107D01*
X1107413Y1853186D01*
X1107374D01*
X1106942Y1853539D01*
X1106588Y1853932D01*
X1106274Y1854325D01*
X1105998Y1854718D01*
X1105763Y1855150D01*
X1105566Y1855583D01*
X1105291Y1856369D01*
X1105095Y1857116D01*
X1105055Y1857430D01*
X1105016Y1857705D01*
X1104977Y1857901D01*
Y1858059D01*
Y1858177D01*
Y1858216D01*
Y1858688D01*
X1105055Y1859120D01*
X1105095Y1859513D01*
X1105173Y1859827D01*
X1105252Y1860102D01*
X1105330Y1860338D01*
X1105370Y1860456D01*
X1105409Y1860495D01*
X1105723Y1861163D01*
X1105920Y1861478D01*
X1106077Y1861714D01*
X1106234Y1861910D01*
X1106352Y1862067D01*
X1106431Y1862146D01*
X1106470Y1862185D01*
X1106942Y1862696D01*
X1107374Y1863089D01*
X1107571Y1863207D01*
X1107728Y1863325D01*
X1107806Y1863364D01*
X1107846Y1863403D01*
X1108396Y1863718D01*
X1108867Y1863954D01*
X1109064Y1864032D01*
X1109221Y1864072D01*
X1109300Y1864111D01*
X1109339D01*
Y1864189D01*
X1108789Y1864386D01*
X1108357Y1864582D01*
X1108199Y1864661D01*
X1108081Y1864740D01*
X1108003Y1864818D01*
X1107964D01*
X1107492Y1865211D01*
X1107138Y1865604D01*
X1106981Y1865762D01*
X1106863Y1865879D01*
X1106824Y1865958D01*
X1106784Y1865997D01*
X1106431Y1866547D01*
X1106156Y1867058D01*
X1106038Y1867255D01*
X1105959Y1867412D01*
X1105920Y1867530D01*
Y1867569D01*
X1105723Y1868237D01*
X1105684Y1868552D01*
X1105645Y1868827D01*
X1105605Y1869102D01*
Y1869299D01*
Y1869416D01*
Y1869456D01*
X1105645Y1869967D01*
X1105684Y1870477D01*
X1105763Y1870910D01*
X1105881Y1871303D01*
X1105998Y1871617D01*
X1106077Y1871853D01*
X1106116Y1872010D01*
X1106156Y1872050D01*
X1106391Y1872482D01*
X1106627Y1872875D01*
X1106902Y1873228D01*
X1107178Y1873543D01*
X1107413Y1873779D01*
X1107610Y1873936D01*
X1107767Y1874054D01*
X1107806Y1874093D01*
X1108239Y1874408D01*
X1108671Y1874683D01*
X1109142Y1874918D01*
X1109575Y1875115D01*
X1109968Y1875272D01*
X1110282Y1875390D01*
X1110479Y1875429D01*
X1110518Y1875469D01*
X1110557D01*
X1111186Y1875626D01*
X1111854Y1875783D01*
X1112522Y1875862D01*
X1113151Y1875901D01*
X1113662Y1875940D01*
X1114094Y1875979D01*
X1115273D01*
X1115981Y1875901D01*
D02*
G37*
G36*
X983186D02*
X983815Y1875862D01*
X984365Y1875783D01*
X984797Y1875704D01*
X985151Y1875665D01*
X985387Y1875586D01*
X985465D01*
X986094Y1875429D01*
X986644Y1875311D01*
X987116Y1875154D01*
X987509Y1874997D01*
X987863Y1874879D01*
X988098Y1874761D01*
X988256Y1874722D01*
X988295Y1874683D01*
Y1852635D01*
X987863Y1852439D01*
X987391Y1852282D01*
X986959Y1852124D01*
X986487Y1851967D01*
X986094Y1851889D01*
X985780Y1851810D01*
X985583Y1851731D01*
X985505D01*
X984208Y1851535D01*
X983579Y1851456D01*
X982990Y1851417D01*
X982479D01*
X982125Y1851378D01*
X981771D01*
X980867Y1851417D01*
X980003Y1851496D01*
X979217Y1851653D01*
X978470Y1851849D01*
X977763Y1852085D01*
X977134Y1852360D01*
X976544Y1852635D01*
X976033Y1852950D01*
X975562Y1853225D01*
X975169Y1853500D01*
X974815Y1853775D01*
X974540Y1854011D01*
X974304Y1854207D01*
X974147Y1854364D01*
X974068Y1854443D01*
X974029Y1854482D01*
X973518Y1855111D01*
X973125Y1855779D01*
X972732Y1856487D01*
X972418Y1857233D01*
X972143Y1858019D01*
X971907Y1858766D01*
X971750Y1859513D01*
X971592Y1860259D01*
X971475Y1860967D01*
X971396Y1861596D01*
X971317Y1862185D01*
X971278Y1862696D01*
X971239Y1863089D01*
Y1863403D01*
Y1863600D01*
Y1863679D01*
X971278Y1864779D01*
X971357Y1865801D01*
X971514Y1866744D01*
X971671Y1867648D01*
X971868Y1868473D01*
X972103Y1869220D01*
X972379Y1869888D01*
X972614Y1870517D01*
X972889Y1871067D01*
X973164Y1871539D01*
X973400Y1871932D01*
X973597Y1872246D01*
X973754Y1872521D01*
X973911Y1872678D01*
X973990Y1872796D01*
X974029Y1872835D01*
X974579Y1873386D01*
X975169Y1873857D01*
X975758Y1874290D01*
X976387Y1874643D01*
X977055Y1874958D01*
X977684Y1875233D01*
X978313Y1875429D01*
X978942Y1875586D01*
X979492Y1875704D01*
X980042Y1875822D01*
X980514Y1875901D01*
X980946Y1875940D01*
X981300Y1875979D01*
X982479D01*
X983186Y1875901D01*
D02*
G37*
G36*
X903525Y1875940D02*
X904232Y1875822D01*
X904861Y1875665D01*
X905411Y1875508D01*
X905844Y1875351D01*
X906197Y1875193D01*
X906394Y1875075D01*
X906472Y1875036D01*
X907023Y1874643D01*
X907534Y1874211D01*
X907966Y1873779D01*
X908319Y1873386D01*
X908634Y1872993D01*
X908830Y1872678D01*
X908988Y1872482D01*
X909027Y1872442D01*
Y1872403D01*
X909381Y1871774D01*
X909656Y1871106D01*
X909931Y1870438D01*
X910127Y1869849D01*
X910284Y1869298D01*
X910402Y1868905D01*
X910442Y1868748D01*
Y1868630D01*
X910481Y1868552D01*
Y1868512D01*
X910638Y1867648D01*
X910756Y1866822D01*
X910835Y1865997D01*
X910874Y1865251D01*
X910913Y1864622D01*
X910953Y1864347D01*
Y1864111D01*
Y1863914D01*
Y1863796D01*
Y1863718D01*
Y1863678D01*
X910913Y1862696D01*
X910874Y1861792D01*
X910795Y1860967D01*
X910717Y1860259D01*
X910638Y1859670D01*
X910599Y1859395D01*
X910560Y1859198D01*
X910520Y1859041D01*
X910481Y1858923D01*
Y1858845D01*
Y1858805D01*
X910284Y1857980D01*
X910049Y1857233D01*
X909813Y1856565D01*
X909577Y1856015D01*
X909381Y1855543D01*
X909184Y1855190D01*
X909066Y1854954D01*
X909027Y1854915D01*
Y1854875D01*
X908634Y1854286D01*
X908202Y1853775D01*
X907769Y1853343D01*
X907376Y1852950D01*
X907023Y1852675D01*
X906747Y1852439D01*
X906551Y1852321D01*
X906472Y1852282D01*
X905844Y1851967D01*
X905215Y1851771D01*
X904586Y1851613D01*
X903996Y1851495D01*
X903486Y1851417D01*
X903093Y1851378D01*
X902739D01*
X901953Y1851417D01*
X901245Y1851535D01*
X900617Y1851653D01*
X900067Y1851849D01*
X899634Y1852006D01*
X899280Y1852124D01*
X899084Y1852242D01*
X899005Y1852282D01*
X898455Y1852675D01*
X897944Y1853068D01*
X897512Y1853500D01*
X897119Y1853932D01*
X896844Y1854286D01*
X896608Y1854600D01*
X896490Y1854797D01*
X896451Y1854875D01*
X896097Y1855543D01*
X895822Y1856211D01*
X895547Y1856880D01*
X895351Y1857469D01*
X895193Y1858019D01*
X895075Y1858412D01*
X895036Y1858570D01*
Y1858687D01*
X894997Y1858766D01*
Y1858805D01*
X894840Y1859670D01*
X894722Y1860495D01*
X894643Y1861321D01*
X894564Y1862067D01*
Y1862735D01*
X894525Y1863010D01*
Y1863246D01*
Y1863403D01*
Y1863561D01*
Y1863639D01*
Y1863678D01*
Y1864622D01*
X894604Y1865526D01*
X894682Y1866351D01*
X894761Y1867058D01*
X894840Y1867687D01*
X894879Y1867923D01*
X894918Y1868119D01*
X894957Y1868277D01*
Y1868395D01*
X894997Y1868473D01*
Y1868512D01*
X895193Y1869338D01*
X895429Y1870084D01*
X895665Y1870713D01*
X895901Y1871303D01*
X896097Y1871774D01*
X896294Y1872128D01*
X896412Y1872324D01*
X896451Y1872403D01*
X896844Y1872993D01*
X897276Y1873543D01*
X897708Y1873975D01*
X898101Y1874368D01*
X898455Y1874643D01*
X898730Y1874879D01*
X898927Y1874997D01*
X899005Y1875036D01*
X899634Y1875351D01*
X900263Y1875586D01*
X900892Y1875744D01*
X901442Y1875861D01*
X901953Y1875940D01*
X902385Y1875979D01*
X902739D01*
X903525Y1875940D01*
D02*
G37*
G36*
X1080650Y1844972D02*
X1081279Y1844893D01*
X1081829Y1844854D01*
X1082340Y1844775D01*
X1082694Y1844697D01*
X1082929Y1844657D01*
X1083008D01*
X1083676Y1844540D01*
X1084305Y1844382D01*
X1084894Y1844225D01*
X1085366Y1844068D01*
X1085759Y1843950D01*
X1086073Y1843832D01*
X1086270Y1843754D01*
X1086349Y1843714D01*
X1085052Y1840216D01*
X1084148Y1840531D01*
X1083715Y1840649D01*
X1083322Y1840767D01*
X1083008Y1840845D01*
X1082733Y1840924D01*
X1082576Y1840963D01*
X1082497D01*
X1081515Y1841160D01*
X1081043Y1841199D01*
X1080650Y1841238D01*
X1080336Y1841278D01*
X1079864D01*
X1079196Y1841238D01*
X1078646Y1841160D01*
X1078174Y1841042D01*
X1077742Y1840924D01*
X1077427Y1840767D01*
X1077231Y1840649D01*
X1077074Y1840570D01*
X1077034Y1840531D01*
X1076720Y1840256D01*
X1076484Y1839902D01*
X1076288Y1839588D01*
X1076170Y1839273D01*
X1076091Y1838959D01*
X1076052Y1838723D01*
Y1838566D01*
Y1838527D01*
Y1838252D01*
X1076130Y1837976D01*
X1076288Y1837505D01*
X1076366Y1837308D01*
X1076445Y1837190D01*
X1076484Y1837112D01*
X1076524Y1837072D01*
X1076917Y1836640D01*
X1077310Y1836286D01*
X1077506Y1836129D01*
X1077663Y1836011D01*
X1077742Y1835972D01*
X1077781Y1835933D01*
X1078449Y1835579D01*
X1079078Y1835343D01*
X1079353Y1835225D01*
X1079589Y1835147D01*
X1079746Y1835108D01*
X1079785D01*
X1080689Y1834911D01*
X1081122Y1834832D01*
X1081554Y1834793D01*
X1081908Y1834754D01*
X1082183Y1834715D01*
X1082418D01*
Y1831413D01*
X1081515D01*
X1081004Y1831374D01*
X1080571Y1831335D01*
X1080178Y1831295D01*
X1079864Y1831217D01*
X1079589Y1831178D01*
X1079432Y1831138D01*
X1079392D01*
X1078960Y1831060D01*
X1078528Y1830942D01*
X1078174Y1830824D01*
X1077860Y1830706D01*
X1077624Y1830588D01*
X1077427Y1830509D01*
X1077310Y1830470D01*
X1077270Y1830431D01*
X1076956Y1830274D01*
X1076681Y1830077D01*
X1076406Y1829881D01*
X1076209Y1829684D01*
X1076052Y1829527D01*
X1075934Y1829409D01*
X1075895Y1829330D01*
X1075855Y1829291D01*
X1075698Y1829016D01*
X1075541Y1828741D01*
X1075423Y1828191D01*
X1075384Y1827994D01*
X1075344Y1827798D01*
Y1827680D01*
Y1827640D01*
X1075384Y1827090D01*
X1075541Y1826579D01*
X1075737Y1826147D01*
X1075934Y1825793D01*
X1076170Y1825518D01*
X1076366Y1825283D01*
X1076524Y1825165D01*
X1076563Y1825125D01*
X1077034Y1824811D01*
X1077585Y1824575D01*
X1078135Y1824418D01*
X1078685Y1824300D01*
X1079157Y1824221D01*
X1079550Y1824182D01*
X1080493D01*
X1081043Y1824221D01*
X1081554Y1824261D01*
X1082025Y1824300D01*
X1082418Y1824339D01*
X1082694Y1824379D01*
X1082890Y1824418D01*
X1082969D01*
X1083519Y1824536D01*
X1083991Y1824654D01*
X1084423Y1824772D01*
X1084816Y1824889D01*
X1085091Y1825007D01*
X1085327Y1825086D01*
X1085484Y1825165D01*
X1085523D01*
X1086938Y1821667D01*
X1086388Y1821470D01*
X1085798Y1821274D01*
X1085248Y1821117D01*
X1084737Y1820999D01*
X1084266Y1820881D01*
X1083912Y1820842D01*
X1083676Y1820763D01*
X1083598D01*
X1082890Y1820645D01*
X1082222Y1820566D01*
X1081554Y1820488D01*
X1081004Y1820449D01*
X1080532D01*
X1080139Y1820409D01*
X1079825D01*
X1079039Y1820449D01*
X1078292Y1820488D01*
X1077663Y1820566D01*
X1077074Y1820684D01*
X1076602Y1820763D01*
X1076288Y1820842D01*
X1076052Y1820881D01*
X1075973Y1820920D01*
X1075384Y1821117D01*
X1074834Y1821352D01*
X1074323Y1821588D01*
X1073930Y1821824D01*
X1073576Y1822060D01*
X1073340Y1822217D01*
X1073183Y1822335D01*
X1073144Y1822374D01*
X1072711Y1822728D01*
X1072358Y1823121D01*
X1072043Y1823514D01*
X1071807Y1823868D01*
X1071611Y1824182D01*
X1071454Y1824418D01*
X1071375Y1824614D01*
X1071336Y1824654D01*
X1071139Y1825165D01*
X1070982Y1825676D01*
X1070864Y1826186D01*
X1070786Y1826658D01*
X1070746Y1827051D01*
X1070707Y1827365D01*
Y1827562D01*
Y1827640D01*
Y1828073D01*
X1070786Y1828505D01*
X1070825Y1828859D01*
X1070904Y1829213D01*
X1070982Y1829448D01*
X1071061Y1829684D01*
X1071100Y1829802D01*
X1071139Y1829841D01*
X1071493Y1830509D01*
X1071650Y1830824D01*
X1071847Y1831060D01*
X1072004Y1831256D01*
X1072122Y1831413D01*
X1072200Y1831492D01*
X1072240Y1831531D01*
X1072751Y1832042D01*
X1073262Y1832435D01*
X1073458Y1832553D01*
X1073615Y1832671D01*
X1073733Y1832710D01*
X1073773Y1832749D01*
X1074401Y1833103D01*
X1074716Y1833221D01*
X1074991Y1833339D01*
X1075227Y1833418D01*
X1075423Y1833496D01*
X1075541Y1833535D01*
X1075580D01*
Y1833614D01*
X1075030Y1833889D01*
X1074519Y1834164D01*
X1074362Y1834243D01*
X1074205Y1834361D01*
X1074126Y1834400D01*
X1074087Y1834439D01*
X1073576Y1834872D01*
X1073144Y1835265D01*
X1072986Y1835422D01*
X1072869Y1835540D01*
X1072790Y1835618D01*
X1072751Y1835658D01*
X1072358Y1836169D01*
X1072083Y1836640D01*
X1071965Y1836837D01*
X1071886Y1836994D01*
X1071847Y1837112D01*
Y1837151D01*
X1071650Y1837780D01*
X1071572Y1838330D01*
X1071532Y1838566D01*
Y1838723D01*
Y1838841D01*
Y1838880D01*
X1071572Y1839391D01*
X1071611Y1839863D01*
X1071847Y1840767D01*
X1072122Y1841513D01*
X1072476Y1842142D01*
X1072829Y1842653D01*
X1073144Y1843007D01*
X1073380Y1843243D01*
X1073419Y1843321D01*
X1073458D01*
X1073851Y1843636D01*
X1074244Y1843871D01*
X1075187Y1844304D01*
X1076130Y1844618D01*
X1077074Y1844815D01*
X1077506Y1844854D01*
X1077899Y1844932D01*
X1078292Y1844972D01*
X1078606D01*
X1078881Y1845011D01*
X1079943D01*
X1080650Y1844972D01*
D02*
G37*
G36*
X1033569D02*
X1034158Y1844893D01*
X1034669Y1844854D01*
X1035141Y1844775D01*
X1035455Y1844697D01*
X1035691Y1844657D01*
X1035769D01*
X1036398Y1844540D01*
X1036988Y1844382D01*
X1037538Y1844225D01*
X1038009Y1844068D01*
X1038442Y1843950D01*
X1038717Y1843832D01*
X1038913Y1843754D01*
X1038992Y1843714D01*
X1037695Y1840216D01*
X1036831Y1840531D01*
X1036398Y1840649D01*
X1036044Y1840767D01*
X1035691Y1840845D01*
X1035455Y1840924D01*
X1035258Y1840963D01*
X1035219D01*
X1034237Y1841120D01*
X1033804Y1841160D01*
X1033451Y1841199D01*
X1033136Y1841238D01*
X1032665D01*
X1031879Y1841199D01*
X1031211Y1841081D01*
X1030621Y1840924D01*
X1030149Y1840727D01*
X1029756Y1840531D01*
X1029521Y1840374D01*
X1029324Y1840256D01*
X1029285Y1840216D01*
X1028892Y1839823D01*
X1028617Y1839391D01*
X1028381Y1838959D01*
X1028263Y1838527D01*
X1028185Y1838173D01*
X1028106Y1837859D01*
Y1837662D01*
Y1837583D01*
X1028145Y1837151D01*
X1028185Y1836758D01*
X1028302Y1836404D01*
X1028381Y1836090D01*
X1028499Y1835815D01*
X1028617Y1835618D01*
X1028656Y1835461D01*
X1028695Y1835422D01*
X1029128Y1834715D01*
X1029363Y1834400D01*
X1029560Y1834086D01*
X1029717Y1833850D01*
X1029874Y1833653D01*
X1029953Y1833535D01*
X1029992Y1833496D01*
X1040171Y1820802D01*
X1022918D01*
Y1824496D01*
X1032586D01*
X1026377Y1831492D01*
X1025984Y1831964D01*
X1025630Y1832357D01*
X1025512Y1832553D01*
X1025394Y1832671D01*
X1025355Y1832749D01*
X1025316Y1832789D01*
X1024923Y1833339D01*
X1024608Y1833811D01*
X1024490Y1834007D01*
X1024412Y1834164D01*
X1024333Y1834243D01*
Y1834282D01*
X1024058Y1834911D01*
X1023822Y1835422D01*
X1023744Y1835658D01*
X1023704Y1835815D01*
X1023665Y1835933D01*
Y1835972D01*
X1023508Y1836640D01*
X1023468Y1836955D01*
X1023429Y1837230D01*
X1023390Y1837466D01*
Y1837662D01*
Y1837780D01*
Y1837819D01*
X1023429Y1838448D01*
X1023468Y1838998D01*
X1023586Y1839548D01*
X1023744Y1840059D01*
X1024097Y1840963D01*
X1024530Y1841710D01*
X1024726Y1842024D01*
X1024962Y1842299D01*
X1025158Y1842535D01*
X1025316Y1842732D01*
X1025473Y1842889D01*
X1025551Y1843007D01*
X1025630Y1843046D01*
X1025669Y1843085D01*
X1026102Y1843439D01*
X1026612Y1843714D01*
X1027123Y1843989D01*
X1027634Y1844186D01*
X1028735Y1844540D01*
X1029796Y1844775D01*
X1030307Y1844854D01*
X1030778Y1844893D01*
X1031171Y1844972D01*
X1031564D01*
X1031839Y1845011D01*
X1032940D01*
X1033569Y1844972D01*
D02*
G37*
G36*
X994190D02*
X994779Y1844893D01*
X995290Y1844854D01*
X995762Y1844775D01*
X996076Y1844697D01*
X996312Y1844657D01*
X996391D01*
X997020Y1844540D01*
X997609Y1844382D01*
X998159Y1844225D01*
X998631Y1844068D01*
X999063Y1843950D01*
X999338Y1843832D01*
X999535Y1843754D01*
X999613Y1843714D01*
X998317Y1840216D01*
X997452Y1840531D01*
X997020Y1840649D01*
X996666Y1840767D01*
X996312Y1840845D01*
X996076Y1840924D01*
X995880Y1840963D01*
X995841D01*
X994858Y1841120D01*
X994426Y1841160D01*
X994072Y1841199D01*
X993758Y1841238D01*
X993286D01*
X992500Y1841199D01*
X991832Y1841081D01*
X991242Y1840924D01*
X990771Y1840727D01*
X990378Y1840531D01*
X990142Y1840374D01*
X989946Y1840256D01*
X989906Y1840216D01*
X989513Y1839823D01*
X989238Y1839391D01*
X989002Y1838959D01*
X988885Y1838527D01*
X988806Y1838173D01*
X988727Y1837859D01*
Y1837662D01*
Y1837583D01*
X988767Y1837151D01*
X988806Y1836758D01*
X988924Y1836404D01*
X989002Y1836090D01*
X989120Y1835815D01*
X989238Y1835618D01*
X989278Y1835461D01*
X989317Y1835422D01*
X989749Y1834715D01*
X989985Y1834400D01*
X990181Y1834086D01*
X990339Y1833850D01*
X990496Y1833653D01*
X990574Y1833535D01*
X990614Y1833496D01*
X1000792Y1820802D01*
X983540D01*
Y1824496D01*
X993207D01*
X986998Y1831492D01*
X986605Y1831964D01*
X986251Y1832357D01*
X986134Y1832553D01*
X986016Y1832671D01*
X985976Y1832749D01*
X985937Y1832789D01*
X985544Y1833339D01*
X985230Y1833811D01*
X985112Y1834007D01*
X985033Y1834164D01*
X984955Y1834243D01*
Y1834282D01*
X984679Y1834911D01*
X984444Y1835422D01*
X984365Y1835658D01*
X984326Y1835815D01*
X984286Y1835933D01*
Y1835972D01*
X984129Y1836640D01*
X984090Y1836955D01*
X984051Y1837230D01*
X984011Y1837466D01*
Y1837662D01*
Y1837780D01*
Y1837819D01*
X984051Y1838448D01*
X984090Y1838998D01*
X984208Y1839548D01*
X984365Y1840059D01*
X984719Y1840963D01*
X985151Y1841710D01*
X985347Y1842024D01*
X985583Y1842299D01*
X985780Y1842535D01*
X985937Y1842732D01*
X986094Y1842889D01*
X986173Y1843007D01*
X986251Y1843046D01*
X986291Y1843085D01*
X986723Y1843439D01*
X987234Y1843714D01*
X987745Y1843989D01*
X988256Y1844186D01*
X989356Y1844540D01*
X990417Y1844775D01*
X990928Y1844854D01*
X991400Y1844893D01*
X991793Y1844972D01*
X992186D01*
X992461Y1845011D01*
X993561D01*
X994190Y1844972D01*
D02*
G37*
G36*
X974029D02*
X974658Y1844893D01*
X975208Y1844854D01*
X975719Y1844775D01*
X976073Y1844697D01*
X976308Y1844657D01*
X976387D01*
X977055Y1844540D01*
X977684Y1844382D01*
X978274Y1844225D01*
X978745Y1844068D01*
X979138Y1843950D01*
X979452Y1843832D01*
X979649Y1843754D01*
X979728Y1843714D01*
X978431Y1840216D01*
X977527Y1840531D01*
X977095Y1840649D01*
X976702Y1840767D01*
X976387Y1840845D01*
X976112Y1840924D01*
X975955Y1840963D01*
X975876D01*
X974894Y1841160D01*
X974422Y1841199D01*
X974029Y1841238D01*
X973715Y1841278D01*
X973243D01*
X972575Y1841238D01*
X972025Y1841160D01*
X971553Y1841042D01*
X971121Y1840924D01*
X970807Y1840767D01*
X970610Y1840649D01*
X970453Y1840570D01*
X970413Y1840531D01*
X970099Y1840256D01*
X969863Y1839902D01*
X969667Y1839588D01*
X969549Y1839273D01*
X969470Y1838959D01*
X969431Y1838723D01*
Y1838566D01*
Y1838527D01*
Y1838252D01*
X969510Y1837976D01*
X969667Y1837505D01*
X969745Y1837308D01*
X969824Y1837190D01*
X969863Y1837112D01*
X969903Y1837072D01*
X970296Y1836640D01*
X970689Y1836286D01*
X970885Y1836129D01*
X971042Y1836011D01*
X971121Y1835972D01*
X971160Y1835933D01*
X971828Y1835579D01*
X972457Y1835343D01*
X972732Y1835225D01*
X972968Y1835147D01*
X973125Y1835108D01*
X973164D01*
X974068Y1834911D01*
X974501Y1834832D01*
X974933Y1834793D01*
X975287Y1834754D01*
X975562Y1834715D01*
X975798D01*
Y1831413D01*
X974894D01*
X974383Y1831374D01*
X973951Y1831335D01*
X973558Y1831295D01*
X973243Y1831217D01*
X972968Y1831178D01*
X972811Y1831138D01*
X972771D01*
X972339Y1831060D01*
X971907Y1830942D01*
X971553Y1830824D01*
X971239Y1830706D01*
X971003Y1830588D01*
X970807Y1830509D01*
X970689Y1830470D01*
X970649Y1830431D01*
X970335Y1830274D01*
X970060Y1830077D01*
X969785Y1829881D01*
X969588Y1829684D01*
X969431Y1829527D01*
X969313Y1829409D01*
X969274Y1829330D01*
X969235Y1829291D01*
X969077Y1829016D01*
X968920Y1828741D01*
X968802Y1828191D01*
X968763Y1827994D01*
X968724Y1827798D01*
Y1827680D01*
Y1827640D01*
X968763Y1827090D01*
X968920Y1826579D01*
X969117Y1826147D01*
X969313Y1825793D01*
X969549Y1825518D01*
X969745Y1825283D01*
X969903Y1825165D01*
X969942Y1825125D01*
X970413Y1824811D01*
X970964Y1824575D01*
X971514Y1824418D01*
X972064Y1824300D01*
X972536Y1824221D01*
X972929Y1824182D01*
X973872D01*
X974422Y1824221D01*
X974933Y1824261D01*
X975405Y1824300D01*
X975798Y1824339D01*
X976073Y1824379D01*
X976269Y1824418D01*
X976348D01*
X976898Y1824536D01*
X977370Y1824654D01*
X977802Y1824772D01*
X978195Y1824889D01*
X978470Y1825007D01*
X978706Y1825086D01*
X978863Y1825165D01*
X978902D01*
X980317Y1821667D01*
X979767Y1821470D01*
X979177Y1821274D01*
X978627Y1821117D01*
X978116Y1820999D01*
X977645Y1820881D01*
X977291Y1820842D01*
X977055Y1820763D01*
X976977D01*
X976269Y1820645D01*
X975601Y1820566D01*
X974933Y1820488D01*
X974383Y1820449D01*
X973911D01*
X973518Y1820409D01*
X973204D01*
X972418Y1820449D01*
X971671Y1820488D01*
X971042Y1820566D01*
X970453Y1820684D01*
X969981Y1820763D01*
X969667Y1820842D01*
X969431Y1820881D01*
X969352Y1820920D01*
X968763Y1821117D01*
X968213Y1821352D01*
X967702Y1821588D01*
X967309Y1821824D01*
X966955Y1822060D01*
X966719Y1822217D01*
X966562Y1822335D01*
X966523Y1822374D01*
X966091Y1822728D01*
X965737Y1823121D01*
X965422Y1823514D01*
X965187Y1823868D01*
X964990Y1824182D01*
X964833Y1824418D01*
X964754Y1824614D01*
X964715Y1824654D01*
X964519Y1825165D01*
X964361Y1825676D01*
X964243Y1826186D01*
X964165Y1826658D01*
X964125Y1827051D01*
X964086Y1827365D01*
Y1827562D01*
Y1827640D01*
Y1828073D01*
X964165Y1828505D01*
X964204Y1828859D01*
X964283Y1829213D01*
X964361Y1829448D01*
X964440Y1829684D01*
X964479Y1829802D01*
X964519Y1829841D01*
X964872Y1830509D01*
X965029Y1830824D01*
X965226Y1831060D01*
X965383Y1831256D01*
X965501Y1831413D01*
X965580Y1831492D01*
X965619Y1831531D01*
X966130Y1832042D01*
X966641Y1832435D01*
X966837Y1832553D01*
X966994Y1832671D01*
X967112Y1832710D01*
X967152Y1832749D01*
X967780Y1833103D01*
X968095Y1833221D01*
X968370Y1833339D01*
X968606Y1833418D01*
X968802Y1833496D01*
X968920Y1833535D01*
X968959D01*
Y1833614D01*
X968409Y1833889D01*
X967898Y1834164D01*
X967741Y1834243D01*
X967584Y1834361D01*
X967505Y1834400D01*
X967466Y1834439D01*
X966955Y1834872D01*
X966523Y1835265D01*
X966366Y1835422D01*
X966248Y1835540D01*
X966169Y1835618D01*
X966130Y1835658D01*
X965737Y1836169D01*
X965462Y1836640D01*
X965344Y1836837D01*
X965265Y1836994D01*
X965226Y1837112D01*
Y1837151D01*
X965029Y1837780D01*
X964951Y1838330D01*
X964912Y1838566D01*
Y1838723D01*
Y1838841D01*
Y1838880D01*
X964951Y1839391D01*
X964990Y1839863D01*
X965226Y1840767D01*
X965501Y1841513D01*
X965855Y1842142D01*
X966208Y1842653D01*
X966523Y1843007D01*
X966759Y1843243D01*
X966798Y1843321D01*
X966837D01*
X967230Y1843636D01*
X967623Y1843871D01*
X968566Y1844304D01*
X969510Y1844618D01*
X970453Y1844815D01*
X970885Y1844854D01*
X971278Y1844932D01*
X971671Y1844972D01*
X971986D01*
X972261Y1845011D01*
X973322D01*
X974029Y1844972D01*
D02*
G37*
G36*
X1136928Y1838841D02*
X1137556Y1838802D01*
X1138107Y1838723D01*
X1138578Y1838645D01*
X1138932Y1838566D01*
X1139168Y1838527D01*
X1139207Y1838487D01*
X1139246D01*
X1139875Y1838330D01*
X1140425Y1838173D01*
X1140936Y1838055D01*
X1141329Y1837898D01*
X1141683Y1837780D01*
X1141919Y1837701D01*
X1142076Y1837662D01*
X1142115Y1837623D01*
X1141015Y1834597D01*
X1140661Y1834754D01*
X1140307Y1834832D01*
X1140032Y1834911D01*
X1139993Y1834950D01*
X1139954D01*
X1139482Y1835108D01*
X1139089Y1835186D01*
X1138932Y1835265D01*
X1138814D01*
X1138735Y1835304D01*
X1138696D01*
X1138185Y1835422D01*
X1137792Y1835501D01*
X1137596D01*
X1137478Y1835540D01*
X1137360D01*
X1136849Y1835618D01*
X1136417Y1835658D01*
X1136024D01*
X1135474Y1835618D01*
X1135002Y1835579D01*
X1134609Y1835461D01*
X1134255Y1835383D01*
X1133980Y1835265D01*
X1133784Y1835147D01*
X1133666Y1835108D01*
X1133626Y1835068D01*
X1133312Y1834832D01*
X1133116Y1834518D01*
X1132958Y1834204D01*
X1132840Y1833889D01*
X1132762Y1833575D01*
X1132723Y1833339D01*
Y1833182D01*
Y1833103D01*
Y1832199D01*
X1133469Y1832160D01*
X1134177Y1832081D01*
X1134845Y1832003D01*
X1135434Y1831924D01*
X1135906Y1831885D01*
X1136299Y1831806D01*
X1136535Y1831767D01*
X1136613D01*
X1137281Y1831649D01*
X1137910Y1831492D01*
X1138460Y1831335D01*
X1138971Y1831178D01*
X1139364Y1831060D01*
X1139639Y1830942D01*
X1139836Y1830863D01*
X1139914Y1830824D01*
X1140425Y1830588D01*
X1140897Y1830274D01*
X1141290Y1829998D01*
X1141604Y1829723D01*
X1141879Y1829448D01*
X1142076Y1829252D01*
X1142194Y1829095D01*
X1142233Y1829055D01*
X1142508Y1828584D01*
X1142744Y1828112D01*
X1142901Y1827640D01*
X1142980Y1827169D01*
X1143058Y1826737D01*
X1143098Y1826422D01*
Y1826186D01*
Y1826147D01*
Y1826108D01*
X1143058Y1825597D01*
X1143019Y1825165D01*
X1142783Y1824300D01*
X1142469Y1823593D01*
X1142115Y1823003D01*
X1141762Y1822532D01*
X1141447Y1822178D01*
X1141211Y1821981D01*
X1141172Y1821903D01*
X1141133D01*
X1140740Y1821628D01*
X1140307Y1821392D01*
X1139364Y1821038D01*
X1138342Y1820763D01*
X1137360Y1820606D01*
X1136928Y1820527D01*
X1136495Y1820488D01*
X1136102Y1820449D01*
X1135788D01*
X1135513Y1820409D01*
X1134373D01*
X1133666Y1820488D01*
X1133037Y1820527D01*
X1132447Y1820606D01*
X1131976Y1820684D01*
X1131622Y1820724D01*
X1131386Y1820802D01*
X1131308D01*
X1130640Y1820959D01*
X1130089Y1821077D01*
X1129618Y1821235D01*
X1129186Y1821352D01*
X1128871Y1821470D01*
X1128675Y1821588D01*
X1128517Y1821628D01*
X1128478Y1821667D01*
Y1832592D01*
Y1833221D01*
X1128557Y1833771D01*
X1128635Y1834282D01*
X1128753Y1834793D01*
X1128910Y1835225D01*
X1129068Y1835618D01*
X1129225Y1835972D01*
X1129382Y1836286D01*
X1129579Y1836562D01*
X1129736Y1836797D01*
X1130050Y1837151D01*
X1130247Y1837348D01*
X1130286Y1837426D01*
X1130325D01*
X1131072Y1837937D01*
X1131937Y1838291D01*
X1132801Y1838566D01*
X1133626Y1838723D01*
X1134373Y1838841D01*
X1134727Y1838880D01*
X1135002D01*
X1135238Y1838920D01*
X1136259D01*
X1136928Y1838841D01*
D02*
G37*
G36*
X1065637Y1831728D02*
X1064891Y1831846D01*
X1064576D01*
X1064301Y1831885D01*
X1064065Y1831924D01*
X1063751D01*
X1063122Y1831964D01*
X1062808Y1832003D01*
X1061432D01*
X1060882Y1831964D01*
X1060371Y1831924D01*
X1059900Y1831846D01*
X1059546Y1831806D01*
X1059310Y1831728D01*
X1059114Y1831688D01*
X1059074D01*
X1058642Y1831571D01*
X1058210Y1831413D01*
X1057856Y1831295D01*
X1057581Y1831138D01*
X1057345Y1831020D01*
X1057188Y1830902D01*
X1057070Y1830863D01*
X1057031Y1830824D01*
X1056756Y1830627D01*
X1056520Y1830391D01*
X1056166Y1829959D01*
X1056048Y1829802D01*
X1055970Y1829645D01*
X1055891Y1829566D01*
Y1829527D01*
X1055655Y1828937D01*
X1055537Y1828387D01*
X1055498Y1828191D01*
Y1827994D01*
Y1827876D01*
Y1827837D01*
X1055537Y1827208D01*
X1055695Y1826697D01*
X1055930Y1826226D01*
X1056166Y1825833D01*
X1056402Y1825518D01*
X1056638Y1825322D01*
X1056795Y1825165D01*
X1056834Y1825125D01*
X1057345Y1824811D01*
X1057935Y1824575D01*
X1058524Y1824418D01*
X1059074Y1824300D01*
X1059585Y1824221D01*
X1060017Y1824182D01*
X1060371D01*
X1061393Y1824221D01*
X1061865Y1824261D01*
X1062336Y1824300D01*
X1062690Y1824339D01*
X1062965Y1824379D01*
X1063161Y1824418D01*
X1063240D01*
X1063751Y1824536D01*
X1064223Y1824654D01*
X1064655Y1824772D01*
X1065009Y1824889D01*
X1065323Y1825007D01*
X1065520Y1825086D01*
X1065677Y1825165D01*
X1065716D01*
X1067131Y1821667D01*
X1066030Y1821313D01*
X1065480Y1821156D01*
X1064969Y1820999D01*
X1064537Y1820920D01*
X1064223Y1820842D01*
X1063987Y1820763D01*
X1063908D01*
X1063240Y1820645D01*
X1062572Y1820566D01*
X1061943Y1820488D01*
X1061393Y1820449D01*
X1060921D01*
X1060568Y1820409D01*
X1060253D01*
X1059507Y1820449D01*
X1058839Y1820488D01*
X1058170Y1820566D01*
X1057620Y1820645D01*
X1057188Y1820724D01*
X1056834Y1820802D01*
X1056598Y1820881D01*
X1056520D01*
X1055891Y1821077D01*
X1055341Y1821313D01*
X1054830Y1821549D01*
X1054358Y1821785D01*
X1054005Y1821981D01*
X1053769Y1822139D01*
X1053572Y1822256D01*
X1053533Y1822296D01*
X1053101Y1822689D01*
X1052708Y1823082D01*
X1052354Y1823475D01*
X1052079Y1823828D01*
X1051843Y1824143D01*
X1051686Y1824418D01*
X1051607Y1824575D01*
X1051568Y1824654D01*
X1051332Y1825204D01*
X1051175Y1825754D01*
X1051018Y1826304D01*
X1050939Y1826854D01*
X1050900Y1827287D01*
X1050861Y1827640D01*
Y1827876D01*
Y1827916D01*
Y1827955D01*
X1050900Y1828584D01*
X1050978Y1829173D01*
X1051096Y1829723D01*
X1051214Y1830274D01*
X1051411Y1830745D01*
X1051607Y1831178D01*
X1051804Y1831571D01*
X1052040Y1831964D01*
X1052275Y1832278D01*
X1052472Y1832553D01*
X1052668Y1832789D01*
X1052865Y1832985D01*
X1052983Y1833142D01*
X1053101Y1833260D01*
X1053179Y1833300D01*
X1053219Y1833339D01*
X1053690Y1833693D01*
X1054201Y1834007D01*
X1054712Y1834243D01*
X1055302Y1834479D01*
X1056480Y1834832D01*
X1057620Y1835068D01*
X1058131Y1835147D01*
X1058642Y1835186D01*
X1059074Y1835265D01*
X1059467D01*
X1059821Y1835304D01*
X1060921D01*
X1060253Y1840885D01*
X1051371D01*
Y1844579D01*
X1064183D01*
X1065637Y1831728D01*
D02*
G37*
G36*
X1150565Y1838880D02*
X1151115Y1838841D01*
X1151626Y1838723D01*
X1152097Y1838645D01*
X1152451Y1838527D01*
X1152765Y1838409D01*
X1152923Y1838369D01*
X1153001Y1838330D01*
X1153512Y1838094D01*
X1153984Y1837819D01*
X1154416Y1837544D01*
X1154770Y1837269D01*
X1155084Y1837033D01*
X1155320Y1836837D01*
X1155477Y1836679D01*
X1155516Y1836640D01*
X1155909Y1836208D01*
X1156263Y1835697D01*
X1156578Y1835225D01*
X1156813Y1834793D01*
X1157010Y1834361D01*
X1157167Y1834046D01*
X1157246Y1833850D01*
X1157285Y1833811D01*
Y1833771D01*
X1157482Y1833103D01*
X1157639Y1832396D01*
X1157757Y1831688D01*
X1157835Y1831060D01*
X1157874Y1830509D01*
X1157914Y1830038D01*
Y1829881D01*
Y1829763D01*
Y1829684D01*
Y1829645D01*
X1157874Y1828780D01*
X1157796Y1827994D01*
X1157717Y1827326D01*
X1157599Y1826737D01*
X1157482Y1826226D01*
X1157364Y1825872D01*
X1157324Y1825636D01*
X1157285Y1825597D01*
Y1825558D01*
X1157010Y1824929D01*
X1156735Y1824379D01*
X1156420Y1823868D01*
X1156145Y1823475D01*
X1155909Y1823121D01*
X1155713Y1822846D01*
X1155556Y1822689D01*
X1155516Y1822649D01*
X1155084Y1822256D01*
X1154652Y1821903D01*
X1154220Y1821628D01*
X1153827Y1821392D01*
X1153512Y1821195D01*
X1153237Y1821077D01*
X1153080Y1820999D01*
X1153001Y1820959D01*
X1152451Y1820763D01*
X1151901Y1820645D01*
X1151429Y1820527D01*
X1150958Y1820488D01*
X1150565Y1820449D01*
X1150290Y1820409D01*
X1150014D01*
X1149032Y1820449D01*
X1148128Y1820606D01*
X1147342Y1820802D01*
X1146635Y1820999D01*
X1146084Y1821235D01*
X1145849Y1821313D01*
X1145652Y1821392D01*
X1145495Y1821470D01*
X1145377Y1821549D01*
X1145338Y1821588D01*
X1145299D01*
X1146713Y1824968D01*
X1147146Y1824693D01*
X1147578Y1824496D01*
X1148010Y1824379D01*
X1148443Y1824300D01*
X1148796Y1824221D01*
X1149071Y1824182D01*
X1149346D01*
X1149897Y1824221D01*
X1150408Y1824339D01*
X1150604Y1824418D01*
X1150761Y1824457D01*
X1150840Y1824496D01*
X1150879D01*
X1151390Y1824811D01*
X1151783Y1825125D01*
X1151940Y1825283D01*
X1152019Y1825400D01*
X1152097Y1825479D01*
X1152137Y1825518D01*
X1152490Y1826108D01*
X1152726Y1826658D01*
X1152844Y1826894D01*
X1152923Y1827090D01*
X1152962Y1827208D01*
Y1827247D01*
X1153159Y1828073D01*
X1153198Y1828505D01*
X1153237Y1828859D01*
X1153276Y1829213D01*
Y1829448D01*
Y1829605D01*
Y1829684D01*
X1153237Y1830667D01*
X1153080Y1831531D01*
X1152923Y1832239D01*
X1152687Y1832828D01*
X1152490Y1833260D01*
X1152294Y1833575D01*
X1152176Y1833771D01*
X1152137Y1833850D01*
X1151704Y1834322D01*
X1151233Y1834636D01*
X1150761Y1834872D01*
X1150329Y1835068D01*
X1149936Y1835147D01*
X1149621Y1835186D01*
X1149425Y1835225D01*
X1149346D01*
X1148796Y1835186D01*
X1148285Y1835108D01*
X1147814Y1834990D01*
X1147421Y1834872D01*
X1147146Y1834715D01*
X1146910Y1834597D01*
X1146753Y1834518D01*
X1146713Y1834479D01*
X1145299Y1837701D01*
X1146084Y1838094D01*
X1146870Y1838409D01*
X1147657Y1838605D01*
X1148403Y1838762D01*
X1149032Y1838841D01*
X1149307Y1838880D01*
X1149543Y1838920D01*
X1150014D01*
X1150565Y1838880D01*
D02*
G37*
G36*
X1106588Y1829881D02*
Y1826658D01*
X1095938D01*
Y1820802D01*
X1091772D01*
Y1826658D01*
X1089414D01*
Y1829881D01*
X1091772D01*
Y1844579D01*
X1096684D01*
X1106588Y1829881D01*
D02*
G37*
G36*
X1114291Y1838330D02*
X1114645Y1838448D01*
X1115037Y1838527D01*
X1115195D01*
X1115313Y1838566D01*
X1115430D01*
X1115941Y1838645D01*
X1116374Y1838684D01*
X1116806D01*
X1117553Y1838645D01*
X1118221Y1838566D01*
X1118850Y1838487D01*
X1119361Y1838369D01*
X1119832Y1838212D01*
X1120147Y1838134D01*
X1120343Y1838055D01*
X1120422Y1838016D01*
X1120972Y1837741D01*
X1121483Y1837426D01*
X1121915Y1837112D01*
X1122308Y1836837D01*
X1122583Y1836562D01*
X1122819Y1836326D01*
X1122976Y1836169D01*
X1123015Y1836129D01*
X1123369Y1835658D01*
X1123723Y1835186D01*
X1123959Y1834715D01*
X1124194Y1834243D01*
X1124352Y1833850D01*
X1124509Y1833535D01*
X1124548Y1833339D01*
X1124587Y1833300D01*
Y1833260D01*
X1124745Y1832632D01*
X1124862Y1831964D01*
X1124980Y1831335D01*
X1125020Y1830745D01*
X1125059Y1830274D01*
X1125098Y1829881D01*
Y1829723D01*
Y1829605D01*
Y1829566D01*
Y1829527D01*
X1125059Y1828741D01*
X1125020Y1827994D01*
X1124902Y1827287D01*
X1124745Y1826658D01*
X1124587Y1826069D01*
X1124391Y1825518D01*
X1124194Y1825007D01*
X1123959Y1824536D01*
X1123762Y1824143D01*
X1123566Y1823789D01*
X1123369Y1823514D01*
X1123212Y1823239D01*
X1123055Y1823042D01*
X1122937Y1822925D01*
X1122898Y1822846D01*
X1122858Y1822807D01*
X1122426Y1822374D01*
X1121915Y1822021D01*
X1121404Y1821706D01*
X1120854Y1821431D01*
X1120304Y1821195D01*
X1119754Y1820999D01*
X1118692Y1820724D01*
X1118221Y1820606D01*
X1117749Y1820527D01*
X1117317Y1820488D01*
X1116963Y1820449D01*
X1116688Y1820409D01*
X1115509D01*
X1114802Y1820488D01*
X1114173Y1820527D01*
X1113583Y1820606D01*
X1113151Y1820684D01*
X1112797Y1820724D01*
X1112562Y1820802D01*
X1112483D01*
X1111854Y1820959D01*
X1111343Y1821077D01*
X1110872Y1821235D01*
X1110479Y1821352D01*
X1110164Y1821470D01*
X1109968Y1821588D01*
X1109811Y1821628D01*
X1109771Y1821667D01*
Y1846622D01*
X1114291D01*
Y1838330D01*
D02*
G37*
G36*
X1011796Y1844972D02*
X1012504Y1844854D01*
X1013133Y1844697D01*
X1013683Y1844540D01*
X1014115Y1844382D01*
X1014469Y1844225D01*
X1014665Y1844107D01*
X1014744Y1844068D01*
X1015294Y1843675D01*
X1015805Y1843243D01*
X1016237Y1842810D01*
X1016591Y1842417D01*
X1016905Y1842024D01*
X1017102Y1841710D01*
X1017259Y1841513D01*
X1017298Y1841474D01*
Y1841435D01*
X1017652Y1840806D01*
X1017927Y1840138D01*
X1018202Y1839470D01*
X1018399Y1838880D01*
X1018556Y1838330D01*
X1018674Y1837937D01*
X1018713Y1837780D01*
Y1837662D01*
X1018753Y1837583D01*
Y1837544D01*
X1018910Y1836679D01*
X1019028Y1835854D01*
X1019106Y1835029D01*
X1019145Y1834282D01*
X1019185Y1833653D01*
X1019224Y1833378D01*
Y1833142D01*
Y1832946D01*
Y1832828D01*
Y1832749D01*
Y1832710D01*
X1019185Y1831728D01*
X1019145Y1830824D01*
X1019067Y1829998D01*
X1018988Y1829291D01*
X1018910Y1828702D01*
X1018870Y1828427D01*
X1018831Y1828230D01*
X1018792Y1828073D01*
X1018753Y1827955D01*
Y1827876D01*
Y1827837D01*
X1018556Y1827012D01*
X1018320Y1826265D01*
X1018084Y1825597D01*
X1017849Y1825047D01*
X1017652Y1824575D01*
X1017456Y1824221D01*
X1017338Y1823986D01*
X1017298Y1823946D01*
Y1823907D01*
X1016905Y1823318D01*
X1016473Y1822807D01*
X1016041Y1822374D01*
X1015648Y1821981D01*
X1015294Y1821706D01*
X1015019Y1821470D01*
X1014822Y1821352D01*
X1014744Y1821313D01*
X1014115Y1820999D01*
X1013486Y1820802D01*
X1012857Y1820645D01*
X1012268Y1820527D01*
X1011757Y1820449D01*
X1011364Y1820409D01*
X1011010D01*
X1010224Y1820449D01*
X1009517Y1820566D01*
X1008888Y1820684D01*
X1008338Y1820881D01*
X1007906Y1821038D01*
X1007552Y1821156D01*
X1007356Y1821274D01*
X1007277Y1821313D01*
X1006727Y1821706D01*
X1006216Y1822099D01*
X1005784Y1822532D01*
X1005390Y1822964D01*
X1005115Y1823318D01*
X1004880Y1823632D01*
X1004762Y1823828D01*
X1004722Y1823907D01*
X1004369Y1824575D01*
X1004094Y1825243D01*
X1003818Y1825911D01*
X1003622Y1826501D01*
X1003465Y1827051D01*
X1003347Y1827444D01*
X1003308Y1827601D01*
Y1827719D01*
X1003268Y1827798D01*
Y1827837D01*
X1003111Y1828702D01*
X1002993Y1829527D01*
X1002915Y1830352D01*
X1002836Y1831099D01*
Y1831767D01*
X1002797Y1832042D01*
Y1832278D01*
Y1832435D01*
Y1832592D01*
Y1832671D01*
Y1832710D01*
Y1833653D01*
X1002875Y1834557D01*
X1002954Y1835383D01*
X1003033Y1836090D01*
X1003111Y1836719D01*
X1003150Y1836955D01*
X1003190Y1837151D01*
X1003229Y1837308D01*
Y1837426D01*
X1003268Y1837505D01*
Y1837544D01*
X1003465Y1838369D01*
X1003701Y1839116D01*
X1003936Y1839745D01*
X1004172Y1840334D01*
X1004369Y1840806D01*
X1004565Y1841160D01*
X1004683Y1841356D01*
X1004722Y1841435D01*
X1005115Y1842024D01*
X1005548Y1842574D01*
X1005980Y1843007D01*
X1006373Y1843400D01*
X1006727Y1843675D01*
X1007002Y1843911D01*
X1007198Y1844029D01*
X1007277Y1844068D01*
X1007906Y1844382D01*
X1008534Y1844618D01*
X1009163Y1844775D01*
X1009713Y1844893D01*
X1010224Y1844972D01*
X1010657Y1845011D01*
X1011010D01*
X1011796Y1844972D01*
D02*
G37*
G36*
X773775Y1462250D02*
X770175Y1461700D01*
X769825Y1462300D01*
X769425Y1462850D01*
X769075Y1463300D01*
X768675Y1463700D01*
X768325Y1464000D01*
X768075Y1464250D01*
X767875Y1464350D01*
X767825Y1464400D01*
X767225Y1464750D01*
X766675Y1465000D01*
X766125Y1465150D01*
X765625Y1465300D01*
X765175Y1465350D01*
X764875Y1465400D01*
X764025D01*
X763525Y1465300D01*
X762575Y1465050D01*
X761775Y1464700D01*
X761075Y1464300D01*
X760525Y1463850D01*
X760125Y1463500D01*
X759875Y1463250D01*
X759775Y1463200D01*
Y1463150D01*
X759125Y1462250D01*
X758675Y1461200D01*
X758325Y1460150D01*
X758125Y1459150D01*
X757975Y1458250D01*
X757925Y1457850D01*
Y1457500D01*
X757875Y1457250D01*
Y1457050D01*
Y1456900D01*
Y1456850D01*
X757975Y1455300D01*
X758175Y1453950D01*
X758525Y1452750D01*
X758675Y1452250D01*
X758875Y1451800D01*
X759075Y1451400D01*
X759225Y1451000D01*
X759425Y1450700D01*
X759575Y1450450D01*
X759675Y1450250D01*
X759775Y1450100D01*
X759875Y1450050D01*
Y1450000D01*
X760225Y1449550D01*
X760625Y1449200D01*
X761025Y1448850D01*
X761425Y1448600D01*
X762225Y1448150D01*
X762925Y1447850D01*
X763575Y1447700D01*
X764075Y1447600D01*
X764275Y1447550D01*
X764525D01*
X765325Y1447650D01*
X766075Y1447850D01*
X766725Y1448100D01*
X767275Y1448450D01*
X767725Y1448750D01*
X768075Y1449050D01*
X768275Y1449250D01*
X768375Y1449300D01*
X768925Y1450050D01*
X769375Y1450900D01*
X769725Y1451750D01*
X769975Y1452650D01*
X770175Y1453400D01*
X770275Y1453750D01*
X770325Y1454050D01*
X770375Y1454300D01*
X770425Y1454500D01*
Y1454600D01*
Y1454650D01*
X774425Y1454300D01*
X774325Y1453400D01*
X774175Y1452550D01*
X774025Y1451750D01*
X773775Y1450950D01*
X773525Y1450300D01*
X773275Y1449650D01*
X773025Y1449050D01*
X772725Y1448550D01*
X772475Y1448050D01*
X772225Y1447650D01*
X771975Y1447300D01*
X771775Y1447000D01*
X771575Y1446800D01*
X771425Y1446650D01*
X771375Y1446550D01*
X771325Y1446500D01*
X770775Y1446000D01*
X770225Y1445600D01*
X769675Y1445200D01*
X769075Y1444900D01*
X767925Y1444400D01*
X766825Y1444050D01*
X765925Y1443850D01*
X765475Y1443800D01*
X765125Y1443750D01*
X764875Y1443700D01*
X764475D01*
X763575Y1443750D01*
X762725Y1443850D01*
X761975Y1444050D01*
X761225Y1444300D01*
X760525Y1444600D01*
X759875Y1444950D01*
X759325Y1445300D01*
X758775Y1445700D01*
X758325Y1446050D01*
X757875Y1446400D01*
X757525Y1446750D01*
X757275Y1447050D01*
X757025Y1447300D01*
X756875Y1447500D01*
X756775Y1447600D01*
X756725Y1447650D01*
X756225Y1448400D01*
X755775Y1449200D01*
X755375Y1450000D01*
X755025Y1450800D01*
X754775Y1451600D01*
X754525Y1452400D01*
X754175Y1453900D01*
X754075Y1454600D01*
X753975Y1455200D01*
X753925Y1455800D01*
X753875Y1456250D01*
X753825Y1456650D01*
Y1456950D01*
Y1457150D01*
Y1457200D01*
X753875Y1458200D01*
X753925Y1459200D01*
X754075Y1460100D01*
X754275Y1460950D01*
X754475Y1461750D01*
X754725Y1462500D01*
X755025Y1463150D01*
X755275Y1463800D01*
X755525Y1464300D01*
X755825Y1464800D01*
X756075Y1465200D01*
X756275Y1465550D01*
X756475Y1465800D01*
X756575Y1466000D01*
X756675Y1466100D01*
X756725Y1466150D01*
X757275Y1466750D01*
X757825Y1467250D01*
X758425Y1467700D01*
X759025Y1468100D01*
X759575Y1468400D01*
X760125Y1468700D01*
X761225Y1469100D01*
X762125Y1469300D01*
X762525Y1469400D01*
X762875Y1469450D01*
X763125Y1469500D01*
X764075D01*
X764675Y1469400D01*
X765725Y1469150D01*
X766725Y1468750D01*
X767625Y1468350D01*
X768325Y1467900D01*
X768625Y1467700D01*
X768875Y1467500D01*
X769075Y1467350D01*
X769225Y1467250D01*
X769325Y1467200D01*
X769375Y1467150D01*
X767675Y1477350D01*
X755325D01*
Y1481800D01*
X770725D01*
X773775Y1462250D01*
D02*
G37*
G36*
X804175Y1444350D02*
X800075D01*
Y1461200D01*
X794575D01*
X793975Y1461100D01*
X793425Y1461000D01*
X792975Y1460900D01*
X792575Y1460800D01*
X792325Y1460700D01*
X792175Y1460650D01*
X792125Y1460600D01*
X791675Y1460350D01*
X791275Y1460050D01*
X790875Y1459700D01*
X790525Y1459300D01*
X790225Y1459000D01*
X789975Y1458700D01*
X789825Y1458500D01*
X789775Y1458450D01*
X789525Y1458100D01*
X789275Y1457700D01*
X788675Y1456800D01*
X788075Y1455750D01*
X787475Y1454750D01*
X786925Y1453750D01*
X786725Y1453350D01*
X786525Y1452950D01*
X786375Y1452650D01*
X786225Y1452400D01*
X786175Y1452250D01*
X786125Y1452200D01*
X781975Y1444350D01*
X776775D01*
X782225Y1454650D01*
X782775Y1455600D01*
X783325Y1456550D01*
X783875Y1457350D01*
X784325Y1458050D01*
X784775Y1458650D01*
X785125Y1459100D01*
X785325Y1459400D01*
X785425Y1459500D01*
X785825Y1459900D01*
X786225Y1460250D01*
X787125Y1460950D01*
X787475Y1461200D01*
X787775Y1461400D01*
X787975Y1461550D01*
X788075Y1461600D01*
X786575Y1461950D01*
X785275Y1462400D01*
X784125Y1462950D01*
X783225Y1463550D01*
X782825Y1463800D01*
X782525Y1464100D01*
X782225Y1464300D01*
X781975Y1464550D01*
X781825Y1464700D01*
X781675Y1464850D01*
X781575Y1464900D01*
Y1464950D01*
X781175Y1465500D01*
X780825Y1466050D01*
X780275Y1467200D01*
X779875Y1468350D01*
X779625Y1469450D01*
X779425Y1470450D01*
X779375Y1470850D01*
Y1471250D01*
X779325Y1471550D01*
Y1471750D01*
Y1471900D01*
Y1471950D01*
X779375Y1473150D01*
X779525Y1474200D01*
X779775Y1475200D01*
X779975Y1476000D01*
X780225Y1476700D01*
X780475Y1477200D01*
X780525Y1477400D01*
X780625Y1477550D01*
X780675Y1477600D01*
Y1477650D01*
X781175Y1478500D01*
X781725Y1479250D01*
X782325Y1479850D01*
X782825Y1480350D01*
X783325Y1480750D01*
X783675Y1481000D01*
X783925Y1481150D01*
X784025Y1481200D01*
X784425Y1481400D01*
X784875Y1481550D01*
X785875Y1481850D01*
X786925Y1482050D01*
X787975Y1482150D01*
X788925Y1482250D01*
X789375D01*
X789725Y1482300D01*
X804175D01*
Y1444350D01*
D02*
G37*
G36*
X804000Y1503080D02*
X799900D01*
Y1519930D01*
X794400D01*
X793800Y1519830D01*
X793250Y1519730D01*
X792800Y1519630D01*
X792400Y1519530D01*
X792150Y1519430D01*
X792000Y1519380D01*
X791950Y1519330D01*
X791500Y1519080D01*
X791100Y1518780D01*
X790700Y1518430D01*
X790350Y1518030D01*
X790050Y1517730D01*
X789800Y1517430D01*
X789650Y1517230D01*
X789600Y1517180D01*
X789350Y1516830D01*
X789100Y1516430D01*
X788500Y1515530D01*
X787900Y1514480D01*
X787300Y1513480D01*
X786750Y1512480D01*
X786550Y1512080D01*
X786350Y1511680D01*
X786200Y1511380D01*
X786050Y1511130D01*
X786000Y1510980D01*
X785950Y1510930D01*
X781800Y1503080D01*
X776600D01*
X782050Y1513380D01*
X782600Y1514330D01*
X783150Y1515280D01*
X783700Y1516080D01*
X784150Y1516780D01*
X784600Y1517380D01*
X784950Y1517830D01*
X785150Y1518130D01*
X785250Y1518230D01*
X785650Y1518630D01*
X786050Y1518980D01*
X786950Y1519680D01*
X787300Y1519930D01*
X787600Y1520130D01*
X787800Y1520280D01*
X787900Y1520330D01*
X786400Y1520680D01*
X785100Y1521130D01*
X783950Y1521680D01*
X783050Y1522280D01*
X782650Y1522530D01*
X782350Y1522830D01*
X782050Y1523030D01*
X781800Y1523280D01*
X781650Y1523430D01*
X781500Y1523580D01*
X781400Y1523630D01*
Y1523680D01*
X781000Y1524230D01*
X780650Y1524780D01*
X780100Y1525930D01*
X779700Y1527080D01*
X779450Y1528180D01*
X779250Y1529180D01*
X779200Y1529580D01*
Y1529980D01*
X779150Y1530280D01*
Y1530480D01*
Y1530630D01*
Y1530680D01*
X779200Y1531880D01*
X779350Y1532930D01*
X779600Y1533930D01*
X779800Y1534730D01*
X780050Y1535430D01*
X780300Y1535930D01*
X780350Y1536130D01*
X780450Y1536280D01*
X780500Y1536330D01*
Y1536380D01*
X781000Y1537230D01*
X781550Y1537980D01*
X782150Y1538580D01*
X782650Y1539080D01*
X783150Y1539480D01*
X783500Y1539730D01*
X783750Y1539880D01*
X783850Y1539930D01*
X784250Y1540130D01*
X784700Y1540280D01*
X785700Y1540580D01*
X786750Y1540780D01*
X787800Y1540880D01*
X788750Y1540980D01*
X789200D01*
X789550Y1541030D01*
X804000D01*
Y1503080D01*
D02*
G37*
G36*
X775500Y1516480D02*
Y1512180D01*
X762000D01*
Y1503080D01*
X758200D01*
Y1512180D01*
X754000D01*
Y1516480D01*
X758200D01*
Y1541030D01*
X761350D01*
X775500Y1516480D01*
D02*
G37*
%LPC*%
G36*
X1169782Y1860299D02*
X1169586D01*
Y1854915D01*
X1169900Y1854797D01*
X1170254Y1854718D01*
X1170411Y1854679D01*
X1170568D01*
X1170647Y1854640D01*
X1170686D01*
X1171197Y1854600D01*
X1171669Y1854561D01*
X1172101D01*
X1172730Y1854600D01*
X1173280Y1854679D01*
X1173752Y1854757D01*
X1174145Y1854915D01*
X1174459Y1855033D01*
X1174656Y1855111D01*
X1174813Y1855190D01*
X1174852Y1855229D01*
X1175167Y1855504D01*
X1175363Y1855819D01*
X1175520Y1856172D01*
X1175638Y1856487D01*
X1175717Y1856762D01*
X1175756Y1856998D01*
Y1857155D01*
Y1857194D01*
X1175717Y1857548D01*
X1175677Y1857862D01*
X1175599Y1858137D01*
X1175481Y1858334D01*
X1175402Y1858530D01*
X1175324Y1858648D01*
X1175284Y1858727D01*
X1175245Y1858766D01*
X1174813Y1859159D01*
X1174380Y1859434D01*
X1174184Y1859552D01*
X1174027Y1859631D01*
X1173948Y1859670D01*
X1173909D01*
X1173241Y1859906D01*
X1172651Y1860024D01*
X1172376Y1860063D01*
X1172180Y1860102D01*
X1171983D01*
X1171119Y1860181D01*
X1170726Y1860220D01*
X1170372Y1860259D01*
X1170057D01*
X1169782Y1860299D01*
D02*
G37*
G36*
X1190572Y1866626D02*
X1190297D01*
X1189707Y1866587D01*
X1189236Y1866469D01*
X1188804Y1866312D01*
X1188450Y1866115D01*
X1188136Y1865919D01*
X1187939Y1865762D01*
X1187821Y1865644D01*
X1187782Y1865604D01*
X1187467Y1865211D01*
X1187271Y1864740D01*
X1187114Y1864229D01*
X1186996Y1863757D01*
X1186917Y1863286D01*
X1186878Y1862932D01*
Y1862696D01*
Y1862657D01*
Y1862618D01*
X1194345Y1861596D01*
X1194266Y1862460D01*
X1194109Y1863207D01*
X1193952Y1863875D01*
X1193716Y1864386D01*
X1193520Y1864818D01*
X1193323Y1865093D01*
X1193205Y1865290D01*
X1193166Y1865329D01*
X1192734Y1865762D01*
X1192262Y1866076D01*
X1191790Y1866312D01*
X1191319Y1866469D01*
X1190926Y1866547D01*
X1190572Y1866626D01*
D02*
G37*
G36*
X1044769D02*
X1044494D01*
X1043905Y1866587D01*
X1043433Y1866469D01*
X1043001Y1866312D01*
X1042647Y1866115D01*
X1042332Y1865919D01*
X1042136Y1865762D01*
X1042018Y1865644D01*
X1041979Y1865604D01*
X1041664Y1865211D01*
X1041468Y1864740D01*
X1041311Y1864229D01*
X1041193Y1863757D01*
X1041114Y1863286D01*
X1041075Y1862932D01*
Y1862696D01*
Y1862657D01*
Y1862618D01*
X1048542Y1861596D01*
X1048463Y1862460D01*
X1048306Y1863207D01*
X1048149Y1863875D01*
X1047913Y1864386D01*
X1047717Y1864818D01*
X1047520Y1865093D01*
X1047402Y1865290D01*
X1047363Y1865329D01*
X1046931Y1865762D01*
X1046459Y1866076D01*
X1045987Y1866312D01*
X1045516Y1866469D01*
X1045123Y1866547D01*
X1044769Y1866626D01*
D02*
G37*
G36*
X1001185Y1872403D02*
X1000753D01*
X999928Y1872364D01*
X999220Y1872246D01*
X998631Y1872050D01*
X998081Y1871774D01*
X997648Y1871460D01*
X997295Y1871106D01*
X996980Y1870753D01*
X996745Y1870399D01*
X996548Y1870006D01*
X996391Y1869652D01*
X996312Y1869299D01*
X996234Y1868984D01*
X996194Y1868748D01*
X996155Y1868513D01*
Y1868395D01*
Y1868355D01*
X996194Y1867687D01*
X996351Y1867098D01*
X996548Y1866587D01*
X996784Y1866194D01*
X997059Y1865840D01*
X997255Y1865604D01*
X997413Y1865447D01*
X997452Y1865408D01*
X997963Y1865054D01*
X998552Y1864779D01*
X999181Y1864622D01*
X999771Y1864465D01*
X1000321Y1864386D01*
X1000792Y1864347D01*
X1001618D01*
X1002011Y1864386D01*
X1002325D01*
X1002639Y1864425D01*
X1002836Y1864465D01*
X1003033D01*
X1003111Y1864504D01*
X1003150D01*
Y1872050D01*
X1002797Y1872167D01*
X1002443Y1872246D01*
X1002325D01*
X1002207Y1872285D01*
X1002089D01*
X1001578Y1872364D01*
X1001185Y1872403D01*
D02*
G37*
G36*
X1114959Y1872443D02*
X1114487D01*
X1113662Y1872403D01*
X1112994Y1872285D01*
X1112404Y1872167D01*
X1111933Y1872010D01*
X1111579Y1871814D01*
X1111304Y1871696D01*
X1111147Y1871578D01*
X1111108Y1871539D01*
X1110754Y1871185D01*
X1110479Y1870753D01*
X1110282Y1870360D01*
X1110125Y1869927D01*
X1110046Y1869574D01*
X1110007Y1869299D01*
Y1869102D01*
Y1869023D01*
X1110046Y1868395D01*
X1110086Y1868120D01*
X1110164Y1867884D01*
X1110204Y1867687D01*
X1110282Y1867530D01*
X1110322Y1867451D01*
Y1867412D01*
X1110597Y1866940D01*
X1110832Y1866587D01*
X1111068Y1866351D01*
X1111108Y1866312D01*
X1111147Y1866272D01*
X1111579Y1865997D01*
X1111972Y1865840D01*
X1112169Y1865762D01*
X1112286Y1865722D01*
X1112365Y1865683D01*
X1112404D01*
X1112679Y1865604D01*
X1112994Y1865565D01*
X1113623Y1865526D01*
X1113898Y1865486D01*
X1117238D01*
Y1872050D01*
X1116885Y1872167D01*
X1116492Y1872246D01*
X1116334Y1872285D01*
X1116177Y1872325D01*
X1116059D01*
X1115470Y1872403D01*
X1114959Y1872443D01*
D02*
G37*
G36*
X1117238Y1862225D02*
X1113819D01*
X1113426Y1862185D01*
X1113112Y1862146D01*
X1112837D01*
X1112601Y1862107D01*
X1112444Y1862067D01*
X1112365Y1862028D01*
X1112326D01*
X1111815Y1861871D01*
X1111422Y1861674D01*
X1111265Y1861556D01*
X1111147Y1861517D01*
X1111068Y1861438D01*
X1111029D01*
X1110518Y1861045D01*
X1110164Y1860613D01*
X1109889Y1860142D01*
X1109732Y1859631D01*
X1109614Y1859198D01*
X1109575Y1858845D01*
X1109535Y1858609D01*
Y1858570D01*
Y1858530D01*
X1109575Y1857901D01*
X1109732Y1857312D01*
X1110007Y1856840D01*
X1110282Y1856408D01*
X1110675Y1856054D01*
X1111108Y1855779D01*
X1111540Y1855543D01*
X1111972Y1855347D01*
X1112444Y1855190D01*
X1112876Y1855072D01*
X1113308Y1854993D01*
X1113662Y1854915D01*
X1113976D01*
X1114252Y1854875D01*
X1114448D01*
X1114998Y1854915D01*
X1115509Y1854954D01*
X1115706D01*
X1115863Y1854993D01*
X1115981D01*
X1116492Y1855072D01*
X1116885Y1855190D01*
X1117042Y1855229D01*
X1117160D01*
X1117199Y1855268D01*
X1117238D01*
Y1862225D01*
D02*
G37*
G36*
X981968Y1872050D02*
X981064D01*
X980631Y1871971D01*
X980239Y1871892D01*
X979924Y1871814D01*
X979649Y1871735D01*
X979452Y1871657D01*
X979295Y1871617D01*
X979256Y1871578D01*
X978863Y1871381D01*
X978509Y1871146D01*
X978234Y1870910D01*
X977959Y1870674D01*
X977723Y1870438D01*
X977566Y1870242D01*
X977487Y1870124D01*
X977448Y1870084D01*
X977173Y1869691D01*
X976937Y1869259D01*
X976741Y1868788D01*
X976584Y1868395D01*
X976466Y1868002D01*
X976387Y1867726D01*
X976308Y1867530D01*
Y1867451D01*
X976151Y1866823D01*
X976073Y1866194D01*
X975994Y1865565D01*
X975915Y1864976D01*
Y1864465D01*
X975876Y1864032D01*
Y1863875D01*
Y1863796D01*
Y1863718D01*
Y1863679D01*
Y1862853D01*
X975955Y1862146D01*
X975994Y1861478D01*
X976073Y1860928D01*
X976151Y1860456D01*
X976230Y1860102D01*
X976269Y1859906D01*
X976308Y1859827D01*
X976466Y1859277D01*
X976662Y1858766D01*
X976859Y1858334D01*
X977016Y1857941D01*
X977173Y1857626D01*
X977330Y1857430D01*
X977409Y1857273D01*
X977448Y1857233D01*
X977723Y1856880D01*
X978038Y1856565D01*
X978352Y1856330D01*
X978627Y1856094D01*
X978863Y1855937D01*
X979059Y1855819D01*
X979217Y1855779D01*
X979256Y1855740D01*
X979649Y1855583D01*
X980042Y1855465D01*
X980396Y1855386D01*
X980749Y1855347D01*
X981064Y1855308D01*
X981300Y1855268D01*
X982007D01*
X982439Y1855308D01*
X982832Y1855386D01*
X983107Y1855426D01*
X983343Y1855504D01*
X983540Y1855543D01*
X983618Y1855583D01*
X983658D01*
Y1871735D01*
X983343Y1871853D01*
X982990Y1871932D01*
X982282Y1872010D01*
X981968Y1872050D01*
D02*
G37*
G36*
X902896Y1872403D02*
X902739D01*
X902385Y1872364D01*
X902071Y1872324D01*
X901756Y1872207D01*
X901521Y1872089D01*
X901324Y1871971D01*
X901167Y1871892D01*
X901088Y1871814D01*
X901049Y1871774D01*
X900813Y1871499D01*
X900577Y1871224D01*
X900224Y1870635D01*
X900067Y1870360D01*
X899988Y1870163D01*
X899909Y1870006D01*
Y1869966D01*
X899752Y1869534D01*
X899634Y1869063D01*
X899516Y1868591D01*
X899438Y1868159D01*
X899359Y1867805D01*
X899320Y1867491D01*
X899280Y1867294D01*
Y1867216D01*
X899123Y1865997D01*
X899084Y1865408D01*
Y1864858D01*
X899045Y1864386D01*
Y1863993D01*
Y1863757D01*
Y1863718D01*
Y1863678D01*
Y1862971D01*
X899084Y1862303D01*
X899123Y1861714D01*
X899163Y1861203D01*
X899202Y1860770D01*
X899241Y1860417D01*
X899280Y1860220D01*
Y1860141D01*
X899359Y1859591D01*
X899477Y1859041D01*
X899556Y1858570D01*
X899673Y1858177D01*
X899752Y1857862D01*
X899831Y1857587D01*
X899870Y1857430D01*
X899909Y1857390D01*
X900067Y1856997D01*
X900263Y1856644D01*
X900460Y1856329D01*
X900656Y1856094D01*
X900813Y1855897D01*
X900931Y1855740D01*
X901010Y1855661D01*
X901049Y1855622D01*
X901324Y1855426D01*
X901599Y1855268D01*
X901874Y1855150D01*
X902149Y1855072D01*
X902385Y1855033D01*
X902582Y1854993D01*
X902739D01*
X903093Y1855033D01*
X903407Y1855111D01*
X903721Y1855190D01*
X903957Y1855308D01*
X904154Y1855426D01*
X904311Y1855543D01*
X904389Y1855583D01*
X904429Y1855622D01*
X904665Y1855897D01*
X904900Y1856172D01*
X905293Y1856762D01*
X905411Y1856997D01*
X905529Y1857194D01*
X905568Y1857351D01*
X905608Y1857390D01*
X905883Y1858334D01*
X906001Y1858766D01*
X906079Y1859198D01*
X906158Y1859591D01*
X906197Y1859866D01*
X906237Y1860063D01*
Y1860141D01*
X906355Y1861360D01*
X906394Y1861989D01*
Y1862499D01*
X906433Y1862971D01*
Y1863364D01*
Y1863600D01*
Y1863639D01*
Y1863678D01*
Y1864386D01*
X906394Y1865054D01*
X906355Y1865643D01*
X906315Y1866194D01*
Y1866626D01*
X906276Y1866940D01*
X906237Y1867137D01*
Y1867216D01*
X906158Y1867805D01*
X906040Y1868316D01*
X905962Y1868787D01*
X905844Y1869180D01*
X905765Y1869534D01*
X905686Y1869770D01*
X905608Y1869927D01*
Y1869966D01*
X905411Y1870399D01*
X905215Y1870753D01*
X905018Y1871067D01*
X904822Y1871303D01*
X904665Y1871499D01*
X904547Y1871656D01*
X904468Y1871735D01*
X904429Y1871774D01*
X904154Y1871971D01*
X903879Y1872128D01*
X903564Y1872246D01*
X903328Y1872324D01*
X903093Y1872364D01*
X902896Y1872403D01*
D02*
G37*
G36*
X1132919Y1829330D02*
X1132723D01*
Y1823946D01*
X1133037Y1823828D01*
X1133391Y1823750D01*
X1133548Y1823710D01*
X1133705D01*
X1133784Y1823671D01*
X1133823D01*
X1134334Y1823632D01*
X1134805Y1823593D01*
X1135238D01*
X1135867Y1823632D01*
X1136417Y1823710D01*
X1136888Y1823789D01*
X1137281Y1823946D01*
X1137596Y1824064D01*
X1137792Y1824143D01*
X1137949Y1824221D01*
X1137989Y1824261D01*
X1138303Y1824536D01*
X1138500Y1824850D01*
X1138657Y1825204D01*
X1138775Y1825518D01*
X1138853Y1825793D01*
X1138893Y1826029D01*
Y1826186D01*
Y1826226D01*
X1138853Y1826579D01*
X1138814Y1826894D01*
X1138735Y1827169D01*
X1138618Y1827365D01*
X1138539Y1827562D01*
X1138460Y1827680D01*
X1138421Y1827758D01*
X1138382Y1827798D01*
X1137949Y1828191D01*
X1137517Y1828466D01*
X1137321Y1828584D01*
X1137163Y1828662D01*
X1137085Y1828702D01*
X1137045D01*
X1136377Y1828937D01*
X1135788Y1829055D01*
X1135513Y1829095D01*
X1135316Y1829134D01*
X1135120D01*
X1134255Y1829213D01*
X1133862Y1829252D01*
X1133508Y1829291D01*
X1133194D01*
X1132919Y1829330D01*
D02*
G37*
G36*
X1095781Y1840649D02*
X1095702D01*
Y1840531D01*
Y1840413D01*
Y1840020D01*
X1095741Y1839863D01*
Y1839706D01*
Y1839588D01*
Y1839548D01*
X1095781Y1838880D01*
Y1838527D01*
Y1838212D01*
Y1837937D01*
Y1837741D01*
Y1837583D01*
Y1837544D01*
Y1829881D01*
X1102697D01*
X1097313Y1837937D01*
X1097156Y1838173D01*
X1096999Y1838409D01*
X1096920Y1838566D01*
X1096881Y1838645D01*
X1096724Y1838959D01*
X1096566Y1839234D01*
X1096449Y1839391D01*
X1096409Y1839470D01*
X1096252Y1839745D01*
X1096134Y1839981D01*
X1096056Y1840138D01*
X1096016Y1840177D01*
X1095898Y1840374D01*
X1095820Y1840531D01*
X1095781Y1840610D01*
Y1840649D01*
D02*
G37*
G36*
X1116570Y1835304D02*
X1115941D01*
X1115548Y1835265D01*
X1115430Y1835225D01*
X1115313D01*
X1115234Y1835186D01*
X1115195D01*
X1114802Y1835108D01*
X1114487Y1835029D01*
X1114330Y1834990D01*
X1114291Y1834950D01*
Y1824261D01*
X1114566Y1824143D01*
X1114841Y1824064D01*
X1115077Y1824025D01*
X1115155Y1823986D01*
X1115195D01*
X1115627Y1823946D01*
X1116020Y1823907D01*
X1116374D01*
X1117081Y1823986D01*
X1117749Y1824143D01*
X1118260Y1824379D01*
X1118732Y1824654D01*
X1119085Y1824929D01*
X1119361Y1825165D01*
X1119518Y1825322D01*
X1119557Y1825400D01*
X1119911Y1826029D01*
X1120186Y1826697D01*
X1120382Y1827405D01*
X1120500Y1828073D01*
X1120579Y1828662D01*
X1120618Y1828937D01*
X1120657Y1829173D01*
Y1829330D01*
Y1829488D01*
Y1829566D01*
Y1829605D01*
X1120618Y1830509D01*
X1120500Y1831295D01*
X1120304Y1832003D01*
X1120107Y1832592D01*
X1119911Y1833064D01*
X1119714Y1833418D01*
X1119596Y1833614D01*
X1119557Y1833693D01*
X1119085Y1834243D01*
X1118574Y1834636D01*
X1118064Y1834911D01*
X1117553Y1835108D01*
X1117081Y1835225D01*
X1116727Y1835265D01*
X1116570Y1835304D01*
D02*
G37*
G36*
X1011168Y1841435D02*
X1011010D01*
X1010657Y1841396D01*
X1010342Y1841356D01*
X1010028Y1841238D01*
X1009792Y1841120D01*
X1009596Y1841003D01*
X1009438Y1840924D01*
X1009360Y1840845D01*
X1009321Y1840806D01*
X1009085Y1840531D01*
X1008849Y1840256D01*
X1008495Y1839666D01*
X1008338Y1839391D01*
X1008259Y1839195D01*
X1008181Y1839037D01*
Y1838998D01*
X1008024Y1838566D01*
X1007906Y1838094D01*
X1007788Y1837623D01*
X1007709Y1837190D01*
X1007631Y1836837D01*
X1007591Y1836522D01*
X1007552Y1836326D01*
Y1836247D01*
X1007395Y1835029D01*
X1007356Y1834439D01*
Y1833889D01*
X1007316Y1833418D01*
Y1833025D01*
Y1832789D01*
Y1832749D01*
Y1832710D01*
Y1832003D01*
X1007356Y1831335D01*
X1007395Y1830745D01*
X1007434Y1830234D01*
X1007473Y1829802D01*
X1007513Y1829448D01*
X1007552Y1829252D01*
Y1829173D01*
X1007631Y1828623D01*
X1007749Y1828073D01*
X1007827Y1827601D01*
X1007945Y1827208D01*
X1008024Y1826894D01*
X1008102Y1826619D01*
X1008141Y1826461D01*
X1008181Y1826422D01*
X1008338Y1826029D01*
X1008534Y1825676D01*
X1008731Y1825361D01*
X1008928Y1825125D01*
X1009085Y1824929D01*
X1009203Y1824772D01*
X1009281Y1824693D01*
X1009321Y1824654D01*
X1009596Y1824457D01*
X1009871Y1824300D01*
X1010146Y1824182D01*
X1010421Y1824103D01*
X1010657Y1824064D01*
X1010853Y1824025D01*
X1011010D01*
X1011364Y1824064D01*
X1011678Y1824143D01*
X1011993Y1824221D01*
X1012229Y1824339D01*
X1012425Y1824457D01*
X1012582Y1824575D01*
X1012661Y1824614D01*
X1012700Y1824654D01*
X1012936Y1824929D01*
X1013172Y1825204D01*
X1013565Y1825793D01*
X1013683Y1826029D01*
X1013801Y1826226D01*
X1013840Y1826383D01*
X1013879Y1826422D01*
X1014154Y1827365D01*
X1014272Y1827798D01*
X1014351Y1828230D01*
X1014429Y1828623D01*
X1014469Y1828898D01*
X1014508Y1829095D01*
Y1829173D01*
X1014626Y1830391D01*
X1014665Y1831020D01*
Y1831531D01*
X1014705Y1832003D01*
Y1832396D01*
Y1832632D01*
Y1832671D01*
Y1832710D01*
Y1833418D01*
X1014665Y1834086D01*
X1014626Y1834675D01*
X1014587Y1835225D01*
Y1835658D01*
X1014547Y1835972D01*
X1014508Y1836169D01*
Y1836247D01*
X1014429Y1836837D01*
X1014312Y1837348D01*
X1014233Y1837819D01*
X1014115Y1838212D01*
X1014037Y1838566D01*
X1013958Y1838802D01*
X1013879Y1838959D01*
Y1838998D01*
X1013683Y1839430D01*
X1013486Y1839784D01*
X1013290Y1840099D01*
X1013093Y1840334D01*
X1012936Y1840531D01*
X1012818Y1840688D01*
X1012740Y1840767D01*
X1012700Y1840806D01*
X1012425Y1841003D01*
X1012150Y1841160D01*
X1011836Y1841278D01*
X1011600Y1841356D01*
X1011364Y1841396D01*
X1011168Y1841435D01*
D02*
G37*
G36*
X800075Y1478100D02*
X790275D01*
X789125Y1478050D01*
X788075Y1477850D01*
X787225Y1477600D01*
X786525Y1477300D01*
X785975Y1476950D01*
X785575Y1476700D01*
X785375Y1476500D01*
X785275Y1476450D01*
X784725Y1475800D01*
X784275Y1475050D01*
X783975Y1474300D01*
X783775Y1473550D01*
X783675Y1472900D01*
X783575Y1472400D01*
Y1472200D01*
Y1472050D01*
Y1471950D01*
Y1471900D01*
X783625Y1471200D01*
X783725Y1470500D01*
X783875Y1469900D01*
X784025Y1469400D01*
X784175Y1469000D01*
X784325Y1468650D01*
X784425Y1468450D01*
X784475Y1468400D01*
X784825Y1467900D01*
X785225Y1467450D01*
X785625Y1467050D01*
X786025Y1466750D01*
X786375Y1466500D01*
X786625Y1466350D01*
X786825Y1466250D01*
X786875Y1466200D01*
X787475Y1466000D01*
X788175Y1465850D01*
X788925Y1465700D01*
X789625Y1465650D01*
X790275Y1465600D01*
X790775Y1465550D01*
X800075D01*
Y1478100D01*
D02*
G37*
G36*
X799900Y1536830D02*
X790100D01*
X788950Y1536780D01*
X787900Y1536580D01*
X787050Y1536330D01*
X786350Y1536030D01*
X785800Y1535680D01*
X785400Y1535430D01*
X785200Y1535230D01*
X785100Y1535180D01*
X784550Y1534530D01*
X784100Y1533780D01*
X783800Y1533030D01*
X783600Y1532280D01*
X783500Y1531630D01*
X783400Y1531130D01*
Y1530930D01*
Y1530780D01*
Y1530680D01*
Y1530630D01*
X783450Y1529930D01*
X783550Y1529230D01*
X783700Y1528630D01*
X783850Y1528130D01*
X784000Y1527730D01*
X784150Y1527380D01*
X784250Y1527180D01*
X784300Y1527130D01*
X784650Y1526630D01*
X785050Y1526180D01*
X785450Y1525780D01*
X785850Y1525480D01*
X786200Y1525230D01*
X786450Y1525080D01*
X786650Y1524980D01*
X786700Y1524930D01*
X787300Y1524730D01*
X788000Y1524580D01*
X788750Y1524430D01*
X789450Y1524380D01*
X790100Y1524330D01*
X790600Y1524280D01*
X799900D01*
Y1536830D01*
D02*
G37*
G36*
X762000Y1533530D02*
Y1516480D01*
X771800D01*
X762000Y1533530D01*
D02*
G37*
%LPD*%
D76*
X1511811Y641378D02*
G03*
X1511811Y641378I-4921J0D01*
G01*
X292294Y756466D02*
G03*
X292294Y756466I-4921J0D01*
G01*
X961585Y766308D02*
G03*
X961585Y766308I-4921J0D01*
G01*
X768672Y526151D02*
G03*
X768672Y526151I-4921J0D01*
G01*
X136165Y955866D02*
G03*
X136165Y955866I-4921J0D01*
G01*
X69853Y445442D02*
G03*
X69853Y445442I-4921J0D01*
G01*
X260798Y329300D02*
G03*
X260798Y329300I-4921J0D01*
G01*
X1586585Y1211190D02*
G03*
X1586585Y1211190I-4921J0D01*
G01*
D77*
X1141732Y1095204D02*
G03*
X1023622Y1213314I-118110J0D01*
G01*
X785138D02*
G03*
X737115Y1196974I0J-78740D01*
G01*
X1023622Y977094D02*
G03*
X1141732Y1095204I0J118110D01*
G01*
X793596Y977094D02*
G03*
X715622Y909312I0J-78740D01*
G01*
X529090Y1036878D02*
G03*
X484164Y959716I72035J-93600D01*
G01*
X434851Y608833D02*
G03*
X668772Y575958I116961J-16438D01*
G01*
X993073Y1213314D02*
X1138524Y1067863D01*
X936504Y1213314D02*
X1121185Y1028634D01*
X879936Y1213314D02*
X1093366Y999884D01*
X823367Y1213314D02*
X1055269Y981413D01*
X1053476Y1209479D02*
X1137897Y1125059D01*
X1037756Y977942D02*
X1140883Y1081070D01*
X785138Y1213314D02*
X1023622D01*
X768563Y1211550D02*
X1003019Y977094D01*
X731156Y1192388D02*
X946451Y977094D01*
X699189Y1167787D02*
X889882Y977094D01*
X793596D02*
X1023622D01*
X667222Y1143185D02*
X833313Y977094D01*
X923770D02*
X1115767Y1169091D01*
X923770Y977094D02*
X1115767Y1169091D01*
X810633Y977094D02*
X1044918Y1211379D01*
X867202Y977094D02*
X1085757Y1195649D01*
X980339Y977094D02*
X1135703Y1132458D01*
X635255Y1118583D02*
X778254Y975585D01*
X603289Y1093982D02*
X740642Y956628D01*
X571322Y1069380D02*
X718541Y922161D01*
X668772Y575958D02*
X715622Y909312D01*
X601739Y485357D02*
X658850Y542468D01*
X571322Y1069380D02*
X718541Y922160D01*
X470621Y863356D02*
X820580Y1213314D01*
X461371Y797537D02*
X877148Y1213314D01*
X452121Y731718D02*
X933717Y1213314D01*
X442871Y665900D02*
X990285Y1213314D01*
X529090Y1036878D02*
X737115Y1196974D01*
X539355Y1044778D02*
X710594Y873538D01*
X479872Y929175D02*
X759835Y1209138D01*
X502710Y1008581D02*
X537409Y1043281D01*
X509614Y1017950D02*
X703624Y823940D01*
X489402Y981594D02*
X696653Y774342D01*
X480535Y933893D02*
X689683Y724745D01*
X473564Y884295D02*
X682712Y675146D01*
X466594Y834697D02*
X675742Y625549D01*
X462168Y515492D02*
X692669Y745992D01*
X462168Y515492D02*
X692669Y745992D01*
X433975Y600436D02*
X711169Y877630D01*
X441170Y551062D02*
X701919Y811811D01*
X493136Y489891D02*
X683419Y680174D01*
X535264Y475450D02*
X674168Y614355D01*
X459623Y785099D02*
X668771Y575951D01*
X452652Y735501D02*
X654359Y533794D01*
X434851Y608833D02*
X484164Y959716D01*
X445682Y685903D02*
X628778Y502807D01*
X438711Y636305D02*
X593230Y481786D01*
X433967Y584481D02*
X543897Y474551D01*
D78*
X817000Y1554000D02*
X939000D01*
Y1431000D02*
Y1554000D01*
X817000Y1431000D02*
X939000D01*
X817000D02*
Y1554000D01*
X207192Y289458D02*
Y329458D01*
X57192Y289458D02*
Y329458D01*
X118081Y457253D02*
Y579300D01*
X106270Y457253D02*
Y579300D01*
X118081D01*
X106270Y457253D02*
X118081D01*
X309192Y165458D02*
X349192Y165458D01*
X309192Y15458D02*
X349192Y15458D01*
X267688Y276151D02*
X389735D01*
X267688Y287962D02*
X389735D01*
Y276151D02*
Y287962D01*
X267688Y276151D02*
Y287962D01*
X1537373Y1000560D02*
Y1197411D01*
X1403514Y1000560D02*
Y1197411D01*
X1537373D01*
X1403514Y1000560D02*
X1537373D01*
X1273400Y1525214D02*
X1308755Y1489858D01*
X1466880Y1718694D02*
X1511701Y1763513D01*
X1358586Y1610401D02*
X1411480Y1663294D01*
X1273400Y1525214D02*
X1286206Y1538020D01*
X1511701Y1763513D02*
X1751113Y1524101D01*
X1512813Y1285800D02*
X1525619Y1298606D01*
X1598001Y1370987D02*
X1650894Y1423881D01*
X1706293Y1479280D02*
X1751113Y1524101D01*
X1477458Y1321155D02*
X1512813Y1285800D01*
D79*
X399332Y1096693D02*
X434687Y1061338D01*
X498326Y1195688D02*
X533682Y1160333D01*
X484184Y1068409D02*
X526611Y1110835D01*
X406402Y1146191D02*
X448829Y1188617D01*
%TF.MD5,1021b3414e552a7592e10a08b206c020*%
M02*
