%TF.GenerationSoftware,Altium Limited,Altium Designer,23.4.1 (23)*%
G04 Layer_Color=32896*
%FSLAX26Y26*%
%MOIN*%
%TF.SameCoordinates,059DD823-1BA3-4B86-995A-778C5C10D4F7*%
%TF.FilePolarity,Positive*%
%TF.FileFunction,Legend,Bot*%
%TF.Part,CustomerPanel*%
G01*
G75*
%TA.AperFunction,NonConductor*%
%ADD79C,0.008000*%
%ADD80C,0.009842*%
%ADD81C,0.007874*%
%ADD82C,0.003937*%
G36*
X1265456Y1585393D02*
X1272333Y1573092D01*
X1267224D01*
X1262705Y1581738D01*
X1262665D01*
X1258185Y1573092D01*
X1253076D01*
X1259954Y1585393D01*
X1253587Y1596869D01*
X1258657D01*
X1262665Y1589087D01*
X1262705D01*
X1266752Y1596869D01*
X1271822D01*
X1265456Y1585393D01*
D02*
G37*
G36*
X1288289Y1593017D02*
X1283219D01*
Y1573092D01*
X1278582D01*
Y1593017D01*
X1273591D01*
Y1596869D01*
X1288289D01*
Y1593017D01*
D02*
G37*
G36*
X1225566Y1573092D02*
X1212911D01*
Y1576944D01*
X1221046D01*
Y1583232D01*
X1213697D01*
Y1587044D01*
X1221046D01*
Y1593017D01*
X1212911D01*
Y1596869D01*
X1225566D01*
Y1573092D01*
D02*
G37*
G36*
X1209217D02*
X1197191D01*
Y1576944D01*
X1204580D01*
Y1596869D01*
X1209217D01*
Y1573092D01*
D02*
G37*
G36*
X1236059Y1597262D02*
X1236688Y1597222D01*
X1237238Y1597144D01*
X1237710Y1597065D01*
X1238103Y1596947D01*
X1238378Y1596869D01*
X1238574Y1596829D01*
X1238653Y1596790D01*
X1239164Y1596593D01*
X1239635Y1596358D01*
X1240028Y1596122D01*
X1240382Y1595886D01*
X1240697Y1595650D01*
X1240893Y1595493D01*
X1241050Y1595375D01*
X1241090Y1595336D01*
X1241443Y1594982D01*
X1241758Y1594629D01*
X1241993Y1594236D01*
X1242229Y1593882D01*
X1242386Y1593607D01*
X1242504Y1593371D01*
X1242583Y1593174D01*
X1242622Y1593135D01*
X1242819Y1592624D01*
X1242937Y1592153D01*
X1243054Y1591642D01*
X1243094Y1591209D01*
X1243133Y1590816D01*
X1243172Y1590502D01*
Y1590305D01*
Y1590227D01*
X1243133Y1589598D01*
X1243054Y1589009D01*
X1242976Y1588498D01*
X1242819Y1588065D01*
X1242701Y1587712D01*
X1242622Y1587476D01*
X1242544Y1587279D01*
X1242504Y1587240D01*
X1242229Y1586808D01*
X1241915Y1586415D01*
X1241640Y1586100D01*
X1241365Y1585786D01*
X1241129Y1585550D01*
X1240932Y1585393D01*
X1240814Y1585275D01*
X1240775Y1585236D01*
X1239989Y1584686D01*
X1239635Y1584410D01*
X1239282Y1584214D01*
X1239007Y1584057D01*
X1238771Y1583939D01*
X1238614Y1583860D01*
X1238574Y1583821D01*
X1237710Y1583428D01*
X1237317Y1583232D01*
X1237002Y1583035D01*
X1236727Y1582917D01*
X1236531Y1582799D01*
X1236373Y1582721D01*
X1236334Y1582681D01*
X1235980Y1582485D01*
X1235627Y1582249D01*
X1235352Y1582053D01*
X1235116Y1581856D01*
X1234919Y1581659D01*
X1234762Y1581542D01*
X1234684Y1581463D01*
X1234644Y1581424D01*
X1234409Y1581149D01*
X1234251Y1580873D01*
X1234094Y1580598D01*
X1234015Y1580323D01*
X1233976Y1580088D01*
X1233937Y1579891D01*
Y1579773D01*
Y1579734D01*
X1233976Y1579262D01*
X1234094Y1578869D01*
X1234251Y1578515D01*
X1234409Y1578201D01*
X1234605Y1577965D01*
X1234762Y1577808D01*
X1234880Y1577690D01*
X1234919Y1577651D01*
X1235312Y1577376D01*
X1235745Y1577179D01*
X1236177Y1577061D01*
X1236570Y1576983D01*
X1236963Y1576904D01*
X1237277Y1576865D01*
X1237553D01*
X1238378Y1576904D01*
X1238771Y1576983D01*
X1239124Y1577022D01*
X1239400Y1577101D01*
X1239635Y1577140D01*
X1239793Y1577179D01*
X1239832D01*
X1240618Y1577454D01*
X1240972Y1577572D01*
X1241286Y1577690D01*
X1241561Y1577808D01*
X1241758Y1577887D01*
X1241876Y1577965D01*
X1241915D01*
X1243447Y1573957D01*
X1242426Y1573524D01*
X1241915Y1573367D01*
X1241483Y1573249D01*
X1241090Y1573131D01*
X1240814Y1573053D01*
X1240618Y1573014D01*
X1240539D01*
X1239360Y1572817D01*
X1238810Y1572778D01*
X1238339Y1572738D01*
X1237906Y1572699D01*
X1237317D01*
X1236609Y1572738D01*
X1235980Y1572778D01*
X1235391Y1572856D01*
X1234880Y1572974D01*
X1234487Y1573053D01*
X1234173Y1573131D01*
X1233976Y1573171D01*
X1233898Y1573210D01*
X1233347Y1573407D01*
X1232836Y1573642D01*
X1232404Y1573917D01*
X1232051Y1574153D01*
X1231736Y1574350D01*
X1231540Y1574546D01*
X1231382Y1574664D01*
X1231343Y1574703D01*
X1230950Y1575096D01*
X1230636Y1575489D01*
X1230361Y1575843D01*
X1230125Y1576197D01*
X1229968Y1576511D01*
X1229850Y1576747D01*
X1229771Y1576944D01*
X1229732Y1576983D01*
X1229535Y1577494D01*
X1229417Y1578005D01*
X1229300Y1578515D01*
X1229260Y1578987D01*
X1229221Y1579380D01*
X1229182Y1579695D01*
Y1579891D01*
Y1579970D01*
X1229221Y1580598D01*
X1229300Y1581188D01*
X1229417Y1581699D01*
X1229535Y1582092D01*
X1229653Y1582446D01*
X1229771Y1582721D01*
X1229850Y1582878D01*
X1229889Y1582917D01*
X1230164Y1583349D01*
X1230439Y1583742D01*
X1230714Y1584057D01*
X1230989Y1584371D01*
X1231264Y1584607D01*
X1231422Y1584764D01*
X1231579Y1584882D01*
X1231618Y1584921D01*
X1232404Y1585511D01*
X1232758Y1585747D01*
X1233112Y1585983D01*
X1233426Y1586140D01*
X1233662Y1586258D01*
X1233819Y1586336D01*
X1233858Y1586376D01*
X1234723Y1586808D01*
X1235116Y1587004D01*
X1235470Y1587201D01*
X1235745Y1587319D01*
X1235941Y1587437D01*
X1236098Y1587515D01*
X1236138Y1587554D01*
X1236845Y1587987D01*
X1237120Y1588223D01*
X1237395Y1588419D01*
X1237592Y1588576D01*
X1237749Y1588694D01*
X1237828Y1588773D01*
X1237867Y1588812D01*
X1238103Y1589087D01*
X1238260Y1589362D01*
X1238378Y1589637D01*
X1238456Y1589912D01*
X1238496Y1590148D01*
X1238535Y1590345D01*
Y1590463D01*
Y1590502D01*
X1238496Y1590934D01*
X1238417Y1591367D01*
X1238260Y1591681D01*
X1238103Y1591995D01*
X1237946Y1592192D01*
X1237788Y1592388D01*
X1237710Y1592467D01*
X1237670Y1592506D01*
X1237317Y1592781D01*
X1236924Y1592978D01*
X1236491Y1593096D01*
X1236098Y1593214D01*
X1235784Y1593253D01*
X1235470Y1593292D01*
X1235234D01*
X1234448Y1593253D01*
X1234094Y1593214D01*
X1233780Y1593174D01*
X1233505Y1593096D01*
X1233308Y1593056D01*
X1233190Y1593017D01*
X1233151D01*
X1232444Y1592781D01*
X1232129Y1592664D01*
X1231893Y1592546D01*
X1231658Y1592428D01*
X1231500Y1592349D01*
X1231382Y1592310D01*
X1231343Y1592271D01*
X1229889Y1596004D01*
X1230754Y1596436D01*
X1231186Y1596593D01*
X1231579Y1596711D01*
X1231893Y1596829D01*
X1232168Y1596908D01*
X1232326Y1596947D01*
X1232404D01*
X1233465Y1597144D01*
X1233976Y1597222D01*
X1234448Y1597262D01*
X1234841Y1597301D01*
X1235430D01*
X1236059Y1597262D01*
D02*
G37*
G36*
X1534323Y1851771D02*
X1529882D01*
Y1865604D01*
X1529449Y1865801D01*
X1529056Y1865958D01*
X1528899Y1865997D01*
X1528781Y1866037D01*
X1528703Y1866076D01*
X1528663D01*
X1528152Y1866194D01*
X1527720Y1866233D01*
X1527524Y1866272D01*
X1527288D01*
X1526738Y1866233D01*
X1526266Y1866155D01*
X1525873Y1866037D01*
X1525519Y1865919D01*
X1525284Y1865762D01*
X1525087Y1865644D01*
X1524969Y1865565D01*
X1524930Y1865526D01*
X1524655Y1865211D01*
X1524419Y1864897D01*
X1524262Y1864504D01*
X1524183Y1864150D01*
X1524105Y1863836D01*
X1524065Y1863561D01*
Y1863403D01*
Y1863325D01*
Y1851771D01*
X1519585D01*
Y1863796D01*
Y1864307D01*
X1519664Y1864818D01*
X1519860Y1865722D01*
X1520135Y1866469D01*
X1520450Y1867098D01*
X1520764Y1867609D01*
X1521039Y1867962D01*
X1521236Y1868159D01*
X1521275Y1868237D01*
X1521314D01*
X1522022Y1868748D01*
X1522768Y1869141D01*
X1523594Y1869416D01*
X1524380Y1869574D01*
X1525048Y1869691D01*
X1525362Y1869731D01*
X1525637D01*
X1525834Y1869770D01*
X1526148D01*
X1526856Y1869731D01*
X1527209Y1869691D01*
X1527484Y1869652D01*
X1527759Y1869613D01*
X1527956Y1869574D01*
X1528074Y1869534D01*
X1528113D01*
X1528821Y1869338D01*
X1529096Y1869259D01*
X1529371Y1869141D01*
X1529567Y1869063D01*
X1529725Y1869023D01*
X1529842Y1868945D01*
X1529882D01*
Y1877591D01*
X1534323D01*
Y1851771D01*
D02*
G37*
G36*
X1324618Y1875075D02*
X1325129Y1874722D01*
X1325325Y1874565D01*
X1325482Y1874447D01*
X1325600Y1874368D01*
X1325640Y1874329D01*
X1326308Y1873897D01*
X1326661Y1873739D01*
X1326976Y1873582D01*
X1327212Y1873464D01*
X1327408Y1873346D01*
X1327565Y1873307D01*
X1327605Y1873268D01*
X1328391Y1872953D01*
X1328784Y1872835D01*
X1329137Y1872717D01*
X1329452Y1872600D01*
X1329688Y1872560D01*
X1329845Y1872482D01*
X1329884D01*
X1330749Y1872285D01*
X1331142Y1872167D01*
X1331495Y1872128D01*
X1331810Y1872049D01*
X1332045Y1872010D01*
X1332203Y1871971D01*
X1332242D01*
X1331574Y1868552D01*
X1330945Y1868670D01*
X1330395Y1868787D01*
X1330159Y1868827D01*
X1330002Y1868866D01*
X1329884Y1868905D01*
X1329845D01*
X1329177Y1869063D01*
X1328901Y1869141D01*
X1328626Y1869180D01*
X1328430Y1869259D01*
X1328273Y1869298D01*
X1328155Y1869338D01*
X1328116D01*
X1327487Y1869534D01*
X1327212Y1869613D01*
X1326976Y1869691D01*
X1326740Y1869770D01*
X1326583Y1869849D01*
X1326504Y1869888D01*
X1326465D01*
X1325915Y1870124D01*
X1325482Y1870320D01*
X1325325Y1870399D01*
X1325207Y1870477D01*
X1325168Y1870517D01*
X1325129D01*
Y1851771D01*
X1320570D01*
Y1875547D01*
X1324146D01*
X1324618Y1875075D01*
D02*
G37*
G36*
X1567492Y1869809D02*
X1568121Y1869770D01*
X1568671Y1869691D01*
X1569142Y1869613D01*
X1569496Y1869534D01*
X1569732Y1869495D01*
X1569771Y1869456D01*
X1569811D01*
X1570439Y1869299D01*
X1570989Y1869141D01*
X1571500Y1869023D01*
X1571893Y1868866D01*
X1572247Y1868748D01*
X1572483Y1868670D01*
X1572640Y1868630D01*
X1572679Y1868591D01*
X1571579Y1865565D01*
X1571225Y1865722D01*
X1570872Y1865801D01*
X1570597Y1865879D01*
X1570557Y1865919D01*
X1570518D01*
X1570046Y1866076D01*
X1569653Y1866155D01*
X1569496Y1866233D01*
X1569378D01*
X1569300Y1866272D01*
X1569260D01*
X1568749Y1866390D01*
X1568356Y1866469D01*
X1568160D01*
X1568042Y1866508D01*
X1567924D01*
X1567413Y1866587D01*
X1566981Y1866626D01*
X1566588D01*
X1566038Y1866587D01*
X1565566Y1866547D01*
X1565173Y1866430D01*
X1564819Y1866351D01*
X1564544Y1866233D01*
X1564348Y1866115D01*
X1564230Y1866076D01*
X1564191Y1866037D01*
X1563876Y1865801D01*
X1563680Y1865486D01*
X1563523Y1865172D01*
X1563405Y1864858D01*
X1563326Y1864543D01*
X1563287Y1864307D01*
Y1864150D01*
Y1864072D01*
Y1863168D01*
X1564033Y1863128D01*
X1564741Y1863050D01*
X1565409Y1862971D01*
X1565998Y1862893D01*
X1566470Y1862853D01*
X1566863Y1862775D01*
X1567099Y1862735D01*
X1567177D01*
X1567845Y1862618D01*
X1568474Y1862460D01*
X1569024Y1862303D01*
X1569535Y1862146D01*
X1569928Y1862028D01*
X1570204Y1861910D01*
X1570400Y1861832D01*
X1570479Y1861792D01*
X1570989Y1861556D01*
X1571461Y1861242D01*
X1571854Y1860967D01*
X1572168Y1860692D01*
X1572444Y1860417D01*
X1572640Y1860220D01*
X1572758Y1860063D01*
X1572797Y1860024D01*
X1573072Y1859552D01*
X1573308Y1859081D01*
X1573465Y1858609D01*
X1573544Y1858137D01*
X1573623Y1857705D01*
X1573662Y1857391D01*
Y1857155D01*
Y1857116D01*
Y1857076D01*
X1573623Y1856565D01*
X1573583Y1856133D01*
X1573348Y1855268D01*
X1573033Y1854561D01*
X1572679Y1853972D01*
X1572326Y1853500D01*
X1572011Y1853146D01*
X1571775Y1852950D01*
X1571736Y1852871D01*
X1571697D01*
X1571304Y1852596D01*
X1570872Y1852360D01*
X1569928Y1852006D01*
X1568907Y1851731D01*
X1567924Y1851574D01*
X1567492Y1851496D01*
X1567060Y1851456D01*
X1566667Y1851417D01*
X1566352D01*
X1566077Y1851378D01*
X1564937D01*
X1564230Y1851456D01*
X1563601Y1851496D01*
X1563012Y1851574D01*
X1562540Y1851653D01*
X1562186Y1851692D01*
X1561950Y1851771D01*
X1561872D01*
X1561204Y1851928D01*
X1560654Y1852046D01*
X1560182Y1852203D01*
X1559750Y1852321D01*
X1559435Y1852439D01*
X1559239Y1852557D01*
X1559082Y1852596D01*
X1559042Y1852635D01*
Y1863561D01*
Y1864189D01*
X1559121Y1864740D01*
X1559199Y1865251D01*
X1559317Y1865762D01*
X1559475Y1866194D01*
X1559632Y1866587D01*
X1559789Y1866940D01*
X1559946Y1867255D01*
X1560143Y1867530D01*
X1560300Y1867766D01*
X1560614Y1868120D01*
X1560811Y1868316D01*
X1560850Y1868395D01*
X1560889D01*
X1561636Y1868906D01*
X1562501Y1869259D01*
X1563365Y1869534D01*
X1564191Y1869691D01*
X1564937Y1869809D01*
X1565291Y1869849D01*
X1565566D01*
X1565802Y1869888D01*
X1566824D01*
X1567492Y1869809D01*
D02*
G37*
G36*
X1414890Y1860535D02*
X1405458D01*
Y1864347D01*
X1414890D01*
Y1860535D01*
D02*
G37*
G36*
X1347530Y1851771D02*
X1342617D01*
X1335307Y1875547D01*
X1340338Y1875547D01*
X1344346Y1860063D01*
X1344543Y1859277D01*
X1344621Y1858923D01*
X1344700Y1858609D01*
X1344739Y1858334D01*
X1344779Y1858137D01*
X1344818Y1858019D01*
Y1857980D01*
X1344857Y1857666D01*
X1344936Y1857391D01*
X1344975Y1857155D01*
Y1856958D01*
X1345014Y1856801D01*
X1345054Y1856723D01*
Y1856683D01*
Y1856644D01*
X1345132D01*
X1345172Y1856801D01*
X1345211Y1856998D01*
X1345250Y1857155D01*
Y1857194D01*
X1345290Y1857508D01*
X1345329Y1857784D01*
X1345368Y1857980D01*
Y1858019D01*
Y1858059D01*
X1345447Y1858412D01*
X1345486Y1858727D01*
X1345525Y1858963D01*
X1345565Y1859002D01*
Y1859041D01*
X1345643Y1859434D01*
X1345722Y1859749D01*
X1345761Y1859984D01*
X1345801Y1860024D01*
Y1860063D01*
X1349809Y1875547D01*
X1354840D01*
X1347530Y1851771D01*
D02*
G37*
G36*
X1602390Y1873425D02*
Y1869495D01*
X1604670D01*
Y1866115D01*
X1602390D01*
Y1857076D01*
X1602351Y1856094D01*
X1602194Y1855268D01*
X1601997Y1854522D01*
X1601761Y1853932D01*
X1601565Y1853500D01*
X1601368Y1853186D01*
X1601211Y1852989D01*
X1601172Y1852910D01*
X1600661Y1852439D01*
X1600072Y1852124D01*
X1599443Y1851889D01*
X1598814Y1851692D01*
X1598224Y1851613D01*
X1597792Y1851574D01*
X1597596Y1851535D01*
X1597360D01*
X1596770Y1851574D01*
X1596299Y1851613D01*
X1596102D01*
X1595945Y1851653D01*
X1595827D01*
X1595316Y1851771D01*
X1594963Y1851849D01*
X1594766Y1851928D01*
X1594687Y1851967D01*
Y1855701D01*
X1594845Y1855622D01*
X1595041Y1855543D01*
X1595159Y1855504D01*
X1595238D01*
X1595513Y1855465D01*
X1595709Y1855426D01*
X1595945D01*
X1596259Y1855465D01*
X1596534Y1855504D01*
X1596770Y1855583D01*
X1597006Y1855661D01*
X1597163Y1855740D01*
X1597281Y1855779D01*
X1597360Y1855858D01*
X1597399D01*
X1597596Y1856054D01*
X1597753Y1856290D01*
X1597831Y1856526D01*
X1597910Y1856801D01*
X1597949Y1857037D01*
X1597989Y1857194D01*
Y1857351D01*
Y1857391D01*
Y1866115D01*
X1594687D01*
Y1869495D01*
X1597989D01*
Y1874722D01*
X1602390Y1873425D01*
D02*
G37*
G36*
X1545248D02*
Y1869495D01*
X1547527D01*
Y1866115D01*
X1545248D01*
Y1857076D01*
X1545209Y1856094D01*
X1545052Y1855268D01*
X1544855Y1854522D01*
X1544619Y1853932D01*
X1544423Y1853500D01*
X1544226Y1853186D01*
X1544069Y1852989D01*
X1544030Y1852910D01*
X1543519Y1852439D01*
X1542929Y1852124D01*
X1542301Y1851889D01*
X1541672Y1851692D01*
X1541082Y1851613D01*
X1540650Y1851574D01*
X1540453Y1851535D01*
X1540218D01*
X1539628Y1851574D01*
X1539157Y1851613D01*
X1538960D01*
X1538803Y1851653D01*
X1538685D01*
X1538174Y1851771D01*
X1537820Y1851849D01*
X1537624Y1851928D01*
X1537545Y1851967D01*
Y1855701D01*
X1537702Y1855622D01*
X1537899Y1855543D01*
X1538017Y1855504D01*
X1538095D01*
X1538370Y1855465D01*
X1538567Y1855426D01*
X1538803D01*
X1539117Y1855465D01*
X1539392Y1855504D01*
X1539628Y1855583D01*
X1539864Y1855661D01*
X1540021Y1855740D01*
X1540139Y1855779D01*
X1540218Y1855858D01*
X1540257D01*
X1540453Y1856054D01*
X1540611Y1856290D01*
X1540689Y1856526D01*
X1540768Y1856801D01*
X1540807Y1857037D01*
X1540846Y1857194D01*
Y1857351D01*
Y1857391D01*
Y1866115D01*
X1537545D01*
Y1869495D01*
X1540846D01*
Y1874722D01*
X1545248Y1873425D01*
D02*
G37*
G36*
X1495298Y1857941D02*
X1495258Y1857312D01*
X1495219Y1856723D01*
X1495140Y1856172D01*
X1494983Y1855661D01*
X1494865Y1855229D01*
X1494708Y1854797D01*
X1494512Y1854443D01*
X1494354Y1854129D01*
X1494158Y1853814D01*
X1494001Y1853579D01*
X1493844Y1853382D01*
X1493686Y1853225D01*
X1493490Y1852989D01*
X1493451Y1852910D01*
X1493411D01*
X1493018Y1852635D01*
X1492625Y1852399D01*
X1491761Y1852006D01*
X1490818Y1851771D01*
X1489914Y1851574D01*
X1489088Y1851456D01*
X1488735Y1851417D01*
X1488420D01*
X1488184Y1851378D01*
X1487831D01*
X1487084Y1851417D01*
X1486730D01*
X1486455Y1851456D01*
X1486180D01*
X1485984Y1851496D01*
X1485826D01*
X1485080Y1851574D01*
X1484765Y1851613D01*
X1484490Y1851653D01*
X1484254Y1851692D01*
X1484058D01*
X1483940Y1851731D01*
X1483901D01*
X1483233Y1851849D01*
X1482918Y1851928D01*
X1482682Y1852006D01*
X1482486Y1852046D01*
X1482289Y1852085D01*
X1482211Y1852124D01*
X1482171D01*
X1481621Y1852321D01*
X1481150Y1852478D01*
X1480993Y1852557D01*
X1480875Y1852596D01*
X1480796Y1852635D01*
X1480757D01*
Y1869495D01*
X1485237D01*
Y1855426D01*
X1485591Y1855308D01*
X1485944Y1855229D01*
X1486101Y1855190D01*
X1486219D01*
X1486298Y1855150D01*
X1486337D01*
X1486848Y1855072D01*
X1487320Y1855033D01*
X1487831D01*
X1488381Y1855072D01*
X1488813Y1855150D01*
X1489245Y1855308D01*
X1489560Y1855465D01*
X1489874Y1855661D01*
X1490110Y1855897D01*
X1490307Y1856172D01*
X1490464Y1856447D01*
X1490700Y1856958D01*
X1490818Y1857391D01*
Y1857548D01*
X1490857Y1857705D01*
Y1857784D01*
Y1857823D01*
Y1869495D01*
X1495298D01*
Y1857941D01*
D02*
G37*
G36*
X1584587Y1869849D02*
X1585216Y1869770D01*
X1585806Y1869652D01*
X1586316Y1869534D01*
X1586749Y1869416D01*
X1587063Y1869299D01*
X1587260Y1869220D01*
X1587338Y1869181D01*
X1587889Y1868906D01*
X1588399Y1868591D01*
X1588832Y1868277D01*
X1589225Y1868002D01*
X1589500Y1867726D01*
X1589736Y1867491D01*
X1589893Y1867333D01*
X1589932Y1867294D01*
X1590286Y1866823D01*
X1590639Y1866312D01*
X1590915Y1865840D01*
X1591150Y1865369D01*
X1591308Y1864976D01*
X1591426Y1864622D01*
X1591504Y1864425D01*
X1591543Y1864386D01*
Y1864347D01*
X1591740Y1863718D01*
X1591858Y1863050D01*
X1591976Y1862421D01*
X1592015Y1861832D01*
X1592054Y1861360D01*
X1592094Y1860967D01*
Y1860810D01*
Y1860692D01*
Y1860652D01*
Y1860613D01*
X1592054Y1859867D01*
X1592015Y1859198D01*
X1591936Y1858570D01*
X1591819Y1857980D01*
X1591701Y1857548D01*
X1591622Y1857194D01*
X1591583Y1856958D01*
X1591543Y1856919D01*
Y1856880D01*
X1591308Y1856251D01*
X1591033Y1855701D01*
X1590718Y1855190D01*
X1590443Y1854757D01*
X1590207Y1854404D01*
X1590011Y1854168D01*
X1589853Y1853972D01*
X1589814Y1853932D01*
X1589382Y1853500D01*
X1588910Y1853107D01*
X1588439Y1852793D01*
X1588006Y1852517D01*
X1587613Y1852321D01*
X1587299Y1852164D01*
X1587102Y1852085D01*
X1587024Y1852046D01*
X1586395Y1851810D01*
X1585727Y1851653D01*
X1585098Y1851535D01*
X1584469Y1851456D01*
X1583958Y1851417D01*
X1583526Y1851378D01*
X1582465D01*
X1581758Y1851417D01*
X1581129Y1851496D01*
X1580579Y1851574D01*
X1580146Y1851613D01*
X1579793Y1851692D01*
X1579557Y1851731D01*
X1579478D01*
X1578850Y1851889D01*
X1578299Y1852006D01*
X1577828Y1852164D01*
X1577395Y1852321D01*
X1577042Y1852439D01*
X1576806Y1852557D01*
X1576649Y1852596D01*
X1576609Y1852635D01*
X1577906Y1855976D01*
X1578653Y1855661D01*
X1579046Y1855504D01*
X1579400Y1855426D01*
X1579714Y1855308D01*
X1579950Y1855229D01*
X1580107Y1855190D01*
X1580186D01*
X1581129Y1854993D01*
X1581601Y1854954D01*
X1581994Y1854915D01*
X1582308Y1854875D01*
X1582819D01*
X1583526Y1854915D01*
X1584194Y1855033D01*
X1584745Y1855190D01*
X1585216Y1855347D01*
X1585609Y1855504D01*
X1585884Y1855661D01*
X1586041Y1855779D01*
X1586120Y1855819D01*
X1586552Y1856212D01*
X1586906Y1856683D01*
X1587181Y1857194D01*
X1587417Y1857666D01*
X1587574Y1858098D01*
X1587653Y1858452D01*
X1587731Y1858688D01*
Y1858727D01*
Y1858766D01*
X1576334Y1860299D01*
X1576295Y1860574D01*
X1576256Y1860810D01*
Y1860967D01*
Y1861045D01*
Y1861832D01*
X1576295Y1862500D01*
X1576334Y1863089D01*
X1576413Y1863679D01*
X1576492Y1864150D01*
X1576609Y1864543D01*
X1576688Y1864858D01*
X1576727Y1865015D01*
X1576767Y1865093D01*
X1576963Y1865644D01*
X1577199Y1866115D01*
X1577474Y1866547D01*
X1577710Y1866940D01*
X1577906Y1867216D01*
X1578103Y1867451D01*
X1578221Y1867609D01*
X1578260Y1867648D01*
X1578614Y1868041D01*
X1579007Y1868355D01*
X1579400Y1868630D01*
X1579793Y1868866D01*
X1580107Y1869063D01*
X1580382Y1869181D01*
X1580539Y1869259D01*
X1580618Y1869299D01*
X1581168Y1869495D01*
X1581718Y1869652D01*
X1582269Y1869731D01*
X1582780Y1869809D01*
X1583212Y1869849D01*
X1583565Y1869888D01*
X1583880D01*
X1584587Y1869849D01*
D02*
G37*
G36*
X1438784D02*
X1439413Y1869770D01*
X1440003Y1869652D01*
X1440514Y1869534D01*
X1440946Y1869416D01*
X1441260Y1869299D01*
X1441457Y1869220D01*
X1441535Y1869181D01*
X1442085Y1868906D01*
X1442596Y1868591D01*
X1443029Y1868277D01*
X1443422Y1868002D01*
X1443697Y1867726D01*
X1443933Y1867491D01*
X1444090Y1867333D01*
X1444129Y1867294D01*
X1444483Y1866823D01*
X1444836Y1866312D01*
X1445112Y1865840D01*
X1445347Y1865369D01*
X1445505Y1864976D01*
X1445622Y1864622D01*
X1445701Y1864425D01*
X1445740Y1864386D01*
Y1864347D01*
X1445937Y1863718D01*
X1446055Y1863050D01*
X1446173Y1862421D01*
X1446212Y1861832D01*
X1446251Y1861360D01*
X1446291Y1860967D01*
Y1860810D01*
Y1860692D01*
Y1860652D01*
Y1860613D01*
X1446251Y1859867D01*
X1446212Y1859198D01*
X1446133Y1858570D01*
X1446015Y1857980D01*
X1445898Y1857548D01*
X1445819Y1857194D01*
X1445780Y1856958D01*
X1445740Y1856919D01*
Y1856880D01*
X1445505Y1856251D01*
X1445229Y1855701D01*
X1444915Y1855190D01*
X1444640Y1854757D01*
X1444404Y1854404D01*
X1444208Y1854168D01*
X1444051Y1853972D01*
X1444011Y1853932D01*
X1443579Y1853500D01*
X1443107Y1853107D01*
X1442636Y1852793D01*
X1442203Y1852517D01*
X1441810Y1852321D01*
X1441496Y1852164D01*
X1441300Y1852085D01*
X1441221Y1852046D01*
X1440592Y1851810D01*
X1439924Y1851653D01*
X1439295Y1851535D01*
X1438666Y1851456D01*
X1438156Y1851417D01*
X1437723Y1851378D01*
X1436662D01*
X1435955Y1851417D01*
X1435326Y1851496D01*
X1434776Y1851574D01*
X1434343Y1851613D01*
X1433990Y1851692D01*
X1433754Y1851731D01*
X1433675D01*
X1433046Y1851889D01*
X1432496Y1852006D01*
X1432025Y1852164D01*
X1431592Y1852321D01*
X1431239Y1852439D01*
X1431003Y1852557D01*
X1430846Y1852596D01*
X1430806Y1852635D01*
X1432103Y1855976D01*
X1432850Y1855661D01*
X1433243Y1855504D01*
X1433597Y1855426D01*
X1433911Y1855308D01*
X1434147Y1855229D01*
X1434304Y1855190D01*
X1434383D01*
X1435326Y1854993D01*
X1435797Y1854954D01*
X1436190Y1854915D01*
X1436505Y1854875D01*
X1437016D01*
X1437723Y1854915D01*
X1438391Y1855033D01*
X1438941Y1855190D01*
X1439413Y1855347D01*
X1439806Y1855504D01*
X1440081Y1855661D01*
X1440238Y1855779D01*
X1440317Y1855819D01*
X1440749Y1856212D01*
X1441103Y1856683D01*
X1441378Y1857194D01*
X1441614Y1857666D01*
X1441771Y1858098D01*
X1441850Y1858452D01*
X1441928Y1858688D01*
Y1858727D01*
Y1858766D01*
X1430531Y1860299D01*
X1430492Y1860574D01*
X1430453Y1860810D01*
Y1860967D01*
Y1861045D01*
Y1861832D01*
X1430492Y1862500D01*
X1430531Y1863089D01*
X1430610Y1863679D01*
X1430688Y1864150D01*
X1430806Y1864543D01*
X1430885Y1864858D01*
X1430924Y1865015D01*
X1430964Y1865093D01*
X1431160Y1865644D01*
X1431396Y1866115D01*
X1431671Y1866547D01*
X1431907Y1866940D01*
X1432103Y1867216D01*
X1432300Y1867451D01*
X1432418Y1867609D01*
X1432457Y1867648D01*
X1432811Y1868041D01*
X1433204Y1868355D01*
X1433597Y1868630D01*
X1433990Y1868866D01*
X1434304Y1869063D01*
X1434579Y1869181D01*
X1434736Y1869259D01*
X1434815Y1869299D01*
X1435365Y1869495D01*
X1435915Y1869652D01*
X1436466Y1869731D01*
X1436976Y1869809D01*
X1437409Y1869849D01*
X1437763Y1869888D01*
X1438077D01*
X1438784Y1869849D01*
D02*
G37*
G36*
X1554994Y1851771D02*
X1550514D01*
Y1877591D01*
X1554994D01*
Y1851771D01*
D02*
G37*
G36*
X1471089Y1869809D02*
X1471757Y1869770D01*
X1472347Y1869691D01*
X1472857Y1869613D01*
X1473250Y1869574D01*
X1473486Y1869495D01*
X1473565D01*
X1474233Y1869338D01*
X1474822Y1869220D01*
X1475373Y1869063D01*
X1475844Y1868906D01*
X1476198Y1868788D01*
X1476512Y1868670D01*
X1476669Y1868630D01*
X1476748Y1868591D01*
Y1851771D01*
X1472307D01*
Y1865879D01*
X1471954Y1865997D01*
X1471639Y1866076D01*
X1471364Y1866155D01*
X1471285D01*
X1470853Y1866233D01*
X1470460Y1866272D01*
X1469635D01*
X1469281Y1866233D01*
X1468927Y1866194D01*
X1468652Y1866155D01*
X1468377Y1866076D01*
X1468220Y1866037D01*
X1468102Y1865997D01*
X1468063D01*
X1467237Y1869731D01*
X1467591Y1869770D01*
X1467906D01*
X1468141Y1869809D01*
X1468259D01*
X1468692Y1869849D01*
X1469124Y1869888D01*
X1470303D01*
X1471089Y1869809D01*
D02*
G37*
G36*
X1458945D02*
X1459613Y1869770D01*
X1460203Y1869691D01*
X1460674Y1869613D01*
X1461028Y1869574D01*
X1461264Y1869495D01*
X1461342D01*
X1461971Y1869338D01*
X1462522Y1869220D01*
X1463072Y1869063D01*
X1463543Y1868906D01*
X1463897Y1868788D01*
X1464211Y1868670D01*
X1464369Y1868630D01*
X1464447Y1868591D01*
Y1851771D01*
X1460006D01*
Y1865879D01*
X1459613Y1865997D01*
X1459220Y1866076D01*
X1459063Y1866115D01*
X1458945Y1866155D01*
X1458827D01*
X1458277Y1866233D01*
X1457805Y1866272D01*
X1457334D01*
X1456784Y1866233D01*
X1456312Y1866155D01*
X1455880Y1866037D01*
X1455565Y1865919D01*
X1455290Y1865762D01*
X1455133Y1865644D01*
X1455015Y1865565D01*
X1454976Y1865526D01*
X1454701Y1865211D01*
X1454504Y1864897D01*
X1454386Y1864543D01*
X1454268Y1864189D01*
X1454229Y1863914D01*
X1454190Y1863679D01*
Y1863521D01*
Y1863443D01*
Y1851771D01*
X1449710D01*
Y1863875D01*
Y1864386D01*
X1449788Y1864897D01*
X1449985Y1865801D01*
X1450299Y1866547D01*
X1450614Y1867176D01*
X1450967Y1867687D01*
X1451282Y1868041D01*
X1451478Y1868237D01*
X1451517Y1868316D01*
X1451557D01*
X1451910Y1868591D01*
X1452343Y1868827D01*
X1453247Y1869220D01*
X1454190Y1869495D01*
X1455172Y1869691D01*
X1455605Y1869770D01*
X1456037Y1869809D01*
X1456391Y1869849D01*
X1456705D01*
X1456980Y1869888D01*
X1458198D01*
X1458945Y1869809D01*
D02*
G37*
G36*
X1421374D02*
X1422043Y1869770D01*
X1422632Y1869691D01*
X1423143Y1869613D01*
X1423536Y1869574D01*
X1423772Y1869495D01*
X1423850D01*
X1424518Y1869338D01*
X1425108Y1869220D01*
X1425658Y1869063D01*
X1426130Y1868906D01*
X1426483Y1868788D01*
X1426798Y1868670D01*
X1426955Y1868630D01*
X1427034Y1868591D01*
Y1851771D01*
X1422593D01*
Y1865879D01*
X1422239Y1865997D01*
X1421925Y1866076D01*
X1421649Y1866155D01*
X1421571D01*
X1421139Y1866233D01*
X1420746Y1866272D01*
X1419920D01*
X1419567Y1866233D01*
X1419213Y1866194D01*
X1418938Y1866155D01*
X1418663Y1866076D01*
X1418505Y1866037D01*
X1418388Y1865997D01*
X1418348D01*
X1417523Y1869731D01*
X1417877Y1869770D01*
X1418191D01*
X1418427Y1869809D01*
X1418545D01*
X1418977Y1869849D01*
X1419409Y1869888D01*
X1420588D01*
X1421374Y1869809D01*
D02*
G37*
G36*
X1395947Y1875940D02*
X1396576Y1875862D01*
X1397126Y1875822D01*
X1397598Y1875744D01*
X1397952Y1875665D01*
X1398187Y1875626D01*
X1398266D01*
X1398895Y1875469D01*
X1399484Y1875311D01*
X1399995Y1875154D01*
X1400467Y1875036D01*
X1400860Y1874879D01*
X1401135Y1874801D01*
X1401292Y1874722D01*
X1401371Y1874683D01*
Y1851771D01*
X1396851D01*
Y1861006D01*
X1396537Y1860967D01*
X1396222Y1860928D01*
X1395947Y1860888D01*
X1395869D01*
X1395397Y1860849D01*
X1394650D01*
X1393825Y1860888D01*
X1393039Y1860928D01*
X1392332Y1861006D01*
X1391742Y1861124D01*
X1391271Y1861242D01*
X1390917Y1861321D01*
X1390681Y1861360D01*
X1390602Y1861399D01*
X1389974Y1861635D01*
X1389424Y1861871D01*
X1388913Y1862146D01*
X1388480Y1862382D01*
X1388166Y1862578D01*
X1387891Y1862775D01*
X1387734Y1862893D01*
X1387694Y1862932D01*
X1387262Y1863325D01*
X1386908Y1863757D01*
X1386633Y1864150D01*
X1386358Y1864504D01*
X1386162Y1864858D01*
X1386044Y1865093D01*
X1385965Y1865251D01*
X1385926Y1865329D01*
X1385729Y1865840D01*
X1385572Y1866390D01*
X1385494Y1866862D01*
X1385415Y1867333D01*
X1385376Y1867726D01*
X1385336Y1868041D01*
Y1868237D01*
Y1868316D01*
X1385376Y1868945D01*
X1385454Y1869574D01*
X1385572Y1870124D01*
X1385690Y1870674D01*
X1386083Y1871617D01*
X1386280Y1872050D01*
X1386515Y1872403D01*
X1386751Y1872757D01*
X1386948Y1873071D01*
X1387144Y1873307D01*
X1387341Y1873504D01*
X1387458Y1873700D01*
X1387576Y1873818D01*
X1387655Y1873857D01*
X1387694Y1873897D01*
X1388166Y1874250D01*
X1388677Y1874604D01*
X1389188Y1874879D01*
X1389738Y1875115D01*
X1390878Y1875469D01*
X1391978Y1875704D01*
X1392489Y1875822D01*
X1392960Y1875862D01*
X1393393Y1875901D01*
X1393746Y1875940D01*
X1394061Y1875979D01*
X1395240D01*
X1395947Y1875940D01*
D02*
G37*
G36*
X1311216Y1857076D02*
X1311570Y1856997D01*
X1311806Y1856919D01*
X1311845Y1856880D01*
X1311885D01*
X1312238Y1856683D01*
X1312513Y1856487D01*
X1312710Y1856329D01*
X1312789Y1856251D01*
X1313024Y1855976D01*
X1313221Y1855701D01*
X1313339Y1855465D01*
X1313378Y1855426D01*
Y1855386D01*
X1313496Y1854993D01*
X1313574Y1854639D01*
X1313614Y1854482D01*
Y1854404D01*
Y1854325D01*
Y1854286D01*
X1313574Y1853853D01*
X1313496Y1853500D01*
X1313417Y1853264D01*
X1313378Y1853225D01*
Y1853185D01*
X1313181Y1852832D01*
X1312985Y1852557D01*
X1312828Y1852360D01*
X1312789Y1852282D01*
X1312474Y1852046D01*
X1312199Y1851889D01*
X1311963Y1851771D01*
X1311924Y1851731D01*
X1311885D01*
X1311492Y1851613D01*
X1311138Y1851535D01*
X1310981Y1851495D01*
X1310784D01*
X1310352Y1851535D01*
X1309998Y1851613D01*
X1309762Y1851692D01*
X1309723Y1851731D01*
X1309684D01*
X1309330Y1851889D01*
X1309055Y1852085D01*
X1308859Y1852242D01*
X1308780Y1852282D01*
X1308505Y1852596D01*
X1308348Y1852871D01*
X1308230Y1853107D01*
X1308190Y1853146D01*
Y1853185D01*
X1308033Y1853578D01*
X1307994Y1853932D01*
X1307955Y1854089D01*
Y1854168D01*
Y1854246D01*
Y1854286D01*
X1307994Y1854718D01*
X1308072Y1855072D01*
X1308151Y1855308D01*
X1308190Y1855347D01*
Y1855386D01*
X1308348Y1855740D01*
X1308544Y1856015D01*
X1308701Y1856172D01*
X1308780Y1856251D01*
X1309094Y1856526D01*
X1309369Y1856722D01*
X1309605Y1856840D01*
X1309645Y1856880D01*
X1309684D01*
X1310077Y1857037D01*
X1310430Y1857076D01*
X1310588Y1857115D01*
X1310784D01*
X1311216Y1857076D01*
D02*
G37*
G36*
X1613866Y1875940D02*
X1614495Y1875901D01*
X1615045Y1875822D01*
X1615516Y1875744D01*
X1615909Y1875626D01*
X1616185Y1875547D01*
X1616381Y1875508D01*
X1616460Y1875469D01*
X1616970Y1875272D01*
X1617442Y1875036D01*
X1617835Y1874801D01*
X1618189Y1874565D01*
X1618503Y1874329D01*
X1618700Y1874172D01*
X1618857Y1874054D01*
X1618896Y1874014D01*
X1619250Y1873661D01*
X1619564Y1873307D01*
X1619800Y1872914D01*
X1620036Y1872560D01*
X1620193Y1872285D01*
X1620311Y1872050D01*
X1620390Y1871853D01*
X1620429Y1871814D01*
X1620625Y1871303D01*
X1620743Y1870831D01*
X1620861Y1870320D01*
X1620900Y1869888D01*
X1620940Y1869495D01*
X1620979Y1869181D01*
Y1868984D01*
Y1868906D01*
X1620940Y1868277D01*
X1620861Y1867687D01*
X1620783Y1867176D01*
X1620625Y1866744D01*
X1620507Y1866390D01*
X1620429Y1866155D01*
X1620350Y1865958D01*
X1620311Y1865919D01*
X1620036Y1865486D01*
X1619722Y1865093D01*
X1619446Y1864779D01*
X1619171Y1864465D01*
X1618936Y1864229D01*
X1618739Y1864072D01*
X1618621Y1863954D01*
X1618582Y1863914D01*
X1617796Y1863364D01*
X1617442Y1863089D01*
X1617088Y1862893D01*
X1616813Y1862735D01*
X1616578Y1862618D01*
X1616420Y1862539D01*
X1616381Y1862500D01*
X1615516Y1862107D01*
X1615123Y1861910D01*
X1614809Y1861714D01*
X1614534Y1861596D01*
X1614337Y1861478D01*
X1614180Y1861399D01*
X1614141Y1861360D01*
X1613787Y1861163D01*
X1613434Y1860928D01*
X1613158Y1860731D01*
X1612923Y1860535D01*
X1612726Y1860338D01*
X1612569Y1860220D01*
X1612490Y1860142D01*
X1612451Y1860102D01*
X1612215Y1859827D01*
X1612058Y1859552D01*
X1611901Y1859277D01*
X1611822Y1859002D01*
X1611783Y1858766D01*
X1611744Y1858570D01*
Y1858452D01*
Y1858412D01*
X1611783Y1857941D01*
X1611901Y1857548D01*
X1612058Y1857194D01*
X1612215Y1856880D01*
X1612412Y1856644D01*
X1612569Y1856487D01*
X1612687Y1856369D01*
X1612726Y1856330D01*
X1613119Y1856054D01*
X1613551Y1855858D01*
X1613984Y1855740D01*
X1614377Y1855661D01*
X1614770Y1855583D01*
X1615084Y1855543D01*
X1615359D01*
X1616185Y1855583D01*
X1616578Y1855661D01*
X1616931Y1855701D01*
X1617206Y1855779D01*
X1617442Y1855819D01*
X1617599Y1855858D01*
X1617639D01*
X1618425Y1856133D01*
X1618778Y1856251D01*
X1619093Y1856369D01*
X1619368Y1856487D01*
X1619564Y1856565D01*
X1619682Y1856644D01*
X1619722D01*
X1621254Y1852635D01*
X1620232Y1852203D01*
X1619722Y1852046D01*
X1619289Y1851928D01*
X1618896Y1851810D01*
X1618621Y1851731D01*
X1618425Y1851692D01*
X1618346D01*
X1617167Y1851496D01*
X1616617Y1851456D01*
X1616145Y1851417D01*
X1615713Y1851378D01*
X1615123D01*
X1614416Y1851417D01*
X1613787Y1851456D01*
X1613198Y1851535D01*
X1612687Y1851653D01*
X1612294Y1851731D01*
X1611979Y1851810D01*
X1611783Y1851849D01*
X1611704Y1851889D01*
X1611154Y1852085D01*
X1610643Y1852321D01*
X1610211Y1852596D01*
X1609857Y1852832D01*
X1609543Y1853028D01*
X1609346Y1853225D01*
X1609189Y1853343D01*
X1609150Y1853382D01*
X1608757Y1853775D01*
X1608442Y1854168D01*
X1608167Y1854522D01*
X1607931Y1854875D01*
X1607774Y1855190D01*
X1607656Y1855426D01*
X1607578Y1855622D01*
X1607539Y1855661D01*
X1607342Y1856172D01*
X1607224Y1856683D01*
X1607106Y1857194D01*
X1607067Y1857666D01*
X1607028Y1858059D01*
X1606988Y1858373D01*
Y1858570D01*
Y1858648D01*
X1607028Y1859277D01*
X1607106Y1859867D01*
X1607224Y1860377D01*
X1607342Y1860770D01*
X1607460Y1861124D01*
X1607578Y1861399D01*
X1607656Y1861556D01*
X1607696Y1861596D01*
X1607971Y1862028D01*
X1608246Y1862421D01*
X1608521Y1862735D01*
X1608796Y1863050D01*
X1609071Y1863286D01*
X1609228Y1863443D01*
X1609386Y1863561D01*
X1609425Y1863600D01*
X1610211Y1864189D01*
X1610565Y1864425D01*
X1610918Y1864661D01*
X1611233Y1864818D01*
X1611468Y1864936D01*
X1611626Y1865015D01*
X1611665Y1865054D01*
X1612530Y1865486D01*
X1612923Y1865683D01*
X1613276Y1865879D01*
X1613551Y1865997D01*
X1613748Y1866115D01*
X1613905Y1866194D01*
X1613944Y1866233D01*
X1614652Y1866665D01*
X1614927Y1866901D01*
X1615202Y1867098D01*
X1615399Y1867255D01*
X1615556Y1867373D01*
X1615634Y1867451D01*
X1615674Y1867491D01*
X1615909Y1867766D01*
X1616067Y1868041D01*
X1616185Y1868316D01*
X1616263Y1868591D01*
X1616302Y1868827D01*
X1616342Y1869023D01*
Y1869141D01*
Y1869181D01*
X1616302Y1869613D01*
X1616224Y1870045D01*
X1616067Y1870360D01*
X1615909Y1870674D01*
X1615752Y1870870D01*
X1615595Y1871067D01*
X1615516Y1871146D01*
X1615477Y1871185D01*
X1615123Y1871460D01*
X1614730Y1871657D01*
X1614298Y1871774D01*
X1613905Y1871892D01*
X1613591Y1871932D01*
X1613276Y1871971D01*
X1613041D01*
X1612255Y1871932D01*
X1611901Y1871892D01*
X1611586Y1871853D01*
X1611311Y1871774D01*
X1611115Y1871735D01*
X1610997Y1871696D01*
X1610958D01*
X1610250Y1871460D01*
X1609936Y1871342D01*
X1609700Y1871224D01*
X1609464Y1871106D01*
X1609307Y1871028D01*
X1609189Y1870988D01*
X1609150Y1870949D01*
X1607696Y1874683D01*
X1608560Y1875115D01*
X1608993Y1875272D01*
X1609386Y1875390D01*
X1609700Y1875508D01*
X1609975Y1875586D01*
X1610132Y1875626D01*
X1610211D01*
X1611272Y1875822D01*
X1611783Y1875901D01*
X1612255Y1875940D01*
X1612648Y1875979D01*
X1613237D01*
X1613866Y1875940D01*
D02*
G37*
G36*
X1509681Y1875901D02*
X1510350Y1875862D01*
X1510939Y1875783D01*
X1511450Y1875704D01*
X1511843Y1875665D01*
X1512079Y1875586D01*
X1512157D01*
X1512825Y1875429D01*
X1513415Y1875311D01*
X1513965Y1875154D01*
X1514437Y1874997D01*
X1514830Y1874879D01*
X1515105Y1874761D01*
X1515262Y1874722D01*
X1515341Y1874683D01*
Y1852635D01*
X1514869Y1852439D01*
X1514319Y1852282D01*
X1513808Y1852124D01*
X1513297Y1851967D01*
X1512825Y1851889D01*
X1512472Y1851810D01*
X1512236Y1851731D01*
X1512157D01*
X1511411Y1851613D01*
X1510664Y1851535D01*
X1509996Y1851456D01*
X1509367Y1851417D01*
X1508856D01*
X1508463Y1851378D01*
X1508110D01*
X1507245Y1851417D01*
X1506459Y1851456D01*
X1505712Y1851535D01*
X1505044Y1851653D01*
X1504415Y1851810D01*
X1503826Y1851967D01*
X1503315Y1852124D01*
X1502843Y1852282D01*
X1502411Y1852439D01*
X1502057Y1852596D01*
X1501782Y1852753D01*
X1501507Y1852910D01*
X1501311Y1853028D01*
X1501193Y1853107D01*
X1501114Y1853186D01*
X1501075D01*
X1500642Y1853539D01*
X1500289Y1853932D01*
X1499974Y1854325D01*
X1499699Y1854718D01*
X1499464Y1855150D01*
X1499267Y1855583D01*
X1498992Y1856369D01*
X1498795Y1857116D01*
X1498756Y1857430D01*
X1498717Y1857705D01*
X1498678Y1857901D01*
Y1858059D01*
Y1858177D01*
Y1858216D01*
Y1858688D01*
X1498756Y1859120D01*
X1498795Y1859513D01*
X1498874Y1859827D01*
X1498953Y1860102D01*
X1499031Y1860338D01*
X1499071Y1860456D01*
X1499110Y1860495D01*
X1499424Y1861163D01*
X1499621Y1861478D01*
X1499778Y1861714D01*
X1499935Y1861910D01*
X1500053Y1862067D01*
X1500132Y1862146D01*
X1500171Y1862185D01*
X1500642Y1862696D01*
X1501075Y1863089D01*
X1501271Y1863207D01*
X1501428Y1863325D01*
X1501507Y1863364D01*
X1501546Y1863403D01*
X1502097Y1863718D01*
X1502568Y1863954D01*
X1502765Y1864032D01*
X1502922Y1864072D01*
X1503001Y1864111D01*
X1503040D01*
Y1864189D01*
X1502490Y1864386D01*
X1502057Y1864582D01*
X1501900Y1864661D01*
X1501782Y1864740D01*
X1501704Y1864818D01*
X1501664D01*
X1501193Y1865211D01*
X1500839Y1865604D01*
X1500682Y1865762D01*
X1500564Y1865879D01*
X1500525Y1865958D01*
X1500485Y1865997D01*
X1500132Y1866547D01*
X1499857Y1867058D01*
X1499739Y1867255D01*
X1499660Y1867412D01*
X1499621Y1867530D01*
Y1867569D01*
X1499424Y1868237D01*
X1499385Y1868552D01*
X1499346Y1868827D01*
X1499306Y1869102D01*
Y1869299D01*
Y1869416D01*
Y1869456D01*
X1499346Y1869967D01*
X1499385Y1870477D01*
X1499464Y1870910D01*
X1499581Y1871303D01*
X1499699Y1871617D01*
X1499778Y1871853D01*
X1499817Y1872010D01*
X1499857Y1872050D01*
X1500092Y1872482D01*
X1500328Y1872875D01*
X1500603Y1873228D01*
X1500878Y1873543D01*
X1501114Y1873779D01*
X1501311Y1873936D01*
X1501468Y1874054D01*
X1501507Y1874093D01*
X1501939Y1874408D01*
X1502372Y1874683D01*
X1502843Y1874918D01*
X1503276Y1875115D01*
X1503669Y1875272D01*
X1503983Y1875390D01*
X1504179Y1875429D01*
X1504219Y1875469D01*
X1504258D01*
X1504887Y1875626D01*
X1505555Y1875783D01*
X1506223Y1875862D01*
X1506852Y1875901D01*
X1507363Y1875940D01*
X1507795Y1875979D01*
X1508974D01*
X1509681Y1875901D01*
D02*
G37*
G36*
X1376887D02*
X1377516Y1875862D01*
X1378066Y1875783D01*
X1378498Y1875704D01*
X1378852Y1875665D01*
X1379088Y1875586D01*
X1379166D01*
X1379795Y1875429D01*
X1380345Y1875311D01*
X1380817Y1875154D01*
X1381210Y1874997D01*
X1381563Y1874879D01*
X1381799Y1874761D01*
X1381957Y1874722D01*
X1381996Y1874683D01*
Y1852635D01*
X1381563Y1852439D01*
X1381092Y1852282D01*
X1380660Y1852124D01*
X1380188Y1851967D01*
X1379795Y1851889D01*
X1379481Y1851810D01*
X1379284Y1851731D01*
X1379206D01*
X1377909Y1851535D01*
X1377280Y1851456D01*
X1376690Y1851417D01*
X1376179D01*
X1375826Y1851378D01*
X1375472D01*
X1374568Y1851417D01*
X1373704Y1851496D01*
X1372918Y1851653D01*
X1372171Y1851849D01*
X1371463Y1852085D01*
X1370835Y1852360D01*
X1370245Y1852635D01*
X1369734Y1852950D01*
X1369263Y1853225D01*
X1368870Y1853500D01*
X1368516Y1853775D01*
X1368241Y1854011D01*
X1368005Y1854207D01*
X1367848Y1854364D01*
X1367769Y1854443D01*
X1367730Y1854482D01*
X1367219Y1855111D01*
X1366826Y1855779D01*
X1366433Y1856487D01*
X1366119Y1857233D01*
X1365843Y1858019D01*
X1365608Y1858766D01*
X1365450Y1859513D01*
X1365293Y1860259D01*
X1365175Y1860967D01*
X1365097Y1861596D01*
X1365018Y1862185D01*
X1364979Y1862696D01*
X1364940Y1863089D01*
Y1863403D01*
Y1863600D01*
Y1863679D01*
X1364979Y1864779D01*
X1365057Y1865801D01*
X1365215Y1866744D01*
X1365372Y1867648D01*
X1365568Y1868473D01*
X1365804Y1869220D01*
X1366079Y1869888D01*
X1366315Y1870517D01*
X1366590Y1871067D01*
X1366865Y1871539D01*
X1367101Y1871932D01*
X1367298Y1872246D01*
X1367455Y1872521D01*
X1367612Y1872678D01*
X1367691Y1872796D01*
X1367730Y1872835D01*
X1368280Y1873386D01*
X1368870Y1873857D01*
X1369459Y1874290D01*
X1370088Y1874643D01*
X1370756Y1874958D01*
X1371385Y1875233D01*
X1372014Y1875429D01*
X1372642Y1875586D01*
X1373193Y1875704D01*
X1373743Y1875822D01*
X1374214Y1875901D01*
X1374647Y1875940D01*
X1375000Y1875979D01*
X1376179D01*
X1376887Y1875901D01*
D02*
G37*
G36*
X1297226Y1875940D02*
X1297933Y1875822D01*
X1298562Y1875665D01*
X1299112Y1875508D01*
X1299544Y1875351D01*
X1299898Y1875193D01*
X1300095Y1875075D01*
X1300173Y1875036D01*
X1300723Y1874643D01*
X1301234Y1874211D01*
X1301667Y1873779D01*
X1302020Y1873386D01*
X1302335Y1872993D01*
X1302531Y1872678D01*
X1302688Y1872482D01*
X1302728Y1872442D01*
Y1872403D01*
X1303081Y1871774D01*
X1303357Y1871106D01*
X1303632Y1870438D01*
X1303828Y1869849D01*
X1303985Y1869298D01*
X1304103Y1868905D01*
X1304142Y1868748D01*
Y1868630D01*
X1304182Y1868552D01*
Y1868512D01*
X1304339Y1867648D01*
X1304457Y1866822D01*
X1304535Y1865997D01*
X1304575Y1865251D01*
X1304614Y1864622D01*
X1304653Y1864347D01*
Y1864111D01*
Y1863914D01*
Y1863796D01*
Y1863718D01*
Y1863678D01*
X1304614Y1862696D01*
X1304575Y1861792D01*
X1304496Y1860967D01*
X1304418Y1860259D01*
X1304339Y1859670D01*
X1304300Y1859395D01*
X1304260Y1859198D01*
X1304221Y1859041D01*
X1304182Y1858923D01*
Y1858845D01*
Y1858805D01*
X1303985Y1857980D01*
X1303749Y1857233D01*
X1303514Y1856565D01*
X1303278Y1856015D01*
X1303081Y1855543D01*
X1302885Y1855190D01*
X1302767Y1854954D01*
X1302728Y1854915D01*
Y1854875D01*
X1302335Y1854286D01*
X1301902Y1853775D01*
X1301470Y1853343D01*
X1301077Y1852950D01*
X1300723Y1852675D01*
X1300448Y1852439D01*
X1300252Y1852321D01*
X1300173Y1852282D01*
X1299544Y1851967D01*
X1298916Y1851771D01*
X1298287Y1851613D01*
X1297697Y1851495D01*
X1297186Y1851417D01*
X1296793Y1851378D01*
X1296440D01*
X1295654Y1851417D01*
X1294946Y1851535D01*
X1294318Y1851653D01*
X1293767Y1851849D01*
X1293335Y1852006D01*
X1292981Y1852124D01*
X1292785Y1852242D01*
X1292706Y1852282D01*
X1292156Y1852675D01*
X1291645Y1853068D01*
X1291213Y1853500D01*
X1290820Y1853932D01*
X1290545Y1854286D01*
X1290309Y1854600D01*
X1290191Y1854797D01*
X1290152Y1854875D01*
X1289798Y1855543D01*
X1289523Y1856211D01*
X1289248Y1856880D01*
X1289051Y1857469D01*
X1288894Y1858019D01*
X1288776Y1858412D01*
X1288737Y1858570D01*
Y1858687D01*
X1288698Y1858766D01*
Y1858805D01*
X1288540Y1859670D01*
X1288422Y1860495D01*
X1288344Y1861321D01*
X1288265Y1862067D01*
Y1862735D01*
X1288226Y1863010D01*
Y1863246D01*
Y1863403D01*
Y1863561D01*
Y1863639D01*
Y1863678D01*
Y1864622D01*
X1288305Y1865526D01*
X1288383Y1866351D01*
X1288462Y1867058D01*
X1288540Y1867687D01*
X1288580Y1867923D01*
X1288619Y1868119D01*
X1288658Y1868277D01*
Y1868395D01*
X1288698Y1868473D01*
Y1868512D01*
X1288894Y1869338D01*
X1289130Y1870084D01*
X1289366Y1870713D01*
X1289601Y1871303D01*
X1289798Y1871774D01*
X1289995Y1872128D01*
X1290112Y1872324D01*
X1290152Y1872403D01*
X1290545Y1872993D01*
X1290977Y1873543D01*
X1291409Y1873975D01*
X1291802Y1874368D01*
X1292156Y1874643D01*
X1292431Y1874879D01*
X1292628Y1874997D01*
X1292706Y1875036D01*
X1293335Y1875351D01*
X1293964Y1875586D01*
X1294593Y1875744D01*
X1295143Y1875861D01*
X1295654Y1875940D01*
X1296086Y1875979D01*
X1296440D01*
X1297226Y1875940D01*
D02*
G37*
G36*
X1474351Y1844972D02*
X1474980Y1844893D01*
X1475530Y1844854D01*
X1476041Y1844775D01*
X1476394Y1844697D01*
X1476630Y1844657D01*
X1476709D01*
X1477377Y1844540D01*
X1478006Y1844382D01*
X1478595Y1844225D01*
X1479067Y1844068D01*
X1479460Y1843950D01*
X1479774Y1843832D01*
X1479971Y1843754D01*
X1480049Y1843714D01*
X1478752Y1840216D01*
X1477849Y1840531D01*
X1477416Y1840649D01*
X1477023Y1840767D01*
X1476709Y1840845D01*
X1476434Y1840924D01*
X1476276Y1840963D01*
X1476198D01*
X1475215Y1841160D01*
X1474744Y1841199D01*
X1474351Y1841238D01*
X1474036Y1841278D01*
X1473565D01*
X1472897Y1841238D01*
X1472347Y1841160D01*
X1471875Y1841042D01*
X1471443Y1840924D01*
X1471128Y1840767D01*
X1470932Y1840649D01*
X1470774Y1840570D01*
X1470735Y1840531D01*
X1470421Y1840256D01*
X1470185Y1839902D01*
X1469988Y1839588D01*
X1469871Y1839273D01*
X1469792Y1838959D01*
X1469753Y1838723D01*
Y1838566D01*
Y1838527D01*
Y1838252D01*
X1469831Y1837976D01*
X1469988Y1837505D01*
X1470067Y1837308D01*
X1470146Y1837190D01*
X1470185Y1837112D01*
X1470224Y1837072D01*
X1470617Y1836640D01*
X1471010Y1836286D01*
X1471207Y1836129D01*
X1471364Y1836011D01*
X1471443Y1835972D01*
X1471482Y1835933D01*
X1472150Y1835579D01*
X1472779Y1835343D01*
X1473054Y1835225D01*
X1473290Y1835147D01*
X1473447Y1835108D01*
X1473486D01*
X1474390Y1834911D01*
X1474822Y1834832D01*
X1475255Y1834793D01*
X1475608Y1834754D01*
X1475883Y1834715D01*
X1476119D01*
Y1831413D01*
X1475215D01*
X1474705Y1831374D01*
X1474272Y1831335D01*
X1473879Y1831295D01*
X1473565Y1831217D01*
X1473290Y1831178D01*
X1473132Y1831138D01*
X1473093D01*
X1472661Y1831060D01*
X1472229Y1830942D01*
X1471875Y1830824D01*
X1471561Y1830706D01*
X1471325Y1830588D01*
X1471128Y1830509D01*
X1471010Y1830470D01*
X1470971Y1830431D01*
X1470657Y1830274D01*
X1470381Y1830077D01*
X1470106Y1829881D01*
X1469910Y1829684D01*
X1469753Y1829527D01*
X1469635Y1829409D01*
X1469595Y1829330D01*
X1469556Y1829291D01*
X1469399Y1829016D01*
X1469242Y1828741D01*
X1469124Y1828191D01*
X1469085Y1827994D01*
X1469045Y1827798D01*
Y1827680D01*
Y1827640D01*
X1469085Y1827090D01*
X1469242Y1826579D01*
X1469438Y1826147D01*
X1469635Y1825793D01*
X1469871Y1825518D01*
X1470067Y1825283D01*
X1470224Y1825165D01*
X1470264Y1825125D01*
X1470735Y1824811D01*
X1471285Y1824575D01*
X1471836Y1824418D01*
X1472386Y1824300D01*
X1472857Y1824221D01*
X1473250Y1824182D01*
X1474194D01*
X1474744Y1824221D01*
X1475255Y1824261D01*
X1475726Y1824300D01*
X1476119Y1824339D01*
X1476394Y1824379D01*
X1476591Y1824418D01*
X1476669D01*
X1477220Y1824536D01*
X1477691Y1824654D01*
X1478124Y1824772D01*
X1478517Y1824889D01*
X1478792Y1825007D01*
X1479027Y1825086D01*
X1479185Y1825165D01*
X1479224D01*
X1480639Y1821667D01*
X1480089Y1821470D01*
X1479499Y1821274D01*
X1478949Y1821117D01*
X1478438Y1820999D01*
X1477966Y1820881D01*
X1477613Y1820842D01*
X1477377Y1820763D01*
X1477298D01*
X1476591Y1820645D01*
X1475923Y1820566D01*
X1475255Y1820488D01*
X1474705Y1820449D01*
X1474233D01*
X1473840Y1820409D01*
X1473525D01*
X1472739Y1820449D01*
X1471993Y1820488D01*
X1471364Y1820566D01*
X1470774Y1820684D01*
X1470303Y1820763D01*
X1469988Y1820842D01*
X1469753Y1820881D01*
X1469674Y1820920D01*
X1469085Y1821117D01*
X1468534Y1821352D01*
X1468024Y1821588D01*
X1467630Y1821824D01*
X1467277Y1822060D01*
X1467041Y1822217D01*
X1466884Y1822335D01*
X1466844Y1822374D01*
X1466412Y1822728D01*
X1466059Y1823121D01*
X1465744Y1823514D01*
X1465508Y1823868D01*
X1465312Y1824182D01*
X1465155Y1824418D01*
X1465076Y1824614D01*
X1465037Y1824654D01*
X1464840Y1825165D01*
X1464683Y1825676D01*
X1464565Y1826186D01*
X1464486Y1826658D01*
X1464447Y1827051D01*
X1464408Y1827365D01*
Y1827562D01*
Y1827640D01*
Y1828073D01*
X1464486Y1828505D01*
X1464526Y1828859D01*
X1464604Y1829213D01*
X1464683Y1829448D01*
X1464762Y1829684D01*
X1464801Y1829802D01*
X1464840Y1829841D01*
X1465194Y1830509D01*
X1465351Y1830824D01*
X1465548Y1831060D01*
X1465705Y1831256D01*
X1465823Y1831413D01*
X1465901Y1831492D01*
X1465941Y1831531D01*
X1466451Y1832042D01*
X1466962Y1832435D01*
X1467159Y1832553D01*
X1467316Y1832671D01*
X1467434Y1832710D01*
X1467473Y1832749D01*
X1468102Y1833103D01*
X1468417Y1833221D01*
X1468692Y1833339D01*
X1468927Y1833418D01*
X1469124Y1833496D01*
X1469242Y1833535D01*
X1469281D01*
Y1833614D01*
X1468731Y1833889D01*
X1468220Y1834164D01*
X1468063Y1834243D01*
X1467906Y1834361D01*
X1467827Y1834400D01*
X1467788Y1834439D01*
X1467277Y1834872D01*
X1466844Y1835265D01*
X1466687Y1835422D01*
X1466569Y1835540D01*
X1466491Y1835618D01*
X1466451Y1835658D01*
X1466059Y1836169D01*
X1465783Y1836640D01*
X1465666Y1836837D01*
X1465587Y1836994D01*
X1465548Y1837112D01*
Y1837151D01*
X1465351Y1837780D01*
X1465273Y1838330D01*
X1465233Y1838566D01*
Y1838723D01*
Y1838841D01*
Y1838880D01*
X1465273Y1839391D01*
X1465312Y1839863D01*
X1465548Y1840767D01*
X1465823Y1841513D01*
X1466176Y1842142D01*
X1466530Y1842653D01*
X1466844Y1843007D01*
X1467080Y1843243D01*
X1467120Y1843321D01*
X1467159D01*
X1467552Y1843636D01*
X1467945Y1843871D01*
X1468888Y1844304D01*
X1469831Y1844618D01*
X1470774Y1844815D01*
X1471207Y1844854D01*
X1471600Y1844932D01*
X1471993Y1844972D01*
X1472307D01*
X1472582Y1845011D01*
X1473643D01*
X1474351Y1844972D01*
D02*
G37*
G36*
X1427269D02*
X1427859Y1844893D01*
X1428370Y1844854D01*
X1428841Y1844775D01*
X1429156Y1844697D01*
X1429392Y1844657D01*
X1429470D01*
X1430099Y1844540D01*
X1430688Y1844382D01*
X1431239Y1844225D01*
X1431710Y1844068D01*
X1432143Y1843950D01*
X1432418Y1843832D01*
X1432614Y1843754D01*
X1432693Y1843714D01*
X1431396Y1840216D01*
X1430531Y1840531D01*
X1430099Y1840649D01*
X1429745Y1840767D01*
X1429392Y1840845D01*
X1429156Y1840924D01*
X1428959Y1840963D01*
X1428920D01*
X1427938Y1841120D01*
X1427505Y1841160D01*
X1427151Y1841199D01*
X1426837Y1841238D01*
X1426366D01*
X1425580Y1841199D01*
X1424911Y1841081D01*
X1424322Y1840924D01*
X1423850Y1840727D01*
X1423457Y1840531D01*
X1423222Y1840374D01*
X1423025Y1840256D01*
X1422986Y1840216D01*
X1422593Y1839823D01*
X1422318Y1839391D01*
X1422082Y1838959D01*
X1421964Y1838527D01*
X1421885Y1838173D01*
X1421807Y1837859D01*
Y1837662D01*
Y1837583D01*
X1421846Y1837151D01*
X1421885Y1836758D01*
X1422003Y1836404D01*
X1422082Y1836090D01*
X1422200Y1835815D01*
X1422318Y1835618D01*
X1422357Y1835461D01*
X1422396Y1835422D01*
X1422829Y1834715D01*
X1423064Y1834400D01*
X1423261Y1834086D01*
X1423418Y1833850D01*
X1423575Y1833653D01*
X1423654Y1833535D01*
X1423693Y1833496D01*
X1433872Y1820802D01*
X1416619D01*
Y1824496D01*
X1426287D01*
X1420078Y1831492D01*
X1419685Y1831964D01*
X1419331Y1832357D01*
X1419213Y1832553D01*
X1419095Y1832671D01*
X1419056Y1832749D01*
X1419016Y1832789D01*
X1418623Y1833339D01*
X1418309Y1833811D01*
X1418191Y1834007D01*
X1418112Y1834164D01*
X1418034Y1834243D01*
Y1834282D01*
X1417759Y1834911D01*
X1417523Y1835422D01*
X1417444Y1835658D01*
X1417405Y1835815D01*
X1417366Y1835933D01*
Y1835972D01*
X1417209Y1836640D01*
X1417169Y1836955D01*
X1417130Y1837230D01*
X1417091Y1837466D01*
Y1837662D01*
Y1837780D01*
Y1837819D01*
X1417130Y1838448D01*
X1417169Y1838998D01*
X1417287Y1839548D01*
X1417444Y1840059D01*
X1417798Y1840963D01*
X1418230Y1841710D01*
X1418427Y1842024D01*
X1418663Y1842299D01*
X1418859Y1842535D01*
X1419016Y1842732D01*
X1419174Y1842889D01*
X1419252Y1843007D01*
X1419331Y1843046D01*
X1419370Y1843085D01*
X1419802Y1843439D01*
X1420313Y1843714D01*
X1420824Y1843989D01*
X1421335Y1844186D01*
X1422436Y1844540D01*
X1423497Y1844775D01*
X1424007Y1844854D01*
X1424479Y1844893D01*
X1424872Y1844972D01*
X1425265D01*
X1425540Y1845011D01*
X1426641D01*
X1427269Y1844972D01*
D02*
G37*
G36*
X1387891D02*
X1388480Y1844893D01*
X1388991Y1844854D01*
X1389463Y1844775D01*
X1389777Y1844697D01*
X1390013Y1844657D01*
X1390092D01*
X1390720Y1844540D01*
X1391310Y1844382D01*
X1391860Y1844225D01*
X1392332Y1844068D01*
X1392764Y1843950D01*
X1393039Y1843832D01*
X1393236Y1843754D01*
X1393314Y1843714D01*
X1392017Y1840216D01*
X1391153Y1840531D01*
X1390720Y1840649D01*
X1390367Y1840767D01*
X1390013Y1840845D01*
X1389777Y1840924D01*
X1389581Y1840963D01*
X1389541D01*
X1388559Y1841120D01*
X1388127Y1841160D01*
X1387773Y1841199D01*
X1387458Y1841238D01*
X1386987D01*
X1386201Y1841199D01*
X1385533Y1841081D01*
X1384943Y1840924D01*
X1384472Y1840727D01*
X1384079Y1840531D01*
X1383843Y1840374D01*
X1383646Y1840256D01*
X1383607Y1840216D01*
X1383214Y1839823D01*
X1382939Y1839391D01*
X1382703Y1838959D01*
X1382585Y1838527D01*
X1382507Y1838173D01*
X1382428Y1837859D01*
Y1837662D01*
Y1837583D01*
X1382467Y1837151D01*
X1382507Y1836758D01*
X1382625Y1836404D01*
X1382703Y1836090D01*
X1382821Y1835815D01*
X1382939Y1835618D01*
X1382978Y1835461D01*
X1383018Y1835422D01*
X1383450Y1834715D01*
X1383686Y1834400D01*
X1383882Y1834086D01*
X1384039Y1833850D01*
X1384197Y1833653D01*
X1384275Y1833535D01*
X1384314Y1833496D01*
X1394493Y1820802D01*
X1377241D01*
Y1824496D01*
X1386908D01*
X1380699Y1831492D01*
X1380306Y1831964D01*
X1379952Y1832357D01*
X1379834Y1832553D01*
X1379716Y1832671D01*
X1379677Y1832749D01*
X1379638Y1832789D01*
X1379245Y1833339D01*
X1378930Y1833811D01*
X1378812Y1834007D01*
X1378734Y1834164D01*
X1378655Y1834243D01*
Y1834282D01*
X1378380Y1834911D01*
X1378144Y1835422D01*
X1378066Y1835658D01*
X1378026Y1835815D01*
X1377987Y1835933D01*
Y1835972D01*
X1377830Y1836640D01*
X1377791Y1836955D01*
X1377751Y1837230D01*
X1377712Y1837466D01*
Y1837662D01*
Y1837780D01*
Y1837819D01*
X1377751Y1838448D01*
X1377791Y1838998D01*
X1377909Y1839548D01*
X1378066Y1840059D01*
X1378419Y1840963D01*
X1378852Y1841710D01*
X1379048Y1842024D01*
X1379284Y1842299D01*
X1379481Y1842535D01*
X1379638Y1842732D01*
X1379795Y1842889D01*
X1379874Y1843007D01*
X1379952Y1843046D01*
X1379992Y1843085D01*
X1380424Y1843439D01*
X1380935Y1843714D01*
X1381446Y1843989D01*
X1381957Y1844186D01*
X1383057Y1844540D01*
X1384118Y1844775D01*
X1384629Y1844854D01*
X1385101Y1844893D01*
X1385494Y1844972D01*
X1385887D01*
X1386162Y1845011D01*
X1387262D01*
X1387891Y1844972D01*
D02*
G37*
G36*
X1367730D02*
X1368359Y1844893D01*
X1368909Y1844854D01*
X1369420Y1844775D01*
X1369774Y1844697D01*
X1370009Y1844657D01*
X1370088D01*
X1370756Y1844540D01*
X1371385Y1844382D01*
X1371974Y1844225D01*
X1372446Y1844068D01*
X1372839Y1843950D01*
X1373153Y1843832D01*
X1373350Y1843754D01*
X1373428Y1843714D01*
X1372131Y1840216D01*
X1371228Y1840531D01*
X1370795Y1840649D01*
X1370402Y1840767D01*
X1370088Y1840845D01*
X1369813Y1840924D01*
X1369656Y1840963D01*
X1369577D01*
X1368594Y1841160D01*
X1368123Y1841199D01*
X1367730Y1841238D01*
X1367416Y1841278D01*
X1366944D01*
X1366276Y1841238D01*
X1365726Y1841160D01*
X1365254Y1841042D01*
X1364822Y1840924D01*
X1364507Y1840767D01*
X1364311Y1840649D01*
X1364154Y1840570D01*
X1364114Y1840531D01*
X1363800Y1840256D01*
X1363564Y1839902D01*
X1363368Y1839588D01*
X1363250Y1839273D01*
X1363171Y1838959D01*
X1363132Y1838723D01*
Y1838566D01*
Y1838527D01*
Y1838252D01*
X1363210Y1837976D01*
X1363368Y1837505D01*
X1363446Y1837308D01*
X1363525Y1837190D01*
X1363564Y1837112D01*
X1363603Y1837072D01*
X1363996Y1836640D01*
X1364389Y1836286D01*
X1364586Y1836129D01*
X1364743Y1836011D01*
X1364822Y1835972D01*
X1364861Y1835933D01*
X1365529Y1835579D01*
X1366158Y1835343D01*
X1366433Y1835225D01*
X1366669Y1835147D01*
X1366826Y1835108D01*
X1366865D01*
X1367769Y1834911D01*
X1368201Y1834832D01*
X1368634Y1834793D01*
X1368987Y1834754D01*
X1369263Y1834715D01*
X1369498D01*
Y1831413D01*
X1368594D01*
X1368084Y1831374D01*
X1367651Y1831335D01*
X1367258Y1831295D01*
X1366944Y1831217D01*
X1366669Y1831178D01*
X1366512Y1831138D01*
X1366472D01*
X1366040Y1831060D01*
X1365608Y1830942D01*
X1365254Y1830824D01*
X1364940Y1830706D01*
X1364704Y1830588D01*
X1364507Y1830509D01*
X1364389Y1830470D01*
X1364350Y1830431D01*
X1364036Y1830274D01*
X1363761Y1830077D01*
X1363486Y1829881D01*
X1363289Y1829684D01*
X1363132Y1829527D01*
X1363014Y1829409D01*
X1362975Y1829330D01*
X1362935Y1829291D01*
X1362778Y1829016D01*
X1362621Y1828741D01*
X1362503Y1828191D01*
X1362464Y1827994D01*
X1362424Y1827798D01*
Y1827680D01*
Y1827640D01*
X1362464Y1827090D01*
X1362621Y1826579D01*
X1362817Y1826147D01*
X1363014Y1825793D01*
X1363250Y1825518D01*
X1363446Y1825283D01*
X1363603Y1825165D01*
X1363643Y1825125D01*
X1364114Y1824811D01*
X1364665Y1824575D01*
X1365215Y1824418D01*
X1365765Y1824300D01*
X1366236Y1824221D01*
X1366630Y1824182D01*
X1367573D01*
X1368123Y1824221D01*
X1368634Y1824261D01*
X1369105Y1824300D01*
X1369498Y1824339D01*
X1369774Y1824379D01*
X1369970Y1824418D01*
X1370049D01*
X1370599Y1824536D01*
X1371070Y1824654D01*
X1371503Y1824772D01*
X1371896Y1824889D01*
X1372171Y1825007D01*
X1372407Y1825086D01*
X1372564Y1825165D01*
X1372603D01*
X1374018Y1821667D01*
X1373468Y1821470D01*
X1372878Y1821274D01*
X1372328Y1821117D01*
X1371817Y1820999D01*
X1371345Y1820881D01*
X1370992Y1820842D01*
X1370756Y1820763D01*
X1370677D01*
X1369970Y1820645D01*
X1369302Y1820566D01*
X1368634Y1820488D01*
X1368084Y1820449D01*
X1367612D01*
X1367219Y1820409D01*
X1366905D01*
X1366119Y1820449D01*
X1365372Y1820488D01*
X1364743Y1820566D01*
X1364154Y1820684D01*
X1363682Y1820763D01*
X1363368Y1820842D01*
X1363132Y1820881D01*
X1363053Y1820920D01*
X1362464Y1821117D01*
X1361914Y1821352D01*
X1361403Y1821588D01*
X1361010Y1821824D01*
X1360656Y1822060D01*
X1360420Y1822217D01*
X1360263Y1822335D01*
X1360224Y1822374D01*
X1359791Y1822728D01*
X1359438Y1823121D01*
X1359123Y1823514D01*
X1358887Y1823868D01*
X1358691Y1824182D01*
X1358534Y1824418D01*
X1358455Y1824614D01*
X1358416Y1824654D01*
X1358219Y1825165D01*
X1358062Y1825676D01*
X1357944Y1826186D01*
X1357866Y1826658D01*
X1357826Y1827051D01*
X1357787Y1827365D01*
Y1827562D01*
Y1827640D01*
Y1828073D01*
X1357866Y1828505D01*
X1357905Y1828859D01*
X1357984Y1829213D01*
X1358062Y1829448D01*
X1358141Y1829684D01*
X1358180Y1829802D01*
X1358219Y1829841D01*
X1358573Y1830509D01*
X1358730Y1830824D01*
X1358927Y1831060D01*
X1359084Y1831256D01*
X1359202Y1831413D01*
X1359280Y1831492D01*
X1359320Y1831531D01*
X1359831Y1832042D01*
X1360341Y1832435D01*
X1360538Y1832553D01*
X1360695Y1832671D01*
X1360813Y1832710D01*
X1360852Y1832749D01*
X1361481Y1833103D01*
X1361796Y1833221D01*
X1362071Y1833339D01*
X1362306Y1833418D01*
X1362503Y1833496D01*
X1362621Y1833535D01*
X1362660D01*
Y1833614D01*
X1362110Y1833889D01*
X1361599Y1834164D01*
X1361442Y1834243D01*
X1361285Y1834361D01*
X1361206Y1834400D01*
X1361167Y1834439D01*
X1360656Y1834872D01*
X1360224Y1835265D01*
X1360066Y1835422D01*
X1359948Y1835540D01*
X1359870Y1835618D01*
X1359831Y1835658D01*
X1359438Y1836169D01*
X1359162Y1836640D01*
X1359045Y1836837D01*
X1358966Y1836994D01*
X1358927Y1837112D01*
Y1837151D01*
X1358730Y1837780D01*
X1358652Y1838330D01*
X1358612Y1838566D01*
Y1838723D01*
Y1838841D01*
Y1838880D01*
X1358652Y1839391D01*
X1358691Y1839863D01*
X1358927Y1840767D01*
X1359202Y1841513D01*
X1359555Y1842142D01*
X1359909Y1842653D01*
X1360224Y1843007D01*
X1360459Y1843243D01*
X1360499Y1843321D01*
X1360538D01*
X1360931Y1843636D01*
X1361324Y1843871D01*
X1362267Y1844304D01*
X1363210Y1844618D01*
X1364154Y1844815D01*
X1364586Y1844854D01*
X1364979Y1844932D01*
X1365372Y1844972D01*
X1365686D01*
X1365961Y1845011D01*
X1367023D01*
X1367730Y1844972D01*
D02*
G37*
G36*
X1530628Y1838841D02*
X1531257Y1838802D01*
X1531807Y1838723D01*
X1532279Y1838645D01*
X1532633Y1838566D01*
X1532869Y1838527D01*
X1532908Y1838487D01*
X1532947D01*
X1533576Y1838330D01*
X1534126Y1838173D01*
X1534637Y1838055D01*
X1535030Y1837898D01*
X1535384Y1837780D01*
X1535620Y1837701D01*
X1535777Y1837662D01*
X1535816Y1837623D01*
X1534716Y1834597D01*
X1534362Y1834754D01*
X1534008Y1834832D01*
X1533733Y1834911D01*
X1533694Y1834950D01*
X1533655D01*
X1533183Y1835108D01*
X1532790Y1835186D01*
X1532633Y1835265D01*
X1532515D01*
X1532436Y1835304D01*
X1532397D01*
X1531886Y1835422D01*
X1531493Y1835501D01*
X1531296D01*
X1531179Y1835540D01*
X1531061D01*
X1530550Y1835618D01*
X1530118Y1835658D01*
X1529725D01*
X1529174Y1835618D01*
X1528703Y1835579D01*
X1528310Y1835461D01*
X1527956Y1835383D01*
X1527681Y1835265D01*
X1527484Y1835147D01*
X1527367Y1835108D01*
X1527327Y1835068D01*
X1527013Y1834832D01*
X1526816Y1834518D01*
X1526659Y1834204D01*
X1526541Y1833889D01*
X1526463Y1833575D01*
X1526423Y1833339D01*
Y1833182D01*
Y1833103D01*
Y1832199D01*
X1527170Y1832160D01*
X1527877Y1832081D01*
X1528545Y1832003D01*
X1529135Y1831924D01*
X1529607Y1831885D01*
X1530000Y1831806D01*
X1530235Y1831767D01*
X1530314D01*
X1530982Y1831649D01*
X1531611Y1831492D01*
X1532161Y1831335D01*
X1532672Y1831178D01*
X1533065Y1831060D01*
X1533340Y1830942D01*
X1533537Y1830863D01*
X1533615Y1830824D01*
X1534126Y1830588D01*
X1534598Y1830274D01*
X1534991Y1829998D01*
X1535305Y1829723D01*
X1535580Y1829448D01*
X1535777Y1829252D01*
X1535895Y1829095D01*
X1535934Y1829055D01*
X1536209Y1828584D01*
X1536445Y1828112D01*
X1536602Y1827640D01*
X1536681Y1827169D01*
X1536759Y1826737D01*
X1536799Y1826422D01*
Y1826186D01*
Y1826147D01*
Y1826108D01*
X1536759Y1825597D01*
X1536720Y1825165D01*
X1536484Y1824300D01*
X1536170Y1823593D01*
X1535816Y1823003D01*
X1535462Y1822532D01*
X1535148Y1822178D01*
X1534912Y1821981D01*
X1534873Y1821903D01*
X1534833D01*
X1534440Y1821628D01*
X1534008Y1821392D01*
X1533065Y1821038D01*
X1532043Y1820763D01*
X1531061Y1820606D01*
X1530628Y1820527D01*
X1530196Y1820488D01*
X1529803Y1820449D01*
X1529489D01*
X1529214Y1820409D01*
X1528074D01*
X1527367Y1820488D01*
X1526738Y1820527D01*
X1526148Y1820606D01*
X1525677Y1820684D01*
X1525323Y1820724D01*
X1525087Y1820802D01*
X1525008D01*
X1524340Y1820959D01*
X1523790Y1821077D01*
X1523319Y1821235D01*
X1522886Y1821352D01*
X1522572Y1821470D01*
X1522375Y1821588D01*
X1522218Y1821628D01*
X1522179Y1821667D01*
Y1832592D01*
Y1833221D01*
X1522257Y1833771D01*
X1522336Y1834282D01*
X1522454Y1834793D01*
X1522611Y1835225D01*
X1522768Y1835618D01*
X1522926Y1835972D01*
X1523083Y1836286D01*
X1523279Y1836562D01*
X1523437Y1836797D01*
X1523751Y1837151D01*
X1523947Y1837348D01*
X1523987Y1837426D01*
X1524026D01*
X1524773Y1837937D01*
X1525637Y1838291D01*
X1526502Y1838566D01*
X1527327Y1838723D01*
X1528074Y1838841D01*
X1528428Y1838880D01*
X1528703D01*
X1528938Y1838920D01*
X1529960D01*
X1530628Y1838841D01*
D02*
G37*
G36*
X1459338Y1831728D02*
X1458591Y1831846D01*
X1458277D01*
X1458002Y1831885D01*
X1457766Y1831924D01*
X1457452D01*
X1456823Y1831964D01*
X1456509Y1832003D01*
X1455133D01*
X1454583Y1831964D01*
X1454072Y1831924D01*
X1453600Y1831846D01*
X1453247Y1831806D01*
X1453011Y1831728D01*
X1452814Y1831688D01*
X1452775D01*
X1452343Y1831571D01*
X1451910Y1831413D01*
X1451557Y1831295D01*
X1451282Y1831138D01*
X1451046Y1831020D01*
X1450889Y1830902D01*
X1450771Y1830863D01*
X1450732Y1830824D01*
X1450456Y1830627D01*
X1450221Y1830391D01*
X1449867Y1829959D01*
X1449749Y1829802D01*
X1449670Y1829645D01*
X1449592Y1829566D01*
Y1829527D01*
X1449356Y1828937D01*
X1449238Y1828387D01*
X1449199Y1828191D01*
Y1827994D01*
Y1827876D01*
Y1827837D01*
X1449238Y1827208D01*
X1449395Y1826697D01*
X1449631Y1826226D01*
X1449867Y1825833D01*
X1450103Y1825518D01*
X1450339Y1825322D01*
X1450496Y1825165D01*
X1450535Y1825125D01*
X1451046Y1824811D01*
X1451635Y1824575D01*
X1452225Y1824418D01*
X1452775Y1824300D01*
X1453286Y1824221D01*
X1453718Y1824182D01*
X1454072D01*
X1455094Y1824221D01*
X1455565Y1824261D01*
X1456037Y1824300D01*
X1456391Y1824339D01*
X1456666Y1824379D01*
X1456862Y1824418D01*
X1456941D01*
X1457452Y1824536D01*
X1457923Y1824654D01*
X1458356Y1824772D01*
X1458709Y1824889D01*
X1459024Y1825007D01*
X1459220Y1825086D01*
X1459378Y1825165D01*
X1459417D01*
X1460832Y1821667D01*
X1459731Y1821313D01*
X1459181Y1821156D01*
X1458670Y1820999D01*
X1458238Y1820920D01*
X1457923Y1820842D01*
X1457688Y1820763D01*
X1457609D01*
X1456941Y1820645D01*
X1456273Y1820566D01*
X1455644Y1820488D01*
X1455094Y1820449D01*
X1454622D01*
X1454268Y1820409D01*
X1453954D01*
X1453207Y1820449D01*
X1452539Y1820488D01*
X1451871Y1820566D01*
X1451321Y1820645D01*
X1450889Y1820724D01*
X1450535Y1820802D01*
X1450299Y1820881D01*
X1450221D01*
X1449592Y1821077D01*
X1449042Y1821313D01*
X1448531Y1821549D01*
X1448059Y1821785D01*
X1447705Y1821981D01*
X1447470Y1822139D01*
X1447273Y1822256D01*
X1447234Y1822296D01*
X1446802Y1822689D01*
X1446409Y1823082D01*
X1446055Y1823475D01*
X1445780Y1823828D01*
X1445544Y1824143D01*
X1445387Y1824418D01*
X1445308Y1824575D01*
X1445269Y1824654D01*
X1445033Y1825204D01*
X1444876Y1825754D01*
X1444719Y1826304D01*
X1444640Y1826854D01*
X1444601Y1827287D01*
X1444561Y1827640D01*
Y1827876D01*
Y1827916D01*
Y1827955D01*
X1444601Y1828584D01*
X1444679Y1829173D01*
X1444797Y1829723D01*
X1444915Y1830274D01*
X1445112Y1830745D01*
X1445308Y1831178D01*
X1445505Y1831571D01*
X1445740Y1831964D01*
X1445976Y1832278D01*
X1446173Y1832553D01*
X1446369Y1832789D01*
X1446566Y1832985D01*
X1446684Y1833142D01*
X1446802Y1833260D01*
X1446880Y1833300D01*
X1446919Y1833339D01*
X1447391Y1833693D01*
X1447902Y1834007D01*
X1448413Y1834243D01*
X1449002Y1834479D01*
X1450181Y1834832D01*
X1451321Y1835068D01*
X1451832Y1835147D01*
X1452343Y1835186D01*
X1452775Y1835265D01*
X1453168D01*
X1453522Y1835304D01*
X1454622D01*
X1453954Y1840885D01*
X1445072D01*
Y1844579D01*
X1457884D01*
X1459338Y1831728D01*
D02*
G37*
G36*
X1544265Y1838880D02*
X1544816Y1838841D01*
X1545327Y1838723D01*
X1545798Y1838645D01*
X1546152Y1838527D01*
X1546466Y1838409D01*
X1546623Y1838369D01*
X1546702Y1838330D01*
X1547213Y1838094D01*
X1547685Y1837819D01*
X1548117Y1837544D01*
X1548471Y1837269D01*
X1548785Y1837033D01*
X1549021Y1836837D01*
X1549178Y1836679D01*
X1549217Y1836640D01*
X1549610Y1836208D01*
X1549964Y1835697D01*
X1550278Y1835225D01*
X1550514Y1834793D01*
X1550711Y1834361D01*
X1550868Y1834046D01*
X1550947Y1833850D01*
X1550986Y1833811D01*
Y1833771D01*
X1551182Y1833103D01*
X1551340Y1832396D01*
X1551457Y1831688D01*
X1551536Y1831060D01*
X1551575Y1830509D01*
X1551615Y1830038D01*
Y1829881D01*
Y1829763D01*
Y1829684D01*
Y1829645D01*
X1551575Y1828780D01*
X1551497Y1827994D01*
X1551418Y1827326D01*
X1551300Y1826737D01*
X1551182Y1826226D01*
X1551064Y1825872D01*
X1551025Y1825636D01*
X1550986Y1825597D01*
Y1825558D01*
X1550711Y1824929D01*
X1550436Y1824379D01*
X1550121Y1823868D01*
X1549846Y1823475D01*
X1549610Y1823121D01*
X1549414Y1822846D01*
X1549257Y1822689D01*
X1549217Y1822649D01*
X1548785Y1822256D01*
X1548353Y1821903D01*
X1547920Y1821628D01*
X1547527Y1821392D01*
X1547213Y1821195D01*
X1546938Y1821077D01*
X1546781Y1820999D01*
X1546702Y1820959D01*
X1546152Y1820763D01*
X1545602Y1820645D01*
X1545130Y1820527D01*
X1544659Y1820488D01*
X1544265Y1820449D01*
X1543990Y1820409D01*
X1543715D01*
X1542733Y1820449D01*
X1541829Y1820606D01*
X1541043Y1820802D01*
X1540335Y1820999D01*
X1539785Y1821235D01*
X1539550Y1821313D01*
X1539353Y1821392D01*
X1539196Y1821470D01*
X1539078Y1821549D01*
X1539039Y1821588D01*
X1538999D01*
X1540414Y1824968D01*
X1540846Y1824693D01*
X1541279Y1824496D01*
X1541711Y1824379D01*
X1542143Y1824300D01*
X1542497Y1824221D01*
X1542772Y1824182D01*
X1543047D01*
X1543597Y1824221D01*
X1544108Y1824339D01*
X1544305Y1824418D01*
X1544462Y1824457D01*
X1544541Y1824496D01*
X1544580D01*
X1545091Y1824811D01*
X1545484Y1825125D01*
X1545641Y1825283D01*
X1545720Y1825400D01*
X1545798Y1825479D01*
X1545838Y1825518D01*
X1546191Y1826108D01*
X1546427Y1826658D01*
X1546545Y1826894D01*
X1546623Y1827090D01*
X1546663Y1827208D01*
Y1827247D01*
X1546859Y1828073D01*
X1546899Y1828505D01*
X1546938Y1828859D01*
X1546977Y1829213D01*
Y1829448D01*
Y1829605D01*
Y1829684D01*
X1546938Y1830667D01*
X1546781Y1831531D01*
X1546623Y1832239D01*
X1546388Y1832828D01*
X1546191Y1833260D01*
X1545995Y1833575D01*
X1545877Y1833771D01*
X1545838Y1833850D01*
X1545405Y1834322D01*
X1544934Y1834636D01*
X1544462Y1834872D01*
X1544030Y1835068D01*
X1543637Y1835147D01*
X1543322Y1835186D01*
X1543126Y1835225D01*
X1543047D01*
X1542497Y1835186D01*
X1541986Y1835108D01*
X1541514Y1834990D01*
X1541121Y1834872D01*
X1540846Y1834715D01*
X1540611Y1834597D01*
X1540453Y1834518D01*
X1540414Y1834479D01*
X1538999Y1837701D01*
X1539785Y1838094D01*
X1540571Y1838409D01*
X1541357Y1838605D01*
X1542104Y1838762D01*
X1542733Y1838841D01*
X1543008Y1838880D01*
X1543244Y1838920D01*
X1543715D01*
X1544265Y1838880D01*
D02*
G37*
G36*
X1500289Y1829881D02*
Y1826658D01*
X1489639D01*
Y1820802D01*
X1485473D01*
Y1826658D01*
X1483115D01*
Y1829881D01*
X1485473D01*
Y1844579D01*
X1490385D01*
X1500289Y1829881D01*
D02*
G37*
G36*
X1507992Y1838330D02*
X1508345Y1838448D01*
X1508738Y1838527D01*
X1508896D01*
X1509013Y1838566D01*
X1509131D01*
X1509642Y1838645D01*
X1510074Y1838684D01*
X1510507D01*
X1511254Y1838645D01*
X1511922Y1838566D01*
X1512550Y1838487D01*
X1513061Y1838369D01*
X1513533Y1838212D01*
X1513847Y1838134D01*
X1514044Y1838055D01*
X1514122Y1838016D01*
X1514673Y1837741D01*
X1515184Y1837426D01*
X1515616Y1837112D01*
X1516009Y1836837D01*
X1516284Y1836562D01*
X1516520Y1836326D01*
X1516677Y1836169D01*
X1516716Y1836129D01*
X1517070Y1835658D01*
X1517424Y1835186D01*
X1517659Y1834715D01*
X1517895Y1834243D01*
X1518052Y1833850D01*
X1518210Y1833535D01*
X1518249Y1833339D01*
X1518288Y1833300D01*
Y1833260D01*
X1518445Y1832632D01*
X1518563Y1831964D01*
X1518681Y1831335D01*
X1518720Y1830745D01*
X1518760Y1830274D01*
X1518799Y1829881D01*
Y1829723D01*
Y1829605D01*
Y1829566D01*
Y1829527D01*
X1518760Y1828741D01*
X1518720Y1827994D01*
X1518603Y1827287D01*
X1518445Y1826658D01*
X1518288Y1826069D01*
X1518092Y1825518D01*
X1517895Y1825007D01*
X1517659Y1824536D01*
X1517463Y1824143D01*
X1517266Y1823789D01*
X1517070Y1823514D01*
X1516913Y1823239D01*
X1516755Y1823042D01*
X1516638Y1822925D01*
X1516598Y1822846D01*
X1516559Y1822807D01*
X1516127Y1822374D01*
X1515616Y1822021D01*
X1515105Y1821706D01*
X1514555Y1821431D01*
X1514005Y1821195D01*
X1513454Y1820999D01*
X1512393Y1820724D01*
X1511922Y1820606D01*
X1511450Y1820527D01*
X1511018Y1820488D01*
X1510664Y1820449D01*
X1510389Y1820409D01*
X1509210D01*
X1508503Y1820488D01*
X1507874Y1820527D01*
X1507284Y1820606D01*
X1506852Y1820684D01*
X1506498Y1820724D01*
X1506262Y1820802D01*
X1506184D01*
X1505555Y1820959D01*
X1505044Y1821077D01*
X1504572Y1821235D01*
X1504179Y1821352D01*
X1503865Y1821470D01*
X1503669Y1821588D01*
X1503511Y1821628D01*
X1503472Y1821667D01*
Y1846622D01*
X1507992D01*
Y1838330D01*
D02*
G37*
G36*
X1405497Y1844972D02*
X1406205Y1844854D01*
X1406833Y1844697D01*
X1407384Y1844540D01*
X1407816Y1844382D01*
X1408170Y1844225D01*
X1408366Y1844107D01*
X1408445Y1844068D01*
X1408995Y1843675D01*
X1409506Y1843243D01*
X1409938Y1842810D01*
X1410292Y1842417D01*
X1410606Y1842024D01*
X1410803Y1841710D01*
X1410960Y1841513D01*
X1410999Y1841474D01*
Y1841435D01*
X1411353Y1840806D01*
X1411628Y1840138D01*
X1411903Y1839470D01*
X1412100Y1838880D01*
X1412257Y1838330D01*
X1412375Y1837937D01*
X1412414Y1837780D01*
Y1837662D01*
X1412453Y1837583D01*
Y1837544D01*
X1412611Y1836679D01*
X1412728Y1835854D01*
X1412807Y1835029D01*
X1412846Y1834282D01*
X1412886Y1833653D01*
X1412925Y1833378D01*
Y1833142D01*
Y1832946D01*
Y1832828D01*
Y1832749D01*
Y1832710D01*
X1412886Y1831728D01*
X1412846Y1830824D01*
X1412768Y1829998D01*
X1412689Y1829291D01*
X1412611Y1828702D01*
X1412571Y1828427D01*
X1412532Y1828230D01*
X1412493Y1828073D01*
X1412453Y1827955D01*
Y1827876D01*
Y1827837D01*
X1412257Y1827012D01*
X1412021Y1826265D01*
X1411785Y1825597D01*
X1411549Y1825047D01*
X1411353Y1824575D01*
X1411156Y1824221D01*
X1411039Y1823986D01*
X1410999Y1823946D01*
Y1823907D01*
X1410606Y1823318D01*
X1410174Y1822807D01*
X1409742Y1822374D01*
X1409349Y1821981D01*
X1408995Y1821706D01*
X1408720Y1821470D01*
X1408523Y1821352D01*
X1408445Y1821313D01*
X1407816Y1820999D01*
X1407187Y1820802D01*
X1406558Y1820645D01*
X1405969Y1820527D01*
X1405458Y1820449D01*
X1405065Y1820409D01*
X1404711D01*
X1403925Y1820449D01*
X1403218Y1820566D01*
X1402589Y1820684D01*
X1402039Y1820881D01*
X1401607Y1821038D01*
X1401253Y1821156D01*
X1401056Y1821274D01*
X1400978Y1821313D01*
X1400428Y1821706D01*
X1399917Y1822099D01*
X1399484Y1822532D01*
X1399091Y1822964D01*
X1398816Y1823318D01*
X1398580Y1823632D01*
X1398463Y1823828D01*
X1398423Y1823907D01*
X1398070Y1824575D01*
X1397794Y1825243D01*
X1397519Y1825911D01*
X1397323Y1826501D01*
X1397166Y1827051D01*
X1397048Y1827444D01*
X1397008Y1827601D01*
Y1827719D01*
X1396969Y1827798D01*
Y1827837D01*
X1396812Y1828702D01*
X1396694Y1829527D01*
X1396615Y1830352D01*
X1396537Y1831099D01*
Y1831767D01*
X1396497Y1832042D01*
Y1832278D01*
Y1832435D01*
Y1832592D01*
Y1832671D01*
Y1832710D01*
Y1833653D01*
X1396576Y1834557D01*
X1396655Y1835383D01*
X1396733Y1836090D01*
X1396812Y1836719D01*
X1396851Y1836955D01*
X1396890Y1837151D01*
X1396930Y1837308D01*
Y1837426D01*
X1396969Y1837505D01*
Y1837544D01*
X1397166Y1838369D01*
X1397401Y1839116D01*
X1397637Y1839745D01*
X1397873Y1840334D01*
X1398070Y1840806D01*
X1398266Y1841160D01*
X1398384Y1841356D01*
X1398423Y1841435D01*
X1398816Y1842024D01*
X1399248Y1842574D01*
X1399681Y1843007D01*
X1400074Y1843400D01*
X1400428Y1843675D01*
X1400703Y1843911D01*
X1400899Y1844029D01*
X1400978Y1844068D01*
X1401607Y1844382D01*
X1402235Y1844618D01*
X1402864Y1844775D01*
X1403414Y1844893D01*
X1403925Y1844972D01*
X1404358Y1845011D01*
X1404711D01*
X1405497Y1844972D01*
D02*
G37*
G36*
X1328901Y1490125D02*
X1329901Y1490075D01*
X1330801Y1489925D01*
X1331651Y1489725D01*
X1332451Y1489525D01*
X1333201Y1489275D01*
X1333851Y1488975D01*
X1334501Y1488725D01*
X1335001Y1488475D01*
X1335501Y1488175D01*
X1335901Y1487925D01*
X1336251Y1487725D01*
X1336501Y1487525D01*
X1336701Y1487425D01*
X1336801Y1487325D01*
X1336851Y1487275D01*
X1337451Y1486725D01*
X1337951Y1486175D01*
X1338401Y1485575D01*
X1338801Y1484975D01*
X1339101Y1484425D01*
X1339401Y1483875D01*
X1339801Y1482775D01*
X1340001Y1481875D01*
X1340101Y1481475D01*
X1340151Y1481125D01*
X1340201Y1480875D01*
Y1479925D01*
X1340101Y1479325D01*
X1339851Y1478275D01*
X1339451Y1477275D01*
X1339051Y1476375D01*
X1338601Y1475675D01*
X1338401Y1475375D01*
X1338201Y1475125D01*
X1338051Y1474925D01*
X1337951Y1474775D01*
X1337901Y1474675D01*
X1337851Y1474625D01*
X1348051Y1476325D01*
Y1488675D01*
X1352501D01*
Y1473275D01*
X1332951Y1470225D01*
X1332401Y1473825D01*
X1333001Y1474175D01*
X1333551Y1474575D01*
X1334001Y1474925D01*
X1334401Y1475325D01*
X1334701Y1475675D01*
X1334951Y1475925D01*
X1335051Y1476125D01*
X1335101Y1476175D01*
X1335451Y1476775D01*
X1335701Y1477325D01*
X1335851Y1477875D01*
X1336001Y1478375D01*
X1336051Y1478825D01*
X1336101Y1479125D01*
Y1479975D01*
X1336001Y1480475D01*
X1335751Y1481425D01*
X1335401Y1482225D01*
X1335001Y1482925D01*
X1334551Y1483475D01*
X1334201Y1483875D01*
X1333951Y1484125D01*
X1333901Y1484225D01*
X1333851D01*
X1332951Y1484875D01*
X1331901Y1485325D01*
X1330851Y1485675D01*
X1329851Y1485875D01*
X1328951Y1486025D01*
X1328551Y1486075D01*
X1328201D01*
X1327951Y1486125D01*
X1327751D01*
X1327601D01*
X1327551D01*
X1326001Y1486025D01*
X1324651Y1485825D01*
X1323451Y1485475D01*
X1322951Y1485325D01*
X1322501Y1485125D01*
X1322101Y1484925D01*
X1321701Y1484775D01*
X1321401Y1484575D01*
X1321151Y1484425D01*
X1320951Y1484325D01*
X1320801Y1484225D01*
X1320751Y1484125D01*
X1320701D01*
X1320251Y1483775D01*
X1319901Y1483375D01*
X1319551Y1482975D01*
X1319301Y1482575D01*
X1318851Y1481775D01*
X1318551Y1481075D01*
X1318401Y1480425D01*
X1318301Y1479925D01*
X1318251Y1479725D01*
Y1479475D01*
X1318351Y1478675D01*
X1318551Y1477925D01*
X1318801Y1477275D01*
X1319151Y1476725D01*
X1319451Y1476275D01*
X1319751Y1475925D01*
X1319951Y1475725D01*
X1320001Y1475625D01*
X1320751Y1475075D01*
X1321601Y1474625D01*
X1322451Y1474275D01*
X1323351Y1474025D01*
X1324101Y1473825D01*
X1324451Y1473725D01*
X1324751Y1473675D01*
X1325001Y1473625D01*
X1325201Y1473575D01*
X1325301D01*
X1325351D01*
X1325001Y1469575D01*
X1324101Y1469675D01*
X1323251Y1469825D01*
X1322451Y1469975D01*
X1321651Y1470225D01*
X1321001Y1470475D01*
X1320351Y1470725D01*
X1319751Y1470975D01*
X1319251Y1471275D01*
X1318751Y1471525D01*
X1318351Y1471775D01*
X1318001Y1472025D01*
X1317701Y1472225D01*
X1317501Y1472425D01*
X1317351Y1472575D01*
X1317251Y1472625D01*
X1317201Y1472675D01*
X1316701Y1473225D01*
X1316301Y1473775D01*
X1315901Y1474325D01*
X1315601Y1474925D01*
X1315101Y1476075D01*
X1314751Y1477175D01*
X1314551Y1478075D01*
X1314501Y1478525D01*
X1314451Y1478875D01*
X1314401Y1479125D01*
Y1479525D01*
X1314451Y1480425D01*
X1314551Y1481275D01*
X1314751Y1482025D01*
X1315001Y1482775D01*
X1315301Y1483475D01*
X1315651Y1484125D01*
X1316001Y1484675D01*
X1316401Y1485225D01*
X1316751Y1485675D01*
X1317101Y1486125D01*
X1317451Y1486475D01*
X1317751Y1486725D01*
X1318001Y1486975D01*
X1318201Y1487125D01*
X1318301Y1487225D01*
X1318351Y1487275D01*
X1319101Y1487775D01*
X1319901Y1488225D01*
X1320701Y1488625D01*
X1321501Y1488975D01*
X1322301Y1489225D01*
X1323101Y1489475D01*
X1324601Y1489825D01*
X1325301Y1489925D01*
X1325901Y1490025D01*
X1326501Y1490075D01*
X1326951Y1490125D01*
X1327351Y1490175D01*
X1327651D01*
X1327851D01*
X1327901D01*
X1328901Y1490125D01*
D02*
G37*
G36*
X1325351Y1461775D02*
X1326301Y1461225D01*
X1327251Y1460675D01*
X1328051Y1460125D01*
X1328751Y1459675D01*
X1329351Y1459225D01*
X1329801Y1458875D01*
X1330101Y1458675D01*
X1330201Y1458575D01*
X1330601Y1458175D01*
X1330951Y1457775D01*
X1331651Y1456875D01*
X1331901Y1456525D01*
X1332101Y1456225D01*
X1332251Y1456025D01*
X1332301Y1455925D01*
X1332651Y1457425D01*
X1333101Y1458725D01*
X1333651Y1459875D01*
X1334251Y1460775D01*
X1334501Y1461175D01*
X1334801Y1461475D01*
X1335001Y1461775D01*
X1335251Y1462025D01*
X1335401Y1462175D01*
X1335551Y1462325D01*
X1335601Y1462425D01*
X1335651D01*
X1336201Y1462825D01*
X1336751Y1463175D01*
X1337901Y1463725D01*
X1339051Y1464125D01*
X1340151Y1464375D01*
X1341151Y1464575D01*
X1341551Y1464625D01*
X1341951D01*
X1342251Y1464675D01*
X1342451D01*
X1342601D01*
X1342651D01*
X1343851Y1464625D01*
X1344901Y1464475D01*
X1345901Y1464225D01*
X1346701Y1464025D01*
X1347401Y1463775D01*
X1347901Y1463525D01*
X1348101Y1463475D01*
X1348251Y1463375D01*
X1348301Y1463325D01*
X1348351D01*
X1349201Y1462825D01*
X1349951Y1462275D01*
X1350551Y1461675D01*
X1351051Y1461175D01*
X1351451Y1460675D01*
X1351701Y1460325D01*
X1351851Y1460075D01*
X1351901Y1459975D01*
X1352101Y1459575D01*
X1352251Y1459125D01*
X1352551Y1458125D01*
X1352751Y1457075D01*
X1352851Y1456025D01*
X1352951Y1455075D01*
Y1454625D01*
X1353001Y1454275D01*
Y1439825D01*
X1315051D01*
Y1443925D01*
X1331901D01*
Y1449425D01*
X1331801Y1450025D01*
X1331701Y1450575D01*
X1331601Y1451025D01*
X1331501Y1451425D01*
X1331401Y1451675D01*
X1331351Y1451825D01*
X1331301Y1451875D01*
X1331051Y1452325D01*
X1330751Y1452725D01*
X1330401Y1453125D01*
X1330001Y1453475D01*
X1329701Y1453775D01*
X1329401Y1454025D01*
X1329201Y1454175D01*
X1329151Y1454225D01*
X1328801Y1454475D01*
X1328401Y1454725D01*
X1327501Y1455325D01*
X1326451Y1455925D01*
X1325451Y1456525D01*
X1324451Y1457075D01*
X1324051Y1457275D01*
X1323651Y1457475D01*
X1323351Y1457625D01*
X1323101Y1457775D01*
X1322951Y1457825D01*
X1322901Y1457875D01*
X1315051Y1462025D01*
Y1467225D01*
X1325351Y1461775D01*
D02*
G37*
G36*
X1328126Y1547800D02*
X1352676D01*
Y1544650D01*
X1328126Y1530500D01*
X1323826D01*
Y1544000D01*
X1314726D01*
Y1547800D01*
X1323826D01*
Y1552000D01*
X1328126D01*
Y1547800D01*
D02*
G37*
G36*
X1325026Y1523950D02*
X1325976Y1523400D01*
X1326926Y1522850D01*
X1327726Y1522300D01*
X1328426Y1521850D01*
X1329026Y1521400D01*
X1329476Y1521050D01*
X1329776Y1520850D01*
X1329876Y1520750D01*
X1330276Y1520350D01*
X1330626Y1519950D01*
X1331326Y1519050D01*
X1331576Y1518700D01*
X1331776Y1518400D01*
X1331926Y1518200D01*
X1331976Y1518100D01*
X1332326Y1519600D01*
X1332776Y1520900D01*
X1333326Y1522050D01*
X1333926Y1522950D01*
X1334176Y1523350D01*
X1334476Y1523650D01*
X1334676Y1523950D01*
X1334926Y1524200D01*
X1335076Y1524350D01*
X1335226Y1524500D01*
X1335276Y1524600D01*
X1335326D01*
X1335876Y1525000D01*
X1336426Y1525350D01*
X1337576Y1525900D01*
X1338726Y1526300D01*
X1339826Y1526550D01*
X1340826Y1526750D01*
X1341226Y1526800D01*
X1341626D01*
X1341926Y1526850D01*
X1342126D01*
X1342276D01*
X1342326D01*
X1343526Y1526800D01*
X1344576Y1526650D01*
X1345576Y1526400D01*
X1346376Y1526200D01*
X1347076Y1525950D01*
X1347576Y1525700D01*
X1347776Y1525650D01*
X1347926Y1525550D01*
X1347976Y1525500D01*
X1348026D01*
X1348876Y1525000D01*
X1349626Y1524450D01*
X1350226Y1523850D01*
X1350726Y1523350D01*
X1351126Y1522850D01*
X1351376Y1522500D01*
X1351526Y1522250D01*
X1351576Y1522150D01*
X1351776Y1521750D01*
X1351926Y1521300D01*
X1352226Y1520300D01*
X1352426Y1519250D01*
X1352526Y1518200D01*
X1352626Y1517250D01*
Y1516800D01*
X1352676Y1516450D01*
Y1502000D01*
X1314726D01*
Y1506100D01*
X1331576D01*
Y1511600D01*
X1331476Y1512200D01*
X1331376Y1512750D01*
X1331276Y1513200D01*
X1331176Y1513600D01*
X1331076Y1513850D01*
X1331026Y1514000D01*
X1330976Y1514050D01*
X1330726Y1514500D01*
X1330426Y1514900D01*
X1330076Y1515300D01*
X1329676Y1515650D01*
X1329376Y1515950D01*
X1329076Y1516200D01*
X1328876Y1516350D01*
X1328826Y1516400D01*
X1328476Y1516650D01*
X1328076Y1516900D01*
X1327176Y1517500D01*
X1326126Y1518100D01*
X1325126Y1518700D01*
X1324126Y1519250D01*
X1323726Y1519450D01*
X1323326Y1519650D01*
X1323026Y1519800D01*
X1322776Y1519950D01*
X1322626Y1520000D01*
X1322576Y1520050D01*
X1314726Y1524200D01*
Y1529400D01*
X1325026Y1523950D01*
D02*
G37*
%LPC*%
G36*
X1563483Y1860299D02*
X1563287D01*
Y1854915D01*
X1563601Y1854797D01*
X1563955Y1854718D01*
X1564112Y1854679D01*
X1564269D01*
X1564348Y1854640D01*
X1564387D01*
X1564898Y1854600D01*
X1565370Y1854561D01*
X1565802D01*
X1566431Y1854600D01*
X1566981Y1854679D01*
X1567453Y1854757D01*
X1567845Y1854915D01*
X1568160Y1855033D01*
X1568356Y1855111D01*
X1568514Y1855190D01*
X1568553Y1855229D01*
X1568867Y1855504D01*
X1569064Y1855819D01*
X1569221Y1856172D01*
X1569339Y1856487D01*
X1569418Y1856762D01*
X1569457Y1856998D01*
Y1857155D01*
Y1857194D01*
X1569418Y1857548D01*
X1569378Y1857862D01*
X1569300Y1858137D01*
X1569182Y1858334D01*
X1569103Y1858530D01*
X1569024Y1858648D01*
X1568985Y1858727D01*
X1568946Y1858766D01*
X1568514Y1859159D01*
X1568081Y1859434D01*
X1567885Y1859552D01*
X1567728Y1859631D01*
X1567649Y1859670D01*
X1567610D01*
X1566942Y1859906D01*
X1566352Y1860024D01*
X1566077Y1860063D01*
X1565880Y1860102D01*
X1565684D01*
X1564819Y1860181D01*
X1564426Y1860220D01*
X1564073Y1860259D01*
X1563758D01*
X1563483Y1860299D01*
D02*
G37*
G36*
X1584273Y1866626D02*
X1583998D01*
X1583408Y1866587D01*
X1582937Y1866469D01*
X1582504Y1866312D01*
X1582151Y1866115D01*
X1581836Y1865919D01*
X1581640Y1865762D01*
X1581522Y1865644D01*
X1581483Y1865604D01*
X1581168Y1865211D01*
X1580972Y1864740D01*
X1580814Y1864229D01*
X1580697Y1863757D01*
X1580618Y1863286D01*
X1580579Y1862932D01*
Y1862696D01*
Y1862657D01*
Y1862618D01*
X1588046Y1861596D01*
X1587967Y1862460D01*
X1587810Y1863207D01*
X1587653Y1863875D01*
X1587417Y1864386D01*
X1587220Y1864818D01*
X1587024Y1865093D01*
X1586906Y1865290D01*
X1586867Y1865329D01*
X1586434Y1865762D01*
X1585963Y1866076D01*
X1585491Y1866312D01*
X1585020Y1866469D01*
X1584627Y1866547D01*
X1584273Y1866626D01*
D02*
G37*
G36*
X1438470D02*
X1438195D01*
X1437605Y1866587D01*
X1437134Y1866469D01*
X1436701Y1866312D01*
X1436348Y1866115D01*
X1436033Y1865919D01*
X1435837Y1865762D01*
X1435719Y1865644D01*
X1435680Y1865604D01*
X1435365Y1865211D01*
X1435169Y1864740D01*
X1435012Y1864229D01*
X1434894Y1863757D01*
X1434815Y1863286D01*
X1434776Y1862932D01*
Y1862696D01*
Y1862657D01*
Y1862618D01*
X1442243Y1861596D01*
X1442164Y1862460D01*
X1442007Y1863207D01*
X1441850Y1863875D01*
X1441614Y1864386D01*
X1441417Y1864818D01*
X1441221Y1865093D01*
X1441103Y1865290D01*
X1441064Y1865329D01*
X1440631Y1865762D01*
X1440160Y1866076D01*
X1439688Y1866312D01*
X1439217Y1866469D01*
X1438824Y1866547D01*
X1438470Y1866626D01*
D02*
G37*
G36*
X1394886Y1872403D02*
X1394454D01*
X1393629Y1872364D01*
X1392921Y1872246D01*
X1392332Y1872050D01*
X1391782Y1871774D01*
X1391349Y1871460D01*
X1390995Y1871106D01*
X1390681Y1870753D01*
X1390445Y1870399D01*
X1390249Y1870006D01*
X1390092Y1869652D01*
X1390013Y1869299D01*
X1389934Y1868984D01*
X1389895Y1868748D01*
X1389856Y1868513D01*
Y1868395D01*
Y1868355D01*
X1389895Y1867687D01*
X1390052Y1867098D01*
X1390249Y1866587D01*
X1390485Y1866194D01*
X1390760Y1865840D01*
X1390956Y1865604D01*
X1391113Y1865447D01*
X1391153Y1865408D01*
X1391664Y1865054D01*
X1392253Y1864779D01*
X1392882Y1864622D01*
X1393471Y1864465D01*
X1394022Y1864386D01*
X1394493Y1864347D01*
X1395319D01*
X1395711Y1864386D01*
X1396026D01*
X1396340Y1864425D01*
X1396537Y1864465D01*
X1396733D01*
X1396812Y1864504D01*
X1396851D01*
Y1872050D01*
X1396497Y1872167D01*
X1396144Y1872246D01*
X1396026D01*
X1395908Y1872285D01*
X1395790D01*
X1395279Y1872364D01*
X1394886Y1872403D01*
D02*
G37*
G36*
X1508660Y1872443D02*
X1508188D01*
X1507363Y1872403D01*
X1506695Y1872285D01*
X1506105Y1872167D01*
X1505634Y1872010D01*
X1505280Y1871814D01*
X1505005Y1871696D01*
X1504848Y1871578D01*
X1504808Y1871539D01*
X1504455Y1871185D01*
X1504179Y1870753D01*
X1503983Y1870360D01*
X1503826Y1869927D01*
X1503747Y1869574D01*
X1503708Y1869299D01*
Y1869102D01*
Y1869023D01*
X1503747Y1868395D01*
X1503786Y1868120D01*
X1503865Y1867884D01*
X1503904Y1867687D01*
X1503983Y1867530D01*
X1504022Y1867451D01*
Y1867412D01*
X1504297Y1866940D01*
X1504533Y1866587D01*
X1504769Y1866351D01*
X1504808Y1866312D01*
X1504848Y1866272D01*
X1505280Y1865997D01*
X1505673Y1865840D01*
X1505869Y1865762D01*
X1505987Y1865722D01*
X1506066Y1865683D01*
X1506105D01*
X1506380Y1865604D01*
X1506695Y1865565D01*
X1507323Y1865526D01*
X1507599Y1865486D01*
X1510939D01*
Y1872050D01*
X1510585Y1872167D01*
X1510192Y1872246D01*
X1510035Y1872285D01*
X1509878Y1872325D01*
X1509760D01*
X1509171Y1872403D01*
X1508660Y1872443D01*
D02*
G37*
G36*
X1510939Y1862225D02*
X1507520D01*
X1507127Y1862185D01*
X1506813Y1862146D01*
X1506537D01*
X1506302Y1862107D01*
X1506145Y1862067D01*
X1506066Y1862028D01*
X1506027D01*
X1505516Y1861871D01*
X1505123Y1861674D01*
X1504966Y1861556D01*
X1504848Y1861517D01*
X1504769Y1861438D01*
X1504730D01*
X1504219Y1861045D01*
X1503865Y1860613D01*
X1503590Y1860142D01*
X1503433Y1859631D01*
X1503315Y1859198D01*
X1503276Y1858845D01*
X1503236Y1858609D01*
Y1858570D01*
Y1858530D01*
X1503276Y1857901D01*
X1503433Y1857312D01*
X1503708Y1856840D01*
X1503983Y1856408D01*
X1504376Y1856054D01*
X1504808Y1855779D01*
X1505241Y1855543D01*
X1505673Y1855347D01*
X1506145Y1855190D01*
X1506577Y1855072D01*
X1507009Y1854993D01*
X1507363Y1854915D01*
X1507677D01*
X1507952Y1854875D01*
X1508149D01*
X1508699Y1854915D01*
X1509210Y1854954D01*
X1509406D01*
X1509564Y1854993D01*
X1509681D01*
X1510192Y1855072D01*
X1510585Y1855190D01*
X1510743Y1855229D01*
X1510861D01*
X1510900Y1855268D01*
X1510939D01*
Y1862225D01*
D02*
G37*
G36*
X1375668Y1872050D02*
X1374765D01*
X1374332Y1871971D01*
X1373939Y1871892D01*
X1373625Y1871814D01*
X1373350Y1871735D01*
X1373153Y1871657D01*
X1372996Y1871617D01*
X1372957Y1871578D01*
X1372564Y1871381D01*
X1372210Y1871146D01*
X1371935Y1870910D01*
X1371660Y1870674D01*
X1371424Y1870438D01*
X1371267Y1870242D01*
X1371188Y1870124D01*
X1371149Y1870084D01*
X1370874Y1869691D01*
X1370638Y1869259D01*
X1370442Y1868788D01*
X1370284Y1868395D01*
X1370167Y1868002D01*
X1370088Y1867726D01*
X1370009Y1867530D01*
Y1867451D01*
X1369852Y1866823D01*
X1369774Y1866194D01*
X1369695Y1865565D01*
X1369616Y1864976D01*
Y1864465D01*
X1369577Y1864032D01*
Y1863875D01*
Y1863796D01*
Y1863718D01*
Y1863679D01*
Y1862853D01*
X1369656Y1862146D01*
X1369695Y1861478D01*
X1369774Y1860928D01*
X1369852Y1860456D01*
X1369931Y1860102D01*
X1369970Y1859906D01*
X1370009Y1859827D01*
X1370167Y1859277D01*
X1370363Y1858766D01*
X1370560Y1858334D01*
X1370717Y1857941D01*
X1370874Y1857626D01*
X1371031Y1857430D01*
X1371110Y1857273D01*
X1371149Y1857233D01*
X1371424Y1856880D01*
X1371738Y1856565D01*
X1372053Y1856330D01*
X1372328Y1856094D01*
X1372564Y1855937D01*
X1372760Y1855819D01*
X1372918Y1855779D01*
X1372957Y1855740D01*
X1373350Y1855583D01*
X1373743Y1855465D01*
X1374097Y1855386D01*
X1374450Y1855347D01*
X1374765Y1855308D01*
X1375000Y1855268D01*
X1375708D01*
X1376140Y1855308D01*
X1376533Y1855386D01*
X1376808Y1855426D01*
X1377044Y1855504D01*
X1377241Y1855543D01*
X1377319Y1855583D01*
X1377358D01*
Y1871735D01*
X1377044Y1871853D01*
X1376690Y1871932D01*
X1375983Y1872010D01*
X1375668Y1872050D01*
D02*
G37*
G36*
X1296597Y1872403D02*
X1296440D01*
X1296086Y1872364D01*
X1295772Y1872324D01*
X1295457Y1872207D01*
X1295221Y1872089D01*
X1295025Y1871971D01*
X1294868Y1871892D01*
X1294789Y1871814D01*
X1294750Y1871774D01*
X1294514Y1871499D01*
X1294278Y1871224D01*
X1293925Y1870635D01*
X1293767Y1870360D01*
X1293689Y1870163D01*
X1293610Y1870006D01*
Y1869966D01*
X1293453Y1869534D01*
X1293335Y1869063D01*
X1293217Y1868591D01*
X1293139Y1868159D01*
X1293060Y1867805D01*
X1293021Y1867491D01*
X1292981Y1867294D01*
Y1867216D01*
X1292824Y1865997D01*
X1292785Y1865408D01*
Y1864858D01*
X1292745Y1864386D01*
Y1863993D01*
Y1863757D01*
Y1863718D01*
Y1863678D01*
Y1862971D01*
X1292785Y1862303D01*
X1292824Y1861714D01*
X1292863Y1861203D01*
X1292903Y1860770D01*
X1292942Y1860417D01*
X1292981Y1860220D01*
Y1860141D01*
X1293060Y1859591D01*
X1293178Y1859041D01*
X1293256Y1858570D01*
X1293374Y1858177D01*
X1293453Y1857862D01*
X1293532Y1857587D01*
X1293571Y1857430D01*
X1293610Y1857390D01*
X1293767Y1856997D01*
X1293964Y1856644D01*
X1294160Y1856329D01*
X1294357Y1856094D01*
X1294514Y1855897D01*
X1294632Y1855740D01*
X1294710Y1855661D01*
X1294750Y1855622D01*
X1295025Y1855426D01*
X1295300Y1855268D01*
X1295575Y1855150D01*
X1295850Y1855072D01*
X1296086Y1855033D01*
X1296283Y1854993D01*
X1296440D01*
X1296793Y1855033D01*
X1297108Y1855111D01*
X1297422Y1855190D01*
X1297658Y1855308D01*
X1297854Y1855426D01*
X1298012Y1855543D01*
X1298090Y1855583D01*
X1298130Y1855622D01*
X1298365Y1855897D01*
X1298601Y1856172D01*
X1298994Y1856762D01*
X1299112Y1856997D01*
X1299230Y1857194D01*
X1299269Y1857351D01*
X1299309Y1857390D01*
X1299584Y1858334D01*
X1299702Y1858766D01*
X1299780Y1859198D01*
X1299859Y1859591D01*
X1299898Y1859866D01*
X1299937Y1860063D01*
Y1860141D01*
X1300055Y1861360D01*
X1300095Y1861989D01*
Y1862499D01*
X1300134Y1862971D01*
Y1863364D01*
Y1863600D01*
Y1863639D01*
Y1863678D01*
Y1864386D01*
X1300095Y1865054D01*
X1300055Y1865643D01*
X1300016Y1866194D01*
Y1866626D01*
X1299977Y1866940D01*
X1299937Y1867137D01*
Y1867216D01*
X1299859Y1867805D01*
X1299741Y1868316D01*
X1299662Y1868787D01*
X1299544Y1869180D01*
X1299466Y1869534D01*
X1299387Y1869770D01*
X1299309Y1869927D01*
Y1869966D01*
X1299112Y1870399D01*
X1298916Y1870753D01*
X1298719Y1871067D01*
X1298523Y1871303D01*
X1298365Y1871499D01*
X1298247Y1871656D01*
X1298169Y1871735D01*
X1298130Y1871774D01*
X1297854Y1871971D01*
X1297579Y1872128D01*
X1297265Y1872246D01*
X1297029Y1872324D01*
X1296793Y1872364D01*
X1296597Y1872403D01*
D02*
G37*
G36*
X1526620Y1829330D02*
X1526423D01*
Y1823946D01*
X1526738Y1823828D01*
X1527091Y1823750D01*
X1527249Y1823710D01*
X1527406D01*
X1527484Y1823671D01*
X1527524D01*
X1528035Y1823632D01*
X1528506Y1823593D01*
X1528938D01*
X1529567Y1823632D01*
X1530118Y1823710D01*
X1530589Y1823789D01*
X1530982Y1823946D01*
X1531296Y1824064D01*
X1531493Y1824143D01*
X1531650Y1824221D01*
X1531689Y1824261D01*
X1532004Y1824536D01*
X1532200Y1824850D01*
X1532358Y1825204D01*
X1532476Y1825518D01*
X1532554Y1825793D01*
X1532593Y1826029D01*
Y1826186D01*
Y1826226D01*
X1532554Y1826579D01*
X1532515Y1826894D01*
X1532436Y1827169D01*
X1532318Y1827365D01*
X1532240Y1827562D01*
X1532161Y1827680D01*
X1532122Y1827758D01*
X1532082Y1827798D01*
X1531650Y1828191D01*
X1531218Y1828466D01*
X1531021Y1828584D01*
X1530864Y1828662D01*
X1530786Y1828702D01*
X1530746D01*
X1530078Y1828937D01*
X1529489Y1829055D01*
X1529214Y1829095D01*
X1529017Y1829134D01*
X1528821D01*
X1527956Y1829213D01*
X1527563Y1829252D01*
X1527209Y1829291D01*
X1526895D01*
X1526620Y1829330D01*
D02*
G37*
G36*
X1489481Y1840649D02*
X1489403D01*
Y1840531D01*
Y1840413D01*
Y1840020D01*
X1489442Y1839863D01*
Y1839706D01*
Y1839588D01*
Y1839548D01*
X1489481Y1838880D01*
Y1838527D01*
Y1838212D01*
Y1837937D01*
Y1837741D01*
Y1837583D01*
Y1837544D01*
Y1829881D01*
X1496398D01*
X1491014Y1837937D01*
X1490857Y1838173D01*
X1490700Y1838409D01*
X1490621Y1838566D01*
X1490582Y1838645D01*
X1490425Y1838959D01*
X1490267Y1839234D01*
X1490149Y1839391D01*
X1490110Y1839470D01*
X1489953Y1839745D01*
X1489835Y1839981D01*
X1489756Y1840138D01*
X1489717Y1840177D01*
X1489599Y1840374D01*
X1489521Y1840531D01*
X1489481Y1840610D01*
Y1840649D01*
D02*
G37*
G36*
X1510271Y1835304D02*
X1509642D01*
X1509249Y1835265D01*
X1509131Y1835225D01*
X1509013D01*
X1508935Y1835186D01*
X1508896D01*
X1508503Y1835108D01*
X1508188Y1835029D01*
X1508031Y1834990D01*
X1507992Y1834950D01*
Y1824261D01*
X1508267Y1824143D01*
X1508542Y1824064D01*
X1508778Y1824025D01*
X1508856Y1823986D01*
X1508896D01*
X1509328Y1823946D01*
X1509721Y1823907D01*
X1510074D01*
X1510782Y1823986D01*
X1511450Y1824143D01*
X1511961Y1824379D01*
X1512432Y1824654D01*
X1512786Y1824929D01*
X1513061Y1825165D01*
X1513218Y1825322D01*
X1513258Y1825400D01*
X1513611Y1826029D01*
X1513887Y1826697D01*
X1514083Y1827405D01*
X1514201Y1828073D01*
X1514280Y1828662D01*
X1514319Y1828937D01*
X1514358Y1829173D01*
Y1829330D01*
Y1829488D01*
Y1829566D01*
Y1829605D01*
X1514319Y1830509D01*
X1514201Y1831295D01*
X1514005Y1832003D01*
X1513808Y1832592D01*
X1513611Y1833064D01*
X1513415Y1833418D01*
X1513297Y1833614D01*
X1513258Y1833693D01*
X1512786Y1834243D01*
X1512275Y1834636D01*
X1511764Y1834911D01*
X1511254Y1835108D01*
X1510782Y1835225D01*
X1510428Y1835265D01*
X1510271Y1835304D01*
D02*
G37*
G36*
X1404868Y1841435D02*
X1404711D01*
X1404358Y1841396D01*
X1404043Y1841356D01*
X1403729Y1841238D01*
X1403493Y1841120D01*
X1403296Y1841003D01*
X1403139Y1840924D01*
X1403061Y1840845D01*
X1403021Y1840806D01*
X1402785Y1840531D01*
X1402550Y1840256D01*
X1402196Y1839666D01*
X1402039Y1839391D01*
X1401960Y1839195D01*
X1401882Y1839037D01*
Y1838998D01*
X1401724Y1838566D01*
X1401607Y1838094D01*
X1401489Y1837623D01*
X1401410Y1837190D01*
X1401331Y1836837D01*
X1401292Y1836522D01*
X1401253Y1836326D01*
Y1836247D01*
X1401096Y1835029D01*
X1401056Y1834439D01*
Y1833889D01*
X1401017Y1833418D01*
Y1833025D01*
Y1832789D01*
Y1832749D01*
Y1832710D01*
Y1832003D01*
X1401056Y1831335D01*
X1401096Y1830745D01*
X1401135Y1830234D01*
X1401174Y1829802D01*
X1401214Y1829448D01*
X1401253Y1829252D01*
Y1829173D01*
X1401331Y1828623D01*
X1401449Y1828073D01*
X1401528Y1827601D01*
X1401646Y1827208D01*
X1401724Y1826894D01*
X1401803Y1826619D01*
X1401842Y1826461D01*
X1401882Y1826422D01*
X1402039Y1826029D01*
X1402235Y1825676D01*
X1402432Y1825361D01*
X1402628Y1825125D01*
X1402785Y1824929D01*
X1402903Y1824772D01*
X1402982Y1824693D01*
X1403021Y1824654D01*
X1403296Y1824457D01*
X1403572Y1824300D01*
X1403847Y1824182D01*
X1404122Y1824103D01*
X1404358Y1824064D01*
X1404554Y1824025D01*
X1404711D01*
X1405065Y1824064D01*
X1405379Y1824143D01*
X1405694Y1824221D01*
X1405929Y1824339D01*
X1406126Y1824457D01*
X1406283Y1824575D01*
X1406362Y1824614D01*
X1406401Y1824654D01*
X1406637Y1824929D01*
X1406873Y1825204D01*
X1407266Y1825793D01*
X1407384Y1826029D01*
X1407502Y1826226D01*
X1407541Y1826383D01*
X1407580Y1826422D01*
X1407855Y1827365D01*
X1407973Y1827798D01*
X1408052Y1828230D01*
X1408130Y1828623D01*
X1408170Y1828898D01*
X1408209Y1829095D01*
Y1829173D01*
X1408327Y1830391D01*
X1408366Y1831020D01*
Y1831531D01*
X1408405Y1832003D01*
Y1832396D01*
Y1832632D01*
Y1832671D01*
Y1832710D01*
Y1833418D01*
X1408366Y1834086D01*
X1408327Y1834675D01*
X1408287Y1835225D01*
Y1835658D01*
X1408248Y1835972D01*
X1408209Y1836169D01*
Y1836247D01*
X1408130Y1836837D01*
X1408012Y1837348D01*
X1407934Y1837819D01*
X1407816Y1838212D01*
X1407737Y1838566D01*
X1407659Y1838802D01*
X1407580Y1838959D01*
Y1838998D01*
X1407384Y1839430D01*
X1407187Y1839784D01*
X1406991Y1840099D01*
X1406794Y1840334D01*
X1406637Y1840531D01*
X1406519Y1840688D01*
X1406440Y1840767D01*
X1406401Y1840806D01*
X1406126Y1841003D01*
X1405851Y1841160D01*
X1405536Y1841278D01*
X1405301Y1841356D01*
X1405065Y1841396D01*
X1404868Y1841435D01*
D02*
G37*
G36*
X1343101Y1460425D02*
X1342901D01*
X1342751D01*
X1342651D01*
X1342601D01*
X1341901Y1460375D01*
X1341201Y1460275D01*
X1340601Y1460125D01*
X1340101Y1459975D01*
X1339701Y1459825D01*
X1339351Y1459675D01*
X1339151Y1459575D01*
X1339101Y1459525D01*
X1338601Y1459175D01*
X1338151Y1458775D01*
X1337751Y1458375D01*
X1337451Y1457975D01*
X1337201Y1457625D01*
X1337051Y1457375D01*
X1336951Y1457175D01*
X1336901Y1457125D01*
X1336701Y1456525D01*
X1336551Y1455825D01*
X1336401Y1455075D01*
X1336351Y1454375D01*
X1336301Y1453725D01*
X1336251Y1453225D01*
Y1443925D01*
X1348801D01*
Y1453725D01*
X1348751Y1454875D01*
X1348551Y1455925D01*
X1348301Y1456775D01*
X1348001Y1457475D01*
X1347651Y1458025D01*
X1347401Y1458425D01*
X1347201Y1458625D01*
X1347151Y1458725D01*
X1346501Y1459275D01*
X1345751Y1459725D01*
X1345001Y1460025D01*
X1344251Y1460225D01*
X1343601Y1460325D01*
X1343101Y1460425D01*
D02*
G37*
G36*
X1345176Y1544000D02*
X1328126D01*
Y1534200D01*
X1345176Y1544000D01*
D02*
G37*
G36*
X1342776Y1522600D02*
X1342576D01*
X1342426D01*
X1342326D01*
X1342276D01*
X1341576Y1522550D01*
X1340876Y1522450D01*
X1340276Y1522300D01*
X1339776Y1522150D01*
X1339376Y1522000D01*
X1339026Y1521850D01*
X1338826Y1521750D01*
X1338776Y1521700D01*
X1338276Y1521350D01*
X1337826Y1520950D01*
X1337426Y1520550D01*
X1337126Y1520150D01*
X1336876Y1519800D01*
X1336726Y1519550D01*
X1336626Y1519350D01*
X1336576Y1519300D01*
X1336376Y1518700D01*
X1336226Y1518000D01*
X1336076Y1517250D01*
X1336026Y1516550D01*
X1335976Y1515900D01*
X1335926Y1515400D01*
Y1506100D01*
X1348476D01*
Y1515900D01*
X1348426Y1517050D01*
X1348226Y1518100D01*
X1347976Y1518950D01*
X1347676Y1519650D01*
X1347326Y1520200D01*
X1347076Y1520600D01*
X1346876Y1520800D01*
X1346826Y1520900D01*
X1346176Y1521450D01*
X1345426Y1521900D01*
X1344676Y1522200D01*
X1343926Y1522400D01*
X1343276Y1522500D01*
X1342776Y1522600D01*
D02*
G37*
%LPD*%
D79*
X1535433Y1095204D02*
G03*
X1417323Y1213314I-118110J0D01*
G01*
X1178839D02*
G03*
X1130816Y1196974I0J-78740D01*
G01*
X1417323Y977094D02*
G03*
X1535433Y1095204I0J118110D01*
G01*
X1187297Y977094D02*
G03*
X1109323Y909312I0J-78740D01*
G01*
X922791Y1036878D02*
G03*
X877865Y959716I72035J-93600D01*
G01*
X828551Y608833D02*
G03*
X1062473Y575958I116961J-16438D01*
G01*
X1386773Y1213314D02*
X1532225Y1067863D01*
X1330205Y1213314D02*
X1514885Y1028634D01*
X1273636Y1213314D02*
X1487066Y999884D01*
X1217068Y1213314D02*
X1448970Y981413D01*
X1447177Y1209479D02*
X1531598Y1125059D01*
X1431457Y977942D02*
X1534584Y1081070D01*
X1178839Y1213314D02*
X1417323D01*
X1162264Y1211550D02*
X1396720Y977094D01*
X1124857Y1192388D02*
X1340151Y977094D01*
X1092890Y1167787D02*
X1283583Y977094D01*
X1187297D02*
X1417323D01*
X1060923Y1143185D02*
X1227014Y977094D01*
X1317471D02*
X1509468Y1169091D01*
X1317471Y977094D02*
X1509468Y1169091D01*
X1204334Y977094D02*
X1438619Y1211379D01*
X1260902Y977094D02*
X1479458Y1195649D01*
X1374040Y977094D02*
X1529404Y1132458D01*
X1028956Y1118583D02*
X1171955Y975585D01*
X996990Y1093982D02*
X1134343Y956628D01*
X965023Y1069380D02*
X1112242Y922161D01*
X1062473Y575958D02*
X1109323Y909312D01*
X995439Y485357D02*
X1052551Y542468D01*
X965022Y1069380D02*
X1112242Y922160D01*
X864322Y863356D02*
X1214280Y1213314D01*
X855072Y797537D02*
X1270849Y1213314D01*
X845822Y731718D02*
X1327417Y1213314D01*
X836572Y665900D02*
X1383986Y1213314D01*
X922791Y1036878D02*
X1130816Y1196974D01*
X933056Y1044778D02*
X1104295Y873538D01*
X873572Y929175D02*
X1153535Y1209138D01*
X896411Y1008581D02*
X931110Y1043281D01*
X903315Y1017950D02*
X1097325Y823940D01*
X883103Y981594D02*
X1090354Y774342D01*
X874235Y933893D02*
X1083383Y724745D01*
X867265Y884295D02*
X1076413Y675146D01*
X860294Y834697D02*
X1069442Y625549D01*
X855869Y515492D02*
X1086370Y745992D01*
X855869Y515492D02*
X1086370Y745992D01*
X827676Y600436D02*
X1104870Y877630D01*
X834870Y551062D02*
X1095620Y811811D01*
X886837Y489891D02*
X1077120Y680174D01*
X928964Y475450D02*
X1067869Y614355D01*
X853324Y785099D02*
X1062472Y575951D01*
X846353Y735501D02*
X1048060Y533794D01*
X828551Y608833D02*
X877865Y959716D01*
X839383Y685903D02*
X1022479Y502807D01*
X832412Y636305D02*
X986931Y481786D01*
X827667Y584481D02*
X937598Y474551D01*
D80*
X1355286Y766308D02*
G03*
X1355286Y766308I-4921J0D01*
G01*
X654499Y329300D02*
G03*
X654499Y329300I-4921J0D01*
G01*
X1905512Y641378D02*
G03*
X1905512Y641378I-4921J0D01*
G01*
X1980286Y1211190D02*
G03*
X1980286Y1211190I-4921J0D01*
G01*
X463554Y445442D02*
G03*
X463554Y445442I-4921J0D01*
G01*
X529866Y955866D02*
G03*
X529866Y955866I-4921J0D01*
G01*
X685995Y756466D02*
G03*
X685995Y756466I-4921J0D01*
G01*
X1162373Y526151D02*
G03*
X1162373Y526151I-4921J0D01*
G01*
D81*
X661389Y276151D02*
Y287962D01*
X783436Y276151D02*
Y287962D01*
X661389D02*
X783436D01*
X661389Y276151D02*
X783436D01*
X1797215Y1000560D02*
X1931074D01*
X1797215Y1197411D02*
X1931074D01*
X1797215Y1000560D02*
Y1197411D01*
X1931074Y1000560D02*
Y1197411D01*
X1871159Y1321155D02*
X1906514Y1285800D01*
X2099994Y1479280D02*
X2144814Y1524101D01*
X1991701Y1370987D02*
X2044595Y1423881D01*
X1906514Y1285800D02*
X1919320Y1298606D01*
X1905402Y1763513D02*
X2144814Y1524101D01*
X1667101Y1525214D02*
X1679907Y1538020D01*
X1752287Y1610401D02*
X1805181Y1663294D01*
X1860581Y1718694D02*
X1905402Y1763513D01*
X1667101Y1525214D02*
X1702456Y1489858D01*
X702892Y15458D02*
X742892Y15458D01*
X702892Y165458D02*
X742892Y165458D01*
X499971Y457253D02*
X511782D01*
X499971Y579300D02*
X511782D01*
X499971Y457253D02*
Y579300D01*
X511782Y457253D02*
Y579300D01*
X450892Y289458D02*
Y329458D01*
X600892Y289458D02*
Y329458D01*
X1182701Y1554000D02*
X1304701D01*
Y1431000D02*
Y1554000D01*
X1182701Y1431000D02*
X1304701D01*
X1182701D02*
Y1554000D01*
D82*
X800103Y1146191D02*
X842530Y1188617D01*
X877885Y1068409D02*
X920312Y1110835D01*
X892027Y1195688D02*
X927383Y1160333D01*
X793032Y1096693D02*
X828388Y1061338D01*
%TF.MD5,5b7ab3be6f5828b6599d9ce77d19b43f*%
M02*
