%TF.GenerationSoftware,Altium Limited,Altium Designer,23.4.1 (23)*%
G04 Layer_Color=128*
%FSLAX26Y26*%
%MOIN*%
%TF.SameCoordinates,1F395C4B-4EE4-4E32-9856-E664E5071CD5*%
%TF.FilePolarity,Positive*%
%TF.FileFunction,Paste,Bot*%
%TF.Part,CustomerPanel*%
G01*
G75*
%TA.AperFunction,SMDPad,CuDef*%
G04:AMPARAMS|DCode=11|XSize=39.37mil|YSize=35.433mil|CornerRadius=8.858mil|HoleSize=0mil|Usage=FLASHONLY|Rotation=0.000|XOffset=0mil|YOffset=0mil|HoleType=Round|Shape=RoundedRectangle|*
%AMROUNDEDRECTD11*
21,1,0.039370,0.017717,0,0,0.0*
21,1,0.021654,0.035433,0,0,0.0*
1,1,0.017716,0.010827,-0.008858*
1,1,0.017716,-0.010827,-0.008858*
1,1,0.017716,-0.010827,0.008858*
1,1,0.017716,0.010827,0.008858*
%
%ADD11ROUNDEDRECTD11*%
G04:AMPARAMS|DCode=13|XSize=39.37mil|YSize=35.433mil|CornerRadius=8.858mil|HoleSize=0mil|Usage=FLASHONLY|Rotation=315.000|XOffset=0mil|YOffset=0mil|HoleType=Round|Shape=RoundedRectangle|*
%AMROUNDEDRECTD13*
21,1,0.039370,0.017717,0,0,315.0*
21,1,0.021654,0.035433,0,0,315.0*
1,1,0.017716,0.001392,-0.013920*
1,1,0.017716,-0.013920,0.001392*
1,1,0.017716,-0.001392,0.013920*
1,1,0.017716,0.013920,-0.001392*
%
%ADD13ROUNDEDRECTD13*%
G04:AMPARAMS|DCode=14|XSize=39.37mil|YSize=35.433mil|CornerRadius=8.858mil|HoleSize=0mil|Usage=FLASHONLY|Rotation=90.000|XOffset=0mil|YOffset=0mil|HoleType=Round|Shape=RoundedRectangle|*
%AMROUNDEDRECTD14*
21,1,0.039370,0.017717,0,0,90.0*
21,1,0.021654,0.035433,0,0,90.0*
1,1,0.017716,0.008858,0.010827*
1,1,0.017716,0.008858,-0.010827*
1,1,0.017716,-0.008858,-0.010827*
1,1,0.017716,-0.008858,0.010827*
%
%ADD14ROUNDEDRECTD14*%
%ADD15R,0.039370X0.023622*%
G04:AMPARAMS|DCode=16|XSize=23.622mil|YSize=39.37mil|CornerRadius=5.906mil|HoleSize=0mil|Usage=FLASHONLY|Rotation=90.000|XOffset=0mil|YOffset=0mil|HoleType=Round|Shape=RoundedRectangle|*
%AMROUNDEDRECTD16*
21,1,0.023622,0.027559,0,0,90.0*
21,1,0.011811,0.039370,0,0,90.0*
1,1,0.011811,0.013780,0.005906*
1,1,0.011811,0.013780,-0.005906*
1,1,0.011811,-0.013780,-0.005906*
1,1,0.011811,-0.013780,0.005906*
%
%ADD16ROUNDEDRECTD16*%
G04:AMPARAMS|DCode=21|XSize=70.866mil|YSize=51.181mil|CornerRadius=12.795mil|HoleSize=0mil|Usage=FLASHONLY|Rotation=270.000|XOffset=0mil|YOffset=0mil|HoleType=Round|Shape=RoundedRectangle|*
%AMROUNDEDRECTD21*
21,1,0.070866,0.025591,0,0,270.0*
21,1,0.045276,0.051181,0,0,270.0*
1,1,0.025590,-0.012795,-0.022638*
1,1,0.025590,-0.012795,0.022638*
1,1,0.025590,0.012795,0.022638*
1,1,0.025590,0.012795,-0.022638*
%
%ADD21ROUNDEDRECTD21*%
%TA.AperFunction,FiducialPad,Global*%
%ADD26C,0.059055*%
%TA.AperFunction,SMDPad,CuDef*%
G04:AMPARAMS|DCode=55|XSize=151.575mil|YSize=84.646mil|CornerRadius=21.161mil|HoleSize=0mil|Usage=FLASHONLY|Rotation=0.000|XOffset=0mil|YOffset=0mil|HoleType=Round|Shape=RoundedRectangle|*
%AMROUNDEDRECTD55*
21,1,0.151575,0.042323,0,0,0.0*
21,1,0.109252,0.084646,0,0,0.0*
1,1,0.042323,0.054626,-0.021162*
1,1,0.042323,-0.054626,-0.021162*
1,1,0.042323,-0.054626,0.021162*
1,1,0.042323,0.054626,0.021162*
%
%ADD55ROUNDEDRECTD55*%
G04:AMPARAMS|DCode=56|XSize=62.992mil|YSize=84.646mil|CornerRadius=15.748mil|HoleSize=0mil|Usage=FLASHONLY|Rotation=0.000|XOffset=0mil|YOffset=0mil|HoleType=Round|Shape=RoundedRectangle|*
%AMROUNDEDRECTD56*
21,1,0.062992,0.053150,0,0,0.0*
21,1,0.031496,0.084646,0,0,0.0*
1,1,0.031496,0.015748,-0.026575*
1,1,0.031496,-0.015748,-0.026575*
1,1,0.031496,-0.015748,0.026575*
1,1,0.031496,0.015748,0.026575*
%
%ADD56ROUNDEDRECTD56*%
%ADD57R,0.062992X0.084646*%
G04:AMPARAMS|DCode=58|XSize=39.37mil|YSize=35.433mil|CornerRadius=8.858mil|HoleSize=0mil|Usage=FLASHONLY|Rotation=45.000|XOffset=0mil|YOffset=0mil|HoleType=Round|Shape=RoundedRectangle|*
%AMROUNDEDRECTD58*
21,1,0.039370,0.017717,0,0,45.0*
21,1,0.021654,0.035433,0,0,45.0*
1,1,0.017716,0.013920,0.001392*
1,1,0.017716,-0.001392,-0.013920*
1,1,0.017716,-0.013920,-0.001392*
1,1,0.017716,0.001392,0.013920*
%
%ADD58ROUNDEDRECTD58*%
%ADD59R,0.157480X0.078740*%
G04:AMPARAMS|DCode=60|XSize=27.559mil|YSize=51.181mil|CornerRadius=6.89mil|HoleSize=0mil|Usage=FLASHONLY|Rotation=270.000|XOffset=0mil|YOffset=0mil|HoleType=Round|Shape=RoundedRectangle|*
%AMROUNDEDRECTD60*
21,1,0.027559,0.037401,0,0,270.0*
21,1,0.013780,0.051181,0,0,270.0*
1,1,0.013780,-0.018701,-0.006890*
1,1,0.013780,-0.018701,0.006890*
1,1,0.013780,0.018701,0.006890*
1,1,0.013780,0.018701,-0.006890*
%
%ADD60ROUNDEDRECTD60*%
%ADD61R,0.051181X0.027559*%
%ADD62R,0.078740X0.157480*%
G04:AMPARAMS|DCode=63|XSize=27.559mil|YSize=51.181mil|CornerRadius=6.89mil|HoleSize=0mil|Usage=FLASHONLY|Rotation=180.000|XOffset=0mil|YOffset=0mil|HoleType=Round|Shape=RoundedRectangle|*
%AMROUNDEDRECTD63*
21,1,0.027559,0.037401,0,0,180.0*
21,1,0.013780,0.051181,0,0,180.0*
1,1,0.013780,-0.006890,0.018701*
1,1,0.013780,0.006890,0.018701*
1,1,0.013780,0.006890,-0.018701*
1,1,0.013780,-0.006890,-0.018701*
%
%ADD63ROUNDEDRECTD63*%
%ADD64R,0.027559X0.051181*%
G04:AMPARAMS|DCode=65|XSize=35.433mil|YSize=31.496mil|CornerRadius=0mil|HoleSize=0mil|Usage=FLASHONLY|Rotation=135.000|XOffset=0mil|YOffset=0mil|HoleType=Round|Shape=Rectangle|*
%AMROTATEDRECTD65*
4,1,4,0.023663,-0.001392,0.001392,-0.023663,-0.023663,0.001392,-0.001392,0.023663,0.023663,-0.001392,0.0*
%
%ADD65ROTATEDRECTD65*%

%ADD66R,0.057087X0.023622*%
G04:AMPARAMS|DCode=67|XSize=23.622mil|YSize=57.087mil|CornerRadius=5.906mil|HoleSize=0mil|Usage=FLASHONLY|Rotation=90.000|XOffset=0mil|YOffset=0mil|HoleType=Round|Shape=RoundedRectangle|*
%AMROUNDEDRECTD67*
21,1,0.023622,0.045276,0,0,90.0*
21,1,0.011811,0.057087,0,0,90.0*
1,1,0.011811,0.022638,0.005906*
1,1,0.011811,0.022638,-0.005906*
1,1,0.011811,-0.022638,-0.005906*
1,1,0.011811,-0.022638,0.005906*
%
%ADD67ROUNDEDRECTD67*%
G04:AMPARAMS|DCode=68|XSize=90.551mil|YSize=125.984mil|CornerRadius=11.319mil|HoleSize=0mil|Usage=FLASHONLY|Rotation=180.000|XOffset=0mil|YOffset=0mil|HoleType=Round|Shape=RoundedRectangle|*
%AMROUNDEDRECTD68*
21,1,0.090551,0.103347,0,0,180.0*
21,1,0.067913,0.125984,0,0,180.0*
1,1,0.022638,-0.033957,0.051673*
1,1,0.022638,0.033957,0.051673*
1,1,0.022638,0.033957,-0.051673*
1,1,0.022638,-0.033957,-0.051673*
%
%ADD68ROUNDEDRECTD68*%
G04:AMPARAMS|DCode=69|XSize=55.118mil|YSize=47.244mil|CornerRadius=0mil|HoleSize=0mil|Usage=FLASHONLY|Rotation=45.000|XOffset=0mil|YOffset=0mil|HoleType=Round|Shape=Rectangle|*
%AMROTATEDRECTD69*
4,1,4,-0.002784,-0.036191,-0.036191,-0.002784,0.002784,0.036191,0.036191,0.002784,-0.002784,-0.036191,0.0*
%
%ADD69ROTATEDRECTD69*%

G04:AMPARAMS|DCode=70|XSize=11.811mil|YSize=57.087mil|CornerRadius=0mil|HoleSize=0mil|Usage=FLASHONLY|Rotation=315.000|XOffset=0mil|YOffset=0mil|HoleType=Round|Shape=Rectangle|*
%AMROTATEDRECTD70*
4,1,4,-0.024359,-0.016007,0.016007,0.024359,0.024359,0.016007,-0.016007,-0.024359,-0.024359,-0.016007,0.0*
%
%ADD70ROTATEDRECTD70*%

G04:AMPARAMS|DCode=71|XSize=23.622mil|YSize=57.087mil|CornerRadius=0mil|HoleSize=0mil|Usage=FLASHONLY|Rotation=315.000|XOffset=0mil|YOffset=0mil|HoleType=Round|Shape=Rectangle|*
%AMROTATEDRECTD71*
4,1,4,-0.028535,-0.011832,0.011832,0.028535,0.028535,0.011832,-0.011832,-0.028535,-0.028535,-0.011832,0.0*
%
%ADD71ROTATEDRECTD71*%

D11*
X37000Y1066496D02*
D03*
Y1003504D02*
D03*
X1025000Y583504D02*
D03*
Y646496D02*
D03*
X179000Y1026496D02*
D03*
Y963504D02*
D03*
X417827Y807933D02*
D03*
Y870926D02*
D03*
X240129Y437568D02*
D03*
Y500560D02*
D03*
X515719Y116702D02*
D03*
Y53710D02*
D03*
X1712570Y1177726D02*
D03*
Y1240718D02*
D03*
X1651546Y1179694D02*
D03*
Y1242686D02*
D03*
X636192Y1333962D02*
D03*
Y1396954D02*
D03*
D13*
X322217Y1001351D02*
D03*
X366759Y1045893D02*
D03*
X314921Y1446187D02*
D03*
X359463Y1490729D02*
D03*
X135921Y1450187D02*
D03*
X180463Y1494729D02*
D03*
X203345Y1426375D02*
D03*
X158803Y1381833D02*
D03*
X133463Y1541729D02*
D03*
X88921Y1497187D02*
D03*
X547833Y1298422D02*
D03*
X503291Y1253880D02*
D03*
D14*
X1283465Y1015748D02*
D03*
X1220472D02*
D03*
X260680Y882795D02*
D03*
X197688D02*
D03*
X259496Y810000D02*
D03*
X196504D02*
D03*
X238160Y587174D02*
D03*
X301152D02*
D03*
X1649577Y1299773D02*
D03*
X1712570D02*
D03*
X1515719Y957253D02*
D03*
X1578711D02*
D03*
X1531467Y1236781D02*
D03*
X1594459D02*
D03*
X1460601Y957253D02*
D03*
X1397609D02*
D03*
X711688Y1526458D02*
D03*
X648696D02*
D03*
X388695Y1588458D02*
D03*
X451688D02*
D03*
X911389Y1463159D02*
D03*
X848396D02*
D03*
X848396Y1522214D02*
D03*
X911388D02*
D03*
D15*
X287373Y723001D02*
D03*
X956664Y732844D02*
D03*
X763751Y559615D02*
D03*
X131244Y922402D02*
D03*
D16*
X192885Y685600D02*
D03*
X287373Y648198D02*
D03*
X956664Y658041D02*
D03*
X862176Y695442D02*
D03*
X763751Y634418D02*
D03*
X858239Y597017D02*
D03*
X131244Y847598D02*
D03*
X36756Y885000D02*
D03*
D21*
X736192Y1669852D02*
D03*
X846428D02*
D03*
D26*
X956026Y227159D02*
D03*
X1931247Y960332D02*
D03*
X390444Y1746072D02*
D03*
D55*
X1358268Y851378D02*
D03*
D56*
X1267716Y621063D02*
D03*
X1358268Y621063D02*
D03*
D57*
X1448819Y621063D02*
D03*
D58*
X280800Y1134607D02*
D03*
X325342Y1090064D02*
D03*
X268334Y1050563D02*
D03*
X223792Y1095106D02*
D03*
X400195Y1362147D02*
D03*
X355653Y1406689D02*
D03*
X449408Y1411360D02*
D03*
X404865Y1455902D02*
D03*
X305921Y1247729D02*
D03*
X350463Y1203187D02*
D03*
D59*
X132192Y374458D02*
D03*
Y244458D02*
D03*
D60*
X159420Y480875D02*
D03*
Y518277D02*
D03*
Y555678D02*
D03*
X64932D02*
D03*
Y518277D02*
D03*
D61*
Y480875D02*
D03*
D62*
X264192Y90458D02*
D03*
X394192D02*
D03*
D63*
X291310Y234812D02*
D03*
X328711Y234812D02*
D03*
X366113Y234812D02*
D03*
Y329300D02*
D03*
X328711Y329300D02*
D03*
D64*
X291310Y329300D02*
D03*
D65*
X607679Y1271945D02*
D03*
X568704Y1232971D02*
D03*
D66*
X1581664Y1177726D02*
D03*
D67*
Y1138356D02*
D03*
Y1098986D02*
D03*
Y1059616D02*
D03*
Y1020245D02*
D03*
X1359223Y1177726D02*
D03*
Y1138356D02*
D03*
Y1098986D02*
D03*
Y1059616D02*
D03*
Y1020245D02*
D03*
D68*
X1470444Y1098986D02*
D03*
D69*
X537217Y1135584D02*
D03*
X473578Y1199224D02*
D03*
X459435Y1057802D02*
D03*
X395796Y1121442D02*
D03*
D70*
X1467299Y1382259D02*
D03*
X1453380Y1396178D02*
D03*
X1369863Y1479695D02*
D03*
X1383783Y1465775D02*
D03*
X1411621Y1437936D02*
D03*
X1425541Y1424017D02*
D03*
X1397702Y1451856D02*
D03*
X1439460Y1410098D02*
D03*
D71*
X1328105Y1521453D02*
D03*
X1509057Y1340500D02*
D03*
X1486786Y1362772D02*
D03*
X1350376Y1499182D02*
D03*
%TF.MD5,6522007a34c731a3af7b9c39740044ff*%
M02*
