M48
;Layer_Color=9474304
;FILE_FORMAT=2:5
INCH
;TYPE=PLATED
T1F00S00C0.00787
T3F00S00C0.03500
T4F00S00C0.03600
T5F00S00C0.03937
T6F00S00C0.05500
T7F00S00C0.05512
T8F00S00C0.08661
T9F00S00C0.12598
%
T01
X0018119Y0006246
X0016658Y0015607
X0012202Y0031343
X0009249
X0006296
X0026701Y0030236
X0030145Y0028172
X0037549Y0027880
X0033793Y0019572
X0044700Y0021000
X0045384Y0015410
X0046419Y0010446
X0046019Y0034946
X0050919Y0035446
X0024419Y0036346
X0024505Y0023481
X0175031Y0123313
X0176419Y0137546
Y0140217
X0169619Y0133946
X0164381Y0133732
X0151106Y0140521
X0142119Y0136399
X0138919Y0132346
X0136119Y0141546
X0133855Y0144796
X0145033Y0148115
X0143152Y0150013
X0148553Y0119112
X0149210Y0114229
X0144879
X0144879Y0109899
X0149210
Y0105568
X0144879
X0151226Y0099480
X0151800Y0089200
X0134646Y0092126
X0135619Y0098546
X0129528Y0095991
X0128497Y0110468
X0125119Y0108546
X0127519Y0118246
X0126772Y0071653
X0129134
Y0069291
X0126772
X0124409
Y0071653
X0133465Y0071653
X0135827
X0138189
Y0069291
X0135827
X0133465
X0142520Y0069291
X0144882
X0147244
Y0071653
X0144882
X0142520
X0162919Y0103846
X0163519Y0106546
X0172200Y0111438
X0070100Y0110800
X0067819Y0108346
X0059800Y0106600
X0057641Y0116959
X0051819Y0117546
X0041119Y0118646
X0040539Y0125226
X0036399Y0128966
X0041995Y0134239
X0049019Y0134346
X0047519Y0131946
X0047319Y0138758
X0051819Y0136146
X0058514Y0151289
X0060406Y0149403
X0066019Y0156546
X0070258Y0156400
X0064818Y0164032
X0067800Y0170900
X0064619Y0174246
X0058100Y0167700
X0053946Y0160440
X0046919Y0161896
X0042000Y0161600
X0041419Y0153132
X0039319Y0151046
X0021219Y0154246
X0020100Y0161900
X0028300Y0162200
X0025519Y0141246
X0020219Y0138556
X0021031Y0116593
X0032519Y0116946
X0041608Y0107400
X0052925Y0096083
X0073200Y0095100
X0076300Y0099700
X0075419Y0119546
X0065211Y0118811
X0061378Y0121178
X0073119Y0131646
X0074988Y0133832
X0077973Y0130296
X0081100Y0153400
X0091019Y0070451
X0072438Y0067127
Y0059065
X0048919Y0042546
X0036808Y0039565
X0031219Y0041446
X0028519Y0050246
X0026532Y0056242
X0020606Y0053954
X0020665Y0043406
X0028439Y0075564
X0029100Y0083300
X0028295Y0096102
X0022174Y0099900
X0045919Y0081446
X0045500Y0076800
X0017693Y0084400
X0015000Y0088600
X0014942Y0099139
X0015165Y0109064
X0017465Y0106764
X0013484Y0115059
X0009113Y0114778
X0007769Y0117204
X0005120Y0121780
X0001673Y0126213
Y0133071
X0004345
X0007100Y0137700
X0009000Y0128600
X0016515Y0141661
X0016319Y0156546
X0015919Y0059046
X0011021Y0058346
X0002519Y0057246
X0007283Y0044251
T03
X0078119Y0082146
X0088119
X0098119
X0108119
X0109919Y0135446
X0119919
Y0145446
X0109919
Y0155446
X0119919Y0155446
X0109919Y0165446
X0099919
X0099919Y0155446
Y0145446
X0099919Y0135446
T04
X0069919Y0125446
X0069919Y0135446
X0069919Y0145446
X0069919Y0175446
X0079919
X0089919Y0175446
X0099919
X0109919Y0175446
X0119919Y0175446
X0129919
X0139919Y0175446
Y0125446
X0129919Y0125446
X0119919Y0125446
X0109919Y0125446
X0099919
X0089919Y0125446
X0079919Y0125446
T05
X0058419Y0010903
Y0020746
Y0030588
X0058119Y0092146
X0068119
X0078119
X0088119
X0098119
X0108119
X0034249Y0089426
Y0079584
X0010233Y0077615
Y0067773
Y0098481
Y0108324
X0087755Y0194913
X0097598
X0107440
X0117283
T06
X0094485Y0058717
T07
X0114485Y0058717
T08
X0193304Y0144901
X0144092Y0194544
T09
X0055181Y0059240
X0102362Y0109520
M30
