M48
;Layer_Color=9474304
;FILE_FORMAT=2:5
INCH
;TYPE=PLATED
T1F00S00C0.00787
T3F00S00C0.03500
T4F00S00C0.03600
T5F00S00C0.03937
T6F00S00C0.05500
T7F00S00C0.05512
T8F00S00C0.08661
T9F00S00C0.12598
%
T01
X0057489Y0006246
X0056028Y0015607
X0051572Y0031343
X0048619
X0045666
X0066071Y0030236
X0069515Y0028172
X0076920Y0027880
X0073163Y0019572
X0084070Y0021000
X0084754Y0015410
X0085789Y0010446
X0085389Y0034946
X0090289Y0035446
X0063789Y0036346
X0063875Y0023481
X0214401Y0123313
X0215789Y0137546
Y0140217
X0208989Y0133946
X0203751Y0133732
X0190476Y0140521
X0181489Y0136399
X0178289Y0132346
X0175489Y0141546
X0173225Y0144796
X0184403Y0148115
X0182522Y0150013
X0187923Y0119112
X0188580Y0114229
X0188580Y0109899
Y0105568
X0184249
X0184249Y0109899
X0184249Y0114229
X0167867Y0110468
X0164489Y0108546
X0166889Y0118246
X0168898Y0095991
X0174989Y0098546
X0174016Y0092126
X0191170Y0089200
X0190596Y0099480
X0202289Y0103846
X0202889Y0106546
X0211570Y0111438
X0186614Y0071653
Y0069291
X0184252
X0181890
Y0071653
X0184252
X0177559Y0071653
X0175197
X0172835
Y0069291
X0175197
X0177559
X0168504Y0069291
Y0071653
X0166142
X0163779
Y0069291
X0166142
X0189187Y0064600
X0130389Y0070451
X0111808Y0067127
Y0059065
X0112570Y0095100
X0115670Y0099700
X0107189Y0108346
X0109470Y0110800
X0104581Y0118811
X0100748Y0121178
X0097012Y0116959
X0091189Y0117546
X0080489Y0118646
X0079909Y0125226
X0075769Y0128966
X0081365Y0134239
X0088389Y0134346
X0086889Y0131946
X0086689Y0138758
X0091189Y0136146
X0097884Y0151289
X0099776Y0149403
X0105389Y0156546
X0108998Y0156319
X0118570Y0156300
X0123605Y0142400
X0114358Y0133832
X0112489Y0131646
X0117103Y0130296
X0114789Y0119546
X0099170Y0106600
X0092295Y0096083
X0085289Y0081446
X0084870Y0076800
X0067809Y0075564
X0068470Y0083300
X0067666Y0096102
X0061544Y0099900
X0060401Y0116593
X0071889Y0116946
X0080978Y0107400
X0080789Y0153132
X0078689Y0151046
X0081370Y0161600
X0086289Y0161896
X0093316Y0160440
X0097470Y0167700
X0104189Y0164032
X0107170Y0170986
X0103989Y0174246
X0067670Y0162200
X0059470Y0161900
X0060589Y0154246
X0059589Y0138556
X0064889Y0141246
X0065902Y0056242
X0067889Y0050246
X0070589Y0041446
X0076178Y0039565
X0088289Y0042546
X0060036Y0043406
X0059977Y0053954
X0055289Y0059046
X0050391Y0058346
X0041889Y0057246
X0046653Y0044251
X0057063Y0084400
X0054370Y0088600
X0054312Y0099139
X0054535Y0109064
X0056835Y0106764
X0052854Y0115059
X0048483Y0114778
X0045670Y0115100
X0048170Y0117800
X0044437Y0121727
X0041043Y0126213
Y0133071
X0043715
X0046470Y0138400
X0048370Y0128600
X0055885Y0141661
X0055689Y0156546
T03
X0117489Y0082146
X0127489
X0137489
X0147489
X0149289Y0135446
X0159289
Y0145446
X0149289
Y0155446
X0159289Y0155446
X0149289Y0165446
X0139289
X0139289Y0155446
Y0145446
X0139289Y0135446
T04
X0109289Y0125446
X0119289Y0125446
X0129289Y0125446
X0139289Y0125446
X0149289
X0159289Y0125446
X0169289Y0125446
X0179289Y0125446
Y0175446
X0169289Y0175446
X0159289
X0149289Y0175446
X0139289Y0175446
X0129289
X0119289Y0175446
X0109289
X0109289Y0145446
X0109289Y0135446
T05
X0097789Y0010903
Y0020746
Y0030588
X0097489Y0092146
X0107489
X0117489
X0127489
X0137489
X0147489
X0073619Y0089426
Y0079584
X0049603Y0077615
Y0067773
Y0098481
Y0108324
X0127126Y0194913
X0136968
X0146810
X0156653
T06
X0133855Y0058717
T07
X0153855Y0058717
T08
X0232674Y0144901
X0183462Y0194544
T09
X0094551Y0059240
X0141732Y0109520
M30
