%TF.GenerationSoftware,Altium Limited,Altium Designer,23.4.1 (23)*%
G04 Layer_Color=0*
%FSLAX26Y26*%
%MOIN*%
%TF.SameCoordinates,059DD823-1BA3-4B86-995A-778C5C10D4F7*%
%TF.FilePolarity,Positive*%
%TF.FileFunction,Plated,1,4,PTH,Drill*%
%TF.Part,CustomerPanel*%
G01*
G75*
%TA.AperFunction,ComponentDrill*%
%ADD143C,0.036000*%
%ADD144C,0.036000*%
%ADD145C,0.055000*%
%ADD146C,0.055118*%
%ADD147C,0.039370*%
%ADD148C,0.035000*%
%ADD149C,0.035000*%
%ADD150C,0.039370*%
G04:AMPARAMS|DCode=151|XSize=47.244mil|YSize=27.559mil|CornerRadius=0mil|HoleSize=0mil|Usage=FLASHONLY|Rotation=225.000|XOffset=0mil|YOffset=0mil|HoleType=Round|Shape=Round|*
%AMOVALD151*
21,1,0.019685,0.027559,0.000000,0.000000,225.0*
1,1,0.027559,0.006960,0.006960*
1,1,0.027559,-0.006960,-0.006960*
%
%ADD151OVALD151*%

G04:AMPARAMS|DCode=152|XSize=66.929mil|YSize=27.559mil|CornerRadius=0mil|HoleSize=0mil|Usage=FLASHONLY|Rotation=225.000|XOffset=0mil|YOffset=0mil|HoleType=Round|Shape=Round|*
%AMOVALD152*
21,1,0.039370,0.027559,0.000000,0.000000,225.0*
1,1,0.027559,0.013919,0.013919*
1,1,0.027559,-0.013919,-0.013919*
%
%ADD152OVALD152*%

G04:AMPARAMS|DCode=153|XSize=66.929mil|YSize=27.559mil|CornerRadius=0mil|HoleSize=0mil|Usage=FLASHONLY|Rotation=585.000|XOffset=0mil|YOffset=0mil|HoleType=Round|Shape=Round|*
%AMOVALD153*
21,1,0.039370,0.027559,0.000000,0.000000,585.0*
1,1,0.027559,0.013919,0.013919*
1,1,0.027559,-0.013919,-0.013919*
%
%ADD153OVALD153*%

G04:AMPARAMS|DCode=154|XSize=47.244mil|YSize=27.559mil|CornerRadius=0mil|HoleSize=0mil|Usage=FLASHONLY|Rotation=585.000|XOffset=0mil|YOffset=0mil|HoleType=Round|Shape=Round|*
%AMOVALD154*
21,1,0.019685,0.027559,0.000000,0.000000,585.0*
1,1,0.027559,0.006960,0.006960*
1,1,0.027559,-0.006960,-0.006960*
%
%ADD154OVALD154*%

%TA.AperFunction,OtherDrill,Pad Free-4 (2326.743mil,1449.009mil)*%
%ADD155C,0.086614*%
%TA.AperFunction,OtherDrill,Pad Free-4 (1834.617mil,1945.442mil)*%
%ADD156C,0.086614*%
%TA.AperFunction,OtherDrill,Pad Free-4 (945.512mil,592.395mil)*%
%ADD157C,0.125984*%
%TA.AperFunction,OtherDrill,Pad Free-4 (1417.323mil,1095.204mil)*%
%ADD158C,0.125984*%
%TA.AperFunction,ViaDrill,NotFilled*%
%ADD159C,0.007874*%
D143*
X1092893Y1754458D02*
D03*
X1692892Y1754458D02*
D03*
Y1254458D02*
D03*
X1592892Y1254458D02*
D03*
X1492893Y1254458D02*
D03*
X1392893D02*
D03*
X1292892Y1254458D02*
D03*
X1192893Y1254458D02*
D03*
X1192892Y1754458D02*
D03*
X1792892Y1754458D02*
D03*
Y1254458D02*
D03*
X1292892Y1754458D02*
D03*
X1392893D02*
D03*
X1592893Y1754458D02*
D03*
X1492893Y1754458D02*
D03*
D144*
X1092892Y1454458D02*
D03*
Y1254458D02*
D03*
X1092893Y1354458D02*
D03*
D145*
X1338554Y587174D02*
D03*
D146*
X1538554D02*
D03*
D147*
X974892Y921458D02*
D03*
X1074892D02*
D03*
X1174892D02*
D03*
X1274892D02*
D03*
X1374892D02*
D03*
X1474892D02*
D03*
X1271255Y1949127D02*
D03*
X1369680D02*
D03*
X1468105D02*
D03*
X1566530D02*
D03*
D148*
X1174892Y821458D02*
D03*
X1274892D02*
D03*
X1374892D02*
D03*
X1474892D02*
D03*
D149*
X1592892Y1354458D02*
D03*
Y1454458D02*
D03*
Y1554458D02*
D03*
X1392892Y1654458D02*
D03*
X1392892Y1554458D02*
D03*
Y1454458D02*
D03*
X1392892Y1354458D02*
D03*
X1492893Y1654458D02*
D03*
Y1554458D02*
D03*
Y1454458D02*
D03*
Y1354458D02*
D03*
D150*
X977892Y109033D02*
D03*
Y207458D02*
D03*
Y305883D02*
D03*
X736192Y894261D02*
D03*
Y795836D02*
D03*
X496034Y1083237D02*
D03*
Y984812D02*
D03*
Y776151D02*
D03*
Y677726D02*
D03*
D151*
X2072990Y1451162D02*
D03*
D152*
X1956624Y1334796D02*
D03*
D153*
X1716097Y1575323D02*
D03*
D154*
X1832463Y1691690D02*
D03*
D155*
X2326743Y1449009D02*
D03*
D156*
X1834617Y1945442D02*
D03*
D157*
X945512Y592395D02*
D03*
D158*
X1417323Y1095204D02*
D03*
D159*
X1185701Y1563000D02*
D03*
X1171034Y1302958D02*
D03*
X1236050Y1424000D02*
D03*
X1071701Y1709858D02*
D03*
X974701Y1677000D02*
D03*
X1089979Y1563186D02*
D03*
X1041885Y1640324D02*
D03*
X481701Y1178000D02*
D03*
X444371Y1217273D02*
D03*
X456701Y1151000D02*
D03*
X483701Y1286000D02*
D03*
X1842520Y692913D02*
D03*
X1818898D02*
D03*
X1866142D02*
D03*
X1891874Y646000D02*
D03*
X1842491Y1055678D02*
D03*
X1885798D02*
D03*
X1842491Y1098986D02*
D03*
X1885798D02*
D03*
X1842491Y1142293D02*
D03*
X1885798D02*
D03*
X1094701Y1108000D02*
D03*
X970115Y1169586D02*
D03*
X1147892Y1195458D02*
D03*
X558851Y1416609D02*
D03*
X1685039Y716535D02*
D03*
X1637795D02*
D03*
X1661417D02*
D03*
X1637795Y692913D02*
D03*
X1661417D02*
D03*
X1685039D02*
D03*
X1775591Y716535D02*
D03*
X1751968D02*
D03*
X1728347D02*
D03*
Y692913D02*
D03*
X1751968D02*
D03*
X1775591D02*
D03*
X840701Y210000D02*
D03*
X1818898Y716535D02*
D03*
X1842520D02*
D03*
X1866142D02*
D03*
X1740158Y921260D02*
D03*
X1688976Y959914D02*
D03*
X933162Y1604403D02*
D03*
X594701Y1619000D02*
D03*
X813701Y1616000D02*
D03*
X676701Y1622000D02*
D03*
X1045814Y1188113D02*
D03*
X543701Y886000D02*
D03*
X570630Y844000D02*
D03*
X676656Y961022D02*
D03*
X922952Y960828D02*
D03*
X809781Y1073999D02*
D03*
X464701Y1384000D02*
D03*
X543120Y991390D02*
D03*
X410433Y1262129D02*
D03*
X848701Y768000D02*
D03*
X684701Y833000D02*
D03*
X1007482Y1211781D02*
D03*
X991701Y1066000D02*
D03*
X804892Y1186458D02*
D03*
X1156701Y997000D02*
D03*
X1879230Y1191120D02*
D03*
X1678670Y1104680D02*
D03*
X1911701Y892000D02*
D03*
X2115701Y1114379D02*
D03*
X2028892Y1065458D02*
D03*
X2022892Y1038458D02*
D03*
X437149Y1330709D02*
D03*
X1125701Y951000D02*
D03*
X545346Y1090645D02*
D03*
X568346Y1067645D02*
D03*
X484827Y1147781D02*
D03*
X528543Y1150591D02*
D03*
X604012Y1165928D02*
D03*
X1124892Y1316458D02*
D03*
X1143576Y1338316D02*
D03*
X615436Y999002D02*
D03*
X410433Y1330709D02*
D03*
X1825225Y1500128D02*
D03*
X852892Y814458D02*
D03*
X678095Y755635D02*
D03*
X418892Y572458D02*
D03*
X599766Y539545D02*
D03*
X600356Y434056D02*
D03*
X678892Y502458D02*
D03*
X705892Y414458D02*
D03*
X695151Y281716D02*
D03*
X660711Y302359D02*
D03*
X769196Y278802D02*
D03*
X637892Y363458D02*
D03*
X486192Y313426D02*
D03*
X503908Y583458D02*
D03*
X466530Y442509D02*
D03*
X552892Y590458D02*
D03*
X659019Y562421D02*
D03*
X1118081Y671269D02*
D03*
X853892Y349458D02*
D03*
X882892Y425458D02*
D03*
X902892Y354458D02*
D03*
X1303892Y704513D02*
D03*
X1118081Y590647D02*
D03*
X605892Y1542458D02*
D03*
X556892Y1565458D02*
D03*
X1053892D02*
D03*
X1071892Y1083458D02*
D03*
X1905962Y994797D02*
D03*
X1668892Y1182458D02*
D03*
X997762Y1494027D02*
D03*
X978843Y1512891D02*
D03*
X1039892Y1742458D02*
D03*
X638750Y234812D02*
D03*
X574892Y62458D02*
D03*
X761782Y395654D02*
D03*
X847538Y154104D02*
D03*
X857892Y104458D02*
D03*
X731629Y195721D02*
D03*
X560278Y156072D02*
D03*
X515719Y313426D02*
D03*
X456664D02*
D03*
X2157892Y1402175D02*
D03*
X1844034Y1481148D02*
D03*
X2157892Y1375458D02*
D03*
X2144010Y1233135D02*
D03*
X1644892Y1085458D02*
D03*
X1749892Y985458D02*
D03*
X1754892Y1415458D02*
D03*
X1904756Y1405214D02*
D03*
X1782892Y1323458D02*
D03*
X1814892Y1363990D02*
D03*
X2089892Y1339458D02*
D03*
X1732249Y1447957D02*
D03*
X2037514Y1337316D02*
D03*
X862892Y1618957D02*
D03*
X757694Y1289657D02*
D03*
X786892Y1510458D02*
D03*
X807892Y1531316D02*
D03*
X868892Y1319458D02*
D03*
X595892Y1385564D02*
D03*
X911892Y1361458D02*
D03*
X799091Y1252259D02*
D03*
X718892Y1169458D02*
D03*
X648892Y1412458D02*
D03*
X883892Y1343458D02*
D03*
X866892Y1387576D02*
D03*
X813653Y1342390D02*
D03*
X911892Y1175458D02*
D03*
%TF.MD5,99acdd1823ed39f9e7323e9ae86b6ad7*%
M02*
