G04*
G04 #@! TF.GenerationSoftware,Altium Limited,Altium Designer,23.11.1 (41)*
G04*
G04 Layer_Physical_Order=2*
G04 Layer_Color=16711680*
%FSLAX44Y44*%
%MOMM*%
G71*
G04*
G04 #@! TF.SameCoordinates,884342A8-4ED4-4568-BB5E-73BA217C2521*
G04*
G04*
G04 #@! TF.FilePolarity,Positive*
G04*
G01*
G75*
%ADD43C,1.5000*%
%ADD46C,0.2540*%
%ADD47C,0.5080*%
%ADD48C,0.3810*%
%ADD49C,0.6350*%
%ADD50C,0.3048*%
%ADD52C,1.2700*%
%ADD53C,0.2032*%
%ADD56R,2.0000X2.5000*%
%ADD59O,1.6000X1.0000*%
%ADD60C,0.6750*%
%ADD61O,2.1000X1.0000*%
%ADD62C,1.7000*%
%ADD63R,1.7000X1.7000*%
%ADD64R,1.7000X1.7000*%
%ADD65O,1.9000X1.5000*%
%ADD66R,1.9000X1.5000*%
%ADD67O,1.5000X1.9000*%
%ADD68P,2.9814X4X90.0*%
%ADD69R,2.1082X2.1082*%
%ADD70C,0.5000*%
%ADD71C,1.2000*%
%ADD72C,2.5400*%
%ADD73R,2.5000X3.2500*%
%ADD74R,1.5000X4.5000*%
G36*
X275500Y402500D02*
Y345500D01*
X270500Y340500D01*
X248500D01*
X240500Y348500D01*
Y396500D01*
X234500Y402500D01*
X230126D01*
X229961Y402665D01*
X228307Y403350D01*
X226517D01*
X224863Y402665D01*
X224698Y402500D01*
X190265D01*
X188986Y403779D01*
Y404825D01*
X188301Y406479D01*
X187035Y407745D01*
X185381Y408430D01*
X183591D01*
X181937Y407745D01*
X180671Y406479D01*
X179986Y404825D01*
Y403035D01*
X179629Y402500D01*
X137500D01*
X108000Y373000D01*
Y286740D01*
X79260Y258000D01*
X2539D01*
Y467800D01*
Y468850D01*
X2949Y470910D01*
X3752Y472850D01*
X4919Y474596D01*
X6404Y476081D01*
X8150Y477248D01*
X10090Y478051D01*
X12150Y478461D01*
X275500D01*
Y402500D01*
D02*
G37*
G36*
X181552Y400500D02*
X181937Y400115D01*
X183591Y399430D01*
X184637D01*
X187391Y396676D01*
X187392Y396676D01*
X188389Y396009D01*
X189566Y395775D01*
X189566Y395775D01*
X224123D01*
X224863Y395035D01*
X226517Y394350D01*
X228307D01*
X229961Y395035D01*
X231227Y396301D01*
X231912Y397955D01*
Y399745D01*
X232390Y400461D01*
X233655D01*
X238461Y395655D01*
Y348500D01*
X238461Y348500D01*
X238616Y347720D01*
X239058Y347058D01*
X239058Y347058D01*
X247058Y339058D01*
X247341Y338869D01*
X247383Y338445D01*
X246698Y336791D01*
Y335001D01*
X247383Y333347D01*
X247605Y333125D01*
Y325658D01*
X238070Y316123D01*
X237756D01*
X236102Y315438D01*
X234836Y314172D01*
X234151Y312518D01*
Y310728D01*
X234836Y309074D01*
X236102Y307808D01*
X237756Y307123D01*
X239546D01*
X241200Y307808D01*
X242466Y309074D01*
X243151Y310728D01*
Y311042D01*
X253739Y321629D01*
X254056Y322104D01*
X269740D01*
X271115Y322378D01*
X272281Y323157D01*
X314624Y365500D01*
X424094Y365500D01*
X424328Y365266D01*
X424424Y365500D01*
X703000Y365500D01*
D01*
X817413D01*
X817637Y364763D01*
X818185Y362005D01*
X818461Y359206D01*
Y357800D01*
Y230500D01*
X740500D01*
X733000Y238000D01*
Y315500D01*
X710500D01*
Y305308D01*
X709230Y304460D01*
X708785Y304644D01*
X706995D01*
X705341Y303959D01*
X704075Y302693D01*
X703390Y301039D01*
Y299249D01*
X704075Y297595D01*
X704556Y297114D01*
Y287952D01*
X704810Y286676D01*
X705533Y285595D01*
X706900Y284227D01*
X706413Y282918D01*
X705087Y282369D01*
X703821Y281103D01*
X703136Y279449D01*
Y277659D01*
X703821Y276005D01*
X704302Y275524D01*
Y259213D01*
X704105Y258441D01*
X703500Y258199D01*
Y240500D01*
X700500Y237500D01*
X687500D01*
X685379Y239621D01*
X685275Y239438D01*
X607924D01*
X607151Y240446D01*
X607500Y241749D01*
Y244251D01*
X606853Y246667D01*
X605602Y248833D01*
X603833Y250602D01*
X601667Y251853D01*
X599251Y252500D01*
X596749D01*
X594333Y251853D01*
X592167Y250602D01*
X590398Y248833D01*
X589147Y246667D01*
X588500Y244251D01*
Y241749D01*
X588849Y240446D01*
X588076Y239438D01*
X507950D01*
X507503Y240108D01*
X507280Y240708D01*
X507582Y243000D01*
X507256Y245480D01*
X506298Y247791D01*
X504776Y249775D01*
X502791Y251298D01*
X500480Y252255D01*
X498000Y252582D01*
X494000D01*
X491520Y252255D01*
X489209Y251298D01*
X487225Y249775D01*
X485702Y247791D01*
X484745Y245480D01*
X484418Y243000D01*
X484720Y240708D01*
X484497Y240108D01*
X484050Y239438D01*
X449189D01*
X429324Y259303D01*
X428242Y260026D01*
X426966Y260280D01*
X421798D01*
X421317Y260761D01*
X419664Y261446D01*
X417873D01*
X416219Y260761D01*
X414954Y259495D01*
X414268Y257841D01*
Y256051D01*
X414954Y254397D01*
X416219Y253131D01*
X417873Y252446D01*
X419664D01*
X421317Y253131D01*
X421798Y253612D01*
X425585D01*
X438586Y240611D01*
X438100Y239438D01*
X425313D01*
X418909Y245842D01*
X417828Y246564D01*
X416552Y246818D01*
X358497D01*
X347900Y257415D01*
Y258095D01*
X347215Y259749D01*
X345949Y261015D01*
X344295Y261700D01*
X342505D01*
X340851Y261015D01*
X339585Y259749D01*
X338900Y258095D01*
Y256305D01*
X339585Y254651D01*
X340851Y253385D01*
X342505Y252700D01*
X343185D01*
X354758Y241126D01*
X355385Y240708D01*
X354999Y239438D01*
X329176D01*
X320010Y248604D01*
X314406Y243000D01*
X165500D01*
X155500Y253000D01*
Y282618D01*
X149655Y282618D01*
Y288906D01*
X149526Y289554D01*
Y289801D01*
X149432Y290029D01*
X149303Y290677D01*
X148935Y291227D01*
X148841Y291455D01*
X148666Y291630D01*
X148299Y292179D01*
X147750Y292547D01*
X147575Y292721D01*
X147347Y292815D01*
X146797Y293183D01*
X146149Y293312D01*
X145921Y293406D01*
X145674D01*
X145026Y293535D01*
X110500D01*
X110500Y372616D01*
X138345Y400461D01*
X179629D01*
X179826Y400500D01*
X181552D01*
D02*
G37*
%LPC*%
G36*
X102325Y411953D02*
X101750Y411378D01*
X101175Y411953D01*
Y408000D01*
X98000D01*
Y404825D01*
X94047D01*
X94622Y404250D01*
X94047Y403675D01*
X98000D01*
Y397325D01*
X94047D01*
X94622Y396750D01*
X94047Y396175D01*
X98000D01*
Y393000D01*
X101175D01*
Y389047D01*
X101750Y389622D01*
X102325Y389047D01*
Y393000D01*
X105500D01*
Y396175D01*
X109453D01*
X108878Y396750D01*
X109453Y397325D01*
X105500D01*
Y403675D01*
X109453D01*
X108878Y404250D01*
X109453Y404825D01*
X105500D01*
Y408000D01*
X102325D01*
Y411953D01*
D02*
G37*
G36*
X108675D02*
Y411175D01*
X109453D01*
X108675Y411953D01*
D02*
G37*
G36*
X94825D02*
X94047Y411175D01*
X94825D01*
Y411953D01*
D02*
G37*
G36*
X43675Y406879D02*
Y399475D01*
X51079D01*
X50788Y400561D01*
X49334Y403079D01*
X47279Y405134D01*
X44761Y406588D01*
X43675Y406879D01*
D02*
G37*
G36*
X37325Y406879D02*
X36239Y406588D01*
X33721Y405134D01*
X31666Y403079D01*
X30212Y400561D01*
X29921Y399475D01*
X37325D01*
Y406879D01*
D02*
G37*
G36*
X109453Y389825D02*
X108675D01*
Y389047D01*
X109453Y389825D01*
D02*
G37*
G36*
X94825D02*
X94047D01*
X94825Y389047D01*
Y389825D01*
D02*
G37*
G36*
X51079Y393125D02*
X43675D01*
Y385721D01*
X44761Y386012D01*
X47279Y387466D01*
X49334Y389521D01*
X50788Y392039D01*
X51079Y393125D01*
D02*
G37*
G36*
X37325D02*
X29921D01*
X30212Y392039D01*
X31666Y389521D01*
X33721Y387466D01*
X36239Y386012D01*
X37325Y385721D01*
Y393125D01*
D02*
G37*
G36*
X51000Y356000D02*
X30000D01*
Y335000D01*
X51000D01*
Y356000D01*
D02*
G37*
G36*
X43675Y306879D02*
Y299475D01*
X51079D01*
X50788Y300561D01*
X49334Y303079D01*
X47279Y305134D01*
X44761Y306588D01*
X43675Y306879D01*
D02*
G37*
G36*
X37325Y306879D02*
X36239Y306588D01*
X33721Y305134D01*
X31666Y303079D01*
X30212Y300561D01*
X29921Y299475D01*
X37325D01*
Y306879D01*
D02*
G37*
G36*
X51079Y293125D02*
X43675D01*
Y285721D01*
X44761Y286012D01*
X47279Y287466D01*
X49334Y289521D01*
X50788Y292039D01*
X51079Y293125D01*
D02*
G37*
G36*
X37325D02*
X29921D01*
X30212Y292039D01*
X31666Y289521D01*
X33721Y287466D01*
X36239Y286012D01*
X37325Y285721D01*
Y293125D01*
D02*
G37*
G36*
X219825Y386953D02*
X219250Y386378D01*
X218675Y386953D01*
Y383000D01*
X212325D01*
Y386953D01*
X211750Y386378D01*
X211175Y386953D01*
Y383000D01*
X208000D01*
Y379825D01*
X204047D01*
X204622Y379250D01*
X204047Y378675D01*
X208000D01*
Y372325D01*
X204047D01*
X204622Y371750D01*
X204047Y371175D01*
X208000D01*
Y364825D01*
X204047D01*
X204622Y364250D01*
X204047Y363675D01*
X208000D01*
Y360500D01*
X211175D01*
Y356547D01*
X211750Y357122D01*
X212325Y356547D01*
Y360500D01*
X218675D01*
Y356547D01*
X219250Y357122D01*
X219825Y356547D01*
Y360500D01*
X223000D01*
Y363675D01*
X226953D01*
X226378Y364250D01*
X226953Y364825D01*
X223000D01*
Y371175D01*
X226953D01*
X226378Y371750D01*
X226953Y372325D01*
X223000D01*
Y378675D01*
X226953D01*
X226378Y379250D01*
X226953Y379825D01*
X223000D01*
Y383000D01*
X219825D01*
Y386953D01*
D02*
G37*
G36*
X226175D02*
Y386175D01*
X226953D01*
X226175Y386953D01*
D02*
G37*
G36*
X204825D02*
X204047Y386175D01*
X204825D01*
Y386953D01*
D02*
G37*
G36*
X226953Y357325D02*
X226175D01*
Y356547D01*
X226953Y357325D01*
D02*
G37*
G36*
X204825D02*
X204047D01*
X204825Y356547D01*
Y357325D01*
D02*
G37*
G36*
X696175Y351953D02*
Y351175D01*
X696953D01*
X696175Y351953D01*
D02*
G37*
G36*
X689825D02*
X689047Y351175D01*
X689825D01*
Y351953D01*
D02*
G37*
G36*
X696953Y344825D02*
X689047D01*
X689622Y344250D01*
X689047Y343675D01*
X696953D01*
X696378Y344250D01*
X696953Y344825D01*
D02*
G37*
G36*
X793675Y341282D02*
Y336875D01*
X800346D01*
X800086Y337502D01*
X798877Y339077D01*
X797302Y340286D01*
X795468Y341046D01*
X793675Y341282D01*
D02*
G37*
G36*
X787325D02*
X785531Y341046D01*
X783697Y340286D01*
X782122Y339077D01*
X780914Y337502D01*
X780654Y336875D01*
X787325D01*
Y341282D01*
D02*
G37*
G36*
X754200Y341305D02*
X751875D01*
Y336875D01*
X761046D01*
X760786Y337502D01*
X759577Y339077D01*
X758002Y340286D01*
X756168Y341046D01*
X754200Y341305D01*
D02*
G37*
G36*
X745525D02*
X743200D01*
X741232Y341046D01*
X739397Y340286D01*
X737822Y339077D01*
X736614Y337502D01*
X736354Y336875D01*
X745525D01*
Y341305D01*
D02*
G37*
G36*
X696953Y337325D02*
X689047D01*
X689622Y336750D01*
X689047Y336175D01*
X696953D01*
X696378Y336750D01*
X696953Y337325D01*
D02*
G37*
G36*
X599251Y352500D02*
X596749D01*
X594333Y351853D01*
X592167Y350602D01*
X590398Y348833D01*
X589147Y346667D01*
X588500Y344251D01*
Y341749D01*
X589147Y339333D01*
X590398Y337167D01*
X592167Y335398D01*
X594333Y334147D01*
X596749Y333500D01*
X599251D01*
X601667Y334147D01*
X603833Y335398D01*
X605602Y337167D01*
X606853Y339333D01*
X607500Y341749D01*
Y344251D01*
X606853Y346667D01*
X605602Y348833D01*
X603833Y350602D01*
X601667Y351853D01*
X599251Y352500D01*
D02*
G37*
G36*
X507500D02*
X484500D01*
Y333500D01*
X507500D01*
Y352500D01*
D02*
G37*
G36*
X696953Y329825D02*
X689047D01*
X689622Y329250D01*
X689047Y328675D01*
X696953D01*
X696378Y329250D01*
X696953Y329825D01*
D02*
G37*
G36*
X800346Y330525D02*
X793675D01*
Y326118D01*
X795468Y326354D01*
X797302Y327114D01*
X798877Y328322D01*
X800086Y329897D01*
X800346Y330525D01*
D02*
G37*
G36*
X787325D02*
X780654D01*
X780914Y329897D01*
X782122Y328322D01*
X783697Y327114D01*
X785531Y326354D01*
X787325Y326118D01*
Y330525D01*
D02*
G37*
G36*
X761046Y330525D02*
X751875D01*
Y326095D01*
X754200D01*
X756168Y326354D01*
X758002Y327114D01*
X759577Y328322D01*
X760786Y329897D01*
X761046Y330525D01*
D02*
G37*
G36*
X745525D02*
X736354D01*
X736614Y329897D01*
X737822Y328322D01*
X739397Y327114D01*
X741232Y326354D01*
X743200Y326095D01*
X745525D01*
Y330525D01*
D02*
G37*
G36*
X696953Y322325D02*
X696175D01*
Y321547D01*
X696953Y322325D01*
D02*
G37*
G36*
X689825D02*
X689047D01*
X689825Y321547D01*
Y322325D01*
D02*
G37*
G36*
X755069Y324774D02*
X752931D01*
X750955Y323956D01*
X749443Y322444D01*
X748625Y320468D01*
Y318330D01*
X749443Y316354D01*
X750955Y314842D01*
X752931Y314024D01*
X755069D01*
X757045Y314842D01*
X758557Y316354D01*
X759375Y318330D01*
Y320468D01*
X758557Y322444D01*
X757045Y323956D01*
X755069Y324774D01*
D02*
G37*
G36*
X623000Y304582D02*
X620520Y304255D01*
X618209Y303298D01*
X616225Y301775D01*
X614702Y299791D01*
X613745Y297480D01*
X613418Y295000D01*
Y291000D01*
X613745Y288520D01*
X614702Y286209D01*
X616225Y284225D01*
X618209Y282702D01*
X620520Y281744D01*
X623000Y281418D01*
X625480Y281744D01*
X627791Y282702D01*
X629775Y284225D01*
X631298Y286209D01*
X632256Y288520D01*
X632582Y291000D01*
Y295000D01*
X632256Y297480D01*
X631298Y299791D01*
X629775Y301775D01*
X627791Y303298D01*
X625480Y304255D01*
X623000Y304582D01*
D02*
G37*
G36*
X755069Y266976D02*
X752931D01*
X750955Y266157D01*
X749443Y264646D01*
X748625Y262670D01*
Y260532D01*
X749443Y258556D01*
X750955Y257044D01*
X752931Y256226D01*
X755069D01*
X757045Y257044D01*
X758557Y258556D01*
X759375Y260532D01*
Y262670D01*
X758557Y264646D01*
X757045Y266157D01*
X755069Y266976D01*
D02*
G37*
G36*
X754200Y254905D02*
X751875D01*
Y250475D01*
X761046D01*
X760786Y251103D01*
X759577Y252678D01*
X758002Y253886D01*
X756168Y254646D01*
X754200Y254905D01*
D02*
G37*
G36*
X745525D02*
X743200D01*
X741232Y254646D01*
X739397Y253886D01*
X737822Y252678D01*
X736614Y251103D01*
X736354Y250475D01*
X745525D01*
Y254905D01*
D02*
G37*
G36*
X793675Y254882D02*
Y250475D01*
X800346D01*
X800086Y251103D01*
X798877Y252678D01*
X797302Y253886D01*
X795468Y254646D01*
X793675Y254882D01*
D02*
G37*
G36*
X787325D02*
X785531Y254646D01*
X783697Y253886D01*
X782122Y252678D01*
X780914Y251103D01*
X780654Y250475D01*
X787325D01*
Y254882D01*
D02*
G37*
G36*
X800346Y244125D02*
X793675D01*
Y239718D01*
X795468Y239954D01*
X797302Y240714D01*
X798877Y241922D01*
X800086Y243498D01*
X800346Y244125D01*
D02*
G37*
G36*
X787325D02*
X780654D01*
X780914Y243498D01*
X782122Y241922D01*
X783697Y240714D01*
X785531Y239954D01*
X787325Y239718D01*
Y244125D01*
D02*
G37*
G36*
X761046Y244125D02*
X751875D01*
Y239695D01*
X754200D01*
X756168Y239954D01*
X758002Y240714D01*
X759577Y241922D01*
X760786Y243498D01*
X761046Y244125D01*
D02*
G37*
G36*
X745525D02*
X736354D01*
X736614Y243498D01*
X737822Y241922D01*
X739397Y240714D01*
X741232Y239954D01*
X743200Y239695D01*
X745525D01*
Y244125D01*
D02*
G37*
%LPD*%
D43*
X138000Y230500D02*
D03*
X752594Y193464D02*
D03*
X728000Y420500D02*
D03*
X598000Y243000D02*
D03*
Y343000D02*
D03*
D46*
X232656Y179748D02*
Y186606D01*
X237736Y181852D02*
X255918Y163670D01*
X232167Y187095D02*
X232656Y186606D01*
X724734Y215246D02*
Y299513D01*
X232656Y179748D02*
X253814Y158590D01*
X237736Y181852D02*
Y186606D01*
X323000Y182604D02*
Y223000D01*
X338574Y134282D02*
X636586D01*
X719654Y217350D01*
X336470Y129202D02*
X638691D01*
X724734Y215246D01*
X309186Y163670D02*
X338574Y134282D01*
X307082Y158590D02*
X336470Y129202D01*
X155116Y135156D02*
X161536Y141576D01*
X154932Y142156D02*
X156456Y143680D01*
X148328Y135156D02*
X155116D01*
X148328Y142156D02*
X154932D01*
X161536Y141576D02*
Y154420D01*
X156456Y143680D02*
Y152316D01*
X150162Y158610D02*
X156456Y152316D01*
X97618Y163690D02*
X152266D01*
X161536Y154420D01*
X97618Y158610D02*
X150162D01*
X97128Y158121D02*
X97618Y158610D01*
X94734Y164650D02*
X95205Y164179D01*
X97128D01*
X97618Y163690D01*
X94734Y157650D02*
X95205Y158121D01*
X97128D01*
X718623Y300840D02*
Y301977D01*
Y300840D02*
X719654Y299809D01*
Y217350D02*
Y299809D01*
X255918Y163670D02*
X309186D01*
X237736Y186606D02*
X238225Y187095D01*
X725258Y300036D02*
Y301760D01*
X725728Y302231D01*
X724734Y299513D02*
X725258Y300036D01*
X253814Y158590D02*
X307082D01*
X715114Y219230D02*
Y280728D01*
X707890Y287952D02*
X715114Y280728D01*
X707636Y258520D02*
X710574Y255582D01*
X707636Y258520D02*
Y278554D01*
X710574Y221111D02*
Y255582D01*
X678895Y189432D02*
X710574Y221111D01*
X680776Y184892D02*
X715114Y219230D01*
X707890Y287952D02*
Y300144D01*
X347369Y141979D02*
Y158235D01*
Y141979D02*
X347464Y141884D01*
X568698Y201084D02*
X580350Y189432D01*
X678895D01*
X566938Y196240D02*
X578286Y184892D01*
X680776D01*
X391424Y204622D02*
X394962Y201084D01*
X385056Y204622D02*
X391424D01*
X394962Y201084D02*
X568698D01*
X388296Y196240D02*
X566938D01*
X323000Y182604D02*
X347369Y158235D01*
X390971Y223471D02*
Y225777D01*
X396486Y231292D01*
X390500Y223000D02*
X390971Y223471D01*
X411472Y208686D02*
X460494D01*
X396486Y231292D02*
X418838D01*
X460494Y208686D02*
X460748Y208432D01*
X418769Y256946D02*
X426966D01*
X449318Y234594D01*
X357116Y243484D02*
X416552D01*
X343400Y257200D02*
X357116Y243484D01*
X416552D02*
X439920Y220116D01*
D47*
X165600Y230022D02*
X219212D01*
X250182Y199052D01*
X307848Y120528D02*
X310712Y123392D01*
X598924D01*
X593590Y195242D02*
X598000Y199652D01*
Y243000D01*
X49436Y288906D02*
X145026D01*
X40500Y296300D02*
X42042D01*
X49436Y288906D01*
X145026Y250596D02*
X165600Y230022D01*
X145026Y250596D02*
Y288906D01*
D48*
X313174Y106088D02*
X504182D01*
X514342Y116248D01*
X241060Y138000D02*
X291860D01*
X293245Y126017D02*
X313174Y106088D01*
X293245Y126017D02*
Y131405D01*
D49*
X454070Y150500D02*
X533000D01*
X440682Y163888D02*
X454070Y150500D01*
X353814Y150520D02*
Y212496D01*
X440682Y163728D02*
Y163888D01*
X427474Y150520D02*
X440682Y163728D01*
X353814Y150520D02*
X427474D01*
X311904Y254406D02*
X353814Y212496D01*
D50*
X251198Y324170D02*
Y325697D01*
X238651Y311623D02*
X251198Y324170D01*
X599640Y434542D02*
X609084Y443986D01*
Y457116D01*
X589503Y434542D02*
X599640D01*
X251198Y325697D02*
X269740D01*
X291838Y347795D01*
Y364152D01*
X368324Y440638D01*
X583407D01*
X589503Y434542D01*
X251198Y325697D02*
Y335896D01*
D52*
X508000Y450512D02*
Y468000D01*
Y450512D02*
X588256D01*
X337830D02*
X508000D01*
X266468Y379150D02*
X337830Y450512D01*
X588256D02*
X594352Y444416D01*
X263788Y378788D02*
X264150Y379150D01*
X263788Y376470D02*
Y378788D01*
X264150Y379150D02*
X266468D01*
D53*
X189566Y398850D02*
X227412D01*
X184486Y403930D02*
X189566Y398850D01*
D56*
X103000Y400500D02*
D03*
D59*
X790500Y333700D02*
D03*
Y247300D02*
D03*
X28248Y117792D02*
D03*
Y204192D02*
D03*
D60*
X754000Y319399D02*
D03*
Y261601D02*
D03*
X64748Y132093D02*
D03*
Y189891D02*
D03*
D61*
X748700Y333700D02*
D03*
Y247300D02*
D03*
X70048Y117792D02*
D03*
Y204192D02*
D03*
D62*
X241060Y138000D02*
D03*
X40500Y396300D02*
D03*
Y296300D02*
D03*
D63*
X291860Y138000D02*
D03*
D64*
X40500Y345500D02*
D03*
Y245500D02*
D03*
D65*
X496000Y243000D02*
D03*
D66*
Y343000D02*
D03*
D67*
X623000Y293000D02*
D03*
D68*
X790500Y208000D02*
D03*
D69*
X747500Y390500D02*
D03*
D70*
X250182Y199052D02*
D03*
X238696Y190162D02*
D03*
X231379Y190282D02*
D03*
X533000Y150500D02*
D03*
X598924Y123392D02*
D03*
X514342Y116248D02*
D03*
X323000Y223000D02*
D03*
X148328Y135156D02*
D03*
Y142156D02*
D03*
X94734Y164650D02*
D03*
X718153Y301977D02*
D03*
X94734Y157650D02*
D03*
X725728Y302231D02*
D03*
X725670Y281602D02*
D03*
X307848Y120528D02*
D03*
X238651Y311623D02*
D03*
X208000Y383000D02*
D03*
Y375500D02*
D03*
Y368000D02*
D03*
Y360500D02*
D03*
X215500D02*
D03*
Y368000D02*
D03*
Y375500D02*
D03*
Y383000D02*
D03*
X223000Y360500D02*
D03*
Y368000D02*
D03*
Y375500D02*
D03*
Y383000D02*
D03*
X703000Y253000D02*
D03*
X695500D02*
D03*
X690500Y243000D02*
D03*
X698000D02*
D03*
X347464Y141884D02*
D03*
X707890Y300144D02*
D03*
X707636Y278554D02*
D03*
X693000Y348000D02*
D03*
Y340500D02*
D03*
Y333000D02*
D03*
Y325500D02*
D03*
X508000Y468000D02*
D03*
X609084Y457116D02*
D03*
X668000Y418000D02*
D03*
Y428000D02*
D03*
X593590Y195242D02*
D03*
X594352Y444416D02*
D03*
X440682Y163888D02*
D03*
X354322Y212242D02*
D03*
X353814Y150520D02*
D03*
X388296Y196240D02*
D03*
X385056Y204622D02*
D03*
X390500Y223000D02*
D03*
X411472Y208686D02*
D03*
X405500Y360500D02*
D03*
X420500D02*
D03*
X413000D02*
D03*
X405500Y353000D02*
D03*
X420500D02*
D03*
X413000D02*
D03*
X163000Y268000D02*
D03*
Y253000D02*
D03*
Y260500D02*
D03*
X173000Y268000D02*
D03*
Y253000D02*
D03*
Y260500D02*
D03*
X98000Y408000D02*
D03*
Y393000D02*
D03*
Y400500D02*
D03*
X105500Y408000D02*
D03*
Y393000D02*
D03*
Y400500D02*
D03*
X460748Y208432D02*
D03*
X449318Y234594D02*
D03*
X343400Y257200D02*
D03*
X439920Y220116D02*
D03*
X418769Y256946D02*
D03*
X418838Y231292D02*
D03*
X251198Y335896D02*
D03*
X145026Y288906D02*
D03*
X263788Y353970D02*
D03*
Y368970D02*
D03*
Y361470D02*
D03*
Y346470D02*
D03*
X184486Y403930D02*
D03*
X263788Y376470D02*
D03*
X227412Y398850D02*
D03*
D71*
X504182Y411142D02*
D03*
D72*
X465500Y353000D02*
Y372460D01*
X504182Y411142D01*
X507428Y407896D02*
X655500D01*
X504182Y411142D02*
X507428Y407896D01*
X655500D02*
X666802Y419198D01*
D73*
X215500Y371750D02*
D03*
D74*
X263000Y363000D02*
D03*
M02*
