G04*
G04 #@! TF.GenerationSoftware,Altium Limited,Altium Designer,23.11.1 (41)*
G04*
G04 Layer_Color=8388736*
%FSLAX44Y44*%
%MOMM*%
G71*
G04*
G04 #@! TF.SameCoordinates,884342A8-4ED4-4568-BB5E-73BA217C2521*
G04*
G04*
G04 #@! TF.FilePolarity,Negative*
G04*
G01*
G75*
%ADD70C,0.5000*%
G04:AMPARAMS|DCode=80|XSize=2.0232mm|YSize=1.4732mm|CornerRadius=0.4191mm|HoleSize=0mm|Usage=FLASHONLY|Rotation=90.000|XOffset=0mm|YOffset=0mm|HoleType=Round|Shape=RoundedRectangle|*
%AMROUNDEDRECTD80*
21,1,2.0232,0.6350,0,0,90.0*
21,1,1.1850,1.4732,0,0,90.0*
1,1,0.8382,0.3175,0.5925*
1,1,0.8382,0.3175,-0.5925*
1,1,0.8382,-0.3175,-0.5925*
1,1,0.8382,-0.3175,0.5925*
%
%ADD80ROUNDEDRECTD80*%
G04:AMPARAMS|DCode=81|XSize=1.7032mm|YSize=3.7032mm|CornerRadius=0.4766mm|HoleSize=0mm|Usage=FLASHONLY|Rotation=270.000|XOffset=0mm|YOffset=0mm|HoleType=Round|Shape=RoundedRectangle|*
%AMROUNDEDRECTD81*
21,1,1.7032,2.7500,0,0,270.0*
21,1,0.7500,3.7032,0,0,270.0*
1,1,0.9532,-1.3750,-0.3750*
1,1,0.9532,-1.3750,0.3750*
1,1,0.9532,1.3750,0.3750*
1,1,0.9532,1.3750,-0.3750*
%
%ADD81ROUNDEDRECTD81*%
%ADD82R,3.7032X1.7032*%
%ADD83R,3.3032X2.4032*%
G04:AMPARAMS|DCode=84|XSize=1.7032mm|YSize=1.7232mm|CornerRadius=0.4766mm|HoleSize=0mm|Usage=FLASHONLY|Rotation=270.000|XOffset=0mm|YOffset=0mm|HoleType=Round|Shape=RoundedRectangle|*
%AMROUNDEDRECTD84*
21,1,1.7032,0.7700,0,0,270.0*
21,1,0.7500,1.7232,0,0,270.0*
1,1,0.9532,-0.3850,-0.3750*
1,1,0.9532,-0.3850,0.3750*
1,1,0.9532,0.3850,0.3750*
1,1,0.9532,0.3850,-0.3750*
%
%ADD84ROUNDEDRECTD84*%
G04:AMPARAMS|DCode=85|XSize=2.0032mm|YSize=1.5032mm|CornerRadius=0.4266mm|HoleSize=0mm|Usage=FLASHONLY|Rotation=180.000|XOffset=0mm|YOffset=0mm|HoleType=Round|Shape=RoundedRectangle|*
%AMROUNDEDRECTD85*
21,1,2.0032,0.6500,0,0,180.0*
21,1,1.1500,1.5032,0,0,180.0*
1,1,0.8532,-0.5750,0.3250*
1,1,0.8532,0.5750,0.3250*
1,1,0.8532,0.5750,-0.3250*
1,1,0.8532,-0.5750,-0.3250*
%
%ADD85ROUNDEDRECTD85*%
G04:AMPARAMS|DCode=86|XSize=2.0032mm|YSize=1.5032mm|CornerRadius=0.4266mm|HoleSize=0mm|Usage=FLASHONLY|Rotation=225.000|XOffset=0mm|YOffset=0mm|HoleType=Round|Shape=RoundedRectangle|*
%AMROUNDEDRECTD86*
21,1,2.0032,0.6500,0,0,225.0*
21,1,1.1500,1.5032,0,0,225.0*
1,1,0.8532,-0.6364,-0.1768*
1,1,0.8532,0.1768,0.6364*
1,1,0.8532,0.6364,0.1768*
1,1,0.8532,-0.1768,-0.6364*
%
%ADD86ROUNDEDRECTD86*%
G04:AMPARAMS|DCode=87|XSize=2.2032mm|YSize=3.9532mm|CornerRadius=0.6016mm|HoleSize=0mm|Usage=FLASHONLY|Rotation=0.000|XOffset=0mm|YOffset=0mm|HoleType=Round|Shape=RoundedRectangle|*
%AMROUNDEDRECTD87*
21,1,2.2032,2.7500,0,0,0.0*
21,1,1.0000,3.9532,0,0,0.0*
1,1,1.2032,0.5000,-1.3750*
1,1,1.2032,-0.5000,-1.3750*
1,1,1.2032,-0.5000,1.3750*
1,1,1.2032,0.5000,1.3750*
%
%ADD87ROUNDEDRECTD87*%
G04:AMPARAMS|DCode=88|XSize=1.2032mm|YSize=1.1032mm|CornerRadius=0.3266mm|HoleSize=0mm|Usage=FLASHONLY|Rotation=270.000|XOffset=0mm|YOffset=0mm|HoleType=Round|Shape=RoundedRectangle|*
%AMROUNDEDRECTD88*
21,1,1.2032,0.4500,0,0,270.0*
21,1,0.5500,1.1032,0,0,270.0*
1,1,0.6532,-0.2250,-0.2750*
1,1,0.6532,-0.2250,0.2750*
1,1,0.6532,0.2250,0.2750*
1,1,0.6532,0.2250,-0.2750*
%
%ADD88ROUNDEDRECTD88*%
%ADD89R,1.6532X0.5032*%
%ADD90R,1.6532X0.8032*%
%ADD91R,4.2032X2.2032*%
G04:AMPARAMS|DCode=92|XSize=1.7032mm|YSize=1.7232mm|CornerRadius=0.4766mm|HoleSize=0mm|Usage=FLASHONLY|Rotation=0.000|XOffset=0mm|YOffset=0mm|HoleType=Round|Shape=RoundedRectangle|*
%AMROUNDEDRECTD92*
21,1,1.7032,0.7700,0,0,0.0*
21,1,0.7500,1.7232,0,0,0.0*
1,1,0.9532,0.3750,-0.3850*
1,1,0.9532,-0.3750,-0.3850*
1,1,0.9532,-0.3750,0.3850*
1,1,0.9532,0.3750,0.3850*
%
%ADD92ROUNDEDRECTD92*%
%ADD93R,2.4032X3.3032*%
G04:AMPARAMS|DCode=94|XSize=1.2032mm|YSize=1.1032mm|CornerRadius=0.3266mm|HoleSize=0mm|Usage=FLASHONLY|Rotation=315.000|XOffset=0mm|YOffset=0mm|HoleType=Round|Shape=RoundedRectangle|*
%AMROUNDEDRECTD94*
21,1,1.2032,0.4500,0,0,315.0*
21,1,0.5500,1.1032,0,0,315.0*
1,1,0.6532,0.0354,-0.3536*
1,1,0.6532,-0.3536,0.0354*
1,1,0.6532,-0.0354,0.3536*
1,1,0.6532,0.3536,-0.0354*
%
%ADD94ROUNDEDRECTD94*%
G04:AMPARAMS|DCode=95|XSize=1.2032mm|YSize=1.1032mm|CornerRadius=0.3266mm|HoleSize=0mm|Usage=FLASHONLY|Rotation=0.000|XOffset=0mm|YOffset=0mm|HoleType=Round|Shape=RoundedRectangle|*
%AMROUNDEDRECTD95*
21,1,1.2032,0.4500,0,0,0.0*
21,1,0.5500,1.1032,0,0,0.0*
1,1,0.6532,0.2750,-0.2250*
1,1,0.6532,-0.2750,-0.2250*
1,1,0.6532,-0.2750,0.2250*
1,1,0.6532,0.2750,0.2250*
%
%ADD95ROUNDEDRECTD95*%
G04:AMPARAMS|DCode=96|XSize=2.0032mm|YSize=1.5032mm|CornerRadius=0.4266mm|HoleSize=0mm|Usage=FLASHONLY|Rotation=90.000|XOffset=0mm|YOffset=0mm|HoleType=Round|Shape=RoundedRectangle|*
%AMROUNDEDRECTD96*
21,1,2.0032,0.6500,0,0,90.0*
21,1,1.1500,1.5032,0,0,90.0*
1,1,0.8532,0.3250,0.5750*
1,1,0.8532,0.3250,-0.5750*
1,1,0.8532,-0.3250,-0.5750*
1,1,0.8532,-0.3250,0.5750*
%
%ADD96ROUNDEDRECTD96*%
G04:AMPARAMS|DCode=97|XSize=1.7032mm|YSize=3.7032mm|CornerRadius=0.4766mm|HoleSize=0mm|Usage=FLASHONLY|Rotation=0.000|XOffset=0mm|YOffset=0mm|HoleType=Round|Shape=RoundedRectangle|*
%AMROUNDEDRECTD97*
21,1,1.7032,2.7500,0,0,0.0*
21,1,0.7500,3.7032,0,0,0.0*
1,1,0.9532,0.3750,-1.3750*
1,1,0.9532,-0.3750,-1.3750*
1,1,0.9532,-0.3750,1.3750*
1,1,0.9532,0.3750,1.3750*
%
%ADD97ROUNDEDRECTD97*%
%ADD98R,1.7032X3.7032*%
%ADD99R,2.4032X1.4032*%
%ADD100R,6.0032X6.6032*%
%ADD101R,12.2032X5.7032*%
G04:AMPARAMS|DCode=102|XSize=3.2032mm|YSize=4.2032mm|CornerRadius=0mm|HoleSize=0mm|Usage=FLASHONLY|Rotation=0.000|XOffset=0mm|YOffset=0mm|HoleType=Round|Shape=Octagon|*
%AMOCTAGOND102*
4,1,8,-0.8008,2.1016,0.8008,2.1016,1.6016,1.3008,1.6016,-1.3008,0.8008,-2.1016,-0.8008,-2.1016,-1.6016,-1.3008,-1.6016,1.3008,-0.8008,2.1016,0.0*
%
%ADD102OCTAGOND102*%

%ADD103R,2.1032X0.8032*%
G04:AMPARAMS|DCode=104|XSize=0.8032mm|YSize=2.1032mm|CornerRadius=0.2516mm|HoleSize=0mm|Usage=FLASHONLY|Rotation=90.000|XOffset=0mm|YOffset=0mm|HoleType=Round|Shape=RoundedRectangle|*
%AMROUNDEDRECTD104*
21,1,0.8032,1.6000,0,0,90.0*
21,1,0.3000,2.1032,0,0,90.0*
1,1,0.5032,0.8000,0.1500*
1,1,0.5032,0.8000,-0.1500*
1,1,0.5032,-0.8000,-0.1500*
1,1,0.5032,-0.8000,0.1500*
%
%ADD104ROUNDEDRECTD104*%
G04:AMPARAMS|DCode=105|XSize=3.6532mm|YSize=2.4532mm|CornerRadius=0.6641mm|HoleSize=0mm|Usage=FLASHONLY|Rotation=90.000|XOffset=0mm|YOffset=0mm|HoleType=Round|Shape=RoundedRectangle|*
%AMROUNDEDRECTD105*
21,1,3.6532,1.1250,0,0,90.0*
21,1,2.3250,2.4532,0,0,90.0*
1,1,1.3282,0.5625,1.1625*
1,1,1.3282,0.5625,-1.1625*
1,1,1.3282,-0.5625,-1.1625*
1,1,1.3282,-0.5625,1.1625*
%
%ADD105ROUNDEDRECTD105*%
G04:AMPARAMS|DCode=106|XSize=1.0432mm|YSize=0.4632mm|CornerRadius=0.1666mm|HoleSize=0mm|Usage=FLASHONLY|Rotation=45.000|XOffset=0mm|YOffset=0mm|HoleType=Round|Shape=RoundedRectangle|*
%AMROUNDEDRECTD106*
21,1,1.0432,0.1300,0,0,45.0*
21,1,0.7100,0.4632,0,0,45.0*
1,1,0.3332,0.2970,0.2051*
1,1,0.3332,-0.2051,-0.2970*
1,1,0.3332,-0.2970,-0.2051*
1,1,0.3332,0.2051,0.2970*
%
%ADD106ROUNDEDRECTD106*%
G04:AMPARAMS|DCode=107|XSize=1.0432mm|YSize=0.4632mm|CornerRadius=0mm|HoleSize=0mm|Usage=FLASHONLY|Rotation=315.000|XOffset=0mm|YOffset=0mm|HoleType=Round|Shape=Rectangle|*
%AMROTATEDRECTD107*
4,1,4,-0.5326,0.2051,-0.2051,0.5326,0.5326,-0.2051,0.2051,-0.5326,-0.5326,0.2051,0.0*
%
%ADD107ROTATEDRECTD107*%

G04:AMPARAMS|DCode=108|XSize=1.0432mm|YSize=0.4632mm|CornerRadius=0.1666mm|HoleSize=0mm|Usage=FLASHONLY|Rotation=315.000|XOffset=0mm|YOffset=0mm|HoleType=Round|Shape=RoundedRectangle|*
%AMROUNDEDRECTD108*
21,1,1.0432,0.1300,0,0,315.0*
21,1,0.7100,0.4632,0,0,315.0*
1,1,0.3332,0.2051,-0.2970*
1,1,0.3332,-0.2970,0.2051*
1,1,0.3332,-0.2051,0.2970*
1,1,0.3332,0.2970,-0.2051*
%
%ADD108ROUNDEDRECTD108*%
%ADD109P,3.8229X4X360.0*%
G04:AMPARAMS|DCode=110|XSize=1.2032mm|YSize=1.1032mm|CornerRadius=0.3266mm|HoleSize=0mm|Usage=FLASHONLY|Rotation=225.000|XOffset=0mm|YOffset=0mm|HoleType=Round|Shape=RoundedRectangle|*
%AMROUNDEDRECTD110*
21,1,1.2032,0.4500,0,0,225.0*
21,1,0.5500,1.1032,0,0,225.0*
1,1,0.6532,-0.3536,-0.0354*
1,1,0.6532,0.0354,0.3536*
1,1,0.6532,0.3536,0.0354*
1,1,0.6532,-0.0354,-0.3536*
%
%ADD110ROUNDEDRECTD110*%
%ADD111R,1.2032X0.8032*%
G04:AMPARAMS|DCode=112|XSize=0.8032mm|YSize=1.2032mm|CornerRadius=0.2516mm|HoleSize=0mm|Usage=FLASHONLY|Rotation=270.000|XOffset=0mm|YOffset=0mm|HoleType=Round|Shape=RoundedRectangle|*
%AMROUNDEDRECTD112*
21,1,0.8032,0.7000,0,0,270.0*
21,1,0.3000,1.2032,0,0,270.0*
1,1,0.5032,-0.3500,-0.1500*
1,1,0.5032,-0.3500,0.1500*
1,1,0.5032,0.3500,0.1500*
1,1,0.5032,0.3500,-0.1500*
%
%ADD112ROUNDEDRECTD112*%
%ADD113C,3.0000*%
%ADD114R,1.5032X0.9032*%
G04:AMPARAMS|DCode=115|XSize=0.9032mm|YSize=1.5032mm|CornerRadius=0.2766mm|HoleSize=0mm|Usage=FLASHONLY|Rotation=270.000|XOffset=0mm|YOffset=0mm|HoleType=Round|Shape=RoundedRectangle|*
%AMROUNDEDRECTD115*
21,1,0.9032,0.9500,0,0,270.0*
21,1,0.3500,1.5032,0,0,270.0*
1,1,0.5532,-0.4750,-0.1750*
1,1,0.5532,-0.4750,0.1750*
1,1,0.5532,0.4750,0.1750*
1,1,0.5532,0.4750,-0.1750*
%
%ADD115ROUNDEDRECTD115*%
%ADD116O,1.8032X1.2032*%
%ADD117C,0.8782*%
%ADD118O,2.3032X1.2032*%
%ADD119C,1.9032*%
%ADD120R,1.9032X1.9032*%
%ADD121R,1.9032X1.9032*%
%ADD122O,2.1032X1.7032*%
%ADD123R,2.1032X1.7032*%
%ADD124C,1.7032*%
%ADD125O,1.7032X2.1032*%
%ADD126P,3.0533X4X90.0*%
%ADD127R,2.1590X2.1590*%
D70*
X208000Y383000D02*
D03*
Y375500D02*
D03*
Y368000D02*
D03*
Y360500D02*
D03*
X215500D02*
D03*
Y368000D02*
D03*
Y375500D02*
D03*
Y383000D02*
D03*
X223000Y360500D02*
D03*
Y368000D02*
D03*
Y375500D02*
D03*
Y383000D02*
D03*
D80*
X170100Y160500D02*
D03*
X199500D02*
D03*
X170100Y135500D02*
D03*
X199500D02*
D03*
D81*
X211220Y231564D02*
D03*
D82*
X262220D02*
D03*
D83*
X584938Y153000D02*
D03*
X240726Y433970D02*
D03*
X589938Y381396D02*
D03*
X449938Y340500D02*
D03*
D84*
X552658Y152820D02*
D03*
X208446Y433790D02*
D03*
X557658Y381216D02*
D03*
X417658Y340320D02*
D03*
D85*
X325500Y234500D02*
D03*
Y206500D02*
D03*
X173000Y219500D02*
D03*
Y191500D02*
D03*
X400500Y269500D02*
D03*
Y241500D02*
D03*
X688000Y394000D02*
D03*
X688000Y422000D02*
D03*
X488688Y455846D02*
D03*
Y427846D02*
D03*
D86*
X383101Y142900D02*
D03*
X402900Y123101D02*
D03*
D87*
X623054Y179814D02*
D03*
X707890D02*
D03*
D88*
X645000Y393000D02*
D03*
X661000D02*
D03*
X246788Y408970D02*
D03*
X230788D02*
D03*
X186788Y318970D02*
D03*
X170788D02*
D03*
X200788Y333970D02*
D03*
X216788D02*
D03*
X170788D02*
D03*
X186788D02*
D03*
X420000Y273000D02*
D03*
X436000D02*
D03*
X131000Y148000D02*
D03*
X115000Y148000D02*
D03*
X131000Y133000D02*
D03*
X115000Y133000D02*
D03*
X131000Y163000D02*
D03*
X115000Y163000D02*
D03*
X131000Y178000D02*
D03*
X115000D02*
D03*
X631000Y393000D02*
D03*
X615000D02*
D03*
X631816Y468546D02*
D03*
X615816D02*
D03*
X615308Y412920D02*
D03*
X631308D02*
D03*
D89*
X740050Y298001D02*
D03*
Y283001D02*
D03*
Y293001D02*
D03*
Y288001D02*
D03*
Y278001D02*
D03*
Y273001D02*
D03*
Y303001D02*
D03*
Y308001D02*
D03*
X78698Y153491D02*
D03*
Y168491D02*
D03*
Y158491D02*
D03*
Y163491D02*
D03*
Y173491D02*
D03*
Y178491D02*
D03*
Y148491D02*
D03*
Y143491D02*
D03*
D90*
X740050Y266001D02*
D03*
Y315001D02*
D03*
Y323001D02*
D03*
Y258001D02*
D03*
X78698Y185491D02*
D03*
X78698Y136491D02*
D03*
Y128491D02*
D03*
X78698Y193491D02*
D03*
D91*
X566412Y415714D02*
D03*
X566412Y448734D02*
D03*
D92*
X524174Y410104D02*
D03*
D93*
X523994Y442384D02*
D03*
D94*
X449843Y127343D02*
D03*
X461157Y138657D02*
D03*
X424843Y127343D02*
D03*
X436157Y138657D02*
D03*
X447343Y149843D02*
D03*
X458657Y161157D02*
D03*
D95*
X515500Y145000D02*
D03*
Y161000D02*
D03*
X186388Y304416D02*
D03*
Y288416D02*
D03*
X171388Y288416D02*
D03*
Y304416D02*
D03*
X156388Y304416D02*
D03*
X156388Y288416D02*
D03*
X246288Y289470D02*
D03*
Y273470D02*
D03*
X201288Y289470D02*
D03*
Y273470D02*
D03*
X231288Y273470D02*
D03*
Y289470D02*
D03*
X216288Y273470D02*
D03*
Y289470D02*
D03*
X201288Y303470D02*
D03*
Y319470D02*
D03*
X261288D02*
D03*
Y303470D02*
D03*
X246288Y303470D02*
D03*
Y319470D02*
D03*
X231288Y303470D02*
D03*
X231288Y319470D02*
D03*
X216288Y303470D02*
D03*
X216288Y319470D02*
D03*
X375500Y243500D02*
D03*
Y227500D02*
D03*
X450500Y273500D02*
D03*
Y257500D02*
D03*
X360500Y227500D02*
D03*
Y243500D02*
D03*
X345500Y243500D02*
D03*
Y227500D02*
D03*
X375658Y212876D02*
D03*
Y196876D02*
D03*
X515500Y193500D02*
D03*
X515500Y177500D02*
D03*
X653915Y426191D02*
D03*
Y410191D02*
D03*
D96*
X594382Y214942D02*
D03*
X566382D02*
D03*
X375434Y285140D02*
D03*
X347434D02*
D03*
X522000Y383000D02*
D03*
X494000D02*
D03*
X442000Y395500D02*
D03*
X414000D02*
D03*
X462000Y370500D02*
D03*
X434000D02*
D03*
D97*
X120500Y347500D02*
D03*
X680500Y333500D02*
D03*
D98*
X120500Y398500D02*
D03*
X680500Y282500D02*
D03*
D99*
X370500Y262400D02*
D03*
Y308000D02*
D03*
D100*
X307500Y285200D02*
D03*
D101*
X335362Y352368D02*
D03*
Y443808D02*
D03*
D102*
X213788Y371470D02*
D03*
D103*
X180288Y390520D02*
D03*
D104*
Y377820D02*
D03*
Y365120D02*
D03*
Y352420D02*
D03*
X247288Y390520D02*
D03*
Y377820D02*
D03*
Y365120D02*
D03*
Y352420D02*
D03*
D105*
X453250Y300500D02*
D03*
X402750D02*
D03*
D106*
X385514Y168192D02*
D03*
X389049Y164656D02*
D03*
X392585Y161121D02*
D03*
X396120Y157585D02*
D03*
X399656Y154050D02*
D03*
X403192Y150514D02*
D03*
X430486Y177808D02*
D03*
X426950Y181344D02*
D03*
X423415Y184879D02*
D03*
X419879Y188415D02*
D03*
X416344Y191950D02*
D03*
X412808Y195486D02*
D03*
D107*
X403192D02*
D03*
D108*
X399656Y191950D02*
D03*
X396120Y188415D02*
D03*
X392585Y184879D02*
D03*
X389049Y181344D02*
D03*
X385514Y177808D02*
D03*
X412808Y150514D02*
D03*
X416344Y154050D02*
D03*
X419879Y157585D02*
D03*
X423415Y161121D02*
D03*
X426950Y164656D02*
D03*
X430486Y168192D02*
D03*
D109*
X408000Y173000D02*
D03*
D110*
X346157Y127343D02*
D03*
X334843Y138657D02*
D03*
X371157Y127343D02*
D03*
X359843Y138657D02*
D03*
D111*
X497500Y176000D02*
D03*
X565966Y176834D02*
D03*
D112*
X497500Y195000D02*
D03*
X473500Y185500D02*
D03*
X565966Y195834D02*
D03*
X541966Y186334D02*
D03*
D113*
X138000Y230500D02*
D03*
X728000Y420500D02*
D03*
X760500Y193000D02*
D03*
D114*
X632205Y430359D02*
D03*
D115*
Y439859D02*
D03*
Y449359D02*
D03*
X608205D02*
D03*
Y439859D02*
D03*
Y430359D02*
D03*
D116*
X790500Y333700D02*
D03*
Y247300D02*
D03*
X28248Y117792D02*
D03*
Y204192D02*
D03*
D117*
X754000Y319399D02*
D03*
Y261601D02*
D03*
X64748Y132093D02*
D03*
Y189891D02*
D03*
D118*
X748700Y333700D02*
D03*
Y247300D02*
D03*
X70048Y117792D02*
D03*
Y204192D02*
D03*
D119*
X241060Y138000D02*
D03*
X40500Y396300D02*
D03*
Y296300D02*
D03*
D120*
X291860Y138000D02*
D03*
D121*
X40500Y345500D02*
D03*
Y245500D02*
D03*
D122*
X496000Y243000D02*
D03*
D123*
Y343000D02*
D03*
D124*
X598000Y243000D02*
D03*
Y343000D02*
D03*
D125*
X623000Y293000D02*
D03*
D126*
X790500Y208000D02*
D03*
D127*
X747500Y390500D02*
D03*
M02*
