G04*
G04 #@! TF.GenerationSoftware,Altium Limited,Altium Designer,23.11.1 (41)*
G04*
G04 Layer_Color=16711935*
%FSLAX44Y44*%
%MOMM*%
G71*
G04*
G04 #@! TF.SameCoordinates,884342A8-4ED4-4568-BB5E-73BA217C2521*
G04*
G04*
G04 #@! TF.FilePolarity,Negative*
G04*
G01*
G75*
%ADD113C,3.0000*%
%ADD116O,1.8032X1.2032*%
%ADD117C,0.8782*%
%ADD118O,2.3032X1.2032*%
%ADD119C,1.9032*%
%ADD120R,1.9032X1.9032*%
%ADD121R,1.9032X1.9032*%
%ADD122O,2.1032X1.7032*%
%ADD123R,2.1032X1.7032*%
%ADD124C,1.7032*%
%ADD125O,1.7032X2.1032*%
%ADD126P,3.0533X4X90.0*%
%ADD127R,2.1590X2.1590*%
%ADD128C,0.3000*%
%ADD129C,0.6000*%
D113*
X138000Y230500D02*
D03*
X752594Y193464D02*
D03*
X728000Y420500D02*
D03*
D116*
X790500Y333700D02*
D03*
Y247300D02*
D03*
X28248Y117792D02*
D03*
Y204192D02*
D03*
D117*
X754000Y319399D02*
D03*
Y261601D02*
D03*
X64748Y132093D02*
D03*
Y189891D02*
D03*
D118*
X748700Y333700D02*
D03*
Y247300D02*
D03*
X70048Y117792D02*
D03*
Y204192D02*
D03*
D119*
X241060Y138000D02*
D03*
X40500Y396300D02*
D03*
Y296300D02*
D03*
D120*
X291860Y138000D02*
D03*
D121*
X40500Y345500D02*
D03*
Y245500D02*
D03*
D122*
X496000Y243000D02*
D03*
D123*
Y343000D02*
D03*
D124*
X598000Y243000D02*
D03*
Y343000D02*
D03*
D125*
X623000Y293000D02*
D03*
D126*
X790500Y208000D02*
D03*
D127*
X747500Y390500D02*
D03*
D128*
X250182Y199052D02*
D03*
X238696Y190162D02*
D03*
X231379Y190282D02*
D03*
X533000Y150500D02*
D03*
X598924Y123392D02*
D03*
X514342Y116248D02*
D03*
X323000Y223000D02*
D03*
X148328Y135156D02*
D03*
Y142156D02*
D03*
X94734Y164650D02*
D03*
X718153Y301977D02*
D03*
X94734Y157650D02*
D03*
X725728Y302231D02*
D03*
X725670Y281602D02*
D03*
X307848Y120528D02*
D03*
X238651Y311623D02*
D03*
X703000Y253000D02*
D03*
X695500D02*
D03*
X690500Y243000D02*
D03*
X698000D02*
D03*
X347464Y141884D02*
D03*
X707890Y300144D02*
D03*
X707636Y278554D02*
D03*
X693000Y348000D02*
D03*
Y340500D02*
D03*
Y333000D02*
D03*
Y325500D02*
D03*
X508000Y468000D02*
D03*
X609084Y457116D02*
D03*
X668000Y418000D02*
D03*
Y428000D02*
D03*
X593590Y195242D02*
D03*
X594352Y444416D02*
D03*
X440682Y163888D02*
D03*
X354322Y212242D02*
D03*
X353814Y150520D02*
D03*
X388296Y196240D02*
D03*
X385056Y204622D02*
D03*
X390500Y223000D02*
D03*
X411472Y208686D02*
D03*
X405500Y360500D02*
D03*
X420500D02*
D03*
X413000D02*
D03*
X405500Y353000D02*
D03*
X420500D02*
D03*
X413000D02*
D03*
X163000Y268000D02*
D03*
Y253000D02*
D03*
Y260500D02*
D03*
X173000Y268000D02*
D03*
Y253000D02*
D03*
Y260500D02*
D03*
X98000Y408000D02*
D03*
Y393000D02*
D03*
Y400500D02*
D03*
X105500Y408000D02*
D03*
Y393000D02*
D03*
Y400500D02*
D03*
X460748Y208432D02*
D03*
X449318Y234594D02*
D03*
X343400Y257200D02*
D03*
X439920Y220116D02*
D03*
X418769Y256946D02*
D03*
X418838Y231292D02*
D03*
X251198Y335896D02*
D03*
X145026Y288906D02*
D03*
X263788Y353970D02*
D03*
Y368970D02*
D03*
Y361470D02*
D03*
Y346470D02*
D03*
X184486Y403930D02*
D03*
X263788Y376470D02*
D03*
X227412Y398850D02*
D03*
D129*
X504182Y411142D02*
D03*
M02*
