G04*
G04 #@! TF.GenerationSoftware,Altium Limited,Altium Designer,23.11.1 (41)*
G04*
G04 Layer_Color=32896*
%FSLAX44Y44*%
%MOMM*%
G71*
G04*
G04 #@! TF.SameCoordinates,884342A8-4ED4-4568-BB5E-73BA217C2521*
G04*
G04*
G04 #@! TF.FilePolarity,Positive*
G04*
G01*
G75*
%ADD53C,0.2032*%
G36*
X279914Y158713D02*
X276964D01*
Y165161D01*
X272341D01*
Y158713D01*
X269391D01*
Y173834D01*
X272341D01*
Y167586D01*
X276964D01*
Y173834D01*
X279914D01*
Y158713D01*
D02*
G37*
G36*
X253345D02*
X250846D01*
Y167486D01*
Y167736D01*
Y167986D01*
Y168186D01*
Y168361D01*
X250871Y168486D01*
Y168610D01*
Y168660D01*
Y168685D01*
Y169010D01*
Y169260D01*
X250896Y169335D01*
Y169410D01*
Y169435D01*
Y169460D01*
X250846D01*
X250821Y169385D01*
X250771Y169285D01*
X250671Y169060D01*
X250621Y168960D01*
X250571Y168860D01*
X250546Y168810D01*
Y168785D01*
X250346Y168410D01*
X250171Y168061D01*
X250071Y167911D01*
X249996Y167786D01*
X249971Y167711D01*
X249946Y167686D01*
X244523Y158713D01*
X242098D01*
Y173834D01*
X244623D01*
Y165361D01*
Y165086D01*
Y164836D01*
Y164611D01*
Y164436D01*
Y164286D01*
Y164162D01*
Y164087D01*
Y164062D01*
Y163887D01*
X244598Y163712D01*
Y163587D01*
Y163487D01*
Y163362D01*
Y163312D01*
X244623D01*
X244723Y163562D01*
X244848Y163812D01*
X244923Y163912D01*
X244948Y164012D01*
X244998Y164062D01*
Y164087D01*
X245173Y164436D01*
X245347Y164786D01*
X245422Y164911D01*
X245472Y165011D01*
X245497Y165086D01*
X245522Y165111D01*
X250821Y173834D01*
X253345D01*
Y158713D01*
D02*
G37*
G36*
X286587Y174084D02*
X286987Y174059D01*
X287337Y174009D01*
X287637Y173959D01*
X287887Y173884D01*
X288062Y173834D01*
X288186Y173809D01*
X288237Y173784D01*
X288561Y173659D01*
X288861Y173509D01*
X289111Y173359D01*
X289336Y173209D01*
X289536Y173059D01*
X289661Y172959D01*
X289761Y172884D01*
X289786Y172859D01*
X290011Y172634D01*
X290211Y172409D01*
X290361Y172160D01*
X290511Y171935D01*
X290611Y171760D01*
X290686Y171610D01*
X290736Y171485D01*
X290761Y171460D01*
X290886Y171135D01*
X290961Y170835D01*
X291036Y170510D01*
X291061Y170235D01*
X291086Y169985D01*
X291111Y169785D01*
Y169660D01*
Y169610D01*
X291086Y169210D01*
X291036Y168835D01*
X290986Y168510D01*
X290886Y168235D01*
X290811Y168011D01*
X290761Y167861D01*
X290711Y167736D01*
X290686Y167711D01*
X290511Y167436D01*
X290311Y167186D01*
X290136Y166986D01*
X289961Y166786D01*
X289811Y166636D01*
X289686Y166536D01*
X289611Y166461D01*
X289586Y166436D01*
X289086Y166086D01*
X288861Y165911D01*
X288636Y165786D01*
X288461Y165686D01*
X288312Y165611D01*
X288211Y165561D01*
X288186Y165536D01*
X287637Y165286D01*
X287387Y165161D01*
X287187Y165036D01*
X287012Y164961D01*
X286887Y164886D01*
X286787Y164836D01*
X286762Y164811D01*
X286537Y164686D01*
X286312Y164536D01*
X286137Y164412D01*
X285987Y164286D01*
X285862Y164162D01*
X285762Y164087D01*
X285712Y164037D01*
X285687Y164012D01*
X285537Y163837D01*
X285437Y163662D01*
X285337Y163487D01*
X285287Y163312D01*
X285262Y163162D01*
X285237Y163037D01*
Y162962D01*
Y162937D01*
X285262Y162637D01*
X285337Y162387D01*
X285437Y162162D01*
X285537Y161962D01*
X285662Y161812D01*
X285762Y161712D01*
X285837Y161637D01*
X285862Y161612D01*
X286112Y161437D01*
X286387Y161312D01*
X286662Y161237D01*
X286912Y161187D01*
X287162Y161137D01*
X287362Y161112D01*
X287537D01*
X288062Y161137D01*
X288312Y161187D01*
X288536Y161212D01*
X288711Y161262D01*
X288861Y161287D01*
X288961Y161312D01*
X288986D01*
X289486Y161487D01*
X289711Y161562D01*
X289911Y161637D01*
X290086Y161712D01*
X290211Y161762D01*
X290286Y161812D01*
X290311D01*
X291286Y159263D01*
X290636Y158988D01*
X290311Y158888D01*
X290036Y158813D01*
X289786Y158738D01*
X289611Y158688D01*
X289486Y158663D01*
X289436D01*
X288686Y158538D01*
X288337Y158513D01*
X288036Y158488D01*
X287762Y158463D01*
X287387D01*
X286937Y158488D01*
X286537Y158513D01*
X286162Y158563D01*
X285837Y158638D01*
X285587Y158688D01*
X285387Y158738D01*
X285262Y158763D01*
X285212Y158788D01*
X284862Y158913D01*
X284537Y159063D01*
X284263Y159238D01*
X284038Y159388D01*
X283838Y159513D01*
X283713Y159638D01*
X283613Y159713D01*
X283588Y159738D01*
X283338Y159988D01*
X283138Y160238D01*
X282963Y160462D01*
X282813Y160688D01*
X282713Y160887D01*
X282638Y161037D01*
X282588Y161162D01*
X282563Y161187D01*
X282438Y161512D01*
X282363Y161837D01*
X282288Y162162D01*
X282263Y162462D01*
X282238Y162712D01*
X282213Y162912D01*
Y163037D01*
Y163087D01*
X282238Y163487D01*
X282288Y163862D01*
X282363Y164187D01*
X282438Y164436D01*
X282513Y164661D01*
X282588Y164836D01*
X282638Y164936D01*
X282663Y164961D01*
X282838Y165236D01*
X283013Y165486D01*
X283188Y165686D01*
X283363Y165886D01*
X283538Y166036D01*
X283638Y166136D01*
X283738Y166211D01*
X283763Y166236D01*
X284263Y166611D01*
X284487Y166761D01*
X284712Y166911D01*
X284912Y167011D01*
X285062Y167086D01*
X285162Y167136D01*
X285187Y167161D01*
X285737Y167436D01*
X285987Y167561D01*
X286212Y167686D01*
X286387Y167761D01*
X286512Y167836D01*
X286612Y167886D01*
X286637Y167911D01*
X287087Y168186D01*
X287262Y168335D01*
X287437Y168461D01*
X287562Y168560D01*
X287662Y168635D01*
X287712Y168685D01*
X287737Y168710D01*
X287887Y168885D01*
X287987Y169060D01*
X288062Y169235D01*
X288111Y169410D01*
X288137Y169560D01*
X288162Y169685D01*
Y169760D01*
Y169785D01*
X288137Y170060D01*
X288086Y170335D01*
X287987Y170535D01*
X287887Y170735D01*
X287787Y170860D01*
X287687Y170985D01*
X287637Y171035D01*
X287612Y171060D01*
X287387Y171235D01*
X287137Y171360D01*
X286862Y171435D01*
X286612Y171510D01*
X286412Y171535D01*
X286212Y171560D01*
X286062D01*
X285562Y171535D01*
X285337Y171510D01*
X285137Y171485D01*
X284962Y171435D01*
X284837Y171410D01*
X284762Y171385D01*
X284737D01*
X284287Y171235D01*
X284088Y171160D01*
X283938Y171085D01*
X283788Y171010D01*
X283688Y170960D01*
X283613Y170935D01*
X283588Y170910D01*
X282663Y173284D01*
X283213Y173559D01*
X283488Y173659D01*
X283738Y173734D01*
X283938Y173809D01*
X284112Y173859D01*
X284212Y173884D01*
X284263D01*
X284937Y174009D01*
X285262Y174059D01*
X285562Y174084D01*
X285812Y174109D01*
X286187D01*
X286587Y174084D01*
D02*
G37*
G36*
X263318Y174059D02*
X263718Y174034D01*
X264068Y173984D01*
X264343Y173934D01*
X264568Y173909D01*
X264718Y173859D01*
X264767D01*
X265167Y173759D01*
X265517Y173684D01*
X265817Y173584D01*
X266067Y173484D01*
X266292Y173409D01*
X266442Y173334D01*
X266542Y173309D01*
X266567Y173284D01*
Y159263D01*
X266292Y159138D01*
X265992Y159038D01*
X265717Y158938D01*
X265417Y158838D01*
X265167Y158788D01*
X264967Y158738D01*
X264842Y158688D01*
X264792D01*
X263968Y158563D01*
X263568Y158513D01*
X263193Y158488D01*
X262868D01*
X262643Y158463D01*
X262418D01*
X261843Y158488D01*
X261293Y158538D01*
X260793Y158638D01*
X260319Y158763D01*
X259869Y158913D01*
X259469Y159088D01*
X259094Y159263D01*
X258769Y159463D01*
X258469Y159638D01*
X258219Y159813D01*
X257994Y159988D01*
X257819Y160138D01*
X257669Y160263D01*
X257569Y160362D01*
X257519Y160413D01*
X257494Y160438D01*
X257169Y160837D01*
X256919Y161262D01*
X256670Y161712D01*
X256470Y162187D01*
X256295Y162687D01*
X256145Y163162D01*
X256045Y163637D01*
X255945Y164112D01*
X255870Y164562D01*
X255820Y164961D01*
X255770Y165336D01*
X255745Y165661D01*
X255720Y165911D01*
Y166111D01*
Y166236D01*
Y166286D01*
X255745Y166986D01*
X255795Y167636D01*
X255895Y168235D01*
X255995Y168810D01*
X256120Y169335D01*
X256270Y169810D01*
X256445Y170235D01*
X256595Y170635D01*
X256770Y170985D01*
X256945Y171285D01*
X257094Y171535D01*
X257219Y171735D01*
X257319Y171910D01*
X257419Y172010D01*
X257469Y172085D01*
X257494Y172110D01*
X257844Y172459D01*
X258219Y172759D01*
X258594Y173034D01*
X258994Y173259D01*
X259419Y173459D01*
X259819Y173634D01*
X260219Y173759D01*
X260619Y173859D01*
X260968Y173934D01*
X261318Y174009D01*
X261618Y174059D01*
X261893Y174084D01*
X262118Y174109D01*
X262868D01*
X263318Y174059D01*
D02*
G37*
G36*
X88312Y303973D02*
X88686Y303923D01*
X89011Y303898D01*
X89311Y303848D01*
X89511Y303798D01*
X89661Y303773D01*
X89711D01*
X90111Y303698D01*
X90486Y303598D01*
X90836Y303498D01*
X91136Y303398D01*
X91411Y303323D01*
X91586Y303248D01*
X91711Y303198D01*
X91761Y303173D01*
X90936Y300949D01*
X90386Y301149D01*
X90111Y301224D01*
X89886Y301299D01*
X89661Y301349D01*
X89511Y301399D01*
X89386Y301424D01*
X89361D01*
X88736Y301524D01*
X88462Y301549D01*
X88237Y301574D01*
X88037Y301599D01*
X87737D01*
X87237Y301574D01*
X86812Y301499D01*
X86437Y301399D01*
X86137Y301274D01*
X85887Y301149D01*
X85737Y301049D01*
X85612Y300974D01*
X85587Y300949D01*
X85337Y300699D01*
X85162Y300424D01*
X85012Y300149D01*
X84937Y299874D01*
X84887Y299649D01*
X84837Y299449D01*
Y299324D01*
Y299274D01*
X84862Y298999D01*
X84887Y298749D01*
X84962Y298524D01*
X85012Y298325D01*
X85087Y298150D01*
X85162Y298025D01*
X85187Y297925D01*
X85212Y297900D01*
X85487Y297450D01*
X85637Y297250D01*
X85762Y297050D01*
X85862Y296900D01*
X85962Y296775D01*
X86012Y296700D01*
X86037Y296675D01*
X92510Y288602D01*
X81538D01*
Y290951D01*
X87687D01*
X83738Y295400D01*
X83488Y295700D01*
X83263Y295950D01*
X83188Y296075D01*
X83113Y296150D01*
X83088Y296200D01*
X83063Y296225D01*
X82813Y296575D01*
X82613Y296875D01*
X82538Y297000D01*
X82488Y297100D01*
X82438Y297150D01*
Y297175D01*
X82263Y297575D01*
X82113Y297900D01*
X82063Y298050D01*
X82038Y298150D01*
X82013Y298225D01*
Y298249D01*
X81913Y298674D01*
X81888Y298874D01*
X81863Y299049D01*
X81838Y299199D01*
Y299324D01*
Y299399D01*
Y299424D01*
X81863Y299824D01*
X81888Y300174D01*
X81963Y300524D01*
X82063Y300849D01*
X82288Y301424D01*
X82563Y301899D01*
X82688Y302099D01*
X82838Y302274D01*
X82963Y302423D01*
X83063Y302548D01*
X83163Y302648D01*
X83213Y302723D01*
X83263Y302748D01*
X83288Y302773D01*
X83563Y302998D01*
X83888Y303173D01*
X84213Y303348D01*
X84537Y303473D01*
X85237Y303698D01*
X85912Y303848D01*
X86237Y303898D01*
X86537Y303923D01*
X86787Y303973D01*
X87037D01*
X87212Y303998D01*
X87912D01*
X88312Y303973D01*
D02*
G37*
G36*
X62793Y288602D02*
X59669D01*
X55020Y303723D01*
X58219D01*
X60769Y293876D01*
X60894Y293376D01*
X60943Y293151D01*
X60993Y292951D01*
X61019Y292776D01*
X61044Y292651D01*
X61069Y292576D01*
Y292551D01*
X61094Y292351D01*
X61143Y292176D01*
X61168Y292026D01*
Y291901D01*
X61193Y291801D01*
X61218Y291751D01*
Y291726D01*
Y291701D01*
X61268D01*
X61293Y291801D01*
X61318Y291926D01*
X61343Y292026D01*
Y292051D01*
X61368Y292251D01*
X61393Y292426D01*
X61418Y292551D01*
Y292576D01*
Y292601D01*
X61468Y292826D01*
X61493Y293026D01*
X61518Y293176D01*
X61543Y293201D01*
Y293226D01*
X61593Y293476D01*
X61643Y293676D01*
X61668Y293826D01*
X61693Y293851D01*
Y293876D01*
X64243Y303723D01*
X67442D01*
X62793Y288602D01*
D02*
G37*
G36*
X99684Y296500D02*
X102933D01*
Y294275D01*
X99684D01*
Y290901D01*
X97284D01*
Y294275D01*
X94035D01*
Y296500D01*
X97284D01*
Y299874D01*
X99684D01*
Y296500D01*
D02*
G37*
G36*
X79464Y294375D02*
Y292326D01*
X72691D01*
Y288602D01*
X70041D01*
Y292326D01*
X68542D01*
Y294375D01*
X70041D01*
Y303723D01*
X73165D01*
X79464Y294375D01*
D02*
G37*
G36*
X88312Y403973D02*
X88686Y403923D01*
X89011Y403898D01*
X89311Y403848D01*
X89511Y403798D01*
X89661Y403773D01*
X89711D01*
X90111Y403698D01*
X90486Y403598D01*
X90836Y403498D01*
X91136Y403398D01*
X91411Y403323D01*
X91586Y403248D01*
X91711Y403198D01*
X91761Y403173D01*
X90936Y400949D01*
X90386Y401149D01*
X90111Y401224D01*
X89886Y401299D01*
X89661Y401349D01*
X89511Y401399D01*
X89386Y401424D01*
X89361D01*
X88736Y401524D01*
X88462Y401549D01*
X88237Y401574D01*
X88037Y401599D01*
X87737D01*
X87237Y401574D01*
X86812Y401499D01*
X86437Y401399D01*
X86137Y401274D01*
X85887Y401149D01*
X85737Y401049D01*
X85612Y400974D01*
X85587Y400949D01*
X85337Y400699D01*
X85162Y400424D01*
X85012Y400149D01*
X84937Y399874D01*
X84887Y399649D01*
X84837Y399449D01*
Y399324D01*
Y399274D01*
X84862Y398999D01*
X84887Y398749D01*
X84962Y398524D01*
X85012Y398325D01*
X85087Y398149D01*
X85162Y398025D01*
X85187Y397925D01*
X85212Y397900D01*
X85487Y397450D01*
X85637Y397250D01*
X85762Y397050D01*
X85862Y396900D01*
X85962Y396775D01*
X86012Y396700D01*
X86037Y396675D01*
X92510Y388602D01*
X81538D01*
Y390951D01*
X87687D01*
X83738Y395400D01*
X83488Y395700D01*
X83263Y395950D01*
X83188Y396075D01*
X83113Y396150D01*
X83088Y396200D01*
X83063Y396225D01*
X82813Y396575D01*
X82613Y396875D01*
X82538Y397000D01*
X82488Y397100D01*
X82438Y397150D01*
Y397175D01*
X82263Y397575D01*
X82113Y397900D01*
X82063Y398050D01*
X82038Y398149D01*
X82013Y398224D01*
Y398250D01*
X81913Y398674D01*
X81888Y398874D01*
X81863Y399049D01*
X81838Y399199D01*
Y399324D01*
Y399399D01*
Y399424D01*
X81863Y399824D01*
X81888Y400174D01*
X81963Y400524D01*
X82063Y400849D01*
X82288Y401424D01*
X82563Y401899D01*
X82688Y402099D01*
X82838Y402273D01*
X82963Y402423D01*
X83063Y402548D01*
X83163Y402648D01*
X83213Y402723D01*
X83263Y402748D01*
X83288Y402773D01*
X83563Y402998D01*
X83888Y403173D01*
X84213Y403348D01*
X84537Y403473D01*
X85237Y403698D01*
X85912Y403848D01*
X86237Y403898D01*
X86537Y403923D01*
X86787Y403973D01*
X87037D01*
X87212Y403998D01*
X87912D01*
X88312Y403973D01*
D02*
G37*
G36*
X62793Y388602D02*
X59669D01*
X55020Y403723D01*
X58219D01*
X60769Y393876D01*
X60894Y393376D01*
X60943Y393151D01*
X60993Y392951D01*
X61019Y392776D01*
X61044Y392651D01*
X61069Y392576D01*
Y392551D01*
X61094Y392351D01*
X61143Y392176D01*
X61168Y392026D01*
Y391901D01*
X61193Y391801D01*
X61218Y391751D01*
Y391726D01*
Y391701D01*
X61268D01*
X61293Y391801D01*
X61318Y391926D01*
X61343Y392026D01*
Y392051D01*
X61368Y392251D01*
X61393Y392426D01*
X61418Y392551D01*
Y392576D01*
Y392601D01*
X61468Y392826D01*
X61493Y393026D01*
X61518Y393176D01*
X61543Y393201D01*
Y393226D01*
X61593Y393476D01*
X61643Y393676D01*
X61668Y393826D01*
X61693Y393851D01*
Y393876D01*
X64243Y403723D01*
X67442D01*
X62793Y388602D01*
D02*
G37*
G36*
X99684Y396500D02*
X102933D01*
Y394276D01*
X99684D01*
Y390901D01*
X97284D01*
Y394276D01*
X94035D01*
Y396500D01*
X97284D01*
Y399874D01*
X99684D01*
Y396500D01*
D02*
G37*
G36*
X79464Y394375D02*
Y392326D01*
X72691D01*
Y388602D01*
X70041D01*
Y392326D01*
X68542D01*
Y394375D01*
X70041D01*
Y403723D01*
X73165D01*
X79464Y394375D01*
D02*
G37*
G36*
X79914Y337927D02*
X77414D01*
Y346700D01*
Y346950D01*
Y347200D01*
Y347399D01*
Y347575D01*
X77439Y347699D01*
Y347824D01*
Y347874D01*
Y347899D01*
Y348224D01*
Y348474D01*
X77464Y348549D01*
Y348624D01*
Y348649D01*
Y348674D01*
X77414D01*
X77389Y348599D01*
X77339Y348499D01*
X77239Y348274D01*
X77189Y348174D01*
X77139Y348074D01*
X77114Y348024D01*
Y347999D01*
X76914Y347625D01*
X76740Y347275D01*
X76639Y347125D01*
X76564Y347000D01*
X76540Y346925D01*
X76515Y346900D01*
X71091Y337927D01*
X68667D01*
Y353048D01*
X71191D01*
Y344575D01*
Y344300D01*
Y344050D01*
Y343825D01*
Y343651D01*
Y343501D01*
Y343376D01*
Y343301D01*
Y343276D01*
Y343101D01*
X71166Y342926D01*
Y342801D01*
Y342701D01*
Y342576D01*
Y342526D01*
X71191D01*
X71291Y342776D01*
X71416Y343026D01*
X71491Y343126D01*
X71516Y343226D01*
X71566Y343276D01*
Y343301D01*
X71741Y343651D01*
X71916Y344000D01*
X71991Y344125D01*
X72041Y344225D01*
X72066Y344300D01*
X72091Y344325D01*
X77389Y353048D01*
X79914D01*
Y337927D01*
D02*
G37*
G36*
X87137Y353298D02*
X87687Y353248D01*
X88187Y353148D01*
X88611Y353048D01*
X88986Y352948D01*
X89261Y352848D01*
X89361Y352823D01*
X89436Y352798D01*
X89461Y352773D01*
X89486D01*
X89961Y352548D01*
X90386Y352298D01*
X90761Y352023D01*
X91086Y351773D01*
X91361Y351548D01*
X91561Y351373D01*
X91686Y351249D01*
X91736Y351199D01*
X92060Y350799D01*
X92360Y350374D01*
X92610Y349974D01*
X92810Y349574D01*
X92960Y349249D01*
X93085Y348974D01*
X93135Y348874D01*
X93160Y348799D01*
X93185Y348749D01*
Y348724D01*
X93360Y348174D01*
X93485Y347599D01*
X93560Y347075D01*
X93610Y346575D01*
X93660Y346150D01*
Y345950D01*
X93685Y345800D01*
Y345675D01*
Y345575D01*
Y345525D01*
Y345500D01*
X93660Y344850D01*
X93610Y344225D01*
X93535Y343675D01*
X93435Y343201D01*
X93360Y342801D01*
X93310Y342651D01*
X93285Y342501D01*
X93260Y342401D01*
X93235Y342326D01*
X93210Y342276D01*
Y342251D01*
X93010Y341726D01*
X92785Y341251D01*
X92560Y340826D01*
X92336Y340476D01*
X92135Y340176D01*
X91986Y339951D01*
X91886Y339826D01*
X91836Y339776D01*
X91486Y339427D01*
X91111Y339102D01*
X90761Y338827D01*
X90411Y338602D01*
X90111Y338427D01*
X89861Y338302D01*
X89786Y338252D01*
X89711Y338227D01*
X89686Y338202D01*
X89661D01*
X89161Y338027D01*
X88686Y337902D01*
X88187Y337802D01*
X87762Y337752D01*
X87387Y337702D01*
X87212D01*
X87087Y337677D01*
X86312D01*
X85837Y337727D01*
X85412Y337752D01*
X85062Y337802D01*
X84762Y337852D01*
X84537Y337877D01*
X84388Y337927D01*
X84338D01*
X83938Y338027D01*
X83613Y338102D01*
X83313Y338202D01*
X83063Y338277D01*
X82888Y338352D01*
X82738Y338427D01*
X82663Y338452D01*
X82638Y338477D01*
Y346850D01*
X87712D01*
Y344600D01*
X85412D01*
Y340376D01*
X85587Y340301D01*
X85787Y340251D01*
X85962Y340226D01*
X86012Y340201D01*
X86037D01*
X86362Y340176D01*
X86687Y340151D01*
X87012D01*
X87287Y340176D01*
X87537Y340201D01*
X87762Y340251D01*
X87987Y340326D01*
X88161Y340376D01*
X88287Y340426D01*
X88386Y340451D01*
X88412Y340476D01*
X88661Y340601D01*
X88886Y340776D01*
X89086Y340926D01*
X89261Y341101D01*
X89411Y341251D01*
X89511Y341376D01*
X89586Y341451D01*
X89611Y341476D01*
X89786Y341751D01*
X89961Y342026D01*
X90111Y342301D01*
X90211Y342576D01*
X90311Y342801D01*
X90386Y342976D01*
X90411Y343101D01*
X90436Y343151D01*
X90536Y343550D01*
X90611Y343950D01*
X90661Y344325D01*
X90686Y344700D01*
X90711Y345025D01*
X90736Y345275D01*
Y345375D01*
Y345450D01*
Y345475D01*
Y345500D01*
X90711Y346000D01*
X90686Y346450D01*
X90636Y346850D01*
X90561Y347200D01*
X90511Y347475D01*
X90461Y347674D01*
X90436Y347799D01*
X90411Y347849D01*
X90261Y348199D01*
X90111Y348524D01*
X89961Y348799D01*
X89811Y349049D01*
X89686Y349249D01*
X89586Y349374D01*
X89511Y349474D01*
X89486Y349499D01*
X89261Y349724D01*
X89036Y349949D01*
X88811Y350099D01*
X88586Y350249D01*
X88412Y350349D01*
X88261Y350424D01*
X88161Y350449D01*
X88137Y350474D01*
X87837Y350574D01*
X87537Y350674D01*
X87237Y350724D01*
X86987Y350749D01*
X86762Y350774D01*
X86587Y350799D01*
X86112D01*
X85812Y350774D01*
X85537Y350749D01*
X85287Y350724D01*
X85112Y350674D01*
X84962Y350649D01*
X84862Y350624D01*
X84837D01*
X84587Y350549D01*
X84362Y350474D01*
X84163Y350424D01*
X83988Y350349D01*
X83863Y350299D01*
X83763Y350249D01*
X83713Y350199D01*
X83688D01*
X82763Y352498D01*
X83013Y352623D01*
X83263Y352748D01*
X83538Y352823D01*
X83788Y352923D01*
X84038Y352973D01*
X84213Y353023D01*
X84338Y353073D01*
X84388D01*
X85137Y353223D01*
X85512Y353273D01*
X85837Y353298D01*
X86137Y353323D01*
X86562D01*
X87137Y353298D01*
D02*
G37*
G36*
X62618Y353273D02*
X63018Y353248D01*
X63368Y353198D01*
X63643Y353148D01*
X63868Y353123D01*
X64018Y353073D01*
X64068D01*
X64468Y352973D01*
X64818Y352898D01*
X65117Y352798D01*
X65367Y352698D01*
X65592Y352623D01*
X65742Y352548D01*
X65842Y352523D01*
X65867Y352498D01*
Y338477D01*
X65592Y338352D01*
X65292Y338252D01*
X65017Y338152D01*
X64717Y338052D01*
X64468Y338002D01*
X64268Y337952D01*
X64143Y337902D01*
X64093D01*
X63268Y337777D01*
X62868Y337727D01*
X62493Y337702D01*
X62168D01*
X61943Y337677D01*
X61718D01*
X61143Y337702D01*
X60594Y337752D01*
X60094Y337852D01*
X59619Y337977D01*
X59169Y338127D01*
X58769Y338302D01*
X58394Y338477D01*
X58069Y338677D01*
X57769Y338852D01*
X57519Y339027D01*
X57294Y339202D01*
X57119Y339352D01*
X56969Y339477D01*
X56870Y339576D01*
X56820Y339627D01*
X56795Y339651D01*
X56470Y340051D01*
X56220Y340476D01*
X55970Y340926D01*
X55770Y341401D01*
X55595Y341901D01*
X55445Y342376D01*
X55345Y342851D01*
X55245Y343326D01*
X55170Y343775D01*
X55120Y344175D01*
X55070Y344550D01*
X55045Y344875D01*
X55020Y345125D01*
Y345325D01*
Y345450D01*
Y345500D01*
X55045Y346200D01*
X55095Y346850D01*
X55195Y347449D01*
X55295Y348024D01*
X55420Y348549D01*
X55570Y349024D01*
X55745Y349449D01*
X55895Y349849D01*
X56070Y350199D01*
X56245Y350499D01*
X56395Y350749D01*
X56520Y350949D01*
X56620Y351124D01*
X56720Y351223D01*
X56770Y351298D01*
X56795Y351324D01*
X57144Y351673D01*
X57519Y351973D01*
X57894Y352248D01*
X58294Y352473D01*
X58719Y352673D01*
X59119Y352848D01*
X59519Y352973D01*
X59919Y353073D01*
X60269Y353148D01*
X60619Y353223D01*
X60918Y353273D01*
X61193Y353298D01*
X61418Y353323D01*
X62168D01*
X62618Y353273D01*
D02*
G37*
G36*
X79914Y237927D02*
X77414D01*
Y246700D01*
Y246950D01*
Y247200D01*
Y247400D01*
Y247575D01*
X77439Y247699D01*
Y247824D01*
Y247874D01*
Y247899D01*
Y248224D01*
Y248474D01*
X77464Y248549D01*
Y248624D01*
Y248649D01*
Y248674D01*
X77414D01*
X77389Y248599D01*
X77339Y248499D01*
X77239Y248274D01*
X77189Y248174D01*
X77139Y248074D01*
X77114Y248024D01*
Y247999D01*
X76914Y247624D01*
X76740Y247274D01*
X76639Y247125D01*
X76564Y247000D01*
X76540Y246925D01*
X76515Y246900D01*
X71091Y237927D01*
X68667D01*
Y253048D01*
X71191D01*
Y244575D01*
Y244300D01*
Y244050D01*
Y243825D01*
Y243650D01*
Y243500D01*
Y243375D01*
Y243301D01*
Y243276D01*
Y243101D01*
X71166Y242926D01*
Y242801D01*
Y242701D01*
Y242576D01*
Y242526D01*
X71191D01*
X71291Y242776D01*
X71416Y243026D01*
X71491Y243126D01*
X71516Y243226D01*
X71566Y243276D01*
Y243301D01*
X71741Y243650D01*
X71916Y244000D01*
X71991Y244125D01*
X72041Y244225D01*
X72066Y244300D01*
X72091Y244325D01*
X77389Y253048D01*
X79914D01*
Y237927D01*
D02*
G37*
G36*
X87137Y253298D02*
X87687Y253248D01*
X88187Y253148D01*
X88611Y253048D01*
X88986Y252948D01*
X89261Y252848D01*
X89361Y252823D01*
X89436Y252798D01*
X89461Y252773D01*
X89486D01*
X89961Y252548D01*
X90386Y252298D01*
X90761Y252023D01*
X91086Y251773D01*
X91361Y251548D01*
X91561Y251374D01*
X91686Y251248D01*
X91736Y251199D01*
X92060Y250799D01*
X92360Y250374D01*
X92610Y249974D01*
X92810Y249574D01*
X92960Y249249D01*
X93085Y248974D01*
X93135Y248874D01*
X93160Y248799D01*
X93185Y248749D01*
Y248724D01*
X93360Y248174D01*
X93485Y247600D01*
X93560Y247075D01*
X93610Y246575D01*
X93660Y246150D01*
Y245950D01*
X93685Y245800D01*
Y245675D01*
Y245575D01*
Y245525D01*
Y245500D01*
X93660Y244850D01*
X93610Y244225D01*
X93535Y243675D01*
X93435Y243201D01*
X93360Y242801D01*
X93310Y242651D01*
X93285Y242501D01*
X93260Y242401D01*
X93235Y242326D01*
X93210Y242276D01*
Y242251D01*
X93010Y241726D01*
X92785Y241251D01*
X92560Y240826D01*
X92336Y240476D01*
X92135Y240176D01*
X91986Y239951D01*
X91886Y239826D01*
X91836Y239776D01*
X91486Y239426D01*
X91111Y239102D01*
X90761Y238827D01*
X90411Y238602D01*
X90111Y238427D01*
X89861Y238302D01*
X89786Y238252D01*
X89711Y238227D01*
X89686Y238202D01*
X89661D01*
X89161Y238027D01*
X88686Y237902D01*
X88187Y237802D01*
X87762Y237752D01*
X87387Y237702D01*
X87212D01*
X87087Y237677D01*
X86312D01*
X85837Y237727D01*
X85412Y237752D01*
X85062Y237802D01*
X84762Y237852D01*
X84537Y237877D01*
X84388Y237927D01*
X84338D01*
X83938Y238027D01*
X83613Y238102D01*
X83313Y238202D01*
X83063Y238277D01*
X82888Y238352D01*
X82738Y238427D01*
X82663Y238452D01*
X82638Y238477D01*
Y246850D01*
X87712D01*
Y244600D01*
X85412D01*
Y240376D01*
X85587Y240301D01*
X85787Y240251D01*
X85962Y240226D01*
X86012Y240201D01*
X86037D01*
X86362Y240176D01*
X86687Y240151D01*
X87012D01*
X87287Y240176D01*
X87537Y240201D01*
X87762Y240251D01*
X87987Y240326D01*
X88161Y240376D01*
X88287Y240426D01*
X88386Y240451D01*
X88412Y240476D01*
X88661Y240601D01*
X88886Y240776D01*
X89086Y240926D01*
X89261Y241101D01*
X89411Y241251D01*
X89511Y241376D01*
X89586Y241451D01*
X89611Y241476D01*
X89786Y241751D01*
X89961Y242026D01*
X90111Y242301D01*
X90211Y242576D01*
X90311Y242801D01*
X90386Y242976D01*
X90411Y243101D01*
X90436Y243151D01*
X90536Y243550D01*
X90611Y243950D01*
X90661Y244325D01*
X90686Y244700D01*
X90711Y245025D01*
X90736Y245275D01*
Y245375D01*
Y245450D01*
Y245475D01*
Y245500D01*
X90711Y246000D01*
X90686Y246450D01*
X90636Y246850D01*
X90561Y247200D01*
X90511Y247474D01*
X90461Y247674D01*
X90436Y247799D01*
X90411Y247849D01*
X90261Y248199D01*
X90111Y248524D01*
X89961Y248799D01*
X89811Y249049D01*
X89686Y249249D01*
X89586Y249374D01*
X89511Y249474D01*
X89486Y249499D01*
X89261Y249724D01*
X89036Y249949D01*
X88811Y250099D01*
X88586Y250249D01*
X88412Y250349D01*
X88261Y250424D01*
X88161Y250449D01*
X88137Y250474D01*
X87837Y250574D01*
X87537Y250674D01*
X87237Y250724D01*
X86987Y250749D01*
X86762Y250774D01*
X86587Y250799D01*
X86112D01*
X85812Y250774D01*
X85537Y250749D01*
X85287Y250724D01*
X85112Y250674D01*
X84962Y250649D01*
X84862Y250624D01*
X84837D01*
X84587Y250549D01*
X84362Y250474D01*
X84163Y250424D01*
X83988Y250349D01*
X83863Y250299D01*
X83763Y250249D01*
X83713Y250199D01*
X83688D01*
X82763Y252498D01*
X83013Y252623D01*
X83263Y252748D01*
X83538Y252823D01*
X83788Y252923D01*
X84038Y252973D01*
X84213Y253023D01*
X84338Y253073D01*
X84388D01*
X85137Y253223D01*
X85512Y253273D01*
X85837Y253298D01*
X86137Y253323D01*
X86562D01*
X87137Y253298D01*
D02*
G37*
G36*
X62618Y253273D02*
X63018Y253248D01*
X63368Y253198D01*
X63643Y253148D01*
X63868Y253123D01*
X64018Y253073D01*
X64068D01*
X64468Y252973D01*
X64818Y252898D01*
X65117Y252798D01*
X65367Y252698D01*
X65592Y252623D01*
X65742Y252548D01*
X65842Y252523D01*
X65867Y252498D01*
Y238477D01*
X65592Y238352D01*
X65292Y238252D01*
X65017Y238152D01*
X64717Y238052D01*
X64468Y238002D01*
X64268Y237952D01*
X64143Y237902D01*
X64093D01*
X63268Y237777D01*
X62868Y237727D01*
X62493Y237702D01*
X62168D01*
X61943Y237677D01*
X61718D01*
X61143Y237702D01*
X60594Y237752D01*
X60094Y237852D01*
X59619Y237977D01*
X59169Y238127D01*
X58769Y238302D01*
X58394Y238477D01*
X58069Y238677D01*
X57769Y238852D01*
X57519Y239027D01*
X57294Y239202D01*
X57119Y239352D01*
X56969Y239477D01*
X56870Y239576D01*
X56820Y239627D01*
X56795Y239652D01*
X56470Y240051D01*
X56220Y240476D01*
X55970Y240926D01*
X55770Y241401D01*
X55595Y241901D01*
X55445Y242376D01*
X55345Y242851D01*
X55245Y243326D01*
X55170Y243775D01*
X55120Y244175D01*
X55070Y244550D01*
X55045Y244875D01*
X55020Y245125D01*
Y245325D01*
Y245450D01*
Y245500D01*
X55045Y246200D01*
X55095Y246850D01*
X55195Y247449D01*
X55295Y248024D01*
X55420Y248549D01*
X55570Y249024D01*
X55745Y249449D01*
X55895Y249849D01*
X56070Y250199D01*
X56245Y250499D01*
X56395Y250749D01*
X56520Y250949D01*
X56620Y251124D01*
X56720Y251224D01*
X56770Y251299D01*
X56795Y251324D01*
X57144Y251673D01*
X57519Y251973D01*
X57894Y252248D01*
X58294Y252473D01*
X58719Y252673D01*
X59119Y252848D01*
X59519Y252973D01*
X59919Y253073D01*
X60269Y253148D01*
X60619Y253223D01*
X60918Y253273D01*
X61193Y253298D01*
X61418Y253323D01*
X62168D01*
X62618Y253273D01*
D02*
G37*
G36*
X788877Y315642D02*
X783982D01*
X784003Y315475D01*
X784024Y315309D01*
X784045Y315163D01*
Y315121D01*
X784066Y314871D01*
Y314475D01*
X784045Y314038D01*
X784024Y313622D01*
X783982Y313247D01*
X783920Y312934D01*
X783857Y312684D01*
X783816Y312497D01*
X783795Y312372D01*
X783774Y312330D01*
X783649Y311997D01*
X783524Y311705D01*
X783378Y311435D01*
X783253Y311206D01*
X783149Y311039D01*
X783045Y310893D01*
X782982Y310810D01*
X782962Y310789D01*
X782753Y310560D01*
X782524Y310372D01*
X782316Y310227D01*
X782129Y310081D01*
X781941Y309977D01*
X781816Y309914D01*
X781733Y309872D01*
X781691Y309852D01*
X781420Y309748D01*
X781129Y309664D01*
X780879Y309622D01*
X780629Y309581D01*
X780421Y309560D01*
X780254Y309539D01*
X780150D01*
X780108D01*
X779775Y309560D01*
X779442Y309602D01*
X779150Y309664D01*
X778859Y309727D01*
X778359Y309935D01*
X778130Y310039D01*
X777942Y310164D01*
X777755Y310289D01*
X777588Y310393D01*
X777463Y310497D01*
X777359Y310602D01*
X777255Y310664D01*
X777192Y310726D01*
X777171Y310768D01*
X777151Y310789D01*
X776963Y311039D01*
X776776Y311310D01*
X776630Y311580D01*
X776505Y311872D01*
X776318Y312476D01*
X776193Y313059D01*
X776130Y313330D01*
X776109Y313580D01*
X776088Y313809D01*
X776068Y313996D01*
X776047Y314163D01*
Y314788D01*
X776068Y315163D01*
X776109Y315496D01*
X776130Y315788D01*
X776172Y316038D01*
X776213Y316225D01*
X776234Y316350D01*
Y316392D01*
X776318Y316725D01*
X776401Y317037D01*
X776484Y317308D01*
X776547Y317558D01*
X776630Y317766D01*
X776672Y317912D01*
X776713Y317995D01*
X776734Y318037D01*
X788877D01*
Y315642D01*
D02*
G37*
G36*
X788523Y307540D02*
X788606Y307290D01*
X788689Y307061D01*
X788773Y306811D01*
X788814Y306602D01*
X788856Y306436D01*
X788898Y306332D01*
Y306290D01*
X789002Y305603D01*
X789044Y305270D01*
X789064Y304957D01*
Y304686D01*
X789085Y304499D01*
Y304311D01*
X789064Y303832D01*
X789023Y303374D01*
X788939Y302958D01*
X788835Y302562D01*
X788710Y302187D01*
X788564Y301854D01*
X788419Y301541D01*
X788252Y301271D01*
X788106Y301021D01*
X787960Y300812D01*
X787815Y300625D01*
X787690Y300479D01*
X787586Y300354D01*
X787502Y300271D01*
X787460Y300229D01*
X787440Y300208D01*
X787106Y299937D01*
X786752Y299729D01*
X786377Y299521D01*
X785982Y299354D01*
X785565Y299209D01*
X785169Y299084D01*
X784774Y299000D01*
X784378Y298917D01*
X784003Y298855D01*
X783670Y298813D01*
X783357Y298771D01*
X783087Y298750D01*
X782878Y298729D01*
X782712D01*
X782608D01*
X782566D01*
X781983Y298750D01*
X781441Y298792D01*
X780941Y298875D01*
X780462Y298959D01*
X780025Y299063D01*
X779629Y299188D01*
X779275Y299333D01*
X778942Y299459D01*
X778650Y299604D01*
X778400Y299750D01*
X778192Y299875D01*
X778025Y299979D01*
X777880Y300063D01*
X777796Y300146D01*
X777734Y300187D01*
X777713Y300208D01*
X777421Y300500D01*
X777171Y300812D01*
X776942Y301125D01*
X776755Y301458D01*
X776588Y301812D01*
X776442Y302145D01*
X776338Y302479D01*
X776255Y302812D01*
X776193Y303103D01*
X776130Y303395D01*
X776088Y303645D01*
X776068Y303874D01*
X776047Y304062D01*
Y304686D01*
X776088Y305061D01*
X776109Y305394D01*
X776151Y305686D01*
X776193Y305915D01*
X776213Y306103D01*
X776255Y306228D01*
Y306269D01*
X776338Y306602D01*
X776401Y306894D01*
X776484Y307144D01*
X776568Y307352D01*
X776630Y307540D01*
X776693Y307665D01*
X776713Y307748D01*
X776734Y307769D01*
X788419D01*
X788523Y307540D01*
D02*
G37*
G36*
X783087Y292773D02*
X783566Y292752D01*
X784003Y292710D01*
X784378Y292648D01*
X784690Y292585D01*
X784836Y292564D01*
X784940Y292544D01*
X785024Y292523D01*
X785086D01*
X785128Y292502D01*
X785149D01*
X785586Y292377D01*
X785961Y292231D01*
X786315Y292085D01*
X786627Y291940D01*
X786877Y291815D01*
X787065Y291710D01*
X787169Y291627D01*
X787211Y291606D01*
X787523Y291377D01*
X787794Y291106D01*
X788023Y290856D01*
X788231Y290627D01*
X788377Y290398D01*
X788502Y290232D01*
X788564Y290128D01*
X788585Y290086D01*
X788752Y289732D01*
X788877Y289357D01*
X788960Y288982D01*
X789023Y288649D01*
X789064Y288357D01*
X789085Y288128D01*
Y287920D01*
X789064Y287462D01*
X789002Y287045D01*
X788919Y286691D01*
X788835Y286358D01*
X788752Y286108D01*
X788669Y285920D01*
X788606Y285795D01*
X788585Y285754D01*
X788377Y285420D01*
X788169Y285129D01*
X787940Y284858D01*
X787710Y284650D01*
X787523Y284462D01*
X787356Y284337D01*
X787252Y284254D01*
X787211Y284233D01*
X786877Y284025D01*
X786523Y283838D01*
X786169Y283692D01*
X785857Y283567D01*
X785565Y283463D01*
X785357Y283400D01*
X785274Y283358D01*
X785190D01*
X785169Y283338D01*
X785149D01*
X784690Y283234D01*
X784253Y283150D01*
X783816Y283109D01*
X783420Y283067D01*
X783066Y283046D01*
X782920Y283025D01*
X782795D01*
X782712D01*
X782628D01*
X782587D01*
X782566D01*
X782066Y283046D01*
X781587Y283067D01*
X781150Y283129D01*
X780775Y283171D01*
X780442Y283234D01*
X780316Y283254D01*
X780212Y283296D01*
X780129Y283317D01*
X780067D01*
X780025Y283338D01*
X780004D01*
X779567Y283463D01*
X779171Y283608D01*
X778838Y283754D01*
X778525Y283900D01*
X778275Y284025D01*
X778088Y284129D01*
X777984Y284212D01*
X777942Y284233D01*
X777630Y284462D01*
X777359Y284712D01*
X777130Y284962D01*
X776922Y285212D01*
X776776Y285420D01*
X776651Y285587D01*
X776588Y285712D01*
X776568Y285733D01*
Y285754D01*
X776401Y286108D01*
X776276Y286483D01*
X776172Y286837D01*
X776109Y287170D01*
X776068Y287482D01*
X776047Y287712D01*
Y287920D01*
X776068Y288357D01*
X776130Y288774D01*
X776213Y289149D01*
X776297Y289461D01*
X776401Y289732D01*
X776484Y289919D01*
X776547Y290044D01*
X776568Y290065D01*
Y290086D01*
X776776Y290419D01*
X776984Y290711D01*
X777213Y290961D01*
X777442Y291190D01*
X777630Y291356D01*
X777796Y291502D01*
X777900Y291586D01*
X777942Y291606D01*
X778275Y291815D01*
X778630Y292002D01*
X778984Y292148D01*
X779296Y292273D01*
X779587Y292377D01*
X779796Y292439D01*
X779879Y292460D01*
X779942Y292481D01*
X779983Y292502D01*
X780004D01*
X780462Y292606D01*
X780900Y292669D01*
X781337Y292731D01*
X781733Y292752D01*
X782066Y292773D01*
X782212Y292794D01*
X782337D01*
X782441D01*
X782504D01*
X782545D01*
X782566D01*
X783087Y292773D01*
D02*
G37*
G36*
X785503Y281026D02*
X785815Y281005D01*
X786107Y280942D01*
X786357Y280880D01*
X786544Y280838D01*
X786711Y280776D01*
X786794Y280755D01*
X786836Y280734D01*
X787086Y280588D01*
X787315Y280443D01*
X787523Y280297D01*
X787710Y280151D01*
X787856Y280026D01*
X787960Y279922D01*
X788023Y279839D01*
X788044Y279818D01*
X788210Y279589D01*
X788377Y279359D01*
X788502Y279130D01*
X788606Y278922D01*
X788689Y278735D01*
X788752Y278589D01*
X788773Y278505D01*
X788793Y278464D01*
X788877Y278172D01*
X788939Y277860D01*
X788981Y277568D01*
X789002Y277318D01*
X789023Y277089D01*
X789044Y276902D01*
Y276756D01*
X789023Y276423D01*
X789002Y276089D01*
X788960Y275798D01*
X788919Y275548D01*
X788877Y275340D01*
X788835Y275173D01*
X788793Y275090D01*
Y275048D01*
X788689Y274757D01*
X788564Y274506D01*
X788439Y274277D01*
X788315Y274069D01*
X788210Y273923D01*
X788127Y273798D01*
X788064Y273715D01*
X788044Y273694D01*
X787856Y273486D01*
X787648Y273298D01*
X787440Y273153D01*
X787252Y273007D01*
X787086Y272924D01*
X786961Y272840D01*
X786857Y272799D01*
X786836Y272778D01*
X786544Y272674D01*
X786273Y272590D01*
X785982Y272528D01*
X785711Y272486D01*
X785482Y272465D01*
X785315Y272445D01*
X785190D01*
X785149D01*
X776276D01*
Y274902D01*
X785169D01*
X785461Y274923D01*
X785732Y274986D01*
X785940Y275069D01*
X786127Y275173D01*
X786294Y275277D01*
X786398Y275361D01*
X786461Y275423D01*
X786482Y275444D01*
X786648Y275652D01*
X786752Y275860D01*
X786836Y276089D01*
X786898Y276298D01*
X786940Y276485D01*
X786961Y276631D01*
Y276756D01*
X786940Y277027D01*
X786877Y277277D01*
X786815Y277506D01*
X786711Y277693D01*
X786627Y277860D01*
X786565Y277964D01*
X786502Y278047D01*
X786482Y278068D01*
X786294Y278235D01*
X786065Y278360D01*
X785857Y278464D01*
X785648Y278526D01*
X785461Y278568D01*
X785315Y278589D01*
X785211D01*
X785169D01*
X776276D01*
Y281047D01*
X785149D01*
X785503Y281026D01*
D02*
G37*
G36*
X778317Y268050D02*
X788877D01*
Y265592D01*
X778317D01*
Y262947D01*
X776276D01*
Y270737D01*
X778317D01*
Y268050D01*
D02*
G37*
G36*
X769501Y322682D02*
X769813Y322661D01*
X770105Y322598D01*
X770355Y322536D01*
X770542Y322494D01*
X770709Y322432D01*
X770792Y322411D01*
X770834Y322390D01*
X771084Y322244D01*
X771313Y322099D01*
X771521Y321953D01*
X771709Y321807D01*
X771854Y321682D01*
X771958Y321578D01*
X772021Y321494D01*
X772042Y321474D01*
X772208Y321245D01*
X772375Y321016D01*
X772500Y320786D01*
X772604Y320578D01*
X772687Y320391D01*
X772750Y320245D01*
X772771Y320162D01*
X772792Y320120D01*
X772875Y319828D01*
X772937Y319516D01*
X772979Y319224D01*
X773000Y318974D01*
X773021Y318745D01*
X773042Y318558D01*
Y318412D01*
X773021Y318079D01*
X773000Y317745D01*
X772958Y317454D01*
X772916Y317204D01*
X772875Y316996D01*
X772833Y316829D01*
X772792Y316746D01*
Y316704D01*
X772687Y316413D01*
X772562Y316162D01*
X772437Y315933D01*
X772312Y315725D01*
X772208Y315579D01*
X772125Y315454D01*
X772063Y315371D01*
X772042Y315350D01*
X771854Y315142D01*
X771646Y314954D01*
X771438Y314809D01*
X771250Y314663D01*
X771084Y314580D01*
X770959Y314496D01*
X770854Y314455D01*
X770834Y314434D01*
X770542Y314330D01*
X770271Y314246D01*
X769980Y314184D01*
X769709Y314142D01*
X769480Y314121D01*
X769313Y314101D01*
X769188D01*
X769147D01*
X760274D01*
Y316558D01*
X769167D01*
X769459Y316579D01*
X769730Y316642D01*
X769938Y316725D01*
X770126Y316829D01*
X770292Y316933D01*
X770396Y317017D01*
X770459Y317079D01*
X770480Y317100D01*
X770646Y317308D01*
X770750Y317516D01*
X770834Y317745D01*
X770896Y317954D01*
X770938Y318141D01*
X770959Y318287D01*
Y318412D01*
X770938Y318683D01*
X770875Y318933D01*
X770813Y319162D01*
X770709Y319349D01*
X770625Y319516D01*
X770563Y319620D01*
X770500Y319703D01*
X770480Y319724D01*
X770292Y319891D01*
X770063Y320016D01*
X769855Y320120D01*
X769647Y320182D01*
X769459Y320224D01*
X769313Y320245D01*
X769209D01*
X769167D01*
X760274D01*
Y322702D01*
X769147D01*
X769501Y322682D01*
D02*
G37*
G36*
X772646Y311747D02*
X772729Y311476D01*
X772792Y311247D01*
X772854Y311039D01*
X772896Y310893D01*
X772916Y310789D01*
Y310747D01*
X773021Y310122D01*
X773042Y309831D01*
X773062Y309581D01*
X773083Y309352D01*
Y309039D01*
X773062Y308664D01*
X773042Y308331D01*
X773000Y308019D01*
X772937Y307748D01*
X772896Y307540D01*
X772854Y307373D01*
X772833Y307269D01*
X772812Y307227D01*
X772708Y306936D01*
X772583Y306665D01*
X772437Y306436D01*
X772312Y306248D01*
X772208Y306082D01*
X772104Y305978D01*
X772042Y305894D01*
X772021Y305874D01*
X771813Y305665D01*
X771604Y305499D01*
X771417Y305353D01*
X771229Y305228D01*
X771063Y305145D01*
X770938Y305082D01*
X770834Y305040D01*
X770813Y305020D01*
X770542Y304915D01*
X770271Y304853D01*
X770001Y304790D01*
X769751Y304770D01*
X769542Y304749D01*
X769376Y304728D01*
X769272D01*
X769230D01*
X768897Y304749D01*
X768584Y304790D01*
X768314Y304853D01*
X768105Y304915D01*
X767918Y304978D01*
X767772Y305040D01*
X767689Y305082D01*
X767668Y305103D01*
X767439Y305249D01*
X767230Y305394D01*
X767064Y305540D01*
X766897Y305686D01*
X766772Y305832D01*
X766689Y305915D01*
X766626Y305998D01*
X766606Y306019D01*
X766293Y306436D01*
X766168Y306623D01*
X766043Y306811D01*
X765960Y306977D01*
X765898Y307102D01*
X765856Y307186D01*
X765835Y307206D01*
X765606Y307665D01*
X765502Y307873D01*
X765398Y308060D01*
X765335Y308206D01*
X765273Y308310D01*
X765231Y308394D01*
X765210Y308414D01*
X764981Y308789D01*
X764856Y308935D01*
X764752Y309081D01*
X764669Y309185D01*
X764606Y309268D01*
X764565Y309310D01*
X764544Y309331D01*
X764398Y309456D01*
X764252Y309539D01*
X764106Y309602D01*
X763960Y309643D01*
X763836Y309664D01*
X763731Y309685D01*
X763669D01*
X763648D01*
X763419Y309664D01*
X763190Y309622D01*
X763023Y309539D01*
X762857Y309456D01*
X762752Y309373D01*
X762648Y309289D01*
X762607Y309248D01*
X762586Y309227D01*
X762440Y309039D01*
X762336Y308831D01*
X762273Y308602D01*
X762211Y308394D01*
X762190Y308227D01*
X762169Y308060D01*
Y307936D01*
X762190Y307519D01*
X762211Y307332D01*
X762232Y307165D01*
X762273Y307019D01*
X762294Y306915D01*
X762315Y306852D01*
Y306832D01*
X762440Y306457D01*
X762503Y306290D01*
X762565Y306165D01*
X762627Y306040D01*
X762669Y305957D01*
X762690Y305894D01*
X762711Y305874D01*
X760732Y305103D01*
X760503Y305561D01*
X760420Y305790D01*
X760357Y305998D01*
X760295Y306165D01*
X760253Y306311D01*
X760232Y306394D01*
Y306436D01*
X760128Y306998D01*
X760086Y307269D01*
X760066Y307519D01*
X760045Y307727D01*
Y308040D01*
X760066Y308373D01*
X760086Y308706D01*
X760128Y308998D01*
X760170Y309248D01*
X760232Y309456D01*
X760274Y309602D01*
X760295Y309706D01*
X760315Y309748D01*
X760420Y310018D01*
X760545Y310268D01*
X760670Y310476D01*
X760795Y310664D01*
X760920Y310831D01*
X761003Y310935D01*
X761065Y311018D01*
X761086Y311039D01*
X761274Y311226D01*
X761461Y311393D01*
X761669Y311518D01*
X761857Y311643D01*
X762003Y311726D01*
X762128Y311789D01*
X762232Y311830D01*
X762253Y311851D01*
X762523Y311955D01*
X762773Y312018D01*
X763044Y312080D01*
X763273Y312101D01*
X763481Y312122D01*
X763648Y312143D01*
X763752D01*
X763794D01*
X764127Y312122D01*
X764439Y312080D01*
X764710Y312039D01*
X764939Y311955D01*
X765127Y311893D01*
X765252Y311851D01*
X765356Y311810D01*
X765377Y311789D01*
X765606Y311643D01*
X765814Y311476D01*
X765981Y311330D01*
X766147Y311185D01*
X766272Y311060D01*
X766356Y310956D01*
X766418Y310893D01*
X766439Y310872D01*
X766731Y310456D01*
X766876Y310268D01*
X766981Y310081D01*
X767064Y309935D01*
X767126Y309810D01*
X767168Y309727D01*
X767189Y309706D01*
X767397Y309248D01*
X767501Y309039D01*
X767605Y308873D01*
X767668Y308727D01*
X767730Y308623D01*
X767772Y308540D01*
X767793Y308519D01*
X767897Y308331D01*
X768022Y308144D01*
X768126Y307998D01*
X768230Y307873D01*
X768334Y307769D01*
X768397Y307686D01*
X768438Y307644D01*
X768459Y307623D01*
X768605Y307498D01*
X768751Y307415D01*
X768897Y307332D01*
X769043Y307290D01*
X769167Y307269D01*
X769272Y307248D01*
X769334D01*
X769355D01*
X769605Y307269D01*
X769813Y307332D01*
X770001Y307415D01*
X770167Y307498D01*
X770292Y307602D01*
X770376Y307686D01*
X770438Y307748D01*
X770459Y307769D01*
X770605Y307977D01*
X770709Y308206D01*
X770771Y308435D01*
X770813Y308644D01*
X770854Y308852D01*
X770875Y309018D01*
Y309164D01*
X770854Y309602D01*
X770813Y309810D01*
X770792Y309997D01*
X770750Y310143D01*
X770730Y310268D01*
X770709Y310352D01*
Y310372D01*
X770563Y310789D01*
X770500Y310976D01*
X770438Y311143D01*
X770376Y311289D01*
X770334Y311393D01*
X770292Y311455D01*
Y311476D01*
X772417Y312288D01*
X772646Y311747D01*
D02*
G37*
G36*
X772521Y302562D02*
X772604Y302270D01*
X772687Y301999D01*
X772771Y301729D01*
X772812Y301479D01*
X772854Y301291D01*
X772896Y301166D01*
Y301125D01*
X772958Y300729D01*
X773000Y300333D01*
X773042Y299979D01*
X773062Y299646D01*
Y299375D01*
X773083Y299167D01*
Y298979D01*
X773062Y298521D01*
X773042Y298105D01*
X773000Y297709D01*
X772937Y297355D01*
X772854Y297022D01*
X772771Y296709D01*
X772687Y296438D01*
X772604Y296189D01*
X772521Y295959D01*
X772437Y295772D01*
X772354Y295626D01*
X772271Y295480D01*
X772208Y295376D01*
X772167Y295314D01*
X772125Y295272D01*
Y295251D01*
X771938Y295022D01*
X771729Y294835D01*
X771521Y294668D01*
X771313Y294522D01*
X771084Y294397D01*
X770854Y294293D01*
X770438Y294147D01*
X770042Y294043D01*
X769876Y294022D01*
X769730Y294002D01*
X769626Y293981D01*
X769542D01*
X769480D01*
X769459D01*
X769209D01*
X768980Y294022D01*
X768772Y294043D01*
X768605Y294085D01*
X768459Y294126D01*
X768334Y294168D01*
X768272Y294189D01*
X768251Y294210D01*
X767897Y294376D01*
X767730Y294481D01*
X767605Y294564D01*
X767501Y294647D01*
X767418Y294710D01*
X767376Y294751D01*
X767355Y294772D01*
X767085Y295022D01*
X766876Y295251D01*
X766814Y295355D01*
X766751Y295439D01*
X766731Y295480D01*
X766710Y295501D01*
X766543Y295793D01*
X766418Y296043D01*
X766376Y296147D01*
X766356Y296230D01*
X766335Y296272D01*
Y296293D01*
X766293D01*
X766189Y296001D01*
X766085Y295772D01*
X766043Y295689D01*
X766002Y295626D01*
X765960Y295585D01*
Y295564D01*
X765752Y295314D01*
X765543Y295126D01*
X765460Y295043D01*
X765398Y294981D01*
X765356Y294960D01*
X765335Y294939D01*
X765043Y294751D01*
X764773Y294606D01*
X764669Y294543D01*
X764585Y294501D01*
X764523Y294481D01*
X764502D01*
X764148Y294376D01*
X763981Y294356D01*
X763836Y294335D01*
X763690Y294314D01*
X763586D01*
X763523D01*
X763502D01*
X763232Y294335D01*
X762961Y294356D01*
X762732Y294397D01*
X762523Y294460D01*
X762357Y294522D01*
X762232Y294564D01*
X762148Y294585D01*
X762128Y294606D01*
X761898Y294730D01*
X761690Y294855D01*
X761503Y295001D01*
X761336Y295147D01*
X761211Y295272D01*
X761128Y295376D01*
X761065Y295459D01*
X761044Y295480D01*
X760878Y295709D01*
X760732Y295938D01*
X760607Y296189D01*
X760503Y296418D01*
X760420Y296626D01*
X760357Y296793D01*
X760336Y296897D01*
X760315Y296917D01*
Y296938D01*
X760232Y297271D01*
X760149Y297626D01*
X760107Y297980D01*
X760086Y298313D01*
X760066Y298584D01*
X760045Y298813D01*
Y299438D01*
X760086Y299813D01*
X760107Y300167D01*
X760149Y300479D01*
X760191Y300750D01*
X760211Y300958D01*
X760253Y301083D01*
Y301125D01*
X760336Y301479D01*
X760399Y301791D01*
X760482Y302083D01*
X760565Y302333D01*
X760628Y302541D01*
X760691Y302687D01*
X760711Y302770D01*
X760732Y302812D01*
X772417D01*
X772521Y302562D01*
D02*
G37*
G36*
X767085Y288107D02*
X767564Y288086D01*
X768001Y288045D01*
X768376Y287982D01*
X768688Y287920D01*
X768834Y287899D01*
X768938Y287878D01*
X769022Y287857D01*
X769084D01*
X769126Y287836D01*
X769147D01*
X769584Y287712D01*
X769959Y287566D01*
X770313Y287420D01*
X770625Y287274D01*
X770875Y287149D01*
X771063Y287045D01*
X771167Y286962D01*
X771209Y286941D01*
X771521Y286712D01*
X771792Y286441D01*
X772021Y286191D01*
X772229Y285962D01*
X772375Y285733D01*
X772500Y285566D01*
X772562Y285462D01*
X772583Y285420D01*
X772750Y285066D01*
X772875Y284691D01*
X772958Y284317D01*
X773021Y283983D01*
X773062Y283692D01*
X773083Y283463D01*
Y283254D01*
X773062Y282796D01*
X773000Y282379D01*
X772916Y282025D01*
X772833Y281692D01*
X772750Y281442D01*
X772667Y281255D01*
X772604Y281130D01*
X772583Y281088D01*
X772375Y280755D01*
X772167Y280463D01*
X771938Y280193D01*
X771709Y279984D01*
X771521Y279797D01*
X771354Y279672D01*
X771250Y279589D01*
X771209Y279568D01*
X770875Y279359D01*
X770521Y279172D01*
X770167Y279026D01*
X769855Y278901D01*
X769563Y278797D01*
X769355Y278735D01*
X769272Y278693D01*
X769188D01*
X769167Y278672D01*
X769147D01*
X768688Y278568D01*
X768251Y278485D01*
X767814Y278443D01*
X767418Y278401D01*
X767064Y278381D01*
X766918Y278360D01*
X766793D01*
X766710D01*
X766626D01*
X766585D01*
X766564D01*
X766064Y278381D01*
X765585Y278401D01*
X765148Y278464D01*
X764773Y278505D01*
X764439Y278568D01*
X764314Y278589D01*
X764210Y278631D01*
X764127Y278651D01*
X764065D01*
X764023Y278672D01*
X764002D01*
X763565Y278797D01*
X763169Y278943D01*
X762836Y279089D01*
X762523Y279235D01*
X762273Y279359D01*
X762086Y279464D01*
X761982Y279547D01*
X761940Y279568D01*
X761628Y279797D01*
X761357Y280047D01*
X761128Y280297D01*
X760920Y280547D01*
X760774Y280755D01*
X760649Y280922D01*
X760586Y281047D01*
X760565Y281067D01*
Y281088D01*
X760399Y281442D01*
X760274Y281817D01*
X760170Y282171D01*
X760107Y282505D01*
X760066Y282817D01*
X760045Y283046D01*
Y283254D01*
X760066Y283692D01*
X760128Y284108D01*
X760211Y284483D01*
X760295Y284796D01*
X760399Y285066D01*
X760482Y285254D01*
X760545Y285379D01*
X760565Y285400D01*
Y285420D01*
X760774Y285754D01*
X760982Y286045D01*
X761211Y286295D01*
X761440Y286524D01*
X761628Y286691D01*
X761794Y286837D01*
X761898Y286920D01*
X761940Y286941D01*
X762273Y287149D01*
X762627Y287337D01*
X762981Y287482D01*
X763294Y287607D01*
X763586Y287712D01*
X763794Y287774D01*
X763877Y287795D01*
X763940Y287816D01*
X763981Y287836D01*
X764002D01*
X764460Y287941D01*
X764898Y288003D01*
X765335Y288066D01*
X765731Y288086D01*
X766064Y288107D01*
X766210Y288128D01*
X766335D01*
X766439D01*
X766501D01*
X766543D01*
X766564D01*
X767085Y288107D01*
D02*
G37*
G36*
X769501Y276360D02*
X769813Y276339D01*
X770105Y276277D01*
X770355Y276214D01*
X770542Y276173D01*
X770709Y276110D01*
X770792Y276089D01*
X770834Y276069D01*
X771084Y275923D01*
X771313Y275777D01*
X771521Y275631D01*
X771709Y275485D01*
X771854Y275361D01*
X771958Y275256D01*
X772021Y275173D01*
X772042Y275152D01*
X772208Y274923D01*
X772375Y274694D01*
X772500Y274465D01*
X772604Y274257D01*
X772687Y274069D01*
X772750Y273923D01*
X772771Y273840D01*
X772792Y273798D01*
X772875Y273507D01*
X772937Y273194D01*
X772979Y272903D01*
X773000Y272653D01*
X773021Y272424D01*
X773042Y272236D01*
Y272090D01*
X773021Y271757D01*
X773000Y271424D01*
X772958Y271132D01*
X772916Y270882D01*
X772875Y270674D01*
X772833Y270508D01*
X772792Y270424D01*
Y270383D01*
X772687Y270091D01*
X772562Y269841D01*
X772437Y269612D01*
X772312Y269404D01*
X772208Y269258D01*
X772125Y269133D01*
X772063Y269050D01*
X772042Y269029D01*
X771854Y268820D01*
X771646Y268633D01*
X771438Y268487D01*
X771250Y268341D01*
X771084Y268258D01*
X770959Y268175D01*
X770854Y268133D01*
X770834Y268112D01*
X770542Y268008D01*
X770271Y267925D01*
X769980Y267862D01*
X769709Y267821D01*
X769480Y267800D01*
X769313Y267779D01*
X769188D01*
X769147D01*
X760274D01*
Y270237D01*
X769167D01*
X769459Y270258D01*
X769730Y270320D01*
X769938Y270403D01*
X770126Y270508D01*
X770292Y270612D01*
X770396Y270695D01*
X770459Y270758D01*
X770480Y270778D01*
X770646Y270987D01*
X770750Y271195D01*
X770834Y271424D01*
X770896Y271632D01*
X770938Y271820D01*
X770959Y271966D01*
Y272090D01*
X770938Y272361D01*
X770875Y272611D01*
X770813Y272840D01*
X770709Y273028D01*
X770625Y273194D01*
X770563Y273298D01*
X770500Y273382D01*
X770480Y273403D01*
X770292Y273569D01*
X770063Y273694D01*
X769855Y273798D01*
X769647Y273861D01*
X769459Y273902D01*
X769313Y273923D01*
X769209D01*
X769167D01*
X760274D01*
Y276381D01*
X769147D01*
X769501Y276360D01*
D02*
G37*
G36*
X762315Y263384D02*
X772875D01*
Y260927D01*
X762315D01*
Y258281D01*
X760274D01*
Y266071D01*
X762315D01*
Y263384D01*
D02*
G37*
G36*
X175762Y357183D02*
X175851Y357163D01*
X175921Y357133D01*
X175991Y357104D01*
X176051Y357074D01*
X176091Y357044D01*
X176111Y357024D01*
X176121Y357014D01*
X176181Y356944D01*
X176231Y356874D01*
X176261Y356804D01*
X176291Y356734D01*
X176301Y356674D01*
X176311Y356624D01*
Y356594D01*
Y356584D01*
X176301Y356494D01*
X176281Y356405D01*
X176251Y356335D01*
X176211Y356265D01*
X176181Y356215D01*
X176151Y356175D01*
X176131Y356155D01*
X176121Y356145D01*
X176051Y356085D01*
X175971Y356045D01*
X175891Y356005D01*
X175821Y355985D01*
X175762Y355975D01*
X175702Y355965D01*
X175662D01*
X175562Y355975D01*
X175472Y355995D01*
X175402Y356025D01*
X175332Y356055D01*
X175273Y356085D01*
X175233Y356115D01*
X175213Y356135D01*
X175203Y356145D01*
X175143Y356215D01*
X175093Y356295D01*
X175063Y356365D01*
X175033Y356435D01*
X175023Y356494D01*
X175013Y356544D01*
Y356574D01*
Y356584D01*
X175023Y356674D01*
X175043Y356764D01*
X175073Y356834D01*
X175103Y356894D01*
X175143Y356944D01*
X175173Y356984D01*
X175193Y357004D01*
X175203Y357014D01*
X175273Y357074D01*
X175352Y357113D01*
X175432Y357153D01*
X175502Y357173D01*
X175562Y357183D01*
X175612Y357193D01*
X175662D01*
X175762Y357183D01*
D02*
G37*
G36*
X197712Y350745D02*
X196535D01*
Y353320D01*
X194688D01*
Y350745D01*
X193510D01*
Y356784D01*
X194688D01*
Y354288D01*
X196535D01*
Y356784D01*
X197712D01*
Y350745D01*
D02*
G37*
G36*
X186343Y355327D02*
X186502Y355317D01*
X186642Y355297D01*
X186762Y355277D01*
X186852Y355257D01*
X186912Y355247D01*
X186922Y355237D01*
X186932D01*
X187091Y355197D01*
X187231Y355157D01*
X187361Y355127D01*
X187461Y355087D01*
X187551Y355057D01*
X187610Y355037D01*
X187650Y355027D01*
X187660Y355017D01*
X187381Y354249D01*
X187291Y354288D01*
X187201Y354308D01*
X187131Y354328D01*
X187121Y354338D01*
X187111D01*
X186992Y354378D01*
X186892Y354398D01*
X186852Y354418D01*
X186822D01*
X186802Y354428D01*
X186792D01*
X186662Y354458D01*
X186562Y354478D01*
X186513D01*
X186483Y354488D01*
X186453D01*
X186323Y354508D01*
X186213Y354518D01*
X186113D01*
X185973Y354508D01*
X185854Y354498D01*
X185754Y354468D01*
X185664Y354448D01*
X185594Y354418D01*
X185544Y354388D01*
X185514Y354378D01*
X185504Y354368D01*
X185424Y354308D01*
X185375Y354229D01*
X185335Y354149D01*
X185305Y354069D01*
X185285Y353989D01*
X185275Y353929D01*
Y353889D01*
Y353869D01*
Y353640D01*
X185464Y353630D01*
X185644Y353610D01*
X185814Y353590D01*
X185963Y353570D01*
X186083Y353560D01*
X186183Y353540D01*
X186243Y353530D01*
X186263D01*
X186433Y353500D01*
X186592Y353460D01*
X186732Y353420D01*
X186862Y353380D01*
X186962Y353350D01*
X187031Y353320D01*
X187081Y353300D01*
X187101Y353290D01*
X187231Y353230D01*
X187351Y353150D01*
X187451Y353081D01*
X187531Y353011D01*
X187600Y352941D01*
X187650Y352891D01*
X187680Y352851D01*
X187690Y352841D01*
X187760Y352721D01*
X187820Y352602D01*
X187860Y352482D01*
X187880Y352362D01*
X187900Y352252D01*
X187910Y352172D01*
Y352112D01*
Y352102D01*
Y352092D01*
X187900Y351963D01*
X187890Y351853D01*
X187830Y351633D01*
X187750Y351454D01*
X187660Y351304D01*
X187571Y351184D01*
X187491Y351094D01*
X187431Y351044D01*
X187421Y351024D01*
X187411D01*
X187311Y350954D01*
X187201Y350895D01*
X186962Y350805D01*
X186702Y350735D01*
X186453Y350695D01*
X186343Y350675D01*
X186233Y350665D01*
X186133Y350655D01*
X186053D01*
X185983Y350645D01*
X185694D01*
X185514Y350665D01*
X185354Y350675D01*
X185205Y350695D01*
X185085Y350715D01*
X184995Y350725D01*
X184935Y350745D01*
X184915D01*
X184746Y350785D01*
X184606Y350815D01*
X184486Y350855D01*
X184376Y350885D01*
X184296Y350914D01*
X184247Y350944D01*
X184207Y350954D01*
X184197Y350964D01*
Y353739D01*
Y353899D01*
X184216Y354039D01*
X184237Y354169D01*
X184266Y354299D01*
X184306Y354408D01*
X184346Y354508D01*
X184386Y354598D01*
X184426Y354678D01*
X184476Y354748D01*
X184516Y354808D01*
X184596Y354897D01*
X184646Y354947D01*
X184656Y354967D01*
X184666D01*
X184855Y355097D01*
X185075Y355187D01*
X185295Y355257D01*
X185504Y355297D01*
X185694Y355327D01*
X185784Y355337D01*
X185854D01*
X185914Y355347D01*
X186173D01*
X186343Y355327D01*
D02*
G37*
G36*
X169283Y350745D02*
X168155D01*
Y353011D01*
X168135D01*
X166518Y350745D01*
X165230D01*
X166957Y353140D01*
X165340Y355247D01*
X166648D01*
X168135Y353270D01*
X168155D01*
Y357303D01*
X169283D01*
Y350745D01*
D02*
G37*
G36*
X182879Y356245D02*
Y355247D01*
X183458D01*
Y354388D01*
X182879D01*
Y352092D01*
X182869Y351843D01*
X182829Y351633D01*
X182779Y351443D01*
X182719Y351294D01*
X182669Y351184D01*
X182619Y351104D01*
X182579Y351054D01*
X182570Y351034D01*
X182440Y350914D01*
X182290Y350835D01*
X182130Y350775D01*
X181971Y350725D01*
X181821Y350705D01*
X181711Y350695D01*
X181661Y350685D01*
X181601D01*
X181451Y350695D01*
X181332Y350705D01*
X181282D01*
X181242Y350715D01*
X181212D01*
X181082Y350745D01*
X180992Y350765D01*
X180942Y350785D01*
X180922Y350795D01*
Y351743D01*
X180962Y351723D01*
X181012Y351703D01*
X181042Y351693D01*
X181062D01*
X181132Y351683D01*
X181182Y351673D01*
X181242D01*
X181322Y351683D01*
X181392Y351693D01*
X181451Y351713D01*
X181511Y351733D01*
X181551Y351753D01*
X181581Y351763D01*
X181601Y351783D01*
X181611D01*
X181661Y351833D01*
X181701Y351893D01*
X181721Y351953D01*
X181741Y352023D01*
X181751Y352082D01*
X181761Y352122D01*
Y352162D01*
Y352172D01*
Y354388D01*
X180922D01*
Y355247D01*
X181761D01*
Y356574D01*
X182879Y356245D01*
D02*
G37*
G36*
X190685Y355337D02*
X190845Y355317D01*
X190994Y355287D01*
X191124Y355257D01*
X191234Y355227D01*
X191314Y355197D01*
X191364Y355177D01*
X191384Y355167D01*
X191523Y355097D01*
X191653Y355017D01*
X191763Y354937D01*
X191863Y354867D01*
X191933Y354798D01*
X191993Y354738D01*
X192033Y354698D01*
X192043Y354688D01*
X192132Y354568D01*
X192222Y354438D01*
X192292Y354318D01*
X192352Y354199D01*
X192392Y354099D01*
X192422Y354009D01*
X192442Y353959D01*
X192452Y353949D01*
Y353939D01*
X192502Y353779D01*
X192532Y353610D01*
X192562Y353450D01*
X192572Y353300D01*
X192582Y353180D01*
X192592Y353081D01*
Y353041D01*
Y353011D01*
Y353001D01*
Y352991D01*
X192582Y352801D01*
X192572Y352631D01*
X192552Y352472D01*
X192522Y352322D01*
X192492Y352212D01*
X192472Y352122D01*
X192462Y352062D01*
X192452Y352052D01*
Y352043D01*
X192392Y351883D01*
X192322Y351743D01*
X192242Y351613D01*
X192172Y351503D01*
X192113Y351414D01*
X192063Y351354D01*
X192023Y351304D01*
X192013Y351294D01*
X191903Y351184D01*
X191783Y351084D01*
X191663Y351004D01*
X191553Y350934D01*
X191454Y350885D01*
X191374Y350845D01*
X191324Y350825D01*
X191304Y350815D01*
X191144Y350755D01*
X190975Y350715D01*
X190815Y350685D01*
X190655Y350665D01*
X190525Y350655D01*
X190415Y350645D01*
X190146D01*
X189966Y350655D01*
X189807Y350675D01*
X189667Y350695D01*
X189557Y350705D01*
X189467Y350725D01*
X189407Y350735D01*
X189387D01*
X189228Y350775D01*
X189088Y350805D01*
X188968Y350845D01*
X188858Y350885D01*
X188768Y350914D01*
X188708Y350944D01*
X188669Y350954D01*
X188659Y350964D01*
X188988Y351813D01*
X189178Y351733D01*
X189277Y351693D01*
X189367Y351673D01*
X189447Y351643D01*
X189507Y351623D01*
X189547Y351613D01*
X189567D01*
X189807Y351563D01*
X189926Y351553D01*
X190026Y351543D01*
X190106Y351533D01*
X190236D01*
X190415Y351543D01*
X190585Y351573D01*
X190725Y351613D01*
X190845Y351653D01*
X190945Y351693D01*
X191014Y351733D01*
X191054Y351763D01*
X191074Y351773D01*
X191184Y351873D01*
X191274Y351993D01*
X191344Y352122D01*
X191404Y352242D01*
X191444Y352352D01*
X191464Y352442D01*
X191484Y352502D01*
Y352512D01*
Y352522D01*
X188589Y352911D01*
X188579Y352981D01*
X188569Y353041D01*
Y353081D01*
Y353101D01*
Y353300D01*
X188579Y353470D01*
X188589Y353620D01*
X188609Y353769D01*
X188629Y353889D01*
X188659Y353989D01*
X188679Y354069D01*
X188689Y354109D01*
X188699Y354129D01*
X188748Y354268D01*
X188808Y354388D01*
X188878Y354498D01*
X188938Y354598D01*
X188988Y354668D01*
X189038Y354728D01*
X189068Y354768D01*
X189078Y354778D01*
X189168Y354877D01*
X189268Y354957D01*
X189367Y355027D01*
X189467Y355087D01*
X189547Y355137D01*
X189617Y355167D01*
X189657Y355187D01*
X189677Y355197D01*
X189817Y355247D01*
X189956Y355287D01*
X190096Y355307D01*
X190226Y355327D01*
X190336Y355337D01*
X190425Y355347D01*
X190505D01*
X190685Y355337D01*
D02*
G37*
G36*
X176231Y350745D02*
X175093D01*
Y355247D01*
X176231D01*
Y350745D01*
D02*
G37*
G36*
X172657Y355327D02*
X172827Y355317D01*
X172977Y355297D01*
X173096Y355277D01*
X173186Y355267D01*
X173246Y355247D01*
X173266D01*
X173426Y355207D01*
X173566Y355177D01*
X173705Y355137D01*
X173825Y355097D01*
X173915Y355067D01*
X173995Y355037D01*
X174035Y355027D01*
X174055Y355017D01*
Y350745D01*
X172927D01*
Y354328D01*
X172827Y354358D01*
X172727Y354378D01*
X172687Y354388D01*
X172657Y354398D01*
X172627D01*
X172488Y354418D01*
X172368Y354428D01*
X172248D01*
X172108Y354418D01*
X171988Y354398D01*
X171879Y354368D01*
X171799Y354338D01*
X171729Y354299D01*
X171689Y354268D01*
X171659Y354249D01*
X171649Y354239D01*
X171579Y354159D01*
X171529Y354079D01*
X171499Y353989D01*
X171469Y353899D01*
X171459Y353829D01*
X171449Y353769D01*
Y353730D01*
Y353709D01*
Y350745D01*
X170311D01*
Y353819D01*
Y353949D01*
X170331Y354079D01*
X170381Y354308D01*
X170461Y354498D01*
X170541Y354658D01*
X170631Y354788D01*
X170711Y354877D01*
X170760Y354927D01*
X170770Y354947D01*
X170781D01*
X170870Y355017D01*
X170980Y355077D01*
X171210Y355177D01*
X171449Y355247D01*
X171699Y355297D01*
X171809Y355317D01*
X171919Y355327D01*
X172008Y355337D01*
X172088D01*
X172158Y355347D01*
X172467D01*
X172657Y355327D01*
D02*
G37*
G36*
X160828Y357303D02*
X160948Y357293D01*
X161048Y357273D01*
X161128Y357253D01*
X161198Y357243D01*
X161238Y357223D01*
X161248D01*
X161357Y357183D01*
X161457Y357143D01*
X161557Y357094D01*
X161637Y357044D01*
X161697Y357004D01*
X161747Y356964D01*
X161777Y356944D01*
X161786Y356934D01*
X161866Y356854D01*
X161936Y356774D01*
X161996Y356694D01*
X162056Y356614D01*
X162096Y356554D01*
X162126Y356494D01*
X162136Y356455D01*
X162146Y356445D01*
X162186Y356335D01*
X162216Y356215D01*
X162236Y356095D01*
X162246Y355985D01*
X162256Y355896D01*
X162266Y355816D01*
Y355766D01*
Y355746D01*
Y355247D01*
X162835D01*
Y354388D01*
X162266D01*
Y350745D01*
X161148D01*
Y354388D01*
X160279D01*
Y355247D01*
X161148D01*
Y355746D01*
X161138Y355876D01*
X161108Y355985D01*
X161078Y356075D01*
X161028Y356145D01*
X160988Y356195D01*
X160958Y356235D01*
X160928Y356255D01*
X160918Y356265D01*
X160828Y356315D01*
X160728Y356355D01*
X160639Y356385D01*
X160549Y356405D01*
X160469Y356415D01*
X160409Y356425D01*
X160279D01*
X160269Y356415D01*
X160199D01*
Y357303D01*
X160259Y357313D01*
X160379D01*
X160449Y357323D01*
X160709D01*
X160828Y357303D01*
D02*
G37*
G36*
X153262Y355327D02*
X153431Y355317D01*
X153581Y355297D01*
X153711Y355277D01*
X153811Y355267D01*
X153871Y355247D01*
X153891D01*
X154060Y355207D01*
X154210Y355177D01*
X154350Y355137D01*
X154470Y355097D01*
X154559Y355067D01*
X154639Y355037D01*
X154679Y355027D01*
X154699Y355017D01*
Y350745D01*
X153571D01*
Y354328D01*
X153481Y354358D01*
X153401Y354378D01*
X153332Y354398D01*
X153312D01*
X153202Y354418D01*
X153102Y354428D01*
X152892D01*
X152803Y354418D01*
X152713Y354408D01*
X152643Y354398D01*
X152573Y354378D01*
X152533Y354368D01*
X152503Y354358D01*
X152493D01*
X152283Y355307D01*
X152373Y355317D01*
X152453D01*
X152513Y355327D01*
X152543D01*
X152653Y355337D01*
X152763Y355347D01*
X153062D01*
X153262Y355327D01*
D02*
G37*
G36*
X178866D02*
X179116Y355287D01*
X179325Y355227D01*
X179495Y355167D01*
X179635Y355097D01*
X179734Y355037D01*
X179794Y354997D01*
X179804Y354977D01*
X179814D01*
X179894Y354907D01*
X179954Y354837D01*
X180064Y354678D01*
X180134Y354518D01*
X180194Y354368D01*
X180224Y354229D01*
X180234Y354119D01*
X180244Y354079D01*
Y354049D01*
Y354029D01*
Y354019D01*
X180234Y353899D01*
X180224Y353789D01*
X180204Y353689D01*
X180184Y353610D01*
X180164Y353540D01*
X180144Y353490D01*
X180124Y353460D01*
Y353450D01*
X180024Y353300D01*
X179974Y353240D01*
X179924Y353180D01*
X179884Y353140D01*
X179844Y353111D01*
X179824Y353091D01*
X179814Y353081D01*
X179675Y352981D01*
X179535Y352901D01*
X179485Y352871D01*
X179445Y352851D01*
X179415Y352831D01*
X179405D01*
X179235Y352761D01*
X179166Y352731D01*
X179096Y352701D01*
X179036Y352681D01*
X178996Y352661D01*
X178966Y352651D01*
X178956D01*
X178846Y352612D01*
X178746Y352571D01*
X178666Y352532D01*
X178597Y352492D01*
X178537Y352462D01*
X178497Y352432D01*
X178467Y352422D01*
X178457Y352412D01*
X178387Y352362D01*
X178337Y352302D01*
X178307Y352232D01*
X178277Y352172D01*
X178267Y352122D01*
X178257Y352072D01*
Y352043D01*
Y352033D01*
X178267Y351953D01*
X178287Y351883D01*
X178317Y351823D01*
X178347Y351773D01*
X178387Y351733D01*
X178417Y351703D01*
X178437Y351683D01*
X178447Y351673D01*
X178517Y351633D01*
X178597Y351603D01*
X178756Y351563D01*
X178826Y351553D01*
X178886Y351543D01*
X178936D01*
X179126Y351553D01*
X179216Y351573D01*
X179295Y351583D01*
X179365Y351603D01*
X179425Y351613D01*
X179465Y351623D01*
X179475D01*
X179675Y351693D01*
X179764Y351733D01*
X179844Y351763D01*
X179904Y351793D01*
X179954Y351813D01*
X179984Y351823D01*
X179994Y351833D01*
X180363Y350964D01*
X180114Y350865D01*
X180004Y350815D01*
X179894Y350785D01*
X179804Y350755D01*
X179734Y350745D01*
X179695Y350725D01*
X179675D01*
X179395Y350675D01*
X179265Y350665D01*
X179156Y350655D01*
X179056Y350645D01*
X178736D01*
X178587Y350665D01*
X178447Y350685D01*
X178307Y350705D01*
X178187Y350735D01*
X178078Y350765D01*
X177968Y350795D01*
X177878Y350835D01*
X177798Y350875D01*
X177728Y350905D01*
X177668Y350934D01*
X177628Y350964D01*
X177588Y350994D01*
X177558Y351004D01*
X177548Y351024D01*
X177539D01*
X177459Y351094D01*
X177389Y351174D01*
X177269Y351344D01*
X177189Y351513D01*
X177139Y351673D01*
X177099Y351813D01*
X177089Y351933D01*
X177079Y351973D01*
Y352002D01*
Y352023D01*
Y352033D01*
Y352152D01*
X177099Y352262D01*
X177119Y352362D01*
X177139Y352442D01*
X177159Y352502D01*
X177179Y352552D01*
X177189Y352581D01*
X177199Y352592D01*
X177299Y352751D01*
X177349Y352811D01*
X177399Y352871D01*
X177439Y352911D01*
X177479Y352941D01*
X177498Y352961D01*
X177509Y352971D01*
X177658Y353081D01*
X177788Y353161D01*
X177848Y353180D01*
X177888Y353200D01*
X177918Y353220D01*
X177928D01*
X178097Y353290D01*
X178167Y353320D01*
X178237Y353350D01*
X178297Y353380D01*
X178337Y353390D01*
X178367Y353410D01*
X178377D01*
X178477Y353440D01*
X178557Y353470D01*
X178617Y353490D01*
X178626Y353500D01*
X178636D01*
X178716Y353550D01*
X178786Y353590D01*
X178836Y353620D01*
X178856Y353630D01*
X178926Y353680D01*
X178976Y353739D01*
X179006Y353779D01*
X179016Y353789D01*
X179046Y353869D01*
X179066Y353949D01*
X179076Y354009D01*
Y354019D01*
Y354029D01*
X179066Y354099D01*
X179046Y354169D01*
X178996Y354268D01*
X178966Y354308D01*
X178936Y354338D01*
X178926Y354348D01*
X178916Y354358D01*
X178846Y354408D01*
X178766Y354438D01*
X178617Y354478D01*
X178547Y354488D01*
X178497Y354498D01*
X178447D01*
X178267Y354488D01*
X178197Y354478D01*
X178117Y354468D01*
X178067Y354448D01*
X178018Y354438D01*
X177988Y354428D01*
X177978D01*
X177818Y354368D01*
X177738Y354338D01*
X177678Y354308D01*
X177628Y354278D01*
X177578Y354258D01*
X177558Y354249D01*
X177548Y354239D01*
X177199Y355017D01*
X177419Y355127D01*
X177528Y355167D01*
X177628Y355207D01*
X177718Y355237D01*
X177788Y355257D01*
X177828Y355267D01*
X177848D01*
X178117Y355317D01*
X178237Y355327D01*
X178347Y355337D01*
X178447Y355347D01*
X178587D01*
X178866Y355327D01*
D02*
G37*
G36*
X157784Y355337D02*
X157943Y355317D01*
X158093Y355287D01*
X158223Y355257D01*
X158333Y355227D01*
X158413Y355197D01*
X158462Y355177D01*
X158482Y355167D01*
X158622Y355097D01*
X158742Y355017D01*
X158852Y354927D01*
X158942Y354847D01*
X159022Y354778D01*
X159071Y354718D01*
X159111Y354678D01*
X159121Y354668D01*
X159211Y354548D01*
X159291Y354418D01*
X159361Y354299D01*
X159411Y354179D01*
X159451Y354079D01*
X159491Y353999D01*
X159501Y353949D01*
X159511Y353939D01*
Y353929D01*
X159551Y353769D01*
X159580Y353600D01*
X159610Y353440D01*
X159620Y353300D01*
X159630Y353171D01*
X159640Y353081D01*
Y353041D01*
Y353011D01*
Y353001D01*
Y352991D01*
X159630Y352811D01*
X159620Y352631D01*
X159600Y352472D01*
X159571Y352332D01*
X159551Y352222D01*
X159531Y352132D01*
X159521Y352072D01*
X159511Y352062D01*
Y352052D01*
X159461Y351893D01*
X159391Y351753D01*
X159331Y351623D01*
X159271Y351513D01*
X159211Y351424D01*
X159161Y351364D01*
X159131Y351314D01*
X159121Y351304D01*
X159022Y351194D01*
X158912Y351094D01*
X158802Y351014D01*
X158702Y350944D01*
X158612Y350885D01*
X158542Y350845D01*
X158502Y350825D01*
X158482Y350815D01*
X158333Y350755D01*
X158183Y350715D01*
X158033Y350685D01*
X157893Y350665D01*
X157784Y350655D01*
X157684Y350645D01*
X157604D01*
X157424Y350655D01*
X157265Y350675D01*
X157115Y350695D01*
X156985Y350735D01*
X156885Y350765D01*
X156805Y350785D01*
X156756Y350805D01*
X156736Y350815D01*
X156596Y350885D01*
X156476Y350964D01*
X156366Y351044D01*
X156276Y351124D01*
X156196Y351194D01*
X156147Y351254D01*
X156107Y351294D01*
X156097Y351304D01*
X156007Y351424D01*
X155927Y351553D01*
X155857Y351683D01*
X155807Y351803D01*
X155757Y351903D01*
X155727Y351983D01*
X155717Y352033D01*
X155707Y352052D01*
X155658Y352222D01*
X155627Y352382D01*
X155598Y352542D01*
X155588Y352691D01*
X155578Y352811D01*
X155568Y352911D01*
Y352941D01*
Y352971D01*
Y352981D01*
Y352991D01*
X155578Y353180D01*
X155588Y353350D01*
X155608Y353510D01*
X155638Y353650D01*
X155667Y353769D01*
X155687Y353859D01*
X155697Y353909D01*
X155707Y353929D01*
X155757Y354089D01*
X155827Y354229D01*
X155887Y354348D01*
X155947Y354458D01*
X156007Y354548D01*
X156057Y354618D01*
X156087Y354658D01*
X156097Y354668D01*
X156196Y354778D01*
X156306Y354877D01*
X156416Y354967D01*
X156516Y355037D01*
X156606Y355097D01*
X156676Y355137D01*
X156716Y355157D01*
X156736Y355167D01*
X156885Y355227D01*
X157035Y355267D01*
X157175Y355307D01*
X157315Y355327D01*
X157424Y355337D01*
X157524Y355347D01*
X157604D01*
X157784Y355337D01*
D02*
G37*
G36*
X175337Y349317D02*
X175427Y349297D01*
X175497Y349267D01*
X175567Y349238D01*
X175627Y349207D01*
X175667Y349178D01*
X175687Y349158D01*
X175697Y349148D01*
X175757Y349078D01*
X175807Y349008D01*
X175837Y348938D01*
X175867Y348868D01*
X175876Y348808D01*
X175886Y348758D01*
Y348728D01*
Y348718D01*
X175876Y348629D01*
X175856Y348539D01*
X175826Y348469D01*
X175787Y348399D01*
X175757Y348349D01*
X175727Y348309D01*
X175707Y348289D01*
X175697Y348279D01*
X175627Y348219D01*
X175547Y348179D01*
X175467Y348139D01*
X175397Y348120D01*
X175337Y348110D01*
X175278Y348100D01*
X175238D01*
X175138Y348110D01*
X175048Y348130D01*
X174978Y348159D01*
X174908Y348189D01*
X174848Y348219D01*
X174808Y348249D01*
X174788Y348269D01*
X174778Y348279D01*
X174718Y348349D01*
X174669Y348429D01*
X174639Y348499D01*
X174609Y348569D01*
X174599Y348629D01*
X174589Y348679D01*
Y348708D01*
Y348718D01*
X174599Y348808D01*
X174619Y348898D01*
X174649Y348968D01*
X174679Y349028D01*
X174718Y349078D01*
X174748Y349118D01*
X174768Y349138D01*
X174778Y349148D01*
X174848Y349207D01*
X174928Y349248D01*
X175008Y349287D01*
X175078Y349307D01*
X175138Y349317D01*
X175188Y349327D01*
X175238D01*
X175337Y349317D01*
D02*
G37*
G36*
X164517D02*
X164606Y349297D01*
X164676Y349267D01*
X164746Y349238D01*
X164806Y349207D01*
X164846Y349178D01*
X164866Y349158D01*
X164876Y349148D01*
X164936Y349078D01*
X164986Y349008D01*
X165016Y348938D01*
X165046Y348868D01*
X165056Y348808D01*
X165066Y348758D01*
Y348728D01*
Y348718D01*
X165056Y348629D01*
X165036Y348539D01*
X165006Y348469D01*
X164966Y348399D01*
X164936Y348349D01*
X164906Y348309D01*
X164886Y348289D01*
X164876Y348279D01*
X164806Y348219D01*
X164726Y348179D01*
X164646Y348139D01*
X164577Y348120D01*
X164517Y348110D01*
X164457Y348100D01*
X164417D01*
X164317Y348110D01*
X164227Y348130D01*
X164157Y348159D01*
X164088Y348189D01*
X164028Y348219D01*
X163988Y348249D01*
X163968Y348269D01*
X163958Y348279D01*
X163898Y348349D01*
X163848Y348429D01*
X163818Y348499D01*
X163788Y348569D01*
X163778Y348629D01*
X163768Y348679D01*
Y348708D01*
Y348718D01*
X163778Y348808D01*
X163798Y348898D01*
X163828Y348968D01*
X163858Y349028D01*
X163898Y349078D01*
X163928Y349118D01*
X163948Y349138D01*
X163958Y349148D01*
X164028Y349207D01*
X164107Y349248D01*
X164187Y349287D01*
X164257Y349307D01*
X164317Y349317D01*
X164367Y349327D01*
X164417D01*
X164517Y349317D01*
D02*
G37*
G36*
X195801Y343098D02*
X195691Y343049D01*
X195581Y343009D01*
X195462Y342969D01*
X195352Y342939D01*
X195262Y342919D01*
X195182Y342899D01*
X195132Y342879D01*
X195112D01*
X194793Y342819D01*
X194643Y342799D01*
X194503Y342789D01*
X194383D01*
X194294Y342779D01*
X194214D01*
X194014Y342789D01*
X193834Y342809D01*
X193655Y342839D01*
X193495Y342869D01*
X193345Y342919D01*
X193206Y342969D01*
X193076Y343019D01*
X192966Y343078D01*
X192866Y343138D01*
X192776Y343188D01*
X192696Y343238D01*
X192637Y343288D01*
X192587Y343318D01*
X192557Y343348D01*
X192537Y343368D01*
X192527Y343378D01*
X192417Y343498D01*
X192327Y343628D01*
X192237Y343777D01*
X192167Y343927D01*
X192108Y344077D01*
X192058Y344236D01*
X191988Y344536D01*
X191958Y344676D01*
X191938Y344815D01*
X191928Y344935D01*
X191918Y345035D01*
X191908Y345125D01*
Y345185D01*
Y345235D01*
Y345245D01*
X191918Y345434D01*
X191928Y345604D01*
X191958Y345764D01*
X191978Y345903D01*
X192008Y346013D01*
X192038Y346093D01*
X192048Y346143D01*
X192058Y346163D01*
X192118Y346313D01*
X192177Y346442D01*
X192247Y346562D01*
X192307Y346662D01*
X192367Y346742D01*
X192417Y346802D01*
X192447Y346842D01*
X192457Y346852D01*
X192557Y346952D01*
X192666Y347041D01*
X192766Y347121D01*
X192866Y347181D01*
X192956Y347231D01*
X193026Y347261D01*
X193066Y347281D01*
X193086Y347291D01*
X193225Y347341D01*
X193355Y347381D01*
X193495Y347401D01*
X193615Y347421D01*
X193715Y347431D01*
X193804Y347441D01*
X193874D01*
X194024Y347431D01*
X194164Y347421D01*
X194224Y347411D01*
X194264Y347401D01*
X194294Y347391D01*
X194304D01*
X194453Y347361D01*
X194513Y347341D01*
X194573Y347321D01*
X194613Y347301D01*
X194643Y347291D01*
X194663Y347281D01*
X194673D01*
Y349437D01*
X195801D01*
Y343098D01*
D02*
G37*
G36*
X182525Y342879D02*
X181397D01*
Y345145D01*
X181377D01*
X179760Y342879D01*
X178472D01*
X180199Y345275D01*
X178582Y347381D01*
X179889D01*
X181377Y345404D01*
X181397D01*
Y349437D01*
X182525D01*
Y342879D01*
D02*
G37*
G36*
X184631Y347471D02*
X184771Y347461D01*
X184900Y347431D01*
X185020Y347411D01*
X185110Y347381D01*
X185190Y347351D01*
X185230Y347341D01*
X185250Y347331D01*
X185380Y347271D01*
X185499Y347201D01*
X185609Y347131D01*
X185699Y347061D01*
X185779Y347001D01*
X185839Y346952D01*
X185879Y346912D01*
X185889Y346902D01*
X185988Y346792D01*
X186078Y346662D01*
X186158Y346542D01*
X186218Y346432D01*
X186268Y346323D01*
X186308Y346243D01*
X186328Y346193D01*
X186338Y346183D01*
Y346173D01*
X186388Y346003D01*
X186428Y345824D01*
X186458Y345644D01*
X186478Y345484D01*
X186488Y345344D01*
X186497Y345225D01*
Y345185D01*
Y345155D01*
Y345135D01*
Y345125D01*
X186488Y344905D01*
X186467Y344706D01*
X186448Y344536D01*
X186418Y344386D01*
X186388Y344256D01*
X186358Y344166D01*
X186348Y344107D01*
X186338Y344097D01*
Y344087D01*
X186268Y343927D01*
X186198Y343787D01*
X186118Y343657D01*
X186048Y343558D01*
X185988Y343468D01*
X185938Y343398D01*
X185899Y343358D01*
X185889Y343348D01*
X185779Y343248D01*
X185669Y343158D01*
X185559Y343088D01*
X185459Y343028D01*
X185380Y342979D01*
X185310Y342949D01*
X185270Y342929D01*
X185250Y342919D01*
X185110Y342869D01*
X184970Y342839D01*
X184850Y342809D01*
X184731Y342799D01*
X184631Y342789D01*
X184561Y342779D01*
X184491D01*
X184242Y342789D01*
X184012Y342829D01*
X183812Y342879D01*
X183633Y342929D01*
X183493Y342989D01*
X183433Y343009D01*
X183383Y343028D01*
X183343Y343049D01*
X183313Y343069D01*
X183303Y343078D01*
X183293D01*
X183653Y343937D01*
X183762Y343867D01*
X183872Y343817D01*
X183982Y343787D01*
X184092Y343767D01*
X184182Y343747D01*
X184251Y343737D01*
X184321D01*
X184461Y343747D01*
X184591Y343777D01*
X184641Y343797D01*
X184681Y343807D01*
X184701Y343817D01*
X184711D01*
X184840Y343897D01*
X184940Y343977D01*
X184980Y344017D01*
X185000Y344047D01*
X185020Y344067D01*
X185030Y344077D01*
X185120Y344226D01*
X185180Y344366D01*
X185210Y344426D01*
X185230Y344476D01*
X185240Y344506D01*
Y344516D01*
X185290Y344725D01*
X185300Y344835D01*
X185310Y344925D01*
X185320Y345015D01*
Y345075D01*
Y345115D01*
Y345135D01*
X185310Y345384D01*
X185270Y345604D01*
X185230Y345784D01*
X185170Y345933D01*
X185120Y346043D01*
X185070Y346123D01*
X185040Y346173D01*
X185030Y346193D01*
X184920Y346313D01*
X184800Y346393D01*
X184681Y346452D01*
X184571Y346502D01*
X184471Y346522D01*
X184391Y346532D01*
X184341Y346542D01*
X184321D01*
X184182Y346532D01*
X184052Y346512D01*
X183932Y346482D01*
X183832Y346452D01*
X183762Y346413D01*
X183703Y346383D01*
X183662Y346363D01*
X183653Y346353D01*
X183293Y347171D01*
X183493Y347271D01*
X183692Y347351D01*
X183892Y347401D01*
X184082Y347441D01*
X184242Y347461D01*
X184311Y347471D01*
X184371Y347481D01*
X184491D01*
X184631Y347471D01*
D02*
G37*
G36*
X191049Y344446D02*
X191039Y344286D01*
X191029Y344137D01*
X191009Y343997D01*
X190970Y343867D01*
X190940Y343757D01*
X190900Y343647D01*
X190850Y343558D01*
X190810Y343478D01*
X190760Y343398D01*
X190720Y343338D01*
X190680Y343288D01*
X190640Y343248D01*
X190590Y343188D01*
X190580Y343168D01*
X190570D01*
X190470Y343098D01*
X190371Y343038D01*
X190151Y342939D01*
X189911Y342879D01*
X189682Y342829D01*
X189472Y342799D01*
X189382Y342789D01*
X189303D01*
X189243Y342779D01*
X189153D01*
X188963Y342789D01*
X188873D01*
X188803Y342799D01*
X188734D01*
X188684Y342809D01*
X188644D01*
X188454Y342829D01*
X188374Y342839D01*
X188304Y342849D01*
X188244Y342859D01*
X188195D01*
X188165Y342869D01*
X188155D01*
X187985Y342899D01*
X187905Y342919D01*
X187845Y342939D01*
X187795Y342949D01*
X187745Y342959D01*
X187725Y342969D01*
X187715D01*
X187576Y343019D01*
X187456Y343059D01*
X187416Y343078D01*
X187386Y343088D01*
X187366Y343098D01*
X187356D01*
Y347381D01*
X188494D01*
Y343807D01*
X188584Y343777D01*
X188674Y343757D01*
X188713Y343747D01*
X188743D01*
X188764Y343737D01*
X188773D01*
X188903Y343717D01*
X189023Y343707D01*
X189153D01*
X189293Y343717D01*
X189402Y343737D01*
X189512Y343777D01*
X189592Y343817D01*
X189672Y343867D01*
X189732Y343927D01*
X189782Y343997D01*
X189822Y344067D01*
X189881Y344197D01*
X189911Y344306D01*
Y344346D01*
X189921Y344386D01*
Y344406D01*
Y344416D01*
Y347381D01*
X191049D01*
Y344446D01*
D02*
G37*
G36*
X156311Y347471D02*
X156471Y347451D01*
X156621Y347421D01*
X156750Y347391D01*
X156860Y347361D01*
X156940Y347331D01*
X156990Y347311D01*
X157010Y347301D01*
X157150Y347231D01*
X157280Y347151D01*
X157389Y347071D01*
X157489Y347001D01*
X157559Y346932D01*
X157619Y346872D01*
X157659Y346832D01*
X157669Y346822D01*
X157759Y346702D01*
X157849Y346572D01*
X157919Y346452D01*
X157978Y346333D01*
X158018Y346233D01*
X158048Y346143D01*
X158068Y346093D01*
X158078Y346083D01*
Y346073D01*
X158128Y345913D01*
X158158Y345744D01*
X158188Y345584D01*
X158198Y345434D01*
X158208Y345314D01*
X158218Y345215D01*
Y345175D01*
Y345145D01*
Y345135D01*
Y345125D01*
X158208Y344935D01*
X158198Y344766D01*
X158178Y344606D01*
X158148Y344456D01*
X158118Y344346D01*
X158098Y344256D01*
X158088Y344197D01*
X158078Y344187D01*
Y344176D01*
X158018Y344017D01*
X157948Y343877D01*
X157868Y343747D01*
X157799Y343638D01*
X157739Y343548D01*
X157689Y343488D01*
X157649Y343438D01*
X157639Y343428D01*
X157529Y343318D01*
X157409Y343218D01*
X157290Y343138D01*
X157180Y343069D01*
X157080Y343019D01*
X157000Y342979D01*
X156950Y342959D01*
X156930Y342949D01*
X156770Y342889D01*
X156601Y342849D01*
X156441Y342819D01*
X156281Y342799D01*
X156152Y342789D01*
X156042Y342779D01*
X155772D01*
X155593Y342789D01*
X155433Y342809D01*
X155293Y342829D01*
X155183Y342839D01*
X155093Y342859D01*
X155034Y342869D01*
X155014D01*
X154854Y342909D01*
X154714Y342939D01*
X154594Y342979D01*
X154485Y343019D01*
X154395Y343049D01*
X154335Y343078D01*
X154295Y343088D01*
X154285Y343098D01*
X154614Y343947D01*
X154804Y343867D01*
X154904Y343827D01*
X154994Y343807D01*
X155073Y343777D01*
X155133Y343757D01*
X155173Y343747D01*
X155193D01*
X155433Y343697D01*
X155553Y343687D01*
X155653Y343677D01*
X155732Y343667D01*
X155862D01*
X156042Y343677D01*
X156212Y343707D01*
X156351Y343747D01*
X156471Y343787D01*
X156571Y343827D01*
X156641Y343867D01*
X156681Y343897D01*
X156701Y343907D01*
X156810Y344007D01*
X156900Y344127D01*
X156970Y344256D01*
X157030Y344376D01*
X157070Y344486D01*
X157090Y344576D01*
X157110Y344636D01*
Y344646D01*
Y344656D01*
X154215Y345045D01*
X154205Y345115D01*
X154195Y345175D01*
Y345215D01*
Y345235D01*
Y345434D01*
X154205Y345604D01*
X154215Y345754D01*
X154235Y345903D01*
X154255Y346023D01*
X154285Y346123D01*
X154305Y346203D01*
X154315Y346243D01*
X154325Y346263D01*
X154375Y346403D01*
X154435Y346522D01*
X154504Y346632D01*
X154564Y346732D01*
X154614Y346802D01*
X154664Y346862D01*
X154694Y346902D01*
X154704Y346912D01*
X154794Y347011D01*
X154894Y347091D01*
X154994Y347161D01*
X155093Y347221D01*
X155173Y347271D01*
X155243Y347301D01*
X155283Y347321D01*
X155303Y347331D01*
X155443Y347381D01*
X155583Y347421D01*
X155722Y347441D01*
X155852Y347461D01*
X155962Y347471D01*
X156052Y347481D01*
X156132D01*
X156311Y347471D01*
D02*
G37*
G36*
X175807Y342879D02*
X174669D01*
Y347381D01*
X175807D01*
Y342879D01*
D02*
G37*
G36*
X172233Y347461D02*
X172403Y347451D01*
X172552Y347431D01*
X172672Y347411D01*
X172762Y347401D01*
X172822Y347381D01*
X172842D01*
X173002Y347341D01*
X173141Y347311D01*
X173281Y347271D01*
X173401Y347231D01*
X173491Y347201D01*
X173570Y347171D01*
X173610Y347161D01*
X173630Y347151D01*
Y342879D01*
X172502D01*
Y346462D01*
X172403Y346492D01*
X172303Y346512D01*
X172263Y346522D01*
X172233Y346532D01*
X172203D01*
X172063Y346552D01*
X171943Y346562D01*
X171824D01*
X171684Y346552D01*
X171564Y346532D01*
X171454Y346502D01*
X171374Y346472D01*
X171305Y346432D01*
X171265Y346403D01*
X171235Y346383D01*
X171225Y346373D01*
X171155Y346293D01*
X171105Y346213D01*
X171075Y346123D01*
X171045Y346033D01*
X171035Y345963D01*
X171025Y345903D01*
Y345863D01*
Y345844D01*
Y342879D01*
X169887D01*
Y345953D01*
Y346083D01*
X169907Y346213D01*
X169957Y346442D01*
X170037Y346632D01*
X170117Y346792D01*
X170207Y346922D01*
X170286Y347011D01*
X170336Y347061D01*
X170346Y347081D01*
X170356D01*
X170446Y347151D01*
X170556Y347211D01*
X170786Y347311D01*
X171025Y347381D01*
X171275Y347431D01*
X171384Y347451D01*
X171494Y347461D01*
X171584Y347471D01*
X171664D01*
X171734Y347481D01*
X172043D01*
X172233Y347461D01*
D02*
G37*
G36*
X164986Y342879D02*
X163848D01*
Y347381D01*
X164986D01*
Y342879D01*
D02*
G37*
G36*
X167621Y347461D02*
X167871Y347421D01*
X168080Y347361D01*
X168250Y347301D01*
X168390Y347231D01*
X168490Y347171D01*
X168549Y347131D01*
X168559Y347111D01*
X168570D01*
X168649Y347041D01*
X168709Y346972D01*
X168819Y346812D01*
X168889Y346652D01*
X168949Y346502D01*
X168979Y346363D01*
X168989Y346253D01*
X168999Y346213D01*
Y346183D01*
Y346163D01*
Y346153D01*
X168989Y346033D01*
X168979Y345923D01*
X168959Y345824D01*
X168939Y345744D01*
X168919Y345674D01*
X168899Y345624D01*
X168879Y345594D01*
Y345584D01*
X168779Y345434D01*
X168729Y345374D01*
X168679Y345314D01*
X168639Y345275D01*
X168599Y345245D01*
X168579Y345225D01*
X168570Y345215D01*
X168430Y345115D01*
X168290Y345035D01*
X168240Y345005D01*
X168200Y344985D01*
X168170Y344965D01*
X168160D01*
X167990Y344895D01*
X167921Y344865D01*
X167851Y344835D01*
X167791Y344815D01*
X167751Y344795D01*
X167721Y344785D01*
X167711D01*
X167601Y344745D01*
X167501Y344706D01*
X167421Y344666D01*
X167352Y344626D01*
X167292Y344596D01*
X167252Y344566D01*
X167222Y344556D01*
X167212Y344546D01*
X167142Y344496D01*
X167092Y344436D01*
X167062Y344366D01*
X167032Y344306D01*
X167022Y344256D01*
X167012Y344206D01*
Y344176D01*
Y344166D01*
X167022Y344087D01*
X167042Y344017D01*
X167072Y343957D01*
X167102Y343907D01*
X167142Y343867D01*
X167172Y343837D01*
X167192Y343817D01*
X167202Y343807D01*
X167272Y343767D01*
X167352Y343737D01*
X167511Y343697D01*
X167581Y343687D01*
X167641Y343677D01*
X167691D01*
X167881Y343687D01*
X167971Y343707D01*
X168050Y343717D01*
X168120Y343737D01*
X168180Y343747D01*
X168220Y343757D01*
X168230D01*
X168430Y343827D01*
X168520Y343867D01*
X168599Y343897D01*
X168659Y343927D01*
X168709Y343947D01*
X168739Y343957D01*
X168749Y343967D01*
X169118Y343098D01*
X168869Y342999D01*
X168759Y342949D01*
X168649Y342919D01*
X168559Y342889D01*
X168490Y342879D01*
X168450Y342859D01*
X168430D01*
X168150Y342809D01*
X168020Y342799D01*
X167911Y342789D01*
X167811Y342779D01*
X167491D01*
X167342Y342799D01*
X167202Y342819D01*
X167062Y342839D01*
X166942Y342869D01*
X166833Y342899D01*
X166723Y342929D01*
X166633Y342969D01*
X166553Y343009D01*
X166483Y343038D01*
X166423Y343069D01*
X166383Y343098D01*
X166343Y343128D01*
X166313Y343138D01*
X166304Y343158D01*
X166294D01*
X166214Y343228D01*
X166144Y343308D01*
X166024Y343478D01*
X165944Y343647D01*
X165894Y343807D01*
X165854Y343947D01*
X165844Y344067D01*
X165834Y344107D01*
Y344137D01*
Y344156D01*
Y344166D01*
Y344286D01*
X165854Y344396D01*
X165874Y344496D01*
X165894Y344576D01*
X165914Y344636D01*
X165934Y344686D01*
X165944Y344715D01*
X165954Y344725D01*
X166054Y344885D01*
X166104Y344945D01*
X166154Y345005D01*
X166194Y345045D01*
X166234Y345075D01*
X166254Y345095D01*
X166264Y345105D01*
X166413Y345215D01*
X166543Y345294D01*
X166603Y345314D01*
X166643Y345334D01*
X166673Y345354D01*
X166683D01*
X166852Y345424D01*
X166922Y345454D01*
X166992Y345484D01*
X167052Y345514D01*
X167092Y345524D01*
X167122Y345544D01*
X167132D01*
X167232Y345574D01*
X167312Y345604D01*
X167372Y345624D01*
X167382Y345634D01*
X167392D01*
X167471Y345684D01*
X167541Y345724D01*
X167591Y345754D01*
X167611Y345764D01*
X167681Y345814D01*
X167731Y345873D01*
X167761Y345913D01*
X167771Y345923D01*
X167801Y346003D01*
X167821Y346083D01*
X167831Y346143D01*
Y346153D01*
Y346163D01*
X167821Y346233D01*
X167801Y346303D01*
X167751Y346403D01*
X167721Y346442D01*
X167691Y346472D01*
X167681Y346482D01*
X167671Y346492D01*
X167601Y346542D01*
X167521Y346572D01*
X167372Y346612D01*
X167302Y346622D01*
X167252Y346632D01*
X167202D01*
X167022Y346622D01*
X166952Y346612D01*
X166873Y346602D01*
X166823Y346582D01*
X166773Y346572D01*
X166743Y346562D01*
X166733D01*
X166573Y346502D01*
X166493Y346472D01*
X166433Y346442D01*
X166383Y346413D01*
X166333Y346393D01*
X166313Y346383D01*
X166304Y346373D01*
X165954Y347151D01*
X166174Y347261D01*
X166283Y347301D01*
X166383Y347341D01*
X166473Y347371D01*
X166543Y347391D01*
X166583Y347401D01*
X166603D01*
X166873Y347451D01*
X166992Y347461D01*
X167102Y347471D01*
X167202Y347481D01*
X167342D01*
X167621Y347461D01*
D02*
G37*
G36*
X160224Y347331D02*
X160314Y347361D01*
X160414Y347381D01*
X160454D01*
X160484Y347391D01*
X160514D01*
X160644Y347411D01*
X160753Y347421D01*
X160863D01*
X161053Y347411D01*
X161223Y347391D01*
X161382Y347371D01*
X161512Y347341D01*
X161632Y347301D01*
X161712Y347281D01*
X161762Y347261D01*
X161782Y347251D01*
X161921Y347181D01*
X162051Y347101D01*
X162161Y347021D01*
X162261Y346952D01*
X162331Y346882D01*
X162390Y346822D01*
X162430Y346782D01*
X162440Y346772D01*
X162530Y346652D01*
X162620Y346532D01*
X162680Y346413D01*
X162740Y346293D01*
X162780Y346193D01*
X162820Y346113D01*
X162830Y346063D01*
X162840Y346053D01*
Y346043D01*
X162880Y345883D01*
X162910Y345714D01*
X162939Y345554D01*
X162950Y345404D01*
X162959Y345285D01*
X162969Y345185D01*
Y345145D01*
Y345115D01*
Y345105D01*
Y345095D01*
X162959Y344895D01*
X162950Y344706D01*
X162920Y344526D01*
X162880Y344366D01*
X162840Y344216D01*
X162790Y344077D01*
X162740Y343947D01*
X162680Y343827D01*
X162630Y343727D01*
X162580Y343638D01*
X162530Y343568D01*
X162490Y343498D01*
X162450Y343448D01*
X162420Y343418D01*
X162410Y343398D01*
X162400Y343388D01*
X162291Y343278D01*
X162161Y343188D01*
X162031Y343108D01*
X161891Y343038D01*
X161752Y342979D01*
X161612Y342929D01*
X161342Y342859D01*
X161223Y342829D01*
X161103Y342809D01*
X160993Y342799D01*
X160903Y342789D01*
X160833Y342779D01*
X160534D01*
X160354Y342799D01*
X160194Y342809D01*
X160045Y342829D01*
X159935Y342849D01*
X159845Y342859D01*
X159785Y342879D01*
X159765D01*
X159605Y342919D01*
X159476Y342949D01*
X159356Y342989D01*
X159256Y343019D01*
X159176Y343049D01*
X159126Y343078D01*
X159086Y343088D01*
X159076Y343098D01*
Y349437D01*
X160224D01*
Y347331D01*
D02*
G37*
G36*
X182460Y341451D02*
X182549Y341431D01*
X182619Y341401D01*
X182689Y341371D01*
X182749Y341342D01*
X182789Y341312D01*
X182809Y341292D01*
X182819Y341282D01*
X182879Y341212D01*
X182929Y341142D01*
X182959Y341072D01*
X182989Y341002D01*
X182999Y340942D01*
X183009Y340892D01*
Y340862D01*
Y340852D01*
X182999Y340763D01*
X182979Y340673D01*
X182949Y340603D01*
X182909Y340533D01*
X182879Y340483D01*
X182849Y340443D01*
X182829Y340423D01*
X182819Y340413D01*
X182749Y340353D01*
X182669Y340313D01*
X182589Y340274D01*
X182520Y340253D01*
X182460Y340243D01*
X182400Y340233D01*
X182360D01*
X182260Y340243D01*
X182170Y340263D01*
X182100Y340293D01*
X182030Y340323D01*
X181971Y340353D01*
X181931Y340383D01*
X181911Y340403D01*
X181901Y340413D01*
X181841Y340483D01*
X181791Y340563D01*
X181761Y340633D01*
X181731Y340703D01*
X181721Y340763D01*
X181711Y340812D01*
Y340842D01*
Y340852D01*
X181721Y340942D01*
X181741Y341032D01*
X181771Y341102D01*
X181801Y341162D01*
X181841Y341212D01*
X181871Y341252D01*
X181891Y341272D01*
X181901Y341282D01*
X181971Y341342D01*
X182050Y341381D01*
X182130Y341421D01*
X182200Y341441D01*
X182260Y341451D01*
X182310Y341461D01*
X182360D01*
X182460Y341451D01*
D02*
G37*
G36*
X187710Y335013D02*
X186582D01*
Y338527D01*
X186472Y338577D01*
X186373Y338616D01*
X186333Y338626D01*
X186303Y338636D01*
X186283Y338646D01*
X186273D01*
X186143Y338676D01*
X186033Y338686D01*
X185983Y338696D01*
X185924D01*
X185784Y338686D01*
X185664Y338666D01*
X185564Y338636D01*
X185474Y338606D01*
X185414Y338567D01*
X185364Y338537D01*
X185335Y338517D01*
X185325Y338507D01*
X185255Y338427D01*
X185195Y338347D01*
X185155Y338247D01*
X185135Y338157D01*
X185115Y338077D01*
X185105Y338008D01*
Y337968D01*
Y337948D01*
Y335013D01*
X183967D01*
Y338067D01*
Y338197D01*
X183987Y338327D01*
X184037Y338557D01*
X184107Y338746D01*
X184187Y338906D01*
X184266Y339036D01*
X184336Y339126D01*
X184386Y339175D01*
X184396Y339195D01*
X184406D01*
X184586Y339325D01*
X184776Y339425D01*
X184985Y339495D01*
X185185Y339535D01*
X185354Y339565D01*
X185434Y339575D01*
X185504D01*
X185554Y339585D01*
X185634D01*
X185814Y339575D01*
X185903Y339565D01*
X185973Y339555D01*
X186043Y339545D01*
X186093Y339535D01*
X186123Y339525D01*
X186133D01*
X186313Y339475D01*
X186383Y339455D01*
X186453Y339425D01*
X186502Y339405D01*
X186542Y339395D01*
X186572Y339375D01*
X186582D01*
Y341571D01*
X187710D01*
Y335013D01*
D02*
G37*
G36*
X173456Y339595D02*
X173615Y339585D01*
X173755Y339565D01*
X173875Y339545D01*
X173965Y339525D01*
X174025Y339515D01*
X174035Y339505D01*
X174045D01*
X174204Y339465D01*
X174344Y339425D01*
X174474Y339395D01*
X174574Y339355D01*
X174664Y339325D01*
X174723Y339305D01*
X174763Y339295D01*
X174773Y339285D01*
X174494Y338517D01*
X174404Y338557D01*
X174314Y338577D01*
X174244Y338596D01*
X174234Y338606D01*
X174224D01*
X174105Y338646D01*
X174005Y338666D01*
X173965Y338686D01*
X173935D01*
X173915Y338696D01*
X173905D01*
X173775Y338726D01*
X173675Y338746D01*
X173625D01*
X173596Y338756D01*
X173566D01*
X173436Y338776D01*
X173326Y338786D01*
X173226D01*
X173086Y338776D01*
X172967Y338766D01*
X172867Y338736D01*
X172777Y338716D01*
X172707Y338686D01*
X172657Y338656D01*
X172627Y338646D01*
X172617Y338636D01*
X172537Y338577D01*
X172488Y338497D01*
X172447Y338417D01*
X172418Y338337D01*
X172398Y338257D01*
X172388Y338197D01*
Y338157D01*
Y338137D01*
Y337908D01*
X172577Y337898D01*
X172757Y337878D01*
X172927Y337858D01*
X173076Y337838D01*
X173196Y337828D01*
X173296Y337808D01*
X173356Y337798D01*
X173376D01*
X173546Y337768D01*
X173705Y337728D01*
X173845Y337688D01*
X173975Y337648D01*
X174075Y337618D01*
X174144Y337588D01*
X174194Y337568D01*
X174214Y337558D01*
X174344Y337498D01*
X174464Y337419D01*
X174564Y337349D01*
X174644Y337279D01*
X174713Y337209D01*
X174763Y337159D01*
X174793Y337119D01*
X174803Y337109D01*
X174873Y336989D01*
X174933Y336870D01*
X174973Y336750D01*
X174993Y336630D01*
X175013Y336520D01*
X175023Y336440D01*
Y336380D01*
Y336370D01*
Y336360D01*
X175013Y336231D01*
X175003Y336121D01*
X174943Y335901D01*
X174863Y335722D01*
X174773Y335572D01*
X174683Y335452D01*
X174604Y335362D01*
X174544Y335312D01*
X174534Y335292D01*
X174524D01*
X174424Y335223D01*
X174314Y335163D01*
X174075Y335073D01*
X173815Y335003D01*
X173566Y334963D01*
X173456Y334943D01*
X173346Y334933D01*
X173246Y334923D01*
X173166D01*
X173096Y334913D01*
X172807D01*
X172627Y334933D01*
X172467Y334943D01*
X172318Y334963D01*
X172198Y334983D01*
X172108Y334993D01*
X172048Y335013D01*
X172028D01*
X171859Y335053D01*
X171719Y335083D01*
X171599Y335123D01*
X171489Y335153D01*
X171409Y335182D01*
X171360Y335213D01*
X171320Y335223D01*
X171310Y335233D01*
Y338008D01*
Y338167D01*
X171329Y338307D01*
X171350Y338437D01*
X171379Y338567D01*
X171419Y338676D01*
X171459Y338776D01*
X171499Y338866D01*
X171539Y338946D01*
X171589Y339016D01*
X171629Y339076D01*
X171709Y339165D01*
X171759Y339215D01*
X171769Y339235D01*
X171779D01*
X171968Y339365D01*
X172188Y339455D01*
X172408Y339525D01*
X172617Y339565D01*
X172807Y339595D01*
X172897Y339605D01*
X172967D01*
X173027Y339615D01*
X173286D01*
X173456Y339595D01*
D02*
G37*
G36*
X161078D02*
X161238Y339585D01*
X161377Y339565D01*
X161497Y339545D01*
X161587Y339525D01*
X161647Y339515D01*
X161657Y339505D01*
X161667D01*
X161826Y339465D01*
X161966Y339425D01*
X162096Y339395D01*
X162196Y339355D01*
X162286Y339325D01*
X162346Y339305D01*
X162386Y339295D01*
X162395Y339285D01*
X162116Y338517D01*
X162026Y338557D01*
X161936Y338577D01*
X161866Y338596D01*
X161856Y338606D01*
X161846D01*
X161727Y338646D01*
X161627Y338666D01*
X161587Y338686D01*
X161557D01*
X161537Y338696D01*
X161527D01*
X161397Y338726D01*
X161297Y338746D01*
X161248D01*
X161218Y338756D01*
X161188D01*
X161058Y338776D01*
X160948Y338786D01*
X160848D01*
X160709Y338776D01*
X160589Y338766D01*
X160489Y338736D01*
X160399Y338716D01*
X160329Y338686D01*
X160279Y338656D01*
X160249Y338646D01*
X160239Y338636D01*
X160159Y338577D01*
X160110Y338497D01*
X160070Y338417D01*
X160040Y338337D01*
X160020Y338257D01*
X160010Y338197D01*
Y338157D01*
Y338137D01*
Y337908D01*
X160199Y337898D01*
X160379Y337878D01*
X160549Y337858D01*
X160699Y337838D01*
X160818Y337828D01*
X160918Y337808D01*
X160978Y337798D01*
X160998D01*
X161168Y337768D01*
X161327Y337728D01*
X161467Y337688D01*
X161597Y337648D01*
X161697Y337618D01*
X161767Y337588D01*
X161817Y337568D01*
X161836Y337558D01*
X161966Y337498D01*
X162086Y337419D01*
X162186Y337349D01*
X162266Y337279D01*
X162336Y337209D01*
X162386Y337159D01*
X162415Y337119D01*
X162425Y337109D01*
X162495Y336989D01*
X162555Y336870D01*
X162595Y336750D01*
X162615Y336630D01*
X162635Y336520D01*
X162645Y336440D01*
Y336380D01*
Y336370D01*
Y336360D01*
X162635Y336231D01*
X162625Y336121D01*
X162565Y335901D01*
X162485Y335722D01*
X162395Y335572D01*
X162306Y335452D01*
X162226Y335362D01*
X162166Y335312D01*
X162156Y335292D01*
X162146D01*
X162046Y335223D01*
X161936Y335163D01*
X161697Y335073D01*
X161437Y335003D01*
X161188Y334963D01*
X161078Y334943D01*
X160968Y334933D01*
X160868Y334923D01*
X160788D01*
X160718Y334913D01*
X160429D01*
X160249Y334933D01*
X160090Y334943D01*
X159940Y334963D01*
X159820Y334983D01*
X159730Y334993D01*
X159670Y335013D01*
X159650D01*
X159481Y335053D01*
X159341Y335083D01*
X159221Y335123D01*
X159111Y335153D01*
X159031Y335182D01*
X158982Y335213D01*
X158942Y335223D01*
X158932Y335233D01*
Y338008D01*
Y338167D01*
X158952Y338307D01*
X158972Y338437D01*
X159002Y338567D01*
X159041Y338676D01*
X159081Y338776D01*
X159121Y338866D01*
X159161Y338946D01*
X159211Y339016D01*
X159251Y339076D01*
X159331Y339165D01*
X159381Y339215D01*
X159391Y339235D01*
X159401D01*
X159591Y339365D01*
X159810Y339455D01*
X160030Y339525D01*
X160239Y339565D01*
X160429Y339595D01*
X160519Y339605D01*
X160589D01*
X160649Y339615D01*
X160908D01*
X161078Y339595D01*
D02*
G37*
G36*
X190485Y340513D02*
Y339515D01*
X191064D01*
Y338656D01*
X190485D01*
Y336360D01*
X190475Y336111D01*
X190436Y335901D01*
X190385Y335712D01*
X190326Y335562D01*
X190276Y335452D01*
X190226Y335372D01*
X190186Y335322D01*
X190176Y335302D01*
X190046Y335182D01*
X189896Y335103D01*
X189737Y335043D01*
X189577Y334993D01*
X189427Y334973D01*
X189317Y334963D01*
X189268Y334953D01*
X189208D01*
X189058Y334963D01*
X188938Y334973D01*
X188888D01*
X188848Y334983D01*
X188818D01*
X188689Y335013D01*
X188599Y335033D01*
X188549Y335053D01*
X188529Y335063D01*
Y336011D01*
X188569Y335991D01*
X188619Y335971D01*
X188649Y335961D01*
X188669D01*
X188738Y335951D01*
X188788Y335941D01*
X188848D01*
X188928Y335951D01*
X188998Y335961D01*
X189058Y335981D01*
X189118Y336001D01*
X189158Y336021D01*
X189188Y336031D01*
X189208Y336051D01*
X189218D01*
X189268Y336101D01*
X189307Y336161D01*
X189327Y336221D01*
X189347Y336291D01*
X189357Y336351D01*
X189367Y336390D01*
Y336430D01*
Y336440D01*
Y338656D01*
X188529D01*
Y339515D01*
X189367D01*
Y340842D01*
X190485Y340513D01*
D02*
G37*
G36*
X165420Y339605D02*
X165580Y339585D01*
X165730Y339555D01*
X165859Y339525D01*
X165969Y339495D01*
X166049Y339465D01*
X166099Y339445D01*
X166119Y339435D01*
X166259Y339365D01*
X166388Y339285D01*
X166498Y339205D01*
X166598Y339136D01*
X166668Y339066D01*
X166728Y339006D01*
X166768Y338966D01*
X166778Y338956D01*
X166868Y338836D01*
X166957Y338706D01*
X167027Y338587D01*
X167087Y338467D01*
X167127Y338367D01*
X167157Y338277D01*
X167177Y338227D01*
X167187Y338217D01*
Y338207D01*
X167237Y338047D01*
X167267Y337878D01*
X167297Y337718D01*
X167307Y337568D01*
X167317Y337449D01*
X167327Y337349D01*
Y337309D01*
Y337279D01*
Y337269D01*
Y337259D01*
X167317Y337069D01*
X167307Y336899D01*
X167287Y336740D01*
X167257Y336590D01*
X167227Y336480D01*
X167207Y336390D01*
X167197Y336330D01*
X167187Y336320D01*
Y336311D01*
X167127Y336151D01*
X167057Y336011D01*
X166977Y335881D01*
X166907Y335771D01*
X166847Y335682D01*
X166798Y335622D01*
X166758Y335572D01*
X166748Y335562D01*
X166638Y335452D01*
X166518Y335352D01*
X166398Y335272D01*
X166289Y335202D01*
X166189Y335153D01*
X166109Y335113D01*
X166059Y335093D01*
X166039Y335083D01*
X165879Y335023D01*
X165709Y334983D01*
X165550Y334953D01*
X165390Y334933D01*
X165260Y334923D01*
X165151Y334913D01*
X164881D01*
X164701Y334923D01*
X164542Y334943D01*
X164402Y334963D01*
X164292Y334973D01*
X164202Y334993D01*
X164142Y335003D01*
X164122D01*
X163963Y335043D01*
X163823Y335073D01*
X163703Y335113D01*
X163593Y335153D01*
X163503Y335182D01*
X163444Y335213D01*
X163404Y335223D01*
X163394Y335233D01*
X163723Y336081D01*
X163913Y336001D01*
X164013Y335961D01*
X164102Y335941D01*
X164182Y335911D01*
X164242Y335891D01*
X164282Y335881D01*
X164302D01*
X164542Y335831D01*
X164661Y335821D01*
X164761Y335811D01*
X164841Y335801D01*
X164971D01*
X165151Y335811D01*
X165320Y335841D01*
X165460Y335881D01*
X165580Y335921D01*
X165680Y335961D01*
X165749Y336001D01*
X165789Y336031D01*
X165809Y336041D01*
X165919Y336141D01*
X166009Y336261D01*
X166079Y336390D01*
X166139Y336510D01*
X166179Y336620D01*
X166199Y336710D01*
X166219Y336770D01*
Y336780D01*
Y336790D01*
X163324Y337179D01*
X163314Y337249D01*
X163304Y337309D01*
Y337349D01*
Y337369D01*
Y337568D01*
X163314Y337738D01*
X163324Y337888D01*
X163344Y338037D01*
X163364Y338157D01*
X163394Y338257D01*
X163414Y338337D01*
X163424Y338377D01*
X163434Y338397D01*
X163484Y338537D01*
X163543Y338656D01*
X163613Y338766D01*
X163673Y338866D01*
X163723Y338936D01*
X163773Y338996D01*
X163803Y339036D01*
X163813Y339046D01*
X163903Y339146D01*
X164003Y339225D01*
X164102Y339295D01*
X164202Y339355D01*
X164282Y339405D01*
X164352Y339435D01*
X164392Y339455D01*
X164412Y339465D01*
X164552Y339515D01*
X164691Y339555D01*
X164831Y339575D01*
X164961Y339595D01*
X165071Y339605D01*
X165161Y339615D01*
X165240D01*
X165420Y339605D01*
D02*
G37*
G36*
X182929Y335013D02*
X181791D01*
Y339515D01*
X182929D01*
Y335013D01*
D02*
G37*
G36*
X168854Y339595D02*
X169024Y339585D01*
X169173Y339565D01*
X169303Y339545D01*
X169403Y339535D01*
X169463Y339515D01*
X169483D01*
X169653Y339475D01*
X169802Y339445D01*
X169942Y339405D01*
X170062Y339365D01*
X170152Y339335D01*
X170231Y339305D01*
X170271Y339295D01*
X170291Y339285D01*
Y335013D01*
X169163D01*
Y338596D01*
X169074Y338626D01*
X168994Y338646D01*
X168924Y338666D01*
X168904D01*
X168794Y338686D01*
X168694Y338696D01*
X168485D01*
X168395Y338686D01*
X168305Y338676D01*
X168235Y338666D01*
X168165Y338646D01*
X168125Y338636D01*
X168095Y338626D01*
X168085D01*
X167876Y339575D01*
X167966Y339585D01*
X168045D01*
X168105Y339595D01*
X168135D01*
X168245Y339605D01*
X168355Y339615D01*
X168654D01*
X168854Y339595D01*
D02*
G37*
G36*
X179515D02*
X179764Y339555D01*
X179974Y339495D01*
X180144Y339435D01*
X180284Y339365D01*
X180383Y339305D01*
X180443Y339265D01*
X180453Y339245D01*
X180463D01*
X180543Y339175D01*
X180603Y339105D01*
X180713Y338946D01*
X180783Y338786D01*
X180843Y338636D01*
X180872Y338497D01*
X180882Y338387D01*
X180893Y338347D01*
Y338317D01*
Y338297D01*
Y338287D01*
X180882Y338167D01*
X180872Y338057D01*
X180853Y337958D01*
X180833Y337878D01*
X180813Y337808D01*
X180793Y337758D01*
X180773Y337728D01*
Y337718D01*
X180673Y337568D01*
X180623Y337508D01*
X180573Y337449D01*
X180533Y337409D01*
X180493Y337379D01*
X180473Y337359D01*
X180463Y337349D01*
X180324Y337249D01*
X180184Y337169D01*
X180134Y337139D01*
X180094Y337119D01*
X180064Y337099D01*
X180054D01*
X179884Y337029D01*
X179814Y336999D01*
X179744Y336969D01*
X179685Y336949D01*
X179645Y336929D01*
X179615Y336919D01*
X179605D01*
X179495Y336880D01*
X179395Y336840D01*
X179315Y336800D01*
X179245Y336760D01*
X179186Y336730D01*
X179146Y336700D01*
X179116Y336690D01*
X179106Y336680D01*
X179036Y336630D01*
X178986Y336570D01*
X178956Y336500D01*
X178926Y336440D01*
X178916Y336390D01*
X178906Y336340D01*
Y336311D01*
Y336301D01*
X178916Y336221D01*
X178936Y336151D01*
X178966Y336091D01*
X178996Y336041D01*
X179036Y336001D01*
X179066Y335971D01*
X179086Y335951D01*
X179096Y335941D01*
X179166Y335901D01*
X179245Y335871D01*
X179405Y335831D01*
X179475Y335821D01*
X179535Y335811D01*
X179585D01*
X179774Y335821D01*
X179864Y335841D01*
X179944Y335851D01*
X180014Y335871D01*
X180074Y335881D01*
X180114Y335891D01*
X180124D01*
X180324Y335961D01*
X180413Y336001D01*
X180493Y336031D01*
X180553Y336061D01*
X180603Y336081D01*
X180633Y336091D01*
X180643Y336101D01*
X181012Y335233D01*
X180763Y335133D01*
X180653Y335083D01*
X180543Y335053D01*
X180453Y335023D01*
X180383Y335013D01*
X180343Y334993D01*
X180324D01*
X180044Y334943D01*
X179914Y334933D01*
X179804Y334923D01*
X179705Y334913D01*
X179385D01*
X179235Y334933D01*
X179096Y334953D01*
X178956Y334973D01*
X178836Y335003D01*
X178726Y335033D01*
X178617Y335063D01*
X178527Y335103D01*
X178447Y335143D01*
X178377Y335173D01*
X178317Y335202D01*
X178277Y335233D01*
X178237Y335262D01*
X178207Y335272D01*
X178197Y335292D01*
X178187D01*
X178107Y335362D01*
X178038Y335442D01*
X177918Y335612D01*
X177838Y335782D01*
X177788Y335941D01*
X177748Y336081D01*
X177738Y336201D01*
X177728Y336241D01*
Y336271D01*
Y336291D01*
Y336301D01*
Y336420D01*
X177748Y336530D01*
X177768Y336630D01*
X177788Y336710D01*
X177808Y336770D01*
X177828Y336820D01*
X177838Y336850D01*
X177848Y336860D01*
X177948Y337019D01*
X177998Y337079D01*
X178048Y337139D01*
X178088Y337179D01*
X178127Y337209D01*
X178147Y337229D01*
X178157Y337239D01*
X178307Y337349D01*
X178437Y337429D01*
X178497Y337449D01*
X178537Y337468D01*
X178567Y337488D01*
X178577D01*
X178746Y337558D01*
X178816Y337588D01*
X178886Y337618D01*
X178946Y337648D01*
X178986Y337658D01*
X179016Y337678D01*
X179026D01*
X179126Y337708D01*
X179205Y337738D01*
X179265Y337758D01*
X179275Y337768D01*
X179285D01*
X179365Y337818D01*
X179435Y337858D01*
X179485Y337888D01*
X179505Y337898D01*
X179575Y337948D01*
X179625Y338008D01*
X179655Y338047D01*
X179665Y338057D01*
X179695Y338137D01*
X179715Y338217D01*
X179725Y338277D01*
Y338287D01*
Y338297D01*
X179715Y338367D01*
X179695Y338437D01*
X179645Y338537D01*
X179615Y338577D01*
X179585Y338606D01*
X179575Y338616D01*
X179565Y338626D01*
X179495Y338676D01*
X179415Y338706D01*
X179265Y338746D01*
X179195Y338756D01*
X179146Y338766D01*
X179096D01*
X178916Y338756D01*
X178846Y338746D01*
X178766Y338736D01*
X178716Y338716D01*
X178666Y338706D01*
X178636Y338696D01*
X178626D01*
X178467Y338636D01*
X178387Y338606D01*
X178327Y338577D01*
X178277Y338546D01*
X178227Y338527D01*
X178207Y338517D01*
X178197Y338507D01*
X177848Y339285D01*
X178067Y339395D01*
X178177Y339435D01*
X178277Y339475D01*
X178367Y339505D01*
X178437Y339525D01*
X178477Y339535D01*
X178497D01*
X178766Y339585D01*
X178886Y339595D01*
X178996Y339605D01*
X179096Y339615D01*
X179235D01*
X179515Y339595D01*
D02*
G37*
G36*
X48332Y190927D02*
X48707Y190902D01*
X49057Y190827D01*
X49357Y190752D01*
X49582Y190702D01*
X49782Y190627D01*
X49882Y190602D01*
X49932Y190577D01*
X50232Y190402D01*
X50507Y190227D01*
X50757Y190052D01*
X50981Y189877D01*
X51157Y189727D01*
X51281Y189602D01*
X51356Y189502D01*
X51381Y189477D01*
X51581Y189202D01*
X51781Y188927D01*
X51931Y188652D01*
X52056Y188403D01*
X52156Y188178D01*
X52231Y188003D01*
X52256Y187903D01*
X52281Y187853D01*
X52381Y187503D01*
X52456Y187128D01*
X52506Y186778D01*
X52531Y186478D01*
X52556Y186203D01*
X52581Y185978D01*
Y185803D01*
X52556Y185403D01*
X52531Y185003D01*
X52481Y184653D01*
X52431Y184354D01*
X52381Y184104D01*
X52331Y183904D01*
X52281Y183804D01*
Y183754D01*
X52156Y183404D01*
X52006Y183104D01*
X51856Y182829D01*
X51706Y182579D01*
X51581Y182404D01*
X51481Y182254D01*
X51406Y182154D01*
X51381Y182129D01*
X51157Y181879D01*
X50907Y181654D01*
X50657Y181479D01*
X50432Y181304D01*
X50232Y181204D01*
X50082Y181104D01*
X49957Y181054D01*
X49932Y181029D01*
X49582Y180905D01*
X49257Y180805D01*
X48907Y180730D01*
X48582Y180679D01*
X48307Y180655D01*
X48107Y180630D01*
X47957D01*
X47907D01*
X37260D01*
Y183579D01*
X47932D01*
X48282Y183604D01*
X48607Y183679D01*
X48857Y183779D01*
X49082Y183904D01*
X49282Y184029D01*
X49407Y184129D01*
X49482Y184204D01*
X49507Y184229D01*
X49707Y184479D01*
X49832Y184729D01*
X49932Y185003D01*
X50007Y185253D01*
X50057Y185478D01*
X50082Y185653D01*
Y185803D01*
X50057Y186128D01*
X49982Y186428D01*
X49907Y186703D01*
X49782Y186928D01*
X49682Y187128D01*
X49607Y187253D01*
X49532Y187353D01*
X49507Y187378D01*
X49282Y187578D01*
X49007Y187728D01*
X48757Y187853D01*
X48507Y187928D01*
X48282Y187978D01*
X48107Y188003D01*
X47982D01*
X47932D01*
X37260D01*
Y190952D01*
X47907D01*
X48332Y190927D01*
D02*
G37*
G36*
X52106Y177805D02*
X52206Y177480D01*
X52281Y177205D01*
X52356Y176956D01*
X52406Y176780D01*
X52431Y176656D01*
Y176606D01*
X52556Y175856D01*
X52581Y175506D01*
X52606Y175206D01*
X52631Y174931D01*
Y174556D01*
X52606Y174106D01*
X52581Y173706D01*
X52531Y173331D01*
X52456Y173006D01*
X52406Y172757D01*
X52356Y172557D01*
X52331Y172432D01*
X52306Y172382D01*
X52181Y172032D01*
X52031Y171707D01*
X51856Y171432D01*
X51706Y171207D01*
X51581Y171007D01*
X51456Y170882D01*
X51381Y170782D01*
X51356Y170757D01*
X51107Y170507D01*
X50856Y170307D01*
X50632Y170132D01*
X50407Y169982D01*
X50207Y169882D01*
X50057Y169807D01*
X49932Y169757D01*
X49907Y169732D01*
X49582Y169607D01*
X49257Y169532D01*
X48932Y169457D01*
X48632Y169432D01*
X48382Y169407D01*
X48182Y169382D01*
X48057D01*
X48007D01*
X47607Y169407D01*
X47232Y169457D01*
X46908Y169532D01*
X46658Y169607D01*
X46433Y169682D01*
X46258Y169757D01*
X46158Y169807D01*
X46133Y169832D01*
X45858Y170007D01*
X45608Y170182D01*
X45408Y170357D01*
X45208Y170532D01*
X45058Y170707D01*
X44958Y170807D01*
X44883Y170907D01*
X44858Y170932D01*
X44483Y171432D01*
X44333Y171657D01*
X44183Y171882D01*
X44083Y172082D01*
X44008Y172232D01*
X43958Y172332D01*
X43933Y172357D01*
X43658Y172906D01*
X43533Y173157D01*
X43408Y173381D01*
X43334Y173556D01*
X43259Y173681D01*
X43208Y173781D01*
X43183Y173806D01*
X42909Y174256D01*
X42759Y174431D01*
X42634Y174606D01*
X42534Y174731D01*
X42459Y174831D01*
X42409Y174881D01*
X42384Y174906D01*
X42209Y175056D01*
X42034Y175156D01*
X41859Y175231D01*
X41684Y175281D01*
X41534Y175306D01*
X41409Y175331D01*
X41334D01*
X41309D01*
X41034Y175306D01*
X40759Y175256D01*
X40559Y175156D01*
X40359Y175056D01*
X40234Y174956D01*
X40109Y174856D01*
X40059Y174806D01*
X40034Y174781D01*
X39859Y174556D01*
X39734Y174306D01*
X39659Y174031D01*
X39584Y173781D01*
X39559Y173581D01*
X39534Y173381D01*
Y173232D01*
X39559Y172732D01*
X39584Y172507D01*
X39609Y172307D01*
X39659Y172132D01*
X39684Y172007D01*
X39709Y171932D01*
Y171907D01*
X39859Y171457D01*
X39934Y171257D01*
X40009Y171107D01*
X40084Y170957D01*
X40134Y170857D01*
X40159Y170782D01*
X40184Y170757D01*
X37810Y169832D01*
X37535Y170382D01*
X37435Y170657D01*
X37360Y170907D01*
X37285Y171107D01*
X37235Y171282D01*
X37210Y171382D01*
Y171432D01*
X37085Y172107D01*
X37035Y172432D01*
X37010Y172732D01*
X36985Y172981D01*
Y173356D01*
X37010Y173756D01*
X37035Y174156D01*
X37085Y174506D01*
X37135Y174806D01*
X37210Y175056D01*
X37260Y175231D01*
X37285Y175356D01*
X37310Y175406D01*
X37435Y175731D01*
X37585Y176031D01*
X37735Y176281D01*
X37885Y176506D01*
X38035Y176706D01*
X38135Y176831D01*
X38210Y176931D01*
X38235Y176956D01*
X38460Y177180D01*
X38685Y177380D01*
X38935Y177530D01*
X39160Y177680D01*
X39334Y177780D01*
X39485Y177855D01*
X39609Y177905D01*
X39634Y177930D01*
X39959Y178055D01*
X40259Y178130D01*
X40584Y178205D01*
X40859Y178230D01*
X41109Y178255D01*
X41309Y178280D01*
X41434D01*
X41484D01*
X41884Y178255D01*
X42259Y178205D01*
X42584Y178155D01*
X42859Y178055D01*
X43084Y177980D01*
X43233Y177930D01*
X43358Y177880D01*
X43383Y177855D01*
X43658Y177680D01*
X43908Y177480D01*
X44108Y177305D01*
X44308Y177131D01*
X44458Y176980D01*
X44558Y176856D01*
X44633Y176780D01*
X44658Y176756D01*
X45008Y176256D01*
X45183Y176031D01*
X45308Y175806D01*
X45408Y175631D01*
X45483Y175481D01*
X45533Y175381D01*
X45558Y175356D01*
X45808Y174806D01*
X45933Y174556D01*
X46058Y174356D01*
X46133Y174181D01*
X46208Y174056D01*
X46258Y173956D01*
X46283Y173931D01*
X46408Y173706D01*
X46558Y173481D01*
X46683Y173306D01*
X46808Y173157D01*
X46933Y173032D01*
X47007Y172931D01*
X47057Y172882D01*
X47083Y172857D01*
X47257Y172707D01*
X47432Y172607D01*
X47607Y172507D01*
X47782Y172457D01*
X47932Y172432D01*
X48057Y172407D01*
X48132D01*
X48157D01*
X48457Y172432D01*
X48707Y172507D01*
X48932Y172607D01*
X49132Y172707D01*
X49282Y172832D01*
X49382Y172931D01*
X49457Y173006D01*
X49482Y173032D01*
X49657Y173281D01*
X49782Y173556D01*
X49857Y173831D01*
X49907Y174081D01*
X49957Y174331D01*
X49982Y174531D01*
Y174706D01*
X49957Y175231D01*
X49907Y175481D01*
X49882Y175706D01*
X49832Y175881D01*
X49807Y176031D01*
X49782Y176131D01*
Y176156D01*
X49607Y176656D01*
X49532Y176880D01*
X49457Y177080D01*
X49382Y177255D01*
X49332Y177380D01*
X49282Y177455D01*
Y177480D01*
X51831Y178455D01*
X52106Y177805D01*
D02*
G37*
G36*
X51956Y166783D02*
X52056Y166433D01*
X52156Y166108D01*
X52256Y165783D01*
X52306Y165483D01*
X52356Y165259D01*
X52406Y165109D01*
Y165058D01*
X52481Y164584D01*
X52531Y164109D01*
X52581Y163684D01*
X52606Y163284D01*
Y162959D01*
X52631Y162709D01*
Y162484D01*
X52606Y161934D01*
X52581Y161434D01*
X52531Y160960D01*
X52456Y160535D01*
X52356Y160135D01*
X52256Y159760D01*
X52156Y159435D01*
X52056Y159135D01*
X51956Y158860D01*
X51856Y158635D01*
X51756Y158460D01*
X51656Y158285D01*
X51581Y158160D01*
X51531Y158085D01*
X51481Y158035D01*
Y158010D01*
X51256Y157735D01*
X51006Y157510D01*
X50757Y157310D01*
X50507Y157136D01*
X50232Y156986D01*
X49957Y156861D01*
X49457Y156686D01*
X48982Y156561D01*
X48782Y156536D01*
X48607Y156511D01*
X48482Y156486D01*
X48382D01*
X48307D01*
X48282D01*
X47982D01*
X47707Y156536D01*
X47457Y156561D01*
X47257Y156611D01*
X47083Y156661D01*
X46933Y156711D01*
X46858Y156736D01*
X46833Y156761D01*
X46408Y156961D01*
X46208Y157086D01*
X46058Y157186D01*
X45933Y157285D01*
X45833Y157360D01*
X45783Y157410D01*
X45758Y157436D01*
X45433Y157735D01*
X45183Y158010D01*
X45108Y158135D01*
X45033Y158235D01*
X45008Y158285D01*
X44983Y158310D01*
X44783Y158660D01*
X44633Y158960D01*
X44583Y159085D01*
X44558Y159185D01*
X44533Y159235D01*
Y159260D01*
X44483D01*
X44358Y158910D01*
X44233Y158635D01*
X44183Y158535D01*
X44133Y158460D01*
X44083Y158410D01*
Y158385D01*
X43833Y158085D01*
X43583Y157860D01*
X43483Y157760D01*
X43408Y157685D01*
X43358Y157660D01*
X43334Y157635D01*
X42984Y157410D01*
X42659Y157236D01*
X42534Y157161D01*
X42434Y157111D01*
X42359Y157086D01*
X42334D01*
X41909Y156961D01*
X41709Y156936D01*
X41534Y156911D01*
X41359Y156886D01*
X41234D01*
X41159D01*
X41134D01*
X40809Y156911D01*
X40484Y156936D01*
X40209Y156986D01*
X39959Y157061D01*
X39759Y157136D01*
X39609Y157186D01*
X39509Y157211D01*
X39485Y157236D01*
X39209Y157386D01*
X38960Y157535D01*
X38735Y157710D01*
X38535Y157885D01*
X38385Y158035D01*
X38285Y158160D01*
X38210Y158260D01*
X38185Y158285D01*
X37985Y158560D01*
X37810Y158835D01*
X37660Y159135D01*
X37535Y159410D01*
X37435Y159660D01*
X37360Y159860D01*
X37335Y159985D01*
X37310Y160010D01*
Y160035D01*
X37210Y160435D01*
X37110Y160860D01*
X37060Y161285D01*
X37035Y161684D01*
X37010Y162009D01*
X36985Y162284D01*
Y163034D01*
X37035Y163484D01*
X37060Y163909D01*
X37110Y164284D01*
X37160Y164609D01*
X37185Y164859D01*
X37235Y165009D01*
Y165058D01*
X37335Y165483D01*
X37410Y165858D01*
X37510Y166208D01*
X37610Y166508D01*
X37685Y166758D01*
X37760Y166933D01*
X37785Y167033D01*
X37810Y167083D01*
X51831D01*
X51956Y166783D01*
D02*
G37*
G36*
X52381Y146063D02*
X37260D01*
Y149013D01*
X52381D01*
Y146063D01*
D02*
G37*
G36*
Y140765D02*
X43608D01*
X43358D01*
X43109D01*
X42909D01*
X42734D01*
X42609Y140790D01*
X42484D01*
X42434D01*
X42409D01*
X42084D01*
X41834D01*
X41759Y140815D01*
X41684D01*
X41659D01*
X41634D01*
Y140765D01*
X41709Y140740D01*
X41809Y140690D01*
X42034Y140590D01*
X42134Y140540D01*
X42234Y140490D01*
X42284Y140465D01*
X42309D01*
X42684Y140265D01*
X43033Y140090D01*
X43183Y139990D01*
X43309Y139915D01*
X43383Y139890D01*
X43408Y139865D01*
X52381Y134441D01*
Y132017D01*
X37260D01*
Y134541D01*
X45733D01*
X46008D01*
X46258D01*
X46483D01*
X46658D01*
X46808D01*
X46933D01*
X47007D01*
X47032D01*
X47207D01*
X47382Y134516D01*
X47507D01*
X47607D01*
X47732D01*
X47782D01*
Y134541D01*
X47532Y134641D01*
X47283Y134766D01*
X47182Y134841D01*
X47083Y134866D01*
X47032Y134916D01*
X47007D01*
X46658Y135091D01*
X46308Y135266D01*
X46183Y135341D01*
X46083Y135391D01*
X46008Y135416D01*
X45983Y135441D01*
X37260Y140740D01*
Y143264D01*
X52381D01*
Y140765D01*
D02*
G37*
%LPC*%
G36*
X262543Y171610D02*
X261968D01*
X261693Y171560D01*
X261443Y171510D01*
X261243Y171460D01*
X261068Y171410D01*
X260944Y171360D01*
X260844Y171335D01*
X260819Y171310D01*
X260569Y171185D01*
X260344Y171035D01*
X260169Y170885D01*
X259994Y170735D01*
X259844Y170585D01*
X259744Y170460D01*
X259694Y170385D01*
X259669Y170360D01*
X259494Y170110D01*
X259344Y169835D01*
X259219Y169535D01*
X259119Y169285D01*
X259044Y169035D01*
X258994Y168860D01*
X258944Y168735D01*
Y168685D01*
X258844Y168286D01*
X258794Y167886D01*
X258744Y167486D01*
X258694Y167111D01*
Y166786D01*
X258669Y166511D01*
Y166411D01*
Y166361D01*
Y166311D01*
Y166286D01*
Y165761D01*
X258719Y165311D01*
X258744Y164886D01*
X258794Y164536D01*
X258844Y164237D01*
X258894Y164012D01*
X258919Y163887D01*
X258944Y163837D01*
X259044Y163487D01*
X259169Y163162D01*
X259294Y162887D01*
X259394Y162637D01*
X259494Y162437D01*
X259594Y162312D01*
X259644Y162212D01*
X259669Y162187D01*
X259844Y161962D01*
X260044Y161762D01*
X260244Y161612D01*
X260419Y161462D01*
X260569Y161362D01*
X260693Y161287D01*
X260793Y161262D01*
X260819Y161237D01*
X261068Y161137D01*
X261318Y161062D01*
X261543Y161012D01*
X261768Y160987D01*
X261968Y160962D01*
X262118Y160937D01*
X262568D01*
X262843Y160962D01*
X263093Y161012D01*
X263268Y161037D01*
X263418Y161087D01*
X263543Y161112D01*
X263593Y161137D01*
X263618D01*
Y171410D01*
X263418Y171485D01*
X263193Y171535D01*
X262743Y171585D01*
X262543Y171610D01*
D02*
G37*
G36*
X72590Y301224D02*
X72540D01*
Y301149D01*
Y301074D01*
Y300824D01*
X72565Y300724D01*
Y300624D01*
Y300549D01*
Y300524D01*
X72590Y300099D01*
Y299874D01*
Y299674D01*
Y299499D01*
Y299374D01*
Y299274D01*
Y299249D01*
Y294375D01*
X76989D01*
X73565Y299499D01*
X73465Y299649D01*
X73365Y299799D01*
X73315Y299899D01*
X73290Y299949D01*
X73190Y300149D01*
X73090Y300324D01*
X73015Y300424D01*
X72990Y300474D01*
X72891Y300649D01*
X72815Y300799D01*
X72765Y300899D01*
X72741Y300924D01*
X72666Y301049D01*
X72615Y301149D01*
X72590Y301199D01*
Y301224D01*
D02*
G37*
G36*
Y401224D02*
X72540D01*
Y401149D01*
Y401074D01*
Y400824D01*
X72565Y400724D01*
Y400624D01*
Y400549D01*
Y400524D01*
X72590Y400099D01*
Y399874D01*
Y399674D01*
Y399499D01*
Y399374D01*
Y399274D01*
Y399249D01*
Y394375D01*
X76989D01*
X73565Y399499D01*
X73465Y399649D01*
X73365Y399799D01*
X73315Y399899D01*
X73290Y399949D01*
X73190Y400149D01*
X73090Y400324D01*
X73015Y400424D01*
X72990Y400474D01*
X72891Y400649D01*
X72815Y400799D01*
X72765Y400899D01*
X72741Y400924D01*
X72666Y401049D01*
X72615Y401149D01*
X72590Y401199D01*
Y401224D01*
D02*
G37*
G36*
X61843Y350824D02*
X61268D01*
X60993Y350774D01*
X60744Y350724D01*
X60544Y350674D01*
X60369Y350624D01*
X60244Y350574D01*
X60144Y350549D01*
X60119Y350524D01*
X59869Y350399D01*
X59644Y350249D01*
X59469Y350099D01*
X59294Y349949D01*
X59144Y349799D01*
X59044Y349674D01*
X58994Y349599D01*
X58969Y349574D01*
X58794Y349324D01*
X58644Y349049D01*
X58519Y348749D01*
X58419Y348499D01*
X58344Y348249D01*
X58294Y348074D01*
X58244Y347949D01*
Y347899D01*
X58144Y347500D01*
X58094Y347100D01*
X58044Y346700D01*
X57994Y346325D01*
Y346000D01*
X57969Y345725D01*
Y345625D01*
Y345575D01*
Y345525D01*
Y345500D01*
Y344975D01*
X58019Y344525D01*
X58044Y344100D01*
X58094Y343750D01*
X58144Y343451D01*
X58194Y343226D01*
X58219Y343101D01*
X58244Y343051D01*
X58344Y342701D01*
X58469Y342376D01*
X58594Y342101D01*
X58694Y341851D01*
X58794Y341651D01*
X58894Y341526D01*
X58944Y341426D01*
X58969Y341401D01*
X59144Y341176D01*
X59344Y340976D01*
X59544Y340826D01*
X59719Y340676D01*
X59869Y340576D01*
X59994Y340501D01*
X60094Y340476D01*
X60119Y340451D01*
X60369Y340351D01*
X60619Y340276D01*
X60844Y340226D01*
X61069Y340201D01*
X61268Y340176D01*
X61418Y340151D01*
X61868D01*
X62143Y340176D01*
X62393Y340226D01*
X62568Y340251D01*
X62718Y340301D01*
X62843Y340326D01*
X62893Y340351D01*
X62918D01*
Y350624D01*
X62718Y350699D01*
X62493Y350749D01*
X62043Y350799D01*
X61843Y350824D01*
D02*
G37*
G36*
Y250824D02*
X61268D01*
X60993Y250774D01*
X60744Y250724D01*
X60544Y250674D01*
X60369Y250624D01*
X60244Y250574D01*
X60144Y250549D01*
X60119Y250524D01*
X59869Y250399D01*
X59644Y250249D01*
X59469Y250099D01*
X59294Y249949D01*
X59144Y249799D01*
X59044Y249674D01*
X58994Y249599D01*
X58969Y249574D01*
X58794Y249324D01*
X58644Y249049D01*
X58519Y248749D01*
X58419Y248499D01*
X58344Y248249D01*
X58294Y248074D01*
X58244Y247949D01*
Y247899D01*
X58144Y247500D01*
X58094Y247100D01*
X58044Y246700D01*
X57994Y246325D01*
Y246000D01*
X57969Y245725D01*
Y245625D01*
Y245575D01*
Y245525D01*
Y245500D01*
Y244975D01*
X58019Y244525D01*
X58044Y244100D01*
X58094Y243750D01*
X58144Y243451D01*
X58194Y243226D01*
X58219Y243101D01*
X58244Y243051D01*
X58344Y242701D01*
X58469Y242376D01*
X58594Y242101D01*
X58694Y241851D01*
X58794Y241651D01*
X58894Y241526D01*
X58944Y241426D01*
X58969Y241401D01*
X59144Y241176D01*
X59344Y240976D01*
X59544Y240826D01*
X59719Y240676D01*
X59869Y240576D01*
X59994Y240501D01*
X60094Y240476D01*
X60119Y240451D01*
X60369Y240351D01*
X60619Y240276D01*
X60844Y240226D01*
X61069Y240201D01*
X61268Y240176D01*
X61418Y240151D01*
X61868D01*
X62143Y240176D01*
X62393Y240226D01*
X62568Y240251D01*
X62718Y240301D01*
X62843Y240326D01*
X62893Y240351D01*
X62918D01*
Y250624D01*
X62718Y250699D01*
X62493Y250749D01*
X62043Y250799D01*
X61843Y250824D01*
D02*
G37*
G36*
X782129Y315642D02*
X778130D01*
X778067Y315454D01*
X778025Y315267D01*
Y315204D01*
X778005Y315142D01*
Y315079D01*
X777963Y314809D01*
X777942Y314600D01*
Y314371D01*
X777963Y313934D01*
X778025Y313559D01*
X778130Y313247D01*
X778275Y312955D01*
X778442Y312726D01*
X778630Y312539D01*
X778817Y312372D01*
X779004Y312247D01*
X779213Y312143D01*
X779400Y312059D01*
X779587Y312018D01*
X779754Y311976D01*
X779879Y311955D01*
X780004Y311935D01*
X780067D01*
X780087D01*
X780442Y311955D01*
X780754Y312039D01*
X781025Y312143D01*
X781233Y312268D01*
X781420Y312414D01*
X781545Y312518D01*
X781629Y312601D01*
X781649Y312622D01*
X781837Y312892D01*
X781983Y313205D01*
X782066Y313538D01*
X782149Y313851D01*
X782191Y314142D01*
X782212Y314392D01*
Y314830D01*
X782191Y315038D01*
Y315204D01*
X782170Y315371D01*
X782149Y315475D01*
Y315579D01*
X782129Y315621D01*
Y315642D01*
D02*
G37*
G36*
X786857Y305311D02*
X778296D01*
X778234Y305145D01*
X778192Y304957D01*
X778150Y304582D01*
X778130Y304415D01*
Y303937D01*
X778171Y303707D01*
X778213Y303499D01*
X778255Y303333D01*
X778296Y303187D01*
X778338Y303083D01*
X778359Y302999D01*
X778380Y302978D01*
X778484Y302770D01*
X778609Y302583D01*
X778734Y302437D01*
X778859Y302291D01*
X778984Y302166D01*
X779088Y302083D01*
X779150Y302041D01*
X779171Y302020D01*
X779379Y301875D01*
X779608Y301750D01*
X779858Y301645D01*
X780067Y301562D01*
X780275Y301500D01*
X780421Y301458D01*
X780525Y301416D01*
X780566D01*
X780900Y301333D01*
X781233Y301291D01*
X781566Y301250D01*
X781879Y301208D01*
X782149D01*
X782378Y301187D01*
X782462D01*
X782504D01*
X782545D01*
X782566D01*
X783003D01*
X783378Y301229D01*
X783732Y301250D01*
X784024Y301291D01*
X784274Y301333D01*
X784461Y301375D01*
X784565Y301395D01*
X784607Y301416D01*
X784899Y301500D01*
X785169Y301604D01*
X785399Y301708D01*
X785607Y301791D01*
X785773Y301875D01*
X785878Y301958D01*
X785961Y301999D01*
X785982Y302020D01*
X786169Y302166D01*
X786336Y302333D01*
X786461Y302499D01*
X786586Y302645D01*
X786669Y302770D01*
X786731Y302874D01*
X786752Y302958D01*
X786773Y302978D01*
X786857Y303187D01*
X786919Y303395D01*
X786961Y303582D01*
X786982Y303770D01*
X787002Y303937D01*
X787023Y304062D01*
Y304436D01*
X787002Y304666D01*
X786961Y304874D01*
X786940Y305020D01*
X786898Y305145D01*
X786877Y305249D01*
X786857Y305290D01*
Y305311D01*
D02*
G37*
G36*
X782920Y290336D02*
X782733D01*
X782608D01*
X782587D01*
X782566D01*
X782212D01*
X781879Y290315D01*
X781587Y290294D01*
X781337Y290252D01*
X781108Y290232D01*
X780962Y290211D01*
X780858Y290190D01*
X780816D01*
X780525Y290128D01*
X780254Y290044D01*
X780025Y289961D01*
X779817Y289898D01*
X779671Y289836D01*
X779546Y289774D01*
X779463Y289753D01*
X779442Y289732D01*
X779233Y289607D01*
X779046Y289482D01*
X778900Y289357D01*
X778775Y289232D01*
X778671Y289128D01*
X778609Y289044D01*
X778567Y289003D01*
X778546Y288982D01*
X778442Y288794D01*
X778359Y288628D01*
X778317Y288440D01*
X778275Y288274D01*
X778255Y288128D01*
X778234Y288024D01*
Y287920D01*
X778255Y287691D01*
X778275Y287503D01*
X778338Y287316D01*
X778380Y287170D01*
X778442Y287024D01*
X778504Y286941D01*
X778525Y286878D01*
X778546Y286857D01*
X778671Y286691D01*
X778817Y286545D01*
X778963Y286420D01*
X779109Y286316D01*
X779233Y286233D01*
X779338Y286149D01*
X779421Y286129D01*
X779442Y286108D01*
X779671Y286004D01*
X779900Y285900D01*
X780129Y285816D01*
X780337Y285754D01*
X780525Y285712D01*
X780671Y285670D01*
X780775Y285650D01*
X780816D01*
X781420Y285545D01*
X781712Y285525D01*
X781983Y285504D01*
X782212Y285483D01*
X782399D01*
X782524D01*
X782545D01*
X782566D01*
X782920D01*
X783253Y285504D01*
X783566Y285525D01*
X783837Y285566D01*
X784045Y285587D01*
X784211Y285629D01*
X784315Y285650D01*
X784357D01*
X784649Y285712D01*
X784899Y285774D01*
X785149Y285858D01*
X785336Y285941D01*
X785503Y286004D01*
X785628Y286066D01*
X785711Y286087D01*
X785732Y286108D01*
X785940Y286233D01*
X786107Y286337D01*
X786253Y286483D01*
X786377Y286587D01*
X786482Y286691D01*
X786544Y286774D01*
X786586Y286837D01*
X786607Y286857D01*
X786711Y287024D01*
X786794Y287212D01*
X786836Y287399D01*
X786877Y287566D01*
X786898Y287712D01*
X786919Y287816D01*
Y287920D01*
X786898Y288128D01*
X786877Y288336D01*
X786815Y288524D01*
X786752Y288670D01*
X786711Y288794D01*
X786648Y288899D01*
X786627Y288961D01*
X786607Y288982D01*
X786482Y289149D01*
X786336Y289274D01*
X786044Y289524D01*
X785919Y289607D01*
X785815Y289669D01*
X785753Y289711D01*
X785732Y289732D01*
X785274Y289919D01*
X785044Y290003D01*
X784815Y290065D01*
X784628Y290128D01*
X784482Y290148D01*
X784399Y290190D01*
X784357D01*
X783732Y290273D01*
X783441Y290294D01*
X783149Y290315D01*
X782920Y290336D01*
D02*
G37*
G36*
X765606Y300479D02*
X762128D01*
X762065Y300292D01*
X762023Y300083D01*
X762003Y300000D01*
X761982Y299917D01*
Y299854D01*
X761940Y299542D01*
X761919Y299271D01*
Y299021D01*
X761940Y298584D01*
X762003Y298230D01*
X762065Y297917D01*
X762148Y297667D01*
X762253Y297480D01*
X762315Y297334D01*
X762377Y297251D01*
X762398Y297230D01*
X762586Y297042D01*
X762815Y296897D01*
X763023Y296793D01*
X763252Y296709D01*
X763440Y296667D01*
X763586Y296647D01*
X763690D01*
X763731D01*
X764065Y296667D01*
X764210Y296688D01*
X764335Y296730D01*
X764439Y296751D01*
X764523Y296793D01*
X764565Y296813D01*
X764585D01*
X764835Y296959D01*
X765023Y297084D01*
X765148Y297209D01*
X765169Y297230D01*
X765189Y297251D01*
X765335Y297480D01*
X765418Y297688D01*
X765460Y297792D01*
X765481Y297855D01*
X765502Y297896D01*
Y297917D01*
X765543Y298063D01*
X765564Y298230D01*
X765585Y298563D01*
X765606Y298709D01*
Y300479D01*
D02*
G37*
G36*
X771021D02*
X767335D01*
Y298667D01*
X767355Y298459D01*
X767376Y298292D01*
Y298146D01*
X767397Y298021D01*
X767418Y297938D01*
X767439Y297896D01*
Y297876D01*
X767522Y297605D01*
X767626Y297397D01*
X767689Y297313D01*
X767710Y297251D01*
X767751Y297209D01*
Y297188D01*
X767959Y296917D01*
X768188Y296730D01*
X768438Y296584D01*
X768709Y296501D01*
X768938Y296438D01*
X769126Y296418D01*
X769251Y296397D01*
X769272D01*
X769292D01*
X769626Y296418D01*
X769938Y296501D01*
X770188Y296647D01*
X770417Y296793D01*
X770605Y297001D01*
X770750Y297230D01*
X770875Y297459D01*
X770980Y297688D01*
X771063Y297938D01*
X771125Y298167D01*
X771167Y298396D01*
X771209Y298584D01*
Y298750D01*
X771229Y298896D01*
Y299000D01*
X771209Y299292D01*
X771188Y299563D01*
Y299667D01*
X771167Y299750D01*
Y299813D01*
X771125Y300083D01*
X771063Y300292D01*
X771042Y300375D01*
Y300437D01*
X771021Y300458D01*
Y300479D01*
D02*
G37*
G36*
X766918Y285670D02*
X766731D01*
X766606D01*
X766585D01*
X766564D01*
X766210D01*
X765877Y285650D01*
X765585Y285629D01*
X765335Y285587D01*
X765106Y285566D01*
X764960Y285545D01*
X764856Y285525D01*
X764814D01*
X764523Y285462D01*
X764252Y285379D01*
X764023Y285295D01*
X763815Y285233D01*
X763669Y285170D01*
X763544Y285108D01*
X763461Y285087D01*
X763440Y285066D01*
X763232Y284941D01*
X763044Y284816D01*
X762898Y284691D01*
X762773Y284566D01*
X762669Y284462D01*
X762607Y284379D01*
X762565Y284337D01*
X762544Y284317D01*
X762440Y284129D01*
X762357Y283962D01*
X762315Y283775D01*
X762273Y283608D01*
X762253Y283463D01*
X762232Y283358D01*
Y283254D01*
X762253Y283025D01*
X762273Y282838D01*
X762336Y282650D01*
X762377Y282505D01*
X762440Y282359D01*
X762503Y282275D01*
X762523Y282213D01*
X762544Y282192D01*
X762669Y282025D01*
X762815Y281880D01*
X762961Y281755D01*
X763107Y281651D01*
X763232Y281567D01*
X763336Y281484D01*
X763419Y281463D01*
X763440Y281442D01*
X763669Y281338D01*
X763898Y281234D01*
X764127Y281151D01*
X764335Y281088D01*
X764523Y281047D01*
X764669Y281005D01*
X764773Y280984D01*
X764814D01*
X765418Y280880D01*
X765710Y280859D01*
X765981Y280838D01*
X766210Y280817D01*
X766397D01*
X766522D01*
X766543D01*
X766564D01*
X766918D01*
X767251Y280838D01*
X767564Y280859D01*
X767834Y280901D01*
X768043Y280922D01*
X768209Y280963D01*
X768314Y280984D01*
X768355D01*
X768647Y281047D01*
X768897Y281109D01*
X769147Y281192D01*
X769334Y281276D01*
X769501Y281338D01*
X769626Y281401D01*
X769709Y281421D01*
X769730Y281442D01*
X769938Y281567D01*
X770105Y281671D01*
X770250Y281817D01*
X770376Y281921D01*
X770480Y282025D01*
X770542Y282109D01*
X770584Y282171D01*
X770605Y282192D01*
X770709Y282359D01*
X770792Y282546D01*
X770834Y282734D01*
X770875Y282900D01*
X770896Y283046D01*
X770917Y283150D01*
Y283254D01*
X770896Y283463D01*
X770875Y283671D01*
X770813Y283858D01*
X770750Y284004D01*
X770709Y284129D01*
X770646Y284233D01*
X770625Y284296D01*
X770605Y284317D01*
X770480Y284483D01*
X770334Y284608D01*
X770042Y284858D01*
X769917Y284941D01*
X769813Y285004D01*
X769751Y285046D01*
X769730Y285066D01*
X769272Y285254D01*
X769043Y285337D01*
X768813Y285400D01*
X768626Y285462D01*
X768480Y285483D01*
X768397Y285525D01*
X768355D01*
X767730Y285608D01*
X767439Y285629D01*
X767147Y285650D01*
X766918Y285670D01*
D02*
G37*
G36*
X185325Y352911D02*
X185275D01*
Y351543D01*
X185354Y351513D01*
X185444Y351493D01*
X185484Y351483D01*
X185524D01*
X185544Y351474D01*
X185554D01*
X185684Y351464D01*
X185804Y351454D01*
X185914D01*
X186073Y351464D01*
X186213Y351483D01*
X186333Y351503D01*
X186433Y351543D01*
X186513Y351573D01*
X186562Y351593D01*
X186602Y351613D01*
X186612Y351623D01*
X186692Y351693D01*
X186742Y351773D01*
X186782Y351863D01*
X186812Y351943D01*
X186832Y352012D01*
X186842Y352072D01*
Y352112D01*
Y352122D01*
X186832Y352212D01*
X186822Y352292D01*
X186802Y352362D01*
X186772Y352412D01*
X186752Y352462D01*
X186732Y352492D01*
X186722Y352512D01*
X186712Y352522D01*
X186602Y352621D01*
X186493Y352691D01*
X186443Y352721D01*
X186403Y352741D01*
X186383Y352751D01*
X186373D01*
X186203Y352811D01*
X186053Y352841D01*
X185983Y352851D01*
X185933Y352861D01*
X185884D01*
X185664Y352881D01*
X185564Y352891D01*
X185474Y352901D01*
X185394D01*
X185325Y352911D01*
D02*
G37*
G36*
X190605Y354518D02*
X190535D01*
X190385Y354508D01*
X190266Y354478D01*
X190156Y354438D01*
X190066Y354388D01*
X189986Y354338D01*
X189936Y354299D01*
X189906Y354268D01*
X189896Y354258D01*
X189817Y354159D01*
X189767Y354039D01*
X189727Y353909D01*
X189697Y353789D01*
X189677Y353670D01*
X189667Y353580D01*
Y353520D01*
Y353510D01*
Y353500D01*
X191563Y353240D01*
X191544Y353460D01*
X191504Y353650D01*
X191464Y353819D01*
X191404Y353949D01*
X191354Y354059D01*
X191304Y354129D01*
X191274Y354179D01*
X191264Y354189D01*
X191154Y354299D01*
X191034Y354378D01*
X190915Y354438D01*
X190795Y354478D01*
X190695Y354498D01*
X190605Y354518D01*
D02*
G37*
G36*
X157624Y354448D02*
X157604D01*
X157444Y354428D01*
X157315Y354388D01*
X157195Y354328D01*
X157105Y354258D01*
X157025Y354179D01*
X156975Y354119D01*
X156945Y354079D01*
X156935Y354059D01*
X156855Y353909D01*
X156805Y353730D01*
X156765Y353560D01*
X156736Y353390D01*
X156716Y353240D01*
Y353171D01*
X156706Y353111D01*
Y353071D01*
Y353031D01*
Y353011D01*
Y353001D01*
X156716Y352761D01*
X156746Y352552D01*
X156776Y352372D01*
X156815Y352222D01*
X156865Y352102D01*
X156895Y352012D01*
X156925Y351963D01*
X156935Y351943D01*
X157025Y351813D01*
X157135Y351723D01*
X157245Y351653D01*
X157354Y351613D01*
X157454Y351583D01*
X157534Y351573D01*
X157584Y351563D01*
X157604D01*
X157764Y351583D01*
X157903Y351623D01*
X158013Y351683D01*
X158113Y351753D01*
X158183Y351823D01*
X158243Y351883D01*
X158273Y351923D01*
X158283Y351943D01*
X158363Y352102D01*
X158413Y352272D01*
X158453Y352452D01*
X158482Y352621D01*
X158502Y352771D01*
Y352831D01*
X158512Y352891D01*
Y352941D01*
Y352971D01*
Y352991D01*
Y353001D01*
X158502Y353240D01*
X158472Y353450D01*
X158442Y353630D01*
X158393Y353789D01*
X158353Y353899D01*
X158323Y353989D01*
X158293Y354039D01*
X158283Y354059D01*
X158183Y354189D01*
X158083Y354288D01*
X157963Y354358D01*
X157854Y354398D01*
X157754Y354428D01*
X157674Y354438D01*
X157624Y354448D01*
D02*
G37*
G36*
X194194Y346562D02*
X194094D01*
X193924Y346542D01*
X193764Y346502D01*
X193635Y346442D01*
X193535Y346383D01*
X193445Y346313D01*
X193385Y346253D01*
X193345Y346213D01*
X193335Y346193D01*
X193246Y346043D01*
X193176Y345873D01*
X193126Y345704D01*
X193086Y345534D01*
X193066Y345384D01*
Y345325D01*
X193056Y345265D01*
Y345215D01*
Y345185D01*
Y345165D01*
Y345155D01*
X193066Y344895D01*
X193106Y344666D01*
X193146Y344476D01*
X193206Y344316D01*
X193255Y344197D01*
X193305Y344107D01*
X193345Y344057D01*
X193355Y344037D01*
X193475Y343917D01*
X193605Y343827D01*
X193735Y343757D01*
X193854Y343717D01*
X193974Y343687D01*
X194064Y343677D01*
X194124Y343667D01*
X194254D01*
X194354Y343677D01*
X194393D01*
X194423Y343687D01*
X194443D01*
X194533Y343707D01*
X194613Y343737D01*
X194653Y343747D01*
X194673Y343757D01*
Y346452D01*
X194583Y346482D01*
X194503Y346512D01*
X194433Y346522D01*
X194423Y346532D01*
X194413D01*
X194294Y346552D01*
X194194Y346562D01*
D02*
G37*
G36*
X156231Y346652D02*
X156162D01*
X156012Y346642D01*
X155892Y346612D01*
X155782Y346572D01*
X155692Y346522D01*
X155613Y346472D01*
X155563Y346432D01*
X155533Y346403D01*
X155523Y346393D01*
X155443Y346293D01*
X155393Y346173D01*
X155353Y346043D01*
X155323Y345923D01*
X155303Y345804D01*
X155293Y345714D01*
Y345654D01*
Y345644D01*
Y345634D01*
X157190Y345374D01*
X157170Y345594D01*
X157130Y345784D01*
X157090Y345953D01*
X157030Y346083D01*
X156980Y346193D01*
X156930Y346263D01*
X156900Y346313D01*
X156890Y346323D01*
X156781Y346432D01*
X156661Y346512D01*
X156541Y346572D01*
X156421Y346612D01*
X156321Y346632D01*
X156231Y346652D01*
D02*
G37*
G36*
X160803Y346562D02*
X160644D01*
X160544Y346552D01*
X160514Y346542D01*
X160484D01*
X160464Y346532D01*
X160454D01*
X160354Y346512D01*
X160274Y346492D01*
X160234Y346482D01*
X160224Y346472D01*
Y343757D01*
X160294Y343727D01*
X160364Y343707D01*
X160424Y343697D01*
X160444Y343687D01*
X160454D01*
X160564Y343677D01*
X160664Y343667D01*
X160753D01*
X160933Y343687D01*
X161103Y343727D01*
X161232Y343787D01*
X161352Y343857D01*
X161442Y343927D01*
X161512Y343987D01*
X161552Y344027D01*
X161562Y344047D01*
X161652Y344206D01*
X161722Y344376D01*
X161772Y344556D01*
X161801Y344725D01*
X161821Y344875D01*
X161831Y344945D01*
X161842Y345005D01*
Y345045D01*
Y345085D01*
Y345105D01*
Y345115D01*
X161831Y345344D01*
X161801Y345544D01*
X161752Y345724D01*
X161702Y345873D01*
X161652Y345993D01*
X161602Y346083D01*
X161572Y346133D01*
X161562Y346153D01*
X161442Y346293D01*
X161312Y346393D01*
X161183Y346462D01*
X161053Y346512D01*
X160933Y346542D01*
X160843Y346552D01*
X160803Y346562D01*
D02*
G37*
G36*
X172438Y337179D02*
X172388D01*
Y335811D01*
X172467Y335782D01*
X172557Y335761D01*
X172597Y335751D01*
X172637D01*
X172657Y335742D01*
X172667D01*
X172797Y335732D01*
X172917Y335722D01*
X173027D01*
X173186Y335732D01*
X173326Y335751D01*
X173446Y335771D01*
X173546Y335811D01*
X173625Y335841D01*
X173675Y335861D01*
X173715Y335881D01*
X173725Y335891D01*
X173805Y335961D01*
X173855Y336041D01*
X173895Y336131D01*
X173925Y336211D01*
X173945Y336281D01*
X173955Y336340D01*
Y336380D01*
Y336390D01*
X173945Y336480D01*
X173935Y336560D01*
X173915Y336630D01*
X173885Y336680D01*
X173865Y336730D01*
X173845Y336760D01*
X173835Y336780D01*
X173825Y336790D01*
X173715Y336889D01*
X173605Y336959D01*
X173556Y336989D01*
X173516Y337009D01*
X173496Y337019D01*
X173486D01*
X173316Y337079D01*
X173166Y337109D01*
X173096Y337119D01*
X173046Y337129D01*
X172997D01*
X172777Y337149D01*
X172677Y337159D01*
X172587Y337169D01*
X172507D01*
X172438Y337179D01*
D02*
G37*
G36*
X160060D02*
X160010D01*
Y335811D01*
X160090Y335782D01*
X160179Y335761D01*
X160219Y335751D01*
X160259D01*
X160279Y335742D01*
X160289D01*
X160419Y335732D01*
X160539Y335722D01*
X160649D01*
X160808Y335732D01*
X160948Y335751D01*
X161068Y335771D01*
X161168Y335811D01*
X161248Y335841D01*
X161297Y335861D01*
X161337Y335881D01*
X161347Y335891D01*
X161427Y335961D01*
X161477Y336041D01*
X161517Y336131D01*
X161547Y336211D01*
X161567Y336281D01*
X161577Y336340D01*
Y336380D01*
Y336390D01*
X161567Y336480D01*
X161557Y336560D01*
X161537Y336630D01*
X161507Y336680D01*
X161487Y336730D01*
X161467Y336760D01*
X161457Y336780D01*
X161447Y336790D01*
X161337Y336889D01*
X161227Y336959D01*
X161178Y336989D01*
X161138Y337009D01*
X161118Y337019D01*
X161108D01*
X160938Y337079D01*
X160788Y337109D01*
X160718Y337119D01*
X160669Y337129D01*
X160619D01*
X160399Y337149D01*
X160299Y337159D01*
X160209Y337169D01*
X160130D01*
X160060Y337179D01*
D02*
G37*
G36*
X165340Y338786D02*
X165270D01*
X165121Y338776D01*
X165001Y338746D01*
X164891Y338706D01*
X164801Y338656D01*
X164721Y338606D01*
X164671Y338567D01*
X164641Y338537D01*
X164632Y338527D01*
X164552Y338427D01*
X164502Y338307D01*
X164462Y338177D01*
X164432Y338057D01*
X164412Y337938D01*
X164402Y337848D01*
Y337788D01*
Y337778D01*
Y337768D01*
X166299Y337508D01*
X166278Y337728D01*
X166239Y337918D01*
X166199Y338087D01*
X166139Y338217D01*
X166089Y338327D01*
X166039Y338397D01*
X166009Y338447D01*
X165999Y338457D01*
X165889Y338567D01*
X165769Y338646D01*
X165650Y338706D01*
X165530Y338746D01*
X165430Y338766D01*
X165340Y338786D01*
D02*
G37*
G36*
X43658Y164284D02*
X39485D01*
X39409Y164059D01*
X39360Y163809D01*
X39334Y163709D01*
X39309Y163609D01*
Y163534D01*
X39260Y163159D01*
X39234Y162834D01*
Y162534D01*
X39260Y162009D01*
X39334Y161584D01*
X39409Y161210D01*
X39509Y160910D01*
X39634Y160685D01*
X39709Y160510D01*
X39784Y160410D01*
X39809Y160385D01*
X40034Y160160D01*
X40309Y159985D01*
X40559Y159860D01*
X40834Y159760D01*
X41059Y159710D01*
X41234Y159685D01*
X41359D01*
X41409D01*
X41809Y159710D01*
X41984Y159735D01*
X42134Y159785D01*
X42259Y159810D01*
X42359Y159860D01*
X42409Y159885D01*
X42434D01*
X42734Y160060D01*
X42959Y160210D01*
X43109Y160360D01*
X43134Y160385D01*
X43158Y160410D01*
X43334Y160685D01*
X43433Y160935D01*
X43483Y161060D01*
X43508Y161135D01*
X43533Y161185D01*
Y161210D01*
X43583Y161385D01*
X43608Y161584D01*
X43633Y161984D01*
X43658Y162159D01*
Y164284D01*
D02*
G37*
G36*
X50157D02*
X45733D01*
Y162109D01*
X45758Y161859D01*
X45783Y161659D01*
Y161485D01*
X45808Y161334D01*
X45833Y161234D01*
X45858Y161185D01*
Y161159D01*
X45958Y160835D01*
X46083Y160585D01*
X46158Y160485D01*
X46183Y160410D01*
X46233Y160360D01*
Y160335D01*
X46483Y160010D01*
X46758Y159785D01*
X47057Y159610D01*
X47382Y159510D01*
X47657Y159435D01*
X47882Y159410D01*
X48032Y159385D01*
X48057D01*
X48082D01*
X48482Y159410D01*
X48857Y159510D01*
X49157Y159685D01*
X49432Y159860D01*
X49657Y160110D01*
X49832Y160385D01*
X49982Y160660D01*
X50107Y160935D01*
X50207Y161234D01*
X50282Y161509D01*
X50332Y161784D01*
X50382Y162009D01*
Y162209D01*
X50407Y162384D01*
Y162509D01*
X50382Y162859D01*
X50357Y163184D01*
Y163309D01*
X50332Y163409D01*
Y163484D01*
X50282Y163809D01*
X50207Y164059D01*
X50182Y164159D01*
Y164234D01*
X50157Y164259D01*
Y164284D01*
D02*
G37*
%LPD*%
D53*
X239500Y318418D02*
X239500Y395500D01*
X131500D02*
X239500D01*
X239500Y318418D02*
X239500Y395500D01*
X215130Y294048D02*
X239500Y318418D01*
X110500Y374500D02*
X131500Y395500D01*
X110500Y374500D02*
X131500Y395500D01*
X110500Y294048D02*
X215130Y294048D01*
X110500Y294048D02*
X110500Y374500D01*
M02*
