M48
;Layer_Color=9474304
;FILE_FORMAT=2:5
INCH
;TYPE=PLATED
T01F00S00C0.01181
T02F00S00C0.02362
T04F00S00C0.03937
T05F00S00C0.05118
T06F00S00C0.05500
T07F00S00C0.05512
%
T01
X0271850Y0095669
X0274803
X0273819Y0099606
X0276772
X0278597Y0109667
X0285697Y0110867
X0285720Y0118989
X0282737Y0118888
X0278697Y0118167
X0272835Y0128150
Y0131102
Y0134055
Y0137008
X0233697Y0076867
X0235797Y0048579
X0202497Y0045767
X0209842Y0059252
X0173497Y0064523
X0173197Y0086660
X0176897Y0092360
X0164897Y0091060
X0164869Y0101160
X0161997Y0082160
X0151597Y0080560
X0152872Y0077260
X0153740Y0087795
X0139497Y0083560
X0127165Y0087795
X0135197Y0101260
X0139297Y0059260
X0136797Y0055860
X0121200Y0047452
X0098497Y0078367
X0093975Y0074867
X0091094Y0074914
X0093957Y0122686
X0098897Y0132243
X0103853Y0136406
Y0139358
Y0142311
Y0145264
Y0148216
X0089532Y0157028
X0159646Y0141929
Y0138976
X0162598
Y0141929
X0165551
Y0138976
X0181397Y0082060
X0068110Y0099606
Y0102559
Y0105512
X0064173
Y0102559
Y0099606
X0057097Y0113742
X0081890Y0141929
Y0144882
Y0147835
Y0150787
X0084842
Y0147835
Y0144882
Y0141929
X0087795
Y0144882
Y0147835
Y0150787
X0072632Y0159028
X0041535Y0157677
X0038583
Y0154724
X0041535
X0037297Y0064823
Y0062067
X0058397Y0055967
Y0053211
X0041535Y0160630
X0038583
X0200000Y0184252
X0233997Y0174967
X0239797Y0179967
X0262992Y0168504
Y0164567
T02
X0198497Y0161867
T04
X0311221Y0081890
X0294291Y0153740
X0235433Y0135039
Y0095669
T05
X0245276Y0115354
X0195276Y0095669
Y0135039
T06
X0094906Y0054331
X0015945Y0116654
Y0156024
T07
X0114906Y0054331
X0015945Y0096653
Y0136024
M30
