G04*
G04 #@! TF.GenerationSoftware,Altium Limited,Altium Designer,23.11.1 (41)*
G04*
G04 Layer_Physical_Order=1*
G04 Layer_Color=255*
%FSLAX44Y44*%
%MOMM*%
G71*
G04*
G04 #@! TF.SameCoordinates,884342A8-4ED4-4568-BB5E-73BA217C2521*
G04*
G04*
G04 #@! TF.FilePolarity,Positive*
G04*
G01*
G75*
G04:AMPARAMS|DCode=10|XSize=1.82mm|YSize=1.27mm|CornerRadius=0.3175mm|HoleSize=0mm|Usage=FLASHONLY|Rotation=90.000|XOffset=0mm|YOffset=0mm|HoleType=Round|Shape=RoundedRectangle|*
%AMROUNDEDRECTD10*
21,1,1.8200,0.6350,0,0,90.0*
21,1,1.1850,1.2700,0,0,90.0*
1,1,0.6350,0.3175,0.5925*
1,1,0.6350,0.3175,-0.5925*
1,1,0.6350,-0.3175,-0.5925*
1,1,0.6350,-0.3175,0.5925*
%
%ADD10ROUNDEDRECTD10*%
G04:AMPARAMS|DCode=11|XSize=1.5mm|YSize=3.5mm|CornerRadius=0.375mm|HoleSize=0mm|Usage=FLASHONLY|Rotation=270.000|XOffset=0mm|YOffset=0mm|HoleType=Round|Shape=RoundedRectangle|*
%AMROUNDEDRECTD11*
21,1,1.5000,2.7500,0,0,270.0*
21,1,0.7500,3.5000,0,0,270.0*
1,1,0.7500,-1.3750,-0.3750*
1,1,0.7500,-1.3750,0.3750*
1,1,0.7500,1.3750,0.3750*
1,1,0.7500,1.3750,-0.3750*
%
%ADD11ROUNDEDRECTD11*%
%ADD12R,3.5000X1.5000*%
%ADD13R,3.1000X2.2000*%
G04:AMPARAMS|DCode=14|XSize=1.5mm|YSize=1.52mm|CornerRadius=0.375mm|HoleSize=0mm|Usage=FLASHONLY|Rotation=270.000|XOffset=0mm|YOffset=0mm|HoleType=Round|Shape=RoundedRectangle|*
%AMROUNDEDRECTD14*
21,1,1.5000,0.7700,0,0,270.0*
21,1,0.7500,1.5200,0,0,270.0*
1,1,0.7500,-0.3850,-0.3750*
1,1,0.7500,-0.3850,0.3750*
1,1,0.7500,0.3850,0.3750*
1,1,0.7500,0.3850,-0.3750*
%
%ADD14ROUNDEDRECTD14*%
G04:AMPARAMS|DCode=15|XSize=1.8mm|YSize=1.3mm|CornerRadius=0.325mm|HoleSize=0mm|Usage=FLASHONLY|Rotation=180.000|XOffset=0mm|YOffset=0mm|HoleType=Round|Shape=RoundedRectangle|*
%AMROUNDEDRECTD15*
21,1,1.8000,0.6500,0,0,180.0*
21,1,1.1500,1.3000,0,0,180.0*
1,1,0.6500,-0.5750,0.3250*
1,1,0.6500,0.5750,0.3250*
1,1,0.6500,0.5750,-0.3250*
1,1,0.6500,-0.5750,-0.3250*
%
%ADD15ROUNDEDRECTD15*%
G04:AMPARAMS|DCode=16|XSize=1.8mm|YSize=1.3mm|CornerRadius=0.325mm|HoleSize=0mm|Usage=FLASHONLY|Rotation=225.000|XOffset=0mm|YOffset=0mm|HoleType=Round|Shape=RoundedRectangle|*
%AMROUNDEDRECTD16*
21,1,1.8000,0.6500,0,0,225.0*
21,1,1.1500,1.3000,0,0,225.0*
1,1,0.6500,-0.6364,-0.1768*
1,1,0.6500,0.1768,0.6364*
1,1,0.6500,0.6364,0.1768*
1,1,0.6500,-0.1768,-0.6364*
%
%ADD16ROUNDEDRECTD16*%
G04:AMPARAMS|DCode=17|XSize=2mm|YSize=3.75mm|CornerRadius=0.5mm|HoleSize=0mm|Usage=FLASHONLY|Rotation=0.000|XOffset=0mm|YOffset=0mm|HoleType=Round|Shape=RoundedRectangle|*
%AMROUNDEDRECTD17*
21,1,2.0000,2.7500,0,0,0.0*
21,1,1.0000,3.7500,0,0,0.0*
1,1,1.0000,0.5000,-1.3750*
1,1,1.0000,-0.5000,-1.3750*
1,1,1.0000,-0.5000,1.3750*
1,1,1.0000,0.5000,1.3750*
%
%ADD17ROUNDEDRECTD17*%
G04:AMPARAMS|DCode=18|XSize=1mm|YSize=0.9mm|CornerRadius=0.225mm|HoleSize=0mm|Usage=FLASHONLY|Rotation=270.000|XOffset=0mm|YOffset=0mm|HoleType=Round|Shape=RoundedRectangle|*
%AMROUNDEDRECTD18*
21,1,1.0000,0.4500,0,0,270.0*
21,1,0.5500,0.9000,0,0,270.0*
1,1,0.4500,-0.2250,-0.2750*
1,1,0.4500,-0.2250,0.2750*
1,1,0.4500,0.2250,0.2750*
1,1,0.4500,0.2250,-0.2750*
%
%ADD18ROUNDEDRECTD18*%
%ADD19R,1.4500X0.3000*%
%ADD20R,1.4500X0.6000*%
%ADD21R,4.0000X2.0000*%
G04:AMPARAMS|DCode=22|XSize=1.5mm|YSize=1.52mm|CornerRadius=0.375mm|HoleSize=0mm|Usage=FLASHONLY|Rotation=0.000|XOffset=0mm|YOffset=0mm|HoleType=Round|Shape=RoundedRectangle|*
%AMROUNDEDRECTD22*
21,1,1.5000,0.7700,0,0,0.0*
21,1,0.7500,1.5200,0,0,0.0*
1,1,0.7500,0.3750,-0.3850*
1,1,0.7500,-0.3750,-0.3850*
1,1,0.7500,-0.3750,0.3850*
1,1,0.7500,0.3750,0.3850*
%
%ADD22ROUNDEDRECTD22*%
%ADD23R,2.2000X3.1000*%
G04:AMPARAMS|DCode=24|XSize=1mm|YSize=0.9mm|CornerRadius=0.225mm|HoleSize=0mm|Usage=FLASHONLY|Rotation=315.000|XOffset=0mm|YOffset=0mm|HoleType=Round|Shape=RoundedRectangle|*
%AMROUNDEDRECTD24*
21,1,1.0000,0.4500,0,0,315.0*
21,1,0.5500,0.9000,0,0,315.0*
1,1,0.4500,0.0354,-0.3536*
1,1,0.4500,-0.3536,0.0354*
1,1,0.4500,-0.0354,0.3536*
1,1,0.4500,0.3536,-0.0354*
%
%ADD24ROUNDEDRECTD24*%
G04:AMPARAMS|DCode=25|XSize=1mm|YSize=0.9mm|CornerRadius=0.225mm|HoleSize=0mm|Usage=FLASHONLY|Rotation=0.000|XOffset=0mm|YOffset=0mm|HoleType=Round|Shape=RoundedRectangle|*
%AMROUNDEDRECTD25*
21,1,1.0000,0.4500,0,0,0.0*
21,1,0.5500,0.9000,0,0,0.0*
1,1,0.4500,0.2750,-0.2250*
1,1,0.4500,-0.2750,-0.2250*
1,1,0.4500,-0.2750,0.2250*
1,1,0.4500,0.2750,0.2250*
%
%ADD25ROUNDEDRECTD25*%
G04:AMPARAMS|DCode=26|XSize=1.8mm|YSize=1.3mm|CornerRadius=0.325mm|HoleSize=0mm|Usage=FLASHONLY|Rotation=90.000|XOffset=0mm|YOffset=0mm|HoleType=Round|Shape=RoundedRectangle|*
%AMROUNDEDRECTD26*
21,1,1.8000,0.6500,0,0,90.0*
21,1,1.1500,1.3000,0,0,90.0*
1,1,0.6500,0.3250,0.5750*
1,1,0.6500,0.3250,-0.5750*
1,1,0.6500,-0.3250,-0.5750*
1,1,0.6500,-0.3250,0.5750*
%
%ADD26ROUNDEDRECTD26*%
G04:AMPARAMS|DCode=27|XSize=1.5mm|YSize=3.5mm|CornerRadius=0.375mm|HoleSize=0mm|Usage=FLASHONLY|Rotation=0.000|XOffset=0mm|YOffset=0mm|HoleType=Round|Shape=RoundedRectangle|*
%AMROUNDEDRECTD27*
21,1,1.5000,2.7500,0,0,0.0*
21,1,0.7500,3.5000,0,0,0.0*
1,1,0.7500,0.3750,-1.3750*
1,1,0.7500,-0.3750,-1.3750*
1,1,0.7500,-0.3750,1.3750*
1,1,0.7500,0.3750,1.3750*
%
%ADD27ROUNDEDRECTD27*%
%ADD28R,1.5000X3.5000*%
%ADD29R,2.2000X1.2000*%
%ADD30R,5.8000X6.4000*%
%ADD31R,12.0000X5.5000*%
G04:AMPARAMS|DCode=32|XSize=3mm|YSize=4mm|CornerRadius=0mm|HoleSize=0mm|Usage=FLASHONLY|Rotation=0.000|XOffset=0mm|YOffset=0mm|HoleType=Round|Shape=Octagon|*
%AMOCTAGOND32*
4,1,8,-0.7500,2.0000,0.7500,2.0000,1.5000,1.2500,1.5000,-1.2500,0.7500,-2.0000,-0.7500,-2.0000,-1.5000,-1.2500,-1.5000,1.2500,-0.7500,2.0000,0.0*
%
%ADD32OCTAGOND32*%

%ADD33R,1.9000X0.6000*%
G04:AMPARAMS|DCode=34|XSize=0.6mm|YSize=1.9mm|CornerRadius=0.15mm|HoleSize=0mm|Usage=FLASHONLY|Rotation=90.000|XOffset=0mm|YOffset=0mm|HoleType=Round|Shape=RoundedRectangle|*
%AMROUNDEDRECTD34*
21,1,0.6000,1.6000,0,0,90.0*
21,1,0.3000,1.9000,0,0,90.0*
1,1,0.3000,0.8000,0.1500*
1,1,0.3000,0.8000,-0.1500*
1,1,0.3000,-0.8000,-0.1500*
1,1,0.3000,-0.8000,0.1500*
%
%ADD34ROUNDEDRECTD34*%
G04:AMPARAMS|DCode=35|XSize=3.45mm|YSize=2.25mm|CornerRadius=0.5625mm|HoleSize=0mm|Usage=FLASHONLY|Rotation=90.000|XOffset=0mm|YOffset=0mm|HoleType=Round|Shape=RoundedRectangle|*
%AMROUNDEDRECTD35*
21,1,3.4500,1.1250,0,0,90.0*
21,1,2.3250,2.2500,0,0,90.0*
1,1,1.1250,0.5625,1.1625*
1,1,1.1250,0.5625,-1.1625*
1,1,1.1250,-0.5625,-1.1625*
1,1,1.1250,-0.5625,1.1625*
%
%ADD35ROUNDEDRECTD35*%
G04:AMPARAMS|DCode=36|XSize=0.84mm|YSize=0.26mm|CornerRadius=0.065mm|HoleSize=0mm|Usage=FLASHONLY|Rotation=45.000|XOffset=0mm|YOffset=0mm|HoleType=Round|Shape=RoundedRectangle|*
%AMROUNDEDRECTD36*
21,1,0.8400,0.1300,0,0,45.0*
21,1,0.7100,0.2600,0,0,45.0*
1,1,0.1300,0.2970,0.2051*
1,1,0.1300,-0.2051,-0.2970*
1,1,0.1300,-0.2970,-0.2051*
1,1,0.1300,0.2051,0.2970*
%
%ADD36ROUNDEDRECTD36*%
G04:AMPARAMS|DCode=37|XSize=0.84mm|YSize=0.26mm|CornerRadius=0mm|HoleSize=0mm|Usage=FLASHONLY|Rotation=315.000|XOffset=0mm|YOffset=0mm|HoleType=Round|Shape=Rectangle|*
%AMROTATEDRECTD37*
4,1,4,-0.3889,0.2051,-0.2051,0.3889,0.3889,-0.2051,0.2051,-0.3889,-0.3889,0.2051,0.0*
%
%ADD37ROTATEDRECTD37*%

G04:AMPARAMS|DCode=38|XSize=0.84mm|YSize=0.26mm|CornerRadius=0.065mm|HoleSize=0mm|Usage=FLASHONLY|Rotation=315.000|XOffset=0mm|YOffset=0mm|HoleType=Round|Shape=RoundedRectangle|*
%AMROUNDEDRECTD38*
21,1,0.8400,0.1300,0,0,315.0*
21,1,0.7100,0.2600,0,0,315.0*
1,1,0.1300,0.2051,-0.2970*
1,1,0.1300,-0.2970,0.2051*
1,1,0.1300,-0.2051,0.2970*
1,1,0.1300,0.2970,-0.2051*
%
%ADD38ROUNDEDRECTD38*%
%ADD39P,3.5355X4X360.0*%
G04:AMPARAMS|DCode=40|XSize=1mm|YSize=0.9mm|CornerRadius=0.225mm|HoleSize=0mm|Usage=FLASHONLY|Rotation=225.000|XOffset=0mm|YOffset=0mm|HoleType=Round|Shape=RoundedRectangle|*
%AMROUNDEDRECTD40*
21,1,1.0000,0.4500,0,0,225.0*
21,1,0.5500,0.9000,0,0,225.0*
1,1,0.4500,-0.3536,-0.0354*
1,1,0.4500,0.0354,0.3536*
1,1,0.4500,0.3536,0.0354*
1,1,0.4500,-0.0354,-0.3536*
%
%ADD40ROUNDEDRECTD40*%
%ADD41R,1.0000X0.6000*%
G04:AMPARAMS|DCode=42|XSize=0.6mm|YSize=1mm|CornerRadius=0.15mm|HoleSize=0mm|Usage=FLASHONLY|Rotation=270.000|XOffset=0mm|YOffset=0mm|HoleType=Round|Shape=RoundedRectangle|*
%AMROUNDEDRECTD42*
21,1,0.6000,0.7000,0,0,270.0*
21,1,0.3000,1.0000,0,0,270.0*
1,1,0.3000,-0.3500,-0.1500*
1,1,0.3000,-0.3500,0.1500*
1,1,0.3000,0.3500,0.1500*
1,1,0.3000,0.3500,-0.1500*
%
%ADD42ROUNDEDRECTD42*%
%ADD43C,1.5000*%
%ADD44R,1.3000X0.7000*%
G04:AMPARAMS|DCode=45|XSize=0.7mm|YSize=1.3mm|CornerRadius=0.175mm|HoleSize=0mm|Usage=FLASHONLY|Rotation=270.000|XOffset=0mm|YOffset=0mm|HoleType=Round|Shape=RoundedRectangle|*
%AMROUNDEDRECTD45*
21,1,0.7000,0.9500,0,0,270.0*
21,1,0.3500,1.3000,0,0,270.0*
1,1,0.3500,-0.4750,-0.1750*
1,1,0.3500,-0.4750,0.1750*
1,1,0.3500,0.4750,0.1750*
1,1,0.3500,0.4750,-0.1750*
%
%ADD45ROUNDEDRECTD45*%
%ADD46C,0.2540*%
%ADD47C,0.5080*%
%ADD48C,0.3810*%
%ADD49C,0.6350*%
%ADD50C,0.3048*%
%ADD51C,0.5588*%
%ADD52C,1.2700*%
%ADD53C,0.2032*%
%ADD54R,1.7500X2.0000*%
%ADD55R,2.4710X5.1570*%
%ADD56R,2.0000X2.5000*%
%ADD57R,3.5000X2.5000*%
%ADD58R,4.6400X2.5654*%
%ADD59O,1.6000X1.0000*%
%ADD60C,0.6750*%
%ADD61O,2.1000X1.0000*%
%ADD62C,1.7000*%
%ADD63R,1.7000X1.7000*%
%ADD64R,1.7000X1.7000*%
%ADD65O,1.9000X1.5000*%
%ADD66R,1.9000X1.5000*%
%ADD67O,1.5000X1.9000*%
%ADD68P,2.9814X4X90.0*%
%ADD69R,2.1082X2.1082*%
%ADD70C,0.5000*%
%ADD71C,1.2000*%
G36*
X700500Y427504D02*
X699230Y427379D01*
X699204Y427509D01*
X697924Y429424D01*
X696009Y430704D01*
X693750Y431153D01*
X691175D01*
Y422000D01*
Y412847D01*
X693750D01*
X696009Y413296D01*
X697488Y414284D01*
X698298Y413298D01*
X693000Y408000D01*
X661849D01*
X661016Y408866D01*
X660998Y408957D01*
Y412441D01*
X660668Y414099D01*
X659729Y415505D01*
X658323Y416444D01*
X656665Y416774D01*
X651165D01*
X649507Y416444D01*
X648287Y415629D01*
X640327Y423589D01*
X640705Y424859D01*
X640705D01*
Y435859D01*
X640705Y435859D01*
X640705D01*
X640897Y436239D01*
X640996Y436435D01*
X641046Y436684D01*
X632205D01*
Y443034D01*
X641046D01*
X640996Y443283D01*
X640048Y444702D01*
X639685Y444944D01*
X640488Y446146D01*
X640779Y447609D01*
Y451109D01*
X640488Y452572D01*
X639659Y453812D01*
X638418Y454641D01*
X636955Y454932D01*
X627455D01*
X625992Y454641D01*
X625777Y454497D01*
X624507Y455176D01*
Y462460D01*
X625777Y462845D01*
X626113Y462343D01*
X627697Y461284D01*
X628641Y461096D01*
Y468546D01*
X631816D01*
Y471721D01*
X638865D01*
X638818Y471961D01*
X639860Y473231D01*
X700500D01*
Y427504D01*
D02*
G37*
G36*
X583500Y446896D02*
X596500Y433896D01*
X612500Y433896D01*
Y426896D01*
X610500Y424896D01*
X590500Y424896D01*
X583500Y431896D01*
X543500Y431896D01*
X538500Y426896D01*
X524500D01*
Y457896D01*
X583500D01*
Y446896D01*
D02*
G37*
G36*
X308788Y398970D02*
X298788Y388970D01*
X241288D01*
X238788Y391470D01*
Y418970D01*
X233788Y423970D01*
Y443970D01*
X308788D01*
Y398970D01*
D02*
G37*
G36*
X585500Y421135D02*
Y409896D01*
X572500Y396896D01*
X568500Y392896D01*
Y373896D01*
X562500Y367896D01*
X518500D01*
Y384896D01*
X533500D01*
X541500Y392896D01*
Y424896D01*
X581740D01*
X585500Y421135D01*
D02*
G37*
G36*
X418500Y402500D02*
Y396500D01*
Y387500D01*
X393500Y362500D01*
X347500D01*
Y412500D01*
X408500D01*
X418500Y402500D01*
D02*
G37*
G36*
X270788Y376470D02*
Y342470D01*
X259788D01*
X259788Y369470D01*
X253788Y375470D01*
X238788D01*
Y380470D01*
X266788D01*
X270788Y376470D01*
D02*
G37*
G36*
X220210Y394010D02*
X216963D01*
Y385500D01*
X222758D01*
X238788Y369470D01*
X252788D01*
X254788Y367470D01*
X254788Y357800D01*
X216963D01*
Y348930D01*
X220210D01*
Y341821D01*
X219228Y341015D01*
X219038Y341053D01*
X214538D01*
X212880Y340723D01*
X211474Y339784D01*
X210535Y338378D01*
X210205Y336720D01*
Y331220D01*
X210535Y329562D01*
X211474Y328156D01*
X212879Y327217D01*
X212880Y327214D01*
X212878Y325922D01*
X211880Y325723D01*
X210474Y324784D01*
X209535Y323378D01*
X209435Y322880D01*
X208141D01*
X208041Y323378D01*
X207102Y324784D01*
X205696Y325723D01*
X204698Y325922D01*
X204696Y327214D01*
X204697Y327217D01*
X206102Y328156D01*
X207041Y329562D01*
X207371Y331220D01*
Y336720D01*
X207041Y338378D01*
X206102Y339784D01*
X204696Y340723D01*
X203038Y341053D01*
X198538D01*
X196880Y340723D01*
X195474Y339784D01*
X194535Y338378D01*
X194436Y337880D01*
X193141D01*
X193041Y338378D01*
X192102Y339784D01*
X190696Y340723D01*
X189863Y340889D01*
Y342920D01*
X189629Y344097D01*
X188962Y345094D01*
X188962Y345094D01*
X187824Y346232D01*
X187898Y346409D01*
X188466Y347387D01*
X189654Y347623D01*
X190811Y348397D01*
X191585Y349554D01*
X191857Y350920D01*
Y353920D01*
X191585Y355286D01*
X190811Y356443D01*
X189654Y357217D01*
X188288Y357489D01*
X172288D01*
X170922Y357217D01*
X169765Y356443D01*
X168991Y355286D01*
X168720Y353920D01*
Y350920D01*
X168991Y349554D01*
X169765Y348397D01*
X170922Y347623D01*
X172288Y347351D01*
X178043D01*
X178114Y347246D01*
X183264Y342095D01*
X182880Y340723D01*
X181474Y339784D01*
X180535Y338378D01*
X180205Y336720D01*
Y331220D01*
X180535Y329562D01*
X181474Y328156D01*
X182880Y327217D01*
X183378Y327117D01*
Y325823D01*
X182880Y325723D01*
X181474Y324784D01*
X180535Y323378D01*
X180205Y321720D01*
Y316220D01*
X180535Y314562D01*
X181474Y313156D01*
X182880Y312217D01*
X183064Y312180D01*
Y310885D01*
X181980Y310669D01*
X180574Y309730D01*
X179635Y308324D01*
X179572Y308009D01*
X178204D01*
X178141Y308324D01*
X177202Y309730D01*
X175796Y310669D01*
X175675Y310693D01*
X175407Y312042D01*
X176491Y312767D01*
X177550Y314351D01*
X177837Y315795D01*
X170788D01*
X163739D01*
X164026Y314351D01*
X165085Y312767D01*
X166546Y311790D01*
X166563Y311745D01*
X166644Y311131D01*
X166613Y310424D01*
X165574Y309730D01*
X164635Y308324D01*
X164572Y308009D01*
X163204D01*
X163141Y308324D01*
X162202Y309730D01*
X160796Y310669D01*
X159138Y310999D01*
X153638D01*
X151980Y310669D01*
X150574Y309730D01*
X149635Y308324D01*
X149305Y306666D01*
Y302166D01*
X149635Y300508D01*
X150574Y299102D01*
X151980Y298163D01*
X153638Y297833D01*
X159138D01*
X160796Y298163D01*
X162202Y299102D01*
X163141Y300508D01*
X163204Y300823D01*
X164572D01*
X164635Y300508D01*
X165574Y299102D01*
X166980Y298163D01*
X168638Y297833D01*
X174138D01*
X175796Y298163D01*
X177202Y299102D01*
X178141Y300508D01*
X178204Y300823D01*
X179572D01*
X179635Y300508D01*
X180574Y299102D01*
X181980Y298163D01*
X183638Y297833D01*
X189138D01*
X190796Y298163D01*
X192202Y299102D01*
X193072Y300404D01*
X193488Y300445D01*
X194391Y300282D01*
X194535Y299562D01*
X195474Y298156D01*
X196880Y297217D01*
X197378Y297117D01*
Y295823D01*
X196880Y295723D01*
X195474Y294784D01*
X194535Y293378D01*
X193205Y293202D01*
X192591Y294119D01*
X191007Y295178D01*
X189563Y295465D01*
Y288416D01*
X183213D01*
Y295465D01*
X181769Y295178D01*
X180185Y294119D01*
X179652Y293322D01*
X178124D01*
X177591Y294119D01*
X176007Y295178D01*
X174563Y295465D01*
Y288416D01*
Y281367D01*
X176007Y281654D01*
X177591Y282713D01*
X178124Y283510D01*
X179652D01*
X180185Y282713D01*
X181769Y281654D01*
X183638Y281282D01*
X186188D01*
X186866Y280012D01*
X186650Y279688D01*
X186396Y278412D01*
Y265074D01*
X186650Y263798D01*
X187372Y262717D01*
X199946Y250144D01*
X201027Y249421D01*
X202303Y249167D01*
X216797D01*
X220210Y245754D01*
Y241727D01*
X214395D01*
Y231564D01*
X211220D01*
Y228389D01*
X191057D01*
Y227814D01*
X191545Y225360D01*
X192139Y224470D01*
X191461Y223200D01*
X184564D01*
X184204Y225009D01*
X182924Y226924D01*
X181009Y228204D01*
X178750Y228653D01*
X176175D01*
Y219500D01*
X169825D01*
Y228653D01*
X167250D01*
X164991Y228204D01*
X163076Y226924D01*
X161796Y225009D01*
X161436Y223200D01*
X154674D01*
X153936Y224470D01*
X154754Y227167D01*
X155082Y230500D01*
X154754Y233833D01*
X153782Y237037D01*
X152203Y239990D01*
X150079Y242579D01*
X147490Y244703D01*
X144537Y246282D01*
X141333Y247254D01*
X138000Y247582D01*
X134667Y247254D01*
X131463Y246282D01*
X128510Y244703D01*
X125921Y242579D01*
X123797Y239990D01*
X122218Y237037D01*
X121246Y233833D01*
X120918Y230500D01*
X121246Y227167D01*
X122064Y224470D01*
X121326Y223200D01*
X2539D01*
Y467800D01*
Y468850D01*
X2949Y470910D01*
X3752Y472850D01*
X4919Y474596D01*
X6404Y476081D01*
X8150Y477248D01*
X10090Y478051D01*
X12150Y478461D01*
X220210D01*
Y394010D01*
D02*
G37*
G36*
X510500Y391500D02*
Y343500D01*
X506500Y339500D01*
X485500Y339500D01*
X475500Y349500D01*
Y379500D01*
X469500Y385500D01*
X442500D01*
X439500Y388500D01*
Y405500D01*
X446500Y412500D01*
X489500D01*
X510500Y391500D01*
D02*
G37*
G36*
X430500Y378000D02*
X430500Y340500D01*
X420500Y330500D01*
X405500D01*
X400500Y335500D01*
Y363000D01*
X415500Y378000D01*
X430500Y378000D01*
D02*
G37*
G36*
X720500Y330500D02*
Y328000D01*
X715500Y323000D01*
X705500D01*
X698000Y315500D01*
X678000D01*
Y350500D01*
X700500D01*
X720500Y330500D01*
D02*
G37*
G36*
X730260Y311335D02*
X715747D01*
X714471Y311081D01*
X713389Y310358D01*
X707675Y304644D01*
X706995D01*
X705341Y303959D01*
X704075Y302693D01*
X703390Y301039D01*
Y299249D01*
X704075Y297595D01*
X705341Y296329D01*
X706995Y295644D01*
X708785D01*
X710439Y296329D01*
X711705Y297595D01*
X712390Y299249D01*
X712973Y299597D01*
X714338Y299428D01*
X715478Y298288D01*
Y293941D01*
X715732Y292665D01*
X716454Y291583D01*
X721973Y286065D01*
X722260Y285052D01*
X722305Y284601D01*
X721855Y284151D01*
X721170Y282497D01*
Y280707D01*
X721417Y280110D01*
X720569Y278840D01*
X712731D01*
X712136Y279435D01*
Y279449D01*
X711451Y281103D01*
X710185Y282369D01*
X708531Y283054D01*
X706741D01*
X705087Y282369D01*
X703821Y281103D01*
X703136Y279449D01*
Y277659D01*
X703821Y276005D01*
X705087Y274739D01*
X706741Y274054D01*
X708087D01*
X708992Y273148D01*
X710074Y272426D01*
X711350Y272172D01*
X729181D01*
X729258Y272187D01*
X730260Y271092D01*
Y262889D01*
X706895D01*
X705138Y262539D01*
X698500D01*
X698500Y262539D01*
X697720Y262384D01*
X697058Y261942D01*
X685058Y249942D01*
X684616Y249280D01*
X684461Y248500D01*
Y240500D01*
X684616Y239720D01*
X685058Y239058D01*
X687058Y237058D01*
X687720Y236616D01*
X688500Y236461D01*
X689539D01*
X718000Y208000D01*
X718000Y200583D01*
X716861Y200021D01*
X716693Y200150D01*
X714858Y200910D01*
X712890Y201169D01*
X711065D01*
Y179814D01*
X707890D01*
Y176639D01*
X695285D01*
Y175500D01*
X675500D01*
X650500Y200500D01*
Y308000D01*
X660500Y318000D01*
X671236D01*
X671334Y317507D01*
X672605Y315604D01*
X674507Y314334D01*
X676750Y313887D01*
X676814D01*
X677220Y313616D01*
X678000Y313461D01*
X698000D01*
X698780Y313616D01*
X699442Y314058D01*
X699442Y314058D01*
X703384Y318000D01*
X730260D01*
Y311335D01*
D02*
G37*
G36*
X353000Y286866D02*
X344134Y278000D01*
X310675Y278000D01*
Y250660D01*
X314001D01*
X314487Y249487D01*
X308000Y243000D01*
Y234010D01*
X299204Y225214D01*
X282260D01*
Y228389D01*
X262220D01*
Y231564D01*
X259045D01*
Y241604D01*
X245500D01*
Y243848D01*
X263370Y261718D01*
X264093Y262800D01*
X264346Y264076D01*
Y287996D01*
X271850Y295500D01*
X275960D01*
Y288375D01*
X280500D01*
Y333000D01*
X353000D01*
Y286866D01*
D02*
G37*
G36*
X737500Y255500D02*
X736500Y254500D01*
X733500D01*
X717500Y238500D01*
X688500D01*
X686500Y240500D01*
Y248500D01*
X698500Y260500D01*
X737500D01*
Y255500D01*
D02*
G37*
G36*
X468000Y342422D02*
X570500Y239922D01*
Y208000D01*
X514030Y208000D01*
X450500Y271530D01*
Y273000D01*
X436000D01*
X433000Y276000D01*
Y305500D01*
X435500Y308000D01*
Y345500D01*
X458000Y368000D01*
X468000D01*
Y342422D01*
D02*
G37*
G36*
X643000Y310500D02*
Y203000D01*
X630500Y190500D01*
X610500D01*
X588000Y213000D01*
Y215500D01*
X600500Y228000D01*
X603000D01*
X610500Y235500D01*
Y255500D01*
X593000Y273000D01*
Y315500D01*
X605500Y328000D01*
X625500D01*
X643000Y310500D01*
D02*
G37*
%LPC*%
G36*
X638865Y465371D02*
X634991D01*
Y461096D01*
X635935Y461284D01*
X637519Y462343D01*
X638578Y463927D01*
X638865Y465371D01*
D02*
G37*
G36*
X671175Y431953D02*
Y431175D01*
X671953D01*
X671175Y431953D01*
D02*
G37*
G36*
X664825D02*
X664047Y431175D01*
X664825D01*
Y431953D01*
D02*
G37*
G36*
X657090Y433240D02*
Y429366D01*
X661365D01*
X661177Y430310D01*
X660118Y431894D01*
X658534Y432953D01*
X657090Y433240D01*
D02*
G37*
G36*
X650740D02*
X649296Y432953D01*
X647712Y431894D01*
X646653Y430310D01*
X646465Y429366D01*
X650740D01*
Y433240D01*
D02*
G37*
G36*
X684825Y431153D02*
X682250D01*
X679991Y430704D01*
X678076Y429424D01*
X676796Y427509D01*
X676347Y425250D01*
Y425175D01*
X684825D01*
Y431153D01*
D02*
G37*
G36*
X671953Y424825D02*
X664047D01*
X665145Y423727D01*
X665368Y423635D01*
Y422365D01*
X665145Y422273D01*
X664047Y421175D01*
X671953D01*
X670855Y422273D01*
X670632Y422365D01*
Y423635D01*
X670855Y423727D01*
X671953Y424825D01*
D02*
G37*
G36*
X661365Y423016D02*
X657090D01*
Y419141D01*
X658534Y419429D01*
X660118Y420487D01*
X661177Y422072D01*
X661365Y423016D01*
D02*
G37*
G36*
X650740D02*
X646465D01*
X646653Y422072D01*
X647712Y420487D01*
X649296Y419429D01*
X650740Y419141D01*
Y423016D01*
D02*
G37*
G36*
X671953Y414825D02*
X671175D01*
Y414047D01*
X671953Y414825D01*
D02*
G37*
G36*
X664825D02*
X664047D01*
X664825Y414047D01*
Y414825D01*
D02*
G37*
G36*
X684825Y418825D02*
X676347D01*
Y418750D01*
X676796Y416491D01*
X678076Y414576D01*
X679991Y413296D01*
X682250Y412847D01*
X684825D01*
Y418825D01*
D02*
G37*
G36*
X212296Y443953D02*
X211621D01*
Y436965D01*
X218709D01*
Y437540D01*
X218221Y439994D01*
X216831Y442075D01*
X214750Y443465D01*
X212296Y443953D01*
D02*
G37*
G36*
X205271D02*
X204596D01*
X202142Y443465D01*
X200061Y442075D01*
X198671Y439994D01*
X198183Y437540D01*
Y436965D01*
X205271D01*
Y443953D01*
D02*
G37*
G36*
X218709Y430615D02*
X211621D01*
Y423627D01*
X212296D01*
X214750Y424115D01*
X216831Y425505D01*
X218221Y427586D01*
X218709Y430040D01*
Y430615D01*
D02*
G37*
G36*
X205271D02*
X198183D01*
Y430040D01*
X198671Y427586D01*
X200061Y425505D01*
X202142Y424115D01*
X204596Y423627D01*
X205271D01*
Y430615D01*
D02*
G37*
G36*
X41882Y406800D02*
X39118D01*
X36447Y406084D01*
X34053Y404702D01*
X32098Y402747D01*
X30716Y400353D01*
X30000Y397682D01*
Y394918D01*
X30716Y392247D01*
X32098Y389853D01*
X34053Y387898D01*
X36447Y386516D01*
X39118Y385800D01*
X41882D01*
X44553Y386516D01*
X46947Y387898D01*
X48902Y389853D01*
X50284Y392247D01*
X51000Y394918D01*
Y397682D01*
X50284Y400353D01*
X48902Y402747D01*
X46947Y404702D01*
X44553Y406084D01*
X41882Y406800D01*
D02*
G37*
G36*
X185381Y408430D02*
X183591D01*
X181937Y407745D01*
X180671Y406479D01*
X179986Y404825D01*
Y403779D01*
X178114Y401906D01*
X177447Y400909D01*
X177213Y399732D01*
X177213Y399732D01*
Y395520D01*
X168788D01*
Y385520D01*
X191788D01*
Y395520D01*
X183363D01*
Y398458D01*
X184335Y399430D01*
X185381D01*
X187035Y400115D01*
X188301Y401381D01*
X188986Y403035D01*
Y404825D01*
X188301Y406479D01*
X187035Y407745D01*
X185381Y408430D01*
D02*
G37*
G36*
X210613Y394010D02*
X205018D01*
X196508Y385500D01*
X210613D01*
Y394010D01*
D02*
G37*
G36*
X130000Y418000D02*
X111000D01*
Y415039D01*
X93000D01*
X92220Y414884D01*
X91558Y414442D01*
X91116Y413780D01*
X90961Y413000D01*
Y388000D01*
X91116Y387220D01*
X91558Y386558D01*
X92220Y386116D01*
X93000Y385961D01*
X111000D01*
Y379000D01*
X130000D01*
Y387803D01*
X130039Y388000D01*
Y413000D01*
X130000Y413197D01*
Y418000D01*
D02*
G37*
G36*
X124250Y367663D02*
X123675D01*
Y350675D01*
X130663D01*
Y361250D01*
X130175Y363704D01*
X128785Y365785D01*
X126704Y367175D01*
X124250Y367663D01*
D02*
G37*
G36*
X117325D02*
X116750D01*
X114296Y367175D01*
X112215Y365785D01*
X110825Y363704D01*
X110337Y361250D01*
Y350675D01*
X117325D01*
Y367663D01*
D02*
G37*
G36*
X210613Y357800D02*
X196248D01*
Y357700D01*
X205018Y348930D01*
X210613D01*
Y357800D01*
D02*
G37*
G36*
X51540Y356540D02*
X43675D01*
Y348675D01*
X51540D01*
Y356540D01*
D02*
G37*
G36*
X37325D02*
X29460D01*
Y348675D01*
X37325D01*
Y356540D01*
D02*
G37*
G36*
X173963Y341420D02*
Y337145D01*
X177837D01*
X177550Y338589D01*
X176491Y340173D01*
X174907Y341232D01*
X173963Y341420D01*
D02*
G37*
G36*
X167613D02*
X166669Y341232D01*
X165085Y340173D01*
X164026Y338589D01*
X163739Y337145D01*
X167613D01*
Y341420D01*
D02*
G37*
G36*
X51540Y342325D02*
X43675D01*
Y334460D01*
X51540D01*
Y342325D01*
D02*
G37*
G36*
X37325D02*
X29460D01*
Y334460D01*
X37325D01*
Y342325D01*
D02*
G37*
G36*
X130663Y344325D02*
X123675D01*
Y327337D01*
X124250D01*
X126704Y327825D01*
X128785Y329215D01*
X130175Y331296D01*
X130663Y333750D01*
Y344325D01*
D02*
G37*
G36*
X117325D02*
X110337D01*
Y333750D01*
X110825Y331296D01*
X112215Y329215D01*
X114296Y327825D01*
X116750Y327337D01*
X117325D01*
Y344325D01*
D02*
G37*
G36*
X177837Y330795D02*
X170788D01*
X163739D01*
X164026Y329351D01*
X165085Y327767D01*
X165882Y327234D01*
Y325706D01*
X165085Y325173D01*
X164026Y323589D01*
X163739Y322145D01*
X170788D01*
X177837D01*
X177550Y323589D01*
X176491Y325173D01*
X175694Y325706D01*
Y327234D01*
X176491Y327767D01*
X177550Y329351D01*
X177837Y330795D01*
D02*
G37*
G36*
X168213Y295465D02*
X166769Y295178D01*
X165185Y294119D01*
X164269Y292749D01*
X164210Y292727D01*
X163365Y292653D01*
X162870Y292731D01*
X162202Y293730D01*
X160796Y294669D01*
X159138Y294999D01*
X153638D01*
X151980Y294669D01*
X150574Y293730D01*
X149635Y292324D01*
X149572Y292009D01*
X148287D01*
X147575Y292721D01*
X145921Y293406D01*
X144131D01*
X142477Y292721D01*
X141211Y291455D01*
X140526Y289801D01*
Y288011D01*
X141211Y286357D01*
X142477Y285091D01*
X144131Y284406D01*
X145921D01*
X146928Y284823D01*
X149572D01*
X149635Y284508D01*
X150574Y283102D01*
X151980Y282163D01*
X153638Y281833D01*
X159138D01*
X160796Y282163D01*
X162202Y283102D01*
X162870Y284101D01*
X163365Y284179D01*
X164210Y284105D01*
X164269Y284083D01*
X165185Y282713D01*
X166769Y281654D01*
X168213Y281367D01*
Y288416D01*
Y295465D01*
D02*
G37*
G36*
X41882Y306800D02*
X39118D01*
X36447Y306084D01*
X34053Y304702D01*
X32098Y302747D01*
X30716Y300353D01*
X30000Y297682D01*
Y294918D01*
X30716Y292247D01*
X32098Y289853D01*
X34053Y287898D01*
X36447Y286516D01*
X39118Y285800D01*
X41882D01*
X44553Y286516D01*
X46947Y287898D01*
X48902Y289853D01*
X50284Y292247D01*
X51000Y294918D01*
Y297682D01*
X50284Y300353D01*
X48902Y302747D01*
X46947Y304702D01*
X44553Y306084D01*
X41882Y306800D01*
D02*
G37*
G36*
X176175Y271953D02*
Y271175D01*
X176953D01*
X176175Y271953D01*
D02*
G37*
G36*
X159825D02*
X159047Y271175D01*
X159825D01*
Y271953D01*
D02*
G37*
G36*
X169825D02*
X168727Y270855D01*
X168635Y270632D01*
X167365D01*
X167273Y270855D01*
X166175Y271953D01*
Y268000D01*
X163000D01*
Y264825D01*
X159047D01*
X159622Y264250D01*
X159047Y263675D01*
X163000D01*
Y257325D01*
X159047D01*
X159622Y256750D01*
X159047Y256175D01*
X163000D01*
Y253000D01*
X166175D01*
Y249047D01*
X167273Y250145D01*
X167365Y250368D01*
X168635D01*
X168727Y250145D01*
X169825Y249047D01*
Y253000D01*
X173000D01*
Y256175D01*
X176953D01*
X176378Y256750D01*
X176953Y257325D01*
X173000D01*
Y263675D01*
X176953D01*
X176378Y264250D01*
X176953Y264825D01*
X173000D01*
Y268000D01*
X169825D01*
Y271953D01*
D02*
G37*
G36*
X176953Y249825D02*
X176175D01*
Y249047D01*
X176953Y249825D01*
D02*
G37*
G36*
X159825D02*
X159047D01*
X159825Y249047D01*
Y249825D01*
D02*
G37*
G36*
X51540Y256540D02*
X43675D01*
Y248675D01*
X51540D01*
Y256540D01*
D02*
G37*
G36*
X37325D02*
X29460D01*
Y248675D01*
X37325D01*
Y256540D01*
D02*
G37*
G36*
X208045Y241727D02*
X197470D01*
X195016Y241239D01*
X192935Y239849D01*
X191545Y237768D01*
X191057Y235314D01*
Y234739D01*
X208045D01*
Y241727D01*
D02*
G37*
G36*
X51540Y242325D02*
X43675D01*
Y234460D01*
X51540D01*
Y242325D01*
D02*
G37*
G36*
X37325D02*
X29460D01*
Y234460D01*
X37325D01*
Y242325D01*
D02*
G37*
G36*
X690540Y302540D02*
X683675D01*
Y285675D01*
X690540D01*
Y302540D01*
D02*
G37*
G36*
X677325D02*
X670460D01*
Y285675D01*
X677325D01*
Y302540D01*
D02*
G37*
G36*
X690540Y279325D02*
X683675D01*
Y262460D01*
X690540D01*
Y279325D01*
D02*
G37*
G36*
X677325D02*
X670460D01*
Y262460D01*
X677325D01*
Y279325D01*
D02*
G37*
G36*
X704715Y201169D02*
X702890D01*
X700922Y200910D01*
X699088Y200150D01*
X697512Y198942D01*
X696304Y197367D01*
X695544Y195532D01*
X695285Y193564D01*
Y182989D01*
X704715D01*
Y201169D01*
D02*
G37*
G36*
X280500Y282025D02*
X275960D01*
Y250660D01*
X304325D01*
Y278000D01*
X280500D01*
Y282025D01*
D02*
G37*
G36*
X282260Y241604D02*
X265395D01*
Y234739D01*
X282260D01*
Y241604D01*
D02*
G37*
%LPD*%
D10*
X170100Y160500D02*
D03*
X199500D02*
D03*
X170100Y135500D02*
D03*
X199500D02*
D03*
D11*
X211220Y231564D02*
D03*
D12*
X262220D02*
D03*
D13*
X584938Y153000D02*
D03*
X240726Y433970D02*
D03*
X589938Y381396D02*
D03*
X449938Y340500D02*
D03*
D14*
X552658Y152820D02*
D03*
X208446Y433790D02*
D03*
X557658Y381216D02*
D03*
X417658Y340320D02*
D03*
D15*
X325500Y234500D02*
D03*
Y206500D02*
D03*
X173000Y219500D02*
D03*
Y191500D02*
D03*
X400500Y269500D02*
D03*
Y241500D02*
D03*
X688000Y394000D02*
D03*
X688000Y422000D02*
D03*
X488688Y455846D02*
D03*
Y427846D02*
D03*
D16*
X383101Y142900D02*
D03*
X402900Y123101D02*
D03*
D17*
X623054Y179814D02*
D03*
X707890D02*
D03*
D18*
X645000Y393000D02*
D03*
X661000D02*
D03*
X246788Y408970D02*
D03*
X230788D02*
D03*
X186788Y318970D02*
D03*
X170788D02*
D03*
X200788Y333970D02*
D03*
X216788D02*
D03*
X170788D02*
D03*
X186788D02*
D03*
X420000Y273000D02*
D03*
X436000D02*
D03*
X131000Y148000D02*
D03*
X115000Y148000D02*
D03*
X131000Y133000D02*
D03*
X115000Y133000D02*
D03*
X131000Y163000D02*
D03*
X115000Y163000D02*
D03*
X131000Y178000D02*
D03*
X115000D02*
D03*
X631000Y393000D02*
D03*
X615000D02*
D03*
X631816Y468546D02*
D03*
X615816D02*
D03*
X615308Y412920D02*
D03*
X631308D02*
D03*
D19*
X740050Y298001D02*
D03*
Y283001D02*
D03*
Y293001D02*
D03*
Y288001D02*
D03*
Y278001D02*
D03*
Y273001D02*
D03*
Y303001D02*
D03*
Y308001D02*
D03*
X78698Y153491D02*
D03*
Y168491D02*
D03*
Y158491D02*
D03*
Y163491D02*
D03*
Y173491D02*
D03*
Y178491D02*
D03*
Y148491D02*
D03*
Y143491D02*
D03*
D20*
X740050Y266001D02*
D03*
Y315001D02*
D03*
Y323001D02*
D03*
Y258001D02*
D03*
X78698Y185491D02*
D03*
X78698Y136491D02*
D03*
Y128491D02*
D03*
X78698Y193491D02*
D03*
D21*
X566412Y415714D02*
D03*
X566412Y448734D02*
D03*
D22*
X524174Y410104D02*
D03*
D23*
X523994Y442384D02*
D03*
D24*
X449843Y127343D02*
D03*
X461157Y138657D02*
D03*
X424843Y127343D02*
D03*
X436157Y138657D02*
D03*
X447343Y149843D02*
D03*
X458657Y161157D02*
D03*
D25*
X515500Y145000D02*
D03*
Y161000D02*
D03*
X186388Y304416D02*
D03*
Y288416D02*
D03*
X171388Y288416D02*
D03*
Y304416D02*
D03*
X156388Y304416D02*
D03*
X156388Y288416D02*
D03*
X246288Y289470D02*
D03*
Y273470D02*
D03*
X201288Y289470D02*
D03*
Y273470D02*
D03*
X231288Y273470D02*
D03*
Y289470D02*
D03*
X216288Y273470D02*
D03*
Y289470D02*
D03*
X201288Y303470D02*
D03*
Y319470D02*
D03*
X261288D02*
D03*
Y303470D02*
D03*
X246288Y303470D02*
D03*
Y319470D02*
D03*
X231288Y303470D02*
D03*
X231288Y319470D02*
D03*
X216288Y303470D02*
D03*
X216288Y319470D02*
D03*
X375500Y243500D02*
D03*
Y227500D02*
D03*
X450500Y273500D02*
D03*
Y257500D02*
D03*
X360500Y227500D02*
D03*
Y243500D02*
D03*
X345500Y243500D02*
D03*
Y227500D02*
D03*
X375658Y212876D02*
D03*
Y196876D02*
D03*
X515500Y193500D02*
D03*
X515500Y177500D02*
D03*
X653915Y426191D02*
D03*
Y410191D02*
D03*
D26*
X594382Y214942D02*
D03*
X566382D02*
D03*
X375434Y285140D02*
D03*
X347434D02*
D03*
X522000Y383000D02*
D03*
X494000D02*
D03*
X442000Y395500D02*
D03*
X414000D02*
D03*
X462000Y370500D02*
D03*
X434000D02*
D03*
D27*
X120500Y347500D02*
D03*
X680500Y333500D02*
D03*
D28*
X120500Y398500D02*
D03*
X680500Y282500D02*
D03*
D29*
X370500Y262400D02*
D03*
Y308000D02*
D03*
D30*
X307500Y285200D02*
D03*
D31*
X335362Y352368D02*
D03*
Y443808D02*
D03*
D32*
X213788Y371470D02*
D03*
D33*
X180288Y390520D02*
D03*
D34*
Y377820D02*
D03*
Y365120D02*
D03*
Y352420D02*
D03*
X247288Y390520D02*
D03*
Y377820D02*
D03*
Y365120D02*
D03*
Y352420D02*
D03*
D35*
X453250Y300500D02*
D03*
X402750D02*
D03*
D36*
X385514Y168192D02*
D03*
X389049Y164656D02*
D03*
X392585Y161121D02*
D03*
X396120Y157585D02*
D03*
X399656Y154050D02*
D03*
X403192Y150514D02*
D03*
X430486Y177808D02*
D03*
X426950Y181344D02*
D03*
X423415Y184879D02*
D03*
X419879Y188415D02*
D03*
X416344Y191950D02*
D03*
X412808Y195486D02*
D03*
D37*
X403192D02*
D03*
D38*
X399656Y191950D02*
D03*
X396120Y188415D02*
D03*
X392585Y184879D02*
D03*
X389049Y181344D02*
D03*
X385514Y177808D02*
D03*
X412808Y150514D02*
D03*
X416344Y154050D02*
D03*
X419879Y157585D02*
D03*
X423415Y161121D02*
D03*
X426950Y164656D02*
D03*
X430486Y168192D02*
D03*
D39*
X408000Y173000D02*
D03*
D40*
X346157Y127343D02*
D03*
X334843Y138657D02*
D03*
X371157Y127343D02*
D03*
X359843Y138657D02*
D03*
D41*
X497500Y176000D02*
D03*
X565966Y176834D02*
D03*
D42*
X497500Y195000D02*
D03*
X473500Y185500D02*
D03*
X565966Y195834D02*
D03*
X541966Y186334D02*
D03*
D43*
X138000Y230500D02*
D03*
X728000Y420500D02*
D03*
X760500Y193000D02*
D03*
X598000Y243000D02*
D03*
Y343000D02*
D03*
D44*
X632205Y430359D02*
D03*
D45*
Y439859D02*
D03*
Y449359D02*
D03*
X608205D02*
D03*
Y439859D02*
D03*
Y430359D02*
D03*
D46*
X246288Y289470D02*
X246408Y289350D01*
X256472Y266302D02*
Y286488D01*
X253610Y289350D02*
X256472Y286488D01*
X246408Y289350D02*
X253610D01*
X236530Y246360D02*
X256472Y266302D01*
X236530Y216952D02*
Y246360D01*
X241070Y218832D02*
Y244133D01*
X261012Y264076D01*
Y289377D01*
X270002Y298366D02*
Y311257D01*
X261012Y289377D02*
X270002Y298366D01*
X236530Y216952D02*
X244079Y209402D01*
X242199Y204862D02*
X252589D01*
X241070Y218832D02*
X245102Y214800D01*
X231990Y215071D02*
Y238689D01*
Y215071D02*
X242199Y204862D01*
X245102Y214800D02*
X258197D01*
X244079Y209402D02*
X254469D01*
X288459Y175412D02*
X353560D01*
X287087Y170364D02*
X351469D01*
X252589Y204862D02*
X287087Y170364D01*
X258197Y214800D02*
X293045Y179952D01*
X254469Y209402D02*
X288459Y175412D01*
X218178Y252501D02*
X231990Y238689D01*
X293045Y179952D02*
X355440D01*
X355534Y179859D01*
X351469Y170364D02*
X362899Y158934D01*
X202303Y252501D02*
X218178D01*
X238696Y189496D02*
Y190162D01*
X237488Y188289D02*
X238696Y189496D01*
X237488Y164950D02*
Y188289D01*
X232408Y167054D02*
Y187526D01*
X217998Y145460D02*
X237488Y164950D01*
X231379Y190282D02*
X231849Y189811D01*
Y188085D02*
Y189811D01*
Y188085D02*
X232408Y187526D01*
X325500Y206500D02*
X328000D01*
X342048Y192452D01*
X376942Y127697D02*
X383306Y121333D01*
X371157Y127343D02*
X371510Y127697D01*
X346510Y127697D02*
X371157D01*
X371510Y127697D02*
X376942D01*
X383306Y121333D02*
X401132D01*
X402900Y123101D01*
X416076Y136277D02*
Y147204D01*
X402900Y123101D02*
X416076Y136277D01*
X384868Y144667D02*
X397345D01*
X383101Y142900D02*
X384868Y144667D01*
X397345D02*
X403192Y150514D01*
X357874Y192452D02*
X364246Y186080D01*
X342048Y192452D02*
X357874D01*
X364246Y186080D02*
X384313D01*
X389049Y181344D01*
X355534Y179859D02*
X383421D01*
X323938Y224604D02*
Y230938D01*
X323000Y223000D02*
Y223666D01*
X323938Y230938D02*
X328000Y235000D01*
X323000Y223666D02*
X323938Y224604D01*
X769358Y229142D02*
Y264584D01*
Y229142D02*
X790500Y208000D01*
X78698Y163670D02*
X87354D01*
X78698Y158590D02*
X89458D01*
X87642Y163690D02*
X91850D01*
X87642Y163690D02*
X87642Y163690D01*
X87374Y163690D02*
X87642D01*
X87354Y163670D02*
X87374Y163690D01*
X68123Y163492D02*
X78698D01*
X68123Y153491D02*
X78698D01*
X66635Y154979D02*
Y162004D01*
X68123Y163492D01*
X66635Y154979D02*
X68123Y153491D01*
X101592Y159174D02*
Y169588D01*
X99814Y171366D02*
X101592Y169588D01*
X100068Y157650D02*
X101592Y159174D01*
X94734Y157650D02*
X100068D01*
X92342Y171366D02*
X99814D01*
X89467Y168491D02*
X92342Y171366D01*
X89746Y158610D02*
X91850D01*
X89746Y158610D02*
X89746Y158610D01*
X78698Y168491D02*
X89467D01*
X89478Y158610D02*
X89746D01*
X89458Y158590D02*
X89478Y158610D01*
X151826Y141685D02*
X152316Y141196D01*
X154420D01*
X155908Y142684D01*
Y146076D01*
X148328Y142156D02*
X148799Y141685D01*
X160371Y150540D02*
X164782D01*
X171500Y157258D01*
Y160500D01*
X148328Y135156D02*
X148799Y135627D01*
X150722D01*
X151212Y136116D01*
X148799Y141685D02*
X151826D01*
X171500Y135500D02*
Y138742D01*
X155908Y146076D02*
X160371Y150540D01*
X164782Y145460D02*
X171500Y138742D01*
X162476Y145460D02*
X164782D01*
X160988Y143972D02*
X162476Y145460D01*
X151212Y136116D02*
X156524D01*
X160988Y140580D01*
Y143972D01*
X215894Y150540D02*
X232408Y167054D01*
X206218Y150540D02*
X215894D01*
X206218Y145460D02*
X217998D01*
X718812Y293941D02*
Y301977D01*
X750165Y298001D02*
X752340Y295826D01*
Y289984D02*
Y295826D01*
X740050Y298001D02*
X750165D01*
X740050Y288001D02*
X750357D01*
X752340Y289984D01*
X724538Y288215D02*
X739836D01*
X740050Y288001D01*
X718812Y293941D02*
X724538Y288215D01*
X199500Y138742D02*
X206218Y145460D01*
X199500Y135500D02*
Y138742D01*
X734284Y293001D02*
X740050D01*
X734070Y292787D02*
X734284Y293001D01*
X725728Y296793D02*
X729734Y292787D01*
X734070D01*
X728388Y283001D02*
X740050D01*
X725728Y296793D02*
Y302231D01*
X199500Y157258D02*
Y160500D01*
Y157258D02*
X206218Y150540D01*
X186888Y304416D02*
X194172Y311700D01*
X186388Y304416D02*
X186888D01*
X238574Y311700D02*
X238651Y311623D01*
X194172Y311700D02*
X238574D01*
X766818Y311320D02*
Y371182D01*
X747500Y390500D02*
X766818Y371182D01*
X345500Y243500D02*
X355500D01*
X355500Y243500D01*
X360500D01*
Y227500D02*
X370500D01*
X370500Y227500D01*
X375500D01*
X729181Y275506D02*
X731445Y277771D01*
X711350Y275506D02*
X729181D01*
X731445Y277771D02*
X739820D01*
X708302Y278554D02*
X711350Y275506D01*
X739820Y277771D02*
X740050Y278001D01*
X115000Y133000D02*
Y143000D01*
X115000Y143000D01*
Y148000D01*
X99879Y143491D02*
X104388Y148000D01*
X115000D01*
X78698Y143491D02*
X99879D01*
X115000Y163000D02*
Y178000D01*
X87461Y173491D02*
X91970Y178000D01*
X115000D01*
X78698Y173491D02*
X87461D01*
X67498Y183246D02*
X67500D01*
X69745Y185491D01*
X59682Y175430D02*
X67498Y183246D01*
X69745Y185491D02*
X78698D01*
X59682Y148257D02*
Y175430D01*
Y148257D02*
X71448Y136491D01*
X78698D01*
X347464Y141884D02*
X347792Y141556D01*
Y134410D02*
Y141556D01*
X715747Y308001D02*
X740050D01*
X707890Y300144D02*
X715747Y308001D01*
X707636Y278554D02*
X708302D01*
X761671Y272271D02*
X769358Y264584D01*
X748030Y272271D02*
X761671D01*
X747300Y273001D02*
X748030Y272271D01*
X740050Y273001D02*
X747300D01*
X758499Y303001D02*
X766818Y311320D01*
X740050Y303001D02*
X758499D01*
X631000Y393000D02*
X645000D01*
X623538Y401886D02*
X631308Y394116D01*
X623538Y401886D02*
Y417907D01*
X620260Y421185D02*
Y444670D01*
Y421185D02*
X623538Y417907D01*
X379843Y196532D02*
Y197343D01*
X356661Y141839D02*
Y147673D01*
X353814Y150520D02*
X356661Y147673D01*
Y141839D02*
X359843Y138657D01*
X341368Y150520D02*
X353814D01*
X338379Y147531D02*
X341368Y150520D01*
X334843Y141125D02*
X338379Y144660D01*
Y147531D01*
X334843Y138657D02*
Y141125D01*
X346885Y128072D02*
Y133504D01*
X346510Y127697D02*
X346885Y128072D01*
Y133504D02*
X347792Y134410D01*
X346157Y127343D02*
X346510Y127697D01*
X383421Y179859D02*
X385471Y177808D01*
X385514D01*
X388296Y196240D02*
X396120Y188415D01*
X394066Y197541D02*
Y198630D01*
X379843Y196532D02*
X385905Y190470D01*
X385722Y204622D02*
X388334Y202010D01*
X394066Y197541D02*
X399656Y191950D01*
X385056Y204622D02*
X385722D01*
X398605Y200115D02*
Y200511D01*
X388334Y202010D02*
X390686D01*
X386716Y190470D02*
X389337Y187849D01*
X399656Y191950D02*
Y191950D01*
X398605Y200115D02*
X403192Y195528D01*
X392128Y206550D02*
X392566D01*
X385905Y190470D02*
X386716D01*
X392566Y206550D02*
X398605Y200511D01*
X403192Y195486D02*
Y195528D01*
X390686Y202010D02*
X394066Y198630D01*
X385802Y212876D02*
X392128Y206550D01*
X389337Y187849D02*
X389615D01*
X392585Y184879D01*
X375658Y212876D02*
X385802D01*
X404464Y173000D02*
X408000D01*
X392585Y184879D02*
X404464Y173000D01*
X474210Y133756D02*
Y181790D01*
X473500Y182500D02*
X474210Y181790D01*
X473500Y182500D02*
Y185500D01*
X467444Y126990D02*
X474210Y133756D01*
X450197Y126990D02*
X467444D01*
X449843Y127343D02*
X450197Y126990D01*
X412808Y150472D02*
Y150514D01*
Y150472D02*
X416076Y147204D01*
X420616Y133347D02*
X424843Y129120D01*
X420616Y133347D02*
Y149777D01*
X424843Y127343D02*
Y129120D01*
X416344Y154050D02*
X420616Y149777D01*
X426712Y137113D02*
X437435Y126390D01*
X442751D01*
X423415Y161121D02*
X432621Y151914D01*
X426712Y137113D02*
Y150752D01*
X432621Y144660D02*
X436157Y141125D01*
Y138657D02*
X447343Y149843D01*
X432621Y144660D02*
Y151914D01*
X444058Y127697D02*
X449490D01*
X436157Y138657D02*
Y141125D01*
X449490Y127697D02*
X449843Y127343D01*
X442751Y126390D02*
X444058Y127697D01*
X453506Y146308D02*
X461157Y138657D01*
X450879Y146308D02*
X453506D01*
X447343Y149843D02*
X450879Y146308D01*
X419879Y157585D02*
X426712Y150752D01*
X385764Y227736D02*
X390500Y223000D01*
X411472Y208686D02*
X414859Y205299D01*
Y197537D02*
Y205299D01*
X412808Y195486D02*
X414859Y197537D01*
X375736Y227736D02*
X385764D01*
X375500Y227500D02*
X375736Y227736D01*
X189730Y278412D02*
X200788Y289470D01*
X189730Y265074D02*
Y278412D01*
X452495Y251005D02*
X460748Y242752D01*
Y208432D02*
Y242752D01*
X450500Y257500D02*
X452495Y255505D01*
Y251005D02*
Y255505D01*
X451350Y198672D02*
Y231896D01*
X433896Y270896D02*
X436000Y273000D01*
X433896Y195361D02*
Y270896D01*
X427982Y196518D02*
Y222148D01*
X418838Y231292D02*
X427982Y222148D01*
X419879Y188415D02*
X427982Y196518D01*
X423415Y184879D02*
X433896Y195361D01*
X430486Y177808D02*
X451350Y198672D01*
X449318Y233928D02*
Y234594D01*
Y233928D02*
X451350Y231896D01*
X307500Y285200D02*
X330922Y261778D01*
X338822D01*
X343400Y257200D01*
X439920Y194313D02*
Y220116D01*
X426950Y181344D02*
X439920Y194313D01*
X418214Y257500D02*
X418769Y256946D01*
X383327Y158934D02*
X389049Y164656D01*
X189730Y265074D02*
X202303Y252501D01*
X362899Y158934D02*
X383327D01*
X381304Y163982D02*
X385514Y168192D01*
X364990Y163982D02*
X381304D01*
X353560Y175412D02*
X364990Y163982D01*
X261788Y319470D02*
X270002Y311257D01*
X261288Y319470D02*
X261788D01*
X200788Y289470D02*
X201288D01*
D47*
X305681Y164127D02*
X316222Y153586D01*
X250182Y199052D02*
X285107Y164127D01*
X305681D01*
X598924Y123392D02*
Y189908D01*
X307848Y120528D02*
X316222Y128902D01*
Y153586D01*
X615308Y412920D02*
Y417920D01*
X608205Y425023D02*
X615308Y417920D01*
X608205Y425023D02*
Y430359D01*
X632205Y418817D02*
Y430359D01*
X631308Y417920D02*
X632205Y418817D01*
X631308Y412920D02*
Y417920D01*
X593590Y195242D02*
X598924Y189908D01*
X324660Y328856D02*
X329774Y333970D01*
X248282Y328856D02*
X324660D01*
X243168Y333970D02*
X248282Y328856D01*
X216788Y333970D02*
X243168D01*
D48*
X440682Y164998D02*
X449384D01*
X429760D02*
X439572D01*
X514342Y116248D02*
Y139342D01*
X57142Y117792D02*
X70048D01*
X28248D02*
X57142D01*
X47744Y195242D02*
X56694Y204192D01*
X47744Y127190D02*
X57142Y117792D01*
X47744Y127190D02*
Y195242D01*
X56694Y204192D02*
X70048D01*
X71448Y196491D02*
Y202792D01*
X70048Y204192D02*
X71448Y202792D01*
Y196491D02*
X74448Y193491D01*
X78698D01*
X28248Y117792D02*
Y204192D01*
X74180Y117792D02*
Y118099D01*
X28248Y117792D02*
X28248Y117792D01*
X78377Y122497D02*
X78698Y122818D01*
Y128491D01*
X78377Y122296D02*
Y122497D01*
X74180Y118099D02*
X78377Y122296D01*
X70048Y117792D02*
X74180D01*
X580890Y191922D02*
Y325890D01*
X598000Y343000D01*
X514342Y139342D02*
X515500Y140500D01*
Y145000D01*
X515500Y165500D02*
X515500Y165500D01*
Y161000D02*
Y165500D01*
X515500Y165500D02*
Y177500D01*
X575302Y186334D02*
X580890Y191922D01*
X541966Y186334D02*
X575302D01*
X520500Y193500D02*
X522834Y195834D01*
X515500Y193500D02*
X520500D01*
X522834Y195834D02*
X565966D01*
X515500Y177500D02*
X560300D01*
X504000D02*
X515500D01*
X560300D02*
X560966Y176834D01*
X565966D01*
X495500Y176000D02*
X497500D01*
X502500D02*
X504000Y177500D01*
X497500Y176000D02*
X502500D01*
X504000Y193500D02*
X515500D01*
X502500Y195000D02*
X504000Y193500D01*
X497500Y195000D02*
X502500D01*
X440682Y164998D02*
Y169062D01*
Y163888D02*
Y164998D01*
X491006Y196494D02*
X492500Y195000D01*
X468114Y196494D02*
X491006D01*
X492500Y195000D02*
X497500D01*
X440682Y169062D02*
X468114Y196494D01*
X421758Y173000D02*
X429760Y164998D01*
X408000Y173000D02*
X421758D01*
X449384Y164998D02*
X452871Y161510D01*
X458303D01*
X458657Y161157D01*
X175112Y275796D02*
X178268D01*
X171388Y279520D02*
X175112Y275796D01*
X171388Y279520D02*
Y288416D01*
X178268Y275796D02*
X184316Y281844D01*
Y286344D01*
X186388Y288416D01*
D49*
X542738Y150500D02*
X545058Y152820D01*
X533000Y150500D02*
X542738D01*
X545058Y152820D02*
X552658D01*
X173000Y219500D02*
Y253000D01*
X149000Y191500D02*
X173000D01*
X135500Y178000D02*
X149000Y191500D01*
X131000Y178000D02*
X135500D01*
X78698Y193745D02*
X126345D01*
X131000Y189090D01*
Y178000D02*
Y189090D01*
Y163000D02*
Y178000D01*
Y133000D02*
Y163000D01*
X685541Y394000D02*
X688000D01*
X679952Y383366D02*
Y388411D01*
X676232Y379646D02*
X679952Y383366D01*
X618720Y379646D02*
X676232D01*
X679952Y388411D02*
X685541Y394000D01*
X615000Y383366D02*
X618720Y379646D01*
X615000Y383366D02*
Y393000D01*
X586412Y415714D02*
X599366Y402760D01*
X566412Y415714D02*
X586412D01*
X599366Y402760D02*
X605740D01*
X615000Y393500D01*
Y393000D02*
Y393500D01*
X654415Y410191D02*
X655740Y408866D01*
Y403866D02*
Y408866D01*
X661000Y393000D02*
Y398606D01*
X653915Y410191D02*
X654415D01*
X655740Y403866D02*
X661000Y398606D01*
X594352Y459910D02*
X602988Y468546D01*
X615816D01*
X594352Y444416D02*
Y459910D01*
Y444416D02*
X598762Y440006D01*
X608057D02*
X608205Y439859D01*
X598762Y440006D02*
X608057D01*
X345500Y227500D02*
X345940Y227060D01*
Y220116D02*
Y227060D01*
Y220116D02*
X353814Y212242D01*
X354322D01*
X375158Y196876D02*
X375658D01*
D50*
X156388Y304416D02*
X186388D01*
X611043Y449359D02*
X611205D01*
X609084Y451317D02*
Y457116D01*
Y451317D02*
X611043Y449359D01*
X623022Y447522D02*
X630369D01*
X620260Y444670D02*
Y444761D01*
X623022Y447522D01*
X630369D02*
X632205Y449359D01*
X418214Y257500D02*
X420000Y259286D01*
X408548Y247048D02*
X408871D01*
X418769Y256946D01*
X403000Y241500D02*
X408548Y247048D01*
X400500Y241500D02*
X403000D01*
X397292Y273500D02*
X400500D01*
X412697Y223303D02*
X420870Y215130D01*
X393184Y264684D02*
Y269392D01*
Y264684D02*
X398000Y269500D01*
X386072Y257572D02*
X393184Y264684D01*
Y269392D02*
X397292Y273500D01*
X398887Y223303D02*
X412697D01*
X386072Y236118D02*
X398887Y223303D01*
X386072Y236118D02*
Y257572D01*
X398000Y269500D02*
X400500D01*
Y273500D02*
Y276000D01*
X402750Y278250D01*
Y300500D01*
X420870Y196477D02*
Y215130D01*
X416344Y191950D02*
X420870Y196477D01*
X373474Y245526D02*
Y250026D01*
X370500Y253000D02*
X373474Y250026D01*
Y245526D02*
X375500Y243500D01*
X370500Y253000D02*
Y262400D01*
X420000Y259286D02*
Y273000D01*
X247288Y339806D02*
X251198Y335896D01*
X247288Y339806D02*
Y352420D01*
X145026Y288906D02*
X145516Y288416D01*
X156388D01*
D51*
X724146Y317670D02*
X726815Y315001D01*
X713224Y317670D02*
X724146D01*
X726815Y315001D02*
X740050D01*
X695554Y300000D02*
X713224Y317670D01*
X735800Y323001D02*
X740050D01*
X735594Y323207D02*
Y324727D01*
X732320Y328000D02*
X735594Y324727D01*
Y323207D02*
X735800Y323001D01*
X703294Y328000D02*
X732320D01*
X745000Y323699D02*
X748000Y326699D01*
Y333000D02*
X749400Y334400D01*
X748000Y326699D02*
Y333000D01*
X747300Y248700D02*
Y255001D01*
Y248700D02*
X748700Y247300D01*
X744300Y258001D02*
X747300Y255001D01*
X740050Y258001D02*
X744300D01*
X703572Y254424D02*
Y254678D01*
X706895Y258001D01*
X740050D01*
X704499Y266001D02*
X740050D01*
X680500Y282500D02*
X688000D01*
X680500D02*
Y292500D01*
D52*
X623000Y295622D02*
X628000Y300622D01*
X623000Y293000D02*
Y295622D01*
X628000Y300622D02*
Y347834D01*
X594438Y381396D02*
X628000Y347834D01*
X589938Y381396D02*
X594438D01*
X488688Y455846D02*
X491188D01*
X491338Y455996D02*
Y458496D01*
X500842Y468000D01*
X508000D01*
X491188Y455846D02*
X491338Y455996D01*
X506437Y413397D02*
X516958D01*
X519001Y411354D02*
X523024D01*
X491338Y427696D02*
X504182Y414852D01*
X488688Y427846D02*
X488838Y427696D01*
X504182Y411142D02*
X506437Y413397D01*
X516958D02*
X519001Y411354D01*
X504182Y411142D02*
Y414852D01*
X488838Y427696D02*
X491338D01*
X523024Y411354D02*
X524174Y410204D01*
Y410104D02*
Y410204D01*
D53*
X264356Y374228D02*
Y375902D01*
X264788Y370470D02*
Y373796D01*
X264356Y374228D02*
X264788Y373796D01*
X263788Y376470D02*
X264356Y375902D01*
X256288Y303470D02*
X261288D01*
X226288Y319470D02*
X226288Y319470D01*
X246288Y303470D02*
X256288D01*
X256288Y303470D01*
X231288Y319470D02*
X246288D01*
X226288D02*
X231288D01*
X241288Y273470D02*
X246288D01*
X241288Y273470D02*
X241288Y273470D01*
X231288Y273470D02*
X241288D01*
X229074Y407256D02*
X230788Y408970D01*
X229074Y402256D02*
Y407256D01*
X227382Y398880D02*
Y400564D01*
X229074Y402256D01*
X180288Y399732D02*
X184486Y403930D01*
X227382Y398880D02*
X227412Y398850D01*
X180288Y349420D02*
X186788Y342920D01*
X216288Y289470D02*
Y298970D01*
X231288Y289470D02*
Y303470D01*
X201288D02*
X216288D01*
Y298970D02*
Y303470D01*
Y298970D02*
X216288Y298970D01*
X211288Y273470D02*
X211288Y273470D01*
X216288D01*
X201288Y273470D02*
X211288D01*
X186788Y318970D02*
Y333970D01*
X200788Y324470D02*
Y333970D01*
X186788D02*
X186788D01*
X200788D01*
X201288Y319470D02*
Y323970D01*
X200788Y324470D02*
X201288Y323970D01*
Y319470D02*
X226288D01*
X186788Y333970D02*
Y342920D01*
X180288Y390520D02*
Y399732D01*
Y349420D02*
Y352420D01*
D54*
X696750Y185500D02*
D03*
D55*
X207855Y374715D02*
D03*
D56*
X168000Y260500D02*
D03*
D57*
X110500Y400500D02*
D03*
D58*
X388700Y300827D02*
D03*
D59*
X790500Y333700D02*
D03*
Y247300D02*
D03*
X28248Y117792D02*
D03*
Y204192D02*
D03*
D60*
X754000Y319399D02*
D03*
Y261601D02*
D03*
X64748Y132093D02*
D03*
Y189891D02*
D03*
D61*
X748700Y333700D02*
D03*
Y247300D02*
D03*
X70048Y117792D02*
D03*
Y204192D02*
D03*
D62*
X241060Y138000D02*
D03*
X40500Y396300D02*
D03*
Y296300D02*
D03*
D63*
X291860Y138000D02*
D03*
D64*
X40500Y345500D02*
D03*
Y245500D02*
D03*
D65*
X496000Y243000D02*
D03*
D66*
Y343000D02*
D03*
D67*
X623000Y293000D02*
D03*
D68*
X790500Y208000D02*
D03*
D69*
X747500Y390500D02*
D03*
D70*
X250182Y199052D02*
D03*
X238696Y190162D02*
D03*
X231379Y190282D02*
D03*
X533000Y150500D02*
D03*
X598924Y123392D02*
D03*
X514342Y116248D02*
D03*
X323000Y223000D02*
D03*
X148328Y135156D02*
D03*
Y142156D02*
D03*
X94734Y164650D02*
D03*
X718153Y301977D02*
D03*
X94734Y157650D02*
D03*
X725728Y302231D02*
D03*
X725670Y281602D02*
D03*
X307848Y120528D02*
D03*
X238651Y311623D02*
D03*
X208000Y383000D02*
D03*
Y375500D02*
D03*
Y368000D02*
D03*
Y360500D02*
D03*
X215500D02*
D03*
Y368000D02*
D03*
Y375500D02*
D03*
Y383000D02*
D03*
X223000Y360500D02*
D03*
Y368000D02*
D03*
Y375500D02*
D03*
Y383000D02*
D03*
X703000Y253000D02*
D03*
X695500D02*
D03*
X690500Y243000D02*
D03*
X698000D02*
D03*
X347464Y141884D02*
D03*
X707890Y300144D02*
D03*
X707636Y278554D02*
D03*
X693000Y348000D02*
D03*
Y340500D02*
D03*
Y333000D02*
D03*
Y325500D02*
D03*
X508000Y468000D02*
D03*
X609084Y457116D02*
D03*
X668000Y418000D02*
D03*
Y428000D02*
D03*
X593590Y195242D02*
D03*
X594352Y444416D02*
D03*
X440682Y163888D02*
D03*
X354322Y212242D02*
D03*
X353814Y150520D02*
D03*
X388296Y196240D02*
D03*
X385056Y204622D02*
D03*
X390500Y223000D02*
D03*
X411472Y208686D02*
D03*
X405500Y360500D02*
D03*
X420500D02*
D03*
X413000D02*
D03*
X405500Y353000D02*
D03*
X420500D02*
D03*
X413000D02*
D03*
X163000Y268000D02*
D03*
Y253000D02*
D03*
Y260500D02*
D03*
X173000Y268000D02*
D03*
Y253000D02*
D03*
Y260500D02*
D03*
X98000Y408000D02*
D03*
Y393000D02*
D03*
Y400500D02*
D03*
X105500Y408000D02*
D03*
Y393000D02*
D03*
Y400500D02*
D03*
X460748Y208432D02*
D03*
X449318Y234594D02*
D03*
X343400Y257200D02*
D03*
X439920Y220116D02*
D03*
X418769Y256946D02*
D03*
X418838Y231292D02*
D03*
X251198Y335896D02*
D03*
X145026Y288906D02*
D03*
X263788Y353970D02*
D03*
Y368970D02*
D03*
Y361470D02*
D03*
Y346470D02*
D03*
X184486Y403930D02*
D03*
X263788Y376470D02*
D03*
X227412Y398850D02*
D03*
D71*
X504182Y411142D02*
D03*
M02*
