G04*
G04 #@! TF.GenerationSoftware,Altium Limited,Altium Designer,23.11.1 (41)*
G04*
G04 Layer_Color=16711935*
%FSLAX44Y44*%
%MOMM*%
G71*
G04*
G04 #@! TF.SameCoordinates,884342A8-4ED4-4568-BB5E-73BA217C2521*
G04*
G04*
G04 #@! TF.FilePolarity,Positive*
G04*
G01*
G75*
%ADD77C,0.2500*%
D77*
X620985Y100504D02*
X622918Y100119D01*
X624739Y99365D01*
X626377Y98270D01*
X627770Y96877D01*
X628865Y95238D01*
X629619Y93418D01*
X630004Y91485D01*
Y90500D02*
Y91485D01*
Y89515D02*
Y90500D01*
X629619Y87582D02*
X630004Y89515D01*
X628865Y85761D02*
X629619Y87582D01*
X627770Y84123D02*
X628865Y85761D01*
X626377Y82729D02*
X627770Y84123D01*
X624739Y81635D02*
X626377Y82729D01*
X622918Y80880D02*
X624739Y81635D01*
X620985Y80496D02*
X622918Y80880D01*
X98683Y80496D02*
X620985D01*
X96139Y81178D02*
X98683Y80496D01*
X93857Y82495D02*
X96139Y81178D01*
X91995Y84357D02*
X93857Y82495D01*
X90678Y86638D02*
X91995Y84357D01*
X89996Y89183D02*
X90678Y86638D01*
X89996Y89183D02*
Y91817D01*
X90678Y94361D01*
X91995Y96642D01*
X93857Y98505D01*
X96139Y99822D01*
X98683Y100504D01*
X620985D01*
Y500504D02*
X622918Y500120D01*
X624739Y499366D01*
X626377Y498271D01*
X627770Y496877D01*
X628865Y495239D01*
X629619Y493418D01*
X630004Y491486D01*
Y490500D02*
Y491486D01*
Y489515D02*
Y490500D01*
X629619Y487582D02*
X630004Y489515D01*
X628865Y485762D02*
X629619Y487582D01*
X627770Y484123D02*
X628865Y485762D01*
X626377Y482730D02*
X627770Y484123D01*
X624739Y481635D02*
X626377Y482730D01*
X622918Y480881D02*
X624739Y481635D01*
X620985Y480496D02*
X622918Y480881D01*
X98683Y480496D02*
X620985D01*
X96139Y481178D02*
X98683Y480496D01*
X93857Y482495D02*
X96139Y481178D01*
X91995Y484358D02*
X93857Y482495D01*
X90678Y486639D02*
X91995Y484358D01*
X89996Y489183D02*
X90678Y486639D01*
X89996Y489183D02*
Y491817D01*
X90678Y494362D01*
X91995Y496643D01*
X93857Y498505D01*
X96139Y499822D01*
X98683Y500504D01*
X620985D01*
X809051Y580000D02*
X811504Y579512D01*
X11449Y580000D02*
X809051D01*
X8996Y579512D02*
X11449Y580000D01*
X6684Y578555D02*
X8996Y579512D01*
X4604Y577165D02*
X6684Y578555D01*
X2835Y575396D02*
X4604Y577165D01*
X1445Y573316D02*
X2835Y575396D01*
X488Y571004D02*
X1445Y573316D01*
X0Y568551D02*
X488Y571004D01*
X0Y567300D02*
Y568551D01*
Y497731D02*
Y567300D01*
Y497731D02*
X2665Y498835D01*
X6806Y499944D01*
X11056Y500504D01*
X60985D01*
X62918Y500120D01*
X64739Y499366D01*
X66377Y498271D01*
X67771Y496877D01*
X68865Y495239D01*
X69619Y493418D01*
X70004Y491486D01*
Y490500D02*
Y491486D01*
Y489515D02*
Y490500D01*
X69619Y487582D02*
X70004Y489515D01*
X68865Y485762D02*
X69619Y487582D01*
X67771Y484123D02*
X68865Y485762D01*
X66377Y482730D02*
X67771Y484123D01*
X64739Y481635D02*
X66377Y482730D01*
X62918Y480881D02*
X64739Y481635D01*
X60985Y480496D02*
X62918Y480881D01*
X13200Y480496D02*
X60985D01*
X11955Y480435D02*
X13200Y480496D01*
X9514Y479950D02*
X11955Y480435D01*
X7215Y478997D02*
X9514Y479950D01*
X5145Y477615D02*
X7215Y478997D01*
X3386Y475854D02*
X5145Y477615D01*
X2003Y473785D02*
X3386Y475854D01*
X1050Y471486D02*
X2003Y473785D01*
X565Y469044D02*
X1050Y471486D01*
X504Y467800D02*
X565Y469044D01*
X504Y113200D02*
Y467800D01*
Y113200D02*
X565Y111956D01*
X1050Y109514D01*
X2003Y107215D01*
X3386Y105146D01*
X5145Y103385D01*
X7215Y102003D01*
X9514Y101050D01*
X11955Y100565D01*
X13200Y100504D01*
X60985D01*
X62918Y100119D01*
X64739Y99365D01*
X66377Y98270D01*
X67771Y96877D01*
X68865Y95238D01*
X69619Y93418D01*
X70004Y91485D01*
Y90500D02*
Y91485D01*
Y89515D02*
Y90500D01*
X69619Y87582D02*
X70004Y89515D01*
X68865Y85761D02*
X69619Y87582D01*
X67771Y84123D02*
X68865Y85761D01*
X66377Y82729D02*
X67771Y84123D01*
X64739Y81635D02*
X66377Y82729D01*
X62918Y80880D02*
X64739Y81635D01*
X60985Y80496D02*
X62918Y80880D01*
X11056Y80496D02*
X60985D01*
X6806Y81055D02*
X11056Y80496D01*
X2665Y82165D02*
X6806Y81055D01*
X0Y83269D02*
X2665Y82165D01*
X0Y12700D02*
Y83269D01*
Y11449D02*
Y12700D01*
Y11449D02*
X488Y8996D01*
X1445Y6684D01*
X2835Y4604D01*
X4604Y2835D01*
X6684Y1445D01*
X8996Y488D01*
X11449Y0D01*
X809051D01*
X811504Y488D01*
X813816Y1445D01*
X815896Y2835D01*
X817665Y4604D01*
X819055Y6684D01*
X820012Y8996D01*
X820500Y11449D01*
Y12700D01*
Y182010D01*
X733825Y95335D02*
X820500Y182010D01*
X733825Y95335D02*
X733825Y95335D01*
X732065Y93575D02*
X733825Y95335D01*
X728217Y90417D02*
X732065Y93575D01*
X724078Y87652D02*
X728217Y90417D01*
X719688Y85305D02*
X724078Y87652D01*
X715089Y83400D02*
X719688Y85305D01*
X710325Y81955D02*
X715089Y83400D01*
X705443Y80984D02*
X710325Y81955D01*
X700489Y80496D02*
X705443Y80984D01*
X658683Y80496D02*
X700489D01*
X656139Y81178D02*
X658683Y80496D01*
X653857Y82495D02*
X656139Y81178D01*
X651995Y84357D02*
X653857Y82495D01*
X650678Y86638D02*
X651995Y84357D01*
X649996Y89183D02*
X650678Y86638D01*
X649996Y89183D02*
Y91817D01*
X650678Y94361D01*
X651995Y96642D01*
X653857Y98505D01*
X656139Y99822D01*
X658683Y100504D01*
X698000D01*
X699504Y100541D01*
X702498Y100835D01*
X705449Y101422D01*
X708328Y102296D01*
X711107Y103447D01*
X713761Y104865D01*
X716262Y106537D01*
X718588Y108445D01*
X719678Y109483D01*
X811717Y201522D01*
X811717Y201522D01*
X811717Y201522D02*
X811717Y201522D01*
X811717Y201522D02*
X812755Y202612D01*
X814663Y204938D01*
X816335Y207439D01*
X817753Y210092D01*
X818904Y212872D01*
X819778Y215751D01*
X820365Y218701D01*
X820500Y220077D01*
Y224868D01*
X820496Y224939D02*
X820500Y224868D01*
X820496Y224939D02*
X820497Y225190D01*
Y357800D01*
X820496Y357800D02*
X820497Y357800D01*
X820460Y359304D02*
X820496Y357800D01*
X820165Y362298D02*
X820460Y359304D01*
X819578Y365249D02*
X820165Y362298D01*
X818704Y368128D02*
X819578Y365249D01*
X817553Y370908D02*
X818704Y368128D01*
X816135Y373561D02*
X817553Y370908D01*
X814463Y376062D02*
X816135Y373561D01*
X812555Y378388D02*
X814463Y376062D01*
X811517Y379478D02*
X812555Y378388D01*
X719478Y471517D02*
X811517Y379478D01*
X719478Y471517D02*
X719478Y471517D01*
X718388Y472555D02*
X719478Y471517D01*
X716062Y474463D02*
X718388Y472555D01*
X713561Y476135D02*
X716062Y474463D01*
X710908Y477553D02*
X713561Y476135D01*
X708128Y478704D02*
X710908Y477553D01*
X705249Y479578D02*
X708128Y478704D01*
X702298Y480165D02*
X705249Y479578D01*
X699304Y480460D02*
X702298Y480165D01*
X697800Y480496D02*
X699304Y480460D01*
X660000Y480496D02*
X697800Y480496D01*
X658683Y480496D02*
X660000D01*
X656139Y481178D02*
X658683Y480496D01*
X653857Y482495D02*
X656139Y481178D01*
X651995Y484358D02*
X653857Y482495D01*
X650678Y486639D02*
X651995Y484358D01*
X649996Y489183D02*
X650678Y486639D01*
X649996Y489183D02*
Y491817D01*
X650678Y494362D01*
X651995Y496643D01*
X653857Y498505D01*
X656139Y499822D01*
X658683Y500504D01*
X697800D01*
X697800Y500504D02*
X697800Y500504D01*
X697800Y500504D02*
X700289Y500504D01*
X705243Y500016D01*
X710125Y499045D01*
X714889Y497600D01*
X719488Y495695D01*
X723878Y493348D01*
X728017Y490583D01*
X731865Y487425D01*
X733625Y485665D01*
X820500Y398790D01*
Y567300D01*
Y568551D01*
X820012Y571004D02*
X820500Y568551D01*
X819055Y573316D02*
X820012Y571004D01*
X817665Y575396D02*
X819055Y573316D01*
X815896Y577165D02*
X817665Y575396D01*
X813816Y578555D02*
X815896Y577165D01*
X811504Y579512D02*
X813816Y578555D01*
M02*
