M48
;Layer_Color=9474304
;FILE_FORMAT=2:5
INCH
;TYPE=PLATED
T1F00S00C0.01181
T3F00S00C0.03937
T4F00S00C0.05500
T5F00S00C0.05512
T6F00S00C0.10236
%
T01
X0296291Y0075192
X0296882Y0077751
X0294323Y0077161
X0292225Y0082968
X0300572Y0075351
X0311500Y0075512
X0317946Y0075192
X0317355Y0077751
X0319914Y0077161
X0317300Y0092912
X0314735Y0091883
X0315965Y0095323
X0316400Y0101912
X0319900Y0105412
X0310400Y0103212
X0306103Y0104148
X0295872Y0116551
X0303331Y0131643
X0302461Y0142023
X0299705
Y0144779
X0302461
Y0147535
Y0150291
X0299705
Y0147535
X0296949
Y0150291
X0294193
Y0147535
Y0144779
Y0142023
X0296949
Y0144779
X0328550Y0144173
X0331306
Y0146929
X0328550
Y0149685
Y0152441
X0331306
Y0149685
X0334062
Y0152441
X0336818
Y0149685
Y0146929
Y0144173
X0334062
Y0146929
X0342354Y0137594
X0342748Y0127751
Y0124601
Y0121452
X0339205
Y0124601
Y0127751
X0335661
Y0124601
Y0121452
X0346488Y0107672
Y0104720
Y0101767
Y0098814
Y0095861
X0349441
Y0098814
Y0101767
Y0104720
Y0107672
X0352394
Y0104720
Y0101767
X0355346
X0358299
X0361252
Y0104720
Y0107672
X0358299
Y0104720
X0355346
Y0107672
Y0098814
Y0095861
X0352394
Y0098814
X0358299
Y0095861
Y0092909
X0361252
X0361252Y0095861
Y0098814
X0355346Y0092909
X0352394
X0349441Y0092909
X0346488Y0092909
X0358300Y0062012
X0358227Y0057339
X0364000Y0055812
X0363900Y0052112
X0364100Y0048212
X0379447Y0046839
X0387400Y0054212
X0378400Y0070012
X0383914Y0080537
X0381951Y0082717
X0390673Y0075940
X0389700Y0094712
X0403800Y0116712
X0402000Y0128212
X0403200Y0150412
X0406059Y0156612
X0389340Y0155912
X0389500Y0159812
X0371400Y0151512
X0378300Y0136712
X0416400Y0145412
X0315472Y0126851
X0276606Y0107672
X0273654
Y0104720
X0270701
Y0107672
X0267748
Y0104720
Y0101767
X0270701
X0273654
X0276606
Y0104720
Y0098814
Y0095861
X0273654
Y0098814
X0270701
Y0095861
X0267748
Y0098814
X0264795
Y0095861
X0261842
Y0098814
Y0101767
Y0104720
Y0107672
X0264795
Y0104720
Y0101767
Y0092909
X0261842Y0092909
X0267748
X0270701
X0273654
X0276606
X0286000Y0072112
X0235268Y0077161
X0232709Y0077751
X0233300Y0075192
X0227394Y0075083
X0215926Y0075351
X0211646Y0075192
X0212236Y0077751
X0209677Y0077161
X0206900Y0074212
X0206600Y0087812
X0191961Y0092909
X0189008
X0186055
X0183102
X0180150Y0092909
X0177197Y0092909
Y0095861
Y0098814
X0180150
Y0095861
X0183102
Y0098814
X0186055
X0189008
Y0095861
X0186055
X0191961
Y0098814
Y0101767
Y0104720
Y0107672
X0189008
Y0104720
X0186055
Y0107672
X0183102
Y0104720
Y0101767
X0186055
X0189008
X0180150
Y0104720
Y0107672
X0177197
Y0104720
Y0101767
X0173457Y0121452
Y0124601
Y0127751
X0169913
Y0124601
Y0121452
X0166370
Y0124601
Y0127751
X0173063Y0137594
X0167527Y0144173
X0164771
Y0146929
X0167527
Y0149685
X0164771
Y0152441
X0167527
X0162015
Y0149685
X0159259
Y0152441
Y0146929
Y0144173
X0162015
Y0146929
X0146180Y0126851
X0150200Y0105512
X0147200Y0102212
X0141109Y0103212
X0136948Y0104012
X0146468Y0095499
X0146549Y0092671
X0148898Y0094112
X0148064Y0077751
X0150623Y0077161
X0148654Y0075192
X0142400Y0075212
X0231096Y0092600
X0231014Y0095491
X0233400Y0094112
X0231740Y0102398
X0235034Y0105246
X0225754Y0103212
X0221647Y0103958
X0211226Y0116551
X0218686Y0131643
X0217815Y0142023
Y0144779
X0215059
Y0142023
X0212303
Y0144779
X0209547
Y0142023
Y0147535
X0212303
Y0150291
X0209547
X0215059
Y0147535
X0217815
Y0150291
X0243905Y0149685
X0246661
Y0152441
X0243905
Y0146929
Y0144173
X0246661
Y0146929
X0249417
Y0144173
X0252172
Y0146929
Y0149685
X0249417
Y0152441
X0252172
X0257709Y0137594
X0258102Y0127751
Y0124601
Y0121452
X0254559
Y0124601
Y0127751
X0251016
Y0124601
Y0121452
X0230826Y0126851
X0134040Y0131643
X0133169Y0142023
Y0144779
X0130413
Y0142023
X0127657
Y0144779
X0124902
Y0142023
Y0147535
Y0150291
X0127657
Y0147535
X0130413
X0133169
Y0150291
X0130413
X0126580Y0116551
X0107315Y0107672
Y0104720
Y0101767
Y0098814
Y0095861
X0104362
Y0098814
X0101409
X0098457
Y0095861
X0101409
Y0092909
X0104362
X0107315
X0098457
X0095504Y0092909
X0092551Y0092909
Y0095861
Y0098814
Y0101767
Y0104720
Y0107672
X0095504
X0098457
Y0104720
X0101409
X0104362
Y0107672
X0101409
Y0101767
X0104362
X0098457
X0095504
Y0104720
Y0098814
Y0095861
X0088811Y0121452
Y0124601
Y0127751
X0085268
Y0124601
Y0121452
X0081724
Y0124601
Y0127751
X0088417Y0137594
X0082881Y0144173
X0080125
Y0146929
X0082881
Y0149685
X0080125
Y0152441
X0082881
X0077369
Y0149685
X0074613
Y0152441
Y0146929
Y0144173
X0077369
Y0146929
X0048524Y0147535
Y0150291
X0045768
Y0147535
Y0144779
X0048524
Y0142023
X0045768
X0043012
Y0144779
X0040256
Y0142023
Y0147535
X0043012
Y0150291
X0040256
X0029611Y0143200
X0017627Y0143212
X0026191Y0115802
X0028139Y0117751
X0041935Y0116551
X0052345Y0103830
X0056463Y0103212
X0062635Y0102351
X0063392Y0095304
X0060325Y0095579
X0062207Y0092799
X0063418Y0077751
X0064008Y0075192
X0065977Y0077161
X0057899Y0075083
X0046635Y0075351
X0042354Y0075192
X0042945Y0077751
X0040386Y0077161
X0037380Y0087013
X0031100Y0069712
X0022200Y0099112
X0067100Y0106512
X0061535Y0126851
X0123048Y0083660
X0125031Y0077161
X0127591Y0077751
X0127000Y0075192
X0131280Y0075351
X0120719Y0074212
X0111252Y0174601
Y0177554
X0108299Y0177554
X0105347
Y0174601
X0108299
X0108299Y0180507
X0105347Y0180507
Y0183460
Y0186413
X0108299
Y0183460
X0111252
Y0186413
Y0189365
Y0192318
X0108299
X0105347
Y0189365
X0108299
X0108299Y0195271
X0105347
X0105347Y0198224
X0108299
X0111252
Y0195271
Y0201176
Y0204129
X0108299
X0105347
Y0201176
X0108299
X0108299Y0207082
X0105347
X0105347Y0210035
Y0212987
X0108299
Y0210035
X0111252
Y0207082
Y0212987
X0111252Y0215940
X0108299
X0105347
X0119168Y0213142
X0121992Y0213034
X0088400Y0220812
X0111252Y0180507
X0189992Y0180507
Y0183460
Y0186413
X0192945
Y0183460
X0195898
Y0186413
Y0189365
Y0192318
X0192945
X0189992
Y0189365
X0192945
X0192945Y0195271
X0189992
X0189992Y0198224
X0192945
X0195898
Y0195271
Y0201176
Y0204129
X0192945
X0189992
Y0201176
X0192945
X0192945Y0207082
X0189992
X0189992Y0210035
Y0212987
X0192945
Y0210035
X0195898
Y0207082
Y0212987
X0195898Y0215940
X0192945
X0189992
X0204741Y0212712
X0207497
X0173100Y0220912
X0192945Y0180507
X0192945Y0177554
X0189992
Y0174601
X0192945
X0195898
Y0177554
Y0180507
X0274638Y0180507
Y0183460
Y0186413
X0277591
Y0183460
X0280543
Y0186413
Y0189365
Y0192318
X0277591
X0274638
Y0189365
X0277591
X0277590Y0195271
X0274638
X0274638Y0198224
X0277591
X0280543
Y0195271
Y0201176
Y0204129
X0277591
X0274638
Y0201176
X0277591
X0277590Y0207082
X0274638
X0274638Y0210035
Y0212987
X0277591
Y0210035
X0280543
Y0207082
Y0212987
X0280543Y0215940
X0277591
X0274638
X0289131Y0212558
X0257709Y0221303
X0277590Y0180507
X0277591Y0177554
X0274638
Y0174601
X0277591
X0280543
Y0177554
Y0180507
X0291886Y0212510
X0359283Y0212987
X0362236
Y0210035
X0362236Y0207082
X0359283
X0359283Y0210035
Y0204129
X0362236
Y0201176
X0359283
Y0198224
X0362236
X0365189
Y0201176
Y0204129
Y0207082
Y0210035
Y0212987
X0365189Y0215940
X0362236
X0359283
X0361841Y0220468
X0374049Y0216660
X0372100Y0214712
X0380500Y0219212
X0389874Y0220727
X0390064Y0223476
X0384250Y0229526
X0381500Y0229712
X0400800Y0230253
Y0233009
X0398829Y0194867
X0396895Y0192903
X0391249Y0191702
X0388500Y0191512
X0381675Y0193220
X0379900Y0191112
X0365189Y0192318
Y0195271
X0362236
X0359283
X0359283Y0192318
X0362236
Y0189365
X0359283
Y0186413
X0362236
Y0183460
X0359283
Y0180507
X0362236Y0180507
X0365189
Y0183460
Y0186413
Y0189365
Y0177554
Y0174601
X0362236
X0359283
Y0177554
X0362236
X0372600Y0174612
X0376857Y0174292
X0379378Y0175406
X0381859Y0174153
X0389894Y0174118
X0404000Y0172754
X0403153Y0190710
X0405909
T03
X0336646Y0065350
X0347472
X0262827Y0065350
X0252000Y0065350
X0178181Y0065350
X0167354Y0065350
X0093535Y0065350
X0082709Y0065350
T04
X0015300Y0074012
T05
X0015300Y0054012
T06
X0347748Y0029720
X0263102Y0029720
X0178457
X0093811
M30
