G04*
G04 #@! TF.GenerationSoftware,Altium Limited,Altium Designer,23.4.1 (23)*
G04*
G04 Layer_Color=65535*
%FSLAX44Y44*%
%MOMM*%
G71*
G04*
G04 #@! TF.SameCoordinates,3060DD58-918D-4E1B-9459-4C9D01607EA3*
G04*
G04*
G04 #@! TF.FilePolarity,Positive*
G04*
G01*
G75*
%ADD38C,0.2540*%
%ADD68C,0.2500*%
%ADD69C,0.6000*%
%ADD70C,0.2000*%
%ADD71C,0.1000*%
%ADD72C,0.1270*%
G36*
X87375Y202577D02*
X90327Y199625D01*
X90327Y199529D01*
X84425D01*
X87375Y202577D01*
D02*
G37*
G36*
X302515Y202612D02*
X299563Y205564D01*
Y205660D01*
X305465D01*
X302515Y202612D01*
D02*
G37*
G36*
X516891Y204137D02*
X513939Y207089D01*
Y207185D01*
X519841D01*
X516891Y204137D01*
D02*
G37*
G36*
X732029Y202358D02*
X729077Y205310D01*
Y205406D01*
X734979D01*
X732029Y202358D01*
D02*
G37*
G36*
X972579Y187621D02*
X975531Y184669D01*
X975531Y184573D01*
X969629D01*
X972579Y187621D01*
D02*
G37*
G36*
X229293Y140210D02*
X229567Y140185D01*
X229642D01*
X229792Y140160D01*
X229992D01*
X230217Y140135D01*
X229692Y137760D01*
X229667D01*
X229592Y137786D01*
X229492Y137810D01*
X229317Y137860D01*
X229142Y137885D01*
X228918Y137910D01*
X228693Y137935D01*
X228168D01*
X227918Y137910D01*
X227643Y137860D01*
X227593D01*
X227418Y137810D01*
X227218Y137760D01*
X226993Y137685D01*
Y128713D01*
X224169D01*
Y139410D01*
X224219Y139435D01*
X224319Y139460D01*
X224519Y139535D01*
X224744Y139610D01*
X225044Y139710D01*
X225394Y139810D01*
X225768Y139885D01*
X226193Y139985D01*
X226243D01*
X226393Y140035D01*
X226643Y140060D01*
X226968Y140110D01*
X227343Y140160D01*
X227768Y140185D01*
X228268Y140235D01*
X229018D01*
X229293Y140210D01*
D02*
G37*
G36*
X204849Y144084D02*
X205074Y144059D01*
X205349Y144034D01*
X205649Y144009D01*
X205973Y143934D01*
X206673Y143784D01*
X207398Y143559D01*
X207748Y143409D01*
X208073Y143234D01*
X208398Y143009D01*
X208698Y142784D01*
X208723Y142759D01*
X208773Y142734D01*
X208848Y142659D01*
X208923Y142534D01*
X209048Y142409D01*
X209173Y142259D01*
X209298Y142059D01*
X209448Y141834D01*
X209597Y141609D01*
X209722Y141335D01*
X209972Y140735D01*
X210047Y140385D01*
X210122Y140035D01*
X210172Y139635D01*
X210197Y139235D01*
Y139185D01*
Y139060D01*
X210172Y138860D01*
X210147Y138610D01*
X210097Y138310D01*
X210047Y138010D01*
X209947Y137661D01*
X209823Y137336D01*
X209797Y137286D01*
X209748Y137186D01*
X209673Y137036D01*
X209548Y136811D01*
X209373Y136586D01*
X209198Y136336D01*
X208973Y136061D01*
X208698Y135811D01*
X208673Y135786D01*
X208573Y135711D01*
X208398Y135586D01*
X208198Y135461D01*
X207923Y135311D01*
X207598Y135136D01*
X207248Y134986D01*
X206848Y134836D01*
X206798Y134811D01*
X206648Y134786D01*
X206423Y134736D01*
X206123Y134661D01*
X205749Y134586D01*
X205299Y134536D01*
X204799Y134511D01*
X204274Y134486D01*
X203799D01*
X203499Y134511D01*
X203449D01*
X203274Y134536D01*
X203074Y134561D01*
X202874Y134586D01*
Y128713D01*
X200000D01*
Y143284D01*
X200050Y143309D01*
X200150Y143359D01*
X200325Y143409D01*
X200575Y143509D01*
X200875Y143584D01*
X201200Y143684D01*
X201575Y143784D01*
X201975Y143884D01*
X202024D01*
X202174Y143909D01*
X202399Y143959D01*
X202699Y144009D01*
X203049Y144034D01*
X203449Y144084D01*
X203899Y144109D01*
X204649D01*
X204849Y144084D01*
D02*
G37*
G36*
X253786Y134486D02*
X255286D01*
Y132437D01*
X253786D01*
Y128713D01*
X251137D01*
Y132437D01*
X244364D01*
Y134486D01*
X250662Y143834D01*
X253786D01*
Y134486D01*
D02*
G37*
G36*
X235541Y139985D02*
X237640D01*
Y137836D01*
X235541D01*
Y132287D01*
Y132262D01*
Y132162D01*
X235566Y132062D01*
X235591Y131912D01*
X235641Y131737D01*
X235691Y131587D01*
X235791Y131437D01*
X235916Y131312D01*
X235941D01*
X235991Y131262D01*
X236066Y131237D01*
X236166Y131187D01*
X236316Y131137D01*
X236466Y131087D01*
X236641Y131062D01*
X236841Y131037D01*
X236991D01*
X237115Y131062D01*
X237290Y131087D01*
X237340D01*
X237415Y131112D01*
X237540Y131162D01*
X237640Y131212D01*
Y128838D01*
X237590Y128813D01*
X237465Y128763D01*
X237241Y128713D01*
X236916Y128638D01*
X236841D01*
X236741Y128613D01*
X236616D01*
X236316Y128588D01*
X235941Y128563D01*
X235791D01*
X235666Y128588D01*
X235391Y128613D01*
X235016Y128663D01*
X234616Y128788D01*
X234216Y128938D01*
X233841Y129138D01*
X233516Y129438D01*
X233491Y129488D01*
X233391Y129613D01*
X233267Y129812D01*
X233141Y130087D01*
X232992Y130462D01*
X232867Y130937D01*
X232767Y131462D01*
X232742Y132087D01*
Y137836D01*
X231292D01*
Y139985D01*
X232742D01*
Y142484D01*
X235541Y143309D01*
Y139985D01*
D02*
G37*
G36*
X217346Y140210D02*
X217621Y140185D01*
X217970Y140135D01*
X218320Y140035D01*
X218695Y139935D01*
X219070Y139785D01*
X219120Y139760D01*
X219220Y139710D01*
X219395Y139610D01*
X219620Y139460D01*
X219870Y139285D01*
X220145Y139060D01*
X220420Y138810D01*
X220670Y138535D01*
X220695Y138510D01*
X220770Y138410D01*
X220895Y138235D01*
X221045Y138010D01*
X221195Y137736D01*
X221345Y137436D01*
X221520Y137086D01*
X221644Y136686D01*
X221670Y136636D01*
X221695Y136511D01*
X221744Y136286D01*
X221819Y135986D01*
X221894Y135636D01*
X221944Y135236D01*
X221969Y134811D01*
X221994Y134336D01*
Y134311D01*
Y134286D01*
Y134211D01*
Y134136D01*
X221969Y133886D01*
X221944Y133587D01*
X221919Y133212D01*
X221844Y132812D01*
X221769Y132412D01*
X221644Y131987D01*
X221619Y131937D01*
X221595Y131812D01*
X221520Y131612D01*
X221395Y131362D01*
X221270Y131062D01*
X221095Y130737D01*
X220895Y130412D01*
X220670Y130112D01*
X220645Y130087D01*
X220545Y129987D01*
X220420Y129838D01*
X220220Y129663D01*
X219995Y129463D01*
X219720Y129263D01*
X219420Y129063D01*
X219070Y128888D01*
X219020Y128863D01*
X218895Y128813D01*
X218695Y128763D01*
X218445Y128688D01*
X218120Y128588D01*
X217745Y128538D01*
X217346Y128488D01*
X216896Y128463D01*
X216696D01*
X216446Y128488D01*
X216171Y128513D01*
X215821Y128563D01*
X215446Y128638D01*
X215071Y128738D01*
X214696Y128888D01*
X214646Y128913D01*
X214546Y128963D01*
X214371Y129063D01*
X214146Y129213D01*
X213896Y129388D01*
X213622Y129588D01*
X213347Y129838D01*
X213097Y130112D01*
X213072Y130137D01*
X212997Y130262D01*
X212872Y130412D01*
X212722Y130637D01*
X212572Y130912D01*
X212422Y131237D01*
X212247Y131587D01*
X212122Y131987D01*
Y132012D01*
X212097Y132037D01*
X212072Y132187D01*
X212022Y132412D01*
X211972Y132687D01*
X211897Y133037D01*
X211847Y133437D01*
X211822Y133886D01*
X211797Y134336D01*
Y134361D01*
Y134386D01*
Y134461D01*
Y134561D01*
X211822Y134786D01*
X211847Y135111D01*
X211872Y135461D01*
X211947Y135861D01*
X212022Y136286D01*
X212122Y136686D01*
Y136711D01*
X212147Y136736D01*
X212172Y136861D01*
X212272Y137061D01*
X212372Y137311D01*
X212497Y137611D01*
X212672Y137910D01*
X212872Y138235D01*
X213097Y138535D01*
X213122Y138560D01*
X213222Y138660D01*
X213347Y138810D01*
X213547Y138985D01*
X213771Y139185D01*
X214046Y139410D01*
X214346Y139610D01*
X214696Y139785D01*
X214746Y139810D01*
X214871Y139860D01*
X215071Y139935D01*
X215346Y140010D01*
X215671Y140085D01*
X216046Y140160D01*
X216446Y140210D01*
X216896Y140235D01*
X217096D01*
X217346Y140210D01*
D02*
G37*
G36*
X207448Y123764D02*
X204124Y120765D01*
X218895D01*
Y118540D01*
X204124D01*
X207448Y115541D01*
X205774Y113867D01*
X199975Y119665D01*
X205774Y125439D01*
X207448Y123764D01*
D02*
G37*
G36*
X874293Y140210D02*
X874567Y140185D01*
X874642D01*
X874792Y140160D01*
X874992D01*
X875217Y140135D01*
X874692Y137760D01*
X874667D01*
X874592Y137786D01*
X874492Y137810D01*
X874317Y137860D01*
X874143Y137886D01*
X873918Y137910D01*
X873693Y137935D01*
X873168D01*
X872918Y137910D01*
X872643Y137860D01*
X872593D01*
X872418Y137810D01*
X872218Y137760D01*
X871993Y137686D01*
Y128713D01*
X869169D01*
Y139410D01*
X869219Y139435D01*
X869319Y139460D01*
X869519Y139535D01*
X869744Y139610D01*
X870044Y139710D01*
X870394Y139810D01*
X870768Y139885D01*
X871193Y139985D01*
X871243D01*
X871393Y140035D01*
X871643Y140060D01*
X871968Y140110D01*
X872343Y140160D01*
X872768Y140185D01*
X873268Y140235D01*
X874018D01*
X874293Y140210D01*
D02*
G37*
G36*
X849849Y144084D02*
X850074Y144059D01*
X850349Y144034D01*
X850648Y144009D01*
X850974Y143934D01*
X851673Y143784D01*
X852398Y143559D01*
X852748Y143409D01*
X853073Y143234D01*
X853398Y143009D01*
X853698Y142784D01*
X853723Y142759D01*
X853773Y142734D01*
X853848Y142659D01*
X853923Y142534D01*
X854048Y142409D01*
X854173Y142259D01*
X854298Y142059D01*
X854448Y141834D01*
X854597Y141609D01*
X854723Y141335D01*
X854972Y140735D01*
X855047Y140385D01*
X855122Y140035D01*
X855172Y139635D01*
X855197Y139235D01*
Y139185D01*
Y139060D01*
X855172Y138860D01*
X855147Y138610D01*
X855097Y138310D01*
X855047Y138011D01*
X854947Y137661D01*
X854822Y137336D01*
X854798Y137286D01*
X854747Y137186D01*
X854672Y137036D01*
X854548Y136811D01*
X854373Y136586D01*
X854198Y136336D01*
X853973Y136061D01*
X853698Y135811D01*
X853673Y135786D01*
X853573Y135711D01*
X853398Y135586D01*
X853198Y135461D01*
X852923Y135311D01*
X852598Y135136D01*
X852248Y134986D01*
X851848Y134836D01*
X851798Y134811D01*
X851648Y134786D01*
X851423Y134736D01*
X851123Y134661D01*
X850749Y134586D01*
X850299Y134536D01*
X849799Y134511D01*
X849274Y134486D01*
X848799D01*
X848499Y134511D01*
X848449D01*
X848274Y134536D01*
X848074Y134561D01*
X847874Y134586D01*
Y128713D01*
X845000D01*
Y143284D01*
X845050Y143309D01*
X845150Y143359D01*
X845325Y143409D01*
X845575Y143509D01*
X845875Y143584D01*
X846200Y143684D01*
X846575Y143784D01*
X846974Y143884D01*
X847025D01*
X847174Y143909D01*
X847399Y143959D01*
X847699Y144009D01*
X848049Y144034D01*
X848449Y144084D01*
X848899Y144109D01*
X849649D01*
X849849Y144084D01*
D02*
G37*
G36*
X897737Y128713D02*
X894837D01*
Y140635D01*
X894812D01*
X894787Y140610D01*
X894712Y140560D01*
X894612Y140510D01*
X894337Y140385D01*
X893987Y140235D01*
X893962D01*
X893913Y140210D01*
X893812Y140160D01*
X893662Y140110D01*
X893513Y140060D01*
X893338Y140010D01*
X892938Y139885D01*
X892913D01*
X892838Y139860D01*
X892738Y139835D01*
X892613Y139785D01*
X892438Y139760D01*
X892263Y139710D01*
X891838Y139610D01*
X891813D01*
X891738Y139585D01*
X891638Y139560D01*
X891488Y139535D01*
X891138Y139460D01*
X890738Y139385D01*
X890313Y141560D01*
X890338D01*
X890438Y141585D01*
X890588Y141609D01*
X890788Y141659D01*
X891013Y141685D01*
X891263Y141760D01*
X891813Y141884D01*
X891838D01*
X891938Y141934D01*
X892088Y141959D01*
X892288Y142034D01*
X892513Y142109D01*
X892763Y142184D01*
X893263Y142384D01*
X893288Y142409D01*
X893388Y142434D01*
X893513Y142509D01*
X893662Y142584D01*
X893863Y142684D01*
X894087Y142784D01*
X894512Y143059D01*
X894537Y143084D01*
X894612Y143134D01*
X894712Y143209D01*
X894837Y143309D01*
X895162Y143534D01*
X895462Y143834D01*
X897737D01*
Y128713D01*
D02*
G37*
G36*
X880541Y139985D02*
X882640D01*
Y137836D01*
X880541D01*
Y132287D01*
Y132262D01*
Y132162D01*
X880566Y132062D01*
X880591Y131912D01*
X880641Y131737D01*
X880691Y131587D01*
X880791Y131437D01*
X880916Y131312D01*
X880941D01*
X880991Y131262D01*
X881066Y131237D01*
X881166Y131187D01*
X881316Y131137D01*
X881466Y131087D01*
X881641Y131062D01*
X881841Y131037D01*
X881991D01*
X882115Y131062D01*
X882290Y131087D01*
X882340D01*
X882415Y131112D01*
X882540Y131162D01*
X882640Y131212D01*
Y128838D01*
X882590Y128813D01*
X882465Y128763D01*
X882241Y128713D01*
X881916Y128638D01*
X881841D01*
X881741Y128613D01*
X881616D01*
X881316Y128588D01*
X880941Y128563D01*
X880791D01*
X880666Y128588D01*
X880391Y128613D01*
X880016Y128663D01*
X879616Y128788D01*
X879216Y128938D01*
X878841Y129138D01*
X878516Y129438D01*
X878491Y129488D01*
X878391Y129613D01*
X878267Y129813D01*
X878141Y130087D01*
X877991Y130462D01*
X877867Y130937D01*
X877767Y131462D01*
X877742Y132087D01*
Y137836D01*
X876292D01*
Y139985D01*
X877742D01*
Y142484D01*
X880541Y143309D01*
Y139985D01*
D02*
G37*
G36*
X862346Y140210D02*
X862620Y140185D01*
X862970Y140135D01*
X863320Y140035D01*
X863695Y139935D01*
X864070Y139785D01*
X864120Y139760D01*
X864220Y139710D01*
X864395Y139610D01*
X864620Y139460D01*
X864870Y139285D01*
X865145Y139060D01*
X865420Y138810D01*
X865670Y138535D01*
X865695Y138510D01*
X865770Y138410D01*
X865895Y138235D01*
X866045Y138011D01*
X866195Y137736D01*
X866345Y137436D01*
X866519Y137086D01*
X866644Y136686D01*
X866669Y136636D01*
X866694Y136511D01*
X866744Y136286D01*
X866819Y135986D01*
X866894Y135636D01*
X866944Y135236D01*
X866969Y134811D01*
X866994Y134336D01*
Y134311D01*
Y134286D01*
Y134211D01*
Y134136D01*
X866969Y133886D01*
X866944Y133587D01*
X866919Y133212D01*
X866844Y132812D01*
X866769Y132412D01*
X866644Y131987D01*
X866619Y131937D01*
X866594Y131812D01*
X866519Y131612D01*
X866395Y131362D01*
X866270Y131062D01*
X866095Y130737D01*
X865895Y130412D01*
X865670Y130112D01*
X865645Y130087D01*
X865545Y129987D01*
X865420Y129838D01*
X865220Y129663D01*
X864995Y129463D01*
X864720Y129263D01*
X864420Y129063D01*
X864070Y128888D01*
X864020Y128863D01*
X863895Y128813D01*
X863695Y128763D01*
X863445Y128688D01*
X863120Y128588D01*
X862745Y128538D01*
X862346Y128488D01*
X861896Y128463D01*
X861696D01*
X861446Y128488D01*
X861171Y128513D01*
X860821Y128563D01*
X860446Y128638D01*
X860071Y128738D01*
X859696Y128888D01*
X859646Y128913D01*
X859546Y128963D01*
X859371Y129063D01*
X859146Y129213D01*
X858896Y129388D01*
X858622Y129588D01*
X858347Y129838D01*
X858097Y130112D01*
X858072Y130138D01*
X857997Y130262D01*
X857872Y130412D01*
X857722Y130637D01*
X857572Y130912D01*
X857422Y131237D01*
X857247Y131587D01*
X857122Y131987D01*
Y132012D01*
X857097Y132037D01*
X857072Y132187D01*
X857022Y132412D01*
X856972Y132687D01*
X856897Y133037D01*
X856847Y133437D01*
X856822Y133886D01*
X856797Y134336D01*
Y134361D01*
Y134386D01*
Y134461D01*
Y134561D01*
X856822Y134786D01*
X856847Y135111D01*
X856872Y135461D01*
X856947Y135861D01*
X857022Y136286D01*
X857122Y136686D01*
Y136711D01*
X857147Y136736D01*
X857172Y136861D01*
X857272Y137061D01*
X857372Y137311D01*
X857497Y137611D01*
X857672Y137910D01*
X857872Y138235D01*
X858097Y138535D01*
X858122Y138560D01*
X858222Y138660D01*
X858347Y138810D01*
X858547Y138985D01*
X858772Y139185D01*
X859046Y139410D01*
X859346Y139610D01*
X859696Y139785D01*
X859746Y139810D01*
X859871Y139860D01*
X860071Y139935D01*
X860346Y140010D01*
X860671Y140085D01*
X861046Y140160D01*
X861446Y140210D01*
X861896Y140235D01*
X862096D01*
X862346Y140210D01*
D02*
G37*
G36*
X852448Y123764D02*
X849124Y120765D01*
X863895D01*
Y118540D01*
X849124D01*
X852448Y115541D01*
X850773Y113867D01*
X844975Y119665D01*
X850773Y125439D01*
X852448Y123764D01*
D02*
G37*
G36*
X659293Y140210D02*
X659567Y140185D01*
X659642D01*
X659792Y140160D01*
X659992D01*
X660217Y140135D01*
X659692Y137760D01*
X659667D01*
X659592Y137786D01*
X659492Y137810D01*
X659317Y137860D01*
X659143Y137885D01*
X658918Y137910D01*
X658693Y137935D01*
X658168D01*
X657918Y137910D01*
X657643Y137860D01*
X657593D01*
X657418Y137810D01*
X657218Y137760D01*
X656993Y137685D01*
Y128713D01*
X654169D01*
Y139410D01*
X654219Y139435D01*
X654319Y139460D01*
X654519Y139535D01*
X654744Y139610D01*
X655044Y139710D01*
X655394Y139810D01*
X655768Y139885D01*
X656193Y139985D01*
X656243D01*
X656393Y140035D01*
X656643Y140060D01*
X656968Y140110D01*
X657343Y140160D01*
X657768Y140185D01*
X658268Y140235D01*
X659018D01*
X659293Y140210D01*
D02*
G37*
G36*
X634849Y144084D02*
X635074Y144059D01*
X635349Y144034D01*
X635649Y144009D01*
X635974Y143934D01*
X636673Y143784D01*
X637398Y143559D01*
X637748Y143409D01*
X638073Y143234D01*
X638398Y143009D01*
X638698Y142784D01*
X638723Y142759D01*
X638773Y142734D01*
X638848Y142659D01*
X638923Y142534D01*
X639048Y142409D01*
X639173Y142259D01*
X639298Y142059D01*
X639448Y141834D01*
X639598Y141609D01*
X639723Y141335D01*
X639972Y140735D01*
X640047Y140385D01*
X640122Y140035D01*
X640172Y139635D01*
X640197Y139235D01*
Y139185D01*
Y139060D01*
X640172Y138860D01*
X640147Y138610D01*
X640097Y138310D01*
X640047Y138010D01*
X639948Y137661D01*
X639823Y137336D01*
X639798Y137286D01*
X639748Y137186D01*
X639673Y137036D01*
X639548Y136811D01*
X639373Y136586D01*
X639198Y136336D01*
X638973Y136061D01*
X638698Y135811D01*
X638673Y135786D01*
X638573Y135711D01*
X638398Y135586D01*
X638198Y135461D01*
X637923Y135311D01*
X637598Y135136D01*
X637248Y134986D01*
X636848Y134836D01*
X636798Y134811D01*
X636648Y134786D01*
X636423Y134736D01*
X636123Y134661D01*
X635748Y134586D01*
X635299Y134536D01*
X634799Y134511D01*
X634274Y134486D01*
X633799D01*
X633499Y134511D01*
X633449D01*
X633274Y134536D01*
X633074Y134561D01*
X632874Y134586D01*
Y128713D01*
X630000D01*
Y143284D01*
X630050Y143309D01*
X630150Y143359D01*
X630325Y143409D01*
X630575Y143509D01*
X630875Y143584D01*
X631200Y143684D01*
X631575Y143784D01*
X631974Y143884D01*
X632024D01*
X632174Y143909D01*
X632399Y143959D01*
X632699Y144009D01*
X633049Y144034D01*
X633449Y144084D01*
X633899Y144109D01*
X634649D01*
X634849Y144084D01*
D02*
G37*
G36*
X679312D02*
X679562D01*
X679812Y144034D01*
X680112Y144009D01*
X680437Y143959D01*
X681112Y143809D01*
X681812Y143584D01*
X682137Y143459D01*
X682462Y143284D01*
X682786Y143109D01*
X683061Y142884D01*
X683086Y142859D01*
X683136Y142834D01*
X683186Y142759D01*
X683286Y142659D01*
X683386Y142534D01*
X683511Y142384D01*
X683661Y142209D01*
X683786Y142009D01*
X684061Y141535D01*
X684286Y140960D01*
X684386Y140635D01*
X684461Y140285D01*
X684486Y139935D01*
X684511Y139535D01*
Y139510D01*
Y139435D01*
Y139310D01*
X684486Y139160D01*
X684461Y138985D01*
X684436Y138785D01*
X684336Y138360D01*
Y138335D01*
X684311Y138260D01*
X684286Y138160D01*
X684236Y138010D01*
X684086Y137685D01*
X683911Y137286D01*
Y137261D01*
X683861Y137211D01*
X683811Y137111D01*
X683736Y136986D01*
X683536Y136686D01*
X683286Y136336D01*
X683261Y136311D01*
X683236Y136261D01*
X683161Y136186D01*
X683086Y136061D01*
X682861Y135811D01*
X682611Y135511D01*
X678662Y131062D01*
X684811D01*
Y128713D01*
X673839D01*
X680312Y136786D01*
X680337Y136811D01*
X680387Y136886D01*
X680487Y137011D01*
X680587Y137161D01*
X680712Y137361D01*
X680862Y137561D01*
X681137Y138010D01*
X681162Y138035D01*
X681187Y138135D01*
X681262Y138260D01*
X681337Y138435D01*
X681387Y138635D01*
X681462Y138860D01*
X681487Y139110D01*
X681512Y139385D01*
Y139435D01*
Y139560D01*
X681462Y139760D01*
X681412Y139985D01*
X681337Y140260D01*
X681187Y140535D01*
X681012Y140810D01*
X680762Y141060D01*
X680737Y141085D01*
X680612Y141160D01*
X680462Y141260D01*
X680212Y141385D01*
X679912Y141510D01*
X679537Y141609D01*
X679112Y141685D01*
X678613Y141709D01*
X678313D01*
X678113Y141685D01*
X677888Y141659D01*
X677613Y141635D01*
X676988Y141535D01*
X676963D01*
X676838Y141510D01*
X676688Y141460D01*
X676463Y141410D01*
X676238Y141335D01*
X675963Y141260D01*
X675413Y141060D01*
X674589Y143284D01*
X674639Y143309D01*
X674763Y143359D01*
X674939Y143434D01*
X675213Y143509D01*
X675513Y143609D01*
X675863Y143709D01*
X676238Y143809D01*
X676638Y143884D01*
X676688D01*
X676838Y143909D01*
X677038Y143959D01*
X677338Y144009D01*
X677663Y144034D01*
X678038Y144084D01*
X678438Y144109D01*
X679137D01*
X679312Y144084D01*
D02*
G37*
G36*
X665541Y139985D02*
X667640D01*
Y137836D01*
X665541D01*
Y132287D01*
Y132262D01*
Y132162D01*
X665566Y132062D01*
X665591Y131912D01*
X665641Y131737D01*
X665691Y131587D01*
X665791Y131437D01*
X665916Y131312D01*
X665941D01*
X665991Y131262D01*
X666066Y131237D01*
X666166Y131187D01*
X666316Y131137D01*
X666466Y131087D01*
X666641Y131062D01*
X666841Y131037D01*
X666991D01*
X667115Y131062D01*
X667290Y131087D01*
X667340D01*
X667415Y131112D01*
X667540Y131162D01*
X667640Y131212D01*
Y128838D01*
X667590Y128813D01*
X667465Y128763D01*
X667241Y128713D01*
X666916Y128638D01*
X666841D01*
X666741Y128613D01*
X666616D01*
X666316Y128588D01*
X665941Y128563D01*
X665791D01*
X665666Y128588D01*
X665391Y128613D01*
X665016Y128663D01*
X664616Y128788D01*
X664216Y128938D01*
X663841Y129138D01*
X663516Y129438D01*
X663491Y129488D01*
X663391Y129613D01*
X663267Y129812D01*
X663141Y130087D01*
X662992Y130462D01*
X662867Y130937D01*
X662767Y131462D01*
X662742Y132087D01*
Y137836D01*
X661292D01*
Y139985D01*
X662742D01*
Y142484D01*
X665541Y143309D01*
Y139985D01*
D02*
G37*
G36*
X647346Y140210D02*
X647620Y140185D01*
X647970Y140135D01*
X648320Y140035D01*
X648695Y139935D01*
X649070Y139785D01*
X649120Y139760D01*
X649220Y139710D01*
X649395Y139610D01*
X649620Y139460D01*
X649870Y139285D01*
X650145Y139060D01*
X650420Y138810D01*
X650670Y138535D01*
X650695Y138510D01*
X650770Y138410D01*
X650895Y138235D01*
X651045Y138010D01*
X651195Y137736D01*
X651345Y137436D01*
X651519Y137086D01*
X651645Y136686D01*
X651669Y136636D01*
X651694Y136511D01*
X651744Y136286D01*
X651819Y135986D01*
X651894Y135636D01*
X651944Y135236D01*
X651969Y134811D01*
X651994Y134336D01*
Y134311D01*
Y134286D01*
Y134211D01*
Y134136D01*
X651969Y133886D01*
X651944Y133587D01*
X651919Y133212D01*
X651844Y132812D01*
X651769Y132412D01*
X651645Y131987D01*
X651619Y131937D01*
X651594Y131812D01*
X651519Y131612D01*
X651395Y131362D01*
X651270Y131062D01*
X651095Y130737D01*
X650895Y130412D01*
X650670Y130112D01*
X650645Y130087D01*
X650545Y129987D01*
X650420Y129838D01*
X650220Y129663D01*
X649995Y129463D01*
X649720Y129263D01*
X649420Y129063D01*
X649070Y128888D01*
X649020Y128863D01*
X648895Y128813D01*
X648695Y128763D01*
X648445Y128688D01*
X648120Y128588D01*
X647746Y128538D01*
X647346Y128488D01*
X646896Y128463D01*
X646696D01*
X646446Y128488D01*
X646171Y128513D01*
X645821Y128563D01*
X645446Y128638D01*
X645071Y128738D01*
X644696Y128888D01*
X644646Y128913D01*
X644546Y128963D01*
X644371Y129063D01*
X644146Y129213D01*
X643896Y129388D01*
X643622Y129588D01*
X643347Y129838D01*
X643097Y130112D01*
X643072Y130137D01*
X642997Y130262D01*
X642872Y130412D01*
X642722Y130637D01*
X642572Y130912D01*
X642422Y131237D01*
X642247Y131587D01*
X642122Y131987D01*
Y132012D01*
X642097Y132037D01*
X642072Y132187D01*
X642022Y132412D01*
X641972Y132687D01*
X641897Y133037D01*
X641847Y133437D01*
X641822Y133886D01*
X641797Y134336D01*
Y134361D01*
Y134386D01*
Y134461D01*
Y134561D01*
X641822Y134786D01*
X641847Y135111D01*
X641872Y135461D01*
X641947Y135861D01*
X642022Y136286D01*
X642122Y136686D01*
Y136711D01*
X642147Y136736D01*
X642172Y136861D01*
X642272Y137061D01*
X642372Y137311D01*
X642497Y137611D01*
X642672Y137910D01*
X642872Y138235D01*
X643097Y138535D01*
X643122Y138560D01*
X643222Y138660D01*
X643347Y138810D01*
X643547Y138985D01*
X643772Y139185D01*
X644046Y139410D01*
X644346Y139610D01*
X644696Y139785D01*
X644746Y139810D01*
X644871Y139860D01*
X645071Y139935D01*
X645346Y140010D01*
X645671Y140085D01*
X646046Y140160D01*
X646446Y140210D01*
X646896Y140235D01*
X647096D01*
X647346Y140210D01*
D02*
G37*
G36*
X637448Y123764D02*
X634124Y120765D01*
X648895D01*
Y118540D01*
X634124D01*
X637448Y115541D01*
X635774Y113867D01*
X629975Y119665D01*
X635774Y125439D01*
X637448Y123764D01*
D02*
G37*
G36*
X444292Y140210D02*
X444567Y140185D01*
X444642D01*
X444792Y140160D01*
X444992D01*
X445217Y140135D01*
X444692Y137760D01*
X444667D01*
X444592Y137786D01*
X444492Y137810D01*
X444318Y137860D01*
X444142Y137885D01*
X443918Y137910D01*
X443693Y137935D01*
X443168D01*
X442918Y137910D01*
X442643Y137860D01*
X442593D01*
X442418Y137810D01*
X442218Y137760D01*
X441993Y137685D01*
Y128713D01*
X439169D01*
Y139410D01*
X439219Y139435D01*
X439319Y139460D01*
X439519Y139535D01*
X439744Y139610D01*
X440044Y139710D01*
X440393Y139810D01*
X440768Y139885D01*
X441193Y139985D01*
X441243D01*
X441393Y140035D01*
X441643Y140060D01*
X441968Y140110D01*
X442343Y140160D01*
X442768Y140185D01*
X443268Y140235D01*
X444018D01*
X444292Y140210D01*
D02*
G37*
G36*
X419849Y144084D02*
X420074Y144059D01*
X420349Y144034D01*
X420649Y144009D01*
X420974Y143934D01*
X421673Y143784D01*
X422398Y143559D01*
X422748Y143409D01*
X423073Y143234D01*
X423398Y143009D01*
X423698Y142784D01*
X423723Y142759D01*
X423773Y142734D01*
X423848Y142659D01*
X423923Y142534D01*
X424048Y142409D01*
X424173Y142259D01*
X424298Y142059D01*
X424448Y141834D01*
X424598Y141609D01*
X424723Y141335D01*
X424972Y140735D01*
X425047Y140385D01*
X425122Y140035D01*
X425172Y139635D01*
X425197Y139235D01*
Y139185D01*
Y139060D01*
X425172Y138860D01*
X425147Y138610D01*
X425097Y138310D01*
X425047Y138010D01*
X424948Y137661D01*
X424823Y137336D01*
X424798Y137286D01*
X424748Y137186D01*
X424673Y137036D01*
X424548Y136811D01*
X424373Y136586D01*
X424198Y136336D01*
X423973Y136061D01*
X423698Y135811D01*
X423673Y135786D01*
X423573Y135711D01*
X423398Y135586D01*
X423198Y135461D01*
X422923Y135311D01*
X422598Y135136D01*
X422248Y134986D01*
X421848Y134836D01*
X421798Y134811D01*
X421648Y134786D01*
X421423Y134736D01*
X421123Y134661D01*
X420748Y134586D01*
X420299Y134536D01*
X419799Y134511D01*
X419274Y134486D01*
X418799D01*
X418499Y134511D01*
X418449D01*
X418274Y134536D01*
X418074Y134561D01*
X417874Y134586D01*
Y128713D01*
X415000D01*
Y143284D01*
X415050Y143309D01*
X415150Y143359D01*
X415325Y143409D01*
X415575Y143509D01*
X415875Y143584D01*
X416200Y143684D01*
X416575Y143784D01*
X416974Y143884D01*
X417024D01*
X417174Y143909D01*
X417399Y143959D01*
X417699Y144009D01*
X418049Y144034D01*
X418449Y144084D01*
X418899Y144109D01*
X419649D01*
X419849Y144084D01*
D02*
G37*
G36*
X464637D02*
X464837D01*
X465087Y144059D01*
X465337Y144009D01*
X465612Y143984D01*
X466212Y143859D01*
X466812Y143659D01*
X467412Y143384D01*
X467662Y143234D01*
X467911Y143034D01*
X467937D01*
X467961Y142984D01*
X468111Y142834D01*
X468311Y142609D01*
X468536Y142284D01*
X468761Y141884D01*
X468936Y141410D01*
X469086Y140835D01*
X469111Y140535D01*
X469136Y140210D01*
Y140185D01*
Y140110D01*
Y140010D01*
X469111Y139860D01*
X469061Y139510D01*
X468936Y139110D01*
Y139085D01*
X468911Y139010D01*
X468861Y138910D01*
X468786Y138785D01*
X468611Y138485D01*
X468361Y138160D01*
X468336Y138135D01*
X468286Y138085D01*
X468211Y138010D01*
X468111Y137910D01*
X467836Y137661D01*
X467512Y137386D01*
X467487Y137361D01*
X467437Y137336D01*
X467337Y137261D01*
X467237Y137211D01*
X466912Y137036D01*
X466562Y136861D01*
Y136811D01*
X466587D01*
X466662Y136786D01*
X466787Y136736D01*
X466937Y136686D01*
X467112Y136611D01*
X467312Y136536D01*
X467711Y136311D01*
X467737Y136286D01*
X467812Y136261D01*
X467911Y136186D01*
X468036Y136111D01*
X468361Y135861D01*
X468686Y135536D01*
X468711Y135511D01*
X468761Y135461D01*
X468836Y135361D01*
X468936Y135236D01*
X469061Y135086D01*
X469161Y134886D01*
X469386Y134461D01*
X469411Y134436D01*
X469436Y134361D01*
X469486Y134211D01*
X469536Y134061D01*
X469586Y133836D01*
X469611Y133611D01*
X469661Y133337D01*
Y133062D01*
Y133012D01*
Y132887D01*
X469636Y132687D01*
X469611Y132437D01*
X469561Y132137D01*
X469486Y131812D01*
X469386Y131487D01*
X469261Y131162D01*
X469236Y131137D01*
X469186Y131012D01*
X469086Y130862D01*
X468961Y130662D01*
X468811Y130437D01*
X468611Y130187D01*
X468386Y129937D01*
X468111Y129712D01*
X468086Y129688D01*
X467986Y129613D01*
X467836Y129513D01*
X467612Y129363D01*
X467362Y129213D01*
X467037Y129063D01*
X466687Y128913D01*
X466312Y128788D01*
X466262Y128763D01*
X466112Y128738D01*
X465912Y128688D01*
X465612Y128638D01*
X465237Y128563D01*
X464837Y128513D01*
X464362Y128488D01*
X463862Y128463D01*
X463662D01*
X463413Y128488D01*
X463113D01*
X462763Y128513D01*
X462338Y128563D01*
X461913Y128613D01*
X461463Y128688D01*
X461413D01*
X461263Y128738D01*
X461038Y128763D01*
X460738Y128838D01*
X460413Y128913D01*
X460064Y129013D01*
X459689Y129138D01*
X459339Y129263D01*
X460238Y131487D01*
X460263D01*
X460363Y131437D01*
X460513Y131387D01*
X460688Y131312D01*
X460938Y131237D01*
X461213Y131162D01*
X461513Y131087D01*
X461863Y131012D01*
X461913D01*
X462038Y130987D01*
X462213Y130962D01*
X462463Y130937D01*
X462763Y130912D01*
X463088Y130887D01*
X463438Y130862D01*
X464038D01*
X464287Y130887D01*
X464587Y130937D01*
X464937Y131012D01*
X465287Y131112D01*
X465637Y131262D01*
X465937Y131462D01*
X465962Y131487D01*
X466062Y131562D01*
X466187Y131712D01*
X466337Y131887D01*
X466462Y132112D01*
X466587Y132387D01*
X466687Y132712D01*
X466712Y133062D01*
Y133087D01*
Y133162D01*
X466687Y133287D01*
X466662Y133412D01*
X466587Y133762D01*
X466487Y133937D01*
X466387Y134111D01*
X466362Y134136D01*
X466337Y134186D01*
X466262Y134261D01*
X466162Y134361D01*
X466037Y134486D01*
X465862Y134611D01*
X465687Y134736D01*
X465487Y134836D01*
X465462Y134861D01*
X465387Y134886D01*
X465262Y134936D01*
X465112Y135011D01*
X464912Y135086D01*
X464687Y135161D01*
X464412Y135236D01*
X464137Y135286D01*
X464112D01*
X464012Y135311D01*
X463838Y135336D01*
X463638Y135386D01*
X463388Y135411D01*
X463113Y135436D01*
X462788Y135461D01*
X462213D01*
Y137561D01*
X462363D01*
X462538Y137585D01*
X462763Y137611D01*
X463038Y137635D01*
X463313Y137685D01*
X463887Y137810D01*
X463913D01*
X464012Y137836D01*
X464162Y137885D01*
X464337Y137960D01*
X464737Y138110D01*
X465162Y138335D01*
X465187Y138360D01*
X465237Y138385D01*
X465337Y138460D01*
X465462Y138560D01*
X465712Y138785D01*
X465962Y139060D01*
X465987Y139085D01*
X466012Y139135D01*
X466062Y139210D01*
X466112Y139335D01*
X466212Y139635D01*
X466262Y139810D01*
Y139985D01*
Y140010D01*
Y140110D01*
X466237Y140260D01*
X466187Y140460D01*
X466112Y140660D01*
X465987Y140860D01*
X465837Y141085D01*
X465637Y141260D01*
X465612Y141285D01*
X465512Y141335D01*
X465387Y141410D01*
X465187Y141510D01*
X464912Y141585D01*
X464612Y141659D01*
X464262Y141709D01*
X463838Y141735D01*
X463538D01*
X463338Y141709D01*
X463088Y141685D01*
X462788Y141659D01*
X462163Y141535D01*
X462113D01*
X462013Y141510D01*
X461838Y141460D01*
X461638Y141410D01*
X461388Y141335D01*
X461113Y141260D01*
X460538Y141060D01*
X459714Y143284D01*
X459763Y143309D01*
X459888Y143359D01*
X460089Y143434D01*
X460338Y143509D01*
X460638Y143609D01*
X461013Y143709D01*
X461413Y143809D01*
X461838Y143884D01*
X461888D01*
X462038Y143909D01*
X462263Y143959D01*
X462588Y144009D01*
X462938Y144034D01*
X463338Y144084D01*
X463787Y144109D01*
X464462D01*
X464637Y144084D01*
D02*
G37*
G36*
X450541Y139985D02*
X452640D01*
Y137836D01*
X450541D01*
Y132287D01*
Y132262D01*
Y132162D01*
X450566Y132062D01*
X450591Y131912D01*
X450641Y131737D01*
X450691Y131587D01*
X450791Y131437D01*
X450916Y131312D01*
X450941D01*
X450991Y131262D01*
X451066Y131237D01*
X451166Y131187D01*
X451316Y131137D01*
X451466Y131087D01*
X451641Y131062D01*
X451841Y131037D01*
X451991D01*
X452116Y131062D01*
X452290Y131087D01*
X452340D01*
X452415Y131112D01*
X452540Y131162D01*
X452640Y131212D01*
Y128838D01*
X452590Y128813D01*
X452465Y128763D01*
X452240Y128713D01*
X451916Y128638D01*
X451841D01*
X451741Y128613D01*
X451616D01*
X451316Y128588D01*
X450941Y128563D01*
X450791D01*
X450666Y128588D01*
X450391Y128613D01*
X450016Y128663D01*
X449616Y128788D01*
X449216Y128938D01*
X448841Y129138D01*
X448516Y129438D01*
X448491Y129488D01*
X448391Y129613D01*
X448266Y129812D01*
X448142Y130087D01*
X447992Y130462D01*
X447867Y130937D01*
X447767Y131462D01*
X447742Y132087D01*
Y137836D01*
X446292D01*
Y139985D01*
X447742D01*
Y142484D01*
X450541Y143309D01*
Y139985D01*
D02*
G37*
G36*
X432346Y140210D02*
X432621Y140185D01*
X432970Y140135D01*
X433320Y140035D01*
X433695Y139935D01*
X434070Y139785D01*
X434120Y139760D01*
X434220Y139710D01*
X434395Y139610D01*
X434620Y139460D01*
X434870Y139285D01*
X435145Y139060D01*
X435420Y138810D01*
X435670Y138535D01*
X435695Y138510D01*
X435770Y138410D01*
X435895Y138235D01*
X436045Y138010D01*
X436195Y137736D01*
X436344Y137436D01*
X436520Y137086D01*
X436645Y136686D01*
X436670Y136636D01*
X436694Y136511D01*
X436744Y136286D01*
X436819Y135986D01*
X436894Y135636D01*
X436944Y135236D01*
X436969Y134811D01*
X436994Y134336D01*
Y134311D01*
Y134286D01*
Y134211D01*
Y134136D01*
X436969Y133886D01*
X436944Y133587D01*
X436919Y133212D01*
X436844Y132812D01*
X436769Y132412D01*
X436645Y131987D01*
X436619Y131937D01*
X436595Y131812D01*
X436520Y131612D01*
X436395Y131362D01*
X436270Y131062D01*
X436095Y130737D01*
X435895Y130412D01*
X435670Y130112D01*
X435645Y130087D01*
X435545Y129987D01*
X435420Y129838D01*
X435220Y129663D01*
X434995Y129463D01*
X434720Y129263D01*
X434420Y129063D01*
X434070Y128888D01*
X434020Y128863D01*
X433895Y128813D01*
X433695Y128763D01*
X433445Y128688D01*
X433120Y128588D01*
X432746Y128538D01*
X432346Y128488D01*
X431896Y128463D01*
X431696D01*
X431446Y128488D01*
X431171Y128513D01*
X430821Y128563D01*
X430446Y128638D01*
X430071Y128738D01*
X429696Y128888D01*
X429646Y128913D01*
X429546Y128963D01*
X429371Y129063D01*
X429146Y129213D01*
X428896Y129388D01*
X428621Y129588D01*
X428347Y129838D01*
X428097Y130112D01*
X428072Y130137D01*
X427997Y130262D01*
X427872Y130412D01*
X427722Y130637D01*
X427572Y130912D01*
X427422Y131237D01*
X427247Y131587D01*
X427122Y131987D01*
Y132012D01*
X427097Y132037D01*
X427072Y132187D01*
X427022Y132412D01*
X426972Y132687D01*
X426897Y133037D01*
X426847Y133437D01*
X426822Y133886D01*
X426797Y134336D01*
Y134361D01*
Y134386D01*
Y134461D01*
Y134561D01*
X426822Y134786D01*
X426847Y135111D01*
X426872Y135461D01*
X426947Y135861D01*
X427022Y136286D01*
X427122Y136686D01*
Y136711D01*
X427147Y136736D01*
X427172Y136861D01*
X427272Y137061D01*
X427372Y137311D01*
X427497Y137611D01*
X427672Y137910D01*
X427872Y138235D01*
X428097Y138535D01*
X428122Y138560D01*
X428222Y138660D01*
X428347Y138810D01*
X428546Y138985D01*
X428772Y139185D01*
X429046Y139410D01*
X429346Y139610D01*
X429696Y139785D01*
X429746Y139810D01*
X429871Y139860D01*
X430071Y139935D01*
X430346Y140010D01*
X430671Y140085D01*
X431046Y140160D01*
X431446Y140210D01*
X431896Y140235D01*
X432096D01*
X432346Y140210D01*
D02*
G37*
G36*
X422448Y123764D02*
X419124Y120765D01*
X433895D01*
Y118540D01*
X419124D01*
X422448Y115541D01*
X420774Y113867D01*
X414975Y119665D01*
X420774Y125439D01*
X422448Y123764D01*
D02*
G37*
G36*
X56933Y442134D02*
X56983Y442034D01*
X57033Y441859D01*
X57133Y441609D01*
X57208Y441309D01*
X57308Y440984D01*
X57408Y440609D01*
X57508Y440209D01*
Y440159D01*
X57533Y440009D01*
X57583Y439784D01*
X57633Y439484D01*
X57658Y439135D01*
X57708Y438735D01*
X57733Y438285D01*
Y437535D01*
X57708Y437335D01*
X57683Y437110D01*
X57658Y436835D01*
X57633Y436535D01*
X57558Y436210D01*
X57408Y435510D01*
X57183Y434786D01*
X57033Y434436D01*
X56858Y434111D01*
X56633Y433786D01*
X56408Y433486D01*
X56383Y433461D01*
X56358Y433411D01*
X56283Y433336D01*
X56158Y433261D01*
X56033Y433136D01*
X55883Y433011D01*
X55683Y432886D01*
X55458Y432736D01*
X55234Y432586D01*
X54959Y432461D01*
X54359Y432211D01*
X54009Y432136D01*
X53659Y432061D01*
X53259Y432011D01*
X52859Y431986D01*
X52809D01*
X52684D01*
X52484Y432011D01*
X52234Y432036D01*
X51934Y432086D01*
X51634Y432136D01*
X51285Y432236D01*
X50960Y432361D01*
X50910Y432386D01*
X50810Y432436D01*
X50660Y432511D01*
X50435Y432636D01*
X50210Y432811D01*
X49960Y432986D01*
X49685Y433211D01*
X49435Y433486D01*
X49410Y433511D01*
X49335Y433611D01*
X49210Y433786D01*
X49085Y433986D01*
X48935Y434261D01*
X48760Y434586D01*
X48610Y434936D01*
X48460Y435336D01*
X48435Y435386D01*
X48410Y435536D01*
X48360Y435760D01*
X48285Y436060D01*
X48210Y436435D01*
X48160Y436885D01*
X48135Y437385D01*
X48110Y437910D01*
Y438385D01*
X48135Y438685D01*
Y438735D01*
X48160Y438910D01*
X48185Y439110D01*
X48210Y439310D01*
X42337D01*
Y442184D01*
X56908D01*
X56933Y442134D01*
D02*
G37*
G36*
X48410Y430362D02*
X48735Y430337D01*
X49085Y430312D01*
X49485Y430237D01*
X49910Y430162D01*
X50310Y430062D01*
X50335D01*
X50360Y430037D01*
X50485Y430012D01*
X50685Y429912D01*
X50935Y429812D01*
X51235Y429687D01*
X51535Y429512D01*
X51859Y429312D01*
X52159Y429087D01*
X52184Y429062D01*
X52284Y428962D01*
X52434Y428837D01*
X52609Y428637D01*
X52809Y428412D01*
X53034Y428137D01*
X53234Y427837D01*
X53409Y427487D01*
X53434Y427438D01*
X53484Y427313D01*
X53559Y427113D01*
X53634Y426838D01*
X53709Y426513D01*
X53784Y426138D01*
X53834Y425738D01*
X53859Y425288D01*
Y425088D01*
X53834Y424838D01*
X53809Y424563D01*
X53759Y424213D01*
X53659Y423863D01*
X53559Y423489D01*
X53409Y423114D01*
X53384Y423064D01*
X53334Y422964D01*
X53234Y422789D01*
X53084Y422564D01*
X52909Y422314D01*
X52684Y422039D01*
X52434Y421764D01*
X52159Y421514D01*
X52134Y421489D01*
X52034Y421414D01*
X51859Y421289D01*
X51634Y421139D01*
X51360Y420989D01*
X51060Y420839D01*
X50710Y420664D01*
X50310Y420539D01*
X50260Y420514D01*
X50135Y420489D01*
X49910Y420439D01*
X49610Y420364D01*
X49260Y420289D01*
X48860Y420239D01*
X48435Y420214D01*
X47961Y420189D01*
X47936D01*
X47910D01*
X47835D01*
X47761D01*
X47511Y420214D01*
X47211Y420239D01*
X46836Y420264D01*
X46436Y420339D01*
X46036Y420414D01*
X45611Y420539D01*
X45561Y420564D01*
X45436Y420589D01*
X45236Y420664D01*
X44986Y420789D01*
X44686Y420914D01*
X44361Y421089D01*
X44036Y421289D01*
X43737Y421514D01*
X43712Y421539D01*
X43612Y421639D01*
X43462Y421764D01*
X43287Y421964D01*
X43087Y422189D01*
X42887Y422464D01*
X42687Y422764D01*
X42512Y423114D01*
X42487Y423164D01*
X42437Y423289D01*
X42387Y423489D01*
X42312Y423739D01*
X42212Y424063D01*
X42162Y424438D01*
X42112Y424838D01*
X42087Y425288D01*
Y425488D01*
X42112Y425738D01*
X42137Y426013D01*
X42187Y426363D01*
X42262Y426738D01*
X42362Y427113D01*
X42512Y427487D01*
X42537Y427537D01*
X42587Y427637D01*
X42687Y427812D01*
X42837Y428037D01*
X43012Y428287D01*
X43212Y428562D01*
X43462Y428837D01*
X43737Y429087D01*
X43762Y429112D01*
X43886Y429187D01*
X44036Y429312D01*
X44261Y429462D01*
X44536Y429612D01*
X44861Y429762D01*
X45211Y429937D01*
X45611Y430062D01*
X45636D01*
X45661Y430087D01*
X45811Y430112D01*
X46036Y430162D01*
X46311Y430212D01*
X46661Y430287D01*
X47061Y430337D01*
X47511Y430362D01*
X47961Y430387D01*
X47986D01*
X48010D01*
X48085D01*
X48185D01*
X48410Y430362D01*
D02*
G37*
G36*
X53609Y415941D02*
X46686Y414316D01*
X46661D01*
X46586Y414291D01*
X46486Y414266D01*
X46361Y414241D01*
X46186Y414216D01*
X46011Y414166D01*
X45586Y414116D01*
X45561D01*
X45486Y414091D01*
X45386D01*
X45286Y414066D01*
X45036Y414041D01*
X44936D01*
X44861D01*
Y413991D01*
X44886D01*
X45011Y413966D01*
X45086Y413941D01*
X45211Y413916D01*
X45361Y413891D01*
X45536Y413866D01*
X45561D01*
X45636Y413841D01*
X45736D01*
X45886Y413816D01*
X46036Y413766D01*
X46236Y413716D01*
X46686Y413616D01*
X53609Y411792D01*
Y409167D01*
X46686Y407368D01*
X46661D01*
X46586Y407343D01*
X46461Y407318D01*
X46311Y407268D01*
X45936Y407193D01*
X45536Y407118D01*
X45511D01*
X45461Y407093D01*
X45361D01*
X45261Y407068D01*
X45036Y407018D01*
X44936Y406993D01*
X44861Y406968D01*
Y406943D01*
X44886D01*
X45011Y406918D01*
X45086D01*
X45211Y406893D01*
X45361D01*
X45536Y406868D01*
X45561D01*
X45636Y406843D01*
X45736D01*
X45886Y406818D01*
X46036Y406768D01*
X46236Y406743D01*
X46686Y406643D01*
X53609Y405043D01*
Y402169D01*
X42337Y405443D01*
Y408392D01*
X48735Y410142D01*
X48760D01*
X48835Y410167D01*
X48960Y410192D01*
X49085Y410242D01*
X49435Y410317D01*
X49810Y410392D01*
X49835D01*
X49885D01*
X49960Y410417D01*
X50060D01*
X50285Y410442D01*
X50360D01*
X50435D01*
Y410492D01*
X50385D01*
X50260Y410517D01*
X50035Y410567D01*
X49735Y410617D01*
X49710D01*
X49660Y410642D01*
X49560D01*
X49435Y410667D01*
X49285Y410692D01*
X49135Y410742D01*
X48735Y410842D01*
X42337Y412566D01*
Y415516D01*
X53609Y418790D01*
Y415941D01*
D02*
G37*
G36*
X48435Y400769D02*
X48735Y400744D01*
X49110Y400719D01*
X49510Y400644D01*
X49935Y400569D01*
X50335Y400444D01*
X50360D01*
X50385Y400420D01*
X50510Y400369D01*
X50735Y400294D01*
X50985Y400195D01*
X51285Y400045D01*
X51585Y399870D01*
X51909Y399645D01*
X52209Y399420D01*
X52234Y399395D01*
X52334Y399295D01*
X52484Y399145D01*
X52659Y398970D01*
X52834Y398720D01*
X53034Y398445D01*
X53234Y398120D01*
X53409Y397770D01*
X53434Y397720D01*
X53484Y397595D01*
X53559Y397395D01*
X53634Y397120D01*
X53709Y396795D01*
X53784Y396421D01*
X53834Y396021D01*
X53859Y395571D01*
Y395371D01*
X53834Y395146D01*
X53809Y394871D01*
X53759Y394546D01*
X53709Y394196D01*
X53609Y393846D01*
X53484Y393496D01*
X53459Y393446D01*
X53409Y393346D01*
X53334Y393171D01*
X53209Y392971D01*
X53059Y392721D01*
X52884Y392472D01*
X52684Y392222D01*
X52434Y391997D01*
X52409Y391972D01*
X52309Y391897D01*
X52159Y391772D01*
X51984Y391647D01*
X51734Y391497D01*
X51460Y391322D01*
X51160Y391172D01*
X50810Y391047D01*
X50760Y391022D01*
X50660Y390997D01*
X50460Y390947D01*
X50210Y390872D01*
X49910Y390822D01*
X49535Y390772D01*
X49160Y390747D01*
X48735Y390722D01*
X48235D01*
X48185D01*
X48085D01*
X47936Y390747D01*
X47761Y390772D01*
X46786Y398020D01*
X46761D01*
X46736D01*
X46586Y397970D01*
X46361Y397920D01*
X46086Y397820D01*
X45786Y397670D01*
X45461Y397495D01*
X45161Y397270D01*
X44911Y396995D01*
X44886Y396945D01*
X44811Y396845D01*
X44711Y396670D01*
X44611Y396421D01*
X44511Y396121D01*
X44411Y395771D01*
X44336Y395346D01*
X44311Y394896D01*
Y394571D01*
X44336Y394371D01*
X44361Y394121D01*
X44386Y393821D01*
X44511Y393221D01*
Y393171D01*
X44536Y393071D01*
X44586Y392921D01*
X44661Y392721D01*
X44711Y392496D01*
X44811Y392247D01*
X45011Y391772D01*
X42887Y390947D01*
X42862Y390972D01*
X42837Y391072D01*
X42762Y391222D01*
X42687Y391447D01*
X42587Y391722D01*
X42487Y392022D01*
X42412Y392371D01*
X42312Y392771D01*
Y392821D01*
X42287Y392971D01*
X42237Y393196D01*
X42212Y393471D01*
X42162Y393821D01*
X42112Y394221D01*
X42087Y394671D01*
Y395346D01*
X42112Y395621D01*
X42137Y395946D01*
X42187Y396345D01*
X42262Y396745D01*
X42362Y397170D01*
X42512Y397570D01*
X42537Y397620D01*
X42587Y397745D01*
X42687Y397945D01*
X42812Y398195D01*
X42987Y398470D01*
X43187Y398770D01*
X43437Y399070D01*
X43712Y399345D01*
X43737Y399370D01*
X43861Y399470D01*
X44012Y399595D01*
X44236Y399745D01*
X44511Y399920D01*
X44836Y400120D01*
X45186Y400294D01*
X45586Y400444D01*
X45611D01*
X45636Y400470D01*
X45786Y400494D01*
X46011Y400544D01*
X46286Y400619D01*
X46661Y400694D01*
X47061Y400744D01*
X47486Y400769D01*
X47961Y400794D01*
X47986D01*
X48010D01*
X48085D01*
X48185D01*
X48435Y400769D01*
D02*
G37*
G36*
X53059Y388498D02*
X53084Y388397D01*
X53159Y388198D01*
X53234Y387973D01*
X53334Y387673D01*
X53434Y387323D01*
X53509Y386948D01*
X53609Y386523D01*
Y386473D01*
X53659Y386323D01*
X53684Y386073D01*
X53734Y385748D01*
X53784Y385373D01*
X53809Y384948D01*
X53859Y384449D01*
Y383699D01*
X53834Y383424D01*
X53809Y383149D01*
Y383074D01*
X53784Y382924D01*
Y382724D01*
X53759Y382499D01*
X51385Y383024D01*
Y383049D01*
X51410Y383124D01*
X51435Y383224D01*
X51485Y383399D01*
X51509Y383574D01*
X51535Y383799D01*
X51560Y384024D01*
Y384548D01*
X51535Y384799D01*
X51485Y385073D01*
Y385123D01*
X51435Y385298D01*
X51385Y385498D01*
X51310Y385723D01*
X42337D01*
Y388548D01*
X53034D01*
X53059Y388498D01*
D02*
G37*
G36*
X57458Y372452D02*
X42337D01*
Y375401D01*
X57458D01*
Y372452D01*
D02*
G37*
G36*
X53059Y369727D02*
X53084Y369627D01*
X53159Y369427D01*
X53234Y369202D01*
X53334Y368903D01*
X53434Y368553D01*
X53509Y368203D01*
X53609Y367803D01*
Y367753D01*
X53659Y367603D01*
X53684Y367378D01*
X53734Y367078D01*
X53784Y366703D01*
X53809Y366278D01*
X53859Y365803D01*
Y365028D01*
X53834Y364854D01*
Y364654D01*
X53809Y364429D01*
X53784Y364154D01*
X53734Y363879D01*
X53609Y363254D01*
X53434Y362654D01*
X53184Y362079D01*
X53034Y361804D01*
X52859Y361579D01*
Y361554D01*
X52809Y361529D01*
X52684Y361404D01*
X52459Y361204D01*
X52134Y360980D01*
X51734Y360780D01*
X51260Y360580D01*
X50685Y360455D01*
X50360Y360405D01*
X50035D01*
X42337D01*
Y363254D01*
X49760D01*
X49810D01*
X49910D01*
X50060Y363279D01*
X50235Y363304D01*
X50460Y363379D01*
X50685Y363454D01*
X50885Y363579D01*
X51085Y363754D01*
X51110Y363779D01*
X51160Y363854D01*
X51235Y363954D01*
X51335Y364129D01*
X51410Y364329D01*
X51485Y364604D01*
X51535Y364904D01*
X51560Y365253D01*
Y365553D01*
X51535Y365853D01*
X51485Y366203D01*
Y366278D01*
X51460Y366353D01*
X51435Y366453D01*
X51385Y366703D01*
X51310Y366953D01*
X42337D01*
Y369777D01*
X53034D01*
X53059Y369727D01*
D02*
G37*
G36*
Y357805D02*
X53084Y357705D01*
X53159Y357580D01*
X53234Y357380D01*
X53309Y357131D01*
X53409Y356831D01*
X53509Y356506D01*
X53609Y356106D01*
Y356056D01*
X53659Y355906D01*
X53684Y355681D01*
X53734Y355406D01*
X53784Y355031D01*
X53809Y354631D01*
X53859Y354206D01*
Y353456D01*
X53834Y353282D01*
X53809Y353057D01*
X53784Y352782D01*
X53734Y352482D01*
X53659Y352182D01*
X53484Y351507D01*
X53359Y351157D01*
X53209Y350807D01*
X53034Y350457D01*
X52809Y350132D01*
X52584Y349807D01*
X52309Y349533D01*
X52284Y349507D01*
X52234Y349458D01*
X52159Y349408D01*
X52034Y349308D01*
X51859Y349208D01*
X51684Y349083D01*
X51460Y348933D01*
X51210Y348808D01*
X50910Y348683D01*
X50585Y348533D01*
X50235Y348408D01*
X49860Y348308D01*
X49435Y348208D01*
X48985Y348133D01*
X48510Y348108D01*
X48010Y348083D01*
X47986D01*
X47961D01*
X47885D01*
X47786D01*
X47536Y348108D01*
X47236Y348133D01*
X46861Y348158D01*
X46461Y348233D01*
X46036Y348308D01*
X45636Y348433D01*
X45586Y348458D01*
X45461Y348483D01*
X45261Y348583D01*
X45011Y348683D01*
X44711Y348808D01*
X44411Y348983D01*
X44086Y349183D01*
X43787Y349432D01*
X43762Y349458D01*
X43662Y349557D01*
X43537Y349707D01*
X43362Y349882D01*
X43162Y350132D01*
X42987Y350407D01*
X42787Y350732D01*
X42612Y351082D01*
X42587Y351132D01*
X42562Y351257D01*
X42487Y351457D01*
X42412Y351732D01*
X42337Y352057D01*
X42287Y352457D01*
X42237Y352882D01*
X42212Y353357D01*
Y353656D01*
X42237Y353956D01*
X42287Y354281D01*
Y354356D01*
X42312Y354431D01*
X42337Y354531D01*
X42387Y354781D01*
X42462Y355006D01*
X37863D01*
Y357830D01*
X53034D01*
X53059Y357805D01*
D02*
G37*
G36*
X53609Y343109D02*
X46186D01*
X46161D01*
X46111D01*
X46011Y343084D01*
X45911D01*
X45636Y343009D01*
X45311Y342859D01*
X45136Y342759D01*
X44961Y342634D01*
X44811Y342484D01*
X44686Y342284D01*
X44586Y342084D01*
X44486Y341810D01*
X44436Y341535D01*
X44411Y341185D01*
Y340860D01*
X44436Y340560D01*
X44486Y340235D01*
Y340210D01*
X44511Y340160D01*
Y340085D01*
X44536Y339985D01*
X44586Y339760D01*
X44661Y339535D01*
X53609D01*
Y336686D01*
X42887D01*
Y336711D01*
X42862Y336761D01*
X42837Y336836D01*
X42787Y336936D01*
X42687Y337236D01*
X42562Y337586D01*
Y337611D01*
X42537Y337660D01*
X42512Y337785D01*
X42487Y337910D01*
X42437Y338060D01*
X42387Y338260D01*
X42312Y338685D01*
Y338710D01*
X42287Y338785D01*
Y338910D01*
X42262Y339060D01*
X42237Y339235D01*
X42212Y339435D01*
X42162Y339910D01*
Y340010D01*
X42137Y340135D01*
Y340310D01*
X42112Y340485D01*
Y340710D01*
X42087Y341185D01*
Y341410D01*
X42112Y341559D01*
Y341759D01*
X42137Y341984D01*
X42212Y342509D01*
X42337Y343084D01*
X42487Y343684D01*
X42737Y344234D01*
X42887Y344484D01*
X43062Y344734D01*
Y344759D01*
X43112Y344784D01*
X43262Y344909D01*
X43362Y345009D01*
X43487Y345109D01*
X43637Y345209D01*
X43836Y345334D01*
X44036Y345434D01*
X44261Y345559D01*
X44536Y345658D01*
X44811Y345733D01*
X45136Y345833D01*
X45486Y345883D01*
X45861Y345908D01*
X46261Y345933D01*
X53609D01*
Y343109D01*
D02*
G37*
G36*
X30165Y332637D02*
X33164Y335986D01*
X34839Y334286D01*
X29065Y328488D01*
X23267Y334286D01*
X24941Y335986D01*
X27941Y332637D01*
Y347383D01*
X30165D01*
Y332637D01*
D02*
G37*
G36*
X53609Y333387D02*
X56108D01*
X56933Y330587D01*
X53609D01*
Y328488D01*
X51460D01*
Y330587D01*
X45911D01*
X45886D01*
X45786D01*
X45686Y330562D01*
X45536Y330537D01*
X45361Y330487D01*
X45211Y330437D01*
X45061Y330337D01*
X44936Y330212D01*
Y330187D01*
X44886Y330137D01*
X44861Y330062D01*
X44811Y329963D01*
X44761Y329813D01*
X44711Y329663D01*
X44686Y329488D01*
X44661Y329288D01*
Y329138D01*
X44686Y329013D01*
X44711Y328838D01*
Y328788D01*
X44736Y328713D01*
X44786Y328588D01*
X44836Y328488D01*
X42462D01*
X42437Y328538D01*
X42387Y328663D01*
X42337Y328888D01*
X42262Y329213D01*
Y329288D01*
X42237Y329388D01*
Y329513D01*
X42212Y329813D01*
X42187Y330187D01*
Y330337D01*
X42212Y330462D01*
X42237Y330737D01*
X42287Y331112D01*
X42412Y331512D01*
X42562Y331912D01*
X42762Y332287D01*
X43062Y332612D01*
X43112Y332637D01*
X43237Y332737D01*
X43437Y332862D01*
X43712Y332987D01*
X44086Y333137D01*
X44561Y333262D01*
X45086Y333362D01*
X45711Y333387D01*
X51460D01*
Y334836D01*
X53609D01*
Y333387D01*
D02*
G37*
G36*
X1045462Y360002D02*
X1034790D01*
X1034740D01*
X1034615D01*
X1034440Y359977D01*
X1034215Y359927D01*
X1033965Y359852D01*
X1033715Y359727D01*
X1033440Y359577D01*
X1033215Y359377D01*
X1033191Y359352D01*
X1033116Y359252D01*
X1033041Y359127D01*
X1032941Y358927D01*
X1032816Y358703D01*
X1032741Y358428D01*
X1032666Y358128D01*
X1032641Y357803D01*
Y357653D01*
X1032666Y357478D01*
X1032716Y357253D01*
X1032791Y357003D01*
X1032891Y356728D01*
X1033016Y356478D01*
X1033215Y356228D01*
X1033241Y356203D01*
X1033316Y356128D01*
X1033440Y356028D01*
X1033640Y355903D01*
X1033865Y355778D01*
X1034115Y355678D01*
X1034440Y355603D01*
X1034790Y355578D01*
X1045462D01*
Y352629D01*
X1034815D01*
X1034765D01*
X1034615D01*
X1034415Y352654D01*
X1034140Y352679D01*
X1033815Y352729D01*
X1033465Y352804D01*
X1033141Y352904D01*
X1032791Y353029D01*
X1032766Y353054D01*
X1032641Y353104D01*
X1032491Y353204D01*
X1032291Y353304D01*
X1032066Y353479D01*
X1031816Y353654D01*
X1031566Y353879D01*
X1031341Y354129D01*
X1031316Y354154D01*
X1031241Y354254D01*
X1031141Y354404D01*
X1031016Y354579D01*
X1030866Y354828D01*
X1030716Y355103D01*
X1030566Y355403D01*
X1030441Y355753D01*
Y355803D01*
X1030391Y355903D01*
X1030341Y356103D01*
X1030291Y356353D01*
X1030241Y356653D01*
X1030191Y357003D01*
X1030166Y357403D01*
X1030141Y357803D01*
Y357978D01*
X1030166Y358203D01*
X1030191Y358478D01*
X1030216Y358778D01*
X1030266Y359127D01*
X1030341Y359502D01*
X1030441Y359852D01*
X1030466Y359902D01*
X1030491Y360002D01*
X1030566Y360177D01*
X1030666Y360402D01*
X1030791Y360652D01*
X1030941Y360927D01*
X1031141Y361202D01*
X1031341Y361477D01*
X1031366Y361502D01*
X1031441Y361602D01*
X1031566Y361727D01*
X1031741Y361877D01*
X1031966Y362052D01*
X1032216Y362227D01*
X1032491Y362402D01*
X1032791Y362576D01*
X1032841Y362602D01*
X1032941Y362626D01*
X1033141Y362701D01*
X1033365Y362752D01*
X1033665Y362826D01*
X1034015Y362901D01*
X1034390Y362926D01*
X1034815Y362951D01*
X1045462D01*
Y360002D01*
D02*
G37*
G36*
X1041064Y349905D02*
X1041088Y349805D01*
X1041163Y349680D01*
X1041238Y349480D01*
X1041313Y349230D01*
X1041413Y348930D01*
X1041513Y348605D01*
X1041613Y348205D01*
Y348155D01*
X1041663Y348005D01*
X1041688Y347780D01*
X1041738Y347505D01*
X1041788Y347131D01*
X1041813Y346731D01*
X1041863Y346306D01*
Y345556D01*
X1041838Y345381D01*
X1041813Y345156D01*
X1041788Y344881D01*
X1041738Y344581D01*
X1041663Y344281D01*
X1041488Y343606D01*
X1041363Y343256D01*
X1041214Y342907D01*
X1041039Y342557D01*
X1040814Y342232D01*
X1040589Y341907D01*
X1040314Y341632D01*
X1040289Y341607D01*
X1040239Y341557D01*
X1040164Y341507D01*
X1040039Y341407D01*
X1039864Y341307D01*
X1039689Y341182D01*
X1039464Y341032D01*
X1039214Y340907D01*
X1038914Y340782D01*
X1038589Y340632D01*
X1038239Y340507D01*
X1037864Y340407D01*
X1037439Y340307D01*
X1036990Y340232D01*
X1036515Y340207D01*
X1036015Y340182D01*
X1035990D01*
X1035965D01*
X1035890D01*
X1035790D01*
X1035540Y340207D01*
X1035240Y340232D01*
X1034865Y340257D01*
X1034465Y340332D01*
X1034040Y340407D01*
X1033640Y340532D01*
X1033590Y340557D01*
X1033465Y340582D01*
X1033266Y340682D01*
X1033016Y340782D01*
X1032716Y340907D01*
X1032416Y341082D01*
X1032091Y341282D01*
X1031791Y341532D01*
X1031766Y341557D01*
X1031666Y341657D01*
X1031541Y341807D01*
X1031366Y341982D01*
X1031166Y342232D01*
X1030991Y342507D01*
X1030791Y342832D01*
X1030616Y343181D01*
X1030591Y343232D01*
X1030566Y343357D01*
X1030491Y343556D01*
X1030416Y343831D01*
X1030341Y344156D01*
X1030291Y344556D01*
X1030241Y344981D01*
X1030216Y345456D01*
Y345756D01*
X1030241Y346056D01*
X1030291Y346381D01*
Y346456D01*
X1030316Y346531D01*
X1030341Y346631D01*
X1030391Y346881D01*
X1030466Y347105D01*
X1025867D01*
Y349930D01*
X1041039D01*
X1041064Y349905D01*
D02*
G37*
G36*
X1033066Y337758D02*
X1033041Y337733D01*
X1033016Y337658D01*
X1032966Y337533D01*
X1032891Y337383D01*
X1032816Y337183D01*
X1032716Y336958D01*
X1032541Y336458D01*
Y336433D01*
X1032516Y336333D01*
X1032491Y336183D01*
X1032441Y336008D01*
X1032416Y335808D01*
X1032366Y335583D01*
X1032341Y335109D01*
Y334984D01*
X1032366Y334834D01*
X1032391Y334659D01*
X1032491Y334259D01*
X1032566Y334059D01*
X1032666Y333884D01*
X1032691Y333859D01*
X1032741Y333809D01*
X1032816Y333734D01*
X1032916Y333634D01*
X1033041Y333559D01*
X1033191Y333484D01*
X1033365Y333434D01*
X1033565Y333409D01*
X1033590D01*
X1033665D01*
X1033790Y333434D01*
X1033915Y333459D01*
X1034065Y333534D01*
X1034240Y333609D01*
X1034390Y333734D01*
X1034515Y333909D01*
X1034540Y333934D01*
X1034565Y334009D01*
X1034640Y334109D01*
X1034715Y334259D01*
X1034815Y334434D01*
X1034915Y334634D01*
X1035015Y334884D01*
X1035115Y335159D01*
Y335184D01*
X1035140Y335258D01*
X1035190Y335359D01*
X1035240Y335508D01*
X1035315Y335683D01*
X1035390Y335858D01*
X1035565Y336283D01*
Y336308D01*
X1035615Y336383D01*
X1035665Y336483D01*
X1035740Y336608D01*
X1035940Y336958D01*
X1036190Y337308D01*
X1036215Y337333D01*
X1036265Y337383D01*
X1036340Y337483D01*
X1036440Y337583D01*
X1036590Y337708D01*
X1036740Y337833D01*
X1037114Y338083D01*
X1037140D01*
X1037215Y338133D01*
X1037339Y338183D01*
X1037514Y338233D01*
X1037714Y338283D01*
X1037964Y338333D01*
X1038239Y338358D01*
X1038539Y338383D01*
X1038564D01*
X1038614D01*
X1038689D01*
X1038789Y338358D01*
X1039064Y338333D01*
X1039414Y338258D01*
X1039789Y338108D01*
X1040189Y337933D01*
X1040589Y337658D01*
X1040764Y337508D01*
X1040939Y337308D01*
Y337283D01*
X1040988Y337258D01*
X1041088Y337108D01*
X1041238Y336858D01*
X1041413Y336508D01*
X1041563Y336083D01*
X1041713Y335559D01*
X1041813Y334934D01*
X1041863Y334234D01*
Y333884D01*
X1041838Y333634D01*
X1041813Y333359D01*
X1041788Y333059D01*
X1041663Y332384D01*
Y332334D01*
X1041638Y332234D01*
X1041588Y332059D01*
X1041513Y331834D01*
X1041413Y331585D01*
X1041313Y331310D01*
X1041039Y330760D01*
X1039089Y331634D01*
X1039114Y331660D01*
X1039139Y331709D01*
X1039189Y331834D01*
X1039264Y331959D01*
X1039339Y332109D01*
X1039414Y332309D01*
X1039564Y332709D01*
Y332734D01*
X1039589Y332809D01*
X1039614Y332934D01*
X1039664Y333059D01*
X1039689Y333259D01*
X1039714Y333434D01*
X1039739Y333884D01*
Y334009D01*
X1039714Y334134D01*
X1039689Y334309D01*
X1039589Y334684D01*
X1039514Y334884D01*
X1039389Y335059D01*
X1039364Y335084D01*
X1039339Y335109D01*
X1039264Y335184D01*
X1039164Y335258D01*
X1038914Y335383D01*
X1038739Y335434D01*
X1038564Y335458D01*
X1038539D01*
X1038514D01*
X1038364Y335434D01*
X1038164Y335383D01*
X1037964Y335308D01*
X1037939Y335284D01*
X1037839Y335209D01*
X1037689Y335084D01*
X1037564Y334909D01*
X1037539Y334859D01*
X1037464Y334734D01*
X1037365Y334559D01*
X1037240Y334359D01*
Y334334D01*
X1037215Y334309D01*
X1037165Y334159D01*
X1037089Y333959D01*
X1037015Y333709D01*
Y333684D01*
X1036965Y333609D01*
X1036940Y333509D01*
X1036865Y333359D01*
X1036790Y333184D01*
X1036715Y333009D01*
X1036540Y332584D01*
Y332559D01*
X1036490Y332484D01*
X1036440Y332384D01*
X1036390Y332234D01*
X1036190Y331909D01*
X1035915Y331535D01*
X1035890Y331510D01*
X1035840Y331460D01*
X1035765Y331359D01*
X1035665Y331260D01*
X1035515Y331135D01*
X1035365Y331010D01*
X1034965Y330760D01*
X1034940Y330735D01*
X1034865Y330710D01*
X1034740Y330660D01*
X1034590Y330610D01*
X1034390Y330560D01*
X1034140Y330510D01*
X1033865Y330460D01*
X1033565D01*
X1033540D01*
X1033491D01*
X1033416D01*
X1033316Y330485D01*
X1033016Y330510D01*
X1032666Y330610D01*
X1032266Y330735D01*
X1031841Y330935D01*
X1031416Y331235D01*
X1031216Y331409D01*
X1031041Y331609D01*
Y331634D01*
X1030991Y331660D01*
X1030966Y331734D01*
X1030891Y331834D01*
X1030816Y331934D01*
X1030741Y332084D01*
X1030666Y332259D01*
X1030566Y332459D01*
X1030466Y332684D01*
X1030391Y332959D01*
X1030316Y333234D01*
X1030241Y333534D01*
X1030191Y333884D01*
X1030141Y334234D01*
X1030091Y334609D01*
Y335409D01*
X1030116Y335658D01*
X1030141Y335933D01*
X1030166Y336258D01*
X1030291Y336958D01*
Y337008D01*
X1030341Y337108D01*
X1030366Y337283D01*
X1030441Y337508D01*
X1030516Y337783D01*
X1030641Y338058D01*
X1030891Y338683D01*
X1033066Y337758D01*
D02*
G37*
G36*
X1063858Y332772D02*
X1053185D01*
X1053135D01*
X1053010D01*
X1052835Y332747D01*
X1052611Y332697D01*
X1052361Y332622D01*
X1052111Y332497D01*
X1051836Y332347D01*
X1051611Y332147D01*
X1051586Y332122D01*
X1051511Y332022D01*
X1051436Y331897D01*
X1051336Y331697D01*
X1051211Y331472D01*
X1051136Y331197D01*
X1051061Y330897D01*
X1051036Y330572D01*
Y330422D01*
X1051061Y330247D01*
X1051111Y330022D01*
X1051186Y329772D01*
X1051286Y329497D01*
X1051411Y329248D01*
X1051611Y328998D01*
X1051636Y328973D01*
X1051711Y328898D01*
X1051836Y328798D01*
X1052036Y328673D01*
X1052261Y328548D01*
X1052511Y328448D01*
X1052835Y328373D01*
X1053185Y328348D01*
X1063858D01*
Y325399D01*
X1053210D01*
X1053160D01*
X1053010D01*
X1052811Y325424D01*
X1052536Y325448D01*
X1052211Y325499D01*
X1051861Y325574D01*
X1051536Y325673D01*
X1051186Y325798D01*
X1051161Y325824D01*
X1051036Y325873D01*
X1050886Y325973D01*
X1050686Y326073D01*
X1050461Y326248D01*
X1050211Y326423D01*
X1049961Y326648D01*
X1049736Y326898D01*
X1049711Y326923D01*
X1049636Y327023D01*
X1049536Y327173D01*
X1049411Y327348D01*
X1049261Y327598D01*
X1049111Y327873D01*
X1048961Y328173D01*
X1048837Y328523D01*
Y328573D01*
X1048786Y328673D01*
X1048737Y328873D01*
X1048687Y329123D01*
X1048637Y329422D01*
X1048587Y329772D01*
X1048562Y330172D01*
X1048537Y330572D01*
Y330747D01*
X1048562Y330972D01*
X1048587Y331247D01*
X1048612Y331547D01*
X1048662Y331897D01*
X1048737Y332272D01*
X1048837Y332622D01*
X1048861Y332672D01*
X1048886Y332772D01*
X1048961Y332947D01*
X1049062Y333172D01*
X1049186Y333422D01*
X1049336Y333696D01*
X1049536Y333971D01*
X1049736Y334246D01*
X1049761Y334271D01*
X1049836Y334371D01*
X1049961Y334496D01*
X1050136Y334646D01*
X1050361Y334821D01*
X1050611Y334996D01*
X1050886Y335171D01*
X1051186Y335346D01*
X1051236Y335371D01*
X1051336Y335396D01*
X1051536Y335471D01*
X1051761Y335521D01*
X1052061Y335596D01*
X1052411Y335671D01*
X1052785Y335696D01*
X1053210Y335721D01*
X1063858D01*
Y332772D01*
D02*
G37*
G36*
X1041613Y327611D02*
X1044113D01*
X1044938Y324811D01*
X1041613D01*
Y322712D01*
X1039464D01*
Y324811D01*
X1033915D01*
X1033890D01*
X1033790D01*
X1033690Y324786D01*
X1033540Y324761D01*
X1033365Y324711D01*
X1033215Y324661D01*
X1033066Y324561D01*
X1032941Y324436D01*
Y324411D01*
X1032891Y324361D01*
X1032866Y324286D01*
X1032816Y324186D01*
X1032766Y324036D01*
X1032716Y323886D01*
X1032691Y323712D01*
X1032666Y323512D01*
Y323362D01*
X1032691Y323237D01*
X1032716Y323062D01*
Y323012D01*
X1032741Y322937D01*
X1032791Y322812D01*
X1032841Y322712D01*
X1030466D01*
X1030441Y322762D01*
X1030391Y322887D01*
X1030341Y323112D01*
X1030266Y323437D01*
Y323512D01*
X1030241Y323611D01*
Y323736D01*
X1030216Y324036D01*
X1030191Y324411D01*
Y324561D01*
X1030216Y324686D01*
X1030241Y324961D01*
X1030291Y325336D01*
X1030416Y325736D01*
X1030566Y326136D01*
X1030766Y326511D01*
X1031066Y326836D01*
X1031116Y326861D01*
X1031241Y326961D01*
X1031441Y327086D01*
X1031716Y327211D01*
X1032091Y327361D01*
X1032566Y327486D01*
X1033091Y327585D01*
X1033715Y327611D01*
X1039464D01*
Y329060D01*
X1041613D01*
Y327611D01*
D02*
G37*
G36*
X1041064Y320612D02*
X1041088Y320512D01*
X1041163Y320312D01*
X1041238Y320087D01*
X1041339Y319788D01*
X1041438Y319438D01*
X1041513Y319063D01*
X1041613Y318638D01*
Y318588D01*
X1041663Y318438D01*
X1041688Y318188D01*
X1041738Y317863D01*
X1041788Y317488D01*
X1041813Y317063D01*
X1041863Y316563D01*
Y315814D01*
X1041838Y315539D01*
X1041813Y315264D01*
Y315189D01*
X1041788Y315039D01*
Y314839D01*
X1041763Y314614D01*
X1039389Y315139D01*
Y315164D01*
X1039414Y315239D01*
X1039439Y315339D01*
X1039489Y315514D01*
X1039514Y315688D01*
X1039539Y315914D01*
X1039564Y316138D01*
Y316663D01*
X1039539Y316913D01*
X1039489Y317188D01*
Y317238D01*
X1039439Y317413D01*
X1039389Y317613D01*
X1039314Y317838D01*
X1030341D01*
Y320662D01*
X1041039D01*
X1041064Y320612D01*
D02*
G37*
G36*
X1051836Y322249D02*
Y322224D01*
X1051786Y322149D01*
X1051736Y322024D01*
X1051661Y321850D01*
X1051586Y321650D01*
X1051511Y321425D01*
X1051336Y320925D01*
Y320900D01*
X1051311Y320800D01*
X1051286Y320650D01*
X1051236Y320475D01*
X1051211Y320250D01*
X1051161Y320000D01*
X1051136Y319475D01*
Y319300D01*
X1051161Y319100D01*
X1051211Y318850D01*
X1051261Y318600D01*
X1051336Y318325D01*
X1051461Y318050D01*
X1051636Y317801D01*
X1051661Y317775D01*
X1051736Y317701D01*
X1051836Y317601D01*
X1051986Y317476D01*
X1052186Y317376D01*
X1052411Y317276D01*
X1052661Y317201D01*
X1052961Y317176D01*
X1052986D01*
X1053061D01*
X1053185Y317201D01*
X1053335Y317226D01*
X1053510Y317276D01*
X1053685Y317376D01*
X1053860Y317476D01*
X1054035Y317626D01*
X1054060Y317651D01*
X1054110Y317701D01*
X1054185Y317801D01*
X1054310Y317925D01*
X1054435Y318075D01*
X1054560Y318250D01*
X1054710Y318475D01*
X1054835Y318700D01*
X1054860Y318725D01*
X1054910Y318825D01*
X1054985Y318950D01*
X1055060Y319125D01*
X1055185Y319325D01*
X1055310Y319575D01*
X1055560Y320125D01*
X1055585Y320150D01*
X1055635Y320250D01*
X1055710Y320400D01*
X1055810Y320575D01*
X1055935Y320800D01*
X1056110Y321025D01*
X1056460Y321525D01*
X1056485Y321549D01*
X1056560Y321624D01*
X1056659Y321749D01*
X1056809Y321899D01*
X1057009Y322074D01*
X1057209Y322249D01*
X1057459Y322449D01*
X1057734Y322624D01*
X1057759Y322649D01*
X1057884Y322699D01*
X1058034Y322749D01*
X1058259Y322824D01*
X1058534Y322924D01*
X1058859Y322974D01*
X1059234Y323024D01*
X1059634Y323049D01*
X1059684D01*
X1059809D01*
X1060009Y323024D01*
X1060259Y322999D01*
X1060534Y322974D01*
X1060859Y322899D01*
X1061158Y322824D01*
X1061483Y322699D01*
X1061508Y322674D01*
X1061633Y322624D01*
X1061783Y322549D01*
X1061958Y322449D01*
X1062183Y322299D01*
X1062433Y322149D01*
X1062658Y321949D01*
X1062883Y321725D01*
X1062908Y321699D01*
X1062983Y321600D01*
X1063083Y321475D01*
X1063233Y321275D01*
X1063383Y321050D01*
X1063533Y320800D01*
X1063683Y320500D01*
X1063808Y320175D01*
X1063833Y320125D01*
X1063858Y320000D01*
X1063908Y319825D01*
X1063983Y319575D01*
X1064033Y319275D01*
X1064083Y318925D01*
X1064108Y318525D01*
X1064133Y318125D01*
Y317750D01*
X1064108Y317501D01*
X1064083Y317201D01*
X1064033Y316876D01*
X1063908Y316201D01*
Y316151D01*
X1063883Y316051D01*
X1063833Y315876D01*
X1063758Y315676D01*
X1063683Y315426D01*
X1063583Y315151D01*
X1063308Y314601D01*
X1060933Y315526D01*
X1060958Y315551D01*
X1060983Y315626D01*
X1061033Y315726D01*
X1061108Y315876D01*
X1061183Y316026D01*
X1061258Y316226D01*
X1061408Y316676D01*
Y316701D01*
X1061433Y316776D01*
X1061458Y316901D01*
X1061508Y317076D01*
X1061533Y317276D01*
X1061558Y317501D01*
X1061583Y318001D01*
Y318150D01*
X1061558Y318350D01*
X1061533Y318550D01*
X1061458Y318800D01*
X1061383Y319075D01*
X1061258Y319325D01*
X1061083Y319550D01*
X1061058Y319575D01*
X1061008Y319625D01*
X1060883Y319725D01*
X1060759Y319825D01*
X1060558Y319925D01*
X1060359Y320025D01*
X1060084Y320075D01*
X1059809Y320100D01*
X1059784D01*
X1059709D01*
X1059584Y320075D01*
X1059434Y320050D01*
X1059259Y320000D01*
X1059084Y319925D01*
X1058909Y319825D01*
X1058734Y319675D01*
X1058709Y319650D01*
X1058659Y319600D01*
X1058584Y319500D01*
X1058484Y319375D01*
X1058359Y319200D01*
X1058209Y319025D01*
X1057934Y318575D01*
X1057909Y318550D01*
X1057859Y318450D01*
X1057784Y318325D01*
X1057709Y318150D01*
X1057584Y317925D01*
X1057459Y317675D01*
X1057184Y317126D01*
X1057159Y317101D01*
X1057109Y317001D01*
X1057034Y316851D01*
X1056935Y316651D01*
X1056785Y316426D01*
X1056635Y316201D01*
X1056260Y315701D01*
X1056235Y315676D01*
X1056160Y315576D01*
X1056060Y315476D01*
X1055910Y315301D01*
X1055710Y315126D01*
X1055510Y314951D01*
X1055260Y314776D01*
X1054985Y314601D01*
X1054960Y314576D01*
X1054860Y314526D01*
X1054685Y314451D01*
X1054460Y314376D01*
X1054210Y314301D01*
X1053885Y314226D01*
X1053510Y314176D01*
X1053110Y314151D01*
X1053061D01*
X1052935D01*
X1052736Y314176D01*
X1052486Y314201D01*
X1052186Y314226D01*
X1051861Y314301D01*
X1051536Y314376D01*
X1051211Y314501D01*
X1051186Y314526D01*
X1051061Y314576D01*
X1050911Y314651D01*
X1050711Y314751D01*
X1050486Y314901D01*
X1050261Y315076D01*
X1050011Y315276D01*
X1049761Y315526D01*
X1049736Y315551D01*
X1049661Y315651D01*
X1049536Y315776D01*
X1049411Y315976D01*
X1049261Y316201D01*
X1049087Y316476D01*
X1048936Y316801D01*
X1048811Y317151D01*
X1048786Y317201D01*
X1048762Y317326D01*
X1048712Y317526D01*
X1048662Y317775D01*
X1048587Y318100D01*
X1048537Y318475D01*
X1048512Y318875D01*
X1048487Y319325D01*
Y319700D01*
X1048512Y319975D01*
X1048537Y320275D01*
X1048562Y320625D01*
X1048687Y321375D01*
Y321425D01*
X1048712Y321549D01*
X1048762Y321725D01*
X1048837Y321974D01*
X1048912Y322249D01*
X1049012Y322574D01*
X1049286Y323224D01*
X1051836Y322249D01*
D02*
G37*
G36*
X1036440Y313214D02*
X1036740Y313189D01*
X1037114Y313164D01*
X1037514Y313089D01*
X1037939Y313014D01*
X1038339Y312889D01*
X1038364D01*
X1038389Y312864D01*
X1038514Y312814D01*
X1038739Y312739D01*
X1038989Y312639D01*
X1039289Y312489D01*
X1039589Y312314D01*
X1039914Y312090D01*
X1040214Y311864D01*
X1040239Y311840D01*
X1040339Y311740D01*
X1040489Y311590D01*
X1040664Y311415D01*
X1040839Y311165D01*
X1041039Y310890D01*
X1041238Y310565D01*
X1041413Y310215D01*
X1041438Y310165D01*
X1041488Y310040D01*
X1041563Y309840D01*
X1041638Y309565D01*
X1041713Y309240D01*
X1041788Y308865D01*
X1041838Y308465D01*
X1041863Y308015D01*
Y307816D01*
X1041838Y307591D01*
X1041813Y307316D01*
X1041763Y306991D01*
X1041713Y306641D01*
X1041613Y306291D01*
X1041488Y305941D01*
X1041463Y305891D01*
X1041413Y305791D01*
X1041339Y305616D01*
X1041214Y305416D01*
X1041064Y305166D01*
X1040889Y304916D01*
X1040689Y304666D01*
X1040439Y304441D01*
X1040414Y304416D01*
X1040314Y304342D01*
X1040164Y304216D01*
X1039989Y304091D01*
X1039739Y303942D01*
X1039464Y303767D01*
X1039164Y303617D01*
X1038814Y303492D01*
X1038764Y303467D01*
X1038664Y303442D01*
X1038464Y303392D01*
X1038214Y303317D01*
X1037914Y303267D01*
X1037539Y303217D01*
X1037165Y303192D01*
X1036740Y303167D01*
X1036240D01*
X1036190D01*
X1036090D01*
X1035940Y303192D01*
X1035765Y303217D01*
X1034790Y310465D01*
X1034765D01*
X1034740D01*
X1034590Y310415D01*
X1034365Y310365D01*
X1034090Y310265D01*
X1033790Y310115D01*
X1033465Y309940D01*
X1033166Y309715D01*
X1032916Y309440D01*
X1032891Y309390D01*
X1032816Y309290D01*
X1032716Y309115D01*
X1032616Y308865D01*
X1032516Y308565D01*
X1032416Y308216D01*
X1032341Y307791D01*
X1032316Y307341D01*
Y307016D01*
X1032341Y306816D01*
X1032366Y306566D01*
X1032391Y306266D01*
X1032516Y305666D01*
Y305616D01*
X1032541Y305516D01*
X1032591Y305366D01*
X1032666Y305166D01*
X1032716Y304941D01*
X1032816Y304691D01*
X1033016Y304216D01*
X1030891Y303392D01*
X1030866Y303417D01*
X1030841Y303517D01*
X1030766Y303667D01*
X1030691Y303892D01*
X1030591Y304167D01*
X1030491Y304466D01*
X1030416Y304816D01*
X1030316Y305216D01*
Y305266D01*
X1030291Y305416D01*
X1030241Y305641D01*
X1030216Y305916D01*
X1030166Y306266D01*
X1030116Y306666D01*
X1030091Y307116D01*
Y307791D01*
X1030116Y308065D01*
X1030141Y308390D01*
X1030191Y308790D01*
X1030266Y309190D01*
X1030366Y309615D01*
X1030516Y310015D01*
X1030541Y310065D01*
X1030591Y310190D01*
X1030691Y310390D01*
X1030816Y310640D01*
X1030991Y310915D01*
X1031191Y311215D01*
X1031441Y311515D01*
X1031716Y311789D01*
X1031741Y311814D01*
X1031866Y311915D01*
X1032016Y312040D01*
X1032241Y312189D01*
X1032516Y312364D01*
X1032841Y312564D01*
X1033191Y312739D01*
X1033590Y312889D01*
X1033615D01*
X1033640Y312914D01*
X1033790Y312939D01*
X1034015Y312989D01*
X1034290Y313064D01*
X1034665Y313139D01*
X1035065Y313189D01*
X1035490Y313214D01*
X1035965Y313239D01*
X1035990D01*
X1036015D01*
X1036090D01*
X1036190D01*
X1036440Y313214D01*
D02*
G37*
G36*
X1063333Y311802D02*
X1063358Y311702D01*
X1063433Y311527D01*
X1063508Y311277D01*
X1063608Y310977D01*
X1063708Y310627D01*
X1063783Y310252D01*
X1063883Y309827D01*
Y309778D01*
X1063933Y309628D01*
X1063958Y309378D01*
X1064008Y309053D01*
X1064058Y308678D01*
X1064083Y308253D01*
X1064133Y307803D01*
Y307053D01*
X1064108Y306778D01*
X1064083Y306453D01*
X1064058Y306054D01*
X1064008Y305629D01*
X1063908Y305204D01*
X1063808Y304804D01*
Y304779D01*
X1063783Y304754D01*
X1063758Y304629D01*
X1063683Y304429D01*
X1063583Y304179D01*
X1063458Y303904D01*
X1063308Y303604D01*
X1063133Y303329D01*
X1062933Y303054D01*
X1062908Y303029D01*
X1062833Y302929D01*
X1062733Y302804D01*
X1062583Y302654D01*
X1062383Y302479D01*
X1062158Y302304D01*
X1061908Y302155D01*
X1061633Y302005D01*
X1061608Y301980D01*
X1061508Y301955D01*
X1061358Y301905D01*
X1061158Y301830D01*
X1060908Y301755D01*
X1060633Y301705D01*
X1060309Y301680D01*
X1059984Y301655D01*
X1059959D01*
X1059884D01*
X1059759D01*
X1059584Y301680D01*
X1059409Y301705D01*
X1059209Y301730D01*
X1058784Y301855D01*
X1058759D01*
X1058684Y301880D01*
X1058584Y301930D01*
X1058459Y302005D01*
X1058134Y302180D01*
X1057784Y302404D01*
X1057759Y302429D01*
X1057709Y302454D01*
X1057634Y302529D01*
X1057534Y302629D01*
X1057284Y302854D01*
X1057034Y303154D01*
Y303179D01*
X1056984Y303229D01*
X1056935Y303304D01*
X1056885Y303404D01*
X1056759Y303679D01*
X1056635Y304029D01*
X1056585D01*
Y304004D01*
X1056560Y303954D01*
X1056535Y303854D01*
X1056485Y303729D01*
X1056335Y303429D01*
X1056135Y303079D01*
X1056110Y303054D01*
X1056085Y303004D01*
X1056010Y302904D01*
X1055935Y302779D01*
X1055685Y302504D01*
X1055360Y302204D01*
X1055335Y302180D01*
X1055285Y302129D01*
X1055185Y302055D01*
X1055060Y301955D01*
X1054910Y301855D01*
X1054710Y301730D01*
X1054285Y301530D01*
X1054260Y301505D01*
X1054185Y301480D01*
X1054035Y301430D01*
X1053860Y301380D01*
X1053660Y301330D01*
X1053410Y301305D01*
X1053135Y301255D01*
X1052835D01*
X1052811D01*
X1052736D01*
X1052636D01*
X1052511Y301280D01*
X1052336Y301305D01*
X1052136Y301330D01*
X1051661Y301455D01*
X1051161Y301630D01*
X1050886Y301755D01*
X1050611Y301905D01*
X1050361Y302080D01*
X1050111Y302279D01*
X1049861Y302504D01*
X1049636Y302779D01*
Y302804D01*
X1049586Y302854D01*
X1049536Y302929D01*
X1049461Y303054D01*
X1049361Y303229D01*
X1049261Y303404D01*
X1049162Y303629D01*
X1049062Y303904D01*
X1048961Y304204D01*
X1048861Y304529D01*
X1048762Y304904D01*
X1048662Y305304D01*
X1048587Y305729D01*
X1048537Y306203D01*
X1048512Y306703D01*
X1048487Y307253D01*
Y307478D01*
X1048512Y307728D01*
Y308053D01*
X1048537Y308453D01*
X1048587Y308878D01*
X1048637Y309353D01*
X1048712Y309827D01*
Y309877D01*
X1048762Y310028D01*
X1048811Y310252D01*
X1048861Y310552D01*
X1048961Y310877D01*
X1049062Y311202D01*
X1049162Y311552D01*
X1049286Y311852D01*
X1063308D01*
X1063333Y311802D01*
D02*
G37*
G36*
X1034115Y301492D02*
X1034390Y301442D01*
X1034690Y301392D01*
X1034990Y301292D01*
X1035290Y301142D01*
X1035590Y300967D01*
X1035615Y300942D01*
X1035715Y300867D01*
X1035840Y300742D01*
X1036015Y300567D01*
X1036190Y300368D01*
X1036365Y300117D01*
X1036565Y299818D01*
X1036715Y299493D01*
X1036740Y299443D01*
X1036790Y299318D01*
X1036865Y299143D01*
X1036940Y298893D01*
X1037040Y298568D01*
X1037140Y298218D01*
X1037240Y297818D01*
X1037315Y297393D01*
Y297343D01*
X1037339Y297193D01*
X1037390Y296943D01*
X1037414Y296643D01*
X1037464Y296269D01*
X1037514Y295844D01*
X1037564Y295394D01*
X1037589Y294919D01*
X1038164D01*
X1038214D01*
X1038314D01*
X1038464Y294944D01*
X1038664Y294994D01*
X1038864Y295069D01*
X1039064Y295169D01*
X1039264Y295294D01*
X1039414Y295494D01*
X1039439Y295519D01*
X1039464Y295594D01*
X1039539Y295719D01*
X1039614Y295894D01*
X1039664Y296119D01*
X1039739Y296369D01*
X1039764Y296668D01*
X1039789Y297018D01*
Y297268D01*
X1039764Y297543D01*
X1039714Y297868D01*
Y297943D01*
X1039689Y298018D01*
Y298143D01*
X1039639Y298393D01*
X1039564Y298718D01*
Y298743D01*
X1039539Y298793D01*
Y298868D01*
X1039489Y298968D01*
X1039439Y299218D01*
X1039339Y299518D01*
Y299543D01*
X1039314Y299568D01*
X1039264Y299743D01*
X1039214Y299968D01*
X1039114Y300193D01*
X1041039Y300892D01*
X1041064Y300867D01*
X1041088Y300767D01*
X1041139Y300617D01*
X1041214Y300392D01*
X1041313Y300142D01*
X1041388Y299818D01*
X1041488Y299468D01*
X1041588Y299068D01*
Y299043D01*
X1041613Y299018D01*
X1041638Y298868D01*
X1041688Y298643D01*
X1041738Y298343D01*
X1041788Y297993D01*
X1041813Y297593D01*
X1041863Y297168D01*
Y296518D01*
X1041838Y296369D01*
Y296194D01*
X1041813Y295969D01*
X1041738Y295494D01*
X1041638Y294969D01*
X1041463Y294419D01*
X1041238Y293869D01*
X1040914Y293394D01*
Y293369D01*
X1040864Y293344D01*
X1040739Y293219D01*
X1040514Y293019D01*
X1040364Y292919D01*
X1040189Y292794D01*
X1039989Y292694D01*
X1039764Y292595D01*
X1039514Y292495D01*
X1039239Y292395D01*
X1038914Y292320D01*
X1038589Y292269D01*
X1038239Y292220D01*
X1037839D01*
X1030891D01*
X1030866Y292245D01*
X1030841Y292344D01*
X1030766Y292470D01*
X1030691Y292669D01*
X1030616Y292944D01*
X1030516Y293244D01*
X1030441Y293594D01*
X1030341Y294019D01*
Y294069D01*
X1030291Y294219D01*
X1030266Y294444D01*
X1030216Y294744D01*
X1030166Y295119D01*
X1030141Y295519D01*
X1030091Y295969D01*
Y296693D01*
X1030116Y296868D01*
Y297068D01*
X1030141Y297318D01*
X1030166Y297593D01*
X1030216Y297868D01*
X1030316Y298493D01*
X1030491Y299143D01*
X1030716Y299743D01*
X1030866Y300018D01*
X1031041Y300268D01*
Y300292D01*
X1031091Y300317D01*
X1031216Y300467D01*
X1031441Y300667D01*
X1031741Y300892D01*
X1032116Y301117D01*
X1032566Y301317D01*
X1033116Y301467D01*
X1033391Y301492D01*
X1033715Y301517D01*
X1033740D01*
X1033765D01*
X1033915D01*
X1034115Y301492D01*
D02*
G37*
G36*
X1041064Y289620D02*
X1041088Y289520D01*
X1041163Y289345D01*
X1041238Y289095D01*
X1041339Y288820D01*
X1041438Y288470D01*
X1041513Y288121D01*
X1041613Y287721D01*
Y287671D01*
X1041663Y287521D01*
X1041688Y287321D01*
X1041738Y287021D01*
X1041788Y286696D01*
X1041813Y286296D01*
X1041863Y285896D01*
Y285221D01*
X1041838Y284946D01*
X1041813Y284646D01*
X1041763Y284272D01*
X1041713Y283897D01*
X1041613Y283522D01*
X1041488Y283172D01*
X1041463Y283122D01*
X1041438Y283022D01*
X1041363Y282872D01*
X1041264Y282672D01*
X1041013Y282222D01*
X1040864Y282022D01*
X1040714Y281822D01*
X1040739Y281797D01*
X1040789Y281722D01*
X1040864Y281597D01*
X1040964Y281422D01*
X1041088Y281197D01*
X1041214Y280947D01*
X1041339Y280648D01*
X1041488Y280298D01*
X1041513Y280248D01*
X1041538Y280123D01*
X1041613Y279923D01*
X1041688Y279648D01*
X1041738Y279298D01*
X1041813Y278923D01*
X1041838Y278498D01*
X1041863Y278023D01*
Y277848D01*
X1041838Y277723D01*
Y277548D01*
X1041813Y277373D01*
X1041738Y276949D01*
X1041613Y276474D01*
X1041438Y275999D01*
X1041189Y275524D01*
X1040839Y275099D01*
Y275074D01*
X1040789Y275049D01*
X1040664Y274924D01*
X1040439Y274749D01*
X1040139Y274549D01*
X1039739Y274374D01*
X1039289Y274199D01*
X1038739Y274074D01*
X1038439Y274024D01*
X1038139D01*
X1030341D01*
Y276898D01*
X1037839D01*
X1037864D01*
X1037964D01*
X1038114Y276924D01*
X1038314Y276949D01*
X1038514Y277023D01*
X1038714Y277098D01*
X1038939Y277223D01*
X1039114Y277398D01*
X1039139Y277423D01*
X1039189Y277473D01*
X1039264Y277598D01*
X1039339Y277748D01*
X1039414Y277948D01*
X1039489Y278173D01*
X1039539Y278448D01*
X1039564Y278773D01*
Y278948D01*
X1039539Y279123D01*
X1039489Y279373D01*
X1039439Y279623D01*
X1039339Y279898D01*
X1039189Y280173D01*
X1039014Y280423D01*
X1030341D01*
Y283297D01*
X1037964D01*
X1037989D01*
X1038089D01*
X1038214Y283322D01*
X1038389Y283372D01*
X1038589Y283422D01*
X1038789Y283522D01*
X1038964Y283647D01*
X1039139Y283822D01*
X1039164Y283847D01*
X1039214Y283922D01*
X1039264Y284047D01*
X1039364Y284197D01*
X1039439Y284397D01*
X1039489Y284646D01*
X1039539Y284946D01*
X1039564Y285271D01*
Y285596D01*
X1039539Y285821D01*
X1039514Y286071D01*
X1039464Y286321D01*
X1039389Y286596D01*
X1039314Y286846D01*
X1030341D01*
Y289670D01*
X1041039D01*
X1041064Y289620D01*
D02*
G37*
G36*
X26681Y240086D02*
X27060Y240056D01*
X27498Y239998D01*
X28373Y239823D01*
X28431D01*
X28577Y239765D01*
X28781Y239706D01*
X29072Y239648D01*
X29364Y239531D01*
X29685Y239444D01*
X29976Y239298D01*
X30268Y239152D01*
X29189Y236470D01*
X29160D01*
X29102Y236528D01*
X28985Y236586D01*
X28839Y236645D01*
X28635Y236732D01*
X28402Y236791D01*
X28139Y236878D01*
X27848Y236966D01*
X27819D01*
X27702Y236995D01*
X27527Y237024D01*
X27323Y237082D01*
X27031Y237111D01*
X26711Y237140D01*
X26361Y237170D01*
X25807D01*
X25603Y237140D01*
X25340Y237111D01*
X25048Y237082D01*
X24699Y237024D01*
X24349Y236907D01*
X23999Y236791D01*
X23970Y236761D01*
X23853Y236732D01*
X23678Y236645D01*
X23474Y236528D01*
X23211Y236353D01*
X22949Y236178D01*
X22687Y235916D01*
X22424Y235653D01*
X22395Y235624D01*
X22308Y235508D01*
X22191Y235362D01*
X22045Y235128D01*
X21870Y234837D01*
X21695Y234516D01*
X21520Y234137D01*
X21345Y233729D01*
X21316Y233671D01*
X21287Y233525D01*
X21229Y233291D01*
X21170Y232971D01*
X21083Y232563D01*
X21024Y232096D01*
X20995Y231571D01*
X20966Y230988D01*
Y230959D01*
Y230930D01*
Y230842D01*
Y230725D01*
X20995Y230434D01*
X21024Y230055D01*
X21054Y229617D01*
X21112Y229180D01*
X21199Y228713D01*
X21316Y228247D01*
X21345Y228189D01*
X21374Y228043D01*
X21462Y227839D01*
X21579Y227576D01*
X21695Y227255D01*
X21870Y226935D01*
X22074Y226614D01*
X22278Y226293D01*
X22308Y226264D01*
X22395Y226177D01*
X22512Y226031D01*
X22687Y225856D01*
X22891Y225652D01*
X23124Y225477D01*
X23386Y225273D01*
X23678Y225127D01*
X23707Y225098D01*
X23824Y225068D01*
X23970Y225010D01*
X24174Y224952D01*
X24436Y224864D01*
X24699Y224806D01*
X24990Y224777D01*
X25311Y224748D01*
X25690D01*
X26069Y224777D01*
X26448Y224806D01*
X26477D01*
X26536Y224835D01*
X26740Y224864D01*
X26973Y224923D01*
X27177Y225010D01*
Y229938D01*
X24494D01*
Y232563D01*
X30414D01*
Y222794D01*
X30385Y222765D01*
X30297Y222736D01*
X30122Y222648D01*
X29918Y222561D01*
X29626Y222473D01*
X29276Y222357D01*
X28898Y222269D01*
X28431Y222153D01*
X28373D01*
X28198Y222094D01*
X27935Y222065D01*
X27585Y222007D01*
X27177Y221949D01*
X26681Y221919D01*
X26127Y221861D01*
X25223D01*
X25078Y221890D01*
X24873D01*
X24436Y221949D01*
X23940Y222007D01*
X23357Y222124D01*
X22803Y222269D01*
X22220Y222473D01*
X22191D01*
X22162Y222502D01*
X22074Y222532D01*
X21987Y222590D01*
X21695Y222736D01*
X21345Y222940D01*
X20937Y223202D01*
X20529Y223523D01*
X20091Y223902D01*
X19683Y224310D01*
X19625Y224369D01*
X19508Y224515D01*
X19333Y224777D01*
X19100Y225127D01*
X18837Y225535D01*
X18575Y226031D01*
X18313Y226585D01*
X18079Y227197D01*
Y227226D01*
X18050Y227285D01*
X18021Y227372D01*
X17992Y227489D01*
X17963Y227664D01*
X17904Y227839D01*
X17817Y228305D01*
X17700Y228859D01*
X17613Y229501D01*
X17555Y230230D01*
X17525Y230988D01*
Y231017D01*
Y231075D01*
Y231192D01*
Y231338D01*
X17555Y231513D01*
Y231746D01*
X17613Y232242D01*
X17671Y232825D01*
X17759Y233437D01*
X17904Y234108D01*
X18109Y234749D01*
Y234778D01*
X18138Y234837D01*
X18167Y234924D01*
X18225Y235041D01*
X18371Y235362D01*
X18546Y235741D01*
X18779Y236207D01*
X19071Y236674D01*
X19421Y237170D01*
X19800Y237636D01*
X19858Y237694D01*
X20004Y237840D01*
X20237Y238044D01*
X20558Y238307D01*
X20937Y238598D01*
X21374Y238919D01*
X21870Y239211D01*
X22424Y239473D01*
X22453D01*
X22482Y239502D01*
X22570Y239531D01*
X22687Y239561D01*
X23007Y239677D01*
X23445Y239794D01*
X23940Y239911D01*
X24524Y240027D01*
X25165Y240086D01*
X25836Y240115D01*
X26331D01*
X26681Y240086D01*
D02*
G37*
G36*
X46714Y222153D02*
X43885D01*
X37558Y232621D01*
X37529Y232650D01*
X37499Y232737D01*
X37412Y232883D01*
X37295Y233058D01*
X37091Y233466D01*
X36858Y233904D01*
Y233933D01*
X36829Y233991D01*
X36770Y234108D01*
X36712Y234224D01*
X36595Y234487D01*
X36537Y234604D01*
X36508Y234691D01*
X36450D01*
Y234662D01*
Y234633D01*
Y234545D01*
X36479Y234458D01*
Y234166D01*
Y233787D01*
Y233758D01*
Y233700D01*
Y233554D01*
X36508Y233408D01*
Y233204D01*
Y232971D01*
Y232679D01*
Y232388D01*
Y222153D01*
X33592D01*
Y239794D01*
X36537D01*
X42719Y229617D01*
X42748Y229588D01*
X42777Y229501D01*
X42836Y229384D01*
X42923Y229238D01*
X43127Y228830D01*
X43331Y228422D01*
Y228393D01*
X43390Y228334D01*
X43419Y228218D01*
X43506Y228101D01*
X43652Y227810D01*
X43769Y227518D01*
X43798D01*
Y227576D01*
Y227722D01*
Y227839D01*
Y227985D01*
X43769Y228189D01*
Y228393D01*
Y228422D01*
Y228509D01*
Y228655D01*
Y228830D01*
Y229034D01*
Y229297D01*
Y229588D01*
Y229909D01*
Y239794D01*
X46714D01*
Y222153D01*
D02*
G37*
G36*
X55432Y240086D02*
X55753Y240056D01*
X56103Y239998D01*
X56511Y239911D01*
X56919Y239823D01*
X57386Y239706D01*
X57853Y239561D01*
X58319Y239356D01*
X58815Y239123D01*
X59281Y238861D01*
X59719Y238540D01*
X60156Y238190D01*
X60564Y237782D01*
X60594Y237753D01*
X60652Y237665D01*
X60768Y237549D01*
X60885Y237345D01*
X61031Y237111D01*
X61206Y236820D01*
X61410Y236470D01*
X61614Y236062D01*
X61789Y235595D01*
X61993Y235099D01*
X62168Y234545D01*
X62314Y233933D01*
X62431Y233262D01*
X62547Y232563D01*
X62606Y231804D01*
X62635Y230988D01*
Y230930D01*
Y230784D01*
Y230550D01*
X62606Y230259D01*
X62576Y229880D01*
X62518Y229442D01*
X62460Y228976D01*
X62372Y228451D01*
X62256Y227897D01*
X62139Y227343D01*
X61964Y226789D01*
X61760Y226206D01*
X61527Y225652D01*
X61235Y225127D01*
X60943Y224631D01*
X60564Y224165D01*
X60535Y224135D01*
X60477Y224077D01*
X60360Y223960D01*
X60185Y223815D01*
X59981Y223640D01*
X59719Y223436D01*
X59427Y223232D01*
X59077Y223027D01*
X58698Y222794D01*
X58261Y222590D01*
X57794Y222386D01*
X57269Y222211D01*
X56715Y222065D01*
X56132Y221949D01*
X55491Y221890D01*
X54820Y221861D01*
X54557D01*
X54295Y221890D01*
X53916D01*
X53479Y221919D01*
X53012Y221978D01*
X52050Y222124D01*
X51992D01*
X51846Y222182D01*
X51613Y222240D01*
X51321Y222298D01*
X50971Y222415D01*
X50650Y222532D01*
X50300Y222648D01*
X49980Y222794D01*
Y239152D01*
X50009Y239182D01*
X50125Y239211D01*
X50300Y239298D01*
X50563Y239386D01*
X50854Y239502D01*
X51204Y239619D01*
X51613Y239706D01*
X52079Y239823D01*
X52137D01*
X52312Y239881D01*
X52575Y239911D01*
X52895Y239969D01*
X53304Y240027D01*
X53770Y240056D01*
X54295Y240115D01*
X55170D01*
X55432Y240086D01*
D02*
G37*
G36*
X60106Y254507D02*
X56461D01*
X51037Y272148D01*
X54769D01*
X57744Y260659D01*
Y260630D01*
X57773Y260601D01*
X57802Y260426D01*
X57860Y260193D01*
X57919Y259901D01*
Y259872D01*
X57948Y259843D01*
X57977Y259668D01*
X58006Y259435D01*
X58064Y259172D01*
Y259143D01*
Y259114D01*
X58094Y258968D01*
X58123Y258764D01*
X58152Y258531D01*
Y258502D01*
X58181Y258385D01*
X58210Y258239D01*
X58239Y258123D01*
X58298D01*
Y258152D01*
Y258181D01*
X58327Y258239D01*
X58356Y258356D01*
Y258502D01*
X58385Y258677D01*
X58443Y258881D01*
X58473Y259114D01*
Y259143D01*
X58502Y259231D01*
X58531Y259376D01*
X58560Y259580D01*
X58618Y259814D01*
X58677Y260076D01*
X58822Y260659D01*
X61797Y272148D01*
X65529D01*
X60106Y254507D01*
D02*
G37*
G36*
X16221Y263721D02*
X20012D01*
Y261126D01*
X16221D01*
Y257190D01*
X13422D01*
Y261126D01*
X9631D01*
Y263721D01*
X13422D01*
Y267658D01*
X16221D01*
Y263721D01*
D02*
G37*
G36*
X48004Y261243D02*
X49754D01*
Y258852D01*
X48004D01*
Y254507D01*
X44914D01*
Y258852D01*
X37011D01*
Y261243D01*
X44359Y272148D01*
X48004D01*
Y261243D01*
D02*
G37*
G36*
X28176Y272440D02*
X28468D01*
X28759Y272381D01*
X29109Y272352D01*
X29488Y272294D01*
X30276Y272119D01*
X31092Y271856D01*
X31471Y271711D01*
X31850Y271507D01*
X32229Y271303D01*
X32550Y271040D01*
X32579Y271011D01*
X32638Y270982D01*
X32696Y270894D01*
X32812Y270778D01*
X32929Y270632D01*
X33075Y270457D01*
X33250Y270253D01*
X33396Y270019D01*
X33716Y269466D01*
X33979Y268795D01*
X34095Y268416D01*
X34183Y268008D01*
X34212Y267599D01*
X34241Y267133D01*
Y267104D01*
Y267016D01*
Y266870D01*
X34212Y266695D01*
X34183Y266491D01*
X34154Y266258D01*
X34037Y265762D01*
Y265733D01*
X34008Y265646D01*
X33979Y265529D01*
X33921Y265354D01*
X33746Y264975D01*
X33542Y264508D01*
Y264479D01*
X33483Y264421D01*
X33425Y264304D01*
X33337Y264158D01*
X33104Y263809D01*
X32812Y263400D01*
X32783Y263371D01*
X32754Y263313D01*
X32667Y263225D01*
X32579Y263080D01*
X32317Y262788D01*
X32025Y262438D01*
X27418Y257248D01*
X34591D01*
Y254507D01*
X21790D01*
X29343Y263925D01*
X29372Y263954D01*
X29430Y264042D01*
X29547Y264188D01*
X29663Y264363D01*
X29809Y264596D01*
X29984Y264829D01*
X30305Y265354D01*
X30334Y265383D01*
X30363Y265500D01*
X30451Y265646D01*
X30538Y265850D01*
X30596Y266083D01*
X30684Y266345D01*
X30713Y266637D01*
X30742Y266958D01*
Y267016D01*
Y267162D01*
X30684Y267395D01*
X30626Y267658D01*
X30538Y267978D01*
X30363Y268299D01*
X30159Y268620D01*
X29867Y268911D01*
X29838Y268941D01*
X29692Y269028D01*
X29518Y269145D01*
X29226Y269291D01*
X28876Y269436D01*
X28439Y269553D01*
X27943Y269640D01*
X27360Y269670D01*
X27010D01*
X26776Y269640D01*
X26514Y269611D01*
X26193Y269582D01*
X25464Y269466D01*
X25435D01*
X25289Y269436D01*
X25115Y269378D01*
X24852Y269320D01*
X24590Y269232D01*
X24269Y269145D01*
X23627Y268911D01*
X22665Y271507D01*
X22723Y271536D01*
X22869Y271594D01*
X23073Y271682D01*
X23394Y271769D01*
X23744Y271886D01*
X24152Y272002D01*
X24590Y272119D01*
X25056Y272206D01*
X25115D01*
X25289Y272236D01*
X25523Y272294D01*
X25873Y272352D01*
X26252Y272381D01*
X26689Y272440D01*
X27156Y272469D01*
X27972D01*
X28176Y272440D01*
D02*
G37*
G36*
X249699Y579696D02*
X249670Y579667D01*
X249554Y579638D01*
X249408Y579551D01*
X249175Y579463D01*
X248883Y579376D01*
X248533Y579259D01*
X248154Y579171D01*
X247687Y579055D01*
X247629D01*
X247454Y578997D01*
X247192Y578967D01*
X246871Y578909D01*
X246434Y578851D01*
X245967Y578822D01*
X245442Y578763D01*
X244567D01*
X244363Y578792D01*
X244101Y578822D01*
X243780Y578851D01*
X243430Y578909D01*
X243080Y578997D01*
X242293Y579201D01*
X241885Y579347D01*
X241477Y579521D01*
X241068Y579725D01*
X240689Y579959D01*
X240310Y580221D01*
X239989Y580542D01*
X239960Y580571D01*
X239931Y580630D01*
X239844Y580717D01*
X239727Y580863D01*
X239610Y581067D01*
X239465Y581271D01*
X239319Y581533D01*
X239173Y581825D01*
X238998Y582175D01*
X238852Y582554D01*
X238706Y582962D01*
X238590Y583400D01*
X238473Y583866D01*
X238386Y584391D01*
X238356Y584945D01*
X238327Y585528D01*
Y585557D01*
Y585587D01*
Y585674D01*
Y585791D01*
X238356Y586082D01*
X238386Y586432D01*
X238415Y586870D01*
X238502Y587336D01*
X238590Y587832D01*
X238706Y588298D01*
Y588327D01*
X238736Y588357D01*
X238765Y588503D01*
X238881Y588736D01*
X238998Y589027D01*
X239173Y589377D01*
X239348Y589727D01*
X239610Y590077D01*
X239873Y590427D01*
X239902Y590456D01*
X240019Y590573D01*
X240194Y590748D01*
X240398Y590952D01*
X240689Y591156D01*
X241010Y591389D01*
X241389Y591623D01*
X241797Y591827D01*
X241856Y591856D01*
X242001Y591914D01*
X242235Y591972D01*
X242585Y592089D01*
X242964Y592177D01*
X243430Y592235D01*
X243926Y592293D01*
X244480Y592322D01*
X244801D01*
X245121Y592293D01*
X245501Y592235D01*
X245588D01*
X245676Y592206D01*
X245792D01*
X246084Y592147D01*
X246346Y592060D01*
Y598213D01*
X249699D01*
Y579696D01*
D02*
G37*
G36*
X289560Y588182D02*
X294663Y579055D01*
X290872D01*
X287548Y585470D01*
X287519D01*
X284166Y579055D01*
X280375D01*
X285478Y588182D01*
X280754Y596696D01*
X284515D01*
X287519Y590923D01*
X287548D01*
X290522Y596696D01*
X294284D01*
X289560Y588182D01*
D02*
G37*
G36*
X272473Y592468D02*
X272794Y592439D01*
X272881D01*
X273056Y592410D01*
X273289D01*
X273552Y592381D01*
X272939Y589610D01*
X272910D01*
X272823Y589640D01*
X272706Y589669D01*
X272502Y589727D01*
X272298Y589756D01*
X272035Y589785D01*
X271773Y589815D01*
X271161D01*
X270869Y589785D01*
X270548Y589727D01*
X270490D01*
X270286Y589669D01*
X270053Y589610D01*
X269790Y589523D01*
Y579055D01*
X266495D01*
Y591535D01*
X266553Y591564D01*
X266670Y591593D01*
X266903Y591681D01*
X267166Y591768D01*
X267516Y591885D01*
X267924Y592002D01*
X268361Y592089D01*
X268857Y592206D01*
X268915D01*
X269090Y592264D01*
X269382Y592293D01*
X269761Y592351D01*
X270198Y592410D01*
X270694Y592439D01*
X271277Y592497D01*
X272152D01*
X272473Y592468D01*
D02*
G37*
G36*
X190069D02*
X190390Y592439D01*
X190477D01*
X190652Y592410D01*
X190885D01*
X191148Y592381D01*
X190535Y589610D01*
X190506D01*
X190419Y589640D01*
X190302Y589669D01*
X190098Y589727D01*
X189894Y589756D01*
X189632Y589785D01*
X189369Y589815D01*
X188757D01*
X188465Y589785D01*
X188144Y589727D01*
X188086D01*
X187882Y589669D01*
X187649Y589610D01*
X187386Y589523D01*
Y579055D01*
X184091D01*
Y591535D01*
X184150Y591564D01*
X184266Y591593D01*
X184499Y591681D01*
X184762Y591768D01*
X185112Y591885D01*
X185520Y592002D01*
X185957Y592089D01*
X186453Y592206D01*
X186511D01*
X186686Y592264D01*
X186978Y592293D01*
X187357Y592351D01*
X187794Y592410D01*
X188290Y592439D01*
X188873Y592497D01*
X189748D01*
X190069Y592468D01*
D02*
G37*
G36*
X127172Y596988D02*
X127435Y596959D01*
X127756Y596929D01*
X128106Y596900D01*
X128485Y596813D01*
X129301Y596638D01*
X130147Y596375D01*
X130555Y596200D01*
X130934Y595996D01*
X131313Y595734D01*
X131663Y595471D01*
X131692Y595442D01*
X131750Y595413D01*
X131838Y595326D01*
X131925Y595180D01*
X132071Y595034D01*
X132217Y594859D01*
X132363Y594626D01*
X132538Y594363D01*
X132713Y594101D01*
X132858Y593780D01*
X133150Y593080D01*
X133238Y592672D01*
X133325Y592264D01*
X133383Y591797D01*
X133413Y591331D01*
Y591273D01*
Y591127D01*
X133383Y590894D01*
X133354Y590602D01*
X133296Y590252D01*
X133238Y589902D01*
X133121Y589494D01*
X132975Y589115D01*
X132946Y589057D01*
X132888Y588940D01*
X132800Y588765D01*
X132654Y588502D01*
X132450Y588240D01*
X132246Y587948D01*
X131984Y587628D01*
X131663Y587336D01*
X131634Y587307D01*
X131517Y587219D01*
X131313Y587074D01*
X131080Y586928D01*
X130759Y586753D01*
X130380Y586549D01*
X129972Y586374D01*
X129505Y586199D01*
X129447Y586170D01*
X129272Y586141D01*
X129010Y586082D01*
X128660Y585995D01*
X128222Y585907D01*
X127697Y585849D01*
X127114Y585820D01*
X126502Y585791D01*
X125948D01*
X125598Y585820D01*
X125540D01*
X125336Y585849D01*
X125102Y585878D01*
X124869Y585907D01*
Y579055D01*
X121516D01*
Y596055D01*
X121574Y596084D01*
X121691Y596142D01*
X121895Y596200D01*
X122186Y596317D01*
X122536Y596405D01*
X122915Y596521D01*
X123353Y596638D01*
X123819Y596754D01*
X123877D01*
X124052Y596784D01*
X124315Y596842D01*
X124665Y596900D01*
X125073Y596929D01*
X125540Y596988D01*
X126064Y597017D01*
X126939D01*
X127172Y596988D01*
D02*
G37*
G36*
X164380Y579055D02*
X160939D01*
X158898Y586520D01*
Y586549D01*
X158869Y586636D01*
X158839Y586782D01*
X158781Y586928D01*
X158694Y587336D01*
X158606Y587773D01*
Y587803D01*
Y587861D01*
X158577Y587948D01*
Y588065D01*
X158548Y588327D01*
Y588415D01*
Y588502D01*
X158490D01*
Y588444D01*
X158460Y588298D01*
X158402Y588036D01*
X158344Y587686D01*
Y587657D01*
X158315Y587598D01*
Y587482D01*
X158285Y587336D01*
X158256Y587161D01*
X158198Y586986D01*
X158081Y586520D01*
X156069Y579055D01*
X152628D01*
X148809Y592206D01*
X152133D01*
X154028Y584128D01*
Y584099D01*
X154057Y584012D01*
X154086Y583895D01*
X154116Y583750D01*
X154145Y583545D01*
X154203Y583341D01*
X154261Y582845D01*
Y582816D01*
X154291Y582729D01*
Y582612D01*
X154320Y582496D01*
X154349Y582204D01*
Y582087D01*
Y582000D01*
X154407D01*
Y582029D01*
X154436Y582175D01*
X154466Y582262D01*
X154495Y582408D01*
X154524Y582583D01*
X154553Y582787D01*
Y582816D01*
X154582Y582904D01*
Y583021D01*
X154611Y583195D01*
X154670Y583370D01*
X154728Y583604D01*
X154845Y584128D01*
X156973Y592206D01*
X160035D01*
X162134Y584128D01*
Y584099D01*
X162164Y584012D01*
X162193Y583866D01*
X162251Y583691D01*
X162339Y583254D01*
X162426Y582787D01*
Y582758D01*
X162455Y582700D01*
Y582583D01*
X162484Y582467D01*
X162543Y582204D01*
X162572Y582087D01*
X162601Y582000D01*
X162630D01*
Y582029D01*
X162659Y582175D01*
Y582262D01*
X162688Y582408D01*
Y582583D01*
X162718Y582787D01*
Y582816D01*
X162747Y582904D01*
Y583021D01*
X162776Y583195D01*
X162834Y583370D01*
X162863Y583604D01*
X162980Y584128D01*
X164846Y592206D01*
X168200D01*
X164380Y579055D01*
D02*
G37*
G36*
X306735Y585791D02*
X308484D01*
Y583400D01*
X306735D01*
Y579055D01*
X303644D01*
Y583400D01*
X295742D01*
Y585791D01*
X303090Y596696D01*
X306735D01*
Y585791D01*
D02*
G37*
G36*
X208702Y593839D02*
X202782D01*
Y589406D01*
X208148D01*
Y586578D01*
X202782D01*
Y579055D01*
X199429D01*
Y596696D01*
X208702D01*
Y593839D01*
D02*
G37*
G36*
X258797Y592468D02*
X259118Y592439D01*
X259497Y592381D01*
X259905Y592322D01*
X260313Y592206D01*
X260722Y592060D01*
X260780Y592031D01*
X260897Y591972D01*
X261101Y591885D01*
X261334Y591739D01*
X261626Y591564D01*
X261917Y591360D01*
X262209Y591127D01*
X262471Y590835D01*
X262500Y590806D01*
X262588Y590689D01*
X262734Y590514D01*
X262879Y590310D01*
X263054Y590019D01*
X263258Y589698D01*
X263433Y589348D01*
X263579Y588940D01*
X263608Y588881D01*
X263638Y588765D01*
X263696Y588532D01*
X263783Y588240D01*
X263842Y587890D01*
X263900Y587453D01*
X263929Y587015D01*
X263958Y586520D01*
Y585936D01*
Y585878D01*
Y585761D01*
X263929Y585587D01*
X263900Y585382D01*
X255444Y584245D01*
Y584216D01*
Y584187D01*
X255502Y584012D01*
X255560Y583750D01*
X255677Y583429D01*
X255852Y583079D01*
X256056Y582700D01*
X256319Y582350D01*
X256639Y582058D01*
X256698Y582029D01*
X256814Y581942D01*
X257018Y581825D01*
X257310Y581708D01*
X257660Y581592D01*
X258068Y581475D01*
X258564Y581388D01*
X259089Y581358D01*
X259468D01*
X259701Y581388D01*
X259993Y581417D01*
X260343Y581446D01*
X261042Y581592D01*
X261101D01*
X261217Y581621D01*
X261392Y581679D01*
X261626Y581767D01*
X261888Y581825D01*
X262180Y581942D01*
X262734Y582175D01*
X263696Y579696D01*
X263667Y579667D01*
X263550Y579638D01*
X263375Y579551D01*
X263113Y579463D01*
X262792Y579347D01*
X262442Y579230D01*
X262034Y579142D01*
X261567Y579026D01*
X261509D01*
X261334Y578997D01*
X261071Y578938D01*
X260751Y578909D01*
X260343Y578851D01*
X259876Y578792D01*
X259351Y578763D01*
X258564D01*
X258243Y578792D01*
X257864Y578822D01*
X257397Y578880D01*
X256931Y578967D01*
X256435Y579084D01*
X255969Y579259D01*
X255910Y579288D01*
X255765Y579347D01*
X255531Y579463D01*
X255240Y579609D01*
X254919Y579813D01*
X254569Y580046D01*
X254219Y580338D01*
X253898Y580659D01*
X253869Y580688D01*
X253753Y580834D01*
X253607Y581008D01*
X253432Y581271D01*
X253228Y581592D01*
X252994Y581971D01*
X252790Y582379D01*
X252615Y582846D01*
Y582875D01*
X252586Y582904D01*
X252557Y583079D01*
X252499Y583341D01*
X252411Y583662D01*
X252324Y584099D01*
X252265Y584566D01*
X252236Y585062D01*
X252207Y585616D01*
Y585645D01*
Y585674D01*
Y585761D01*
Y585878D01*
X252236Y586170D01*
X252265Y586520D01*
X252295Y586957D01*
X252382Y587424D01*
X252470Y587919D01*
X252615Y588386D01*
Y588415D01*
X252645Y588444D01*
X252703Y588590D01*
X252790Y588852D01*
X252907Y589144D01*
X253082Y589494D01*
X253286Y589844D01*
X253549Y590223D01*
X253811Y590573D01*
X253840Y590602D01*
X253957Y590719D01*
X254132Y590894D01*
X254336Y591098D01*
X254627Y591302D01*
X254948Y591535D01*
X255327Y591768D01*
X255735Y591972D01*
X255794Y592002D01*
X255940Y592060D01*
X256173Y592147D01*
X256493Y592235D01*
X256873Y592322D01*
X257310Y592410D01*
X257777Y592468D01*
X258301Y592497D01*
X258535D01*
X258797Y592468D01*
D02*
G37*
G36*
X231096D02*
X231417Y592439D01*
X231796Y592381D01*
X232204Y592322D01*
X232612Y592206D01*
X233020Y592060D01*
X233079Y592031D01*
X233195Y591972D01*
X233400Y591885D01*
X233633Y591739D01*
X233924Y591564D01*
X234216Y591360D01*
X234508Y591127D01*
X234770Y590835D01*
X234799Y590806D01*
X234887Y590689D01*
X235032Y590514D01*
X235178Y590310D01*
X235353Y590019D01*
X235557Y589698D01*
X235732Y589348D01*
X235878Y588940D01*
X235907Y588881D01*
X235936Y588765D01*
X235995Y588532D01*
X236082Y588240D01*
X236140Y587890D01*
X236199Y587453D01*
X236228Y587015D01*
X236257Y586520D01*
Y585936D01*
Y585878D01*
Y585761D01*
X236228Y585587D01*
X236199Y585382D01*
X227743Y584245D01*
Y584216D01*
Y584187D01*
X227801Y584012D01*
X227859Y583750D01*
X227976Y583429D01*
X228151Y583079D01*
X228355Y582700D01*
X228617Y582350D01*
X228938Y582058D01*
X228996Y582029D01*
X229113Y581942D01*
X229317Y581825D01*
X229609Y581708D01*
X229959Y581592D01*
X230367Y581475D01*
X230863Y581388D01*
X231388Y581358D01*
X231766D01*
X232000Y581388D01*
X232291Y581417D01*
X232641Y581446D01*
X233341Y581592D01*
X233400D01*
X233516Y581621D01*
X233691Y581679D01*
X233924Y581767D01*
X234187Y581825D01*
X234478Y581942D01*
X235032Y582175D01*
X235995Y579696D01*
X235965Y579667D01*
X235849Y579638D01*
X235674Y579551D01*
X235411Y579463D01*
X235091Y579347D01*
X234741Y579230D01*
X234333Y579142D01*
X233866Y579026D01*
X233808D01*
X233633Y578997D01*
X233370Y578938D01*
X233050Y578909D01*
X232641Y578851D01*
X232175Y578792D01*
X231650Y578763D01*
X230863D01*
X230542Y578792D01*
X230163Y578822D01*
X229696Y578880D01*
X229230Y578967D01*
X228734Y579084D01*
X228267Y579259D01*
X228209Y579288D01*
X228063Y579347D01*
X227830Y579463D01*
X227539Y579609D01*
X227218Y579813D01*
X226868Y580046D01*
X226518Y580338D01*
X226197Y580659D01*
X226168Y580688D01*
X226051Y580834D01*
X225905Y581008D01*
X225731Y581271D01*
X225527Y581592D01*
X225293Y581971D01*
X225089Y582379D01*
X224914Y582846D01*
Y582875D01*
X224885Y582904D01*
X224856Y583079D01*
X224797Y583341D01*
X224710Y583662D01*
X224622Y584099D01*
X224564Y584566D01*
X224535Y585062D01*
X224506Y585616D01*
Y585645D01*
Y585674D01*
Y585761D01*
Y585878D01*
X224535Y586170D01*
X224564Y586520D01*
X224593Y586957D01*
X224681Y587424D01*
X224768Y587919D01*
X224914Y588386D01*
Y588415D01*
X224943Y588444D01*
X225002Y588590D01*
X225089Y588852D01*
X225206Y589144D01*
X225381Y589494D01*
X225585Y589844D01*
X225847Y590223D01*
X226110Y590573D01*
X226139Y590602D01*
X226255Y590719D01*
X226430Y590894D01*
X226635Y591098D01*
X226926Y591302D01*
X227247Y591535D01*
X227626Y591768D01*
X228034Y591972D01*
X228092Y592002D01*
X228238Y592060D01*
X228472Y592147D01*
X228792Y592235D01*
X229171Y592322D01*
X229609Y592410D01*
X230075Y592468D01*
X230600Y592497D01*
X230833D01*
X231096Y592468D01*
D02*
G37*
G36*
X217274D02*
X217595Y592439D01*
X217974Y592381D01*
X218382Y592322D01*
X218791Y592206D01*
X219199Y592060D01*
X219257Y592031D01*
X219374Y591972D01*
X219578Y591885D01*
X219811Y591739D01*
X220103Y591564D01*
X220394Y591360D01*
X220686Y591127D01*
X220949Y590835D01*
X220978Y590806D01*
X221065Y590689D01*
X221211Y590514D01*
X221357Y590310D01*
X221532Y590019D01*
X221736Y589698D01*
X221911Y589348D01*
X222057Y588940D01*
X222086Y588881D01*
X222115Y588765D01*
X222173Y588532D01*
X222261Y588240D01*
X222319Y587890D01*
X222377Y587453D01*
X222406Y587015D01*
X222436Y586520D01*
Y585936D01*
Y585878D01*
Y585761D01*
X222406Y585587D01*
X222377Y585382D01*
X213921Y584245D01*
Y584216D01*
Y584187D01*
X213979Y584012D01*
X214038Y583750D01*
X214154Y583429D01*
X214329Y583079D01*
X214534Y582700D01*
X214796Y582350D01*
X215117Y582058D01*
X215175Y582029D01*
X215292Y581942D01*
X215496Y581825D01*
X215787Y581708D01*
X216137Y581592D01*
X216545Y581475D01*
X217041Y581388D01*
X217566Y581358D01*
X217945D01*
X218178Y581388D01*
X218470Y581417D01*
X218820Y581446D01*
X219520Y581592D01*
X219578D01*
X219695Y581621D01*
X219870Y581679D01*
X220103Y581767D01*
X220365Y581825D01*
X220657Y581942D01*
X221211Y582175D01*
X222173Y579696D01*
X222144Y579667D01*
X222027Y579638D01*
X221852Y579551D01*
X221590Y579463D01*
X221269Y579347D01*
X220919Y579230D01*
X220511Y579142D01*
X220044Y579026D01*
X219986D01*
X219811Y578997D01*
X219549Y578938D01*
X219228Y578909D01*
X218820Y578851D01*
X218353Y578792D01*
X217828Y578763D01*
X217041D01*
X216720Y578792D01*
X216341Y578822D01*
X215875Y578880D01*
X215408Y578967D01*
X214912Y579084D01*
X214446Y579259D01*
X214388Y579288D01*
X214242Y579347D01*
X214009Y579463D01*
X213717Y579609D01*
X213396Y579813D01*
X213046Y580046D01*
X212696Y580338D01*
X212376Y580659D01*
X212346Y580688D01*
X212230Y580834D01*
X212084Y581008D01*
X211909Y581271D01*
X211705Y581592D01*
X211472Y581971D01*
X211268Y582379D01*
X211093Y582846D01*
Y582875D01*
X211063Y582904D01*
X211034Y583079D01*
X210976Y583341D01*
X210889Y583662D01*
X210801Y584099D01*
X210743Y584566D01*
X210714Y585062D01*
X210684Y585616D01*
Y585645D01*
Y585674D01*
Y585761D01*
Y585878D01*
X210714Y586170D01*
X210743Y586520D01*
X210772Y586957D01*
X210859Y587424D01*
X210947Y587919D01*
X211093Y588386D01*
Y588415D01*
X211122Y588444D01*
X211180Y588590D01*
X211268Y588852D01*
X211384Y589144D01*
X211559Y589494D01*
X211763Y589844D01*
X212026Y590223D01*
X212288Y590573D01*
X212317Y590602D01*
X212434Y590719D01*
X212609Y590894D01*
X212813Y591098D01*
X213105Y591302D01*
X213425Y591535D01*
X213804Y591768D01*
X214213Y591972D01*
X214271Y592002D01*
X214417Y592060D01*
X214650Y592147D01*
X214971Y592235D01*
X215350Y592322D01*
X215787Y592410D01*
X216254Y592468D01*
X216779Y592497D01*
X217012D01*
X217274Y592468D01*
D02*
G37*
G36*
X176393Y592468D02*
X176714Y592439D01*
X177093Y592381D01*
X177501Y592322D01*
X177910Y592206D01*
X178318Y592060D01*
X178376Y592031D01*
X178493Y591972D01*
X178697Y591885D01*
X178930Y591739D01*
X179222Y591564D01*
X179513Y591360D01*
X179805Y591127D01*
X180067Y590835D01*
X180096Y590806D01*
X180184Y590689D01*
X180330Y590514D01*
X180476Y590310D01*
X180651Y590019D01*
X180855Y589698D01*
X181029Y589348D01*
X181175Y588940D01*
X181204Y588881D01*
X181234Y588765D01*
X181292Y588532D01*
X181379Y588240D01*
X181438Y587890D01*
X181496Y587453D01*
X181525Y587015D01*
X181554Y586520D01*
Y585936D01*
Y585878D01*
Y585761D01*
X181525Y585587D01*
X181496Y585382D01*
X173040Y584245D01*
Y584216D01*
Y584187D01*
X173098Y584012D01*
X173157Y583750D01*
X173273Y583429D01*
X173448Y583079D01*
X173652Y582700D01*
X173915Y582350D01*
X174235Y582058D01*
X174294Y582029D01*
X174410Y581942D01*
X174615Y581825D01*
X174906Y581708D01*
X175256Y581592D01*
X175664Y581475D01*
X176160Y581388D01*
X176685Y581358D01*
X177064D01*
X177297Y581388D01*
X177589Y581417D01*
X177939Y581446D01*
X178638Y581592D01*
X178697D01*
X178813Y581621D01*
X178988Y581679D01*
X179222Y581767D01*
X179484Y581825D01*
X179776Y581942D01*
X180330Y582175D01*
X181292Y579696D01*
X181263Y579667D01*
X181146Y579638D01*
X180971Y579551D01*
X180709Y579463D01*
X180388Y579346D01*
X180038Y579230D01*
X179630Y579142D01*
X179163Y579026D01*
X179105D01*
X178930Y578997D01*
X178668Y578938D01*
X178347Y578909D01*
X177939Y578851D01*
X177472Y578792D01*
X176947Y578763D01*
X176160D01*
X175839Y578792D01*
X175460Y578822D01*
X174994Y578880D01*
X174527Y578967D01*
X174031Y579084D01*
X173565Y579259D01*
X173507Y579288D01*
X173361Y579346D01*
X173127Y579463D01*
X172836Y579609D01*
X172515Y579813D01*
X172165Y580046D01*
X171815Y580338D01*
X171495Y580659D01*
X171465Y580688D01*
X171349Y580834D01*
X171203Y581008D01*
X171028Y581271D01*
X170824Y581592D01*
X170590Y581971D01*
X170386Y582379D01*
X170212Y582845D01*
Y582875D01*
X170182Y582904D01*
X170153Y583079D01*
X170095Y583341D01*
X170007Y583662D01*
X169920Y584099D01*
X169862Y584566D01*
X169832Y585062D01*
X169803Y585616D01*
Y585645D01*
Y585674D01*
Y585761D01*
Y585878D01*
X169832Y586170D01*
X169862Y586520D01*
X169891Y586957D01*
X169978Y587424D01*
X170066Y587919D01*
X170212Y588386D01*
Y588415D01*
X170241Y588444D01*
X170299Y588590D01*
X170386Y588852D01*
X170503Y589144D01*
X170678Y589494D01*
X170882Y589844D01*
X171145Y590223D01*
X171407Y590573D01*
X171436Y590602D01*
X171553Y590718D01*
X171728Y590894D01*
X171932Y591098D01*
X172223Y591302D01*
X172544Y591535D01*
X172923Y591768D01*
X173332Y591972D01*
X173390Y592001D01*
X173536Y592060D01*
X173769Y592147D01*
X174090Y592235D01*
X174469Y592322D01*
X174906Y592410D01*
X175373Y592468D01*
X175898Y592497D01*
X176131D01*
X176393Y592468D01*
D02*
G37*
G36*
X141752D02*
X142073Y592439D01*
X142481Y592381D01*
X142889Y592264D01*
X143327Y592147D01*
X143764Y591972D01*
X143822Y591943D01*
X143939Y591885D01*
X144143Y591768D01*
X144406Y591593D01*
X144697Y591389D01*
X145018Y591127D01*
X145339Y590835D01*
X145630Y590514D01*
X145659Y590485D01*
X145747Y590369D01*
X145893Y590164D01*
X146068Y589902D01*
X146243Y589581D01*
X146418Y589231D01*
X146622Y588823D01*
X146768Y588357D01*
X146797Y588298D01*
X146826Y588153D01*
X146884Y587890D01*
X146972Y587540D01*
X147059Y587132D01*
X147117Y586665D01*
X147147Y586170D01*
X147176Y585616D01*
Y585587D01*
Y585557D01*
Y585470D01*
Y585382D01*
X147147Y585091D01*
X147117Y584741D01*
X147088Y584304D01*
X147001Y583837D01*
X146913Y583370D01*
X146768Y582875D01*
X146738Y582816D01*
X146709Y582671D01*
X146622Y582437D01*
X146476Y582146D01*
X146330Y581796D01*
X146126Y581417D01*
X145893Y581038D01*
X145630Y580688D01*
X145601Y580659D01*
X145485Y580542D01*
X145339Y580367D01*
X145105Y580163D01*
X144843Y579930D01*
X144522Y579696D01*
X144172Y579463D01*
X143764Y579259D01*
X143706Y579230D01*
X143560Y579171D01*
X143327Y579113D01*
X143035Y579026D01*
X142656Y578909D01*
X142219Y578851D01*
X141752Y578792D01*
X141227Y578763D01*
X140994D01*
X140702Y578792D01*
X140382Y578822D01*
X139973Y578880D01*
X139536Y578967D01*
X139099Y579084D01*
X138661Y579259D01*
X138603Y579288D01*
X138486Y579346D01*
X138282Y579463D01*
X138020Y579638D01*
X137728Y579842D01*
X137407Y580075D01*
X137087Y580367D01*
X136795Y580688D01*
X136766Y580717D01*
X136678Y580863D01*
X136533Y581038D01*
X136358Y581300D01*
X136183Y581621D01*
X136008Y582000D01*
X135804Y582408D01*
X135658Y582875D01*
Y582904D01*
X135629Y582933D01*
X135599Y583108D01*
X135541Y583370D01*
X135483Y583691D01*
X135395Y584099D01*
X135337Y584566D01*
X135308Y585091D01*
X135279Y585616D01*
Y585645D01*
Y585674D01*
Y585761D01*
Y585878D01*
X135308Y586141D01*
X135337Y586520D01*
X135366Y586928D01*
X135454Y587394D01*
X135541Y587890D01*
X135658Y588357D01*
Y588386D01*
X135687Y588415D01*
X135716Y588561D01*
X135833Y588794D01*
X135949Y589086D01*
X136095Y589436D01*
X136299Y589785D01*
X136533Y590164D01*
X136795Y590514D01*
X136824Y590544D01*
X136941Y590660D01*
X137087Y590835D01*
X137320Y591039D01*
X137582Y591273D01*
X137903Y591535D01*
X138253Y591768D01*
X138661Y591972D01*
X138720Y592001D01*
X138865Y592060D01*
X139099Y592147D01*
X139419Y592235D01*
X139798Y592322D01*
X140236Y592410D01*
X140702Y592468D01*
X141227Y592497D01*
X141461D01*
X141752Y592468D01*
D02*
G37*
%LPC*%
G36*
X204399Y141834D02*
X204124D01*
X203874Y141809D01*
X203549Y141760D01*
X203474D01*
X203399Y141735D01*
X203324D01*
X203099Y141685D01*
X202874Y141609D01*
Y136811D01*
X202899D01*
X202949Y136786D01*
X203074D01*
X203199Y136761D01*
X203399Y136736D01*
X203599D01*
X203849Y136711D01*
X204374D01*
X204674Y136736D01*
X205024Y136786D01*
X205399Y136886D01*
X205798Y136986D01*
X206173Y137161D01*
X206498Y137386D01*
X206523Y137411D01*
X206623Y137510D01*
X206748Y137661D01*
X206923Y137885D01*
X207073Y138135D01*
X207198Y138460D01*
X207298Y138835D01*
X207323Y139260D01*
Y139285D01*
Y139360D01*
X207298Y139510D01*
X207273Y139660D01*
X207223Y139860D01*
X207173Y140085D01*
X207073Y140310D01*
X206948Y140560D01*
X206798Y140785D01*
X206598Y141010D01*
X206373Y141235D01*
X206098Y141434D01*
X205749Y141609D01*
X205374Y141735D01*
X204924Y141809D01*
X204399Y141834D01*
D02*
G37*
G36*
X251287Y141335D02*
X251237D01*
Y141310D01*
X251212Y141260D01*
X251162Y141160D01*
X251087Y141035D01*
X251062Y141010D01*
X251012Y140910D01*
X250937Y140760D01*
X250837Y140585D01*
X250812Y140535D01*
X250737Y140435D01*
X250637Y140260D01*
X250537Y140060D01*
X250512Y140010D01*
X250462Y139910D01*
X250362Y139760D01*
X250262Y139610D01*
X246838Y134486D01*
X251237D01*
Y139360D01*
Y139385D01*
Y139485D01*
Y139610D01*
Y139785D01*
Y139985D01*
Y140210D01*
X251262Y140635D01*
Y140660D01*
Y140735D01*
Y140835D01*
X251287Y140935D01*
Y141185D01*
Y141260D01*
Y141335D01*
D02*
G37*
G36*
X216896Y137985D02*
X216846D01*
X216721Y137960D01*
X216521Y137935D01*
X216271Y137860D01*
X215996Y137760D01*
X215696Y137585D01*
X215446Y137336D01*
X215196Y137011D01*
X215171Y136961D01*
X215096Y136836D01*
X215021Y136611D01*
X214921Y136336D01*
X214796Y135936D01*
X214721Y135486D01*
X214646Y134961D01*
X214621Y134361D01*
Y134336D01*
Y134286D01*
Y134211D01*
Y134086D01*
X214646Y133937D01*
Y133786D01*
X214696Y133412D01*
X214771Y132987D01*
X214871Y132537D01*
X214996Y132112D01*
X215196Y131712D01*
X215221Y131662D01*
X215296Y131562D01*
X215446Y131412D01*
X215621Y131237D01*
X215871Y131062D01*
X216146Y130912D01*
X216496Y130812D01*
X216896Y130762D01*
X216946D01*
X217071Y130787D01*
X217271Y130812D01*
X217521Y130887D01*
X217795Y130987D01*
X218070Y131162D01*
X218345Y131387D01*
X218570Y131712D01*
X218595Y131762D01*
X218670Y131887D01*
X218745Y132112D01*
X218870Y132412D01*
X218970Y132787D01*
X219045Y133237D01*
X219120Y133762D01*
X219145Y134361D01*
Y134386D01*
Y134436D01*
Y134536D01*
Y134636D01*
X219120Y134786D01*
Y134961D01*
X219070Y135336D01*
X218995Y135761D01*
X218895Y136186D01*
X218770Y136636D01*
X218570Y137011D01*
X218545Y137061D01*
X218470Y137161D01*
X218345Y137311D01*
X218145Y137510D01*
X217920Y137685D01*
X217621Y137836D01*
X217296Y137935D01*
X216896Y137985D01*
D02*
G37*
G36*
X849399Y141834D02*
X849124D01*
X848874Y141810D01*
X848549Y141760D01*
X848474D01*
X848399Y141735D01*
X848324D01*
X848099Y141685D01*
X847874Y141609D01*
Y136811D01*
X847899D01*
X847949Y136786D01*
X848074D01*
X848199Y136761D01*
X848399Y136736D01*
X848599D01*
X848849Y136711D01*
X849374D01*
X849674Y136736D01*
X850024Y136786D01*
X850399Y136886D01*
X850798Y136986D01*
X851173Y137161D01*
X851498Y137386D01*
X851523Y137411D01*
X851623Y137511D01*
X851748Y137661D01*
X851923Y137886D01*
X852073Y138135D01*
X852198Y138460D01*
X852298Y138835D01*
X852323Y139260D01*
Y139285D01*
Y139360D01*
X852298Y139510D01*
X852273Y139660D01*
X852223Y139860D01*
X852173Y140085D01*
X852073Y140310D01*
X851948Y140560D01*
X851798Y140785D01*
X851598Y141010D01*
X851373Y141235D01*
X851098Y141435D01*
X850749Y141609D01*
X850374Y141735D01*
X849924Y141810D01*
X849399Y141834D01*
D02*
G37*
G36*
X861896Y137985D02*
X861846D01*
X861721Y137961D01*
X861521Y137935D01*
X861271Y137860D01*
X860996Y137760D01*
X860696Y137586D01*
X860446Y137336D01*
X860196Y137011D01*
X860171Y136961D01*
X860096Y136836D01*
X860021Y136611D01*
X859921Y136336D01*
X859796Y135936D01*
X859721Y135486D01*
X859646Y134961D01*
X859621Y134361D01*
Y134336D01*
Y134286D01*
Y134211D01*
Y134087D01*
X859646Y133937D01*
Y133786D01*
X859696Y133412D01*
X859771Y132987D01*
X859871Y132537D01*
X859996Y132112D01*
X860196Y131712D01*
X860221Y131662D01*
X860296Y131562D01*
X860446Y131412D01*
X860621Y131237D01*
X860871Y131062D01*
X861146Y130912D01*
X861496Y130812D01*
X861896Y130762D01*
X861946D01*
X862071Y130787D01*
X862271Y130812D01*
X862521Y130887D01*
X862795Y130987D01*
X863070Y131162D01*
X863345Y131387D01*
X863570Y131712D01*
X863595Y131762D01*
X863670Y131887D01*
X863745Y132112D01*
X863870Y132412D01*
X863970Y132787D01*
X864045Y133237D01*
X864120Y133762D01*
X864145Y134361D01*
Y134386D01*
Y134436D01*
Y134536D01*
Y134636D01*
X864120Y134786D01*
Y134961D01*
X864070Y135336D01*
X863995Y135761D01*
X863895Y136186D01*
X863770Y136636D01*
X863570Y137011D01*
X863545Y137061D01*
X863470Y137161D01*
X863345Y137311D01*
X863145Y137511D01*
X862920Y137686D01*
X862620Y137836D01*
X862296Y137935D01*
X861896Y137985D01*
D02*
G37*
G36*
X634399Y141834D02*
X634124D01*
X633874Y141809D01*
X633549Y141760D01*
X633474D01*
X633399Y141735D01*
X633324D01*
X633099Y141685D01*
X632874Y141609D01*
Y136811D01*
X632899D01*
X632949Y136786D01*
X633074D01*
X633199Y136761D01*
X633399Y136736D01*
X633599D01*
X633849Y136711D01*
X634374D01*
X634674Y136736D01*
X635024Y136786D01*
X635399Y136886D01*
X635798Y136986D01*
X636173Y137161D01*
X636498Y137386D01*
X636523Y137411D01*
X636623Y137510D01*
X636748Y137661D01*
X636923Y137885D01*
X637073Y138135D01*
X637198Y138460D01*
X637298Y138835D01*
X637323Y139260D01*
Y139285D01*
Y139360D01*
X637298Y139510D01*
X637273Y139660D01*
X637223Y139860D01*
X637173Y140085D01*
X637073Y140310D01*
X636948Y140560D01*
X636798Y140785D01*
X636598Y141010D01*
X636373Y141235D01*
X636098Y141434D01*
X635748Y141609D01*
X635374Y141735D01*
X634924Y141809D01*
X634399Y141834D01*
D02*
G37*
G36*
X646896Y137985D02*
X646846D01*
X646721Y137960D01*
X646521Y137935D01*
X646271Y137860D01*
X645996Y137760D01*
X645696Y137585D01*
X645446Y137336D01*
X645196Y137011D01*
X645171Y136961D01*
X645096Y136836D01*
X645021Y136611D01*
X644921Y136336D01*
X644796Y135936D01*
X644721Y135486D01*
X644646Y134961D01*
X644621Y134361D01*
Y134336D01*
Y134286D01*
Y134211D01*
Y134086D01*
X644646Y133937D01*
Y133786D01*
X644696Y133412D01*
X644771Y132987D01*
X644871Y132537D01*
X644996Y132112D01*
X645196Y131712D01*
X645221Y131662D01*
X645296Y131562D01*
X645446Y131412D01*
X645621Y131237D01*
X645871Y131062D01*
X646146Y130912D01*
X646496Y130812D01*
X646896Y130762D01*
X646946D01*
X647071Y130787D01*
X647271Y130812D01*
X647521Y130887D01*
X647795Y130987D01*
X648070Y131162D01*
X648345Y131387D01*
X648570Y131712D01*
X648595Y131762D01*
X648670Y131887D01*
X648745Y132112D01*
X648870Y132412D01*
X648970Y132787D01*
X649045Y133237D01*
X649120Y133762D01*
X649145Y134361D01*
Y134386D01*
Y134436D01*
Y134536D01*
Y134636D01*
X649120Y134786D01*
Y134961D01*
X649070Y135336D01*
X648995Y135761D01*
X648895Y136186D01*
X648770Y136636D01*
X648570Y137011D01*
X648545Y137061D01*
X648470Y137161D01*
X648345Y137311D01*
X648145Y137510D01*
X647920Y137685D01*
X647620Y137836D01*
X647296Y137935D01*
X646896Y137985D01*
D02*
G37*
G36*
X419399Y141834D02*
X419124D01*
X418874Y141809D01*
X418549Y141760D01*
X418474D01*
X418399Y141735D01*
X418324D01*
X418099Y141685D01*
X417874Y141609D01*
Y136811D01*
X417899D01*
X417949Y136786D01*
X418074D01*
X418199Y136761D01*
X418399Y136736D01*
X418599D01*
X418849Y136711D01*
X419374D01*
X419674Y136736D01*
X420024Y136786D01*
X420399Y136886D01*
X420798Y136986D01*
X421173Y137161D01*
X421498Y137386D01*
X421523Y137411D01*
X421623Y137510D01*
X421748Y137661D01*
X421923Y137885D01*
X422073Y138135D01*
X422198Y138460D01*
X422298Y138835D01*
X422323Y139260D01*
Y139285D01*
Y139360D01*
X422298Y139510D01*
X422273Y139660D01*
X422223Y139860D01*
X422173Y140085D01*
X422073Y140310D01*
X421948Y140560D01*
X421798Y140785D01*
X421598Y141010D01*
X421373Y141235D01*
X421098Y141434D01*
X420748Y141609D01*
X420374Y141735D01*
X419924Y141809D01*
X419399Y141834D01*
D02*
G37*
G36*
X431896Y137985D02*
X431846D01*
X431721Y137960D01*
X431521Y137935D01*
X431271Y137860D01*
X430996Y137760D01*
X430696Y137585D01*
X430446Y137336D01*
X430196Y137011D01*
X430171Y136961D01*
X430096Y136836D01*
X430021Y136611D01*
X429921Y136336D01*
X429796Y135936D01*
X429721Y135486D01*
X429646Y134961D01*
X429621Y134361D01*
Y134336D01*
Y134286D01*
Y134211D01*
Y134086D01*
X429646Y133937D01*
Y133786D01*
X429696Y133412D01*
X429771Y132987D01*
X429871Y132537D01*
X429996Y132112D01*
X430196Y131712D01*
X430221Y131662D01*
X430296Y131562D01*
X430446Y131412D01*
X430621Y131237D01*
X430871Y131062D01*
X431146Y130912D01*
X431496Y130812D01*
X431896Y130762D01*
X431946D01*
X432071Y130787D01*
X432271Y130812D01*
X432520Y130887D01*
X432795Y130987D01*
X433070Y131162D01*
X433345Y131387D01*
X433570Y131712D01*
X433595Y131762D01*
X433670Y131887D01*
X433745Y132112D01*
X433870Y132412D01*
X433970Y132787D01*
X434045Y133237D01*
X434120Y133762D01*
X434145Y134361D01*
Y134386D01*
Y134436D01*
Y134536D01*
Y134636D01*
X434120Y134786D01*
Y134961D01*
X434070Y135336D01*
X433995Y135761D01*
X433895Y136186D01*
X433770Y136636D01*
X433570Y137011D01*
X433545Y137061D01*
X433470Y137161D01*
X433345Y137311D01*
X433145Y137510D01*
X432920Y137685D01*
X432621Y137836D01*
X432296Y137935D01*
X431896Y137985D01*
D02*
G37*
G36*
X55234Y439310D02*
X50435D01*
Y439285D01*
X50410Y439235D01*
Y439110D01*
X50385Y438985D01*
X50360Y438785D01*
Y438585D01*
X50335Y438335D01*
Y437810D01*
X50360Y437510D01*
X50410Y437160D01*
X50510Y436785D01*
X50610Y436385D01*
X50785Y436010D01*
X51010Y435685D01*
X51035Y435660D01*
X51135Y435560D01*
X51285Y435435D01*
X51509Y435261D01*
X51760Y435111D01*
X52084Y434986D01*
X52459Y434886D01*
X52884Y434861D01*
X52909D01*
X52984D01*
X53134Y434886D01*
X53284Y434911D01*
X53484Y434961D01*
X53709Y435011D01*
X53934Y435111D01*
X54184Y435236D01*
X54409Y435386D01*
X54634Y435586D01*
X54859Y435810D01*
X55059Y436085D01*
X55234Y436435D01*
X55359Y436810D01*
X55434Y437260D01*
X55458Y437785D01*
Y438060D01*
X55434Y438310D01*
X55384Y438635D01*
Y438710D01*
X55359Y438785D01*
Y438860D01*
X55309Y439085D01*
X55234Y439310D01*
D02*
G37*
G36*
X47986Y427562D02*
X47961D01*
X47910D01*
X47835D01*
X47710D01*
X47561Y427537D01*
X47411D01*
X47036Y427487D01*
X46611Y427413D01*
X46161Y427313D01*
X45736Y427188D01*
X45336Y426988D01*
X45286Y426963D01*
X45186Y426888D01*
X45036Y426738D01*
X44861Y426563D01*
X44686Y426313D01*
X44536Y426038D01*
X44436Y425688D01*
X44386Y425288D01*
Y425238D01*
X44411Y425113D01*
X44436Y424913D01*
X44511Y424663D01*
X44611Y424388D01*
X44786Y424113D01*
X45011Y423839D01*
X45336Y423614D01*
X45386Y423588D01*
X45511Y423514D01*
X45736Y423439D01*
X46036Y423314D01*
X46411Y423214D01*
X46861Y423139D01*
X47386Y423064D01*
X47986Y423039D01*
X48010D01*
X48060D01*
X48160D01*
X48260D01*
X48410Y423064D01*
X48585D01*
X48960Y423114D01*
X49385Y423189D01*
X49810Y423289D01*
X50260Y423414D01*
X50635Y423614D01*
X50685Y423638D01*
X50785Y423713D01*
X50935Y423839D01*
X51135Y424038D01*
X51310Y424263D01*
X51460Y424563D01*
X51560Y424888D01*
X51610Y425288D01*
Y425338D01*
X51585Y425463D01*
X51560Y425663D01*
X51485Y425913D01*
X51385Y426188D01*
X51210Y426488D01*
X50960Y426738D01*
X50635Y426988D01*
X50585Y427013D01*
X50460Y427088D01*
X50235Y427163D01*
X49960Y427263D01*
X49560Y427388D01*
X49110Y427463D01*
X48585Y427537D01*
X47986Y427562D01*
D02*
G37*
G36*
X48585Y398220D02*
X49235Y393471D01*
X49260D01*
X49285D01*
X49435D01*
X49660Y393496D01*
X49960Y393546D01*
X50260Y393621D01*
X50585Y393721D01*
X50885Y393846D01*
X51135Y394046D01*
X51160Y394071D01*
X51235Y394146D01*
X51335Y394271D01*
X51460Y394471D01*
X51585Y394696D01*
X51684Y394971D01*
X51760Y395271D01*
X51785Y395646D01*
Y395821D01*
X51734Y396046D01*
X51684Y396296D01*
X51585Y396595D01*
X51435Y396895D01*
X51235Y397195D01*
X50960Y397470D01*
X50935Y397495D01*
X50810Y397570D01*
X50635Y397695D01*
X50360Y397820D01*
X50035Y397970D01*
X49610Y398070D01*
X49135Y398170D01*
X48585Y398220D01*
D02*
G37*
G36*
X51410Y355006D02*
X44586D01*
Y354981D01*
X44536Y354856D01*
X44486Y354681D01*
X44436Y354431D01*
Y354356D01*
X44411Y354281D01*
Y354181D01*
X44386Y353931D01*
Y353531D01*
X44411Y353406D01*
Y353256D01*
X44486Y352882D01*
X44636Y352482D01*
X44661Y352457D01*
X44686Y352407D01*
X44761Y352307D01*
X44836Y352182D01*
X45061Y351907D01*
X45386Y351632D01*
X45411Y351607D01*
X45486Y351582D01*
X45586Y351507D01*
X45711Y351432D01*
X45886Y351357D01*
X46086Y351282D01*
X46536Y351132D01*
X46561D01*
X46661Y351107D01*
X46786Y351082D01*
X46986Y351032D01*
X47186Y351007D01*
X47436Y350982D01*
X48010Y350957D01*
X48035D01*
X48085D01*
X48185D01*
X48285D01*
X48435Y350982D01*
X48610D01*
X48985Y351032D01*
X49410Y351132D01*
X49860Y351257D01*
X50310Y351432D01*
X50685Y351657D01*
X50735Y351682D01*
X50835Y351782D01*
X50985Y351957D01*
X51160Y352182D01*
X51335Y352457D01*
X51485Y352807D01*
X51585Y353207D01*
X51634Y353681D01*
Y353931D01*
X51610Y354181D01*
X51560Y354456D01*
Y354506D01*
X51535Y354656D01*
X51485Y354831D01*
X51410Y355006D01*
D02*
G37*
G36*
X1039414Y347105D02*
X1032591D01*
Y347080D01*
X1032541Y346955D01*
X1032491Y346781D01*
X1032441Y346531D01*
Y346456D01*
X1032416Y346381D01*
Y346281D01*
X1032391Y346031D01*
Y345631D01*
X1032416Y345506D01*
Y345356D01*
X1032491Y344981D01*
X1032641Y344581D01*
X1032666Y344556D01*
X1032691Y344506D01*
X1032766Y344406D01*
X1032841Y344281D01*
X1033066Y344006D01*
X1033391Y343731D01*
X1033416Y343706D01*
X1033491Y343681D01*
X1033590Y343606D01*
X1033715Y343531D01*
X1033890Y343456D01*
X1034090Y343382D01*
X1034540Y343232D01*
X1034565D01*
X1034665Y343206D01*
X1034790Y343181D01*
X1034990Y343131D01*
X1035190Y343106D01*
X1035440Y343082D01*
X1036015Y343056D01*
X1036040D01*
X1036090D01*
X1036190D01*
X1036290D01*
X1036440Y343082D01*
X1036615D01*
X1036990Y343131D01*
X1037414Y343232D01*
X1037864Y343357D01*
X1038314Y343531D01*
X1038689Y343756D01*
X1038739Y343781D01*
X1038839Y343881D01*
X1038989Y344056D01*
X1039164Y344281D01*
X1039339Y344556D01*
X1039489Y344906D01*
X1039589Y345306D01*
X1039639Y345781D01*
Y346031D01*
X1039614Y346281D01*
X1039564Y346556D01*
Y346606D01*
X1039539Y346756D01*
X1039489Y346931D01*
X1039414Y347105D01*
D02*
G37*
G36*
X1036590Y310665D02*
X1037240Y305916D01*
X1037264D01*
X1037290D01*
X1037439D01*
X1037664Y305941D01*
X1037964Y305991D01*
X1038264Y306066D01*
X1038589Y306166D01*
X1038889Y306291D01*
X1039139Y306491D01*
X1039164Y306516D01*
X1039239Y306591D01*
X1039339Y306716D01*
X1039464Y306916D01*
X1039589Y307141D01*
X1039689Y307416D01*
X1039764Y307716D01*
X1039789Y308090D01*
Y308265D01*
X1039739Y308490D01*
X1039689Y308740D01*
X1039589Y309040D01*
X1039439Y309340D01*
X1039239Y309640D01*
X1038964Y309915D01*
X1038939Y309940D01*
X1038814Y310015D01*
X1038639Y310140D01*
X1038364Y310265D01*
X1038039Y310415D01*
X1037614Y310515D01*
X1037140Y310615D01*
X1036590Y310665D01*
D02*
G37*
G36*
X1061633Y309053D02*
X1057459D01*
Y306928D01*
X1057484Y306753D01*
X1057509Y306353D01*
X1057534Y306154D01*
X1057584Y305979D01*
Y305954D01*
X1057609Y305904D01*
X1057634Y305829D01*
X1057684Y305704D01*
X1057784Y305454D01*
X1057959Y305179D01*
X1057984Y305154D01*
X1058009Y305129D01*
X1058159Y304979D01*
X1058384Y304829D01*
X1058684Y304654D01*
X1058709D01*
X1058759Y304629D01*
X1058859Y304579D01*
X1058984Y304554D01*
X1059134Y304504D01*
X1059309Y304479D01*
X1059709Y304454D01*
X1059759D01*
X1059884D01*
X1060059Y304479D01*
X1060284Y304529D01*
X1060558Y304629D01*
X1060808Y304754D01*
X1061083Y304929D01*
X1061308Y305154D01*
X1061333Y305179D01*
X1061408Y305279D01*
X1061483Y305454D01*
X1061608Y305679D01*
X1061708Y305979D01*
X1061783Y306353D01*
X1061858Y306778D01*
X1061883Y307303D01*
Y307603D01*
X1061858Y307928D01*
X1061808Y308303D01*
Y308378D01*
X1061783Y308478D01*
X1061758Y308578D01*
X1061708Y308828D01*
X1061633Y309053D01*
D02*
G37*
G36*
X1055385D02*
X1050961D01*
Y309028D01*
X1050936Y309003D01*
Y308928D01*
X1050911Y308828D01*
X1050836Y308578D01*
X1050786Y308253D01*
Y308178D01*
X1050761Y308078D01*
Y307953D01*
X1050736Y307628D01*
X1050711Y307278D01*
Y307153D01*
X1050736Y306978D01*
Y306778D01*
X1050786Y306553D01*
X1050836Y306278D01*
X1050911Y306003D01*
X1051011Y305704D01*
X1051136Y305429D01*
X1051286Y305154D01*
X1051461Y304879D01*
X1051686Y304629D01*
X1051961Y304454D01*
X1052261Y304279D01*
X1052636Y304179D01*
X1053036Y304154D01*
X1053061D01*
X1053085D01*
X1053235Y304179D01*
X1053460Y304204D01*
X1053735Y304279D01*
X1054060Y304379D01*
X1054360Y304554D01*
X1054635Y304779D01*
X1054885Y305104D01*
Y305129D01*
X1054935Y305179D01*
X1054960Y305254D01*
X1055035Y305354D01*
X1055160Y305604D01*
X1055260Y305928D01*
Y305954D01*
X1055285Y306003D01*
X1055310Y306103D01*
X1055335Y306254D01*
Y306428D01*
X1055360Y306628D01*
X1055385Y306878D01*
Y309053D01*
D02*
G37*
G36*
X1033790Y298843D02*
X1033765D01*
X1033665D01*
X1033515Y298818D01*
X1033341Y298768D01*
X1033141Y298693D01*
X1032916Y298593D01*
X1032716Y298468D01*
X1032541Y298268D01*
X1032516Y298243D01*
X1032466Y298143D01*
X1032416Y298018D01*
X1032341Y297818D01*
X1032241Y297568D01*
X1032191Y297268D01*
X1032141Y296918D01*
X1032116Y296518D01*
Y296243D01*
X1032141Y295944D01*
X1032166Y295619D01*
Y295594D01*
X1032191Y295544D01*
Y295444D01*
X1032216Y295344D01*
X1032266Y295119D01*
X1032341Y294919D01*
X1035765D01*
Y295044D01*
X1035740Y295219D01*
Y295419D01*
X1035715Y295644D01*
X1035690Y295894D01*
X1035640Y296444D01*
Y296568D01*
X1035615Y296693D01*
X1035590Y296868D01*
X1035515Y297243D01*
X1035365Y297668D01*
Y297693D01*
X1035340Y297743D01*
X1035290Y297843D01*
X1035215Y297968D01*
X1035040Y298243D01*
X1034790Y298518D01*
X1034765Y298543D01*
X1034715Y298568D01*
X1034640Y298618D01*
X1034515Y298668D01*
X1034390Y298743D01*
X1034215Y298793D01*
X1034015Y298818D01*
X1033790Y298843D01*
D02*
G37*
G36*
X55345Y237199D02*
X54674D01*
X54441Y237170D01*
X53916Y237111D01*
X53654Y237053D01*
X53420Y236966D01*
Y224981D01*
X53450D01*
X53508Y224952D01*
X53654Y224923D01*
X53829Y224864D01*
X54033Y224835D01*
X54324Y224777D01*
X54645Y224748D01*
X55170D01*
X55345Y224777D01*
X55578Y224806D01*
X55841Y224835D01*
X56103Y224894D01*
X56395Y224981D01*
X56686Y225098D01*
X56715Y225127D01*
X56832Y225156D01*
X56978Y225243D01*
X57153Y225360D01*
X57357Y225535D01*
X57590Y225710D01*
X57823Y225943D01*
X58028Y226206D01*
X58057Y226235D01*
X58115Y226352D01*
X58232Y226497D01*
X58348Y226731D01*
X58465Y227022D01*
X58611Y227343D01*
X58756Y227722D01*
X58873Y228130D01*
X58902Y228189D01*
X58931Y228334D01*
X58990Y228597D01*
X59048Y228947D01*
X59106Y229355D01*
X59135Y229851D01*
X59194Y230375D01*
Y230988D01*
Y231017D01*
Y231075D01*
Y231134D01*
Y231250D01*
X59165Y231571D01*
Y231950D01*
X59106Y232388D01*
X59048Y232854D01*
X58990Y233321D01*
X58873Y233787D01*
Y233846D01*
X58815Y233991D01*
X58756Y234195D01*
X58669Y234487D01*
X58552Y234778D01*
X58407Y235128D01*
X58232Y235449D01*
X58028Y235741D01*
X57998Y235770D01*
X57940Y235857D01*
X57823Y236003D01*
X57648Y236178D01*
X57444Y236353D01*
X57240Y236528D01*
X56978Y236703D01*
X56686Y236849D01*
X56657Y236878D01*
X56540Y236907D01*
X56395Y236966D01*
X56191Y237024D01*
X55957Y237082D01*
X55666Y237140D01*
X55345Y237199D01*
D02*
G37*
G36*
X45089Y269232D02*
X45030D01*
Y269203D01*
X45001Y269145D01*
X44943Y269028D01*
X44855Y268882D01*
X44826Y268853D01*
X44768Y268736D01*
X44680Y268561D01*
X44564Y268357D01*
X44535Y268299D01*
X44447Y268183D01*
X44330Y267978D01*
X44214Y267745D01*
X44185Y267687D01*
X44126Y267570D01*
X44010Y267395D01*
X43893Y267220D01*
X39898Y261243D01*
X45030D01*
Y266929D01*
Y266958D01*
Y267074D01*
Y267220D01*
Y267424D01*
Y267658D01*
Y267920D01*
X45059Y268416D01*
Y268445D01*
Y268532D01*
Y268649D01*
X45089Y268766D01*
Y269057D01*
Y269145D01*
Y269232D01*
D02*
G37*
G36*
X245121Y589815D02*
X244655D01*
X244538Y589785D01*
X244276Y589756D01*
X243926Y589669D01*
X243547Y589523D01*
X243168Y589319D01*
X242789Y589027D01*
X242439Y588619D01*
X242410Y588561D01*
X242322Y588415D01*
X242176Y588153D01*
X242031Y587803D01*
X241885Y587365D01*
X241739Y586840D01*
X241651Y586257D01*
X241622Y585587D01*
Y585557D01*
Y585499D01*
Y585382D01*
Y585266D01*
X241651Y585091D01*
X241681Y584887D01*
X241739Y584449D01*
X241826Y583954D01*
X241972Y583429D01*
X242176Y582933D01*
X242439Y582467D01*
X242468Y582408D01*
X242585Y582291D01*
X242789Y582117D01*
X243051Y581912D01*
X243401Y581708D01*
X243780Y581533D01*
X244276Y581417D01*
X244801Y581358D01*
X245063D01*
X245355Y581388D01*
X245676Y581417D01*
X245705D01*
X245763Y581446D01*
X245938Y581475D01*
X246142Y581533D01*
X246346Y581621D01*
Y589552D01*
X246317Y589581D01*
X246200Y589610D01*
X245967Y589669D01*
X245676Y589727D01*
X245646D01*
X245588Y589756D01*
X245501D01*
X245413Y589785D01*
X245121Y589815D01*
D02*
G37*
G36*
X126648Y594363D02*
X126327D01*
X126035Y594334D01*
X125656Y594276D01*
X125569D01*
X125481Y594247D01*
X125394D01*
X125131Y594188D01*
X124869Y594101D01*
Y588502D01*
X124898D01*
X124956Y588473D01*
X125102D01*
X125248Y588444D01*
X125481Y588415D01*
X125715D01*
X126006Y588386D01*
X126618D01*
X126968Y588415D01*
X127377Y588473D01*
X127814Y588590D01*
X128280Y588707D01*
X128718Y588911D01*
X129097Y589173D01*
X129126Y589202D01*
X129243Y589319D01*
X129389Y589494D01*
X129593Y589756D01*
X129768Y590048D01*
X129914Y590427D01*
X130030Y590864D01*
X130059Y591360D01*
Y591389D01*
Y591477D01*
X130030Y591652D01*
X130001Y591827D01*
X129943Y592060D01*
X129884Y592322D01*
X129768Y592585D01*
X129622Y592876D01*
X129447Y593139D01*
X129214Y593401D01*
X128951Y593664D01*
X128631Y593897D01*
X128222Y594101D01*
X127785Y594247D01*
X127260Y594334D01*
X126648Y594363D01*
D02*
G37*
G36*
X303819Y593780D02*
X303761D01*
Y593751D01*
X303731Y593693D01*
X303673Y593576D01*
X303586Y593430D01*
X303556Y593401D01*
X303498Y593285D01*
X303411Y593110D01*
X303294Y592906D01*
X303265Y592847D01*
X303177Y592730D01*
X303061Y592526D01*
X302944Y592293D01*
X302915Y592235D01*
X302857Y592118D01*
X302740Y591943D01*
X302623Y591768D01*
X298629Y585791D01*
X303761D01*
Y591477D01*
Y591506D01*
Y591623D01*
Y591768D01*
Y591972D01*
Y592206D01*
Y592468D01*
X303790Y592964D01*
Y592993D01*
Y593080D01*
Y593197D01*
X303819Y593314D01*
Y593605D01*
Y593693D01*
Y593780D01*
D02*
G37*
G36*
X258214Y590077D02*
X258010D01*
X257747Y590019D01*
X257456Y589960D01*
X257106Y589844D01*
X256756Y589669D01*
X256406Y589436D01*
X256085Y589115D01*
X256056Y589086D01*
X255969Y588940D01*
X255823Y588736D01*
X255677Y588415D01*
X255502Y588036D01*
X255385Y587540D01*
X255269Y586986D01*
X255210Y586345D01*
X260751Y587103D01*
Y587132D01*
Y587161D01*
Y587336D01*
X260722Y587598D01*
X260663Y587948D01*
X260576Y588298D01*
X260459Y588677D01*
X260313Y589027D01*
X260080Y589319D01*
X260051Y589348D01*
X259963Y589436D01*
X259818Y589552D01*
X259584Y589698D01*
X259322Y589844D01*
X259001Y589960D01*
X258651Y590048D01*
X258214Y590077D01*
D02*
G37*
G36*
X230513D02*
X230309D01*
X230046Y590019D01*
X229755Y589960D01*
X229405Y589844D01*
X229055Y589669D01*
X228705Y589436D01*
X228384Y589115D01*
X228355Y589086D01*
X228267Y588940D01*
X228122Y588736D01*
X227976Y588415D01*
X227801Y588036D01*
X227684Y587540D01*
X227568Y586986D01*
X227509Y586345D01*
X233050Y587103D01*
Y587132D01*
Y587161D01*
Y587336D01*
X233020Y587598D01*
X232962Y587948D01*
X232875Y588298D01*
X232758Y588677D01*
X232612Y589027D01*
X232379Y589319D01*
X232350Y589348D01*
X232262Y589436D01*
X232117Y589552D01*
X231883Y589698D01*
X231621Y589844D01*
X231300Y589960D01*
X230950Y590048D01*
X230513Y590077D01*
D02*
G37*
G36*
X216691D02*
X216487D01*
X216225Y590019D01*
X215933Y589960D01*
X215583Y589844D01*
X215233Y589669D01*
X214883Y589436D01*
X214563Y589115D01*
X214534Y589086D01*
X214446Y588940D01*
X214300Y588736D01*
X214154Y588415D01*
X213979Y588036D01*
X213863Y587540D01*
X213746Y586986D01*
X213688Y586345D01*
X219228Y587103D01*
Y587132D01*
Y587161D01*
Y587336D01*
X219199Y587598D01*
X219141Y587948D01*
X219053Y588298D01*
X218937Y588677D01*
X218791Y589027D01*
X218557Y589319D01*
X218528Y589348D01*
X218441Y589436D01*
X218295Y589552D01*
X218062Y589698D01*
X217799Y589844D01*
X217479Y589960D01*
X217129Y590048D01*
X216691Y590077D01*
D02*
G37*
G36*
X175810Y590077D02*
X175606D01*
X175343Y590019D01*
X175052Y589960D01*
X174702Y589844D01*
X174352Y589669D01*
X174002Y589436D01*
X173681Y589115D01*
X173652Y589086D01*
X173565Y588940D01*
X173419Y588736D01*
X173273Y588415D01*
X173098Y588036D01*
X172982Y587540D01*
X172865Y586986D01*
X172807Y586345D01*
X178347Y587103D01*
Y587132D01*
Y587161D01*
Y587336D01*
X178318Y587598D01*
X178259Y587948D01*
X178172Y588298D01*
X178055Y588677D01*
X177910Y589027D01*
X177676Y589319D01*
X177647Y589348D01*
X177560Y589436D01*
X177414Y589552D01*
X177181Y589698D01*
X176918Y589844D01*
X176597Y589960D01*
X176247Y590048D01*
X175810Y590077D01*
D02*
G37*
G36*
X141227Y589873D02*
X141169D01*
X141023Y589844D01*
X140790Y589815D01*
X140498Y589727D01*
X140177Y589610D01*
X139828Y589406D01*
X139536Y589115D01*
X139244Y588736D01*
X139215Y588677D01*
X139128Y588532D01*
X139040Y588269D01*
X138924Y587948D01*
X138778Y587482D01*
X138690Y586957D01*
X138603Y586345D01*
X138574Y585645D01*
Y585616D01*
Y585557D01*
Y585470D01*
Y585324D01*
X138603Y585149D01*
Y584974D01*
X138661Y584537D01*
X138749Y584041D01*
X138865Y583516D01*
X139011Y583021D01*
X139244Y582554D01*
X139274Y582496D01*
X139361Y582379D01*
X139536Y582204D01*
X139740Y582000D01*
X140032Y581796D01*
X140352Y581621D01*
X140761Y581504D01*
X141227Y581446D01*
X141285D01*
X141431Y581475D01*
X141665Y581504D01*
X141956Y581592D01*
X142277Y581708D01*
X142598Y581912D01*
X142919Y582175D01*
X143181Y582554D01*
X143210Y582612D01*
X143298Y582758D01*
X143385Y583021D01*
X143531Y583370D01*
X143647Y583808D01*
X143735Y584333D01*
X143822Y584945D01*
X143852Y585645D01*
Y585674D01*
Y585732D01*
Y585849D01*
Y585966D01*
X143822Y586141D01*
Y586345D01*
X143764Y586782D01*
X143677Y587278D01*
X143560Y587773D01*
X143414Y588298D01*
X143181Y588736D01*
X143152Y588794D01*
X143064Y588911D01*
X142919Y589086D01*
X142685Y589319D01*
X142423Y589523D01*
X142073Y589698D01*
X141694Y589815D01*
X141227Y589873D01*
D02*
G37*
%LPD*%
D38*
X590080Y435988D02*
X650080D01*
X590080Y555988D02*
X650080D01*
X375080Y435988D02*
X435080D01*
X375080Y555988D02*
X435080D01*
X160080Y435988D02*
X220080D01*
X160080Y555988D02*
X220080D01*
X1862Y111190D02*
X76862D01*
X1862D02*
Y211190D01*
X76862D01*
Y111190D02*
Y211190D01*
X805080Y555988D02*
X865080Y555988D01*
X805080Y435988D02*
X865080D01*
D68*
X597768Y404250D02*
G03*
X597768Y404250I-1250J0D01*
G01*
X583380Y313988D02*
G03*
X583380Y313988I-1250J0D01*
G01*
X382768Y404250D02*
G03*
X382768Y404250I-1250J0D01*
G01*
X368380Y313988D02*
G03*
X368380Y313988I-1250J0D01*
G01*
X167768Y404250D02*
G03*
X167768Y404250I-1250J0D01*
G01*
X153380Y313988D02*
G03*
X153380Y313988I-1250J0D01*
G01*
X798380Y313988D02*
G03*
X798380Y313988I-1250J0D01*
G01*
X812768Y404250D02*
G03*
X812768Y404250I-1250J0D01*
G01*
D69*
X575080Y290488D02*
G03*
X575080Y290488I-3000J0D01*
G01*
X360080D02*
G03*
X360080Y290488I-3000J0D01*
G01*
X145080D02*
G03*
X145080Y290488I-3000J0D01*
G01*
X790080D02*
G03*
X790080Y290488I-3000J0D01*
G01*
D70*
X1047130Y529538D02*
G03*
X1047130Y529538I-1000J0D01*
G01*
X610018Y349200D02*
Y404200D01*
X650018Y349200D02*
Y404200D01*
X610018D02*
X650018D01*
X610018Y349200D02*
X650018D01*
X522080Y185088D02*
X534780D01*
X522080Y115588D02*
X522080Y99488D01*
X522080Y154488D02*
X522080Y135488D01*
Y180488D02*
Y185088D01*
X522080Y99488D02*
X608080D01*
X608080Y180488D02*
Y185088D01*
Y135488D02*
X608080Y154488D01*
X608080Y99488D02*
X608080Y115588D01*
X595380Y185088D02*
X608080D01*
X527080Y300488D02*
X582080D01*
X527080Y260488D02*
X582080D01*
Y300488D01*
X527080Y260488D02*
Y300488D01*
X395018Y349200D02*
Y404200D01*
X435018Y349200D02*
Y404200D01*
X395018D02*
X435018D01*
X395018Y349200D02*
X435018D01*
X307080Y185088D02*
X319780D01*
X307080Y115588D02*
X307080Y99488D01*
X307080Y154488D02*
X307080Y135488D01*
Y180488D02*
Y185088D01*
X307080Y99488D02*
X393080D01*
X393080Y180488D02*
Y185088D01*
Y135488D02*
X393080Y154488D01*
X393080Y99488D02*
X393080Y115588D01*
X380380Y185088D02*
X393080D01*
X312080Y300488D02*
X367080D01*
X312080Y260488D02*
X367080D01*
Y300488D01*
X312080Y260488D02*
Y300488D01*
X180018Y349200D02*
Y404200D01*
X220018Y349200D02*
Y404200D01*
X180018D02*
X220018D01*
X180018Y349200D02*
X220018D01*
X92080Y185088D02*
X104780D01*
X92080Y115588D02*
X92080Y99488D01*
X92080Y154488D02*
X92080Y135488D01*
Y180488D02*
Y185088D01*
X92080Y99488D02*
X178080D01*
X178080Y180488D02*
Y185088D01*
Y135488D02*
X178080Y154488D01*
X178080Y99488D02*
X178080Y115588D01*
X165380Y185088D02*
X178080D01*
X97080Y300488D02*
X152080D01*
X97080Y260488D02*
X152080D01*
Y300488D01*
X97080Y260488D02*
Y300488D01*
X742080D02*
X742080Y260488D01*
X797080Y260488D02*
Y300488D01*
X742080Y260488D02*
X797080Y260488D01*
X742080Y300488D02*
X797080D01*
X994480Y247687D02*
Y260387D01*
X1063980D02*
X1080080Y260387D01*
X1025080Y260387D02*
X1044080Y260387D01*
X994480D02*
X999080D01*
X1080080Y174387D02*
Y260387D01*
X994480Y174387D02*
X999080D01*
X1025080Y174387D02*
X1044080Y174387D01*
X1063980D02*
X1080080Y174387D01*
X994480Y174387D02*
Y187087D01*
X810380Y185088D02*
X823080Y185088D01*
X823080Y99488D02*
X823080Y115588D01*
X823080Y135488D02*
X823080Y154488D01*
X823080Y180488D02*
Y185088D01*
X737080Y99488D02*
X823080D01*
X737080Y185088D02*
X737080Y180488D01*
X737080Y154488D02*
X737080Y135488D01*
X737080Y115588D02*
X737080Y99488D01*
X737080Y185088D02*
X749780Y185088D01*
X825018Y349200D02*
X865018D01*
X825018Y404200D02*
X865018D01*
Y349200D02*
Y404200D01*
X825018Y349200D02*
Y404200D01*
D71*
X142124Y417178D02*
G03*
X142124Y417178I-500J0D01*
G01*
X787124D02*
G03*
X787124Y417178I-500J0D01*
G01*
X572124D02*
G03*
X572124Y417178I-500J0D01*
G01*
X357124D02*
G03*
X357124Y417178I-500J0D01*
G01*
X664424Y267924D02*
Y277924D01*
X659424Y272924D02*
X669424D01*
X686424Y194924D02*
Y204924D01*
X681424Y199924D02*
X691424D01*
X449424Y267924D02*
Y277924D01*
X444424Y272924D02*
X454424D01*
X471424Y194924D02*
Y204924D01*
X466424Y199924D02*
X476424D01*
X234424Y267924D02*
Y277924D01*
X229424Y272924D02*
X239424D01*
X256424Y194924D02*
Y204924D01*
X251424Y199924D02*
X261424D01*
X1023112Y568736D02*
X1038352D01*
X1023112Y540796D02*
X1038352D01*
X1012952Y548416D02*
Y561116D01*
X1048512Y548416D02*
Y561116D01*
X729079Y205403D02*
X732029Y202603D01*
X734979Y205403D01*
X729077Y205406D02*
X734979D01*
X1006924Y286924D02*
X1016924D01*
X1011924Y291924D02*
X1011924Y281924D01*
X896424Y199924D02*
X906424D01*
X901424Y194924D02*
Y204924D01*
X87375Y202333D02*
X90325Y199533D01*
X84425D02*
X87375Y202333D01*
X84425Y199529D02*
X90327D01*
X299565Y205657D02*
X302515Y202857D01*
X305465Y205657D01*
X299563Y205660D02*
X305465D01*
X972579Y187377D02*
X975529Y184577D01*
X969629D02*
X972579Y187377D01*
X969629Y184573D02*
X975531D01*
X513941Y207181D02*
X516891Y204380D01*
X519841Y207181D01*
X513939Y207185D02*
X519841D01*
X874424Y272924D02*
X884424D01*
X879424Y267924D02*
Y277924D01*
D72*
X949080Y459488D02*
Y512488D01*
X1051080Y512488D02*
X1051080Y459488D01*
M02*
