G04*
G04 #@! TF.GenerationSoftware,Altium Limited,Altium Designer,23.4.1 (23)*
G04*
G04 Layer_Physical_Order=1*
G04 Layer_Color=255*
%FSLAX44Y44*%
%MOMM*%
G71*
G04*
G04 #@! TF.SameCoordinates,3060DD58-918D-4E1B-9459-4C9D01607EA3*
G04*
G04*
G04 #@! TF.FilePolarity,Positive*
G04*
G01*
G75*
G04:AMPARAMS|DCode=10|XSize=1.45mm|YSize=0.95mm|CornerRadius=0.2375mm|HoleSize=0mm|Usage=FLASHONLY|Rotation=0.000|XOffset=0mm|YOffset=0mm|HoleType=Round|Shape=RoundedRectangle|*
%AMROUNDEDRECTD10*
21,1,1.4500,0.4750,0,0,0.0*
21,1,0.9750,0.9500,0,0,0.0*
1,1,0.4750,0.4875,-0.2375*
1,1,0.4750,-0.4875,-0.2375*
1,1,0.4750,-0.4875,0.2375*
1,1,0.4750,0.4875,0.2375*
%
%ADD10ROUNDEDRECTD10*%
G04:AMPARAMS|DCode=11|XSize=1mm|YSize=0.9mm|CornerRadius=0.225mm|HoleSize=0mm|Usage=FLASHONLY|Rotation=0.000|XOffset=0mm|YOffset=0mm|HoleType=Round|Shape=RoundedRectangle|*
%AMROUNDEDRECTD11*
21,1,1.0000,0.4500,0,0,0.0*
21,1,0.5500,0.9000,0,0,0.0*
1,1,0.4500,0.2750,-0.2250*
1,1,0.4500,-0.2750,-0.2250*
1,1,0.4500,-0.2750,0.2250*
1,1,0.4500,0.2750,0.2250*
%
%ADD11ROUNDEDRECTD11*%
G04:AMPARAMS|DCode=12|XSize=1.8mm|YSize=1.3mm|CornerRadius=0.325mm|HoleSize=0mm|Usage=FLASHONLY|Rotation=90.000|XOffset=0mm|YOffset=0mm|HoleType=Round|Shape=RoundedRectangle|*
%AMROUNDEDRECTD12*
21,1,1.8000,0.6500,0,0,90.0*
21,1,1.1500,1.3000,0,0,90.0*
1,1,0.6500,0.3250,0.5750*
1,1,0.6500,0.3250,-0.5750*
1,1,0.6500,-0.3250,-0.5750*
1,1,0.6500,-0.3250,0.5750*
%
%ADD12ROUNDEDRECTD12*%
G04:AMPARAMS|DCode=13|XSize=1.5mm|YSize=3.5mm|CornerRadius=0.375mm|HoleSize=0mm|Usage=FLASHONLY|Rotation=270.000|XOffset=0mm|YOffset=0mm|HoleType=Round|Shape=RoundedRectangle|*
%AMROUNDEDRECTD13*
21,1,1.5000,2.7500,0,0,270.0*
21,1,0.7500,3.5000,0,0,270.0*
1,1,0.7500,-1.3750,-0.3750*
1,1,0.7500,-1.3750,0.3750*
1,1,0.7500,1.3750,0.3750*
1,1,0.7500,1.3750,-0.3750*
%
%ADD13ROUNDEDRECTD13*%
%ADD14R,3.5000X1.5000*%
G04:AMPARAMS|DCode=15|XSize=3mm|YSize=4mm|CornerRadius=0mm|HoleSize=0mm|Usage=FLASHONLY|Rotation=0.000|XOffset=0mm|YOffset=0mm|HoleType=Round|Shape=Octagon|*
%AMOCTAGOND15*
4,1,8,-0.7500,2.0000,0.7500,2.0000,1.5000,1.2500,1.5000,-1.2500,0.7500,-2.0000,-0.7500,-2.0000,-1.5000,-1.2500,-1.5000,1.2500,-0.7500,2.0000,0.0*
%
%ADD15OCTAGOND15*%

%ADD16R,1.9000X0.6000*%
G04:AMPARAMS|DCode=17|XSize=0.6mm|YSize=1.9mm|CornerRadius=0.15mm|HoleSize=0mm|Usage=FLASHONLY|Rotation=90.000|XOffset=0mm|YOffset=0mm|HoleType=Round|Shape=RoundedRectangle|*
%AMROUNDEDRECTD17*
21,1,0.6000,1.6000,0,0,90.0*
21,1,0.3000,1.9000,0,0,90.0*
1,1,0.3000,0.8000,0.1500*
1,1,0.3000,0.8000,-0.1500*
1,1,0.3000,-0.8000,-0.1500*
1,1,0.3000,-0.8000,0.1500*
%
%ADD17ROUNDEDRECTD17*%
G04:AMPARAMS|DCode=18|XSize=1mm|YSize=0.9mm|CornerRadius=0.225mm|HoleSize=0mm|Usage=FLASHONLY|Rotation=90.000|XOffset=0mm|YOffset=0mm|HoleType=Round|Shape=RoundedRectangle|*
%AMROUNDEDRECTD18*
21,1,1.0000,0.4500,0,0,90.0*
21,1,0.5500,0.9000,0,0,90.0*
1,1,0.4500,0.2250,0.2750*
1,1,0.4500,0.2250,-0.2750*
1,1,0.4500,-0.2250,-0.2750*
1,1,0.4500,-0.2250,0.2750*
%
%ADD18ROUNDEDRECTD18*%
%ADD19R,5.5000X12.0000*%
%ADD20R,0.3000X1.4500*%
%ADD21R,0.6000X1.4500*%
%ADD22R,0.6000X1.9000*%
G04:AMPARAMS|DCode=23|XSize=0.6mm|YSize=1.9mm|CornerRadius=0.15mm|HoleSize=0mm|Usage=FLASHONLY|Rotation=0.000|XOffset=0mm|YOffset=0mm|HoleType=Round|Shape=RoundedRectangle|*
%AMROUNDEDRECTD23*
21,1,0.6000,1.6000,0,0,0.0*
21,1,0.3000,1.9000,0,0,0.0*
1,1,0.3000,0.1500,-0.8000*
1,1,0.3000,-0.1500,-0.8000*
1,1,0.3000,-0.1500,0.8000*
1,1,0.3000,0.1500,0.8000*
%
%ADD23ROUNDEDRECTD23*%
G04:AMPARAMS|DCode=24|XSize=1.9mm|YSize=0.48mm|CornerRadius=0.06mm|HoleSize=0mm|Usage=FLASHONLY|Rotation=270.000|XOffset=0mm|YOffset=0mm|HoleType=Round|Shape=RoundedRectangle|*
%AMROUNDEDRECTD24*
21,1,1.9000,0.3600,0,0,270.0*
21,1,1.7800,0.4800,0,0,270.0*
1,1,0.1200,-0.1800,-0.8900*
1,1,0.1200,-0.1800,0.8900*
1,1,0.1200,0.1800,0.8900*
1,1,0.1200,0.1800,-0.8900*
%
%ADD24ROUNDEDRECTD24*%
%ADD25R,0.4800X1.9000*%
%ADD26R,1.4000X1.2000*%
G04:AMPARAMS|DCode=27|XSize=0.95mm|YSize=0.85mm|CornerRadius=0.2125mm|HoleSize=0mm|Usage=FLASHONLY|Rotation=180.000|XOffset=0mm|YOffset=0mm|HoleType=Round|Shape=RoundedRectangle|*
%AMROUNDEDRECTD27*
21,1,0.9500,0.4250,0,0,180.0*
21,1,0.5250,0.8500,0,0,180.0*
1,1,0.4250,-0.2625,0.2125*
1,1,0.4250,0.2625,0.2125*
1,1,0.4250,0.2625,-0.2125*
1,1,0.4250,-0.2625,-0.2125*
%
%ADD27ROUNDEDRECTD27*%
%ADD28R,0.9500X0.8500*%
G04:AMPARAMS|DCode=29|XSize=1.5mm|YSize=1.52mm|CornerRadius=0.375mm|HoleSize=0mm|Usage=FLASHONLY|Rotation=0.000|XOffset=0mm|YOffset=0mm|HoleType=Round|Shape=RoundedRectangle|*
%AMROUNDEDRECTD29*
21,1,1.5000,0.7700,0,0,0.0*
21,1,0.7500,1.5200,0,0,0.0*
1,1,0.7500,0.3750,-0.3850*
1,1,0.7500,-0.3750,-0.3850*
1,1,0.7500,-0.3750,0.3850*
1,1,0.7500,0.3750,0.3850*
%
%ADD29ROUNDEDRECTD29*%
%ADD30R,2.2000X3.1000*%
G04:AMPARAMS|DCode=31|XSize=1.8mm|YSize=1.3mm|CornerRadius=0.325mm|HoleSize=0mm|Usage=FLASHONLY|Rotation=180.000|XOffset=0mm|YOffset=0mm|HoleType=Round|Shape=RoundedRectangle|*
%AMROUNDEDRECTD31*
21,1,1.8000,0.6500,0,0,180.0*
21,1,1.1500,1.3000,0,0,180.0*
1,1,0.6500,-0.5750,0.3250*
1,1,0.6500,0.5750,0.3250*
1,1,0.6500,0.5750,-0.3250*
1,1,0.6500,-0.5750,-0.3250*
%
%ADD31ROUNDEDRECTD31*%
%ADD32R,1.4500X0.3000*%
%ADD33R,1.4500X0.6000*%
%ADD34C,1.5000*%
G04:AMPARAMS|DCode=35|XSize=1.45mm|YSize=0.95mm|CornerRadius=0.2375mm|HoleSize=0mm|Usage=FLASHONLY|Rotation=90.000|XOffset=0mm|YOffset=0mm|HoleType=Round|Shape=RoundedRectangle|*
%AMROUNDEDRECTD35*
21,1,1.4500,0.4750,0,0,90.0*
21,1,0.9750,0.9500,0,0,90.0*
1,1,0.4750,0.2375,0.4875*
1,1,0.4750,0.2375,-0.4875*
1,1,0.4750,-0.2375,-0.4875*
1,1,0.4750,-0.2375,0.4875*
%
%ADD35ROUNDEDRECTD35*%
%ADD36C,0.2032*%
%ADD37C,0.3048*%
%ADD38C,0.2540*%
%ADD39C,0.3810*%
%ADD40C,0.5080*%
%ADD41C,0.4064*%
%ADD42R,2.2606X2.9972*%
%ADD43R,2.1874X2.9972*%
%ADD44R,4.6802X5.4128*%
%ADD45R,1.2888X6.9284*%
%ADD46R,1.7910X1.4478*%
%ADD47R,4.0000X11.9000*%
%ADD48R,3.8478X2.9250*%
%ADD49R,1.7780X1.4478*%
%ADD50R,4.6664X5.3874*%
%ADD51R,4.7288X5.4128*%
%ADD52R,3.3274X2.3622*%
%ADD53R,2.3114X3.0988*%
%ADD54R,4.6178X5.3366*%
%ADD55R,2.1082X2.1082*%
%ADD56O,1.0000X1.6000*%
%ADD57C,0.6750*%
%ADD58O,1.0000X2.1000*%
%ADD59C,1.7000*%
%ADD60R,1.7000X1.7000*%
%ADD61O,1.6000X1.0000*%
%ADD62O,2.1000X1.0000*%
%ADD63C,2.7000*%
%ADD64C,0.5000*%
G36*
X759860Y433988D02*
X760041D01*
Y420616D01*
X759374D01*
Y386416D01*
X758395Y386011D01*
X757750Y385365D01*
X757425Y385690D01*
Y381738D01*
X751075D01*
Y385690D01*
X750750Y385365D01*
X750425Y385690D01*
Y381738D01*
X747250D01*
Y378563D01*
X743297D01*
X743622Y378238D01*
X743297Y377913D01*
X747250D01*
Y371563D01*
X743297D01*
X743622Y371238D01*
X743297Y370913D01*
X747250D01*
Y364563D01*
X743297D01*
X743622Y364238D01*
X743297Y363913D01*
X747250D01*
Y360738D01*
X750425D01*
Y356785D01*
X750750Y357110D01*
X751075Y356785D01*
Y360738D01*
X757425D01*
Y356785D01*
X757750Y357110D01*
X758075Y356785D01*
Y360738D01*
X764425D01*
Y356785D01*
X764750Y357110D01*
X765395Y356465D01*
X767247Y355698D01*
X767569D01*
X767597Y355663D01*
X775080D01*
X782129D01*
X781842Y357107D01*
X780783Y358691D01*
X779199Y359750D01*
X778938Y359802D01*
X778800Y360770D01*
X778841Y361116D01*
X780839Y362451D01*
X781198Y362988D01*
X765580D01*
X765080Y363488D01*
X762080Y366488D01*
Y374488D01*
X766080Y378488D01*
X781329Y378488D01*
X780839Y379221D01*
X778758Y380611D01*
X776304Y381099D01*
X773290D01*
Y382740D01*
X772625Y384346D01*
X773159Y385616D01*
X785374D01*
Y397449D01*
X790080D01*
X790080Y397449D01*
X790860Y397604D01*
X791522Y398046D01*
X791522Y398046D01*
X802658Y409182D01*
X803394Y409674D01*
X803886Y410410D01*
X804522Y411046D01*
X804964Y411707D01*
X805119Y412488D01*
Y421449D01*
X807337D01*
X808015Y420179D01*
X807827Y419896D01*
X807497Y418238D01*
Y412738D01*
X807827Y411080D01*
X808766Y409674D01*
X810172Y408734D01*
X810487Y408672D01*
Y402800D01*
X808978Y401291D01*
X808977Y401291D01*
X808616Y400750D01*
X800018D01*
Y390750D01*
X823018D01*
Y400750D01*
X818837D01*
X817673Y401312D01*
Y408672D01*
X817988Y408734D01*
X819394Y409674D01*
X820333Y411080D01*
X820663Y412738D01*
Y415861D01*
X821837Y416347D01*
X825541Y412643D01*
Y405988D01*
X825541Y405988D01*
X825696Y405207D01*
X826138Y404546D01*
X831138Y399546D01*
X831800Y399104D01*
X832580Y398949D01*
X834297D01*
X834783Y397775D01*
X827478Y390470D01*
Y389488D01*
X830080D01*
X839693Y379875D01*
X862558D01*
Y390248D01*
X862562Y390475D01*
X863375Y391449D01*
X868410D01*
X868518Y391377D01*
X868631Y390010D01*
X868579Y389871D01*
X866638Y387930D01*
X866638Y387930D01*
X866196Y387268D01*
X866041Y386488D01*
Y380488D01*
X866196Y379707D01*
X866638Y379046D01*
X868638Y377046D01*
X868818Y376926D01*
X868861Y376488D01*
X886080D01*
X889080Y373488D01*
X889080Y367488D01*
X886323Y364731D01*
X886518D01*
X887771Y364980D01*
X889041Y364266D01*
Y363021D01*
X888092Y362513D01*
X887771Y362469D01*
X886518Y362718D01*
X870518D01*
X869152Y362447D01*
X867995Y361673D01*
X867221Y360516D01*
X866949Y359150D01*
Y356150D01*
X867221Y354784D01*
X867399Y354517D01*
X867031Y353303D01*
X865765Y352037D01*
X865080Y350383D01*
Y348593D01*
X865765Y346939D01*
X865863Y346841D01*
X865687Y345571D01*
X864830D01*
X863172Y345241D01*
X861766Y344302D01*
X860827Y342896D01*
X860497Y341238D01*
Y335738D01*
X860827Y334080D01*
X861684Y332797D01*
X861542Y332223D01*
X861196Y331527D01*
X848580D01*
X847800Y331372D01*
X847138Y330930D01*
X846696Y330268D01*
X846541Y329488D01*
Y292488D01*
X846541Y292488D01*
X846696Y291707D01*
X847138Y291046D01*
X851080Y287104D01*
Y284988D01*
X878591D01*
X878719Y284797D01*
X878040Y283527D01*
X875080D01*
X874300Y283372D01*
X873638Y282930D01*
X873196Y282268D01*
X873041Y281488D01*
Y228122D01*
X873080Y227925D01*
Y211988D01*
X912080D01*
Y226083D01*
X921258D01*
X922038Y226238D01*
X922700Y226680D01*
X923142Y227341D01*
X923297Y228122D01*
Y281488D01*
X923142Y282268D01*
X922700Y282930D01*
X922038Y283372D01*
X921258Y283527D01*
X911799D01*
X911273Y284797D01*
X924522Y298046D01*
X924964Y298708D01*
X925119Y299488D01*
Y348488D01*
Y375488D01*
X924964Y376268D01*
X924522Y376930D01*
X911522Y389930D01*
X910860Y390372D01*
X910080Y390527D01*
X898961D01*
X898650Y391797D01*
X899022Y392046D01*
X899022Y392046D01*
X906522Y399546D01*
X906964Y400207D01*
X907119Y400988D01*
Y425988D01*
X906964Y426768D01*
X906522Y427430D01*
X906522Y427430D01*
X901522Y432430D01*
X901150Y432679D01*
X901461Y433949D01*
X935080D01*
Y375582D01*
X934913Y375549D01*
X933288Y374462D01*
X932201Y372837D01*
X931820Y370919D01*
Y369219D01*
X939206D01*
Y362869D01*
X931820D01*
Y361169D01*
X932201Y359251D01*
X933288Y357625D01*
X934913Y356539D01*
X935080Y356506D01*
Y348488D01*
X955209D01*
X955408Y348429D01*
X956253Y347248D01*
X956382Y346600D01*
Y346353D01*
X956476Y346125D01*
X956605Y345476D01*
X956973Y344927D01*
X957067Y344699D01*
X957242Y344524D01*
X957609Y343975D01*
X958158Y343607D01*
X958333Y343433D01*
X958561Y343339D01*
X959111Y342971D01*
X959759Y342842D01*
X959987Y342748D01*
X960234D01*
X960882Y342619D01*
X965347D01*
X965347Y342619D01*
X967119Y342971D01*
X968621Y343975D01*
X970066Y345420D01*
X971239Y344934D01*
Y317576D01*
X969969Y317037D01*
X968284Y318163D01*
X965830Y318651D01*
X955255D01*
Y308488D01*
Y298325D01*
X965830D01*
X968284Y298813D01*
X969969Y299939D01*
X971239Y299400D01*
Y296333D01*
X968871Y293965D01*
X960374D01*
X960374Y293965D01*
X958603Y293612D01*
X957101Y292609D01*
X957101Y292609D01*
X947449Y282957D01*
X946445Y281455D01*
X946093Y279684D01*
X946093Y279684D01*
Y273036D01*
X944823Y272358D01*
X943873Y272993D01*
X942755Y273215D01*
Y263488D01*
Y253761D01*
X943873Y253983D01*
X944823Y254618D01*
X946093Y253939D01*
Y233036D01*
X944823Y232358D01*
X943873Y232993D01*
X942755Y233215D01*
Y223488D01*
Y213761D01*
X943873Y213983D01*
X944823Y214618D01*
X946093Y213939D01*
Y209529D01*
X945004Y208876D01*
X944117Y209350D01*
X940913Y210322D01*
X937580Y210650D01*
X934247Y210322D01*
X931043Y209350D01*
X928090Y207771D01*
X925501Y205647D01*
X923377Y203058D01*
X921798Y200105D01*
X920826Y196900D01*
X920498Y193568D01*
X920826Y190235D01*
X921798Y187031D01*
X923377Y184077D01*
X925501Y181489D01*
X928090Y179364D01*
X931043Y177786D01*
X934247Y176814D01*
X937580Y176486D01*
X938994Y176625D01*
X939537Y175477D01*
X937797Y173737D01*
X937151Y172771D01*
X935605Y172276D01*
X935117Y172603D01*
X933999Y172825D01*
Y163098D01*
Y153371D01*
X934098Y153390D01*
D01*
X935117Y153593D01*
X935321Y153729D01*
X936261Y153227D01*
X936441Y152998D01*
X936793Y151226D01*
X937797Y149725D01*
X940744Y146777D01*
Y144113D01*
X941084Y142406D01*
X942051Y140959D01*
X943498Y139992D01*
X945205Y139652D01*
X954955D01*
X956662Y139992D01*
X958109Y140959D01*
X959076Y142406D01*
X959416Y144113D01*
Y148863D01*
X959076Y150570D01*
X958109Y152017D01*
X956662Y152984D01*
X956482Y153020D01*
X956284Y154354D01*
X957353Y155069D01*
X958320Y156516D01*
X958660Y158223D01*
Y160559D01*
X958932Y160740D01*
X960649Y162458D01*
X960794Y162421D01*
X961353Y160972D01*
X961084Y160570D01*
X960744Y158863D01*
Y154113D01*
X961084Y152406D01*
X962051Y150959D01*
X963498Y149992D01*
X965205Y149652D01*
X974955D01*
X976662Y149992D01*
X978109Y150959D01*
X978711Y151859D01*
X990721D01*
X996725Y145855D01*
X996725Y145855D01*
X998227Y144851D01*
X999998Y144499D01*
X999998Y144499D01*
X1029970D01*
X1029970Y144499D01*
X1031741Y144851D01*
X1033243Y145855D01*
X1041117Y153729D01*
X1041117Y153729D01*
X1042121Y155230D01*
X1042473Y157002D01*
Y172067D01*
X1043734Y172219D01*
X1044494Y170385D01*
X1045702Y168810D01*
X1047277Y167601D01*
X1049111Y166841D01*
X1050905Y166605D01*
Y174187D01*
Y181769D01*
X1049111Y181533D01*
X1047277Y180773D01*
X1045702Y179565D01*
X1044494Y177990D01*
X1043734Y176155D01*
X1042473Y176307D01*
Y258467D01*
X1043734Y258619D01*
X1044494Y256784D01*
X1045702Y255209D01*
X1047277Y254001D01*
X1049111Y253241D01*
X1050905Y253005D01*
Y260587D01*
Y268169D01*
X1049111Y267933D01*
X1047277Y267173D01*
X1045702Y265965D01*
X1044494Y264389D01*
X1043734Y262555D01*
X1042473Y262707D01*
Y284256D01*
X1042473Y284256D01*
X1042121Y286027D01*
X1041117Y287529D01*
X1041117Y287529D01*
X1028925Y299721D01*
X1028375Y300088D01*
X1028201Y300263D01*
X1027973Y300357D01*
X1027423Y300724D01*
X1026775Y300853D01*
X1026547Y300948D01*
X1026300D01*
X1025652Y301077D01*
X1025004Y300948D01*
X1024757D01*
X1024529Y300853D01*
X1023881Y300724D01*
X1023850Y300704D01*
X1022641Y301315D01*
X1022580Y301399D01*
Y311441D01*
X1023853Y312715D01*
X1023853Y312715D01*
X1024857Y314216D01*
X1025209Y315988D01*
X1025209Y315988D01*
Y323665D01*
X1025357Y323886D01*
X1025486Y324535D01*
X1025580Y324763D01*
Y325009D01*
X1025709Y325658D01*
X1025580Y326306D01*
Y326553D01*
X1025486Y326781D01*
X1025357Y327429D01*
X1024989Y327979D01*
X1024895Y328207D01*
X1024721Y328381D01*
X1024353Y328931D01*
X1023803Y329298D01*
X1023629Y329473D01*
X1023401Y329567D01*
X1022851Y329934D01*
X1022203Y330063D01*
X1021975Y330158D01*
X1021728D01*
X1021080Y330287D01*
X1020432Y330158D01*
X1020185D01*
X1019957Y330063D01*
X1019309Y329934D01*
X1018759Y329567D01*
X1018531Y329473D01*
X1018356Y329298D01*
X1017807Y328931D01*
X1017307Y328431D01*
X1016303Y326929D01*
X1015951Y325158D01*
X1015951Y325158D01*
Y317988D01*
X983580D01*
Y298988D01*
X992874D01*
X993360Y297815D01*
X986565Y291019D01*
X985561Y289517D01*
X985209Y287746D01*
X985209Y287746D01*
Y240568D01*
X985209Y240568D01*
X985338Y239919D01*
Y239673D01*
X985432Y239445D01*
X985449Y239362D01*
X984710Y238229D01*
X984505Y238092D01*
X977217D01*
X967968Y247341D01*
Y256933D01*
X967715Y258209D01*
X967416Y258657D01*
Y268363D01*
X967076Y270070D01*
X966109Y271517D01*
X964662Y272484D01*
X962955Y272824D01*
X958205D01*
X956621Y272508D01*
X956279Y272569D01*
X955351Y273065D01*
Y277766D01*
X962291Y284707D01*
X970788D01*
X970788Y284707D01*
X972559Y285059D01*
X974061Y286063D01*
X979141Y291143D01*
X979141Y291143D01*
X980145Y292644D01*
X980497Y294416D01*
X980497Y294416D01*
Y345838D01*
X983146Y348488D01*
X1066793D01*
Y159740D01*
X1066793Y156514D01*
X1065950Y150118D01*
X1064281Y143887D01*
X1061812Y137927D01*
X1058587Y132340D01*
X1054659Y127222D01*
X1050098Y122660D01*
X1044980Y118733D01*
X1039393Y115507D01*
X1033433Y113039D01*
X1027202Y111369D01*
X1020806Y110527D01*
X1017580Y110527D01*
X935080Y110527D01*
D01*
X927468D01*
X927418Y110517D01*
X927367Y110525D01*
X926122Y110463D01*
X925976Y110426D01*
X925825D01*
X923383Y109941D01*
X923198Y109864D01*
X923001Y109825D01*
X920701Y108872D01*
X920534Y108760D01*
X920348Y108683D01*
X920055Y108488D01*
X918278Y107300D01*
X918136Y107158D01*
X917969Y107047D01*
X916209Y105286D01*
X916097Y105119D01*
X915955Y104977D01*
X914572Y102907D01*
X914495Y102722D01*
X914383Y102555D01*
X913431Y100255D01*
X913392Y100058D01*
X913315Y99872D01*
X912829Y97430D01*
Y97279D01*
X912792Y97133D01*
X912731Y95888D01*
X912739Y95838D01*
X912729Y95788D01*
Y75488D01*
Y73170D01*
X912004Y68592D01*
X910571Y64184D01*
X908467Y60053D01*
X905742Y56303D01*
X902464Y53025D01*
X898715Y50301D01*
X894584Y48197D01*
X890176Y46764D01*
X885598Y46039D01*
X880962D01*
X876384Y46764D01*
X871975Y48197D01*
X867845Y50301D01*
X864095Y53026D01*
X860817Y56303D01*
X858093Y60053D01*
X855989Y64184D01*
X854556Y68592D01*
X853831Y73170D01*
Y75488D01*
Y95788D01*
X853821Y95838D01*
X853829Y95888D01*
X853767Y97133D01*
X853730Y97279D01*
Y97430D01*
X853245Y99872D01*
X853168Y100058D01*
X853129Y100255D01*
X852176Y102555D01*
X852065Y102722D01*
X851988Y102907D01*
X850605Y104977D01*
X850463Y105119D01*
X850351Y105286D01*
X848591Y107047D01*
X848424Y107158D01*
X848282Y107300D01*
X846212Y108684D01*
X846026Y108760D01*
X845859Y108872D01*
X843559Y109825D01*
X843362Y109864D01*
X843176Y109941D01*
X840735Y110427D01*
X840583D01*
X840437Y110463D01*
X839192Y110524D01*
X839142Y110517D01*
X839092Y110527D01*
X712468D01*
X712418Y110517D01*
X712367Y110524D01*
X711122Y110463D01*
X710976Y110426D01*
X710825D01*
X708383Y109941D01*
X708198Y109864D01*
X708001Y109824D01*
X705701Y108872D01*
X705534Y108760D01*
X705348Y108683D01*
X703278Y107300D01*
X703136Y107158D01*
X702969Y107047D01*
X701209Y105286D01*
X701097Y105119D01*
X700955Y104977D01*
X699572Y102907D01*
X699495Y102722D01*
X699384Y102555D01*
X698431Y100255D01*
X698392Y100058D01*
X698315Y99872D01*
X697829Y97430D01*
Y97279D01*
X697792Y97133D01*
X697731Y95888D01*
X697739Y95838D01*
X697729Y95788D01*
Y75488D01*
Y73170D01*
X697004Y68592D01*
X695571Y64184D01*
X693467Y60053D01*
X690742Y56303D01*
X687465Y53025D01*
X683715Y50301D01*
X679584Y48197D01*
X675176Y46764D01*
X670598Y46039D01*
X665962D01*
X661384Y46764D01*
X656976Y48197D01*
X652845Y50301D01*
X649095Y53025D01*
X645818Y56303D01*
X643093Y60053D01*
X640989Y64183D01*
X639556Y68592D01*
X638831Y73170D01*
Y75488D01*
Y95788D01*
X638821Y95838D01*
X638829Y95888D01*
X638767Y97133D01*
X638731Y97279D01*
Y97430D01*
X638245Y99872D01*
X638168Y100057D01*
X638129Y100254D01*
X637176Y102555D01*
X637065Y102722D01*
X636988Y102907D01*
X635605Y104977D01*
X635463Y105119D01*
X635351Y105286D01*
X633591Y107047D01*
X633424Y107158D01*
X633282Y107300D01*
X631212Y108684D01*
X631026Y108760D01*
X630859Y108872D01*
X628559Y109825D01*
X628362Y109864D01*
X628176Y109941D01*
X625735Y110427D01*
X625583D01*
X625437Y110463D01*
X624192Y110524D01*
X624142Y110517D01*
X624092Y110527D01*
X497468Y110527D01*
X497418Y110517D01*
X497367Y110524D01*
X496122Y110463D01*
X495976Y110426D01*
X495825D01*
X493383Y109941D01*
X493198Y109864D01*
X493001Y109824D01*
X490701Y108872D01*
X490534Y108760D01*
X490348Y108683D01*
X488278Y107300D01*
X488136Y107158D01*
X487969Y107047D01*
X486209Y105286D01*
X486097Y105119D01*
X485955Y104977D01*
X484572Y102907D01*
X484495Y102722D01*
X484384Y102555D01*
X483431Y100255D01*
X483392Y100058D01*
X483315Y99872D01*
X482829Y97430D01*
Y97279D01*
X482792Y97133D01*
X482731Y95888D01*
X482739Y95838D01*
X482729Y95788D01*
Y75488D01*
Y73170D01*
X482004Y68592D01*
X480571Y64184D01*
X478467Y60053D01*
X475742Y56303D01*
X472464Y53025D01*
X468715Y50301D01*
X464584Y48197D01*
X460176Y46764D01*
X455598Y46039D01*
X450962D01*
X446384Y46764D01*
X441976Y48197D01*
X437845Y50301D01*
X434095Y53025D01*
X430818Y56303D01*
X428093Y60053D01*
X425989Y64183D01*
X424556Y68592D01*
X423831Y73170D01*
Y75488D01*
Y95788D01*
X423821Y95838D01*
X423829Y95888D01*
X423767Y97133D01*
X423731Y97279D01*
Y97430D01*
X423245Y99872D01*
X423168Y100057D01*
X423129Y100254D01*
X422176Y102555D01*
X422065Y102722D01*
X421988Y102907D01*
X420605Y104977D01*
X420463Y105119D01*
X420351Y105286D01*
X418591Y107047D01*
X418424Y107158D01*
X418282Y107300D01*
X416212Y108684D01*
X416026Y108760D01*
X415859Y108872D01*
X413559Y109825D01*
X413362Y109864D01*
X413176Y109941D01*
X410735Y110427D01*
X410583D01*
X410437Y110463D01*
X409192Y110524D01*
X409142Y110517D01*
X409092Y110527D01*
X282468Y110527D01*
X282418Y110517D01*
X282367Y110524D01*
X281122Y110463D01*
X280976Y110426D01*
X280825D01*
X278383Y109941D01*
X278198Y109864D01*
X278001Y109824D01*
X275701Y108872D01*
X275534Y108760D01*
X275348Y108683D01*
X273278Y107300D01*
X273136Y107158D01*
X272969Y107047D01*
X271209Y105286D01*
X271097Y105119D01*
X270955Y104977D01*
X269572Y102907D01*
X269495Y102722D01*
X269384Y102555D01*
X268431Y100255D01*
X268392Y100058D01*
X268315Y99872D01*
X267829Y97430D01*
Y97279D01*
X267792Y97133D01*
X267731Y95888D01*
X267739Y95838D01*
X267729Y95788D01*
Y75488D01*
Y73170D01*
X267004Y68592D01*
X265571Y64184D01*
X263467Y60053D01*
X260742Y56303D01*
X257465Y53025D01*
X253715Y50301D01*
X249584Y48197D01*
X245176Y46764D01*
X240598Y46039D01*
X235962D01*
X231384Y46764D01*
X226976Y48197D01*
X222845Y50301D01*
X219095Y53025D01*
X215818Y56303D01*
X213093Y60053D01*
X210989Y64183D01*
X209556Y68592D01*
X208831Y73170D01*
Y75488D01*
Y95788D01*
X208821Y95838D01*
X208829Y95888D01*
X208768Y97133D01*
X208731Y97279D01*
Y97430D01*
X208245Y99872D01*
X208168Y100058D01*
X208129Y100255D01*
X207176Y102555D01*
X207065Y102722D01*
X206988Y102907D01*
X205605Y104978D01*
X205463Y105120D01*
X205351Y105287D01*
X203591Y107047D01*
X203424Y107159D01*
X203282Y107301D01*
X201212Y108684D01*
X201026Y108761D01*
X200859Y108872D01*
X198559Y109825D01*
X198362Y109864D01*
X198176Y109941D01*
X195735Y110427D01*
X195583D01*
X195437Y110463D01*
X194192Y110524D01*
X194142Y110517D01*
X194092Y110527D01*
X97580Y110527D01*
X47580Y110527D01*
X44595Y110527D01*
X38676Y111306D01*
X32910Y112851D01*
X27394Y115136D01*
X22225Y118121D01*
X17488Y121755D01*
X13267Y125976D01*
X9633Y130712D01*
X6648Y135882D01*
X4363Y141398D01*
X2818Y147164D01*
X2039Y153083D01*
X2039Y155988D01*
X60674D01*
Y250019D01*
X60794Y250621D01*
X60888Y250849D01*
Y251096D01*
X61017Y251744D01*
Y292355D01*
X62287Y292607D01*
X62709Y291589D01*
X63975Y290323D01*
X65629Y289638D01*
X67419D01*
X69073Y290323D01*
X70339Y291589D01*
X71024Y293242D01*
Y294587D01*
X72369D01*
X74023Y295273D01*
X75288Y296538D01*
X75974Y298192D01*
Y299982D01*
X75288Y301636D01*
X74023Y302902D01*
X72369Y303587D01*
X70578D01*
X69890Y303302D01*
X66921Y306271D01*
X65924Y306938D01*
X65743Y306974D01*
Y310344D01*
X65509Y311521D01*
X64842Y312519D01*
X64842Y312519D01*
X60674Y316687D01*
Y510253D01*
X81409Y530988D01*
X114860D01*
Y433988D01*
X115041D01*
Y420616D01*
X114374D01*
Y386416D01*
X113395Y386011D01*
X112750Y385365D01*
X112425Y385690D01*
Y381738D01*
X106075D01*
Y385690D01*
X105750Y385365D01*
X105425Y385690D01*
Y381738D01*
X102250D01*
Y378563D01*
X98297D01*
X98622Y378238D01*
X98297Y377913D01*
X102250D01*
Y371563D01*
X98297D01*
X98622Y371238D01*
X98297Y370913D01*
X102250D01*
Y364563D01*
X98297D01*
X98622Y364238D01*
X98297Y363913D01*
X102250D01*
Y357563D01*
X98297D01*
X99371Y356489D01*
X99373Y356305D01*
X99217Y355164D01*
X97869Y354896D01*
X95954Y353616D01*
X94674Y351701D01*
X94225Y349442D01*
Y346867D01*
X103378D01*
X112531D01*
Y349442D01*
X112082Y351701D01*
X110802Y353616D01*
X109587Y354428D01*
X109973Y355698D01*
X110253D01*
X112105Y356465D01*
X112750Y357110D01*
X113075Y356785D01*
Y360738D01*
X119425D01*
Y356785D01*
X119750Y357110D01*
X120395Y356465D01*
X122247Y355698D01*
X122569D01*
X122597Y355663D01*
X130080D01*
X137129D01*
X136842Y357107D01*
X135783Y358691D01*
X134199Y359750D01*
X133938Y359802D01*
X133800Y360770D01*
X133841Y361116D01*
X135839Y362451D01*
X136198Y362988D01*
X120580D01*
X120080Y363488D01*
X117080Y366488D01*
Y374488D01*
X121080Y378488D01*
X136328Y378488D01*
X135839Y379221D01*
X133758Y380611D01*
X131304Y381099D01*
X128290D01*
Y382740D01*
X127625Y384346D01*
X128159Y385616D01*
X140374D01*
Y397449D01*
X145080D01*
X145080Y397449D01*
X145860Y397604D01*
X146522Y398046D01*
X146522Y398046D01*
X157658Y409182D01*
X158394Y409674D01*
X158886Y410410D01*
X159522Y411046D01*
X159964Y411707D01*
X160119Y412488D01*
Y421449D01*
X162337D01*
X163015Y420179D01*
X162827Y419896D01*
X162497Y418238D01*
Y412738D01*
X162827Y411080D01*
X163766Y409674D01*
X165172Y408734D01*
X165487Y408672D01*
Y402800D01*
X163978Y401291D01*
X163977Y401291D01*
X163616Y400750D01*
X155018D01*
Y390750D01*
X178018D01*
Y400750D01*
X173837D01*
X172673Y401312D01*
Y408672D01*
X172988Y408734D01*
X174394Y409674D01*
X175333Y411080D01*
X175663Y412738D01*
Y415861D01*
X176837Y416347D01*
X180541Y412643D01*
Y405988D01*
X180541Y405988D01*
X180696Y405207D01*
X181138Y404546D01*
X186138Y399546D01*
X186800Y399104D01*
X187580Y398949D01*
X189298D01*
X189783Y397775D01*
X182478Y390470D01*
Y389488D01*
X185080D01*
X194693Y379875D01*
X217558D01*
Y390248D01*
X217562Y390475D01*
X218375Y391449D01*
X223410D01*
X223518Y391377D01*
X223631Y390010D01*
X223579Y389871D01*
X221638Y387930D01*
X221638Y387930D01*
X221196Y387268D01*
X221041Y386488D01*
Y380488D01*
X221196Y379707D01*
X221638Y379046D01*
X223638Y377046D01*
X223818Y376926D01*
X223861Y376488D01*
X241080D01*
X244080Y373488D01*
X244080Y367488D01*
X241323Y364731D01*
X241518D01*
X242771Y364980D01*
X244041Y364266D01*
Y363021D01*
X243092Y362513D01*
X242771Y362469D01*
X241518Y362718D01*
X225518D01*
X224152Y362447D01*
X222995Y361673D01*
X222221Y360516D01*
X221950Y359150D01*
Y356150D01*
X222221Y354784D01*
X222399Y354517D01*
X222031Y353303D01*
X220765Y352037D01*
X220080Y350383D01*
Y348593D01*
X220765Y346939D01*
X220863Y346841D01*
X220687Y345571D01*
X219830D01*
X218172Y345241D01*
X216766Y344302D01*
X215827Y342896D01*
X215497Y341238D01*
Y335738D01*
X215827Y334080D01*
X216684Y332797D01*
X216542Y332223D01*
X216196Y331527D01*
X203580D01*
X202800Y331372D01*
X202138Y330930D01*
X201696Y330268D01*
X201541Y329488D01*
Y292488D01*
X201541Y292488D01*
X201696Y291707D01*
X202138Y291046D01*
X206080Y287104D01*
Y284988D01*
X233591D01*
X233719Y284797D01*
X233040Y283527D01*
X230080D01*
X229300Y283372D01*
X228638Y282930D01*
X228196Y282268D01*
X228041Y281488D01*
Y227360D01*
X228080Y227163D01*
Y211988D01*
X267080D01*
Y225321D01*
X277368D01*
X278148Y225476D01*
X278810Y225918D01*
X279252Y226579D01*
X279407Y227360D01*
Y281488D01*
X279252Y282268D01*
X278810Y282930D01*
X278148Y283372D01*
X277368Y283527D01*
X266799D01*
X266273Y284797D01*
X279522Y298046D01*
X279964Y298708D01*
X280119Y299488D01*
Y375488D01*
X279964Y376268D01*
X279522Y376930D01*
X266522Y389930D01*
X265860Y390372D01*
X265080Y390527D01*
X253961D01*
X253650Y391797D01*
X254022Y392046D01*
X254022Y392046D01*
X261522Y399546D01*
X261964Y400207D01*
X262119Y400988D01*
Y425988D01*
X261964Y426768D01*
X261522Y427430D01*
X261522Y427430D01*
X256522Y432430D01*
X256150Y432679D01*
X256461Y433949D01*
X290080D01*
X290860Y434104D01*
X291522Y434546D01*
X291964Y435207D01*
X292119Y435988D01*
Y530988D01*
X297920D01*
X298853Y530364D01*
X300228Y530091D01*
X312166D01*
X313541Y530364D01*
X314474Y530988D01*
X329860D01*
Y433988D01*
X330041D01*
Y420616D01*
X329374D01*
Y386416D01*
X328395Y386011D01*
X327750Y385365D01*
X327425Y385690D01*
Y381738D01*
X321075D01*
Y385690D01*
X320750Y385365D01*
X320425Y385690D01*
Y381738D01*
X317250D01*
Y378563D01*
X313297D01*
X313622Y378238D01*
X313297Y377913D01*
X317250D01*
Y371563D01*
X313297D01*
X313622Y371238D01*
X313297Y370913D01*
X317250D01*
Y364563D01*
X313297D01*
X313622Y364238D01*
X313297Y363913D01*
X317250D01*
Y360738D01*
X320425D01*
Y356785D01*
X320750Y357110D01*
X321075Y356785D01*
Y360738D01*
X327425D01*
Y356785D01*
X327750Y357110D01*
X328075Y356785D01*
Y360738D01*
X334425D01*
Y356785D01*
X334750Y357110D01*
X335395Y356465D01*
X337248Y355698D01*
X337569D01*
X337597Y355663D01*
X345080D01*
Y352488D01*
D01*
Y355663D01*
X352129D01*
X351842Y357107D01*
X350783Y358691D01*
X349199Y359750D01*
X348938Y359802D01*
X348800Y360770D01*
X348841Y361116D01*
X350839Y362451D01*
X351198Y362988D01*
X335580D01*
X335080Y363488D01*
X332080Y366488D01*
Y374488D01*
X336080Y378488D01*
X351329Y378488D01*
X350839Y379221D01*
X348758Y380611D01*
X346304Y381099D01*
X343290D01*
Y382740D01*
X342625Y384346D01*
X343159Y385616D01*
X355374D01*
Y397449D01*
X360080D01*
X360080Y397449D01*
X360860Y397604D01*
X361522Y398046D01*
X361522Y398046D01*
X372658Y409182D01*
X373394Y409674D01*
X373886Y410410D01*
X374522Y411046D01*
X374964Y411707D01*
X375119Y412488D01*
Y421449D01*
X377337D01*
X378015Y420179D01*
X377827Y419896D01*
X377497Y418238D01*
Y412738D01*
X377827Y411080D01*
X378766Y409674D01*
X380172Y408734D01*
X380487Y408672D01*
Y402800D01*
X378978Y401291D01*
X378977Y401291D01*
X378616Y400750D01*
X370018D01*
Y390750D01*
X393018D01*
Y400750D01*
X388837D01*
X387673Y401312D01*
Y408672D01*
X387988Y408734D01*
X389394Y409674D01*
X390333Y411080D01*
X390663Y412738D01*
Y415861D01*
X391837Y416347D01*
X395541Y412643D01*
Y405988D01*
X395541Y405988D01*
X395696Y405207D01*
X396138Y404546D01*
X401138Y399546D01*
X401800Y399104D01*
X402580Y398949D01*
X404297D01*
X404784Y397775D01*
X397478Y390470D01*
Y389488D01*
X400080D01*
X409693Y379875D01*
X432558D01*
Y390248D01*
X432562Y390475D01*
X433375Y391449D01*
X438410D01*
X438518Y391377D01*
X438631Y390010D01*
X438579Y389871D01*
X436638Y387930D01*
X436638Y387930D01*
X436196Y387268D01*
X436041Y386488D01*
Y380488D01*
X436196Y379707D01*
X436638Y379046D01*
X438638Y377046D01*
X438818Y376926D01*
X438861Y376488D01*
X456080D01*
X459080Y373488D01*
X459080Y367488D01*
X456323Y364731D01*
X456518D01*
X457771Y364980D01*
X459041Y364266D01*
Y363021D01*
X458092Y362513D01*
X457771Y362469D01*
X456518Y362718D01*
X440518D01*
X439152Y362447D01*
X437995Y361673D01*
X437221Y360516D01*
X436950Y359150D01*
Y356150D01*
X437221Y354784D01*
X437399Y354517D01*
X437031Y353303D01*
X435765Y352037D01*
X435080Y350383D01*
Y348593D01*
X435765Y346939D01*
X435863Y346841D01*
X435687Y345571D01*
X434830D01*
X433172Y345241D01*
X431766Y344302D01*
X430827Y342896D01*
X430497Y341238D01*
Y335738D01*
X430827Y334080D01*
X431684Y332797D01*
X431542Y332223D01*
X431196Y331527D01*
X418580D01*
X417800Y331372D01*
X417138Y330930D01*
X416696Y330268D01*
X416541Y329488D01*
Y292488D01*
X416541Y292488D01*
X416696Y291707D01*
X417138Y291046D01*
X421080Y287104D01*
Y284988D01*
X448591D01*
X448719Y284797D01*
X448040Y283527D01*
X445080D01*
X444300Y283372D01*
X443638Y282930D01*
X443196Y282268D01*
X443041Y281488D01*
Y227614D01*
X443080Y227417D01*
Y211988D01*
X482080D01*
Y225575D01*
X491744D01*
X492524Y225730D01*
X493186Y226172D01*
X493628Y226833D01*
X493783Y227614D01*
Y281488D01*
X493628Y282268D01*
X493186Y282930D01*
X492524Y283372D01*
X491744Y283527D01*
X481799D01*
X481273Y284797D01*
X494522Y298046D01*
X494964Y298708D01*
X495119Y299488D01*
Y375488D01*
X494964Y376268D01*
X494522Y376930D01*
X481522Y389930D01*
X480860Y390372D01*
X480080Y390527D01*
X468961D01*
X468649Y391797D01*
X469022Y392046D01*
X469022Y392046D01*
X476522Y399546D01*
X476964Y400207D01*
X477119Y400988D01*
Y425988D01*
X476964Y426768D01*
X476522Y427430D01*
X476522Y427430D01*
X471522Y432430D01*
X471149Y432679D01*
X471461Y433949D01*
X505080D01*
X505860Y434104D01*
X506522Y434546D01*
X506964Y435207D01*
X507119Y435988D01*
Y530988D01*
X513312D01*
X514245Y530364D01*
X515620Y530091D01*
X531368D01*
X532743Y530364D01*
X533676Y530988D01*
X544860D01*
Y433988D01*
X545041D01*
Y420616D01*
X544374D01*
Y386416D01*
X543395Y386011D01*
X542750Y385365D01*
X542425Y385690D01*
Y381738D01*
X536075D01*
Y385690D01*
X535750Y385365D01*
X535425Y385690D01*
Y381738D01*
X532250D01*
Y378563D01*
X528297D01*
X528622Y378238D01*
X528297Y377913D01*
X532250D01*
Y371563D01*
X528297D01*
X528622Y371238D01*
X528297Y370913D01*
X532250D01*
Y364563D01*
X528297D01*
X528622Y364238D01*
X528297Y363913D01*
X532250D01*
Y360738D01*
X535425D01*
Y356785D01*
X535750Y357110D01*
X536075Y356785D01*
Y360738D01*
X542425D01*
Y356785D01*
X542750Y357110D01*
X543075Y356785D01*
Y360738D01*
X549425D01*
Y356785D01*
X549750Y357110D01*
X550395Y356465D01*
X552248Y355698D01*
X552569D01*
X552597Y355663D01*
X560080D01*
X567129D01*
X566842Y357107D01*
X565783Y358691D01*
X564199Y359750D01*
X563938Y359802D01*
X563800Y360770D01*
X563841Y361116D01*
X565839Y362451D01*
X566198Y362988D01*
X550580D01*
X550080Y363488D01*
X547080Y366488D01*
Y374488D01*
X551080Y378488D01*
X566329Y378488D01*
X565839Y379221D01*
X563758Y380611D01*
X561304Y381099D01*
X558290D01*
Y382740D01*
X557625Y384346D01*
X558159Y385616D01*
X570374D01*
Y397449D01*
X575080D01*
X575080Y397449D01*
X575860Y397604D01*
X576522Y398046D01*
X576522Y398046D01*
X587658Y409182D01*
X588394Y409674D01*
X588886Y410410D01*
X589522Y411046D01*
X589964Y411707D01*
X590119Y412488D01*
Y421449D01*
X592337D01*
X593015Y420179D01*
X592827Y419896D01*
X592497Y418238D01*
Y412738D01*
X592827Y411080D01*
X593766Y409674D01*
X595172Y408734D01*
X595487Y408672D01*
Y402800D01*
X593978Y401291D01*
X593977Y401291D01*
X593616Y400750D01*
X585018D01*
Y390750D01*
X608018D01*
Y400750D01*
X603837D01*
X602673Y401312D01*
Y408672D01*
X602988Y408734D01*
X604394Y409674D01*
X605333Y411080D01*
X605663Y412738D01*
Y415861D01*
X606837Y416347D01*
X610541Y412643D01*
Y405988D01*
X610541Y405988D01*
X610696Y405207D01*
X611138Y404546D01*
X616138Y399546D01*
X616800Y399104D01*
X617580Y398949D01*
X619297D01*
X619784Y397775D01*
X612478Y390470D01*
Y389488D01*
X615080D01*
X624693Y379875D01*
X647558D01*
Y390248D01*
X647562Y390475D01*
X648375Y391449D01*
X653410D01*
X653518Y391377D01*
X653631Y390010D01*
X653579Y389871D01*
X651638Y387930D01*
X651638Y387930D01*
X651196Y387268D01*
X651041Y386488D01*
Y380488D01*
X651196Y379707D01*
X651638Y379046D01*
X653638Y377046D01*
X653818Y376926D01*
X653861Y376488D01*
X671080D01*
X674080Y373488D01*
X674080Y367488D01*
X671323Y364731D01*
X671518D01*
X672771Y364980D01*
X674041Y364266D01*
Y363021D01*
X673092Y362513D01*
X672771Y362469D01*
X671518Y362718D01*
X655518D01*
X654152Y362447D01*
X652995Y361673D01*
X652221Y360516D01*
X651949Y359150D01*
Y356150D01*
X652221Y354784D01*
X652399Y354517D01*
X652031Y353303D01*
X650765Y352037D01*
X650080Y350383D01*
Y348593D01*
X650765Y346939D01*
X650863Y346841D01*
X650687Y345571D01*
X649830D01*
X648172Y345241D01*
X646766Y344302D01*
X645827Y342896D01*
X645497Y341238D01*
Y335738D01*
X645827Y334080D01*
X646684Y332797D01*
X646542Y332223D01*
X646196Y331527D01*
X633580D01*
X632800Y331372D01*
X632138Y330930D01*
X631696Y330268D01*
X631541Y329488D01*
Y292488D01*
X631541Y292488D01*
X631696Y291707D01*
X632138Y291046D01*
X636080Y287104D01*
Y284988D01*
X663591D01*
X663719Y284797D01*
X663040Y283527D01*
X660080D01*
X659300Y283372D01*
X658638Y282930D01*
X658196Y282268D01*
X658041Y281488D01*
Y227360D01*
X658080Y227163D01*
Y211988D01*
X697080D01*
Y225321D01*
X706882D01*
X707662Y225476D01*
X708324Y225918D01*
X708766Y226579D01*
X708921Y227360D01*
Y281488D01*
X708766Y282268D01*
X708324Y282930D01*
X707662Y283372D01*
X706882Y283527D01*
X696799D01*
X696273Y284797D01*
X709522Y298046D01*
X709964Y298708D01*
X710119Y299488D01*
Y375488D01*
X709964Y376268D01*
X709522Y376930D01*
X696522Y389930D01*
X695860Y390372D01*
X695080Y390527D01*
X683961D01*
X683650Y391797D01*
X684022Y392046D01*
X684022Y392046D01*
X691522Y399546D01*
X691964Y400207D01*
X692119Y400988D01*
Y425988D01*
X691964Y426768D01*
X691522Y427430D01*
X691522Y427430D01*
X686522Y432430D01*
X686150Y432679D01*
X686461Y433949D01*
X720080D01*
X720860Y434104D01*
X721522Y434546D01*
X721964Y435207D01*
X722119Y435988D01*
Y530988D01*
X726849D01*
X730249Y527587D01*
X731415Y526808D01*
X732790Y526535D01*
X747268D01*
X748643Y526808D01*
X749809Y527587D01*
X753209Y530988D01*
X759860D01*
Y433988D01*
D02*
G37*
G36*
X852580Y430988D02*
X900080D01*
X905080Y425988D01*
Y400988D01*
X897580Y393488D01*
X862580D01*
X855080Y400988D01*
X832580D01*
X827580Y405988D01*
Y413488D01*
X817580Y423488D01*
X803080D01*
Y412488D01*
X790080Y399488D01*
X762080D01*
Y446488D01*
X766080Y450488D01*
X800080D01*
Y468488D01*
X815080D01*
X852580Y430988D01*
D02*
G37*
G36*
X637580D02*
X685080D01*
X690080Y425988D01*
Y400988D01*
X682580Y393488D01*
X647580D01*
X640080Y400988D01*
X617580D01*
X612580Y405988D01*
Y413488D01*
X602580Y423488D01*
X588080D01*
Y412488D01*
X575080Y399488D01*
X547080D01*
Y446488D01*
X551080Y450488D01*
X585080D01*
Y468488D01*
X600080D01*
X637580Y430988D01*
D02*
G37*
G36*
X422580D02*
X470080D01*
X475080Y425988D01*
Y400988D01*
X467580Y393488D01*
X432580D01*
X425080Y400988D01*
X402580D01*
X397580Y405988D01*
Y413488D01*
X387580Y423488D01*
X373080D01*
Y412488D01*
X360080Y399488D01*
X332080D01*
Y446488D01*
X336080Y450488D01*
X370080D01*
Y468488D01*
X385080D01*
X422580Y430988D01*
D02*
G37*
G36*
X207580D02*
X255080D01*
X260080Y425988D01*
Y400988D01*
X252580Y393488D01*
X217580D01*
X210080Y400988D01*
X187580D01*
X182580Y405988D01*
Y413488D01*
X172580Y423488D01*
X158080D01*
Y412488D01*
X145080Y399488D01*
X117080D01*
Y446488D01*
X121080Y450488D01*
X155080D01*
Y468488D01*
X170080D01*
X207580Y430988D01*
D02*
G37*
G36*
X923080Y375488D02*
Y299488D01*
X909080Y285488D01*
X882080D01*
X879330Y288238D01*
X878580Y287488D01*
X853580D01*
X848580Y292488D01*
Y329488D01*
X875580D01*
X882580Y322488D01*
Y318988D01*
X891080Y327488D01*
X891080Y374488D01*
X887080Y378488D01*
X870080D01*
X868080Y380488D01*
Y386488D01*
X870080Y388488D01*
X910080D01*
X923080Y375488D01*
D02*
G37*
G36*
X708080D02*
Y299488D01*
X694080Y285488D01*
X667080D01*
X664330Y288238D01*
X663580Y287488D01*
X638580D01*
X633580Y292488D01*
Y329488D01*
X660580D01*
X667580Y322488D01*
Y318988D01*
X676080Y327488D01*
X676080Y374488D01*
X672080Y378488D01*
X655080D01*
X653080Y380488D01*
Y386488D01*
X655080Y388488D01*
X695080D01*
X708080Y375488D01*
D02*
G37*
G36*
X493080D02*
Y299488D01*
X479080Y285488D01*
X452080D01*
X449330Y288238D01*
X448580Y287488D01*
X423580D01*
X418580Y292488D01*
Y329488D01*
X445580D01*
X452580Y322488D01*
Y318988D01*
X461080Y327488D01*
X461080Y374488D01*
X457080Y378488D01*
X440080D01*
X438080Y380488D01*
Y386488D01*
X440080Y388488D01*
X480080D01*
X493080Y375488D01*
D02*
G37*
G36*
X278080D02*
Y299488D01*
X264080Y285488D01*
X237080D01*
X234330Y288238D01*
X233580Y287488D01*
X208580D01*
X203580Y292488D01*
Y329488D01*
X230580D01*
X237580Y322488D01*
Y318988D01*
X246080Y327488D01*
X246080Y374488D01*
X242080Y378488D01*
X225080D01*
X223080Y380488D01*
Y386488D01*
X225080Y388488D01*
X265080D01*
X278080Y375488D01*
D02*
G37*
G36*
X1020583Y298820D02*
X1021276Y297718D01*
X1021246Y297571D01*
X1021152Y297343D01*
Y297096D01*
X1021023Y296448D01*
X1021152Y295799D01*
Y295553D01*
X1021246Y295325D01*
X1021375Y294676D01*
X1021743Y294127D01*
X1021837Y293899D01*
X1022011Y293724D01*
X1022379Y293175D01*
X1033215Y282339D01*
Y158919D01*
X1028053Y153757D01*
X1001915D01*
X995911Y159761D01*
X994409Y160764D01*
X992638Y161117D01*
X992638Y161117D01*
X978812D01*
X978084Y162127D01*
X978446Y163320D01*
X980186D01*
X981462Y163574D01*
X982543Y164296D01*
X988857Y170610D01*
X989580Y171692D01*
X989834Y172968D01*
Y187555D01*
X989971Y187760D01*
X991104Y188499D01*
X991187Y188482D01*
X991415Y188388D01*
X991662D01*
X992310Y188259D01*
X993840D01*
Y188063D01*
X994379D01*
Y187887D01*
X1003630D01*
Y181713D01*
X993840D01*
Y179348D01*
X999800D01*
X1000362Y178209D01*
X1000194Y177990D01*
X999934Y177362D01*
X1012280D01*
X1024626D01*
X1024366Y177990D01*
X1023158Y179565D01*
X1021582Y180773D01*
X1019748Y181533D01*
X1017780Y181792D01*
X1013420D01*
Y183387D01*
X1014690Y183867D01*
X1016511Y183113D01*
X1018649D01*
X1020625Y183931D01*
X1022137Y185443D01*
X1022955Y187419D01*
Y189557D01*
X1022137Y191532D01*
X1020625Y193044D01*
X1018649Y193863D01*
X1016511D01*
X1014535Y193044D01*
X1014150Y192659D01*
X1012880Y193185D01*
Y206554D01*
X1014784D01*
X1016060Y206808D01*
X1017141Y207530D01*
X1020135Y210524D01*
X1020858Y211606D01*
X1021112Y212882D01*
Y217962D01*
X1020858Y219238D01*
X1020135Y220319D01*
X1018210Y222245D01*
X1017128Y222968D01*
X1015852Y223222D01*
X1012880D01*
Y231388D01*
Y241589D01*
X1014150Y242115D01*
X1014535Y241729D01*
X1016511Y240911D01*
X1018649D01*
X1020625Y241729D01*
X1022137Y243241D01*
X1022955Y245217D01*
Y247355D01*
X1022137Y249331D01*
X1020625Y250843D01*
X1018649Y251661D01*
X1016511D01*
X1014690Y250907D01*
X1013420Y251387D01*
Y252982D01*
X1017780D01*
X1019748Y253241D01*
X1021582Y254001D01*
X1023158Y255209D01*
X1024366Y256784D01*
X1024626Y257412D01*
X1012280D01*
X999934D01*
X1000194Y256784D01*
X1000361Y256567D01*
X999799Y255428D01*
X994467D01*
Y285828D01*
X1006353Y297715D01*
X1006353Y297715D01*
X1007204Y298988D01*
X1020361D01*
X1020583Y298820D01*
D02*
G37*
%LPC*%
G36*
X744075Y385690D02*
X743297Y384913D01*
X744075D01*
Y385690D01*
D02*
G37*
G36*
X529075D02*
X528297Y384913D01*
X529075D01*
Y385690D01*
D02*
G37*
G36*
X314075D02*
X313297Y384913D01*
X314075D01*
Y385690D01*
D02*
G37*
G36*
X99075D02*
X98297Y384913D01*
X99075D01*
Y385690D01*
D02*
G37*
G36*
X841843Y364488D02*
X838080D01*
X841843Y360725D01*
Y364488D01*
D02*
G37*
G36*
X626843D02*
X623080D01*
X626843Y360725D01*
Y364488D01*
D02*
G37*
G36*
X411843D02*
X408080D01*
X411843Y360725D01*
Y364488D01*
D02*
G37*
G36*
X196843D02*
X193080D01*
X196843Y360725D01*
Y364488D01*
D02*
G37*
G36*
X604518Y362718D02*
X588518D01*
X587152Y362447D01*
X585995Y361673D01*
X585702Y361235D01*
X584367Y360969D01*
X583201Y360191D01*
X581345Y358335D01*
X579988Y359241D01*
X578330Y359571D01*
X573830D01*
X572172Y359241D01*
X570766Y358302D01*
X569827Y356896D01*
X569497Y355238D01*
Y350386D01*
X568919Y349522D01*
X568646Y348147D01*
Y339602D01*
X560500Y331455D01*
X559513Y332265D01*
X559739Y332602D01*
X559868Y333251D01*
X559962Y333479D01*
Y333725D01*
X560091Y334374D01*
X559962Y335022D01*
Y335269D01*
X559868Y335497D01*
X559739Y336145D01*
X559371Y336695D01*
X559277Y336923D01*
X559102Y337097D01*
X558735Y337647D01*
X558185Y338014D01*
X558011Y338189D01*
X557783Y338283D01*
X557233Y338650D01*
X556585Y338779D01*
X556357Y338874D01*
X556110D01*
X555462Y339003D01*
X549115D01*
Y346648D01*
X548707Y348696D01*
X547547Y350433D01*
X545810Y351593D01*
X543762Y352001D01*
X537262D01*
X535214Y351593D01*
X533477Y350433D01*
X532317Y348696D01*
X531909Y346648D01*
Y335148D01*
X532317Y333099D01*
X533477Y331363D01*
X535214Y330202D01*
X537262Y329795D01*
X543762D01*
X544869Y330015D01*
X546228Y329745D01*
X555462D01*
X556110Y329874D01*
X556357D01*
X556585Y329968D01*
X557233Y330097D01*
X557571Y330322D01*
X558389Y329345D01*
X557611Y328180D01*
X557337Y326805D01*
Y324799D01*
X556907Y324511D01*
X556133Y323353D01*
X555861Y321988D01*
Y305988D01*
X556133Y304622D01*
X556907Y303465D01*
X558064Y302691D01*
X559430Y302419D01*
X562430D01*
X563796Y302691D01*
X564953Y303465D01*
X565727Y304622D01*
X565999Y305988D01*
Y321988D01*
X565727Y323353D01*
X564953Y324511D01*
X565089Y325882D01*
X574227Y335020D01*
X575497Y334494D01*
Y333738D01*
X575827Y332080D01*
X576766Y330674D01*
X578172Y329734D01*
X578487Y329672D01*
Y326166D01*
X578374Y326028D01*
X576805D01*
Y317163D01*
X579170D01*
Y322198D01*
X580440Y322724D01*
X581798Y321367D01*
Y321307D01*
X582483Y319653D01*
X583749Y318387D01*
X585403Y317702D01*
X587193D01*
X588847Y318387D01*
X590113Y319653D01*
X590798Y321307D01*
Y323097D01*
X590113Y324751D01*
X588847Y326017D01*
X587193Y326702D01*
X586625D01*
X585673Y327654D01*
Y329672D01*
X585988Y329734D01*
X587394Y330674D01*
X588333Y332080D01*
X588663Y333738D01*
Y339238D01*
X588333Y340896D01*
X587394Y342302D01*
X585988Y343241D01*
X584330Y343571D01*
X579830D01*
X578172Y343241D01*
X577102Y342527D01*
X575832Y343016D01*
Y345405D01*
X578330D01*
X579988Y345734D01*
X581394Y346674D01*
X582333Y348080D01*
X582663Y349738D01*
Y350932D01*
X583981Y351194D01*
X585146Y351973D01*
X586477Y353304D01*
X587152Y352853D01*
X588518Y352581D01*
X593662D01*
X593977Y352109D01*
X594487Y351600D01*
X594487Y343304D01*
X594172Y343241D01*
X592766Y342302D01*
X591827Y340896D01*
X591497Y339238D01*
Y333738D01*
X591827Y332080D01*
X592766Y330674D01*
X594172Y329734D01*
X595830Y329405D01*
X600330D01*
X601988Y329734D01*
X603394Y330674D01*
X604333Y332080D01*
X604663Y333738D01*
Y339238D01*
X604333Y340896D01*
X603394Y342302D01*
X601988Y343241D01*
X601673Y343304D01*
X601673Y352581D01*
X604518D01*
X605884Y352853D01*
X607041Y353627D01*
X607815Y354784D01*
X608080Y356117D01*
Y359183D01*
X607815Y360516D01*
X607041Y361673D01*
X605884Y362447D01*
X604518Y362718D01*
D02*
G37*
G36*
X389518D02*
X373518D01*
X372152Y362447D01*
X370995Y361673D01*
X370702Y361235D01*
X369367Y360969D01*
X368201Y360191D01*
X366345Y358335D01*
X364988Y359241D01*
X363330Y359571D01*
X358830D01*
X357172Y359241D01*
X355766Y358302D01*
X354827Y356896D01*
X354497Y355238D01*
Y350386D01*
X353919Y349522D01*
X353646Y348147D01*
Y340215D01*
X346034Y332603D01*
X344863Y333228D01*
X344868Y333251D01*
X344962Y333479D01*
Y333725D01*
X345091Y334374D01*
X344962Y335022D01*
Y335269D01*
X344868Y335497D01*
X344739Y336145D01*
X344371Y336695D01*
X344277Y336923D01*
X344102Y337097D01*
X343735Y337647D01*
X343185Y338014D01*
X343011Y338189D01*
X342783Y338283D01*
X342233Y338650D01*
X341585Y338779D01*
X341357Y338874D01*
X341110D01*
X340462Y339003D01*
X336293D01*
Y345886D01*
X335885Y347934D01*
X334725Y349671D01*
X332988Y350831D01*
X330940Y351239D01*
X324440D01*
X322392Y350831D01*
X320655Y349671D01*
X319495Y347934D01*
X319087Y345886D01*
Y334386D01*
X319495Y332337D01*
X320655Y330601D01*
X322392Y329440D01*
X324440Y329033D01*
X330940D01*
X332988Y329440D01*
X333444Y329745D01*
X340462D01*
X341110Y329874D01*
X341357D01*
X341585Y329968D01*
X341912Y330033D01*
X342661Y329194D01*
X342752Y329004D01*
X342611Y328793D01*
X342337Y327418D01*
Y324799D01*
X341907Y324511D01*
X341133Y323353D01*
X340861Y321988D01*
Y305988D01*
X341133Y304622D01*
X341907Y303465D01*
X343064Y302691D01*
X344430Y302419D01*
X347430D01*
X348796Y302691D01*
X349953Y303465D01*
X350727Y304622D01*
X350999Y305988D01*
Y321988D01*
X350727Y323353D01*
X349953Y324511D01*
X349652Y324713D01*
X349578Y325984D01*
X359227Y335633D01*
X360497Y335107D01*
Y333738D01*
X360827Y332080D01*
X361766Y330674D01*
X363172Y329734D01*
X363487Y329672D01*
Y326166D01*
X363374Y326028D01*
X361805D01*
Y317163D01*
X364170D01*
Y322198D01*
X365440Y322724D01*
X366798Y321367D01*
Y321307D01*
X367483Y319653D01*
X368749Y318387D01*
X370403Y317702D01*
X372193D01*
X373847Y318387D01*
X375113Y319653D01*
X375798Y321307D01*
Y323097D01*
X375113Y324751D01*
X373847Y326017D01*
X372193Y326702D01*
X371625D01*
X370673Y327654D01*
Y329672D01*
X370988Y329734D01*
X372394Y330674D01*
X373333Y332080D01*
X373663Y333738D01*
Y339238D01*
X373333Y340896D01*
X372394Y342302D01*
X370988Y343241D01*
X369330Y343571D01*
X364830D01*
X363172Y343241D01*
X362102Y342527D01*
X360832Y343016D01*
Y345405D01*
X363330D01*
X364988Y345734D01*
X366394Y346674D01*
X367333Y348080D01*
X367663Y349738D01*
Y350932D01*
X368981Y351194D01*
X370146Y351973D01*
X371477Y353304D01*
X372152Y352853D01*
X373518Y352581D01*
X378662D01*
X378977Y352109D01*
X379487Y351600D01*
X379487Y343304D01*
X379172Y343241D01*
X377766Y342302D01*
X376827Y340896D01*
X376497Y339238D01*
Y333738D01*
X376827Y332080D01*
X377766Y330674D01*
X379172Y329734D01*
X380830Y329405D01*
X385330D01*
X386988Y329734D01*
X388394Y330674D01*
X389333Y332080D01*
X389663Y333738D01*
Y339238D01*
X389333Y340896D01*
X388394Y342302D01*
X386988Y343241D01*
X386673Y343304D01*
X386673Y352581D01*
X389518D01*
X390884Y352853D01*
X392041Y353627D01*
X392815Y354784D01*
X393080Y356117D01*
Y359183D01*
X392815Y360516D01*
X392041Y361673D01*
X390884Y362447D01*
X389518Y362718D01*
D02*
G37*
G36*
X174518D02*
X158518D01*
X157152Y362447D01*
X155995Y361673D01*
X155702Y361235D01*
X154367Y360969D01*
X153201Y360191D01*
X151345Y358335D01*
X149988Y359241D01*
X148330Y359571D01*
X143830D01*
X142172Y359241D01*
X140766Y358302D01*
X139827Y356896D01*
X139497Y355238D01*
Y350386D01*
X138919Y349522D01*
X138646Y348147D01*
Y344683D01*
X128389Y334426D01*
X127611Y333261D01*
X127337Y331886D01*
Y324799D01*
X126907Y324511D01*
X126133Y323353D01*
X125861Y321988D01*
Y305988D01*
X126133Y304622D01*
X126907Y303465D01*
X128064Y302691D01*
X129430Y302419D01*
X132430D01*
X133796Y302691D01*
X134953Y303465D01*
X135727Y304622D01*
X135999Y305988D01*
Y321988D01*
X135727Y323353D01*
X134953Y324511D01*
X134523Y324799D01*
Y330398D01*
X144410Y340285D01*
X145581Y339659D01*
X145497Y339238D01*
Y333738D01*
X145827Y332080D01*
X146766Y330674D01*
X148172Y329734D01*
X148487Y329672D01*
Y326166D01*
X148374Y326028D01*
X146805D01*
Y317163D01*
X149170D01*
Y322198D01*
X150440Y322724D01*
X151798Y321367D01*
Y321307D01*
X152483Y319653D01*
X153749Y318387D01*
X155403Y317702D01*
X157193D01*
X158847Y318387D01*
X160113Y319653D01*
X160798Y321307D01*
Y323097D01*
X160113Y324751D01*
X158847Y326017D01*
X157193Y326702D01*
X156625D01*
X155673Y327654D01*
Y329672D01*
X155988Y329734D01*
X157394Y330674D01*
X158333Y332080D01*
X158663Y333738D01*
Y339238D01*
X158333Y340896D01*
X157394Y342302D01*
X155988Y343241D01*
X154330Y343571D01*
X149830D01*
X148172Y343241D01*
X146977Y342443D01*
X146177Y342776D01*
X145808Y343073D01*
X145832Y343195D01*
Y345405D01*
X148330D01*
X149988Y345734D01*
X151394Y346674D01*
X152333Y348080D01*
X152663Y349738D01*
Y350932D01*
X153981Y351194D01*
X155147Y351973D01*
X156477Y353304D01*
X157152Y352853D01*
X158518Y352581D01*
X163662D01*
X163977Y352109D01*
X164487Y351600D01*
X164487Y343304D01*
X164172Y343241D01*
X162766Y342302D01*
X161827Y340896D01*
X161497Y339238D01*
Y333738D01*
X161827Y332080D01*
X162766Y330674D01*
X164172Y329734D01*
X165830Y329405D01*
X170330D01*
X171988Y329734D01*
X173394Y330674D01*
X174333Y332080D01*
X174663Y333738D01*
Y339238D01*
X174333Y340896D01*
X173394Y342302D01*
X171988Y343241D01*
X171673Y343304D01*
X171673Y352581D01*
X174518D01*
X175884Y352853D01*
X177041Y353627D01*
X177815Y354784D01*
X178080Y356117D01*
Y359183D01*
X177815Y360516D01*
X177041Y361673D01*
X175884Y362447D01*
X174518Y362718D01*
D02*
G37*
G36*
X819518D02*
X803518D01*
X802152Y362447D01*
X800995Y361673D01*
X800702Y361235D01*
X799367Y360969D01*
X798201Y360191D01*
X796345Y358335D01*
X794988Y359241D01*
X793330Y359571D01*
X788830D01*
X787172Y359241D01*
X785766Y358302D01*
X784827Y356896D01*
X784497Y355238D01*
Y349738D01*
X784827Y348080D01*
X785766Y346674D01*
X786048Y346485D01*
Y344404D01*
X776325Y334680D01*
X775111Y334985D01*
X774962Y335114D01*
Y335269D01*
X774867Y335497D01*
X774738Y336145D01*
X774371Y336695D01*
X774277Y336923D01*
X774102Y337097D01*
X773735Y337647D01*
X773185Y338014D01*
X773011Y338189D01*
X772783Y338283D01*
X772233Y338650D01*
X771585Y338779D01*
X771357Y338874D01*
X771110D01*
X770462Y339003D01*
X764283D01*
Y348172D01*
X763875Y350220D01*
X762715Y351957D01*
X760978Y353117D01*
X758930Y353525D01*
X752430D01*
X750382Y353117D01*
X748645Y351957D01*
X747485Y350220D01*
X747077Y348172D01*
Y336672D01*
X747485Y334623D01*
X748645Y332887D01*
X750382Y331726D01*
X752430Y331319D01*
X757737D01*
X757955Y331101D01*
X757955Y331101D01*
X759457Y330097D01*
X761228Y329745D01*
X770462D01*
X771110Y329874D01*
X771175D01*
X771770Y329531D01*
X771994Y329346D01*
X772337Y328823D01*
Y324799D01*
X771907Y324511D01*
X771133Y323353D01*
X770862Y321988D01*
Y305988D01*
X771133Y304622D01*
X771907Y303465D01*
X773064Y302691D01*
X774430Y302419D01*
X777430D01*
X778796Y302691D01*
X779953Y303465D01*
X780727Y304622D01*
X780999Y305988D01*
Y321988D01*
X780727Y323353D01*
X779953Y324511D01*
X779523Y324799D01*
Y327716D01*
X789323Y337517D01*
X790497Y337030D01*
Y333738D01*
X790827Y332080D01*
X791766Y330674D01*
X793172Y329734D01*
X793487Y329672D01*
Y326166D01*
X793374Y326028D01*
X791805D01*
Y317163D01*
X794170D01*
Y322198D01*
X795440Y322724D01*
X796798Y321367D01*
Y321307D01*
X797483Y319653D01*
X798749Y318387D01*
X800403Y317702D01*
X802193D01*
X803847Y318387D01*
X805113Y319653D01*
X805798Y321307D01*
Y323097D01*
X805113Y324751D01*
X803847Y326017D01*
X802193Y326702D01*
X801625D01*
X800673Y327654D01*
Y329672D01*
X800988Y329734D01*
X802394Y330674D01*
X803333Y332080D01*
X803663Y333738D01*
Y339238D01*
X803333Y340896D01*
X802394Y342302D01*
X800988Y343241D01*
X799330Y343571D01*
X794830D01*
X794363Y343478D01*
X793360Y344288D01*
X793347Y344783D01*
X793424Y345423D01*
X794988Y345734D01*
X796394Y346674D01*
X797333Y348080D01*
X797663Y349738D01*
Y350932D01*
X798981Y351194D01*
X800146Y351973D01*
X801477Y353304D01*
X802152Y352853D01*
X803518Y352581D01*
X808662D01*
X808977Y352109D01*
X809487Y351600D01*
X809487Y343304D01*
X809172Y343241D01*
X807766Y342302D01*
X806827Y340896D01*
X806497Y339238D01*
Y333738D01*
X806827Y332080D01*
X807766Y330674D01*
X809172Y329734D01*
X810830Y329405D01*
X815330D01*
X816988Y329734D01*
X818394Y330674D01*
X819333Y332080D01*
X819663Y333738D01*
Y339238D01*
X819333Y340896D01*
X818394Y342302D01*
X816988Y343241D01*
X816673Y343304D01*
X816673Y352581D01*
X819518D01*
X820884Y352853D01*
X822041Y353627D01*
X822815Y354784D01*
X823080Y356117D01*
Y359183D01*
X822815Y360516D01*
X822041Y361673D01*
X820884Y362447D01*
X819518Y362718D01*
D02*
G37*
G36*
X744075Y357563D02*
X743297D01*
X744075Y356785D01*
Y357563D01*
D02*
G37*
G36*
X529075D02*
X528297D01*
X529075Y356785D01*
Y357563D01*
D02*
G37*
G36*
X314075D02*
X313297D01*
X314075Y356785D01*
Y357563D01*
D02*
G37*
G36*
X862558Y364488D02*
X848193D01*
Y354160D01*
X853788D01*
X862558Y362930D01*
Y364488D01*
D02*
G37*
G36*
X647558D02*
X633193D01*
Y354160D01*
X638788D01*
X647558Y362930D01*
Y364488D01*
D02*
G37*
G36*
X432558D02*
X418193D01*
Y354160D01*
X423788D01*
X432558Y362930D01*
Y364488D01*
D02*
G37*
G36*
X217558D02*
X203193D01*
Y354160D01*
X208788D01*
X217558Y362930D01*
Y364488D01*
D02*
G37*
G36*
X730930Y354075D02*
X730855D01*
Y345597D01*
X736833D01*
Y348172D01*
X736384Y350431D01*
X735104Y352346D01*
X733189Y353626D01*
X730930Y354075D01*
D02*
G37*
G36*
X724505D02*
X724430D01*
X722171Y353626D01*
X720256Y352346D01*
X718976Y350431D01*
X718527Y348172D01*
Y345597D01*
X724505D01*
Y354075D01*
D02*
G37*
G36*
X567129Y349313D02*
X563255D01*
Y345038D01*
X564199Y345226D01*
X565783Y346284D01*
X566842Y347869D01*
X567129Y349313D01*
D02*
G37*
G36*
X352129Y349313D02*
X348255D01*
Y345038D01*
X349199Y345226D01*
X350783Y346284D01*
X351842Y347869D01*
X352129Y349313D01*
D02*
G37*
G36*
X137129Y349313D02*
X133255D01*
Y345038D01*
X134199Y345226D01*
X135783Y346284D01*
X136842Y347869D01*
X137129Y349313D01*
D02*
G37*
G36*
X771905D02*
X768031D01*
X768318Y347869D01*
X769377Y346284D01*
X770961Y345226D01*
X771905Y345038D01*
Y349313D01*
D02*
G37*
G36*
X126905D02*
X123031D01*
X123318Y347869D01*
X124377Y346284D01*
X125961Y345226D01*
X126905Y345038D01*
Y349313D01*
D02*
G37*
G36*
X341905Y349313D02*
X338031D01*
X338318Y347869D01*
X339377Y346284D01*
X340961Y345226D01*
X341905Y345038D01*
Y349313D01*
D02*
G37*
G36*
X556905Y349313D02*
X553031D01*
X553318Y347869D01*
X554377Y346284D01*
X555961Y345226D01*
X556905Y345038D01*
Y349313D01*
D02*
G37*
G36*
X782129Y349313D02*
X778255D01*
Y345038D01*
X779199Y345226D01*
X780783Y346284D01*
X781842Y347869D01*
X782129Y349313D01*
D02*
G37*
G36*
X515762Y352551D02*
X515687D01*
Y344073D01*
X521665D01*
Y346648D01*
X521216Y348907D01*
X519936Y350822D01*
X518021Y352102D01*
X515762Y352551D01*
D02*
G37*
G36*
X509337D02*
X509262D01*
X507003Y352102D01*
X505088Y350822D01*
X503808Y348907D01*
X503359Y346648D01*
Y344073D01*
X509337D01*
Y352551D01*
D02*
G37*
G36*
X302940Y351789D02*
X302865D01*
Y343311D01*
X308843D01*
Y345886D01*
X308394Y348145D01*
X307114Y350060D01*
X305199Y351340D01*
X302940Y351789D01*
D02*
G37*
G36*
X296515D02*
X296440D01*
X294181Y351340D01*
X292266Y350060D01*
X290986Y348145D01*
X290537Y345886D01*
Y343311D01*
X296515D01*
Y351789D01*
D02*
G37*
G36*
X75213Y368358D02*
X74564Y368229D01*
X74318D01*
X74090Y368135D01*
X73441Y368006D01*
X72892Y367638D01*
X72664Y367544D01*
X72489Y367369D01*
X71940Y367002D01*
X71572Y366452D01*
X71398Y366278D01*
X71304Y366050D01*
X70936Y365500D01*
X70807Y364852D01*
X70713Y364624D01*
Y364377D01*
X70584Y363729D01*
X70713Y363081D01*
Y362834D01*
X70749Y362747D01*
Y354520D01*
X70079Y354387D01*
X68343Y353227D01*
X67182Y351490D01*
X66775Y349442D01*
Y337942D01*
X67182Y335893D01*
X68343Y334157D01*
X70079Y332996D01*
X72128Y332589D01*
X78628D01*
X80676Y332996D01*
X82413Y334157D01*
X83573Y335893D01*
X83981Y337942D01*
Y349442D01*
X83573Y351490D01*
X82413Y353227D01*
X80676Y354387D01*
X80007Y354520D01*
Y363564D01*
X80007Y363564D01*
X79654Y365335D01*
X79033Y366266D01*
X79028Y366278D01*
X79018Y366287D01*
X78651Y366837D01*
X78651Y366837D01*
X78486Y367002D01*
X77936Y367369D01*
X77762Y367544D01*
X77534Y367638D01*
X76984Y368006D01*
X76336Y368135D01*
X76108Y368229D01*
X75861D01*
X75213Y368358D01*
D02*
G37*
G36*
X112531Y340517D02*
X106553D01*
Y332038D01*
X106628D01*
X108887Y332488D01*
X110802Y333768D01*
X112082Y335683D01*
X112531Y337942D01*
Y340517D01*
D02*
G37*
G36*
X100203D02*
X94225D01*
Y337942D01*
X94674Y335683D01*
X95954Y333768D01*
X97869Y332488D01*
X100128Y332038D01*
X100203D01*
Y340517D01*
D02*
G37*
G36*
X736833Y339247D02*
X730855D01*
Y330768D01*
X730930D01*
X733189Y331218D01*
X735104Y332497D01*
X736384Y334413D01*
X736833Y336672D01*
Y339247D01*
D02*
G37*
G36*
X724505D02*
X718527D01*
Y336672D01*
X718976Y334413D01*
X720256Y332497D01*
X722171Y331218D01*
X724430Y330768D01*
X724505D01*
Y339247D01*
D02*
G37*
G36*
X521665Y337723D02*
X515687D01*
Y329244D01*
X515762D01*
X518021Y329694D01*
X519936Y330974D01*
X521216Y332889D01*
X521665Y335148D01*
Y337723D01*
D02*
G37*
G36*
X509337D02*
X503359D01*
Y335148D01*
X503808Y332889D01*
X505088Y330974D01*
X507003Y329694D01*
X509262Y329244D01*
X509337D01*
Y337723D01*
D02*
G37*
G36*
X308843Y336961D02*
X302865D01*
Y328482D01*
X302940D01*
X305199Y328932D01*
X307114Y330211D01*
X308394Y332127D01*
X308843Y334386D01*
Y336961D01*
D02*
G37*
G36*
X296515D02*
X290537D01*
Y334386D01*
X290986Y332127D01*
X292266Y330211D01*
X294181Y328932D01*
X296440Y328482D01*
X296515D01*
Y336961D01*
D02*
G37*
G36*
X785455Y326028D02*
X783090D01*
Y317163D01*
X785455D01*
Y326028D01*
D02*
G37*
G36*
X570455D02*
X568090D01*
Y317163D01*
X570455D01*
Y326028D01*
D02*
G37*
G36*
X355455D02*
X353090D01*
Y317163D01*
X355455D01*
Y326028D01*
D02*
G37*
G36*
X140455D02*
X138090D01*
Y317163D01*
X140455D01*
Y326028D01*
D02*
G37*
G36*
X948905Y318651D02*
X938330D01*
X935876Y318163D01*
X935080Y317631D01*
D01*
X934998Y317576D01*
X933795Y316773D01*
X932405Y314692D01*
X931917Y312238D01*
Y311663D01*
X948905D01*
Y318651D01*
D02*
G37*
G36*
X794170Y310813D02*
X791805D01*
Y301948D01*
X794170D01*
Y310813D01*
D02*
G37*
G36*
X785455D02*
X783090D01*
Y301948D01*
X785455D01*
Y310813D01*
D02*
G37*
G36*
X579170D02*
X576805D01*
Y301948D01*
X579170D01*
Y310813D01*
D02*
G37*
G36*
X570455D02*
X568090D01*
Y301948D01*
X570455D01*
Y310813D01*
D02*
G37*
G36*
X364170D02*
X361805D01*
Y301948D01*
X364170D01*
Y310813D01*
D02*
G37*
G36*
X355455D02*
X353090D01*
Y301948D01*
X355455D01*
Y310813D01*
D02*
G37*
G36*
X149170D02*
X146805D01*
Y301948D01*
X149170D01*
Y310813D01*
D02*
G37*
G36*
X140455D02*
X138090D01*
Y301948D01*
X140455D01*
Y310813D01*
D02*
G37*
G36*
X948905Y305313D02*
X931917D01*
D01*
Y304738D01*
X932405Y302284D01*
X933795Y300203D01*
X935876Y298813D01*
X938330Y298325D01*
X948905D01*
Y305313D01*
D02*
G37*
G36*
X815243Y304651D02*
X805830D01*
X803376Y304163D01*
X801295Y302773D01*
X799905Y300692D01*
X799417Y298238D01*
Y297663D01*
X811080D01*
Y300488D01*
X815243Y304651D01*
D02*
G37*
G36*
X600243Y304651D02*
X590830D01*
X588376Y304163D01*
X586295Y302773D01*
X584905Y300692D01*
X584417Y298238D01*
Y297663D01*
X596080D01*
Y300488D01*
X600243Y304651D01*
D02*
G37*
G36*
X385243D02*
X375830D01*
X373376Y304163D01*
X371295Y302773D01*
X369905Y300692D01*
X369417Y298238D01*
Y297663D01*
X381080D01*
Y300488D01*
X385243Y304651D01*
D02*
G37*
G36*
X170243D02*
X160830D01*
X158376Y304163D01*
X156295Y302773D01*
X154905Y300692D01*
X154417Y298238D01*
Y297663D01*
X166080D01*
Y300488D01*
X170243Y304651D01*
D02*
G37*
G36*
X549730Y325556D02*
X546730D01*
X545364Y325285D01*
X544207Y324511D01*
X543433Y323353D01*
X543161Y321988D01*
Y305988D01*
X543433Y304622D01*
X544207Y303465D01*
X545155Y302831D01*
Y296584D01*
X541271Y292700D01*
X540329Y293491D01*
X541014Y295145D01*
Y296935D01*
X540329Y298589D01*
X539063Y299855D01*
X538605Y300044D01*
Y302831D01*
X539553Y303465D01*
X540327Y304622D01*
X540599Y305988D01*
Y321988D01*
X540327Y323353D01*
X539553Y324511D01*
X538396Y325285D01*
X537030Y325556D01*
X534030D01*
X532664Y325285D01*
X531507Y324511D01*
X530733Y323353D01*
X530461Y321988D01*
Y305988D01*
X530733Y304622D01*
X531507Y303465D01*
X532455Y302831D01*
Y298464D01*
X532517Y298150D01*
X532014Y296935D01*
Y295145D01*
X532699Y293491D01*
X533965Y292225D01*
X535619Y291540D01*
X537409D01*
X539063Y292225D01*
X539854Y291283D01*
X538034Y289463D01*
X534609D01*
X534609Y289463D01*
X533432Y289229D01*
X532435Y288562D01*
X532435Y288562D01*
X521386Y277513D01*
X521386Y277513D01*
X520719Y276516D01*
X520485Y275339D01*
X520485Y275339D01*
Y240922D01*
X520485Y240922D01*
X520719Y239745D01*
X521386Y238747D01*
X539281Y220852D01*
Y205765D01*
X539281Y205765D01*
X539439Y204971D01*
X538408Y204133D01*
X538310Y204198D01*
X537530Y204353D01*
X529402D01*
X528622Y204198D01*
X527960Y203756D01*
X527518Y203094D01*
X527363Y202314D01*
Y193982D01*
X526421Y192998D01*
X524631D01*
X523640Y193660D01*
Y203770D01*
X510140D01*
Y191270D01*
X515112D01*
X515317Y190235D01*
X515984Y189238D01*
X518898Y186324D01*
X518898Y186323D01*
X519896Y185657D01*
X521073Y185423D01*
X521073Y185423D01*
X522237D01*
X522977Y184683D01*
X524631Y183998D01*
X526421D01*
X527041Y183584D01*
Y179768D01*
X525902Y179206D01*
X525683Y179374D01*
X525055Y179634D01*
Y167288D01*
Y154942D01*
X525683Y155202D01*
X527258Y156410D01*
X528466Y157985D01*
X529226Y159819D01*
X529485Y161788D01*
Y166148D01*
X531080D01*
X531560Y164878D01*
X530806Y163057D01*
Y160919D01*
X531624Y158943D01*
X533136Y157431D01*
X535112Y156613D01*
X537250D01*
X539226Y157431D01*
X540738Y158943D01*
X541556Y160919D01*
Y163057D01*
X540738Y165033D01*
X540352Y165418D01*
D01*
X540878Y166688D01*
X554572D01*
X554740Y165846D01*
X555406Y164849D01*
X558470Y161786D01*
X558470Y161785D01*
X559467Y161119D01*
X560644Y160885D01*
X565724D01*
X565724Y160885D01*
X566901Y161119D01*
X567898Y161785D01*
X569755Y163642D01*
X569755Y163642D01*
X570422Y164640D01*
X570656Y165817D01*
X571485Y166688D01*
X589282D01*
X589808Y165418D01*
D01*
D01*
X589422Y165033D01*
X588604Y163057D01*
Y160919D01*
X589422Y158943D01*
X590934Y157431D01*
X592910Y156613D01*
X595048D01*
X597024Y157431D01*
X598536Y158943D01*
X599354Y160919D01*
Y163057D01*
X598600Y164878D01*
X599080Y166148D01*
X600675D01*
Y161788D01*
X600934Y159819D01*
X601694Y157985D01*
X602902Y156410D01*
X604260Y155369D01*
Y179207D01*
X604260Y179207D01*
X603121Y179769D01*
Y185728D01*
X598115D01*
X597629Y186901D01*
X602201Y191474D01*
X602202Y191474D01*
X602644Y192136D01*
X602799Y192916D01*
X602799Y202314D01*
X602644Y203094D01*
X602202Y203756D01*
X602170Y203777D01*
Y207372D01*
X601830Y209079D01*
X600863Y210526D01*
X599416Y211493D01*
X599166Y211542D01*
X598747Y212920D01*
X601413Y215586D01*
X602116Y216056D01*
X605147Y219086D01*
X606417Y218560D01*
Y217738D01*
X606905Y215284D01*
X608295Y213203D01*
X610376Y211813D01*
X612830Y211325D01*
X615000D01*
Y231651D01*
X612830D01*
X610376Y231163D01*
X608295Y229773D01*
X608103Y229485D01*
X606833Y229870D01*
Y230991D01*
X606833Y230991D01*
X606621Y232059D01*
X606643Y232236D01*
X607351Y233329D01*
X609484D01*
X611353Y233701D01*
X612937Y234759D01*
X613996Y236344D01*
X614184Y237288D01*
X606734D01*
Y240463D01*
X603559D01*
Y247512D01*
X602115Y247225D01*
X600531Y246166D01*
X600205Y245678D01*
X598941Y245554D01*
X595909Y248586D01*
Y256221D01*
X595909Y256221D01*
X595675Y257398D01*
X595008Y258396D01*
X595008Y258396D01*
X593120Y260284D01*
Y260986D01*
X592435Y262640D01*
X591169Y263905D01*
X589515Y264590D01*
X587725D01*
X586071Y263905D01*
X584805Y262640D01*
X584120Y260986D01*
Y259195D01*
X584805Y257542D01*
X586071Y256276D01*
X587725Y255590D01*
X589116D01*
X589759Y254948D01*
Y247556D01*
X589219Y247012D01*
X588593Y246664D01*
X587670Y247046D01*
X585880D01*
X584226Y246361D01*
X582960Y245095D01*
X582275Y243441D01*
Y242646D01*
X579872Y240243D01*
X578699Y240728D01*
Y254988D01*
X578427Y256353D01*
X577653Y257511D01*
X577009Y257942D01*
Y259387D01*
X577231Y259609D01*
X577916Y261263D01*
Y263053D01*
X577231Y264707D01*
X575965Y265973D01*
X574311Y266658D01*
X572521D01*
X570867Y265973D01*
X569601Y264707D01*
X568916Y263053D01*
Y261263D01*
X569601Y259609D01*
X569823Y259387D01*
Y257656D01*
X569607Y257511D01*
X568833Y256353D01*
X568561Y254988D01*
Y238988D01*
X568833Y237622D01*
X569607Y236465D01*
X570764Y235691D01*
X572130Y235419D01*
X574772D01*
X575277Y234518D01*
X575332Y234183D01*
X574916Y233767D01*
X574249Y232769D01*
X574015Y231592D01*
X574015Y231592D01*
Y230415D01*
X572745Y229736D01*
X571988Y230241D01*
X570330Y230571D01*
X564846D01*
X561267Y234149D01*
X561794Y235419D01*
X562430D01*
X563796Y235691D01*
X564953Y236465D01*
X565727Y237622D01*
X565999Y238988D01*
Y254988D01*
X565727Y256353D01*
X564953Y257511D01*
X564005Y258145D01*
Y259607D01*
X565532Y260240D01*
X566798Y261506D01*
X567483Y263159D01*
Y264950D01*
X566798Y266604D01*
X565532Y267869D01*
X563878Y268554D01*
X562088D01*
X560434Y267869D01*
X559168Y266604D01*
X558483Y264950D01*
Y263159D01*
X558533Y263037D01*
X558089Y262373D01*
X557855Y261196D01*
X557855Y261196D01*
Y258145D01*
X556907Y257511D01*
X556133Y256353D01*
X555861Y254988D01*
Y239001D01*
X555832Y238973D01*
X554688Y238379D01*
X553299Y239768D01*
Y254988D01*
X553027Y256353D01*
X552253Y257511D01*
X551096Y258285D01*
X549730Y258556D01*
X546730D01*
X545364Y258285D01*
X544207Y257511D01*
X543433Y256353D01*
X543161Y254988D01*
Y239001D01*
X543132Y238973D01*
X541988Y238379D01*
X540599Y239768D01*
Y254988D01*
X540327Y256353D01*
X539553Y257511D01*
X538396Y258285D01*
X537030Y258556D01*
X534030D01*
X532664Y258285D01*
X531507Y257511D01*
X530733Y256353D01*
X530461Y254988D01*
Y240165D01*
X529191Y239639D01*
X526635Y242196D01*
Y274065D01*
X535883Y283313D01*
X539308D01*
X539308Y283313D01*
X540485Y283547D01*
X541482Y284213D01*
X541483Y284214D01*
X550404Y293135D01*
X550404Y293135D01*
X551071Y294133D01*
X551305Y295310D01*
Y302831D01*
X552253Y303465D01*
X553027Y304622D01*
X553299Y305988D01*
Y321988D01*
X553027Y323353D01*
X552253Y324511D01*
X551096Y325285D01*
X549730Y325556D01*
D02*
G37*
G36*
X334730D02*
X331730D01*
X330364Y325285D01*
X329207Y324511D01*
X328433Y323353D01*
X328161Y321988D01*
Y305988D01*
X328433Y304622D01*
X329207Y303465D01*
X330155Y302831D01*
Y296584D01*
X326271Y292700D01*
X325329Y293491D01*
X326014Y295145D01*
Y296935D01*
X325329Y298589D01*
X324063Y299855D01*
X323605Y300044D01*
Y302831D01*
X324553Y303465D01*
X325327Y304622D01*
X325599Y305988D01*
Y321988D01*
X325327Y323353D01*
X324553Y324511D01*
X323396Y325285D01*
X322030Y325556D01*
X319030D01*
X317664Y325285D01*
X316507Y324511D01*
X315733Y323353D01*
X315461Y321988D01*
Y305988D01*
X315733Y304622D01*
X316507Y303465D01*
X317455Y302831D01*
Y298464D01*
X317517Y298150D01*
X317014Y296935D01*
Y295145D01*
X317699Y293491D01*
X318965Y292225D01*
X320619Y291540D01*
X322409D01*
X324063Y292225D01*
X324854Y291283D01*
X323034Y289463D01*
X319609D01*
X319609Y289463D01*
X318432Y289229D01*
X317435Y288562D01*
X317435Y288562D01*
X306386Y277513D01*
X306386Y277513D01*
X305719Y276516D01*
X305485Y275339D01*
X305485Y275339D01*
Y240922D01*
X305485Y240922D01*
X305719Y239745D01*
X306386Y238747D01*
X324281Y220852D01*
Y205765D01*
X324281Y205765D01*
X324439Y204971D01*
X323408Y204133D01*
X323310Y204198D01*
X322530Y204353D01*
X314402D01*
X313622Y204198D01*
X312960Y203756D01*
X312518Y203094D01*
X312363Y202314D01*
Y192916D01*
X312363Y192916D01*
X312518Y192136D01*
X312960Y191474D01*
X312960Y191474D01*
X317533Y186901D01*
X317047Y185728D01*
X312041D01*
Y179768D01*
X310902Y179206D01*
X310683Y179374D01*
X310055Y179634D01*
Y167288D01*
Y154942D01*
X310683Y155202D01*
X312258Y156410D01*
X313466Y157985D01*
X314226Y159819D01*
X314485Y161788D01*
Y166148D01*
X316080D01*
X316560Y164878D01*
D01*
X315806Y163057D01*
Y160919D01*
X316624Y158943D01*
X318136Y157431D01*
X320112Y156613D01*
X322250D01*
X324226Y157431D01*
X325738Y158943D01*
X326556Y160919D01*
Y163057D01*
X325738Y165033D01*
X325352Y165418D01*
D01*
X325654Y166148D01*
X325878Y166688D01*
X339572D01*
X339740Y165846D01*
X340406Y164849D01*
X343470Y161786D01*
X343470Y161785D01*
X344467Y161119D01*
X345644Y160885D01*
X350724D01*
X350724Y160885D01*
X351901Y161119D01*
X352898Y161785D01*
X354755Y163642D01*
X354755Y163642D01*
X355422Y164640D01*
X355656Y165817D01*
X356485Y166688D01*
X374282D01*
X374808Y165418D01*
X374422Y165033D01*
X373604Y163057D01*
Y160919D01*
X374422Y158943D01*
X375934Y157431D01*
X377910Y156613D01*
X380048D01*
X382024Y157431D01*
X383536Y158943D01*
X384354Y160919D01*
Y163057D01*
X383600Y164878D01*
D01*
X384080Y166148D01*
X385675D01*
Y161788D01*
X385934Y159819D01*
X386694Y157985D01*
X387902Y156410D01*
X389260Y155369D01*
Y179207D01*
X389260Y179207D01*
X388121Y179769D01*
Y185728D01*
X383115D01*
X382629Y186901D01*
X387201Y191474D01*
X387202Y191474D01*
X387644Y192136D01*
X387799Y192916D01*
X387799Y202314D01*
X387644Y203094D01*
X387288Y203627D01*
Y207551D01*
X386948Y209258D01*
X385981Y210705D01*
X384534Y211672D01*
X384133Y211752D01*
X383939Y213085D01*
X384562Y213501D01*
X390147Y219086D01*
X391417Y218560D01*
Y217738D01*
X391905Y215284D01*
X393295Y213203D01*
X395376Y211813D01*
X397830Y211325D01*
X400000D01*
Y231651D01*
X397830D01*
X395376Y231163D01*
X393295Y229773D01*
X393074Y229442D01*
X391733Y229720D01*
X391599Y230394D01*
X391274Y230881D01*
X391059Y231961D01*
X390993Y232059D01*
X391672Y233329D01*
X394484D01*
X396353Y233701D01*
X397937Y234759D01*
X398996Y236344D01*
X399184Y237288D01*
X391734D01*
Y240463D01*
X388559D01*
Y247512D01*
X387115Y247225D01*
X385531Y246166D01*
X385205Y245678D01*
X383941Y245554D01*
X380909Y248586D01*
Y256221D01*
X380909Y256221D01*
X380675Y257398D01*
X380008Y258396D01*
X380008Y258396D01*
X378388Y260016D01*
Y260513D01*
X377703Y262167D01*
X376437Y263433D01*
X374783Y264118D01*
X372993D01*
X371339Y263433D01*
X370073Y262167D01*
X369388Y260513D01*
Y258723D01*
X370073Y257069D01*
X371339Y255803D01*
X372993Y255118D01*
X374589D01*
X374759Y254948D01*
Y247681D01*
X374008Y246990D01*
X373566Y246801D01*
X372923Y247067D01*
X371133D01*
X369479Y246382D01*
X368213Y245116D01*
X367528Y243462D01*
Y242826D01*
X364872Y240170D01*
X363699Y240656D01*
Y254988D01*
X363427Y256353D01*
X362653Y257511D01*
X362009Y257942D01*
Y259387D01*
X362231Y259609D01*
X362916Y261263D01*
Y263053D01*
X362231Y264707D01*
X360965Y265973D01*
X359311Y266658D01*
X357521D01*
X355867Y265973D01*
X354601Y264707D01*
X353916Y263053D01*
Y261263D01*
X354601Y259609D01*
X354823Y259387D01*
Y257656D01*
X354607Y257511D01*
X353833Y256353D01*
X353561Y254988D01*
Y238988D01*
X353833Y237622D01*
X354607Y236465D01*
X355764Y235691D01*
X357130Y235419D01*
X359711D01*
X360265Y234318D01*
X360280Y234193D01*
X359777Y233689D01*
X359110Y232692D01*
X358876Y231515D01*
X358876Y231515D01*
Y230507D01*
X357606Y229828D01*
X356988Y230241D01*
X355330Y230571D01*
X349846D01*
X346267Y234149D01*
X346794Y235419D01*
X347430D01*
X348796Y235691D01*
X349953Y236465D01*
X350727Y237622D01*
X350999Y238988D01*
Y254988D01*
X350727Y256353D01*
X349953Y257511D01*
X349005Y258145D01*
Y259799D01*
X350396Y260375D01*
X351662Y261641D01*
X352347Y263295D01*
Y265085D01*
X351662Y266739D01*
X350396Y268005D01*
X348742Y268690D01*
X346952D01*
X345298Y268005D01*
X344033Y266739D01*
X343347Y265085D01*
Y263295D01*
X343484Y262964D01*
X343089Y262373D01*
X342855Y261196D01*
X342855Y261196D01*
Y258145D01*
X341907Y257511D01*
X341133Y256353D01*
X340861Y254988D01*
Y239001D01*
X340832Y238973D01*
X339688Y238379D01*
X338299Y239768D01*
Y254988D01*
X338027Y256353D01*
X337253Y257511D01*
X336096Y258285D01*
X334730Y258556D01*
X331730D01*
X330364Y258285D01*
X329207Y257511D01*
X328433Y256353D01*
X328161Y254988D01*
Y239001D01*
X328132Y238973D01*
X326988Y238379D01*
X325599Y239768D01*
Y254988D01*
X325327Y256353D01*
X324553Y257511D01*
X323396Y258285D01*
X322030Y258556D01*
X319030D01*
X317664Y258285D01*
X316507Y257511D01*
X315733Y256353D01*
X315461Y254988D01*
Y240165D01*
X314191Y239639D01*
X311635Y242196D01*
Y274065D01*
X320883Y283313D01*
X324308D01*
X324308Y283313D01*
X325485Y283547D01*
X326482Y284213D01*
X326483Y284214D01*
X335404Y293135D01*
X335404Y293135D01*
X336071Y294133D01*
X336305Y295310D01*
Y302831D01*
X337253Y303465D01*
X338027Y304622D01*
X338299Y305988D01*
Y321988D01*
X338027Y323353D01*
X337253Y324511D01*
X336096Y325285D01*
X334730Y325556D01*
D02*
G37*
G36*
X119730D02*
X116730D01*
X115364Y325285D01*
X114207Y324511D01*
X113433Y323353D01*
X113161Y321988D01*
Y305988D01*
X113433Y304622D01*
X114207Y303465D01*
X115155Y302831D01*
Y296584D01*
X111271Y292700D01*
X110329Y293491D01*
X111014Y295145D01*
Y296935D01*
X110329Y298589D01*
X109063Y299855D01*
X108605Y300044D01*
Y302831D01*
X109553Y303465D01*
X110327Y304622D01*
X110599Y305988D01*
Y321988D01*
X110327Y323353D01*
X109553Y324511D01*
X108396Y325285D01*
X107030Y325556D01*
X104030D01*
X102664Y325285D01*
X101507Y324511D01*
X100733Y323353D01*
X100461Y321988D01*
Y305988D01*
X100733Y304622D01*
X101507Y303465D01*
X102455Y302831D01*
Y298464D01*
X102517Y298150D01*
X102014Y296935D01*
Y295145D01*
X102699Y293491D01*
X103965Y292225D01*
X105619Y291540D01*
X107409D01*
X109063Y292225D01*
X109854Y291283D01*
X108034Y289463D01*
X104609D01*
X104609Y289463D01*
X103432Y289229D01*
X102435Y288562D01*
X102435Y288562D01*
X91386Y277513D01*
X91386Y277513D01*
X90719Y276516D01*
X90485Y275339D01*
X90485Y275339D01*
Y240922D01*
X90485Y240922D01*
X90719Y239745D01*
X91386Y238747D01*
X109281Y220852D01*
Y205765D01*
X109281Y205765D01*
X109439Y204971D01*
X108408Y204133D01*
X108310Y204198D01*
X107530Y204353D01*
X99402D01*
X98622Y204198D01*
X97960Y203756D01*
X97518Y203094D01*
X97363Y202314D01*
Y192916D01*
X97363Y192916D01*
X97518Y192136D01*
X97960Y191474D01*
X97960Y191474D01*
X102533Y186901D01*
X102047Y185728D01*
X97041D01*
Y179768D01*
X95902Y179206D01*
X95683Y179374D01*
X95055Y179634D01*
Y167288D01*
Y154942D01*
X95683Y155202D01*
X97258Y156410D01*
X98466Y157985D01*
X99226Y159819D01*
X99485Y161788D01*
Y166148D01*
X101080D01*
X101560Y164878D01*
X100806Y163057D01*
Y160919D01*
X101624Y158943D01*
X103136Y157431D01*
X105112Y156613D01*
X107250D01*
X109226Y157431D01*
X110738Y158943D01*
X111556Y160919D01*
Y163057D01*
X110738Y165033D01*
X110352Y165418D01*
D01*
X110654Y166148D01*
X110878Y166688D01*
X124572D01*
X124740Y165846D01*
X125407Y164849D01*
X128469Y161786D01*
X128470Y161785D01*
X129467Y161119D01*
X130644Y160885D01*
X135724D01*
X135724Y160885D01*
X136901Y161119D01*
X137898Y161785D01*
X139755Y163642D01*
X139755Y163642D01*
X140422Y164640D01*
X140656Y165817D01*
X141485Y166688D01*
X159282D01*
X159808Y165418D01*
X159423Y165033D01*
X158604Y163057D01*
Y160919D01*
X159423Y158943D01*
X160935Y157431D01*
X162910Y156613D01*
X165048D01*
X167024Y157431D01*
X168536Y158943D01*
X169354Y160919D01*
Y163057D01*
X168600Y164878D01*
X169080Y166148D01*
X170675D01*
Y161788D01*
X170934Y159819D01*
X171694Y157985D01*
X172902Y156410D01*
X174260Y155369D01*
Y179207D01*
X174260Y179207D01*
X173121Y179769D01*
Y185728D01*
X168115D01*
X167629Y186901D01*
X172201Y191474D01*
X172202Y191474D01*
X172644Y192136D01*
X172799Y192916D01*
X172799Y202314D01*
X172644Y203094D01*
X172202Y203756D01*
X172170Y203777D01*
Y207372D01*
X171830Y209079D01*
X170863Y210526D01*
X169416Y211493D01*
X169165Y211542D01*
X168748Y212920D01*
X171413Y215586D01*
X172116Y216056D01*
X175147Y219086D01*
X176417Y218560D01*
Y217738D01*
X176905Y215284D01*
X178295Y213203D01*
X180376Y211813D01*
X182830Y211325D01*
X185000D01*
Y231651D01*
X182830D01*
X180376Y231163D01*
X178295Y229773D01*
X178103Y229485D01*
X176833Y229870D01*
Y230741D01*
X176833Y230741D01*
X176599Y231918D01*
X176505Y232059D01*
X177184Y233329D01*
X179234D01*
X181103Y233701D01*
X182687Y234759D01*
X183746Y236344D01*
X183934Y237288D01*
X176484D01*
Y240463D01*
X173309D01*
Y247512D01*
X171865Y247225D01*
X170281Y246166D01*
X169181Y246058D01*
X165909Y249329D01*
Y256221D01*
X165675Y257398D01*
X165008Y258396D01*
X165008Y258396D01*
X163592Y259812D01*
Y260867D01*
X162907Y262521D01*
X161641Y263787D01*
X159987Y264472D01*
X158197D01*
X156543Y263787D01*
X155277Y262521D01*
X154592Y260867D01*
Y259077D01*
X155277Y257423D01*
X156543Y256157D01*
X158197Y255472D01*
X159235D01*
X159759Y254948D01*
Y248056D01*
X159759Y248055D01*
X159993Y246879D01*
X158985Y246102D01*
X158467Y245887D01*
X157758Y245178D01*
X157041Y245321D01*
X155775Y246587D01*
X154121Y247272D01*
X152331D01*
X150677Y246587D01*
X149969Y245879D01*
X148699Y246405D01*
Y254988D01*
X148427Y256353D01*
X147653Y257511D01*
X147009Y257942D01*
Y259387D01*
X147231Y259609D01*
X147916Y261263D01*
Y263053D01*
X147231Y264707D01*
X145965Y265973D01*
X144311Y266658D01*
X142521D01*
X140867Y265973D01*
X139601Y264707D01*
X138916Y263053D01*
Y261263D01*
X139601Y259609D01*
X139823Y259387D01*
Y257656D01*
X139607Y257511D01*
X138833Y256353D01*
X138561Y254988D01*
Y238988D01*
X138833Y237622D01*
X139607Y236465D01*
X140764Y235691D01*
X142130Y235419D01*
X144675D01*
X144921Y235120D01*
X144921Y235119D01*
Y229303D01*
X143651Y228918D01*
X143394Y229302D01*
X141988Y230241D01*
X140330Y230571D01*
X134846D01*
X131267Y234149D01*
X131793Y235419D01*
X132430D01*
X133796Y235691D01*
X134953Y236465D01*
X135727Y237622D01*
X135999Y238988D01*
Y254988D01*
X135727Y256353D01*
X134953Y257511D01*
X134043Y258120D01*
X134084Y259326D01*
X135504Y259914D01*
X136770Y261180D01*
X137455Y262834D01*
Y264624D01*
X136770Y266278D01*
X135504Y267544D01*
X133850Y268229D01*
X132060D01*
X130406Y267544D01*
X129140Y266278D01*
X128455Y264624D01*
Y262921D01*
X128089Y262373D01*
X127855Y261196D01*
X127855Y261196D01*
Y258145D01*
X126907Y257511D01*
X126133Y256353D01*
X125861Y254988D01*
Y239001D01*
X125832Y238973D01*
X124688Y238379D01*
X123299Y239768D01*
Y254988D01*
X123027Y256353D01*
X122253Y257511D01*
X121096Y258285D01*
X119730Y258556D01*
X116730D01*
X115364Y258285D01*
X114207Y257511D01*
X113433Y256353D01*
X113161Y254988D01*
Y239001D01*
X113132Y238973D01*
X111988Y238379D01*
X110599Y239768D01*
Y254988D01*
X110327Y256353D01*
X109553Y257511D01*
X108396Y258285D01*
X107030Y258556D01*
X104030D01*
X102664Y258285D01*
X101507Y257511D01*
X100733Y256353D01*
X100461Y254988D01*
Y240165D01*
X99191Y239639D01*
X96635Y242196D01*
Y274065D01*
X105883Y283313D01*
X109308D01*
X109308Y283313D01*
X110485Y283547D01*
X111482Y284213D01*
X111482Y284214D01*
X120404Y293135D01*
X120404Y293135D01*
X121071Y294133D01*
X121305Y295310D01*
Y302831D01*
X122253Y303465D01*
X123027Y304622D01*
X123299Y305988D01*
Y321988D01*
X123027Y323353D01*
X122253Y324511D01*
X121096Y325285D01*
X119730Y325556D01*
D02*
G37*
G36*
X752030D02*
X749030D01*
X747664Y325285D01*
X746507Y324511D01*
X745733Y323353D01*
X745461Y321988D01*
Y305988D01*
X745733Y304622D01*
X746507Y303465D01*
X747455Y302831D01*
Y298464D01*
X747517Y298150D01*
X747014Y296935D01*
Y295145D01*
X747699Y293491D01*
X748965Y292225D01*
X750619Y291540D01*
X752409D01*
X754063Y292225D01*
X754854Y291283D01*
X753034Y289463D01*
X749609D01*
X749609Y289463D01*
X748432Y289229D01*
X747435Y288562D01*
X747434Y288562D01*
X736386Y277513D01*
X736386Y277513D01*
X735719Y276516D01*
X735485Y275339D01*
X735485Y275339D01*
Y240922D01*
X735485Y240922D01*
X735719Y239745D01*
X736386Y238747D01*
X754281Y220852D01*
Y205765D01*
X754281Y205765D01*
X754439Y204971D01*
X753408Y204133D01*
X753310Y204198D01*
X752530Y204353D01*
X744402D01*
X743622Y204198D01*
X742960Y203756D01*
X742518Y203094D01*
X742363Y202314D01*
Y192916D01*
X742363Y192916D01*
X742518Y192136D01*
X742960Y191474D01*
X742960Y191474D01*
X747533Y186901D01*
X747047Y185728D01*
X742041D01*
Y179768D01*
X740902Y179206D01*
X740683Y179374D01*
X740055Y179634D01*
Y167288D01*
Y154942D01*
X740683Y155202D01*
X742258Y156410D01*
X743466Y157985D01*
X744226Y159820D01*
X744485Y161788D01*
Y166148D01*
X746080D01*
X746560Y164878D01*
X745806Y163057D01*
Y160919D01*
X746624Y158943D01*
X748136Y157431D01*
X750112Y156613D01*
X752250D01*
X754226Y157431D01*
X755738Y158943D01*
X756556Y160919D01*
Y163057D01*
X755738Y165033D01*
X755352Y165418D01*
X755878Y166688D01*
X759081D01*
Y166688D01*
X769572D01*
X769740Y165846D01*
X770406Y164849D01*
X773469Y161786D01*
X773470Y161785D01*
X774467Y161119D01*
X775644Y160885D01*
X780724D01*
X780724Y160885D01*
X781901Y161119D01*
X782898Y161785D01*
X784755Y163642D01*
X784755Y163642D01*
X785422Y164640D01*
X785656Y165817D01*
X786485Y166688D01*
X789081D01*
Y166688D01*
X801081D01*
Y166688D01*
X804282D01*
X804808Y165418D01*
D01*
D01*
X804422Y165033D01*
X803604Y163057D01*
Y160919D01*
X804422Y158943D01*
X805935Y157431D01*
X807910Y156613D01*
X810048D01*
X812024Y157431D01*
X813536Y158943D01*
X814354Y160919D01*
Y163057D01*
X813600Y164878D01*
X814080Y166148D01*
X815675D01*
Y161788D01*
X815934Y159819D01*
X816694Y157985D01*
X817902Y156410D01*
X819260Y155369D01*
Y179207D01*
X818121Y179769D01*
Y185728D01*
X813115D01*
X812629Y186901D01*
X817202Y191474D01*
X817202Y191474D01*
X817644Y192136D01*
X817799Y192916D01*
X817799Y202314D01*
X817644Y203094D01*
X817202Y203756D01*
X816802Y204023D01*
Y206281D01*
X816462Y207988D01*
X815495Y209435D01*
X814048Y210402D01*
X813353Y210540D01*
X813280Y211671D01*
X813308Y211844D01*
X814268Y212485D01*
X819906Y218123D01*
X819906Y218123D01*
X820147Y218483D01*
X821417Y218098D01*
Y217738D01*
X821905Y215284D01*
X823295Y213203D01*
X825376Y211813D01*
X827830Y211325D01*
X830000D01*
Y231651D01*
X827830D01*
X825376Y231163D01*
X823295Y229773D01*
X822077Y227950D01*
X820807Y228187D01*
Y229514D01*
X820807Y229514D01*
X820573Y230691D01*
X819906Y231688D01*
X819536Y232059D01*
X820062Y233329D01*
X824484D01*
X826353Y233701D01*
X827937Y234759D01*
X828996Y236344D01*
X829184Y237288D01*
X821734D01*
Y240463D01*
X818559D01*
Y247512D01*
X817115Y247225D01*
X815531Y246166D01*
X815510Y246135D01*
X814246Y246011D01*
X810909Y249348D01*
Y256221D01*
X810909Y256221D01*
X810675Y257398D01*
X810008Y258396D01*
X808493Y259911D01*
X807935Y260284D01*
X807471Y261405D01*
X806205Y262671D01*
X804551Y263356D01*
X802761D01*
X801107Y262671D01*
X799841Y261405D01*
X799156Y259751D01*
Y257961D01*
X799841Y256307D01*
X801107Y255041D01*
X802761Y254356D01*
X804551D01*
X804759Y254217D01*
Y247450D01*
X804431Y247093D01*
X803616Y246549D01*
X803446Y246619D01*
X801655D01*
X800002Y245934D01*
X798736Y244668D01*
X798370Y243785D01*
X797918Y243695D01*
X796920Y243028D01*
X796920Y243028D01*
X794872Y240980D01*
X793699Y241466D01*
Y254988D01*
X793427Y256353D01*
X792653Y257511D01*
X792009Y257942D01*
Y259387D01*
X792231Y259609D01*
X792916Y261263D01*
Y263053D01*
X792231Y264707D01*
X790965Y265973D01*
X789311Y266658D01*
X787521D01*
X785867Y265973D01*
X784601Y264707D01*
X783916Y263053D01*
Y261263D01*
X784601Y259609D01*
X784823Y259387D01*
Y257656D01*
X784607Y257511D01*
X783833Y256353D01*
X783561Y254988D01*
Y238988D01*
X783833Y237622D01*
X784607Y236465D01*
X785764Y235691D01*
X787130Y235419D01*
X787641D01*
X788168Y234149D01*
X787755Y233532D01*
X787521Y232355D01*
X787521Y232355D01*
Y231297D01*
X786251Y230388D01*
X785330Y230571D01*
X779846D01*
X776267Y234149D01*
X776794Y235419D01*
X777430D01*
X778796Y235691D01*
X779953Y236465D01*
X780727Y237622D01*
X780999Y238988D01*
Y254988D01*
X780727Y256353D01*
X779953Y257511D01*
X779005Y258145D01*
Y260287D01*
X780051Y260720D01*
X781317Y261986D01*
X782002Y263640D01*
Y265430D01*
X781317Y267084D01*
X780051Y268350D01*
X778397Y269035D01*
X776607D01*
X774953Y268350D01*
X773687Y267084D01*
X773002Y265430D01*
Y263640D01*
X773113Y263373D01*
X773089Y263337D01*
X772855Y262160D01*
X772855Y262160D01*
Y258145D01*
X771907Y257511D01*
X771133Y256353D01*
X770861Y254988D01*
Y239001D01*
X770832Y238973D01*
X769688Y238379D01*
X768299Y239768D01*
Y254988D01*
X768027Y256353D01*
X767253Y257511D01*
X766096Y258285D01*
X764730Y258556D01*
X761730D01*
X760364Y258285D01*
X759207Y257511D01*
X758433Y256353D01*
X758161Y254988D01*
Y239001D01*
X758132Y238973D01*
X756988Y238379D01*
X755599Y239768D01*
Y254988D01*
X755327Y256353D01*
X754553Y257511D01*
X753396Y258285D01*
X752030Y258556D01*
X749030D01*
X747664Y258285D01*
X746507Y257511D01*
X745733Y256353D01*
X745461Y254988D01*
Y240165D01*
X744191Y239639D01*
X741635Y242196D01*
Y274065D01*
X750883Y283313D01*
X754308D01*
X754308Y283313D01*
X755485Y283547D01*
X756482Y284213D01*
X756482Y284214D01*
X765404Y293135D01*
X765404Y293135D01*
X766071Y294133D01*
X766305Y295310D01*
Y302831D01*
X767253Y303464D01*
X768027Y304622D01*
X768299Y305988D01*
Y321988D01*
X768027Y323353D01*
X767253Y324511D01*
X766096Y325285D01*
X764730Y325556D01*
X761730D01*
X760364Y325285D01*
X759207Y324511D01*
X758433Y323353D01*
X758161Y321988D01*
Y305988D01*
X758433Y304622D01*
X759207Y303464D01*
X760155Y302831D01*
Y296584D01*
X756271Y292700D01*
X755329Y293491D01*
X756014Y295145D01*
Y296935D01*
X755329Y298589D01*
X754063Y299855D01*
X753605Y300044D01*
Y302831D01*
X754553Y303465D01*
X755327Y304622D01*
X755599Y305988D01*
Y321988D01*
X755327Y323353D01*
X754553Y324511D01*
X753396Y325285D01*
X752030Y325556D01*
D02*
G37*
G36*
X830000Y286488D02*
X822755D01*
Y284325D01*
X830000D01*
Y286488D01*
D02*
G37*
G36*
X811080Y291313D02*
X799417D01*
Y290738D01*
X799905Y288284D01*
X801295Y286203D01*
X803376Y284813D01*
X805830Y284325D01*
X816405D01*
Y286488D01*
X811080D01*
Y291313D01*
D02*
G37*
G36*
X615000Y286488D02*
X607755D01*
Y284325D01*
X615000D01*
Y286488D01*
D02*
G37*
G36*
X596080Y291313D02*
X584417D01*
Y290738D01*
X584905Y288284D01*
X586295Y286203D01*
X588376Y284813D01*
X590830Y284325D01*
X601405D01*
Y286488D01*
X596080D01*
Y291313D01*
D02*
G37*
G36*
X400000Y286488D02*
X392755D01*
Y284325D01*
X400000D01*
Y286488D01*
D02*
G37*
G36*
X381080Y291313D02*
X369417D01*
Y290738D01*
X369905Y288284D01*
X371295Y286203D01*
X373376Y284813D01*
X375830Y284325D01*
X386405D01*
Y286488D01*
X381080D01*
Y291313D01*
D02*
G37*
G36*
X185000Y286488D02*
X177755D01*
Y284325D01*
X185000D01*
Y286488D01*
D02*
G37*
G36*
X166080Y291313D02*
X154417D01*
Y290738D01*
X154905Y288284D01*
X156295Y286203D01*
X158376Y284813D01*
X160830Y284325D01*
X171405D01*
Y286488D01*
X166080D01*
Y291313D01*
D02*
G37*
G36*
X936405Y273215D02*
X935287Y272993D01*
X935080Y272854D01*
D01*
X934169Y272246D01*
X933661Y271906D01*
X932575Y270281D01*
X932194Y268363D01*
Y266663D01*
X936405D01*
Y273215D01*
D02*
G37*
G36*
X1057255Y268169D02*
Y263762D01*
X1063926D01*
X1063666Y264389D01*
X1062458Y265965D01*
X1060882Y267173D01*
X1059048Y267933D01*
X1057255Y268169D01*
D02*
G37*
G36*
X936405Y260313D02*
X932194D01*
D01*
Y258613D01*
X932575Y256695D01*
X933661Y255069D01*
X935287Y253983D01*
X936405Y253761D01*
Y260313D01*
D02*
G37*
G36*
X1063926Y257412D02*
X1057255D01*
Y253005D01*
X1059048Y253241D01*
X1060882Y254001D01*
X1062458Y255209D01*
X1063666Y256784D01*
X1063926Y257412D01*
D02*
G37*
G36*
X813441Y272246D02*
X811651D01*
X809997Y271561D01*
X808731Y270295D01*
X808046Y268641D01*
Y266851D01*
X808731Y265197D01*
X809679Y264249D01*
X809741Y263938D01*
X810407Y262941D01*
X814651Y258697D01*
Y254213D01*
X814981Y252554D01*
X815920Y251148D01*
X817326Y250209D01*
X818984Y249879D01*
X824484D01*
X826142Y250209D01*
X827548Y251148D01*
X828487Y252554D01*
X828817Y254213D01*
Y258713D01*
X828487Y260371D01*
X827548Y261777D01*
X826142Y262716D01*
X824484Y263046D01*
X819000D01*
X816504Y265542D01*
X817046Y266851D01*
Y268641D01*
X816361Y270295D01*
X815095Y271561D01*
X813441Y272246D01*
D02*
G37*
G36*
X597882Y271825D02*
X596092D01*
X594438Y271140D01*
X593172Y269874D01*
X592487Y268220D01*
Y266430D01*
X593172Y264776D01*
X594438Y263510D01*
X595252Y263173D01*
X595407Y262941D01*
X599651Y258697D01*
Y254213D01*
X599981Y252554D01*
X600920Y251148D01*
X602326Y250209D01*
X603984Y249879D01*
X609484D01*
X611142Y250209D01*
X612548Y251148D01*
X613487Y252554D01*
X613817Y254213D01*
Y258713D01*
X613487Y260371D01*
X612548Y261777D01*
X611142Y262716D01*
X609484Y263046D01*
X604000D01*
X601232Y265814D01*
X601487Y266430D01*
Y268220D01*
X600802Y269874D01*
X599536Y271140D01*
X597882Y271825D01*
D02*
G37*
G36*
X382403Y272500D02*
X380613D01*
X378959Y271815D01*
X377693Y270549D01*
X377008Y268895D01*
Y267105D01*
X377693Y265451D01*
X378959Y264185D01*
X379812Y263832D01*
X380407Y262941D01*
X384651Y258697D01*
Y254213D01*
X384981Y252554D01*
X385920Y251148D01*
X387326Y250209D01*
X388984Y249879D01*
X394484D01*
X396142Y250209D01*
X397548Y251148D01*
X398487Y252554D01*
X398817Y254213D01*
Y258713D01*
X398487Y260371D01*
X397548Y261777D01*
X396142Y262716D01*
X394484Y263046D01*
X389000D01*
X385695Y266350D01*
X386008Y267105D01*
Y268895D01*
X385323Y270549D01*
X384057Y271815D01*
X382403Y272500D01*
D02*
G37*
G36*
X171329Y275040D02*
X169539D01*
X167885Y274355D01*
X166619Y273089D01*
X165934Y271435D01*
Y270567D01*
X165407Y270040D01*
X164741Y269042D01*
X164507Y267866D01*
X164507Y267865D01*
Y265115D01*
X164507Y265115D01*
X164741Y263938D01*
X165407Y262941D01*
X169440Y258908D01*
X169401Y258713D01*
Y254213D01*
X169731Y252554D01*
X170670Y251148D01*
X172076Y250209D01*
X173734Y249879D01*
X179234D01*
X180892Y250209D01*
X182298Y251148D01*
X183237Y252554D01*
X183567Y254213D01*
Y258713D01*
X183237Y260371D01*
X182298Y261777D01*
X180892Y262716D01*
X179234Y263046D01*
X174000D01*
X172072Y264973D01*
X172370Y266471D01*
X172983Y266725D01*
X174249Y267991D01*
X174934Y269645D01*
Y271435D01*
X174249Y273089D01*
X172983Y274355D01*
X171329Y275040D01*
D02*
G37*
G36*
X824909Y247512D02*
Y243638D01*
X829184D01*
X828996Y244582D01*
X827937Y246166D01*
X826353Y247225D01*
X824909Y247512D01*
D02*
G37*
G36*
X609909D02*
Y243638D01*
X614184D01*
X613996Y244582D01*
X612937Y246166D01*
X611353Y247225D01*
X609909Y247512D01*
D02*
G37*
G36*
X394909D02*
Y243638D01*
X399184D01*
X398996Y244582D01*
X397937Y246166D01*
X396353Y247225D01*
X394909Y247512D01*
D02*
G37*
G36*
X179659D02*
Y243638D01*
X183934D01*
X183746Y244582D01*
X182687Y246166D01*
X181103Y247225D01*
X179659Y247512D01*
D02*
G37*
G36*
X936405Y233215D02*
X935287Y232993D01*
X935080Y232854D01*
D01*
X934333Y232355D01*
X933661Y231906D01*
X932575Y230281D01*
X932194Y228363D01*
Y226663D01*
X936405D01*
Y233215D01*
D02*
G37*
G36*
X95841Y225514D02*
X94051D01*
X92397Y224829D01*
X91131Y223563D01*
X90446Y221909D01*
Y220863D01*
X85202Y215618D01*
X85202Y215618D01*
X85085Y215444D01*
X80626D01*
Y202944D01*
X94126D01*
Y215444D01*
X94126Y215444D01*
X94126D01*
X94796Y216409D01*
X94881Y216514D01*
X95841D01*
X97495Y217199D01*
X98761Y218465D01*
X99446Y220119D01*
Y221909D01*
X98761Y223563D01*
X97495Y224829D01*
X95841Y225514D01*
D02*
G37*
G36*
X936405Y220313D02*
X932194D01*
D01*
Y218613D01*
X932575Y216695D01*
X933661Y215069D01*
X935287Y213983D01*
X936405Y213761D01*
Y220313D01*
D02*
G37*
G36*
X305139Y218827D02*
X299889D01*
X298279Y218507D01*
X296915Y217595D01*
X296003Y216230D01*
X295683Y214621D01*
Y210371D01*
X296003Y208761D01*
X296915Y207397D01*
X298279Y206485D01*
X299889Y206165D01*
X305139D01*
X306749Y206485D01*
X308113Y207397D01*
X308661Y208217D01*
X309848Y208631D01*
X310280Y208562D01*
X311647Y207996D01*
X313437D01*
X315091Y208681D01*
X316357Y209947D01*
X317042Y211601D01*
Y213391D01*
X316357Y215045D01*
X315091Y216311D01*
X313437Y216996D01*
X311647D01*
X310280Y216430D01*
X309848Y216361D01*
X308661Y216775D01*
X308113Y217595D01*
X306749Y218507D01*
X305139Y218827D01*
D02*
G37*
G36*
X525659Y227542D02*
X523869D01*
X522215Y226857D01*
X520949Y225591D01*
X520264Y223937D01*
Y222147D01*
X520382Y221861D01*
X518872Y220351D01*
X514265D01*
X512655Y220030D01*
X511291Y219119D01*
X510379Y217754D01*
X510059Y216145D01*
Y211895D01*
X510379Y210285D01*
X511291Y208921D01*
X512655Y208009D01*
X514265Y207689D01*
X519515D01*
X521124Y208009D01*
X522489Y208921D01*
X523401Y210285D01*
X523721Y211895D01*
Y216145D01*
X523662Y216443D01*
X525833Y218614D01*
X527313Y219227D01*
X528579Y220493D01*
X529264Y222147D01*
Y223937D01*
X528579Y225591D01*
X527313Y226857D01*
X525659Y227542D01*
D02*
G37*
G36*
X734653Y218573D02*
X729403D01*
X727794Y218253D01*
X726429Y217341D01*
X725517Y215976D01*
X725197Y214367D01*
Y210117D01*
X725517Y208507D01*
X726429Y207143D01*
X727794Y206231D01*
X729403Y205911D01*
X734653D01*
X735208Y206021D01*
X735579Y205773D01*
X736756Y205539D01*
X736756Y205539D01*
X739577D01*
X739577Y205539D01*
X740754Y205773D01*
X741450Y206238D01*
X743147D01*
X744801Y206923D01*
X746067Y208189D01*
X746752Y209843D01*
Y211633D01*
X746067Y213287D01*
X744801Y214553D01*
X743147Y215238D01*
X741357D01*
X740085Y214711D01*
X738944Y215114D01*
X738670Y215316D01*
X738539Y215976D01*
X737627Y217341D01*
X736263Y218253D01*
X734653Y218573D01*
D02*
G37*
G36*
X309264Y202246D02*
X295764D01*
Y189746D01*
X301890D01*
X302126Y189393D01*
Y187603D01*
X302811Y185949D01*
X304077Y184683D01*
X305730Y183998D01*
X307521D01*
X309175Y184683D01*
X310441Y185949D01*
X311126Y187603D01*
Y189393D01*
X310441Y191047D01*
X309323Y192164D01*
Y192762D01*
X309323Y192762D01*
X309264Y193059D01*
Y202246D01*
D02*
G37*
G36*
X738778Y201992D02*
X725278D01*
Y189492D01*
X726949D01*
X727542Y188563D01*
X727599Y188222D01*
X727120Y187664D01*
X725545D01*
X723891Y186979D01*
X722625Y185713D01*
X721940Y184059D01*
Y182269D01*
X722625Y180615D01*
X723891Y179349D01*
X725545Y178664D01*
X727335D01*
X728989Y179349D01*
X730255Y180615D01*
X730940Y182269D01*
Y182438D01*
X730945Y182441D01*
X734702Y186199D01*
X734702Y186199D01*
X735369Y187196D01*
X735603Y188373D01*
X735994Y189492D01*
X738778D01*
Y201992D01*
D02*
G37*
G36*
X1057255Y181769D02*
Y177362D01*
X1063926D01*
X1063666Y177990D01*
X1062458Y179565D01*
X1060882Y180773D01*
X1059048Y181533D01*
X1057255Y181769D01*
D02*
G37*
G36*
X90001Y199025D02*
X84751D01*
X83141Y198705D01*
X81777Y197793D01*
X80865Y196428D01*
X80545Y194819D01*
Y192409D01*
X75721Y187585D01*
X74717Y186083D01*
X74365Y184312D01*
X74365Y184312D01*
Y177068D01*
X74494Y176420D01*
Y176173D01*
X74588Y175945D01*
X74717Y175296D01*
X75085Y174747D01*
X75179Y174519D01*
X75353Y174344D01*
X75721Y173795D01*
X76270Y173427D01*
X76445Y173253D01*
X76673Y173158D01*
X77223Y172791D01*
X77871Y172662D01*
X78099Y172568D01*
X78346D01*
X78994Y172439D01*
X79642Y172568D01*
X79889D01*
X80117Y172662D01*
X80765Y172791D01*
X81315Y173158D01*
X81543Y173253D01*
X81718Y173427D01*
X82267Y173795D01*
X82634Y174344D01*
X82809Y174519D01*
X82903Y174747D01*
X83271Y175296D01*
X83400Y175945D01*
X83494Y176173D01*
Y176420D01*
X83623Y177068D01*
Y182395D01*
X87591Y186363D01*
X90001D01*
X91610Y186683D01*
X92975Y187595D01*
X93887Y188959D01*
X94207Y190569D01*
Y194819D01*
X93887Y196428D01*
X92975Y197793D01*
X91610Y198705D01*
X90001Y199025D01*
D02*
G37*
G36*
X733705Y179634D02*
X733078Y179374D01*
X731503Y178165D01*
X730294Y176590D01*
X729534Y174756D01*
X729275Y172788D01*
Y170463D01*
X733705D01*
Y179634D01*
D02*
G37*
G36*
X518705Y179634D02*
X518078Y179374D01*
X516502Y178165D01*
X515294Y176590D01*
X514534Y174756D01*
X514275Y172788D01*
Y170463D01*
X518705D01*
Y179634D01*
D02*
G37*
G36*
X303705D02*
X303078Y179374D01*
X301502Y178165D01*
X300294Y176590D01*
X299534Y174756D01*
X299275Y172788D01*
Y170463D01*
X303705D01*
Y179634D01*
D02*
G37*
G36*
X88705D02*
X88078Y179374D01*
X86503Y178165D01*
X85294Y176590D01*
X84534Y174756D01*
X84275Y172788D01*
Y170463D01*
X88705D01*
Y179634D01*
D02*
G37*
G36*
X1063926Y171012D02*
X1057255D01*
Y166605D01*
X1059048Y166841D01*
X1060882Y167601D01*
X1062458Y168810D01*
X1063666Y170385D01*
X1063926Y171012D01*
D02*
G37*
G36*
X927649Y172825D02*
X926531Y172603D01*
X924905Y171516D01*
X923819Y169891D01*
X923438Y167973D01*
Y166273D01*
X927649D01*
Y172825D01*
D02*
G37*
G36*
X733705Y164113D02*
X729275D01*
Y161788D01*
X729534Y159820D01*
X730294Y157985D01*
X731503Y156410D01*
X733078Y155202D01*
X733462Y155042D01*
D01*
X733705Y154942D01*
Y164113D01*
D02*
G37*
G36*
X518705Y164113D02*
X514275D01*
Y161788D01*
X514534Y159819D01*
X515294Y157985D01*
X516502Y156410D01*
X518078Y155202D01*
X518462Y155042D01*
X518705Y154942D01*
Y164113D01*
D02*
G37*
G36*
X303705D02*
X299275D01*
Y161788D01*
X299534Y159819D01*
X300294Y157985D01*
X301502Y156410D01*
X303078Y155202D01*
X303462Y155042D01*
X303705Y154942D01*
Y164113D01*
D02*
G37*
G36*
X88705D02*
X84275D01*
Y161788D01*
X84534Y159819D01*
X85294Y157985D01*
X86503Y156410D01*
X87053Y155988D01*
X88078Y155202D01*
X88462Y155042D01*
X88705Y154942D01*
Y164113D01*
D02*
G37*
G36*
X680121Y178529D02*
X655039D01*
Y153447D01*
X680121D01*
Y178529D01*
D02*
G37*
G36*
X465121D02*
X440039D01*
Y153447D01*
X465121D01*
Y178529D01*
D02*
G37*
G36*
X250121D02*
X225039D01*
Y153447D01*
X250121D01*
Y178529D01*
D02*
G37*
G36*
X895121Y178529D02*
X870039D01*
Y153447D01*
X895121D01*
Y178529D01*
D02*
G37*
G36*
X867621D02*
X842539D01*
Y153447D01*
X867621D01*
Y178529D01*
D02*
G37*
G36*
X652621D02*
X627539D01*
Y153447D01*
X652621D01*
Y178529D01*
D02*
G37*
G36*
X437621D02*
X412539D01*
Y153447D01*
X437621D01*
Y178529D01*
D02*
G37*
G36*
X222621D02*
X197539D01*
Y153447D01*
X222621D01*
Y178529D01*
D02*
G37*
G36*
X927649Y159923D02*
X923438D01*
Y158223D01*
X923819Y156305D01*
X924905Y154679D01*
X926531Y153593D01*
X927649Y153371D01*
Y159923D01*
D02*
G37*
G36*
X927735Y145715D02*
Y144937D01*
X928513D01*
X927735Y145715D01*
D02*
G37*
G36*
X921385D02*
X920607Y144937D01*
X921385D01*
Y145715D01*
D02*
G37*
G36*
X910082Y162139D02*
X909434Y162010D01*
X909187D01*
X908959Y161915D01*
X908311Y161786D01*
X907761Y161419D01*
X907533Y161325D01*
X907358Y161150D01*
X906809Y160783D01*
X906441Y160233D01*
X906267Y160059D01*
X906173Y159831D01*
X905805Y159281D01*
X905676Y158633D01*
X905582Y158405D01*
Y158158D01*
X905453Y157510D01*
Y146673D01*
X905396Y146535D01*
Y146288D01*
X905267Y145640D01*
X905396Y144991D01*
Y144745D01*
X905490Y144517D01*
X905619Y143868D01*
X905987Y143319D01*
X906081Y143091D01*
X906255Y142916D01*
X906623Y142367D01*
X907172Y141999D01*
X907347Y141825D01*
X907575Y141730D01*
X908125Y141363D01*
X908773Y141234D01*
X909001Y141140D01*
X909248D01*
X909896Y141011D01*
X910544Y141140D01*
X910791D01*
X911019Y141234D01*
X911667Y141363D01*
X912217Y141730D01*
X912445Y141825D01*
X912619Y141999D01*
X913169Y142367D01*
X913355Y142553D01*
X913355Y142553D01*
X914359Y144054D01*
X914711Y145826D01*
Y157510D01*
X914582Y158158D01*
Y158405D01*
X914488Y158633D01*
X914359Y159281D01*
X913991Y159831D01*
X913897Y160059D01*
X913723Y160233D01*
X913355Y160783D01*
X912805Y161150D01*
X912631Y161325D01*
X912403Y161419D01*
X911853Y161786D01*
X911205Y161915D01*
X910977Y162010D01*
X910730D01*
X910082Y162139D01*
D02*
G37*
G36*
X49902Y148230D02*
X42037D01*
Y140365D01*
X49902D01*
Y148230D01*
D02*
G37*
G36*
X35687D02*
X27822D01*
Y140365D01*
X35687D01*
Y148230D01*
D02*
G37*
G36*
X928513Y138587D02*
X920607D01*
X921262Y137933D01*
X921416Y136874D01*
X921175Y136360D01*
X920353Y135539D01*
X928259D01*
X927605Y136193D01*
X927450Y137251D01*
X927691Y137766D01*
X928513Y138587D01*
D02*
G37*
G36*
X733705Y135334D02*
X733462Y135233D01*
D01*
X733078Y135074D01*
X731503Y133865D01*
X730294Y132290D01*
X729534Y130456D01*
X729298Y128663D01*
X733705D01*
Y135334D01*
D02*
G37*
G36*
X826455Y135334D02*
Y128992D01*
Y128663D01*
X830862D01*
X830626Y130456D01*
X829866Y132290D01*
X828658Y133865D01*
X827082Y135074D01*
X826455Y135334D01*
D02*
G37*
G36*
X820105Y135334D02*
X819477Y135074D01*
X817902Y133865D01*
X816694Y132290D01*
X815934Y130456D01*
X815698Y128663D01*
X820105D01*
Y135334D01*
D02*
G37*
G36*
X740055Y135334D02*
Y128663D01*
X744462D01*
X744226Y130456D01*
X743466Y132290D01*
X742258Y133865D01*
X740683Y135074D01*
D01*
X740055Y135334D01*
D02*
G37*
G36*
X525055Y135334D02*
Y128663D01*
X529462D01*
X529226Y130456D01*
X528466Y132290D01*
X527258Y133865D01*
X525683Y135074D01*
X525055Y135334D01*
D02*
G37*
G36*
X518705D02*
X518462Y135233D01*
X518462Y135233D01*
X518078Y135074D01*
X516502Y133865D01*
X515294Y132290D01*
X514534Y130456D01*
X514298Y128663D01*
X518705D01*
Y135334D01*
D02*
G37*
G36*
X310055D02*
Y128663D01*
X314462D01*
X314226Y130456D01*
X313466Y132290D01*
X312258Y133865D01*
X310683Y135074D01*
X310055Y135334D01*
D02*
G37*
G36*
X303705D02*
X303462Y135233D01*
X303078Y135074D01*
X301502Y133865D01*
X300294Y132290D01*
X299534Y130456D01*
X299298Y128663D01*
X303705D01*
Y135334D01*
D02*
G37*
G36*
X95055D02*
Y128663D01*
X99462D01*
X99226Y130456D01*
X98466Y132290D01*
X97258Y133865D01*
X95683Y135074D01*
X95055Y135334D01*
D02*
G37*
G36*
X88705D02*
X88078Y135074D01*
X86503Y133865D01*
X85294Y132290D01*
X84534Y130456D01*
X84298Y128663D01*
X88705D01*
Y135334D01*
D02*
G37*
G36*
X611455D02*
Y128663D01*
Y128663D01*
X615862D01*
X615626Y130456D01*
X614866Y132290D01*
X613657Y133865D01*
X612082Y135074D01*
X611455Y135334D01*
D02*
G37*
G36*
X396455Y135334D02*
Y128663D01*
Y128663D01*
X400862D01*
X400626Y130456D01*
X399866Y132290D01*
X398657Y133865D01*
X397082Y135074D01*
X396698Y135233D01*
X396455Y135334D01*
D02*
G37*
G36*
X181455Y135334D02*
Y128663D01*
Y128663D01*
X185862D01*
X185626Y130456D01*
X184866Y132290D01*
X183657Y133865D01*
X182083Y135074D01*
X181455Y135334D01*
D02*
G37*
G36*
X175105Y135334D02*
X174477Y135074D01*
X172902Y133865D01*
X171694Y132290D01*
X170934Y130456D01*
X170698Y128663D01*
X175105D01*
Y135334D01*
D02*
G37*
G36*
X390105Y135334D02*
X389477Y135074D01*
X387902Y133865D01*
X386694Y132290D01*
X385934Y130456D01*
X385698Y128663D01*
X390105D01*
Y135334D01*
D02*
G37*
G36*
X605105Y135334D02*
X604477Y135074D01*
X602902Y133865D01*
X601694Y132290D01*
X600934Y130456D01*
X600698Y128663D01*
X605105D01*
Y135334D01*
D02*
G37*
G36*
X974955Y142324D02*
X965205D01*
X963498Y141984D01*
X962051Y141017D01*
X961084Y139570D01*
X960744Y137863D01*
Y133113D01*
X961084Y131406D01*
X962051Y129959D01*
X963498Y128992D01*
X965205Y128652D01*
X974955D01*
X976662Y128992D01*
X978109Y129959D01*
X979076Y131406D01*
X979225Y132154D01*
X981528D01*
X982804Y132408D01*
X983886Y133130D01*
X983953Y133198D01*
X984891D01*
X986545Y133883D01*
X987811Y135149D01*
X988496Y136803D01*
Y138593D01*
X987811Y140247D01*
X986545Y141513D01*
X984891Y142198D01*
X983101D01*
X981447Y141513D01*
X980181Y140247D01*
X980152Y140176D01*
X978736Y140078D01*
X978109Y141017D01*
X976662Y141984D01*
X974955Y142324D01*
D02*
G37*
G36*
X49902Y134015D02*
X42037D01*
Y126150D01*
X49902D01*
Y134015D01*
D02*
G37*
G36*
X35687D02*
X27822D01*
Y126150D01*
X35687D01*
Y134015D01*
D02*
G37*
G36*
X928259Y129189D02*
X920353D01*
X921451Y128091D01*
X921688Y127993D01*
X921809Y127429D01*
X921800Y126572D01*
X920861Y125633D01*
X928767D01*
X927669Y126730D01*
X927432Y126829D01*
X927311Y127393D01*
X927320Y128250D01*
X928259Y129189D01*
D02*
G37*
G36*
X928767Y119283D02*
X927989D01*
Y118505D01*
X928767Y119283D01*
D02*
G37*
G36*
X921639D02*
X920861D01*
X921639Y118505D01*
Y119283D01*
D02*
G37*
G36*
X830862Y122313D02*
X826455D01*
Y115642D01*
X827082Y115902D01*
X828658Y117110D01*
X829866Y118685D01*
X830626Y120520D01*
X830862Y122313D01*
D02*
G37*
G36*
X744462Y122313D02*
X740055D01*
Y115642D01*
X740683Y115902D01*
X742258Y117110D01*
X743466Y118685D01*
X744226Y120520D01*
X744462Y122313D01*
D02*
G37*
G36*
X733705D02*
X729298D01*
X729534Y120520D01*
X730294Y118685D01*
X731503Y117110D01*
X733078Y115902D01*
X733705Y115642D01*
Y122313D01*
D02*
G37*
G36*
X175105Y122313D02*
X170698D01*
X170934Y120520D01*
X171694Y118685D01*
X172902Y117110D01*
X174477Y115902D01*
X175105Y115642D01*
Y122313D01*
D02*
G37*
G36*
X390105D02*
X385698D01*
X385934Y120520D01*
X386694Y118685D01*
X387902Y117110D01*
X389477Y115902D01*
X389825Y115758D01*
X390105Y115642D01*
Y122313D01*
D02*
G37*
G36*
X820105Y122313D02*
X815698D01*
X815934Y120520D01*
X816694Y118685D01*
X817902Y117110D01*
X819477Y115902D01*
X819825Y115758D01*
D01*
X820105Y115642D01*
Y122313D01*
D02*
G37*
G36*
X615862Y122313D02*
X611455D01*
Y115642D01*
X612082Y115902D01*
X613657Y117110D01*
X614866Y118685D01*
X615626Y120520D01*
X615862Y122313D01*
D02*
G37*
G36*
X529462Y122313D02*
X525055D01*
Y115642D01*
X525335Y115758D01*
X525683Y115902D01*
X527258Y117110D01*
X528466Y118685D01*
X529226Y120520D01*
X529462Y122313D01*
D02*
G37*
G36*
X518705D02*
X514298D01*
X514534Y120520D01*
X515294Y118685D01*
X516502Y117110D01*
X518078Y115902D01*
X518705Y115642D01*
Y122313D01*
D02*
G37*
G36*
X314462D02*
X310055D01*
Y115642D01*
X310683Y115902D01*
X312258Y117110D01*
X313466Y118685D01*
X314226Y120520D01*
X314462Y122313D01*
D02*
G37*
G36*
X303705D02*
X299298D01*
X299534Y120520D01*
X300294Y118685D01*
X301502Y117110D01*
X303078Y115902D01*
X303705Y115642D01*
Y122313D01*
D02*
G37*
G36*
X99462D02*
X95055D01*
Y115642D01*
X95683Y115902D01*
X97258Y117110D01*
X98466Y118685D01*
X99226Y120520D01*
X99462Y122313D01*
D02*
G37*
G36*
X88705D02*
X84298D01*
X84534Y120520D01*
X85294Y118685D01*
X86503Y117110D01*
X88078Y115902D01*
X88705Y115642D01*
Y122313D01*
D02*
G37*
G36*
X605105Y122313D02*
X600698D01*
D01*
X600934Y120520D01*
X601694Y118685D01*
X602902Y117110D01*
X604477Y115902D01*
X604825Y115758D01*
X605105Y115642D01*
Y122313D01*
D02*
G37*
G36*
X400862D02*
X396455D01*
Y115642D01*
X397082Y115902D01*
X398657Y117110D01*
X399866Y118685D01*
X400626Y120520D01*
X400862Y122313D01*
D02*
G37*
G36*
X185862D02*
X181455D01*
Y115642D01*
X182083Y115902D01*
X183657Y117110D01*
X184866Y118685D01*
X185626Y120520D01*
X185862Y122313D01*
D02*
G37*
G36*
X954955Y132324D02*
X945205D01*
X943498Y131984D01*
X942051Y131017D01*
X941084Y129570D01*
X940744Y127863D01*
Y123113D01*
X941084Y121406D01*
X942051Y119959D01*
X943498Y118992D01*
X945205Y118652D01*
X954334D01*
X956557Y116429D01*
X957723Y115650D01*
X959098Y115377D01*
X961025D01*
X961247Y115155D01*
X962901Y114470D01*
X964691D01*
X966345Y115155D01*
X967611Y116421D01*
X968296Y118075D01*
Y119865D01*
X967611Y121519D01*
X966345Y122785D01*
X964691Y123470D01*
X962901D01*
X961247Y122785D01*
X961025Y122563D01*
X960586D01*
X959416Y123734D01*
Y127863D01*
X959076Y129570D01*
X958109Y131017D01*
X956662Y131984D01*
X954955Y132324D01*
D02*
G37*
G36*
X886455Y91211D02*
Y78663D01*
X899003D01*
X898704Y80167D01*
X897494Y83086D01*
X895739Y85713D01*
X893505Y87947D01*
X890878Y89702D01*
X887959Y90912D01*
X886455Y91211D01*
D02*
G37*
G36*
X880105D02*
X878601Y90912D01*
X875682Y89702D01*
X873055Y87947D01*
X870821Y85713D01*
X869065Y83086D01*
X867856Y80167D01*
X867557Y78663D01*
X880105D01*
Y91211D01*
D02*
G37*
G36*
X671455Y91211D02*
Y78663D01*
X684003D01*
X683704Y80167D01*
X682494Y83086D01*
X680739Y85713D01*
X678505Y87947D01*
X675878Y89702D01*
X672959Y90912D01*
X671455Y91211D01*
D02*
G37*
G36*
X665105D02*
X663601Y90912D01*
X660682Y89702D01*
X658055Y87947D01*
X655821Y85713D01*
X654065Y83086D01*
X652856Y80167D01*
X652557Y78663D01*
X665105D01*
Y91211D01*
D02*
G37*
G36*
X456455D02*
Y78663D01*
X469003D01*
X468704Y80167D01*
X467494Y83086D01*
X465739Y85713D01*
X463505Y87947D01*
X460878Y89702D01*
X457959Y90912D01*
X456455Y91211D01*
D02*
G37*
G36*
X450105D02*
X448601Y90912D01*
X445682Y89702D01*
X443055Y87947D01*
X440821Y85713D01*
X439066Y83086D01*
X437856Y80167D01*
X437557Y78663D01*
X450105D01*
Y91211D01*
D02*
G37*
G36*
X241455D02*
Y78663D01*
X254003D01*
X253704Y80167D01*
X252494Y83086D01*
X250739Y85713D01*
X248505Y87947D01*
X245878Y89702D01*
X242959Y90912D01*
X241455Y91211D01*
D02*
G37*
G36*
X235105D02*
X233601Y90912D01*
X230682Y89702D01*
X228055Y87947D01*
X225821Y85713D01*
X224065Y83086D01*
X222856Y80167D01*
X222557Y78663D01*
X235105D01*
Y91211D01*
D02*
G37*
G36*
X899003Y72313D02*
X886455D01*
Y59765D01*
X887959Y60064D01*
X890878Y61273D01*
X893505Y63029D01*
X895739Y65263D01*
X897494Y67890D01*
X898704Y70809D01*
X899003Y72313D01*
D02*
G37*
G36*
X880105D02*
X867557D01*
X867856Y70809D01*
X869065Y67890D01*
X870821Y65263D01*
X873055Y63029D01*
X875682Y61273D01*
X878601Y60064D01*
X880105Y59765D01*
Y72313D01*
D02*
G37*
G36*
X684003Y72313D02*
X671455D01*
Y59765D01*
X672959Y60064D01*
X675878Y61273D01*
X678505Y63029D01*
X680739Y65263D01*
X682494Y67890D01*
X683704Y70809D01*
X684003Y72313D01*
D02*
G37*
G36*
X665105D02*
X652557D01*
X652856Y70809D01*
X654065Y67890D01*
X655821Y65263D01*
X658055Y63029D01*
X660682Y61273D01*
X663601Y60064D01*
X665105Y59765D01*
Y72313D01*
D02*
G37*
G36*
X469003D02*
X456455D01*
Y59765D01*
X457959Y60064D01*
X460878Y61273D01*
X463505Y63029D01*
X465739Y65263D01*
X467494Y67890D01*
X468704Y70809D01*
X469003Y72313D01*
D02*
G37*
G36*
X450105D02*
X437557D01*
X437856Y70809D01*
X439066Y67890D01*
X440821Y65263D01*
X443055Y63029D01*
X445682Y61273D01*
X448601Y60064D01*
X450105Y59765D01*
Y72313D01*
D02*
G37*
G36*
X254003D02*
X241455D01*
Y59765D01*
X242959Y60064D01*
X245878Y61273D01*
X248505Y63029D01*
X250739Y65263D01*
X252494Y67890D01*
X253704Y70809D01*
X254003Y72313D01*
D02*
G37*
G36*
X235105D02*
X222557D01*
X222856Y70809D01*
X224065Y67890D01*
X225821Y65263D01*
X228055Y63029D01*
X230682Y61273D01*
X233601Y60064D01*
X235105Y59765D01*
Y72313D01*
D02*
G37*
%LPD*%
G36*
X600760Y202314D02*
X600760Y192916D01*
X592121Y184277D01*
Y175938D01*
X587041D01*
Y196723D01*
X592632Y202314D01*
X600760Y202314D01*
D02*
G37*
G36*
X543121Y196723D02*
Y175938D01*
X538041D01*
Y184277D01*
X529402Y192916D01*
Y202314D01*
X537530D01*
X543121Y196723D01*
D02*
G37*
G36*
X385760Y202314D02*
X385760Y192916D01*
X377121Y184277D01*
Y175938D01*
X372041D01*
Y196723D01*
X377632Y202314D01*
X385760Y202314D01*
D02*
G37*
G36*
X328121Y196723D02*
Y175938D01*
X323041D01*
Y184277D01*
X314402Y192916D01*
Y202314D01*
X322530D01*
X328121Y196723D01*
D02*
G37*
G36*
X170760Y202314D02*
X170760Y192916D01*
X162121Y184277D01*
Y175938D01*
X157041D01*
Y196723D01*
X162632Y202314D01*
X170760Y202314D01*
D02*
G37*
G36*
X113121Y196723D02*
Y175938D01*
X108041D01*
Y184277D01*
X99402Y192916D01*
Y202314D01*
X107530D01*
X113121Y196723D01*
D02*
G37*
G36*
X815760Y202314D02*
X815760Y192916D01*
X807121Y184277D01*
Y175938D01*
X802041D01*
Y196723D01*
X807632Y202314D01*
X815760Y202314D01*
D02*
G37*
G36*
X758121Y196723D02*
Y175938D01*
X753041D01*
Y184277D01*
X744402Y192916D01*
Y202314D01*
X752530D01*
X758121Y196723D01*
D02*
G37*
%LPC*%
G36*
X1017780Y268192D02*
X1015455D01*
Y263762D01*
X1024626D01*
X1024366Y264389D01*
X1023158Y265965D01*
X1021582Y267173D01*
X1019748Y267933D01*
X1017780Y268192D01*
D02*
G37*
G36*
X1009105D02*
X1006780D01*
X1004811Y267933D01*
X1002977Y267173D01*
X1001402Y265965D01*
X1000194Y264389D01*
X999934Y263762D01*
X1009105D01*
Y268192D01*
D02*
G37*
G36*
X1024626Y171012D02*
X1015455D01*
Y166582D01*
X1017780D01*
X1019748Y166841D01*
X1021582Y167601D01*
X1023158Y168810D01*
X1024366Y170385D01*
X1024626Y171012D01*
D02*
G37*
G36*
X1009105D02*
X999934D01*
X1000194Y170385D01*
X1001402Y168810D01*
X1002977Y167601D01*
X1004811Y166841D01*
X1006780Y166582D01*
X1009105D01*
Y171012D01*
D02*
G37*
%LPD*%
D10*
X592834Y204996D02*
D03*
Y225996D02*
D03*
X377952Y205176D02*
D03*
Y226176D02*
D03*
X162834Y204996D02*
D03*
Y225996D02*
D03*
X807466Y203906D02*
D03*
Y224906D02*
D03*
X970080Y156488D02*
D03*
Y135488D02*
D03*
X950080Y146488D02*
D03*
Y125488D02*
D03*
X965080Y431488D02*
D03*
Y410488D02*
D03*
D11*
X606734Y256463D02*
D03*
Y240463D02*
D03*
X567580Y223988D02*
D03*
Y207988D02*
D03*
X552580Y223988D02*
D03*
Y207988D02*
D03*
X391734Y256463D02*
D03*
Y240463D02*
D03*
X352580Y223988D02*
D03*
Y207988D02*
D03*
X337580Y223988D02*
D03*
Y207988D02*
D03*
X176484Y256463D02*
D03*
Y240463D02*
D03*
X137580Y223988D02*
D03*
Y207988D02*
D03*
X122580Y223988D02*
D03*
Y207988D02*
D03*
X821734Y256463D02*
D03*
Y240463D02*
D03*
X997580Y415488D02*
D03*
Y431488D02*
D03*
X982580Y415488D02*
D03*
X982580Y431488D02*
D03*
X947580Y412988D02*
D03*
Y428988D02*
D03*
X1030224Y412400D02*
D03*
Y428400D02*
D03*
X767580Y207988D02*
D03*
Y223988D02*
D03*
X782580Y207988D02*
D03*
Y223988D02*
D03*
D12*
X540512Y340898D02*
D03*
X512512D02*
D03*
X327690Y340136D02*
D03*
X299690D02*
D03*
X75378Y343692D02*
D03*
X103378D02*
D03*
X755680Y342422D02*
D03*
X727680D02*
D03*
X966080Y540988D02*
D03*
X994080Y540988D02*
D03*
D13*
X604580Y294488D02*
D03*
X626580Y221488D02*
D03*
X389580Y294488D02*
D03*
X411580Y221488D02*
D03*
X174580Y294488D02*
D03*
X196580Y221488D02*
D03*
X952080Y308488D02*
D03*
X841580Y221488D02*
D03*
X819580Y294488D02*
D03*
D14*
X655580Y294488D02*
D03*
X677580Y221488D02*
D03*
X440580Y294488D02*
D03*
X462580Y221488D02*
D03*
X225580Y294488D02*
D03*
X247580Y221488D02*
D03*
X1003080Y308488D02*
D03*
X892580Y221488D02*
D03*
X870580Y294488D02*
D03*
D15*
X630018Y376700D02*
D03*
X415018D02*
D03*
X200018D02*
D03*
X845018D02*
D03*
D16*
X596518Y395750D02*
D03*
X381518D02*
D03*
X166518D02*
D03*
X811518D02*
D03*
D17*
X596518Y383050D02*
D03*
Y370350D02*
D03*
Y357650D02*
D03*
X663518Y395750D02*
D03*
Y383050D02*
D03*
Y370350D02*
D03*
Y357650D02*
D03*
X381518Y383050D02*
D03*
Y370350D02*
D03*
Y357650D02*
D03*
X448518Y395750D02*
D03*
Y383050D02*
D03*
Y370350D02*
D03*
Y357650D02*
D03*
X166518Y383050D02*
D03*
Y370350D02*
D03*
Y357650D02*
D03*
X233518Y395750D02*
D03*
Y383050D02*
D03*
Y370350D02*
D03*
Y357650D02*
D03*
X878518D02*
D03*
Y370350D02*
D03*
Y383050D02*
D03*
Y395750D02*
D03*
X811518Y357650D02*
D03*
Y370350D02*
D03*
Y383050D02*
D03*
D18*
X560080Y352488D02*
D03*
X576080D02*
D03*
X652080Y338488D02*
D03*
X668080D02*
D03*
X598080Y336488D02*
D03*
X582080D02*
D03*
X599080Y415488D02*
D03*
X583080D02*
D03*
X345080Y352488D02*
D03*
X361080D02*
D03*
X437080Y338488D02*
D03*
X453080D02*
D03*
X383080Y336488D02*
D03*
X367080D02*
D03*
X384080Y415488D02*
D03*
X368080D02*
D03*
X130080Y352488D02*
D03*
X146080D02*
D03*
X222080Y338488D02*
D03*
X238080D02*
D03*
X168080Y336488D02*
D03*
X152080D02*
D03*
X169080Y415488D02*
D03*
X153080D02*
D03*
X798080D02*
D03*
X814080D02*
D03*
X1036448Y382300D02*
D03*
X1052448D02*
D03*
X797080Y336488D02*
D03*
X813080Y336488D02*
D03*
X883080Y338488D02*
D03*
X867080D02*
D03*
X791080Y352488D02*
D03*
X775080D02*
D03*
D19*
X665800Y495988D02*
D03*
X574360D02*
D03*
X450800D02*
D03*
X359360D02*
D03*
X235800D02*
D03*
X144360D02*
D03*
X789360Y495988D02*
D03*
X880800Y495988D02*
D03*
D20*
X582581Y175938D02*
D03*
X577581D02*
D03*
X547581D02*
D03*
X552581D02*
D03*
X562581D02*
D03*
X567581D02*
D03*
X557581D02*
D03*
X572581D02*
D03*
X367581D02*
D03*
X362581D02*
D03*
X332581D02*
D03*
X337581D02*
D03*
X347581D02*
D03*
X352581D02*
D03*
X342581D02*
D03*
X357581D02*
D03*
X152581D02*
D03*
X147581D02*
D03*
X117581D02*
D03*
X122581D02*
D03*
X132581D02*
D03*
X137581D02*
D03*
X127581D02*
D03*
X142581D02*
D03*
X787581Y175938D02*
D03*
X772581Y175938D02*
D03*
X782581Y175938D02*
D03*
X777581D02*
D03*
X767581Y175938D02*
D03*
X762581D02*
D03*
X792581Y175938D02*
D03*
X797581D02*
D03*
D21*
X532581D02*
D03*
X597581D02*
D03*
X589581D02*
D03*
X540581D02*
D03*
X317581D02*
D03*
X382581D02*
D03*
X374581D02*
D03*
X325581D02*
D03*
X102581D02*
D03*
X167581D02*
D03*
X159581D02*
D03*
X110581D02*
D03*
X755581Y175938D02*
D03*
X804581D02*
D03*
X812581D02*
D03*
X747581D02*
D03*
D22*
X573630Y313988D02*
D03*
X358630D02*
D03*
X143630D02*
D03*
X788630D02*
D03*
D23*
X560930D02*
D03*
X548230D02*
D03*
X535530D02*
D03*
X573630Y246988D02*
D03*
X560930D02*
D03*
X548230D02*
D03*
X535530D02*
D03*
X345930Y313988D02*
D03*
X333230D02*
D03*
X320530D02*
D03*
X358630Y246988D02*
D03*
X345930D02*
D03*
X333230D02*
D03*
X320530D02*
D03*
X130930Y313988D02*
D03*
X118230D02*
D03*
X105530D02*
D03*
X143630Y246988D02*
D03*
X130930D02*
D03*
X118230D02*
D03*
X105530D02*
D03*
X750530D02*
D03*
X763230D02*
D03*
X775930D02*
D03*
X788630D02*
D03*
X750530Y313988D02*
D03*
X763230Y313988D02*
D03*
X775930Y313988D02*
D03*
D24*
X1042330Y458438D02*
D03*
X1035830Y458438D02*
D03*
X1029330Y458438D02*
D03*
X1022830D02*
D03*
X1016330D02*
D03*
X1009830D02*
D03*
X1003330D02*
D03*
X996830D02*
D03*
X990330D02*
D03*
X983830D02*
D03*
X977330D02*
D03*
X970830D02*
D03*
X964330D02*
D03*
X957830D02*
D03*
Y513538D02*
D03*
X964330D02*
D03*
X970830D02*
D03*
X977330D02*
D03*
X983830D02*
D03*
X990330D02*
D03*
X996830D02*
D03*
X1003330D02*
D03*
X1009830D02*
D03*
X1016330D02*
D03*
X1022830D02*
D03*
X1029330D02*
D03*
X1035830Y513538D02*
D03*
D25*
X1042330Y513538D02*
D03*
D26*
X1044702Y566196D02*
D03*
Y543336D02*
D03*
X1016762Y566196D02*
D03*
Y543336D02*
D03*
D27*
X732028Y212242D02*
D03*
X87376Y192694D02*
D03*
X302514Y212496D02*
D03*
X972580Y177738D02*
D03*
X516890Y214020D02*
D03*
D28*
X732028Y195742D02*
D03*
X87376Y209194D02*
D03*
X302514Y195996D02*
D03*
X972580Y194238D02*
D03*
X516890Y197520D02*
D03*
D29*
X127554Y370836D02*
D03*
X772554D02*
D03*
X557554D02*
D03*
X342554D02*
D03*
D30*
X127374Y403116D02*
D03*
X772374D02*
D03*
X557374D02*
D03*
X342374D02*
D03*
D31*
X1050080Y429988D02*
D03*
X1050080Y401988D02*
D03*
D32*
X1003630Y224888D02*
D03*
Y209888D02*
D03*
Y219888D02*
D03*
Y214888D02*
D03*
Y204888D02*
D03*
Y199888D02*
D03*
Y229888D02*
D03*
Y234888D02*
D03*
D33*
Y192888D02*
D03*
Y241888D02*
D03*
Y249888D02*
D03*
Y184888D02*
D03*
D34*
X72580Y573488D02*
D03*
X20066Y300258D02*
D03*
X937580Y193568D02*
D03*
D35*
X960580Y263488D02*
D03*
X939580D02*
D03*
X951824Y163098D02*
D03*
X930824D02*
D03*
X939206Y366044D02*
D03*
X960206D02*
D03*
X939580Y223488D02*
D03*
X960580D02*
D03*
D36*
X150676Y197774D02*
Y207712D01*
X155726Y212763D01*
X147323Y176196D02*
X147581Y175938D01*
X147323Y176196D02*
Y190453D01*
X152581Y175938D02*
Y195869D01*
X147065Y190711D02*
X147323Y190453D01*
X150676Y197774D02*
X152581Y195869D01*
X1017231Y591842D02*
X1018032D01*
X1013390Y588001D02*
X1017231Y591842D01*
X1010943Y588001D02*
X1013390D01*
X1003056Y595888D02*
X1010943Y588001D01*
X1024009Y490159D02*
X1024818Y490968D01*
X1016330Y499456D02*
X1024818Y490968D01*
X1024009Y484404D02*
Y490159D01*
X1016330Y499456D02*
Y513538D01*
X157592Y235295D02*
X158006Y235709D01*
X154637Y235295D02*
X157592D01*
X152568Y233226D02*
X154637Y235295D01*
X135494Y595888D02*
X1003056D01*
X50328Y510722D02*
X135494Y595888D01*
X152568Y220063D02*
Y233226D01*
X139763Y210710D02*
X143215D01*
X58096Y303506D02*
Y308450D01*
Y303506D02*
X62683Y298919D01*
X50328Y316218D02*
Y510722D01*
Y316218D02*
X58096Y308450D01*
X65956Y294706D02*
Y296422D01*
Y294706D02*
X66524Y294138D01*
X62683Y298919D02*
X63459D01*
X65956Y296422D01*
X143215Y210710D02*
X152568Y220063D01*
X133488Y188247D02*
X138287D01*
X132366Y203314D02*
X139763Y210710D01*
X142097Y176422D02*
Y184437D01*
Y176422D02*
X142581Y175938D01*
X138287Y188247D02*
X142097Y184437D01*
X133200Y188535D02*
Y200796D01*
Y184572D02*
Y188535D01*
X132366Y201630D02*
Y203314D01*
Y201630D02*
X133200Y200796D01*
Y188535D02*
X133488Y188247D01*
X132811Y183264D02*
Y184183D01*
X133200Y184572D01*
X1022278Y512986D02*
X1022830Y513538D01*
X1022278Y499974D02*
Y512986D01*
X1001162Y591316D02*
X1009049Y583429D01*
X1015816D01*
X1031009Y484404D02*
Y491243D01*
X1022278Y499974D02*
X1031009Y491243D01*
X152658Y239781D02*
Y242204D01*
X153226Y242772D01*
X147996Y235120D02*
X152658Y239781D01*
X147996Y221957D02*
Y235120D01*
X142511Y216472D02*
X147996Y221957D01*
X137388Y591316D02*
X1001162D01*
X54900Y508828D02*
X137388Y591316D01*
X131564Y216472D02*
X142511D01*
X123120Y208027D02*
X131564Y216472D01*
X62668Y305400D02*
Y310344D01*
Y305400D02*
X63971Y304097D01*
X54900Y318112D02*
Y508828D01*
Y318112D02*
X62668Y310344D01*
X69189Y299655D02*
X70906D01*
X71473Y299087D01*
X63971Y304097D02*
X64747D01*
X69189Y299655D01*
X128628Y186466D02*
Y198602D01*
X127581Y185419D02*
X128628Y186466D01*
X137581Y165817D02*
Y175938D01*
X135724Y163960D02*
X137581Y165817D01*
X127581Y167023D02*
X130644Y163960D01*
X135724D01*
X123120Y207988D02*
Y208027D01*
Y207988D02*
X127794Y203314D01*
X122580Y207988D02*
X123120D01*
X127794Y199436D02*
X127794Y203314D01*
X127794Y199436D02*
X128628Y198602D01*
X127581Y167023D02*
Y185419D01*
X170256Y270540D02*
X170434D01*
X167582Y265115D02*
X176234Y256463D01*
X167582Y265115D02*
Y267866D01*
X170256Y270540D01*
X163030Y226567D02*
Y232932D01*
X162834Y248055D02*
Y256221D01*
X161017Y241269D02*
Y242072D01*
X162834Y248055D02*
X168296Y242593D01*
X163522Y233424D02*
Y238764D01*
X163030Y232932D02*
X163522Y233424D01*
X161017Y241269D02*
X163522Y238764D01*
X168296Y236203D02*
Y242593D01*
X362581Y175938D02*
Y189350D01*
X361696Y190235D02*
X362581Y189350D01*
X361696Y190235D02*
Y191038D01*
X342581Y167023D02*
Y185419D01*
X357511Y216472D02*
X361951Y220912D01*
X364646Y235595D02*
X371618Y242567D01*
X346604Y216472D02*
X357511D01*
X359405Y211900D02*
X366523Y219018D01*
X369218Y232709D02*
X371892Y235384D01*
X353748Y207988D02*
X357660Y211900D01*
X970919Y572158D02*
X974788Y576026D01*
X961460Y574832D02*
X964134Y572158D01*
X957326Y574832D02*
X961460D01*
X974788Y580986D02*
X975994Y582192D01*
X308560Y543209D02*
Y555224D01*
X336048Y582712D01*
X964134Y572158D02*
X970919D01*
X975994Y582192D02*
Y582995D01*
X974788Y576026D02*
Y580986D01*
X949446Y582712D02*
X957326Y574832D01*
X1008746Y512454D02*
X1009830Y513538D01*
X1008746Y501468D02*
Y512454D01*
X1007987Y499025D02*
X1010857Y496155D01*
X1007987Y499025D02*
Y500709D01*
X1008746Y501468D01*
X336048Y582712D02*
X949446D01*
X352581Y165817D02*
Y175938D01*
X350724Y163960D02*
X352581Y165817D01*
X342581Y167023D02*
X345644Y163960D01*
X350724D01*
X338120Y207988D02*
X342794Y203314D01*
X342794Y199436D02*
X342794Y203314D01*
X342794Y199436D02*
X343628Y198602D01*
Y186466D02*
Y198602D01*
X342581Y185419D02*
X343628Y186466D01*
X1007624Y490462D02*
Y492922D01*
Y490462D02*
X1008112Y489974D01*
X303988Y543484D02*
Y557117D01*
X966028Y576730D02*
X969026D01*
X302687Y541380D02*
Y542183D01*
X959220Y579404D02*
X963354D01*
X303988Y557117D02*
X334154Y587284D01*
X970216Y577920D02*
Y581459D01*
X969010Y582665D02*
Y583468D01*
X302687Y542183D02*
X303988Y543484D01*
X963354Y579404D02*
X966028Y576730D01*
X969026D02*
X970216Y577920D01*
X969010Y582665D02*
X970216Y581459D01*
X1003330Y513538D02*
X1003415Y513453D01*
Y497132D02*
Y513453D01*
X951340Y587284D02*
X959220Y579404D01*
X1003415Y497132D02*
X1007624Y492922D01*
X334154Y587284D02*
X951340D01*
X348488Y188247D02*
X353287D01*
X357097Y184437D01*
X347366Y203314D02*
X352040Y207988D01*
X357097Y176422D02*
Y184437D01*
Y176422D02*
X357581Y175938D01*
X348200Y188535D02*
Y200796D01*
Y184572D02*
Y188535D01*
X347366Y201630D02*
Y203314D01*
Y201630D02*
X348200Y200796D01*
Y188535D02*
X348488Y188247D01*
X347811Y183264D02*
Y184183D01*
X348200Y184572D01*
X361951Y231515D02*
X364646Y234210D01*
Y235595D01*
X337580Y207988D02*
X338120D01*
X357660Y211900D02*
X359405D01*
X371618Y242567D02*
X372028D01*
X352580Y207988D02*
X353748D01*
X361951Y220912D02*
Y231515D01*
X338120Y207988D02*
X346604Y216472D01*
X371892Y235384D02*
X372235D01*
X369218Y232316D02*
Y232709D01*
X366523Y229621D02*
X369218Y232316D01*
X366523Y219018D02*
Y229621D01*
X345930Y261196D02*
X346495Y261761D01*
X347847Y263387D02*
Y264190D01*
X346495Y261761D02*
Y262034D01*
X347847Y263387D01*
X378578Y226018D02*
Y238668D01*
X378202Y239044D02*
X378578Y238668D01*
X377834Y247312D02*
X383296Y241850D01*
X377834Y247312D02*
Y256221D01*
X383296Y241393D02*
Y241850D01*
X374437Y259618D02*
X377834Y256221D01*
X373888Y259618D02*
X374437D01*
X382582Y265115D02*
Y266123D01*
X381508Y267197D02*
X382582Y266123D01*
X381508Y267197D02*
Y268000D01*
X382582Y265115D02*
X391234Y256463D01*
X582568Y198988D02*
Y209604D01*
Y198988D02*
X583097Y198459D01*
X582568Y209604D02*
X585726Y212763D01*
X583097Y187842D02*
Y198459D01*
X582581Y187326D02*
X583097Y187842D01*
X582581Y175938D02*
Y187326D01*
X561499Y261765D02*
Y261767D01*
X562983Y263251D01*
X560930Y261196D02*
X561499Y261765D01*
X562983Y263251D02*
Y264055D01*
X572985Y216472D02*
X577090Y220576D01*
X557581Y167023D02*
Y185419D01*
X561604Y216472D02*
X572985D01*
X553120Y207988D02*
X561604Y216472D01*
X574879Y211900D02*
X581662Y218682D01*
X562366Y203314D02*
X567310Y208258D01*
X568748Y207988D02*
X572660Y211900D01*
X989477Y560646D02*
X990280D01*
X995866Y512574D02*
X996830Y513538D01*
X981242Y562314D02*
X981704Y561852D01*
X988272D01*
X938746Y574108D02*
X950540Y562314D01*
X981242D01*
X988272Y561852D02*
X989477Y560646D01*
X995866Y491173D02*
Y512574D01*
X994341Y489649D02*
X995866Y491173D01*
X586524Y242546D02*
X586775D01*
X579646Y235668D02*
X586524Y242546D01*
X579646Y234148D02*
Y235668D01*
X577090Y231592D02*
X579646Y234148D01*
X577090Y220576D02*
Y231592D01*
X567581Y165817D02*
Y175938D01*
X542328Y574108D02*
X938746D01*
X525544Y557324D02*
X542328Y574108D01*
X525828Y542305D02*
Y549218D01*
X525544Y549502D02*
Y557324D01*
Y549502D02*
X525828Y549218D01*
X558628Y186466D02*
Y198602D01*
X557581Y185419D02*
X558628Y186466D01*
X565724Y163960D02*
X567581Y165817D01*
X557581Y167023D02*
X560644Y163960D01*
X565724D01*
X553120Y207988D02*
X557794Y203314D01*
X557794Y199436D02*
X557794Y203314D01*
X557794Y199436D02*
X558628Y198602D01*
X990330Y513538D02*
X991294Y512574D01*
Y493067D02*
Y512574D01*
X988257Y490030D02*
X991294Y493067D01*
X989960Y567630D02*
X990764D01*
X988755Y566424D02*
X989960Y567630D01*
X940640Y578680D02*
X952434Y566886D01*
X983136D02*
X983598Y566424D01*
X988755D01*
X952434Y566886D02*
X983136D01*
X988257Y488710D02*
Y490030D01*
X986790Y487243D02*
X988257Y488710D01*
X986790Y486440D02*
Y487243D01*
X586892Y235204D02*
X586983D01*
X584218Y232530D02*
X586892Y235204D01*
X584218Y232255D02*
Y232530D01*
X581662Y229699D02*
X584218Y232255D01*
X581662Y218682D02*
Y229699D01*
X540434Y578680D02*
X940640D01*
X520972Y559218D02*
X540434Y578680D01*
X520972Y547609D02*
X521256Y547325D01*
Y542305D02*
Y547325D01*
X520972Y547609D02*
Y559218D01*
X520042Y541091D02*
X521256Y542305D01*
X520042Y540288D02*
Y541091D01*
X563488Y188247D02*
X568287D01*
X572097Y176422D02*
Y184437D01*
Y176422D02*
X572581Y175938D01*
X568287Y188247D02*
X572097Y184437D01*
X563200Y188535D02*
Y200796D01*
Y184572D02*
Y188535D01*
X562366Y201630D02*
Y203314D01*
Y201630D02*
X563200Y200796D01*
Y188535D02*
X563488Y188247D01*
X562811Y183264D02*
Y184183D01*
X563200Y184572D01*
X572660Y211900D02*
X574879D01*
X567580Y207988D02*
X568748D01*
X552580Y207988D02*
X553120D01*
X593578Y226018D02*
Y237498D01*
X592836Y238241D02*
Y239044D01*
Y238241D02*
X593578Y237498D01*
X588620Y260091D02*
X588965D01*
X592834Y256221D01*
X597555Y265799D02*
X597582Y265772D01*
X596987Y267325D02*
X597555Y266757D01*
Y265799D02*
Y266757D01*
X597582Y265115D02*
X606234Y256463D01*
X597582Y265115D02*
Y265772D01*
X741391Y539776D02*
Y540579D01*
X734392Y540701D02*
X735605Y541915D01*
X740177Y549961D02*
X755720Y565504D01*
X735605Y551855D02*
X753826Y570076D01*
X734392Y539898D02*
Y540701D01*
X939129Y551373D02*
X945134Y545368D01*
X939129Y551373D02*
Y558231D01*
X735605Y541915D02*
Y551855D01*
X740177Y541793D02*
X741391Y540579D01*
X740177Y541793D02*
Y549961D01*
X728695Y184615D02*
X728770D01*
X727243Y183164D02*
X728695Y184615D01*
X728770D02*
X732528Y188373D01*
X726440Y183164D02*
X727243D01*
X741701Y210738D02*
X742252D01*
X736756Y208614D02*
X739577D01*
X741701Y210738D01*
X775930Y262160D02*
X777502Y263732D01*
X775930Y246988D02*
Y262160D01*
X777502Y263732D02*
Y264535D01*
X803656Y258856D02*
X804459D01*
X805578Y257737D02*
X806319D01*
X804459Y258856D02*
X805578Y257737D01*
X806319D02*
X807834Y256221D01*
Y247312D02*
Y256221D01*
X812546Y267746D02*
X812582Y267710D01*
Y265115D02*
Y267710D01*
Y265115D02*
X821234Y256463D01*
X790596Y219296D02*
Y232355D01*
X808578Y226018D02*
Y233321D01*
X805942Y235958D02*
X808578Y233321D01*
X795446Y217287D02*
Y229405D01*
X805942Y235958D02*
Y235996D01*
X795446Y229405D02*
X799426Y233384D01*
X790596Y232355D02*
X799095Y240854D01*
X800387D01*
X792581Y175938D02*
Y189626D01*
X791210Y190997D02*
X792581Y189626D01*
X791210Y190997D02*
Y191800D01*
X969279Y484856D02*
X970235Y483900D01*
X965514Y484856D02*
X969279D01*
X969454Y490779D02*
X969821D01*
X974531Y488472D02*
X979932Y493873D01*
X969821Y490779D02*
X972128Y488472D01*
X984504Y491979D02*
Y499352D01*
X970235Y483900D02*
X976425D01*
X984504Y491979D01*
X964946Y485424D02*
X965514Y484856D01*
X972128Y488472D02*
X974531D01*
X978294Y499096D02*
Y512574D01*
X982866Y500990D02*
Y512574D01*
X983830Y513538D01*
X977330D02*
X978294Y512574D01*
X943701Y554984D02*
X947799Y550886D01*
X943701Y554984D02*
Y560125D01*
X933750Y570076D02*
X943701Y560125D01*
X949516Y550886D02*
X950084Y550318D01*
X753826Y570076D02*
X933750D01*
X931856Y565504D02*
X939129Y558231D01*
X947799Y550886D02*
X949516D01*
X592834Y247312D02*
X598296Y241850D01*
X598718Y236031D02*
X603758Y230991D01*
X598718Y236031D02*
Y240971D01*
X598296Y241393D02*
X598718Y240971D01*
X598296Y241393D02*
Y241850D01*
X603758Y222047D02*
Y230991D01*
X388758Y222047D02*
Y229217D01*
X388218Y229757D02*
X388758Y229217D01*
X388218Y229757D02*
Y230784D01*
X383718Y235284D02*
X388218Y230784D01*
X383296Y241393D02*
X383718Y240971D01*
Y235284D02*
Y240971D01*
X173758Y222047D02*
Y230741D01*
X168296Y236203D02*
X173758Y230741D01*
X159092Y259963D02*
Y259972D01*
Y259963D02*
X162834Y256221D01*
X176234Y256463D02*
X176734D01*
X130930Y246988D02*
Y261196D01*
X132955Y263221D01*
Y263729D01*
X391234Y256463D02*
X391734D01*
X345930Y246988D02*
Y261196D01*
X606234Y256463D02*
X606734D01*
X560930Y246988D02*
Y261196D01*
X817732Y220298D02*
Y229514D01*
X795676Y210236D02*
X800100Y214660D01*
X812094D01*
X817732Y220298D01*
X813718Y233528D02*
Y242190D01*
X808596Y247312D02*
X813718Y242190D01*
Y233528D02*
X817732Y229514D01*
X807834Y247312D02*
X808596D01*
X382387Y215676D02*
X388758Y222047D01*
X371348Y215676D02*
X382387D01*
X365676Y210004D02*
X371348Y215676D01*
X105530Y298464D02*
Y313988D01*
X169709Y218230D02*
X169942D01*
X155726Y212763D02*
X164241D01*
X169709Y218230D01*
X169942D02*
X173758Y222047D01*
X367847Y188530D02*
Y195603D01*
X365676Y197774D02*
Y210004D01*
Y197774D02*
X367847Y195603D01*
X367581Y188264D02*
X367847Y188530D01*
X367581Y175938D02*
Y188264D01*
X320530Y298464D02*
Y313988D01*
X599942Y218230D02*
X603758Y222047D01*
X594241Y212763D02*
X599709Y218230D01*
X585726Y212763D02*
X594241D01*
X599709Y218230D02*
X599942D01*
X535530Y298464D02*
Y313988D01*
X592834Y247312D02*
Y256221D01*
X548230Y240488D02*
X555670Y233048D01*
X548230Y240488D02*
Y246988D01*
X567080Y223988D02*
X567580D01*
X555670Y233048D02*
X558020D01*
X567080Y223988D01*
X535530Y240488D02*
X548189Y227829D01*
X535530Y240488D02*
Y246988D01*
X552080Y223988D02*
X552580D01*
X548189Y227829D02*
X548239D01*
X552080Y223988D01*
X577581Y175938D02*
Y190711D01*
X547581Y175938D02*
Y189853D01*
X548452Y190724D01*
Y191392D01*
X523560Y240922D02*
X542356Y222126D01*
Y205765D02*
X548252Y199868D01*
X542356Y205765D02*
Y222126D01*
X523560Y240922D02*
Y275339D01*
X534609Y286388D01*
X539308D01*
X548230Y295310D01*
X552581Y187064D02*
X552581Y175938D01*
X552581Y187064D02*
X554596Y189079D01*
X554596Y196932D01*
X548230Y295310D02*
Y313988D01*
X551660Y199868D02*
X554596Y196932D01*
X548252Y199868D02*
X551660Y199868D01*
X518158Y191412D02*
Y196252D01*
X521073Y188498D02*
X525526D01*
X518158Y191412D02*
X521073Y188498D01*
X516890Y214020D02*
X524292Y221422D01*
X516890Y197520D02*
X518158Y196252D01*
X333230Y240488D02*
X340670Y233048D01*
X333230Y240488D02*
Y246988D01*
X352080Y223988D02*
X352580D01*
X340670Y233048D02*
X343020D01*
X352080Y223988D01*
X320530Y240488D02*
X333189Y227829D01*
X320530Y240488D02*
Y246988D01*
X337080Y223988D02*
X337580D01*
X333189Y227829D02*
X333239D01*
X337080Y223988D01*
X332581Y175938D02*
Y189853D01*
X333452Y190724D01*
Y191392D01*
X308560Y240922D02*
X327356Y222126D01*
Y205765D02*
X333252Y199868D01*
X327356Y205765D02*
Y222126D01*
X308560Y240922D02*
Y275339D01*
X319609Y286388D01*
X324308D01*
X333230Y295310D01*
X337581Y187064D02*
X337581Y175938D01*
X337581Y187064D02*
X339596Y189079D01*
X339596Y196932D01*
X333230Y295310D02*
Y313988D01*
X336660Y199868D02*
X339596Y196932D01*
X333252Y199868D02*
X336660Y199868D01*
X302514Y212496D02*
X312542D01*
X303014Y195996D02*
X306248Y192762D01*
X302514Y195996D02*
X303014D01*
X306248Y188876D02*
X306626Y188498D01*
X306248Y188876D02*
Y192762D01*
X118230Y240488D02*
X125670Y233048D01*
X118230Y240488D02*
Y246988D01*
X137080Y223988D02*
X137580D01*
X125670Y233048D02*
X128020D01*
X137080Y223988D01*
X105530Y240488D02*
X118189Y227829D01*
X105530Y240488D02*
Y246988D01*
X122080Y223988D02*
X122580D01*
X118189Y227829D02*
X118239D01*
X122080Y223988D01*
X117581Y175938D02*
Y189853D01*
X118452Y190724D01*
Y191392D01*
X93560Y240922D02*
X112356Y222126D01*
Y205765D02*
X118252Y199868D01*
X112356Y205765D02*
Y222126D01*
X93560Y240922D02*
Y275339D01*
X104609Y286388D01*
X109308D01*
X118230Y295310D01*
X122581Y187064D02*
X122581Y175938D01*
X122581Y187064D02*
X124596Y189079D01*
X124596Y196932D01*
X118230Y295310D02*
Y313988D01*
X121659Y199868D02*
X124596Y196932D01*
X118252Y199868D02*
X121659Y199868D01*
X87376Y213444D02*
X94946Y221014D01*
X87376Y209194D02*
Y213444D01*
X821234Y256463D02*
X821734D01*
X797847Y188530D02*
Y195603D01*
X795676Y197774D02*
Y210236D01*
Y197774D02*
X797847Y195603D01*
X787194Y211434D02*
X789593D01*
X780255Y216472D02*
X780442Y216284D01*
X787584D02*
X790596Y219296D01*
X780442Y216284D02*
X787584D01*
X789593Y211434D02*
X795446Y217287D01*
X776604Y216472D02*
X780255D01*
X783748Y207988D02*
X787194Y211434D01*
X755720Y565504D02*
X931856D01*
X979932Y493873D02*
Y497458D01*
X978294Y499096D02*
X979932Y497458D01*
X1032764Y535208D02*
X1035830Y532142D01*
Y513538D02*
Y532142D01*
X1032764Y535208D02*
Y555258D01*
X1043702Y566196D01*
X1044702D01*
X1029330Y513538D02*
Y531768D01*
X1017762Y543336D02*
X1029330Y531768D01*
X1016762Y543336D02*
X1017762D01*
X782581Y165817D02*
Y175938D01*
X780724Y163960D02*
X782581Y165817D01*
X772794Y199436D02*
X773628Y198602D01*
Y186466D02*
Y198602D01*
X772794Y199436D02*
X772794Y203314D01*
X775644Y163960D02*
X780724D01*
X772581Y167023D02*
Y175938D01*
Y185419D02*
X773628Y186466D01*
X768120Y207988D02*
X776604Y216472D01*
X772581Y167023D02*
X775644Y163960D01*
X767580Y207988D02*
X768120D01*
X772581Y175938D02*
Y185419D01*
X768120Y207988D02*
X772794Y203314D01*
X787097Y176422D02*
X787581Y175938D01*
X782040Y207988D02*
X782580D01*
X783748D01*
X778488Y188247D02*
X783287D01*
X787097Y176422D02*
Y184437D01*
X783287Y188247D02*
X787097Y184437D01*
X778200Y188535D02*
X778488Y188247D01*
X777366Y203314D02*
X782040Y207988D01*
X777811Y184183D02*
X778200Y184572D01*
X777366Y201630D02*
X778200Y200796D01*
Y188535D02*
Y200796D01*
X777366Y201630D02*
Y203314D01*
X778200Y184572D02*
Y188535D01*
X777811Y183264D02*
Y184183D01*
X982866Y500990D02*
X984504Y499352D01*
X732028Y195742D02*
X732528Y195242D01*
Y188373D02*
Y195242D01*
X732028Y212242D02*
X733128D01*
X736756Y208614D01*
X797581Y188264D02*
X797847Y188530D01*
X797581Y175938D02*
Y188264D01*
X750530Y298464D02*
Y313988D01*
X763252Y199868D02*
X766659Y199868D01*
X769596Y196932D01*
X763230Y295310D02*
Y313988D01*
X769596Y189079D02*
X769596Y196932D01*
X767581Y187064D02*
X769596Y189079D01*
X767581Y187064D02*
X767581Y175938D01*
X754308Y286388D02*
X763230Y295310D01*
X749609Y286388D02*
X754308D01*
X738560Y275339D02*
X749609Y286388D01*
X738560Y240922D02*
Y275339D01*
X757356Y205765D02*
Y222126D01*
Y205765D02*
X763252Y199868D01*
X738560Y240922D02*
X757356Y222126D01*
X763452Y190724D02*
Y191392D01*
X762581Y189853D02*
X763452Y190724D01*
X762581Y175938D02*
Y189853D01*
X763239Y227829D02*
X767080Y223988D01*
X763189Y227829D02*
X763239D01*
X767080Y223988D02*
X767580D01*
X750530Y240488D02*
Y246988D01*
Y240488D02*
X763189Y227829D01*
X773020Y233048D02*
X782080Y223988D01*
X770670Y233048D02*
X773020D01*
X782080Y223988D02*
X782580D01*
X763230Y240488D02*
Y246988D01*
Y240488D02*
X770670Y233048D01*
D37*
X224536Y560862D02*
X289190D01*
X295656Y554395D01*
X437428Y562092D02*
X438170D01*
X439146Y561116D02*
X505460D01*
X437388Y562132D02*
X437428Y562092D01*
X438170D02*
X439146Y561116D01*
X505460D02*
X511302Y555274D01*
X327914Y562132D02*
X437388D01*
X969921Y442877D02*
X970830Y443785D01*
X969921Y442348D02*
Y442877D01*
X970830Y443785D02*
Y458438D01*
X967580Y431488D02*
X976754Y440662D01*
Y448362D01*
X965080Y431488D02*
X967580D01*
X977330Y448938D02*
Y458438D01*
X976754Y448362D02*
X977330Y448938D01*
X946404Y430164D02*
X947580Y428988D01*
X939056Y433629D02*
X940380Y434953D01*
Y486588D02*
X957830Y504038D01*
X946404Y430164D02*
Y443514D01*
X940380Y434953D02*
Y486588D01*
X981283Y474121D02*
X995044D01*
X960084Y473550D02*
X980712D01*
X996830Y445404D02*
Y472336D01*
X980712Y473550D02*
X981283Y474121D01*
X953112Y480522D02*
X960084Y473550D01*
X953112Y491370D02*
X963754Y502012D01*
X953112Y480522D02*
Y491370D01*
X917301Y559592D02*
X917324Y559614D01*
X918704D01*
X919077Y559988D01*
X760480Y559592D02*
X917301D01*
X966080Y531988D02*
Y555880D01*
X966470Y556270D01*
Y556798D01*
X345930Y313988D02*
Y327418D01*
X357239Y338727D02*
Y348147D01*
X345930Y327418D02*
X357239Y338727D01*
X572239Y338114D02*
Y348147D01*
X560930Y313988D02*
Y326805D01*
X572239Y338114D01*
X143630Y246988D02*
Y256488D01*
X143416Y256702D02*
X143630Y256488D01*
X143416Y256702D02*
Y262158D01*
X358630Y246988D02*
Y256488D01*
X358416Y256702D02*
X358630Y256488D01*
X358416Y256702D02*
Y262158D01*
X573630Y246988D02*
Y256488D01*
X573416Y256702D02*
X573630Y256488D01*
X573416Y256702D02*
Y262158D01*
X663518Y354650D02*
X668080Y350088D01*
X663518Y354650D02*
Y357650D01*
X668080Y338488D02*
Y350088D01*
X576080Y351988D02*
Y352488D01*
X596518Y354650D02*
X598080Y353088D01*
X582606Y354514D02*
X585742Y357650D01*
X598080Y336488D02*
X598080Y353088D01*
X578106Y354514D02*
X582606D01*
X585742Y357650D02*
X596518D01*
X596518Y354650D01*
X596518Y395750D02*
X596518Y398750D01*
X599080Y401312D02*
Y415488D01*
X596518Y398750D02*
X599080Y401312D01*
X572239Y348147D02*
X576080Y351988D01*
Y352488D02*
X578106Y354514D01*
X511302Y538002D02*
X515620Y533684D01*
X654580Y340988D02*
Y349488D01*
X652080Y338488D02*
X654580Y340988D01*
X515620Y533684D02*
X531368D01*
X540258Y542574D01*
X511302Y538002D02*
Y555274D01*
X540258Y542574D02*
Y556544D01*
X582080Y326166D02*
X582080Y336488D01*
X582080Y326166D02*
X586044Y322202D01*
X586298D01*
X448518Y354650D02*
Y357650D01*
Y354650D02*
X453080Y350088D01*
Y338488D02*
Y350088D01*
X361080Y351988D02*
Y352488D01*
X381518Y354650D02*
X383080Y353088D01*
X367606Y354514D02*
X370742Y357650D01*
X383080Y336488D02*
X383080Y353088D01*
X363106Y354514D02*
X367606D01*
X370742Y357650D02*
X381518D01*
X381518Y354650D01*
X381518Y395750D02*
X381518Y398750D01*
X384080Y401312D02*
Y415488D01*
X381518Y398750D02*
X384080Y401312D01*
X357239Y348147D02*
X361080Y351988D01*
Y352488D02*
X363106Y354514D01*
X437080Y338488D02*
X439580Y340988D01*
Y349488D01*
X295656Y538256D02*
Y554395D01*
Y538256D02*
X300228Y533684D01*
X312166D02*
X323342Y544860D01*
X300228Y533684D02*
X312166D01*
X323342Y544860D02*
Y557560D01*
X367080Y326166D02*
X367080Y336488D01*
X367080Y326166D02*
X371044Y322202D01*
X371298D01*
X233518Y354650D02*
X238080Y350088D01*
X233518Y354650D02*
Y357650D01*
X238080Y338488D02*
Y350088D01*
X146080Y351988D02*
Y352488D01*
X166518Y354650D02*
X168080Y353088D01*
X152606Y354514D02*
X155742Y357650D01*
X168080Y336488D02*
X168080Y353088D01*
X148106Y354514D02*
X152606D01*
X155742Y357650D02*
X166518D01*
X166518Y354650D01*
X166518Y395750D02*
X166518Y398750D01*
X169080Y401312D02*
Y415488D01*
X166518Y398750D02*
X169080Y401312D01*
X130930Y331886D02*
X130930Y313988D01*
X130930Y331886D02*
X142239Y343195D01*
Y348147D01*
X146080Y351988D01*
Y352488D02*
X148106Y354514D01*
X222080Y338488D02*
X224580Y340988D01*
Y349488D01*
X152080Y326166D02*
X152080Y336488D01*
X152080Y326166D02*
X156044Y322202D01*
X156298D01*
X867080Y338488D02*
X869580Y340988D01*
Y349488D01*
X747268Y530128D02*
X753618Y536478D01*
X726186Y536732D02*
X732790Y530128D01*
X747268D01*
X323342Y557560D02*
X327914Y562132D01*
X753618Y536478D02*
Y552729D01*
X726186Y536732D02*
Y559084D01*
X540258Y556544D02*
X545592Y561878D01*
X654558D01*
X723392D02*
X726186Y559084D01*
X753618Y552729D02*
X760480Y559592D01*
X654580Y561878D02*
X723392D01*
X789641Y342916D02*
Y351049D01*
X775930Y329204D02*
X789641Y342916D01*
X775930Y313988D02*
Y329204D01*
X789641Y351049D02*
X793106Y354514D01*
X788416Y256702D02*
Y262158D01*
Y256702D02*
X788630Y256488D01*
Y246988D02*
Y256488D01*
X1003906Y445466D02*
X1011152Y438220D01*
Y432328D02*
X1012190Y431290D01*
X1017589Y435967D02*
Y438922D01*
X998080Y415488D02*
X1006104Y423512D01*
X1010266Y446245D02*
X1017589Y438922D01*
X996830Y445404D02*
X1006104Y436129D01*
X1011152Y432328D02*
Y438220D01*
X1006104Y423512D02*
Y436129D01*
X1003906Y445466D02*
Y457862D01*
X1003330Y458438D02*
X1003906Y457862D01*
X1009830Y458438D02*
X1010266Y458002D01*
Y446245D02*
Y458002D01*
X1024128Y382046D02*
Y387440D01*
X1025366Y403042D02*
X1028198Y405874D01*
X1024128Y387440D02*
X1025366Y388678D01*
Y403042D01*
X1028198Y405874D02*
Y410374D01*
X1030224Y412400D01*
X982580Y431488D02*
X997580D01*
X983830Y437238D02*
Y458438D01*
X982580Y435988D02*
X983830Y437238D01*
X982580Y431488D02*
Y435988D01*
X988923Y396016D02*
X995795D01*
X982052D02*
X988923D01*
X1024128Y382046D02*
X1031694D01*
X1031948Y382300D01*
X1036448D01*
X995795Y396016D02*
X997580Y397801D01*
Y415488D01*
X967580Y410488D02*
X982052Y396016D01*
X997580Y415488D02*
X998080D01*
X965080Y410488D02*
X967580D01*
X952580Y412988D02*
X955080Y410488D01*
X965080D01*
X947580Y412988D02*
X952580D01*
X939056Y400316D02*
Y433629D01*
X960206Y366044D02*
Y379166D01*
X939056Y400316D02*
X960206Y379166D01*
X957830Y504038D02*
Y513538D01*
X995044Y474121D02*
X996830Y472336D01*
X963754Y502012D02*
Y512962D01*
X964330Y513538D01*
Y530238D01*
X966080Y531988D01*
X959098Y118970D02*
X963796D01*
X950080Y125488D02*
X952580D01*
X959098Y118970D01*
X801044Y322202D02*
X801298D01*
X797080Y326166D02*
X801044Y322202D01*
X797080Y326166D02*
X797080Y336488D01*
X811518Y398750D02*
X814080Y401312D01*
Y415488D01*
X811518Y395750D02*
X811518Y398750D01*
X811518Y357650D02*
X811518Y354650D01*
X800742Y357650D02*
X811518D01*
X793106Y354514D02*
X797606D01*
X813080Y336488D02*
X813080Y353088D01*
X797606Y354514D02*
X800742Y357650D01*
X811518Y354650D02*
X813080Y353088D01*
X883080Y338488D02*
Y350088D01*
X878518Y354650D02*
Y357650D01*
Y354650D02*
X883080Y350088D01*
D38*
X975143Y204565D02*
Y205231D01*
X979116Y209204D01*
X970154Y210100D02*
X970259D01*
X977012Y216854D01*
X979116Y209204D02*
Y211774D01*
X977012Y216854D02*
X983325D01*
X979116Y211774D02*
X981220D01*
X1052448Y373490D02*
X1055073Y370865D01*
X1052448Y373490D02*
Y382300D01*
X963975Y445887D02*
Y450208D01*
X957120Y442800D02*
Y457728D01*
X957830Y458438D01*
X963975Y450208D02*
X964330Y450563D01*
X957120Y442800D02*
X957217Y442702D01*
X963620Y445532D02*
X963975Y445887D01*
X964330Y450563D02*
Y458438D01*
X991176Y224888D02*
X1003630D01*
X985290Y214888D02*
X1003630D01*
X983325Y216854D02*
X985290Y214888D01*
X983325Y217036D02*
X991176Y224888D01*
X983325Y216854D02*
Y217036D01*
X1017778Y212882D02*
Y217962D01*
X1015852Y219888D02*
X1017778Y217962D01*
X1003630Y219888D02*
X1015852D01*
X1014784Y209888D02*
X1017778Y212882D01*
X981220Y211774D02*
X983186Y209808D01*
X1003630Y209888D02*
X1014784D01*
X983186Y209808D02*
X1003550D01*
X992570Y234888D02*
X1003630D01*
X992440Y234758D02*
X992570Y234888D01*
X975836Y234758D02*
X992440D01*
X964634Y245959D02*
X975836Y234758D01*
X986500Y200400D02*
X990988Y204888D01*
X986500Y172968D02*
Y200400D01*
X980186Y166654D02*
X986500Y172968D01*
X960130Y166654D02*
X980186D01*
X960580Y211665D02*
X962930Y209315D01*
Y203388D02*
Y209315D01*
Y203388D02*
X972080Y194238D01*
X960580Y211665D02*
Y223488D01*
X972080Y194238D02*
X972580D01*
X964634Y245959D02*
Y256933D01*
X960580Y260988D02*
Y263488D01*
Y260988D02*
X964634Y256933D01*
X990988Y204888D02*
X1003630D01*
X956574Y163098D02*
X960130Y166654D01*
X951824Y163098D02*
X956574D01*
X970080Y135488D02*
X981528D01*
X983738Y137698D01*
X983996D01*
D39*
X1031390Y397794D02*
X1031591D01*
X1034217Y400420D02*
X1048512D01*
X1031591Y397794D02*
X1034217Y400420D01*
X979035Y479550D02*
X999430D01*
X1000981Y477999D01*
X978463Y478979D02*
X979035Y479550D01*
X958541Y482771D02*
X962333Y478979D01*
X978463D01*
X1000981Y477999D02*
X1036379D01*
X1042330Y472048D01*
X958541Y489121D02*
X970635Y501215D01*
X958541Y482771D02*
Y489121D01*
X1056345Y408252D02*
X1063752Y415660D01*
X1042330Y504038D02*
X1063752Y482616D01*
Y415660D02*
Y482616D01*
X1016525Y447664D02*
X1025263Y438926D01*
X1026028D02*
X1026160Y438794D01*
X1025263Y438926D02*
X1026028D01*
X1016330Y458438D02*
X1016525Y458243D01*
Y447664D02*
Y458243D01*
X1030224Y428400D02*
X1032764Y430940D01*
X1029330Y458438D02*
X1029525Y458243D01*
Y447672D02*
Y458243D01*
X1032764Y430940D02*
Y444433D01*
X1029525Y447672D02*
X1032764Y444433D01*
X1010880Y259187D02*
X1012280Y260587D01*
X1010880Y252888D02*
Y259187D01*
X1007880Y249888D02*
X1010880Y252888D01*
X1003630Y249888D02*
X1007880D01*
X1042330Y448938D02*
X1050080Y441188D01*
Y429988D02*
Y441188D01*
X1042330Y448938D02*
Y458438D01*
X1050080Y401988D02*
X1051852D01*
X1056345Y406480D01*
Y408252D01*
X1042330Y504038D02*
Y513538D01*
X1048512Y400420D02*
X1050080Y401988D01*
X927608Y385348D02*
X928116Y384840D01*
X943356D01*
X989076Y406176D02*
X989330Y405922D01*
X989076Y406176D02*
Y409492D01*
X982580Y415488D02*
X983080D01*
X989076Y409492D01*
X1042330Y458438D02*
Y472048D01*
X970635Y503843D02*
X970830Y504038D01*
X970635Y501215D02*
Y503843D01*
X970830Y504038D02*
Y513538D01*
X1037986Y580420D02*
X1053592D01*
X1023762Y566196D02*
X1037986Y580420D01*
X1016762Y566196D02*
X1023762D01*
X1053592Y580420D02*
X1057656Y576356D01*
Y555290D02*
Y576356D01*
X1045702Y543336D02*
X1057656Y555290D01*
X1044702Y543336D02*
X1045702D01*
X1042330Y513538D02*
Y534964D01*
X1044702Y537336D01*
Y543336D01*
D40*
X325680Y339922D02*
Y342422D01*
Y339922D02*
X331228Y334374D01*
X340462D01*
X540680Y339922D02*
Y342422D01*
Y339922D02*
X546228Y334374D01*
X555462D01*
X56388Y251744D02*
Y292638D01*
X44772Y304254D02*
X56388Y292638D01*
X44772Y304254D02*
Y363758D01*
X75378Y343692D02*
Y363564D01*
X75213Y363729D02*
X75378Y363564D01*
X560930Y274338D02*
X581080Y294488D01*
X604580D01*
X573630Y301938D02*
Y313988D01*
Y301938D02*
X581080Y294488D01*
X560080Y352488D02*
Y368310D01*
X557554Y370836D02*
X560080Y368310D01*
X366080Y294488D02*
X389580D01*
X345930Y274338D02*
X366080Y294488D01*
X358630Y301938D02*
X366080Y294488D01*
X358630Y301938D02*
Y313988D01*
X345080Y352488D02*
Y368310D01*
X342554Y370836D02*
X345080Y368310D01*
X130930Y274338D02*
X151080Y294488D01*
X143630Y301938D02*
X151080Y294488D01*
X143630Y301938D02*
Y313988D01*
X151080Y294488D02*
X174580D01*
X130080Y352488D02*
Y368310D01*
X127554Y370836D02*
X130080Y368310D01*
X85166Y190484D02*
Y190984D01*
X86876Y192694D01*
X87376D01*
X78994Y184312D02*
X85166Y190484D01*
X78994Y177068D02*
Y184312D01*
X761228Y334374D02*
X770462D01*
X755680Y339922D02*
X761228Y334374D01*
X755680Y339922D02*
Y342422D01*
X1012222Y394123D02*
Y431258D01*
X1012190Y431290D02*
X1012222Y431258D01*
X1017589Y435967D02*
X1019302Y434254D01*
Y391190D02*
Y434254D01*
X975868Y347756D02*
X1019302Y391190D01*
X909896Y145640D02*
X910082Y145826D01*
Y157510D01*
X989838Y240568D02*
Y287746D01*
X1003080Y300988D01*
Y308488D01*
X989838Y240568D02*
X991158Y241888D01*
X1003630D01*
X992310Y192888D02*
X1003630D01*
X992638Y156488D02*
X999998Y149128D01*
X970080Y156488D02*
X992638D01*
X999998Y149128D02*
X1029970D01*
X1037844Y157002D01*
Y284256D01*
X1025652Y296448D02*
X1037844Y284256D01*
X965347Y347248D02*
X1012222Y394123D01*
X1020580Y325158D02*
X1021080Y325658D01*
X1020580Y315988D02*
Y325158D01*
X1003080Y308488D02*
X1013080D01*
X1020580Y315988D01*
X960882Y347248D02*
X965347D01*
X975868Y294416D02*
Y347756D01*
X970788Y289336D02*
X975868Y294416D01*
X960374Y289336D02*
X970788D01*
X950722Y279684D02*
X960374Y289336D01*
X950722Y208060D02*
Y279684D01*
X957120Y185474D02*
Y201662D01*
X950722Y208060D02*
X957120Y201662D01*
X941070Y170464D02*
X944634Y174028D01*
X945674D01*
X957120Y185474D01*
X941070Y152998D02*
Y170464D01*
Y152998D02*
X947580Y146488D01*
X950080D01*
X961136Y177830D02*
X961228Y177738D01*
X972580D01*
X999628Y549036D02*
Y550062D01*
X1015762Y566196D02*
X1016762D01*
X999628Y550062D02*
X1015762Y566196D01*
X994080Y543488D02*
X999628Y549036D01*
X994080Y540988D02*
Y543488D01*
X772554Y370836D02*
X775080Y368310D01*
Y352488D02*
Y368310D01*
X788630Y301938D02*
X796080Y294488D01*
X819580D01*
X788630Y301938D02*
Y313988D01*
X775930Y274338D02*
X796080Y294488D01*
D41*
X990330Y442260D02*
Y458438D01*
D42*
X102743Y345470D02*
D03*
D43*
X512303Y339120D02*
D03*
X299959Y338358D02*
D03*
D44*
X683481Y254424D02*
D03*
D45*
X523636Y149130D02*
D03*
X606524D02*
D03*
X391524D02*
D03*
X308636D02*
D03*
X176524D02*
D03*
X93636D02*
D03*
X738636D02*
D03*
X821524D02*
D03*
D46*
X526035Y175771D02*
D03*
X311035D02*
D03*
X96035D02*
D03*
X741035D02*
D03*
D47*
X700080Y495488D02*
D03*
X485080D02*
D03*
X270080D02*
D03*
X915080D02*
D03*
D48*
X547890Y370288D02*
D03*
X332890D02*
D03*
X117890D02*
D03*
X762890D02*
D03*
D49*
X604078Y176533D02*
D03*
X389078D02*
D03*
X174078D02*
D03*
X819078D02*
D03*
D50*
X468412Y254551D02*
D03*
D51*
X253724Y254424D02*
D03*
D52*
X814705Y295305D02*
D03*
D53*
X727837Y343946D02*
D03*
D54*
X898169Y254805D02*
D03*
D55*
X667580Y165988D02*
D03*
X640080Y165988D02*
D03*
X452580Y165988D02*
D03*
X425080Y165988D02*
D03*
X237580Y165988D02*
D03*
X210080Y165988D02*
D03*
X855080D02*
D03*
X882580D02*
D03*
D56*
X521880Y125488D02*
D03*
X608280D02*
D03*
X306880D02*
D03*
X393280D02*
D03*
X91880D02*
D03*
X178280D02*
D03*
X823280Y125488D02*
D03*
X736880D02*
D03*
D57*
X536181Y161988D02*
D03*
X593979D02*
D03*
X321181D02*
D03*
X378979D02*
D03*
X106181D02*
D03*
X163979D02*
D03*
X1017580Y246286D02*
D03*
Y188488D02*
D03*
X808979Y161988D02*
D03*
X751181Y161988D02*
D03*
D58*
X521880Y167288D02*
D03*
X608280D02*
D03*
X306880D02*
D03*
X393280D02*
D03*
X91880D02*
D03*
X178280D02*
D03*
X823280D02*
D03*
X736880Y167288D02*
D03*
D59*
X38862Y187990D02*
D03*
D60*
Y137190D02*
D03*
D61*
X1054080Y260587D02*
D03*
Y174187D02*
D03*
D62*
X1012280Y260587D02*
D03*
Y174187D02*
D03*
D63*
X883280Y75488D02*
D03*
X668280Y75488D02*
D03*
X453280D02*
D03*
X238280D02*
D03*
D64*
X147065Y190711D02*
D03*
X1024009Y484404D02*
D03*
X158006Y235709D02*
D03*
X66524Y294138D02*
D03*
X1031009Y484404D02*
D03*
X153226Y242772D02*
D03*
X71473Y299087D02*
D03*
X170434Y270540D02*
D03*
X161017Y242072D02*
D03*
X224536Y560862D02*
D03*
X361696Y191038D02*
D03*
X1013024Y494961D02*
D03*
X975994Y582995D02*
D03*
X309860Y541106D02*
D03*
X1008112Y489974D02*
D03*
X969010Y583468D02*
D03*
X302687Y541380D02*
D03*
X347847Y264190D02*
D03*
X372235Y235384D02*
D03*
X378202Y239044D02*
D03*
X372028Y242567D02*
D03*
X373888Y259618D02*
D03*
X381508Y268000D02*
D03*
X577581Y190711D02*
D03*
X562983Y264055D02*
D03*
X990280Y560646D02*
D03*
X993773Y486923D02*
D03*
X586775Y242546D02*
D03*
X527042Y540288D02*
D03*
X990764Y567630D02*
D03*
X986790Y486440D02*
D03*
X586983Y235204D02*
D03*
X520042Y540288D02*
D03*
X592836Y239044D02*
D03*
X588620Y260091D02*
D03*
X596987Y267325D02*
D03*
X734392Y539898D02*
D03*
X741391Y539776D02*
D03*
X439674Y561116D02*
D03*
X726440Y183164D02*
D03*
X742252Y210738D02*
D03*
X777502Y264535D02*
D03*
X803656Y258856D02*
D03*
X812546Y267746D02*
D03*
X802551Y242119D02*
D03*
X805942Y235996D02*
D03*
X799426Y233384D02*
D03*
X791210Y191800D02*
D03*
X975143Y204565D02*
D03*
X970154Y210100D02*
D03*
X1057656Y369346D02*
D03*
X1031390Y397794D02*
D03*
X963620Y445532D02*
D03*
X957217Y442702D02*
D03*
X969921Y442348D02*
D03*
X946404Y443514D02*
D03*
X969454Y490779D02*
D03*
X964946Y485424D02*
D03*
X1018032Y591842D02*
D03*
Y584842D02*
D03*
X919077Y559988D02*
D03*
X966470Y556798D02*
D03*
X950084Y550318D02*
D03*
X945134Y545368D02*
D03*
X159092Y259972D02*
D03*
X132955Y263729D02*
D03*
X143416Y262158D02*
D03*
X358416D02*
D03*
X340462Y334374D02*
D03*
X573416Y262158D02*
D03*
X555462Y334374D02*
D03*
X56388Y251744D02*
D03*
X44772Y363758D02*
D03*
X75213Y363729D02*
D03*
X106514Y296040D02*
D03*
X321514D02*
D03*
X536514D02*
D03*
X655580Y308488D02*
D03*
X646580D02*
D03*
X633518Y366200D02*
D03*
X619518D02*
D03*
X626518D02*
D03*
X640518D02*
D03*
Y373200D02*
D03*
X633518D02*
D03*
X626518D02*
D03*
X619518D02*
D03*
X626518Y380200D02*
D03*
X619518D02*
D03*
X640518D02*
D03*
X633518D02*
D03*
Y387200D02*
D03*
X619518D02*
D03*
X626518D02*
D03*
X640518D02*
D03*
X654580Y349488D02*
D03*
X665080Y265988D02*
D03*
X586298Y322202D02*
D03*
X548452Y191392D02*
D03*
X697580Y473488D02*
D03*
Y465988D02*
D03*
Y443488D02*
D03*
Y458488D02*
D03*
Y450988D02*
D03*
X705080D02*
D03*
X705080Y458488D02*
D03*
X705080Y473488D02*
D03*
Y465988D02*
D03*
X712580D02*
D03*
Y458488D02*
D03*
Y480988D02*
D03*
Y473488D02*
D03*
X697580Y495988D02*
D03*
X697580Y518488D02*
D03*
Y510988D02*
D03*
Y488488D02*
D03*
Y480988D02*
D03*
Y503488D02*
D03*
X705080Y495988D02*
D03*
X697580Y525988D02*
D03*
X697580Y548488D02*
D03*
Y540988D02*
D03*
Y533488D02*
D03*
X705080Y525988D02*
D03*
X705080Y540988D02*
D03*
Y480988D02*
D03*
Y503488D02*
D03*
Y488488D02*
D03*
X712580Y495988D02*
D03*
Y488488D02*
D03*
Y510988D02*
D03*
Y503488D02*
D03*
X705080Y518488D02*
D03*
Y510988D02*
D03*
Y533488D02*
D03*
X712580Y525988D02*
D03*
Y518488D02*
D03*
Y533488D02*
D03*
X553250Y367738D02*
D03*
Y374738D02*
D03*
X665080Y235988D02*
D03*
X672580Y235988D02*
D03*
X680080Y235988D02*
D03*
X687580D02*
D03*
X524764Y223042D02*
D03*
X539080Y197488D02*
D03*
X532580Y195988D02*
D03*
X537580Y190988D02*
D03*
X525526Y188498D02*
D03*
X702580Y258488D02*
D03*
Y273488D02*
D03*
X695080D02*
D03*
Y265988D02*
D03*
X702580Y265988D02*
D03*
X687580Y258488D02*
D03*
X695080D02*
D03*
X680080D02*
D03*
X672580D02*
D03*
X591082Y197488D02*
D03*
X597582Y195988D02*
D03*
X592582Y190988D02*
D03*
X702580Y250988D02*
D03*
X687580D02*
D03*
X695080D02*
D03*
X702580Y243488D02*
D03*
X695080D02*
D03*
X680080D02*
D03*
X687580D02*
D03*
X702580Y235988D02*
D03*
X695080D02*
D03*
X680080Y250988D02*
D03*
X665080Y258488D02*
D03*
Y250988D02*
D03*
Y243488D02*
D03*
X672580Y250988D02*
D03*
Y243488D02*
D03*
X665080Y273488D02*
D03*
X687580D02*
D03*
X680080D02*
D03*
X672580D02*
D03*
X680080Y265988D02*
D03*
X687580D02*
D03*
X672580Y265988D02*
D03*
X705080Y548488D02*
D03*
X712580D02*
D03*
X637580Y308488D02*
D03*
Y324488D02*
D03*
Y316488D02*
D03*
X712580Y540988D02*
D03*
X655580Y324488D02*
D03*
X646580D02*
D03*
X655580Y316488D02*
D03*
X646580D02*
D03*
X546250Y374738D02*
D03*
X539250D02*
D03*
X546250Y367738D02*
D03*
X539250D02*
D03*
X532250D02*
D03*
Y360738D02*
D03*
X539250D02*
D03*
X546250D02*
D03*
X553250D02*
D03*
X546250Y381738D02*
D03*
X532250D02*
D03*
X553250D02*
D03*
X532250Y374738D02*
D03*
X539250Y381738D02*
D03*
X705080Y443488D02*
D03*
X712580Y450988D02*
D03*
Y443488D02*
D03*
X431580Y308488D02*
D03*
X440580D02*
D03*
X404518Y373200D02*
D03*
X411518Y366200D02*
D03*
X404518D02*
D03*
X425518D02*
D03*
X418518D02*
D03*
Y373200D02*
D03*
X411518D02*
D03*
X425518D02*
D03*
X411518Y380200D02*
D03*
X404518D02*
D03*
X418518D02*
D03*
X425518D02*
D03*
X411518Y387200D02*
D03*
X404518D02*
D03*
X418518D02*
D03*
X425518D02*
D03*
X439580Y349488D02*
D03*
X450080Y265988D02*
D03*
X371298Y322202D02*
D03*
X333452Y191392D02*
D03*
X482580Y473488D02*
D03*
Y465988D02*
D03*
Y443488D02*
D03*
Y458488D02*
D03*
Y450988D02*
D03*
X490080D02*
D03*
X490080Y458488D02*
D03*
X490080Y473488D02*
D03*
Y465988D02*
D03*
X497580D02*
D03*
Y458488D02*
D03*
Y480988D02*
D03*
Y473488D02*
D03*
X482580Y495988D02*
D03*
X482580Y518488D02*
D03*
Y510988D02*
D03*
Y488488D02*
D03*
Y480988D02*
D03*
Y503488D02*
D03*
X490080Y495988D02*
D03*
X482580Y525988D02*
D03*
X482580Y548488D02*
D03*
Y540988D02*
D03*
Y533488D02*
D03*
X490080Y525988D02*
D03*
X490080Y540988D02*
D03*
Y480988D02*
D03*
Y503488D02*
D03*
Y488488D02*
D03*
X497580Y495988D02*
D03*
Y488488D02*
D03*
Y510988D02*
D03*
Y503488D02*
D03*
X490080Y518488D02*
D03*
Y510988D02*
D03*
Y533488D02*
D03*
X497580Y525988D02*
D03*
Y518488D02*
D03*
Y533488D02*
D03*
X338250Y367738D02*
D03*
Y374738D02*
D03*
X450080Y235988D02*
D03*
X457580Y235988D02*
D03*
X465080Y235988D02*
D03*
X472580D02*
D03*
X457580Y243488D02*
D03*
X382582Y195988D02*
D03*
X457580Y250988D02*
D03*
X450080D02*
D03*
Y243488D02*
D03*
X377582Y190988D02*
D03*
X480080Y243488D02*
D03*
Y235988D02*
D03*
X465080Y243488D02*
D03*
X487580Y235988D02*
D03*
X487580Y250988D02*
D03*
Y243488D02*
D03*
X472580Y250988D02*
D03*
X465080D02*
D03*
X480080D02*
D03*
X472580Y243488D02*
D03*
X450080Y258488D02*
D03*
X465080Y265988D02*
D03*
X472580D02*
D03*
X465080Y258488D02*
D03*
X472580D02*
D03*
X457580D02*
D03*
Y265988D02*
D03*
X487580Y273488D02*
D03*
Y258488D02*
D03*
Y265988D02*
D03*
X480080Y258488D02*
D03*
Y265988D02*
D03*
Y273488D02*
D03*
X472580D02*
D03*
X465080D02*
D03*
X457580D02*
D03*
X450080D02*
D03*
X306626Y188498D02*
D03*
X376082Y197488D02*
D03*
X324080D02*
D03*
X312542Y212496D02*
D03*
X317580Y195988D02*
D03*
X322580Y190988D02*
D03*
X497580Y540988D02*
D03*
X497580Y548488D02*
D03*
X490080D02*
D03*
Y443488D02*
D03*
X497580D02*
D03*
Y450988D02*
D03*
X317250Y381738D02*
D03*
X338250D02*
D03*
X324250D02*
D03*
X338250Y360738D02*
D03*
X331250Y381738D02*
D03*
Y374738D02*
D03*
Y360738D02*
D03*
Y367738D02*
D03*
X324250Y374738D02*
D03*
Y367738D02*
D03*
Y360738D02*
D03*
X317250Y374738D02*
D03*
Y360738D02*
D03*
Y367738D02*
D03*
X422580Y316488D02*
D03*
Y324488D02*
D03*
Y308488D02*
D03*
X431580Y324488D02*
D03*
Y316488D02*
D03*
X440580Y324488D02*
D03*
Y316488D02*
D03*
X216580Y308488D02*
D03*
X225580D02*
D03*
X196518Y366200D02*
D03*
X189518D02*
D03*
Y373200D02*
D03*
X203518D02*
D03*
X196518D02*
D03*
Y380200D02*
D03*
X189518D02*
D03*
Y387200D02*
D03*
X203518D02*
D03*
X196518D02*
D03*
X203518Y366200D02*
D03*
X210518D02*
D03*
Y373200D02*
D03*
X203518Y380200D02*
D03*
X210518Y387200D02*
D03*
Y380200D02*
D03*
X224580Y349488D02*
D03*
X235080Y265988D02*
D03*
X156298Y322202D02*
D03*
X118452Y191392D02*
D03*
X267580Y473488D02*
D03*
Y465988D02*
D03*
Y443488D02*
D03*
Y458488D02*
D03*
Y450988D02*
D03*
X275080D02*
D03*
X275080Y458488D02*
D03*
X275080Y473488D02*
D03*
Y465988D02*
D03*
X282580D02*
D03*
Y458488D02*
D03*
Y480988D02*
D03*
Y473488D02*
D03*
X267580Y495988D02*
D03*
X267580Y518488D02*
D03*
Y510988D02*
D03*
Y488488D02*
D03*
Y480988D02*
D03*
Y503488D02*
D03*
X275080Y495988D02*
D03*
X267580Y525988D02*
D03*
X267580Y548488D02*
D03*
Y540988D02*
D03*
Y533488D02*
D03*
X275080Y525988D02*
D03*
X275080Y540988D02*
D03*
Y480988D02*
D03*
Y503488D02*
D03*
Y488488D02*
D03*
X282580Y495988D02*
D03*
Y488488D02*
D03*
Y510988D02*
D03*
Y503488D02*
D03*
X275080Y518488D02*
D03*
Y510988D02*
D03*
Y533488D02*
D03*
X282580Y525988D02*
D03*
Y518488D02*
D03*
Y533488D02*
D03*
X123250Y374738D02*
D03*
Y367738D02*
D03*
X235080Y235988D02*
D03*
X242580Y235988D02*
D03*
X257580Y235988D02*
D03*
X250080D02*
D03*
X275080Y548488D02*
D03*
X282580Y540988D02*
D03*
X109250Y367738D02*
D03*
Y360738D02*
D03*
X123250Y381738D02*
D03*
Y360738D02*
D03*
X116250Y381738D02*
D03*
Y374738D02*
D03*
Y360738D02*
D03*
Y367738D02*
D03*
X109250Y374738D02*
D03*
X272580Y265988D02*
D03*
X265080Y235988D02*
D03*
Y243488D02*
D03*
Y250988D02*
D03*
X272580Y273488D02*
D03*
Y258488D02*
D03*
Y250988D02*
D03*
Y243488D02*
D03*
X272580Y235988D02*
D03*
X265080Y265988D02*
D03*
Y273488D02*
D03*
Y258488D02*
D03*
X109250Y381738D02*
D03*
X257580Y273488D02*
D03*
Y265988D02*
D03*
Y258488D02*
D03*
Y250988D02*
D03*
X250080D02*
D03*
X250080Y265988D02*
D03*
Y273488D02*
D03*
Y258488D02*
D03*
X257580Y243488D02*
D03*
X250080D02*
D03*
X235080Y250988D02*
D03*
Y258488D02*
D03*
Y243488D02*
D03*
X242580Y265988D02*
D03*
Y258488D02*
D03*
Y250988D02*
D03*
Y243488D02*
D03*
X225580Y316488D02*
D03*
X216580D02*
D03*
X207580D02*
D03*
X225580Y324488D02*
D03*
X216580D02*
D03*
X207580D02*
D03*
Y308488D02*
D03*
X242580Y273488D02*
D03*
X235080D02*
D03*
X275080Y443488D02*
D03*
X282580Y450988D02*
D03*
Y443488D02*
D03*
X161082Y197488D02*
D03*
X162582Y190988D02*
D03*
X167582Y195988D02*
D03*
X102580Y195988D02*
D03*
X109080Y197488D02*
D03*
X94946Y221014D02*
D03*
X282580Y548488D02*
D03*
X107580Y190988D02*
D03*
X78994Y177068D02*
D03*
X102250Y381738D02*
D03*
Y367738D02*
D03*
Y360738D02*
D03*
Y374738D02*
D03*
X869580Y349488D02*
D03*
X654580Y562110D02*
D03*
X770462Y334374D02*
D03*
X788416Y262158D02*
D03*
X754250Y381738D02*
D03*
X761250D02*
D03*
X747250D02*
D03*
X754250Y374738D02*
D03*
X768250Y381738D02*
D03*
X747250Y374738D02*
D03*
X768250D02*
D03*
X761250D02*
D03*
Y360738D02*
D03*
X768250D02*
D03*
X747250D02*
D03*
X768250Y367738D02*
D03*
X754250Y360738D02*
D03*
X747250Y367738D02*
D03*
X761250D02*
D03*
X754250D02*
D03*
X841518Y387200D02*
D03*
X848518D02*
D03*
X834518D02*
D03*
X841518Y380200D02*
D03*
X855518Y387200D02*
D03*
X834518Y380200D02*
D03*
X855518D02*
D03*
X848518D02*
D03*
Y366200D02*
D03*
X855518D02*
D03*
X834518D02*
D03*
X855518Y373200D02*
D03*
X841518Y366200D02*
D03*
X834518Y373200D02*
D03*
X848518D02*
D03*
X841518D02*
D03*
X1026160Y438794D02*
D03*
X924560Y141762D02*
D03*
X924306Y132364D02*
D03*
X924814Y122458D02*
D03*
X909896Y145640D02*
D03*
X910082Y157510D02*
D03*
X989838Y240568D02*
D03*
X992310Y192888D02*
D03*
X1025652Y296448D02*
D03*
X1021080Y325658D02*
D03*
X990330Y442260D02*
D03*
X1024128Y382046D02*
D03*
X988923Y396016D02*
D03*
X960882Y347248D02*
D03*
X961136Y177830D02*
D03*
X943356Y384840D02*
D03*
X989330Y405922D02*
D03*
X983996Y137698D02*
D03*
X963796Y118970D02*
D03*
X920080Y443488D02*
D03*
X927580D02*
D03*
Y450988D02*
D03*
X920080Y548488D02*
D03*
X927580Y540988D02*
D03*
X927580Y548488D02*
D03*
X887580Y250988D02*
D03*
X880080Y243488D02*
D03*
Y250988D02*
D03*
X887580Y243488D02*
D03*
X880080Y258488D02*
D03*
X887580D02*
D03*
Y273488D02*
D03*
Y265988D02*
D03*
X880080Y273488D02*
D03*
X812582Y195988D02*
D03*
X807582Y190988D02*
D03*
X752580D02*
D03*
X754080Y197488D02*
D03*
X747580Y195988D02*
D03*
X806082Y197488D02*
D03*
X861580Y324488D02*
D03*
X917580Y258488D02*
D03*
X902580D02*
D03*
X895080Y243488D02*
D03*
X902580Y250988D02*
D03*
Y243488D02*
D03*
X910080D02*
D03*
Y250988D02*
D03*
X917580D02*
D03*
X910080Y235988D02*
D03*
X917580D02*
D03*
X917580Y243488D02*
D03*
X895080Y250988D02*
D03*
X910080Y258488D02*
D03*
Y265988D02*
D03*
X902580Y273488D02*
D03*
X910080D02*
D03*
X895080D02*
D03*
Y258488D02*
D03*
Y265988D02*
D03*
X902580D02*
D03*
X870580Y324488D02*
D03*
X852580D02*
D03*
X861580Y316488D02*
D03*
X870580D02*
D03*
X852580D02*
D03*
Y308488D02*
D03*
X917580Y273488D02*
D03*
Y265988D02*
D03*
X902580Y235988D02*
D03*
X895080D02*
D03*
X887580Y235988D02*
D03*
X880080Y235988D02*
D03*
X751514Y296040D02*
D03*
X927580Y533488D02*
D03*
Y518488D02*
D03*
Y525988D02*
D03*
X920080Y533488D02*
D03*
Y510988D02*
D03*
Y518488D02*
D03*
X927580Y503488D02*
D03*
Y510988D02*
D03*
Y488488D02*
D03*
Y495988D02*
D03*
X920080Y488488D02*
D03*
Y503488D02*
D03*
Y480988D02*
D03*
Y540988D02*
D03*
X920080Y525988D02*
D03*
X912580Y533488D02*
D03*
Y540988D02*
D03*
Y548488D02*
D03*
X912580Y525988D02*
D03*
X920080Y495988D02*
D03*
X912580Y503488D02*
D03*
Y480988D02*
D03*
Y488488D02*
D03*
Y510988D02*
D03*
Y518488D02*
D03*
X912580Y495988D02*
D03*
X927580Y473488D02*
D03*
Y480988D02*
D03*
Y458488D02*
D03*
Y465988D02*
D03*
X920080D02*
D03*
Y473488D02*
D03*
X920080Y458488D02*
D03*
X920080Y450988D02*
D03*
X912580D02*
D03*
Y458488D02*
D03*
Y443488D02*
D03*
Y465988D02*
D03*
Y473488D02*
D03*
X763452Y191392D02*
D03*
X801298Y322202D02*
D03*
X880080Y265988D02*
D03*
X870580Y308488D02*
D03*
X861580D02*
D03*
M02*
