G04*
G04 #@! TF.GenerationSoftware,Altium Limited,Altium Designer,23.4.1 (23)*
G04*
G04 Layer_Color=8388736*
%FSLAX44Y44*%
%MOMM*%
G71*
G04*
G04 #@! TF.SameCoordinates,7B88B1EF-FA2A-4097-AC05-1536201C5E71*
G04*
G04*
G04 #@! TF.FilePolarity,Negative*
G04*
G01*
G75*
G04:AMPARAMS|DCode=74|XSize=1.6532mm|YSize=1.1532mm|CornerRadius=0.3391mm|HoleSize=0mm|Usage=FLASHONLY|Rotation=0.000|XOffset=0mm|YOffset=0mm|HoleType=Round|Shape=RoundedRectangle|*
%AMROUNDEDRECTD74*
21,1,1.6532,0.4750,0,0,0.0*
21,1,0.9750,1.1532,0,0,0.0*
1,1,0.6782,0.4875,-0.2375*
1,1,0.6782,-0.4875,-0.2375*
1,1,0.6782,-0.4875,0.2375*
1,1,0.6782,0.4875,0.2375*
%
%ADD74ROUNDEDRECTD74*%
G04:AMPARAMS|DCode=75|XSize=1.2032mm|YSize=1.1032mm|CornerRadius=0.3266mm|HoleSize=0mm|Usage=FLASHONLY|Rotation=0.000|XOffset=0mm|YOffset=0mm|HoleType=Round|Shape=RoundedRectangle|*
%AMROUNDEDRECTD75*
21,1,1.2032,0.4500,0,0,0.0*
21,1,0.5500,1.1032,0,0,0.0*
1,1,0.6532,0.2750,-0.2250*
1,1,0.6532,-0.2750,-0.2250*
1,1,0.6532,-0.2750,0.2250*
1,1,0.6532,0.2750,0.2250*
%
%ADD75ROUNDEDRECTD75*%
G04:AMPARAMS|DCode=76|XSize=2.0032mm|YSize=1.5032mm|CornerRadius=0.4266mm|HoleSize=0mm|Usage=FLASHONLY|Rotation=90.000|XOffset=0mm|YOffset=0mm|HoleType=Round|Shape=RoundedRectangle|*
%AMROUNDEDRECTD76*
21,1,2.0032,0.6500,0,0,90.0*
21,1,1.1500,1.5032,0,0,90.0*
1,1,0.8532,0.3250,0.5750*
1,1,0.8532,0.3250,-0.5750*
1,1,0.8532,-0.3250,-0.5750*
1,1,0.8532,-0.3250,0.5750*
%
%ADD76ROUNDEDRECTD76*%
G04:AMPARAMS|DCode=77|XSize=1.7032mm|YSize=3.7032mm|CornerRadius=0.4766mm|HoleSize=0mm|Usage=FLASHONLY|Rotation=270.000|XOffset=0mm|YOffset=0mm|HoleType=Round|Shape=RoundedRectangle|*
%AMROUNDEDRECTD77*
21,1,1.7032,2.7500,0,0,270.0*
21,1,0.7500,3.7032,0,0,270.0*
1,1,0.9532,-1.3750,-0.3750*
1,1,0.9532,-1.3750,0.3750*
1,1,0.9532,1.3750,0.3750*
1,1,0.9532,1.3750,-0.3750*
%
%ADD77ROUNDEDRECTD77*%
%ADD78R,3.7032X1.7032*%
G04:AMPARAMS|DCode=79|XSize=3.2032mm|YSize=4.2032mm|CornerRadius=0mm|HoleSize=0mm|Usage=FLASHONLY|Rotation=0.000|XOffset=0mm|YOffset=0mm|HoleType=Round|Shape=Octagon|*
%AMOCTAGOND79*
4,1,8,-0.8008,2.1016,0.8008,2.1016,1.6016,1.3008,1.6016,-1.3008,0.8008,-2.1016,-0.8008,-2.1016,-1.6016,-1.3008,-1.6016,1.3008,-0.8008,2.1016,0.0*
%
%ADD79OCTAGOND79*%

%ADD80R,2.1032X0.8032*%
G04:AMPARAMS|DCode=81|XSize=0.8032mm|YSize=2.1032mm|CornerRadius=0.2516mm|HoleSize=0mm|Usage=FLASHONLY|Rotation=90.000|XOffset=0mm|YOffset=0mm|HoleType=Round|Shape=RoundedRectangle|*
%AMROUNDEDRECTD81*
21,1,0.8032,1.6000,0,0,90.0*
21,1,0.3000,2.1032,0,0,90.0*
1,1,0.5032,0.8000,0.1500*
1,1,0.5032,0.8000,-0.1500*
1,1,0.5032,-0.8000,-0.1500*
1,1,0.5032,-0.8000,0.1500*
%
%ADD81ROUNDEDRECTD81*%
G04:AMPARAMS|DCode=82|XSize=1.2032mm|YSize=1.1032mm|CornerRadius=0.3266mm|HoleSize=0mm|Usage=FLASHONLY|Rotation=90.000|XOffset=0mm|YOffset=0mm|HoleType=Round|Shape=RoundedRectangle|*
%AMROUNDEDRECTD82*
21,1,1.2032,0.4500,0,0,90.0*
21,1,0.5500,1.1032,0,0,90.0*
1,1,0.6532,0.2250,0.2750*
1,1,0.6532,0.2250,-0.2750*
1,1,0.6532,-0.2250,-0.2750*
1,1,0.6532,-0.2250,0.2750*
%
%ADD82ROUNDEDRECTD82*%
%ADD83R,5.7032X12.2032*%
%ADD84R,0.5032X1.6532*%
%ADD85R,0.8032X1.6532*%
%ADD86R,0.8032X2.1032*%
G04:AMPARAMS|DCode=87|XSize=0.8032mm|YSize=2.1032mm|CornerRadius=0.2516mm|HoleSize=0mm|Usage=FLASHONLY|Rotation=0.000|XOffset=0mm|YOffset=0mm|HoleType=Round|Shape=RoundedRectangle|*
%AMROUNDEDRECTD87*
21,1,0.8032,1.6000,0,0,0.0*
21,1,0.3000,2.1032,0,0,0.0*
1,1,0.5032,0.1500,-0.8000*
1,1,0.5032,-0.1500,-0.8000*
1,1,0.5032,-0.1500,0.8000*
1,1,0.5032,0.1500,0.8000*
%
%ADD87ROUNDEDRECTD87*%
G04:AMPARAMS|DCode=88|XSize=2.1032mm|YSize=0.6832mm|CornerRadius=0.1616mm|HoleSize=0mm|Usage=FLASHONLY|Rotation=270.000|XOffset=0mm|YOffset=0mm|HoleType=Round|Shape=RoundedRectangle|*
%AMROUNDEDRECTD88*
21,1,2.1032,0.3600,0,0,270.0*
21,1,1.7800,0.6832,0,0,270.0*
1,1,0.3232,-0.1800,-0.8900*
1,1,0.3232,-0.1800,0.8900*
1,1,0.3232,0.1800,0.8900*
1,1,0.3232,0.1800,-0.8900*
%
%ADD88ROUNDEDRECTD88*%
%ADD89R,0.6832X2.1032*%
%ADD90R,1.6032X1.4032*%
G04:AMPARAMS|DCode=91|XSize=1.1532mm|YSize=1.0532mm|CornerRadius=0.3141mm|HoleSize=0mm|Usage=FLASHONLY|Rotation=180.000|XOffset=0mm|YOffset=0mm|HoleType=Round|Shape=RoundedRectangle|*
%AMROUNDEDRECTD91*
21,1,1.1532,0.4250,0,0,180.0*
21,1,0.5250,1.0532,0,0,180.0*
1,1,0.6282,-0.2625,0.2125*
1,1,0.6282,0.2625,0.2125*
1,1,0.6282,0.2625,-0.2125*
1,1,0.6282,-0.2625,-0.2125*
%
%ADD91ROUNDEDRECTD91*%
%ADD92R,1.1532X1.0532*%
G04:AMPARAMS|DCode=93|XSize=1.7032mm|YSize=1.7232mm|CornerRadius=0.4766mm|HoleSize=0mm|Usage=FLASHONLY|Rotation=0.000|XOffset=0mm|YOffset=0mm|HoleType=Round|Shape=RoundedRectangle|*
%AMROUNDEDRECTD93*
21,1,1.7032,0.7700,0,0,0.0*
21,1,0.7500,1.7232,0,0,0.0*
1,1,0.9532,0.3750,-0.3850*
1,1,0.9532,-0.3750,-0.3850*
1,1,0.9532,-0.3750,0.3850*
1,1,0.9532,0.3750,0.3850*
%
%ADD93ROUNDEDRECTD93*%
%ADD94R,2.4032X3.3032*%
G04:AMPARAMS|DCode=95|XSize=2.0032mm|YSize=1.5032mm|CornerRadius=0.4266mm|HoleSize=0mm|Usage=FLASHONLY|Rotation=180.000|XOffset=0mm|YOffset=0mm|HoleType=Round|Shape=RoundedRectangle|*
%AMROUNDEDRECTD95*
21,1,2.0032,0.6500,0,0,180.0*
21,1,1.1500,1.5032,0,0,180.0*
1,1,0.8532,-0.5750,0.3250*
1,1,0.8532,0.5750,0.3250*
1,1,0.8532,0.5750,-0.3250*
1,1,0.8532,-0.5750,-0.3250*
%
%ADD95ROUNDEDRECTD95*%
%ADD96R,1.6532X0.5032*%
%ADD97R,1.6532X0.8032*%
%ADD98C,3.0000*%
G04:AMPARAMS|DCode=99|XSize=1.6532mm|YSize=1.1532mm|CornerRadius=0.3391mm|HoleSize=0mm|Usage=FLASHONLY|Rotation=90.000|XOffset=0mm|YOffset=0mm|HoleType=Round|Shape=RoundedRectangle|*
%AMROUNDEDRECTD99*
21,1,1.6532,0.4750,0,0,90.0*
21,1,0.9750,1.1532,0,0,90.0*
1,1,0.6782,0.2375,0.4875*
1,1,0.6782,0.2375,-0.4875*
1,1,0.6782,-0.2375,-0.4875*
1,1,0.6782,-0.2375,0.4875*
%
%ADD99ROUNDEDRECTD99*%
%ADD100R,2.1590X2.1590*%
%ADD101O,1.2032X1.8032*%
%ADD102C,0.8782*%
%ADD103O,1.2032X2.3032*%
%ADD104C,1.9032*%
%ADD105R,1.9032X1.9032*%
%ADD106O,1.8032X1.2032*%
%ADD107O,2.3032X1.2032*%
%ADD108C,0.2032*%
%ADD109C,2.9032*%
D74*
X692834Y260996D02*
D03*
Y281996D02*
D03*
X477952Y261176D02*
D03*
Y282176D02*
D03*
X262834Y260996D02*
D03*
Y281996D02*
D03*
X907466Y259906D02*
D03*
Y280906D02*
D03*
X1070080Y212488D02*
D03*
Y191488D02*
D03*
X1050080Y202488D02*
D03*
Y181488D02*
D03*
X1065080Y487488D02*
D03*
Y466488D02*
D03*
D75*
X706734Y312463D02*
D03*
Y296463D02*
D03*
X667580Y279988D02*
D03*
Y263988D02*
D03*
X652580Y279988D02*
D03*
Y263988D02*
D03*
X491734Y312463D02*
D03*
Y296463D02*
D03*
X452580Y279988D02*
D03*
Y263988D02*
D03*
X437580Y279988D02*
D03*
Y263988D02*
D03*
X276484Y312463D02*
D03*
Y296463D02*
D03*
X237580Y279988D02*
D03*
Y263988D02*
D03*
X222580Y279988D02*
D03*
Y263988D02*
D03*
X921734Y312463D02*
D03*
Y296463D02*
D03*
X1097580Y471488D02*
D03*
Y487488D02*
D03*
X1082580Y471488D02*
D03*
X1082580Y487488D02*
D03*
X1047580Y468988D02*
D03*
Y484988D02*
D03*
X1130224Y468400D02*
D03*
Y484400D02*
D03*
X867580Y263988D02*
D03*
Y279988D02*
D03*
X882580Y263988D02*
D03*
Y279988D02*
D03*
D76*
X640512Y396898D02*
D03*
X612512D02*
D03*
X427690Y396136D02*
D03*
X399690D02*
D03*
X175378Y399692D02*
D03*
X203378D02*
D03*
X855680Y398422D02*
D03*
X827680D02*
D03*
X1066080Y596988D02*
D03*
X1094080Y596988D02*
D03*
D77*
X704580Y350488D02*
D03*
X726580Y277488D02*
D03*
X489580Y350488D02*
D03*
X511580Y277488D02*
D03*
X274580Y350488D02*
D03*
X296580Y277488D02*
D03*
X1052080Y364488D02*
D03*
X941580Y277488D02*
D03*
X919580Y350488D02*
D03*
D78*
X755580Y350488D02*
D03*
X777580Y277488D02*
D03*
X540580Y350488D02*
D03*
X562580Y277488D02*
D03*
X325580Y350488D02*
D03*
X347580Y277488D02*
D03*
X1103080Y364488D02*
D03*
X992580Y277488D02*
D03*
X970580Y350488D02*
D03*
D79*
X730018Y432700D02*
D03*
X515018D02*
D03*
X300018D02*
D03*
X945018D02*
D03*
D80*
X696518Y451750D02*
D03*
X481518D02*
D03*
X266518D02*
D03*
X911518D02*
D03*
D81*
X696518Y439050D02*
D03*
Y426350D02*
D03*
Y413650D02*
D03*
X763518Y451750D02*
D03*
Y439050D02*
D03*
Y426350D02*
D03*
Y413650D02*
D03*
X481518Y439050D02*
D03*
Y426350D02*
D03*
Y413650D02*
D03*
X548518Y451750D02*
D03*
Y439050D02*
D03*
Y426350D02*
D03*
Y413650D02*
D03*
X266518Y439050D02*
D03*
Y426350D02*
D03*
Y413650D02*
D03*
X333518Y451750D02*
D03*
Y439050D02*
D03*
Y426350D02*
D03*
Y413650D02*
D03*
X978518D02*
D03*
Y426350D02*
D03*
Y439050D02*
D03*
Y451750D02*
D03*
X911518Y413650D02*
D03*
Y426350D02*
D03*
Y439050D02*
D03*
D82*
X660080Y408488D02*
D03*
X676080D02*
D03*
X752080Y394488D02*
D03*
X768080D02*
D03*
X698080Y392488D02*
D03*
X682080D02*
D03*
X699080Y471488D02*
D03*
X683080D02*
D03*
X445080Y408488D02*
D03*
X461080D02*
D03*
X537080Y394488D02*
D03*
X553080D02*
D03*
X483080Y392488D02*
D03*
X467080D02*
D03*
X484080Y471488D02*
D03*
X468080D02*
D03*
X230080Y408488D02*
D03*
X246080D02*
D03*
X322080Y394488D02*
D03*
X338080D02*
D03*
X268080Y392488D02*
D03*
X252080D02*
D03*
X269080Y471488D02*
D03*
X253080D02*
D03*
X898080D02*
D03*
X914080D02*
D03*
X1136448Y438300D02*
D03*
X1152448D02*
D03*
X897080Y392488D02*
D03*
X913080Y392488D02*
D03*
X983080Y394488D02*
D03*
X967080D02*
D03*
X891080Y408488D02*
D03*
X875080D02*
D03*
D83*
X765800Y551988D02*
D03*
X674360D02*
D03*
X550800D02*
D03*
X459360D02*
D03*
X335800D02*
D03*
X244360D02*
D03*
X889360Y551988D02*
D03*
X980800Y551988D02*
D03*
D84*
X682581Y231938D02*
D03*
X677581D02*
D03*
X647581D02*
D03*
X652581D02*
D03*
X662581D02*
D03*
X667581D02*
D03*
X657581D02*
D03*
X672581D02*
D03*
X467581D02*
D03*
X462581D02*
D03*
X432581D02*
D03*
X437581D02*
D03*
X447581D02*
D03*
X452581D02*
D03*
X442581D02*
D03*
X457581D02*
D03*
X252581D02*
D03*
X247581D02*
D03*
X217581D02*
D03*
X222581D02*
D03*
X232581D02*
D03*
X237581D02*
D03*
X227581D02*
D03*
X242581D02*
D03*
X887581Y231938D02*
D03*
X872581Y231938D02*
D03*
X882581Y231938D02*
D03*
X877581D02*
D03*
X867581Y231938D02*
D03*
X862581D02*
D03*
X892581Y231938D02*
D03*
X897581D02*
D03*
D85*
X632581D02*
D03*
X697581D02*
D03*
X689581D02*
D03*
X640581D02*
D03*
X417581D02*
D03*
X482581D02*
D03*
X474581D02*
D03*
X425581D02*
D03*
X202581D02*
D03*
X267581D02*
D03*
X259581D02*
D03*
X210581D02*
D03*
X855581Y231938D02*
D03*
X904581D02*
D03*
X912581D02*
D03*
X847581D02*
D03*
D86*
X673630Y369988D02*
D03*
X458630D02*
D03*
X243630D02*
D03*
X888630D02*
D03*
D87*
X660930D02*
D03*
X648230D02*
D03*
X635530D02*
D03*
X673630Y302988D02*
D03*
X660930D02*
D03*
X648230D02*
D03*
X635530D02*
D03*
X445930Y369988D02*
D03*
X433230D02*
D03*
X420530D02*
D03*
X458630Y302988D02*
D03*
X445930D02*
D03*
X433230D02*
D03*
X420530D02*
D03*
X230930Y369988D02*
D03*
X218230D02*
D03*
X205530D02*
D03*
X243630Y302988D02*
D03*
X230930D02*
D03*
X218230D02*
D03*
X205530D02*
D03*
X850530D02*
D03*
X863230D02*
D03*
X875930D02*
D03*
X888630D02*
D03*
X850530Y369988D02*
D03*
X863230Y369988D02*
D03*
X875930Y369988D02*
D03*
D88*
X1142330Y514438D02*
D03*
X1135830Y514438D02*
D03*
X1129330Y514438D02*
D03*
X1122830D02*
D03*
X1116330D02*
D03*
X1109830D02*
D03*
X1103330D02*
D03*
X1096830D02*
D03*
X1090330D02*
D03*
X1083830D02*
D03*
X1077330D02*
D03*
X1070830D02*
D03*
X1064330D02*
D03*
X1057830D02*
D03*
Y569538D02*
D03*
X1064330D02*
D03*
X1070830D02*
D03*
X1077330D02*
D03*
X1083830D02*
D03*
X1090330D02*
D03*
X1096830D02*
D03*
X1103330D02*
D03*
X1109830D02*
D03*
X1116330D02*
D03*
X1122830D02*
D03*
X1129330D02*
D03*
X1135830Y569538D02*
D03*
D89*
X1142330Y569538D02*
D03*
D90*
X1144702Y622196D02*
D03*
Y599336D02*
D03*
X1116762Y622196D02*
D03*
Y599336D02*
D03*
D91*
X832028Y268242D02*
D03*
X187376Y248694D02*
D03*
X402514Y268496D02*
D03*
X1072580Y233738D02*
D03*
X616890Y270020D02*
D03*
D92*
X832028Y251742D02*
D03*
X187376Y265194D02*
D03*
X402514Y251996D02*
D03*
X1072580Y250238D02*
D03*
X616890Y253520D02*
D03*
D93*
X227554Y426836D02*
D03*
X872554D02*
D03*
X657554D02*
D03*
X442554D02*
D03*
D94*
X227374Y459116D02*
D03*
X872374D02*
D03*
X657374D02*
D03*
X442374D02*
D03*
D95*
X1150080Y485988D02*
D03*
X1150080Y457988D02*
D03*
D96*
X1103630Y280888D02*
D03*
Y265888D02*
D03*
Y275888D02*
D03*
Y270888D02*
D03*
Y260888D02*
D03*
Y255888D02*
D03*
Y285888D02*
D03*
Y290888D02*
D03*
D97*
Y248888D02*
D03*
Y297888D02*
D03*
Y305888D02*
D03*
Y240888D02*
D03*
D98*
X172580Y629488D02*
D03*
X120066Y356258D02*
D03*
X1037580Y249568D02*
D03*
D99*
X1060580Y319488D02*
D03*
X1039580D02*
D03*
X1051824Y219098D02*
D03*
X1030824D02*
D03*
X1039206Y422044D02*
D03*
X1060206D02*
D03*
X1039580Y279488D02*
D03*
X1060580D02*
D03*
D100*
X767580Y221988D02*
D03*
X740080Y221988D02*
D03*
X552580Y221988D02*
D03*
X525080Y221988D02*
D03*
X337580Y221988D02*
D03*
X310080Y221988D02*
D03*
X955080D02*
D03*
X982580D02*
D03*
D101*
X621880Y181488D02*
D03*
X708280D02*
D03*
X406880D02*
D03*
X493280D02*
D03*
X191880D02*
D03*
X278280D02*
D03*
X923280Y181488D02*
D03*
X836880D02*
D03*
D102*
X636181Y217988D02*
D03*
X693979D02*
D03*
X421181D02*
D03*
X478979D02*
D03*
X206181D02*
D03*
X263979D02*
D03*
X1117580Y302286D02*
D03*
Y244488D02*
D03*
X908979Y217988D02*
D03*
X851181Y217988D02*
D03*
D103*
X621880Y223288D02*
D03*
X708280D02*
D03*
X406880D02*
D03*
X493280D02*
D03*
X191880D02*
D03*
X278280D02*
D03*
X923280D02*
D03*
X836880Y223288D02*
D03*
D104*
X138862Y243990D02*
D03*
D105*
Y193190D02*
D03*
D106*
X1154080Y316587D02*
D03*
Y230187D02*
D03*
D107*
X1112280Y316587D02*
D03*
Y230187D02*
D03*
D108*
X1074486Y716908D02*
D03*
X190674Y716908D02*
D03*
D109*
X983280Y131488D02*
D03*
X768280Y131488D02*
D03*
X553280D02*
D03*
X338280D02*
D03*
M02*
