G04*
G04 #@! TF.GenerationSoftware,Altium Limited,Altium Designer,23.4.1 (23)*
G04*
G04 Layer_Color=16711935*
%FSLAX44Y44*%
%MOMM*%
G71*
G04*
G04 #@! TF.SameCoordinates,3060DD58-918D-4E1B-9459-4C9D01607EA3*
G04*
G04*
G04 #@! TF.FilePolarity,Negative*
G04*
G01*
G75*
%ADD66R,3.5000X3.5000*%
%ADD97C,3.0000*%
%ADD99R,2.1590X2.1590*%
%ADD100O,1.2032X1.8032*%
%ADD101C,0.8782*%
%ADD102O,1.2032X2.3032*%
%ADD103C,1.9032*%
%ADD104R,1.9032X1.9032*%
%ADD105O,1.8032X1.2032*%
%ADD106O,2.3032X1.2032*%
%ADD107C,0.2032*%
%ADD108C,2.9032*%
%ADD109C,0.7032*%
G36*
X220000Y358488D02*
X190000D01*
X180000Y368488D01*
Y498488D01*
X220000D01*
Y358488D01*
D02*
G37*
G36*
X435000D02*
X405000D01*
X395000Y368488D01*
Y498488D01*
X435000D01*
Y358488D01*
D02*
G37*
G36*
X650000D02*
X620000D01*
X610000Y368488D01*
Y498488D01*
X650000D01*
Y358488D01*
D02*
G37*
G36*
X865000D02*
X835000D01*
X825000Y368488D01*
Y498488D01*
X865000D01*
Y358488D01*
D02*
G37*
D66*
X112500Y370988D02*
D03*
X327500D02*
D03*
X542500D02*
D03*
X757500D02*
D03*
D97*
X897580Y578488D02*
D03*
X937580Y193568D02*
D03*
X45000Y558488D02*
D03*
D99*
X667580Y165988D02*
D03*
X640080Y165988D02*
D03*
X452580Y165988D02*
D03*
X425080Y165988D02*
D03*
X237580Y165988D02*
D03*
X210080Y165988D02*
D03*
X855080D02*
D03*
X882580D02*
D03*
D100*
X521880Y125488D02*
D03*
X608280D02*
D03*
X306880D02*
D03*
X393280D02*
D03*
X91880D02*
D03*
X178280D02*
D03*
X823280Y125488D02*
D03*
X736880D02*
D03*
D101*
X536181Y161988D02*
D03*
X593979D02*
D03*
X321181D02*
D03*
X378979D02*
D03*
X106181D02*
D03*
X163979D02*
D03*
X1017580Y246286D02*
D03*
Y188488D02*
D03*
X808979Y161988D02*
D03*
X751181Y161988D02*
D03*
D102*
X521880Y167288D02*
D03*
X608280D02*
D03*
X306880D02*
D03*
X393280D02*
D03*
X91880D02*
D03*
X178280D02*
D03*
X823280D02*
D03*
X736880Y167288D02*
D03*
D103*
X38862Y187990D02*
D03*
D104*
Y137190D02*
D03*
D105*
X1054080Y260587D02*
D03*
Y174187D02*
D03*
D106*
X1012280Y260587D02*
D03*
Y174187D02*
D03*
D107*
X974486Y660908D02*
D03*
X90674Y660908D02*
D03*
D108*
X883280Y75488D02*
D03*
X668280Y75488D02*
D03*
X453280D02*
D03*
X238280D02*
D03*
D109*
X147065Y190711D02*
D03*
X1024009Y484404D02*
D03*
X158006Y235709D02*
D03*
X66524Y294138D02*
D03*
X1031009Y484404D02*
D03*
X153226Y242772D02*
D03*
X71473Y299087D02*
D03*
X170434Y270540D02*
D03*
X161017Y242072D02*
D03*
X224536Y560862D02*
D03*
X361696Y191038D02*
D03*
X1013024Y494961D02*
D03*
X975994Y582995D02*
D03*
X309860Y541106D02*
D03*
X1008112Y489974D02*
D03*
X969010Y583468D02*
D03*
X302687Y541380D02*
D03*
X347847Y264190D02*
D03*
X372235Y235384D02*
D03*
X378202Y239044D02*
D03*
X372028Y242567D02*
D03*
X373888Y259618D02*
D03*
X381508Y268000D02*
D03*
X577581Y190711D02*
D03*
X562983Y264055D02*
D03*
X990280Y560646D02*
D03*
X993773Y486923D02*
D03*
X586775Y242546D02*
D03*
X527042Y540288D02*
D03*
X990764Y567630D02*
D03*
X986790Y486440D02*
D03*
X586983Y235204D02*
D03*
X520042Y540288D02*
D03*
X592836Y239044D02*
D03*
X588620Y260091D02*
D03*
X596987Y267325D02*
D03*
X734392Y539898D02*
D03*
X741391Y539776D02*
D03*
X439674Y561116D02*
D03*
X726440Y183164D02*
D03*
X742252Y210738D02*
D03*
X777502Y264535D02*
D03*
X803656Y258856D02*
D03*
X812546Y267746D02*
D03*
X802551Y242119D02*
D03*
X805942Y235996D02*
D03*
X799426Y233384D02*
D03*
X791210Y191800D02*
D03*
X975143Y204565D02*
D03*
X970154Y210100D02*
D03*
X1057656Y369346D02*
D03*
X1031390Y397794D02*
D03*
X963620Y445532D02*
D03*
X957217Y442702D02*
D03*
X969921Y442348D02*
D03*
X946404Y443514D02*
D03*
X969454Y490779D02*
D03*
X964946Y485424D02*
D03*
X1018032Y591842D02*
D03*
Y584842D02*
D03*
X919077Y559988D02*
D03*
X966470Y556798D02*
D03*
X950084Y550318D02*
D03*
X945134Y545368D02*
D03*
X159092Y259972D02*
D03*
X132955Y263729D02*
D03*
X143416Y262158D02*
D03*
X358416D02*
D03*
X340462Y334374D02*
D03*
X573416Y262158D02*
D03*
X555462Y334374D02*
D03*
X56388Y251744D02*
D03*
X44772Y363758D02*
D03*
X75213Y363729D02*
D03*
X106514Y296040D02*
D03*
X321514D02*
D03*
X536514D02*
D03*
X655580Y308488D02*
D03*
X646580D02*
D03*
X633518Y366200D02*
D03*
X619518D02*
D03*
X626518D02*
D03*
X640518D02*
D03*
Y373200D02*
D03*
X633518D02*
D03*
X626518D02*
D03*
X619518D02*
D03*
X626518Y380200D02*
D03*
X619518D02*
D03*
X640518D02*
D03*
X633518D02*
D03*
Y387200D02*
D03*
X619518D02*
D03*
X626518D02*
D03*
X640518D02*
D03*
X654580Y349488D02*
D03*
X665080Y265988D02*
D03*
X586298Y322202D02*
D03*
X548452Y191392D02*
D03*
X697580Y473488D02*
D03*
Y465988D02*
D03*
Y443488D02*
D03*
Y458488D02*
D03*
Y450988D02*
D03*
X705080D02*
D03*
X705080Y458488D02*
D03*
X705080Y473488D02*
D03*
Y465988D02*
D03*
X712580D02*
D03*
Y458488D02*
D03*
Y480988D02*
D03*
Y473488D02*
D03*
X697580Y495988D02*
D03*
X697580Y518488D02*
D03*
Y510988D02*
D03*
Y488488D02*
D03*
Y480988D02*
D03*
Y503488D02*
D03*
X705080Y495988D02*
D03*
X697580Y525988D02*
D03*
X697580Y548488D02*
D03*
Y540988D02*
D03*
Y533488D02*
D03*
X705080Y525988D02*
D03*
X705080Y540988D02*
D03*
Y480988D02*
D03*
Y503488D02*
D03*
Y488488D02*
D03*
X712580Y495988D02*
D03*
Y488488D02*
D03*
Y510988D02*
D03*
Y503488D02*
D03*
X705080Y518488D02*
D03*
Y510988D02*
D03*
Y533488D02*
D03*
X712580Y525988D02*
D03*
Y518488D02*
D03*
Y533488D02*
D03*
X553250Y367738D02*
D03*
Y374738D02*
D03*
X665080Y235988D02*
D03*
X672580Y235988D02*
D03*
X680080Y235988D02*
D03*
X687580D02*
D03*
X524764Y223042D02*
D03*
X539080Y197488D02*
D03*
X532580Y195988D02*
D03*
X537580Y190988D02*
D03*
X525526Y188498D02*
D03*
X702580Y258488D02*
D03*
Y273488D02*
D03*
X695080D02*
D03*
Y265988D02*
D03*
X702580Y265988D02*
D03*
X687580Y258488D02*
D03*
X695080D02*
D03*
X680080D02*
D03*
X672580D02*
D03*
X591082Y197488D02*
D03*
X597582Y195988D02*
D03*
X592582Y190988D02*
D03*
X702580Y250988D02*
D03*
X687580D02*
D03*
X695080D02*
D03*
X702580Y243488D02*
D03*
X695080D02*
D03*
X680080D02*
D03*
X687580D02*
D03*
X702580Y235988D02*
D03*
X695080D02*
D03*
X680080Y250988D02*
D03*
X665080Y258488D02*
D03*
Y250988D02*
D03*
Y243488D02*
D03*
X672580Y250988D02*
D03*
Y243488D02*
D03*
X665080Y273488D02*
D03*
X687580D02*
D03*
X680080D02*
D03*
X672580D02*
D03*
X680080Y265988D02*
D03*
X687580D02*
D03*
X672580Y265988D02*
D03*
X705080Y548488D02*
D03*
X712580D02*
D03*
X637580Y308488D02*
D03*
Y324488D02*
D03*
Y316488D02*
D03*
X712580Y540988D02*
D03*
X655580Y324488D02*
D03*
X646580D02*
D03*
X655580Y316488D02*
D03*
X646580D02*
D03*
X546250Y374738D02*
D03*
X539250D02*
D03*
X546250Y367738D02*
D03*
X539250D02*
D03*
X532250D02*
D03*
Y360738D02*
D03*
X539250D02*
D03*
X546250D02*
D03*
X553250D02*
D03*
X546250Y381738D02*
D03*
X532250D02*
D03*
X553250D02*
D03*
X532250Y374738D02*
D03*
X539250Y381738D02*
D03*
X705080Y443488D02*
D03*
X712580Y450988D02*
D03*
Y443488D02*
D03*
X431580Y308488D02*
D03*
X440580D02*
D03*
X404518Y373200D02*
D03*
X411518Y366200D02*
D03*
X404518D02*
D03*
X425518D02*
D03*
X418518D02*
D03*
Y373200D02*
D03*
X411518D02*
D03*
X425518D02*
D03*
X411518Y380200D02*
D03*
X404518D02*
D03*
X418518D02*
D03*
X425518D02*
D03*
X411518Y387200D02*
D03*
X404518D02*
D03*
X418518D02*
D03*
X425518D02*
D03*
X439580Y349488D02*
D03*
X450080Y265988D02*
D03*
X371298Y322202D02*
D03*
X333452Y191392D02*
D03*
X482580Y473488D02*
D03*
Y465988D02*
D03*
Y443488D02*
D03*
Y458488D02*
D03*
Y450988D02*
D03*
X490080D02*
D03*
X490080Y458488D02*
D03*
X490080Y473488D02*
D03*
Y465988D02*
D03*
X497580D02*
D03*
Y458488D02*
D03*
Y480988D02*
D03*
Y473488D02*
D03*
X482580Y495988D02*
D03*
X482580Y518488D02*
D03*
Y510988D02*
D03*
Y488488D02*
D03*
Y480988D02*
D03*
Y503488D02*
D03*
X490080Y495988D02*
D03*
X482580Y525988D02*
D03*
X482580Y548488D02*
D03*
Y540988D02*
D03*
Y533488D02*
D03*
X490080Y525988D02*
D03*
X490080Y540988D02*
D03*
Y480988D02*
D03*
Y503488D02*
D03*
Y488488D02*
D03*
X497580Y495988D02*
D03*
Y488488D02*
D03*
Y510988D02*
D03*
Y503488D02*
D03*
X490080Y518488D02*
D03*
Y510988D02*
D03*
Y533488D02*
D03*
X497580Y525988D02*
D03*
Y518488D02*
D03*
Y533488D02*
D03*
X338250Y367738D02*
D03*
Y374738D02*
D03*
X450080Y235988D02*
D03*
X457580Y235988D02*
D03*
X465080Y235988D02*
D03*
X472580D02*
D03*
X457580Y243488D02*
D03*
X382582Y195988D02*
D03*
X457580Y250988D02*
D03*
X450080D02*
D03*
Y243488D02*
D03*
X377582Y190988D02*
D03*
X480080Y243488D02*
D03*
Y235988D02*
D03*
X465080Y243488D02*
D03*
X487580Y235988D02*
D03*
X487580Y250988D02*
D03*
Y243488D02*
D03*
X472580Y250988D02*
D03*
X465080D02*
D03*
X480080D02*
D03*
X472580Y243488D02*
D03*
X450080Y258488D02*
D03*
X465080Y265988D02*
D03*
X472580D02*
D03*
X465080Y258488D02*
D03*
X472580D02*
D03*
X457580D02*
D03*
Y265988D02*
D03*
X487580Y273488D02*
D03*
Y258488D02*
D03*
Y265988D02*
D03*
X480080Y258488D02*
D03*
Y265988D02*
D03*
Y273488D02*
D03*
X472580D02*
D03*
X465080D02*
D03*
X457580D02*
D03*
X450080D02*
D03*
X306626Y188498D02*
D03*
X376082Y197488D02*
D03*
X324080D02*
D03*
X312542Y212496D02*
D03*
X317580Y195988D02*
D03*
X322580Y190988D02*
D03*
X497580Y540988D02*
D03*
X497580Y548488D02*
D03*
X490080D02*
D03*
Y443488D02*
D03*
X497580D02*
D03*
Y450988D02*
D03*
X317250Y381738D02*
D03*
X338250D02*
D03*
X324250D02*
D03*
X338250Y360738D02*
D03*
X331250Y381738D02*
D03*
Y374738D02*
D03*
Y360738D02*
D03*
Y367738D02*
D03*
X324250Y374738D02*
D03*
Y367738D02*
D03*
Y360738D02*
D03*
X317250Y374738D02*
D03*
Y360738D02*
D03*
Y367738D02*
D03*
X422580Y316488D02*
D03*
Y324488D02*
D03*
Y308488D02*
D03*
X431580Y324488D02*
D03*
Y316488D02*
D03*
X440580Y324488D02*
D03*
Y316488D02*
D03*
X216580Y308488D02*
D03*
X225580D02*
D03*
X196518Y366200D02*
D03*
X189518D02*
D03*
Y373200D02*
D03*
X203518D02*
D03*
X196518D02*
D03*
Y380200D02*
D03*
X189518D02*
D03*
Y387200D02*
D03*
X203518D02*
D03*
X196518D02*
D03*
X203518Y366200D02*
D03*
X210518D02*
D03*
Y373200D02*
D03*
X203518Y380200D02*
D03*
X210518Y387200D02*
D03*
Y380200D02*
D03*
X224580Y349488D02*
D03*
X235080Y265988D02*
D03*
X156298Y322202D02*
D03*
X118452Y191392D02*
D03*
X267580Y473488D02*
D03*
Y465988D02*
D03*
Y443488D02*
D03*
Y458488D02*
D03*
Y450988D02*
D03*
X275080D02*
D03*
X275080Y458488D02*
D03*
X275080Y473488D02*
D03*
Y465988D02*
D03*
X282580D02*
D03*
Y458488D02*
D03*
Y480988D02*
D03*
Y473488D02*
D03*
X267580Y495988D02*
D03*
X267580Y518488D02*
D03*
Y510988D02*
D03*
Y488488D02*
D03*
Y480988D02*
D03*
Y503488D02*
D03*
X275080Y495988D02*
D03*
X267580Y525988D02*
D03*
X267580Y548488D02*
D03*
Y540988D02*
D03*
Y533488D02*
D03*
X275080Y525988D02*
D03*
X275080Y540988D02*
D03*
Y480988D02*
D03*
Y503488D02*
D03*
Y488488D02*
D03*
X282580Y495988D02*
D03*
Y488488D02*
D03*
Y510988D02*
D03*
Y503488D02*
D03*
X275080Y518488D02*
D03*
Y510988D02*
D03*
Y533488D02*
D03*
X282580Y525988D02*
D03*
Y518488D02*
D03*
Y533488D02*
D03*
X123250Y374738D02*
D03*
Y367738D02*
D03*
X235080Y235988D02*
D03*
X242580Y235988D02*
D03*
X257580Y235988D02*
D03*
X250080D02*
D03*
X275080Y548488D02*
D03*
X282580Y540988D02*
D03*
X109250Y367738D02*
D03*
Y360738D02*
D03*
X123250Y381738D02*
D03*
Y360738D02*
D03*
X116250Y381738D02*
D03*
Y374738D02*
D03*
Y360738D02*
D03*
Y367738D02*
D03*
X109250Y374738D02*
D03*
X272580Y265988D02*
D03*
X265080Y235988D02*
D03*
Y243488D02*
D03*
Y250988D02*
D03*
X272580Y273488D02*
D03*
Y258488D02*
D03*
Y250988D02*
D03*
Y243488D02*
D03*
X272580Y235988D02*
D03*
X265080Y265988D02*
D03*
Y273488D02*
D03*
Y258488D02*
D03*
X109250Y381738D02*
D03*
X257580Y273488D02*
D03*
Y265988D02*
D03*
Y258488D02*
D03*
Y250988D02*
D03*
X250080D02*
D03*
X250080Y265988D02*
D03*
Y273488D02*
D03*
Y258488D02*
D03*
X257580Y243488D02*
D03*
X250080D02*
D03*
X235080Y250988D02*
D03*
Y258488D02*
D03*
Y243488D02*
D03*
X242580Y265988D02*
D03*
Y258488D02*
D03*
Y250988D02*
D03*
Y243488D02*
D03*
X225580Y316488D02*
D03*
X216580D02*
D03*
X207580D02*
D03*
X225580Y324488D02*
D03*
X216580D02*
D03*
X207580D02*
D03*
Y308488D02*
D03*
X242580Y273488D02*
D03*
X235080D02*
D03*
X275080Y443488D02*
D03*
X282580Y450988D02*
D03*
Y443488D02*
D03*
X161082Y197488D02*
D03*
X162582Y190988D02*
D03*
X167582Y195988D02*
D03*
X102580Y195988D02*
D03*
X109080Y197488D02*
D03*
X94946Y221014D02*
D03*
X282580Y548488D02*
D03*
X107580Y190988D02*
D03*
X78994Y177068D02*
D03*
X102250Y381738D02*
D03*
Y367738D02*
D03*
Y360738D02*
D03*
Y374738D02*
D03*
X869580Y349488D02*
D03*
X654580Y562110D02*
D03*
X770462Y334374D02*
D03*
X788416Y262158D02*
D03*
X754250Y381738D02*
D03*
X761250D02*
D03*
X747250D02*
D03*
X754250Y374738D02*
D03*
X768250Y381738D02*
D03*
X747250Y374738D02*
D03*
X768250D02*
D03*
X761250D02*
D03*
Y360738D02*
D03*
X768250D02*
D03*
X747250D02*
D03*
X768250Y367738D02*
D03*
X754250Y360738D02*
D03*
X747250Y367738D02*
D03*
X761250D02*
D03*
X754250D02*
D03*
X841518Y387200D02*
D03*
X848518D02*
D03*
X834518D02*
D03*
X841518Y380200D02*
D03*
X855518Y387200D02*
D03*
X834518Y380200D02*
D03*
X855518D02*
D03*
X848518D02*
D03*
Y366200D02*
D03*
X855518D02*
D03*
X834518D02*
D03*
X855518Y373200D02*
D03*
X841518Y366200D02*
D03*
X834518Y373200D02*
D03*
X848518D02*
D03*
X841518D02*
D03*
X1026160Y438794D02*
D03*
X924560Y141762D02*
D03*
X924306Y132364D02*
D03*
X924814Y122458D02*
D03*
X909896Y145640D02*
D03*
X910082Y157510D02*
D03*
X989838Y240568D02*
D03*
X992310Y192888D02*
D03*
X1025652Y296448D02*
D03*
X1021080Y325658D02*
D03*
X990330Y442260D02*
D03*
X1024128Y382046D02*
D03*
X988923Y396016D02*
D03*
X960882Y347248D02*
D03*
X961136Y177830D02*
D03*
X943356Y384840D02*
D03*
X989330Y405922D02*
D03*
X983996Y137698D02*
D03*
X963796Y118970D02*
D03*
X920080Y443488D02*
D03*
X927580D02*
D03*
Y450988D02*
D03*
X920080Y548488D02*
D03*
X927580Y540988D02*
D03*
X927580Y548488D02*
D03*
X887580Y250988D02*
D03*
X880080Y243488D02*
D03*
Y250988D02*
D03*
X887580Y243488D02*
D03*
X880080Y258488D02*
D03*
X887580D02*
D03*
Y273488D02*
D03*
Y265988D02*
D03*
X880080Y273488D02*
D03*
X812582Y195988D02*
D03*
X807582Y190988D02*
D03*
X752580D02*
D03*
X754080Y197488D02*
D03*
X747580Y195988D02*
D03*
X806082Y197488D02*
D03*
X861580Y324488D02*
D03*
X917580Y258488D02*
D03*
X902580D02*
D03*
X895080Y243488D02*
D03*
X902580Y250988D02*
D03*
Y243488D02*
D03*
X910080D02*
D03*
Y250988D02*
D03*
X917580D02*
D03*
X910080Y235988D02*
D03*
X917580D02*
D03*
X917580Y243488D02*
D03*
X895080Y250988D02*
D03*
X910080Y258488D02*
D03*
Y265988D02*
D03*
X902580Y273488D02*
D03*
X910080D02*
D03*
X895080D02*
D03*
Y258488D02*
D03*
Y265988D02*
D03*
X902580D02*
D03*
X870580Y324488D02*
D03*
X852580D02*
D03*
X861580Y316488D02*
D03*
X870580D02*
D03*
X852580D02*
D03*
Y308488D02*
D03*
X917580Y273488D02*
D03*
Y265988D02*
D03*
X902580Y235988D02*
D03*
X895080D02*
D03*
X887580Y235988D02*
D03*
X880080Y235988D02*
D03*
X751514Y296040D02*
D03*
X927580Y533488D02*
D03*
Y518488D02*
D03*
Y525988D02*
D03*
X920080Y533488D02*
D03*
Y510988D02*
D03*
Y518488D02*
D03*
X927580Y503488D02*
D03*
Y510988D02*
D03*
Y488488D02*
D03*
Y495988D02*
D03*
X920080Y488488D02*
D03*
Y503488D02*
D03*
Y480988D02*
D03*
Y540988D02*
D03*
X920080Y525988D02*
D03*
X912580Y533488D02*
D03*
Y540988D02*
D03*
Y548488D02*
D03*
X912580Y525988D02*
D03*
X920080Y495988D02*
D03*
X912580Y503488D02*
D03*
Y480988D02*
D03*
Y488488D02*
D03*
Y510988D02*
D03*
Y518488D02*
D03*
X912580Y495988D02*
D03*
X927580Y473488D02*
D03*
Y480988D02*
D03*
Y458488D02*
D03*
Y465988D02*
D03*
X920080D02*
D03*
Y473488D02*
D03*
X920080Y458488D02*
D03*
X920080Y450988D02*
D03*
X912580D02*
D03*
Y458488D02*
D03*
Y443488D02*
D03*
Y465988D02*
D03*
Y473488D02*
D03*
X763452Y191392D02*
D03*
X801298Y322202D02*
D03*
X880080Y265988D02*
D03*
X870580Y308488D02*
D03*
X861580D02*
D03*
M02*
