G04*
G04 #@! TF.GenerationSoftware,Altium Limited,Altium Designer,23.4.1 (23)*
G04*
G04 Layer_Color=32896*
%FSLAX44Y44*%
%MOMM*%
G71*
G04*
G04 #@! TF.SameCoordinates,3060DD58-918D-4E1B-9459-4C9D01607EA3*
G04*
G04*
G04 #@! TF.FilePolarity,Positive*
G04*
G01*
G75*
%ADD110C,0.6780*%
G36*
X496442Y593222D02*
X496822Y592959D01*
X496967Y592843D01*
X497084Y592755D01*
X497172Y592697D01*
X497201Y592668D01*
X497696Y592347D01*
X497959Y592230D01*
X498192Y592114D01*
X498367Y592026D01*
X498513Y591939D01*
X498629Y591909D01*
X498659Y591880D01*
X499242Y591647D01*
X499533Y591560D01*
X499796Y591472D01*
X500029Y591385D01*
X500204Y591356D01*
X500321Y591297D01*
X500350D01*
X500991Y591151D01*
X501283Y591064D01*
X501545Y591035D01*
X501779Y590976D01*
X501954Y590947D01*
X502070Y590918D01*
X502099D01*
X501604Y588381D01*
X501137Y588469D01*
X500729Y588556D01*
X500554Y588585D01*
X500437Y588615D01*
X500350Y588644D01*
X500321D01*
X499825Y588760D01*
X499621Y588819D01*
X499417Y588848D01*
X499271Y588906D01*
X499154Y588935D01*
X499067Y588964D01*
X499038D01*
X498571Y589110D01*
X498367Y589169D01*
X498192Y589227D01*
X498017Y589285D01*
X497901Y589343D01*
X497842Y589373D01*
X497813D01*
X497405Y589548D01*
X497084Y589693D01*
X496967Y589752D01*
X496880Y589810D01*
X496851Y589839D01*
X496822D01*
Y575930D01*
X493439D01*
Y593572D01*
X496093D01*
X496442Y593222D01*
D02*
G37*
G36*
X549221Y585057D02*
X554324Y575930D01*
X550533D01*
X547180Y582345D01*
X547150D01*
X543826Y575930D01*
X540036D01*
X545138Y585057D01*
X540415Y593572D01*
X544176D01*
X547150Y587798D01*
X547180D01*
X550183Y593572D01*
X553945D01*
X549221Y585057D01*
D02*
G37*
G36*
X513442Y575930D02*
X509798D01*
X504374Y593572D01*
X508106D01*
X511081Y582083D01*
X511226Y581500D01*
X511285Y581237D01*
X511343Y581004D01*
X511372Y580800D01*
X511401Y580654D01*
X511430Y580567D01*
Y580537D01*
X511460Y580304D01*
X511518Y580100D01*
X511547Y579925D01*
Y579779D01*
X511576Y579663D01*
X511605Y579604D01*
Y579575D01*
Y579546D01*
X511664D01*
X511693Y579663D01*
X511722Y579808D01*
X511751Y579925D01*
Y579954D01*
X511780Y580187D01*
X511809Y580392D01*
X511839Y580537D01*
Y580567D01*
Y580596D01*
X511897Y580858D01*
X511926Y581091D01*
X511955Y581266D01*
X511984Y581296D01*
Y581325D01*
X512043Y581616D01*
X512101Y581850D01*
X512130Y582024D01*
X512159Y582054D01*
Y582083D01*
X515134Y593572D01*
X518866D01*
X513442Y575930D01*
D02*
G37*
G36*
X682070Y575930D02*
X678629D01*
X676617Y583395D01*
X676501Y583862D01*
X676442Y584036D01*
X676413Y584212D01*
X676384Y584357D01*
Y584474D01*
X676355Y584532D01*
Y584561D01*
X676296Y584911D01*
X676238Y585174D01*
X676209Y585320D01*
Y585378D01*
X676151D01*
Y585290D01*
Y585203D01*
X676122Y584940D01*
Y584824D01*
X676092Y584736D01*
Y584678D01*
Y584649D01*
X676005Y584212D01*
X675917Y583803D01*
X675859Y583657D01*
X675830Y583512D01*
X675801Y583424D01*
Y583395D01*
X673760Y575930D01*
X670319D01*
X666499Y589081D01*
X669852D01*
X671719Y581004D01*
X671835Y580479D01*
X671864Y580246D01*
X671923Y580071D01*
X671952Y579896D01*
Y579779D01*
X671981Y579692D01*
Y579663D01*
X672010Y579459D01*
Y579284D01*
X672039Y579138D01*
Y579050D01*
X672068Y578904D01*
Y578875D01*
X672098D01*
X672127Y578963D01*
X672156Y579080D01*
X672214Y579342D01*
X672243Y579459D01*
Y579575D01*
X672272Y579633D01*
Y579663D01*
X672360Y580129D01*
X672448Y580567D01*
X672506Y580742D01*
X672535Y580887D01*
X672564Y580975D01*
Y581004D01*
X674664Y589081D01*
X677725D01*
X679854Y581004D01*
X679970Y580479D01*
X680029Y580246D01*
X680087Y580071D01*
X680116Y579896D01*
Y579779D01*
X680145Y579692D01*
Y579663D01*
X680175Y579459D01*
X680204Y579284D01*
X680233Y579138D01*
X680262Y579050D01*
X680291Y578904D01*
Y578875D01*
X680350D01*
Y578963D01*
Y579080D01*
X680379Y579371D01*
X680408Y579488D01*
Y579604D01*
X680437Y579692D01*
Y579721D01*
X680495Y580217D01*
X680554Y580421D01*
X680583Y580625D01*
X680612Y580771D01*
X680641Y580887D01*
X680670Y580975D01*
Y581004D01*
X682566Y589081D01*
X685890D01*
X682070Y575930D01*
D02*
G37*
G36*
X659326Y589343D02*
X659792Y589285D01*
X660230Y589198D01*
X660609Y589110D01*
X660930Y589023D01*
X661163Y588935D01*
X661309Y588877D01*
X661367Y588848D01*
X661775Y588644D01*
X662154Y588410D01*
X662475Y588177D01*
X662767Y587973D01*
X662971Y587769D01*
X663146Y587594D01*
X663262Y587477D01*
X663291Y587448D01*
X663554Y587098D01*
X663816Y586719D01*
X664020Y586369D01*
X664195Y586019D01*
X664312Y585728D01*
X664399Y585465D01*
X664458Y585320D01*
X664487Y585290D01*
Y585261D01*
X664633Y584795D01*
X664720Y584299D01*
X664808Y583832D01*
X664837Y583395D01*
X664866Y583045D01*
X664895Y582753D01*
Y582637D01*
Y582549D01*
Y582520D01*
Y582491D01*
X664866Y581937D01*
X664837Y581441D01*
X664779Y580975D01*
X664691Y580537D01*
X664604Y580217D01*
X664545Y579954D01*
X664516Y579779D01*
X664487Y579750D01*
Y579721D01*
X664312Y579254D01*
X664108Y578846D01*
X663875Y578467D01*
X663671Y578146D01*
X663496Y577884D01*
X663350Y577709D01*
X663233Y577563D01*
X663204Y577534D01*
X662883Y577213D01*
X662533Y576922D01*
X662183Y576688D01*
X661863Y576484D01*
X661571Y576339D01*
X661338Y576222D01*
X661192Y576163D01*
X661134Y576134D01*
X660667Y575959D01*
X660172Y575843D01*
X659705Y575755D01*
X659238Y575697D01*
X658859Y575668D01*
X658539Y575639D01*
X657751D01*
X657226Y575668D01*
X656760Y575726D01*
X656352Y575784D01*
X656031Y575814D01*
X655768Y575872D01*
X655593Y575901D01*
X655535D01*
X655069Y576018D01*
X654660Y576105D01*
X654311Y576222D01*
X653990Y576339D01*
X653727Y576426D01*
X653552Y576513D01*
X653436Y576543D01*
X653407Y576572D01*
X654369Y579050D01*
X654923Y578817D01*
X655214Y578700D01*
X655477Y578642D01*
X655710Y578555D01*
X655885Y578496D01*
X656002Y578467D01*
X656060D01*
X656760Y578321D01*
X657110Y578292D01*
X657401Y578263D01*
X657635Y578234D01*
X658014D01*
X658539Y578263D01*
X659034Y578350D01*
X659443Y578467D01*
X659792Y578584D01*
X660084Y578700D01*
X660288Y578817D01*
X660405Y578904D01*
X660463Y578934D01*
X660784Y579225D01*
X661046Y579575D01*
X661250Y579954D01*
X661425Y580304D01*
X661542Y580625D01*
X661600Y580887D01*
X661659Y581062D01*
Y581091D01*
Y581121D01*
X653202Y582258D01*
X653173Y582462D01*
X653144Y582637D01*
Y582753D01*
Y582812D01*
Y583395D01*
X653173Y583891D01*
X653202Y584328D01*
X653261Y584766D01*
X653319Y585115D01*
X653407Y585407D01*
X653465Y585640D01*
X653494Y585757D01*
X653523Y585815D01*
X653669Y586223D01*
X653844Y586573D01*
X654048Y586894D01*
X654223Y587186D01*
X654369Y587390D01*
X654515Y587565D01*
X654602Y587681D01*
X654631Y587711D01*
X654894Y588002D01*
X655185Y588236D01*
X655477Y588440D01*
X655768Y588615D01*
X656002Y588760D01*
X656206Y588848D01*
X656322Y588906D01*
X656381Y588935D01*
X656789Y589081D01*
X657197Y589198D01*
X657605Y589256D01*
X657984Y589314D01*
X658305Y589343D01*
X658568Y589373D01*
X658801D01*
X659326Y589343D01*
D02*
G37*
G36*
X618445D02*
X618911Y589285D01*
X619349Y589198D01*
X619728Y589110D01*
X620048Y589023D01*
X620282Y588935D01*
X620428Y588877D01*
X620486Y588848D01*
X620894Y588644D01*
X621273Y588410D01*
X621594Y588177D01*
X621885Y587973D01*
X622090Y587769D01*
X622265Y587594D01*
X622381Y587477D01*
X622410Y587448D01*
X622673Y587098D01*
X622935Y586719D01*
X623139Y586369D01*
X623314Y586019D01*
X623431Y585728D01*
X623518Y585465D01*
X623577Y585320D01*
X623606Y585290D01*
Y585261D01*
X623752Y584795D01*
X623839Y584299D01*
X623927Y583832D01*
X623956Y583395D01*
X623985Y583045D01*
X624014Y582753D01*
Y582637D01*
Y582549D01*
Y582520D01*
Y582491D01*
X623985Y581937D01*
X623956Y581441D01*
X623897Y580975D01*
X623810Y580537D01*
X623722Y580217D01*
X623664Y579954D01*
X623635Y579779D01*
X623606Y579750D01*
Y579721D01*
X623431Y579254D01*
X623227Y578846D01*
X622994Y578467D01*
X622789Y578146D01*
X622614Y577884D01*
X622469Y577709D01*
X622352Y577563D01*
X622323Y577534D01*
X622002Y577213D01*
X621652Y576922D01*
X621302Y576688D01*
X620981Y576484D01*
X620690Y576339D01*
X620457Y576222D01*
X620311Y576163D01*
X620252Y576134D01*
X619786Y575959D01*
X619290Y575843D01*
X618824Y575755D01*
X618357Y575697D01*
X617978Y575668D01*
X617657Y575639D01*
X616870D01*
X616345Y575668D01*
X615879Y575726D01*
X615470Y575784D01*
X615150Y575814D01*
X614887Y575872D01*
X614712Y575901D01*
X614654D01*
X614187Y576018D01*
X613779Y576105D01*
X613429Y576222D01*
X613108Y576339D01*
X612846Y576426D01*
X612671Y576513D01*
X612555Y576543D01*
X612525Y576572D01*
X613488Y579050D01*
X614042Y578817D01*
X614333Y578700D01*
X614596Y578642D01*
X614829Y578555D01*
X615004Y578496D01*
X615121Y578467D01*
X615179D01*
X615879Y578321D01*
X616228Y578292D01*
X616520Y578263D01*
X616753Y578234D01*
X617132D01*
X617657Y578263D01*
X618153Y578350D01*
X618561Y578467D01*
X618911Y578584D01*
X619203Y578700D01*
X619407Y578817D01*
X619524Y578904D01*
X619582Y578934D01*
X619903Y579225D01*
X620165Y579575D01*
X620369Y579954D01*
X620544Y580304D01*
X620661Y580625D01*
X620719Y580887D01*
X620777Y581062D01*
Y581091D01*
Y581121D01*
X612321Y582258D01*
X612292Y582462D01*
X612263Y582637D01*
Y582753D01*
Y582812D01*
Y583395D01*
X612292Y583891D01*
X612321Y584328D01*
X612379Y584766D01*
X612438Y585115D01*
X612525Y585407D01*
X612584Y585640D01*
X612613Y585757D01*
X612642Y585815D01*
X612788Y586223D01*
X612963Y586573D01*
X613167Y586894D01*
X613342Y587186D01*
X613488Y587390D01*
X613633Y587565D01*
X613721Y587681D01*
X613750Y587711D01*
X614012Y588002D01*
X614304Y588236D01*
X614596Y588440D01*
X614887Y588615D01*
X615121Y588760D01*
X615325Y588848D01*
X615441Y588906D01*
X615500Y588935D01*
X615908Y589081D01*
X616316Y589198D01*
X616724Y589256D01*
X617103Y589314D01*
X617424Y589343D01*
X617687Y589373D01*
X617920D01*
X618445Y589343D01*
D02*
G37*
G36*
X604623D02*
X605090Y589285D01*
X605527Y589198D01*
X605906Y589110D01*
X606227Y589023D01*
X606460Y588935D01*
X606606Y588877D01*
X606664Y588848D01*
X607072Y588644D01*
X607452Y588410D01*
X607772Y588177D01*
X608064Y587973D01*
X608268Y587769D01*
X608443Y587594D01*
X608560Y587477D01*
X608589Y587448D01*
X608851Y587098D01*
X609114Y586719D01*
X609318Y586369D01*
X609493Y586019D01*
X609609Y585728D01*
X609697Y585465D01*
X609755Y585320D01*
X609784Y585290D01*
Y585261D01*
X609930Y584795D01*
X610018Y584299D01*
X610105Y583832D01*
X610134Y583395D01*
X610163Y583045D01*
X610193Y582753D01*
Y582637D01*
Y582549D01*
Y582520D01*
Y582491D01*
X610163Y581937D01*
X610134Y581441D01*
X610076Y580975D01*
X609989Y580537D01*
X609901Y580217D01*
X609843Y579954D01*
X609813Y579779D01*
X609784Y579750D01*
Y579721D01*
X609609Y579254D01*
X609405Y578846D01*
X609172Y578467D01*
X608968Y578146D01*
X608793Y577884D01*
X608647Y577709D01*
X608531Y577563D01*
X608501Y577534D01*
X608181Y577213D01*
X607831Y576922D01*
X607481Y576688D01*
X607160Y576484D01*
X606868Y576339D01*
X606635Y576222D01*
X606489Y576163D01*
X606431Y576134D01*
X605965Y575959D01*
X605469Y575843D01*
X605002Y575755D01*
X604536Y575697D01*
X604157Y575668D01*
X603836Y575639D01*
X603049D01*
X602524Y575668D01*
X602057Y575726D01*
X601649Y575784D01*
X601328Y575814D01*
X601066Y575872D01*
X600891Y575901D01*
X600832D01*
X600366Y576018D01*
X599958Y576105D01*
X599608Y576222D01*
X599287Y576339D01*
X599025Y576426D01*
X598850Y576513D01*
X598733Y576543D01*
X598704Y576572D01*
X599666Y579050D01*
X600220Y578817D01*
X600512Y578700D01*
X600774Y578642D01*
X601007Y578555D01*
X601182Y578496D01*
X601299Y578467D01*
X601357D01*
X602057Y578321D01*
X602407Y578292D01*
X602699Y578263D01*
X602932Y578234D01*
X603311D01*
X603836Y578263D01*
X604332Y578350D01*
X604740Y578467D01*
X605090Y578584D01*
X605381Y578700D01*
X605585Y578817D01*
X605702Y578904D01*
X605760Y578934D01*
X606081Y579225D01*
X606344Y579575D01*
X606548Y579954D01*
X606723Y580304D01*
X606839Y580625D01*
X606898Y580887D01*
X606956Y581062D01*
Y581091D01*
Y581121D01*
X598500Y582258D01*
X598471Y582462D01*
X598441Y582637D01*
Y582753D01*
Y582812D01*
Y583395D01*
X598471Y583891D01*
X598500Y584328D01*
X598558Y584766D01*
X598616Y585115D01*
X598704Y585407D01*
X598762Y585640D01*
X598791Y585757D01*
X598820Y585815D01*
X598966Y586223D01*
X599141Y586573D01*
X599345Y586894D01*
X599520Y587186D01*
X599666Y587390D01*
X599812Y587565D01*
X599899Y587681D01*
X599929Y587711D01*
X600191Y588002D01*
X600483Y588236D01*
X600774Y588440D01*
X601066Y588615D01*
X601299Y588760D01*
X601503Y588848D01*
X601620Y588906D01*
X601678Y588935D01*
X602086Y589081D01*
X602495Y589198D01*
X602903Y589256D01*
X603282Y589314D01*
X603603Y589343D01*
X603865Y589373D01*
X604098D01*
X604623Y589343D01*
D02*
G37*
G36*
X576922D02*
X577388Y589285D01*
X577826Y589198D01*
X578205Y589110D01*
X578526Y589023D01*
X578759Y588935D01*
X578905Y588877D01*
X578963Y588848D01*
X579371Y588644D01*
X579750Y588410D01*
X580071Y588177D01*
X580363Y587973D01*
X580567Y587769D01*
X580742Y587594D01*
X580858Y587477D01*
X580888Y587448D01*
X581150Y587098D01*
X581413Y586719D01*
X581617Y586369D01*
X581791Y586019D01*
X581908Y585728D01*
X581996Y585465D01*
X582054Y585320D01*
X582083Y585290D01*
Y585261D01*
X582229Y584795D01*
X582316Y584299D01*
X582404Y583832D01*
X582433Y583395D01*
X582462Y583045D01*
X582491Y582753D01*
Y582637D01*
Y582549D01*
Y582520D01*
Y582491D01*
X582462Y581937D01*
X582433Y581441D01*
X582375Y580975D01*
X582287Y580537D01*
X582200Y580217D01*
X582141Y579954D01*
X582112Y579779D01*
X582083Y579750D01*
Y579721D01*
X581908Y579254D01*
X581704Y578846D01*
X581471Y578467D01*
X581267Y578146D01*
X581092Y577884D01*
X580946Y577709D01*
X580829Y577563D01*
X580800Y577534D01*
X580479Y577213D01*
X580129Y576922D01*
X579780Y576688D01*
X579459Y576484D01*
X579167Y576339D01*
X578934Y576222D01*
X578788Y576163D01*
X578730Y576134D01*
X578263Y575959D01*
X577768Y575843D01*
X577301Y575755D01*
X576834Y575697D01*
X576455Y575668D01*
X576135Y575639D01*
X575347D01*
X574823Y575668D01*
X574356Y575726D01*
X573948Y575784D01*
X573627Y575814D01*
X573364Y575872D01*
X573190Y575901D01*
X573131D01*
X572665Y576018D01*
X572257Y576105D01*
X571907Y576222D01*
X571586Y576339D01*
X571323Y576426D01*
X571148Y576513D01*
X571032Y576543D01*
X571003Y576572D01*
X571965Y579050D01*
X572519Y578817D01*
X572811Y578700D01*
X573073Y578642D01*
X573306Y578555D01*
X573481Y578496D01*
X573598Y578467D01*
X573656D01*
X574356Y578321D01*
X574706Y578292D01*
X574997Y578263D01*
X575231Y578234D01*
X575610D01*
X576135Y578263D01*
X576630Y578350D01*
X577039Y578467D01*
X577388Y578584D01*
X577680Y578700D01*
X577884Y578817D01*
X578001Y578904D01*
X578059Y578934D01*
X578380Y579225D01*
X578642Y579575D01*
X578846Y579954D01*
X579021Y580304D01*
X579138Y580625D01*
X579196Y580887D01*
X579255Y581062D01*
Y581091D01*
Y581121D01*
X570798Y582258D01*
X570769Y582462D01*
X570740Y582637D01*
Y582753D01*
Y582812D01*
Y583395D01*
X570769Y583891D01*
X570798Y584328D01*
X570857Y584766D01*
X570915Y585115D01*
X571003Y585407D01*
X571061Y585640D01*
X571090Y585757D01*
X571119Y585815D01*
X571265Y586223D01*
X571440Y586573D01*
X571644Y586894D01*
X571819Y587186D01*
X571965Y587390D01*
X572111Y587565D01*
X572198Y587681D01*
X572227Y587711D01*
X572490Y588002D01*
X572781Y588236D01*
X573073Y588440D01*
X573364Y588615D01*
X573598Y588760D01*
X573802Y588848D01*
X573918Y588906D01*
X573977Y588935D01*
X574385Y589081D01*
X574793Y589198D01*
X575201Y589256D01*
X575581Y589314D01*
X575901Y589343D01*
X576164Y589373D01*
X576397D01*
X576922Y589343D01*
D02*
G37*
G36*
X709159Y593863D02*
X709625Y593805D01*
X710034Y593776D01*
X710384Y593717D01*
X710646Y593659D01*
X710821Y593630D01*
X710879D01*
X711346Y593513D01*
X711783Y593397D01*
X712162Y593280D01*
X712512Y593192D01*
X712804Y593076D01*
X713008Y593018D01*
X713125Y592959D01*
X713183Y592930D01*
Y575930D01*
X709830D01*
Y582783D01*
X709596Y582753D01*
X709363Y582724D01*
X709159Y582695D01*
X709101D01*
X708751Y582666D01*
X708197D01*
X707584Y582695D01*
X707001Y582724D01*
X706476Y582783D01*
X706039Y582870D01*
X705689Y582958D01*
X705426Y583016D01*
X705252Y583045D01*
X705193Y583074D01*
X704727Y583249D01*
X704318Y583424D01*
X703939Y583628D01*
X703619Y583803D01*
X703385Y583949D01*
X703181Y584095D01*
X703065Y584182D01*
X703036Y584212D01*
X702715Y584503D01*
X702452Y584824D01*
X702248Y585115D01*
X702044Y585378D01*
X701898Y585640D01*
X701811Y585815D01*
X701752Y585932D01*
X701723Y585990D01*
X701578Y586369D01*
X701461Y586777D01*
X701403Y587127D01*
X701344Y587477D01*
X701315Y587769D01*
X701286Y588002D01*
Y588148D01*
Y588206D01*
X701315Y588673D01*
X701373Y589139D01*
X701461Y589548D01*
X701548Y589956D01*
X701840Y590656D01*
X701986Y590976D01*
X702161Y591239D01*
X702336Y591501D01*
X702481Y591735D01*
X702627Y591909D01*
X702773Y592055D01*
X702860Y592201D01*
X702948Y592289D01*
X703006Y592318D01*
X703036Y592347D01*
X703385Y592609D01*
X703764Y592872D01*
X704144Y593076D01*
X704552Y593251D01*
X705397Y593513D01*
X706214Y593688D01*
X706593Y593776D01*
X706943Y593805D01*
X707264Y593834D01*
X707526Y593863D01*
X707759Y593892D01*
X708634D01*
X709159Y593863D01*
D02*
G37*
G36*
X646408Y589314D02*
X646904Y589285D01*
X647341Y589227D01*
X647720Y589169D01*
X648012Y589139D01*
X648187Y589081D01*
X648245D01*
X648741Y588964D01*
X649178Y588877D01*
X649587Y588760D01*
X649937Y588644D01*
X650199Y588556D01*
X650432Y588469D01*
X650549Y588440D01*
X650607Y588410D01*
Y575930D01*
X647312D01*
Y586398D01*
X647050Y586486D01*
X646816Y586544D01*
X646612Y586603D01*
X646554D01*
X646233Y586661D01*
X645942Y586690D01*
X645329D01*
X645067Y586661D01*
X644805Y586632D01*
X644600Y586603D01*
X644396Y586544D01*
X644280Y586515D01*
X644192Y586486D01*
X644163D01*
X643551Y589256D01*
X643813Y589285D01*
X644046D01*
X644221Y589314D01*
X644309D01*
X644630Y589343D01*
X644950Y589373D01*
X645825D01*
X646408Y589314D01*
D02*
G37*
G36*
X635270Y575930D02*
X631916D01*
Y583453D01*
X626551D01*
Y586282D01*
X631916D01*
Y590714D01*
X625997D01*
Y593572D01*
X635270D01*
Y575930D01*
D02*
G37*
G36*
X564004Y589314D02*
X564500Y589285D01*
X564938Y589227D01*
X565317Y589169D01*
X565608Y589139D01*
X565783Y589081D01*
X565841D01*
X566337Y588964D01*
X566774Y588877D01*
X567183Y588760D01*
X567533Y588644D01*
X567795Y588556D01*
X568028Y588469D01*
X568145Y588440D01*
X568203Y588410D01*
Y575930D01*
X564908D01*
Y586398D01*
X564646Y586486D01*
X564413Y586544D01*
X564208Y586603D01*
X564150D01*
X563829Y586661D01*
X563538Y586690D01*
X562925D01*
X562663Y586661D01*
X562401Y586632D01*
X562197Y586603D01*
X561992Y586544D01*
X561876Y586515D01*
X561788Y586486D01*
X561759D01*
X561147Y589256D01*
X561409Y589285D01*
X561642D01*
X561818Y589314D01*
X561905D01*
X562226Y589343D01*
X562546Y589373D01*
X563421D01*
X564004Y589314D01*
D02*
G37*
G36*
X538957Y582666D02*
Y580275D01*
X531054D01*
Y575930D01*
X527964D01*
Y580275D01*
X526214D01*
Y582666D01*
X527964D01*
Y593572D01*
X531609D01*
X538957Y582666D01*
D02*
G37*
G36*
X486499Y579867D02*
X486762Y579808D01*
X486937Y579750D01*
X486966Y579721D01*
X486995D01*
X487257Y579575D01*
X487462Y579429D01*
X487607Y579313D01*
X487666Y579254D01*
X487841Y579050D01*
X487986Y578846D01*
X488074Y578671D01*
X488103Y578642D01*
Y578613D01*
X488190Y578321D01*
X488249Y578059D01*
X488278Y577942D01*
Y577884D01*
Y577826D01*
Y577796D01*
X488249Y577476D01*
X488190Y577213D01*
X488132Y577038D01*
X488103Y577009D01*
Y576980D01*
X487957Y576717D01*
X487811Y576513D01*
X487695Y576368D01*
X487666Y576309D01*
X487432Y576134D01*
X487228Y576018D01*
X487053Y575930D01*
X487024Y575901D01*
X486995D01*
X486703Y575814D01*
X486441Y575755D01*
X486324Y575726D01*
X486179D01*
X485858Y575755D01*
X485595Y575814D01*
X485420Y575872D01*
X485391Y575901D01*
X485362D01*
X485100Y576018D01*
X484896Y576163D01*
X484750Y576280D01*
X484691Y576309D01*
X484487Y576543D01*
X484371Y576747D01*
X484283Y576922D01*
X484254Y576951D01*
Y576980D01*
X484137Y577272D01*
X484108Y577534D01*
X484079Y577651D01*
Y577709D01*
Y577767D01*
Y577796D01*
X484108Y578117D01*
X484166Y578380D01*
X484225Y578555D01*
X484254Y578584D01*
Y578613D01*
X484371Y578875D01*
X484516Y579079D01*
X484633Y579196D01*
X484691Y579254D01*
X484925Y579459D01*
X485129Y579604D01*
X485304Y579692D01*
X485333Y579721D01*
X485362D01*
X485654Y579838D01*
X485916Y579867D01*
X486033Y579896D01*
X486179D01*
X486499Y579867D01*
D02*
G37*
G36*
X693996Y589343D02*
X694463Y589285D01*
X694900Y589198D01*
X695279Y589110D01*
X695600Y589023D01*
X695833Y588935D01*
X695979Y588877D01*
X696037Y588848D01*
X696445Y588644D01*
X696795Y588410D01*
X697116Y588148D01*
X697379Y587915D01*
X697612Y587711D01*
X697758Y587536D01*
X697874Y587419D01*
X697904Y587390D01*
X698166Y587040D01*
X698399Y586661D01*
X698603Y586311D01*
X698749Y585961D01*
X698866Y585670D01*
X698982Y585436D01*
X699012Y585290D01*
X699041Y585261D01*
Y585232D01*
X699157Y584766D01*
X699245Y584270D01*
X699332Y583803D01*
X699361Y583395D01*
X699391Y583016D01*
X699420Y582753D01*
Y582637D01*
Y582549D01*
Y582520D01*
Y582491D01*
X699391Y581966D01*
X699361Y581441D01*
X699303Y580975D01*
X699216Y580567D01*
X699157Y580246D01*
X699099Y579983D01*
X699070Y579809D01*
X699041Y579779D01*
Y579750D01*
X698895Y579284D01*
X698691Y578875D01*
X698516Y578496D01*
X698341Y578176D01*
X698166Y577913D01*
X698020Y577738D01*
X697933Y577592D01*
X697904Y577563D01*
X697612Y577243D01*
X697291Y576951D01*
X696970Y576718D01*
X696679Y576513D01*
X696416Y576339D01*
X696212Y576222D01*
X696096Y576164D01*
X696037Y576134D01*
X695600Y575960D01*
X695163Y575843D01*
X694725Y575755D01*
X694317Y575697D01*
X693996Y575668D01*
X693705Y575639D01*
X693471D01*
X692946Y575668D01*
X692480Y575726D01*
X692042Y575784D01*
X691663Y575901D01*
X691372Y575989D01*
X691139Y576047D01*
X690993Y576105D01*
X690934Y576134D01*
X690526Y576339D01*
X690176Y576572D01*
X689855Y576805D01*
X689593Y577038D01*
X689360Y577242D01*
X689214Y577417D01*
X689097Y577534D01*
X689068Y577563D01*
X688806Y577913D01*
X688572Y578292D01*
X688368Y578671D01*
X688223Y579021D01*
X688077Y579313D01*
X687989Y579546D01*
X687960Y579692D01*
X687931Y579750D01*
X687785Y580246D01*
X687698Y580712D01*
X687610Y581179D01*
X687581Y581616D01*
X687552Y581966D01*
X687523Y582258D01*
Y582345D01*
Y582433D01*
Y582462D01*
Y582491D01*
X687552Y583045D01*
X687581Y583541D01*
X687639Y584007D01*
X687727Y584416D01*
X687814Y584766D01*
X687873Y585028D01*
X687902Y585174D01*
X687931Y585232D01*
X688077Y585699D01*
X688281Y586107D01*
X688456Y586457D01*
X688631Y586777D01*
X688806Y587040D01*
X688952Y587244D01*
X689039Y587361D01*
X689068Y587390D01*
X689360Y587711D01*
X689681Y588002D01*
X690001Y588265D01*
X690293Y588469D01*
X690555Y588644D01*
X690760Y588760D01*
X690876Y588819D01*
X690934Y588848D01*
X691372Y589023D01*
X691809Y589139D01*
X692217Y589256D01*
X692626Y589314D01*
X692946Y589343D01*
X693238Y589373D01*
X693471D01*
X693996Y589343D01*
D02*
G37*
G36*
X588352Y588935D02*
X588615Y589023D01*
X588906Y589081D01*
X589023D01*
X589110Y589110D01*
X589198D01*
X589577Y589169D01*
X589898Y589198D01*
X590219D01*
X590773Y589169D01*
X591268Y589110D01*
X591735Y589052D01*
X592114Y588964D01*
X592464Y588848D01*
X592697Y588789D01*
X592843Y588731D01*
X592901Y588702D01*
X593309Y588498D01*
X593689Y588265D01*
X594009Y588031D01*
X594301Y587827D01*
X594505Y587623D01*
X594680Y587448D01*
X594796Y587332D01*
X594826Y587302D01*
X595088Y586952D01*
X595350Y586603D01*
X595526Y586253D01*
X595700Y585903D01*
X595817Y585611D01*
X595934Y585378D01*
X595963Y585232D01*
X595992Y585203D01*
Y585174D01*
X596109Y584707D01*
X596196Y584212D01*
X596284Y583745D01*
X596313Y583307D01*
X596342Y582958D01*
X596371Y582666D01*
Y582549D01*
Y582462D01*
Y582433D01*
Y582404D01*
X596342Y581820D01*
X596313Y581266D01*
X596225Y580742D01*
X596109Y580275D01*
X595992Y579838D01*
X595846Y579429D01*
X595700Y579050D01*
X595526Y578700D01*
X595380Y578409D01*
X595234Y578146D01*
X595088Y577942D01*
X594972Y577738D01*
X594855Y577592D01*
X594767Y577505D01*
X594738Y577447D01*
X594709Y577417D01*
X594388Y577097D01*
X594009Y576834D01*
X593630Y576601D01*
X593222Y576397D01*
X592814Y576222D01*
X592406Y576076D01*
X591618Y575872D01*
X591268Y575784D01*
X590918Y575726D01*
X590598Y575697D01*
X590335Y575668D01*
X590131Y575639D01*
X589256D01*
X588731Y575697D01*
X588265Y575726D01*
X587827Y575784D01*
X587507Y575843D01*
X587244Y575872D01*
X587069Y575930D01*
X587011D01*
X586544Y576047D01*
X586165Y576134D01*
X585816Y576251D01*
X585524Y576339D01*
X585291Y576426D01*
X585145Y576513D01*
X585028Y576543D01*
X584999Y576572D01*
Y595088D01*
X588352D01*
Y588935D01*
D02*
G37*
G36*
X476119Y593863D02*
X476643Y593776D01*
X477110Y593659D01*
X477518Y593542D01*
X477839Y593426D01*
X478101Y593309D01*
X478247Y593222D01*
X478306Y593192D01*
X478714Y592901D01*
X479093Y592580D01*
X479414Y592259D01*
X479676Y591968D01*
X479909Y591676D01*
X480055Y591443D01*
X480172Y591297D01*
X480201Y591268D01*
Y591239D01*
X480463Y590772D01*
X480667Y590277D01*
X480872Y589781D01*
X481017Y589343D01*
X481134Y588935D01*
X481221Y588644D01*
X481251Y588527D01*
Y588439D01*
X481280Y588381D01*
Y588352D01*
X481396Y587711D01*
X481484Y587098D01*
X481542Y586486D01*
X481571Y585932D01*
X481600Y585465D01*
X481630Y585261D01*
Y585086D01*
Y584940D01*
Y584853D01*
Y584795D01*
Y584766D01*
X481600Y584036D01*
X481571Y583366D01*
X481513Y582753D01*
X481455Y582229D01*
X481396Y581791D01*
X481367Y581587D01*
X481338Y581441D01*
X481309Y581325D01*
X481280Y581237D01*
Y581179D01*
Y581150D01*
X481134Y580537D01*
X480959Y579983D01*
X480784Y579488D01*
X480609Y579079D01*
X480463Y578730D01*
X480317Y578467D01*
X480230Y578292D01*
X480201Y578263D01*
Y578234D01*
X479909Y577796D01*
X479589Y577417D01*
X479268Y577097D01*
X478976Y576805D01*
X478714Y576601D01*
X478510Y576426D01*
X478364Y576339D01*
X478306Y576309D01*
X477839Y576076D01*
X477372Y575930D01*
X476906Y575814D01*
X476469Y575726D01*
X476089Y575668D01*
X475798Y575639D01*
X475535D01*
X474952Y575668D01*
X474427Y575755D01*
X473961Y575843D01*
X473553Y575989D01*
X473232Y576105D01*
X472969Y576193D01*
X472824Y576280D01*
X472765Y576309D01*
X472357Y576601D01*
X471978Y576893D01*
X471657Y577213D01*
X471366Y577534D01*
X471161Y577796D01*
X470987Y578030D01*
X470899Y578176D01*
X470870Y578234D01*
X470607Y578730D01*
X470403Y579225D01*
X470199Y579721D01*
X470053Y580158D01*
X469937Y580567D01*
X469849Y580858D01*
X469820Y580975D01*
Y581062D01*
X469791Y581121D01*
Y581150D01*
X469674Y581791D01*
X469587Y582404D01*
X469529Y583016D01*
X469470Y583570D01*
Y584066D01*
X469441Y584270D01*
Y584445D01*
Y584561D01*
Y584678D01*
Y584736D01*
Y584766D01*
Y585465D01*
X469499Y586136D01*
X469558Y586748D01*
X469616Y587273D01*
X469674Y587740D01*
X469704Y587915D01*
X469733Y588060D01*
X469762Y588177D01*
Y588265D01*
X469791Y588323D01*
Y588352D01*
X469937Y588964D01*
X470112Y589518D01*
X470287Y589985D01*
X470462Y590422D01*
X470607Y590772D01*
X470753Y591035D01*
X470841Y591180D01*
X470870Y591239D01*
X471161Y591676D01*
X471482Y592084D01*
X471803Y592405D01*
X472095Y592697D01*
X472357Y592901D01*
X472561Y593076D01*
X472707Y593163D01*
X472765Y593192D01*
X473232Y593426D01*
X473698Y593601D01*
X474165Y593717D01*
X474573Y593805D01*
X474952Y593863D01*
X475273Y593892D01*
X475535D01*
X476119Y593863D01*
D02*
G37*
G36*
X672083Y553594D02*
X671762Y553448D01*
X671441Y553332D01*
X671092Y553215D01*
X670771Y553128D01*
X670508Y553069D01*
X670275Y553011D01*
X670129Y552953D01*
X670071D01*
X669138Y552778D01*
X668700Y552719D01*
X668292Y552690D01*
X667942D01*
X667680Y552661D01*
X667447D01*
X666863Y552690D01*
X666339Y552749D01*
X665814Y552836D01*
X665347Y552924D01*
X664910Y553069D01*
X664502Y553215D01*
X664122Y553361D01*
X663802Y553536D01*
X663510Y553711D01*
X663248Y553857D01*
X663015Y554002D01*
X662840Y554148D01*
X662694Y554236D01*
X662606Y554323D01*
X662548Y554382D01*
X662519Y554411D01*
X662198Y554761D01*
X661936Y555140D01*
X661673Y555577D01*
X661469Y556015D01*
X661294Y556452D01*
X661148Y556918D01*
X660944Y557793D01*
X660857Y558201D01*
X660798Y558610D01*
X660769Y558960D01*
X660740Y559251D01*
X660711Y559514D01*
Y559689D01*
Y559834D01*
Y559864D01*
X660740Y560418D01*
X660769Y560913D01*
X660857Y561380D01*
X660915Y561788D01*
X661003Y562109D01*
X661090Y562342D01*
X661119Y562488D01*
X661148Y562546D01*
X661323Y562984D01*
X661498Y563363D01*
X661702Y563713D01*
X661877Y564004D01*
X662052Y564237D01*
X662198Y564412D01*
X662286Y564529D01*
X662315Y564558D01*
X662606Y564850D01*
X662927Y565112D01*
X663219Y565345D01*
X663510Y565520D01*
X663773Y565666D01*
X663977Y565754D01*
X664093Y565812D01*
X664152Y565841D01*
X664560Y565987D01*
X664939Y566104D01*
X665347Y566162D01*
X665697Y566220D01*
X665989Y566249D01*
X666251Y566279D01*
X666455D01*
X666893Y566249D01*
X667301Y566220D01*
X667476Y566191D01*
X667592Y566162D01*
X667680Y566133D01*
X667709D01*
X668147Y566045D01*
X668321Y565987D01*
X668496Y565929D01*
X668613Y565870D01*
X668700Y565841D01*
X668759Y565812D01*
X668788D01*
Y572110D01*
X672083D01*
Y553594D01*
D02*
G37*
G36*
X686021Y552953D02*
X682726D01*
Y563217D01*
X682405Y563363D01*
X682114Y563479D01*
X681997Y563508D01*
X681910Y563538D01*
X681851Y563567D01*
X681822D01*
X681443Y563654D01*
X681122Y563683D01*
X680976Y563713D01*
X680802D01*
X680393Y563683D01*
X680043Y563625D01*
X679752Y563538D01*
X679489Y563450D01*
X679314Y563334D01*
X679169Y563246D01*
X679081Y563188D01*
X679052Y563158D01*
X678848Y562925D01*
X678673Y562692D01*
X678556Y562400D01*
X678498Y562138D01*
X678440Y561905D01*
X678410Y561701D01*
Y561584D01*
Y561526D01*
Y552953D01*
X675086D01*
Y561875D01*
Y562255D01*
X675145Y562634D01*
X675291Y563304D01*
X675495Y563858D01*
X675728Y564325D01*
X675961Y564704D01*
X676165Y564966D01*
X676311Y565112D01*
X676340Y565171D01*
X676369D01*
X676894Y565550D01*
X677448Y565841D01*
X678061Y566045D01*
X678644Y566162D01*
X679139Y566249D01*
X679373Y566279D01*
X679577D01*
X679723Y566308D01*
X679956D01*
X680481Y566279D01*
X680743Y566249D01*
X680947Y566220D01*
X681152Y566191D01*
X681297Y566162D01*
X681385Y566133D01*
X681414D01*
X681939Y565987D01*
X682143Y565929D01*
X682347Y565841D01*
X682493Y565783D01*
X682609Y565754D01*
X682697Y565695D01*
X682726D01*
Y572110D01*
X686021D01*
Y552953D01*
D02*
G37*
G36*
X710631Y566337D02*
X711098Y566308D01*
X711506Y566249D01*
X711856Y566191D01*
X712119Y566133D01*
X712293Y566104D01*
X712323Y566074D01*
X712352D01*
X712818Y565958D01*
X713227Y565841D01*
X713606Y565754D01*
X713897Y565637D01*
X714160Y565550D01*
X714335Y565491D01*
X714451Y565462D01*
X714481Y565433D01*
X713664Y563188D01*
X713402Y563304D01*
X713139Y563363D01*
X712935Y563421D01*
X712906Y563450D01*
X712877D01*
X712527Y563567D01*
X712235Y563625D01*
X712119Y563683D01*
X712031D01*
X711973Y563713D01*
X711944D01*
X711564Y563800D01*
X711273Y563858D01*
X711127D01*
X711040Y563887D01*
X710952D01*
X710573Y563946D01*
X710252Y563975D01*
X709961D01*
X709553Y563946D01*
X709203Y563917D01*
X708911Y563829D01*
X708649Y563771D01*
X708445Y563683D01*
X708299Y563596D01*
X708211Y563567D01*
X708182Y563538D01*
X707949Y563363D01*
X707803Y563129D01*
X707686Y562896D01*
X707599Y562663D01*
X707541Y562430D01*
X707511Y562255D01*
Y562138D01*
Y562080D01*
Y561409D01*
X708065Y561380D01*
X708590Y561321D01*
X709086Y561263D01*
X709523Y561205D01*
X709873Y561176D01*
X710165Y561117D01*
X710340Y561088D01*
X710398D01*
X710894Y561001D01*
X711360Y560884D01*
X711769Y560768D01*
X712148Y560651D01*
X712439Y560563D01*
X712643Y560476D01*
X712789Y560418D01*
X712848Y560388D01*
X713227Y560214D01*
X713577Y559980D01*
X713868Y559776D01*
X714101Y559572D01*
X714305Y559368D01*
X714451Y559222D01*
X714539Y559105D01*
X714568Y559076D01*
X714772Y558726D01*
X714947Y558377D01*
X715064Y558027D01*
X715122Y557677D01*
X715180Y557356D01*
X715209Y557123D01*
Y556948D01*
Y556918D01*
Y556889D01*
X715180Y556510D01*
X715151Y556189D01*
X714976Y555548D01*
X714743Y555023D01*
X714481Y554586D01*
X714218Y554236D01*
X713985Y553973D01*
X713810Y553828D01*
X713781Y553769D01*
X713752D01*
X713460Y553565D01*
X713139Y553390D01*
X712439Y553128D01*
X711681Y552924D01*
X710952Y552807D01*
X710631Y552749D01*
X710311Y552720D01*
X710019Y552690D01*
X709786D01*
X709582Y552661D01*
X708736D01*
X708211Y552720D01*
X707745Y552749D01*
X707307Y552807D01*
X706957Y552865D01*
X706695Y552895D01*
X706520Y552953D01*
X706462D01*
X705966Y553069D01*
X705558Y553157D01*
X705208Y553274D01*
X704887Y553361D01*
X704654Y553449D01*
X704508Y553536D01*
X704391Y553565D01*
X704362Y553594D01*
Y561701D01*
Y562167D01*
X704420Y562575D01*
X704479Y562954D01*
X704566Y563334D01*
X704683Y563654D01*
X704800Y563946D01*
X704916Y564208D01*
X705033Y564442D01*
X705179Y564646D01*
X705295Y564821D01*
X705529Y565083D01*
X705674Y565229D01*
X705704Y565287D01*
X705733D01*
X706287Y565666D01*
X706928Y565929D01*
X707570Y566133D01*
X708182Y566249D01*
X708736Y566337D01*
X708998Y566366D01*
X709203D01*
X709378Y566395D01*
X710136D01*
X710631Y566337D01*
D02*
G37*
G36*
X588396Y566337D02*
X588863Y566308D01*
X589271Y566249D01*
X589621Y566191D01*
X589883Y566133D01*
X590058Y566104D01*
X590087Y566074D01*
X590117D01*
X590583Y565958D01*
X590991Y565841D01*
X591370Y565754D01*
X591662Y565637D01*
X591924Y565550D01*
X592099Y565491D01*
X592216Y565462D01*
X592245Y565433D01*
X591429Y563188D01*
X591166Y563304D01*
X590904Y563363D01*
X590700Y563421D01*
X590671Y563450D01*
X590641D01*
X590291Y563567D01*
X590000Y563625D01*
X589883Y563683D01*
X589796D01*
X589737Y563713D01*
X589708D01*
X589329Y563800D01*
X589038Y563858D01*
X588892D01*
X588804Y563887D01*
X588717D01*
X588338Y563946D01*
X588017Y563975D01*
X587725D01*
X587317Y563946D01*
X586967Y563917D01*
X586676Y563829D01*
X586413Y563771D01*
X586209Y563683D01*
X586063Y563596D01*
X585976Y563567D01*
X585947Y563538D01*
X585713Y563363D01*
X585568Y563129D01*
X585451Y562896D01*
X585364Y562663D01*
X585305Y562430D01*
X585276Y562255D01*
Y562138D01*
Y562080D01*
Y561409D01*
X585830Y561380D01*
X586355Y561321D01*
X586851Y561263D01*
X587288Y561205D01*
X587638Y561176D01*
X587929Y561117D01*
X588105Y561088D01*
X588163D01*
X588658Y561001D01*
X589125Y560884D01*
X589533Y560768D01*
X589912Y560651D01*
X590204Y560563D01*
X590408Y560476D01*
X590554Y560418D01*
X590612Y560388D01*
X590991Y560214D01*
X591341Y559980D01*
X591633Y559776D01*
X591866Y559572D01*
X592070Y559368D01*
X592216Y559222D01*
X592303Y559105D01*
X592333Y559076D01*
X592537Y558726D01*
X592712Y558376D01*
X592828Y558027D01*
X592887Y557677D01*
X592945Y557356D01*
X592974Y557123D01*
Y556948D01*
Y556918D01*
Y556889D01*
X592945Y556510D01*
X592916Y556189D01*
X592741Y555548D01*
X592508Y555023D01*
X592245Y554586D01*
X591983Y554236D01*
X591749Y553973D01*
X591574Y553828D01*
X591545Y553769D01*
X591516D01*
X591225Y553565D01*
X590904Y553390D01*
X590204Y553128D01*
X589446Y552924D01*
X588717Y552807D01*
X588396Y552749D01*
X588075Y552719D01*
X587784Y552690D01*
X587551D01*
X587346Y552661D01*
X586501D01*
X585976Y552719D01*
X585509Y552749D01*
X585072Y552807D01*
X584722Y552865D01*
X584460Y552895D01*
X584285Y552953D01*
X584226D01*
X583731Y553069D01*
X583322Y553157D01*
X582972Y553274D01*
X582652Y553361D01*
X582418Y553448D01*
X582273Y553536D01*
X582156Y553565D01*
X582127Y553594D01*
Y561701D01*
Y562167D01*
X582185Y562575D01*
X582243Y562954D01*
X582331Y563334D01*
X582448Y563654D01*
X582564Y563946D01*
X582681Y564208D01*
X582798Y564441D01*
X582943Y564646D01*
X583060Y564821D01*
X583293Y565083D01*
X583439Y565229D01*
X583468Y565287D01*
X583497D01*
X584051Y565666D01*
X584693Y565929D01*
X585334Y566133D01*
X585947Y566249D01*
X586501Y566337D01*
X586763Y566366D01*
X586967D01*
X587142Y566395D01*
X587900D01*
X588396Y566337D01*
D02*
G37*
G36*
X517568Y559455D02*
X510570D01*
Y562284D01*
X517568D01*
Y559455D01*
D02*
G37*
G36*
X451348Y570886D02*
X451873Y570827D01*
X452339Y570740D01*
X452747Y570623D01*
X453068Y570507D01*
X453331Y570419D01*
X453506Y570361D01*
X453535Y570332D01*
X453564D01*
X454030Y570098D01*
X454439Y569836D01*
X454818Y569544D01*
X455139Y569282D01*
X455401Y569020D01*
X455605Y568815D01*
X455722Y568699D01*
X455780Y568640D01*
X456101Y568203D01*
X456392Y567707D01*
X456655Y567241D01*
X456859Y566774D01*
X457034Y566395D01*
X457150Y566074D01*
X457209Y565958D01*
X457238Y565870D01*
X457267Y565812D01*
Y565783D01*
X457442Y565112D01*
X457588Y564441D01*
X457675Y563771D01*
X457763Y563129D01*
X457792Y562604D01*
Y562371D01*
X457821Y562167D01*
Y562021D01*
Y561875D01*
Y561817D01*
Y561788D01*
X457792Y560942D01*
X457734Y560184D01*
X457646Y559484D01*
X457530Y558901D01*
X457500Y558639D01*
X457442Y558406D01*
X457384Y558201D01*
X457355Y558056D01*
X457326Y557910D01*
X457296Y557822D01*
X457267Y557764D01*
Y557735D01*
X457034Y557123D01*
X456801Y556568D01*
X456538Y556102D01*
X456305Y555694D01*
X456101Y555344D01*
X455926Y555111D01*
X455809Y554965D01*
X455780Y554907D01*
X455401Y554498D01*
X455022Y554178D01*
X454643Y553886D01*
X454322Y553624D01*
X454001Y553448D01*
X453768Y553332D01*
X453622Y553244D01*
X453564Y553215D01*
X453068Y553040D01*
X452602Y552895D01*
X452135Y552807D01*
X451698Y552719D01*
X451348Y552690D01*
X451056Y552661D01*
X450823D01*
X450006Y552690D01*
X449277Y552807D01*
X448636Y552953D01*
X448053Y553128D01*
X447616Y553303D01*
X447411Y553390D01*
X447266Y553448D01*
X447149Y553507D01*
X447061Y553565D01*
X447003Y553594D01*
X446974D01*
X448053Y556394D01*
X448403Y556189D01*
X448753Y556044D01*
X448899Y555985D01*
X449015Y555927D01*
X449073Y555898D01*
X449103D01*
X449540Y555810D01*
X449977Y555752D01*
X450152Y555723D01*
X450415D01*
X450736Y555752D01*
X451027Y555781D01*
X451552Y555956D01*
X452048Y556189D01*
X452456Y556481D01*
X452777Y556773D01*
X453010Y557006D01*
X453156Y557181D01*
X453214Y557210D01*
Y557239D01*
X453389Y557560D01*
X453564Y557881D01*
X453826Y558610D01*
X454030Y559368D01*
X454147Y560097D01*
X454205Y560447D01*
X454235Y560768D01*
X454264Y561059D01*
Y561292D01*
X454293Y561496D01*
Y561671D01*
Y561759D01*
Y561788D01*
Y562342D01*
X454235Y562867D01*
X454205Y563334D01*
X454118Y563771D01*
X454030Y564208D01*
X453943Y564558D01*
X453856Y564908D01*
X453739Y565229D01*
X453651Y565491D01*
X453564Y565724D01*
X453476Y565929D01*
X453389Y566074D01*
X453302Y566191D01*
X453272Y566308D01*
X453214Y566337D01*
Y566366D01*
X453010Y566628D01*
X452777Y566891D01*
X452543Y567095D01*
X452310Y567270D01*
X451843Y567532D01*
X451406Y567707D01*
X450998Y567824D01*
X450706Y567882D01*
X450590Y567911D01*
X450415D01*
X449890Y567882D01*
X449686Y567853D01*
X449482Y567824D01*
X449336Y567766D01*
X449190Y567737D01*
X449132Y567707D01*
X449103D01*
X448694Y567532D01*
X448344Y567387D01*
X448228Y567328D01*
X448140Y567270D01*
X448082Y567212D01*
X448053D01*
X446974Y569953D01*
X447616Y570273D01*
X448257Y570507D01*
X448899Y570682D01*
X449511Y570798D01*
X450036Y570857D01*
X450269Y570886D01*
X450444Y570915D01*
X450823D01*
X451348Y570886D01*
D02*
G37*
G36*
X736525Y569020D02*
Y566104D01*
X738216D01*
Y563596D01*
X736525D01*
Y556889D01*
X736496Y556160D01*
X736379Y555548D01*
X736233Y554994D01*
X736058Y554557D01*
X735912Y554236D01*
X735767Y554003D01*
X735650Y553857D01*
X735621Y553798D01*
X735242Y553449D01*
X734804Y553215D01*
X734338Y553040D01*
X733871Y552895D01*
X733434Y552836D01*
X733113Y552807D01*
X732967Y552778D01*
X732792D01*
X732355Y552807D01*
X732005Y552836D01*
X731859D01*
X731743Y552865D01*
X731655D01*
X731276Y552953D01*
X731014Y553011D01*
X730868Y553069D01*
X730810Y553099D01*
Y555869D01*
X730926Y555810D01*
X731072Y555752D01*
X731160Y555723D01*
X731218D01*
X731422Y555694D01*
X731568Y555665D01*
X731743D01*
X731976Y555694D01*
X732180Y555723D01*
X732355Y555781D01*
X732530Y555840D01*
X732647Y555898D01*
X732734Y555927D01*
X732792Y555985D01*
X732822D01*
X732967Y556131D01*
X733084Y556306D01*
X733142Y556481D01*
X733201Y556685D01*
X733230Y556860D01*
X733259Y556977D01*
Y557094D01*
Y557123D01*
Y563596D01*
X730810D01*
Y566104D01*
X733259D01*
Y569982D01*
X736525Y569020D01*
D02*
G37*
G36*
X694127D02*
Y566104D01*
X695819D01*
Y563596D01*
X694127D01*
Y556889D01*
X694098Y556160D01*
X693981Y555548D01*
X693836Y554994D01*
X693661Y554557D01*
X693515Y554236D01*
X693369Y554003D01*
X693253Y553857D01*
X693223Y553798D01*
X692844Y553448D01*
X692407Y553215D01*
X691940Y553040D01*
X691474Y552895D01*
X691037Y552836D01*
X690716Y552807D01*
X690570Y552778D01*
X690395D01*
X689958Y552807D01*
X689608Y552836D01*
X689462D01*
X689345Y552865D01*
X689258D01*
X688879Y552953D01*
X688616Y553011D01*
X688471Y553069D01*
X688412Y553099D01*
Y555869D01*
X688529Y555810D01*
X688675Y555752D01*
X688762Y555723D01*
X688820D01*
X689025Y555694D01*
X689170Y555665D01*
X689345D01*
X689578Y555694D01*
X689783Y555723D01*
X689958Y555781D01*
X690133Y555840D01*
X690249Y555898D01*
X690337Y555927D01*
X690395Y555985D01*
X690424D01*
X690570Y556131D01*
X690687Y556306D01*
X690745Y556481D01*
X690803Y556685D01*
X690832Y556860D01*
X690862Y556977D01*
Y557093D01*
Y557123D01*
Y563596D01*
X688412D01*
Y566104D01*
X690862D01*
Y569982D01*
X694127Y569020D01*
D02*
G37*
G36*
X560170Y558172D02*
X560141Y557677D01*
X560112Y557239D01*
X560024Y556831D01*
X559937Y556481D01*
X559878Y556219D01*
X559791Y555985D01*
X559762Y555869D01*
X559733Y555810D01*
X559529Y555461D01*
X559324Y555140D01*
X559120Y554848D01*
X558916Y554586D01*
X558741Y554382D01*
X558595Y554236D01*
X558479Y554148D01*
X558450Y554119D01*
X558129Y553886D01*
X557808Y553653D01*
X557487Y553478D01*
X557196Y553332D01*
X556933Y553215D01*
X556729Y553128D01*
X556613Y553099D01*
X556554Y553069D01*
X556146Y552953D01*
X555709Y552865D01*
X555300Y552807D01*
X554950Y552778D01*
X554630Y552749D01*
X554367Y552719D01*
X554163D01*
X553697Y552749D01*
X553230Y552778D01*
X552822Y552836D01*
X552472Y552895D01*
X552180Y552953D01*
X551947Y553011D01*
X551830Y553069D01*
X551772D01*
X551364Y553215D01*
X551014Y553390D01*
X550693Y553565D01*
X550402Y553740D01*
X550197Y553886D01*
X550023Y554002D01*
X549906Y554090D01*
X549877Y554119D01*
X549585Y554382D01*
X549323Y554673D01*
X549119Y554965D01*
X548914Y555227D01*
X548798Y555461D01*
X548681Y555635D01*
X548623Y555781D01*
X548594Y555810D01*
X548448Y556219D01*
X548331Y556598D01*
X548244Y557006D01*
X548186Y557385D01*
X548156Y557706D01*
X548127Y557939D01*
Y558114D01*
Y558172D01*
Y570594D01*
X551568D01*
Y558143D01*
X551597Y557735D01*
X551685Y557356D01*
X551801Y557064D01*
X551947Y556802D01*
X552093Y556569D01*
X552210Y556423D01*
X552297Y556335D01*
X552326Y556306D01*
X552618Y556073D01*
X552909Y555927D01*
X553230Y555810D01*
X553522Y555723D01*
X553784Y555665D01*
X553988Y555635D01*
X554163D01*
X554542Y555665D01*
X554892Y555752D01*
X555213Y555840D01*
X555475Y555985D01*
X555709Y556102D01*
X555854Y556189D01*
X555971Y556277D01*
X556000Y556306D01*
X556233Y556569D01*
X556408Y556889D01*
X556554Y557181D01*
X556642Y557472D01*
X556700Y557735D01*
X556729Y557939D01*
Y558085D01*
Y558143D01*
Y570594D01*
X560170D01*
Y558172D01*
D02*
G37*
G36*
X658203Y557531D02*
X658174Y557064D01*
X658145Y556627D01*
X658087Y556219D01*
X657970Y555840D01*
X657883Y555519D01*
X657766Y555198D01*
X657620Y554936D01*
X657503Y554702D01*
X657358Y554469D01*
X657241Y554294D01*
X657124Y554148D01*
X657008Y554032D01*
X656862Y553857D01*
X656833Y553798D01*
X656804D01*
X656512Y553594D01*
X656220Y553419D01*
X655579Y553128D01*
X654879Y552953D01*
X654208Y552807D01*
X653596Y552719D01*
X653334Y552690D01*
X653100D01*
X652925Y552661D01*
X652663D01*
X652109Y552690D01*
X651846D01*
X651642Y552719D01*
X651438D01*
X651292Y552749D01*
X651176D01*
X650622Y552807D01*
X650388Y552836D01*
X650184Y552865D01*
X650010Y552895D01*
X649864D01*
X649776Y552924D01*
X649747D01*
X649251Y553011D01*
X649018Y553069D01*
X648843Y553128D01*
X648697Y553157D01*
X648551Y553186D01*
X648493Y553215D01*
X648464D01*
X648056Y553361D01*
X647706Y553478D01*
X647589Y553536D01*
X647502Y553565D01*
X647443Y553594D01*
X647414D01*
Y566104D01*
X650738D01*
Y555665D01*
X651001Y555577D01*
X651263Y555519D01*
X651380Y555490D01*
X651467D01*
X651526Y555461D01*
X651555D01*
X651934Y555402D01*
X652284Y555373D01*
X652663D01*
X653071Y555402D01*
X653392Y555461D01*
X653713Y555577D01*
X653946Y555694D01*
X654179Y555840D01*
X654354Y556015D01*
X654500Y556219D01*
X654617Y556423D01*
X654792Y556802D01*
X654879Y557123D01*
Y557239D01*
X654908Y557356D01*
Y557414D01*
Y557443D01*
Y566104D01*
X658203D01*
Y557531D01*
D02*
G37*
G36*
X723316Y566366D02*
X723782Y566308D01*
X724220Y566220D01*
X724599Y566133D01*
X724920Y566045D01*
X725153Y565958D01*
X725298Y565900D01*
X725357Y565870D01*
X725765Y565666D01*
X726144Y565433D01*
X726465Y565200D01*
X726757Y564996D01*
X726961Y564791D01*
X727136Y564617D01*
X727252Y564500D01*
X727281Y564471D01*
X727544Y564121D01*
X727806Y563742D01*
X728010Y563392D01*
X728185Y563042D01*
X728302Y562750D01*
X728389Y562488D01*
X728448Y562342D01*
X728477Y562313D01*
Y562284D01*
X728623Y561817D01*
X728710Y561321D01*
X728798Y560855D01*
X728827Y560418D01*
X728856Y560068D01*
X728885Y559776D01*
Y559660D01*
Y559572D01*
Y559543D01*
Y559514D01*
X728856Y558960D01*
X728827Y558464D01*
X728768Y557997D01*
X728681Y557560D01*
X728594Y557239D01*
X728535Y556977D01*
X728506Y556802D01*
X728477Y556773D01*
Y556744D01*
X728302Y556277D01*
X728098Y555869D01*
X727865Y555490D01*
X727660Y555169D01*
X727486Y554907D01*
X727340Y554732D01*
X727223Y554586D01*
X727194Y554557D01*
X726873Y554236D01*
X726523Y553944D01*
X726173Y553711D01*
X725853Y553507D01*
X725561Y553361D01*
X725328Y553244D01*
X725182Y553186D01*
X725124Y553157D01*
X724657Y552982D01*
X724161Y552865D01*
X723695Y552778D01*
X723228Y552720D01*
X722849Y552690D01*
X722528Y552661D01*
X721741D01*
X721216Y552690D01*
X720750Y552749D01*
X720341Y552807D01*
X720021Y552836D01*
X719758Y552895D01*
X719583Y552924D01*
X719525D01*
X719059Y553040D01*
X718650Y553128D01*
X718300Y553244D01*
X717980Y553361D01*
X717717Y553449D01*
X717542Y553536D01*
X717426Y553565D01*
X717396Y553594D01*
X718359Y556073D01*
X718913Y555840D01*
X719204Y555723D01*
X719467Y555665D01*
X719700Y555577D01*
X719875Y555519D01*
X719992Y555490D01*
X720050D01*
X720750Y555344D01*
X721100Y555315D01*
X721391Y555286D01*
X721625Y555256D01*
X722003D01*
X722528Y555286D01*
X723024Y555373D01*
X723432Y555490D01*
X723782Y555606D01*
X724074Y555723D01*
X724278Y555840D01*
X724395Y555927D01*
X724453Y555956D01*
X724774Y556248D01*
X725036Y556598D01*
X725240Y556977D01*
X725415Y557327D01*
X725532Y557648D01*
X725590Y557910D01*
X725648Y558085D01*
Y558114D01*
Y558143D01*
X717192Y559280D01*
X717163Y559484D01*
X717134Y559660D01*
Y559776D01*
Y559834D01*
Y560418D01*
X717163Y560913D01*
X717192Y561351D01*
X717251Y561788D01*
X717309Y562138D01*
X717396Y562430D01*
X717455Y562663D01*
X717484Y562780D01*
X717513Y562838D01*
X717659Y563246D01*
X717834Y563596D01*
X718038Y563917D01*
X718213Y564208D01*
X718359Y564412D01*
X718504Y564587D01*
X718592Y564704D01*
X718621Y564733D01*
X718884Y565025D01*
X719175Y565258D01*
X719467Y565462D01*
X719758Y565637D01*
X719992Y565783D01*
X720196Y565870D01*
X720312Y565929D01*
X720371Y565958D01*
X720779Y566104D01*
X721187Y566220D01*
X721595Y566279D01*
X721974Y566337D01*
X722295Y566366D01*
X722558Y566395D01*
X722791D01*
X723316Y566366D01*
D02*
G37*
G36*
X616272Y566366D02*
X616739Y566308D01*
X617176Y566220D01*
X617555Y566133D01*
X617876Y566045D01*
X618109Y565958D01*
X618255Y565900D01*
X618313Y565870D01*
X618722Y565666D01*
X619101Y565433D01*
X619422Y565200D01*
X619713Y564996D01*
X619917Y564791D01*
X620092Y564617D01*
X620209Y564500D01*
X620238Y564471D01*
X620500Y564121D01*
X620763Y563742D01*
X620967Y563392D01*
X621142Y563042D01*
X621259Y562750D01*
X621346Y562488D01*
X621404Y562342D01*
X621433Y562313D01*
Y562284D01*
X621579Y561817D01*
X621667Y561321D01*
X621754Y560855D01*
X621783Y560418D01*
X621813Y560068D01*
X621842Y559776D01*
Y559659D01*
Y559572D01*
Y559543D01*
Y559514D01*
X621813Y558960D01*
X621783Y558464D01*
X621725Y557997D01*
X621638Y557560D01*
X621550Y557239D01*
X621492Y556977D01*
X621463Y556802D01*
X621433Y556773D01*
Y556744D01*
X621259Y556277D01*
X621054Y555869D01*
X620821Y555490D01*
X620617Y555169D01*
X620442Y554907D01*
X620296Y554731D01*
X620180Y554586D01*
X620150Y554557D01*
X619830Y554236D01*
X619480Y553944D01*
X619130Y553711D01*
X618809Y553507D01*
X618517Y553361D01*
X618284Y553244D01*
X618139Y553186D01*
X618080Y553157D01*
X617614Y552982D01*
X617118Y552865D01*
X616651Y552778D01*
X616185Y552719D01*
X615806Y552690D01*
X615485Y552661D01*
X614698D01*
X614173Y552690D01*
X613706Y552749D01*
X613298Y552807D01*
X612977Y552836D01*
X612715Y552895D01*
X612540Y552924D01*
X612482D01*
X612015Y553040D01*
X611607Y553128D01*
X611257Y553244D01*
X610936Y553361D01*
X610674Y553448D01*
X610499Y553536D01*
X610382Y553565D01*
X610353Y553594D01*
X611315Y556073D01*
X611869Y555840D01*
X612161Y555723D01*
X612423Y555665D01*
X612657Y555577D01*
X612831Y555519D01*
X612948Y555490D01*
X613006D01*
X613706Y555344D01*
X614056Y555315D01*
X614348Y555286D01*
X614581Y555256D01*
X614960D01*
X615485Y555286D01*
X615981Y555373D01*
X616389Y555490D01*
X616739Y555606D01*
X617030Y555723D01*
X617234Y555840D01*
X617351Y555927D01*
X617410Y555956D01*
X617730Y556248D01*
X617993Y556598D01*
X618197Y556977D01*
X618372Y557327D01*
X618488Y557647D01*
X618547Y557910D01*
X618605Y558085D01*
Y558114D01*
Y558143D01*
X610149Y559280D01*
X610120Y559484D01*
X610090Y559659D01*
Y559776D01*
Y559834D01*
Y560418D01*
X610120Y560913D01*
X610149Y561351D01*
X610207Y561788D01*
X610266Y562138D01*
X610353Y562430D01*
X610411Y562663D01*
X610440Y562780D01*
X610470Y562838D01*
X610615Y563246D01*
X610790Y563596D01*
X610994Y563917D01*
X611169Y564208D01*
X611315Y564412D01*
X611461Y564587D01*
X611549Y564704D01*
X611578Y564733D01*
X611840Y565025D01*
X612132Y565258D01*
X612423Y565462D01*
X612715Y565637D01*
X612948Y565783D01*
X613152Y565870D01*
X613269Y565929D01*
X613327Y565958D01*
X613735Y566104D01*
X614144Y566220D01*
X614552Y566279D01*
X614931Y566337D01*
X615252Y566366D01*
X615514Y566395D01*
X615747D01*
X616272Y566366D01*
D02*
G37*
G36*
X701359Y552953D02*
X698035D01*
Y572110D01*
X701359D01*
Y552953D01*
D02*
G37*
G36*
X640241Y566337D02*
X640737Y566308D01*
X641174Y566249D01*
X641553Y566191D01*
X641845Y566162D01*
X642020Y566104D01*
X642078D01*
X642574Y565987D01*
X643011Y565900D01*
X643419Y565783D01*
X643769Y565666D01*
X644032Y565579D01*
X644265Y565491D01*
X644382Y565462D01*
X644440Y565433D01*
Y552953D01*
X641145D01*
Y563421D01*
X640883Y563508D01*
X640649Y563567D01*
X640445Y563625D01*
X640387D01*
X640066Y563683D01*
X639775Y563713D01*
X639162D01*
X638900Y563683D01*
X638637Y563654D01*
X638433Y563625D01*
X638229Y563567D01*
X638112Y563538D01*
X638025Y563508D01*
X637996D01*
X637383Y566279D01*
X637646Y566308D01*
X637879D01*
X638054Y566337D01*
X638142D01*
X638462Y566366D01*
X638783Y566395D01*
X639658D01*
X640241Y566337D01*
D02*
G37*
G36*
X631231D02*
X631727Y566308D01*
X632164Y566249D01*
X632514Y566191D01*
X632776Y566162D01*
X632951Y566104D01*
X633010D01*
X633476Y565987D01*
X633884Y565900D01*
X634293Y565783D01*
X634643Y565666D01*
X634905Y565579D01*
X635138Y565491D01*
X635255Y565462D01*
X635313Y565433D01*
Y552953D01*
X632018D01*
Y563421D01*
X631727Y563508D01*
X631435Y563567D01*
X631318Y563596D01*
X631231Y563625D01*
X631143D01*
X630735Y563683D01*
X630385Y563713D01*
X630035D01*
X629627Y563683D01*
X629277Y563625D01*
X628956Y563538D01*
X628723Y563450D01*
X628519Y563334D01*
X628402Y563246D01*
X628315Y563188D01*
X628286Y563158D01*
X628082Y562925D01*
X627936Y562692D01*
X627849Y562430D01*
X627761Y562167D01*
X627732Y561963D01*
X627703Y561788D01*
Y561671D01*
Y561613D01*
Y552953D01*
X624379D01*
Y561934D01*
Y562313D01*
X624437Y562692D01*
X624583Y563363D01*
X624816Y563917D01*
X625049Y564383D01*
X625312Y564762D01*
X625545Y565025D01*
X625691Y565171D01*
X625720Y565229D01*
X625749D01*
X626011Y565433D01*
X626332Y565608D01*
X627003Y565900D01*
X627703Y566104D01*
X628432Y566249D01*
X628752Y566308D01*
X629073Y566337D01*
X629336Y566366D01*
X629569D01*
X629773Y566395D01*
X630677D01*
X631231Y566337D01*
D02*
G37*
G36*
X603355D02*
X603851Y566308D01*
X604288Y566249D01*
X604667Y566191D01*
X604958Y566162D01*
X605134Y566104D01*
X605192D01*
X605687Y565987D01*
X606125Y565900D01*
X606533Y565783D01*
X606883Y565666D01*
X607145Y565579D01*
X607379Y565491D01*
X607495Y565462D01*
X607554Y565433D01*
Y552953D01*
X604259D01*
Y563421D01*
X603996Y563508D01*
X603763Y563567D01*
X603559Y563625D01*
X603501D01*
X603180Y563683D01*
X602888Y563713D01*
X602276D01*
X602013Y563683D01*
X601751Y563654D01*
X601547Y563625D01*
X601343Y563567D01*
X601226Y563538D01*
X601139Y563508D01*
X601110D01*
X600497Y566279D01*
X600760Y566308D01*
X600993D01*
X601168Y566337D01*
X601255D01*
X601576Y566366D01*
X601897Y566395D01*
X602772D01*
X603355Y566337D01*
D02*
G37*
G36*
X579123Y552953D02*
X575799D01*
Y572110D01*
X579123D01*
Y552953D01*
D02*
G37*
G36*
X572738D02*
X569413D01*
Y572110D01*
X572738D01*
Y552953D01*
D02*
G37*
G36*
X503514Y570886D02*
X503980Y570827D01*
X504388Y570798D01*
X504738Y570740D01*
X505001Y570682D01*
X505176Y570652D01*
X505234D01*
X505701Y570536D01*
X506138Y570419D01*
X506517Y570303D01*
X506867Y570215D01*
X507159Y570098D01*
X507363Y570040D01*
X507479Y569982D01*
X507538Y569953D01*
Y552953D01*
X504184D01*
Y559805D01*
X503951Y559776D01*
X503718Y559747D01*
X503514Y559718D01*
X503455D01*
X503105Y559689D01*
X502551D01*
X501939Y559718D01*
X501356Y559747D01*
X500831Y559805D01*
X500394Y559893D01*
X500044Y559980D01*
X499781Y560038D01*
X499606Y560068D01*
X499548Y560097D01*
X499081Y560272D01*
X498673Y560447D01*
X498294Y560651D01*
X497973Y560826D01*
X497740Y560972D01*
X497536Y561117D01*
X497419Y561205D01*
X497390Y561234D01*
X497070Y561526D01*
X496807Y561846D01*
X496603Y562138D01*
X496399Y562400D01*
X496253Y562663D01*
X496166Y562838D01*
X496107Y562954D01*
X496078Y563013D01*
X495932Y563392D01*
X495816Y563800D01*
X495757Y564150D01*
X495699Y564500D01*
X495670Y564791D01*
X495641Y565025D01*
Y565171D01*
Y565229D01*
X495670Y565695D01*
X495728Y566162D01*
X495816Y566570D01*
X495903Y566978D01*
X496195Y567678D01*
X496340Y567999D01*
X496515Y568261D01*
X496690Y568524D01*
X496836Y568757D01*
X496982Y568932D01*
X497128Y569078D01*
X497215Y569224D01*
X497303Y569311D01*
X497361Y569340D01*
X497390Y569369D01*
X497740Y569632D01*
X498119Y569894D01*
X498498Y570098D01*
X498907Y570273D01*
X499752Y570536D01*
X500569Y570711D01*
X500948Y570798D01*
X501297Y570827D01*
X501618Y570857D01*
X501881Y570886D01*
X502114Y570915D01*
X502989D01*
X503514Y570886D01*
D02*
G37*
G36*
X467648D02*
X468114Y570827D01*
X468523Y570798D01*
X468872Y570740D01*
X469135Y570682D01*
X469310Y570652D01*
X469368D01*
X469835Y570536D01*
X470272Y570419D01*
X470651Y570303D01*
X471001Y570215D01*
X471293Y570098D01*
X471497Y570040D01*
X471614Y569982D01*
X471672Y569953D01*
Y552953D01*
X468318D01*
Y559805D01*
X468085Y559776D01*
X467852Y559747D01*
X467648Y559718D01*
X467589D01*
X467240Y559689D01*
X466686D01*
X466073Y559718D01*
X465490Y559747D01*
X464965Y559805D01*
X464528Y559893D01*
X464178Y559980D01*
X463915Y560038D01*
X463741Y560068D01*
X463682Y560097D01*
X463216Y560272D01*
X462807Y560447D01*
X462428Y560651D01*
X462108Y560826D01*
X461874Y560972D01*
X461670Y561117D01*
X461554Y561205D01*
X461524Y561234D01*
X461204Y561526D01*
X460941Y561846D01*
X460737Y562138D01*
X460533Y562400D01*
X460387Y562663D01*
X460300Y562838D01*
X460241Y562954D01*
X460212Y563013D01*
X460066Y563392D01*
X459950Y563800D01*
X459892Y564150D01*
X459833Y564500D01*
X459804Y564791D01*
X459775Y565025D01*
Y565171D01*
Y565229D01*
X459804Y565695D01*
X459862Y566162D01*
X459950Y566570D01*
X460037Y566978D01*
X460329Y567678D01*
X460475Y567999D01*
X460650Y568261D01*
X460825Y568524D01*
X460970Y568757D01*
X461116Y568932D01*
X461262Y569078D01*
X461349Y569224D01*
X461437Y569311D01*
X461495Y569340D01*
X461524Y569369D01*
X461874Y569632D01*
X462253Y569894D01*
X462632Y570098D01*
X463041Y570273D01*
X463886Y570536D01*
X464703Y570711D01*
X465082Y570798D01*
X465432Y570827D01*
X465752Y570857D01*
X466015Y570886D01*
X466248Y570915D01*
X467123D01*
X467648Y570886D01*
D02*
G37*
G36*
X745039Y570886D02*
X745506Y570857D01*
X745914Y570798D01*
X746264Y570740D01*
X746556Y570653D01*
X746760Y570594D01*
X746906Y570565D01*
X746964Y570536D01*
X747343Y570390D01*
X747693Y570215D01*
X747984Y570040D01*
X748247Y569865D01*
X748480Y569690D01*
X748626Y569574D01*
X748743Y569486D01*
X748772Y569457D01*
X749034Y569194D01*
X749267Y568932D01*
X749442Y568641D01*
X749617Y568378D01*
X749734Y568174D01*
X749821Y567999D01*
X749880Y567853D01*
X749909Y567824D01*
X750055Y567445D01*
X750142Y567095D01*
X750230Y566716D01*
X750259Y566395D01*
X750288Y566104D01*
X750317Y565870D01*
Y565725D01*
Y565666D01*
X750288Y565200D01*
X750230Y564762D01*
X750171Y564383D01*
X750055Y564062D01*
X749967Y563800D01*
X749909Y563625D01*
X749851Y563479D01*
X749821Y563450D01*
X749617Y563129D01*
X749384Y562838D01*
X749180Y562604D01*
X748976Y562371D01*
X748801Y562196D01*
X748655Y562080D01*
X748568Y561992D01*
X748538Y561963D01*
X747955Y561555D01*
X747693Y561351D01*
X747430Y561205D01*
X747226Y561088D01*
X747051Y561001D01*
X746935Y560942D01*
X746906Y560913D01*
X746264Y560622D01*
X745972Y560476D01*
X745739Y560330D01*
X745535Y560243D01*
X745389Y560155D01*
X745273Y560097D01*
X745243Y560068D01*
X744981Y559922D01*
X744719Y559747D01*
X744514Y559601D01*
X744340Y559455D01*
X744194Y559310D01*
X744077Y559222D01*
X744019Y559164D01*
X743990Y559135D01*
X743815Y558931D01*
X743698Y558726D01*
X743581Y558522D01*
X743523Y558318D01*
X743494Y558143D01*
X743465Y557997D01*
Y557910D01*
Y557881D01*
X743494Y557531D01*
X743581Y557239D01*
X743698Y556977D01*
X743815Y556744D01*
X743960Y556569D01*
X744077Y556452D01*
X744165Y556365D01*
X744194Y556335D01*
X744485Y556131D01*
X744806Y555985D01*
X745127Y555898D01*
X745418Y555840D01*
X745710Y555781D01*
X745943Y555752D01*
X746147D01*
X746760Y555781D01*
X747051Y555840D01*
X747314Y555869D01*
X747518Y555927D01*
X747693Y555956D01*
X747809Y555985D01*
X747839D01*
X748422Y556189D01*
X748684Y556277D01*
X748917Y556365D01*
X749122Y556452D01*
X749267Y556510D01*
X749355Y556569D01*
X749384D01*
X750521Y553594D01*
X749763Y553274D01*
X749384Y553157D01*
X749063Y553069D01*
X748772Y552982D01*
X748568Y552924D01*
X748422Y552895D01*
X748363D01*
X747489Y552749D01*
X747080Y552720D01*
X746730Y552690D01*
X746410Y552661D01*
X745972D01*
X745447Y552690D01*
X744981Y552720D01*
X744544Y552778D01*
X744165Y552865D01*
X743873Y552924D01*
X743640Y552982D01*
X743494Y553011D01*
X743436Y553040D01*
X743027Y553186D01*
X742648Y553361D01*
X742327Y553565D01*
X742065Y553740D01*
X741832Y553886D01*
X741686Y554032D01*
X741569Y554119D01*
X741540Y554148D01*
X741249Y554440D01*
X741015Y554732D01*
X740811Y554994D01*
X740636Y555256D01*
X740520Y555490D01*
X740432Y555665D01*
X740374Y555810D01*
X740345Y555840D01*
X740199Y556219D01*
X740111Y556598D01*
X740024Y556977D01*
X739995Y557327D01*
X739966Y557618D01*
X739936Y557852D01*
Y557997D01*
Y558056D01*
X739966Y558522D01*
X740024Y558960D01*
X740111Y559339D01*
X740199Y559630D01*
X740286Y559893D01*
X740374Y560097D01*
X740432Y560214D01*
X740461Y560243D01*
X740665Y560563D01*
X740870Y560855D01*
X741074Y561088D01*
X741278Y561321D01*
X741482Y561497D01*
X741599Y561613D01*
X741715Y561701D01*
X741744Y561730D01*
X742327Y562167D01*
X742590Y562342D01*
X742852Y562517D01*
X743086Y562634D01*
X743261Y562721D01*
X743377Y562780D01*
X743406Y562809D01*
X744048Y563129D01*
X744340Y563275D01*
X744602Y563421D01*
X744806Y563508D01*
X744952Y563596D01*
X745069Y563654D01*
X745098Y563683D01*
X745622Y564004D01*
X745827Y564179D01*
X746031Y564325D01*
X746177Y564442D01*
X746293Y564529D01*
X746351Y564587D01*
X746381Y564617D01*
X746556Y564821D01*
X746672Y565025D01*
X746760Y565229D01*
X746818Y565433D01*
X746847Y565608D01*
X746876Y565754D01*
Y565841D01*
Y565870D01*
X746847Y566191D01*
X746789Y566512D01*
X746672Y566745D01*
X746556Y566978D01*
X746439Y567124D01*
X746322Y567270D01*
X746264Y567328D01*
X746235Y567357D01*
X745972Y567562D01*
X745681Y567707D01*
X745360Y567795D01*
X745069Y567882D01*
X744835Y567911D01*
X744602Y567941D01*
X744427D01*
X743844Y567911D01*
X743581Y567882D01*
X743348Y567853D01*
X743144Y567795D01*
X742998Y567766D01*
X742911Y567737D01*
X742881D01*
X742357Y567562D01*
X742123Y567474D01*
X741948Y567387D01*
X741774Y567299D01*
X741657Y567241D01*
X741569Y567212D01*
X741540Y567183D01*
X740461Y569953D01*
X741103Y570273D01*
X741424Y570390D01*
X741715Y570477D01*
X741948Y570565D01*
X742152Y570623D01*
X742269Y570653D01*
X742327D01*
X743115Y570798D01*
X743494Y570857D01*
X743844Y570886D01*
X744135Y570915D01*
X744573D01*
X745039Y570886D01*
D02*
G37*
G36*
X540108Y570886D02*
X540575Y570857D01*
X540983Y570798D01*
X541333Y570740D01*
X541625Y570652D01*
X541829Y570594D01*
X541975Y570565D01*
X542033Y570536D01*
X542412Y570390D01*
X542762Y570215D01*
X543054Y570040D01*
X543316Y569865D01*
X543549Y569690D01*
X543695Y569574D01*
X543812Y569486D01*
X543841Y569457D01*
X544103Y569194D01*
X544337Y568932D01*
X544511Y568640D01*
X544686Y568378D01*
X544803Y568174D01*
X544891Y567999D01*
X544949Y567853D01*
X544978Y567824D01*
X545124Y567445D01*
X545211Y567095D01*
X545299Y566716D01*
X545328Y566395D01*
X545357Y566104D01*
X545386Y565870D01*
Y565724D01*
Y565666D01*
X545357Y565200D01*
X545299Y564762D01*
X545241Y564383D01*
X545124Y564062D01*
X545036Y563800D01*
X544978Y563625D01*
X544920Y563479D01*
X544891Y563450D01*
X544686Y563129D01*
X544453Y562838D01*
X544249Y562604D01*
X544045Y562371D01*
X543870Y562196D01*
X543724Y562080D01*
X543637Y561992D01*
X543607Y561963D01*
X543024Y561555D01*
X542762Y561351D01*
X542500Y561205D01*
X542295Y561088D01*
X542120Y561001D01*
X542004Y560942D01*
X541975Y560913D01*
X541333Y560622D01*
X541041Y560476D01*
X540808Y560330D01*
X540604Y560243D01*
X540458Y560155D01*
X540342Y560097D01*
X540313Y560068D01*
X540050Y559922D01*
X539788Y559747D01*
X539584Y559601D01*
X539409Y559455D01*
X539263Y559310D01*
X539146Y559222D01*
X539088Y559164D01*
X539059Y559134D01*
X538884Y558930D01*
X538767Y558726D01*
X538651Y558522D01*
X538592Y558318D01*
X538563Y558143D01*
X538534Y557997D01*
Y557910D01*
Y557881D01*
X538563Y557531D01*
X538651Y557239D01*
X538767Y556977D01*
X538884Y556744D01*
X539030Y556568D01*
X539146Y556452D01*
X539234Y556364D01*
X539263Y556335D01*
X539554Y556131D01*
X539875Y555985D01*
X540196Y555898D01*
X540488Y555840D01*
X540779Y555781D01*
X541012Y555752D01*
X541217D01*
X541829Y555781D01*
X542120Y555840D01*
X542383Y555869D01*
X542587Y555927D01*
X542762Y555956D01*
X542879Y555985D01*
X542908D01*
X543491Y556189D01*
X543753Y556277D01*
X543987Y556364D01*
X544191Y556452D01*
X544337Y556510D01*
X544424Y556568D01*
X544453D01*
X545590Y553594D01*
X544832Y553274D01*
X544453Y553157D01*
X544132Y553069D01*
X543841Y552982D01*
X543637Y552924D01*
X543491Y552895D01*
X543433D01*
X542558Y552749D01*
X542150Y552719D01*
X541800Y552690D01*
X541479Y552661D01*
X541041D01*
X540517Y552690D01*
X540050Y552719D01*
X539613Y552778D01*
X539234Y552865D01*
X538942Y552924D01*
X538709Y552982D01*
X538563Y553011D01*
X538505Y553040D01*
X538097Y553186D01*
X537717Y553361D01*
X537397Y553565D01*
X537134Y553740D01*
X536901Y553886D01*
X536755Y554032D01*
X536638Y554119D01*
X536609Y554148D01*
X536318Y554440D01*
X536085Y554731D01*
X535880Y554994D01*
X535705Y555256D01*
X535589Y555490D01*
X535501Y555665D01*
X535443Y555810D01*
X535414Y555840D01*
X535268Y556219D01*
X535181Y556598D01*
X535093Y556977D01*
X535064Y557327D01*
X535035Y557618D01*
X535006Y557851D01*
Y557997D01*
Y558056D01*
X535035Y558522D01*
X535093Y558960D01*
X535181Y559339D01*
X535268Y559630D01*
X535355Y559893D01*
X535443Y560097D01*
X535501Y560213D01*
X535531Y560243D01*
X535735Y560563D01*
X535939Y560855D01*
X536143Y561088D01*
X536347Y561321D01*
X536551Y561496D01*
X536668Y561613D01*
X536784Y561701D01*
X536814Y561730D01*
X537397Y562167D01*
X537659Y562342D01*
X537921Y562517D01*
X538155Y562634D01*
X538330Y562721D01*
X538446Y562779D01*
X538475Y562809D01*
X539117Y563129D01*
X539409Y563275D01*
X539671Y563421D01*
X539875Y563508D01*
X540021Y563596D01*
X540138Y563654D01*
X540167Y563683D01*
X540692Y564004D01*
X540896Y564179D01*
X541100Y564325D01*
X541246Y564441D01*
X541362Y564529D01*
X541421Y564587D01*
X541450Y564617D01*
X541625Y564821D01*
X541741Y565025D01*
X541829Y565229D01*
X541887Y565433D01*
X541916Y565608D01*
X541945Y565754D01*
Y565841D01*
Y565870D01*
X541916Y566191D01*
X541858Y566512D01*
X541741Y566745D01*
X541625Y566978D01*
X541508Y567124D01*
X541391Y567270D01*
X541333Y567328D01*
X541304Y567357D01*
X541041Y567562D01*
X540750Y567707D01*
X540429Y567795D01*
X540138Y567882D01*
X539904Y567911D01*
X539671Y567941D01*
X539496D01*
X538913Y567911D01*
X538651Y567882D01*
X538417Y567853D01*
X538213Y567795D01*
X538067Y567766D01*
X537980Y567737D01*
X537951D01*
X537426Y567562D01*
X537192Y567474D01*
X537018Y567387D01*
X536843Y567299D01*
X536726Y567241D01*
X536638Y567212D01*
X536609Y567183D01*
X535531Y569953D01*
X536172Y570273D01*
X536493Y570390D01*
X536784Y570477D01*
X537018Y570565D01*
X537222Y570623D01*
X537338Y570652D01*
X537397D01*
X538184Y570798D01*
X538563Y570857D01*
X538913Y570886D01*
X539204Y570915D01*
X539642D01*
X540108Y570886D01*
D02*
G37*
G36*
X528124Y570857D02*
X528620Y570827D01*
X529057Y570769D01*
X529436Y570711D01*
X529728Y570682D01*
X529903Y570623D01*
X529961D01*
X530457Y570507D01*
X530894Y570419D01*
X531302Y570303D01*
X531652Y570186D01*
X531944Y570098D01*
X532148Y570011D01*
X532265Y569982D01*
X532323Y569953D01*
Y553594D01*
X531973Y553448D01*
X531565Y553332D01*
X531186Y553215D01*
X530807Y553099D01*
X530457Y553040D01*
X530194Y552982D01*
X530019Y552924D01*
X529961D01*
X529407Y552836D01*
X528853Y552778D01*
X528357Y552719D01*
X527891Y552690D01*
X527512D01*
X527220Y552661D01*
X526958D01*
X526316Y552690D01*
X525733Y552719D01*
X525179Y552778D01*
X524683Y552865D01*
X524217Y552982D01*
X523779Y553099D01*
X523400Y553215D01*
X523050Y553332D01*
X522730Y553448D01*
X522467Y553565D01*
X522263Y553682D01*
X522059Y553798D01*
X521913Y553886D01*
X521826Y553944D01*
X521767Y554002D01*
X521738D01*
X521417Y554265D01*
X521155Y554557D01*
X520922Y554848D01*
X520718Y555140D01*
X520543Y555461D01*
X520397Y555781D01*
X520193Y556364D01*
X520047Y556918D01*
X520018Y557152D01*
X519989Y557356D01*
X519959Y557502D01*
Y557618D01*
Y557706D01*
Y557735D01*
Y558085D01*
X520018Y558406D01*
X520047Y558697D01*
X520105Y558930D01*
X520164Y559134D01*
X520222Y559310D01*
X520251Y559397D01*
X520280Y559426D01*
X520513Y559922D01*
X520659Y560155D01*
X520776Y560330D01*
X520892Y560476D01*
X520980Y560592D01*
X521038Y560651D01*
X521068Y560680D01*
X521417Y561059D01*
X521738Y561351D01*
X521884Y561438D01*
X522001Y561526D01*
X522059Y561555D01*
X522088Y561584D01*
X522496Y561817D01*
X522846Y561992D01*
X522992Y562051D01*
X523109Y562080D01*
X523167Y562109D01*
X523196D01*
Y562167D01*
X522788Y562313D01*
X522467Y562459D01*
X522351Y562517D01*
X522263Y562575D01*
X522205Y562634D01*
X522175D01*
X521826Y562925D01*
X521563Y563217D01*
X521447Y563334D01*
X521359Y563421D01*
X521330Y563479D01*
X521301Y563508D01*
X521038Y563917D01*
X520834Y564296D01*
X520747Y564441D01*
X520688Y564558D01*
X520659Y564646D01*
Y564675D01*
X520513Y565171D01*
X520484Y565404D01*
X520455Y565608D01*
X520426Y565812D01*
Y565958D01*
Y566045D01*
Y566074D01*
X520455Y566454D01*
X520484Y566833D01*
X520543Y567153D01*
X520630Y567445D01*
X520718Y567678D01*
X520776Y567853D01*
X520805Y567970D01*
X520834Y567999D01*
X521009Y568320D01*
X521184Y568611D01*
X521388Y568874D01*
X521592Y569107D01*
X521767Y569282D01*
X521913Y569399D01*
X522030Y569486D01*
X522059Y569515D01*
X522380Y569748D01*
X522700Y569953D01*
X523050Y570128D01*
X523371Y570273D01*
X523663Y570390D01*
X523896Y570477D01*
X524042Y570507D01*
X524071Y570536D01*
X524100D01*
X524567Y570652D01*
X525062Y570769D01*
X525558Y570827D01*
X526025Y570857D01*
X526404Y570886D01*
X526724Y570915D01*
X527599D01*
X528124Y570857D01*
D02*
G37*
G36*
X489371D02*
X489838Y570827D01*
X490246Y570769D01*
X490567Y570711D01*
X490829Y570682D01*
X491004Y570623D01*
X491063D01*
X491529Y570507D01*
X491937Y570419D01*
X492287Y570303D01*
X492579Y570186D01*
X492841Y570098D01*
X493016Y570011D01*
X493133Y569982D01*
X493162Y569953D01*
Y553594D01*
X492841Y553448D01*
X492491Y553332D01*
X492171Y553215D01*
X491821Y553099D01*
X491529Y553040D01*
X491296Y552982D01*
X491150Y552924D01*
X491092D01*
X490130Y552778D01*
X489663Y552719D01*
X489226Y552690D01*
X488847D01*
X488584Y552661D01*
X488322D01*
X487651Y552690D01*
X487010Y552749D01*
X486426Y552865D01*
X485872Y553011D01*
X485348Y553186D01*
X484881Y553390D01*
X484444Y553594D01*
X484064Y553828D01*
X483715Y554032D01*
X483423Y554236D01*
X483161Y554440D01*
X482956Y554615D01*
X482781Y554761D01*
X482665Y554877D01*
X482607Y554936D01*
X482577Y554965D01*
X482198Y555431D01*
X481907Y555927D01*
X481615Y556452D01*
X481382Y557006D01*
X481178Y557589D01*
X481003Y558143D01*
X480886Y558697D01*
X480770Y559251D01*
X480682Y559776D01*
X480624Y560243D01*
X480565Y560680D01*
X480536Y561059D01*
X480507Y561351D01*
Y561584D01*
Y561730D01*
Y561788D01*
X480536Y562604D01*
X480594Y563363D01*
X480711Y564062D01*
X480828Y564733D01*
X480974Y565345D01*
X481148Y565900D01*
X481353Y566395D01*
X481528Y566862D01*
X481732Y567270D01*
X481936Y567620D01*
X482111Y567911D01*
X482257Y568145D01*
X482373Y568349D01*
X482490Y568465D01*
X482548Y568553D01*
X482577Y568582D01*
X482986Y568990D01*
X483423Y569340D01*
X483860Y569661D01*
X484327Y569923D01*
X484823Y570157D01*
X485289Y570361D01*
X485756Y570507D01*
X486222Y570623D01*
X486631Y570711D01*
X487039Y570798D01*
X487389Y570857D01*
X487709Y570886D01*
X487972Y570915D01*
X488847D01*
X489371Y570857D01*
D02*
G37*
G36*
X440326D02*
X440821Y570827D01*
X441259Y570769D01*
X441638Y570711D01*
X441929Y570682D01*
X442104Y570623D01*
X442163D01*
X442658Y570507D01*
X443096Y570419D01*
X443504Y570303D01*
X443854Y570186D01*
X444146Y570098D01*
X444350Y570011D01*
X444466Y569982D01*
X444525Y569953D01*
Y553594D01*
X444175Y553448D01*
X443766Y553332D01*
X443387Y553215D01*
X443008Y553099D01*
X442658Y553040D01*
X442396Y552982D01*
X442221Y552924D01*
X442163D01*
X441609Y552836D01*
X441055Y552778D01*
X440559Y552719D01*
X440092Y552690D01*
X439713D01*
X439422Y552661D01*
X439159D01*
X438518Y552690D01*
X437935Y552719D01*
X437381Y552778D01*
X436885Y552865D01*
X436418Y552982D01*
X435981Y553099D01*
X435602Y553215D01*
X435252Y553332D01*
X434931Y553448D01*
X434669Y553565D01*
X434465Y553682D01*
X434260Y553798D01*
X434115Y553886D01*
X434027Y553944D01*
X433969Y554002D01*
X433940D01*
X433619Y554265D01*
X433357Y554557D01*
X433123Y554848D01*
X432919Y555140D01*
X432744Y555461D01*
X432598Y555781D01*
X432394Y556364D01*
X432249Y556918D01*
X432219Y557152D01*
X432190Y557356D01*
X432161Y557502D01*
Y557618D01*
Y557706D01*
Y557735D01*
Y558085D01*
X432219Y558406D01*
X432249Y558697D01*
X432307Y558930D01*
X432365Y559134D01*
X432424Y559310D01*
X432453Y559397D01*
X432482Y559426D01*
X432715Y559922D01*
X432861Y560155D01*
X432977Y560330D01*
X433094Y560476D01*
X433182Y560592D01*
X433240Y560651D01*
X433269Y560680D01*
X433619Y561059D01*
X433940Y561351D01*
X434086Y561438D01*
X434202Y561526D01*
X434260Y561555D01*
X434290Y561584D01*
X434698Y561817D01*
X435048Y561992D01*
X435194Y562051D01*
X435310Y562080D01*
X435369Y562109D01*
X435398D01*
Y562167D01*
X434990Y562313D01*
X434669Y562459D01*
X434552Y562517D01*
X434465Y562575D01*
X434406Y562634D01*
X434377D01*
X434027Y562925D01*
X433765Y563217D01*
X433648Y563334D01*
X433561Y563421D01*
X433532Y563479D01*
X433502Y563508D01*
X433240Y563917D01*
X433036Y564296D01*
X432948Y564441D01*
X432890Y564558D01*
X432861Y564646D01*
Y564675D01*
X432715Y565171D01*
X432686Y565404D01*
X432657Y565608D01*
X432628Y565812D01*
Y565958D01*
Y566045D01*
Y566074D01*
X432657Y566454D01*
X432686Y566833D01*
X432744Y567153D01*
X432832Y567445D01*
X432919Y567678D01*
X432977Y567853D01*
X433007Y567970D01*
X433036Y567999D01*
X433211Y568320D01*
X433386Y568611D01*
X433590Y568874D01*
X433794Y569107D01*
X433969Y569282D01*
X434115Y569399D01*
X434231Y569486D01*
X434260Y569515D01*
X434581Y569748D01*
X434902Y569953D01*
X435252Y570128D01*
X435573Y570273D01*
X435864Y570390D01*
X436098Y570477D01*
X436243Y570507D01*
X436273Y570536D01*
X436302D01*
X436768Y570652D01*
X437264Y570769D01*
X437760Y570827D01*
X438226Y570857D01*
X438605Y570886D01*
X438926Y570915D01*
X439801D01*
X440326Y570857D01*
D02*
G37*
G36*
X605892Y547908D02*
X606358Y547850D01*
X606766Y547821D01*
X607145Y547762D01*
X607408Y547704D01*
X607583Y547675D01*
X607641D01*
X608137Y547588D01*
X608603Y547471D01*
X609041Y547354D01*
X609391Y547238D01*
X609682Y547150D01*
X609916Y547063D01*
X610061Y547004D01*
X610120Y546975D01*
X609157Y544380D01*
X608487Y544613D01*
X608166Y544701D01*
X607874Y544788D01*
X607641Y544847D01*
X607437Y544905D01*
X607320Y544934D01*
X607262D01*
X606533Y545080D01*
X606183Y545109D01*
X605892Y545138D01*
X605658Y545167D01*
X605308D01*
X604813Y545138D01*
X604404Y545080D01*
X604055Y544992D01*
X603734Y544905D01*
X603501Y544788D01*
X603355Y544701D01*
X603238Y544642D01*
X603209Y544613D01*
X602976Y544409D01*
X602801Y544147D01*
X602655Y543913D01*
X602567Y543680D01*
X602509Y543447D01*
X602480Y543272D01*
Y543155D01*
Y543126D01*
Y542922D01*
X602538Y542718D01*
X602655Y542368D01*
X602713Y542222D01*
X602772Y542135D01*
X602801Y542076D01*
X602830Y542047D01*
X603121Y541726D01*
X603413Y541464D01*
X603559Y541348D01*
X603675Y541260D01*
X603734Y541231D01*
X603763Y541202D01*
X604259Y540939D01*
X604725Y540764D01*
X604929Y540677D01*
X605104Y540619D01*
X605221Y540589D01*
X605250D01*
X605921Y540443D01*
X606241Y540385D01*
X606562Y540356D01*
X606825Y540327D01*
X607029Y540298D01*
X607204D01*
Y537848D01*
X606533D01*
X606154Y537819D01*
X605833Y537790D01*
X605542Y537761D01*
X605308Y537703D01*
X605104Y537673D01*
X604988Y537644D01*
X604958D01*
X604638Y537586D01*
X604317Y537498D01*
X604055Y537411D01*
X603821Y537323D01*
X603646Y537236D01*
X603501Y537178D01*
X603413Y537149D01*
X603384Y537119D01*
X603151Y537003D01*
X602947Y536857D01*
X602742Y536711D01*
X602597Y536565D01*
X602480Y536449D01*
X602393Y536361D01*
X602363Y536303D01*
X602334Y536274D01*
X602217Y536070D01*
X602101Y535866D01*
X602013Y535457D01*
X601984Y535312D01*
X601955Y535166D01*
Y535078D01*
Y535049D01*
X601984Y534641D01*
X602101Y534262D01*
X602247Y533941D01*
X602393Y533679D01*
X602567Y533475D01*
X602713Y533299D01*
X602830Y533212D01*
X602859Y533183D01*
X603209Y532950D01*
X603617Y532775D01*
X604025Y532658D01*
X604434Y532570D01*
X604784Y532512D01*
X605075Y532483D01*
X605775D01*
X606183Y532512D01*
X606562Y532541D01*
X606912Y532570D01*
X607204Y532600D01*
X607408Y532629D01*
X607554Y532658D01*
X607612D01*
X608020Y532746D01*
X608370Y532833D01*
X608691Y532920D01*
X608983Y533008D01*
X609187Y533095D01*
X609361Y533154D01*
X609478Y533212D01*
X609507D01*
X610557Y530617D01*
X610149Y530471D01*
X609711Y530325D01*
X609303Y530209D01*
X608924Y530121D01*
X608574Y530034D01*
X608312Y530005D01*
X608137Y529946D01*
X608078D01*
X607554Y529859D01*
X607058Y529800D01*
X606562Y529742D01*
X606154Y529713D01*
X605804D01*
X605513Y529684D01*
X605279D01*
X604696Y529713D01*
X604142Y529742D01*
X603675Y529800D01*
X603238Y529888D01*
X602888Y529946D01*
X602655Y530005D01*
X602480Y530034D01*
X602422Y530063D01*
X601984Y530209D01*
X601576Y530384D01*
X601197Y530559D01*
X600905Y530733D01*
X600643Y530909D01*
X600468Y531025D01*
X600351Y531113D01*
X600322Y531142D01*
X600001Y531404D01*
X599739Y531696D01*
X599506Y531987D01*
X599331Y532250D01*
X599185Y532483D01*
X599068Y532658D01*
X599010Y532804D01*
X598981Y532833D01*
X598835Y533212D01*
X598718Y533591D01*
X598631Y533970D01*
X598573Y534320D01*
X598544Y534612D01*
X598514Y534845D01*
Y534991D01*
Y535049D01*
Y535370D01*
X598573Y535691D01*
X598602Y535953D01*
X598660Y536215D01*
X598718Y536390D01*
X598777Y536565D01*
X598806Y536653D01*
X598835Y536682D01*
X599098Y537178D01*
X599214Y537411D01*
X599360Y537586D01*
X599477Y537732D01*
X599564Y537848D01*
X599622Y537907D01*
X599651Y537936D01*
X600031Y538315D01*
X600410Y538606D01*
X600555Y538694D01*
X600672Y538781D01*
X600760Y538811D01*
X600789Y538840D01*
X601255Y539102D01*
X601489Y539190D01*
X601693Y539277D01*
X601868Y539336D01*
X602013Y539394D01*
X602101Y539423D01*
X602130D01*
Y539481D01*
X601722Y539685D01*
X601343Y539889D01*
X601226Y539948D01*
X601110Y540035D01*
X601051Y540065D01*
X601022Y540094D01*
X600643Y540414D01*
X600322Y540706D01*
X600206Y540823D01*
X600118Y540910D01*
X600060Y540968D01*
X600031Y540998D01*
X599739Y541377D01*
X599535Y541726D01*
X599447Y541872D01*
X599389Y541989D01*
X599360Y542076D01*
Y542106D01*
X599214Y542572D01*
X599156Y542980D01*
X599127Y543155D01*
Y543272D01*
Y543359D01*
Y543389D01*
X599156Y543768D01*
X599185Y544118D01*
X599360Y544788D01*
X599564Y545342D01*
X599827Y545809D01*
X600089Y546188D01*
X600322Y546450D01*
X600497Y546625D01*
X600526Y546684D01*
X600555D01*
X600847Y546917D01*
X601139Y547092D01*
X601838Y547413D01*
X602538Y547646D01*
X603238Y547792D01*
X603559Y547821D01*
X603851Y547879D01*
X604142Y547908D01*
X604375D01*
X604579Y547937D01*
X605367D01*
X605892Y547908D01*
D02*
G37*
G36*
X570959D02*
X571396Y547850D01*
X571775Y547821D01*
X572125Y547762D01*
X572359Y547704D01*
X572533Y547675D01*
X572592D01*
X573058Y547588D01*
X573496Y547471D01*
X573904Y547354D01*
X574254Y547238D01*
X574575Y547150D01*
X574779Y547063D01*
X574925Y547004D01*
X574983Y546975D01*
X574021Y544380D01*
X573379Y544613D01*
X573058Y544701D01*
X572796Y544788D01*
X572533Y544847D01*
X572359Y544905D01*
X572213Y544934D01*
X572184D01*
X571455Y545051D01*
X571134Y545080D01*
X570871Y545109D01*
X570638Y545138D01*
X570288D01*
X569705Y545109D01*
X569209Y545022D01*
X568772Y544905D01*
X568422Y544759D01*
X568130Y544613D01*
X567956Y544497D01*
X567810Y544409D01*
X567780Y544380D01*
X567489Y544088D01*
X567285Y543768D01*
X567110Y543447D01*
X567022Y543126D01*
X566964Y542864D01*
X566906Y542631D01*
Y542485D01*
Y542426D01*
X566935Y542106D01*
X566964Y541814D01*
X567052Y541552D01*
X567110Y541318D01*
X567197Y541114D01*
X567285Y540968D01*
X567314Y540852D01*
X567343Y540823D01*
X567664Y540298D01*
X567839Y540065D01*
X567985Y539831D01*
X568101Y539656D01*
X568218Y539510D01*
X568276Y539423D01*
X568305Y539394D01*
X575858Y529975D01*
X563057D01*
Y532716D01*
X570230D01*
X565623Y537907D01*
X565331Y538257D01*
X565069Y538548D01*
X564981Y538694D01*
X564894Y538781D01*
X564865Y538840D01*
X564835Y538869D01*
X564544Y539277D01*
X564311Y539627D01*
X564223Y539773D01*
X564165Y539889D01*
X564106Y539948D01*
Y539977D01*
X563902Y540443D01*
X563727Y540823D01*
X563669Y540998D01*
X563640Y541114D01*
X563611Y541202D01*
Y541231D01*
X563494Y541726D01*
X563465Y541960D01*
X563436Y542164D01*
X563407Y542339D01*
Y542485D01*
Y542572D01*
Y542601D01*
X563436Y543068D01*
X563465Y543476D01*
X563552Y543884D01*
X563669Y544263D01*
X563932Y544934D01*
X564252Y545488D01*
X564398Y545721D01*
X564573Y545925D01*
X564719Y546100D01*
X564835Y546246D01*
X564952Y546363D01*
X565010Y546450D01*
X565069Y546479D01*
X565098Y546509D01*
X565419Y546771D01*
X565798Y546975D01*
X566177Y547179D01*
X566556Y547325D01*
X567372Y547588D01*
X568160Y547762D01*
X568539Y547821D01*
X568889Y547850D01*
X569180Y547908D01*
X569472D01*
X569676Y547937D01*
X570492D01*
X570959Y547908D01*
D02*
G37*
G36*
X541741Y547908D02*
X542179Y547850D01*
X542558Y547821D01*
X542908Y547762D01*
X543141Y547704D01*
X543316Y547675D01*
X543374D01*
X543841Y547588D01*
X544278Y547471D01*
X544686Y547354D01*
X545036Y547238D01*
X545357Y547150D01*
X545561Y547063D01*
X545707Y547004D01*
X545765Y546975D01*
X544803Y544380D01*
X544162Y544613D01*
X543841Y544701D01*
X543578Y544788D01*
X543316Y544846D01*
X543141Y544905D01*
X542995Y544934D01*
X542966D01*
X542237Y545051D01*
X541916Y545080D01*
X541654Y545109D01*
X541421Y545138D01*
X541071D01*
X540488Y545109D01*
X539992Y545022D01*
X539554Y544905D01*
X539204Y544759D01*
X538913Y544613D01*
X538738Y544497D01*
X538592Y544409D01*
X538563Y544380D01*
X538271Y544088D01*
X538067Y543768D01*
X537892Y543447D01*
X537805Y543126D01*
X537747Y542864D01*
X537688Y542630D01*
Y542485D01*
Y542426D01*
X537717Y542106D01*
X537747Y541814D01*
X537834Y541552D01*
X537892Y541318D01*
X537980Y541114D01*
X538067Y540968D01*
X538097Y540852D01*
X538126Y540823D01*
X538446Y540298D01*
X538621Y540064D01*
X538767Y539831D01*
X538884Y539656D01*
X539000Y539510D01*
X539059Y539423D01*
X539088Y539394D01*
X546640Y529975D01*
X533839D01*
Y532716D01*
X541012D01*
X536405Y537907D01*
X536114Y538257D01*
X535851Y538548D01*
X535764Y538694D01*
X535676Y538781D01*
X535647Y538840D01*
X535618Y538869D01*
X535326Y539277D01*
X535093Y539627D01*
X535006Y539773D01*
X534947Y539889D01*
X534889Y539948D01*
Y539977D01*
X534685Y540443D01*
X534510Y540823D01*
X534452Y540998D01*
X534422Y541114D01*
X534393Y541202D01*
Y541231D01*
X534277Y541726D01*
X534247Y541960D01*
X534218Y542164D01*
X534189Y542339D01*
Y542485D01*
Y542572D01*
Y542601D01*
X534218Y543068D01*
X534247Y543476D01*
X534335Y543884D01*
X534452Y544263D01*
X534714Y544934D01*
X535035Y545488D01*
X535181Y545721D01*
X535355Y545925D01*
X535501Y546100D01*
X535618Y546246D01*
X535735Y546363D01*
X535793Y546450D01*
X535851Y546479D01*
X535880Y546509D01*
X536201Y546771D01*
X536580Y546975D01*
X536959Y547179D01*
X537338Y547325D01*
X538155Y547588D01*
X538942Y547762D01*
X539321Y547821D01*
X539671Y547850D01*
X539963Y547908D01*
X540254D01*
X540458Y547937D01*
X541275D01*
X541741Y547908D01*
D02*
G37*
G36*
X526783D02*
X527249Y547850D01*
X527658Y547821D01*
X528036Y547762D01*
X528299Y547704D01*
X528474Y547675D01*
X528532D01*
X529028Y547588D01*
X529495Y547471D01*
X529932Y547354D01*
X530282Y547238D01*
X530573Y547150D01*
X530807Y547063D01*
X530952Y547004D01*
X531011Y546975D01*
X530048Y544380D01*
X529378Y544613D01*
X529057Y544701D01*
X528765Y544788D01*
X528532Y544846D01*
X528328Y544905D01*
X528212Y544934D01*
X528153D01*
X527424Y545080D01*
X527074Y545109D01*
X526783Y545138D01*
X526549Y545167D01*
X526199D01*
X525704Y545138D01*
X525296Y545080D01*
X524946Y544992D01*
X524625Y544905D01*
X524392Y544788D01*
X524246Y544701D01*
X524129Y544642D01*
X524100Y544613D01*
X523867Y544409D01*
X523692Y544147D01*
X523546Y543913D01*
X523459Y543680D01*
X523400Y543447D01*
X523371Y543272D01*
Y543155D01*
Y543126D01*
Y542922D01*
X523429Y542718D01*
X523546Y542368D01*
X523604Y542222D01*
X523663Y542135D01*
X523692Y542076D01*
X523721Y542047D01*
X524013Y541726D01*
X524304Y541464D01*
X524450Y541347D01*
X524567Y541260D01*
X524625Y541231D01*
X524654Y541202D01*
X525150Y540939D01*
X525616Y540764D01*
X525820Y540677D01*
X525995Y540619D01*
X526112Y540589D01*
X526141D01*
X526812Y540443D01*
X527133Y540385D01*
X527453Y540356D01*
X527716Y540327D01*
X527920Y540298D01*
X528095D01*
Y537848D01*
X527424D01*
X527045Y537819D01*
X526724Y537790D01*
X526433Y537761D01*
X526199Y537702D01*
X525995Y537673D01*
X525879Y537644D01*
X525850D01*
X525529Y537586D01*
X525208Y537498D01*
X524946Y537411D01*
X524712Y537323D01*
X524537Y537236D01*
X524392Y537178D01*
X524304Y537149D01*
X524275Y537119D01*
X524042Y537003D01*
X523838Y536857D01*
X523633Y536711D01*
X523488Y536565D01*
X523371Y536449D01*
X523284Y536361D01*
X523254Y536303D01*
X523225Y536274D01*
X523109Y536070D01*
X522992Y535866D01*
X522905Y535457D01*
X522875Y535312D01*
X522846Y535166D01*
Y535078D01*
Y535049D01*
X522875Y534641D01*
X522992Y534262D01*
X523138Y533941D01*
X523284Y533679D01*
X523459Y533474D01*
X523604Y533299D01*
X523721Y533212D01*
X523750Y533183D01*
X524100Y532950D01*
X524508Y532775D01*
X524916Y532658D01*
X525325Y532570D01*
X525675Y532512D01*
X525966Y532483D01*
X526666D01*
X527074Y532512D01*
X527453Y532541D01*
X527803Y532570D01*
X528095Y532600D01*
X528299Y532629D01*
X528445Y532658D01*
X528503D01*
X528911Y532746D01*
X529261Y532833D01*
X529582Y532920D01*
X529874Y533008D01*
X530078Y533095D01*
X530253Y533154D01*
X530369Y533212D01*
X530398D01*
X531448Y530617D01*
X531040Y530471D01*
X530602Y530325D01*
X530194Y530209D01*
X529815Y530121D01*
X529465Y530034D01*
X529203Y530005D01*
X529028Y529946D01*
X528970D01*
X528445Y529859D01*
X527949Y529800D01*
X527453Y529742D01*
X527045Y529713D01*
X526695D01*
X526404Y529684D01*
X526170D01*
X525587Y529713D01*
X525033Y529742D01*
X524567Y529800D01*
X524129Y529888D01*
X523779Y529946D01*
X523546Y530005D01*
X523371Y530034D01*
X523313Y530063D01*
X522875Y530209D01*
X522467Y530384D01*
X522088Y530559D01*
X521796Y530733D01*
X521534Y530908D01*
X521359Y531025D01*
X521242Y531113D01*
X521213Y531142D01*
X520892Y531404D01*
X520630Y531696D01*
X520397Y531987D01*
X520222Y532250D01*
X520076Y532483D01*
X519959Y532658D01*
X519901Y532804D01*
X519872Y532833D01*
X519726Y533212D01*
X519609Y533591D01*
X519522Y533970D01*
X519464Y534320D01*
X519435Y534612D01*
X519405Y534845D01*
Y534991D01*
Y535049D01*
Y535370D01*
X519464Y535690D01*
X519493Y535953D01*
X519551Y536215D01*
X519609Y536390D01*
X519668Y536565D01*
X519697Y536653D01*
X519726Y536682D01*
X519989Y537178D01*
X520105Y537411D01*
X520251Y537586D01*
X520368Y537732D01*
X520455Y537848D01*
X520513Y537907D01*
X520543Y537936D01*
X520922Y538315D01*
X521301Y538606D01*
X521447Y538694D01*
X521563Y538781D01*
X521651Y538811D01*
X521680Y538840D01*
X522146Y539102D01*
X522380Y539190D01*
X522584Y539277D01*
X522759Y539335D01*
X522905Y539394D01*
X522992Y539423D01*
X523021D01*
Y539481D01*
X522613Y539685D01*
X522234Y539889D01*
X522117Y539948D01*
X522001Y540035D01*
X521942Y540064D01*
X521913Y540094D01*
X521534Y540414D01*
X521213Y540706D01*
X521097Y540823D01*
X521009Y540910D01*
X520951Y540968D01*
X520922Y540998D01*
X520630Y541377D01*
X520426Y541726D01*
X520339Y541872D01*
X520280Y541989D01*
X520251Y542076D01*
Y542106D01*
X520105Y542572D01*
X520047Y542980D01*
X520018Y543155D01*
Y543272D01*
Y543359D01*
Y543389D01*
X520047Y543768D01*
X520076Y544118D01*
X520251Y544788D01*
X520455Y545342D01*
X520718Y545809D01*
X520980Y546188D01*
X521213Y546450D01*
X521388Y546625D01*
X521417Y546684D01*
X521447D01*
X521738Y546917D01*
X522030Y547092D01*
X522730Y547412D01*
X523429Y547646D01*
X524129Y547792D01*
X524450Y547821D01*
X524742Y547879D01*
X525033Y547908D01*
X525266D01*
X525471Y547937D01*
X526258D01*
X526783Y547908D01*
D02*
G37*
G36*
X647648Y543359D02*
X648114Y543330D01*
X648522Y543272D01*
X648872Y543214D01*
X649135Y543155D01*
X649310Y543126D01*
X649339Y543097D01*
X649368D01*
X649835Y542980D01*
X650243Y542864D01*
X650622Y542776D01*
X650913Y542660D01*
X651176Y542572D01*
X651351Y542514D01*
X651467Y542485D01*
X651497Y542455D01*
X650680Y540210D01*
X650418Y540327D01*
X650155Y540385D01*
X649951Y540443D01*
X649922Y540473D01*
X649893D01*
X649543Y540589D01*
X649251Y540648D01*
X649135Y540706D01*
X649047D01*
X648989Y540735D01*
X648960D01*
X648581Y540823D01*
X648289Y540881D01*
X648143D01*
X648056Y540910D01*
X647968D01*
X647589Y540968D01*
X647269Y540998D01*
X646977D01*
X646569Y540968D01*
X646219Y540939D01*
X645927Y540852D01*
X645665Y540793D01*
X645461Y540706D01*
X645315Y540619D01*
X645227Y540589D01*
X645198Y540560D01*
X644965Y540385D01*
X644819Y540152D01*
X644703Y539919D01*
X644615Y539685D01*
X644557Y539452D01*
X644528Y539277D01*
Y539160D01*
Y539102D01*
Y538432D01*
X645082Y538402D01*
X645606Y538344D01*
X646102Y538286D01*
X646540Y538227D01*
X646889Y538198D01*
X647181Y538140D01*
X647356Y538111D01*
X647414D01*
X647910Y538023D01*
X648377Y537907D01*
X648785Y537790D01*
X649164Y537673D01*
X649455Y537586D01*
X649660Y537498D01*
X649805Y537440D01*
X649864Y537411D01*
X650243Y537236D01*
X650593Y537003D01*
X650884Y536799D01*
X651117Y536595D01*
X651322Y536390D01*
X651467Y536245D01*
X651555Y536128D01*
X651584Y536099D01*
X651788Y535749D01*
X651963Y535399D01*
X652080Y535049D01*
X652138Y534699D01*
X652196Y534378D01*
X652226Y534145D01*
Y533970D01*
Y533941D01*
Y533912D01*
X652196Y533533D01*
X652167Y533212D01*
X651992Y532570D01*
X651759Y532046D01*
X651497Y531608D01*
X651234Y531258D01*
X651001Y530996D01*
X650826Y530850D01*
X650797Y530792D01*
X650768D01*
X650476Y530588D01*
X650155Y530413D01*
X649455Y530150D01*
X648697Y529946D01*
X647968Y529830D01*
X647648Y529771D01*
X647327Y529742D01*
X647035Y529713D01*
X646802D01*
X646598Y529684D01*
X645752D01*
X645227Y529742D01*
X644761Y529771D01*
X644323Y529830D01*
X643973Y529888D01*
X643711Y529917D01*
X643536Y529975D01*
X643478D01*
X642982Y530092D01*
X642574Y530179D01*
X642224Y530296D01*
X641903Y530384D01*
X641670Y530471D01*
X641524Y530559D01*
X641407Y530588D01*
X641378Y530617D01*
Y538723D01*
Y539190D01*
X641437Y539598D01*
X641495Y539977D01*
X641582Y540356D01*
X641699Y540677D01*
X641816Y540968D01*
X641932Y541231D01*
X642049Y541464D01*
X642195Y541668D01*
X642311Y541843D01*
X642545Y542106D01*
X642691Y542251D01*
X642720Y542310D01*
X642749D01*
X643303Y542689D01*
X643944Y542951D01*
X644586Y543155D01*
X645198Y543272D01*
X645752Y543359D01*
X646015Y543389D01*
X646219D01*
X646394Y543418D01*
X647152D01*
X647648Y543359D01*
D02*
G37*
G36*
X594753Y538082D02*
X594199Y538169D01*
X593965D01*
X593761Y538198D01*
X593586Y538227D01*
X593353D01*
X592887Y538257D01*
X592653Y538286D01*
X591633D01*
X591225Y538257D01*
X590845Y538227D01*
X590495Y538169D01*
X590233Y538140D01*
X590058Y538082D01*
X589912Y538052D01*
X589883D01*
X589562Y537965D01*
X589242Y537848D01*
X588979Y537761D01*
X588775Y537644D01*
X588600Y537557D01*
X588484Y537469D01*
X588396Y537440D01*
X588367Y537411D01*
X588163Y537265D01*
X587988Y537090D01*
X587725Y536769D01*
X587638Y536653D01*
X587580Y536536D01*
X587521Y536478D01*
Y536449D01*
X587346Y536011D01*
X587259Y535603D01*
X587230Y535457D01*
Y535312D01*
Y535224D01*
Y535195D01*
X587259Y534728D01*
X587375Y534349D01*
X587551Y533999D01*
X587725Y533708D01*
X587900Y533475D01*
X588075Y533329D01*
X588192Y533212D01*
X588221Y533183D01*
X588600Y532950D01*
X589038Y532775D01*
X589475Y532658D01*
X589883Y532570D01*
X590262Y532512D01*
X590583Y532483D01*
X590845D01*
X591604Y532512D01*
X591954Y532541D01*
X592303Y532570D01*
X592566Y532600D01*
X592770Y532629D01*
X592916Y532658D01*
X592974D01*
X593353Y532746D01*
X593703Y532833D01*
X594024Y532920D01*
X594286Y533008D01*
X594520Y533095D01*
X594665Y533154D01*
X594782Y533212D01*
X594811D01*
X595861Y530617D01*
X595044Y530354D01*
X594636Y530238D01*
X594257Y530121D01*
X593936Y530063D01*
X593703Y530005D01*
X593528Y529946D01*
X593470D01*
X592974Y529859D01*
X592478Y529800D01*
X592012Y529742D01*
X591604Y529713D01*
X591254D01*
X590991Y529684D01*
X590758D01*
X590204Y529713D01*
X589708Y529742D01*
X589212Y529800D01*
X588804Y529859D01*
X588484Y529917D01*
X588221Y529975D01*
X588046Y530034D01*
X587988D01*
X587521Y530179D01*
X587113Y530354D01*
X586734Y530529D01*
X586384Y530704D01*
X586122Y530850D01*
X585947Y530967D01*
X585801Y531054D01*
X585772Y531083D01*
X585451Y531375D01*
X585159Y531667D01*
X584897Y531958D01*
X584693Y532221D01*
X584518Y532454D01*
X584401Y532658D01*
X584343Y532775D01*
X584314Y532833D01*
X584139Y533241D01*
X584022Y533649D01*
X583906Y534058D01*
X583847Y534466D01*
X583818Y534787D01*
X583789Y535049D01*
Y535224D01*
Y535253D01*
Y535282D01*
X583818Y535749D01*
X583876Y536186D01*
X583964Y536595D01*
X584051Y537003D01*
X584197Y537353D01*
X584343Y537673D01*
X584489Y537965D01*
X584664Y538257D01*
X584839Y538490D01*
X584985Y538694D01*
X585130Y538869D01*
X585276Y539015D01*
X585364Y539131D01*
X585451Y539219D01*
X585509Y539248D01*
X585538Y539277D01*
X585888Y539540D01*
X586268Y539773D01*
X586646Y539948D01*
X587084Y540123D01*
X587959Y540385D01*
X588804Y540560D01*
X589183Y540619D01*
X589562Y540648D01*
X589883Y540706D01*
X590175D01*
X590437Y540735D01*
X591254D01*
X590758Y544876D01*
X584168D01*
Y547617D01*
X593674D01*
X594753Y538082D01*
D02*
G37*
G36*
X657766Y543389D02*
X658174Y543359D01*
X658553Y543272D01*
X658903Y543214D01*
X659165Y543126D01*
X659399Y543039D01*
X659515Y543009D01*
X659574Y542980D01*
X659953Y542805D01*
X660303Y542601D01*
X660623Y542397D01*
X660886Y542193D01*
X661119Y542018D01*
X661294Y541872D01*
X661411Y541756D01*
X661440Y541726D01*
X661731Y541406D01*
X661994Y541027D01*
X662227Y540677D01*
X662402Y540356D01*
X662548Y540035D01*
X662665Y539802D01*
X662723Y539656D01*
X662752Y539627D01*
Y539598D01*
X662898Y539102D01*
X663015Y538577D01*
X663102Y538052D01*
X663160Y537586D01*
X663189Y537178D01*
X663219Y536828D01*
Y536711D01*
Y536624D01*
Y536565D01*
Y536536D01*
X663189Y535895D01*
X663131Y535312D01*
X663073Y534816D01*
X662985Y534378D01*
X662898Y533999D01*
X662810Y533737D01*
X662781Y533562D01*
X662752Y533533D01*
Y533504D01*
X662548Y533037D01*
X662344Y532629D01*
X662111Y532250D01*
X661906Y531958D01*
X661731Y531696D01*
X661586Y531492D01*
X661469Y531375D01*
X661440Y531346D01*
X661119Y531054D01*
X660798Y530792D01*
X660478Y530588D01*
X660186Y530413D01*
X659953Y530267D01*
X659749Y530179D01*
X659632Y530121D01*
X659574Y530092D01*
X659165Y529946D01*
X658757Y529859D01*
X658407Y529771D01*
X658057Y529742D01*
X657766Y529713D01*
X657562Y529684D01*
X657358D01*
X656629Y529713D01*
X655958Y529830D01*
X655375Y529975D01*
X654850Y530121D01*
X654442Y530296D01*
X654267Y530354D01*
X654121Y530413D01*
X654004Y530471D01*
X653917Y530529D01*
X653888Y530559D01*
X653858D01*
X654908Y533066D01*
X655229Y532862D01*
X655550Y532716D01*
X655871Y532629D01*
X656191Y532570D01*
X656454Y532512D01*
X656658Y532483D01*
X656862D01*
X657270Y532512D01*
X657649Y532600D01*
X657795Y532658D01*
X657912Y532687D01*
X657970Y532716D01*
X657999D01*
X658378Y532950D01*
X658670Y533183D01*
X658786Y533299D01*
X658845Y533387D01*
X658903Y533445D01*
X658932Y533475D01*
X659195Y533912D01*
X659370Y534320D01*
X659457Y534495D01*
X659515Y534641D01*
X659545Y534728D01*
Y534757D01*
X659690Y535370D01*
X659719Y535691D01*
X659749Y535953D01*
X659778Y536215D01*
Y536390D01*
Y536507D01*
Y536565D01*
X659749Y537294D01*
X659632Y537936D01*
X659515Y538461D01*
X659340Y538898D01*
X659195Y539219D01*
X659049Y539452D01*
X658961Y539598D01*
X658932Y539656D01*
X658611Y540006D01*
X658261Y540239D01*
X657912Y540414D01*
X657591Y540560D01*
X657299Y540619D01*
X657066Y540648D01*
X656920Y540677D01*
X656862D01*
X656454Y540648D01*
X656075Y540589D01*
X655725Y540502D01*
X655433Y540414D01*
X655229Y540298D01*
X655054Y540210D01*
X654937Y540152D01*
X654908Y540123D01*
X653858Y542514D01*
X654442Y542805D01*
X655025Y543039D01*
X655608Y543185D01*
X656162Y543301D01*
X656629Y543359D01*
X656833Y543389D01*
X657008Y543418D01*
X657358D01*
X657766Y543389D01*
D02*
G37*
G36*
X625137Y536711D02*
Y534320D01*
X617234D01*
Y529975D01*
X614144D01*
Y534320D01*
X612394D01*
Y536711D01*
X614144D01*
Y547617D01*
X617789D01*
X625137Y536711D01*
D02*
G37*
G36*
X630852Y542980D02*
X631114Y543068D01*
X631406Y543126D01*
X631522D01*
X631610Y543155D01*
X631698D01*
X632077Y543214D01*
X632397Y543243D01*
X632718D01*
X633272Y543214D01*
X633768Y543155D01*
X634234Y543097D01*
X634613Y543009D01*
X634963Y542893D01*
X635197Y542835D01*
X635342Y542776D01*
X635401Y542747D01*
X635809Y542543D01*
X636188Y542310D01*
X636509Y542076D01*
X636800Y541872D01*
X637005Y541668D01*
X637179Y541493D01*
X637296Y541377D01*
X637325Y541348D01*
X637588Y540998D01*
X637850Y540648D01*
X638025Y540298D01*
X638200Y539948D01*
X638317Y539656D01*
X638433Y539423D01*
X638462Y539277D01*
X638492Y539248D01*
Y539219D01*
X638608Y538752D01*
X638696Y538257D01*
X638783Y537790D01*
X638812Y537353D01*
X638842Y537003D01*
X638871Y536711D01*
Y536595D01*
Y536507D01*
Y536478D01*
Y536449D01*
X638842Y535866D01*
X638812Y535312D01*
X638725Y534787D01*
X638608Y534320D01*
X638492Y533883D01*
X638346Y533475D01*
X638200Y533095D01*
X638025Y532746D01*
X637879Y532454D01*
X637733Y532192D01*
X637588Y531987D01*
X637471Y531783D01*
X637354Y531637D01*
X637267Y531550D01*
X637238Y531492D01*
X637209Y531463D01*
X636888Y531142D01*
X636509Y530879D01*
X636130Y530646D01*
X635722Y530442D01*
X635313Y530267D01*
X634905Y530121D01*
X634118Y529917D01*
X633768Y529830D01*
X633418Y529771D01*
X633097Y529742D01*
X632835Y529713D01*
X632631Y529684D01*
X631756D01*
X631231Y529742D01*
X630764Y529771D01*
X630327Y529830D01*
X630006Y529888D01*
X629744Y529917D01*
X629569Y529975D01*
X629511D01*
X629044Y530092D01*
X628665Y530179D01*
X628315Y530296D01*
X628023Y530384D01*
X627790Y530471D01*
X627644Y530559D01*
X627528Y530588D01*
X627499Y530617D01*
Y549133D01*
X630852D01*
Y542980D01*
D02*
G37*
G36*
X554805Y547908D02*
X555330Y547821D01*
X555796Y547704D01*
X556204Y547588D01*
X556525Y547471D01*
X556787Y547354D01*
X556933Y547267D01*
X556992Y547238D01*
X557400Y546946D01*
X557779Y546625D01*
X558100Y546305D01*
X558362Y546013D01*
X558595Y545721D01*
X558741Y545488D01*
X558858Y545342D01*
X558887Y545313D01*
Y545284D01*
X559149Y544817D01*
X559353Y544322D01*
X559558Y543826D01*
X559703Y543389D01*
X559820Y542980D01*
X559907Y542689D01*
X559937Y542572D01*
Y542485D01*
X559966Y542426D01*
Y542397D01*
X560083Y541756D01*
X560170Y541143D01*
X560228Y540531D01*
X560257Y539977D01*
X560287Y539510D01*
X560316Y539306D01*
Y539131D01*
Y538986D01*
Y538898D01*
Y538840D01*
Y538811D01*
X560287Y538082D01*
X560257Y537411D01*
X560199Y536799D01*
X560141Y536274D01*
X560083Y535836D01*
X560053Y535632D01*
X560024Y535486D01*
X559995Y535370D01*
X559966Y535282D01*
Y535224D01*
Y535195D01*
X559820Y534582D01*
X559645Y534029D01*
X559470Y533533D01*
X559295Y533125D01*
X559149Y532775D01*
X559004Y532512D01*
X558916Y532337D01*
X558887Y532308D01*
Y532279D01*
X558595Y531842D01*
X558275Y531463D01*
X557954Y531142D01*
X557662Y530850D01*
X557400Y530646D01*
X557196Y530471D01*
X557050Y530384D01*
X556992Y530354D01*
X556525Y530121D01*
X556059Y529975D01*
X555592Y529859D01*
X555155Y529771D01*
X554776Y529713D01*
X554484Y529684D01*
X554221D01*
X553638Y529713D01*
X553113Y529800D01*
X552647Y529888D01*
X552239Y530034D01*
X551918Y530150D01*
X551656Y530238D01*
X551510Y530325D01*
X551451Y530354D01*
X551043Y530646D01*
X550664Y530938D01*
X550343Y531258D01*
X550052Y531579D01*
X549848Y531842D01*
X549673Y532075D01*
X549585Y532221D01*
X549556Y532279D01*
X549294Y532775D01*
X549090Y533270D01*
X548885Y533766D01*
X548740Y534203D01*
X548623Y534612D01*
X548535Y534903D01*
X548506Y535020D01*
Y535107D01*
X548477Y535166D01*
Y535195D01*
X548360Y535836D01*
X548273Y536449D01*
X548215Y537061D01*
X548156Y537615D01*
Y538111D01*
X548127Y538315D01*
Y538490D01*
Y538606D01*
Y538723D01*
Y538781D01*
Y538811D01*
Y539510D01*
X548186Y540181D01*
X548244Y540793D01*
X548302Y541318D01*
X548360Y541785D01*
X548390Y541960D01*
X548419Y542106D01*
X548448Y542222D01*
Y542310D01*
X548477Y542368D01*
Y542397D01*
X548623Y543009D01*
X548798Y543564D01*
X548973Y544030D01*
X549148Y544468D01*
X549294Y544817D01*
X549439Y545080D01*
X549527Y545226D01*
X549556Y545284D01*
X549848Y545721D01*
X550168Y546130D01*
X550489Y546450D01*
X550781Y546742D01*
X551043Y546946D01*
X551247Y547121D01*
X551393Y547209D01*
X551451Y547238D01*
X551918Y547471D01*
X552384Y547646D01*
X552851Y547762D01*
X553259Y547850D01*
X553638Y547908D01*
X553959Y547937D01*
X554221D01*
X554805Y547908D01*
D02*
G37*
%LPC*%
G36*
X659093Y586952D02*
X658888D01*
X658451Y586923D01*
X658101Y586836D01*
X657780Y586719D01*
X657518Y586573D01*
X657285Y586428D01*
X657139Y586311D01*
X657051Y586223D01*
X657022Y586194D01*
X656789Y585903D01*
X656643Y585553D01*
X656527Y585174D01*
X656439Y584824D01*
X656381Y584474D01*
X656352Y584212D01*
Y584036D01*
Y584007D01*
Y583978D01*
X661892Y583220D01*
X661833Y583862D01*
X661717Y584416D01*
X661600Y584911D01*
X661425Y585290D01*
X661280Y585611D01*
X661134Y585815D01*
X661046Y585961D01*
X661017Y585990D01*
X660696Y586311D01*
X660346Y586544D01*
X659996Y586719D01*
X659647Y586836D01*
X659355Y586894D01*
X659093Y586952D01*
D02*
G37*
G36*
X618211D02*
X618007D01*
X617570Y586923D01*
X617220Y586836D01*
X616899Y586719D01*
X616637Y586573D01*
X616404Y586428D01*
X616258Y586311D01*
X616170Y586223D01*
X616141Y586194D01*
X615908Y585903D01*
X615762Y585553D01*
X615645Y585174D01*
X615558Y584824D01*
X615500Y584474D01*
X615470Y584212D01*
Y584036D01*
Y584007D01*
Y583978D01*
X621011Y583220D01*
X620952Y583862D01*
X620836Y584416D01*
X620719Y584911D01*
X620544Y585290D01*
X620398Y585611D01*
X620252Y585815D01*
X620165Y585961D01*
X620136Y585990D01*
X619815Y586311D01*
X619465Y586544D01*
X619115Y586719D01*
X618765Y586836D01*
X618474Y586894D01*
X618211Y586952D01*
D02*
G37*
G36*
X604390D02*
X604186D01*
X603748Y586923D01*
X603399Y586836D01*
X603078Y586719D01*
X602815Y586573D01*
X602582Y586428D01*
X602436Y586311D01*
X602349Y586223D01*
X602320Y586194D01*
X602086Y585903D01*
X601940Y585553D01*
X601824Y585174D01*
X601736Y584824D01*
X601678Y584474D01*
X601649Y584212D01*
Y584036D01*
Y584007D01*
Y583978D01*
X607189Y583220D01*
X607131Y583862D01*
X607014Y584416D01*
X606898Y584911D01*
X606723Y585290D01*
X606577Y585611D01*
X606431Y585815D01*
X606344Y585961D01*
X606314Y585990D01*
X605994Y586311D01*
X605644Y586544D01*
X605294Y586719D01*
X604944Y586836D01*
X604652Y586894D01*
X604390Y586952D01*
D02*
G37*
G36*
X576689D02*
X576484D01*
X576047Y586923D01*
X575697Y586836D01*
X575377Y586719D01*
X575114Y586573D01*
X574881Y586428D01*
X574735Y586311D01*
X574647Y586223D01*
X574618Y586194D01*
X574385Y585903D01*
X574239Y585553D01*
X574123Y585174D01*
X574035Y584824D01*
X573977Y584474D01*
X573948Y584212D01*
Y584036D01*
Y584007D01*
Y583978D01*
X579488Y583220D01*
X579430Y583862D01*
X579313Y584416D01*
X579196Y584911D01*
X579021Y585290D01*
X578876Y585611D01*
X578730Y585815D01*
X578642Y585961D01*
X578613Y585990D01*
X578292Y586311D01*
X577943Y586544D01*
X577593Y586719D01*
X577243Y586836D01*
X576951Y586894D01*
X576689Y586952D01*
D02*
G37*
G36*
X708372Y591239D02*
X708051D01*
X707439Y591210D01*
X706914Y591122D01*
X706476Y590976D01*
X706068Y590772D01*
X705747Y590539D01*
X705485Y590277D01*
X705252Y590014D01*
X705077Y589752D01*
X704931Y589460D01*
X704814Y589198D01*
X704756Y588935D01*
X704697Y588702D01*
X704668Y588527D01*
X704639Y588352D01*
Y588265D01*
Y588236D01*
X704668Y587740D01*
X704785Y587302D01*
X704931Y586923D01*
X705106Y586632D01*
X705310Y586369D01*
X705456Y586194D01*
X705572Y586078D01*
X705602Y586049D01*
X705981Y585786D01*
X706418Y585582D01*
X706885Y585465D01*
X707322Y585349D01*
X707730Y585290D01*
X708080Y585261D01*
X708692D01*
X708984Y585290D01*
X709217D01*
X709451Y585320D01*
X709596Y585349D01*
X709742D01*
X709800Y585378D01*
X709830D01*
Y590976D01*
X709567Y591064D01*
X709305Y591122D01*
X709217D01*
X709130Y591151D01*
X709042D01*
X708663Y591210D01*
X708372Y591239D01*
D02*
G37*
G36*
X530938Y590656D02*
X530880D01*
Y590568D01*
Y590481D01*
Y590189D01*
X530909Y590073D01*
Y589956D01*
Y589868D01*
Y589839D01*
X530938Y589343D01*
Y589081D01*
Y588848D01*
Y588644D01*
Y588498D01*
Y588381D01*
Y588352D01*
Y582666D01*
X536070D01*
X532075Y588644D01*
X531958Y588819D01*
X531842Y588994D01*
X531783Y589110D01*
X531754Y589169D01*
X531638Y589402D01*
X531521Y589606D01*
X531434Y589723D01*
X531404Y589781D01*
X531288Y589985D01*
X531200Y590160D01*
X531142Y590277D01*
X531113Y590306D01*
X531025Y590452D01*
X530967Y590568D01*
X530938Y590626D01*
Y590656D01*
D02*
G37*
G36*
X693530Y586748D02*
X693471D01*
X693005Y586690D01*
X692626Y586573D01*
X692276Y586398D01*
X692013Y586194D01*
X691780Y585961D01*
X691634Y585786D01*
X691547Y585669D01*
X691518Y585611D01*
X691284Y585174D01*
X691139Y584649D01*
X691022Y584153D01*
X690934Y583657D01*
X690876Y583220D01*
Y583016D01*
X690847Y582841D01*
Y582724D01*
Y582608D01*
Y582549D01*
Y582520D01*
X690876Y581820D01*
X690964Y581208D01*
X691051Y580683D01*
X691168Y580246D01*
X691313Y579896D01*
X691401Y579633D01*
X691488Y579488D01*
X691518Y579429D01*
X691780Y579050D01*
X692101Y578788D01*
X692421Y578584D01*
X692742Y578467D01*
X693034Y578380D01*
X693267Y578350D01*
X693413Y578321D01*
X693471D01*
X693938Y578380D01*
X694346Y578496D01*
X694667Y578671D01*
X694958Y578875D01*
X695163Y579080D01*
X695337Y579254D01*
X695425Y579371D01*
X695454Y579429D01*
X695687Y579896D01*
X695833Y580392D01*
X695950Y580916D01*
X696037Y581412D01*
X696096Y581850D01*
Y582025D01*
X696125Y582200D01*
Y582345D01*
Y582433D01*
Y582491D01*
Y582520D01*
X696096Y583220D01*
X696008Y583832D01*
X695921Y584357D01*
X695775Y584824D01*
X695658Y585145D01*
X695571Y585407D01*
X695483Y585553D01*
X695454Y585611D01*
X695163Y585990D01*
X694871Y586282D01*
X694521Y586486D01*
X694200Y586603D01*
X693909Y586690D01*
X693675Y586719D01*
X693530Y586748D01*
D02*
G37*
G36*
X590044Y586690D02*
X589577D01*
X589285Y586661D01*
X589198Y586632D01*
X589110D01*
X589052Y586603D01*
X589023D01*
X588731Y586544D01*
X588498Y586486D01*
X588382Y586457D01*
X588352Y586428D01*
Y578496D01*
X588557Y578409D01*
X588761Y578350D01*
X588936Y578321D01*
X588994Y578292D01*
X589023D01*
X589344Y578263D01*
X589635Y578234D01*
X589898D01*
X590423Y578292D01*
X590918Y578409D01*
X591297Y578584D01*
X591647Y578788D01*
X591910Y578992D01*
X592114Y579167D01*
X592230Y579284D01*
X592260Y579342D01*
X592522Y579808D01*
X592726Y580304D01*
X592872Y580829D01*
X592960Y581325D01*
X593018Y581762D01*
X593047Y581966D01*
X593076Y582141D01*
Y582258D01*
Y582374D01*
Y582433D01*
Y582462D01*
X593047Y583133D01*
X592960Y583716D01*
X592814Y584241D01*
X592668Y584678D01*
X592522Y585028D01*
X592376Y585290D01*
X592289Y585436D01*
X592260Y585494D01*
X591910Y585903D01*
X591531Y586194D01*
X591152Y586398D01*
X590773Y586544D01*
X590423Y586632D01*
X590160Y586661D01*
X590044Y586690D01*
D02*
G37*
G36*
X475652Y591239D02*
X475535D01*
X475273Y591210D01*
X475040Y591180D01*
X474806Y591093D01*
X474632Y591006D01*
X474486Y590918D01*
X474369Y590860D01*
X474311Y590801D01*
X474282Y590772D01*
X474107Y590568D01*
X473932Y590364D01*
X473669Y589927D01*
X473553Y589723D01*
X473494Y589577D01*
X473436Y589460D01*
Y589431D01*
X473319Y589110D01*
X473232Y588760D01*
X473144Y588410D01*
X473086Y588090D01*
X473028Y587827D01*
X472999Y587594D01*
X472969Y587448D01*
Y587390D01*
X472853Y586486D01*
X472824Y586049D01*
Y585640D01*
X472794Y585290D01*
Y584999D01*
Y584824D01*
Y584795D01*
Y584766D01*
Y584241D01*
X472824Y583745D01*
X472853Y583307D01*
X472882Y582929D01*
X472911Y582608D01*
X472940Y582345D01*
X472969Y582200D01*
Y582141D01*
X473028Y581733D01*
X473115Y581325D01*
X473173Y580975D01*
X473261Y580683D01*
X473319Y580450D01*
X473378Y580246D01*
X473407Y580129D01*
X473436Y580100D01*
X473553Y579808D01*
X473698Y579546D01*
X473844Y579313D01*
X473990Y579138D01*
X474107Y578992D01*
X474194Y578875D01*
X474252Y578817D01*
X474282Y578788D01*
X474486Y578642D01*
X474690Y578525D01*
X474894Y578438D01*
X475098Y578380D01*
X475273Y578350D01*
X475419Y578321D01*
X475535D01*
X475798Y578350D01*
X476031Y578409D01*
X476264Y578467D01*
X476439Y578555D01*
X476585Y578642D01*
X476702Y578730D01*
X476760Y578759D01*
X476789Y578788D01*
X476964Y578992D01*
X477139Y579196D01*
X477431Y579633D01*
X477518Y579808D01*
X477606Y579954D01*
X477635Y580071D01*
X477664Y580100D01*
X477868Y580800D01*
X477956Y581121D01*
X478014Y581441D01*
X478072Y581733D01*
X478101Y581937D01*
X478131Y582083D01*
Y582141D01*
X478218Y583045D01*
X478247Y583512D01*
Y583891D01*
X478276Y584241D01*
Y584532D01*
Y584707D01*
Y584736D01*
Y584766D01*
Y585290D01*
X478247Y585786D01*
X478218Y586223D01*
X478189Y586632D01*
Y586952D01*
X478160Y587186D01*
X478131Y587332D01*
Y587390D01*
X478072Y587827D01*
X477985Y588206D01*
X477926Y588556D01*
X477839Y588848D01*
X477781Y589110D01*
X477722Y589285D01*
X477664Y589402D01*
Y589431D01*
X477518Y589752D01*
X477372Y590014D01*
X477227Y590247D01*
X477081Y590422D01*
X476964Y590568D01*
X476877Y590685D01*
X476818Y590743D01*
X476789Y590772D01*
X476585Y590918D01*
X476381Y591035D01*
X476148Y591122D01*
X475973Y591180D01*
X475798Y591210D01*
X475652Y591239D01*
D02*
G37*
G36*
X667388Y563713D02*
X667097D01*
X666601Y563654D01*
X666134Y563538D01*
X665755Y563363D01*
X665464Y563188D01*
X665201Y562984D01*
X665026Y562809D01*
X664910Y562692D01*
X664881Y562634D01*
X664618Y562196D01*
X664414Y561701D01*
X664268Y561205D01*
X664152Y560709D01*
X664093Y560272D01*
Y560097D01*
X664064Y559922D01*
Y559776D01*
Y559689D01*
Y559630D01*
Y559601D01*
X664093Y558843D01*
X664210Y558172D01*
X664327Y557618D01*
X664502Y557152D01*
X664647Y556802D01*
X664793Y556539D01*
X664910Y556394D01*
X664939Y556335D01*
X665289Y555985D01*
X665668Y555723D01*
X666047Y555519D01*
X666397Y555402D01*
X666747Y555315D01*
X667009Y555286D01*
X667184Y555256D01*
X667563D01*
X667855Y555286D01*
X667971D01*
X668059Y555315D01*
X668117D01*
X668380Y555373D01*
X668613Y555461D01*
X668730Y555490D01*
X668788Y555519D01*
Y563392D01*
X668526Y563479D01*
X668292Y563567D01*
X668088Y563596D01*
X668059Y563625D01*
X668030D01*
X667680Y563683D01*
X667388Y563713D01*
D02*
G37*
G36*
X707657Y559280D02*
X707511D01*
Y555286D01*
X707745Y555198D01*
X708007Y555140D01*
X708124Y555111D01*
X708240D01*
X708299Y555081D01*
X708328D01*
X708707Y555052D01*
X709057Y555023D01*
X709378D01*
X709844Y555052D01*
X710252Y555111D01*
X710602Y555169D01*
X710894Y555286D01*
X711127Y555373D01*
X711273Y555431D01*
X711390Y555490D01*
X711419Y555519D01*
X711652Y555723D01*
X711798Y555956D01*
X711915Y556219D01*
X712002Y556452D01*
X712060Y556656D01*
X712089Y556831D01*
Y556948D01*
Y556977D01*
X712060Y557239D01*
X712031Y557472D01*
X711973Y557677D01*
X711885Y557822D01*
X711827Y557968D01*
X711769Y558056D01*
X711740Y558114D01*
X711710Y558143D01*
X711390Y558435D01*
X711069Y558639D01*
X710923Y558726D01*
X710806Y558785D01*
X710748Y558814D01*
X710719D01*
X710223Y558989D01*
X709786Y559076D01*
X709582Y559105D01*
X709436Y559135D01*
X709290D01*
X708649Y559193D01*
X708357Y559222D01*
X708095Y559251D01*
X707861D01*
X707657Y559280D01*
D02*
G37*
G36*
X585422Y559280D02*
X585276D01*
Y555286D01*
X585509Y555198D01*
X585772Y555140D01*
X585888Y555111D01*
X586005D01*
X586063Y555081D01*
X586092D01*
X586472Y555052D01*
X586822Y555023D01*
X587142D01*
X587609Y555052D01*
X588017Y555111D01*
X588367Y555169D01*
X588658Y555286D01*
X588892Y555373D01*
X589038Y555431D01*
X589154Y555490D01*
X589183Y555519D01*
X589417Y555723D01*
X589562Y555956D01*
X589679Y556219D01*
X589767Y556452D01*
X589825Y556656D01*
X589854Y556831D01*
Y556948D01*
Y556977D01*
X589825Y557239D01*
X589796Y557472D01*
X589737Y557677D01*
X589650Y557822D01*
X589592Y557968D01*
X589533Y558056D01*
X589504Y558114D01*
X589475Y558143D01*
X589154Y558435D01*
X588834Y558639D01*
X588688Y558726D01*
X588571Y558785D01*
X588513Y558814D01*
X588484D01*
X587988Y558989D01*
X587551Y559076D01*
X587346Y559105D01*
X587201Y559135D01*
X587055D01*
X586413Y559193D01*
X586122Y559222D01*
X585859Y559251D01*
X585626D01*
X585422Y559280D01*
D02*
G37*
G36*
X723082Y563975D02*
X722878D01*
X722441Y563946D01*
X722091Y563858D01*
X721770Y563742D01*
X721508Y563596D01*
X721275Y563450D01*
X721129Y563334D01*
X721041Y563246D01*
X721012Y563217D01*
X720779Y562925D01*
X720633Y562575D01*
X720516Y562196D01*
X720429Y561846D01*
X720371Y561497D01*
X720341Y561234D01*
Y561059D01*
Y561030D01*
Y561001D01*
X725882Y560243D01*
X725823Y560884D01*
X725707Y561438D01*
X725590Y561934D01*
X725415Y562313D01*
X725269Y562634D01*
X725124Y562838D01*
X725036Y562984D01*
X725007Y563013D01*
X724686Y563334D01*
X724336Y563567D01*
X723986Y563742D01*
X723636Y563858D01*
X723345Y563917D01*
X723082Y563975D01*
D02*
G37*
G36*
X616039Y563975D02*
X615835D01*
X615397Y563946D01*
X615048Y563858D01*
X614727Y563742D01*
X614464Y563596D01*
X614231Y563450D01*
X614085Y563334D01*
X613998Y563246D01*
X613969Y563217D01*
X613735Y562925D01*
X613590Y562575D01*
X613473Y562196D01*
X613386Y561846D01*
X613327Y561497D01*
X613298Y561234D01*
Y561059D01*
Y561030D01*
Y561001D01*
X618838Y560243D01*
X618780Y560884D01*
X618663Y561438D01*
X618547Y561934D01*
X618372Y562313D01*
X618226Y562634D01*
X618080Y562838D01*
X617993Y562984D01*
X617963Y563013D01*
X617643Y563334D01*
X617293Y563567D01*
X616943Y563742D01*
X616593Y563858D01*
X616301Y563917D01*
X616039Y563975D01*
D02*
G37*
G36*
X502726Y568261D02*
X502406D01*
X501793Y568232D01*
X501268Y568145D01*
X500831Y567999D01*
X500423Y567795D01*
X500102Y567562D01*
X499840Y567299D01*
X499606Y567037D01*
X499431Y566774D01*
X499286Y566483D01*
X499169Y566220D01*
X499111Y565958D01*
X499052Y565724D01*
X499023Y565550D01*
X498994Y565375D01*
Y565287D01*
Y565258D01*
X499023Y564762D01*
X499140Y564325D01*
X499286Y563946D01*
X499460Y563654D01*
X499665Y563392D01*
X499810Y563217D01*
X499927Y563100D01*
X499956Y563071D01*
X500335Y562809D01*
X500773Y562604D01*
X501239Y562488D01*
X501677Y562371D01*
X502085Y562313D01*
X502435Y562284D01*
X503047D01*
X503339Y562313D01*
X503572D01*
X503805Y562342D01*
X503951Y562371D01*
X504097D01*
X504155Y562400D01*
X504184D01*
Y567999D01*
X503922Y568086D01*
X503659Y568145D01*
X503572D01*
X503484Y568174D01*
X503397D01*
X503018Y568232D01*
X502726Y568261D01*
D02*
G37*
G36*
X466861D02*
X466540D01*
X465927Y568232D01*
X465403Y568145D01*
X464965Y567999D01*
X464557Y567795D01*
X464236Y567562D01*
X463974Y567299D01*
X463741Y567037D01*
X463565Y566774D01*
X463420Y566483D01*
X463303Y566220D01*
X463245Y565958D01*
X463186Y565724D01*
X463157Y565550D01*
X463128Y565375D01*
Y565287D01*
Y565258D01*
X463157Y564762D01*
X463274Y564325D01*
X463420Y563946D01*
X463595Y563654D01*
X463799Y563392D01*
X463945Y563217D01*
X464061Y563100D01*
X464090Y563071D01*
X464469Y562809D01*
X464907Y562604D01*
X465373Y562488D01*
X465811Y562371D01*
X466219Y562313D01*
X466569Y562284D01*
X467181D01*
X467473Y562313D01*
X467706D01*
X467939Y562342D01*
X468085Y562371D01*
X468231D01*
X468289Y562400D01*
X468318D01*
Y567999D01*
X468056Y568086D01*
X467794Y568145D01*
X467706D01*
X467619Y568174D01*
X467531D01*
X467152Y568232D01*
X466861Y568261D01*
D02*
G37*
G36*
X527366Y568290D02*
X527016D01*
X526404Y568261D01*
X525908Y568174D01*
X525471Y568086D01*
X525121Y567970D01*
X524858Y567824D01*
X524654Y567737D01*
X524537Y567649D01*
X524508Y567620D01*
X524246Y567357D01*
X524042Y567037D01*
X523896Y566745D01*
X523779Y566424D01*
X523721Y566162D01*
X523692Y565958D01*
Y565812D01*
Y565754D01*
X523721Y565287D01*
X523750Y565083D01*
X523809Y564908D01*
X523838Y564762D01*
X523896Y564646D01*
X523925Y564587D01*
Y564558D01*
X524129Y564208D01*
X524304Y563946D01*
X524479Y563771D01*
X524508Y563742D01*
X524537Y563713D01*
X524858Y563508D01*
X525150Y563392D01*
X525296Y563334D01*
X525383Y563304D01*
X525441Y563275D01*
X525471D01*
X525675Y563217D01*
X525908Y563188D01*
X526375Y563158D01*
X526579Y563129D01*
X529057D01*
Y567999D01*
X528795Y568086D01*
X528503Y568145D01*
X528386Y568174D01*
X528270Y568203D01*
X528182D01*
X527745Y568261D01*
X527366Y568290D01*
D02*
G37*
G36*
X529057Y560709D02*
X526520D01*
X526229Y560680D01*
X525995Y560651D01*
X525791D01*
X525616Y560622D01*
X525500Y560592D01*
X525441Y560563D01*
X525412D01*
X525033Y560447D01*
X524742Y560301D01*
X524625Y560213D01*
X524537Y560184D01*
X524479Y560126D01*
X524450D01*
X524071Y559834D01*
X523809Y559514D01*
X523604Y559164D01*
X523488Y558785D01*
X523400Y558464D01*
X523371Y558201D01*
X523342Y558027D01*
Y557997D01*
Y557968D01*
X523371Y557502D01*
X523488Y557064D01*
X523692Y556714D01*
X523896Y556394D01*
X524188Y556131D01*
X524508Y555927D01*
X524829Y555752D01*
X525150Y555606D01*
X525500Y555490D01*
X525820Y555402D01*
X526141Y555344D01*
X526404Y555285D01*
X526637D01*
X526841Y555256D01*
X526987D01*
X527395Y555285D01*
X527774Y555315D01*
X527920D01*
X528036Y555344D01*
X528124D01*
X528503Y555402D01*
X528795Y555490D01*
X528911Y555519D01*
X528999D01*
X529028Y555548D01*
X529057D01*
Y560709D01*
D02*
G37*
G36*
X488467Y567999D02*
X487797D01*
X487476Y567941D01*
X487184Y567882D01*
X486951Y567824D01*
X486747Y567766D01*
X486601Y567707D01*
X486485Y567678D01*
X486455Y567649D01*
X486164Y567503D01*
X485901Y567328D01*
X485697Y567153D01*
X485493Y566978D01*
X485318Y566803D01*
X485202Y566658D01*
X485143Y566570D01*
X485114Y566541D01*
X484910Y566249D01*
X484735Y565929D01*
X484589Y565579D01*
X484473Y565287D01*
X484385Y564995D01*
X484327Y564791D01*
X484269Y564646D01*
Y564587D01*
X484152Y564121D01*
X484094Y563654D01*
X484035Y563188D01*
X483977Y562750D01*
Y562371D01*
X483948Y562051D01*
Y561934D01*
Y561875D01*
Y561817D01*
Y561788D01*
Y561176D01*
X484006Y560651D01*
X484035Y560155D01*
X484094Y559747D01*
X484152Y559397D01*
X484210Y559134D01*
X484239Y558989D01*
X484269Y558930D01*
X484385Y558522D01*
X484531Y558143D01*
X484677Y557822D01*
X484793Y557531D01*
X484910Y557298D01*
X485027Y557152D01*
X485085Y557035D01*
X485114Y557006D01*
X485318Y556744D01*
X485552Y556510D01*
X485785Y556335D01*
X485989Y556160D01*
X486164Y556044D01*
X486310Y555956D01*
X486426Y555927D01*
X486455Y555898D01*
X486747Y555781D01*
X487039Y555694D01*
X487301Y555635D01*
X487564Y555606D01*
X487797Y555577D01*
X487972Y555548D01*
X488497D01*
X488817Y555577D01*
X489109Y555635D01*
X489313Y555665D01*
X489488Y555723D01*
X489634Y555752D01*
X489692Y555781D01*
X489721D01*
Y567766D01*
X489488Y567853D01*
X489226Y567911D01*
X488701Y567970D01*
X488467Y567999D01*
D02*
G37*
G36*
X439567Y568290D02*
X439218D01*
X438605Y568261D01*
X438110Y568174D01*
X437672Y568086D01*
X437322Y567970D01*
X437060Y567824D01*
X436856Y567737D01*
X436739Y567649D01*
X436710Y567620D01*
X436447Y567357D01*
X436243Y567037D01*
X436098Y566745D01*
X435981Y566424D01*
X435923Y566162D01*
X435894Y565958D01*
Y565812D01*
Y565754D01*
X435923Y565287D01*
X435952Y565083D01*
X436010Y564908D01*
X436039Y564762D01*
X436098Y564646D01*
X436127Y564587D01*
Y564558D01*
X436331Y564208D01*
X436506Y563946D01*
X436681Y563771D01*
X436710Y563742D01*
X436739Y563713D01*
X437060Y563508D01*
X437351Y563392D01*
X437497Y563334D01*
X437585Y563304D01*
X437643Y563275D01*
X437672D01*
X437876Y563217D01*
X438110Y563188D01*
X438576Y563158D01*
X438780Y563129D01*
X441259D01*
Y567999D01*
X440996Y568086D01*
X440705Y568145D01*
X440588Y568174D01*
X440471Y568203D01*
X440384D01*
X439947Y568261D01*
X439567Y568290D01*
D02*
G37*
G36*
X441259Y560709D02*
X438722D01*
X438430Y560680D01*
X438197Y560651D01*
X437993D01*
X437818Y560622D01*
X437701Y560592D01*
X437643Y560563D01*
X437614D01*
X437235Y560447D01*
X436943Y560301D01*
X436827Y560213D01*
X436739Y560184D01*
X436681Y560126D01*
X436652D01*
X436273Y559834D01*
X436010Y559514D01*
X435806Y559164D01*
X435689Y558785D01*
X435602Y558464D01*
X435573Y558201D01*
X435544Y558027D01*
Y557997D01*
Y557968D01*
X435573Y557502D01*
X435689Y557064D01*
X435894Y556714D01*
X436098Y556394D01*
X436389Y556131D01*
X436710Y555927D01*
X437031Y555752D01*
X437351Y555606D01*
X437701Y555490D01*
X438022Y555402D01*
X438343Y555344D01*
X438605Y555285D01*
X438839D01*
X439043Y555256D01*
X439188D01*
X439597Y555285D01*
X439976Y555315D01*
X440121D01*
X440238Y555344D01*
X440326D01*
X440705Y555402D01*
X440996Y555490D01*
X441113Y555519D01*
X441200D01*
X441230Y555548D01*
X441259D01*
Y560709D01*
D02*
G37*
G36*
X644673Y536303D02*
X644528D01*
Y532308D01*
X644761Y532221D01*
X645023Y532162D01*
X645140Y532133D01*
X645257D01*
X645315Y532104D01*
X645344D01*
X645723Y532075D01*
X646073Y532046D01*
X646394D01*
X646860Y532075D01*
X647269Y532133D01*
X647618Y532192D01*
X647910Y532308D01*
X648143Y532396D01*
X648289Y532454D01*
X648406Y532512D01*
X648435Y532541D01*
X648668Y532746D01*
X648814Y532979D01*
X648931Y533241D01*
X649018Y533475D01*
X649076Y533679D01*
X649106Y533853D01*
Y533970D01*
Y533999D01*
X649076Y534262D01*
X649047Y534495D01*
X648989Y534699D01*
X648901Y534845D01*
X648843Y534991D01*
X648785Y535078D01*
X648756Y535136D01*
X648727Y535166D01*
X648406Y535457D01*
X648085Y535661D01*
X647939Y535749D01*
X647822Y535807D01*
X647764Y535836D01*
X647735D01*
X647239Y536011D01*
X646802Y536099D01*
X646598Y536128D01*
X646452Y536157D01*
X646306D01*
X645665Y536215D01*
X645373Y536245D01*
X645111Y536274D01*
X644877D01*
X644673Y536303D01*
D02*
G37*
G36*
X617118Y544701D02*
X617060D01*
Y544613D01*
Y544526D01*
Y544234D01*
X617089Y544118D01*
Y544001D01*
Y543913D01*
Y543884D01*
X617118Y543389D01*
Y543126D01*
Y542893D01*
Y542689D01*
Y542543D01*
Y542426D01*
Y542397D01*
Y536711D01*
X622250D01*
X618255Y542689D01*
X618139Y542864D01*
X618022Y543039D01*
X617963Y543155D01*
X617934Y543214D01*
X617818Y543447D01*
X617701Y543651D01*
X617614Y543768D01*
X617584Y543826D01*
X617468Y544030D01*
X617380Y544205D01*
X617322Y544322D01*
X617293Y544351D01*
X617205Y544497D01*
X617147Y544613D01*
X617118Y544672D01*
Y544701D01*
D02*
G37*
G36*
X632543Y540735D02*
X632077D01*
X631785Y540706D01*
X631698Y540677D01*
X631610D01*
X631552Y540648D01*
X631522D01*
X631231Y540589D01*
X630998Y540531D01*
X630881Y540502D01*
X630852Y540473D01*
Y532541D01*
X631056Y532454D01*
X631260Y532396D01*
X631435Y532366D01*
X631493Y532337D01*
X631522D01*
X631843Y532308D01*
X632135Y532279D01*
X632397D01*
X632922Y532337D01*
X633418Y532454D01*
X633797Y532629D01*
X634147Y532833D01*
X634409Y533037D01*
X634613Y533212D01*
X634730Y533329D01*
X634759Y533387D01*
X635022Y533853D01*
X635226Y534349D01*
X635372Y534874D01*
X635459Y535370D01*
X635517Y535807D01*
X635546Y536011D01*
X635576Y536186D01*
Y536303D01*
Y536420D01*
Y536478D01*
Y536507D01*
X635546Y537178D01*
X635459Y537761D01*
X635313Y538286D01*
X635167Y538723D01*
X635022Y539073D01*
X634876Y539336D01*
X634788Y539481D01*
X634759Y539540D01*
X634409Y539948D01*
X634030Y540239D01*
X633651Y540443D01*
X633272Y540589D01*
X632922Y540677D01*
X632660Y540706D01*
X632543Y540735D01*
D02*
G37*
G36*
X554338Y545284D02*
X554221D01*
X553959Y545255D01*
X553726Y545226D01*
X553493Y545138D01*
X553318Y545051D01*
X553172Y544963D01*
X553055Y544905D01*
X552997Y544847D01*
X552968Y544817D01*
X552793Y544613D01*
X552618Y544409D01*
X552355Y543972D01*
X552239Y543768D01*
X552180Y543622D01*
X552122Y543505D01*
Y543476D01*
X552005Y543155D01*
X551918Y542805D01*
X551830Y542455D01*
X551772Y542135D01*
X551714Y541872D01*
X551685Y541639D01*
X551656Y541493D01*
Y541435D01*
X551539Y540531D01*
X551510Y540094D01*
Y539685D01*
X551480Y539336D01*
Y539044D01*
Y538869D01*
Y538840D01*
Y538811D01*
Y538286D01*
X551510Y537790D01*
X551539Y537353D01*
X551568Y536974D01*
X551597Y536653D01*
X551626Y536390D01*
X551656Y536245D01*
Y536186D01*
X551714Y535778D01*
X551801Y535370D01*
X551860Y535020D01*
X551947Y534728D01*
X552005Y534495D01*
X552064Y534291D01*
X552093Y534174D01*
X552122Y534145D01*
X552239Y533853D01*
X552384Y533591D01*
X552530Y533358D01*
X552676Y533183D01*
X552793Y533037D01*
X552880Y532920D01*
X552938Y532862D01*
X552968Y532833D01*
X553172Y532687D01*
X553376Y532570D01*
X553580Y532483D01*
X553784Y532425D01*
X553959Y532396D01*
X554105Y532366D01*
X554221D01*
X554484Y532396D01*
X554717Y532454D01*
X554950Y532512D01*
X555125Y532600D01*
X555271Y532687D01*
X555388Y532775D01*
X555446Y532804D01*
X555475Y532833D01*
X555650Y533037D01*
X555825Y533241D01*
X556117Y533679D01*
X556204Y533853D01*
X556292Y533999D01*
X556321Y534116D01*
X556350Y534145D01*
X556554Y534845D01*
X556642Y535166D01*
X556700Y535486D01*
X556758Y535778D01*
X556787Y535982D01*
X556817Y536128D01*
Y536186D01*
X556904Y537090D01*
X556933Y537557D01*
Y537936D01*
X556963Y538286D01*
Y538577D01*
Y538752D01*
Y538781D01*
Y538811D01*
Y539336D01*
X556933Y539831D01*
X556904Y540269D01*
X556875Y540677D01*
Y540998D01*
X556846Y541231D01*
X556817Y541377D01*
Y541435D01*
X556758Y541872D01*
X556671Y542251D01*
X556613Y542601D01*
X556525Y542893D01*
X556467Y543155D01*
X556408Y543330D01*
X556350Y543447D01*
Y543476D01*
X556204Y543797D01*
X556059Y544059D01*
X555913Y544292D01*
X555767Y544468D01*
X555650Y544613D01*
X555563Y544730D01*
X555504Y544788D01*
X555475Y544817D01*
X555271Y544963D01*
X555067Y545080D01*
X554834Y545167D01*
X554659Y545226D01*
X554484Y545255D01*
X554338Y545284D01*
D02*
G37*
%LPD*%
D110*
X792249Y235637D02*
G03*
X776320Y235637I-7965J17304D01*
G01*
X776762Y234518D02*
G03*
X776320Y235637I-806J329D01*
G01*
X764203Y206073D02*
G03*
X765342Y206548I333J804D01*
G01*
X758000Y208642D02*
G03*
X757179Y208559I-333J-804D01*
G01*
X742434Y199435D02*
G03*
X743537Y199329I615J615D01*
G01*
X730673Y212194D02*
G03*
X730778Y211091I721J-488D01*
G01*
X739902Y225836D02*
G03*
X739985Y226657I-721J488D01*
G01*
X734374Y240203D02*
G03*
X733735Y240725I-804J-333D01*
G01*
X716857Y244700D02*
G03*
X717562Y243845I871J-0D01*
G01*
Y262038D02*
G03*
X716857Y261183I165J-855D01*
G01*
X733735Y265158D02*
G03*
X734374Y265680I-165J855D01*
G01*
X739985Y279226D02*
G03*
X739902Y280047I-804J333D01*
G01*
X730778Y294793D02*
G03*
X730673Y293689I615J-616D01*
G01*
X743537Y306554D02*
G03*
X742434Y306448I-488J-721D01*
G01*
X757179Y297324D02*
G03*
X758000Y297241I488J721D01*
G01*
X771546Y302852D02*
G03*
X772068Y303491I-333J804D01*
G01*
X776043Y320370D02*
G03*
X775188Y319664I0J-870D01*
G01*
X793381D02*
G03*
X792527Y320370I-855J-165D01*
G01*
X796501Y303491D02*
G03*
X797023Y302852I855J165D01*
G01*
X810570Y297241D02*
G03*
X811391Y297324I333J804D01*
G01*
X826136Y306448D02*
G03*
X825032Y306554I-615J-615D01*
G01*
X837897Y293689D02*
G03*
X837792Y294793I-721J488D01*
G01*
X828668Y280047D02*
G03*
X828584Y279226I721J-488D01*
G01*
X834195Y265680D02*
G03*
X834835Y265158I804J333D01*
G01*
X851713Y261183D02*
G03*
X851008Y262038I-870J0D01*
G01*
Y243845D02*
G03*
X851713Y244700I-165J855D01*
G01*
X834835Y240725D02*
G03*
X834195Y240203I165J-855D01*
G01*
X828584Y226657D02*
G03*
X828668Y225836I804J-333D01*
G01*
X837792Y211091D02*
G03*
X837897Y212194I-615J616D01*
G01*
X825032Y199329D02*
G03*
X826136Y199435I488J721D01*
G01*
X811391Y208559D02*
G03*
X810570Y208642I-488J-721D01*
G01*
X803227Y206548D02*
G03*
X804367Y206073I806J329D01*
G01*
X792249Y235637D02*
G03*
X791807Y234518I364J-791D01*
G01*
X765342Y206548D02*
X776762Y234518D01*
X758000Y208642D02*
X764203Y206073D01*
X743537Y199329D02*
X757179Y208559D01*
X730778Y211091D02*
X742434Y199435D01*
X730673Y212194D02*
X739902Y225836D01*
X734374Y240203D02*
X739985Y226657D01*
X717562Y243845D02*
X733735Y240725D01*
X716857Y244700D02*
Y261183D01*
X717562Y262038D02*
X733735Y265158D01*
X734374Y265680D02*
X739985Y279226D01*
X730673Y293689D02*
X739902Y280047D01*
X730778Y294793D02*
X742434Y306448D01*
X743537Y306554D02*
X757179Y297324D01*
X758000Y297241D02*
X771546Y302852D01*
X772068Y303491D02*
X775188Y319664D01*
X776043Y320370D02*
X792527D01*
X793381Y319664D02*
X796501Y303491D01*
X797023Y302852D02*
X810570Y297241D01*
X811391Y297324D02*
X825033Y306554D01*
X826136Y306448D02*
X837792Y294793D01*
X828667Y280047D02*
X837897Y293689D01*
X828584Y279226D02*
X834195Y265680D01*
X834835Y265158D02*
X851007Y262038D01*
X851713Y244700D02*
Y261183D01*
X834835Y240725D02*
X851007Y243845D01*
X828584Y226657D02*
X834195Y240203D01*
X828667Y225836D02*
X837897Y212194D01*
X826136Y199435D02*
X837792Y211091D01*
X811391Y208559D02*
X825033Y199329D01*
X804367Y206073D02*
X810570Y208642D01*
X791807Y234518D02*
X803228Y206548D01*
M02*
