M48
;Layer_Color=9474304
;FILE_FORMAT=2:5
INCH
;TYPE=PLATED
T1F00S00C0.01181
T3F00S00C0.03937
T4F00S00C0.05500
T5F00S00C0.05512
T6F00S00C0.10236
%
T01
X0335661Y0097239
X0336252Y0099798
X0333693Y0099208
X0331670Y0105059
X0339942Y0097398
X0351410Y0097130
X0357316Y0097239
X0356725Y0099798
X0359284Y0099208
X0357658Y0116059
X0355342Y0114798
Y0117357
X0355942Y0124398
X0358870Y0127359
X0349770Y0125259
X0345652Y0125877
X0335242Y0138598
X0342702Y0153691
X0341831Y0164070
X0339075
Y0166826
X0341831
Y0169582
Y0172338
X0339075
Y0169582
X0336319
Y0172338
X0333563
Y0169582
Y0166826
Y0164070
X0336319
Y0166826
X0367920Y0166220
X0370676
Y0168976
X0367920
Y0171732
Y0174488
X0370676
Y0171732
X0373432
Y0174488
X0376188
Y0171732
Y0168976
Y0166220
X0373432
Y0168976
X0381724Y0159641
X0382118Y0149798
Y0146649
Y0143499
X0378575
Y0146649
Y0149798
X0375031
Y0146649
Y0143499
X0385858Y0129720
Y0126767
Y0123814
Y0120861
Y0117909
X0388811
Y0120861
Y0123814
Y0126767
Y0129720
X0391764
Y0126767
Y0123814
X0394717
X0397669
X0400622
Y0126767
Y0129720
X0397669
Y0126767
X0394717
Y0129720
Y0120861
Y0117909
X0391764
Y0120861
X0397669
Y0117909
Y0114956
X0400622
X0400622Y0117909
Y0120861
X0394717Y0114956
X0391764
X0388811Y0114956
X0385858Y0114956
X0397670Y0084059
X0397597Y0079386
X0403370Y0077859
X0403270Y0074159
X0403470Y0070259
X0418817Y0068886
X0426770Y0076259
X0417770Y0092059
X0423180Y0103250
X0421370Y0105318
X0430043Y0097987
X0429070Y0116759
X0443170Y0138759
X0441370Y0150259
X0442570Y0172459
X0445331Y0179641
X0428710Y0177959
X0428870Y0181859
X0410770Y0173559
X0417670Y0158759
X0455618Y0167909
X0354842Y0148898
X0315976Y0129720
X0313024
Y0126767
X0310071
Y0129720
X0307118
Y0126767
Y0123814
X0310071
X0313024
X0315976
Y0126767
Y0120861
Y0117909
X0313024
Y0120861
X0310071
Y0117909
X0307118
Y0120861
X0304165
Y0117909
X0301213
Y0120861
Y0123814
Y0126767
Y0129720
X0304165
Y0126767
Y0123814
Y0114956
X0301213Y0114956
X0307118
X0310071
X0313024
X0315976
X0325925Y0094262
X0274639Y0099208
X0272079Y0099798
X0272670Y0097239
X0266764Y0097130
X0255296Y0097398
X0251016Y0097239
X0251606Y0099798
X0249047Y0099208
X0246270Y0096259
X0245970Y0109859
X0231331Y0114956
X0228378
X0225425
X0222472
X0219520Y0114956
X0216567Y0114956
Y0117909
Y0120861
X0219520
Y0117909
X0222473
Y0120861
X0225425
X0228378
Y0117909
X0225425
X0231331
Y0120861
Y0123814
Y0126767
Y0129720
X0228378
Y0126767
X0225425
Y0129720
X0222472
Y0126767
Y0123814
X0225425
X0228378
X0219520
Y0126767
Y0129720
X0216567
Y0126767
Y0123814
X0212827Y0143499
Y0146649
Y0149798
X0209283
Y0146649
Y0143499
X0205740
Y0146649
Y0149798
X0212433Y0159641
X0206897Y0166220
X0204141
Y0168976
X0206897
Y0171732
X0204141
Y0174488
X0206897
X0201385
Y0171732
X0198629
Y0174488
Y0168976
Y0166220
X0201385
Y0168976
X0185550Y0148898
X0189579Y0127359
X0186650Y0124398
X0180479Y0125259
X0176360Y0125877
X0186050Y0117357
Y0114798
X0188367Y0116059
X0187434Y0099798
X0189993Y0099208
X0188024Y0097239
X0182118Y0097130
X0270696Y0114798
Y0117357
X0273013Y0116059
X0271296Y0124398
X0274224Y0127359
X0265124Y0125259
X0261006Y0125877
X0250596Y0138598
X0258056Y0153691
X0257185Y0164070
Y0166826
X0254429
Y0164070
X0251673
Y0166826
X0248917
Y0164070
Y0169582
X0251673
Y0172338
X0248917
X0254429
Y0169582
X0257185
Y0172338
X0283275Y0171732
X0286031
Y0174488
X0283275
Y0168976
Y0166220
X0286031
Y0168976
X0288787
Y0166220
X0291543
Y0168976
Y0171732
X0288787
Y0174488
X0291543
X0297079Y0159641
X0297472Y0149798
Y0146649
Y0143499
X0293929
Y0146649
Y0149798
X0290386
Y0146649
Y0143499
X0270196Y0148898
X0173410Y0153691
X0172539Y0164070
Y0166826
X0169783
Y0164070
X0167028
Y0166826
X0164272
Y0164070
Y0169582
Y0172338
X0167028
Y0169582
X0169783
X0172539
Y0172338
X0169783
X0165950Y0138598
X0146685Y0129720
Y0126767
Y0123814
Y0120861
Y0117909
X0143732
Y0120861
X0140779
X0137827
Y0117909
X0140779
Y0114956
X0143732
X0146685
X0137827
X0134874Y0114956
X0131921Y0114956
Y0117909
Y0120861
Y0123814
Y0126767
Y0129720
X0134874
X0137827
Y0126767
X0140779
X0143732
Y0129720
X0140779
Y0123814
X0143732
X0137827
X0134874
Y0126767
Y0120861
Y0117909
X0128181Y0143499
Y0146649
Y0149798
X0124638
Y0146649
Y0143499
X0121095
Y0146649
Y0149798
X0127787Y0159641
X0122251Y0166220
X0119495
Y0168976
X0122251
Y0171732
X0119495
Y0174488
X0122251
X0116739
Y0171732
X0113984
Y0174488
Y0168976
Y0166220
X0116739
Y0168976
X0087894Y0169582
Y0172338
X0085138
Y0169582
Y0166826
X0087894
Y0164070
X0085138
X0082382
Y0166826
X0079626
Y0164070
Y0169582
X0082382
Y0172338
X0079626
X0068981Y0165248
X0056997Y0165259
X0067587Y0139276
X0065777Y0137466
X0081305Y0138598
X0091715Y0125877
X0095833Y0125259
X0102005Y0124398
X0101048Y0117366
X0101097Y0114798
X0103555Y0116059
X0106442Y0128868
X0100905Y0148898
X0102788Y0099798
X0103379Y0097239
X0105347Y0099208
X0097473Y0097130
X0086005Y0097398
X0081724Y0097239
X0082315Y0099798
X0079756Y0099208
X0076750Y0109061
X0070470Y0091759
X0061570Y0121159
X0162418Y0105707
X0164402Y0099208
X0166961Y0099798
X0166370Y0097239
X0170650Y0097398
X0160089Y0096259
X0150622Y0196649
Y0199601
X0147669Y0199601
X0144717
Y0196649
X0147669
X0147669Y0202554
X0144717Y0202554
Y0205507
Y0208460
X0147669
Y0205507
X0150622
Y0208460
Y0211413
Y0214365
X0147669
X0144717
Y0211413
X0147669
X0147669Y0217318
X0144717
X0144717Y0220271
X0147669
X0150622
Y0217318
Y0223224
Y0226176
X0147669
X0144717
Y0223224
X0147669
X0147669Y0229129
X0144717
X0144717Y0232082
Y0235035
X0147669
Y0232082
X0150622
Y0229129
Y0235035
X0150622Y0237987
X0147669
X0144717
X0158538Y0235189
X0161362Y0235081
X0127787Y0242613
X0150622Y0202554
X0229362Y0202554
Y0205507
Y0208460
X0232315
Y0205507
X0235268
Y0208460
Y0211413
Y0214365
X0232315
X0229362
Y0211413
X0232315
X0232315Y0217318
X0229362
X0229362Y0220271
X0232315
X0235268
Y0217318
Y0223224
Y0226176
X0232315
X0229362
Y0223224
X0232315
X0232315Y0229129
X0229362
X0229362Y0232082
Y0235035
X0232315
Y0232082
X0235268
Y0229129
Y0235035
X0235268Y0237987
X0232315
X0229362
X0244098Y0234759
X0246657
X0212470Y0242613
X0232315Y0202554
X0232315Y0199601
X0229362
Y0196649
X0232315
X0235268
Y0199601
Y0202554
X0314008Y0202554
Y0205507
Y0208460
X0316961
Y0205507
X0319913
Y0208460
Y0211413
Y0214365
X0316961
X0314008
Y0211413
X0316961
X0316961Y0217318
X0314008
X0314008Y0220271
X0316961
X0319913
Y0217318
Y0223224
Y0226176
X0316961
X0314008
Y0223224
X0316961
X0316961Y0229129
X0314008
X0314008Y0232082
Y0235035
X0316961
Y0232082
X0319913
Y0229129
Y0235035
X0319913Y0237987
X0316961
X0314008
X0328633Y0234506
X0297079Y0243350
X0316961Y0202554
X0316961Y0199601
X0314008
Y0196649
X0316961
X0319913
Y0199601
Y0202554
X0331302Y0234459
X0398654Y0235035
X0401606
Y0232082
X0401606Y0229129
X0398654
X0398654Y0232082
Y0226176
X0401606
Y0223224
X0398654
Y0220271
X0401606
X0404559
Y0223224
Y0226176
Y0229129
Y0232082
Y0235035
X0404559Y0237987
X0401606
X0398654
X0401870Y0242613
X0414511Y0239500
X0412702Y0237691
X0419470Y0241259
X0421070Y0250432
X0423629Y0250259
X0429370Y0245118
Y0242559
X0439570Y0251259
Y0253818
X0438274Y0216977
X0436472Y0215161
X0431823Y0214159
X0429264
X0419993Y0214064
X0421716Y0216110
X0404559Y0217318
Y0214365
X0401606
Y0211413
X0398654
Y0214365
X0398654Y0217318
X0401606
X0401606Y0208460
Y0205507
X0398654
Y0202554
X0401606Y0202554
X0404559
Y0205507
Y0208460
Y0211413
X0398654Y0208460
Y0199601
X0401606
Y0196649
X0398654
X0404559
Y0199601
X0412170Y0195459
X0416468Y0196359
X0419028
X0421587Y0197543
X0429264Y0196165
X0443370Y0194801
X0442491Y0212659
X0445050
T03
X0376016Y0087397
X0386842
X0302197Y0087397
X0291370Y0087397
X0217551Y0087397
X0206724Y0087397
X0132905Y0087397
X0122079Y0087397
T04
X0054670Y0096059
T05
X0054670Y0076059
T06
X0387118Y0051767
X0302472Y0051767
X0217827
X0133181
M30
