G04*
G04 #@! TF.GenerationSoftware,Altium Limited,Altium Designer,23.4.1 (23)*
G04*
G04 Layer_Color=16711935*
%FSLAX44Y44*%
%MOMM*%
G71*
G04*
G04 #@! TF.SameCoordinates,3060DD58-918D-4E1B-9459-4C9D01607EA3*
G04*
G04*
G04 #@! TF.FilePolarity,Positive*
G04*
G01*
G75*
%ADD70C,0.2000*%
%ADD71C,0.1000*%
D70*
X839985Y626586D02*
X841918Y626201D01*
X843739Y625447D01*
X845377Y624352D01*
X846770Y622959D01*
X847865Y621321D01*
X848619Y619500D01*
X849004Y617567D01*
Y616582D02*
Y617567D01*
Y615597D02*
Y616582D01*
X848619Y613664D02*
X849004Y615597D01*
X847865Y611843D02*
X848619Y613664D01*
X846770Y610205D02*
X847865Y611843D01*
X845377Y608812D02*
X846770Y610205D01*
X843739Y607717D02*
X845377Y608812D01*
X841918Y606963D02*
X843739Y607717D01*
X839985Y606578D02*
X841918Y606963D01*
X839000Y606578D02*
X839985D01*
X223000Y606578D02*
X839000Y606578D01*
X221683Y606578D02*
X223000D01*
X219139Y607260D02*
X221683Y606578D01*
X216857Y608577D02*
X219139Y607260D01*
X214995Y610439D02*
X216857Y608577D01*
X213678Y612721D02*
X214995Y610439D01*
X212996Y615265D02*
X213678Y612721D01*
X212996Y615265D02*
Y617899D01*
X213678Y620443D01*
X214995Y622724D01*
X216857Y624587D01*
X219139Y625904D01*
X221683Y626586D01*
X223000D01*
X839000Y626586D01*
X839985D01*
D71*
X928458Y108499D02*
X930403Y108126D01*
X932238Y107380D01*
X933891Y106287D01*
X935297Y104893D01*
X936403Y103249D01*
X937164Y101420D01*
X937553Y99478D01*
X937553Y98488D02*
X937553Y99478D01*
X937553Y98488D02*
X937553Y97529D01*
X937189Y95647D02*
X937553Y97529D01*
X936474Y93869D02*
X937189Y95647D01*
X935435Y92258D02*
X936474Y93869D01*
X934772Y91566D02*
X935435Y92258D01*
X934772Y91566D02*
X934772D01*
Y75488D02*
Y91566D01*
Y72113D02*
Y75488D01*
X933891Y65421D02*
X934772Y72113D01*
X932144Y58901D02*
X933891Y65421D01*
X929561Y52665D02*
X932144Y58901D01*
X926186Y46819D02*
X929561Y52665D01*
X922077Y41464D02*
X926186Y46819D01*
X917304Y36691D02*
X922077Y41464D01*
X911949Y32582D02*
X917304Y36691D01*
X906103Y29207D02*
X911949Y32582D01*
X899867Y26624D02*
X906103Y29207D01*
X893347Y24877D02*
X899867Y26624D01*
X886655Y23996D02*
X893347Y24877D01*
X879905Y23996D02*
X886655D01*
X879903Y23996D02*
X879905Y23996D01*
X671657Y23996D02*
X879903D01*
X671655Y23996D02*
X671657Y23996D01*
X664905Y23996D02*
X671655D01*
X664903Y23996D02*
X664905Y23996D01*
X456657Y23996D02*
X664903D01*
X456655Y23996D02*
X456657Y23996D01*
X449905Y23996D02*
X456655D01*
X449903Y23996D02*
X449905Y23996D01*
X241657Y23996D02*
X449903D01*
X241655Y23996D02*
X241657Y23996D01*
X234905Y23996D02*
X241655D01*
X228213Y24877D02*
X234905Y23996D01*
X221693Y26624D02*
X228213Y24877D01*
X215457Y29207D02*
X221693Y26624D01*
X209611Y32582D02*
X215457Y29207D01*
X204256Y36691D02*
X209611Y32582D01*
X199483Y41464D02*
X204256Y36691D01*
X195374Y46819D02*
X199483Y41464D01*
X191999Y52665D02*
X195374Y46819D01*
X189416Y58901D02*
X191999Y52665D01*
X187669Y65421D02*
X189416Y58901D01*
X186788Y72113D02*
X187669Y65421D01*
X186788Y72113D02*
Y75488D01*
Y88484D01*
X84683D02*
X186788D01*
X82139Y89165D02*
X84683Y88484D01*
X79857Y90483D02*
X82139Y89165D01*
X77995Y92345D02*
X79857Y90483D01*
X76678Y94626D02*
X77995Y92345D01*
X75996Y97170D02*
X76678Y94626D01*
X75996Y97170D02*
Y99805D01*
X76678Y102349D01*
X77995Y104630D01*
X79857Y106493D01*
X82139Y107810D01*
X84683Y108491D01*
X194092D01*
X194139Y108491D01*
X195385Y108487D01*
X197826Y107994D01*
X200125Y107037D01*
X202194Y105651D01*
X203955Y103890D01*
X205341Y101821D01*
X206298Y99522D01*
X206791Y97080D01*
X206796Y95835D01*
X206796Y95835D01*
X206796Y95788D01*
Y75488D02*
Y95788D01*
Y75488D02*
X206893Y73018D01*
X207666Y68138D01*
X209192Y63439D01*
X211435Y59037D01*
X214339Y55040D01*
X217833Y51547D01*
X221829Y48643D01*
X226231Y46400D01*
X230930Y44873D01*
X235810Y44101D01*
X240750D01*
X245630Y44873D01*
X250329Y46400D01*
X254730Y48643D01*
X258727Y51547D01*
X262221Y55040D01*
X265125Y59037D01*
X267368Y63439D01*
X268894Y68138D01*
X269667Y73018D01*
X269764Y75488D01*
Y95788D01*
Y97039D01*
X270252Y99493D01*
X271210Y101805D01*
X272600Y103886D01*
X274370Y105655D01*
X276450Y107045D01*
X278762Y108003D01*
X281216Y108491D01*
X282468Y108491D01*
X282468Y108491D01*
X282549Y108491D01*
X409092D01*
X409141Y108491D01*
X410389Y108486D01*
X412836Y107991D01*
X415139Y107029D01*
X417211Y105638D01*
X418973Y103869D01*
X420356Y101792D01*
X421310Y99485D01*
X421795Y97036D01*
Y95788D02*
Y97036D01*
Y95788D02*
X421795Y95788D01*
X421796Y95706D01*
Y75488D02*
Y95706D01*
Y75488D02*
X421893Y73018D01*
X422665Y68138D01*
X424192Y63439D01*
X426435Y59037D01*
X429339Y55040D01*
X432832Y51547D01*
X436829Y48643D01*
X441231Y46400D01*
X445930Y44873D01*
X450810Y44101D01*
X455750D01*
X460630Y44873D01*
X465328Y46400D01*
X469730Y48643D01*
X473727Y51547D01*
X477221Y55040D01*
X480125Y59037D01*
X482368Y63439D01*
X483894Y68138D01*
X484667Y73018D01*
X484764Y75488D01*
Y95788D01*
Y97039D01*
X485252Y99493D01*
X486210Y101805D01*
X487600Y103886D01*
X489370Y105655D01*
X491450Y107045D01*
X493762Y108003D01*
X496216Y108491D01*
X497468Y108491D01*
X497468Y108491D01*
X497549Y108491D01*
X624092D01*
X624141Y108491D01*
X625389Y108486D01*
X627836Y107991D01*
X630139Y107029D01*
X632211Y105638D01*
X633973Y103869D01*
X635356Y101792D01*
X636310Y99485D01*
X636795Y97036D01*
Y95788D02*
Y97036D01*
Y95788D02*
X636795Y95788D01*
X636796Y95706D01*
Y75488D02*
Y95706D01*
Y75488D02*
X636893Y73018D01*
X637665Y68138D01*
X639192Y63439D01*
X641435Y59037D01*
X644339Y55040D01*
X647832Y51547D01*
X651829Y48643D01*
X656231Y46400D01*
X660930Y44873D01*
X665810Y44101D01*
X670750D01*
X675630Y44873D01*
X680329Y46400D01*
X684731Y48643D01*
X688727Y51547D01*
X692221Y55040D01*
X695125Y59037D01*
X697368Y63439D01*
X698894Y68138D01*
X699667Y73018D01*
X699764Y75488D01*
Y95788D01*
Y97039D01*
X700253Y99493D01*
X701210Y101805D01*
X702600Y103886D01*
X704370Y105655D01*
X706450Y107045D01*
X708762Y108003D01*
X711216Y108491D01*
X712468Y108491D01*
X712468Y108491D01*
X712549Y108491D01*
X839070Y108491D01*
X839141Y108491D01*
X840389Y108486D01*
X842835Y107991D01*
X845139Y107029D01*
X847211Y105638D01*
X848973Y103869D01*
X850356Y101792D01*
X851309Y99485D01*
X851795Y97036D01*
Y95788D02*
Y97036D01*
Y95788D02*
X851795Y95788D01*
X851796Y95706D01*
Y75488D02*
Y95706D01*
Y75488D02*
X851893Y73018D01*
X852665Y68138D01*
X854192Y63439D01*
X856435Y59037D01*
X859339Y55040D01*
X862832Y51547D01*
X866829Y48643D01*
X871231Y46400D01*
X875930Y44873D01*
X880810Y44101D01*
X885750D01*
X890630Y44873D01*
X895329Y46400D01*
X899731Y48643D01*
X903727Y51547D01*
X907221Y55040D01*
X910125Y59037D01*
X912368Y63439D01*
X913894Y68138D01*
X914667Y73018D01*
X914764Y75488D01*
Y95788D01*
Y97039D01*
X915252Y99493D01*
X916210Y101805D01*
X917600Y103886D01*
X919370Y105655D01*
X921450Y107045D01*
X923762Y108003D01*
X926216Y108491D01*
X927467Y108491D01*
X927468Y108491D01*
X928458Y108499D01*
X839985Y626586D02*
X841918Y626201D01*
X843739Y625447D01*
X845377Y624352D01*
X846770Y622959D01*
X847865Y621321D01*
X848619Y619500D01*
X849004Y617567D01*
Y616582D02*
Y617567D01*
Y615597D02*
Y616582D01*
X848619Y613664D02*
X849004Y615597D01*
X847865Y611843D02*
X848619Y613664D01*
X846770Y610205D02*
X847865Y611843D01*
X845377Y608812D02*
X846770Y610205D01*
X843739Y607717D02*
X845377Y608812D01*
X841918Y606963D02*
X843739Y607717D01*
X839985Y606578D02*
X841918Y606963D01*
X839000Y606578D02*
X839985D01*
X223000Y606578D02*
X839000Y606578D01*
X221683Y606578D02*
X223000D01*
X219139Y607260D02*
X221683Y606578D01*
X216857Y608577D02*
X219139Y607260D01*
X214995Y610439D02*
X216857Y608577D01*
X213678Y612721D02*
X214995Y610439D01*
X212996Y615265D02*
X213678Y612721D01*
X212996Y615265D02*
Y617899D01*
X213678Y620443D01*
X214995Y622724D01*
X216857Y624587D01*
X219139Y625904D01*
X221683Y626586D01*
X223000D01*
X839000Y626586D01*
X839985D01*
X3Y560908D02*
Y560908D01*
Y560908D02*
Y560908D01*
X932839Y688776D02*
X934547Y691000D01*
X130612D02*
X934547D01*
X130612D02*
X132340Y688748D01*
X135617Y683072D01*
X138126Y677016D01*
X139822Y670684D01*
X140678Y664185D01*
Y660908D02*
Y664185D01*
Y660908D02*
X140751Y658663D01*
X141337Y654212D01*
X142499Y649875D01*
X144218Y645727D01*
X146462Y641840D01*
X149195Y638278D01*
X152370Y635103D01*
X155932Y632370D01*
X159820Y630125D01*
X163968Y628407D01*
X168304Y627245D01*
X172755Y626659D01*
X175000Y626586D01*
X183985D01*
X185918Y626201D01*
X187739Y625447D01*
X189377Y624352D01*
X190770Y622959D01*
X191865Y621321D01*
X192619Y619500D01*
X193004Y617567D01*
Y616582D02*
Y617567D01*
Y615597D02*
Y616582D01*
X192619Y613664D02*
X193004Y615597D01*
X191865Y611843D02*
X192619Y613664D01*
X190770Y610205D02*
X191865Y611843D01*
X189377Y608811D02*
X190770Y610205D01*
X187739Y607717D02*
X189377Y608811D01*
X185918Y606963D02*
X187739Y607717D01*
X183985Y606578D02*
X185918Y606963D01*
X171439Y606578D02*
X183985D01*
X164378Y607508D02*
X171439Y606578D01*
X157499Y609351D02*
X164378Y607508D01*
X150919Y612076D02*
X157499Y609351D01*
X144751Y615638D02*
X150919Y612076D01*
X139101Y619973D02*
X144751Y615638D01*
X134065Y625009D02*
X139101Y619973D01*
X129729Y630659D02*
X134065Y625009D01*
X126169Y636827D02*
X129729Y630659D01*
X123443Y643407D02*
X126169Y636827D01*
X121600Y650286D02*
X123443Y643407D01*
X120670Y657347D02*
X121600Y650286D01*
X120670Y657347D02*
X120670Y660908D01*
X120578Y663261D02*
X120670Y660908D01*
X119841Y667910D02*
X120578Y663261D01*
X118387Y672387D02*
X119841Y667910D01*
X116250Y676581D02*
X118387Y672387D01*
X113483Y680389D02*
X116250Y676581D01*
X110155Y683717D02*
X113483Y680389D01*
X106347Y686484D02*
X110155Y683717D01*
X102153Y688621D02*
X106347Y686484D01*
X97676Y690076D02*
X102153Y688621D01*
X93027Y690812D02*
X97676Y690076D01*
X88320Y690812D02*
X93027D01*
X83671Y690076D02*
X88320Y690812D01*
X79195Y688621D02*
X83671Y690076D01*
X75001Y686484D02*
X79195Y688621D01*
X71193Y683717D02*
X75001Y686484D01*
X67864Y680389D02*
X71193Y683717D01*
X65098Y676581D02*
X67864Y680389D01*
X62961Y672387D02*
X65098Y676581D01*
X61506Y667910D02*
X62961Y672387D01*
X60770Y663261D02*
X61506Y667910D01*
X60677Y660908D02*
X60770Y663261D01*
X60677Y660908D02*
X60677Y660908D01*
X60677Y621604D02*
X60677Y660908D01*
X60677Y621544D02*
X60677Y621604D01*
X60674Y620071D02*
X60677Y621544D01*
X60094Y617183D02*
X60674Y620071D01*
X58963Y614462D02*
X60094Y617183D01*
X57325Y612014D02*
X58963Y614462D01*
X55242Y609931D02*
X57325Y612014D01*
X52794Y608293D02*
X55242Y609931D01*
X50073Y607162D02*
X52794Y608293D01*
X47185Y606582D02*
X50073Y607162D01*
X45712Y606578D02*
X47185Y606582D01*
X45712Y606578D02*
X45712Y606578D01*
X45654Y606578D02*
X45712Y606578D01*
X42668Y606479D02*
X45654Y606578D01*
X36747Y605697D02*
X42668Y606479D01*
X30978Y604150D02*
X36747Y605697D01*
X25461Y601862D02*
X30978Y604150D01*
X20290Y598875D02*
X25461Y601862D01*
X15553Y595238D02*
X20290Y598875D01*
X11331Y591014D02*
X15553Y595238D01*
X7696Y586275D02*
X11331Y591014D01*
X4711Y581102D02*
X7696Y586275D01*
X2426Y575584D02*
X4711Y581102D01*
X881Y569815D02*
X2426Y575584D01*
X101Y563894D02*
X881Y569815D01*
X3Y560908D02*
X101Y563894D01*
X3Y560908D02*
X4Y156068D01*
X105Y152956D01*
X918Y146786D01*
X2528Y140775D01*
X4910Y135025D01*
X8022Y129636D01*
X11810Y124698D01*
X16211Y120298D01*
X21148Y116510D01*
X26537Y113398D01*
X32287Y111016D01*
X38298Y109406D01*
X44468Y108593D01*
X47580Y108491D01*
X48565D01*
X50498Y108107D01*
X52318Y107353D01*
X53957Y106258D01*
X55350Y104865D01*
X56445Y103226D01*
X57199Y101406D01*
X57584Y99473D01*
Y98488D02*
Y99473D01*
Y97502D02*
Y98488D01*
X57199Y95570D02*
X57584Y97502D01*
X56445Y93749D02*
X57199Y95570D01*
X55350Y92111D02*
X56445Y93749D01*
X53957Y90717D02*
X55350Y92111D01*
X52318Y89622D02*
X53957Y90717D01*
X50498Y88868D02*
X52318Y89622D01*
X48565Y88484D02*
X50498Y88868D01*
X4527Y88484D02*
X48565D01*
X2594Y88868D02*
X4527Y88484D01*
X774Y89622D02*
X2594Y88868D01*
X-0Y90139D02*
X774Y89622D01*
X-0Y0D02*
X-0Y90139D01*
X-0Y0D02*
X1069000D01*
Y90852D01*
X1068865Y90717D02*
X1069000Y90852D01*
X1067226Y89622D02*
X1068865Y90717D01*
X1065406Y88868D02*
X1067226Y89622D01*
X1063473Y88484D02*
X1065406Y88868D01*
X1062487Y88484D02*
X1063473D01*
X965000Y88484D02*
X1062487Y88484D01*
X963683Y88484D02*
X965000D01*
X961139Y89165D02*
X963683Y88484D01*
X958857Y90483D02*
X961139Y89165D01*
X956995Y92345D02*
X958857Y90483D01*
X955678Y94626D02*
X956995Y92345D01*
X954996Y97171D02*
X955678Y94626D01*
X954996Y97171D02*
Y99805D01*
X955678Y102349D01*
X956995Y104630D01*
X958857Y106493D01*
X961139Y107810D01*
X963683Y108491D01*
X965000D01*
X1017574Y108491D01*
X1017580D01*
X1020928Y108601D01*
X1027566Y109474D01*
X1034035Y111205D01*
X1040222Y113764D01*
X1046022Y117108D01*
X1051338Y121180D01*
X1056077Y125911D01*
X1060158Y131218D01*
X1063513Y137013D01*
X1066084Y143195D01*
X1067827Y149660D01*
X1068712Y156297D01*
X1068828Y159645D01*
X1068828Y159741D01*
X1068828Y557214D01*
X1068828Y557256D02*
X1068828Y557214D01*
X1068828Y557256D02*
X1068828D01*
X1068722Y560479D02*
X1068828Y557256D01*
X1067879Y566868D02*
X1068722Y560479D01*
X1066211Y573093D02*
X1067879Y566868D01*
X1063746Y579048D02*
X1066211Y573093D01*
X1060525Y584630D02*
X1063746Y579048D01*
X1056605Y589745D02*
X1060525Y584630D01*
X1052051Y594306D02*
X1056605Y589745D01*
X1046942Y598234D02*
X1052051Y594306D01*
X1041364Y601463D02*
X1046942Y598234D01*
X1035413Y603937D02*
X1041364Y601463D01*
X1029191Y605614D02*
X1035413Y603937D01*
X1022803Y606466D02*
X1029191Y605614D01*
X1019581Y606578D02*
X1022803Y606466D01*
X1019486Y606578D02*
X1019581Y606578D01*
X1018008Y606578D02*
X1019486Y606578D01*
X1015110Y607155D02*
X1018008Y606578D01*
X1012379Y608286D02*
X1015110Y607155D01*
X1009922Y609928D02*
X1012379Y608286D01*
X1007832Y612017D02*
X1009922Y609928D01*
X1006190Y614475D02*
X1007832Y612017D01*
X1005059Y617205D02*
X1006190Y614475D01*
X1004482Y620104D02*
X1005059Y617205D01*
X1004482Y620104D02*
Y621581D01*
Y660908D01*
X1004482Y660908D02*
X1004482Y660908D01*
X1004390Y663261D02*
X1004482Y660908D01*
X1003654Y667909D02*
X1004390Y663261D01*
X1002200Y672385D02*
X1003654Y667909D01*
X1000064Y676578D02*
X1002200Y672385D01*
X997298Y680386D02*
X1000064Y676578D01*
X993971Y683714D02*
X997298Y680386D01*
X990164Y686481D02*
X993971Y683714D01*
X985972Y688618D02*
X990164Y686481D01*
X981497Y690074D02*
X985972Y688618D01*
X976849Y690811D02*
X981497Y690074D01*
X972143Y690813D02*
X976849Y690811D01*
X967494Y690078D02*
X972143Y690813D01*
X963018Y688626D02*
X967494Y690078D01*
X958824Y686491D02*
X963018Y688626D01*
X955016Y683727D02*
X958824Y686491D01*
X951686Y680400D02*
X955016Y683727D01*
X948918Y676595D02*
X951686Y680400D01*
X946779Y672403D02*
X948918Y676595D01*
X945322Y667928D02*
X946779Y672403D01*
X944584Y663280D02*
X945322Y667928D01*
X944490Y660927D02*
X944584Y663280D01*
X944490Y660883D02*
Y660927D01*
X944489Y660883D02*
X944490Y660883D01*
X944488Y657323D02*
X944489Y660883D01*
X943556Y650265D02*
X944488Y657323D01*
X941711Y643388D02*
X943556Y650265D01*
X938984Y636811D02*
X941711Y643388D01*
X935422Y630646D02*
X938984Y636811D01*
X931086Y624999D02*
X935422Y630646D01*
X926051Y619966D02*
X931086Y624999D01*
X920402Y615632D02*
X926051Y619966D01*
X914235Y612073D02*
X920402Y615632D01*
X907657Y609350D02*
X914235Y612073D01*
X900780Y607507D02*
X907657Y609350D01*
X893721Y606578D02*
X900780Y607507D01*
X877683Y606578D02*
X893721D01*
X875139Y607260D02*
X877683Y606578D01*
X872858Y608577D02*
X875139Y607260D01*
X870995Y610439D02*
X872858Y608577D01*
X869678Y612721D02*
X870995Y610439D01*
X868996Y615265D02*
X869678Y612721D01*
X868996Y615265D02*
Y617899D01*
X869678Y620443D01*
X870995Y622724D01*
X872858Y624587D01*
X875139Y625904D01*
X877683Y626586D01*
X890160D01*
X892405Y626659D01*
X896856Y627245D01*
X901192Y628407D01*
X905340Y630125D01*
X909228Y632370D01*
X912790Y635103D01*
X915965Y638277D01*
X918698Y641839D01*
X920942Y645727D01*
X922660Y649875D01*
X923822Y654211D01*
X924408Y658662D01*
X924482Y660907D01*
X924482Y660949D01*
Y660949D02*
Y660949D01*
Y660949D02*
X924485Y664226D01*
X925345Y670722D01*
X927046Y677051D01*
X929558Y683103D01*
X932839Y688776D01*
M02*
