G04*
G04 #@! TF.GenerationSoftware,Altium Limited,Altium Designer,23.4.1 (23)*
G04*
G04 Layer_Physical_Order=2*
G04 Layer_Color=16711680*
%FSLAX44Y44*%
%MOMM*%
G71*
G04*
G04 #@! TF.SameCoordinates,3060DD58-918D-4E1B-9459-4C9D01607EA3*
G04*
G04*
G04 #@! TF.FilePolarity,Positive*
G04*
G01*
G75*
%ADD34C,1.5000*%
%ADD36C,0.2032*%
%ADD37C,0.3048*%
%ADD38C,0.2540*%
%ADD39C,0.3810*%
%ADD40C,0.5080*%
%ADD55R,2.1082X2.1082*%
%ADD56O,1.0000X1.6000*%
%ADD57C,0.6750*%
%ADD58O,1.0000X2.1000*%
%ADD59C,1.7000*%
%ADD60R,1.7000X1.7000*%
%ADD61O,1.6000X1.0000*%
%ADD62O,2.1000X1.0000*%
%ADD63C,2.7000*%
%ADD64C,0.5000*%
%ADD65R,2.8461X3.0000*%
%ADD66R,3.5000X3.5000*%
%ADD67R,0.7028X2.6078*%
G36*
X160419Y606582D02*
X163874Y605656D01*
X164008Y605647D01*
X164136Y605604D01*
X170000Y604832D01*
D01*
X171181Y604676D01*
X171282Y604683D01*
X171381Y604660D01*
X174934Y604544D01*
X174967Y604549D01*
X175000Y604543D01*
X835525Y604543D01*
X866580Y573488D01*
X865987Y572895D01*
Y553488D01*
Y515988D01*
X822000D01*
Y363238D01*
X854868Y330370D01*
X854148Y329294D01*
X853583Y329528D01*
X851578D01*
X849725Y328760D01*
X848627Y327663D01*
X852580D01*
Y321313D01*
X848627D01*
X849452Y320488D01*
X848627Y319663D01*
X852580D01*
Y313313D01*
X848627D01*
X849452Y312488D01*
X848627Y311663D01*
X852580D01*
Y308488D01*
X855755D01*
Y304535D01*
X856250Y305031D01*
X857080Y305503D01*
X857910Y305031D01*
X858405Y304535D01*
Y308488D01*
X864755D01*
Y304535D01*
X865250Y305031D01*
X866080Y305503D01*
X866910Y305031D01*
X867725Y304215D01*
X869577Y303448D01*
X871582D01*
X871985Y303615D01*
X873041Y302909D01*
Y300488D01*
X815801D01*
X804891Y311398D01*
Y319431D01*
X805113Y319653D01*
X805798Y321307D01*
Y323097D01*
X805113Y324751D01*
X803847Y326017D01*
X802193Y326702D01*
X800403D01*
X798749Y326017D01*
X797483Y324751D01*
X796798Y323097D01*
Y321307D01*
X797483Y319653D01*
X797705Y319431D01*
Y315942D01*
X796532Y315456D01*
X773250Y338738D01*
Y351449D01*
X775000D01*
X775780Y351604D01*
X776442Y352046D01*
X776884Y352707D01*
X777039Y353488D01*
Y388488D01*
X776884Y389268D01*
X776442Y389930D01*
X775780Y390372D01*
X775000Y390527D01*
X773250D01*
Y515988D01*
X738075D01*
Y525160D01*
X742352Y529436D01*
X742352Y529436D01*
X743018Y530434D01*
X743252Y531611D01*
Y535676D01*
X743940Y535961D01*
X745206Y537227D01*
X745891Y538881D01*
Y540671D01*
X745206Y542325D01*
X743940Y543591D01*
X742286Y544276D01*
X740496D01*
X738842Y543591D01*
X737952Y542701D01*
X736941Y543713D01*
X735287Y544398D01*
X733497D01*
X731843Y543713D01*
X730577Y542447D01*
X729892Y540793D01*
Y539003D01*
X730577Y537349D01*
X731843Y536083D01*
X732228Y535923D01*
X732377Y534625D01*
X728254Y530502D01*
X727587Y529504D01*
X727353Y528327D01*
X727353Y528327D01*
Y515988D01*
X722119D01*
Y555988D01*
X721964Y556768D01*
X721522Y557430D01*
X720860Y557872D01*
X720080Y558027D01*
X660080D01*
X659443Y557900D01*
X659150Y557975D01*
X658697Y558286D01*
X658395Y559561D01*
X659080Y561215D01*
Y563005D01*
X658395Y564659D01*
X657129Y565925D01*
X655475Y566610D01*
X653685D01*
X652031Y565925D01*
X650765Y564659D01*
X650080Y563005D01*
Y561215D01*
X650765Y559561D01*
X650987Y559339D01*
Y515988D01*
X607000D01*
Y363238D01*
X639868Y330370D01*
X639148Y329294D01*
X638582Y329528D01*
X636577D01*
X634725Y328760D01*
X633627Y327663D01*
X637580D01*
Y321313D01*
X633627D01*
X634452Y320488D01*
X633627Y319663D01*
X637580D01*
Y313313D01*
X633627D01*
X634452Y312488D01*
X633627Y311663D01*
X637580D01*
Y308488D01*
X640755D01*
Y304535D01*
X641250Y305031D01*
X642080Y305503D01*
X642910Y305031D01*
X643405Y304535D01*
Y308488D01*
X649755D01*
Y304535D01*
X650250Y305031D01*
X651080Y305503D01*
X651910Y305031D01*
X652725Y304215D01*
X654577Y303448D01*
X656582D01*
X656985Y303615D01*
X658041Y302909D01*
Y300488D01*
X596500D01*
X589891Y307097D01*
X589891Y319431D01*
X590113Y319653D01*
X590798Y321307D01*
Y323097D01*
X590113Y324751D01*
X588847Y326017D01*
X587193Y326702D01*
X585403D01*
X583749Y326017D01*
X582483Y324751D01*
X581798Y323097D01*
Y321307D01*
X582483Y319653D01*
X582705Y319431D01*
Y315942D01*
X581532Y315456D01*
X558250Y338738D01*
Y351449D01*
X560000D01*
X560780Y351604D01*
X561442Y352046D01*
X561884Y352707D01*
X562039Y353488D01*
Y388488D01*
X561884Y389268D01*
X561442Y389930D01*
X560780Y390372D01*
X560000Y390527D01*
X558250D01*
Y515988D01*
X523075D01*
Y525672D01*
X528002Y530599D01*
X528002Y530599D01*
X528669Y531597D01*
X528903Y532774D01*
Y536188D01*
X529591Y536473D01*
X530857Y537739D01*
X531542Y539393D01*
Y541183D01*
X530857Y542837D01*
X529591Y544103D01*
X527937Y544788D01*
X526147D01*
X524493Y544103D01*
X523542Y543152D01*
X522591Y544103D01*
X520937Y544788D01*
X519147D01*
X517493Y544103D01*
X516227Y542837D01*
X515542Y541183D01*
Y539393D01*
X516227Y537739D01*
X517205Y536761D01*
X517412Y535494D01*
X517383Y535144D01*
X513254Y531014D01*
X512587Y530016D01*
X512353Y528839D01*
X512353Y528839D01*
Y515988D01*
X507119D01*
Y555988D01*
X506964Y556768D01*
X506522Y557430D01*
X505860Y557872D01*
X505080Y558027D01*
X445080D01*
X444537Y557919D01*
X444454Y557947D01*
X443934Y558464D01*
X443642Y558937D01*
X444174Y560221D01*
Y562011D01*
X443489Y563665D01*
X442223Y564931D01*
X440569Y565616D01*
X438779D01*
X437125Y564931D01*
X435859Y563665D01*
X435174Y562011D01*
Y560221D01*
X435859Y558567D01*
X436081Y558345D01*
Y553960D01*
X435987Y553488D01*
Y515988D01*
X392000D01*
Y363238D01*
X424868Y330370D01*
X424148Y329294D01*
X423582Y329528D01*
X421577D01*
X419725Y328760D01*
X418627Y327663D01*
X422580D01*
Y321313D01*
X418627D01*
X419452Y320488D01*
X418627Y319663D01*
X422580D01*
Y313313D01*
X418627D01*
X419452Y312488D01*
X418627Y311663D01*
X422580D01*
Y308488D01*
X425755D01*
Y304535D01*
X426250Y305031D01*
X427080Y305503D01*
X427910Y305031D01*
X428405Y304535D01*
Y308488D01*
X434755D01*
Y304535D01*
X435250Y305031D01*
X436080Y305503D01*
X436910Y305031D01*
X437725Y304215D01*
X439577Y303448D01*
X441582D01*
X441985Y303615D01*
X443041Y302909D01*
Y300488D01*
X381500D01*
X374891Y307097D01*
X374891Y319431D01*
X375113Y319653D01*
X375798Y321307D01*
Y323097D01*
X375113Y324751D01*
X373847Y326017D01*
X372193Y326702D01*
X370403D01*
X368749Y326017D01*
X367483Y324751D01*
X366798Y323097D01*
Y321307D01*
X367483Y319653D01*
X367705Y319431D01*
Y315942D01*
X366532Y315456D01*
X343250Y338738D01*
Y351449D01*
X345000D01*
X345780Y351604D01*
X346442Y352046D01*
X346884Y352707D01*
X347039Y353488D01*
Y388488D01*
X346884Y389268D01*
X346442Y389930D01*
X345780Y390372D01*
X345000Y390527D01*
X343250D01*
Y515988D01*
X308075D01*
Y533227D01*
X309083Y534235D01*
X309749Y535232D01*
X309935Y536164D01*
X310377Y536606D01*
X310755D01*
X312409Y537291D01*
X313675Y538557D01*
X314360Y540211D01*
Y542001D01*
X313675Y543655D01*
X312409Y544921D01*
X310755Y545606D01*
X308965D01*
X307311Y544921D01*
X306411Y544021D01*
X305236Y545195D01*
X303582Y545880D01*
X301792D01*
X300138Y545195D01*
X298873Y543929D01*
X298187Y542276D01*
Y540485D01*
X298768Y539083D01*
X298254Y538569D01*
X297587Y537571D01*
X297353Y536395D01*
X297353Y536394D01*
Y515988D01*
X292119D01*
Y555988D01*
X291964Y556768D01*
X291522Y557430D01*
X290860Y557872D01*
X290080Y558027D01*
X230080D01*
X229565Y557924D01*
X228904Y558477D01*
X228607Y558930D01*
X229036Y559967D01*
Y561757D01*
X228351Y563411D01*
X227085Y564677D01*
X225431Y565362D01*
X223641D01*
X221987Y564677D01*
X220721Y563411D01*
X220036Y561757D01*
Y559967D01*
X220721Y558313D01*
X220987Y558047D01*
Y515988D01*
X170000D01*
X170000Y364238D01*
X204359Y329879D01*
X204203Y328239D01*
X203627Y327663D01*
X207580D01*
Y321313D01*
X203627D01*
X204452Y320488D01*
X203627Y319663D01*
X207580D01*
Y313313D01*
X203627D01*
X204452Y312488D01*
X203627Y311663D01*
X207580D01*
Y308488D01*
X210755D01*
Y304535D01*
X211250Y305031D01*
X212080Y305503D01*
X212910Y305031D01*
X213405Y304535D01*
Y308488D01*
X219755D01*
Y304535D01*
X220250Y305031D01*
X221080Y305503D01*
X221910Y305031D01*
X222725Y304215D01*
X224578Y303448D01*
X226583D01*
X226985Y303615D01*
X228041Y302909D01*
Y300488D01*
X161376D01*
X159891Y301973D01*
X159891Y319431D01*
X160113Y319653D01*
X160798Y321307D01*
Y323097D01*
X160113Y324751D01*
X158847Y326017D01*
X157193Y326702D01*
X155403D01*
X153749Y326017D01*
X153500Y325768D01*
X152483Y324751D01*
X151798Y323097D01*
Y321307D01*
X152483Y319653D01*
X152705Y319431D01*
X152705Y300988D01*
D01*
Y300488D01*
X107535D01*
X107409Y300540D01*
X105619D01*
X105493Y300488D01*
X77580D01*
Y297948D01*
X76310Y297421D01*
X75846Y297885D01*
X75974Y298192D01*
Y299982D01*
X75764Y300488D01*
X75288Y301636D01*
X74023Y302902D01*
X72369Y303587D01*
X70578D01*
X68924Y302902D01*
X67659Y301636D01*
X67183Y300488D01*
X66974Y299982D01*
Y298638D01*
X65629D01*
X63975Y297952D01*
X62709Y296687D01*
X62024Y295033D01*
Y293242D01*
X62709Y291589D01*
X63975Y290323D01*
X65629Y289638D01*
X67419D01*
X68107Y289923D01*
X77580Y280449D01*
Y256373D01*
X56388D01*
X55740Y256244D01*
X55493D01*
X55265Y256149D01*
X54617Y256020D01*
X54067Y255653D01*
X53839Y255559D01*
X53664Y255384D01*
X53115Y255017D01*
X52748Y254467D01*
X52573Y254293D01*
X52479Y254065D01*
X52111Y253515D01*
X51982Y252867D01*
X51888Y252639D01*
Y252392D01*
X51759Y251744D01*
X51888Y251096D01*
Y250849D01*
X51982Y250621D01*
X52111Y249972D01*
X52479Y249423D01*
X52573Y249195D01*
X52748Y249020D01*
X53115Y248471D01*
X53664Y248103D01*
X53839Y247929D01*
X54067Y247834D01*
X54617Y247467D01*
X55265Y247338D01*
X55493Y247244D01*
X55740D01*
X56388Y247115D01*
X77580D01*
Y191403D01*
X69341Y183165D01*
X68562Y181999D01*
X68289Y180624D01*
Y159719D01*
X68338Y159470D01*
X67533Y158488D01*
X5080D01*
Y340176D01*
X2039Y343217D01*
X2039Y560908D01*
X2039Y563768D01*
X2785Y569439D01*
X4266Y574964D01*
X6455Y580249D01*
X9315Y585202D01*
X12797Y589740D01*
X16842Y593785D01*
X21379Y597267D01*
X26333Y600127D01*
X31618Y602316D01*
X37143Y603796D01*
X42814Y604543D01*
X45674Y604543D01*
X45724Y604553D01*
X45774Y604545D01*
X47244Y604617D01*
X47391Y604654D01*
X47542D01*
X50426Y605228D01*
X50612Y605304D01*
X50809Y605344D01*
X53525Y606469D01*
X53692Y606580D01*
X53696Y606582D01*
X106739Y606582D01*
X128174D01*
X128174Y606582D01*
X160419D01*
X160419Y606582D01*
D02*
G37*
G36*
X865000Y358488D02*
X835000D01*
X825000Y368488D01*
Y498488D01*
X865000D01*
Y358488D01*
D02*
G37*
G36*
X650000D02*
X620000D01*
X610000Y368488D01*
Y498488D01*
X650000D01*
Y358488D01*
D02*
G37*
G36*
X435000D02*
X405000D01*
X395000Y368488D01*
Y498488D01*
X435000D01*
Y358488D01*
D02*
G37*
G36*
X220000D02*
X190000D01*
X180000Y368488D01*
Y498488D01*
X220000D01*
Y358488D01*
D02*
G37*
G36*
X290080Y215488D02*
X272080Y197488D01*
X263080Y188488D01*
X226777D01*
X226480Y188547D01*
X226480Y188547D01*
X175080D01*
Y188488D01*
X155080Y188488D01*
Y188547D01*
X154094D01*
X151565Y191076D01*
Y191606D01*
X150880Y193260D01*
X149614Y194526D01*
X147960Y195211D01*
X146170D01*
X144516Y194526D01*
X143250Y193260D01*
X142565Y191606D01*
Y189816D01*
X142677Y189544D01*
X141972Y188488D01*
X125705D01*
X122952Y191241D01*
Y192287D01*
X122267Y193941D01*
X121001Y195207D01*
X119347Y195892D01*
X117557D01*
X115903Y195207D01*
X114637Y193941D01*
X113952Y192287D01*
Y190701D01*
X113809Y190334D01*
X113626Y190125D01*
Y188488D01*
X105080D01*
X100080Y193488D01*
X100080Y201551D01*
X100080Y201551D01*
Y220988D01*
X107580Y228488D01*
X116786D01*
X119917Y225357D01*
X119917Y225357D01*
X121419Y224353D01*
X123190Y224001D01*
X160883D01*
X160883Y224001D01*
X162655Y224353D01*
X164156Y225357D01*
X167288Y228488D01*
X230080D01*
Y535488D01*
Y555988D01*
X290080D01*
Y215488D01*
D02*
G37*
G36*
X935080D02*
X917080Y197488D01*
X908080Y188488D01*
X871777D01*
X871480Y188547D01*
X871480Y188547D01*
X820080D01*
Y188488D01*
X800080Y188488D01*
Y188547D01*
X798812D01*
X795710Y191649D01*
Y192695D01*
X795025Y194349D01*
X793759Y195615D01*
X792105Y196300D01*
X790315D01*
X788661Y195615D01*
X787395Y194349D01*
X786710Y192695D01*
Y190905D01*
X787185Y189758D01*
X786499Y188488D01*
X770705D01*
X767952Y191241D01*
Y192287D01*
X767267Y193941D01*
X766001Y195207D01*
X764347Y195892D01*
X762557D01*
X760903Y195207D01*
X759637Y193941D01*
X758952Y192287D01*
Y190701D01*
X758809Y190334D01*
X758626Y190125D01*
Y188488D01*
X750080D01*
X745080Y193488D01*
X745080Y207238D01*
X745144D01*
Y207266D01*
X746067Y208189D01*
X746752Y209843D01*
Y211633D01*
X746067Y213287D01*
X745080Y214274D01*
Y220988D01*
X752580Y228488D01*
X875080D01*
Y535488D01*
Y555020D01*
X935080D01*
Y215488D01*
D02*
G37*
G36*
X720080D02*
X702080Y197488D01*
X693080Y188488D01*
X656777D01*
X656480Y188547D01*
X656480Y188547D01*
X605080D01*
Y188488D01*
X585080Y188488D01*
Y188547D01*
X584094D01*
X582081Y190560D01*
Y191606D01*
X581396Y193260D01*
X580130Y194526D01*
X578476Y195211D01*
X576686D01*
X575032Y194526D01*
X573766Y193260D01*
X573081Y191606D01*
Y189816D01*
X573194Y189544D01*
X572488Y188488D01*
X555705D01*
X552952Y191241D01*
Y192287D01*
X552267Y193941D01*
X551001Y195207D01*
X549347Y195892D01*
X547557D01*
X545903Y195207D01*
X544637Y193941D01*
X543952Y192287D01*
Y190701D01*
X543809Y190334D01*
X543626Y190125D01*
Y188488D01*
X535080D01*
X530080Y193488D01*
X530080Y201551D01*
X530080Y201551D01*
Y220988D01*
X537580Y228488D01*
X660080D01*
Y535488D01*
Y555988D01*
X720080D01*
Y215488D01*
D02*
G37*
G36*
X505080D02*
X487080Y197488D01*
X478080Y188488D01*
X441777D01*
X441480Y188547D01*
X441480Y188547D01*
X390080D01*
Y188488D01*
X370080Y188488D01*
Y188547D01*
X368536D01*
X366196Y190887D01*
Y191933D01*
X365511Y193587D01*
X364245Y194853D01*
X362591Y195538D01*
X360801D01*
X359147Y194853D01*
X357881Y193587D01*
X357196Y191933D01*
Y190143D01*
X357355Y189758D01*
X356507Y188488D01*
X340705D01*
X337952Y191241D01*
Y192287D01*
X337267Y193941D01*
X336001Y195207D01*
X334347Y195892D01*
X332557D01*
X330903Y195207D01*
X329637Y193941D01*
X328952Y192287D01*
Y190701D01*
X328809Y190334D01*
X328626Y190125D01*
Y188488D01*
X320080D01*
X315080Y193488D01*
X315080Y201551D01*
X315080Y201551D01*
Y204813D01*
X315080Y204813D01*
Y207238D01*
X315149D01*
Y208739D01*
X316357Y209947D01*
X317042Y211601D01*
Y213391D01*
X316357Y215045D01*
X315091Y216311D01*
X315080Y216315D01*
Y220988D01*
X322580Y228488D01*
X445080D01*
Y535488D01*
Y555988D01*
X505080D01*
Y215488D01*
D02*
G37*
G36*
X1066793Y159740D02*
X1066793Y156514D01*
X1065950Y150118D01*
X1064281Y143887D01*
X1061812Y137927D01*
X1058587Y132340D01*
X1054659Y127222D01*
X1050098Y122660D01*
X1044980Y118733D01*
X1039393Y115507D01*
X1033433Y113039D01*
X1027202Y111369D01*
X1020806Y110527D01*
X1017580Y110527D01*
X962804Y110527D01*
X962318Y111700D01*
X965368Y114750D01*
X966345Y115155D01*
X967611Y116421D01*
X968296Y118075D01*
Y119865D01*
X967611Y121519D01*
X966345Y122785D01*
X964691Y123470D01*
X962901D01*
X961247Y122785D01*
X959981Y121519D01*
X959296Y119865D01*
Y118841D01*
X957060Y116605D01*
X927172D01*
X926920Y117875D01*
X927669Y118185D01*
X928767Y119283D01*
X920861D01*
X921959Y118185D01*
X922708Y117875D01*
X922456Y116605D01*
X829870D01*
X829244Y117875D01*
X829866Y118685D01*
X830626Y120520D01*
X830862Y122313D01*
X823280D01*
X815698D01*
X815934Y120520D01*
X816694Y118685D01*
X817316Y117875D01*
X816689Y116605D01*
X743471D01*
X742844Y117875D01*
X743466Y118685D01*
X744226Y120520D01*
X744462Y122313D01*
X729298D01*
X729534Y120520D01*
X730294Y118685D01*
X730916Y117875D01*
X730290Y116605D01*
X614870D01*
X614244Y117875D01*
X614866Y118685D01*
X615626Y120520D01*
X615862Y122313D01*
X608280D01*
X600698D01*
X600934Y120520D01*
X601694Y118685D01*
X602316Y117875D01*
X601689Y116605D01*
X528471D01*
X527844Y117875D01*
X528466Y118685D01*
X529226Y120520D01*
X529462Y122313D01*
X514298D01*
X514534Y120520D01*
X515294Y118685D01*
X515916Y117875D01*
X515290Y116605D01*
X399870D01*
X399244Y117875D01*
X399866Y118685D01*
X400626Y120520D01*
X400862Y122313D01*
X393280D01*
Y125488D01*
D01*
Y122313D01*
X385698D01*
X385934Y120520D01*
X386694Y118685D01*
X387316Y117875D01*
X386689Y116605D01*
X313471D01*
X312844Y117875D01*
X313466Y118685D01*
X314226Y120520D01*
X314462Y122313D01*
X299298D01*
X299534Y120520D01*
X300294Y118685D01*
X300916Y117875D01*
X300290Y116605D01*
X184870D01*
X184244Y117875D01*
X184866Y118685D01*
X185626Y120520D01*
X185862Y122313D01*
X178280D01*
Y125488D01*
D01*
Y122313D01*
X170698D01*
X170934Y120520D01*
X171694Y118685D01*
X172316Y117875D01*
X171689Y116605D01*
X127037D01*
Y132872D01*
X126763Y134247D01*
X125985Y135413D01*
X121845Y139553D01*
X121235Y139960D01*
X121620Y141230D01*
X287307D01*
X287307Y141230D01*
X289078Y141582D01*
X290580Y142586D01*
X293763Y145769D01*
X504444D01*
X504444Y145769D01*
X506215Y146121D01*
X507717Y147125D01*
X508762Y148169D01*
X515141Y141791D01*
X515141Y141791D01*
X516643Y140787D01*
X518414Y140435D01*
X518414Y140435D01*
X689864D01*
X689864Y140435D01*
X691635Y140787D01*
X693137Y141791D01*
X720892Y169545D01*
X722065Y169059D01*
Y155732D01*
X722065Y155732D01*
X722417Y153960D01*
X723421Y152459D01*
X737899Y137981D01*
X737899Y137981D01*
X739401Y136977D01*
X741172Y136625D01*
X741172Y136625D01*
X819903D01*
X820155Y135355D01*
X819477Y135074D01*
X817902Y133865D01*
X816694Y132290D01*
X815934Y130456D01*
X815698Y128663D01*
X823280D01*
X830862D01*
X830626Y130456D01*
X829866Y132290D01*
X828658Y133865D01*
X827082Y135074D01*
X826405Y135355D01*
X826657Y136625D01*
X905510D01*
X905510Y136625D01*
X907281Y136977D01*
X908783Y137981D01*
X913169Y142367D01*
X913536Y142916D01*
X913711Y143091D01*
X913805Y143319D01*
X914173Y143868D01*
X914302Y144517D01*
X914396Y144745D01*
Y144991D01*
X914525Y145640D01*
X914396Y146288D01*
Y146535D01*
X914302Y146763D01*
X914285Y146846D01*
X915024Y147979D01*
X915229Y148116D01*
X968863D01*
X979496Y137483D01*
Y136803D01*
X980181Y135149D01*
X981447Y133883D01*
X983101Y133198D01*
X984891D01*
X986545Y133883D01*
X987811Y135149D01*
X988496Y136803D01*
Y138593D01*
X987811Y140247D01*
X986545Y141513D01*
X984891Y142198D01*
X984211D01*
X972601Y153807D01*
X971520Y154530D01*
X970244Y154784D01*
X946296D01*
X945810Y155957D01*
X964409Y174557D01*
X964409Y174557D01*
X964777Y175106D01*
X964951Y175281D01*
X965045Y175509D01*
X965413Y176058D01*
X965542Y176707D01*
X965636Y176935D01*
Y177181D01*
X965765Y177830D01*
X965765Y177830D01*
Y197645D01*
X965765Y197646D01*
X965413Y199417D01*
X965206Y199726D01*
X965885Y200996D01*
X972348D01*
X972594Y200750D01*
X974248Y200065D01*
X976038D01*
X977692Y200750D01*
X978958Y202016D01*
X979643Y203670D01*
Y205460D01*
X978958Y207114D01*
X977692Y208380D01*
X976038Y209065D01*
X974748D01*
X974654Y209205D01*
Y210996D01*
X973969Y212649D01*
X972703Y213915D01*
X971050Y214600D01*
X969259D01*
X967606Y213915D01*
X967448Y213758D01*
X965232D01*
Y221335D01*
X983939Y240042D01*
X985209Y239516D01*
Y195246D01*
X985209Y195246D01*
X985561Y193474D01*
X986565Y191973D01*
X988923Y189615D01*
X988923Y189615D01*
X990425Y188611D01*
X991292Y188439D01*
X991415Y188388D01*
X991548D01*
X992196Y188259D01*
X992196Y188259D01*
X992310D01*
X992958Y188388D01*
X993205D01*
X993433Y188482D01*
X994081Y188611D01*
X994631Y188979D01*
X994859Y189073D01*
X995033Y189247D01*
X995583Y189615D01*
X995950Y190164D01*
X996125Y190339D01*
X996219Y190567D01*
X996587Y191116D01*
X996716Y191765D01*
X996810Y191993D01*
Y192239D01*
X996939Y192888D01*
X996810Y193536D01*
Y193783D01*
X996716Y194011D01*
X996587Y194659D01*
X996219Y195209D01*
X996125Y195437D01*
X995950Y195611D01*
X995583Y196161D01*
X995239Y196391D01*
X994467Y197163D01*
Y240568D01*
X994338Y241216D01*
Y241463D01*
X994244Y241691D01*
X994115Y242339D01*
X993747Y242889D01*
X993653Y243117D01*
X993478Y243291D01*
X993111Y243841D01*
X992561Y244208D01*
X992387Y244383D01*
X992159Y244477D01*
X991609Y244844D01*
X990961Y244973D01*
X990733Y245068D01*
X990486D01*
X989838Y245197D01*
X989714Y245172D01*
X988661Y246034D01*
X988600Y246241D01*
Y262809D01*
X1003411Y277620D01*
X1030550D01*
X1031826Y277874D01*
X1032908Y278596D01*
X1059187Y304876D01*
X1059910Y305958D01*
X1060164Y307234D01*
Y347439D01*
X1060997Y348271D01*
X1061141Y348488D01*
X1066793D01*
Y159740D01*
D02*
G37*
G36*
X126438Y179058D02*
X126438Y179057D01*
X127435Y178391D01*
X128612Y178157D01*
X171460Y178157D01*
X172022Y177018D01*
X171694Y176590D01*
X170934Y174756D01*
X170675Y172788D01*
Y170463D01*
X178280D01*
X185885D01*
Y172788D01*
X185626Y174756D01*
X184866Y176590D01*
X184538Y177018D01*
X185100Y178157D01*
X193562D01*
X197539Y174180D01*
Y155516D01*
X184455D01*
X183946Y156786D01*
X184866Y157985D01*
X185626Y159819D01*
X185885Y161788D01*
Y164113D01*
X178280D01*
X170675D01*
Y161788D01*
X170934Y159819D01*
X171694Y157985D01*
X172614Y156786D01*
X172105Y155516D01*
X165719D01*
X165466Y156786D01*
X167024Y157431D01*
X168536Y158943D01*
X169354Y160919D01*
Y163057D01*
X168536Y165033D01*
X167024Y166544D01*
X165048Y167363D01*
X162910D01*
X160935Y166544D01*
X159423Y165033D01*
X158604Y163057D01*
Y160919D01*
X159423Y158943D01*
X160935Y157431D01*
X162492Y156786D01*
X162239Y155516D01*
X136361D01*
X109563Y182314D01*
X110049Y183488D01*
X122007D01*
X126438Y179058D01*
D02*
G37*
G36*
X556437D02*
X556438Y179057D01*
X557435Y178391D01*
X558612Y178157D01*
X601460Y178157D01*
X602022Y177018D01*
X601694Y176590D01*
X600934Y174756D01*
X600675Y172788D01*
Y170463D01*
X608280D01*
X615885D01*
Y172788D01*
X615626Y174756D01*
X614866Y176590D01*
X614538Y177018D01*
X615100Y178157D01*
X623562D01*
X627539Y174180D01*
Y155442D01*
X614327D01*
X613889Y156712D01*
X614866Y157985D01*
X615626Y159819D01*
X615885Y161788D01*
Y164113D01*
X608280D01*
X600675D01*
Y161788D01*
X600934Y159819D01*
X601694Y157985D01*
X602671Y156712D01*
X602233Y155442D01*
X595541D01*
X595288Y156712D01*
X597024Y157431D01*
X598536Y158943D01*
X599354Y160919D01*
Y163057D01*
X598536Y165033D01*
X597024Y166544D01*
X595048Y167363D01*
X592910D01*
X590934Y166544D01*
X589422Y165033D01*
X588604Y163057D01*
Y160919D01*
X589422Y158943D01*
X590934Y157431D01*
X592670Y156712D01*
X592418Y155442D01*
X563261D01*
X536388Y182314D01*
X536874Y183488D01*
X552007D01*
X556437Y179058D01*
D02*
G37*
G36*
X341437D02*
X341438Y179057D01*
X342435Y178391D01*
X343612Y178157D01*
X386460Y178157D01*
X387022Y177018D01*
X386694Y176590D01*
X385934Y174756D01*
X385675Y172788D01*
Y170463D01*
X393280D01*
X400885D01*
Y172788D01*
X400626Y174756D01*
X399866Y176590D01*
X399538Y177018D01*
X400100Y178157D01*
X408562D01*
X412539Y174180D01*
Y155027D01*
X398941D01*
X398510Y156297D01*
X398657Y156410D01*
X399866Y157985D01*
X400626Y159819D01*
X400885Y161788D01*
Y164113D01*
X393280D01*
X385675D01*
Y161788D01*
X385934Y159819D01*
X386694Y157985D01*
X387902Y156410D01*
X388050Y156297D01*
X387619Y155027D01*
X312541D01*
X312110Y156297D01*
X312258Y156410D01*
X313466Y157985D01*
X314226Y159819D01*
X314485Y161788D01*
Y164113D01*
X306880D01*
Y167288D01*
X303705D01*
Y179634D01*
X303383Y179501D01*
X302664Y180577D01*
X305574Y183488D01*
X337007D01*
X341437Y179058D01*
D02*
G37*
G36*
X558310Y150963D02*
X557784Y149693D01*
X520331D01*
X513391Y156633D01*
Y159261D01*
X514661Y159514D01*
X515294Y157985D01*
X516502Y156410D01*
X518078Y155202D01*
X518705Y154942D01*
Y167288D01*
X521880D01*
Y170463D01*
X529485D01*
Y172788D01*
X529226Y174756D01*
X528466Y176590D01*
X527258Y178165D01*
X525683Y179374D01*
X523848Y180134D01*
X522325Y180334D01*
X521598Y181532D01*
X521675Y181646D01*
X522027Y183418D01*
X523237Y183488D01*
X525785D01*
X558310Y150963D01*
D02*
G37*
G36*
X771438Y179058D02*
X771438Y179057D01*
X772435Y178391D01*
X773612Y178157D01*
X816460Y178157D01*
X817022Y177018D01*
X816694Y176590D01*
X815934Y174756D01*
X815675Y172788D01*
Y170463D01*
X823280D01*
X830885D01*
Y172788D01*
X830626Y174756D01*
X829866Y176590D01*
X829538Y177018D01*
X830100Y178157D01*
X838562D01*
X842539Y174180D01*
Y154784D01*
X828624D01*
X828193Y156054D01*
X828657Y156410D01*
X829866Y157985D01*
X830626Y159819D01*
X830885Y161788D01*
Y164113D01*
X823280D01*
X815675D01*
Y161788D01*
X815934Y159819D01*
X816694Y157985D01*
X817902Y156410D01*
X818367Y156054D01*
X817936Y154784D01*
X774775D01*
X747244Y182314D01*
X747730Y183488D01*
X767007D01*
X771438Y179058D01*
D02*
G37*
G36*
X751496Y168633D02*
X750970Y167363D01*
X750112D01*
X748136Y166544D01*
X746624Y165033D01*
X745806Y163057D01*
Y160919D01*
X746624Y158943D01*
X748136Y157431D01*
X750112Y156613D01*
X752250D01*
X754226Y157431D01*
X755738Y158943D01*
X756556Y160919D01*
Y161777D01*
X757826Y162303D01*
X771037Y149092D01*
X772118Y148370D01*
X773394Y148116D01*
X904166D01*
X904652Y146943D01*
X903593Y145883D01*
X743089D01*
X735947Y153025D01*
X736541Y154228D01*
X736880Y154183D01*
X738848Y154442D01*
X740683Y155202D01*
X742258Y156410D01*
X743466Y157985D01*
X744226Y159820D01*
X744485Y161788D01*
Y164113D01*
X736880D01*
Y170463D01*
X744485D01*
Y172788D01*
X744324Y174008D01*
X745527Y174601D01*
X751496Y168633D01*
D02*
G37*
G36*
X130053Y151661D02*
X129567Y150488D01*
X96235D01*
X93454Y153269D01*
X94010Y154509D01*
X95683Y155202D01*
X97258Y156410D01*
X98466Y157985D01*
X99226Y159819D01*
X99485Y161788D01*
Y164113D01*
X91880D01*
Y167288D01*
X88705D01*
Y179634D01*
X88078Y179374D01*
X86503Y178165D01*
X86194Y177764D01*
X84927Y177681D01*
X82267Y180341D01*
X81718Y180708D01*
X81543Y180883D01*
X81315Y180977D01*
X80765Y181344D01*
X80182Y181460D01*
X80041Y181713D01*
X79829Y182384D01*
X79795Y182838D01*
X80331Y183488D01*
X98227D01*
X130053Y151661D01*
D02*
G37*
G36*
X3638Y157046D02*
X4300Y156604D01*
X5080Y156449D01*
X67533D01*
X67632Y156468D01*
X67733Y156459D01*
X68019Y156545D01*
X68313Y156604D01*
X68397Y156660D01*
X68494Y156689D01*
X69045Y157007D01*
X70069Y156442D01*
X70109Y156411D01*
X89512Y137007D01*
X89189Y135534D01*
X88078Y135074D01*
X86503Y133865D01*
X85294Y132290D01*
X84534Y130456D01*
X84298Y128663D01*
X99462D01*
X99226Y130456D01*
X98525Y132149D01*
X98919Y133208D01*
X99023Y133419D01*
X117816D01*
X119851Y131384D01*
Y114797D01*
X120125Y113422D01*
X120903Y112257D01*
X121144Y112016D01*
X120656Y110844D01*
X40452Y111072D01*
X38676Y111306D01*
X32910Y112851D01*
X27394Y115136D01*
X22225Y118121D01*
X17488Y121755D01*
X13267Y125976D01*
X9633Y130712D01*
X6648Y135882D01*
X4363Y141398D01*
X2818Y147164D01*
X2039Y153083D01*
X2039Y157327D01*
X2635Y157523D01*
X3309Y157538D01*
X3638Y157046D01*
D02*
G37*
%LPC*%
G36*
X45000Y575570D02*
X41667Y575242D01*
X38463Y574270D01*
X35510Y572691D01*
X32921Y570567D01*
X30797Y567978D01*
X29218Y565025D01*
X28246Y561820D01*
X27918Y558488D01*
X28246Y555155D01*
X29218Y551951D01*
X30797Y548997D01*
X32921Y546409D01*
X35510Y544285D01*
X38463Y542706D01*
X41667Y541734D01*
X45000Y541406D01*
X48333Y541734D01*
X51537Y542706D01*
X54490Y544285D01*
X57079Y546409D01*
X59203Y548997D01*
X60782Y551951D01*
X61754Y555155D01*
X62082Y558488D01*
X61754Y561820D01*
X60782Y565025D01*
X59203Y567978D01*
X57079Y570567D01*
X54490Y572691D01*
X51537Y574270D01*
X48333Y575242D01*
X45000Y575570D01*
D02*
G37*
G36*
X45212Y368387D02*
X45212Y368387D01*
X44772D01*
X44124Y368258D01*
X43877D01*
X43649Y368163D01*
X43001Y368034D01*
X42451Y367667D01*
X42223Y367573D01*
X42049Y367398D01*
X42005Y367369D01*
X41499Y367031D01*
X41132Y366481D01*
X40957Y366307D01*
X40863Y366079D01*
X40843Y366050D01*
X40495Y365529D01*
X40367Y364881D01*
X40272Y364653D01*
Y364406D01*
X40143Y363758D01*
X40272Y363110D01*
Y362863D01*
X40367Y362635D01*
X40495Y361986D01*
X40863Y361437D01*
X40957Y361209D01*
X41132Y361034D01*
X41499Y360485D01*
X42049Y360117D01*
X42223Y359943D01*
X42451Y359849D01*
X43001Y359481D01*
X43649Y359352D01*
X43877Y359258D01*
X44124D01*
X44772Y359129D01*
X45096D01*
X45241Y359100D01*
X45241Y359100D01*
X75213D01*
X75861Y359229D01*
X76108D01*
X76336Y359324D01*
X76984Y359452D01*
X77534Y359820D01*
X77762Y359914D01*
X77936Y360089D01*
D01*
X78486Y360456D01*
X78853Y361006D01*
X78882Y361034D01*
X79028Y361180D01*
X79122Y361408D01*
D01*
X79489Y361958D01*
X79495Y361986D01*
X79618Y362606D01*
X79713Y362834D01*
Y363081D01*
D01*
X79842Y363729D01*
X79836Y363758D01*
X79713Y364377D01*
D01*
Y364624D01*
X79618Y364852D01*
X79489Y365500D01*
X79122Y366050D01*
X79028Y366278D01*
X78853Y366452D01*
X78486Y367002D01*
X78443Y367031D01*
X77936Y367369D01*
X77762Y367544D01*
X77534Y367638D01*
X76984Y368006D01*
X76336Y368135D01*
X76108Y368229D01*
X75861D01*
X75213Y368358D01*
X45357D01*
X45212Y368387D01*
D02*
G37*
G36*
X130000Y390527D02*
X95000D01*
X94220Y390372D01*
X93558Y389930D01*
X93116Y389268D01*
X92961Y388488D01*
Y353488D01*
X93116Y352707D01*
X93558Y352046D01*
X94220Y351604D01*
X95000Y351449D01*
X130000D01*
X130780Y351604D01*
X131442Y352046D01*
X131884Y352707D01*
X132039Y353488D01*
Y388488D01*
X131884Y389268D01*
X131442Y389930D01*
X130780Y390372D01*
X130000Y390527D01*
D02*
G37*
G36*
X849405Y305313D02*
X848627D01*
X849405Y304535D01*
Y305313D01*
D02*
G37*
G36*
X634405D02*
X633627D01*
X634405Y304535D01*
Y305313D01*
D02*
G37*
G36*
X419405D02*
X418627D01*
X419405Y304535D01*
Y305313D01*
D02*
G37*
G36*
X204405D02*
X203627D01*
X204405Y304535D01*
Y305313D01*
D02*
G37*
G36*
X42037Y198569D02*
Y191165D01*
X49441D01*
X49150Y192251D01*
X47696Y194769D01*
X45641Y196824D01*
X43123Y198277D01*
X42037Y198569D01*
D02*
G37*
G36*
X35687Y198568D02*
X34601Y198277D01*
X32083Y196824D01*
X30028Y194769D01*
X28574Y192251D01*
X28283Y191165D01*
X35687D01*
Y198568D01*
D02*
G37*
G36*
Y184815D02*
X28283D01*
X28574Y183729D01*
X30028Y181211D01*
X32083Y179156D01*
X34601Y177702D01*
X35687Y177411D01*
Y184815D01*
D02*
G37*
G36*
X49441D02*
X42037D01*
Y177411D01*
X43123Y177702D01*
X45641Y179156D01*
X47696Y181211D01*
X49150Y183729D01*
X49441Y184815D01*
D02*
G37*
G36*
X1017780Y268192D02*
X1015455D01*
Y263762D01*
X1024626D01*
X1024366Y264389D01*
X1023158Y265965D01*
X1021582Y267173D01*
X1019748Y267933D01*
X1017780Y268192D01*
D02*
G37*
G36*
X1009105D02*
X1006780D01*
X1004811Y267933D01*
X1002977Y267173D01*
X1001402Y265965D01*
X1000194Y264389D01*
X999934Y263762D01*
X1009105D01*
Y268192D01*
D02*
G37*
G36*
X1057255Y268169D02*
Y263762D01*
X1063926D01*
X1063666Y264389D01*
X1062458Y265965D01*
X1060882Y267173D01*
X1059048Y267933D01*
X1057255Y268169D01*
D02*
G37*
G36*
X1050905Y268169D02*
X1049111Y267933D01*
X1047277Y267173D01*
X1045702Y265965D01*
X1044494Y264389D01*
X1044234Y263762D01*
X1050905D01*
Y268169D01*
D02*
G37*
G36*
Y257412D02*
X1044234D01*
X1044494Y256784D01*
X1045702Y255209D01*
X1047277Y254001D01*
X1049111Y253241D01*
X1050905Y253005D01*
Y257412D01*
D02*
G37*
G36*
X1063926D02*
X1057255D01*
Y253005D01*
X1059048Y253241D01*
X1060882Y254001D01*
X1062458Y255209D01*
X1063666Y256784D01*
X1063926Y257412D01*
D02*
G37*
G36*
X1024626Y257412D02*
X1015455D01*
Y252982D01*
X1017780D01*
X1019748Y253241D01*
X1021582Y254001D01*
X1023158Y255209D01*
X1024366Y256784D01*
X1024626Y257412D01*
D02*
G37*
G36*
X1009105D02*
X999934D01*
X1000194Y256784D01*
X1001402Y255209D01*
X1002977Y254001D01*
X1004811Y253241D01*
X1006780Y252982D01*
X1009105D01*
Y257412D01*
D02*
G37*
G36*
X1018649Y251661D02*
X1016511D01*
X1014535Y250843D01*
X1013023Y249331D01*
X1012205Y247355D01*
Y245217D01*
X1013023Y243241D01*
X1014535Y241729D01*
X1016511Y240911D01*
X1018649D01*
X1020625Y241729D01*
X1022137Y243241D01*
X1022955Y245217D01*
Y247355D01*
X1022137Y249331D01*
X1020625Y250843D01*
X1018649Y251661D01*
D02*
G37*
G36*
Y193863D02*
X1016511D01*
X1014535Y193044D01*
X1013023Y191532D01*
X1012205Y189557D01*
Y187419D01*
X1013023Y185443D01*
X1014535Y183931D01*
X1016511Y183113D01*
X1018649D01*
X1020625Y183931D01*
X1022137Y185443D01*
X1022955Y187419D01*
Y189557D01*
X1022137Y191532D01*
X1020625Y193044D01*
X1018649Y193863D01*
D02*
G37*
G36*
X1057255Y181769D02*
Y177362D01*
X1063926D01*
X1063666Y177990D01*
X1062458Y179565D01*
X1060882Y180773D01*
X1059048Y181533D01*
X1057255Y181769D01*
D02*
G37*
G36*
X1050905D02*
X1049111Y181533D01*
X1047277Y180773D01*
X1045702Y179565D01*
X1044494Y177990D01*
X1044234Y177362D01*
X1050905D01*
Y181769D01*
D02*
G37*
G36*
X1017780Y181792D02*
X1015455D01*
Y177362D01*
X1024626D01*
X1024366Y177990D01*
X1023158Y179565D01*
X1021582Y180773D01*
X1019748Y181533D01*
X1017780Y181792D01*
D02*
G37*
G36*
X1009105D02*
X1006780D01*
X1004811Y181533D01*
X1002977Y180773D01*
X1001402Y179565D01*
X1000194Y177990D01*
X999934Y177362D01*
X1009105D01*
Y181792D01*
D02*
G37*
G36*
X1050905Y171012D02*
X1044234D01*
X1044494Y170385D01*
X1045702Y168810D01*
X1047277Y167601D01*
X1049111Y166841D01*
X1050905Y166605D01*
Y171012D01*
D02*
G37*
G36*
X1063926D02*
X1057255D01*
Y166605D01*
X1059048Y166841D01*
X1060882Y167601D01*
X1062458Y168810D01*
X1063666Y170385D01*
X1063926Y171012D01*
D02*
G37*
G36*
X1024626Y171012D02*
X1015455D01*
Y166582D01*
X1017780D01*
X1019748Y166841D01*
X1021582Y167601D01*
X1023158Y168810D01*
X1024366Y170385D01*
X1024626Y171012D01*
D02*
G37*
G36*
X1009105D02*
X999934D01*
X1000194Y170385D01*
X1001402Y168810D01*
X1002977Y167601D01*
X1004811Y166841D01*
X1006780Y166582D01*
X1009105D01*
Y171012D01*
D02*
G37*
G36*
X927735Y145715D02*
Y144937D01*
X928513D01*
X927735Y145715D01*
D02*
G37*
G36*
X921385D02*
X920607Y144937D01*
X921385D01*
Y145715D01*
D02*
G37*
G36*
X928513Y138587D02*
X920607D01*
X921262Y137933D01*
X921416Y136874D01*
X921175Y136360D01*
X920353Y135539D01*
X928259D01*
X927605Y136193D01*
X927450Y137251D01*
D01*
X927691Y137766D01*
X928513Y138587D01*
D02*
G37*
G36*
X740055Y135334D02*
Y128663D01*
X744462D01*
X744226Y130456D01*
X743466Y132290D01*
X742258Y133865D01*
X740683Y135074D01*
X740055Y135334D01*
D02*
G37*
G36*
X733705D02*
X733078Y135074D01*
X731503Y133865D01*
X730294Y132290D01*
X729534Y130456D01*
X729298Y128663D01*
X733705D01*
Y135334D01*
D02*
G37*
G36*
X525055Y135334D02*
Y128663D01*
X529462D01*
X529226Y130456D01*
X528466Y132290D01*
X527258Y133865D01*
X525683Y135074D01*
X525055Y135334D01*
D02*
G37*
G36*
X518705D02*
X518078Y135074D01*
X516502Y133865D01*
X515294Y132290D01*
X514534Y130456D01*
X514298Y128663D01*
X518705D01*
Y135334D01*
D02*
G37*
G36*
X310055D02*
Y128663D01*
X314462D01*
X314226Y130456D01*
X313466Y132290D01*
X312258Y133865D01*
X310683Y135074D01*
X310055Y135334D01*
D02*
G37*
G36*
X303705D02*
X303078Y135074D01*
X301502Y133865D01*
X300294Y132290D01*
X299534Y130456D01*
X299298Y128663D01*
X303705D01*
Y135334D01*
D02*
G37*
G36*
X611455D02*
Y128663D01*
X615862D01*
X615626Y130456D01*
X614866Y132290D01*
X613657Y133865D01*
X612082Y135074D01*
X611455Y135334D01*
D02*
G37*
G36*
X396455Y135334D02*
Y128663D01*
X400862D01*
X400626Y130456D01*
X399866Y132290D01*
X398657Y133865D01*
X397082Y135074D01*
X396455Y135334D01*
D02*
G37*
G36*
X181455Y135334D02*
Y128663D01*
X185862D01*
X185626Y130456D01*
X184866Y132290D01*
X183657Y133865D01*
X182083Y135074D01*
X181455Y135334D01*
D02*
G37*
G36*
X175105Y135334D02*
X174477Y135074D01*
X172902Y133865D01*
X171694Y132290D01*
X170934Y130456D01*
X170698Y128663D01*
X175105D01*
Y135334D01*
D02*
G37*
G36*
X390105Y135334D02*
X389477Y135074D01*
X387902Y133865D01*
X386694Y132290D01*
X385934Y130456D01*
X385698Y128663D01*
X390105D01*
Y135334D01*
D02*
G37*
G36*
X605105Y135334D02*
X604477Y135074D01*
X602902Y133865D01*
X601694Y132290D01*
X600934Y130456D01*
X600698Y128663D01*
X605105D01*
Y135334D01*
D02*
G37*
G36*
X928259Y129189D02*
X920353D01*
X921451Y128091D01*
X921688Y127993D01*
X921809Y127429D01*
X921800Y126572D01*
X920861Y125633D01*
X928767D01*
X927669Y126730D01*
X927432Y126829D01*
X927311Y127393D01*
X927320Y128250D01*
X928259Y129189D01*
D02*
G37*
G36*
X310055Y179634D02*
Y170463D01*
X314485D01*
Y172788D01*
X314226Y174756D01*
X313466Y176590D01*
X312258Y178165D01*
X310683Y179374D01*
X310055Y179634D01*
D02*
G37*
G36*
X380048Y167363D02*
X377910D01*
X375934Y166544D01*
X374422Y165033D01*
X373604Y163057D01*
Y160919D01*
X374422Y158943D01*
X375934Y157431D01*
X377910Y156613D01*
X380048D01*
X382024Y157431D01*
X383536Y158943D01*
X384354Y160919D01*
Y163057D01*
X383536Y165033D01*
X382024Y166544D01*
X380048Y167363D01*
D02*
G37*
G36*
X322250D02*
X320112D01*
X318136Y166544D01*
X316624Y165033D01*
X315806Y163057D01*
Y160919D01*
X316624Y158943D01*
X318136Y157431D01*
X320112Y156613D01*
X322250D01*
X324226Y157431D01*
X325738Y158943D01*
X326556Y160919D01*
Y163057D01*
X325738Y165033D01*
X324226Y166544D01*
X322250Y167363D01*
D02*
G37*
G36*
X537250D02*
X535112D01*
X533136Y166544D01*
X531624Y165033D01*
X530806Y163057D01*
Y160919D01*
X531624Y158943D01*
X533136Y157431D01*
X535112Y156613D01*
X537250D01*
X539226Y157431D01*
X540738Y158943D01*
X541556Y160919D01*
Y163057D01*
X540738Y165033D01*
X539226Y166544D01*
X537250Y167363D01*
D02*
G37*
G36*
X529485Y164113D02*
X525055D01*
Y154942D01*
X525683Y155202D01*
X527258Y156410D01*
X528466Y157985D01*
X529226Y159819D01*
X529485Y161788D01*
Y164113D01*
D02*
G37*
G36*
X810048Y167363D02*
X807910D01*
X805935Y166545D01*
X804422Y165033D01*
X803604Y163057D01*
Y160919D01*
X804422Y158943D01*
X805935Y157431D01*
X807910Y156613D01*
X810048D01*
X812024Y157431D01*
X813536Y158943D01*
X814354Y160919D01*
Y163057D01*
X813536Y165033D01*
X812024Y166545D01*
X810048Y167363D01*
D02*
G37*
G36*
X95055Y179634D02*
Y170463D01*
X99485D01*
Y172788D01*
X99226Y174756D01*
X98466Y176590D01*
X97258Y178165D01*
X95683Y179374D01*
X95055Y179634D01*
D02*
G37*
G36*
X107250Y167363D02*
X105112D01*
X103136Y166544D01*
X101624Y165033D01*
X100806Y163057D01*
Y160919D01*
X101624Y158943D01*
X103136Y157431D01*
X105112Y156613D01*
X107250D01*
X109226Y157431D01*
X110738Y158943D01*
X111556Y160919D01*
Y163057D01*
X110738Y165033D01*
X109226Y166544D01*
X107250Y167363D01*
D02*
G37*
G36*
X49902Y148230D02*
X42037D01*
Y140365D01*
X49902D01*
Y148230D01*
D02*
G37*
G36*
X35687D02*
X27822D01*
Y140365D01*
X35687D01*
Y148230D01*
D02*
G37*
G36*
X49902Y134015D02*
X42037D01*
Y126150D01*
X49902D01*
Y134015D01*
D02*
G37*
G36*
X35687D02*
X27822D01*
Y126150D01*
X35687D01*
Y134015D01*
D02*
G37*
G36*
X99462Y122313D02*
X95055D01*
Y115642D01*
X95683Y115902D01*
X97258Y117110D01*
X98466Y118685D01*
X99226Y120520D01*
X99462Y122313D01*
D02*
G37*
G36*
X88705D02*
X84298D01*
X84534Y120520D01*
X85294Y118685D01*
X86503Y117110D01*
X88078Y115902D01*
X88705Y115642D01*
Y122313D01*
D02*
G37*
%LPD*%
D34*
X897580Y578488D02*
D03*
X937580Y193568D02*
D03*
X45000Y558488D02*
D03*
D36*
X147065Y190711D02*
X147581D01*
X152820Y185472D01*
X1010020Y578320D02*
Y583675D01*
X1005448Y576426D02*
Y585569D01*
X1010507Y590628D01*
X1010020Y583675D02*
X1012400Y586056D01*
X1005448Y576426D02*
X1016000Y565874D01*
X1017229Y591842D02*
X1018032D01*
X1016015Y590628D02*
X1017229Y591842D01*
X1016000Y499786D02*
Y565874D01*
X1010507Y590628D02*
X1016015D01*
X1025223Y486421D02*
Y490563D01*
X1016000Y499786D02*
X1025223Y490563D01*
X1024009Y485207D02*
X1025223Y486421D01*
X1024009Y484404D02*
Y485207D01*
X157592Y235295D02*
X158006Y235709D01*
X154080Y235295D02*
X157592D01*
X152971Y234186D02*
X154080Y235295D01*
X68808Y293570D02*
X125862Y236516D01*
X140012D01*
X142343Y234186D02*
X152971D01*
X140012Y236516D02*
X142343Y234186D01*
X1017229Y584842D02*
X1018032D01*
X1020572Y501680D02*
Y567768D01*
X1010020Y578320D02*
X1020572Y567768D01*
Y501680D02*
X1029795Y492457D01*
X1012400Y586056D02*
X1016015D01*
X1017229Y584842D01*
X1029795Y486421D02*
Y492457D01*
Y486421D02*
X1031009Y485207D01*
Y484404D02*
Y485207D01*
X152658Y242204D02*
X153226Y242772D01*
X152658Y240339D02*
Y242204D01*
X151077Y238758D02*
X152658Y240339D01*
X144237Y238758D02*
X151077D01*
X72041Y296803D02*
X127755Y241089D01*
X141906D02*
X144237Y238758D01*
X127755Y241089D02*
X141906D01*
X170434Y270540D02*
Y271252D01*
X165590Y276096D02*
X170434Y271252D01*
X143892Y276096D02*
X165590D01*
X361696Y191038D02*
X367262Y185472D01*
X441480D01*
X341944Y241124D02*
X370144D01*
X305000Y278068D02*
X341944Y241124D01*
X1011259Y497530D02*
Y497706D01*
X1013024Y494961D02*
Y495764D01*
X1011259Y497530D02*
X1013024Y495764D01*
X1008888Y500077D02*
X1011259Y497706D01*
X994526Y578134D02*
X1008888Y563772D01*
Y500077D02*
Y563772D01*
X977928Y574015D02*
X982047Y578134D01*
X994526D01*
X974788Y575471D02*
X976244Y574015D01*
X974788Y575471D02*
Y580986D01*
X976244Y574015D02*
X977928D01*
X306908Y537486D02*
X309860Y540438D01*
Y541106D01*
X306908Y536409D02*
Y537486D01*
X305000Y534501D02*
X306908Y536409D01*
X305000Y278068D02*
Y534501D01*
X370264Y236552D02*
X371432Y235384D01*
X372235D01*
X340050Y236552D02*
X370264D01*
X300428Y276174D02*
X340050Y236552D01*
X1004316Y493851D02*
Y561878D01*
X1008112Y489974D02*
Y490055D01*
X1004316Y493851D02*
X1008112Y490055D01*
X979821Y569443D02*
X983941Y573562D01*
X992632D01*
X1004316Y561878D01*
X969010Y582665D02*
X970216Y581459D01*
Y573577D02*
X974351Y569443D01*
X969010Y582665D02*
Y583468D01*
X970216Y573577D02*
Y581459D01*
X974351Y569443D02*
X979821D01*
X302336Y541030D02*
X302687Y541380D01*
X302336Y538303D02*
Y541030D01*
X300428Y276174D02*
Y536395D01*
X302336Y538303D01*
X348416Y264190D02*
X351705Y267478D01*
X347847Y264190D02*
X348416D01*
X351705Y268909D02*
X356638Y273842D01*
X351705Y267478D02*
Y268909D01*
X378202Y239044D02*
X378482Y239324D01*
Y244124D01*
X382038Y247680D01*
X373620Y259350D02*
X373888Y259618D01*
X373620Y257296D02*
Y259350D01*
X366290Y249966D02*
X373620Y257296D01*
X373402Y267746D02*
X375910Y265238D01*
X364004Y267746D02*
X373402D01*
X358416Y262158D02*
X364004Y267746D01*
X356638Y273842D02*
X375666D01*
X381508Y268000D01*
X562983Y264055D02*
X563281D01*
X566705Y267478D01*
Y268909D02*
X571638Y273842D01*
X566705Y267478D02*
Y268909D01*
X989863Y561064D02*
X990280Y560646D01*
X981456Y542182D02*
X995866Y527772D01*
Y506236D02*
Y527772D01*
X992568Y502937D02*
X995866Y506236D01*
X983610Y561064D02*
X989863D01*
X981456Y558910D02*
X983610Y561064D01*
X981456Y542182D02*
Y558910D01*
X992568Y488932D02*
Y502937D01*
Y488932D02*
X993773Y487726D01*
Y486923D02*
Y487726D01*
X520000Y278068D02*
X556944Y241124D01*
X584894D01*
X527042Y539485D02*
Y540288D01*
X525828Y538271D02*
X527042Y539485D01*
X525828Y532774D02*
Y538271D01*
X520000Y526945D02*
X525828Y532774D01*
X520000Y278068D02*
Y526945D01*
X991294Y508129D02*
Y525878D01*
X983710Y567630D02*
X990764D01*
X976884Y540288D02*
X991294Y525878D01*
X987996Y504831D02*
X991294Y508129D01*
X976884Y560803D02*
X983710Y567630D01*
X976884Y540288D02*
Y560803D01*
X987996Y488449D02*
Y504831D01*
X986790Y487243D02*
X987996Y488449D01*
X986790Y486440D02*
Y487243D01*
X586241Y235204D02*
X586983D01*
X584894Y236552D02*
X586241Y235204D01*
X521256Y534667D02*
Y538271D01*
X515428Y528839D02*
X521256Y534667D01*
X515428Y276174D02*
X555050Y236552D01*
X584894D01*
X520042Y539485D02*
Y540288D01*
Y539485D02*
X521256Y538271D01*
X515428Y276174D02*
Y528839D01*
X592836Y243478D02*
X597038Y247680D01*
X592836Y239044D02*
Y243478D01*
X588126Y259597D02*
X588620Y260091D01*
X588126Y256802D02*
Y259597D01*
X581290Y249966D02*
X588126Y256802D01*
X590180Y273842D02*
X596697Y267325D01*
X596987D01*
X571638Y273842D02*
X590180D01*
X740177Y531611D02*
Y537759D01*
X734392Y539095D02*
X735605Y537881D01*
X730428Y528327D02*
X735605Y533505D01*
X741391Y538973D02*
Y539776D01*
X734392Y539095D02*
Y539898D01*
X735000Y278068D02*
Y526434D01*
X740177Y531611D01*
Y537759D02*
X741391Y538973D01*
X730428Y276174D02*
X771015Y235588D01*
X735605Y533505D02*
Y537881D01*
X730428Y276174D02*
Y528327D01*
X781213Y266987D02*
Y268417D01*
X778305Y264535D02*
X779566Y265797D01*
X780023D02*
X781213Y266987D01*
X779566Y265797D02*
X780023D01*
X781213Y268417D02*
X786638Y273842D01*
X777502Y264535D02*
X778305D01*
X802527Y256203D02*
Y256924D01*
X803656Y258053D01*
X796290Y249966D02*
X802527Y256203D01*
X803656Y258053D02*
Y258856D01*
X794004Y267746D02*
X803402D01*
X805910Y265238D01*
X788416Y262158D02*
X794004Y267746D01*
X786638Y273842D02*
X806450D01*
X812546Y267746D01*
X805942Y235996D02*
Y236130D01*
X799876Y240159D02*
X801836Y242119D01*
X802551D01*
X805942Y236130D02*
X808482Y238670D01*
X798955Y233384D02*
X799426D01*
X808482Y238670D02*
Y244124D01*
X771015Y235588D02*
X796751D01*
X735000Y278068D02*
X772908Y240159D01*
X796751Y235588D02*
X798955Y233384D01*
X772908Y240159D02*
X799876D01*
X791210Y191800D02*
X797538Y185472D01*
X871480D01*
X964682Y493853D02*
X967188Y491347D01*
X964682Y496726D02*
X968756Y500801D01*
X968886Y491347D02*
X969454Y490779D01*
X964378Y485992D02*
Y487691D01*
X950084Y550038D02*
Y550318D01*
X954585Y545536D02*
X958290D01*
X950084Y550038D02*
X954585Y545536D01*
X968756Y500801D02*
Y535070D01*
X964378Y485992D02*
X964946Y485424D01*
X958290Y545536D02*
X968756Y535070D01*
X945134Y545368D02*
X949538Y540964D01*
X960110Y491959D02*
X964378Y487691D01*
X960110Y498620D02*
X964184Y502694D01*
X964682Y493853D02*
Y496726D01*
X960110Y491959D02*
Y498620D01*
X964184Y502694D02*
Y533176D01*
X949538Y540964D02*
X956396D01*
X967188Y491347D02*
X968886D01*
X956396Y540964D02*
X964184Y533176D01*
X136705Y268909D02*
X143892Y276096D01*
X158620Y257296D02*
Y259500D01*
X159092Y259972D01*
X132955Y263729D02*
X136705Y267478D01*
Y268909D01*
X375910Y265238D02*
X376273D01*
X382038Y259473D01*
Y247680D02*
Y259473D01*
X590910Y265238D02*
X591273D01*
X597038Y259473D01*
Y247680D02*
Y259473D01*
X588402Y267746D02*
X590910Y265238D01*
X579004Y267746D02*
X588402D01*
X573416Y262158D02*
X579004Y267746D01*
X106514Y272710D02*
Y296040D01*
X129258Y249966D02*
X151290D01*
X106514Y272710D02*
X129258Y249966D01*
X151290D02*
X158620Y257296D01*
X321514Y272710D02*
Y296040D01*
X344258Y249966D02*
X366290D01*
X321514Y272710D02*
X344258Y249966D01*
X536514Y272710D02*
X559258Y249966D01*
X581290D01*
X536514Y272710D02*
Y296040D01*
X577581Y190711D02*
X582820Y185472D01*
X663565Y170002D02*
X667580Y165988D01*
X582820Y185472D02*
X656480D01*
X663565Y170002D02*
Y178386D01*
X656480Y185472D02*
X663565Y178386D01*
X624836Y181232D02*
X640080Y165988D01*
X558612Y181232D02*
X624836Y181232D01*
X548452Y191392D02*
X558612Y181232D01*
X448565Y170002D02*
X452580Y165988D01*
X448565Y170002D02*
Y178386D01*
X441480Y185472D02*
X448565Y178386D01*
X409836Y181232D02*
X425080Y165988D01*
X343612Y181232D02*
X409836Y181232D01*
X333452Y191392D02*
X343612Y181232D01*
X233565Y170002D02*
X237580Y165988D01*
X152820Y185472D02*
X226480D01*
X233565Y170002D02*
Y178386D01*
X226480Y185472D02*
X233565Y178386D01*
X194836Y181232D02*
X210080Y165988D01*
X128612Y181232D02*
X194836Y181232D01*
X118452Y191392D02*
X128612Y181232D01*
X192580Y543488D02*
Y555988D01*
X751514Y272710D02*
Y296040D01*
X774258Y249966D02*
X796290D01*
X751514Y272710D02*
X774258Y249966D01*
X808482Y244124D02*
X812038Y247680D01*
Y259473D01*
X806273Y265238D02*
X812038Y259473D01*
X805910Y265238D02*
X806273D01*
X773612Y181232D02*
X839836Y181232D01*
X763452Y191392D02*
X773612Y181232D01*
X839836Y181232D02*
X855080Y165988D01*
X192580Y555988D02*
X207580Y570988D01*
X871480Y185472D02*
X878565Y178386D01*
Y170002D02*
Y178386D01*
Y170002D02*
X882580Y165988D01*
D37*
X224580Y349488D02*
Y560818D01*
X224536Y560862D02*
X224580Y560818D01*
X439674Y553582D02*
Y561116D01*
X439580Y349488D02*
Y553488D01*
X439674Y553582D01*
X965962Y433862D02*
X970232Y438132D01*
X969921Y442348D02*
X970232Y442038D01*
Y438132D02*
Y442038D01*
X946404Y443514D02*
X946706Y443212D01*
Y439910D02*
Y443212D01*
Y439910D02*
X952754Y433862D01*
X918697Y560883D02*
X919219Y560361D01*
X917421Y561116D02*
X918549Y559988D01*
X919979Y560361D02*
X920733Y561116D01*
X918549Y559988D02*
X919077D01*
X920733Y561116D02*
X960628D01*
X871556Y557448D02*
X874072Y559964D01*
X960628Y561116D02*
X964573Y557171D01*
X906405Y561116D02*
X917421D01*
X874072Y559964D02*
X905253D01*
X906405Y561116D01*
X919219Y560361D02*
X919979D01*
X966096Y557171D02*
X966470Y556798D01*
X964573Y557171D02*
X966096D01*
X450080Y267592D02*
X452901D01*
X406511Y267592D02*
X450080Y267592D01*
X371298Y322202D02*
X371298Y296448D01*
X400154Y267592D01*
X406511D01*
X586298Y322202D02*
X586298Y296702D01*
X615408Y267592D01*
X667900D01*
X156298Y322202D02*
X156298Y300485D01*
X189191Y267592D01*
X237901D01*
X667900D02*
X668550Y268241D01*
X669078D01*
X452901Y267592D02*
X453550Y268241D01*
X454078D01*
X312542Y212103D02*
Y212496D01*
X311556Y211117D02*
X312542Y212103D01*
X311556Y205160D02*
Y211117D01*
X237901Y267592D02*
X238550Y268241D01*
X239078D01*
X94946Y191850D02*
Y221014D01*
X123444Y114797D02*
Y132872D01*
X94589Y137012D02*
X119304D01*
X134873Y151923D02*
X222081D01*
X222081Y151923D02*
X258319D01*
X222081Y151923D02*
X222081Y151923D01*
X119304Y137012D02*
X123444Y132872D01*
Y114797D02*
X125230Y113012D01*
X83108Y191850D02*
X94946D01*
X134873Y151923D01*
X654580Y349488D02*
Y562110D01*
X869580Y349488D02*
Y553488D01*
X871556Y555464D02*
Y557448D01*
X869580Y553488D02*
X871556Y555464D01*
X801298Y309910D02*
Y322202D01*
Y309910D02*
X843616Y267592D01*
X882900D01*
X125230Y113012D02*
X958548D01*
X962914Y117378D01*
X71882Y159719D02*
Y180624D01*
Y159719D02*
X94589Y137012D01*
X952754Y433862D02*
X965962D01*
X1002893Y382046D02*
X1024128D01*
X988923Y396016D02*
X1002893Y382046D01*
X71882Y180624D02*
X83108Y191850D01*
X258319Y151923D02*
X311556Y205160D01*
X883549Y268241D02*
X884078D01*
X882900Y267592D02*
X883549Y268241D01*
D38*
X680434Y152108D02*
X738736Y210410D01*
X741972D02*
X742300Y210738D01*
X738736Y210410D02*
X741972D01*
X741810Y183034D02*
Y210248D01*
X742300Y210738D01*
X962754Y204330D02*
X974908D01*
X961898Y212370D02*
X963845Y210424D01*
X974908Y204330D02*
X975143Y204565D01*
X963845Y210424D02*
X969831D01*
X956818Y210266D02*
X962754Y204330D01*
X969831Y210424D02*
X970154Y210100D01*
X956818Y210266D02*
Y224820D01*
X961898Y212370D02*
Y222716D01*
X1053559Y352733D02*
Y365283D01*
X1052071Y366771D02*
X1053559Y365283D01*
X1051750Y366771D02*
X1052071D01*
X1057185Y369817D02*
X1057656Y369346D01*
X1056830Y307234D02*
Y348820D01*
X1057185Y369817D02*
Y371556D01*
X1057656Y368680D02*
Y369346D01*
X1051750Y350924D02*
X1053559Y352733D01*
X1051750Y309338D02*
Y350924D01*
X1058639Y350629D02*
Y367697D01*
X1056830Y371911D02*
X1057185Y371556D01*
X1057656Y368680D02*
X1058639Y367697D01*
X1051750Y366771D02*
Y425256D01*
X1056830Y371911D02*
Y427360D01*
Y348820D02*
X1058639Y350629D01*
X967340Y452532D02*
X971530Y456722D01*
X963620Y445532D02*
Y446198D01*
X967340Y449918D02*
Y452532D01*
X971530Y456722D02*
X1020284D01*
X1051750Y425256D01*
X1030550Y280954D02*
X1056830Y307234D01*
X963620Y446198D02*
X967340Y449918D01*
X1022388Y461802D02*
X1056830Y427360D01*
X957217Y442702D02*
Y449594D01*
X969426Y461802D01*
X525526Y188462D02*
X561880Y152108D01*
X680434D01*
X1002030Y280954D02*
X1030550D01*
X985266Y246084D02*
Y264190D01*
X1002030Y280954D01*
X969426Y461802D02*
X1022388D01*
X961898Y222716D02*
X985266Y246084D01*
X1028446Y286034D02*
X1051750Y309338D01*
X999926Y286034D02*
X1028446D01*
X980186Y248188D02*
Y266294D01*
X999926Y286034D01*
X956818Y224820D02*
X980186Y248188D01*
X970244Y151450D02*
X983996Y137698D01*
X773394Y151450D02*
X970244D01*
X741810Y183034D02*
X773394Y151450D01*
D39*
X1023956Y397794D02*
X1031390D01*
X1020908Y400842D02*
X1023956Y397794D01*
X994410Y400842D02*
X1020908D01*
X943356Y384840D02*
X964438Y405922D01*
X989330D01*
X994410Y400842D01*
D40*
X160478Y270540D02*
X167386Y263632D01*
Y248442D02*
Y263632D01*
X151798Y270540D02*
X160478D01*
X165046Y232792D02*
Y238625D01*
X160883Y228630D02*
X165046Y232792D01*
X161307Y242363D02*
X167386Y248442D01*
X123190Y228630D02*
X160883D01*
X161017Y242072D02*
X161307Y242363D01*
X165046Y238625D01*
X340462Y261684D02*
Y334374D01*
Y261684D02*
X341165Y260981D01*
X689864Y145064D02*
X726440Y181640D01*
X726694Y155732D02*
X741172Y141254D01*
X726694Y155732D02*
Y181894D01*
X726440Y181640D02*
Y183164D01*
X1025906Y296448D02*
X1045940Y316482D01*
X1021334Y325658D02*
X1038860Y343184D01*
X1026160Y431068D02*
X1045940Y411288D01*
Y316482D02*
Y411288D01*
X998771Y442260D02*
X1038860Y402170D01*
Y343184D02*
Y402170D01*
X990330Y442260D02*
X998771D01*
X143416Y262158D02*
X151798Y270540D01*
X100076Y251744D02*
X123190Y228630D01*
X341165Y260916D02*
Y260981D01*
Y260916D02*
X345143Y256939D01*
X353197D01*
X358416Y262158D01*
X555462Y261684D02*
Y334374D01*
Y261684D02*
X556165Y260981D01*
Y260916D02*
Y260981D01*
Y260916D02*
X560143Y256939D01*
X568197D01*
X573416Y262158D01*
X56388Y251744D02*
X100076D01*
X45212Y363758D02*
X45241Y363729D01*
X44772Y363758D02*
X45212D01*
X45241Y363729D02*
X75213D01*
X508762Y174782D02*
X517398Y183418D01*
X508762Y154716D02*
Y174782D01*
X518414Y145064D02*
X689864D01*
X508762Y154716D02*
X518414Y145064D01*
X517398Y183418D02*
Y215676D01*
X524764Y223042D01*
X304038Y188498D02*
X306626D01*
X291846Y150398D02*
X504444D01*
X287307Y145859D02*
X291846Y150398D01*
Y176306D01*
X82340Y157836D02*
X94318Y145859D01*
X287307D01*
X78994Y177068D02*
X82340Y173722D01*
Y157836D02*
Y173722D01*
X783197Y256939D02*
X788416Y262158D01*
X775143Y256939D02*
X783197D01*
X771165Y260916D02*
X775143Y256939D01*
X771165Y260916D02*
Y260981D01*
X770462Y261684D02*
X771165Y260981D01*
X770462Y261684D02*
Y334374D01*
X504444Y150398D02*
X508762Y154716D01*
X1026160Y431068D02*
Y438794D01*
X741172Y141254D02*
X905510D01*
X909896Y145640D01*
X910082Y157510D02*
X940816D01*
X961136Y177830D01*
X989838Y195246D02*
Y240568D01*
Y195246D02*
X992196Y192888D01*
X992310D01*
X1025652Y296448D02*
X1025906D01*
X1021080Y325658D02*
X1021334D01*
X961136Y177830D02*
Y197646D01*
X948182Y210600D02*
X961136Y197646D01*
X948182Y210600D02*
Y334548D01*
X960882Y347248D01*
X291846Y176306D02*
X304038Y188498D01*
D55*
X667580Y165988D02*
D03*
X640080Y165988D02*
D03*
X452580Y165988D02*
D03*
X425080Y165988D02*
D03*
X237580Y165988D02*
D03*
X210080Y165988D02*
D03*
X855080D02*
D03*
X882580D02*
D03*
D56*
X521880Y125488D02*
D03*
X608280D02*
D03*
X306880D02*
D03*
X393280D02*
D03*
X91880D02*
D03*
X178280D02*
D03*
X823280Y125488D02*
D03*
X736880D02*
D03*
D57*
X536181Y161988D02*
D03*
X593979D02*
D03*
X321181D02*
D03*
X378979D02*
D03*
X106181D02*
D03*
X163979D02*
D03*
X1017580Y246286D02*
D03*
Y188488D02*
D03*
X808979Y161988D02*
D03*
X751181Y161988D02*
D03*
D58*
X521880Y167288D02*
D03*
X608280D02*
D03*
X306880D02*
D03*
X393280D02*
D03*
X91880D02*
D03*
X178280D02*
D03*
X823280D02*
D03*
X736880Y167288D02*
D03*
D59*
X38862Y187990D02*
D03*
D60*
Y137190D02*
D03*
D61*
X1054080Y260587D02*
D03*
Y174187D02*
D03*
D62*
X1012280Y260587D02*
D03*
Y174187D02*
D03*
D63*
X883280Y75488D02*
D03*
X668280Y75488D02*
D03*
X453280D02*
D03*
X238280D02*
D03*
D64*
X147065Y190711D02*
D03*
X1024009Y484404D02*
D03*
X158006Y235709D02*
D03*
X66524Y294138D02*
D03*
X1031009Y484404D02*
D03*
X153226Y242772D02*
D03*
X71473Y299087D02*
D03*
X170434Y270540D02*
D03*
X161017Y242072D02*
D03*
X224536Y560862D02*
D03*
X361696Y191038D02*
D03*
X1013024Y494961D02*
D03*
X975994Y582995D02*
D03*
X309860Y541106D02*
D03*
X1008112Y489974D02*
D03*
X969010Y583468D02*
D03*
X302687Y541380D02*
D03*
X347847Y264190D02*
D03*
X372235Y235384D02*
D03*
X378202Y239044D02*
D03*
X372028Y242567D02*
D03*
X373888Y259618D02*
D03*
X381508Y268000D02*
D03*
X577581Y190711D02*
D03*
X562983Y264055D02*
D03*
X990280Y560646D02*
D03*
X993773Y486923D02*
D03*
X586775Y242546D02*
D03*
X527042Y540288D02*
D03*
X990764Y567630D02*
D03*
X986790Y486440D02*
D03*
X586983Y235204D02*
D03*
X520042Y540288D02*
D03*
X592836Y239044D02*
D03*
X588620Y260091D02*
D03*
X596987Y267325D02*
D03*
X734392Y539898D02*
D03*
X741391Y539776D02*
D03*
X439674Y561116D02*
D03*
X726440Y183164D02*
D03*
X742252Y210738D02*
D03*
X777502Y264535D02*
D03*
X803656Y258856D02*
D03*
X812546Y267746D02*
D03*
X802551Y242119D02*
D03*
X805942Y235996D02*
D03*
X799426Y233384D02*
D03*
X791210Y191800D02*
D03*
X975143Y204565D02*
D03*
X970154Y210100D02*
D03*
X1057656Y369346D02*
D03*
X1031390Y397794D02*
D03*
X963620Y445532D02*
D03*
X957217Y442702D02*
D03*
X969921Y442348D02*
D03*
X946404Y443514D02*
D03*
X969454Y490779D02*
D03*
X964946Y485424D02*
D03*
X1018032Y591842D02*
D03*
Y584842D02*
D03*
X919077Y559988D02*
D03*
X966470Y556798D02*
D03*
X950084Y550318D02*
D03*
X945134Y545368D02*
D03*
X159092Y259972D02*
D03*
X132955Y263729D02*
D03*
X143416Y262158D02*
D03*
X358416D02*
D03*
X340462Y334374D02*
D03*
X573416Y262158D02*
D03*
X555462Y334374D02*
D03*
X56388Y251744D02*
D03*
X44772Y363758D02*
D03*
X75213Y363729D02*
D03*
X106514Y296040D02*
D03*
X321514D02*
D03*
X536514D02*
D03*
X655580Y308488D02*
D03*
X646580D02*
D03*
X633518Y366200D02*
D03*
X619518D02*
D03*
X626518D02*
D03*
X640518D02*
D03*
Y373200D02*
D03*
X633518D02*
D03*
X626518D02*
D03*
X619518D02*
D03*
X626518Y380200D02*
D03*
X619518D02*
D03*
X640518D02*
D03*
X633518D02*
D03*
Y387200D02*
D03*
X619518D02*
D03*
X626518D02*
D03*
X640518D02*
D03*
X654580Y349488D02*
D03*
X665080Y265988D02*
D03*
X586298Y322202D02*
D03*
X548452Y191392D02*
D03*
X697580Y473488D02*
D03*
Y465988D02*
D03*
Y443488D02*
D03*
Y458488D02*
D03*
Y450988D02*
D03*
X705080D02*
D03*
X705080Y458488D02*
D03*
X705080Y473488D02*
D03*
Y465988D02*
D03*
X712580D02*
D03*
Y458488D02*
D03*
Y480988D02*
D03*
Y473488D02*
D03*
X697580Y495988D02*
D03*
X697580Y518488D02*
D03*
Y510988D02*
D03*
Y488488D02*
D03*
Y480988D02*
D03*
Y503488D02*
D03*
X705080Y495988D02*
D03*
X697580Y525988D02*
D03*
X697580Y548488D02*
D03*
Y540988D02*
D03*
Y533488D02*
D03*
X705080Y525988D02*
D03*
X705080Y540988D02*
D03*
Y480988D02*
D03*
Y503488D02*
D03*
Y488488D02*
D03*
X712580Y495988D02*
D03*
Y488488D02*
D03*
Y510988D02*
D03*
Y503488D02*
D03*
X705080Y518488D02*
D03*
Y510988D02*
D03*
Y533488D02*
D03*
X712580Y525988D02*
D03*
Y518488D02*
D03*
Y533488D02*
D03*
X553250Y367738D02*
D03*
Y374738D02*
D03*
X665080Y235988D02*
D03*
X672580Y235988D02*
D03*
X680080Y235988D02*
D03*
X687580D02*
D03*
X524764Y223042D02*
D03*
X539080Y197488D02*
D03*
X532580Y195988D02*
D03*
X537580Y190988D02*
D03*
X525526Y188498D02*
D03*
X702580Y258488D02*
D03*
Y273488D02*
D03*
X695080D02*
D03*
Y265988D02*
D03*
X702580Y265988D02*
D03*
X687580Y258488D02*
D03*
X695080D02*
D03*
X680080D02*
D03*
X672580D02*
D03*
X591082Y197488D02*
D03*
X597582Y195988D02*
D03*
X592582Y190988D02*
D03*
X702580Y250988D02*
D03*
X687580D02*
D03*
X695080D02*
D03*
X702580Y243488D02*
D03*
X695080D02*
D03*
X680080D02*
D03*
X687580D02*
D03*
X702580Y235988D02*
D03*
X695080D02*
D03*
X680080Y250988D02*
D03*
X665080Y258488D02*
D03*
Y250988D02*
D03*
Y243488D02*
D03*
X672580Y250988D02*
D03*
Y243488D02*
D03*
X665080Y273488D02*
D03*
X687580D02*
D03*
X680080D02*
D03*
X672580D02*
D03*
X680080Y265988D02*
D03*
X687580D02*
D03*
X672580Y265988D02*
D03*
X705080Y548488D02*
D03*
X712580D02*
D03*
X637580Y308488D02*
D03*
Y324488D02*
D03*
Y316488D02*
D03*
X712580Y540988D02*
D03*
X655580Y324488D02*
D03*
X646580D02*
D03*
X655580Y316488D02*
D03*
X646580D02*
D03*
X546250Y374738D02*
D03*
X539250D02*
D03*
X546250Y367738D02*
D03*
X539250D02*
D03*
X532250D02*
D03*
Y360738D02*
D03*
X539250D02*
D03*
X546250D02*
D03*
X553250D02*
D03*
X546250Y381738D02*
D03*
X532250D02*
D03*
X553250D02*
D03*
X532250Y374738D02*
D03*
X539250Y381738D02*
D03*
X705080Y443488D02*
D03*
X712580Y450988D02*
D03*
Y443488D02*
D03*
X431580Y308488D02*
D03*
X440580D02*
D03*
X404518Y373200D02*
D03*
X411518Y366200D02*
D03*
X404518D02*
D03*
X425518D02*
D03*
X418518D02*
D03*
Y373200D02*
D03*
X411518D02*
D03*
X425518D02*
D03*
X411518Y380200D02*
D03*
X404518D02*
D03*
X418518D02*
D03*
X425518D02*
D03*
X411518Y387200D02*
D03*
X404518D02*
D03*
X418518D02*
D03*
X425518D02*
D03*
X439580Y349488D02*
D03*
X450080Y265988D02*
D03*
X371298Y322202D02*
D03*
X333452Y191392D02*
D03*
X482580Y473488D02*
D03*
Y465988D02*
D03*
Y443488D02*
D03*
Y458488D02*
D03*
Y450988D02*
D03*
X490080D02*
D03*
X490080Y458488D02*
D03*
X490080Y473488D02*
D03*
Y465988D02*
D03*
X497580D02*
D03*
Y458488D02*
D03*
Y480988D02*
D03*
Y473488D02*
D03*
X482580Y495988D02*
D03*
X482580Y518488D02*
D03*
Y510988D02*
D03*
Y488488D02*
D03*
Y480988D02*
D03*
Y503488D02*
D03*
X490080Y495988D02*
D03*
X482580Y525988D02*
D03*
X482580Y548488D02*
D03*
Y540988D02*
D03*
Y533488D02*
D03*
X490080Y525988D02*
D03*
X490080Y540988D02*
D03*
Y480988D02*
D03*
Y503488D02*
D03*
Y488488D02*
D03*
X497580Y495988D02*
D03*
Y488488D02*
D03*
Y510988D02*
D03*
Y503488D02*
D03*
X490080Y518488D02*
D03*
Y510988D02*
D03*
Y533488D02*
D03*
X497580Y525988D02*
D03*
Y518488D02*
D03*
Y533488D02*
D03*
X338250Y367738D02*
D03*
Y374738D02*
D03*
X450080Y235988D02*
D03*
X457580Y235988D02*
D03*
X465080Y235988D02*
D03*
X472580D02*
D03*
X457580Y243488D02*
D03*
X382582Y195988D02*
D03*
X457580Y250988D02*
D03*
X450080D02*
D03*
Y243488D02*
D03*
X377582Y190988D02*
D03*
X480080Y243488D02*
D03*
Y235988D02*
D03*
X465080Y243488D02*
D03*
X487580Y235988D02*
D03*
X487580Y250988D02*
D03*
Y243488D02*
D03*
X472580Y250988D02*
D03*
X465080D02*
D03*
X480080D02*
D03*
X472580Y243488D02*
D03*
X450080Y258488D02*
D03*
X465080Y265988D02*
D03*
X472580D02*
D03*
X465080Y258488D02*
D03*
X472580D02*
D03*
X457580D02*
D03*
Y265988D02*
D03*
X487580Y273488D02*
D03*
Y258488D02*
D03*
Y265988D02*
D03*
X480080Y258488D02*
D03*
Y265988D02*
D03*
Y273488D02*
D03*
X472580D02*
D03*
X465080D02*
D03*
X457580D02*
D03*
X450080D02*
D03*
X306626Y188498D02*
D03*
X376082Y197488D02*
D03*
X324080D02*
D03*
X312542Y212496D02*
D03*
X317580Y195988D02*
D03*
X322580Y190988D02*
D03*
X497580Y540988D02*
D03*
X497580Y548488D02*
D03*
X490080D02*
D03*
Y443488D02*
D03*
X497580D02*
D03*
Y450988D02*
D03*
X317250Y381738D02*
D03*
X338250D02*
D03*
X324250D02*
D03*
X338250Y360738D02*
D03*
X331250Y381738D02*
D03*
Y374738D02*
D03*
Y360738D02*
D03*
Y367738D02*
D03*
X324250Y374738D02*
D03*
Y367738D02*
D03*
Y360738D02*
D03*
X317250Y374738D02*
D03*
Y360738D02*
D03*
Y367738D02*
D03*
X422580Y316488D02*
D03*
Y324488D02*
D03*
Y308488D02*
D03*
X431580Y324488D02*
D03*
Y316488D02*
D03*
X440580Y324488D02*
D03*
Y316488D02*
D03*
X216580Y308488D02*
D03*
X225580D02*
D03*
X196518Y366200D02*
D03*
X189518D02*
D03*
Y373200D02*
D03*
X203518D02*
D03*
X196518D02*
D03*
Y380200D02*
D03*
X189518D02*
D03*
Y387200D02*
D03*
X203518D02*
D03*
X196518D02*
D03*
X203518Y366200D02*
D03*
X210518D02*
D03*
Y373200D02*
D03*
X203518Y380200D02*
D03*
X210518Y387200D02*
D03*
Y380200D02*
D03*
X224580Y349488D02*
D03*
X235080Y265988D02*
D03*
X156298Y322202D02*
D03*
X118452Y191392D02*
D03*
X267580Y473488D02*
D03*
Y465988D02*
D03*
Y443488D02*
D03*
Y458488D02*
D03*
Y450988D02*
D03*
X275080D02*
D03*
X275080Y458488D02*
D03*
X275080Y473488D02*
D03*
Y465988D02*
D03*
X282580D02*
D03*
Y458488D02*
D03*
Y480988D02*
D03*
Y473488D02*
D03*
X267580Y495988D02*
D03*
X267580Y518488D02*
D03*
Y510988D02*
D03*
Y488488D02*
D03*
Y480988D02*
D03*
Y503488D02*
D03*
X275080Y495988D02*
D03*
X267580Y525988D02*
D03*
X267580Y548488D02*
D03*
Y540988D02*
D03*
Y533488D02*
D03*
X275080Y525988D02*
D03*
X275080Y540988D02*
D03*
Y480988D02*
D03*
Y503488D02*
D03*
Y488488D02*
D03*
X282580Y495988D02*
D03*
Y488488D02*
D03*
Y510988D02*
D03*
Y503488D02*
D03*
X275080Y518488D02*
D03*
Y510988D02*
D03*
Y533488D02*
D03*
X282580Y525988D02*
D03*
Y518488D02*
D03*
Y533488D02*
D03*
X123250Y374738D02*
D03*
Y367738D02*
D03*
X235080Y235988D02*
D03*
X242580Y235988D02*
D03*
X257580Y235988D02*
D03*
X250080D02*
D03*
X275080Y548488D02*
D03*
X282580Y540988D02*
D03*
X109250Y367738D02*
D03*
Y360738D02*
D03*
X123250Y381738D02*
D03*
Y360738D02*
D03*
X116250Y381738D02*
D03*
Y374738D02*
D03*
Y360738D02*
D03*
Y367738D02*
D03*
X109250Y374738D02*
D03*
X272580Y265988D02*
D03*
X265080Y235988D02*
D03*
Y243488D02*
D03*
Y250988D02*
D03*
X272580Y273488D02*
D03*
Y258488D02*
D03*
Y250988D02*
D03*
Y243488D02*
D03*
X272580Y235988D02*
D03*
X265080Y265988D02*
D03*
Y273488D02*
D03*
Y258488D02*
D03*
X109250Y381738D02*
D03*
X257580Y273488D02*
D03*
Y265988D02*
D03*
Y258488D02*
D03*
Y250988D02*
D03*
X250080D02*
D03*
X250080Y265988D02*
D03*
Y273488D02*
D03*
Y258488D02*
D03*
X257580Y243488D02*
D03*
X250080D02*
D03*
X235080Y250988D02*
D03*
Y258488D02*
D03*
Y243488D02*
D03*
X242580Y265988D02*
D03*
Y258488D02*
D03*
Y250988D02*
D03*
Y243488D02*
D03*
X225580Y316488D02*
D03*
X216580D02*
D03*
X207580D02*
D03*
X225580Y324488D02*
D03*
X216580D02*
D03*
X207580D02*
D03*
Y308488D02*
D03*
X242580Y273488D02*
D03*
X235080D02*
D03*
X275080Y443488D02*
D03*
X282580Y450988D02*
D03*
Y443488D02*
D03*
X161082Y197488D02*
D03*
X162582Y190988D02*
D03*
X167582Y195988D02*
D03*
X102580Y195988D02*
D03*
X109080Y197488D02*
D03*
X94946Y221014D02*
D03*
X282580Y548488D02*
D03*
X107580Y190988D02*
D03*
X78994Y177068D02*
D03*
X102250Y381738D02*
D03*
Y367738D02*
D03*
Y360738D02*
D03*
Y374738D02*
D03*
X869580Y349488D02*
D03*
X654580Y562110D02*
D03*
X770462Y334374D02*
D03*
X788416Y262158D02*
D03*
X754250Y381738D02*
D03*
X761250D02*
D03*
X747250D02*
D03*
X754250Y374738D02*
D03*
X768250Y381738D02*
D03*
X747250Y374738D02*
D03*
X768250D02*
D03*
X761250D02*
D03*
Y360738D02*
D03*
X768250D02*
D03*
X747250D02*
D03*
X768250Y367738D02*
D03*
X754250Y360738D02*
D03*
X747250Y367738D02*
D03*
X761250D02*
D03*
X754250D02*
D03*
X841518Y387200D02*
D03*
X848518D02*
D03*
X834518D02*
D03*
X841518Y380200D02*
D03*
X855518Y387200D02*
D03*
X834518Y380200D02*
D03*
X855518D02*
D03*
X848518D02*
D03*
Y366200D02*
D03*
X855518D02*
D03*
X834518D02*
D03*
X855518Y373200D02*
D03*
X841518Y366200D02*
D03*
X834518Y373200D02*
D03*
X848518D02*
D03*
X841518D02*
D03*
X1026160Y438794D02*
D03*
X924560Y141762D02*
D03*
X924306Y132364D02*
D03*
X924814Y122458D02*
D03*
X909896Y145640D02*
D03*
X910082Y157510D02*
D03*
X989838Y240568D02*
D03*
X992310Y192888D02*
D03*
X1025652Y296448D02*
D03*
X1021080Y325658D02*
D03*
X990330Y442260D02*
D03*
X1024128Y382046D02*
D03*
X988923Y396016D02*
D03*
X960882Y347248D02*
D03*
X961136Y177830D02*
D03*
X943356Y384840D02*
D03*
X989330Y405922D02*
D03*
X983996Y137698D02*
D03*
X963796Y118970D02*
D03*
X920080Y443488D02*
D03*
X927580D02*
D03*
Y450988D02*
D03*
X920080Y548488D02*
D03*
X927580Y540988D02*
D03*
X927580Y548488D02*
D03*
X887580Y250988D02*
D03*
X880080Y243488D02*
D03*
Y250988D02*
D03*
X887580Y243488D02*
D03*
X880080Y258488D02*
D03*
X887580D02*
D03*
Y273488D02*
D03*
Y265988D02*
D03*
X880080Y273488D02*
D03*
X812582Y195988D02*
D03*
X807582Y190988D02*
D03*
X752580D02*
D03*
X754080Y197488D02*
D03*
X747580Y195988D02*
D03*
X806082Y197488D02*
D03*
X861580Y324488D02*
D03*
X917580Y258488D02*
D03*
X902580D02*
D03*
X895080Y243488D02*
D03*
X902580Y250988D02*
D03*
Y243488D02*
D03*
X910080D02*
D03*
Y250988D02*
D03*
X917580D02*
D03*
X910080Y235988D02*
D03*
X917580D02*
D03*
X917580Y243488D02*
D03*
X895080Y250988D02*
D03*
X910080Y258488D02*
D03*
Y265988D02*
D03*
X902580Y273488D02*
D03*
X910080D02*
D03*
X895080D02*
D03*
Y258488D02*
D03*
Y265988D02*
D03*
X902580D02*
D03*
X870580Y324488D02*
D03*
X852580D02*
D03*
X861580Y316488D02*
D03*
X870580D02*
D03*
X852580D02*
D03*
Y308488D02*
D03*
X917580Y273488D02*
D03*
Y265988D02*
D03*
X902580Y235988D02*
D03*
X895080D02*
D03*
X887580Y235988D02*
D03*
X880080Y235988D02*
D03*
X751514Y296040D02*
D03*
X927580Y533488D02*
D03*
Y518488D02*
D03*
Y525988D02*
D03*
X920080Y533488D02*
D03*
Y510988D02*
D03*
Y518488D02*
D03*
X927580Y503488D02*
D03*
Y510988D02*
D03*
Y488488D02*
D03*
Y495988D02*
D03*
X920080Y488488D02*
D03*
Y503488D02*
D03*
Y480988D02*
D03*
Y540988D02*
D03*
X920080Y525988D02*
D03*
X912580Y533488D02*
D03*
Y540988D02*
D03*
Y548488D02*
D03*
X912580Y525988D02*
D03*
X920080Y495988D02*
D03*
X912580Y503488D02*
D03*
Y480988D02*
D03*
Y488488D02*
D03*
Y510988D02*
D03*
Y518488D02*
D03*
X912580Y495988D02*
D03*
X927580Y473488D02*
D03*
Y480988D02*
D03*
Y458488D02*
D03*
Y465988D02*
D03*
X920080D02*
D03*
Y473488D02*
D03*
X920080Y458488D02*
D03*
X920080Y450988D02*
D03*
X912580D02*
D03*
Y458488D02*
D03*
Y443488D02*
D03*
Y465988D02*
D03*
Y473488D02*
D03*
X763452Y191392D02*
D03*
X801298Y322202D02*
D03*
X880080Y265988D02*
D03*
X870580Y308488D02*
D03*
X861580D02*
D03*
D65*
X643810Y315488D02*
D03*
X428810D02*
D03*
X213810D02*
D03*
X858810D02*
D03*
D66*
X542500Y370988D02*
D03*
X327500D02*
D03*
X112500D02*
D03*
X757500D02*
D03*
D67*
X924475Y131898D02*
D03*
M02*
