M48
;Layer_Color=9474304
;FILE_FORMAT=2:5
INCH
;TYPE=PLATED
T2F00S00C0.02756
%
G90
G05
T02
X0363496Y0070468G85Y0072436
X0363496Y0085940G85Y0089877
X0439874Y0090625G85X0435937
X0455346Y0090625G85X0453378
X0455346Y0124641G85X0453378
X0439874Y0124641G85X0435937
X0329480Y0085940G85Y0089877
X0329480Y0070468G85Y0072436
X0278850Y0070468G85Y0072436
X0278850Y0085940G85Y0089877
X0244835Y0085940G85Y0089877
X0244835Y0070468G85Y0072436
X0194205Y0070468G85Y0072436
X0194205Y0085940G85Y0089877
X0160189Y0085940G85Y0089877
X0160189Y0070468G85Y0072436
X0109559Y0070468G85Y0072436
X0109559Y0085940G85Y0089877
X0075543Y0085940G85Y0089877
X0075543Y0070468G85Y0072436
M30
