G04*
G04 #@! TF.GenerationSoftware,Altium Limited,Altium Designer,23.4.1 (23)*
G04*
G04 Layer_Color=8388736*
%FSLAX44Y44*%
%MOMM*%
G71*
G04*
G04 #@! TF.SameCoordinates,3060DD58-918D-4E1B-9459-4C9D01607EA3*
G04*
G04*
G04 #@! TF.FilePolarity,Negative*
G04*
G01*
G75*
G04:AMPARAMS|DCode=73|XSize=1.6532mm|YSize=1.1532mm|CornerRadius=0.3391mm|HoleSize=0mm|Usage=FLASHONLY|Rotation=0.000|XOffset=0mm|YOffset=0mm|HoleType=Round|Shape=RoundedRectangle|*
%AMROUNDEDRECTD73*
21,1,1.6532,0.4750,0,0,0.0*
21,1,0.9750,1.1532,0,0,0.0*
1,1,0.6782,0.4875,-0.2375*
1,1,0.6782,-0.4875,-0.2375*
1,1,0.6782,-0.4875,0.2375*
1,1,0.6782,0.4875,0.2375*
%
%ADD73ROUNDEDRECTD73*%
G04:AMPARAMS|DCode=74|XSize=1.2032mm|YSize=1.1032mm|CornerRadius=0.3266mm|HoleSize=0mm|Usage=FLASHONLY|Rotation=0.000|XOffset=0mm|YOffset=0mm|HoleType=Round|Shape=RoundedRectangle|*
%AMROUNDEDRECTD74*
21,1,1.2032,0.4500,0,0,0.0*
21,1,0.5500,1.1032,0,0,0.0*
1,1,0.6532,0.2750,-0.2250*
1,1,0.6532,-0.2750,-0.2250*
1,1,0.6532,-0.2750,0.2250*
1,1,0.6532,0.2750,0.2250*
%
%ADD74ROUNDEDRECTD74*%
G04:AMPARAMS|DCode=75|XSize=2.0032mm|YSize=1.5032mm|CornerRadius=0.4266mm|HoleSize=0mm|Usage=FLASHONLY|Rotation=90.000|XOffset=0mm|YOffset=0mm|HoleType=Round|Shape=RoundedRectangle|*
%AMROUNDEDRECTD75*
21,1,2.0032,0.6500,0,0,90.0*
21,1,1.1500,1.5032,0,0,90.0*
1,1,0.8532,0.3250,0.5750*
1,1,0.8532,0.3250,-0.5750*
1,1,0.8532,-0.3250,-0.5750*
1,1,0.8532,-0.3250,0.5750*
%
%ADD75ROUNDEDRECTD75*%
G04:AMPARAMS|DCode=76|XSize=1.7032mm|YSize=3.7032mm|CornerRadius=0.4766mm|HoleSize=0mm|Usage=FLASHONLY|Rotation=270.000|XOffset=0mm|YOffset=0mm|HoleType=Round|Shape=RoundedRectangle|*
%AMROUNDEDRECTD76*
21,1,1.7032,2.7500,0,0,270.0*
21,1,0.7500,3.7032,0,0,270.0*
1,1,0.9532,-1.3750,-0.3750*
1,1,0.9532,-1.3750,0.3750*
1,1,0.9532,1.3750,0.3750*
1,1,0.9532,1.3750,-0.3750*
%
%ADD76ROUNDEDRECTD76*%
%ADD77R,3.7032X1.7032*%
G04:AMPARAMS|DCode=78|XSize=3.2032mm|YSize=4.2032mm|CornerRadius=0mm|HoleSize=0mm|Usage=FLASHONLY|Rotation=0.000|XOffset=0mm|YOffset=0mm|HoleType=Round|Shape=Octagon|*
%AMOCTAGOND78*
4,1,8,-0.8008,2.1016,0.8008,2.1016,1.6016,1.3008,1.6016,-1.3008,0.8008,-2.1016,-0.8008,-2.1016,-1.6016,-1.3008,-1.6016,1.3008,-0.8008,2.1016,0.0*
%
%ADD78OCTAGOND78*%

%ADD79R,2.1032X0.8032*%
G04:AMPARAMS|DCode=80|XSize=0.8032mm|YSize=2.1032mm|CornerRadius=0.2516mm|HoleSize=0mm|Usage=FLASHONLY|Rotation=90.000|XOffset=0mm|YOffset=0mm|HoleType=Round|Shape=RoundedRectangle|*
%AMROUNDEDRECTD80*
21,1,0.8032,1.6000,0,0,90.0*
21,1,0.3000,2.1032,0,0,90.0*
1,1,0.5032,0.8000,0.1500*
1,1,0.5032,0.8000,-0.1500*
1,1,0.5032,-0.8000,-0.1500*
1,1,0.5032,-0.8000,0.1500*
%
%ADD80ROUNDEDRECTD80*%
G04:AMPARAMS|DCode=81|XSize=1.2032mm|YSize=1.1032mm|CornerRadius=0.3266mm|HoleSize=0mm|Usage=FLASHONLY|Rotation=90.000|XOffset=0mm|YOffset=0mm|HoleType=Round|Shape=RoundedRectangle|*
%AMROUNDEDRECTD81*
21,1,1.2032,0.4500,0,0,90.0*
21,1,0.5500,1.1032,0,0,90.0*
1,1,0.6532,0.2250,0.2750*
1,1,0.6532,0.2250,-0.2750*
1,1,0.6532,-0.2250,-0.2750*
1,1,0.6532,-0.2250,0.2750*
%
%ADD81ROUNDEDRECTD81*%
%ADD82R,5.7032X12.2032*%
%ADD83R,0.5032X1.6532*%
%ADD84R,0.8032X1.6532*%
%ADD85R,0.8032X2.1032*%
G04:AMPARAMS|DCode=86|XSize=0.8032mm|YSize=2.1032mm|CornerRadius=0.2516mm|HoleSize=0mm|Usage=FLASHONLY|Rotation=0.000|XOffset=0mm|YOffset=0mm|HoleType=Round|Shape=RoundedRectangle|*
%AMROUNDEDRECTD86*
21,1,0.8032,1.6000,0,0,0.0*
21,1,0.3000,2.1032,0,0,0.0*
1,1,0.5032,0.1500,-0.8000*
1,1,0.5032,-0.1500,-0.8000*
1,1,0.5032,-0.1500,0.8000*
1,1,0.5032,0.1500,0.8000*
%
%ADD86ROUNDEDRECTD86*%
G04:AMPARAMS|DCode=87|XSize=2.1032mm|YSize=0.6832mm|CornerRadius=0.1616mm|HoleSize=0mm|Usage=FLASHONLY|Rotation=270.000|XOffset=0mm|YOffset=0mm|HoleType=Round|Shape=RoundedRectangle|*
%AMROUNDEDRECTD87*
21,1,2.1032,0.3600,0,0,270.0*
21,1,1.7800,0.6832,0,0,270.0*
1,1,0.3232,-0.1800,-0.8900*
1,1,0.3232,-0.1800,0.8900*
1,1,0.3232,0.1800,0.8900*
1,1,0.3232,0.1800,-0.8900*
%
%ADD87ROUNDEDRECTD87*%
%ADD88R,0.6832X2.1032*%
%ADD89R,1.6032X1.4032*%
G04:AMPARAMS|DCode=90|XSize=1.1532mm|YSize=1.0532mm|CornerRadius=0.3141mm|HoleSize=0mm|Usage=FLASHONLY|Rotation=180.000|XOffset=0mm|YOffset=0mm|HoleType=Round|Shape=RoundedRectangle|*
%AMROUNDEDRECTD90*
21,1,1.1532,0.4250,0,0,180.0*
21,1,0.5250,1.0532,0,0,180.0*
1,1,0.6282,-0.2625,0.2125*
1,1,0.6282,0.2625,0.2125*
1,1,0.6282,0.2625,-0.2125*
1,1,0.6282,-0.2625,-0.2125*
%
%ADD90ROUNDEDRECTD90*%
%ADD91R,1.1532X1.0532*%
G04:AMPARAMS|DCode=92|XSize=1.7032mm|YSize=1.7232mm|CornerRadius=0.4766mm|HoleSize=0mm|Usage=FLASHONLY|Rotation=0.000|XOffset=0mm|YOffset=0mm|HoleType=Round|Shape=RoundedRectangle|*
%AMROUNDEDRECTD92*
21,1,1.7032,0.7700,0,0,0.0*
21,1,0.7500,1.7232,0,0,0.0*
1,1,0.9532,0.3750,-0.3850*
1,1,0.9532,-0.3750,-0.3850*
1,1,0.9532,-0.3750,0.3850*
1,1,0.9532,0.3750,0.3850*
%
%ADD92ROUNDEDRECTD92*%
%ADD93R,2.4032X3.3032*%
G04:AMPARAMS|DCode=94|XSize=2.0032mm|YSize=1.5032mm|CornerRadius=0.4266mm|HoleSize=0mm|Usage=FLASHONLY|Rotation=180.000|XOffset=0mm|YOffset=0mm|HoleType=Round|Shape=RoundedRectangle|*
%AMROUNDEDRECTD94*
21,1,2.0032,0.6500,0,0,180.0*
21,1,1.1500,1.5032,0,0,180.0*
1,1,0.8532,-0.5750,0.3250*
1,1,0.8532,0.5750,0.3250*
1,1,0.8532,0.5750,-0.3250*
1,1,0.8532,-0.5750,-0.3250*
%
%ADD94ROUNDEDRECTD94*%
%ADD95R,1.6532X0.5032*%
%ADD96R,1.6532X0.8032*%
%ADD97C,3.0000*%
G04:AMPARAMS|DCode=98|XSize=1.6532mm|YSize=1.1532mm|CornerRadius=0.3391mm|HoleSize=0mm|Usage=FLASHONLY|Rotation=90.000|XOffset=0mm|YOffset=0mm|HoleType=Round|Shape=RoundedRectangle|*
%AMROUNDEDRECTD98*
21,1,1.6532,0.4750,0,0,90.0*
21,1,0.9750,1.1532,0,0,90.0*
1,1,0.6782,0.2375,0.4875*
1,1,0.6782,0.2375,-0.4875*
1,1,0.6782,-0.2375,-0.4875*
1,1,0.6782,-0.2375,0.4875*
%
%ADD98ROUNDEDRECTD98*%
%ADD99R,2.1590X2.1590*%
%ADD100O,1.2032X1.8032*%
%ADD101C,0.8782*%
%ADD102O,1.2032X2.3032*%
%ADD103C,1.9032*%
%ADD104R,1.9032X1.9032*%
%ADD105O,1.8032X1.2032*%
%ADD106O,2.3032X1.2032*%
%ADD107C,0.2032*%
%ADD108C,2.9032*%
D73*
X592834Y204996D02*
D03*
Y225996D02*
D03*
X377952Y205176D02*
D03*
Y226176D02*
D03*
X162834Y204996D02*
D03*
Y225996D02*
D03*
X807466Y203906D02*
D03*
Y224906D02*
D03*
X970080Y156488D02*
D03*
Y135488D02*
D03*
X950080Y146488D02*
D03*
Y125488D02*
D03*
X965080Y431488D02*
D03*
Y410488D02*
D03*
D74*
X606734Y256463D02*
D03*
Y240463D02*
D03*
X567580Y223988D02*
D03*
Y207988D02*
D03*
X552580Y223988D02*
D03*
Y207988D02*
D03*
X391734Y256463D02*
D03*
Y240463D02*
D03*
X352580Y223988D02*
D03*
Y207988D02*
D03*
X337580Y223988D02*
D03*
Y207988D02*
D03*
X176484Y256463D02*
D03*
Y240463D02*
D03*
X137580Y223988D02*
D03*
Y207988D02*
D03*
X122580Y223988D02*
D03*
Y207988D02*
D03*
X821734Y256463D02*
D03*
Y240463D02*
D03*
X997580Y415488D02*
D03*
Y431488D02*
D03*
X982580Y415488D02*
D03*
X982580Y431488D02*
D03*
X947580Y412988D02*
D03*
Y428988D02*
D03*
X1030224Y412400D02*
D03*
Y428400D02*
D03*
X767580Y207988D02*
D03*
Y223988D02*
D03*
X782580Y207988D02*
D03*
Y223988D02*
D03*
D75*
X540512Y340898D02*
D03*
X512512D02*
D03*
X327690Y340136D02*
D03*
X299690D02*
D03*
X75378Y343692D02*
D03*
X103378D02*
D03*
X755680Y342422D02*
D03*
X727680D02*
D03*
X966080Y540988D02*
D03*
X994080Y540988D02*
D03*
D76*
X604580Y294488D02*
D03*
X626580Y221488D02*
D03*
X389580Y294488D02*
D03*
X411580Y221488D02*
D03*
X174580Y294488D02*
D03*
X196580Y221488D02*
D03*
X952080Y308488D02*
D03*
X841580Y221488D02*
D03*
X819580Y294488D02*
D03*
D77*
X655580Y294488D02*
D03*
X677580Y221488D02*
D03*
X440580Y294488D02*
D03*
X462580Y221488D02*
D03*
X225580Y294488D02*
D03*
X247580Y221488D02*
D03*
X1003080Y308488D02*
D03*
X892580Y221488D02*
D03*
X870580Y294488D02*
D03*
D78*
X630018Y376700D02*
D03*
X415018D02*
D03*
X200018D02*
D03*
X845018D02*
D03*
D79*
X596518Y395750D02*
D03*
X381518D02*
D03*
X166518D02*
D03*
X811518D02*
D03*
D80*
X596518Y383050D02*
D03*
Y370350D02*
D03*
Y357650D02*
D03*
X663518Y395750D02*
D03*
Y383050D02*
D03*
Y370350D02*
D03*
Y357650D02*
D03*
X381518Y383050D02*
D03*
Y370350D02*
D03*
Y357650D02*
D03*
X448518Y395750D02*
D03*
Y383050D02*
D03*
Y370350D02*
D03*
Y357650D02*
D03*
X166518Y383050D02*
D03*
Y370350D02*
D03*
Y357650D02*
D03*
X233518Y395750D02*
D03*
Y383050D02*
D03*
Y370350D02*
D03*
Y357650D02*
D03*
X878518D02*
D03*
Y370350D02*
D03*
Y383050D02*
D03*
Y395750D02*
D03*
X811518Y357650D02*
D03*
Y370350D02*
D03*
Y383050D02*
D03*
D81*
X560080Y352488D02*
D03*
X576080D02*
D03*
X652080Y338488D02*
D03*
X668080D02*
D03*
X598080Y336488D02*
D03*
X582080D02*
D03*
X599080Y415488D02*
D03*
X583080D02*
D03*
X345080Y352488D02*
D03*
X361080D02*
D03*
X437080Y338488D02*
D03*
X453080D02*
D03*
X383080Y336488D02*
D03*
X367080D02*
D03*
X384080Y415488D02*
D03*
X368080D02*
D03*
X130080Y352488D02*
D03*
X146080D02*
D03*
X222080Y338488D02*
D03*
X238080D02*
D03*
X168080Y336488D02*
D03*
X152080D02*
D03*
X169080Y415488D02*
D03*
X153080D02*
D03*
X798080D02*
D03*
X814080D02*
D03*
X1036448Y382300D02*
D03*
X1052448D02*
D03*
X797080Y336488D02*
D03*
X813080Y336488D02*
D03*
X883080Y338488D02*
D03*
X867080D02*
D03*
X791080Y352488D02*
D03*
X775080D02*
D03*
D82*
X665800Y495988D02*
D03*
X574360D02*
D03*
X450800D02*
D03*
X359360D02*
D03*
X235800D02*
D03*
X144360D02*
D03*
X789360Y495988D02*
D03*
X880800Y495988D02*
D03*
D83*
X582581Y175938D02*
D03*
X577581D02*
D03*
X547581D02*
D03*
X552581D02*
D03*
X562581D02*
D03*
X567581D02*
D03*
X557581D02*
D03*
X572581D02*
D03*
X367581D02*
D03*
X362581D02*
D03*
X332581D02*
D03*
X337581D02*
D03*
X347581D02*
D03*
X352581D02*
D03*
X342581D02*
D03*
X357581D02*
D03*
X152581D02*
D03*
X147581D02*
D03*
X117581D02*
D03*
X122581D02*
D03*
X132581D02*
D03*
X137581D02*
D03*
X127581D02*
D03*
X142581D02*
D03*
X787581Y175938D02*
D03*
X772581Y175938D02*
D03*
X782581Y175938D02*
D03*
X777581D02*
D03*
X767581Y175938D02*
D03*
X762581D02*
D03*
X792581Y175938D02*
D03*
X797581D02*
D03*
D84*
X532581D02*
D03*
X597581D02*
D03*
X589581D02*
D03*
X540581D02*
D03*
X317581D02*
D03*
X382581D02*
D03*
X374581D02*
D03*
X325581D02*
D03*
X102581D02*
D03*
X167581D02*
D03*
X159581D02*
D03*
X110581D02*
D03*
X755581Y175938D02*
D03*
X804581D02*
D03*
X812581D02*
D03*
X747581D02*
D03*
D85*
X573630Y313988D02*
D03*
X358630D02*
D03*
X143630D02*
D03*
X788630D02*
D03*
D86*
X560930D02*
D03*
X548230D02*
D03*
X535530D02*
D03*
X573630Y246988D02*
D03*
X560930D02*
D03*
X548230D02*
D03*
X535530D02*
D03*
X345930Y313988D02*
D03*
X333230D02*
D03*
X320530D02*
D03*
X358630Y246988D02*
D03*
X345930D02*
D03*
X333230D02*
D03*
X320530D02*
D03*
X130930Y313988D02*
D03*
X118230D02*
D03*
X105530D02*
D03*
X143630Y246988D02*
D03*
X130930D02*
D03*
X118230D02*
D03*
X105530D02*
D03*
X750530D02*
D03*
X763230D02*
D03*
X775930D02*
D03*
X788630D02*
D03*
X750530Y313988D02*
D03*
X763230Y313988D02*
D03*
X775930Y313988D02*
D03*
D87*
X1042330Y458438D02*
D03*
X1035830Y458438D02*
D03*
X1029330Y458438D02*
D03*
X1022830D02*
D03*
X1016330D02*
D03*
X1009830D02*
D03*
X1003330D02*
D03*
X996830D02*
D03*
X990330D02*
D03*
X983830D02*
D03*
X977330D02*
D03*
X970830D02*
D03*
X964330D02*
D03*
X957830D02*
D03*
Y513538D02*
D03*
X964330D02*
D03*
X970830D02*
D03*
X977330D02*
D03*
X983830D02*
D03*
X990330D02*
D03*
X996830D02*
D03*
X1003330D02*
D03*
X1009830D02*
D03*
X1016330D02*
D03*
X1022830D02*
D03*
X1029330D02*
D03*
X1035830Y513538D02*
D03*
D88*
X1042330Y513538D02*
D03*
D89*
X1044702Y566196D02*
D03*
Y543336D02*
D03*
X1016762Y566196D02*
D03*
Y543336D02*
D03*
D90*
X732028Y212242D02*
D03*
X87376Y192694D02*
D03*
X302514Y212496D02*
D03*
X972580Y177738D02*
D03*
X516890Y214020D02*
D03*
D91*
X732028Y195742D02*
D03*
X87376Y209194D02*
D03*
X302514Y195996D02*
D03*
X972580Y194238D02*
D03*
X516890Y197520D02*
D03*
D92*
X127554Y370836D02*
D03*
X772554D02*
D03*
X557554D02*
D03*
X342554D02*
D03*
D93*
X127374Y403116D02*
D03*
X772374D02*
D03*
X557374D02*
D03*
X342374D02*
D03*
D94*
X1050080Y429988D02*
D03*
X1050080Y401988D02*
D03*
D95*
X1003630Y224888D02*
D03*
Y209888D02*
D03*
Y219888D02*
D03*
Y214888D02*
D03*
Y204888D02*
D03*
Y199888D02*
D03*
Y229888D02*
D03*
Y234888D02*
D03*
D96*
Y192888D02*
D03*
Y241888D02*
D03*
Y249888D02*
D03*
Y184888D02*
D03*
D97*
X72580Y573488D02*
D03*
X20066Y300258D02*
D03*
X937580Y193568D02*
D03*
D98*
X960580Y263488D02*
D03*
X939580D02*
D03*
X951824Y163098D02*
D03*
X930824D02*
D03*
X939206Y366044D02*
D03*
X960206D02*
D03*
X939580Y223488D02*
D03*
X960580D02*
D03*
D99*
X667580Y165988D02*
D03*
X640080Y165988D02*
D03*
X452580Y165988D02*
D03*
X425080Y165988D02*
D03*
X237580Y165988D02*
D03*
X210080Y165988D02*
D03*
X855080D02*
D03*
X882580D02*
D03*
D100*
X521880Y125488D02*
D03*
X608280D02*
D03*
X306880D02*
D03*
X393280D02*
D03*
X91880D02*
D03*
X178280D02*
D03*
X823280Y125488D02*
D03*
X736880D02*
D03*
D101*
X536181Y161988D02*
D03*
X593979D02*
D03*
X321181D02*
D03*
X378979D02*
D03*
X106181D02*
D03*
X163979D02*
D03*
X1017580Y246286D02*
D03*
Y188488D02*
D03*
X808979Y161988D02*
D03*
X751181Y161988D02*
D03*
D102*
X521880Y167288D02*
D03*
X608280D02*
D03*
X306880D02*
D03*
X393280D02*
D03*
X91880D02*
D03*
X178280D02*
D03*
X823280D02*
D03*
X736880Y167288D02*
D03*
D103*
X38862Y187990D02*
D03*
D104*
Y137190D02*
D03*
D105*
X1054080Y260587D02*
D03*
Y174187D02*
D03*
D106*
X1012280Y260587D02*
D03*
Y174187D02*
D03*
D107*
X974486Y660908D02*
D03*
X90674Y660908D02*
D03*
D108*
X883280Y75488D02*
D03*
X668280Y75488D02*
D03*
X453280D02*
D03*
X238280D02*
D03*
M02*
